<?xml version="1.0" encoding="UTF-8" standalone="no"?>
<!DOCTYPE svg PUBLIC "-//W3C//DTD SVG 1.1//EN"
 "http://www.w3.org/Graphics/SVG/1.1/DTD/svg11.dtd">
<!-- Generated by graphviz version 2.34.0 (20130907.0111)
 -->
<!-- Title: Documentation/Operator&#45;Console/JSON/internalJSONNode.h Pages: 1 -->
<svg width="704pt" height="392pt"
 viewBox="0.00 0.00 704.00 392.00" xmlns="http://www.w3.org/2000/svg" xmlns:xlink="http://www.w3.org/1999/xlink">
<g id="graph0" class="graph" transform="scale(1 1) rotate(0) translate(4 388)">
<title>Documentation/Operator&#45;Console/JSON/internalJSONNode.h</title>
<polygon fill="white" stroke="white" points="-4,4 -4,-388 700,-388 700,4 -4,4"/>
<!-- Node1 -->
<g id="node1" class="node"><title>Node1</title>
<polygon fill="#bfbfbf" stroke="black" points="365,-349 365,-383 573,-383 573,-349 365,-349"/>
<text text-anchor="start" x="373" y="-369.4" font-family="Helvetica,sans-Serif" font-size="12.00">Documentation/Operator</text>
<text text-anchor="middle" x="469" y="-356.4" font-family="Helvetica,sans-Serif" font-size="12.00">&#45;Console/JSON/internalJSONNode.h</text>
</g>
<!-- Node2 -->
<g id="node2" class="node"><title>Node2</title>
<g id="a_node2"><a xlink:href="../../d5/d0f/_documentation_2_operator-_console_2_j_s_o_n_2_j_s_o_n_debug_8h.html" target="_top" xlink:title="JSONDebug.h">
<polygon fill="white" stroke="black" points="423,-174.5 423,-195.5 515,-195.5 515,-174.5 423,-174.5"/>
<text text-anchor="middle" x="469" y="-181.9" font-family="Helvetica,sans-Serif" font-size="12.00">JSONDebug.h</text>
</a>
</g>
</g>
<!-- Node1&#45;&gt;Node2 -->
<g id="edge1" class="edge"><title>Node1&#45;&gt;Node2</title>
<path fill="none" stroke="midnightblue" d="M469,-348.799C469,-315.873 469,-241.25 469,-205.632"/>
<polygon fill="midnightblue" stroke="midnightblue" points="472.5,-205.541 469,-195.541 465.5,-205.541 472.5,-205.541"/>
</g>
<!-- Node10 -->
<g id="node10" class="node"><title>Node10</title>
<g id="a_node10"><a xlink:href="../../dc/df5/_documentation_2_operator-_console_2_j_s_o_n_2_j_s_o_n_children_8h.html" target="_top" xlink:title="JSONChildren.h">
<polygon fill="white" stroke="black" points="497.5,-290.5 497.5,-311.5 598.5,-311.5 598.5,-290.5 497.5,-290.5"/>
<text text-anchor="middle" x="548" y="-297.9" font-family="Helvetica,sans-Serif" font-size="12.00">JSONChildren.h</text>
</a>
</g>
</g>
<!-- Node1&#45;&gt;Node10 -->
<g id="edge10" class="edge"><title>Node1&#45;&gt;Node10</title>
<path fill="none" stroke="midnightblue" d="M489.344,-348.776C501.264,-339.271 516.254,-327.317 528.096,-317.873"/>
<polygon fill="midnightblue" stroke="midnightblue" points="530.438,-320.482 536.074,-311.511 526.073,-315.009 530.438,-320.482"/>
</g>
<!-- Node11 -->
<g id="node11" class="node"><title>Node11</title>
<g id="a_node11"><a xlink:href="../../d1/da6/_documentation_2_operator-_console_2_j_s_o_n_2_j_s_o_n_memory_8h.html" target="_top" xlink:title="JSONMemory.h">
<polygon fill="white" stroke="black" points="566.5,-232.5 566.5,-253.5 665.5,-253.5 665.5,-232.5 566.5,-232.5"/>
<text text-anchor="middle" x="616" y="-239.9" font-family="Helvetica,sans-Serif" font-size="12.00">JSONMemory.h</text>
</a>
</g>
</g>
<!-- Node1&#45;&gt;Node11 -->
<g id="edge17" class="edge"><title>Node1&#45;&gt;Node11</title>
<path fill="none" stroke="midnightblue" d="M552.3,-348.988C573.039,-341.133 593.252,-329.43 607,-312 617.578,-298.589 619.128,-278.858 618.446,-264.1"/>
<polygon fill="midnightblue" stroke="midnightblue" points="621.92,-263.646 617.601,-253.971 614.944,-264.227 621.92,-263.646"/>
</g>
<!-- Node14 -->
<g id="node14" class="node"><title>Node14</title>
<g id="a_node14"><a xlink:href="../../d4/dac/_documentation_2_operator-_console_2_j_s_o_n_2_j_s_o_n_globals_8h.html" target="_top" xlink:title="JSONGlobals.h">
<polygon fill="white" stroke="black" points="293.5,-232.5 293.5,-253.5 390.5,-253.5 390.5,-232.5 293.5,-232.5"/>
<text text-anchor="middle" x="342" y="-239.9" font-family="Helvetica,sans-Serif" font-size="12.00">JSONGlobals.h</text>
</a>
</g>
</g>
<!-- Node1&#45;&gt;Node14 -->
<g id="edge18" class="edge"><title>Node1&#45;&gt;Node14</title>
<path fill="none" stroke="midnightblue" d="M364.91,-352.046C341.951,-344.122 320.253,-331.622 306,-312 294.143,-295.677 308.807,-274.946 322.825,-260.69"/>
<polygon fill="midnightblue" stroke="midnightblue" points="325.544,-262.934 330.375,-253.504 320.718,-257.863 325.544,-262.934"/>
</g>
<!-- Node16 -->
<g id="node16" class="node"><title>Node16</title>
<g id="a_node16"><a xlink:href="../../d9/daa/_documentation_2_operator-_console_2_j_s_o_n_2_j_s_o_n_shared_string_8h.html" target="_top" xlink:title="JSONSharedString.h">
<polygon fill="white" stroke="black" points="315,-290.5 315,-311.5 441,-311.5 441,-290.5 315,-290.5"/>
<text text-anchor="middle" x="378" y="-297.9" font-family="Helvetica,sans-Serif" font-size="12.00">JSONSharedString.h</text>
</a>
</g>
</g>
<!-- Node1&#45;&gt;Node16 -->
<g id="edge21" class="edge"><title>Node1&#45;&gt;Node16</title>
<path fill="none" stroke="midnightblue" d="M445.565,-348.776C431.569,-339.086 413.897,-326.852 400.137,-317.326"/>
<polygon fill="midnightblue" stroke="midnightblue" points="401.952,-314.325 391.738,-311.511 397.967,-320.08 401.952,-314.325"/>
</g>
<!-- Node3 -->
<g id="node3" class="node"><title>Node3</title>
<g id="a_node3"><a xlink:href="../../da/dbf/_documentation_2_operator-_console_2_j_s_o_n_2_j_s_o_n_defs_8h.html" target="_top" xlink:title="JSONDefs.h">
<polygon fill="white" stroke="black" points="359,-116.5 359,-137.5 441,-137.5 441,-116.5 359,-116.5"/>
<text text-anchor="middle" x="400" y="-123.9" font-family="Helvetica,sans-Serif" font-size="12.00">JSONDefs.h</text>
</a>
</g>
</g>
<!-- Node2&#45;&gt;Node3 -->
<g id="edge2" class="edge"><title>Node2&#45;&gt;Node3</title>
<path fill="none" stroke="midnightblue" d="M456.981,-174.246C446.79,-165.975 431.964,-153.942 419.989,-144.223"/>
<polygon fill="midnightblue" stroke="midnightblue" points="421.851,-141.227 411.881,-137.643 417.44,-146.662 421.851,-141.227"/>
</g>
<!-- Node4 -->
<g id="node4" class="node"><title>Node4</title>
<g id="a_node4"><a xlink:href="../../de/d2a/_documentation_2_operator-_console_2_j_s_o_n_options_8h.html" target="_top" xlink:title="..\\JSONOptions.h">
<polygon fill="white" stroke="black" points="589.5,-0.5 589.5,-21.5 696.5,-21.5 696.5,-0.5 589.5,-0.5"/>
<text text-anchor="middle" x="643" y="-7.9" font-family="Helvetica,sans-Serif" font-size="12.00">..\JSONOptions.h</text>
</a>
</g>
</g>
<!-- Node3&#45;&gt;Node4 -->
<g id="edge3" class="edge"><title>Node3&#45;&gt;Node4</title>
<path fill="none" stroke="midnightblue" d="M441.323,-122.522C498.316,-116.905 596.971,-103.963 623,-80 636.259,-67.7938 640.893,-47.2986 642.431,-31.9932"/>
<polygon fill="midnightblue" stroke="midnightblue" points="645.927,-32.1643 643.083,-21.9584 638.942,-31.7104 645.927,-32.1643"/>
</g>
<!-- Node5 -->
<g id="node5" class="node"><title>Node5</title>
<g id="a_node5"><a xlink:href="../../d3/d83/_documentation_2_operator-_console_2_j_s_o_n_2_j_s_o_n_defs_2_unknown___c_8h.html" target="_top" xlink:title="JSONDefs\\Unknown_C.h">
<polygon fill="white" stroke="black" points="171,-58.5 171,-79.5 319,-79.5 319,-58.5 171,-58.5"/>
<text text-anchor="middle" x="245" y="-65.9" font-family="Helvetica,sans-Serif" font-size="12.00">JSONDefs\Unknown_C.h</text>
</a>
</g>
</g>
<!-- Node3&#45;&gt;Node5 -->
<g id="edge4" class="edge"><title>Node3&#45;&gt;Node5</title>
<path fill="none" stroke="midnightblue" d="M373.355,-116.373C347.804,-107.142 309.049,-93.1402 280.809,-82.9375"/>
<polygon fill="midnightblue" stroke="midnightblue" points="281.892,-79.6074 271.298,-79.5011 279.513,-86.1909 281.892,-79.6074"/>
</g>
<!-- Node6 -->
<g id="node6" class="node"><title>Node6</title>
<g id="a_node6"><a xlink:href="../../da/d53/_documentation_2_operator-_console_2_j_s_o_n_2_j_s_o_n_defs_2_g_n_u___c_8h.html" target="_top" xlink:title="JSONDefs\\GNU_C.h">
<polygon fill="white" stroke="black" points="337,-58.5 337,-79.5 463,-79.5 463,-58.5 337,-58.5"/>
<text text-anchor="middle" x="400" y="-65.9" font-family="Helvetica,sans-Serif" font-size="12.00">JSONDefs\GNU_C.h</text>
</a>
</g>
</g>
<!-- Node3&#45;&gt;Node6 -->
<g id="edge5" class="edge"><title>Node3&#45;&gt;Node6</title>
<path fill="none" stroke="midnightblue" d="M400,-116.246C400,-108.938 400,-98.6944 400,-89.7046"/>
<polygon fill="midnightblue" stroke="midnightblue" points="403.5,-89.6426 400,-79.6427 396.5,-89.6427 403.5,-89.6426"/>
</g>
<!-- Node7 -->
<g id="node7" class="node"><title>Node7</title>
<g id="a_node7"><a xlink:href="../../de/d63/_documentation_2_operator-_console_2_j_s_o_n_2_j_s_o_n_defs_2_visual___c_8h.html" target="_top" xlink:title="JSONDefs\\Visual_C.h">
<polygon fill="white" stroke="black" points="481.5,-58.5 481.5,-79.5 614.5,-79.5 614.5,-58.5 481.5,-58.5"/>
<text text-anchor="middle" x="548" y="-65.9" font-family="Helvetica,sans-Serif" font-size="12.00">JSONDefs\Visual_C.h</text>
</a>
</g>
</g>
<!-- Node3&#45;&gt;Node7 -->
<g id="edge6" class="edge"><title>Node3&#45;&gt;Node7</title>
<path fill="none" stroke="midnightblue" d="M425.442,-116.373C449.733,-107.182 486.521,-93.2624 513.454,-83.0713"/>
<polygon fill="midnightblue" stroke="midnightblue" points="514.776,-86.3136 522.89,-79.5011 512.298,-79.7666 514.776,-86.3136"/>
</g>
<!-- Node8 -->
<g id="node8" class="node"><title>Node8</title>
<g id="a_node8"><a xlink:href="../../d0/d89/_documentation_2_operator-_console_2_j_s_o_n_2_j_s_o_n_defs_2_strings___defs_8h.html" target="_top" xlink:title="JSONDefs\\Strings_Defs.h">
<polygon fill="white" stroke="black" points="-0.5,-58.5 -0.5,-79.5 152.5,-79.5 152.5,-58.5 -0.5,-58.5"/>
<text text-anchor="middle" x="76" y="-65.9" font-family="Helvetica,sans-Serif" font-size="12.00">JSONDefs\Strings_Defs.h</text>
</a>
</g>
</g>
<!-- Node3&#45;&gt;Node8 -->
<g id="edge7" class="edge"><title>Node3&#45;&gt;Node8</title>
<path fill="none" stroke="midnightblue" d="M358.965,-118.908C304.09,-109.423 206.194,-92.5026 141.171,-81.2642"/>
<polygon fill="midnightblue" stroke="midnightblue" points="141.48,-77.7656 131.03,-79.5113 140.287,-84.6634 141.48,-77.7656"/>
</g>
<!-- Node8&#45;&gt;Node4 -->
<g id="edge8" class="edge"><title>Node8&#45;&gt;Node4</title>
<path fill="none" stroke="midnightblue" d="M152.885,-58.9811C155.963,-58.645 159.011,-58.3167 162,-58 311.356,-42.1764 487.067,-25.9865 579.217,-17.6823"/>
<polygon fill="midnightblue" stroke="midnightblue" points="579.576,-21.1642 589.222,-16.782 578.949,-14.1923 579.576,-21.1642"/>
</g>
<!-- Node9 -->
<g id="node9" class="node"><title>Node9</title>
<polygon fill="white" stroke="#bfbfbf" points="49,-0.5 49,-21.5 103,-21.5 103,-0.5 49,-0.5"/>
<text text-anchor="middle" x="76" y="-7.9" font-family="Helvetica,sans-Serif" font-size="12.00">string.h</text>
</g>
<!-- Node8&#45;&gt;Node9 -->
<g id="edge9" class="edge"><title>Node8&#45;&gt;Node9</title>
<path fill="none" stroke="midnightblue" d="M76,-58.2455C76,-50.9382 76,-40.6944 76,-31.7046"/>
<polygon fill="midnightblue" stroke="midnightblue" points="79.5001,-31.6426 76,-21.6427 72.5001,-31.6427 79.5001,-31.6426"/>
</g>
<!-- Node10&#45;&gt;Node2 -->
<g id="edge16" class="edge"><title>Node10&#45;&gt;Node2</title>
<path fill="none" stroke="midnightblue" d="M541.265,-290.28C528.03,-271.182 498.452,-228.5 481.526,-204.075"/>
<polygon fill="midnightblue" stroke="midnightblue" points="484.291,-201.921 475.718,-195.695 478.538,-205.908 484.291,-201.921"/>
</g>
<!-- Node10&#45;&gt;Node11 -->
<g id="edge11" class="edge"><title>Node10&#45;&gt;Node11</title>
<path fill="none" stroke="midnightblue" d="M559.845,-290.246C569.888,-281.975 584.499,-269.942 596.3,-260.223"/>
<polygon fill="midnightblue" stroke="midnightblue" points="598.797,-262.702 604.291,-253.643 594.347,-257.298 598.797,-262.702"/>
</g>
<!-- Node11&#45;&gt;Node2 -->
<g id="edge15" class="edge"><title>Node11&#45;&gt;Node2</title>
<path fill="none" stroke="midnightblue" d="M590.73,-232.373C566.603,-223.182 530.064,-209.262 503.312,-199.071"/>
<polygon fill="midnightblue" stroke="midnightblue" points="504.531,-195.79 493.94,-195.501 502.039,-202.332 504.531,-195.79"/>
</g>
<!-- Node11&#45;&gt;Node4 -->
<g id="edge14" class="edge"><title>Node11&#45;&gt;Node4</title>
<path fill="none" stroke="midnightblue" d="M630.685,-232.258C641.615,-224.054 655.69,-211.234 662,-196 685.288,-139.778 663.69,-65.9736 650.896,-31.42"/>
<polygon fill="midnightblue" stroke="midnightblue" points="653.991,-29.7175 647.12,-21.6526 647.462,-32.2419 653.991,-29.7175"/>
</g>
<!-- Node12 -->
<g id="node12" class="node"><title>Node12</title>
<polygon fill="white" stroke="#bfbfbf" points="603,-174.5 603,-195.5 653,-195.5 653,-174.5 603,-174.5"/>
<text text-anchor="middle" x="628" y="-181.9" font-family="Helvetica,sans-Serif" font-size="12.00">cstdlib</text>
</g>
<!-- Node11&#45;&gt;Node12 -->
<g id="edge12" class="edge"><title>Node11&#45;&gt;Node12</title>
<path fill="none" stroke="midnightblue" d="M618.09,-232.246C619.656,-224.938 621.851,-214.694 623.778,-205.705"/>
<polygon fill="midnightblue" stroke="midnightblue" points="627.261,-206.154 625.934,-195.643 620.416,-204.687 627.261,-206.154"/>
</g>
<!-- Node13 -->
<g id="node13" class="node"><title>Node13</title>
<polygon fill="white" stroke="#bfbfbf" points="533.5,-174.5 533.5,-195.5 584.5,-195.5 584.5,-174.5 533.5,-174.5"/>
<text text-anchor="middle" x="559" y="-181.9" font-family="Helvetica,sans-Serif" font-size="12.00">cstring</text>
</g>
<!-- Node11&#45;&gt;Node13 -->
<g id="edge13" class="edge"><title>Node11&#45;&gt;Node13</title>
<path fill="none" stroke="midnightblue" d="M606.071,-232.246C597.816,-224.135 585.879,-212.408 576.092,-202.792"/>
<polygon fill="midnightblue" stroke="midnightblue" points="578.401,-200.154 568.815,-195.643 573.495,-205.148 578.401,-200.154"/>
</g>
<!-- Node14&#45;&gt;Node3 -->
<g id="edge19" class="edge"><title>Node14&#45;&gt;Node3</title>
<path fill="none" stroke="midnightblue" d="M341.096,-232.157C340.269,-218.359 340.378,-192.845 350,-174 356.118,-162.017 366.71,-151.581 376.575,-143.691"/>
<polygon fill="midnightblue" stroke="midnightblue" points="378.68,-146.488 384.576,-137.685 374.478,-140.889 378.68,-146.488"/>
</g>
<!-- Node15 -->
<g id="node15" class="node"><title>Node15</title>
<polygon fill="white" stroke="#bfbfbf" points="359.5,-174.5 359.5,-195.5 404.5,-195.5 404.5,-174.5 359.5,-174.5"/>
<text text-anchor="middle" x="382" y="-181.9" font-family="Helvetica,sans-Serif" font-size="12.00">string</text>
</g>
<!-- Node14&#45;&gt;Node15 -->
<g id="edge20" class="edge"><title>Node14&#45;&gt;Node15</title>
<path fill="none" stroke="midnightblue" d="M348.967,-232.246C354.531,-224.456 362.478,-213.331 369.183,-203.944"/>
<polygon fill="midnightblue" stroke="midnightblue" points="372.148,-205.814 375.112,-195.643 366.452,-201.746 372.148,-205.814"/>
</g>
<!-- Node16&#45;&gt;Node2 -->
<g id="edge22" class="edge"><title>Node16&#45;&gt;Node2</title>
<path fill="none" stroke="midnightblue" d="M385.759,-290.28C401.071,-271.098 435.375,-228.124 454.828,-203.753"/>
<polygon fill="midnightblue" stroke="midnightblue" points="457.758,-205.694 461.261,-195.695 452.287,-201.327 457.758,-205.694"/>
</g>
<!-- Node16&#45;&gt;Node14 -->
<g id="edge23" class="edge"><title>Node16&#45;&gt;Node14</title>
<path fill="none" stroke="midnightblue" d="M371.729,-290.246C366.774,-282.537 359.717,-271.56 353.722,-262.235"/>
<polygon fill="midnightblue" stroke="midnightblue" points="356.551,-260.162 348.199,-253.643 350.662,-263.947 356.551,-260.162"/>
</g>
</g>
</svg>
