<?xml version="1.0" encoding="UTF-8" standalone="no"?>
<!DOCTYPE svg PUBLIC "-//W3C//DTD SVG 1.1//EN"
 "http://www.w3.org/Graphics/SVG/1.1/DTD/svg11.dtd">
<!-- Generated by graphviz version 2.34.0 (20130907.0111)
 -->
<!-- Title: Documentation/Operator&#45;Console/JSON/JSONChildren.cpp Pages: 1 -->
<svg width="837pt" height="508pt"
 viewBox="0.00 0.00 837.00 508.00" xmlns="http://www.w3.org/2000/svg" xmlns:xlink="http://www.w3.org/1999/xlink">
<g id="graph0" class="graph" transform="scale(1 1) rotate(0) translate(4 504)">
<title>Documentation/Operator&#45;Console/JSON/JSONChildren.cpp</title>
<polygon fill="white" stroke="white" points="-4,4 -4,-504 833,-504 833,4 -4,4"/>
<!-- Node1 -->
<g id="node1" class="node"><title>Node1</title>
<polygon fill="#bfbfbf" stroke="black" points="208.5,-465 208.5,-499 407.5,-499 407.5,-465 208.5,-465"/>
<text text-anchor="start" x="216.5" y="-485.4" font-family="Helvetica,sans-Serif" font-size="12.00">Documentation/Operator</text>
<text text-anchor="middle" x="308" y="-472.4" font-family="Helvetica,sans-Serif" font-size="12.00">&#45;Console/JSON/JSONChildren.cpp</text>
</g>
<!-- Node2 -->
<g id="node2" class="node"><title>Node2</title>
<g id="a_node2"><a xlink:href="../../dc/df5/_documentation_2_operator-_console_2_j_s_o_n_2_j_s_o_n_children_8h.html" target="_top" xlink:title="JSONChildren.h">
<polygon fill="white" stroke="black" points="149.5,-290.5 149.5,-311.5 250.5,-311.5 250.5,-290.5 149.5,-290.5"/>
<text text-anchor="middle" x="200" y="-297.9" font-family="Helvetica,sans-Serif" font-size="12.00">JSONChildren.h</text>
</a>
</g>
</g>
<!-- Node1&#45;&gt;Node2 -->
<g id="edge1" class="edge"><title>Node1&#45;&gt;Node2</title>
<path fill="none" stroke="midnightblue" d="M286.421,-464.928C262.132,-445.459 223.751,-410.226 206,-370 199.28,-354.771 198.127,-335.784 198.456,-321.747"/>
<polygon fill="midnightblue" stroke="midnightblue" points="201.954,-321.879 198.96,-311.716 194.963,-321.528 201.954,-321.879"/>
</g>
<!-- Node14 -->
<g id="node14" class="node"><title>Node14</title>
<g id="a_node14"><a xlink:href="../../d9/d7e/_documentation_2_operator-_console_2_j_s_o_n_2_j_s_o_n_node_8h.html" target="_top" xlink:title="JSONNode.h">
<polygon fill="white" stroke="black" points="387,-406.5 387,-427.5 473,-427.5 473,-406.5 387,-406.5"/>
<text text-anchor="middle" x="430" y="-413.9" font-family="Helvetica,sans-Serif" font-size="12.00">JSONNode.h</text>
</a>
</g>
</g>
<!-- Node1&#45;&gt;Node14 -->
<g id="edge16" class="edge"><title>Node1&#45;&gt;Node14</title>
<path fill="none" stroke="midnightblue" d="M339.101,-464.939C358.669,-454.835 383.689,-441.914 402.525,-432.188"/>
<polygon fill="midnightblue" stroke="midnightblue" points="404.206,-435.259 411.485,-427.561 400.994,-429.039 404.206,-435.259"/>
</g>
<!-- Node3 -->
<g id="node3" class="node"><title>Node3</title>
<g id="a_node3"><a xlink:href="../../d1/da6/_documentation_2_operator-_console_2_j_s_o_n_2_j_s_o_n_memory_8h.html" target="_top" xlink:title="JSONMemory.h">
<polygon fill="white" stroke="black" points="71.5,-232.5 71.5,-253.5 170.5,-253.5 170.5,-232.5 71.5,-232.5"/>
<text text-anchor="middle" x="121" y="-239.9" font-family="Helvetica,sans-Serif" font-size="12.00">JSONMemory.h</text>
</a>
</g>
</g>
<!-- Node2&#45;&gt;Node3 -->
<g id="edge2" class="edge"><title>Node2&#45;&gt;Node3</title>
<path fill="none" stroke="midnightblue" d="M186.239,-290.246C174.345,-281.814 156.935,-269.473 143.091,-259.66"/>
<polygon fill="midnightblue" stroke="midnightblue" points="144.785,-256.57 134.603,-253.643 140.737,-262.281 144.785,-256.57"/>
</g>
<!-- Node7 -->
<g id="node7" class="node"><title>Node7</title>
<g id="a_node7"><a xlink:href="../../d5/d0f/_documentation_2_operator-_console_2_j_s_o_n_2_j_s_o_n_debug_8h.html" target="_top" xlink:title="JSONDebug.h">
<polygon fill="white" stroke="black" points="324,-174.5 324,-195.5 416,-195.5 416,-174.5 324,-174.5"/>
<text text-anchor="middle" x="370" y="-181.9" font-family="Helvetica,sans-Serif" font-size="12.00">JSONDebug.h</text>
</a>
</g>
</g>
<!-- Node2&#45;&gt;Node7 -->
<g id="edge15" class="edge"><title>Node2&#45;&gt;Node7</title>
<path fill="none" stroke="midnightblue" d="M207.416,-290.034C218.563,-275.623 240.912,-248.851 265,-232 284.991,-218.015 309.913,-206.876 330.459,-199.064"/>
<polygon fill="midnightblue" stroke="midnightblue" points="331.68,-202.344 339.855,-195.604 329.262,-195.775 331.68,-202.344"/>
</g>
<!-- Node4 -->
<g id="node4" class="node"><title>Node4</title>
<polygon fill="white" stroke="#bfbfbf" points="0,-174.5 0,-195.5 50,-195.5 50,-174.5 0,-174.5"/>
<text text-anchor="middle" x="25" y="-181.9" font-family="Helvetica,sans-Serif" font-size="12.00">cstdlib</text>
</g>
<!-- Node3&#45;&gt;Node4 -->
<g id="edge3" class="edge"><title>Node3&#45;&gt;Node4</title>
<path fill="none" stroke="midnightblue" d="M104.278,-232.246C89.4111,-223.573 67.4534,-210.765 50.4142,-200.825"/>
<polygon fill="midnightblue" stroke="midnightblue" points="51.9317,-197.658 41.5303,-195.643 48.4045,-203.705 51.9317,-197.658"/>
</g>
<!-- Node5 -->
<g id="node5" class="node"><title>Node5</title>
<polygon fill="white" stroke="#bfbfbf" points="68.5,-174.5 68.5,-195.5 119.5,-195.5 119.5,-174.5 68.5,-174.5"/>
<text text-anchor="middle" x="94" y="-181.9" font-family="Helvetica,sans-Serif" font-size="12.00">cstring</text>
</g>
<!-- Node3&#45;&gt;Node5 -->
<g id="edge4" class="edge"><title>Node3&#45;&gt;Node5</title>
<path fill="none" stroke="midnightblue" d="M116.297,-232.246C112.658,-224.697 107.508,-214.016 103.074,-204.82"/>
<polygon fill="midnightblue" stroke="midnightblue" points="106.145,-203.13 98.6491,-195.643 99.8395,-206.17 106.145,-203.13"/>
</g>
<!-- Node6 -->
<g id="node6" class="node"><title>Node6</title>
<g id="a_node6"><a xlink:href="../../de/d2a/_documentation_2_operator-_console_2_j_s_o_n_options_8h.html" target="_top" xlink:title="../JSONOptions.h">
<polygon fill="white" stroke="black" points="594.5,-0.5 594.5,-21.5 701.5,-21.5 701.5,-0.5 594.5,-0.5"/>
<text text-anchor="middle" x="648" y="-7.9" font-family="Helvetica,sans-Serif" font-size="12.00">../JSONOptions.h</text>
</a>
</g>
</g>
<!-- Node3&#45;&gt;Node6 -->
<g id="edge5" class="edge"><title>Node3&#45;&gt;Node6</title>
<path fill="none" stroke="midnightblue" d="M122.749,-232.317C129.386,-196.055 153.335,-69.7591 167,-58 198.001,-31.3226 460.904,-18.5955 584.398,-14.0458"/>
<polygon fill="midnightblue" stroke="midnightblue" points="584.607,-17.5406 594.474,-13.6813 584.354,-10.5452 584.607,-17.5406"/>
</g>
<!-- Node3&#45;&gt;Node7 -->
<g id="edge6" class="edge"><title>Node3&#45;&gt;Node7</title>
<path fill="none" stroke="midnightblue" d="M163.522,-232.437C206.136,-222.853 271.818,-208.081 317.621,-197.78"/>
<polygon fill="midnightblue" stroke="midnightblue" points="318.665,-201.133 327.654,-195.524 317.129,-194.303 318.665,-201.133"/>
</g>
<!-- Node8 -->
<g id="node8" class="node"><title>Node8</title>
<g id="a_node8"><a xlink:href="../../da/dbf/_documentation_2_operator-_console_2_j_s_o_n_2_j_s_o_n_defs_8h.html" target="_top" xlink:title="JSONDefs.h">
<polygon fill="white" stroke="black" points="408,-116.5 408,-137.5 490,-137.5 490,-116.5 408,-116.5"/>
<text text-anchor="middle" x="449" y="-123.9" font-family="Helvetica,sans-Serif" font-size="12.00">JSONDefs.h</text>
</a>
</g>
</g>
<!-- Node7&#45;&gt;Node8 -->
<g id="edge7" class="edge"><title>Node7&#45;&gt;Node8</title>
<path fill="none" stroke="midnightblue" d="M383.761,-174.246C395.655,-165.814 413.065,-153.473 426.909,-143.66"/>
<polygon fill="midnightblue" stroke="midnightblue" points="429.263,-146.281 435.397,-137.643 425.215,-140.57 429.263,-146.281"/>
</g>
<!-- Node8&#45;&gt;Node6 -->
<g id="edge8" class="edge"><title>Node8&#45;&gt;Node6</title>
<path fill="none" stroke="midnightblue" d="M490.06,-126.493C530.386,-124.721 591.078,-115.67 628,-80 640.836,-67.5999 645.547,-47.4249 647.219,-32.2643"/>
<polygon fill="midnightblue" stroke="midnightblue" points="650.742,-32.0915 647.99,-21.8601 643.761,-31.5741 650.742,-32.0915"/>
</g>
<!-- Node9 -->
<g id="node9" class="node"><title>Node9</title>
<g id="a_node9"><a xlink:href="../../d3/d83/_documentation_2_operator-_console_2_j_s_o_n_2_j_s_o_n_defs_2_unknown___c_8h.html" target="_top" xlink:title="JSONDefs\\Unknown_C.h">
<polygon fill="white" stroke="black" points="176,-58.5 176,-79.5 324,-79.5 324,-58.5 176,-58.5"/>
<text text-anchor="middle" x="250" y="-65.9" font-family="Helvetica,sans-Serif" font-size="12.00">JSONDefs\Unknown_C.h</text>
</a>
</g>
</g>
<!-- Node8&#45;&gt;Node9 -->
<g id="edge9" class="edge"><title>Node8&#45;&gt;Node9</title>
<path fill="none" stroke="midnightblue" d="M414.791,-116.373C381.27,-106.94 330.05,-92.5265 293.619,-82.2747"/>
<polygon fill="midnightblue" stroke="midnightblue" points="294.337,-78.8409 283.763,-79.5011 292.441,-85.5792 294.337,-78.8409"/>
</g>
<!-- Node10 -->
<g id="node10" class="node"><title>Node10</title>
<g id="a_node10"><a xlink:href="../../da/d53/_documentation_2_operator-_console_2_j_s_o_n_2_j_s_o_n_defs_2_g_n_u___c_8h.html" target="_top" xlink:title="JSONDefs\\GNU_C.h">
<polygon fill="white" stroke="black" points="342,-58.5 342,-79.5 468,-79.5 468,-58.5 342,-58.5"/>
<text text-anchor="middle" x="405" y="-65.9" font-family="Helvetica,sans-Serif" font-size="12.00">JSONDefs\GNU_C.h</text>
</a>
</g>
</g>
<!-- Node8&#45;&gt;Node10 -->
<g id="edge10" class="edge"><title>Node8&#45;&gt;Node10</title>
<path fill="none" stroke="midnightblue" d="M441.336,-116.246C435.153,-108.376 426.294,-97.101 418.871,-87.6542"/>
<polygon fill="midnightblue" stroke="midnightblue" points="421.507,-85.3435 412.576,-79.6427 416.003,-89.6683 421.507,-85.3435"/>
</g>
<!-- Node11 -->
<g id="node11" class="node"><title>Node11</title>
<g id="a_node11"><a xlink:href="../../de/d63/_documentation_2_operator-_console_2_j_s_o_n_2_j_s_o_n_defs_2_visual___c_8h.html" target="_top" xlink:title="JSONDefs\\Visual_C.h">
<polygon fill="white" stroke="black" points="486.5,-58.5 486.5,-79.5 619.5,-79.5 619.5,-58.5 486.5,-58.5"/>
<text text-anchor="middle" x="553" y="-65.9" font-family="Helvetica,sans-Serif" font-size="12.00">JSONDefs\Visual_C.h</text>
</a>
</g>
</g>
<!-- Node8&#45;&gt;Node11 -->
<g id="edge11" class="edge"><title>Node8&#45;&gt;Node11</title>
<path fill="none" stroke="midnightblue" d="M467.115,-116.246C483.445,-107.453 507.671,-94.4079 526.234,-84.4125"/>
<polygon fill="midnightblue" stroke="midnightblue" points="527.947,-87.4654 535.092,-79.6427 524.628,-81.3021 527.947,-87.4654"/>
</g>
<!-- Node12 -->
<g id="node12" class="node"><title>Node12</title>
<g id="a_node12"><a xlink:href="../../d0/d89/_documentation_2_operator-_console_2_j_s_o_n_2_j_s_o_n_defs_2_strings___defs_8h.html" target="_top" xlink:title="JSONDefs\\Strings_Defs.h">
<polygon fill="white" stroke="black" points="676.5,-58.5 676.5,-79.5 829.5,-79.5 829.5,-58.5 676.5,-58.5"/>
<text text-anchor="middle" x="753" y="-65.9" font-family="Helvetica,sans-Serif" font-size="12.00">JSONDefs\Strings_Defs.h</text>
</a>
</g>
</g>
<!-- Node8&#45;&gt;Node12 -->
<g id="edge12" class="edge"><title>Node8&#45;&gt;Node12</title>
<path fill="none" stroke="midnightblue" d="M490.315,-118.389C542.109,-108.848 631.353,-92.4087 691.263,-81.3727"/>
<polygon fill="midnightblue" stroke="midnightblue" points="692.152,-84.7677 701.353,-79.5139 690.884,-77.8836 692.152,-84.7677"/>
</g>
<!-- Node12&#45;&gt;Node6 -->
<g id="edge13" class="edge"><title>Node12&#45;&gt;Node6</title>
<path fill="none" stroke="midnightblue" d="M734.71,-58.2455C718.224,-49.4527 693.765,-36.4079 675.023,-26.4125"/>
<polygon fill="midnightblue" stroke="midnightblue" points="676.551,-23.2604 666.08,-21.6427 673.256,-29.4368 676.551,-23.2604"/>
</g>
<!-- Node13 -->
<g id="node13" class="node"><title>Node13</title>
<polygon fill="white" stroke="#bfbfbf" points="726,-0.5 726,-21.5 780,-21.5 780,-0.5 726,-0.5"/>
<text text-anchor="middle" x="753" y="-7.9" font-family="Helvetica,sans-Serif" font-size="12.00">string.h</text>
</g>
<!-- Node12&#45;&gt;Node13 -->
<g id="edge14" class="edge"><title>Node12&#45;&gt;Node13</title>
<path fill="none" stroke="midnightblue" d="M753,-58.2455C753,-50.9382 753,-40.6944 753,-31.7046"/>
<polygon fill="midnightblue" stroke="midnightblue" points="756.5,-31.6426 753,-21.6427 749.5,-31.6427 756.5,-31.6426"/>
</g>
<!-- Node14&#45;&gt;Node7 -->
<g id="edge17" class="edge"><title>Node14&#45;&gt;Node7</title>
<path fill="none" stroke="midnightblue" d="M459.946,-406.498C477.005,-399.371 496.932,-387.742 507,-370 522.93,-341.928 588.579,-346.064 506,-232 487.76,-206.806 454.988,-195.244 426.185,-190.01"/>
<polygon fill="midnightblue" stroke="midnightblue" points="426.62,-186.535 416.192,-188.41 425.514,-193.447 426.62,-186.535"/>
</g>
<!-- Node15 -->
<g id="node15" class="node"><title>Node15</title>
<g id="a_node15"><a xlink:href="../../dc/db1/_documentation_2_operator-_console_2_j_s_o_n_2internal_j_s_o_n_node_8h.html" target="_top" xlink:title="internalJSONNode.h">
<polygon fill="white" stroke="black" points="215.5,-348.5 215.5,-369.5 338.5,-369.5 338.5,-348.5 215.5,-348.5"/>
<text text-anchor="middle" x="277" y="-355.9" font-family="Helvetica,sans-Serif" font-size="12.00">internalJSONNode.h</text>
</a>
</g>
</g>
<!-- Node14&#45;&gt;Node15 -->
<g id="edge18" class="edge"><title>Node14&#45;&gt;Node15</title>
<path fill="none" stroke="midnightblue" d="M403.698,-406.373C378.587,-397.182 340.556,-383.262 312.713,-373.071"/>
<polygon fill="midnightblue" stroke="midnightblue" points="313.552,-369.652 302.958,-369.501 311.146,-376.225 313.552,-369.652"/>
</g>
<!-- Node19 -->
<g id="node19" class="node"><title>Node19</title>
<polygon fill="white" stroke="#bfbfbf" points="356.5,-348.5 356.5,-369.5 423.5,-369.5 423.5,-348.5 356.5,-348.5"/>
<text text-anchor="middle" x="390" y="-355.9" font-family="Helvetica,sans-Serif" font-size="12.00">stdexcept</text>
</g>
<!-- Node14&#45;&gt;Node19 -->
<g id="edge28" class="edge"><title>Node14&#45;&gt;Node19</title>
<path fill="none" stroke="midnightblue" d="M423.033,-406.246C417.469,-398.456 409.522,-387.331 402.817,-377.944"/>
<polygon fill="midnightblue" stroke="midnightblue" points="405.548,-375.746 396.888,-369.643 399.852,-379.814 405.548,-375.746"/>
</g>
<!-- Node20 -->
<g id="node20" class="node"><title>Node20</title>
<polygon fill="white" stroke="#bfbfbf" points="442,-348.5 442,-369.5 498,-369.5 498,-348.5 442,-348.5"/>
<text text-anchor="middle" x="470" y="-355.9" font-family="Helvetica,sans-Serif" font-size="12.00">cstdarg</text>
</g>
<!-- Node14&#45;&gt;Node20 -->
<g id="edge29" class="edge"><title>Node14&#45;&gt;Node20</title>
<path fill="none" stroke="midnightblue" d="M436.967,-406.246C442.531,-398.456 450.478,-387.331 457.183,-377.944"/>
<polygon fill="midnightblue" stroke="midnightblue" points="460.148,-379.814 463.112,-369.643 454.452,-375.746 460.148,-379.814"/>
</g>
<!-- Node21 -->
<g id="node21" class="node"><title>Node21</title>
<g id="a_node21"><a xlink:href="../../d0/d70/_documentation_2_operator-_console_2_j_s_o_n_2_j_s_o_n___base64_8h.html" target="_top" xlink:title="JSON_Base64.h">
<polygon fill="white" stroke="black" points="554.5,-232.5 554.5,-253.5 659.5,-253.5 659.5,-232.5 554.5,-232.5"/>
<text text-anchor="middle" x="607" y="-239.9" font-family="Helvetica,sans-Serif" font-size="12.00">JSON_Base64.h</text>
</a>
</g>
</g>
<!-- Node14&#45;&gt;Node21 -->
<g id="edge30" class="edge"><title>Node14&#45;&gt;Node21</title>
<path fill="none" stroke="midnightblue" d="M470.048,-406.468C492.702,-399.437 520.341,-387.917 540,-370 572.67,-340.224 592.346,-290.75 601.271,-263.498"/>
<polygon fill="midnightblue" stroke="midnightblue" points="604.719,-264.198 604.354,-253.609 598.036,-262.115 604.719,-264.198"/>
</g>
<!-- Node15&#45;&gt;Node2 -->
<g id="edge20" class="edge"><title>Node15&#45;&gt;Node2</title>
<path fill="none" stroke="midnightblue" d="M263.588,-348.246C251.994,-339.814 235.025,-327.473 221.532,-317.66"/>
<polygon fill="midnightblue" stroke="midnightblue" points="223.405,-314.694 213.259,-311.643 219.287,-320.355 223.405,-314.694"/>
</g>
<!-- Node15&#45;&gt;Node3 -->
<g id="edge21" class="edge"><title>Node15&#45;&gt;Node3</title>
<path fill="none" stroke="midnightblue" d="M215.488,-350.384C189.02,-344.129 159.698,-332.739 140,-312 127.757,-299.11 123.288,-279 121.714,-263.988"/>
<polygon fill="midnightblue" stroke="midnightblue" points="125.184,-263.437 120.994,-253.706 118.201,-263.926 125.184,-263.437"/>
</g>
<!-- Node15&#45;&gt;Node7 -->
<g id="edge19" class="edge"><title>Node15&#45;&gt;Node7</title>
<path fill="none" stroke="midnightblue" d="M278.982,-348.417C281.987,-334.928 288.384,-309.779 298,-290 313.892,-257.313 339.33,-223.421 355.328,-203.545"/>
<polygon fill="midnightblue" stroke="midnightblue" points="358.129,-205.648 361.749,-195.691 352.71,-201.218 358.129,-205.648"/>
</g>
<!-- Node16 -->
<g id="node16" class="node"><title>Node16</title>
<g id="a_node16"><a xlink:href="../../d4/dac/_documentation_2_operator-_console_2_j_s_o_n_2_j_s_o_n_globals_8h.html" target="_top" xlink:title="JSONGlobals.h">
<polygon fill="white" stroke="black" points="400.5,-232.5 400.5,-253.5 497.5,-253.5 497.5,-232.5 400.5,-232.5"/>
<text text-anchor="middle" x="449" y="-239.9" font-family="Helvetica,sans-Serif" font-size="12.00">JSONGlobals.h</text>
</a>
</g>
</g>
<!-- Node15&#45;&gt;Node16 -->
<g id="edge22" class="edge"><title>Node15&#45;&gt;Node16</title>
<path fill="none" stroke="midnightblue" d="M337.485,-348.442C378.761,-340.614 428.338,-328.196 442,-312 453.098,-298.844 453.868,-278.769 452.45,-263.838"/>
<polygon fill="midnightblue" stroke="midnightblue" points="455.878,-263.066 451.075,-253.622 448.941,-264 455.878,-263.066"/>
</g>
<!-- Node18 -->
<g id="node18" class="node"><title>Node18</title>
<g id="a_node18"><a xlink:href="../../d9/daa/_documentation_2_operator-_console_2_j_s_o_n_2_j_s_o_n_shared_string_8h.html" target="_top" xlink:title="JSONSharedString.h">
<polygon fill="white" stroke="black" points="307,-290.5 307,-311.5 433,-311.5 433,-290.5 307,-290.5"/>
<text text-anchor="middle" x="370" y="-297.9" font-family="Helvetica,sans-Serif" font-size="12.00">JSONSharedString.h</text>
</a>
</g>
</g>
<!-- Node15&#45;&gt;Node18 -->
<g id="edge25" class="edge"><title>Node15&#45;&gt;Node18</title>
<path fill="none" stroke="midnightblue" d="M293.199,-348.246C307.602,-339.573 328.873,-326.765 345.38,-316.825"/>
<polygon fill="midnightblue" stroke="midnightblue" points="347.225,-319.8 353.986,-311.643 343.614,-313.803 347.225,-319.8"/>
</g>
<!-- Node16&#45;&gt;Node8 -->
<g id="edge23" class="edge"><title>Node16&#45;&gt;Node8</title>
<path fill="none" stroke="midnightblue" d="M449,-232.28C449,-213.603 449,-172.369 449,-147.715"/>
<polygon fill="midnightblue" stroke="midnightblue" points="452.5,-147.695 449,-137.695 445.5,-147.695 452.5,-147.695"/>
</g>
<!-- Node17 -->
<g id="node17" class="node"><title>Node17</title>
<polygon fill="white" stroke="#bfbfbf" points="530.5,-174.5 530.5,-195.5 575.5,-195.5 575.5,-174.5 530.5,-174.5"/>
<text text-anchor="middle" x="553" y="-181.9" font-family="Helvetica,sans-Serif" font-size="12.00">string</text>
</g>
<!-- Node16&#45;&gt;Node17 -->
<g id="edge24" class="edge"><title>Node16&#45;&gt;Node17</title>
<path fill="none" stroke="midnightblue" d="M467.115,-232.246C483.445,-223.453 507.671,-210.408 526.234,-200.413"/>
<polygon fill="midnightblue" stroke="midnightblue" points="527.947,-203.465 535.092,-195.643 524.628,-197.302 527.947,-203.465"/>
</g>
<!-- Node18&#45;&gt;Node7 -->
<g id="edge26" class="edge"><title>Node18&#45;&gt;Node7</title>
<path fill="none" stroke="midnightblue" d="M370,-290.28C370,-271.603 370,-230.369 370,-205.715"/>
<polygon fill="midnightblue" stroke="midnightblue" points="373.5,-205.695 370,-195.695 366.5,-205.695 373.5,-205.695"/>
</g>
<!-- Node18&#45;&gt;Node16 -->
<g id="edge27" class="edge"><title>Node18&#45;&gt;Node16</title>
<path fill="none" stroke="midnightblue" d="M383.761,-290.246C395.655,-281.814 413.065,-269.473 426.909,-259.66"/>
<polygon fill="midnightblue" stroke="midnightblue" points="429.263,-262.281 435.397,-253.643 425.215,-256.57 429.263,-262.281"/>
</g>
<!-- Node21&#45;&gt;Node7 -->
<g id="edge31" class="edge"><title>Node21&#45;&gt;Node7</title>
<path fill="none" stroke="midnightblue" d="M566.528,-232.437C526.052,-222.873 463.713,-208.143 420.13,-197.845"/>
<polygon fill="midnightblue" stroke="midnightblue" points="420.842,-194.417 410.306,-195.524 419.233,-201.229 420.842,-194.417"/>
</g>
<!-- Node21&#45;&gt;Node17 -->
<g id="edge32" class="edge"><title>Node21&#45;&gt;Node17</title>
<path fill="none" stroke="midnightblue" d="M597.594,-232.246C589.851,-224.216 578.688,-212.639 569.468,-203.078"/>
<polygon fill="midnightblue" stroke="midnightblue" points="571.759,-200.412 562.298,-195.643 566.72,-205.271 571.759,-200.412"/>
</g>
</g>
</svg>
