<?xml version="1.0" encoding="UTF-8" standalone="no"?>
<!DOCTYPE svg PUBLIC "-//W3C//DTD SVG 1.1//EN"
 "http://www.w3.org/Graphics/SVG/1.1/DTD/svg11.dtd">
<!-- Generated by graphviz version 2.34.0 (20130907.0111)
 -->
<!-- Title: PassFail.h Pages: 1 -->
<svg width="241pt" height="88pt"
 viewBox="0.00 0.00 241.00 88.00" xmlns="http://www.w3.org/2000/svg" xmlns:xlink="http://www.w3.org/1999/xlink">
<g id="graph0" class="graph" transform="scale(1 1) rotate(0) translate(4 84)">
<title>PassFail.h</title>
<polygon fill="white" stroke="white" points="-4,4 -4,-84 237,-84 237,4 -4,4"/>
<!-- Node1 -->
<g id="node1" class="node"><title>Node1</title>
<polygon fill="#bfbfbf" stroke="black" points="91,-58.5 91,-79.5 163,-79.5 163,-58.5 91,-58.5"/>
<text text-anchor="middle" x="127" y="-65.9" font-family="Helvetica,sans-Serif" font-size="12.00">PassFail.h</text>
</g>
<!-- Node2 -->
<g id="node2" class="node"><title>Node2</title>
<g id="a_node2"><a xlink:href="../../de/da2/_operator_console_8cpp.html" target="_top" xlink:title="OperatorConsole.cpp">
<polygon fill="white" stroke="black" points="-0.5,-0.5 -0.5,-21.5 128.5,-21.5 128.5,-0.5 -0.5,-0.5"/>
<text text-anchor="middle" x="64" y="-7.9" font-family="Helvetica,sans-Serif" font-size="12.00">OperatorConsole.cpp</text>
</a>
</g>
</g>
<!-- Node1&#45;&gt;Node2 -->
<g id="edge1" class="edge"><title>Node1&#45;&gt;Node2</title>
<path fill="none" stroke="midnightblue" d="M108.281,-51.3607C97.3818,-41.6727 84.0245,-29.7995 74.848,-21.6427"/>
<polygon fill="midnightblue" stroke="midnightblue" points="106.227,-54.2178 116.026,-58.2455 110.877,-48.9859 106.227,-54.2178"/>
</g>
<!-- Node3 -->
<g id="node3" class="node"><title>Node3</title>
<g id="a_node3"><a xlink:href="../../d0/d57/_pass_fail_8cpp.html" target="_top" xlink:title="PassFail.cpp">
<polygon fill="white" stroke="black" points="147,-0.5 147,-21.5 233,-21.5 233,-0.5 147,-0.5"/>
<text text-anchor="middle" x="190" y="-7.9" font-family="Helvetica,sans-Serif" font-size="12.00">PassFail.cpp</text>
</a>
</g>
</g>
<!-- Node1&#45;&gt;Node3 -->
<g id="edge2" class="edge"><title>Node1&#45;&gt;Node3</title>
<path fill="none" stroke="midnightblue" d="M145.719,-51.3607C156.618,-41.6727 169.976,-29.7995 179.152,-21.6427"/>
<polygon fill="midnightblue" stroke="midnightblue" points="143.123,-48.9859 137.974,-58.2455 147.773,-54.2178 143.123,-48.9859"/>
</g>
</g>
</svg>
