<?xml version="1.0" encoding="UTF-8" standalone="no"?>
<!DOCTYPE svg PUBLIC "-//W3C//DTD SVG 1.1//EN"
 "http://www.w3.org/Graphics/SVG/1.1/DTD/svg11.dtd">
<!-- Generated by graphviz version 2.34.0 (20130907.0111)
 -->
<!-- Title: Documentation/Operator&#45;Console/PassFailSettings.h Pages: 1 -->
<svg width="1580pt" height="188pt"
 viewBox="0.00 0.00 1580.00 188.00" xmlns="http://www.w3.org/2000/svg" xmlns:xlink="http://www.w3.org/1999/xlink">
<g id="graph0" class="graph" transform="scale(1 1) rotate(0) translate(4 184)">
<title>Documentation/Operator&#45;Console/PassFailSettings.h</title>
<polygon fill="white" stroke="white" points="-4,4 -4,-184 1576,-184 1576,4 -4,4"/>
<!-- Node1 -->
<g id="node1" class="node"><title>Node1</title>
<polygon fill="#bfbfbf" stroke="black" points="1220.5,-145 1220.5,-179 1385.5,-179 1385.5,-145 1220.5,-145"/>
<text text-anchor="start" x="1228.5" y="-165.4" font-family="Helvetica,sans-Serif" font-size="12.00">Documentation/Operator</text>
<text text-anchor="middle" x="1303" y="-152.4" font-family="Helvetica,sans-Serif" font-size="12.00">&#45;Console/PassFailSettings.h</text>
</g>
<!-- Node2 -->
<g id="node2" class="node"><title>Node2</title>
<g id="a_node2"><a xlink:href="../../da/d65/_documentation_2_operator-_console_2_operator_console_8h.html" target="_top" xlink:title="Documentation/Operator\l&#45;Console/OperatorConsole.h">
<polygon fill="white" stroke="black" points="741,-73 741,-107 907,-107 907,-73 741,-73"/>
<text text-anchor="start" x="749" y="-93.4" font-family="Helvetica,sans-Serif" font-size="12.00">Documentation/Operator</text>
<text text-anchor="middle" x="824" y="-80.4" font-family="Helvetica,sans-Serif" font-size="12.00">&#45;Console/OperatorConsole.h</text>
</a>
</g>
</g>
<!-- Node1&#45;&gt;Node2 -->
<g id="edge1" class="edge"><title>Node1&#45;&gt;Node2</title>
<path fill="none" stroke="midnightblue" d="M1210.43,-147.471C1122.59,-134.635 991.775,-115.518 907.175,-103.155"/>
<polygon fill="midnightblue" stroke="midnightblue" points="1209.98,-150.944 1220.38,-148.927 1211,-144.017 1209.98,-150.944"/>
</g>
<!-- Node12 -->
<g id="node12" class="node"><title>Node12</title>
<g id="a_node12"><a xlink:href="../../da/dca/_documentation_2_operator-_console_2_pass_fail_8h.html" target="_top" xlink:title="Documentation/Operator\l&#45;Console/PassFail.h">
<polygon fill="white" stroke="black" points="1230.5,-73 1230.5,-107 1375.5,-107 1375.5,-73 1230.5,-73"/>
<text text-anchor="start" x="1238.5" y="-93.4" font-family="Helvetica,sans-Serif" font-size="12.00">Documentation/Operator</text>
<text text-anchor="middle" x="1303" y="-80.4" font-family="Helvetica,sans-Serif" font-size="12.00">&#45;Console/PassFail.h</text>
</a>
</g>
</g>
<!-- Node1&#45;&gt;Node12 -->
<g id="edge11" class="edge"><title>Node1&#45;&gt;Node12</title>
<path fill="none" stroke="midnightblue" d="M1303,-134.508C1303,-125.303 1303,-115.262 1303,-107.147"/>
<polygon fill="midnightblue" stroke="midnightblue" points="1299.5,-134.765 1303,-144.765 1306.5,-134.765 1299.5,-134.765"/>
</g>
<!-- Node13 -->
<g id="node13" class="node"><title>Node13</title>
<g id="a_node13"><a xlink:href="../../d3/d89/_documentation_2_operator-_console_2_pass_fail_settings_8cpp.html" target="_top" xlink:title="Documentation/Operator\l&#45;Console/PassFailSettings.cpp">
<polygon fill="white" stroke="black" points="1393.5,-73 1393.5,-107 1572.5,-107 1572.5,-73 1393.5,-73"/>
<text text-anchor="start" x="1401.5" y="-93.4" font-family="Helvetica,sans-Serif" font-size="12.00">Documentation/Operator</text>
<text text-anchor="middle" x="1483" y="-80.4" font-family="Helvetica,sans-Serif" font-size="12.00">&#45;Console/PassFailSettings.cpp</text>
</a>
</g>
</g>
<!-- Node1&#45;&gt;Node13 -->
<g id="edge14" class="edge"><title>Node1&#45;&gt;Node13</title>
<path fill="none" stroke="midnightblue" d="M1353.83,-141.234C1381.57,-130.447 1415.47,-117.261 1441.59,-107.106"/>
<polygon fill="midnightblue" stroke="midnightblue" points="1352.35,-138.054 1344.3,-144.941 1354.88,-144.578 1352.35,-138.054"/>
</g>
<!-- Node3 -->
<g id="node3" class="node"><title>Node3</title>
<g id="a_node3"><a xlink:href="../../d7/d4b/_documentation_2_operator-_console_2_app_thread_8cpp.html" target="_top" xlink:title="Documentation/Operator\l&#45;Console/AppThread.cpp">
<polygon fill="white" stroke="black" points="163,-1 163,-35 311,-35 311,-1 163,-1"/>
<text text-anchor="start" x="171" y="-21.4" font-family="Helvetica,sans-Serif" font-size="12.00">Documentation/Operator</text>
<text text-anchor="middle" x="237" y="-8.4" font-family="Helvetica,sans-Serif" font-size="12.00">&#45;Console/AppThread.cpp</text>
</a>
</g>
</g>
<!-- Node2&#45;&gt;Node3 -->
<g id="edge2" class="edge"><title>Node2&#45;&gt;Node3</title>
<path fill="none" stroke="midnightblue" d="M730.521,-81.9077C629.073,-73.5736 462.486,-58.0303 320,-36 317.093,-35.5505 314.133,-35.0675 311.147,-34.5589"/>
<polygon fill="midnightblue" stroke="midnightblue" points="730.488,-85.4165 740.739,-82.7409 731.057,-78.4397 730.488,-85.4165"/>
</g>
<!-- Node4 -->
<g id="node4" class="node"><title>Node4</title>
<g id="a_node4"><a xlink:href="../../de/d31/_documentation_2_operator-_console_2_critical_buf_8cpp.html" target="_top" xlink:title="Documentation/Operator\l&#45;Console/CriticalBuf.cpp">
<polygon fill="white" stroke="black" points="329.5,-1 329.5,-35 474.5,-35 474.5,-1 329.5,-1"/>
<text text-anchor="start" x="337.5" y="-21.4" font-family="Helvetica,sans-Serif" font-size="12.00">Documentation/Operator</text>
<text text-anchor="middle" x="402" y="-8.4" font-family="Helvetica,sans-Serif" font-size="12.00">&#45;Console/CriticalBuf.cpp</text>
</a>
</g>
</g>
<!-- Node2&#45;&gt;Node4 -->
<g id="edge3" class="edge"><title>Node2&#45;&gt;Node4</title>
<path fill="none" stroke="midnightblue" d="M730.827,-75.8708C662.157,-65.8659 566.561,-51.2516 483,-36 480.314,-35.5098 477.581,-34.9987 474.822,-34.4726"/>
<polygon fill="midnightblue" stroke="midnightblue" points="730.36,-79.3396 740.759,-77.313 731.366,-72.4122 730.36,-79.3396"/>
</g>
<!-- Node5 -->
<g id="node5" class="node"><title>Node5</title>
<g id="a_node5"><a xlink:href="../../da/df9/_documentation_2_operator-_console_2_image_test_8cpp.html" target="_top" xlink:title="Documentation/Operator\l&#45;Console/ImageTest.cpp">
<polygon fill="white" stroke="black" points="492.5,-1 492.5,-35 637.5,-35 637.5,-1 492.5,-1"/>
<text text-anchor="start" x="500.5" y="-21.4" font-family="Helvetica,sans-Serif" font-size="12.00">Documentation/Operator</text>
<text text-anchor="middle" x="565" y="-8.4" font-family="Helvetica,sans-Serif" font-size="12.00">&#45;Console/ImageTest.cpp</text>
</a>
</g>
</g>
<!-- Node2&#45;&gt;Node5 -->
<g id="edge4" class="edge"><title>Node2&#45;&gt;Node5</title>
<path fill="none" stroke="midnightblue" d="M754.758,-70.2859C714.161,-59.3138 663.396,-45.5936 624.591,-35.1057"/>
<polygon fill="midnightblue" stroke="midnightblue" points="754.013,-73.7102 764.58,-72.9406 755.84,-66.9527 754.013,-73.7102"/>
</g>
<!-- Node6 -->
<g id="node6" class="node"><title>Node6</title>
<g id="a_node6"><a xlink:href="../../d4/d9c/_msg_dialog_8cpp.html" target="_top" xlink:title="Documentation/Operator\l&#45;Console/MsgDialog.cpp">
<polygon fill="white" stroke="black" points="656,-1 656,-35 802,-35 802,-1 656,-1"/>
<text text-anchor="start" x="664" y="-21.4" font-family="Helvetica,sans-Serif" font-size="12.00">Documentation/Operator</text>
<text text-anchor="middle" x="729" y="-8.4" font-family="Helvetica,sans-Serif" font-size="12.00">&#45;Console/MsgDialog.cpp</text>
</a>
</g>
</g>
<!-- Node2&#45;&gt;Node6 -->
<g id="edge5" class="edge"><title>Node2&#45;&gt;Node6</title>
<path fill="none" stroke="midnightblue" d="M793.658,-66.6425C779.762,-56.4033 763.602,-44.4963 750.914,-35.1473"/>
<polygon fill="midnightblue" stroke="midnightblue" points="791.84,-69.6503 801.966,-72.7646 795.992,-64.0149 791.84,-69.6503"/>
</g>
<!-- Node7 -->
<g id="node7" class="node"><title>Node7</title>
<g id="a_node7"><a xlink:href="../../db/db5/_documentation_2_operator-_console_2_operator_console_8cpp.html" target="_top" xlink:title="Documentation/Operator\l&#45;Console/OperatorConsole.cpp">
<polygon fill="white" stroke="black" points="1393.5,-1 1393.5,-35 1572.5,-35 1572.5,-1 1393.5,-1"/>
<text text-anchor="start" x="1401.5" y="-21.4" font-family="Helvetica,sans-Serif" font-size="12.00">Documentation/Operator</text>
<text text-anchor="middle" x="1483" y="-8.4" font-family="Helvetica,sans-Serif" font-size="12.00">&#45;Console/OperatorConsole.cpp</text>
</a>
</g>
</g>
<!-- Node2&#45;&gt;Node7 -->
<g id="edge6" class="edge"><title>Node2&#45;&gt;Node7</title>
<path fill="none" stroke="midnightblue" d="M917.435,-82.3314C1028.81,-73.8805 1220.42,-57.7532 1384,-36 1387.11,-35.5862 1390.28,-35.1465 1393.47,-34.6867"/>
<polygon fill="midnightblue" stroke="midnightblue" points="916.951,-78.8579 907.242,-83.1004 917.477,-85.8381 916.951,-78.8579"/>
</g>
<!-- Node8 -->
<g id="node8" class="node"><title>Node8</title>
<g id="a_node8"><a xlink:href="../../dd/dcb/_documentation_2_operator-_console_2_operator_console_dlg_8cpp.html" target="_top" xlink:title="Documentation/Operator\l&#45;Console/OperatorConsoleDlg.cpp">
<polygon fill="white" stroke="black" points="820.5,-1 820.5,-35 1017.5,-35 1017.5,-1 820.5,-1"/>
<text text-anchor="start" x="828.5" y="-21.4" font-family="Helvetica,sans-Serif" font-size="12.00">Documentation/Operator</text>
<text text-anchor="middle" x="919" y="-8.4" font-family="Helvetica,sans-Serif" font-size="12.00">&#45;Console/OperatorConsoleDlg.cpp</text>
</a>
</g>
</g>
<!-- Node2&#45;&gt;Node8 -->
<g id="edge7" class="edge"><title>Node2&#45;&gt;Node8</title>
<path fill="none" stroke="midnightblue" d="M854.342,-66.6425C868.238,-56.4033 884.398,-44.4963 897.086,-35.1473"/>
<polygon fill="midnightblue" stroke="midnightblue" points="852.008,-64.0149 846.034,-72.7646 856.16,-69.6503 852.008,-64.0149"/>
</g>
<!-- Node9 -->
<g id="node9" class="node"><title>Node9</title>
<g id="a_node9"><a xlink:href="../../dd/d14/_documentation_2_operator-_console_2_pass_fail_8cpp.html" target="_top" xlink:title="Documentation/Operator\l&#45;Console/PassFail.cpp">
<polygon fill="white" stroke="black" points="1230.5,-1 1230.5,-35 1375.5,-35 1375.5,-1 1230.5,-1"/>
<text text-anchor="start" x="1238.5" y="-21.4" font-family="Helvetica,sans-Serif" font-size="12.00">Documentation/Operator</text>
<text text-anchor="middle" x="1303" y="-8.4" font-family="Helvetica,sans-Serif" font-size="12.00">&#45;Console/PassFail.cpp</text>
</a>
</g>
</g>
<!-- Node2&#45;&gt;Node9 -->
<g id="edge8" class="edge"><title>Node2&#45;&gt;Node9</title>
<path fill="none" stroke="midnightblue" d="M917.27,-78.4637C997.904,-68.898 1117.46,-53.6204 1221,-36 1224.01,-35.4878 1227.08,-34.9452 1230.17,-34.3807"/>
<polygon fill="midnightblue" stroke="midnightblue" points="916.662,-75.011 907.142,-79.6594 917.483,-81.9627 916.662,-75.011"/>
</g>
<!-- Node10 -->
<g id="node10" class="node"><title>Node10</title>
<g id="a_node10"><a xlink:href="../../dd/d4b/_documentation_2_operator-_console_2_password_dialog_8cpp.html" target="_top" xlink:title="Documentation/Operator\l&#45;Console/PasswordDialog.cpp">
<polygon fill="white" stroke="black" points="1036,-1 1036,-35 1212,-35 1212,-1 1036,-1"/>
<text text-anchor="start" x="1044" y="-21.4" font-family="Helvetica,sans-Serif" font-size="12.00">Documentation/Operator</text>
<text text-anchor="middle" x="1124" y="-8.4" font-family="Helvetica,sans-Serif" font-size="12.00">&#45;Console/PasswordDialog.cpp</text>
</a>
</g>
</g>
<!-- Node2&#45;&gt;Node10 -->
<g id="edge9" class="edge"><title>Node2&#45;&gt;Node10</title>
<path fill="none" stroke="midnightblue" d="M902.734,-70.6288C950.087,-59.5797 1009.79,-45.6501 1055.23,-35.0452"/>
<polygon fill="midnightblue" stroke="midnightblue" points="901.769,-67.2598 892.826,-72.9406 903.36,-74.0767 901.769,-67.2598"/>
</g>
<!-- Node11 -->
<g id="node11" class="node"><title>Node11</title>
<g id="a_node11"><a xlink:href="../../d3/d68/_documentation_2_operator-_console_2_setup_8cpp.html" target="_top" xlink:title="Documentation/Operator\l&#45;Console/Setup.cpp">
<polygon fill="white" stroke="black" points="-0.5,-1 -0.5,-35 144.5,-35 144.5,-1 -0.5,-1"/>
<text text-anchor="start" x="7.5" y="-21.4" font-family="Helvetica,sans-Serif" font-size="12.00">Documentation/Operator</text>
<text text-anchor="middle" x="72" y="-8.4" font-family="Helvetica,sans-Serif" font-size="12.00">&#45;Console/Setup.cpp</text>
</a>
</g>
</g>
<!-- Node2&#45;&gt;Node11 -->
<g id="edge10" class="edge"><title>Node2&#45;&gt;Node11</title>
<path fill="none" stroke="midnightblue" d="M730.554,-85.3132C600.696,-79.3482 358.551,-65.1764 154,-36 150.977,-35.5689 147.899,-35.0941 144.794,-34.5857"/>
<polygon fill="midnightblue" stroke="midnightblue" points="730.705,-88.8236 740.854,-85.7799 731.022,-81.8307 730.705,-88.8236"/>
</g>
<!-- Node12&#45;&gt;Node7 -->
<g id="edge12" class="edge"><title>Node12&#45;&gt;Node7</title>
<path fill="none" stroke="midnightblue" d="M1353.83,-69.234C1381.57,-58.4468 1415.47,-45.261 1441.59,-35.1057"/>
<polygon fill="midnightblue" stroke="midnightblue" points="1352.35,-66.054 1344.3,-72.9406 1354.88,-72.5781 1352.35,-66.054"/>
</g>
<!-- Node12&#45;&gt;Node9 -->
<g id="edge13" class="edge"><title>Node12&#45;&gt;Node9</title>
<path fill="none" stroke="midnightblue" d="M1303,-62.5079C1303,-53.3027 1303,-43.2615 1303,-35.1473"/>
<polygon fill="midnightblue" stroke="midnightblue" points="1299.5,-62.7646 1303,-72.7646 1306.5,-62.7647 1299.5,-62.7646"/>
</g>
</g>
</svg>
