<?xml version="1.0" encoding="UTF-8" standalone="no"?>
<!DOCTYPE svg PUBLIC "-//W3C//DTD SVG 1.1//EN"
 "http://www.w3.org/Graphics/SVG/1.1/DTD/svg11.dtd">
<!-- Generated by graphviz version 2.34.0 (20130907.0111)
 -->
<!-- Title: ThreadControl.h Pages: 1 -->
<svg width="1163pt" height="262pt"
 viewBox="0.00 0.00 1163.00 262.00" xmlns="http://www.w3.org/2000/svg" xmlns:xlink="http://www.w3.org/1999/xlink">
<g id="graph0" class="graph" transform="scale(1 1) rotate(0) translate(4 258)">
<title>ThreadControl.h</title>
<polygon fill="white" stroke="white" points="-4,4 -4,-258 1159,-258 1159,4 -4,4"/>
<!-- Node1 -->
<g id="node1" class="node"><title>Node1</title>
<polygon fill="#bfbfbf" stroke="black" points="554,-232.5 554,-253.5 654,-253.5 654,-232.5 554,-232.5"/>
<text text-anchor="middle" x="604" y="-239.9" font-family="Helvetica,sans-Serif" font-size="12.00">ThreadControl.h</text>
</g>
<!-- Node2 -->
<g id="node2" class="node"><title>Node2</title>
<g id="a_node2"><a xlink:href="../../d9/da7/_image_test_8h.html" target="_top" xlink:title="ImageTest.h">
<polygon fill="white" stroke="black" points="412,-174.5 412,-195.5 492,-195.5 492,-174.5 412,-174.5"/>
<text text-anchor="middle" x="452" y="-181.9" font-family="Helvetica,sans-Serif" font-size="12.00">ImageTest.h</text>
</a>
</g>
</g>
<!-- Node1&#45;&gt;Node2 -->
<g id="edge1" class="edge"><title>Node1&#45;&gt;Node2</title>
<path fill="none" stroke="midnightblue" d="M568.141,-228.789C540.388,-218.564 502.618,-204.649 477.789,-195.501"/>
<polygon fill="midnightblue" stroke="midnightblue" points="567.277,-232.2 577.87,-232.373 569.697,-225.632 567.277,-232.2"/>
</g>
<!-- Node3 -->
<g id="node3" class="node"><title>Node3</title>
<g id="a_node3"><a xlink:href="../../dc/d69/_blemish_test_8h.html" target="_top" xlink:title="BlemishTest.h">
<polygon fill="white" stroke="black" points="326,-116.5 326,-137.5 416,-137.5 416,-116.5 326,-116.5"/>
<text text-anchor="middle" x="371" y="-123.9" font-family="Helvetica,sans-Serif" font-size="12.00">BlemishTest.h</text>
</a>
</g>
</g>
<!-- Node1&#45;&gt;Node3 -->
<g id="edge19" class="edge"><title>Node1&#45;&gt;Node3</title>
<path fill="none" stroke="midnightblue" d="M543.574,-241.733C500.191,-238.565 442.621,-227.907 403,-196 384.302,-180.942 375.951,-152.401 372.733,-137.538"/>
<polygon fill="midnightblue" stroke="midnightblue" points="543.522,-245.236 553.718,-242.358 543.952,-238.25 543.522,-245.236"/>
</g>
<!-- Node4 -->
<g id="node4" class="node"><title>Node4</title>
<g id="a_node4"><a xlink:href="../../da/de6/_operator_console_8h.html" target="_top" xlink:title="OperatorConsole.h">
<polygon fill="white" stroke="black" points="472,-58.5 472,-79.5 588,-79.5 588,-58.5 472,-58.5"/>
<text text-anchor="middle" x="530" y="-65.9" font-family="Helvetica,sans-Serif" font-size="12.00">OperatorConsole.h</text>
</a>
</g>
</g>
<!-- Node1&#45;&gt;Node4 -->
<g id="edge21" class="edge"><title>Node1&#45;&gt;Node4</title>
<path fill="none" stroke="midnightblue" d="M589.379,-224.458C573.897,-204.782 550.183,-171.252 539,-138 532.319,-118.134 530.57,-93.4434 530.13,-79.9515"/>
<polygon fill="midnightblue" stroke="midnightblue" points="586.838,-226.883 595.838,-232.472 592.288,-222.49 586.838,-226.883"/>
</g>
<!-- Node15 -->
<g id="node15" class="node"><title>Node15</title>
<g id="a_node15"><a xlink:href="../../d2/d9d/_s_f_rplus_test_8h.html" target="_top" xlink:title="SFRplusTest.h">
<polygon fill="white" stroke="black" points="548.5,-116.5 548.5,-137.5 641.5,-137.5 641.5,-116.5 548.5,-116.5"/>
<text text-anchor="middle" x="595" y="-123.9" font-family="Helvetica,sans-Serif" font-size="12.00">SFRplusTest.h</text>
</a>
</g>
</g>
<!-- Node1&#45;&gt;Node15 -->
<g id="edge20" class="edge"><title>Node1&#45;&gt;Node15</title>
<path fill="none" stroke="midnightblue" d="M590.548,-224.186C585.217,-216.044 579.718,-205.999 577,-196 571.363,-175.259 581.984,-150.896 589.174,-137.695"/>
<polygon fill="midnightblue" stroke="midnightblue" points="587.739,-226.276 596.338,-232.465 593.476,-222.265 587.739,-226.276"/>
</g>
<!-- Node17 -->
<g id="node17" class="node"><title>Node17</title>
<g id="a_node17"><a xlink:href="../../d6/d0d/_image_acquisition_8cpp.html" target="_top" xlink:title="ImageAcquisition.cpp">
<polygon fill="white" stroke="black" points="586.5,-174.5 586.5,-195.5 715.5,-195.5 715.5,-174.5 586.5,-174.5"/>
<text text-anchor="middle" x="651" y="-181.9" font-family="Helvetica,sans-Serif" font-size="12.00">ImageAcquisition.cpp</text>
</a>
</g>
</g>
<!-- Node1&#45;&gt;Node17 -->
<g id="edge22" class="edge"><title>Node1&#45;&gt;Node17</title>
<path fill="none" stroke="midnightblue" d="M618.687,-224.5C626.68,-214.977 636.262,-203.56 642.907,-195.643"/>
<polygon fill="midnightblue" stroke="midnightblue" points="615.935,-222.336 612.187,-232.246 621.296,-226.836 615.935,-222.336"/>
</g>
<!-- Node18 -->
<g id="node18" class="node"><title>Node18</title>
<g id="a_node18"><a xlink:href="../../d5/d85/_imatest_lib_acq_8cpp.html" target="_top" xlink:title="ImatestLibAcq.cpp">
<polygon fill="white" stroke="black" points="734,-174.5 734,-195.5 848,-195.5 848,-174.5 734,-174.5"/>
<text text-anchor="middle" x="791" y="-181.9" font-family="Helvetica,sans-Serif" font-size="12.00">ImatestLibAcq.cpp</text>
</a>
</g>
</g>
<!-- Node1&#45;&gt;Node18 -->
<g id="edge23" class="edge"><title>Node1&#45;&gt;Node18</title>
<path fill="none" stroke="midnightblue" d="M645.888,-229.456C680.214,-219.176 728.057,-204.849 759.273,-195.501"/>
<polygon fill="midnightblue" stroke="midnightblue" points="644.722,-226.152 636.146,-232.373 646.73,-232.857 644.722,-226.152"/>
</g>
<!-- Node19 -->
<g id="node19" class="node"><title>Node19</title>
<g id="a_node19"><a xlink:href="../../de/d1e/_simple_direct_show_acq_8cpp.html" target="_top" xlink:title="SimpleDirectShowAcq.cpp">
<polygon fill="white" stroke="black" points="866,-174.5 866,-195.5 1024,-195.5 1024,-174.5 866,-174.5"/>
<text text-anchor="middle" x="945" y="-181.9" font-family="Helvetica,sans-Serif" font-size="12.00">SimpleDirectShowAcq.cpp</text>
</a>
</g>
</g>
<!-- Node1&#45;&gt;Node19 -->
<g id="edge24" class="edge"><title>Node1&#45;&gt;Node19</title>
<path fill="none" stroke="midnightblue" d="M664.483,-232.067C727.373,-221.739 825.118,-205.687 887.051,-195.516"/>
<polygon fill="midnightblue" stroke="midnightblue" points="663.616,-228.663 654.316,-233.737 664.751,-235.57 663.616,-228.663"/>
</g>
<!-- Node20 -->
<g id="node20" class="node"><title>Node20</title>
<g id="a_node20"><a xlink:href="../../d1/d19/_thread_control_8cpp.html" target="_top" xlink:title="ThreadControl.cpp">
<polygon fill="white" stroke="black" points="1042.5,-174.5 1042.5,-195.5 1155.5,-195.5 1155.5,-174.5 1042.5,-174.5"/>
<text text-anchor="middle" x="1099" y="-181.9" font-family="Helvetica,sans-Serif" font-size="12.00">ThreadControl.cpp</text>
</a>
</g>
</g>
<!-- Node1&#45;&gt;Node20 -->
<g id="edge25" class="edge"><title>Node1&#45;&gt;Node20</title>
<path fill="none" stroke="midnightblue" d="M664.299,-236.37C747.408,-228.42 901.784,-212.967 1033,-196 1036.1,-195.599 1039.29,-195.171 1042.5,-194.726"/>
<polygon fill="midnightblue" stroke="midnightblue" points="663.901,-232.892 654.279,-237.325 664.566,-239.86 663.901,-232.892"/>
</g>
<!-- Node2&#45;&gt;Node3 -->
<g id="edge2" class="edge"><title>Node2&#45;&gt;Node3</title>
<path fill="none" stroke="midnightblue" d="M429.566,-168.49C415.275,-158.61 397.208,-146.119 384.947,-137.643"/>
<polygon fill="midnightblue" stroke="midnightblue" points="427.675,-171.438 437.891,-174.246 431.656,-165.68 427.675,-171.438"/>
</g>
<!-- Node2&#45;&gt;Node4 -->
<g id="edge14" class="edge"><title>Node2&#45;&gt;Node4</title>
<path fill="none" stroke="midnightblue" d="M464.389,-165.893C481.111,-141.452 510.313,-98.7727 523.367,-79.695"/>
<polygon fill="midnightblue" stroke="midnightblue" points="461.409,-164.051 458.65,-174.28 467.186,-168.004 461.409,-164.051"/>
</g>
<!-- Node7 -->
<g id="node7" class="node"><title>Node7</title>
<g id="a_node7"><a xlink:href="../../d8/d53/_image_test_8cpp.html" target="_top" xlink:title="ImageTest.cpp">
<polygon fill="white" stroke="black" points="0,-0.5 0,-21.5 94,-21.5 94,-0.5 0,-0.5"/>
<text text-anchor="middle" x="47" y="-7.9" font-family="Helvetica,sans-Serif" font-size="12.00">ImageTest.cpp</text>
</a>
</g>
</g>
<!-- Node2&#45;&gt;Node7 -->
<g id="edge18" class="edge"><title>Node2&#45;&gt;Node7</title>
<path fill="none" stroke="midnightblue" d="M454.191,-164.092C456.067,-135.935 454.742,-84.9138 425,-58 371.612,-9.68899 174.256,-32.3341 103,-22 100.068,-21.5748 97.0539,-21.1119 94.0176,-20.626"/>
<polygon fill="midnightblue" stroke="midnightblue" points="450.682,-164.04 453.299,-174.306 457.656,-164.649 450.682,-164.04"/>
</g>
<!-- Node2&#45;&gt;Node15 -->
<g id="edge15" class="edge"><title>Node2&#45;&gt;Node15</title>
<path fill="none" stroke="midnightblue" d="M486.08,-170.654C512.157,-160.442 547.481,-146.609 570.738,-137.501"/>
<polygon fill="midnightblue" stroke="midnightblue" points="484.618,-167.468 476.583,-174.373 487.17,-173.986 484.618,-167.468"/>
</g>
<!-- Node3&#45;&gt;Node4 -->
<g id="edge3" class="edge"><title>Node3&#45;&gt;Node4</title>
<path fill="none" stroke="midnightblue" d="M408.129,-112.923C437.195,-102.686 476.937,-88.6889 503.024,-79.5011"/>
<polygon fill="midnightblue" stroke="midnightblue" points="406.602,-109.75 398.333,-116.373 408.928,-116.352 406.602,-109.75"/>
</g>
<!-- Node14 -->
<g id="node14" class="node"><title>Node14</title>
<g id="a_node14"><a xlink:href="../../dd/d8a/_blemish_test_8cpp.html" target="_top" xlink:title="BlemishTest.cpp">
<polygon fill="white" stroke="black" points="312,-58.5 312,-79.5 416,-79.5 416,-58.5 312,-58.5"/>
<text text-anchor="middle" x="364" y="-65.9" font-family="Helvetica,sans-Serif" font-size="12.00">BlemishTest.cpp</text>
</a>
</g>
</g>
<!-- Node3&#45;&gt;Node14 -->
<g id="edge13" class="edge"><title>Node3&#45;&gt;Node14</title>
<path fill="none" stroke="midnightblue" d="M368.52,-106.158C367.394,-97.155 366.115,-86.9199 365.205,-79.6427"/>
<polygon fill="midnightblue" stroke="midnightblue" points="365.067,-106.757 369.781,-116.246 372.013,-105.889 365.067,-106.757"/>
</g>
<!-- Node5 -->
<g id="node5" class="node"><title>Node5</title>
<g id="a_node5"><a xlink:href="../../d3/d22/_app_thread_8cpp.html" target="_top" xlink:title="AppThread.cpp">
<polygon fill="white" stroke="black" points="761,-0.5 761,-21.5 859,-21.5 859,-0.5 761,-0.5"/>
<text text-anchor="middle" x="810" y="-7.9" font-family="Helvetica,sans-Serif" font-size="12.00">AppThread.cpp</text>
</a>
</g>
</g>
<!-- Node4&#45;&gt;Node5 -->
<g id="edge4" class="edge"><title>Node4&#45;&gt;Node5</title>
<path fill="none" stroke="midnightblue" d="M587.817,-56.4366C639.436,-46.1127 714.131,-31.1738 762.382,-21.5237"/>
<polygon fill="midnightblue" stroke="midnightblue" points="586.935,-53.0436 577.816,-58.4369 588.308,-59.9077 586.935,-53.0436"/>
</g>
<!-- Node6 -->
<g id="node6" class="node"><title>Node6</title>
<g id="a_node6"><a xlink:href="../../d6/df7/_critical_buf_8cpp.html" target="_top" xlink:title="CriticalBuf.cpp">
<polygon fill="white" stroke="black" points="877.5,-0.5 877.5,-21.5 970.5,-21.5 970.5,-0.5 877.5,-0.5"/>
<text text-anchor="middle" x="924" y="-7.9" font-family="Helvetica,sans-Serif" font-size="12.00">CriticalBuf.cpp</text>
</a>
</g>
</g>
<!-- Node4&#45;&gt;Node6 -->
<g id="edge5" class="edge"><title>Node4&#45;&gt;Node6</title>
<path fill="none" stroke="midnightblue" d="M598.284,-57.9812C719.56,-41.1513 751.536,-40.1537 868,-22 871.025,-21.5285 874.139,-21.0245 877.275,-20.5029"/>
<polygon fill="midnightblue" stroke="midnightblue" points="597.651,-54.5354 588.231,-59.384 598.619,-61.4683 597.651,-54.5354"/>
</g>
<!-- Node4&#45;&gt;Node7 -->
<g id="edge6" class="edge"><title>Node4&#45;&gt;Node7</title>
<path fill="none" stroke="midnightblue" d="M461.84,-58.4674C460.55,-58.3083 459.269,-58.1524 458,-58 300.545,-39.0885 260.06,-43.9548 103,-22 100.066,-21.5898 97.0501,-21.1385 94.0126,-20.6612"/>
<polygon fill="midnightblue" stroke="midnightblue" points="461.504,-61.9528 471.865,-59.738 462.384,-55.0083 461.504,-61.9528"/>
</g>
<!-- Node8 -->
<g id="node8" class="node"><title>Node8</title>
<g id="a_node8"><a xlink:href="../../df/d0a/main_8cpp.html" target="_top" xlink:title="main.cpp">
<polygon fill="white" stroke="black" points="988.5,-0.5 988.5,-21.5 1053.5,-21.5 1053.5,-0.5 988.5,-0.5"/>
<text text-anchor="middle" x="1021" y="-7.9" font-family="Helvetica,sans-Serif" font-size="12.00">main.cpp</text>
</a>
</g>
</g>
<!-- Node4&#45;&gt;Node8 -->
<g id="edge7" class="edge"><title>Node4&#45;&gt;Node8</title>
<path fill="none" stroke="midnightblue" d="M598.274,-58.0382C768.595,-38.0679 814.39,-49.2367 979,-22 981.958,-21.5106 985.017,-20.9299 988.073,-20.2986"/>
<polygon fill="midnightblue" stroke="midnightblue" points="597.728,-54.5784 588.212,-59.237 598.556,-61.5293 597.728,-54.5784"/>
</g>
<!-- Node9 -->
<g id="node9" class="node"><title>Node9</title>
<g id="a_node9"><a xlink:href="../../de/da2/_operator_console_8cpp.html" target="_top" xlink:title="OperatorConsole.cpp">
<polygon fill="white" stroke="black" points="112.5,-0.5 112.5,-21.5 241.5,-21.5 241.5,-0.5 112.5,-0.5"/>
<text text-anchor="middle" x="177" y="-7.9" font-family="Helvetica,sans-Serif" font-size="12.00">OperatorConsole.cpp</text>
</a>
</g>
</g>
<!-- Node4&#45;&gt;Node9 -->
<g id="edge8" class="edge"><title>Node4&#45;&gt;Node9</title>
<path fill="none" stroke="midnightblue" d="M461.54,-57.1395C396.41,-46.8073 299.38,-31.4145 237.15,-21.5423"/>
<polygon fill="midnightblue" stroke="midnightblue" points="461.284,-60.6426 471.709,-58.7527 462.381,-53.7291 461.284,-60.6426"/>
</g>
<!-- Node10 -->
<g id="node10" class="node"><title>Node10</title>
<g id="a_node10"><a xlink:href="../../d8/d29/_operator_console_dlg_8cpp.html" target="_top" xlink:title="OperatorConsoleDlg.cpp">
<polygon fill="white" stroke="black" points="259.5,-0.5 259.5,-21.5 406.5,-21.5 406.5,-0.5 259.5,-0.5"/>
<text text-anchor="middle" x="333" y="-7.9" font-family="Helvetica,sans-Serif" font-size="12.00">OperatorConsoleDlg.cpp</text>
</a>
</g>
</g>
<!-- Node4&#45;&gt;Node10 -->
<g id="edge9" class="edge"><title>Node4&#45;&gt;Node10</title>
<path fill="none" stroke="midnightblue" d="M486.337,-55.5882C450.143,-45.2996 399.451,-30.8895 366.424,-21.5011"/>
<polygon fill="midnightblue" stroke="midnightblue" points="485.559,-59.0055 496.134,-58.3733 487.473,-52.2723 485.559,-59.0055"/>
</g>
<!-- Node11 -->
<g id="node11" class="node"><title>Node11</title>
<g id="a_node11"><a xlink:href="../../d0/d57/_pass_fail_8cpp.html" target="_top" xlink:title="PassFail.cpp">
<polygon fill="white" stroke="black" points="425,-0.5 425,-21.5 511,-21.5 511,-0.5 425,-0.5"/>
<text text-anchor="middle" x="468" y="-7.9" font-family="Helvetica,sans-Serif" font-size="12.00">PassFail.cpp</text>
</a>
</g>
</g>
<!-- Node4&#45;&gt;Node11 -->
<g id="edge10" class="edge"><title>Node4&#45;&gt;Node11</title>
<path fill="none" stroke="midnightblue" d="M511.578,-51.3607C500.852,-41.6727 487.707,-29.7995 478.676,-21.6427"/>
<polygon fill="midnightblue" stroke="midnightblue" points="509.433,-54.14 519.2,-58.2455 514.125,-48.9453 509.433,-54.14"/>
</g>
<!-- Node12 -->
<g id="node12" class="node"><title>Node12</title>
<g id="a_node12"><a xlink:href="../../da/d46/_password_dialog_8cpp.html" target="_top" xlink:title="PasswordDialog.cpp">
<polygon fill="white" stroke="black" points="529,-0.5 529,-21.5 655,-21.5 655,-0.5 529,-0.5"/>
<text text-anchor="middle" x="592" y="-7.9" font-family="Helvetica,sans-Serif" font-size="12.00">PasswordDialog.cpp</text>
</a>
</g>
</g>
<!-- Node4&#45;&gt;Node12 -->
<g id="edge11" class="edge"><title>Node4&#45;&gt;Node12</title>
<path fill="none" stroke="midnightblue" d="M548.422,-51.3607C559.148,-41.6727 572.293,-29.7995 581.324,-21.6427"/>
<polygon fill="midnightblue" stroke="midnightblue" points="545.875,-48.9453 540.8,-58.2455 550.567,-54.14 545.875,-48.9453"/>
</g>
<!-- Node13 -->
<g id="node13" class="node"><title>Node13</title>
<g id="a_node13"><a xlink:href="../../d5/d27/_setup_8cpp.html" target="_top" xlink:title="Setup.cpp">
<polygon fill="white" stroke="black" points="673,-0.5 673,-21.5 743,-21.5 743,-0.5 673,-0.5"/>
<text text-anchor="middle" x="708" y="-7.9" font-family="Helvetica,sans-Serif" font-size="12.00">Setup.cpp</text>
</a>
</g>
</g>
<!-- Node4&#45;&gt;Node13 -->
<g id="edge12" class="edge"><title>Node4&#45;&gt;Node13</title>
<path fill="none" stroke="midnightblue" d="M570.293,-55.3235C602.937,-45.0536 648.213,-30.8093 677.8,-21.5011"/>
<polygon fill="midnightblue" stroke="midnightblue" points="569.088,-52.0335 560.599,-58.3733 571.189,-58.7108 569.088,-52.0335"/>
</g>
<!-- Node15&#45;&gt;Node4 -->
<g id="edge16" class="edge"><title>Node15&#45;&gt;Node4</title>
<path fill="none" stroke="midnightblue" d="M576.017,-109.645C564.712,-99.9058 550.753,-87.8795 541.192,-79.6427"/>
<polygon fill="midnightblue" stroke="midnightblue" points="573.817,-112.37 583.678,-116.246 578.386,-107.067 573.817,-112.37"/>
</g>
<!-- Node16 -->
<g id="node16" class="node"><title>Node16</title>
<g id="a_node16"><a xlink:href="../../dc/d7a/_s_f_rplus_test_8cpp.html" target="_top" xlink:title="SFRplusTest.cpp">
<polygon fill="white" stroke="black" points="606.5,-58.5 606.5,-79.5 713.5,-79.5 713.5,-58.5 606.5,-58.5"/>
<text text-anchor="middle" x="660" y="-65.9" font-family="Helvetica,sans-Serif" font-size="12.00">SFRplusTest.cpp</text>
</a>
</g>
</g>
<!-- Node15&#45;&gt;Node16 -->
<g id="edge17" class="edge"><title>Node15&#45;&gt;Node16</title>
<path fill="none" stroke="midnightblue" d="M613.983,-109.645C625.288,-99.9058 639.247,-87.8795 648.808,-79.6427"/>
<polygon fill="midnightblue" stroke="midnightblue" points="611.614,-107.067 606.322,-116.246 616.183,-112.37 611.614,-107.067"/>
</g>
</g>
</svg>
