<?xml version="1.0" encoding="UTF-8" standalone="no"?>
<!DOCTYPE svg PUBLIC "-//W3C//DTD SVG 1.1//EN"
 "http://www.w3.org/Graphics/SVG/1.1/DTD/svg11.dtd">
<!-- Generated by graphviz version 2.34.0 (20130907.0111)
 -->
<!-- Title: CSetup Pages: 1 -->
<svg width="309pt" height="356pt"
 viewBox="0.00 0.00 309.00 356.00" xmlns="http://www.w3.org/2000/svg" xmlns:xlink="http://www.w3.org/1999/xlink">
<g id="graph0" class="graph" transform="scale(1 1) rotate(0) translate(4 352)">
<title>CSetup</title>
<polygon fill="white" stroke="white" points="-4,4 -4,-352 305,-352 305,4 -4,4"/>
<!-- Node1 -->
<g id="node1" class="node"><title>Node1</title>
<polygon fill="#bfbfbf" stroke="black" points="9,-0.5 9,-21.5 65,-21.5 65,-0.5 9,-0.5"/>
<text text-anchor="middle" x="37" y="-7.9" font-family="Helvetica,sans-Serif" font-size="12.00">CSetup</text>
</g>
<!-- Node2 -->
<g id="node2" class="node"><title>Node2</title>
<polygon fill="white" stroke="#bfbfbf" points="0,-72.5 0,-93.5 74,-93.5 74,-72.5 0,-72.5"/>
<text text-anchor="middle" x="37" y="-79.9" font-family="Helvetica,sans-Serif" font-size="12.00">CDialogEx</text>
</g>
<!-- Node2&#45;&gt;Node1 -->
<g id="edge1" class="edge"><title>Node2&#45;&gt;Node1</title>
<path fill="none" stroke="midnightblue" d="M30.8508,-62.1985C29.7341,-48.9378 30.1741,-32.0647 32.1708,-21.6505"/>
<polygon fill="midnightblue" stroke="midnightblue" points="27.3993,-62.7993 32.155,-72.2668 34.3413,-61.9 27.3993,-62.7993"/>
</g>
<!-- Node2&#45;&gt;Node1 -->
<g id="edge2" class="edge"><title>Node2&#45;&gt;Node1</title>
<path fill="none" stroke="midnightblue" d="M43.1492,-62.1985C44.2659,-48.9378 43.8259,-32.0647 41.8292,-21.6505"/>
<polygon fill="midnightblue" stroke="midnightblue" points="39.6587,-61.9 41.845,-72.2668 46.6007,-62.7993 39.6587,-61.9"/>
</g>
<!-- Node3 -->
<g id="node3" class="node"><title>Node3</title>
<g id="a_node3"><a xlink:href="../../dd/de1/structsetup__settings.html" target="_top" xlink:title="A struct that contains the various data controlled by the setup dialog. ">
<polygon fill="white" stroke="black" points="92,-72.5 92,-93.5 184,-93.5 184,-72.5 92,-72.5"/>
<text text-anchor="middle" x="138" y="-79.9" font-family="Helvetica,sans-Serif" font-size="12.00">setup_settings</text>
</a>
</g>
</g>
<!-- Node3&#45;&gt;Node1 -->
<g id="edge3" class="edge"><title>Node3&#45;&gt;Node1</title>
<path fill="none" stroke="#9a32cd" stroke-dasharray="5,2" d="M115.535,-66.43C95.7647,-52.728 67.6033,-33.2102 50.9243,-21.6505"/>
<polygon fill="#9a32cd" stroke="#9a32cd" points="113.744,-69.4471 123.956,-72.2668 117.731,-63.6938 113.744,-69.4471"/>
<text text-anchor="middle" x="145" y="-43.9" font-family="Helvetica,sans-Serif" font-size="12.00"> m_setup_settings</text>
</g>
<!-- Node4 -->
<g id="node4" class="node"><title>Node4</title>
<polygon fill="white" stroke="#bfbfbf" points="16.5,-182.5 16.5,-203.5 117.5,-203.5 117.5,-182.5 16.5,-182.5"/>
<text text-anchor="middle" x="67" y="-189.9" font-family="Helvetica,sans-Serif" font-size="12.00">std::vector&lt; int &gt;</text>
</g>
<!-- Node4&#45;&gt;Node3 -->
<g id="edge4" class="edge"><title>Node4&#45;&gt;Node3</title>
<path fill="none" stroke="#9a32cd" stroke-dasharray="5,2" d="M59.1362,-172.678C53.4182,-155.233 48.6261,-129.666 61,-112 68.2629,-101.631 79.7824,-95.0872 91.721,-90.9625"/>
<polygon fill="#9a32cd" stroke="#9a32cd" points="55.95,-174.157 62.6708,-182.347 62.5245,-171.753 55.95,-174.157"/>
<text text-anchor="middle" x="123" y="-134.9" font-family="Helvetica,sans-Serif" font-size="12.00"> allowed_bits_per_pixel</text>
</g>
<!-- Node5 -->
<g id="node5" class="node"><title>Node5</title>
<g id="a_node5"><a xlink:title="STL class. ">
<polygon fill="white" stroke="#bfbfbf" points="67,-254.5 67,-275.5 163,-275.5 163,-254.5 67,-254.5"/>
<text text-anchor="middle" x="115" y="-261.9" font-family="Helvetica,sans-Serif" font-size="12.00">std::vector&lt; T &gt;</text>
</a>
</g>
</g>
<!-- Node5&#45;&gt;Node4 -->
<g id="edge5" class="edge"><title>Node5&#45;&gt;Node4</title>
<path fill="none" stroke="orange" stroke-dasharray="5,2" d="M102.501,-245.772C93.2615,-232.298 81.0443,-214.481 73.6175,-203.651"/>
<polygon fill="orange" stroke="orange" points="99.7839,-247.999 108.326,-254.267 105.557,-244.04 99.7839,-247.999"/>
<text text-anchor="middle" x="113.5" y="-225.9" font-family="Helvetica,sans-Serif" font-size="12.00"> &lt; int &gt;</text>
</g>
<!-- Node7 -->
<g id="node7" class="node"><title>Node7</title>
<polygon fill="white" stroke="#bfbfbf" points="142.5,-182.5 142.5,-203.5 271.5,-203.5 271.5,-182.5 142.5,-182.5"/>
<text text-anchor="middle" x="207" y="-189.9" font-family="Helvetica,sans-Serif" font-size="12.00">std::vector&lt; CString &gt;</text>
</g>
<!-- Node5&#45;&gt;Node7 -->
<g id="edge8" class="edge"><title>Node5&#45;&gt;Node7</title>
<path fill="none" stroke="orange" stroke-dasharray="5,2" d="M135.952,-248.058C153.933,-234.377 179.261,-215.106 194.316,-203.651"/>
<polygon fill="orange" stroke="orange" points="133.631,-245.426 127.792,-254.267 137.87,-250.997 133.631,-245.426"/>
<text text-anchor="middle" x="200.5" y="-225.9" font-family="Helvetica,sans-Serif" font-size="12.00"> &lt; CString &gt;</text>
</g>
<!-- Node6 -->
<g id="node6" class="node"><title>Node6</title>
<polygon fill="white" stroke="#bfbfbf" points="100.5,-326.5 100.5,-347.5 129.5,-347.5 129.5,-326.5 100.5,-326.5"/>
<text text-anchor="middle" x="115" y="-333.9" font-family="Helvetica,sans-Serif" font-size="12.00">T</text>
</g>
<!-- Node6&#45;&gt;Node5 -->
<g id="edge6" class="edge"><title>Node6&#45;&gt;Node5</title>
<path fill="none" stroke="#9a32cd" stroke-dasharray="5,2" d="M115,-316.199C115,-302.938 115,-286.065 115,-275.651"/>
<polygon fill="#9a32cd" stroke="#9a32cd" points="111.5,-316.267 115,-326.267 118.5,-316.267 111.5,-316.267"/>
<text text-anchor="middle" x="140.5" y="-297.9" font-family="Helvetica,sans-Serif" font-size="12.00"> elements</text>
</g>
<!-- Node7&#45;&gt;Node3 -->
<g id="edge7" class="edge"><title>Node7&#45;&gt;Node3</title>
<path fill="none" stroke="#9a32cd" stroke-dasharray="5,2" d="M206.97,-172.159C205.987,-154.712 202.129,-129.451 189,-112 182.927,-103.928 173.817,-97.8904 164.969,-93.5287"/>
<polygon fill="#9a32cd" stroke="#9a32cd" points="203.477,-172.441 207.27,-182.334 210.474,-172.235 203.477,-172.441"/>
<text text-anchor="middle" x="253.5" y="-154.4" font-family="Helvetica,sans-Serif" font-size="12.00"> bayer_list</text>
<text text-anchor="middle" x="253.5" y="-141.4" font-family="Helvetica,sans-Serif" font-size="12.00">device_list</text>
<text text-anchor="start" x="206" y="-128.4" font-family="Helvetica,sans-Serif" font-size="12.00">epiphan_deviceID</text>
<text text-anchor="middle" x="253.5" y="-115.4" font-family="Helvetica,sans-Serif" font-size="12.00">_list</text>
</g>
</g>
</svg>
