<?xml version="1.0" encoding="UTF-8" standalone="no"?>
<!DOCTYPE svg PUBLIC "-//W3C//DTD SVG 1.1//EN"
 "http://www.w3.org/Graphics/SVG/1.1/DTD/svg11.dtd">
<!-- Generated by graphviz version 2.34.0 (20130907.0111)
 -->
<!-- Title: jsonChildren::iteratorKeeper Pages: 1 -->
<svg width="475pt" height="192pt"
 viewBox="0.00 0.00 475.00 192.00" xmlns="http://www.w3.org/2000/svg" xmlns:xlink="http://www.w3.org/1999/xlink">
<g id="graph0" class="graph" transform="scale(1 1) rotate(0) translate(4 188)">
<title>jsonChildren::iteratorKeeper</title>
<polygon fill="white" stroke="white" points="-4,4 -4,-188 471,-188 471,4 -4,4"/>
<!-- Node1 -->
<g id="node1" class="node"><title>Node1</title>
<polygon fill="#bfbfbf" stroke="black" points="-0.5,-0.5 -0.5,-21.5 162.5,-21.5 162.5,-0.5 -0.5,-0.5"/>
<text text-anchor="middle" x="81" y="-7.9" font-family="Helvetica,sans-Serif" font-size="12.00">jsonChildren::iteratorKeeper</text>
</g>
<!-- Node2 -->
<g id="node2" class="node"><title>Node2</title>
<g id="a_node2"><a xlink:href="../../d6/dc7/class_j_s_o_n_node.html" target="_top" xlink:title="JSONNode">
<polygon fill="white" stroke="black" points="133.5,-160.5 133.5,-181.5 210.5,-181.5 210.5,-160.5 133.5,-160.5"/>
<text text-anchor="middle" x="172" y="-167.9" font-family="Helvetica,sans-Serif" font-size="12.00">JSONNode</text>
</a>
</g>
</g>
<!-- Node2&#45;&gt;Node1 -->
<g id="edge1" class="edge"><title>Node2&#45;&gt;Node1</title>
<path fill="none" stroke="#9a32cd" stroke-dasharray="5,2" d="M137.427,-156.034C117.355,-145.923 93.772,-130.124 82,-108 66.9676,-79.7486 73.9213,-39.8743 78.3377,-21.7029"/>
<polygon fill="#9a32cd" stroke="#9a32cd" points="136.104,-159.28 146.638,-160.412 139.109,-152.958 136.104,-159.28"/>
<text text-anchor="middle" x="102" y="-86.9" font-family="Helvetica,sans-Serif" font-size="12.00"> myPos</text>
</g>
<!-- Node2&#45;&gt;Node2 -->
<g id="edge2" class="edge"><title>Node2&#45;&gt;Node2</title>
<path fill="none" stroke="#9a32cd" stroke-dasharray="5,2" d="M220.872,-176.635C225.251,-175.456 228,-173.578 228,-171 228,-166.77 220.597,-164.423 210.735,-163.96"/>
<polygon fill="#9a32cd" stroke="#9a32cd" points="220.16,-173.2 210.735,-178.04 221.121,-180.134 220.16,-173.2"/>
<text text-anchor="middle" x="255" y="-174.4" font-family="Helvetica,sans-Serif" font-size="12.00"> operator[]</text>
<text text-anchor="middle" x="255" y="-161.4" font-family="Helvetica,sans-Serif" font-size="12.00">operator=</text>
</g>
<!-- Node5 -->
<g id="node5" class="node"><title>Node5</title>
<g id="a_node5"><a xlink:href="../../db/d49/classjson_children.html" target="_top" xlink:title="jsonChildren">
<polygon fill="white" stroke="black" points="131.5,-79.5 131.5,-100.5 212.5,-100.5 212.5,-79.5 131.5,-79.5"/>
<text text-anchor="middle" x="172" y="-86.9" font-family="Helvetica,sans-Serif" font-size="12.00">jsonChildren</text>
</a>
</g>
</g>
<!-- Node2&#45;&gt;Node5 -->
<g id="edge6" class="edge"><title>Node2&#45;&gt;Node5</title>
<path fill="none" stroke="#9a32cd" stroke-dasharray="5,2" d="M172,-150.034C172,-134.287 172,-113.006 172,-100.766"/>
<polygon fill="#9a32cd" stroke="#9a32cd" points="168.5,-150.313 172,-160.313 175.5,-150.313 168.5,-150.313"/>
<text text-anchor="middle" x="187" y="-129.9" font-family="Helvetica,sans-Serif" font-size="12.00"> array</text>
</g>
<!-- Node3 -->
<g id="node3" class="node"><title>Node3</title>
<g id="a_node3"><a xlink:href="../../d1/d0b/classinternal_j_s_o_n_node.html" target="_top" xlink:title="internalJSONNode">
<polygon fill="white" stroke="black" points="204,-0.5 204,-21.5 318,-21.5 318,-0.5 204,-0.5"/>
<text text-anchor="middle" x="261" y="-7.9" font-family="Helvetica,sans-Serif" font-size="12.00">internalJSONNode</text>
</a>
</g>
</g>
<!-- Node3&#45;&gt;Node2 -->
<g id="edge3" class="edge"><title>Node3&#45;&gt;Node2</title>
<path fill="none" stroke="#9a32cd" stroke-dasharray="5,2" d="M255.738,-31.7883C247.997,-58.3289 231.62,-106.042 206,-140 200.216,-147.667 192.223,-154.839 185.44,-160.248"/>
<polygon fill="#9a32cd" stroke="#9a32cd" points="259.206,-32.3851 258.529,-21.8119 252.464,-30.4991 259.206,-32.3851"/>
<text text-anchor="middle" x="262.5" y="-86.9" font-family="Helvetica,sans-Serif" font-size="12.00"> internal</text>
</g>
<!-- Node4 -->
<g id="node4" class="node"><title>Node4</title>
<g id="a_node4"><a xlink:href="../../d9/df1/unioninternal_j_s_o_n_node_1_1value__union__t.html" target="_top" xlink:title="internalJSONNode::value\l_union_t">
<polygon fill="white" stroke="black" points="320.5,-73 320.5,-107 467.5,-107 467.5,-73 320.5,-73"/>
<text text-anchor="start" x="328.5" y="-93.4" font-family="Helvetica,sans-Serif" font-size="12.00">internalJSONNode::value</text>
<text text-anchor="middle" x="394" y="-80.4" font-family="Helvetica,sans-Serif" font-size="12.00">_union_t</text>
</a>
</g>
</g>
<!-- Node4&#45;&gt;Node3 -->
<g id="edge4" class="edge"><title>Node4&#45;&gt;Node3</title>
<path fill="none" stroke="#9a32cd" stroke-dasharray="5,2" d="M357.243,-67.7196C331.141,-52.6081 297.34,-33.0388 277.525,-21.5673"/>
<polygon fill="#9a32cd" stroke="#9a32cd" points="355.711,-70.8769 366.119,-72.8583 359.218,-64.8189 355.711,-70.8769"/>
<text text-anchor="middle" x="350.5" y="-43.9" font-family="Helvetica,sans-Serif" font-size="12.00"> _value</text>
</g>
<!-- Node5&#45;&gt;Node1 -->
<g id="edge7" class="edge"><title>Node5&#45;&gt;Node1</title>
<path fill="none" stroke="#9a32cd" stroke-dasharray="5,2" d="M140.278,-74.6652C129.951,-69.1035 118.874,-62.1059 110,-54 99.6631,-44.5576 91.0391,-30.772 85.9512,-21.6012"/>
<polygon fill="#9a32cd" stroke="#9a32cd" points="138.968,-77.9266 149.466,-79.36 142.153,-71.6931 138.968,-77.9266"/>
<text text-anchor="middle" x="141" y="-43.9" font-family="Helvetica,sans-Serif" font-size="12.00"> myChildren</text>
</g>
<!-- Node5&#45;&gt;Node3 -->
<g id="edge5" class="edge"><title>Node5&#45;&gt;Node3</title>
<path fill="none" stroke="#9a32cd" stroke-dasharray="5,2" d="M172.135,-68.9938C173.195,-59.2127 176.039,-47.8814 183,-40 190.429,-31.5888 200.572,-25.7038 211.086,-21.5864"/>
<polygon fill="#9a32cd" stroke="#9a32cd" points="168.633,-68.9323 171.57,-79.1118 175.622,-69.3222 168.633,-68.9323"/>
<text text-anchor="middle" x="215" y="-43.9" font-family="Helvetica,sans-Serif" font-size="12.00"> CHILDREN</text>
</g>
</g>
</svg>
