<?xml version="1.0" encoding="UTF-8" standalone="no"?>
<!DOCTYPE svg PUBLIC "-//W3C//DTD SVG 1.1//EN"
 "http://www.w3.org/Graphics/SVG/1.1/DTD/svg11.dtd">
<!-- Generated by graphviz version 2.34.0 (20130907.0111)
 -->
<!-- Title: Documentation/Operator&#45;Console/JSON/JSONChildren.h Pages: 1 -->
<svg width="836pt" height="334pt"
 viewBox="0.00 0.00 836.00 334.00" xmlns="http://www.w3.org/2000/svg" xmlns:xlink="http://www.w3.org/1999/xlink">
<g id="graph0" class="graph" transform="scale(1 1) rotate(0) translate(4 330)">
<title>Documentation/Operator&#45;Console/JSON/JSONChildren.h</title>
<polygon fill="white" stroke="white" points="-4,4 -4,-330 832,-330 832,4 -4,4"/>
<!-- Node1 -->
<g id="node1" class="node"><title>Node1</title>
<polygon fill="#bfbfbf" stroke="black" points="92.5,-291 92.5,-325 277.5,-325 277.5,-291 92.5,-291"/>
<text text-anchor="start" x="100.5" y="-311.4" font-family="Helvetica,sans-Serif" font-size="12.00">Documentation/Operator</text>
<text text-anchor="middle" x="185" y="-298.4" font-family="Helvetica,sans-Serif" font-size="12.00">&#45;Console/JSON/JSONChildren.h</text>
</g>
<!-- Node2 -->
<g id="node2" class="node"><title>Node2</title>
<g id="a_node2"><a xlink:href="../../d1/da6/_documentation_2_operator-_console_2_j_s_o_n_2_j_s_o_n_memory_8h.html" target="_top" xlink:title="JSONMemory.h">
<polygon fill="white" stroke="black" points="96.5,-232.5 96.5,-253.5 195.5,-253.5 195.5,-232.5 96.5,-232.5"/>
<text text-anchor="middle" x="146" y="-239.9" font-family="Helvetica,sans-Serif" font-size="12.00">JSONMemory.h</text>
</a>
</g>
</g>
<!-- Node1&#45;&gt;Node2 -->
<g id="edge1" class="edge"><title>Node1&#45;&gt;Node2</title>
<path fill="none" stroke="midnightblue" d="M174.957,-290.776C169.529,-282.009 162.813,-271.159 157.215,-262.116"/>
<polygon fill="midnightblue" stroke="midnightblue" points="160.127,-260.171 151.888,-253.511 154.175,-263.856 160.127,-260.171"/>
</g>
<!-- Node6 -->
<g id="node6" class="node"><title>Node6</title>
<g id="a_node6"><a xlink:href="../../d5/d0f/_documentation_2_operator-_console_2_j_s_o_n_2_j_s_o_n_debug_8h.html" target="_top" xlink:title="JSONDebug.h">
<polygon fill="white" stroke="black" points="178,-174.5 178,-195.5 270,-195.5 270,-174.5 178,-174.5"/>
<text text-anchor="middle" x="224" y="-181.9" font-family="Helvetica,sans-Serif" font-size="12.00">JSONDebug.h</text>
</a>
</g>
</g>
<!-- Node1&#45;&gt;Node6 -->
<g id="edge14" class="edge"><title>Node1&#45;&gt;Node6</title>
<path fill="none" stroke="midnightblue" d="M191.066,-290.847C194.925,-280.391 199.94,-266.453 204,-254 209.297,-237.752 214.732,-219.121 218.598,-205.474"/>
<polygon fill="midnightblue" stroke="midnightblue" points="221.997,-206.313 221.328,-195.739 215.257,-204.422 221.997,-206.313"/>
</g>
<!-- Node3 -->
<g id="node3" class="node"><title>Node3</title>
<polygon fill="white" stroke="#bfbfbf" points="0,-174.5 0,-195.5 50,-195.5 50,-174.5 0,-174.5"/>
<text text-anchor="middle" x="25" y="-181.9" font-family="Helvetica,sans-Serif" font-size="12.00">cstdlib</text>
</g>
<!-- Node2&#45;&gt;Node3 -->
<g id="edge2" class="edge"><title>Node2&#45;&gt;Node3</title>
<path fill="none" stroke="midnightblue" d="M125.199,-232.373C105.776,-223.384 76.5776,-209.871 54.7036,-199.747"/>
<polygon fill="midnightblue" stroke="midnightblue" points="56.0745,-196.525 45.5292,-195.501 53.1344,-202.878 56.0745,-196.525"/>
</g>
<!-- Node4 -->
<g id="node4" class="node"><title>Node4</title>
<polygon fill="white" stroke="#bfbfbf" points="68.5,-174.5 68.5,-195.5 119.5,-195.5 119.5,-174.5 68.5,-174.5"/>
<text text-anchor="middle" x="94" y="-181.9" font-family="Helvetica,sans-Serif" font-size="12.00">cstring</text>
</g>
<!-- Node2&#45;&gt;Node4 -->
<g id="edge3" class="edge"><title>Node2&#45;&gt;Node4</title>
<path fill="none" stroke="midnightblue" d="M136.942,-232.246C129.486,-224.216 118.737,-212.639 109.858,-203.078"/>
<polygon fill="midnightblue" stroke="midnightblue" points="112.323,-200.589 102.954,-195.643 107.194,-205.352 112.323,-200.589"/>
</g>
<!-- Node5 -->
<g id="node5" class="node"><title>Node5</title>
<g id="a_node5"><a xlink:href="../../de/d2a/_documentation_2_operator-_console_2_j_s_o_n_options_8h.html" target="_top" xlink:title="../JSONOptions.h">
<polygon fill="white" stroke="black" points="132.5,-0.5 132.5,-21.5 239.5,-21.5 239.5,-0.5 132.5,-0.5"/>
<text text-anchor="middle" x="186" y="-7.9" font-family="Helvetica,sans-Serif" font-size="12.00">../JSONOptions.h</text>
</a>
</g>
</g>
<!-- Node2&#45;&gt;Node5 -->
<g id="edge4" class="edge"><title>Node2&#45;&gt;Node5</title>
<path fill="none" stroke="midnightblue" d="M147.668,-232.41C153.691,-197.778 174.393,-78.7395 182.605,-31.5218"/>
<polygon fill="midnightblue" stroke="midnightblue" points="186.06,-32.0828 184.325,-21.6309 179.163,-30.8833 186.06,-32.0828"/>
</g>
<!-- Node2&#45;&gt;Node6 -->
<g id="edge5" class="edge"><title>Node2&#45;&gt;Node6</title>
<path fill="none" stroke="midnightblue" d="M159.587,-232.246C171.33,-223.814 188.52,-211.473 202.188,-201.66"/>
<polygon fill="midnightblue" stroke="midnightblue" points="204.487,-204.318 210.569,-195.643 200.405,-198.632 204.487,-204.318"/>
</g>
<!-- Node7 -->
<g id="node7" class="node"><title>Node7</title>
<g id="a_node7"><a xlink:href="../../da/dbf/_documentation_2_operator-_console_2_j_s_o_n_2_j_s_o_n_defs_8h.html" target="_top" xlink:title="JSONDefs.h">
<polygon fill="white" stroke="black" points="324,-116.5 324,-137.5 406,-137.5 406,-116.5 324,-116.5"/>
<text text-anchor="middle" x="365" y="-123.9" font-family="Helvetica,sans-Serif" font-size="12.00">JSONDefs.h</text>
</a>
</g>
</g>
<!-- Node6&#45;&gt;Node7 -->
<g id="edge6" class="edge"><title>Node6&#45;&gt;Node7</title>
<path fill="none" stroke="midnightblue" d="M248.239,-174.373C271.279,-165.223 306.121,-151.384 331.75,-141.206"/>
<polygon fill="midnightblue" stroke="midnightblue" points="333.076,-144.445 341.078,-137.501 330.492,-137.94 333.076,-144.445"/>
</g>
<!-- Node7&#45;&gt;Node5 -->
<g id="edge7" class="edge"><title>Node7&#45;&gt;Node5</title>
<path fill="none" stroke="midnightblue" d="M323.973,-124.957C287.887,-121.821 236.356,-111.591 205,-80 192.477,-67.3824 188.045,-47.2364 186.556,-32.1417"/>
<polygon fill="midnightblue" stroke="midnightblue" points="190.026,-31.5525 185.905,-21.7917 183.039,-31.9915 190.026,-31.5525"/>
</g>
<!-- Node8 -->
<g id="node8" class="node"><title>Node8</title>
<g id="a_node8"><a xlink:href="../../d3/d83/_documentation_2_operator-_console_2_j_s_o_n_2_j_s_o_n_defs_2_unknown___c_8h.html" target="_top" xlink:title="JSONDefs\\Unknown_C.h">
<polygon fill="white" stroke="black" points="214,-58.5 214,-79.5 362,-79.5 362,-58.5 214,-58.5"/>
<text text-anchor="middle" x="288" y="-65.9" font-family="Helvetica,sans-Serif" font-size="12.00">JSONDefs\Unknown_C.h</text>
</a>
</g>
</g>
<!-- Node7&#45;&gt;Node8 -->
<g id="edge8" class="edge"><title>Node7&#45;&gt;Node8</title>
<path fill="none" stroke="midnightblue" d="M351.588,-116.246C339.994,-107.814 323.025,-95.4729 309.532,-85.6598"/>
<polygon fill="midnightblue" stroke="midnightblue" points="311.405,-82.6938 301.259,-79.6427 307.287,-88.355 311.405,-82.6938"/>
</g>
<!-- Node9 -->
<g id="node9" class="node"><title>Node9</title>
<g id="a_node9"><a xlink:href="../../da/d53/_documentation_2_operator-_console_2_j_s_o_n_2_j_s_o_n_defs_2_g_n_u___c_8h.html" target="_top" xlink:title="JSONDefs\\GNU_C.h">
<polygon fill="white" stroke="black" points="380,-58.5 380,-79.5 506,-79.5 506,-58.5 380,-58.5"/>
<text text-anchor="middle" x="443" y="-65.9" font-family="Helvetica,sans-Serif" font-size="12.00">JSONDefs\GNU_C.h</text>
</a>
</g>
</g>
<!-- Node7&#45;&gt;Node9 -->
<g id="edge9" class="edge"><title>Node7&#45;&gt;Node9</title>
<path fill="none" stroke="midnightblue" d="M378.587,-116.246C390.33,-107.814 407.52,-95.4729 421.188,-85.6598"/>
<polygon fill="midnightblue" stroke="midnightblue" points="423.487,-88.3179 429.569,-79.6427 419.405,-82.6316 423.487,-88.3179"/>
</g>
<!-- Node10 -->
<g id="node10" class="node"><title>Node10</title>
<g id="a_node10"><a xlink:href="../../de/d63/_documentation_2_operator-_console_2_j_s_o_n_2_j_s_o_n_defs_2_visual___c_8h.html" target="_top" xlink:title="JSONDefs\\Visual_C.h">
<polygon fill="white" stroke="black" points="524.5,-58.5 524.5,-79.5 657.5,-79.5 657.5,-58.5 524.5,-58.5"/>
<text text-anchor="middle" x="591" y="-65.9" font-family="Helvetica,sans-Serif" font-size="12.00">JSONDefs\Visual_C.h</text>
</a>
</g>
</g>
<!-- Node7&#45;&gt;Node10 -->
<g id="edge10" class="edge"><title>Node7&#45;&gt;Node10</title>
<path fill="none" stroke="midnightblue" d="M403.594,-116.437C442.028,-106.913 501.136,-92.2672 542.671,-81.9753"/>
<polygon fill="midnightblue" stroke="midnightblue" points="543.701,-85.3261 552.565,-79.5237 542.017,-78.5316 543.701,-85.3261"/>
</g>
<!-- Node11 -->
<g id="node11" class="node"><title>Node11</title>
<g id="a_node11"><a xlink:href="../../d0/d89/_documentation_2_operator-_console_2_j_s_o_n_2_j_s_o_n_defs_2_strings___defs_8h.html" target="_top" xlink:title="JSONDefs\\Strings_Defs.h">
<polygon fill="white" stroke="black" points="675.5,-58.5 675.5,-79.5 828.5,-79.5 828.5,-58.5 675.5,-58.5"/>
<text text-anchor="middle" x="752" y="-65.9" font-family="Helvetica,sans-Serif" font-size="12.00">JSONDefs\Strings_Defs.h</text>
</a>
</g>
</g>
<!-- Node7&#45;&gt;Node11 -->
<g id="edge11" class="edge"><title>Node7&#45;&gt;Node11</title>
<path fill="none" stroke="midnightblue" d="M406.049,-120.06C470.223,-110.774 595.32,-92.6721 676.191,-80.9698"/>
<polygon fill="midnightblue" stroke="midnightblue" points="676.921,-84.4007 686.316,-79.5046 675.918,-77.4729 676.921,-84.4007"/>
</g>
<!-- Node11&#45;&gt;Node5 -->
<g id="edge12" class="edge"><title>Node11&#45;&gt;Node5</title>
<path fill="none" stroke="midnightblue" d="M675.115,-58.9818C672.037,-58.6455 668.989,-58.317 666,-58 516.954,-42.1943 341.608,-25.9973 249.65,-17.6871"/>
<polygon fill="midnightblue" stroke="midnightblue" points="249.94,-14.1991 239.666,-16.7862 249.311,-21.1708 249.94,-14.1991"/>
</g>
<!-- Node12 -->
<g id="node12" class="node"><title>Node12</title>
<polygon fill="white" stroke="#bfbfbf" points="725,-0.5 725,-21.5 779,-21.5 779,-0.5 725,-0.5"/>
<text text-anchor="middle" x="752" y="-7.9" font-family="Helvetica,sans-Serif" font-size="12.00">string.h</text>
</g>
<!-- Node11&#45;&gt;Node12 -->
<g id="edge13" class="edge"><title>Node11&#45;&gt;Node12</title>
<path fill="none" stroke="midnightblue" d="M752,-58.2455C752,-50.9382 752,-40.6944 752,-31.7046"/>
<polygon fill="midnightblue" stroke="midnightblue" points="755.5,-31.6426 752,-21.6427 748.5,-31.6427 755.5,-31.6426"/>
</g>
</g>
</svg>
