<?xml version="1.0" encoding="UTF-8" standalone="no"?>
<!DOCTYPE svg PUBLIC "-//W3C//DTD SVG 1.1//EN"
 "http://www.w3.org/Graphics/SVG/1.1/DTD/svg11.dtd">
<!-- Generated by graphviz version 2.34.0 (20130907.0111)
 -->
<!-- Title: JSON/JSONSharedString.h Pages: 1 -->
<svg width="641pt" height="262pt"
 viewBox="0.00 0.00 640.65 262.00" xmlns="http://www.w3.org/2000/svg" xmlns:xlink="http://www.w3.org/1999/xlink">
<g id="graph0" class="graph" transform="scale(1 1) rotate(0) translate(4 258)">
<title>JSON/JSONSharedString.h</title>
<polygon fill="white" stroke="white" points="-4,4 -4,-258 636.654,-258 636.654,4 -4,4"/>
<!-- Node1 -->
<g id="node1" class="node"><title>Node1</title>
<polygon fill="#bfbfbf" stroke="black" points="208.154,-232.5 208.154,-253.5 369.154,-253.5 369.154,-232.5 208.154,-232.5"/>
<text text-anchor="middle" x="288.654" y="-239.9" font-family="Helvetica,sans-Serif" font-size="12.00">JSON/JSONSharedString.h</text>
</g>
<!-- Node2 -->
<g id="node2" class="node"><title>Node2</title>
<g id="a_node2"><a xlink:href="../../d6/d82/_j_s_o_n_debug_8h.html" target="_top" xlink:title="JSONDebug.h">
<polygon fill="white" stroke="black" points="186.654,-174.5 186.654,-195.5 278.654,-195.5 278.654,-174.5 186.654,-174.5"/>
<text text-anchor="middle" x="232.654" y="-181.9" font-family="Helvetica,sans-Serif" font-size="12.00">JSONDebug.h</text>
</a>
</g>
</g>
<!-- Node1&#45;&gt;Node2 -->
<g id="edge1" class="edge"><title>Node1&#45;&gt;Node2</title>
<path fill="none" stroke="midnightblue" d="M278.9,-232.246C270.79,-224.135 259.062,-212.408 249.446,-202.792"/>
<polygon fill="midnightblue" stroke="midnightblue" points="251.843,-200.239 242.297,-195.643 246.893,-205.189 251.843,-200.239"/>
</g>
<!-- Node10 -->
<g id="node10" class="node"><title>Node10</title>
<g id="a_node10"><a xlink:href="../../d8/dc8/_j_s_o_n_globals_8h.html" target="_top" xlink:title="JSONGlobals.h">
<polygon fill="white" stroke="black" points="297.154,-174.5 297.154,-195.5 394.154,-195.5 394.154,-174.5 297.154,-174.5"/>
<text text-anchor="middle" x="345.654" y="-181.9" font-family="Helvetica,sans-Serif" font-size="12.00">JSONGlobals.h</text>
</a>
</g>
</g>
<!-- Node1&#45;&gt;Node10 -->
<g id="edge10" class="edge"><title>Node1&#45;&gt;Node10</title>
<path fill="none" stroke="midnightblue" d="M298.583,-232.246C306.838,-224.135 318.775,-212.408 328.563,-202.792"/>
<polygon fill="midnightblue" stroke="midnightblue" points="331.159,-205.148 335.839,-195.643 326.253,-200.154 331.159,-205.148"/>
</g>
<!-- Node3 -->
<g id="node3" class="node"><title>Node3</title>
<g id="a_node3"><a xlink:href="../../dd/d47/_j_s_o_n_defs_8h.html" target="_top" xlink:title="JSONDefs.h">
<polygon fill="white" stroke="black" points="206.654,-116.5 206.654,-137.5 288.654,-137.5 288.654,-116.5 206.654,-116.5"/>
<text text-anchor="middle" x="247.654" y="-123.9" font-family="Helvetica,sans-Serif" font-size="12.00">JSONDefs.h</text>
</a>
</g>
</g>
<!-- Node2&#45;&gt;Node3 -->
<g id="edge2" class="edge"><title>Node2&#45;&gt;Node3</title>
<path fill="none" stroke="midnightblue" d="M235.267,-174.246C237.246,-166.858 240.029,-156.469 242.456,-147.409"/>
<polygon fill="midnightblue" stroke="midnightblue" points="245.865,-148.208 245.071,-137.643 239.103,-146.397 245.865,-148.208"/>
</g>
<!-- Node4 -->
<g id="node4" class="node"><title>Node4</title>
<g id="a_node4"><a xlink:href="../../dc/d13/_j_s_o_n_options_8h.html" target="_top" xlink:title="..\\JSONOptions.h">
<polygon fill="white" stroke="black" points="171.154,-0.5 171.154,-21.5 278.154,-21.5 278.154,-0.5 171.154,-0.5"/>
<text text-anchor="middle" x="224.654" y="-7.9" font-family="Helvetica,sans-Serif" font-size="12.00">..\JSONOptions.h</text>
</a>
</g>
</g>
<!-- Node3&#45;&gt;Node4 -->
<g id="edge3" class="edge"><title>Node3&#45;&gt;Node4</title>
<path fill="none" stroke="midnightblue" d="M206.612,-124.157C145.251,-120.444 34.1636,-109.7 9.65436,-80 -33.9858,-27.1175 82.7116,-14.7657 160.789,-12.2389"/>
<polygon fill="midnightblue" stroke="midnightblue" points="161.154,-15.7302 171.054,-11.9552 160.961,-8.73287 161.154,-15.7302"/>
</g>
<!-- Node5 -->
<g id="node5" class="node"><title>Node5</title>
<g id="a_node5"><a xlink:href="../../d1/d44/_unknown___c_8h.html" target="_top" xlink:title="JSONDefs\\Unknown_C.h">
<polygon fill="white" stroke="black" points="18.6544,-58.5 18.6544,-79.5 166.654,-79.5 166.654,-58.5 18.6544,-58.5"/>
<text text-anchor="middle" x="92.6544" y="-65.9" font-family="Helvetica,sans-Serif" font-size="12.00">JSONDefs\Unknown_C.h</text>
</a>
</g>
</g>
<!-- Node3&#45;&gt;Node5 -->
<g id="edge4" class="edge"><title>Node3&#45;&gt;Node5</title>
<path fill="none" stroke="midnightblue" d="M221.009,-116.373C195.458,-107.142 156.703,-93.1402 128.463,-82.9375"/>
<polygon fill="midnightblue" stroke="midnightblue" points="129.546,-79.6074 118.952,-79.5011 127.168,-86.1909 129.546,-79.6074"/>
</g>
<!-- Node6 -->
<g id="node6" class="node"><title>Node6</title>
<g id="a_node6"><a xlink:href="../../d7/d3c/_g_n_u___c_8h.html" target="_top" xlink:title="JSONDefs\\GNU_C.h">
<polygon fill="white" stroke="black" points="184.654,-58.5 184.654,-79.5 310.654,-79.5 310.654,-58.5 184.654,-58.5"/>
<text text-anchor="middle" x="247.654" y="-65.9" font-family="Helvetica,sans-Serif" font-size="12.00">JSONDefs\GNU_C.h</text>
</a>
</g>
</g>
<!-- Node3&#45;&gt;Node6 -->
<g id="edge5" class="edge"><title>Node3&#45;&gt;Node6</title>
<path fill="none" stroke="midnightblue" d="M247.654,-116.246C247.654,-108.938 247.654,-98.6944 247.654,-89.7046"/>
<polygon fill="midnightblue" stroke="midnightblue" points="251.154,-89.6426 247.654,-79.6427 244.154,-89.6427 251.154,-89.6426"/>
</g>
<!-- Node7 -->
<g id="node7" class="node"><title>Node7</title>
<g id="a_node7"><a xlink:href="../../d0/d22/_visual___c_8h.html" target="_top" xlink:title="JSONDefs\\Visual_C.h">
<polygon fill="white" stroke="black" points="329.154,-58.5 329.154,-79.5 462.154,-79.5 462.154,-58.5 329.154,-58.5"/>
<text text-anchor="middle" x="395.654" y="-65.9" font-family="Helvetica,sans-Serif" font-size="12.00">JSONDefs\Visual_C.h</text>
</a>
</g>
</g>
<!-- Node3&#45;&gt;Node7 -->
<g id="edge6" class="edge"><title>Node3&#45;&gt;Node7</title>
<path fill="none" stroke="midnightblue" d="M273.096,-116.373C297.387,-107.182 334.175,-93.2624 361.109,-83.0713"/>
<polygon fill="midnightblue" stroke="midnightblue" points="362.43,-86.3136 370.544,-79.5011 359.953,-79.7666 362.43,-86.3136"/>
</g>
<!-- Node8 -->
<g id="node8" class="node"><title>Node8</title>
<g id="a_node8"><a xlink:href="../../d8/d1d/_strings___defs_8h.html" target="_top" xlink:title="JSONDefs\\Strings_Defs.h">
<polygon fill="white" stroke="black" points="480.154,-58.5 480.154,-79.5 633.154,-79.5 633.154,-58.5 480.154,-58.5"/>
<text text-anchor="middle" x="556.654" y="-65.9" font-family="Helvetica,sans-Serif" font-size="12.00">JSONDefs\Strings_Defs.h</text>
</a>
</g>
</g>
<!-- Node3&#45;&gt;Node8 -->
<g id="edge7" class="edge"><title>Node3&#45;&gt;Node8</title>
<path fill="none" stroke="midnightblue" d="M288.687,-118.564C341.25,-109.038 432.863,-92.4347 494.131,-81.331"/>
<polygon fill="midnightblue" stroke="midnightblue" points="494.854,-84.7571 504.07,-79.5299 493.606,-77.8693 494.854,-84.7571"/>
</g>
<!-- Node8&#45;&gt;Node4 -->
<g id="edge8" class="edge"><title>Node8&#45;&gt;Node4</title>
<path fill="none" stroke="midnightblue" d="M499.959,-58.4369C441.188,-48.5238 349.512,-33.0604 288.297,-22.7348"/>
<polygon fill="midnightblue" stroke="midnightblue" points="288.81,-19.2721 278.367,-21.06 287.646,-26.1746 288.81,-19.2721"/>
</g>
<!-- Node9 -->
<g id="node9" class="node"><title>Node9</title>
<polygon fill="white" stroke="#bfbfbf" points="529.654,-0.5 529.654,-21.5 583.654,-21.5 583.654,-0.5 529.654,-0.5"/>
<text text-anchor="middle" x="556.654" y="-7.9" font-family="Helvetica,sans-Serif" font-size="12.00">string.h</text>
</g>
<!-- Node8&#45;&gt;Node9 -->
<g id="edge9" class="edge"><title>Node8&#45;&gt;Node9</title>
<path fill="none" stroke="midnightblue" d="M556.654,-58.2455C556.654,-50.9382 556.654,-40.6944 556.654,-31.7046"/>
<polygon fill="midnightblue" stroke="midnightblue" points="560.154,-31.6426 556.654,-21.6427 553.154,-31.6427 560.154,-31.6426"/>
</g>
<!-- Node10&#45;&gt;Node3 -->
<g id="edge11" class="edge"><title>Node10&#45;&gt;Node3</title>
<path fill="none" stroke="midnightblue" d="M328.584,-174.246C313.407,-165.573 290.992,-152.765 273.598,-142.825"/>
<polygon fill="midnightblue" stroke="midnightblue" points="274.948,-139.565 264.529,-137.643 271.475,-145.643 274.948,-139.565"/>
</g>
<!-- Node11 -->
<g id="node11" class="node"><title>Node11</title>
<polygon fill="white" stroke="#bfbfbf" points="323.154,-116.5 323.154,-137.5 368.154,-137.5 368.154,-116.5 323.154,-116.5"/>
<text text-anchor="middle" x="345.654" y="-123.9" font-family="Helvetica,sans-Serif" font-size="12.00">string</text>
</g>
<!-- Node10&#45;&gt;Node11 -->
<g id="edge12" class="edge"><title>Node10&#45;&gt;Node11</title>
<path fill="none" stroke="midnightblue" d="M345.654,-174.246C345.654,-166.938 345.654,-156.694 345.654,-147.705"/>
<polygon fill="midnightblue" stroke="midnightblue" points="349.154,-147.643 345.654,-137.643 342.154,-147.643 349.154,-147.643"/>
</g>
</g>
</svg>
