<?xml version="1.0" encoding="UTF-8" standalone="no"?>
<!DOCTYPE svg PUBLIC "-//W3C//DTD SVG 1.1//EN"
 "http://www.w3.org/Graphics/SVG/1.1/DTD/svg11.dtd">
<!-- Generated by graphviz version 2.34.0 (20130907.0111)
 -->
<!-- Title: _floatsAreEqual Pages: 1 -->
<svg width="334pt" height="110pt"
 viewBox="0.00 0.00 334.00 110.00" xmlns="http://www.w3.org/2000/svg" xmlns:xlink="http://www.w3.org/1999/xlink">
<g id="graph0" class="graph" transform="scale(1 1) rotate(0) translate(4 106)">
<title>_floatsAreEqual</title>
<polygon fill="white" stroke="white" points="-4,4 -4,-106 330,-106 330,4 -4,4"/>
<!-- Node1 -->
<g id="node1" class="node"><title>Node1</title>
<polygon fill="#bfbfbf" stroke="black" points="0,-40.5 0,-61.5 100,-61.5 100,-40.5 0,-40.5"/>
<text text-anchor="middle" x="50" y="-47.9" font-family="Helvetica,sans-Serif" font-size="12.00">_floatsAreEqual</text>
</g>
<!-- Node2 -->
<g id="node2" class="node"><title>Node2</title>
<g id="a_node2"><a xlink:href="../../d1/da2/class_number_to_string.html#a65f9f0cd6c8ba12962533a9a62b5b829" target="_top" xlink:title="NumberToString::_ftoa">
<polygon fill="white" stroke="black" points="164,-80.5 164,-101.5 298,-101.5 298,-80.5 164,-80.5"/>
<text text-anchor="middle" x="231" y="-87.9" font-family="Helvetica,sans-Serif" font-size="12.00">NumberToString::_ftoa</text>
</a>
</g>
</g>
<!-- Node1&#45;&gt;Node2 -->
<g id="edge1" class="edge"><title>Node1&#45;&gt;Node2</title>
<path fill="none" stroke="midnightblue" d="M104.826,-63.8489C115.164,-66.2645 125.91,-68.7399 136,-71 150.002,-74.1365 165.205,-77.4227 179.221,-80.4041"/>
<polygon fill="midnightblue" stroke="midnightblue" points="105.611,-60.438 95.0753,-61.5603 104.011,-67.2528 105.611,-60.438"/>
</g>
<!-- Node3 -->
<g id="node3" class="node"><title>Node3</title>
<g id="a_node3"><a xlink:href="../../d1/d0b/classinternal_j_s_o_n_node.html#acf0a6030c5d792215ada536d77a9b879" target="_top" xlink:title="internalJSONNode::IsEqualTo">
<polygon fill="white" stroke="black" points="145,-40.5 145,-61.5 317,-61.5 317,-40.5 145,-40.5"/>
<text text-anchor="middle" x="231" y="-47.9" font-family="Helvetica,sans-Serif" font-size="12.00">internalJSONNode::IsEqualTo</text>
</a>
</g>
</g>
<!-- Node1&#45;&gt;Node3 -->
<g id="edge2" class="edge"><title>Node1&#45;&gt;Node3</title>
<path fill="none" stroke="midnightblue" d="M110.642,-51C121.579,-51 133.189,-51 144.705,-51"/>
<polygon fill="midnightblue" stroke="midnightblue" points="110.386,-47.5001 100.386,-51 110.386,-54.5001 110.386,-47.5001"/>
</g>
<!-- Node4 -->
<g id="node4" class="node"><title>Node4</title>
<g id="a_node4"><a xlink:href="../../d1/d0b/classinternal_j_s_o_n_node.html#a34027ce85bb5d24f5e7a6c9273e2ab26" target="_top" xlink:title="internalJSONNode::operator bool">
<polygon fill="white" stroke="black" points="136,-0.5 136,-21.5 326,-21.5 326,-0.5 136,-0.5"/>
<text text-anchor="middle" x="231" y="-7.9" font-family="Helvetica,sans-Serif" font-size="12.00">internalJSONNode::operator bool</text>
</a>
</g>
</g>
<!-- Node1&#45;&gt;Node4 -->
<g id="edge3" class="edge"><title>Node1&#45;&gt;Node4</title>
<path fill="none" stroke="midnightblue" d="M104.826,-38.1511C115.164,-35.7355 125.91,-33.2601 136,-31 150.002,-27.8635 165.205,-24.5773 179.221,-21.5959"/>
<polygon fill="midnightblue" stroke="midnightblue" points="104.011,-34.7472 95.0753,-40.4397 105.611,-41.562 104.011,-34.7472"/>
</g>
</g>
</svg>
