<?xml version="1.0" encoding="UTF-8" standalone="no"?>
<!DOCTYPE svg PUBLIC "-//W3C//DTD SVG 1.1//EN"
 "http://www.w3.org/Graphics/SVG/1.1/DTD/svg11.dtd">
<!-- Generated by graphviz version 2.34.0 (20130907.0111)
 -->
<!-- Title: JSON/JSONGlobals.h Pages: 1 -->
<svg width="1613pt" height="552pt"
 viewBox="0.00 0.00 1613.00 552.00" xmlns="http://www.w3.org/2000/svg" xmlns:xlink="http://www.w3.org/1999/xlink">
<g id="graph0" class="graph" transform="scale(1 1) rotate(0) translate(4 548)">
<title>JSON/JSONGlobals.h</title>
<polygon fill="white" stroke="white" points="-4,4 -4,-548 1609,-548 1609,4 -4,4"/>
<!-- Node1 -->
<g id="node1" class="node"><title>Node1</title>
<polygon fill="#bfbfbf" stroke="black" points="1012.5,-522.5 1012.5,-543.5 1143.5,-543.5 1143.5,-522.5 1012.5,-522.5"/>
<text text-anchor="middle" x="1078" y="-529.9" font-family="Helvetica,sans-Serif" font-size="12.00">JSON/JSONGlobals.h</text>
</g>
<!-- Node2 -->
<g id="node2" class="node"><title>Node2</title>
<g id="a_node2"><a xlink:href="../../dd/db0/internal_j_s_o_n_node_8h.html" target="_top" xlink:title="JSON/internalJSONNode.h">
<polygon fill="white" stroke="black" points="577,-406.5 577,-427.5 735,-427.5 735,-406.5 577,-406.5"/>
<text text-anchor="middle" x="656" y="-413.9" font-family="Helvetica,sans-Serif" font-size="12.00">JSON/internalJSONNode.h</text>
</a>
</g>
</g>
<!-- Node1&#45;&gt;Node2 -->
<g id="edge1" class="edge"><title>Node1&#45;&gt;Node2</title>
<path fill="none" stroke="midnightblue" d="M1032.93,-519.826C948.464,-497.007 767.961,-448.245 691.45,-427.577"/>
<polygon fill="midnightblue" stroke="midnightblue" points="1032.18,-523.247 1042.75,-522.477 1034.01,-516.49 1032.18,-523.247"/>
</g>
<!-- Node23 -->
<g id="node23" class="node"><title>Node23</title>
<g id="a_node23"><a xlink:href="../../dd/dde/internal_j_s_o_n_node_8cpp.html" target="_top" xlink:title="JSON/internalJSONNode.cpp">
<polygon fill="white" stroke="black" points="160.5,-232.5 160.5,-253.5 331.5,-253.5 331.5,-232.5 160.5,-232.5"/>
<text text-anchor="middle" x="246" y="-239.9" font-family="Helvetica,sans-Serif" font-size="12.00">JSON/internalJSONNode.cpp</text>
</a>
</g>
</g>
<!-- Node1&#45;&gt;Node23 -->
<g id="edge46" class="edge"><title>Node1&#45;&gt;Node23</title>
<path fill="none" stroke="midnightblue" d="M1002.12,-530.661C779.713,-525.737 145,-504.14 145,-418 145,-418 145,-418 145,-358 145,-308.554 198.892,-270.517 227.943,-253.604"/>
<polygon fill="midnightblue" stroke="midnightblue" points="1002.32,-534.166 1012.39,-530.883 1002.47,-527.167 1002.32,-534.166"/>
</g>
<!-- Node26 -->
<g id="node26" class="node"><title>Node26</title>
<g id="a_node26"><a xlink:href="../../d8/d45/_j_s_o_n_writer_8cpp.html" target="_top" xlink:title="JSON/JSONWriter.cpp">
<polygon fill="white" stroke="black" points="1159.5,-232.5 1159.5,-253.5 1296.5,-253.5 1296.5,-232.5 1159.5,-232.5"/>
<text text-anchor="middle" x="1228" y="-239.9" font-family="Helvetica,sans-Serif" font-size="12.00">JSON/JSONWriter.cpp</text>
</a>
</g>
</g>
<!-- Node1&#45;&gt;Node26 -->
<g id="edge49" class="edge"><title>Node1&#45;&gt;Node26</title>
<path fill="none" stroke="midnightblue" d="M1153.62,-522.475C1255.17,-507.532 1423,-474.317 1423,-418 1423,-418 1423,-418 1423,-358 1423,-326.498 1425.6,-311.95 1403,-290 1374.95,-262.749 1332.79,-251.124 1296.88,-246.372"/>
<polygon fill="midnightblue" stroke="midnightblue" points="1153.1,-519.014 1143.7,-523.907 1154.1,-525.942 1153.1,-519.014"/>
</g>
<!-- Node32 -->
<g id="node32" class="node"><title>Node32</title>
<g id="a_node32"><a xlink:href="../../d7/d9f/_j_s_o_n_node___mutex_8cpp.html" target="_top" xlink:title="JSON/JSONNode_Mutex.cpp">
<polygon fill="white" stroke="black" points="1223.5,-290.5 1223.5,-311.5 1394.5,-311.5 1394.5,-290.5 1223.5,-290.5"/>
<text text-anchor="middle" x="1309" y="-297.9" font-family="Helvetica,sans-Serif" font-size="12.00">JSON/JSONNode_Mutex.cpp</text>
</a>
</g>
</g>
<!-- Node1&#45;&gt;Node32 -->
<g id="edge48" class="edge"><title>Node1&#45;&gt;Node32</title>
<path fill="none" stroke="midnightblue" d="M1094.93,-515.142C1140.35,-469.924 1263.82,-346.988 1299.33,-311.631"/>
<polygon fill="midnightblue" stroke="midnightblue" points="1092.25,-512.874 1087.63,-522.41 1097.19,-517.835 1092.25,-512.874"/>
</g>
<!-- Node33 -->
<g id="node33" class="node"><title>Node33</title>
<g id="a_node33"><a xlink:href="../../df/de5/_j_s_o_n_shared_string_8h.html" target="_top" xlink:title="JSON/JSONSharedString.h">
<polygon fill="white" stroke="black" points="499.5,-464.5 499.5,-485.5 660.5,-485.5 660.5,-464.5 499.5,-464.5"/>
<text text-anchor="middle" x="580" y="-471.9" font-family="Helvetica,sans-Serif" font-size="12.00">JSON/JSONSharedString.h</text>
</a>
</g>
</g>
<!-- Node1&#45;&gt;Node33 -->
<g id="edge41" class="edge"><title>Node1&#45;&gt;Node33</title>
<path fill="none" stroke="midnightblue" d="M1002.28,-523.486C910.077,-513.117 754.989,-495.677 660.617,-485.065"/>
<polygon fill="midnightblue" stroke="midnightblue" points="1002.05,-526.982 1012.38,-524.621 1002.84,-520.026 1002.05,-526.982"/>
</g>
<!-- Node35 -->
<g id="node35" class="node"><title>Node35</title>
<g id="a_node35"><a xlink:href="../../de/d85/_j_s_o_n___base64_8cpp.html" target="_top" xlink:title="JSON/JSON_Base64.cpp">
<polygon fill="white" stroke="black" points="1451.5,-464.5 1451.5,-485.5 1604.5,-485.5 1604.5,-464.5 1451.5,-464.5"/>
<text text-anchor="middle" x="1528" y="-471.9" font-family="Helvetica,sans-Serif" font-size="12.00">JSON/JSON_Base64.cpp</text>
</a>
</g>
</g>
<!-- Node1&#45;&gt;Node35 -->
<g id="edge47" class="edge"><title>Node1&#45;&gt;Node35</title>
<path fill="none" stroke="midnightblue" d="M1154.01,-522.541C1236.76,-512.243 1368.35,-495.868 1451.35,-485.538"/>
<polygon fill="midnightblue" stroke="midnightblue" points="1153.41,-519.089 1143.92,-523.797 1154.27,-526.035 1153.41,-519.089"/>
</g>
<!-- Node3 -->
<g id="node3" class="node"><title>Node3</title>
<g id="a_node3"><a xlink:href="../../d8/dcb/_j_s_o_n_node_8h.html" target="_top" xlink:title="JSON/JSONNode.h">
<polygon fill="white" stroke="black" points="640,-348.5 640,-369.5 760,-369.5 760,-348.5 640,-348.5"/>
<text text-anchor="middle" x="700" y="-355.9" font-family="Helvetica,sans-Serif" font-size="12.00">JSON/JSONNode.h</text>
</a>
</g>
</g>
<!-- Node2&#45;&gt;Node3 -->
<g id="edge2" class="edge"><title>Node2&#45;&gt;Node3</title>
<path fill="none" stroke="midnightblue" d="M669.977,-398.211C677.413,-388.747 686.266,-377.48 692.424,-369.643"/>
<polygon fill="midnightblue" stroke="midnightblue" points="667.09,-396.22 663.664,-406.246 672.595,-400.545 667.09,-396.22"/>
</g>
<!-- Node2&#45;&gt;Node23 -->
<g id="edge40" class="edge"><title>Node2&#45;&gt;Node23</title>
<path fill="none" stroke="midnightblue" d="M570.448,-404.798C495.365,-391.836 385.707,-365.059 304,-312 280.315,-296.62 260.992,-268.739 251.8,-253.905"/>
<polygon fill="midnightblue" stroke="midnightblue" points="569.905,-408.256 580.347,-406.462 571.065,-401.353 569.905,-408.256"/>
</g>
<!-- Node4 -->
<g id="node4" class="node"><title>Node4</title>
<g id="a_node4"><a xlink:href="../../d1/d7d/libjson_8h.html" target="_top" xlink:title="libjson.h">
<polygon fill="white" stroke="black" points="671.5,-232.5 671.5,-253.5 730.5,-253.5 730.5,-232.5 671.5,-232.5"/>
<text text-anchor="middle" x="701" y="-239.9" font-family="Helvetica,sans-Serif" font-size="12.00">libjson.h</text>
</a>
</g>
</g>
<!-- Node3&#45;&gt;Node4 -->
<g id="edge3" class="edge"><title>Node3&#45;&gt;Node4</title>
<path fill="none" stroke="midnightblue" d="M629.875,-352.747C571.85,-345.577 503.381,-328.819 533,-290 535.144,-287.19 623.798,-263.94 671.432,-251.611"/>
<polygon fill="midnightblue" stroke="midnightblue" points="629.484,-356.225 639.82,-353.898 630.288,-349.272 629.484,-356.225"/>
</g>
<!-- Node22 -->
<g id="node22" class="node"><title>Node22</title>
<g id="a_node22"><a xlink:href="../../d8/d46/_j_s_o_n_worker_8h.html" target="_top" xlink:title="JSON/JSONWorker.h">
<polygon fill="white" stroke="black" points="356,-290.5 356,-311.5 486,-311.5 486,-290.5 356,-290.5"/>
<text text-anchor="middle" x="421" y="-297.9" font-family="Helvetica,sans-Serif" font-size="12.00">JSON/JSONWorker.h</text>
</a>
</g>
</g>
<!-- Node3&#45;&gt;Node22 -->
<g id="edge25" class="edge"><title>Node3&#45;&gt;Node22</title>
<path fill="none" stroke="midnightblue" d="M642.389,-346.437C590.954,-336.113 516.527,-321.174 468.448,-311.524"/>
<polygon fill="midnightblue" stroke="midnightblue" points="641.862,-349.9 652.355,-348.437 643.24,-343.037 641.862,-349.9"/>
</g>
<!-- Node3&#45;&gt;Node23 -->
<g id="edge34" class="edge"><title>Node3&#45;&gt;Node23</title>
<path fill="none" stroke="midnightblue" d="M629.454,-358.24C556.504,-356.346 440.407,-347.273 347,-312 310.415,-298.185 273.961,-268.825 256.555,-253.602"/>
<polygon fill="midnightblue" stroke="midnightblue" points="629.821,-361.748 639.896,-358.469 629.975,-354.75 629.821,-361.748"/>
</g>
<!-- Node3&#45;&gt;Node26 -->
<g id="edge39" class="edge"><title>Node3&#45;&gt;Node26</title>
<path fill="none" stroke="midnightblue" d="M770.12,-357.995C885.189,-356.877 1108.11,-349.723 1176,-312 1199.9,-298.719 1216.31,-269.4 1223.65,-253.959"/>
<polygon fill="midnightblue" stroke="midnightblue" points="769.974,-354.496 760.004,-358.08 770.033,-361.496 769.974,-354.496"/>
</g>
<!-- Node27 -->
<g id="node27" class="node"><title>Node27</title>
<g id="a_node27"><a xlink:href="../../da/dde/_j_s_o_n_preparse_8h.html" target="_top" xlink:title="JSON/JSONPreparse.h">
<polygon fill="white" stroke="black" points="1027,-290.5 1027,-311.5 1167,-311.5 1167,-290.5 1027,-290.5"/>
<text text-anchor="middle" x="1097" y="-297.9" font-family="Helvetica,sans-Serif" font-size="12.00">JSON/JSONPreparse.h</text>
</a>
</g>
</g>
<!-- Node3&#45;&gt;Node27 -->
<g id="edge31" class="edge"><title>Node3&#45;&gt;Node27</title>
<path fill="none" stroke="midnightblue" d="M770.346,-348.077C843.543,-337.752 957.348,-321.699 1029.48,-311.524"/>
<polygon fill="midnightblue" stroke="midnightblue" points="769.709,-344.632 760.296,-349.495 770.687,-351.564 769.709,-344.632"/>
</g>
<!-- Node29 -->
<g id="node29" class="node"><title>Node29</title>
<g id="a_node29"><a xlink:href="../../dc/d59/_j_s_o_n_children_8cpp.html" target="_top" xlink:title="JSON/JSONChildren.cpp">
<polygon fill="white" stroke="black" points="542.5,-290.5 542.5,-311.5 691.5,-311.5 691.5,-290.5 542.5,-290.5"/>
<text text-anchor="middle" x="617" y="-297.9" font-family="Helvetica,sans-Serif" font-size="12.00">JSON/JSONChildren.cpp</text>
</a>
</g>
</g>
<!-- Node3&#45;&gt;Node29 -->
<g id="edge35" class="edge"><title>Node3&#45;&gt;Node29</title>
<path fill="none" stroke="midnightblue" d="M677.012,-342.49C662.368,-332.61 643.856,-320.119 631.292,-311.643"/>
<polygon fill="midnightblue" stroke="midnightblue" points="675.295,-345.554 685.543,-348.246 679.21,-339.751 675.295,-345.554"/>
</g>
<!-- Node30 -->
<g id="node30" class="node"><title>Node30</title>
<g id="a_node30"><a xlink:href="../../d8/de5/_j_s_o_n_iterators_8cpp.html" target="_top" xlink:title="JSON/JSONIterators.cpp">
<polygon fill="white" stroke="black" points="709.5,-290.5 709.5,-311.5 856.5,-311.5 856.5,-290.5 709.5,-290.5"/>
<text text-anchor="middle" x="783" y="-297.9" font-family="Helvetica,sans-Serif" font-size="12.00">JSON/JSONIterators.cpp</text>
</a>
</g>
</g>
<!-- Node3&#45;&gt;Node30 -->
<g id="edge36" class="edge"><title>Node3&#45;&gt;Node30</title>
<path fill="none" stroke="midnightblue" d="M722.988,-342.49C737.632,-332.61 756.144,-320.119 768.708,-311.643"/>
<polygon fill="midnightblue" stroke="midnightblue" points="720.79,-339.751 714.457,-348.246 724.705,-345.554 720.79,-339.751"/>
</g>
<!-- Node31 -->
<g id="node31" class="node"><title>Node31</title>
<g id="a_node31"><a xlink:href="../../d1/df2/_j_s_o_n_node_8cpp.html" target="_top" xlink:title="JSON/JSONNode.cpp">
<polygon fill="white" stroke="black" points="875,-290.5 875,-311.5 1009,-311.5 1009,-290.5 875,-290.5"/>
<text text-anchor="middle" x="942" y="-297.9" font-family="Helvetica,sans-Serif" font-size="12.00">JSON/JSONNode.cpp</text>
</a>
</g>
</g>
<!-- Node3&#45;&gt;Node31 -->
<g id="edge37" class="edge"><title>Node3&#45;&gt;Node31</title>
<path fill="none" stroke="midnightblue" d="M751.09,-346.178C795.659,-335.864 859.489,-321.093 900.844,-311.524"/>
<polygon fill="midnightblue" stroke="midnightblue" points="750.28,-342.772 741.326,-348.437 751.858,-349.592 750.28,-342.772"/>
</g>
<!-- Node3&#45;&gt;Node32 -->
<g id="edge38" class="edge"><title>Node3&#45;&gt;Node32</title>
<path fill="none" stroke="midnightblue" d="M770.455,-351.847C868.711,-343.217 1052.46,-326.901 1209,-312 1213.69,-311.554 1218.5,-311.09 1223.36,-310.618"/>
<polygon fill="midnightblue" stroke="midnightblue" points="770.005,-348.373 760.349,-352.734 770.617,-355.346 770.005,-348.373"/>
</g>
<!-- Node5 -->
<g id="node5" class="node"><title>Node5</title>
<g id="a_node5"><a xlink:href="../../d9/da7/_image_test_8h.html" target="_top" xlink:title="ImageTest.h">
<polygon fill="white" stroke="black" points="470,-174.5 470,-195.5 550,-195.5 550,-174.5 470,-174.5"/>
<text text-anchor="middle" x="510" y="-181.9" font-family="Helvetica,sans-Serif" font-size="12.00">ImageTest.h</text>
</a>
</g>
</g>
<!-- Node4&#45;&gt;Node5 -->
<g id="edge4" class="edge"><title>Node4&#45;&gt;Node5</title>
<path fill="none" stroke="midnightblue" d="M661.221,-230.337C626.031,-220.02 575.318,-205.151 542.509,-195.531"/>
<polygon fill="midnightblue" stroke="midnightblue" points="660.575,-233.795 671.156,-233.25 662.545,-227.078 660.575,-233.795"/>
</g>
<!-- Node19 -->
<g id="node19" class="node"><title>Node19</title>
<g id="a_node19"><a xlink:href="../../dc/d7a/_s_f_rplus_test_8cpp.html" target="_top" xlink:title="SFRplusTest.cpp">
<polygon fill="white" stroke="black" points="606.5,-58.5 606.5,-79.5 713.5,-79.5 713.5,-58.5 606.5,-58.5"/>
<text text-anchor="middle" x="660" y="-65.9" font-family="Helvetica,sans-Serif" font-size="12.00">SFRplusTest.cpp</text>
</a>
</g>
</g>
<!-- Node4&#45;&gt;Node19 -->
<g id="edge24" class="edge"><title>Node4&#45;&gt;Node19</title>
<path fill="none" stroke="midnightblue" d="M690.587,-223.465C686.395,-215.272 681.882,-205.386 679,-196 666.079,-153.915 661.765,-101.122 660.485,-79.6989"/>
<polygon fill="midnightblue" stroke="midnightblue" points="687.602,-225.305 695.407,-232.47 693.773,-222.002 687.602,-225.305"/>
</g>
<!-- Node20 -->
<g id="node20" class="node"><title>Node20</title>
<g id="a_node20"><a xlink:href="../../df/d2a/libjson_8cpp.html" target="_top" xlink:title="JSON/libjson.cpp">
<polygon fill="white" stroke="black" points="688.5,-174.5 688.5,-195.5 795.5,-195.5 795.5,-174.5 688.5,-174.5"/>
<text text-anchor="middle" x="742" y="-181.9" font-family="Helvetica,sans-Serif" font-size="12.00">JSON/libjson.cpp</text>
</a>
</g>
</g>
<!-- Node4&#45;&gt;Node20 -->
<g id="edge22" class="edge"><title>Node4&#45;&gt;Node20</title>
<path fill="none" stroke="midnightblue" d="M714.236,-223.921C721.121,-214.518 729.261,-203.4 734.94,-195.643"/>
<polygon fill="midnightblue" stroke="midnightblue" points="711.225,-222.109 708.142,-232.246 716.873,-226.244 711.225,-222.109"/>
</g>
<!-- Node21 -->
<g id="node21" class="node"><title>Node21</title>
<g id="a_node21"><a xlink:href="../../d7/d4a/jsonhelpers_8cpp.html" target="_top" xlink:title="jsonhelpers.cpp">
<polygon fill="white" stroke="black" points="814,-174.5 814,-195.5 912,-195.5 912,-174.5 814,-174.5"/>
<text text-anchor="middle" x="863" y="-181.9" font-family="Helvetica,sans-Serif" font-size="12.00">jsonhelpers.cpp</text>
</a>
</g>
</g>
<!-- Node4&#45;&gt;Node21 -->
<g id="edge23" class="edge"><title>Node4&#45;&gt;Node21</title>
<path fill="none" stroke="midnightblue" d="M738.442,-229.057C768.09,-218.808 808.82,-204.729 835.515,-195.501"/>
<polygon fill="midnightblue" stroke="midnightblue" points="737.157,-225.798 728.849,-232.373 739.444,-232.414 737.157,-225.798"/>
</g>
<!-- Node6 -->
<g id="node6" class="node"><title>Node6</title>
<g id="a_node6"><a xlink:href="../../dc/d69/_blemish_test_8h.html" target="_top" xlink:title="BlemishTest.h">
<polygon fill="white" stroke="black" points="392,-116.5 392,-137.5 482,-137.5 482,-116.5 392,-116.5"/>
<text text-anchor="middle" x="437" y="-123.9" font-family="Helvetica,sans-Serif" font-size="12.00">BlemishTest.h</text>
</a>
</g>
</g>
<!-- Node5&#45;&gt;Node6 -->
<g id="edge5" class="edge"><title>Node5&#45;&gt;Node6</title>
<path fill="none" stroke="midnightblue" d="M489.049,-167.928C476.289,-158.14 460.411,-145.959 449.57,-137.643"/>
<polygon fill="midnightblue" stroke="midnightblue" points="487.22,-170.936 497.284,-174.246 491.48,-165.382 487.22,-170.936"/>
</g>
<!-- Node7 -->
<g id="node7" class="node"><title>Node7</title>
<g id="a_node7"><a xlink:href="../../da/de6/_operator_console_8h.html" target="_top" xlink:title="OperatorConsole.h">
<polygon fill="white" stroke="black" points="472,-58.5 472,-79.5 588,-79.5 588,-58.5 472,-58.5"/>
<text text-anchor="middle" x="530" y="-65.9" font-family="Helvetica,sans-Serif" font-size="12.00">OperatorConsole.h</text>
</a>
</g>
</g>
<!-- Node5&#45;&gt;Node7 -->
<g id="edge17" class="edge"><title>Node5&#45;&gt;Node7</title>
<path fill="none" stroke="midnightblue" d="M513.465,-164.252C517.792,-139.584 525.026,-98.3525 528.299,-79.695"/>
<polygon fill="midnightblue" stroke="midnightblue" points="509.986,-163.826 511.705,-174.28 516.881,-165.036 509.986,-163.826"/>
</g>
<!-- Node10 -->
<g id="node10" class="node"><title>Node10</title>
<g id="a_node10"><a xlink:href="../../d8/d53/_image_test_8cpp.html" target="_top" xlink:title="ImageTest.cpp">
<polygon fill="white" stroke="black" points="0,-0.5 0,-21.5 94,-21.5 94,-0.5 0,-0.5"/>
<text text-anchor="middle" x="47" y="-7.9" font-family="Helvetica,sans-Serif" font-size="12.00">ImageTest.cpp</text>
</a>
</g>
</g>
<!-- Node5&#45;&gt;Node10 -->
<g id="edge21" class="edge"><title>Node5&#45;&gt;Node10</title>
<path fill="none" stroke="midnightblue" d="M473.612,-170.943C448.198,-161.794 413.497,-149.241 383,-138 266.673,-95.1233 128.166,-42.7693 72.2537,-21.581"/>
<polygon fill="midnightblue" stroke="midnightblue" points="472.615,-174.304 483.21,-174.395 474.985,-167.717 472.615,-174.304"/>
</g>
<!-- Node18 -->
<g id="node18" class="node"><title>Node18</title>
<g id="a_node18"><a xlink:href="../../d2/d9d/_s_f_rplus_test_8h.html" target="_top" xlink:title="SFRplusTest.h">
<polygon fill="white" stroke="black" points="538.5,-116.5 538.5,-137.5 631.5,-137.5 631.5,-116.5 538.5,-116.5"/>
<text text-anchor="middle" x="585" y="-123.9" font-family="Helvetica,sans-Serif" font-size="12.00">SFRplusTest.h</text>
</a>
</g>
</g>
<!-- Node5&#45;&gt;Node18 -->
<g id="edge18" class="edge"><title>Node5&#45;&gt;Node18</title>
<path fill="none" stroke="midnightblue" d="M531.148,-168.21C544.32,-158.374 560.84,-146.039 572.086,-137.643"/>
<polygon fill="midnightblue" stroke="midnightblue" points="528.983,-165.458 523.064,-174.246 533.171,-171.067 528.983,-165.458"/>
</g>
<!-- Node6&#45;&gt;Node7 -->
<g id="edge6" class="edge"><title>Node6&#45;&gt;Node7</title>
<path fill="none" stroke="midnightblue" d="M461.834,-111.046C478.381,-101.082 499.643,-88.2794 513.986,-79.6427"/>
<polygon fill="midnightblue" stroke="midnightblue" points="459.961,-108.089 453.199,-116.246 463.572,-114.085 459.961,-108.089"/>
</g>
<!-- Node17 -->
<g id="node17" class="node"><title>Node17</title>
<g id="a_node17"><a xlink:href="../../dd/d8a/_blemish_test_8cpp.html" target="_top" xlink:title="BlemishTest.cpp">
<polygon fill="white" stroke="black" points="350,-58.5 350,-79.5 454,-79.5 454,-58.5 350,-58.5"/>
<text text-anchor="middle" x="402" y="-65.9" font-family="Helvetica,sans-Serif" font-size="12.00">BlemishTest.cpp</text>
</a>
</g>
</g>
<!-- Node6&#45;&gt;Node17 -->
<g id="edge16" class="edge"><title>Node6&#45;&gt;Node17</title>
<path fill="none" stroke="midnightblue" d="M425.518,-107.63C419.68,-98.2887 412.825,-87.3197 408.027,-79.6427"/>
<polygon fill="midnightblue" stroke="midnightblue" points="422.635,-109.621 430.903,-116.246 428.571,-105.911 422.635,-109.621"/>
</g>
<!-- Node8 -->
<g id="node8" class="node"><title>Node8</title>
<g id="a_node8"><a xlink:href="../../d3/d22/_app_thread_8cpp.html" target="_top" xlink:title="AppThread.cpp">
<polygon fill="white" stroke="black" points="761,-0.5 761,-21.5 859,-21.5 859,-0.5 761,-0.5"/>
<text text-anchor="middle" x="810" y="-7.9" font-family="Helvetica,sans-Serif" font-size="12.00">AppThread.cpp</text>
</a>
</g>
</g>
<!-- Node7&#45;&gt;Node8 -->
<g id="edge7" class="edge"><title>Node7&#45;&gt;Node8</title>
<path fill="none" stroke="midnightblue" d="M587.817,-56.4366C639.436,-46.1127 714.131,-31.1738 762.382,-21.5237"/>
<polygon fill="midnightblue" stroke="midnightblue" points="586.935,-53.0436 577.816,-58.4369 588.308,-59.9077 586.935,-53.0436"/>
</g>
<!-- Node9 -->
<g id="node9" class="node"><title>Node9</title>
<g id="a_node9"><a xlink:href="../../d6/df7/_critical_buf_8cpp.html" target="_top" xlink:title="CriticalBuf.cpp">
<polygon fill="white" stroke="black" points="877.5,-0.5 877.5,-21.5 970.5,-21.5 970.5,-0.5 877.5,-0.5"/>
<text text-anchor="middle" x="924" y="-7.9" font-family="Helvetica,sans-Serif" font-size="12.00">CriticalBuf.cpp</text>
</a>
</g>
</g>
<!-- Node7&#45;&gt;Node9 -->
<g id="edge8" class="edge"><title>Node7&#45;&gt;Node9</title>
<path fill="none" stroke="midnightblue" d="M598.115,-57.8644C718.989,-41.0004 751.108,-40.1915 868,-22 871.025,-21.5292 874.139,-21.0258 877.275,-20.5046"/>
<polygon fill="midnightblue" stroke="midnightblue" points="597.513,-54.4146 588.096,-59.2705 598.486,-61.3466 597.513,-54.4146"/>
</g>
<!-- Node7&#45;&gt;Node10 -->
<g id="edge9" class="edge"><title>Node7&#45;&gt;Node10</title>
<path fill="none" stroke="midnightblue" d="M461.712,-57.895C301.697,-38.361 258.999,-43.6956 103,-22 100.065,-21.5919 97.0496,-21.1421 94.0119,-20.666"/>
<polygon fill="midnightblue" stroke="midnightblue" points="461.565,-61.4034 471.919,-59.1551 462.423,-54.4562 461.565,-61.4034"/>
</g>
<!-- Node11 -->
<g id="node11" class="node"><title>Node11</title>
<g id="a_node11"><a xlink:href="../../df/d0a/main_8cpp.html" target="_top" xlink:title="main.cpp">
<polygon fill="white" stroke="black" points="988.5,-0.5 988.5,-21.5 1053.5,-21.5 1053.5,-0.5 988.5,-0.5"/>
<text text-anchor="middle" x="1021" y="-7.9" font-family="Helvetica,sans-Serif" font-size="12.00">main.cpp</text>
</a>
</g>
</g>
<!-- Node7&#45;&gt;Node11 -->
<g id="edge10" class="edge"><title>Node7&#45;&gt;Node11</title>
<path fill="none" stroke="midnightblue" d="M598.115,-57.9301C768.021,-37.8638 813.958,-49.2873 979,-22 981.958,-21.5109 985.017,-20.9306 988.073,-20.2993"/>
<polygon fill="midnightblue" stroke="midnightblue" points="597.59,-54.4679 588.079,-59.1348 598.424,-61.418 597.59,-54.4679"/>
</g>
<!-- Node12 -->
<g id="node12" class="node"><title>Node12</title>
<g id="a_node12"><a xlink:href="../../de/da2/_operator_console_8cpp.html" target="_top" xlink:title="OperatorConsole.cpp">
<polygon fill="white" stroke="black" points="112.5,-0.5 112.5,-21.5 241.5,-21.5 241.5,-0.5 112.5,-0.5"/>
<text text-anchor="middle" x="177" y="-7.9" font-family="Helvetica,sans-Serif" font-size="12.00">OperatorConsole.cpp</text>
</a>
</g>
</g>
<!-- Node7&#45;&gt;Node12 -->
<g id="edge11" class="edge"><title>Node7&#45;&gt;Node12</title>
<path fill="none" stroke="midnightblue" d="M461.54,-57.1395C396.41,-46.8073 299.38,-31.4145 237.15,-21.5423"/>
<polygon fill="midnightblue" stroke="midnightblue" points="461.284,-60.6426 471.709,-58.7527 462.381,-53.7291 461.284,-60.6426"/>
</g>
<!-- Node13 -->
<g id="node13" class="node"><title>Node13</title>
<g id="a_node13"><a xlink:href="../../d8/d29/_operator_console_dlg_8cpp.html" target="_top" xlink:title="OperatorConsoleDlg.cpp">
<polygon fill="white" stroke="black" points="259.5,-0.5 259.5,-21.5 406.5,-21.5 406.5,-0.5 259.5,-0.5"/>
<text text-anchor="middle" x="333" y="-7.9" font-family="Helvetica,sans-Serif" font-size="12.00">OperatorConsoleDlg.cpp</text>
</a>
</g>
</g>
<!-- Node7&#45;&gt;Node13 -->
<g id="edge12" class="edge"><title>Node7&#45;&gt;Node13</title>
<path fill="none" stroke="midnightblue" d="M486.337,-55.5882C450.143,-45.2996 399.451,-30.8895 366.424,-21.5011"/>
<polygon fill="midnightblue" stroke="midnightblue" points="485.559,-59.0055 496.134,-58.3733 487.473,-52.2723 485.559,-59.0055"/>
</g>
<!-- Node14 -->
<g id="node14" class="node"><title>Node14</title>
<g id="a_node14"><a xlink:href="../../d0/d57/_pass_fail_8cpp.html" target="_top" xlink:title="PassFail.cpp">
<polygon fill="white" stroke="black" points="425,-0.5 425,-21.5 511,-21.5 511,-0.5 425,-0.5"/>
<text text-anchor="middle" x="468" y="-7.9" font-family="Helvetica,sans-Serif" font-size="12.00">PassFail.cpp</text>
</a>
</g>
</g>
<!-- Node7&#45;&gt;Node14 -->
<g id="edge13" class="edge"><title>Node7&#45;&gt;Node14</title>
<path fill="none" stroke="midnightblue" d="M511.578,-51.3607C500.852,-41.6727 487.707,-29.7995 478.676,-21.6427"/>
<polygon fill="midnightblue" stroke="midnightblue" points="509.433,-54.14 519.2,-58.2455 514.125,-48.9453 509.433,-54.14"/>
</g>
<!-- Node15 -->
<g id="node15" class="node"><title>Node15</title>
<g id="a_node15"><a xlink:href="../../da/d46/_password_dialog_8cpp.html" target="_top" xlink:title="PasswordDialog.cpp">
<polygon fill="white" stroke="black" points="529,-0.5 529,-21.5 655,-21.5 655,-0.5 529,-0.5"/>
<text text-anchor="middle" x="592" y="-7.9" font-family="Helvetica,sans-Serif" font-size="12.00">PasswordDialog.cpp</text>
</a>
</g>
</g>
<!-- Node7&#45;&gt;Node15 -->
<g id="edge14" class="edge"><title>Node7&#45;&gt;Node15</title>
<path fill="none" stroke="midnightblue" d="M548.422,-51.3607C559.148,-41.6727 572.293,-29.7995 581.324,-21.6427"/>
<polygon fill="midnightblue" stroke="midnightblue" points="545.875,-48.9453 540.8,-58.2455 550.567,-54.14 545.875,-48.9453"/>
</g>
<!-- Node16 -->
<g id="node16" class="node"><title>Node16</title>
<g id="a_node16"><a xlink:href="../../d5/d27/_setup_8cpp.html" target="_top" xlink:title="Setup.cpp">
<polygon fill="white" stroke="black" points="673,-0.5 673,-21.5 743,-21.5 743,-0.5 673,-0.5"/>
<text text-anchor="middle" x="708" y="-7.9" font-family="Helvetica,sans-Serif" font-size="12.00">Setup.cpp</text>
</a>
</g>
</g>
<!-- Node7&#45;&gt;Node16 -->
<g id="edge15" class="edge"><title>Node7&#45;&gt;Node16</title>
<path fill="none" stroke="midnightblue" d="M570.293,-55.3235C602.937,-45.0536 648.213,-30.8093 677.8,-21.5011"/>
<polygon fill="midnightblue" stroke="midnightblue" points="569.088,-52.0335 560.599,-58.3733 571.189,-58.7108 569.088,-52.0335"/>
</g>
<!-- Node18&#45;&gt;Node7 -->
<g id="edge19" class="edge"><title>Node18&#45;&gt;Node7</title>
<path fill="none" stroke="midnightblue" d="M568.377,-109.075C558.915,-99.4402 547.403,-87.7196 539.47,-79.6427"/>
<polygon fill="midnightblue" stroke="midnightblue" points="565.916,-111.564 575.42,-116.246 570.91,-106.659 565.916,-111.564"/>
</g>
<!-- Node18&#45;&gt;Node19 -->
<g id="edge20" class="edge"><title>Node18&#45;&gt;Node19</title>
<path fill="none" stroke="midnightblue" d="M606.148,-110.21C619.32,-100.374 635.84,-88.0394 647.086,-79.6427"/>
<polygon fill="midnightblue" stroke="midnightblue" points="603.983,-107.458 598.064,-116.246 608.171,-113.067 603.983,-107.458"/>
</g>
<!-- Node22&#45;&gt;Node4 -->
<g id="edge26" class="edge"><title>Node22&#45;&gt;Node4</title>
<path fill="none" stroke="midnightblue" d="M486.309,-288.673C534.92,-279.966 602.814,-267.223 662,-254 665.002,-253.329 668.123,-252.594 671.236,-251.836"/>
<polygon fill="midnightblue" stroke="midnightblue" points="485.469,-285.267 476.239,-290.468 486.698,-292.158 485.469,-285.267"/>
</g>
<!-- Node22&#45;&gt;Node23 -->
<g id="edge27" class="edge"><title>Node22&#45;&gt;Node23</title>
<path fill="none" stroke="midnightblue" d="M381.386,-287.324C349.292,-277.054 304.779,-262.809 275.691,-253.501"/>
<polygon fill="midnightblue" stroke="midnightblue" points="380.325,-290.659 390.916,-290.373 382.459,-283.992 380.325,-290.659"/>
</g>
<!-- Node24 -->
<g id="node24" class="node"><title>Node24</title>
<g id="a_node24"><a xlink:href="../../d4/d80/_j_s_o_n_stream_8cpp.html" target="_top" xlink:title="JSON/JSONStream.cpp">
<polygon fill="white" stroke="black" points="349.5,-232.5 349.5,-253.5 492.5,-253.5 492.5,-232.5 349.5,-232.5"/>
<text text-anchor="middle" x="421" y="-239.9" font-family="Helvetica,sans-Serif" font-size="12.00">JSON/JSONStream.cpp</text>
</a>
</g>
</g>
<!-- Node22&#45;&gt;Node24 -->
<g id="edge28" class="edge"><title>Node22&#45;&gt;Node24</title>
<path fill="none" stroke="midnightblue" d="M421,-280.158C421,-271.155 421,-260.92 421,-253.643"/>
<polygon fill="midnightblue" stroke="midnightblue" points="417.5,-280.246 421,-290.246 424.5,-280.246 417.5,-280.246"/>
</g>
<!-- Node25 -->
<g id="node25" class="node"><title>Node25</title>
<g id="a_node25"><a xlink:href="../../d1/d6f/_j_s_o_n_worker_8cpp.html" target="_top" xlink:title="JSON/JSONWorker.cpp">
<polygon fill="white" stroke="black" points="510.5,-232.5 510.5,-253.5 653.5,-253.5 653.5,-232.5 510.5,-232.5"/>
<text text-anchor="middle" x="582" y="-239.9" font-family="Helvetica,sans-Serif" font-size="12.00">JSON/JSONWorker.cpp</text>
</a>
</g>
</g>
<!-- Node22&#45;&gt;Node25 -->
<g id="edge29" class="edge"><title>Node22&#45;&gt;Node25</title>
<path fill="none" stroke="midnightblue" d="M458.211,-287.057C487.676,-276.808 528.154,-262.729 554.684,-253.501"/>
<polygon fill="midnightblue" stroke="midnightblue" points="456.972,-283.782 448.677,-290.373 459.272,-290.394 456.972,-283.782"/>
</g>
<!-- Node22&#45;&gt;Node26 -->
<g id="edge30" class="edge"><title>Node22&#45;&gt;Node26</title>
<path fill="none" stroke="midnightblue" d="M496.319,-292.955C508.574,-291.901 521.136,-290.876 533,-290 806.944,-269.783 876.496,-279.481 1150,-254 1152.99,-253.721 1156.04,-253.417 1159.13,-253.093"/>
<polygon fill="midnightblue" stroke="midnightblue" points="495.777,-289.489 486.119,-293.845 496.385,-296.463 495.777,-289.489"/>
</g>
<!-- Node27&#45;&gt;Node4 -->
<g id="edge32" class="edge"><title>Node27&#45;&gt;Node4</title>
<path fill="none" stroke="midnightblue" d="M1019.42,-289.029C931.246,-276.56 791.709,-256.828 730.936,-248.233"/>
<polygon fill="midnightblue" stroke="midnightblue" points="1018.98,-292.502 1029.38,-290.437 1019.96,-285.571 1018.98,-292.502"/>
</g>
<!-- Node28 -->
<g id="node28" class="node"><title>Node28</title>
<g id="a_node28"><a xlink:href="../../d2/d18/_j_s_o_n_preparse_8cpp.html" target="_top" xlink:title="JSON/JSONPreparse.cpp">
<polygon fill="white" stroke="black" points="987,-232.5 987,-253.5 1141,-253.5 1141,-232.5 987,-232.5"/>
<text text-anchor="middle" x="1064" y="-239.9" font-family="Helvetica,sans-Serif" font-size="12.00">JSON/JSONPreparse.cpp</text>
</a>
</g>
</g>
<!-- Node27&#45;&gt;Node28 -->
<g id="edge33" class="edge"><title>Node27&#45;&gt;Node28</title>
<path fill="none" stroke="midnightblue" d="M1086.17,-281.63C1080.67,-272.289 1074.21,-261.32 1069.68,-253.643"/>
<polygon fill="midnightblue" stroke="midnightblue" points="1083.16,-283.407 1091.25,-290.246 1089.19,-279.853 1083.16,-283.407"/>
</g>
<!-- Node33&#45;&gt;Node2 -->
<g id="edge42" class="edge"><title>Node33&#45;&gt;Node2</title>
<path fill="none" stroke="midnightblue" d="M601.43,-458.21C614.778,-448.374 631.518,-436.039 642.914,-427.643"/>
<polygon fill="midnightblue" stroke="midnightblue" points="599.213,-455.496 593.238,-464.246 603.365,-461.131 599.213,-455.496"/>
</g>
<!-- Node33&#45;&gt;Node22 -->
<g id="edge43" class="edge"><title>Node33&#45;&gt;Node22</title>
<path fill="none" stroke="midnightblue" d="M563.865,-456.546C530.671,-420.638 455.689,-339.525 429.905,-311.633"/>
<polygon fill="midnightblue" stroke="midnightblue" points="561.638,-459.292 570.996,-464.26 566.778,-454.541 561.638,-459.292"/>
</g>
<!-- Node34 -->
<g id="node34" class="node"><title>Node34</title>
<g id="a_node34"><a xlink:href="../../d6/de4/_number_to_string_8h.html" target="_top" xlink:title="JSON/NumberToString.h">
<polygon fill="white" stroke="black" points="173,-348.5 173,-369.5 319,-369.5 319,-348.5 173,-348.5"/>
<text text-anchor="middle" x="246" y="-355.9" font-family="Helvetica,sans-Serif" font-size="12.00">JSON/NumberToString.h</text>
</a>
</g>
</g>
<!-- Node33&#45;&gt;Node34 -->
<g id="edge44" class="edge"><title>Node33&#45;&gt;Node34</title>
<path fill="none" stroke="midnightblue" d="M542.27,-461.122C474.581,-438.019 333.998,-390.035 274.058,-369.577"/>
<polygon fill="midnightblue" stroke="midnightblue" points="541.503,-464.559 552.098,-464.477 543.764,-457.934 541.503,-464.559"/>
</g>
<!-- Node34&#45;&gt;Node23 -->
<g id="edge45" class="edge"><title>Node34&#45;&gt;Node23</title>
<path fill="none" stroke="midnightblue" d="M246,-338.252C246,-313.584 246,-272.352 246,-253.695"/>
<polygon fill="midnightblue" stroke="midnightblue" points="242.5,-338.28 246,-348.28 249.5,-338.28 242.5,-338.28"/>
</g>
</g>
</svg>
