<?xml version="1.0" encoding="UTF-8" standalone="no"?>
<!DOCTYPE svg PUBLIC "-//W3C//DTD SVG 1.1//EN"
 "http://www.w3.org/Graphics/SVG/1.1/DTD/svg11.dtd">
<!-- Generated by graphviz version 2.34.0 (20130907.0111)
 -->
<!-- Title: Documentation/Operator&#45;Console/StdoutRedirect.cpp Pages: 1 -->
<svg width="437pt" height="160pt"
 viewBox="0.00 0.00 437.00 160.00" xmlns="http://www.w3.org/2000/svg" xmlns:xlink="http://www.w3.org/1999/xlink">
<g id="graph0" class="graph" transform="scale(1 1) rotate(0) translate(4 156)">
<title>Documentation/Operator&#45;Console/StdoutRedirect.cpp</title>
<polygon fill="white" stroke="white" points="-4,4 -4,-156 433,-156 433,4 -4,4"/>
<!-- Node1 -->
<g id="node1" class="node"><title>Node1</title>
<polygon fill="#bfbfbf" stroke="black" points="95.5,-117 95.5,-151 262.5,-151 262.5,-117 95.5,-117"/>
<text text-anchor="start" x="103.5" y="-137.4" font-family="Helvetica,sans-Serif" font-size="12.00">Documentation/Operator</text>
<text text-anchor="middle" x="179" y="-124.4" font-family="Helvetica,sans-Serif" font-size="12.00">&#45;Console/StdoutRedirect.cpp</text>
</g>
<!-- Node2 -->
<g id="node2" class="node"><title>Node2</title>
<polygon fill="white" stroke="#bfbfbf" points="-0.5,-58.5 -0.5,-79.5 70.5,-79.5 70.5,-58.5 -0.5,-58.5"/>
<text text-anchor="middle" x="35" y="-65.9" font-family="Helvetica,sans-Serif" font-size="12.00">windows.h</text>
</g>
<!-- Node1&#45;&gt;Node2 -->
<g id="edge1" class="edge"><title>Node1&#45;&gt;Node2</title>
<path fill="none" stroke="midnightblue" d="M142.29,-116.939C118.772,-106.65 88.5807,-93.4416 66.2192,-83.6584"/>
<polygon fill="midnightblue" stroke="midnightblue" points="67.4178,-80.3625 56.8534,-79.5609 64.6121,-86.7757 67.4178,-80.3625"/>
</g>
<!-- Node3 -->
<g id="node3" class="node"><title>Node3</title>
<polygon fill="white" stroke="#bfbfbf" points="212.5,-0.5 212.5,-21.5 263.5,-21.5 263.5,-0.5 212.5,-0.5"/>
<text text-anchor="middle" x="238" y="-7.9" font-family="Helvetica,sans-Serif" font-size="12.00">stdio.h</text>
</g>
<!-- Node1&#45;&gt;Node3 -->
<g id="edge2" class="edge"><title>Node1&#45;&gt;Node3</title>
<path fill="none" stroke="midnightblue" d="M150.69,-116.912C128.404,-102.113 103.355,-79.2979 118,-58 136.776,-30.6942 174.158,-19.5889 202.236,-15.0771"/>
<polygon fill="midnightblue" stroke="midnightblue" points="203.062,-18.4961 212.484,-13.6508 202.097,-11.5629 203.062,-18.4961"/>
</g>
<!-- Node4 -->
<g id="node4" class="node"><title>Node4</title>
<polygon fill="white" stroke="#bfbfbf" points="127,-58.5 127,-79.5 173,-79.5 173,-58.5 127,-58.5"/>
<text text-anchor="middle" x="150" y="-65.9" font-family="Helvetica,sans-Serif" font-size="12.00">fcntl.h</text>
</g>
<!-- Node1&#45;&gt;Node4 -->
<g id="edge3" class="edge"><title>Node1&#45;&gt;Node4</title>
<path fill="none" stroke="midnightblue" d="M171.532,-116.776C167.581,-108.194 162.712,-97.6149 158.603,-88.6899"/>
<polygon fill="midnightblue" stroke="midnightblue" points="161.739,-87.1309 154.378,-79.5106 155.38,-90.058 161.739,-87.1309"/>
</g>
<!-- Node5 -->
<g id="node5" class="node"><title>Node5</title>
<polygon fill="white" stroke="#bfbfbf" points="191.5,-58.5 191.5,-79.5 226.5,-79.5 226.5,-58.5 191.5,-58.5"/>
<text text-anchor="middle" x="209" y="-65.9" font-family="Helvetica,sans-Serif" font-size="12.00">io.h</text>
</g>
<!-- Node1&#45;&gt;Node5 -->
<g id="edge4" class="edge"><title>Node1&#45;&gt;Node5</title>
<path fill="none" stroke="midnightblue" d="M186.726,-116.776C190.813,-108.194 195.85,-97.6149 200.1,-88.6899"/>
<polygon fill="midnightblue" stroke="midnightblue" points="203.332,-90.044 204.471,-79.5106 197.012,-87.0345 203.332,-90.044"/>
</g>
<!-- Node6 -->
<g id="node6" class="node"><title>Node6</title>
<polygon fill="white" stroke="#bfbfbf" points="245,-58.5 245,-79.5 307,-79.5 307,-58.5 245,-58.5"/>
<text text-anchor="middle" x="276" y="-65.9" font-family="Helvetica,sans-Serif" font-size="12.00">iostream</text>
</g>
<!-- Node1&#45;&gt;Node6 -->
<g id="edge5" class="edge"><title>Node1&#45;&gt;Node6</title>
<path fill="none" stroke="midnightblue" d="M203.728,-116.939C218.789,-107.158 237.912,-94.7376 252.704,-85.1304"/>
<polygon fill="midnightblue" stroke="midnightblue" points="254.799,-87.943 261.279,-79.5609 250.986,-82.0725 254.799,-87.943"/>
</g>
<!-- Node7 -->
<g id="node7" class="node"><title>Node7</title>
<g id="a_node7"><a xlink:href="../../d4/df5/_documentation_2_operator-_console_2_stdout_redirect_8h.html" target="_top" xlink:title="StdoutRedirect.h">
<polygon fill="white" stroke="black" points="325,-58.5 325,-79.5 429,-79.5 429,-58.5 325,-58.5"/>
<text text-anchor="middle" x="377" y="-65.9" font-family="Helvetica,sans-Serif" font-size="12.00">StdoutRedirect.h</text>
</a>
</g>
</g>
<!-- Node1&#45;&gt;Node7 -->
<g id="edge6" class="edge"><title>Node1&#45;&gt;Node7</title>
<path fill="none" stroke="midnightblue" d="M229.476,-116.939C262.973,-106.281 306.317,-92.4901 337.34,-82.619"/>
<polygon fill="midnightblue" stroke="midnightblue" points="338.484,-85.9282 346.952,-79.5609 336.361,-79.2577 338.484,-85.9282"/>
</g>
<!-- Node7&#45;&gt;Node3 -->
<g id="edge7" class="edge"><title>Node7&#45;&gt;Node3</title>
<path fill="none" stroke="midnightblue" d="M353.105,-58.3733C330.492,-49.2629 296.346,-35.5062 271.113,-25.3404"/>
<polygon fill="midnightblue" stroke="midnightblue" points="272.167,-21.9917 261.583,-21.5011 269.551,-28.4845 272.167,-21.9917"/>
</g>
</g>
</svg>
