<?xml version="1.0" encoding="UTF-8" standalone="no"?>
<!DOCTYPE svg PUBLIC "-//W3C//DTD SVG 1.1//EN"
 "http://www.w3.org/Graphics/SVG/1.1/DTD/svg11.dtd">
<!-- Generated by graphviz version 2.34.0 (20130907.0111)
 -->
<!-- Title: internalJSONNode::setname Pages: 1 -->
<svg width="1510pt" height="102pt"
 viewBox="0.00 0.00 1510.00 102.00" xmlns="http://www.w3.org/2000/svg" xmlns:xlink="http://www.w3.org/1999/xlink">
<g id="graph0" class="graph" transform="scale(1 1) rotate(0) translate(4 98)">
<title>internalJSONNode::setname</title>
<polygon fill="white" stroke="white" points="-4,4 -4,-98 1506,-98 1506,4 -4,4"/>
<!-- Node1 -->
<g id="node1" class="node"><title>Node1</title>
<polygon fill="#bfbfbf" stroke="black" points="0.5,-52.5 0.5,-73.5 165.5,-73.5 165.5,-52.5 0.5,-52.5"/>
<text text-anchor="middle" x="83" y="-59.9" font-family="Helvetica,sans-Serif" font-size="12.00">internalJSONNode::setname</text>
</g>
<!-- Node2 -->
<g id="node2" class="node"><title>Node2</title>
<g id="a_node2"><a xlink:href="../../d6/dc7/class_j_s_o_n_node.html#aba2f5954c1f37c61829346aed5de0271" target="_top" xlink:title="JSONNode::set_name">
<polygon fill="white" stroke="black" points="202,-52.5 202,-73.5 336,-73.5 336,-52.5 202,-52.5"/>
<text text-anchor="middle" x="269" y="-59.9" font-family="Helvetica,sans-Serif" font-size="12.00">JSONNode::set_name</text>
</a>
</g>
</g>
<!-- Node1&#45;&gt;Node2 -->
<g id="edge1" class="edge"><title>Node1&#45;&gt;Node2</title>
<path fill="none" stroke="midnightblue" d="M175.767,-63C184.524,-63 193.283,-63 201.727,-63"/>
<polygon fill="midnightblue" stroke="midnightblue" points="175.509,-59.5001 165.509,-63 175.509,-66.5001 175.509,-59.5001"/>
</g>
<!-- Node3 -->
<g id="node3" class="node"><title>Node3</title>
<g id="a_node3"><a xlink:href="../../d3/d71/jsonhelpers_8h.html#a3a69c2987d346d326aeffb52183db0f4" target="_top" xlink:title="prepareTestSettings">
<polygon fill="white" stroke="black" points="372.5,-52.5 372.5,-73.5 495.5,-73.5 495.5,-52.5 372.5,-52.5"/>
<text text-anchor="middle" x="434" y="-59.9" font-family="Helvetica,sans-Serif" font-size="12.00">prepareTestSettings</text>
</a>
</g>
</g>
<!-- Node2&#45;&gt;Node3 -->
<g id="edge2" class="edge"><title>Node2&#45;&gt;Node3</title>
<path fill="none" stroke="midnightblue" d="M346.421,-63C355.094,-63 363.844,-63 372.276,-63"/>
<polygon fill="midnightblue" stroke="midnightblue" points="346.298,-59.5001 336.298,-63 346.298,-66.5001 346.298,-59.5001"/>
</g>
<!-- Node4 -->
<g id="node4" class="node"><title>Node4</title>
<g id="a_node4"><a xlink:href="../../da/d92/class_image_test.html#a7334d76c1cc6780f46626be5b9ff1adb" target="_top" xlink:title="Runs the test pointed to by m_imatestFunc. ">
<polygon fill="white" stroke="black" points="532,-52.5 532,-73.5 630,-73.5 630,-52.5 532,-52.5"/>
<text text-anchor="middle" x="581" y="-59.9" font-family="Helvetica,sans-Serif" font-size="12.00">ImageTest::Run</text>
</a>
</g>
</g>
<!-- Node3&#45;&gt;Node4 -->
<g id="edge3" class="edge"><title>Node3&#45;&gt;Node4</title>
<path fill="none" stroke="midnightblue" d="M505.657,-63C514.557,-63 523.494,-63 531.931,-63"/>
<polygon fill="midnightblue" stroke="midnightblue" points="505.653,-59.5001 495.653,-63 505.653,-66.5001 505.653,-59.5001"/>
</g>
<!-- Node5 -->
<g id="node5" class="node"><title>Node5</title>
<g id="a_node5"><a xlink:href="../../da/d92/class_image_test.html#accf2cfff6fe48fd19888727208dd6728" target="_top" xlink:title="ImageTest::Run">
<polygon fill="white" stroke="black" points="687,-72.5 687,-93.5 785,-93.5 785,-72.5 687,-72.5"/>
<text text-anchor="middle" x="736" y="-79.9" font-family="Helvetica,sans-Serif" font-size="12.00">ImageTest::Run</text>
</a>
</g>
</g>
<!-- Node4&#45;&gt;Node5 -->
<g id="edge4" class="edge"><title>Node4&#45;&gt;Node5</title>
<path fill="none" stroke="midnightblue" d="M640.338,-70.6259C655.716,-72.6361 672.134,-74.7822 686.905,-76.713"/>
<polygon fill="midnightblue" stroke="midnightblue" points="640.779,-67.1539 630.41,-69.3281 639.872,-74.0948 640.779,-67.1539"/>
</g>
<!-- Node6 -->
<g id="node6" class="node"><title>Node6</title>
<g id="a_node6"><a xlink:href="../../da/d92/class_image_test.html#a372478d09c06cd7ab3684840add6215e" target="_top" xlink:title="param must be a pointer to a ThreadControl object; param&#45;&gt;m_data must point to an ImageTest object ...">
<polygon fill="white" stroke="black" points="666.5,-32.5 666.5,-53.5 805.5,-53.5 805.5,-32.5 666.5,-32.5"/>
<text text-anchor="middle" x="736" y="-39.9" font-family="Helvetica,sans-Serif" font-size="12.00">ImageTest::ThreadProc</text>
</a>
</g>
</g>
<!-- Node4&#45;&gt;Node6 -->
<g id="edge5" class="edge"><title>Node4&#45;&gt;Node6</title>
<path fill="none" stroke="midnightblue" d="M640.571,-55.3437C649.052,-54.2351 657.845,-53.0857 666.499,-51.9543"/>
<polygon fill="midnightblue" stroke="midnightblue" points="639.872,-51.9052 630.41,-56.6719 640.779,-58.8461 639.872,-51.9052"/>
</g>
<!-- Node7 -->
<g id="node7" class="node"><title>Node7</title>
<g id="a_node7"><a xlink:href="../../d3/d9f/class_c_operator_console_app.html#a51ad7e6e8f370072c3e89d0d7e9e41a8" target="_top" xlink:title="COperatorConsoleApp\l::InitBlemishThread">
<polygon fill="white" stroke="black" points="842.5,-53 842.5,-87 979.5,-87 979.5,-53 842.5,-53"/>
<text text-anchor="start" x="850.5" y="-73.4" font-family="Helvetica,sans-Serif" font-size="12.00">COperatorConsoleApp</text>
<text text-anchor="middle" x="911" y="-60.4" font-family="Helvetica,sans-Serif" font-size="12.00">::InitBlemishThread</text>
</a>
</g>
</g>
<!-- Node6&#45;&gt;Node7 -->
<g id="edge6" class="edge"><title>Node6&#45;&gt;Node7</title>
<path fill="none" stroke="midnightblue" d="M814.382,-55.077C823.669,-56.5264 833.097,-57.9978 842.233,-59.4236"/>
<polygon fill="midnightblue" stroke="midnightblue" points="814.802,-51.6002 804.382,-53.5162 813.722,-58.5165 814.802,-51.6002"/>
</g>
<!-- Node13 -->
<g id="node13" class="node"><title>Node13</title>
<g id="a_node13"><a xlink:href="../../d3/d9f/class_c_operator_console_app.html#af7328d2c00abb1d4a09a65492c69b2b0" target="_top" xlink:title="COperatorConsoleApp\l::InitSFRplusThread">
<polygon fill="white" stroke="black" points="842.5,-0 842.5,-34 979.5,-34 979.5,-0 842.5,-0"/>
<text text-anchor="start" x="850.5" y="-20.4" font-family="Helvetica,sans-Serif" font-size="12.00">COperatorConsoleApp</text>
<text text-anchor="middle" x="911" y="-7.4" font-family="Helvetica,sans-Serif" font-size="12.00">::InitSFRplusThread</text>
</a>
</g>
</g>
<!-- Node6&#45;&gt;Node13 -->
<g id="edge12" class="edge"><title>Node6&#45;&gt;Node13</title>
<path fill="none" stroke="midnightblue" d="M815.852,-31.1494C824.751,-29.812 833.759,-28.4583 842.494,-27.1454"/>
<polygon fill="midnightblue" stroke="midnightblue" points="815.24,-27.702 805.871,-32.6494 816.28,-34.6243 815.24,-27.702"/>
</g>
<!-- Node8 -->
<g id="node8" class="node"><title>Node8</title>
<g id="a_node8"><a xlink:href="../../d3/d9f/class_c_operator_console_app.html#a7f0cd7b21cee2171dea973e4e6e7bb9d" target="_top" xlink:title="Init perform application&#45;specific initialization. ">
<polygon fill="white" stroke="black" points="1016.5,-53 1016.5,-87 1153.5,-87 1153.5,-53 1016.5,-53"/>
<text text-anchor="start" x="1024.5" y="-73.4" font-family="Helvetica,sans-Serif" font-size="12.00">COperatorConsoleApp</text>
<text text-anchor="middle" x="1085" y="-60.4" font-family="Helvetica,sans-Serif" font-size="12.00">::Init</text>
</a>
</g>
</g>
<!-- Node7&#45;&gt;Node8 -->
<g id="edge7" class="edge"><title>Node7&#45;&gt;Node8</title>
<path fill="none" stroke="midnightblue" d="M990.134,-70C998.846,-70 1007.67,-70 1016.23,-70"/>
<polygon fill="midnightblue" stroke="midnightblue" points="989.979,-66.5001 979.979,-70 989.979,-73.5001 989.979,-66.5001"/>
</g>
<!-- Node10 -->
<g id="node10" class="node"><title>Node10</title>
<g id="a_node10"><a xlink:href="../../d3/d9f/class_c_operator_console_app.html#aede77af6cae8053d49c752fd95910728" target="_top" xlink:title="This function allows for reallocation of the various image buffers when we change the image size...">
<polygon fill="white" stroke="black" points="1016.5,-0 1016.5,-34 1153.5,-34 1153.5,-0 1016.5,-0"/>
<text text-anchor="start" x="1024.5" y="-20.4" font-family="Helvetica,sans-Serif" font-size="12.00">COperatorConsoleApp</text>
<text text-anchor="middle" x="1085" y="-7.4" font-family="Helvetica,sans-Serif" font-size="12.00">::ReInit</text>
</a>
</g>
</g>
<!-- Node7&#45;&gt;Node10 -->
<g id="edge9" class="edge"><title>Node7&#45;&gt;Node10</title>
<path fill="none" stroke="midnightblue" d="M977.212,-49.9056C994.193,-44.6732 1012.32,-39.0863 1028.74,-34.0293"/>
<polygon fill="midnightblue" stroke="midnightblue" points="975.895,-46.6491 967.369,-52.9387 977.956,-53.3387 975.895,-46.6491"/>
</g>
<!-- Node9 -->
<g id="node9" class="node"><title>Node9</title>
<g id="a_node9"><a xlink:href="../../d3/d9f/class_c_operator_console_app.html#a94f4b258145e77e31644beb999bf099a" target="_top" xlink:title="COperatorConsoleApp initialization. ">
<polygon fill="white" stroke="black" points="1190.5,-53 1190.5,-87 1327.5,-87 1327.5,-53 1190.5,-53"/>
<text text-anchor="start" x="1198.5" y="-73.4" font-family="Helvetica,sans-Serif" font-size="12.00">COperatorConsoleApp</text>
<text text-anchor="middle" x="1259" y="-60.4" font-family="Helvetica,sans-Serif" font-size="12.00">::InitInstance</text>
</a>
</g>
</g>
<!-- Node8&#45;&gt;Node9 -->
<g id="edge8" class="edge"><title>Node8&#45;&gt;Node9</title>
<path fill="none" stroke="midnightblue" d="M1164.13,-70C1172.85,-70 1181.67,-70 1190.23,-70"/>
<polygon fill="midnightblue" stroke="midnightblue" points="1163.98,-66.5001 1153.98,-70 1163.98,-73.5001 1163.98,-66.5001"/>
</g>
<!-- Node11 -->
<g id="node11" class="node"><title>Node11</title>
<g id="a_node11"><a xlink:href="../../d3/d9f/class_c_operator_console_app.html#a620f8d2eed65d743bb177abcb90936e6" target="_top" xlink:title="Called after MSG_SETUP is received. ">
<polygon fill="white" stroke="black" points="1190.5,-0 1190.5,-34 1327.5,-34 1327.5,-0 1190.5,-0"/>
<text text-anchor="start" x="1198.5" y="-20.4" font-family="Helvetica,sans-Serif" font-size="12.00">COperatorConsoleApp</text>
<text text-anchor="middle" x="1259" y="-7.4" font-family="Helvetica,sans-Serif" font-size="12.00">::OnSetup</text>
</a>
</g>
</g>
<!-- Node10&#45;&gt;Node11 -->
<g id="edge10" class="edge"><title>Node10&#45;&gt;Node11</title>
<path fill="none" stroke="midnightblue" d="M1164.13,-17C1172.85,-17 1181.67,-17 1190.23,-17"/>
<polygon fill="midnightblue" stroke="midnightblue" points="1163.98,-13.5001 1153.98,-17 1163.98,-20.5001 1163.98,-13.5001"/>
</g>
<!-- Node12 -->
<g id="node12" class="node"><title>Node12</title>
<g id="a_node12"><a xlink:href="../../d3/d9f/class_c_operator_console_app.html#a7041d197c4e6549f2cb7219981b4eec1" target="_top" xlink:title="Intercepts messages of interest before Windows or MFC. ">
<polygon fill="white" stroke="black" points="1364,-0 1364,-34 1502,-34 1502,-0 1364,-0"/>
<text text-anchor="start" x="1372" y="-20.4" font-family="Helvetica,sans-Serif" font-size="12.00">COperatorConsoleApp</text>
<text text-anchor="middle" x="1433" y="-7.4" font-family="Helvetica,sans-Serif" font-size="12.00">::PreTranslateMessage</text>
</a>
</g>
</g>
<!-- Node11&#45;&gt;Node12 -->
<g id="edge11" class="edge"><title>Node11&#45;&gt;Node12</title>
<path fill="none" stroke="midnightblue" d="M1338.05,-17C1346.7,-17 1355.45,-17 1363.95,-17"/>
<polygon fill="midnightblue" stroke="midnightblue" points="1337.98,-13.5001 1327.98,-17 1337.98,-20.5001 1337.98,-13.5001"/>
</g>
<!-- Node13&#45;&gt;Node8 -->
<g id="edge13" class="edge"><title>Node13&#45;&gt;Node8</title>
<path fill="none" stroke="midnightblue" d="M977.212,-37.0944C994.193,-42.3268 1012.32,-47.9137 1028.74,-52.9707"/>
<polygon fill="midnightblue" stroke="midnightblue" points="977.956,-33.6613 967.369,-34.0613 975.895,-40.3509 977.956,-33.6613"/>
</g>
<!-- Node13&#45;&gt;Node10 -->
<g id="edge14" class="edge"><title>Node13&#45;&gt;Node10</title>
<path fill="none" stroke="midnightblue" d="M990.134,-17C998.846,-17 1007.67,-17 1016.23,-17"/>
<polygon fill="midnightblue" stroke="midnightblue" points="989.979,-13.5001 979.979,-17 989.979,-20.5001 989.979,-13.5001"/>
</g>
</g>
</svg>
