<?xml version="1.0" encoding="UTF-8" standalone="no"?>
<!DOCTYPE svg PUBLIC "-//W3C//DTD SVG 1.1//EN"
 "http://www.w3.org/Graphics/SVG/1.1/DTD/svg11.dtd">
<!-- Generated by graphviz version 2.34.0 (20130907.0111)
 -->
<!-- Title: internalJSONNode::size Pages: 1 -->
<svg width="1046pt" height="266pt"
 viewBox="0.00 0.00 1046.00 266.00" xmlns="http://www.w3.org/2000/svg" xmlns:xlink="http://www.w3.org/1999/xlink">
<g id="graph0" class="graph" transform="scale(1 1) rotate(0) translate(4 262)">
<title>internalJSONNode::size</title>
<polygon fill="white" stroke="white" points="-4,4 -4,-262 1042,-262 1042,4 -4,4"/>
<!-- Node1 -->
<g id="node1" class="node"><title>Node1</title>
<polygon fill="#bfbfbf" stroke="black" points="0.5,-79.5 0.5,-100.5 141.5,-100.5 141.5,-79.5 0.5,-79.5"/>
<text text-anchor="middle" x="71" y="-86.9" font-family="Helvetica,sans-Serif" font-size="12.00">internalJSONNode::size</text>
</g>
<!-- Node2 -->
<g id="node2" class="node"><title>Node2</title>
<g id="a_node2"><a xlink:href="../../d1/d0b/classinternal_j_s_o_n_node.html#a2dba04775883475a7624257a82d1cac9" target="_top" xlink:title="internalJSONNode::Fetch">
<polygon fill="white" stroke="black" points="202.5,-99.5 202.5,-120.5 351.5,-120.5 351.5,-99.5 202.5,-99.5"/>
<text text-anchor="middle" x="277" y="-106.9" font-family="Helvetica,sans-Serif" font-size="12.00">internalJSONNode::Fetch</text>
</a>
</g>
</g>
<!-- Node1&#45;&gt;Node2 -->
<g id="edge1" class="edge"><title>Node1&#45;&gt;Node2</title>
<path fill="none" stroke="midnightblue" d="M141.635,-96.8269C157.789,-98.4107 175.151,-100.113 191.854,-101.75"/>
<polygon fill="midnightblue" stroke="midnightblue" points="191.858,-105.267 202.152,-102.76 192.541,-98.3009 191.858,-105.267"/>
</g>
<!-- Node14 -->
<g id="node14" class="node"><title>Node14</title>
<g id="a_node14"><a xlink:href="../../d1/d0b/classinternal_j_s_o_n_node.html#a10b7b6dcde7ed6d08c9e1979496e9b92" target="_top" xlink:title="internalJSONNode::isNotContainer">
<polygon fill="white" stroke="black" points="178,-59.5 178,-80.5 376,-80.5 376,-59.5 178,-59.5"/>
<text text-anchor="middle" x="277" y="-66.9" font-family="Helvetica,sans-Serif" font-size="12.00">internalJSONNode::isNotContainer</text>
</a>
</g>
</g>
<!-- Node1&#45;&gt;Node14 -->
<g id="edge19" class="edge"><title>Node1&#45;&gt;Node14</title>
<path fill="none" stroke="midnightblue" d="M141.635,-83.1731C150.105,-82.3427 158.907,-81.4797 167.772,-80.6105"/>
<polygon fill="midnightblue" stroke="midnightblue" points="168.183,-84.0871 177.794,-79.628 167.5,-77.1205 168.183,-84.0871"/>
</g>
<!-- Node3 -->
<g id="node3" class="node"><title>Node3</title>
<g id="a_node3"><a xlink:href="../../d1/d0b/classinternal_j_s_o_n_node.html#a59d6db90025af648ee5f556e15242e00" target="_top" xlink:title="internalJSONNode::FetchArray">
<polygon fill="white" stroke="black" points="413.5,-197.5 413.5,-218.5 590.5,-218.5 590.5,-197.5 413.5,-197.5"/>
<text text-anchor="middle" x="502" y="-204.9" font-family="Helvetica,sans-Serif" font-size="12.00">internalJSONNode::FetchArray</text>
</a>
</g>
</g>
<!-- Node2&#45;&gt;Node3 -->
<g id="edge2" class="edge"><title>Node2&#45;&gt;Node3</title>
<path fill="none" stroke="midnightblue" d="M294.739,-120.731C319.526,-136.242 367.829,-165.032 412,-183 422.808,-187.397 434.656,-191.312 446.081,-194.666"/>
<polygon fill="midnightblue" stroke="midnightblue" points="445.4,-198.11 455.975,-197.466 447.306,-191.375 445.4,-198.11"/>
</g>
<!-- Node6 -->
<g id="node6" class="node"><title>Node6</title>
<g id="a_node6"><a xlink:href="../../d1/d0b/classinternal_j_s_o_n_node.html#a9a3f9f79800b6141150dde72a55c0060" target="_top" xlink:title="internalJSONNode::Nullify">
<polygon fill="white" stroke="black" points="649,-158.5 649,-179.5 799,-179.5 799,-158.5 649,-158.5"/>
<text text-anchor="middle" x="724" y="-165.9" font-family="Helvetica,sans-Serif" font-size="12.00">internalJSONNode::Nullify</text>
</a>
</g>
</g>
<!-- Node2&#45;&gt;Node6 -->
<g id="edge17" class="edge"><title>Node2&#45;&gt;Node6</title>
<path fill="none" stroke="midnightblue" d="M306.295,-120.514C333.106,-129.979 374.708,-143.385 412,-150 487.933,-163.469 575.742,-167.829 638.652,-169.048"/>
<polygon fill="midnightblue" stroke="midnightblue" points="638.862,-172.552 648.92,-169.223 638.982,-165.553 638.862,-172.552"/>
</g>
<!-- Node8 -->
<g id="node8" class="node"><title>Node8</title>
<g id="a_node8"><a xlink:href="../../d1/d0b/classinternal_j_s_o_n_node.html#a69dde8286881b07590238abf1d91a245" target="_top" xlink:title="internalJSONNode::FetchNode">
<polygon fill="white" stroke="black" points="413,-79.5 413,-100.5 591,-100.5 591,-79.5 413,-79.5"/>
<text text-anchor="middle" x="502" y="-86.9" font-family="Helvetica,sans-Serif" font-size="12.00">internalJSONNode::FetchNode</text>
</a>
</g>
</g>
<!-- Node2&#45;&gt;Node8 -->
<g id="edge8" class="edge"><title>Node2&#45;&gt;Node8</title>
<path fill="none" stroke="midnightblue" d="M351.637,-103.396C367.968,-101.931 385.53,-100.356 402.671,-98.8188"/>
<polygon fill="midnightblue" stroke="midnightblue" points="403.055,-102.298 412.702,-97.9191 402.429,-95.3265 403.055,-102.298"/>
</g>
<!-- Node10 -->
<g id="node10" class="node"><title>Node10</title>
<g id="a_node10"><a xlink:href="../../d1/d0b/classinternal_j_s_o_n_node.html#aec946311873984a1b810ecb7a4e3d480" target="_top" xlink:title="internalJSONNode::FetchNumber">
<polygon fill="white" stroke="black" points="628.5,-0.5 628.5,-21.5 819.5,-21.5 819.5,-0.5 628.5,-0.5"/>
<text text-anchor="middle" x="724" y="-7.9" font-family="Helvetica,sans-Serif" font-size="12.00">internalJSONNode::FetchNumber</text>
</a>
</g>
</g>
<!-- Node2&#45;&gt;Node10 -->
<g id="edge12" class="edge"><title>Node2&#45;&gt;Node10</title>
<path fill="none" stroke="midnightblue" d="M343.882,-99.4461C354.771,-96.8826 365.821,-93.7643 376,-90 393.167,-83.6515 394.789,-76.2296 412,-70 434.221,-61.9568 566.985,-38.0861 651.71,-23.2883"/>
<polygon fill="midnightblue" stroke="midnightblue" points="652.544,-26.6959 661.794,-21.5304 651.341,-19.7999 652.544,-26.6959"/>
</g>
<!-- Node11 -->
<g id="node11" class="node"><title>Node11</title>
<g id="a_node11"><a xlink:href="../../d1/d0b/classinternal_j_s_o_n_node.html#a40ace389d49c93b870ce3a0aaab70640" target="_top" xlink:title="internalJSONNode::FetchString">
<polygon fill="white" stroke="black" points="412,-119.5 412,-140.5 592,-140.5 592,-119.5 412,-119.5"/>
<text text-anchor="middle" x="502" y="-126.9" font-family="Helvetica,sans-Serif" font-size="12.00">internalJSONNode::FetchString</text>
</a>
</g>
</g>
<!-- Node2&#45;&gt;Node11 -->
<g id="edge14" class="edge"><title>Node2&#45;&gt;Node11</title>
<path fill="none" stroke="midnightblue" d="M351.637,-116.604C367.606,-118.036 384.751,-119.574 401.528,-121.079"/>
<polygon fill="midnightblue" stroke="midnightblue" points="401.64,-124.603 411.913,-122.01 402.266,-117.631 401.64,-124.603"/>
</g>
<!-- Node13 -->
<g id="node13" class="node"><title>Node13</title>
<g id="a_node13"><a xlink:href="../../d1/d0b/classinternal_j_s_o_n_node.html#a924514c9b1dbec1f779d8294371c0033" target="_top" xlink:title="internalJSONNode::type">
<polygon fill="white" stroke="black" points="431,-1.5 431,-22.5 573,-22.5 573,-1.5 431,-1.5"/>
<text text-anchor="middle" x="502" y="-8.9" font-family="Helvetica,sans-Serif" font-size="12.00">internalJSONNode::type</text>
</a>
</g>
</g>
<!-- Node2&#45;&gt;Node13 -->
<g id="edge18" class="edge"><title>Node2&#45;&gt;Node13</title>
<path fill="none" stroke="midnightblue" d="M351.703,-101.511C360.307,-98.658 368.63,-94.9104 376,-90 399.698,-74.2111 388.89,-53.6377 412,-37 417.91,-32.7451 424.521,-29.213 431.399,-26.2814"/>
<polygon fill="midnightblue" stroke="midnightblue" points="432.814,-29.4874 440.902,-22.6442 430.312,-22.9498 432.814,-29.4874"/>
</g>
<!-- Node4 -->
<g id="node4" class="node"><title>Node4</title>
<g id="a_node4"><a xlink:href="../../d1/da6/_documentation_2_operator-_console_2_j_s_o_n_2_j_s_o_n_memory_8h.html#a8f88e025f043e8c423c6ddc3c887600b" target="_top" xlink:title="clearString">
<polygon fill="white" stroke="black" points="910.5,-98.5 910.5,-119.5 983.5,-119.5 983.5,-98.5 910.5,-98.5"/>
<text text-anchor="middle" x="947" y="-105.9" font-family="Helvetica,sans-Serif" font-size="12.00">clearString</text>
</a>
</g>
</g>
<!-- Node3&#45;&gt;Node4 -->
<g id="edge3" class="edge"><title>Node3&#45;&gt;Node4</title>
<path fill="none" stroke="midnightblue" d="M573.569,-218.528C640.457,-225.201 742.017,-226.566 820,-189 841.548,-178.62 836.647,-163.054 856,-149 870.551,-138.433 888.336,-129.797 904.242,-123.289"/>
<polygon fill="midnightblue" stroke="midnightblue" points="905.828,-126.427 913.858,-119.514 903.27,-119.911 905.828,-126.427"/>
</g>
<!-- Node5 -->
<g id="node5" class="node"><title>Node5</title>
<g id="a_node5"><a xlink:href="../../d7/d6f/class_j_s_o_n_worker.html#a396aabc632272b5534353d4632bf849b" target="_top" xlink:title="JSONWorker::DoArray">
<polygon fill="white" stroke="black" points="656,-236.5 656,-257.5 792,-257.5 792,-236.5 656,-236.5"/>
<text text-anchor="middle" x="724" y="-243.9" font-family="Helvetica,sans-Serif" font-size="12.00">JSONWorker::DoArray</text>
</a>
</g>
</g>
<!-- Node3&#45;&gt;Node5 -->
<g id="edge4" class="edge"><title>Node3&#45;&gt;Node5</title>
<path fill="none" stroke="midnightblue" d="M562.245,-218.503C590.365,-223.487 624.152,-229.477 653.478,-234.676"/>
<polygon fill="midnightblue" stroke="midnightblue" points="653.191,-238.179 663.649,-236.479 654.413,-231.287 653.191,-238.179"/>
</g>
<!-- Node3&#45;&gt;Node6 -->
<g id="edge5" class="edge"><title>Node3&#45;&gt;Node6</title>
<path fill="none" stroke="midnightblue" d="M562.245,-197.497C590.365,-192.513 624.152,-186.523 653.478,-181.324"/>
<polygon fill="midnightblue" stroke="midnightblue" points="654.413,-184.713 663.649,-179.521 653.191,-177.821 654.413,-184.713"/>
</g>
<!-- Node6&#45;&gt;Node4 -->
<g id="edge6" class="edge"><title>Node6&#45;&gt;Node4</title>
<path fill="none" stroke="midnightblue" d="M779.727,-158.454C792.971,-155.633 807.042,-152.412 820,-149 849.065,-141.347 881.366,-131.057 905.986,-122.83"/>
<polygon fill="midnightblue" stroke="midnightblue" points="907.337,-126.068 915.696,-119.559 905.102,-119.434 907.337,-126.068"/>
</g>
<!-- Node7 -->
<g id="node7" class="node"><title>Node7</title>
<g id="a_node7"><a xlink:href="../../d1/d0b/classinternal_j_s_o_n_node.html#a5f943a59b0e0e3a4e88f34dfeee6a922" target="_top" xlink:title="internalJSONNode::SetFetched">
<polygon fill="white" stroke="black" points="856.5,-158.5 856.5,-179.5 1037.5,-179.5 1037.5,-158.5 856.5,-158.5"/>
<text text-anchor="middle" x="947" y="-165.9" font-family="Helvetica,sans-Serif" font-size="12.00">internalJSONNode::SetFetched</text>
</a>
</g>
</g>
<!-- Node6&#45;&gt;Node7 -->
<g id="edge7" class="edge"><title>Node6&#45;&gt;Node7</title>
<path fill="none" stroke="midnightblue" d="M799.205,-169C814.223,-169 830.247,-169 845.985,-169"/>
<polygon fill="midnightblue" stroke="midnightblue" points="846.273,-172.5 856.273,-169 846.273,-165.5 846.273,-172.5"/>
</g>
<!-- Node8&#45;&gt;Node4 -->
<g id="edge9" class="edge"><title>Node8&#45;&gt;Node4</title>
<path fill="none" stroke="midnightblue" d="M591.052,-93.7765C684.126,-97.7684 827.318,-103.91 900.108,-107.032"/>
<polygon fill="midnightblue" stroke="midnightblue" points="900.181,-110.538 910.322,-107.47 900.481,-103.544 900.181,-110.538"/>
</g>
<!-- Node8&#45;&gt;Node6 -->
<g id="edge11" class="edge"><title>Node8&#45;&gt;Node6</title>
<path fill="none" stroke="midnightblue" d="M570.746,-100.632C578.171,-103.125 585.415,-106.202 592,-110 612.433,-121.787 607.487,-137.352 628,-149 631.898,-151.213 636.011,-153.183 640.252,-154.935"/>
<polygon fill="midnightblue" stroke="midnightblue" points="639.117,-158.246 649.71,-158.434 641.546,-151.681 639.117,-158.246"/>
</g>
<!-- Node9 -->
<g id="node9" class="node"><title>Node9</title>
<g id="a_node9"><a xlink:href="../../d7/d6f/class_j_s_o_n_worker.html#a6e6a8187072b0686575d532c6e8ea794" target="_top" xlink:title="JSONWorker::DoNode">
<polygon fill="white" stroke="black" points="655.5,-40.5 655.5,-61.5 792.5,-61.5 792.5,-40.5 655.5,-40.5"/>
<text text-anchor="middle" x="724" y="-47.9" font-family="Helvetica,sans-Serif" font-size="12.00">JSONWorker::DoNode</text>
</a>
</g>
</g>
<!-- Node8&#45;&gt;Node9 -->
<g id="edge10" class="edge"><title>Node8&#45;&gt;Node9</title>
<path fill="none" stroke="midnightblue" d="M562.245,-79.4974C590.365,-74.5126 624.152,-68.5231 653.478,-63.3243"/>
<polygon fill="midnightblue" stroke="midnightblue" points="654.413,-66.7132 663.649,-61.5213 653.191,-59.8207 654.413,-66.7132"/>
</g>
<!-- Node10&#45;&gt;Node4 -->
<g id="edge13" class="edge"><title>Node10&#45;&gt;Node4</title>
<path fill="none" stroke="midnightblue" d="M790.028,-21.5445C800.236,-24.0931 810.534,-27.2092 820,-31 859.352,-46.7587 900.243,-74.5431 924.391,-92.3455"/>
<polygon fill="midnightblue" stroke="midnightblue" points="922.393,-95.2218 932.496,-98.4118 926.588,-89.6177 922.393,-95.2218"/>
</g>
<!-- Node11&#45;&gt;Node6 -->
<g id="edge16" class="edge"><title>Node11&#45;&gt;Node6</title>
<path fill="none" stroke="midnightblue" d="M562.245,-140.503C590.365,-145.487 624.152,-151.477 653.478,-156.676"/>
<polygon fill="midnightblue" stroke="midnightblue" points="653.191,-160.179 663.649,-158.479 654.413,-153.287 653.191,-160.179"/>
</g>
<!-- Node12 -->
<g id="node12" class="node"><title>Node12</title>
<g id="a_node12"><a xlink:href="../../d7/d6f/class_j_s_o_n_worker.html#ab473775a73ea206263df728a421944da" target="_top" xlink:title="JSONWorker::FixString">
<polygon fill="white" stroke="black" points="654.5,-118.5 654.5,-139.5 793.5,-139.5 793.5,-118.5 654.5,-118.5"/>
<text text-anchor="middle" x="724" y="-125.9" font-family="Helvetica,sans-Serif" font-size="12.00">JSONWorker::FixString</text>
</a>
</g>
</g>
<!-- Node11&#45;&gt;Node12 -->
<g id="edge15" class="edge"><title>Node11&#45;&gt;Node12</title>
<path fill="none" stroke="midnightblue" d="M592.165,-129.595C609.328,-129.517 627.193,-129.435 644.006,-129.359"/>
<polygon fill="midnightblue" stroke="midnightblue" points="644.339,-132.858 654.323,-129.312 644.307,-125.858 644.339,-132.858"/>
</g>
</g>
</svg>
