<?xml version="1.0" encoding="UTF-8" standalone="no"?>
<!DOCTYPE svg PUBLIC "-//W3C//DTD SVG 1.1//EN"
 "http://www.w3.org/Graphics/SVG/1.1/DTD/svg11.dtd">
<!-- Generated by graphviz version 2.34.0 (20130907.0111)
 -->
<!-- Title: internalJSONNode::makeUnique Pages: 1 -->
<svg width="1152pt" height="334pt"
 viewBox="0.00 0.00 1152.00 334.44" xmlns="http://www.w3.org/2000/svg" xmlns:xlink="http://www.w3.org/1999/xlink">
<g id="graph0" class="graph" transform="scale(1 1) rotate(0) translate(4 330.442)">
<title>internalJSONNode::makeUnique</title>
<polygon fill="white" stroke="white" points="-4,4 -4,-330.442 1148,-330.442 1148,4 -4,4"/>
<!-- Node1 -->
<g id="node1" class="node"><title>Node1</title>
<polygon fill="#bfbfbf" stroke="black" points="0,-160.5 0,-181.5 186,-181.5 186,-160.5 0,-160.5"/>
<text text-anchor="middle" x="93" y="-167.9" font-family="Helvetica,sans-Serif" font-size="12.00">internalJSONNode::makeUnique</text>
</g>
<!-- Node2 -->
<g id="node2" class="node"><title>Node2</title>
<g id="a_node2"><a xlink:href="../../d1/d0b/classinternal_j_s_o_n_node.html#aa7598e92ebf6d0cc190ad23036c84508" target="_top" xlink:title="internalJSONNode::incRef">
<polygon fill="white" stroke="black" points="238.5,-180.5 238.5,-201.5 391.5,-201.5 391.5,-180.5 238.5,-180.5"/>
<text text-anchor="middle" x="315" y="-187.9" font-family="Helvetica,sans-Serif" font-size="12.00">internalJSONNode::incRef</text>
</a>
</g>
</g>
<!-- Node1&#45;&gt;Node2 -->
<g id="edge1" class="edge"><title>Node1&#45;&gt;Node2</title>
<path fill="none" stroke="midnightblue" d="M196.293,-180.299C210.455,-181.587 224.787,-182.89 238.346,-184.122"/>
<polygon fill="midnightblue" stroke="midnightblue" points="196.301,-176.786 186.025,-179.366 195.667,-183.757 196.301,-176.786"/>
</g>
<!-- Node3 -->
<g id="node3" class="node"><title>Node3</title>
<g id="a_node3"><a xlink:href="../../d6/dc7/class_j_s_o_n_node.html#a40fb037e147141fa07f90fe419e3a7a2" target="_top" xlink:title="JSONNode::makeUniqueInternal">
<polygon fill="white" stroke="black" points="222.5,-140.5 222.5,-161.5 407.5,-161.5 407.5,-140.5 222.5,-140.5"/>
<text text-anchor="middle" x="315" y="-147.9" font-family="Helvetica,sans-Serif" font-size="12.00">JSONNode::makeUniqueInternal</text>
</a>
</g>
</g>
<!-- Node1&#45;&gt;Node3 -->
<g id="edge2" class="edge"><title>Node1&#45;&gt;Node3</title>
<path fill="none" stroke="midnightblue" d="M196.215,-161.708C204.932,-160.915 213.715,-160.117 222.343,-159.332"/>
<polygon fill="midnightblue" stroke="midnightblue" points="195.667,-158.243 186.025,-162.634 196.301,-165.214 195.667,-158.243"/>
</g>
<!-- Node4 -->
<g id="node4" class="node"><title>Node4</title>
<g id="a_node4"><a xlink:href="../../d6/dc7/class_j_s_o_n_node.html#ae61d84dcd82f1261ef3bb219229e468f" target="_top" xlink:title="JSONNode::duplicate">
<polygon fill="white" stroke="black" points="451,-280.5 451,-301.5 581,-301.5 581,-280.5 451,-280.5"/>
<text text-anchor="middle" x="516" y="-287.9" font-family="Helvetica,sans-Serif" font-size="12.00">JSONNode::duplicate</text>
</a>
</g>
</g>
<!-- Node3&#45;&gt;Node4 -->
<g id="edge3" class="edge"><title>Node3&#45;&gt;Node4</title>
<path fill="none" stroke="midnightblue" d="M402.503,-166.722C404.415,-168.045 406.252,-169.468 408,-171 443.524,-202.135 409.434,-238.805 444,-271 448.123,-274.84 452.926,-277.952 458.054,-280.471"/>
<polygon fill="midnightblue" stroke="midnightblue" points="404.088,-163.595 393.692,-161.55 400.544,-169.631 404.088,-163.595"/>
</g>
<!-- Node12 -->
<g id="node12" class="node"><title>Node12</title>
<g id="a_node12"><a xlink:href="../../d6/dc7/class_j_s_o_n_node.html#a25976f906aad4da22a065353f1ef5f63" target="_top" xlink:title="JSONNode::clear_name">
<polygon fill="white" stroke="black" points="444,-240.5 444,-261.5 588,-261.5 588,-240.5 444,-240.5"/>
<text text-anchor="middle" x="516" y="-247.9" font-family="Helvetica,sans-Serif" font-size="12.00">JSONNode::clear_name</text>
</a>
</g>
</g>
<!-- Node3&#45;&gt;Node12 -->
<g id="edge12" class="edge"><title>Node3&#45;&gt;Node12</title>
<path fill="none" stroke="midnightblue" d="M399.903,-165.943C402.716,-167.473 405.427,-169.154 408,-171 433.27,-189.125 419.29,-212.118 444,-231 448.986,-234.81 454.664,-237.894 460.588,-240.391"/>
<polygon fill="midnightblue" stroke="midnightblue" points="401.153,-162.662 390.617,-161.549 398.159,-168.99 401.153,-162.662"/>
</g>
<!-- Node13 -->
<g id="node13" class="node"><title>Node13</title>
<g id="a_node13"><a xlink:href="../../d6/dc7/class_j_s_o_n_node.html#a334ff9a1fd0166c1f0cc11a4e3829a20" target="_top" xlink:title="JSONNode::clear">
<polygon fill="white" stroke="black" points="462,-200.5 462,-221.5 570,-221.5 570,-200.5 462,-200.5"/>
<text text-anchor="middle" x="516" y="-207.9" font-family="Helvetica,sans-Serif" font-size="12.00">JSONNode::clear</text>
</a>
</g>
</g>
<!-- Node3&#45;&gt;Node13 -->
<g id="edge14" class="edge"><title>Node3&#45;&gt;Node13</title>
<path fill="none" stroke="midnightblue" d="M386.598,-164.117C393.914,-166.136 401.165,-168.423 408,-171 425.126,-177.458 427.077,-184.027 444,-191 452.643,-194.561 462.131,-197.718 471.278,-200.411"/>
<polygon fill="midnightblue" stroke="midnightblue" points="387.176,-160.651 376.617,-161.527 385.417,-167.426 387.176,-160.651"/>
</g>
<!-- Node14 -->
<g id="node14" class="node"><title>Node14</title>
<g id="a_node14"><a xlink:href="../../d6/dc7/class_j_s_o_n_node.html#aabc5878c658fe47378a9f2294d5b1663" target="_top" xlink:title="JSONNode::nullify">
<polygon fill="white" stroke="black" points="461,-160.5 461,-181.5 571,-181.5 571,-160.5 461,-160.5"/>
<text text-anchor="middle" x="516" y="-167.9" font-family="Helvetica,sans-Serif" font-size="12.00">JSONNode::nullify</text>
</a>
</g>
</g>
<!-- Node3&#45;&gt;Node14 -->
<g id="edge15" class="edge"><title>Node3&#45;&gt;Node14</title>
<path fill="none" stroke="midnightblue" d="M417.871,-161.238C432.661,-162.725 447.382,-164.204 460.724,-165.545"/>
<polygon fill="midnightblue" stroke="midnightblue" points="417.937,-157.727 407.637,-160.21 417.237,-164.692 417.937,-157.727"/>
</g>
<!-- Node15 -->
<g id="node15" class="node"><title>Node15</title>
<g id="a_node15"><a xlink:href="../../d6/dc7/class_j_s_o_n_node.html#aeb5f2c8d831bcf4604cd669ba0e78f42" target="_top" xlink:title="JSONNode::begin">
<polygon fill="white" stroke="black" points="460,-120.5 460,-141.5 572,-141.5 572,-120.5 460,-120.5"/>
<text text-anchor="middle" x="516" y="-127.9" font-family="Helvetica,sans-Serif" font-size="12.00">JSONNode::begin</text>
</a>
</g>
</g>
<!-- Node3&#45;&gt;Node15 -->
<g id="edge16" class="edge"><title>Node3&#45;&gt;Node15</title>
<path fill="none" stroke="midnightblue" d="M417.699,-140.779C432.24,-139.318 446.719,-137.862 459.892,-136.538"/>
<polygon fill="midnightblue" stroke="midnightblue" points="417.237,-137.308 407.637,-141.79 417.937,-144.273 417.237,-137.308"/>
</g>
<!-- Node16 -->
<g id="node16" class="node"><title>Node16</title>
<g id="a_node16"><a xlink:href="../../d6/dc7/class_j_s_o_n_node.html#a2bc88d73d62cb8da471fc1500e67a400" target="_top" xlink:title="JSONNode::end">
<polygon fill="white" stroke="black" points="465,-80.5 465,-101.5 567,-101.5 567,-80.5 465,-80.5"/>
<text text-anchor="middle" x="516" y="-87.9" font-family="Helvetica,sans-Serif" font-size="12.00">JSONNode::end</text>
</a>
</g>
</g>
<!-- Node3&#45;&gt;Node16 -->
<g id="edge17" class="edge"><title>Node3&#45;&gt;Node16</title>
<path fill="none" stroke="midnightblue" d="M358.644,-137.342C383.492,-129.467 415.459,-119.477 444,-111 454.557,-107.864 466.034,-104.578 476.621,-101.597"/>
<polygon fill="midnightblue" stroke="midnightblue" points="357.277,-134.104 348.806,-140.467 359.397,-140.775 357.277,-134.104"/>
</g>
<!-- Node17 -->
<g id="node17" class="node"><title>Node17</title>
<g id="a_node17"><a xlink:href="../../d6/dc7/class_j_s_o_n_node.html#ac5d94b35ff3338939a0d8ab16cd0afd9" target="_top" xlink:title="JSONNode::rbegin">
<polygon fill="white" stroke="black" points="458,-40.5 458,-61.5 574,-61.5 574,-40.5 458,-40.5"/>
<text text-anchor="middle" x="516" y="-47.9" font-family="Helvetica,sans-Serif" font-size="12.00">JSONNode::rbegin</text>
</a>
</g>
</g>
<!-- Node3&#45;&gt;Node17 -->
<g id="edge18" class="edge"><title>Node3&#45;&gt;Node17</title>
<path fill="none" stroke="midnightblue" d="M338.139,-134.417C362.834,-116.592 404.515,-88.4715 444,-71 452.198,-67.3727 461.221,-64.2337 470.005,-61.5872"/>
<polygon fill="midnightblue" stroke="midnightblue" points="335.853,-131.753 329.845,-140.479 339.984,-137.404 335.853,-131.753"/>
</g>
<!-- Node18 -->
<g id="node18" class="node"><title>Node18</title>
<g id="a_node18"><a xlink:href="../../d6/dc7/class_j_s_o_n_node.html#a5d629aec2605dd6a7314f3ce5361080d" target="_top" xlink:title="JSONNode::rend">
<polygon fill="white" stroke="black" points="463,-0.5 463,-21.5 569,-21.5 569,-0.5 463,-0.5"/>
<text text-anchor="middle" x="516" y="-7.9" font-family="Helvetica,sans-Serif" font-size="12.00">JSONNode::rend</text>
</a>
</g>
</g>
<!-- Node3&#45;&gt;Node18 -->
<g id="edge19" class="edge"><title>Node3&#45;&gt;Node18</title>
<path fill="none" stroke="midnightblue" d="M330.965,-132.142C352.959,-105.678 396.573,-57.7698 444,-31 450.691,-27.2231 458.146,-24.118 465.639,-21.5773"/>
<polygon fill="midnightblue" stroke="midnightblue" points="327.972,-130.273 324.36,-140.233 333.395,-134.7 327.972,-130.273"/>
</g>
<!-- Node5 -->
<g id="node5" class="node"><title>Node5</title>
<g id="a_node5"><a xlink:href="../../d6/dc7/class_j_s_o_n_node.html#ad89a85d2b307990217b391df647fd6f5" target="_top" xlink:title="JSONNode::as_node">
<polygon fill="white" stroke="black" points="624,-280.5 624,-301.5 752,-301.5 752,-280.5 624,-280.5"/>
<text text-anchor="middle" x="688" y="-287.9" font-family="Helvetica,sans-Serif" font-size="12.00">JSONNode::as_node</text>
</a>
</g>
</g>
<!-- Node4&#45;&gt;Node5 -->
<g id="edge4" class="edge"><title>Node4&#45;&gt;Node5</title>
<path fill="none" stroke="midnightblue" d="M591.496,-291C602.26,-291 613.251,-291 623.766,-291"/>
<polygon fill="midnightblue" stroke="midnightblue" points="591.27,-287.5 581.27,-291 591.27,-294.5 591.27,-287.5"/>
</g>
<!-- Node6 -->
<g id="node6" class="node"><title>Node6</title>
<g id="a_node6"><a xlink:href="../../d6/dc7/class_j_s_o_n_node.html#ac30e692c490e07e072ebfc7158904706" target="_top" xlink:title="JSONNode::as_array">
<polygon fill="white" stroke="black" points="624,-240.5 624,-261.5 752,-261.5 752,-240.5 624,-240.5"/>
<text text-anchor="middle" x="688" y="-247.9" font-family="Helvetica,sans-Serif" font-size="12.00">JSONNode::as_array</text>
</a>
</g>
</g>
<!-- Node4&#45;&gt;Node6 -->
<g id="edge5" class="edge"><title>Node4&#45;&gt;Node6</title>
<path fill="none" stroke="midnightblue" d="M571.564,-278.161C594.42,-272.784 620.658,-266.61 642.338,-261.509"/>
<polygon fill="midnightblue" stroke="midnightblue" points="570.598,-274.793 561.665,-280.49 572.201,-281.607 570.598,-274.793"/>
</g>
<!-- Node7 -->
<g id="node7" class="node"><title>Node7</title>
<g id="a_node7"><a xlink:href="../../d8/de1/class_blemish_test.html#ad9071bb6332b7fc91a6e7c7ef109cba2" target="_top" xlink:title="Parses the JSON output of an sfrPlus test to determine the pass/fail status of the various metrics...">
<polygon fill="white" stroke="black" points="986.5,-259.5 986.5,-280.5 1143.5,-280.5 1143.5,-259.5 986.5,-259.5"/>
<text text-anchor="middle" x="1065" y="-266.9" font-family="Helvetica,sans-Serif" font-size="12.00">BlemishTest::ParseResults</text>
</a>
</g>
</g>
<!-- Node6&#45;&gt;Node7 -->
<g id="edge6" class="edge"><title>Node6&#45;&gt;Node7</title>
<path fill="none" stroke="midnightblue" d="M742.074,-265.508C745.531,-267.159 748.875,-268.985 752,-271 772.101,-283.961 766.151,-301.269 788,-311 876.726,-350.515 995.771,-302.984 1043.22,-280.517"/>
<polygon fill="midnightblue" stroke="midnightblue" points="743.305,-262.228 732.733,-261.532 740.564,-268.669 743.305,-262.228"/>
</g>
<!-- Node8 -->
<g id="node8" class="node"><title>Node8</title>
<g id="a_node8"><a xlink:href="../../da/d92/class_image_test.html#a3115f3892d84abcde05ab105ae4aaa8f" target="_top" xlink:title="ImageTest::GetString">
<polygon fill="white" stroke="black" points="805.5,-280.5 805.5,-301.5 932.5,-301.5 932.5,-280.5 805.5,-280.5"/>
<text text-anchor="middle" x="869" y="-287.9" font-family="Helvetica,sans-Serif" font-size="12.00">ImageTest::GetString</text>
</a>
</g>
</g>
<!-- Node6&#45;&gt;Node8 -->
<g id="edge7" class="edge"><title>Node6&#45;&gt;Node8</title>
<path fill="none" stroke="midnightblue" d="M745.806,-263.694C770.023,-269.106 797.941,-275.344 820.974,-280.491"/>
<polygon fill="midnightblue" stroke="midnightblue" points="746.553,-260.275 736.03,-261.51 745.026,-267.106 746.553,-260.275"/>
</g>
<!-- Node9 -->
<g id="node9" class="node"><title>Node9</title>
<g id="a_node9"><a xlink:href="../../da/d92/class_image_test.html#ae8c27027ba0cc33150ec423c6b7ec6ae" target="_top" xlink:title="ImageTest::ParseFailures">
<polygon fill="white" stroke="black" points="793.5,-240.5 793.5,-261.5 944.5,-261.5 944.5,-240.5 793.5,-240.5"/>
<text text-anchor="middle" x="869" y="-247.9" font-family="Helvetica,sans-Serif" font-size="12.00">ImageTest::ParseFailures</text>
</a>
</g>
</g>
<!-- Node6&#45;&gt;Node9 -->
<g id="edge8" class="edge"><title>Node6&#45;&gt;Node9</title>
<path fill="none" stroke="midnightblue" d="M762.213,-251C772.435,-251 782.951,-251 793.202,-251"/>
<polygon fill="midnightblue" stroke="midnightblue" points="762.109,-247.5 752.109,-251 762.109,-254.5 762.109,-247.5"/>
</g>
<!-- Node10 -->
<g id="node10" class="node"><title>Node10</title>
<g id="a_node10"><a xlink:href="../../d3/d71/jsonhelpers_8h.html#a0c2d0c196f0e8025cfc01c009dd24fad" target="_top" xlink:title="getIntFromArray">
<polygon fill="white" stroke="black" points="819,-200.5 819,-221.5 919,-221.5 919,-200.5 819,-200.5"/>
<text text-anchor="middle" x="869" y="-207.9" font-family="Helvetica,sans-Serif" font-size="12.00">getIntFromArray</text>
</a>
</g>
</g>
<!-- Node6&#45;&gt;Node10 -->
<g id="edge9" class="edge"><title>Node6&#45;&gt;Node10</title>
<path fill="none" stroke="midnightblue" d="M745.806,-238.306C770.023,-232.894 797.941,-226.656 820.974,-221.509"/>
<polygon fill="midnightblue" stroke="midnightblue" points="745.026,-234.894 736.03,-240.49 746.553,-241.725 745.026,-234.894"/>
</g>
<!-- Node11 -->
<g id="node11" class="node"><title>Node11</title>
<g id="a_node11"><a xlink:href="../../dd/d12/class_s_f_rplus_test.html#a900f5edde4636d8b6f8f802ff866a15d" target="_top" xlink:title="Determines the pass/fail result for each quadrant. ">
<polygon fill="white" stroke="black" points="788.5,-160.5 788.5,-181.5 949.5,-181.5 949.5,-160.5 788.5,-160.5"/>
<text text-anchor="middle" x="869" y="-167.9" font-family="Helvetica,sans-Serif" font-size="12.00">SFRplusTest::ParseOverlay</text>
</a>
</g>
</g>
<!-- Node6&#45;&gt;Node11 -->
<g id="edge11" class="edge"><title>Node6&#45;&gt;Node11</title>
<path fill="none" stroke="midnightblue" d="M711.543,-234.63C730.958,-221.21 760.17,-202.6 788,-191 796.854,-187.31 806.553,-184.181 816.048,-181.573"/>
<polygon fill="midnightblue" stroke="midnightblue" points="709.52,-231.773 703.351,-240.387 713.545,-237.5 709.52,-231.773"/>
</g>
<!-- Node10&#45;&gt;Node7 -->
<g id="edge10" class="edge"><title>Node10&#45;&gt;Node7</title>
<path fill="none" stroke="midnightblue" d="M924.847,-224.058C933.302,-226.259 941.908,-228.609 950,-231 979.288,-239.654 1012.25,-251.122 1035.17,-259.38"/>
<polygon fill="midnightblue" stroke="midnightblue" points="925.587,-220.634 915.031,-221.548 923.853,-227.416 925.587,-220.634"/>
</g>
<!-- Node12&#45;&gt;Node6 -->
<g id="edge13" class="edge"><title>Node12&#45;&gt;Node6</title>
<path fill="none" stroke="midnightblue" d="M598.157,-251C606.753,-251 615.402,-251 623.751,-251"/>
<polygon fill="midnightblue" stroke="midnightblue" points="598.11,-247.5 588.11,-251 598.11,-254.5 598.11,-247.5"/>
</g>
</g>
</svg>
