<?xml version="1.0" encoding="UTF-8" standalone="no"?>
<!DOCTYPE svg PUBLIC "-//W3C//DTD SVG 1.1//EN"
 "http://www.w3.org/Graphics/SVG/1.1/DTD/svg11.dtd">
<!-- Generated by graphviz version 2.34.0 (20130907.0111)
 -->
<!-- Title: internalJSONNode::newInternal Pages: 1 -->
<svg width="1366pt" height="334pt"
 viewBox="0.00 0.00 1366.00 334.44" xmlns="http://www.w3.org/2000/svg" xmlns:xlink="http://www.w3.org/1999/xlink">
<g id="graph0" class="graph" transform="scale(1 1) rotate(0) translate(4 330.442)">
<title>internalJSONNode::newInternal</title>
<polygon fill="white" stroke="white" points="-4,4 -4,-330.442 1362,-330.442 1362,4 -4,4"/>
<!-- Node1 -->
<g id="node1" class="node"><title>Node1</title>
<polygon fill="#bfbfbf" stroke="black" points="0,-160.5 0,-181.5 178,-181.5 178,-160.5 0,-160.5"/>
<text text-anchor="middle" x="89" y="-167.9" font-family="Helvetica,sans-Serif" font-size="12.00">internalJSONNode::newInternal</text>
</g>
<!-- Node2 -->
<g id="node2" class="node"><title>Node2</title>
<g id="a_node2"><a xlink:href="../../d1/d0b/classinternal_j_s_o_n_node.html#a72b82897da17766d09a3e4ea4a743cf1" target="_top" xlink:title="internalJSONNode::makeUnique">
<polygon fill="white" stroke="black" points="214,-160.5 214,-181.5 400,-181.5 400,-160.5 214,-160.5"/>
<text text-anchor="middle" x="307" y="-167.9" font-family="Helvetica,sans-Serif" font-size="12.00">internalJSONNode::makeUnique</text>
</a>
</g>
</g>
<!-- Node1&#45;&gt;Node2 -->
<g id="edge1" class="edge"><title>Node1&#45;&gt;Node2</title>
<path fill="none" stroke="midnightblue" d="M188.172,-171C196.739,-171 205.389,-171 213.904,-171"/>
<polygon fill="midnightblue" stroke="midnightblue" points="188.167,-167.5 178.167,-171 188.167,-174.5 188.167,-167.5"/>
</g>
<!-- Node3 -->
<g id="node3" class="node"><title>Node3</title>
<g id="a_node3"><a xlink:href="../../d1/d0b/classinternal_j_s_o_n_node.html#aa7598e92ebf6d0cc190ad23036c84508" target="_top" xlink:title="internalJSONNode::incRef">
<polygon fill="white" stroke="black" points="452.5,-180.5 452.5,-201.5 605.5,-201.5 605.5,-180.5 452.5,-180.5"/>
<text text-anchor="middle" x="529" y="-187.9" font-family="Helvetica,sans-Serif" font-size="12.00">internalJSONNode::incRef</text>
</a>
</g>
</g>
<!-- Node2&#45;&gt;Node3 -->
<g id="edge2" class="edge"><title>Node2&#45;&gt;Node3</title>
<path fill="none" stroke="midnightblue" d="M410.293,-180.299C424.455,-181.587 438.787,-182.89 452.346,-184.122"/>
<polygon fill="midnightblue" stroke="midnightblue" points="410.301,-176.786 400.025,-179.366 409.667,-183.757 410.301,-176.786"/>
</g>
<!-- Node4 -->
<g id="node4" class="node"><title>Node4</title>
<g id="a_node4"><a xlink:href="../../d6/dc7/class_j_s_o_n_node.html#a40fb037e147141fa07f90fe419e3a7a2" target="_top" xlink:title="JSONNode::makeUniqueInternal">
<polygon fill="white" stroke="black" points="436.5,-140.5 436.5,-161.5 621.5,-161.5 621.5,-140.5 436.5,-140.5"/>
<text text-anchor="middle" x="529" y="-147.9" font-family="Helvetica,sans-Serif" font-size="12.00">JSONNode::makeUniqueInternal</text>
</a>
</g>
</g>
<!-- Node2&#45;&gt;Node4 -->
<g id="edge3" class="edge"><title>Node2&#45;&gt;Node4</title>
<path fill="none" stroke="midnightblue" d="M410.215,-161.708C418.932,-160.915 427.715,-160.117 436.343,-159.332"/>
<polygon fill="midnightblue" stroke="midnightblue" points="409.667,-158.243 400.025,-162.634 410.301,-165.214 409.667,-158.243"/>
</g>
<!-- Node5 -->
<g id="node5" class="node"><title>Node5</title>
<g id="a_node5"><a xlink:href="../../d6/dc7/class_j_s_o_n_node.html#ae61d84dcd82f1261ef3bb219229e468f" target="_top" xlink:title="JSONNode::duplicate">
<polygon fill="white" stroke="black" points="665,-280.5 665,-301.5 795,-301.5 795,-280.5 665,-280.5"/>
<text text-anchor="middle" x="730" y="-287.9" font-family="Helvetica,sans-Serif" font-size="12.00">JSONNode::duplicate</text>
</a>
</g>
</g>
<!-- Node4&#45;&gt;Node5 -->
<g id="edge4" class="edge"><title>Node4&#45;&gt;Node5</title>
<path fill="none" stroke="midnightblue" d="M616.503,-166.722C618.415,-168.045 620.252,-169.468 622,-171 657.524,-202.135 623.434,-238.805 658,-271 662.123,-274.84 666.926,-277.952 672.054,-280.471"/>
<polygon fill="midnightblue" stroke="midnightblue" points="618.088,-163.595 607.692,-161.55 614.544,-169.631 618.088,-163.595"/>
</g>
<!-- Node13 -->
<g id="node13" class="node"><title>Node13</title>
<g id="a_node13"><a xlink:href="../../d6/dc7/class_j_s_o_n_node.html#a25976f906aad4da22a065353f1ef5f63" target="_top" xlink:title="JSONNode::clear_name">
<polygon fill="white" stroke="black" points="658,-240.5 658,-261.5 802,-261.5 802,-240.5 658,-240.5"/>
<text text-anchor="middle" x="730" y="-247.9" font-family="Helvetica,sans-Serif" font-size="12.00">JSONNode::clear_name</text>
</a>
</g>
</g>
<!-- Node4&#45;&gt;Node13 -->
<g id="edge13" class="edge"><title>Node4&#45;&gt;Node13</title>
<path fill="none" stroke="midnightblue" d="M613.903,-165.943C616.716,-167.473 619.427,-169.154 622,-171 647.27,-189.125 633.29,-212.118 658,-231 662.986,-234.81 668.664,-237.894 674.588,-240.391"/>
<polygon fill="midnightblue" stroke="midnightblue" points="615.153,-162.662 604.617,-161.549 612.159,-168.99 615.153,-162.662"/>
</g>
<!-- Node14 -->
<g id="node14" class="node"><title>Node14</title>
<g id="a_node14"><a xlink:href="../../d6/dc7/class_j_s_o_n_node.html#a334ff9a1fd0166c1f0cc11a4e3829a20" target="_top" xlink:title="JSONNode::clear">
<polygon fill="white" stroke="black" points="676,-200.5 676,-221.5 784,-221.5 784,-200.5 676,-200.5"/>
<text text-anchor="middle" x="730" y="-207.9" font-family="Helvetica,sans-Serif" font-size="12.00">JSONNode::clear</text>
</a>
</g>
</g>
<!-- Node4&#45;&gt;Node14 -->
<g id="edge15" class="edge"><title>Node4&#45;&gt;Node14</title>
<path fill="none" stroke="midnightblue" d="M600.598,-164.117C607.914,-166.136 615.165,-168.423 622,-171 639.126,-177.458 641.077,-184.027 658,-191 666.643,-194.561 676.131,-197.718 685.278,-200.411"/>
<polygon fill="midnightblue" stroke="midnightblue" points="601.176,-160.651 590.617,-161.527 599.417,-167.426 601.176,-160.651"/>
</g>
<!-- Node15 -->
<g id="node15" class="node"><title>Node15</title>
<g id="a_node15"><a xlink:href="../../d6/dc7/class_j_s_o_n_node.html#aabc5878c658fe47378a9f2294d5b1663" target="_top" xlink:title="JSONNode::nullify">
<polygon fill="white" stroke="black" points="675,-160.5 675,-181.5 785,-181.5 785,-160.5 675,-160.5"/>
<text text-anchor="middle" x="730" y="-167.9" font-family="Helvetica,sans-Serif" font-size="12.00">JSONNode::nullify</text>
</a>
</g>
</g>
<!-- Node4&#45;&gt;Node15 -->
<g id="edge16" class="edge"><title>Node4&#45;&gt;Node15</title>
<path fill="none" stroke="midnightblue" d="M631.871,-161.238C646.661,-162.725 661.382,-164.204 674.724,-165.545"/>
<polygon fill="midnightblue" stroke="midnightblue" points="631.937,-157.727 621.637,-160.21 631.237,-164.692 631.937,-157.727"/>
</g>
<!-- Node16 -->
<g id="node16" class="node"><title>Node16</title>
<g id="a_node16"><a xlink:href="../../d6/dc7/class_j_s_o_n_node.html#aeb5f2c8d831bcf4604cd669ba0e78f42" target="_top" xlink:title="JSONNode::begin">
<polygon fill="white" stroke="black" points="674,-120.5 674,-141.5 786,-141.5 786,-120.5 674,-120.5"/>
<text text-anchor="middle" x="730" y="-127.9" font-family="Helvetica,sans-Serif" font-size="12.00">JSONNode::begin</text>
</a>
</g>
</g>
<!-- Node4&#45;&gt;Node16 -->
<g id="edge17" class="edge"><title>Node4&#45;&gt;Node16</title>
<path fill="none" stroke="midnightblue" d="M631.699,-140.779C646.24,-139.318 660.719,-137.862 673.892,-136.538"/>
<polygon fill="midnightblue" stroke="midnightblue" points="631.237,-137.308 621.637,-141.79 631.937,-144.273 631.237,-137.308"/>
</g>
<!-- Node17 -->
<g id="node17" class="node"><title>Node17</title>
<g id="a_node17"><a xlink:href="../../d6/dc7/class_j_s_o_n_node.html#a2bc88d73d62cb8da471fc1500e67a400" target="_top" xlink:title="JSONNode::end">
<polygon fill="white" stroke="black" points="679,-80.5 679,-101.5 781,-101.5 781,-80.5 679,-80.5"/>
<text text-anchor="middle" x="730" y="-87.9" font-family="Helvetica,sans-Serif" font-size="12.00">JSONNode::end</text>
</a>
</g>
</g>
<!-- Node4&#45;&gt;Node17 -->
<g id="edge18" class="edge"><title>Node4&#45;&gt;Node17</title>
<path fill="none" stroke="midnightblue" d="M572.644,-137.342C597.492,-129.467 629.459,-119.477 658,-111 668.557,-107.864 680.034,-104.578 690.621,-101.597"/>
<polygon fill="midnightblue" stroke="midnightblue" points="571.277,-134.104 562.806,-140.467 573.397,-140.775 571.277,-134.104"/>
</g>
<!-- Node18 -->
<g id="node18" class="node"><title>Node18</title>
<g id="a_node18"><a xlink:href="../../d6/dc7/class_j_s_o_n_node.html#ac5d94b35ff3338939a0d8ab16cd0afd9" target="_top" xlink:title="JSONNode::rbegin">
<polygon fill="white" stroke="black" points="672,-40.5 672,-61.5 788,-61.5 788,-40.5 672,-40.5"/>
<text text-anchor="middle" x="730" y="-47.9" font-family="Helvetica,sans-Serif" font-size="12.00">JSONNode::rbegin</text>
</a>
</g>
</g>
<!-- Node4&#45;&gt;Node18 -->
<g id="edge19" class="edge"><title>Node4&#45;&gt;Node18</title>
<path fill="none" stroke="midnightblue" d="M552.139,-134.417C576.834,-116.592 618.515,-88.4715 658,-71 666.198,-67.3727 675.221,-64.2337 684.005,-61.5872"/>
<polygon fill="midnightblue" stroke="midnightblue" points="549.853,-131.753 543.845,-140.479 553.984,-137.404 549.853,-131.753"/>
</g>
<!-- Node19 -->
<g id="node19" class="node"><title>Node19</title>
<g id="a_node19"><a xlink:href="../../d6/dc7/class_j_s_o_n_node.html#a5d629aec2605dd6a7314f3ce5361080d" target="_top" xlink:title="JSONNode::rend">
<polygon fill="white" stroke="black" points="677,-0.5 677,-21.5 783,-21.5 783,-0.5 677,-0.5"/>
<text text-anchor="middle" x="730" y="-7.9" font-family="Helvetica,sans-Serif" font-size="12.00">JSONNode::rend</text>
</a>
</g>
</g>
<!-- Node4&#45;&gt;Node19 -->
<g id="edge20" class="edge"><title>Node4&#45;&gt;Node19</title>
<path fill="none" stroke="midnightblue" d="M544.965,-132.142C566.959,-105.678 610.573,-57.7698 658,-31 664.691,-27.2231 672.146,-24.118 679.639,-21.5773"/>
<polygon fill="midnightblue" stroke="midnightblue" points="541.972,-130.273 538.36,-140.233 547.395,-134.7 541.972,-130.273"/>
</g>
<!-- Node6 -->
<g id="node6" class="node"><title>Node6</title>
<g id="a_node6"><a xlink:href="../../d6/dc7/class_j_s_o_n_node.html#ad89a85d2b307990217b391df647fd6f5" target="_top" xlink:title="JSONNode::as_node">
<polygon fill="white" stroke="black" points="838,-280.5 838,-301.5 966,-301.5 966,-280.5 838,-280.5"/>
<text text-anchor="middle" x="902" y="-287.9" font-family="Helvetica,sans-Serif" font-size="12.00">JSONNode::as_node</text>
</a>
</g>
</g>
<!-- Node5&#45;&gt;Node6 -->
<g id="edge5" class="edge"><title>Node5&#45;&gt;Node6</title>
<path fill="none" stroke="midnightblue" d="M805.496,-291C816.26,-291 827.251,-291 837.766,-291"/>
<polygon fill="midnightblue" stroke="midnightblue" points="805.27,-287.5 795.27,-291 805.27,-294.5 805.27,-287.5"/>
</g>
<!-- Node7 -->
<g id="node7" class="node"><title>Node7</title>
<g id="a_node7"><a xlink:href="../../d6/dc7/class_j_s_o_n_node.html#ac30e692c490e07e072ebfc7158904706" target="_top" xlink:title="JSONNode::as_array">
<polygon fill="white" stroke="black" points="838,-240.5 838,-261.5 966,-261.5 966,-240.5 838,-240.5"/>
<text text-anchor="middle" x="902" y="-247.9" font-family="Helvetica,sans-Serif" font-size="12.00">JSONNode::as_array</text>
</a>
</g>
</g>
<!-- Node5&#45;&gt;Node7 -->
<g id="edge6" class="edge"><title>Node5&#45;&gt;Node7</title>
<path fill="none" stroke="midnightblue" d="M785.564,-278.161C808.42,-272.784 834.658,-266.61 856.338,-261.509"/>
<polygon fill="midnightblue" stroke="midnightblue" points="784.598,-274.793 775.665,-280.49 786.201,-281.607 784.598,-274.793"/>
</g>
<!-- Node8 -->
<g id="node8" class="node"><title>Node8</title>
<g id="a_node8"><a xlink:href="../../d8/de1/class_blemish_test.html#ad9071bb6332b7fc91a6e7c7ef109cba2" target="_top" xlink:title="Parses the JSON output of an sfrPlus test to determine the pass/fail status of the various metrics...">
<polygon fill="white" stroke="black" points="1200.5,-259.5 1200.5,-280.5 1357.5,-280.5 1357.5,-259.5 1200.5,-259.5"/>
<text text-anchor="middle" x="1279" y="-266.9" font-family="Helvetica,sans-Serif" font-size="12.00">BlemishTest::ParseResults</text>
</a>
</g>
</g>
<!-- Node7&#45;&gt;Node8 -->
<g id="edge7" class="edge"><title>Node7&#45;&gt;Node8</title>
<path fill="none" stroke="midnightblue" d="M956.074,-265.508C959.531,-267.159 962.875,-268.985 966,-271 986.101,-283.961 980.151,-301.269 1002,-311 1090.73,-350.515 1209.77,-302.984 1257.22,-280.517"/>
<polygon fill="midnightblue" stroke="midnightblue" points="957.305,-262.228 946.733,-261.532 954.564,-268.669 957.305,-262.228"/>
</g>
<!-- Node9 -->
<g id="node9" class="node"><title>Node9</title>
<g id="a_node9"><a xlink:href="../../da/d92/class_image_test.html#a3115f3892d84abcde05ab105ae4aaa8f" target="_top" xlink:title="ImageTest::GetString">
<polygon fill="white" stroke="black" points="1019.5,-280.5 1019.5,-301.5 1146.5,-301.5 1146.5,-280.5 1019.5,-280.5"/>
<text text-anchor="middle" x="1083" y="-287.9" font-family="Helvetica,sans-Serif" font-size="12.00">ImageTest::GetString</text>
</a>
</g>
</g>
<!-- Node7&#45;&gt;Node9 -->
<g id="edge8" class="edge"><title>Node7&#45;&gt;Node9</title>
<path fill="none" stroke="midnightblue" d="M959.806,-263.694C984.023,-269.106 1011.94,-275.344 1034.97,-280.491"/>
<polygon fill="midnightblue" stroke="midnightblue" points="960.553,-260.275 950.03,-261.51 959.026,-267.106 960.553,-260.275"/>
</g>
<!-- Node10 -->
<g id="node10" class="node"><title>Node10</title>
<g id="a_node10"><a xlink:href="../../da/d92/class_image_test.html#ae8c27027ba0cc33150ec423c6b7ec6ae" target="_top" xlink:title="ImageTest::ParseFailures">
<polygon fill="white" stroke="black" points="1007.5,-240.5 1007.5,-261.5 1158.5,-261.5 1158.5,-240.5 1007.5,-240.5"/>
<text text-anchor="middle" x="1083" y="-247.9" font-family="Helvetica,sans-Serif" font-size="12.00">ImageTest::ParseFailures</text>
</a>
</g>
</g>
<!-- Node7&#45;&gt;Node10 -->
<g id="edge9" class="edge"><title>Node7&#45;&gt;Node10</title>
<path fill="none" stroke="midnightblue" d="M976.213,-251C986.435,-251 996.951,-251 1007.2,-251"/>
<polygon fill="midnightblue" stroke="midnightblue" points="976.109,-247.5 966.109,-251 976.109,-254.5 976.109,-247.5"/>
</g>
<!-- Node11 -->
<g id="node11" class="node"><title>Node11</title>
<g id="a_node11"><a xlink:href="../../d3/d71/jsonhelpers_8h.html#a0c2d0c196f0e8025cfc01c009dd24fad" target="_top" xlink:title="getIntFromArray">
<polygon fill="white" stroke="black" points="1033,-200.5 1033,-221.5 1133,-221.5 1133,-200.5 1033,-200.5"/>
<text text-anchor="middle" x="1083" y="-207.9" font-family="Helvetica,sans-Serif" font-size="12.00">getIntFromArray</text>
</a>
</g>
</g>
<!-- Node7&#45;&gt;Node11 -->
<g id="edge10" class="edge"><title>Node7&#45;&gt;Node11</title>
<path fill="none" stroke="midnightblue" d="M959.806,-238.306C984.023,-232.894 1011.94,-226.656 1034.97,-221.509"/>
<polygon fill="midnightblue" stroke="midnightblue" points="959.026,-234.894 950.03,-240.49 960.553,-241.725 959.026,-234.894"/>
</g>
<!-- Node12 -->
<g id="node12" class="node"><title>Node12</title>
<g id="a_node12"><a xlink:href="../../dd/d12/class_s_f_rplus_test.html#a900f5edde4636d8b6f8f802ff866a15d" target="_top" xlink:title="Determines the pass/fail result for each quadrant. ">
<polygon fill="white" stroke="black" points="1002.5,-160.5 1002.5,-181.5 1163.5,-181.5 1163.5,-160.5 1002.5,-160.5"/>
<text text-anchor="middle" x="1083" y="-167.9" font-family="Helvetica,sans-Serif" font-size="12.00">SFRplusTest::ParseOverlay</text>
</a>
</g>
</g>
<!-- Node7&#45;&gt;Node12 -->
<g id="edge12" class="edge"><title>Node7&#45;&gt;Node12</title>
<path fill="none" stroke="midnightblue" d="M925.543,-234.63C944.958,-221.21 974.17,-202.6 1002,-191 1010.85,-187.31 1020.55,-184.181 1030.05,-181.573"/>
<polygon fill="midnightblue" stroke="midnightblue" points="923.52,-231.773 917.351,-240.387 927.545,-237.5 923.52,-231.773"/>
</g>
<!-- Node11&#45;&gt;Node8 -->
<g id="edge11" class="edge"><title>Node11&#45;&gt;Node8</title>
<path fill="none" stroke="midnightblue" d="M1138.85,-224.058C1147.3,-226.259 1155.91,-228.609 1164,-231 1193.29,-239.654 1226.25,-251.122 1249.17,-259.38"/>
<polygon fill="midnightblue" stroke="midnightblue" points="1139.59,-220.634 1129.03,-221.548 1137.85,-227.416 1139.59,-220.634"/>
</g>
<!-- Node13&#45;&gt;Node7 -->
<g id="edge14" class="edge"><title>Node13&#45;&gt;Node7</title>
<path fill="none" stroke="midnightblue" d="M812.157,-251C820.753,-251 829.402,-251 837.751,-251"/>
<polygon fill="midnightblue" stroke="midnightblue" points="812.11,-247.5 802.11,-251 812.11,-254.5 812.11,-247.5"/>
</g>
</g>
</svg>
