<?xml version="1.0" encoding="UTF-8" standalone="no"?>
<!DOCTYPE svg PUBLIC "-//W3C//DTD SVG 1.1//EN"
 "http://www.w3.org/Graphics/SVG/1.1/DTD/svg11.dtd">
<!-- Generated by graphviz version 2.34.0 (20130907.0111)
 -->
<!-- Title: internalJSONNode::push_back Pages: 1 -->
<svg width="1528pt" height="102pt"
 viewBox="0.00 0.00 1528.00 102.00" xmlns="http://www.w3.org/2000/svg" xmlns:xlink="http://www.w3.org/1999/xlink">
<g id="graph0" class="graph" transform="scale(1 1) rotate(0) translate(4 98)">
<title>internalJSONNode::push_back</title>
<polygon fill="white" stroke="white" points="-4,4 -4,-98 1524,-98 1524,4 -4,4"/>
<!-- Node1 -->
<g id="node1" class="node"><title>Node1</title>
<polygon fill="#bfbfbf" stroke="black" points="0.5,-52.5 0.5,-73.5 177.5,-73.5 177.5,-52.5 0.5,-52.5"/>
<text text-anchor="middle" x="89" y="-59.9" font-family="Helvetica,sans-Serif" font-size="12.00">internalJSONNode::push_back</text>
</g>
<!-- Node2 -->
<g id="node2" class="node"><title>Node2</title>
<g id="a_node2"><a xlink:href="../../d6/dc7/class_j_s_o_n_node.html#a5200c65f827a99897b00681aa3b35671" target="_top" xlink:title="JSONNode::push_back">
<polygon fill="white" stroke="black" points="214,-52.5 214,-73.5 354,-73.5 354,-52.5 214,-52.5"/>
<text text-anchor="middle" x="284" y="-59.9" font-family="Helvetica,sans-Serif" font-size="12.00">JSONNode::push_back</text>
</a>
</g>
</g>
<!-- Node1&#45;&gt;Node2 -->
<g id="edge1" class="edge"><title>Node1&#45;&gt;Node2</title>
<path fill="none" stroke="midnightblue" d="M188.024,-63C196.787,-63 205.533,-63 213.973,-63"/>
<polygon fill="midnightblue" stroke="midnightblue" points="187.747,-59.5001 177.747,-63 187.747,-66.5001 187.747,-59.5001"/>
</g>
<!-- Node3 -->
<g id="node3" class="node"><title>Node3</title>
<g id="a_node3"><a xlink:href="../../d3/d71/jsonhelpers_8h.html#a3a69c2987d346d326aeffb52183db0f4" target="_top" xlink:title="prepareTestSettings">
<polygon fill="white" stroke="black" points="390.5,-52.5 390.5,-73.5 513.5,-73.5 513.5,-52.5 390.5,-52.5"/>
<text text-anchor="middle" x="452" y="-59.9" font-family="Helvetica,sans-Serif" font-size="12.00">prepareTestSettings</text>
</a>
</g>
</g>
<!-- Node2&#45;&gt;Node3 -->
<g id="edge2" class="edge"><title>Node2&#45;&gt;Node3</title>
<path fill="none" stroke="midnightblue" d="M364.55,-63C373.204,-63 381.908,-63 390.285,-63"/>
<polygon fill="midnightblue" stroke="midnightblue" points="364.437,-59.5001 354.437,-63 364.437,-66.5001 364.437,-59.5001"/>
</g>
<!-- Node4 -->
<g id="node4" class="node"><title>Node4</title>
<g id="a_node4"><a xlink:href="../../da/d92/class_image_test.html#a7334d76c1cc6780f46626be5b9ff1adb" target="_top" xlink:title="Runs the test pointed to by m_imatestFunc. ">
<polygon fill="white" stroke="black" points="550,-52.5 550,-73.5 648,-73.5 648,-52.5 550,-52.5"/>
<text text-anchor="middle" x="599" y="-59.9" font-family="Helvetica,sans-Serif" font-size="12.00">ImageTest::Run</text>
</a>
</g>
</g>
<!-- Node3&#45;&gt;Node4 -->
<g id="edge3" class="edge"><title>Node3&#45;&gt;Node4</title>
<path fill="none" stroke="midnightblue" d="M523.657,-63C532.557,-63 541.494,-63 549.931,-63"/>
<polygon fill="midnightblue" stroke="midnightblue" points="523.653,-59.5001 513.653,-63 523.653,-66.5001 523.653,-59.5001"/>
</g>
<!-- Node5 -->
<g id="node5" class="node"><title>Node5</title>
<g id="a_node5"><a xlink:href="../../da/d92/class_image_test.html#accf2cfff6fe48fd19888727208dd6728" target="_top" xlink:title="ImageTest::Run">
<polygon fill="white" stroke="black" points="705,-72.5 705,-93.5 803,-93.5 803,-72.5 705,-72.5"/>
<text text-anchor="middle" x="754" y="-79.9" font-family="Helvetica,sans-Serif" font-size="12.00">ImageTest::Run</text>
</a>
</g>
</g>
<!-- Node4&#45;&gt;Node5 -->
<g id="edge4" class="edge"><title>Node4&#45;&gt;Node5</title>
<path fill="none" stroke="midnightblue" d="M658.338,-70.6259C673.716,-72.6361 690.134,-74.7822 704.905,-76.713"/>
<polygon fill="midnightblue" stroke="midnightblue" points="658.779,-67.1539 648.41,-69.3281 657.872,-74.0948 658.779,-67.1539"/>
</g>
<!-- Node6 -->
<g id="node6" class="node"><title>Node6</title>
<g id="a_node6"><a xlink:href="../../da/d92/class_image_test.html#a372478d09c06cd7ab3684840add6215e" target="_top" xlink:title="param must be a pointer to a ThreadControl object; param&#45;&gt;m_data must point to an ImageTest object ...">
<polygon fill="white" stroke="black" points="684.5,-32.5 684.5,-53.5 823.5,-53.5 823.5,-32.5 684.5,-32.5"/>
<text text-anchor="middle" x="754" y="-39.9" font-family="Helvetica,sans-Serif" font-size="12.00">ImageTest::ThreadProc</text>
</a>
</g>
</g>
<!-- Node4&#45;&gt;Node6 -->
<g id="edge5" class="edge"><title>Node4&#45;&gt;Node6</title>
<path fill="none" stroke="midnightblue" d="M658.571,-55.3437C667.052,-54.2351 675.845,-53.0857 684.499,-51.9543"/>
<polygon fill="midnightblue" stroke="midnightblue" points="657.872,-51.9052 648.41,-56.6719 658.779,-58.8461 657.872,-51.9052"/>
</g>
<!-- Node7 -->
<g id="node7" class="node"><title>Node7</title>
<g id="a_node7"><a xlink:href="../../d3/d9f/class_c_operator_console_app.html#a51ad7e6e8f370072c3e89d0d7e9e41a8" target="_top" xlink:title="COperatorConsoleApp\l::InitBlemishThread">
<polygon fill="white" stroke="black" points="860.5,-53 860.5,-87 997.5,-87 997.5,-53 860.5,-53"/>
<text text-anchor="start" x="868.5" y="-73.4" font-family="Helvetica,sans-Serif" font-size="12.00">COperatorConsoleApp</text>
<text text-anchor="middle" x="929" y="-60.4" font-family="Helvetica,sans-Serif" font-size="12.00">::InitBlemishThread</text>
</a>
</g>
</g>
<!-- Node6&#45;&gt;Node7 -->
<g id="edge6" class="edge"><title>Node6&#45;&gt;Node7</title>
<path fill="none" stroke="midnightblue" d="M832.382,-55.077C841.669,-56.5264 851.097,-57.9978 860.233,-59.4236"/>
<polygon fill="midnightblue" stroke="midnightblue" points="832.802,-51.6002 822.382,-53.5162 831.722,-58.5165 832.802,-51.6002"/>
</g>
<!-- Node13 -->
<g id="node13" class="node"><title>Node13</title>
<g id="a_node13"><a xlink:href="../../d3/d9f/class_c_operator_console_app.html#af7328d2c00abb1d4a09a65492c69b2b0" target="_top" xlink:title="COperatorConsoleApp\l::InitSFRplusThread">
<polygon fill="white" stroke="black" points="860.5,-0 860.5,-34 997.5,-34 997.5,-0 860.5,-0"/>
<text text-anchor="start" x="868.5" y="-20.4" font-family="Helvetica,sans-Serif" font-size="12.00">COperatorConsoleApp</text>
<text text-anchor="middle" x="929" y="-7.4" font-family="Helvetica,sans-Serif" font-size="12.00">::InitSFRplusThread</text>
</a>
</g>
</g>
<!-- Node6&#45;&gt;Node13 -->
<g id="edge12" class="edge"><title>Node6&#45;&gt;Node13</title>
<path fill="none" stroke="midnightblue" d="M833.852,-31.1494C842.751,-29.812 851.759,-28.4583 860.494,-27.1454"/>
<polygon fill="midnightblue" stroke="midnightblue" points="833.24,-27.702 823.871,-32.6494 834.28,-34.6243 833.24,-27.702"/>
</g>
<!-- Node8 -->
<g id="node8" class="node"><title>Node8</title>
<g id="a_node8"><a xlink:href="../../d3/d9f/class_c_operator_console_app.html#a7f0cd7b21cee2171dea973e4e6e7bb9d" target="_top" xlink:title="Init perform application&#45;specific initialization. ">
<polygon fill="white" stroke="black" points="1034.5,-53 1034.5,-87 1171.5,-87 1171.5,-53 1034.5,-53"/>
<text text-anchor="start" x="1042.5" y="-73.4" font-family="Helvetica,sans-Serif" font-size="12.00">COperatorConsoleApp</text>
<text text-anchor="middle" x="1103" y="-60.4" font-family="Helvetica,sans-Serif" font-size="12.00">::Init</text>
</a>
</g>
</g>
<!-- Node7&#45;&gt;Node8 -->
<g id="edge7" class="edge"><title>Node7&#45;&gt;Node8</title>
<path fill="none" stroke="midnightblue" d="M1008.13,-70C1016.85,-70 1025.67,-70 1034.23,-70"/>
<polygon fill="midnightblue" stroke="midnightblue" points="1007.98,-66.5001 997.979,-70 1007.98,-73.5001 1007.98,-66.5001"/>
</g>
<!-- Node10 -->
<g id="node10" class="node"><title>Node10</title>
<g id="a_node10"><a xlink:href="../../d3/d9f/class_c_operator_console_app.html#aede77af6cae8053d49c752fd95910728" target="_top" xlink:title="This function allows for reallocation of the various image buffers when we change the image size...">
<polygon fill="white" stroke="black" points="1034.5,-0 1034.5,-34 1171.5,-34 1171.5,-0 1034.5,-0"/>
<text text-anchor="start" x="1042.5" y="-20.4" font-family="Helvetica,sans-Serif" font-size="12.00">COperatorConsoleApp</text>
<text text-anchor="middle" x="1103" y="-7.4" font-family="Helvetica,sans-Serif" font-size="12.00">::ReInit</text>
</a>
</g>
</g>
<!-- Node7&#45;&gt;Node10 -->
<g id="edge9" class="edge"><title>Node7&#45;&gt;Node10</title>
<path fill="none" stroke="midnightblue" d="M995.212,-49.9056C1012.19,-44.6732 1030.32,-39.0863 1046.74,-34.0293"/>
<polygon fill="midnightblue" stroke="midnightblue" points="993.895,-46.6491 985.369,-52.9387 995.956,-53.3387 993.895,-46.6491"/>
</g>
<!-- Node9 -->
<g id="node9" class="node"><title>Node9</title>
<g id="a_node9"><a xlink:href="../../d3/d9f/class_c_operator_console_app.html#a94f4b258145e77e31644beb999bf099a" target="_top" xlink:title="COperatorConsoleApp initialization. ">
<polygon fill="white" stroke="black" points="1208.5,-53 1208.5,-87 1345.5,-87 1345.5,-53 1208.5,-53"/>
<text text-anchor="start" x="1216.5" y="-73.4" font-family="Helvetica,sans-Serif" font-size="12.00">COperatorConsoleApp</text>
<text text-anchor="middle" x="1277" y="-60.4" font-family="Helvetica,sans-Serif" font-size="12.00">::InitInstance</text>
</a>
</g>
</g>
<!-- Node8&#45;&gt;Node9 -->
<g id="edge8" class="edge"><title>Node8&#45;&gt;Node9</title>
<path fill="none" stroke="midnightblue" d="M1182.13,-70C1190.85,-70 1199.67,-70 1208.23,-70"/>
<polygon fill="midnightblue" stroke="midnightblue" points="1181.98,-66.5001 1171.98,-70 1181.98,-73.5001 1181.98,-66.5001"/>
</g>
<!-- Node11 -->
<g id="node11" class="node"><title>Node11</title>
<g id="a_node11"><a xlink:href="../../d3/d9f/class_c_operator_console_app.html#a620f8d2eed65d743bb177abcb90936e6" target="_top" xlink:title="Called after MSG_SETUP is received. ">
<polygon fill="white" stroke="black" points="1208.5,-0 1208.5,-34 1345.5,-34 1345.5,-0 1208.5,-0"/>
<text text-anchor="start" x="1216.5" y="-20.4" font-family="Helvetica,sans-Serif" font-size="12.00">COperatorConsoleApp</text>
<text text-anchor="middle" x="1277" y="-7.4" font-family="Helvetica,sans-Serif" font-size="12.00">::OnSetup</text>
</a>
</g>
</g>
<!-- Node10&#45;&gt;Node11 -->
<g id="edge10" class="edge"><title>Node10&#45;&gt;Node11</title>
<path fill="none" stroke="midnightblue" d="M1182.13,-17C1190.85,-17 1199.67,-17 1208.23,-17"/>
<polygon fill="midnightblue" stroke="midnightblue" points="1181.98,-13.5001 1171.98,-17 1181.98,-20.5001 1181.98,-13.5001"/>
</g>
<!-- Node12 -->
<g id="node12" class="node"><title>Node12</title>
<g id="a_node12"><a xlink:href="../../d3/d9f/class_c_operator_console_app.html#a7041d197c4e6549f2cb7219981b4eec1" target="_top" xlink:title="Intercepts messages of interest before Windows or MFC. ">
<polygon fill="white" stroke="black" points="1382,-0 1382,-34 1520,-34 1520,-0 1382,-0"/>
<text text-anchor="start" x="1390" y="-20.4" font-family="Helvetica,sans-Serif" font-size="12.00">COperatorConsoleApp</text>
<text text-anchor="middle" x="1451" y="-7.4" font-family="Helvetica,sans-Serif" font-size="12.00">::PreTranslateMessage</text>
</a>
</g>
</g>
<!-- Node11&#45;&gt;Node12 -->
<g id="edge11" class="edge"><title>Node11&#45;&gt;Node12</title>
<path fill="none" stroke="midnightblue" d="M1356.05,-17C1364.7,-17 1373.45,-17 1381.95,-17"/>
<polygon fill="midnightblue" stroke="midnightblue" points="1355.98,-13.5001 1345.98,-17 1355.98,-20.5001 1355.98,-13.5001"/>
</g>
<!-- Node13&#45;&gt;Node8 -->
<g id="edge13" class="edge"><title>Node13&#45;&gt;Node8</title>
<path fill="none" stroke="midnightblue" d="M995.212,-37.0944C1012.19,-42.3268 1030.32,-47.9137 1046.74,-52.9707"/>
<polygon fill="midnightblue" stroke="midnightblue" points="995.956,-33.6613 985.369,-34.0613 993.895,-40.3509 995.956,-33.6613"/>
</g>
<!-- Node13&#45;&gt;Node10 -->
<g id="edge14" class="edge"><title>Node13&#45;&gt;Node10</title>
<path fill="none" stroke="midnightblue" d="M1008.13,-17C1016.85,-17 1025.67,-17 1034.23,-17"/>
<polygon fill="midnightblue" stroke="midnightblue" points="1007.98,-13.5001 997.979,-17 1007.98,-20.5001 1007.98,-13.5001"/>
</g>
</g>
</svg>
