<?xml version="1.0" encoding="UTF-8" standalone="no"?>
<!DOCTYPE svg PUBLIC "-//W3C//DTD SVG 1.1//EN"
 "http://www.w3.org/Graphics/SVG/1.1/DTD/svg11.dtd">
<!-- Generated by graphviz version 2.34.0 (20130907.0111)
 -->
<!-- Title: internalJSONNode::deleteInternal Pages: 1 -->
<svg width="1276pt" height="103pt"
 viewBox="0.00 0.00 1276.00 103.00" xmlns="http://www.w3.org/2000/svg" xmlns:xlink="http://www.w3.org/1999/xlink">
<g id="graph0" class="graph" transform="scale(1 1) rotate(0) translate(4 99)">
<title>internalJSONNode::deleteInternal</title>
<polygon fill="white" stroke="white" points="-4,4 -4,-99 1272,-99 1272,4 -4,4"/>
<!-- Node1 -->
<g id="node1" class="node"><title>Node1</title>
<polygon fill="#bfbfbf" stroke="black" points="0,-23 0,-57 152,-57 152,-23 0,-23"/>
<text text-anchor="start" x="8" y="-43.4" font-family="Helvetica,sans-Serif" font-size="12.00">internalJSONNode::delete</text>
<text text-anchor="middle" x="76" y="-30.4" font-family="Helvetica,sans-Serif" font-size="12.00">Internal</text>
</g>
<!-- Node2 -->
<g id="node2" class="node"><title>Node2</title>
<g id="a_node2"><a xlink:href="../../d6/dc7/class_j_s_o_n_node.html#ac68ad8233da336a15052bad5edf087a6" target="_top" xlink:title="JSONNode::decRef">
<polygon fill="white" stroke="black" points="188,-29.5 188,-50.5 308,-50.5 308,-29.5 188,-29.5"/>
<text text-anchor="middle" x="248" y="-36.9" font-family="Helvetica,sans-Serif" font-size="12.00">JSONNode::decRef</text>
</a>
</g>
</g>
<!-- Node1&#45;&gt;Node2 -->
<g id="edge1" class="edge"><title>Node1&#45;&gt;Node2</title>
<path fill="none" stroke="midnightblue" d="M162.233,-40C170.916,-40 179.597,-40 187.911,-40"/>
<polygon fill="midnightblue" stroke="midnightblue" points="162.059,-36.5001 152.059,-40 162.059,-43.5001 162.059,-36.5001"/>
</g>
<!-- Node3 -->
<g id="node3" class="node"><title>Node3</title>
<g id="a_node3"><a xlink:href="../../d6/dc7/class_j_s_o_n_node.html#ab7fcb8d880ff067c76ba5d90ea26cc02" target="_top" xlink:title="JSONNode::~JSONNode">
<polygon fill="white" stroke="black" points="344.5,-29.5 344.5,-50.5 493.5,-50.5 493.5,-29.5 344.5,-29.5"/>
<text text-anchor="middle" x="419" y="-36.9" font-family="Helvetica,sans-Serif" font-size="12.00">JSONNode::~JSONNode</text>
</a>
</g>
</g>
<!-- Node2&#45;&gt;Node3 -->
<g id="edge2" class="edge"><title>Node2&#45;&gt;Node3</title>
<path fill="none" stroke="midnightblue" d="M318.134,-40C326.781,-40 335.65,-40 344.362,-40"/>
<polygon fill="midnightblue" stroke="midnightblue" points="318.108,-36.5001 308.108,-40 318.108,-43.5001 318.108,-36.5001"/>
</g>
<!-- Node4 -->
<g id="node4" class="node"><title>Node4</title>
<g id="a_node4"><a xlink:href="../../d6/dc7/class_j_s_o_n_node.html#a4820d966e35e8512e8de4d646960e149" target="_top" xlink:title="JSONNode::deleteJSONNode">
<polygon fill="white" stroke="black" points="530.5,-29.5 530.5,-50.5 705.5,-50.5 705.5,-29.5 530.5,-29.5"/>
<text text-anchor="middle" x="618" y="-36.9" font-family="Helvetica,sans-Serif" font-size="12.00">JSONNode::deleteJSONNode</text>
</a>
</g>
</g>
<!-- Node3&#45;&gt;Node4 -->
<g id="edge3" class="edge"><title>Node3&#45;&gt;Node4</title>
<path fill="none" stroke="midnightblue" d="M503.793,-40C512.522,-40 521.408,-40 530.169,-40"/>
<polygon fill="midnightblue" stroke="midnightblue" points="503.636,-36.5001 493.636,-40 503.636,-43.5001 503.636,-36.5001"/>
</g>
<!-- Node5 -->
<g id="node5" class="node"><title>Node5</title>
<g id="a_node5"><a xlink:href="../../db/d49/classjson_children.html#a2ed8d882781d9681d3971df0008508b3" target="_top" xlink:title="jsonChildren::deleteAll">
<polygon fill="white" stroke="black" points="742,-53.5 742,-74.5 874,-74.5 874,-53.5 742,-53.5"/>
<text text-anchor="middle" x="808" y="-60.9" font-family="Helvetica,sans-Serif" font-size="12.00">jsonChildren::deleteAll</text>
</a>
</g>
</g>
<!-- Node4&#45;&gt;Node5 -->
<g id="edge4" class="edge"><title>Node4&#45;&gt;Node5</title>
<path fill="none" stroke="midnightblue" d="M711.639,-51.8263C721.844,-53.1291 732.071,-54.4346 741.837,-55.6813"/>
<polygon fill="midnightblue" stroke="midnightblue" points="711.822,-48.3213 701.46,-50.5267 710.936,-55.265 711.822,-48.3213"/>
</g>
<!-- Node9 -->
<g id="node9" class="node"><title>Node9</title>
<g id="a_node9"><a xlink:href="../../d6/dd3/structauto__delete.html#a5cbc6e3213b5b47b849dac80d2ea17b9" target="_top" xlink:title="auto_delete::~auto\l_delete">
<polygon fill="white" stroke="black" points="751.5,-0 751.5,-34 864.5,-34 864.5,-0 751.5,-0"/>
<text text-anchor="start" x="759.5" y="-20.4" font-family="Helvetica,sans-Serif" font-size="12.00">auto_delete::~auto</text>
<text text-anchor="middle" x="808" y="-7.4" font-family="Helvetica,sans-Serif" font-size="12.00">_delete</text>
</a>
</g>
</g>
<!-- Node4&#45;&gt;Node9 -->
<g id="edge8" class="edge"><title>Node4&#45;&gt;Node9</title>
<path fill="none" stroke="midnightblue" d="M715.019,-28.253C727.491,-26.7271 739.917,-25.207 751.416,-23.8002"/>
<polygon fill="midnightblue" stroke="midnightblue" points="714.523,-24.7875 705.022,-29.476 715.373,-31.7357 714.523,-24.7875"/>
</g>
<!-- Node6 -->
<g id="node6" class="node"><title>Node6</title>
<g id="a_node6"><a xlink:href="../../db/d49/classjson_children.html#a4e802eba4a1fe4736655ea44944b3662" target="_top" xlink:title="jsonChildren::~jsonChildren">
<polygon fill="white" stroke="black" points="910,-73.5 910,-94.5 1068,-94.5 1068,-73.5 910,-73.5"/>
<text text-anchor="middle" x="989" y="-80.9" font-family="Helvetica,sans-Serif" font-size="12.00">jsonChildren::~jsonChildren</text>
</a>
</g>
</g>
<!-- Node5&#45;&gt;Node6 -->
<g id="edge5" class="edge"><title>Node5&#45;&gt;Node6</title>
<path fill="none" stroke="midnightblue" d="M884.312,-72.4148C892.748,-73.3573 901.355,-74.319 909.826,-75.2654"/>
<polygon fill="midnightblue" stroke="midnightblue" points="884.456,-68.9092 874.129,-71.277 883.679,-75.8659 884.456,-68.9092"/>
</g>
<!-- Node8 -->
<g id="node8" class="node"><title>Node8</title>
<g id="a_node8"><a xlink:href="../../db/d49/classjson_children.html#ae5b065bc0e3bf8dc7c3f130c900a1e32" target="_top" xlink:title="jsonChildren::clear">
<polygon fill="white" stroke="black" points="932.5,-33.5 932.5,-54.5 1045.5,-54.5 1045.5,-33.5 932.5,-33.5"/>
<text text-anchor="middle" x="989" y="-40.9" font-family="Helvetica,sans-Serif" font-size="12.00">jsonChildren::clear</text>
</a>
</g>
</g>
<!-- Node5&#45;&gt;Node8 -->
<g id="edge7" class="edge"><title>Node5&#45;&gt;Node8</title>
<path fill="none" stroke="midnightblue" d="M884.097,-55.6093C900.269,-53.8023 917.087,-51.9233 932.361,-50.2167"/>
<polygon fill="midnightblue" stroke="midnightblue" points="883.679,-52.1341 874.129,-56.723 884.456,-59.0908 883.679,-52.1341"/>
</g>
<!-- Node7 -->
<g id="node7" class="node"><title>Node7</title>
<g id="a_node7"><a xlink:href="../../db/d49/classjson_children.html#a412672e4426b6889baa22a6b7f1e4422" target="_top" xlink:title="jsonChildren::deleteChildren">
<polygon fill="white" stroke="black" points="1104.5,-73.5 1104.5,-94.5 1267.5,-94.5 1267.5,-73.5 1104.5,-73.5"/>
<text text-anchor="middle" x="1186" y="-80.9" font-family="Helvetica,sans-Serif" font-size="12.00">jsonChildren::deleteChildren</text>
</a>
</g>
</g>
<!-- Node6&#45;&gt;Node7 -->
<g id="edge6" class="edge"><title>Node6&#45;&gt;Node7</title>
<path fill="none" stroke="midnightblue" d="M1078.28,-84C1086.93,-84 1095.68,-84 1104.24,-84"/>
<polygon fill="midnightblue" stroke="midnightblue" points="1078.19,-80.5001 1068.19,-84 1078.19,-87.5001 1078.19,-80.5001"/>
</g>
</g>
</svg>
