<?xml version="1.0" encoding="UTF-8" standalone="no"?>
<!DOCTYPE svg PUBLIC "-//W3C//DTD SVG 1.1//EN"
 "http://www.w3.org/Graphics/SVG/1.1/DTD/svg11.dtd">
<!-- Generated by graphviz version 2.34.0 (20130907.0111)
 -->
<!-- Title: internalJSONNode::Nullify Pages: 1 -->
<svg width="764pt" height="210pt"
 viewBox="0.00 0.00 764.00 210.00" xmlns="http://www.w3.org/2000/svg" xmlns:xlink="http://www.w3.org/1999/xlink">
<g id="graph0" class="graph" transform="scale(1 1) rotate(0) translate(4 206)">
<title>internalJSONNode::Nullify</title>
<polygon fill="white" stroke="white" points="-4,4 -4,-206 760,-206 760,4 -4,4"/>
<!-- Node1 -->
<g id="node1" class="node"><title>Node1</title>
<polygon fill="#bfbfbf" stroke="black" points="0,-80.5 0,-101.5 150,-101.5 150,-80.5 0,-80.5"/>
<text text-anchor="middle" x="75" y="-87.9" font-family="Helvetica,sans-Serif" font-size="12.00">internalJSONNode::Nullify</text>
</g>
<!-- Node2 -->
<g id="node2" class="node"><title>Node2</title>
<g id="a_node2"><a xlink:href="../../d1/d0b/classinternal_j_s_o_n_node.html#a2dba04775883475a7624257a82d1cac9" target="_top" xlink:title="internalJSONNode::Fetch">
<polygon fill="white" stroke="black" points="402.5,-100.5 402.5,-121.5 551.5,-121.5 551.5,-100.5 402.5,-100.5"/>
<text text-anchor="middle" x="477" y="-107.9" font-family="Helvetica,sans-Serif" font-size="12.00">internalJSONNode::Fetch</text>
</a>
</g>
</g>
<!-- Node1&#45;&gt;Node2 -->
<g id="edge1" class="edge"><title>Node1&#45;&gt;Node2</title>
<path fill="none" stroke="midnightblue" d="M98.2907,-107.546C119.571,-122.234 153.17,-142.628 186,-151 263.519,-170.767 287.213,-164.88 366,-151 397.62,-145.429 432.11,-131.498 453.883,-121.648"/>
<polygon fill="midnightblue" stroke="midnightblue" points="100.147,-104.572 89.963,-101.651 96.1033,-110.285 100.147,-104.572"/>
</g>
<!-- Node8 -->
<g id="node8" class="node"><title>Node8</title>
<g id="a_node8"><a xlink:href="../../d1/d0b/classinternal_j_s_o_n_node.html#a59d6db90025af648ee5f556e15242e00" target="_top" xlink:title="internalJSONNode::FetchArray">
<polygon fill="white" stroke="black" points="187.5,-120.5 187.5,-141.5 364.5,-141.5 364.5,-120.5 187.5,-120.5"/>
<text text-anchor="middle" x="276" y="-127.9" font-family="Helvetica,sans-Serif" font-size="12.00">internalJSONNode::FetchArray</text>
</a>
</g>
</g>
<!-- Node1&#45;&gt;Node8 -->
<g id="edge7" class="edge"><title>Node1&#45;&gt;Node8</title>
<path fill="none" stroke="midnightblue" d="M138.436,-103.55C165.523,-108.995 196.885,-115.299 222.719,-120.491"/>
<polygon fill="midnightblue" stroke="midnightblue" points="138.779,-100.049 128.285,-101.51 137.399,-106.912 138.779,-100.049"/>
</g>
<!-- Node9 -->
<g id="node9" class="node"><title>Node9</title>
<g id="a_node9"><a xlink:href="../../d1/d0b/classinternal_j_s_o_n_node.html#a69dde8286881b07590238abf1d91a245" target="_top" xlink:title="internalJSONNode::FetchNode">
<polygon fill="white" stroke="black" points="187,-80.5 187,-101.5 365,-101.5 365,-80.5 187,-80.5"/>
<text text-anchor="middle" x="276" y="-87.9" font-family="Helvetica,sans-Serif" font-size="12.00">internalJSONNode::FetchNode</text>
</a>
</g>
</g>
<!-- Node1&#45;&gt;Node9 -->
<g id="edge9" class="edge"><title>Node1&#45;&gt;Node9</title>
<path fill="none" stroke="midnightblue" d="M160.277,-91C169.024,-91 177.931,-91 186.72,-91"/>
<polygon fill="midnightblue" stroke="midnightblue" points="160.1,-87.5001 150.1,-91 160.1,-94.5001 160.1,-87.5001"/>
</g>
<!-- Node10 -->
<g id="node10" class="node"><title>Node10</title>
<g id="a_node10"><a xlink:href="../../d1/d0b/classinternal_j_s_o_n_node.html#a40ace389d49c93b870ce3a0aaab70640" target="_top" xlink:title="internalJSONNode::FetchString">
<polygon fill="white" stroke="black" points="186,-40.5 186,-61.5 366,-61.5 366,-40.5 186,-40.5"/>
<text text-anchor="middle" x="276" y="-47.9" font-family="Helvetica,sans-Serif" font-size="12.00">internalJSONNode::FetchString</text>
</a>
</g>
</g>
<!-- Node1&#45;&gt;Node10 -->
<g id="edge11" class="edge"><title>Node1&#45;&gt;Node10</title>
<path fill="none" stroke="midnightblue" d="M138.436,-78.45C165.523,-73.0054 196.885,-66.7014 222.719,-61.5087"/>
<polygon fill="midnightblue" stroke="midnightblue" points="137.399,-75.0884 128.285,-80.4905 138.779,-81.9511 137.399,-75.0884"/>
</g>
<!-- Node11 -->
<g id="node11" class="node"><title>Node11</title>
<g id="a_node11"><a xlink:href="../../d6/dc7/class_j_s_o_n_node.html#aabc5878c658fe47378a9f2294d5b1663" target="_top" xlink:title="JSONNode::nullify">
<polygon fill="white" stroke="black" points="221,-0.5 221,-21.5 331,-21.5 331,-0.5 221,-0.5"/>
<text text-anchor="middle" x="276" y="-7.9" font-family="Helvetica,sans-Serif" font-size="12.00">JSONNode::nullify</text>
</a>
</g>
</g>
<!-- Node1&#45;&gt;Node11 -->
<g id="edge13" class="edge"><title>Node1&#45;&gt;Node11</title>
<path fill="none" stroke="midnightblue" d="M100.66,-74.9421C122.35,-61.4654 155.184,-42.6062 186,-31 196.967,-26.8695 209.03,-23.4558 220.64,-20.6896"/>
<polygon fill="midnightblue" stroke="midnightblue" points="98.6753,-72.0559 92.0848,-80.3514 102.41,-77.9764 98.6753,-72.0559"/>
</g>
<!-- Node3 -->
<g id="node3" class="node"><title>Node3</title>
<g id="a_node3"><a xlink:href="../../d1/d0b/classinternal_j_s_o_n_node.html#a83b24cb2bbdac4b1a1a532c44ffd397f" target="_top" xlink:title="internalJSONNode::begin">
<polygon fill="white" stroke="black" points="597.5,-180.5 597.5,-201.5 746.5,-201.5 746.5,-180.5 597.5,-180.5"/>
<text text-anchor="middle" x="672" y="-187.9" font-family="Helvetica,sans-Serif" font-size="12.00">internalJSONNode::begin</text>
</a>
</g>
</g>
<!-- Node2&#45;&gt;Node3 -->
<g id="edge2" class="edge"><title>Node2&#45;&gt;Node3</title>
<path fill="none" stroke="midnightblue" d="M502.705,-126.939C524.424,-140.341 557.274,-159.157 588,-171 597.543,-174.678 607.971,-177.827 618.115,-180.464"/>
<polygon fill="midnightblue" stroke="midnightblue" points="504.451,-123.902 494.117,-121.563 500.736,-129.836 504.451,-123.902"/>
</g>
<!-- Node4 -->
<g id="node4" class="node"><title>Node4</title>
<g id="a_node4"><a xlink:href="../../d1/d0b/classinternal_j_s_o_n_node.html#accd95751fc868a0f19530f0eeba1d09b" target="_top" xlink:title="internalJSONNode::empty">
<polygon fill="white" stroke="black" points="596,-140.5 596,-161.5 748,-161.5 748,-140.5 596,-140.5"/>
<text text-anchor="middle" x="672" y="-147.9" font-family="Helvetica,sans-Serif" font-size="12.00">internalJSONNode::empty</text>
</a>
</g>
</g>
<!-- Node2&#45;&gt;Node4 -->
<g id="edge3" class="edge"><title>Node2&#45;&gt;Node4</title>
<path fill="none" stroke="midnightblue" d="M538.554,-123.55C564.824,-128.995 595.241,-135.299 620.295,-140.491"/>
<polygon fill="midnightblue" stroke="midnightblue" points="539.211,-120.112 528.708,-121.51 537.79,-126.966 539.211,-120.112"/>
</g>
<!-- Node5 -->
<g id="node5" class="node"><title>Node5</title>
<g id="a_node5"><a xlink:href="../../d1/d0b/classinternal_j_s_o_n_node.html#a4bbd647f453bfdb21ef9b6a2fb6f62f8" target="_top" xlink:title="internalJSONNode::end">
<polygon fill="white" stroke="black" points="602,-100.5 602,-121.5 742,-121.5 742,-100.5 602,-100.5"/>
<text text-anchor="middle" x="672" y="-107.9" font-family="Helvetica,sans-Serif" font-size="12.00">internalJSONNode::end</text>
</a>
</g>
</g>
<!-- Node2&#45;&gt;Node5 -->
<g id="edge4" class="edge"><title>Node2&#45;&gt;Node5</title>
<path fill="none" stroke="midnightblue" d="M561.678,-111C575.075,-111 588.809,-111 601.82,-111"/>
<polygon fill="midnightblue" stroke="midnightblue" points="561.516,-107.5 551.516,-111 561.516,-114.5 561.516,-107.5"/>
</g>
<!-- Node6 -->
<g id="node6" class="node"><title>Node6</title>
<g id="a_node6"><a xlink:href="../../d1/d0b/classinternal_j_s_o_n_node.html#abf6beef21cb476c4b2246f7b01a1ee98" target="_top" xlink:title="internalJSONNode::preparse">
<polygon fill="white" stroke="black" points="588.5,-60.5 588.5,-81.5 755.5,-81.5 755.5,-60.5 588.5,-60.5"/>
<text text-anchor="middle" x="672" y="-67.9" font-family="Helvetica,sans-Serif" font-size="12.00">internalJSONNode::preparse</text>
</a>
</g>
</g>
<!-- Node2&#45;&gt;Node6 -->
<g id="edge5" class="edge"><title>Node2&#45;&gt;Node6</title>
<path fill="none" stroke="midnightblue" d="M538.554,-98.45C564.824,-93.0054 595.241,-86.7014 620.295,-81.5087"/>
<polygon fill="midnightblue" stroke="midnightblue" points="537.79,-95.0338 528.708,-100.49 539.211,-101.888 537.79,-95.0338"/>
</g>
<!-- Node7 -->
<g id="node7" class="node"><title>Node7</title>
<g id="a_node7"><a xlink:href="../../d1/d0b/classinternal_j_s_o_n_node.html#a1b39d2c6b4bd28ed7ce2415fd5a94f57" target="_top" xlink:title="internalJSONNode::size">
<polygon fill="white" stroke="black" points="601.5,-20.5 601.5,-41.5 742.5,-41.5 742.5,-20.5 601.5,-20.5"/>
<text text-anchor="middle" x="672" y="-27.9" font-family="Helvetica,sans-Serif" font-size="12.00">internalJSONNode::size</text>
</a>
</g>
</g>
<!-- Node2&#45;&gt;Node7 -->
<g id="edge6" class="edge"><title>Node2&#45;&gt;Node7</title>
<path fill="none" stroke="midnightblue" d="M502.705,-95.0609C524.424,-81.6592 557.274,-62.8433 588,-51 597.543,-47.3217 607.971,-44.1733 618.115,-41.5363"/>
<polygon fill="midnightblue" stroke="midnightblue" points="500.736,-92.1642 494.117,-100.437 504.451,-98.0975 500.736,-92.1642"/>
</g>
<!-- Node8&#45;&gt;Node2 -->
<g id="edge8" class="edge"><title>Node8&#45;&gt;Node2</title>
<path fill="none" stroke="midnightblue" d="M374.668,-121.184C383.992,-120.247 393.338,-119.308 402.377,-118.399"/>
<polygon fill="midnightblue" stroke="midnightblue" points="374.174,-117.716 364.574,-122.199 374.874,-124.681 374.174,-117.716"/>
</g>
<!-- Node9&#45;&gt;Node2 -->
<g id="edge10" class="edge"><title>Node9&#45;&gt;Node2</title>
<path fill="none" stroke="midnightblue" d="M375.339,-100.883C384.38,-101.792 393.433,-102.702 402.201,-103.583"/>
<polygon fill="midnightblue" stroke="midnightblue" points="375.453,-97.3773 365.153,-99.8596 374.753,-104.342 375.453,-97.3773"/>
</g>
<!-- Node10&#45;&gt;Node2 -->
<g id="edge12" class="edge"><title>Node10&#45;&gt;Node2</title>
<path fill="none" stroke="midnightblue" d="M338.889,-63.8351C348.028,-66.0403 357.294,-68.4503 366,-71 395.057,-79.5102 427.554,-91.6644 449.642,-100.338"/>
<polygon fill="midnightblue" stroke="midnightblue" points="339.59,-60.4044 329.054,-61.5257 337.989,-67.2191 339.59,-60.4044"/>
</g>
</g>
</svg>
