<?xml version="1.0" encoding="UTF-8" standalone="no"?>
<!DOCTYPE svg PUBLIC "-//W3C//DTD SVG 1.1//EN"
 "http://www.w3.org/Graphics/SVG/1.1/DTD/svg11.dtd">
<!-- Generated by graphviz version 2.34.0 (20130907.0111)
 -->
<!-- Title: internalJSONNode::begin Pages: 1 -->
<svg width="1036pt" height="267pt"
 viewBox="0.00 0.00 1036.00 267.00" xmlns="http://www.w3.org/2000/svg" xmlns:xlink="http://www.w3.org/1999/xlink">
<g id="graph0" class="graph" transform="scale(1 1) rotate(0) translate(4 263)">
<title>internalJSONNode::begin</title>
<polygon fill="white" stroke="white" points="-4,4 -4,-263 1032,-263 1032,4 -4,4"/>
<!-- Node1 -->
<g id="node1" class="node"><title>Node1</title>
<polygon fill="#bfbfbf" stroke="black" points="0.5,-118.5 0.5,-139.5 149.5,-139.5 149.5,-118.5 0.5,-118.5"/>
<text text-anchor="middle" x="75" y="-125.9" font-family="Helvetica,sans-Serif" font-size="12.00">internalJSONNode::begin</text>
</g>
<!-- Node2 -->
<g id="node2" class="node"><title>Node2</title>
<g id="a_node2"><a xlink:href="../../d1/d0b/classinternal_j_s_o_n_node.html#a2dba04775883475a7624257a82d1cac9" target="_top" xlink:title="internalJSONNode::Fetch">
<polygon fill="white" stroke="black" points="201.5,-138.5 201.5,-159.5 350.5,-159.5 350.5,-138.5 201.5,-138.5"/>
<text text-anchor="middle" x="276" y="-145.9" font-family="Helvetica,sans-Serif" font-size="12.00">internalJSONNode::Fetch</text>
</a>
</g>
</g>
<!-- Node1&#45;&gt;Node2 -->
<g id="edge1" class="edge"><title>Node1&#45;&gt;Node2</title>
<path fill="none" stroke="midnightblue" d="M149.535,-136.39C163.166,-137.76 177.497,-139.201 191.402,-140.598"/>
<polygon fill="midnightblue" stroke="midnightblue" points="191.135,-144.089 201.435,-141.607 191.835,-137.124 191.135,-144.089"/>
</g>
<!-- Node14 -->
<g id="node14" class="node"><title>Node14</title>
<g id="a_node14"><a xlink:href="../../d1/d0b/classinternal_j_s_o_n_node.html#ae0f9898124b9f23eba855a6d240d340c" target="_top" xlink:title="internalJSONNode::isContainer">
<polygon fill="white" stroke="black" points="186,-98.5 186,-119.5 366,-119.5 366,-98.5 186,-98.5"/>
<text text-anchor="middle" x="276" y="-105.9" font-family="Helvetica,sans-Serif" font-size="12.00">internalJSONNode::isContainer</text>
</a>
</g>
</g>
<!-- Node1&#45;&gt;Node14 -->
<g id="edge19" class="edge"><title>Node1&#45;&gt;Node14</title>
<path fill="none" stroke="midnightblue" d="M149.535,-121.61C158.142,-120.744 167.029,-119.851 175.91,-118.959"/>
<polygon fill="midnightblue" stroke="midnightblue" points="176.321,-122.435 185.921,-117.953 175.621,-115.47 176.321,-122.435"/>
</g>
<!-- Node3 -->
<g id="node3" class="node"><title>Node3</title>
<g id="a_node3"><a xlink:href="../../d1/d0b/classinternal_j_s_o_n_node.html#a924514c9b1dbec1f779d8294371c0033" target="_top" xlink:title="internalJSONNode::type">
<polygon fill="white" stroke="black" points="421,-237.5 421,-258.5 563,-258.5 563,-237.5 421,-237.5"/>
<text text-anchor="middle" x="492" y="-244.9" font-family="Helvetica,sans-Serif" font-size="12.00">internalJSONNode::type</text>
</a>
</g>
</g>
<!-- Node2&#45;&gt;Node3 -->
<g id="edge2" class="edge"><title>Node2&#45;&gt;Node3</title>
<path fill="none" stroke="midnightblue" d="M290.385,-159.669C312.379,-176.671 358.115,-209.841 402,-228 408.096,-230.522 414.564,-232.753 421.123,-234.721"/>
<polygon fill="midnightblue" stroke="midnightblue" points="420.19,-238.094 430.763,-237.419 422.076,-231.353 420.19,-238.094"/>
</g>
<!-- Node4 -->
<g id="node4" class="node"><title>Node4</title>
<g id="a_node4"><a xlink:href="../../d1/d0b/classinternal_j_s_o_n_node.html#a40ace389d49c93b870ce3a0aaab70640" target="_top" xlink:title="internalJSONNode::FetchString">
<polygon fill="white" stroke="black" points="402,-119.5 402,-140.5 582,-140.5 582,-119.5 402,-119.5"/>
<text text-anchor="middle" x="492" y="-126.9" font-family="Helvetica,sans-Serif" font-size="12.00">internalJSONNode::FetchString</text>
</a>
</g>
</g>
<!-- Node2&#45;&gt;Node4 -->
<g id="edge3" class="edge"><title>Node2&#45;&gt;Node4</title>
<path fill="none" stroke="midnightblue" d="M350.647,-142.461C363.878,-141.287 377.865,-140.045 391.681,-138.818"/>
<polygon fill="midnightblue" stroke="midnightblue" points="392.046,-142.299 401.698,-137.929 391.427,-135.327 392.046,-142.299"/>
</g>
<!-- Node5 -->
<g id="node5" class="node"><title>Node5</title>
<g id="a_node5"><a xlink:href="../../d1/d0b/classinternal_j_s_o_n_node.html#a9a3f9f79800b6141150dde72a55c0060" target="_top" xlink:title="internalJSONNode::Nullify">
<polygon fill="white" stroke="black" points="639,-158.5 639,-179.5 789,-179.5 789,-158.5 639,-158.5"/>
<text text-anchor="middle" x="714" y="-165.9" font-family="Helvetica,sans-Serif" font-size="12.00">internalJSONNode::Nullify</text>
</a>
</g>
</g>
<!-- Node2&#45;&gt;Node5 -->
<g id="edge18" class="edge"><title>Node2&#45;&gt;Node5</title>
<path fill="none" stroke="midnightblue" d="M350.961,-152.393C427.848,-155.92 548.002,-161.431 628.563,-165.127"/>
<polygon fill="midnightblue" stroke="midnightblue" points="628.526,-168.629 638.676,-165.591 628.847,-161.636 628.526,-168.629"/>
</g>
<!-- Node9 -->
<g id="node9" class="node"><title>Node9</title>
<g id="a_node9"><a xlink:href="../../d1/d0b/classinternal_j_s_o_n_node.html#a69dde8286881b07590238abf1d91a245" target="_top" xlink:title="internalJSONNode::FetchNode">
<polygon fill="white" stroke="black" points="403,-197.5 403,-218.5 581,-218.5 581,-197.5 403,-197.5"/>
<text text-anchor="middle" x="492" y="-204.9" font-family="Helvetica,sans-Serif" font-size="12.00">internalJSONNode::FetchNode</text>
</a>
</g>
</g>
<!-- Node2&#45;&gt;Node9 -->
<g id="edge8" class="edge"><title>Node2&#45;&gt;Node9</title>
<path fill="none" stroke="midnightblue" d="M315.259,-159.548C350.905,-169.376 404.203,-184.07 442.754,-194.698"/>
<polygon fill="midnightblue" stroke="midnightblue" points="442.142,-198.16 452.712,-197.444 444.002,-191.412 442.142,-198.16"/>
</g>
<!-- Node11 -->
<g id="node11" class="node"><title>Node11</title>
<g id="a_node11"><a xlink:href="../../d1/d0b/classinternal_j_s_o_n_node.html#a59d6db90025af648ee5f556e15242e00" target="_top" xlink:title="internalJSONNode::FetchArray">
<polygon fill="white" stroke="black" points="403.5,-79.5 403.5,-100.5 580.5,-100.5 580.5,-79.5 403.5,-79.5"/>
<text text-anchor="middle" x="492" y="-86.9" font-family="Helvetica,sans-Serif" font-size="12.00">internalJSONNode::FetchArray</text>
</a>
</g>
</g>
<!-- Node2&#45;&gt;Node11 -->
<g id="edge12" class="edge"><title>Node2&#45;&gt;Node11</title>
<path fill="none" stroke="midnightblue" d="M334.624,-138.396C345.204,-135.791 356.045,-132.672 366,-129 382.974,-122.74 385.026,-116.26 402,-110 408.844,-107.476 416.107,-105.212 423.416,-103.198"/>
<polygon fill="midnightblue" stroke="midnightblue" points="424.581,-106.511 433.376,-100.604 422.817,-99.7371 424.581,-106.511"/>
</g>
<!-- Node13 -->
<g id="node13" class="node"><title>Node13</title>
<g id="a_node13"><a xlink:href="../../d1/d0b/classinternal_j_s_o_n_node.html#aec946311873984a1b810ecb7a4e3d480" target="_top" xlink:title="internalJSONNode::FetchNumber">
<polygon fill="white" stroke="black" points="618.5,-0.5 618.5,-21.5 809.5,-21.5 809.5,-0.5 618.5,-0.5"/>
<text text-anchor="middle" x="714" y="-7.9" font-family="Helvetica,sans-Serif" font-size="12.00">internalJSONNode::FetchNumber</text>
</a>
</g>
</g>
<!-- Node2&#45;&gt;Node13 -->
<g id="edge16" class="edge"><title>Node2&#45;&gt;Node13</title>
<path fill="none" stroke="midnightblue" d="M348.716,-138.38C354.853,-135.868 360.723,-132.783 366,-129 390.965,-111.102 376.738,-87.4766 402,-70 462.06,-28.45 543.57,-14.1389 608.076,-9.98343"/>
<polygon fill="midnightblue" stroke="midnightblue" points="608.493,-13.4654 618.277,-9.4011 608.094,-6.47682 608.493,-13.4654"/>
</g>
<!-- Node4&#45;&gt;Node5 -->
<g id="edge4" class="edge"><title>Node4&#45;&gt;Node5</title>
<path fill="none" stroke="midnightblue" d="M552.245,-140.503C580.365,-145.487 614.152,-151.477 643.478,-156.676"/>
<polygon fill="midnightblue" stroke="midnightblue" points="643.191,-160.179 653.649,-158.479 644.413,-153.287 643.191,-160.179"/>
</g>
<!-- Node8 -->
<g id="node8" class="node"><title>Node8</title>
<g id="a_node8"><a xlink:href="../../d7/d6f/class_j_s_o_n_worker.html#ab473775a73ea206263df728a421944da" target="_top" xlink:title="JSONWorker::FixString">
<polygon fill="white" stroke="black" points="644.5,-118.5 644.5,-139.5 783.5,-139.5 783.5,-118.5 644.5,-118.5"/>
<text text-anchor="middle" x="714" y="-125.9" font-family="Helvetica,sans-Serif" font-size="12.00">JSONWorker::FixString</text>
</a>
</g>
</g>
<!-- Node4&#45;&gt;Node8 -->
<g id="edge7" class="edge"><title>Node4&#45;&gt;Node8</title>
<path fill="none" stroke="midnightblue" d="M582.165,-129.595C599.328,-129.517 617.193,-129.435 634.006,-129.359"/>
<polygon fill="midnightblue" stroke="midnightblue" points="634.339,-132.858 644.323,-129.312 634.307,-125.858 634.339,-132.858"/>
</g>
<!-- Node6 -->
<g id="node6" class="node"><title>Node6</title>
<g id="a_node6"><a xlink:href="../../d1/da6/_documentation_2_operator-_console_2_j_s_o_n_2_j_s_o_n_memory_8h.html#a8f88e025f043e8c423c6ddc3c887600b" target="_top" xlink:title="clearString">
<polygon fill="white" stroke="black" points="900.5,-98.5 900.5,-119.5 973.5,-119.5 973.5,-98.5 900.5,-98.5"/>
<text text-anchor="middle" x="937" y="-105.9" font-family="Helvetica,sans-Serif" font-size="12.00">clearString</text>
</a>
</g>
</g>
<!-- Node5&#45;&gt;Node6 -->
<g id="edge5" class="edge"><title>Node5&#45;&gt;Node6</title>
<path fill="none" stroke="midnightblue" d="M769.727,-158.454C782.971,-155.633 797.042,-152.412 810,-149 839.065,-141.347 871.366,-131.057 895.986,-122.83"/>
<polygon fill="midnightblue" stroke="midnightblue" points="897.337,-126.068 905.696,-119.559 895.102,-119.434 897.337,-126.068"/>
</g>
<!-- Node7 -->
<g id="node7" class="node"><title>Node7</title>
<g id="a_node7"><a xlink:href="../../d1/d0b/classinternal_j_s_o_n_node.html#a5f943a59b0e0e3a4e88f34dfeee6a922" target="_top" xlink:title="internalJSONNode::SetFetched">
<polygon fill="white" stroke="black" points="846.5,-158.5 846.5,-179.5 1027.5,-179.5 1027.5,-158.5 846.5,-158.5"/>
<text text-anchor="middle" x="937" y="-165.9" font-family="Helvetica,sans-Serif" font-size="12.00">internalJSONNode::SetFetched</text>
</a>
</g>
</g>
<!-- Node5&#45;&gt;Node7 -->
<g id="edge6" class="edge"><title>Node5&#45;&gt;Node7</title>
<path fill="none" stroke="midnightblue" d="M789.205,-169C804.223,-169 820.247,-169 835.985,-169"/>
<polygon fill="midnightblue" stroke="midnightblue" points="836.273,-172.5 846.273,-169 836.273,-165.5 836.273,-172.5"/>
</g>
<!-- Node9&#45;&gt;Node5 -->
<g id="edge9" class="edge"><title>Node9&#45;&gt;Node5</title>
<path fill="none" stroke="midnightblue" d="M552.245,-197.497C580.365,-192.513 614.152,-186.523 643.478,-181.324"/>
<polygon fill="midnightblue" stroke="midnightblue" points="644.413,-184.713 653.649,-179.521 643.191,-177.821 644.413,-184.713"/>
</g>
<!-- Node9&#45;&gt;Node6 -->
<g id="edge11" class="edge"><title>Node9&#45;&gt;Node6</title>
<path fill="none" stroke="midnightblue" d="M563.569,-218.528C630.457,-225.201 732.017,-226.566 810,-189 831.548,-178.62 826.647,-163.054 846,-149 860.551,-138.433 878.336,-129.797 894.242,-123.289"/>
<polygon fill="midnightblue" stroke="midnightblue" points="895.828,-126.427 903.858,-119.514 893.27,-119.911 895.828,-126.427"/>
</g>
<!-- Node10 -->
<g id="node10" class="node"><title>Node10</title>
<g id="a_node10"><a xlink:href="../../d7/d6f/class_j_s_o_n_worker.html#a6e6a8187072b0686575d532c6e8ea794" target="_top" xlink:title="JSONWorker::DoNode">
<polygon fill="white" stroke="black" points="645.5,-236.5 645.5,-257.5 782.5,-257.5 782.5,-236.5 645.5,-236.5"/>
<text text-anchor="middle" x="714" y="-243.9" font-family="Helvetica,sans-Serif" font-size="12.00">JSONWorker::DoNode</text>
</a>
</g>
</g>
<!-- Node9&#45;&gt;Node10 -->
<g id="edge10" class="edge"><title>Node9&#45;&gt;Node10</title>
<path fill="none" stroke="midnightblue" d="M552.245,-218.503C580.365,-223.487 614.152,-229.477 643.478,-234.676"/>
<polygon fill="midnightblue" stroke="midnightblue" points="643.191,-238.179 653.649,-236.479 644.413,-231.287 643.191,-238.179"/>
</g>
<!-- Node11&#45;&gt;Node5 -->
<g id="edge13" class="edge"><title>Node11&#45;&gt;Node5</title>
<path fill="none" stroke="midnightblue" d="M560.746,-100.632C568.171,-103.125 575.415,-106.202 582,-110 602.433,-121.787 597.487,-137.352 618,-149 621.898,-151.213 626.011,-153.183 630.252,-154.935"/>
<polygon fill="midnightblue" stroke="midnightblue" points="629.117,-158.246 639.71,-158.434 631.546,-151.681 629.117,-158.246"/>
</g>
<!-- Node11&#45;&gt;Node6 -->
<g id="edge15" class="edge"><title>Node11&#45;&gt;Node6</title>
<path fill="none" stroke="midnightblue" d="M580.523,-93.7538C673.653,-97.7481 817.398,-103.913 890.274,-107.039"/>
<polygon fill="midnightblue" stroke="midnightblue" points="890.357,-110.546 900.498,-107.477 890.657,-103.552 890.357,-110.546"/>
</g>
<!-- Node12 -->
<g id="node12" class="node"><title>Node12</title>
<g id="a_node12"><a xlink:href="../../d7/d6f/class_j_s_o_n_worker.html#a396aabc632272b5534353d4632bf849b" target="_top" xlink:title="JSONWorker::DoArray">
<polygon fill="white" stroke="black" points="646,-40.5 646,-61.5 782,-61.5 782,-40.5 646,-40.5"/>
<text text-anchor="middle" x="714" y="-47.9" font-family="Helvetica,sans-Serif" font-size="12.00">JSONWorker::DoArray</text>
</a>
</g>
</g>
<!-- Node11&#45;&gt;Node12 -->
<g id="edge14" class="edge"><title>Node11&#45;&gt;Node12</title>
<path fill="none" stroke="midnightblue" d="M552.245,-79.4974C580.365,-74.5126 614.152,-68.5231 643.478,-63.3243"/>
<polygon fill="midnightblue" stroke="midnightblue" points="644.413,-66.7132 653.649,-61.5213 643.191,-59.8207 644.413,-66.7132"/>
</g>
<!-- Node13&#45;&gt;Node6 -->
<g id="edge17" class="edge"><title>Node13&#45;&gt;Node6</title>
<path fill="none" stroke="midnightblue" d="M780.028,-21.5445C790.236,-24.0931 800.534,-27.2092 810,-31 849.352,-46.7587 890.243,-74.5431 914.391,-92.3455"/>
<polygon fill="midnightblue" stroke="midnightblue" points="912.393,-95.2218 922.496,-98.4118 916.588,-89.6177 912.393,-95.2218"/>
</g>
</g>
</svg>
