<?xml version="1.0" encoding="UTF-8" standalone="no"?>
<!DOCTYPE svg PUBLIC "-//W3C//DTD SVG 1.1//EN"
 "http://www.w3.org/Graphics/SVG/1.1/DTD/svg11.dtd">
<!-- Generated by graphviz version 2.34.0 (20130907.0111)
 -->
<!-- Title: internalJSONNode::Write Pages: 1 -->
<svg width="1522pt" height="122pt"
 viewBox="0.00 0.00 1522.00 122.00" xmlns="http://www.w3.org/2000/svg" xmlns:xlink="http://www.w3.org/1999/xlink">
<g id="graph0" class="graph" transform="scale(1 1) rotate(0) translate(4 118)">
<title>internalJSONNode::Write</title>
<polygon fill="white" stroke="white" points="-4,4 -4,-118 1518,-118 1518,4 -4,4"/>
<!-- Node1 -->
<g id="node1" class="node"><title>Node1</title>
<polygon fill="#bfbfbf" stroke="black" points="0,-72.5 0,-93.5 148,-93.5 148,-72.5 0,-72.5"/>
<text text-anchor="middle" x="74" y="-79.9" font-family="Helvetica,sans-Serif" font-size="12.00">internalJSONNode::Write</text>
</g>
<!-- Node2 -->
<g id="node2" class="node"><title>Node2</title>
<g id="a_node2"><a xlink:href="../../d6/dc7/class_j_s_o_n_node.html#a9d1b523535c54c224ca16e1ced20a27c" target="_top" xlink:title="JSONNode::write">
<polygon fill="white" stroke="black" points="212.5,-92.5 212.5,-113.5 319.5,-113.5 319.5,-92.5 212.5,-92.5"/>
<text text-anchor="middle" x="266" y="-99.9" font-family="Helvetica,sans-Serif" font-size="12.00">JSONNode::write</text>
</a>
</g>
</g>
<!-- Node1&#45;&gt;Node2 -->
<g id="edge1" class="edge"><title>Node1&#45;&gt;Node2</title>
<path fill="none" stroke="midnightblue" d="M158.329,-91.7715C176.728,-93.7082 195.719,-95.7072 212.486,-97.4722"/>
<polygon fill="midnightblue" stroke="midnightblue" points="158.499,-88.2701 148.187,-90.7039 157.766,-95.2316 158.499,-88.2701"/>
</g>
<!-- Node3 -->
<g id="node3" class="node"><title>Node3</title>
<g id="a_node3"><a xlink:href="../../d6/dc7/class_j_s_o_n_node.html#a5b2d8892d68aa1d9ed2b051424081f74" target="_top" xlink:title="JSONNode::write_formatted">
<polygon fill="white" stroke="black" points="184,-52.5 184,-73.5 348,-73.5 348,-52.5 184,-52.5"/>
<text text-anchor="middle" x="266" y="-59.9" font-family="Helvetica,sans-Serif" font-size="12.00">JSONNode::write_formatted</text>
</a>
</g>
</g>
<!-- Node1&#45;&gt;Node3 -->
<g id="edge2" class="edge"><title>Node1&#45;&gt;Node3</title>
<path fill="none" stroke="midnightblue" d="M158.16,-74.2463C166.721,-73.3452 175.412,-72.4303 183.949,-71.5317"/>
<polygon fill="midnightblue" stroke="midnightblue" points="157.766,-70.7684 148.187,-75.2961 158.499,-77.7299 157.766,-70.7684"/>
</g>
<!-- Node4 -->
<g id="node4" class="node"><title>Node4</title>
<g id="a_node4"><a xlink:href="../../d3/d71/jsonhelpers_8h.html#a3a69c2987d346d326aeffb52183db0f4" target="_top" xlink:title="prepareTestSettings">
<polygon fill="white" stroke="black" points="384.5,-52.5 384.5,-73.5 507.5,-73.5 507.5,-52.5 384.5,-52.5"/>
<text text-anchor="middle" x="446" y="-59.9" font-family="Helvetica,sans-Serif" font-size="12.00">prepareTestSettings</text>
</a>
</g>
</g>
<!-- Node3&#45;&gt;Node4 -->
<g id="edge3" class="edge"><title>Node3&#45;&gt;Node4</title>
<path fill="none" stroke="midnightblue" d="M358.216,-63C367.104,-63 375.963,-63 384.437,-63"/>
<polygon fill="midnightblue" stroke="midnightblue" points="358.187,-59.5001 348.187,-63 358.187,-66.5001 358.187,-59.5001"/>
</g>
<!-- Node5 -->
<g id="node5" class="node"><title>Node5</title>
<g id="a_node5"><a xlink:href="../../da/d92/class_image_test.html#a7334d76c1cc6780f46626be5b9ff1adb" target="_top" xlink:title="Runs the test pointed to by m_imatestFunc. ">
<polygon fill="white" stroke="black" points="544,-52.5 544,-73.5 642,-73.5 642,-52.5 544,-52.5"/>
<text text-anchor="middle" x="593" y="-59.9" font-family="Helvetica,sans-Serif" font-size="12.00">ImageTest::Run</text>
</a>
</g>
</g>
<!-- Node4&#45;&gt;Node5 -->
<g id="edge4" class="edge"><title>Node4&#45;&gt;Node5</title>
<path fill="none" stroke="midnightblue" d="M517.657,-63C526.557,-63 535.494,-63 543.931,-63"/>
<polygon fill="midnightblue" stroke="midnightblue" points="517.653,-59.5001 507.653,-63 517.653,-66.5001 517.653,-59.5001"/>
</g>
<!-- Node6 -->
<g id="node6" class="node"><title>Node6</title>
<g id="a_node6"><a xlink:href="../../da/d92/class_image_test.html#accf2cfff6fe48fd19888727208dd6728" target="_top" xlink:title="ImageTest::Run">
<polygon fill="white" stroke="black" points="699,-72.5 699,-93.5 797,-93.5 797,-72.5 699,-72.5"/>
<text text-anchor="middle" x="748" y="-79.9" font-family="Helvetica,sans-Serif" font-size="12.00">ImageTest::Run</text>
</a>
</g>
</g>
<!-- Node5&#45;&gt;Node6 -->
<g id="edge5" class="edge"><title>Node5&#45;&gt;Node6</title>
<path fill="none" stroke="midnightblue" d="M652.338,-70.6259C667.716,-72.6361 684.134,-74.7822 698.905,-76.713"/>
<polygon fill="midnightblue" stroke="midnightblue" points="652.779,-67.1539 642.41,-69.3281 651.872,-74.0948 652.779,-67.1539"/>
</g>
<!-- Node7 -->
<g id="node7" class="node"><title>Node7</title>
<g id="a_node7"><a xlink:href="../../da/d92/class_image_test.html#a372478d09c06cd7ab3684840add6215e" target="_top" xlink:title="param must be a pointer to a ThreadControl object; param&#45;&gt;m_data must point to an ImageTest object ...">
<polygon fill="white" stroke="black" points="678.5,-32.5 678.5,-53.5 817.5,-53.5 817.5,-32.5 678.5,-32.5"/>
<text text-anchor="middle" x="748" y="-39.9" font-family="Helvetica,sans-Serif" font-size="12.00">ImageTest::ThreadProc</text>
</a>
</g>
</g>
<!-- Node5&#45;&gt;Node7 -->
<g id="edge6" class="edge"><title>Node5&#45;&gt;Node7</title>
<path fill="none" stroke="midnightblue" d="M652.571,-55.3437C661.052,-54.2351 669.845,-53.0857 678.499,-51.9543"/>
<polygon fill="midnightblue" stroke="midnightblue" points="651.872,-51.9052 642.41,-56.6719 652.779,-58.8461 651.872,-51.9052"/>
</g>
<!-- Node8 -->
<g id="node8" class="node"><title>Node8</title>
<g id="a_node8"><a xlink:href="../../d3/d9f/class_c_operator_console_app.html#a51ad7e6e8f370072c3e89d0d7e9e41a8" target="_top" xlink:title="COperatorConsoleApp\l::InitBlemishThread">
<polygon fill="white" stroke="black" points="854.5,-53 854.5,-87 991.5,-87 991.5,-53 854.5,-53"/>
<text text-anchor="start" x="862.5" y="-73.4" font-family="Helvetica,sans-Serif" font-size="12.00">COperatorConsoleApp</text>
<text text-anchor="middle" x="923" y="-60.4" font-family="Helvetica,sans-Serif" font-size="12.00">::InitBlemishThread</text>
</a>
</g>
</g>
<!-- Node7&#45;&gt;Node8 -->
<g id="edge7" class="edge"><title>Node7&#45;&gt;Node8</title>
<path fill="none" stroke="midnightblue" d="M826.382,-55.077C835.669,-56.5264 845.097,-57.9978 854.233,-59.4236"/>
<polygon fill="midnightblue" stroke="midnightblue" points="826.802,-51.6002 816.382,-53.5162 825.722,-58.5165 826.802,-51.6002"/>
</g>
<!-- Node14 -->
<g id="node14" class="node"><title>Node14</title>
<g id="a_node14"><a xlink:href="../../d3/d9f/class_c_operator_console_app.html#af7328d2c00abb1d4a09a65492c69b2b0" target="_top" xlink:title="COperatorConsoleApp\l::InitSFRplusThread">
<polygon fill="white" stroke="black" points="854.5,-0 854.5,-34 991.5,-34 991.5,-0 854.5,-0"/>
<text text-anchor="start" x="862.5" y="-20.4" font-family="Helvetica,sans-Serif" font-size="12.00">COperatorConsoleApp</text>
<text text-anchor="middle" x="923" y="-7.4" font-family="Helvetica,sans-Serif" font-size="12.00">::InitSFRplusThread</text>
</a>
</g>
</g>
<!-- Node7&#45;&gt;Node14 -->
<g id="edge13" class="edge"><title>Node7&#45;&gt;Node14</title>
<path fill="none" stroke="midnightblue" d="M827.852,-31.1494C836.751,-29.812 845.759,-28.4583 854.494,-27.1454"/>
<polygon fill="midnightblue" stroke="midnightblue" points="827.24,-27.702 817.871,-32.6494 828.28,-34.6243 827.24,-27.702"/>
</g>
<!-- Node9 -->
<g id="node9" class="node"><title>Node9</title>
<g id="a_node9"><a xlink:href="../../d3/d9f/class_c_operator_console_app.html#a7f0cd7b21cee2171dea973e4e6e7bb9d" target="_top" xlink:title="Init perform application&#45;specific initialization. ">
<polygon fill="white" stroke="black" points="1028.5,-53 1028.5,-87 1165.5,-87 1165.5,-53 1028.5,-53"/>
<text text-anchor="start" x="1036.5" y="-73.4" font-family="Helvetica,sans-Serif" font-size="12.00">COperatorConsoleApp</text>
<text text-anchor="middle" x="1097" y="-60.4" font-family="Helvetica,sans-Serif" font-size="12.00">::Init</text>
</a>
</g>
</g>
<!-- Node8&#45;&gt;Node9 -->
<g id="edge8" class="edge"><title>Node8&#45;&gt;Node9</title>
<path fill="none" stroke="midnightblue" d="M1002.13,-70C1010.85,-70 1019.67,-70 1028.23,-70"/>
<polygon fill="midnightblue" stroke="midnightblue" points="1001.98,-66.5001 991.979,-70 1001.98,-73.5001 1001.98,-66.5001"/>
</g>
<!-- Node11 -->
<g id="node11" class="node"><title>Node11</title>
<g id="a_node11"><a xlink:href="../../d3/d9f/class_c_operator_console_app.html#aede77af6cae8053d49c752fd95910728" target="_top" xlink:title="This function allows for reallocation of the various image buffers when we change the image size...">
<polygon fill="white" stroke="black" points="1028.5,-0 1028.5,-34 1165.5,-34 1165.5,-0 1028.5,-0"/>
<text text-anchor="start" x="1036.5" y="-20.4" font-family="Helvetica,sans-Serif" font-size="12.00">COperatorConsoleApp</text>
<text text-anchor="middle" x="1097" y="-7.4" font-family="Helvetica,sans-Serif" font-size="12.00">::ReInit</text>
</a>
</g>
</g>
<!-- Node8&#45;&gt;Node11 -->
<g id="edge10" class="edge"><title>Node8&#45;&gt;Node11</title>
<path fill="none" stroke="midnightblue" d="M989.212,-49.9056C1006.19,-44.6732 1024.32,-39.0863 1040.74,-34.0293"/>
<polygon fill="midnightblue" stroke="midnightblue" points="987.895,-46.6491 979.369,-52.9387 989.956,-53.3387 987.895,-46.6491"/>
</g>
<!-- Node10 -->
<g id="node10" class="node"><title>Node10</title>
<g id="a_node10"><a xlink:href="../../d3/d9f/class_c_operator_console_app.html#a94f4b258145e77e31644beb999bf099a" target="_top" xlink:title="COperatorConsoleApp initialization. ">
<polygon fill="white" stroke="black" points="1202.5,-53 1202.5,-87 1339.5,-87 1339.5,-53 1202.5,-53"/>
<text text-anchor="start" x="1210.5" y="-73.4" font-family="Helvetica,sans-Serif" font-size="12.00">COperatorConsoleApp</text>
<text text-anchor="middle" x="1271" y="-60.4" font-family="Helvetica,sans-Serif" font-size="12.00">::InitInstance</text>
</a>
</g>
</g>
<!-- Node9&#45;&gt;Node10 -->
<g id="edge9" class="edge"><title>Node9&#45;&gt;Node10</title>
<path fill="none" stroke="midnightblue" d="M1176.13,-70C1184.85,-70 1193.67,-70 1202.23,-70"/>
<polygon fill="midnightblue" stroke="midnightblue" points="1175.98,-66.5001 1165.98,-70 1175.98,-73.5001 1175.98,-66.5001"/>
</g>
<!-- Node12 -->
<g id="node12" class="node"><title>Node12</title>
<g id="a_node12"><a xlink:href="../../d3/d9f/class_c_operator_console_app.html#a620f8d2eed65d743bb177abcb90936e6" target="_top" xlink:title="Called after MSG_SETUP is received. ">
<polygon fill="white" stroke="black" points="1202.5,-0 1202.5,-34 1339.5,-34 1339.5,-0 1202.5,-0"/>
<text text-anchor="start" x="1210.5" y="-20.4" font-family="Helvetica,sans-Serif" font-size="12.00">COperatorConsoleApp</text>
<text text-anchor="middle" x="1271" y="-7.4" font-family="Helvetica,sans-Serif" font-size="12.00">::OnSetup</text>
</a>
</g>
</g>
<!-- Node11&#45;&gt;Node12 -->
<g id="edge11" class="edge"><title>Node11&#45;&gt;Node12</title>
<path fill="none" stroke="midnightblue" d="M1176.13,-17C1184.85,-17 1193.67,-17 1202.23,-17"/>
<polygon fill="midnightblue" stroke="midnightblue" points="1175.98,-13.5001 1165.98,-17 1175.98,-20.5001 1175.98,-13.5001"/>
</g>
<!-- Node13 -->
<g id="node13" class="node"><title>Node13</title>
<g id="a_node13"><a xlink:href="../../d3/d9f/class_c_operator_console_app.html#a7041d197c4e6549f2cb7219981b4eec1" target="_top" xlink:title="Intercepts messages of interest before Windows or MFC. ">
<polygon fill="white" stroke="black" points="1376,-0 1376,-34 1514,-34 1514,-0 1376,-0"/>
<text text-anchor="start" x="1384" y="-20.4" font-family="Helvetica,sans-Serif" font-size="12.00">COperatorConsoleApp</text>
<text text-anchor="middle" x="1445" y="-7.4" font-family="Helvetica,sans-Serif" font-size="12.00">::PreTranslateMessage</text>
</a>
</g>
</g>
<!-- Node12&#45;&gt;Node13 -->
<g id="edge12" class="edge"><title>Node12&#45;&gt;Node13</title>
<path fill="none" stroke="midnightblue" d="M1350.05,-17C1358.7,-17 1367.45,-17 1375.95,-17"/>
<polygon fill="midnightblue" stroke="midnightblue" points="1349.98,-13.5001 1339.98,-17 1349.98,-20.5001 1349.98,-13.5001"/>
</g>
<!-- Node14&#45;&gt;Node9 -->
<g id="edge14" class="edge"><title>Node14&#45;&gt;Node9</title>
<path fill="none" stroke="midnightblue" d="M989.212,-37.0944C1006.19,-42.3268 1024.32,-47.9137 1040.74,-52.9707"/>
<polygon fill="midnightblue" stroke="midnightblue" points="989.956,-33.6613 979.369,-34.0613 987.895,-40.3509 989.956,-33.6613"/>
</g>
<!-- Node14&#45;&gt;Node11 -->
<g id="edge15" class="edge"><title>Node14&#45;&gt;Node11</title>
<path fill="none" stroke="midnightblue" d="M1002.13,-17C1010.85,-17 1019.67,-17 1028.23,-17"/>
<polygon fill="midnightblue" stroke="midnightblue" points="1001.98,-13.5001 991.979,-17 1001.98,-20.5001 1001.98,-13.5001"/>
</g>
</g>
</svg>
