<?xml version="1.0" encoding="UTF-8" standalone="no"?>
<!DOCTYPE svg PUBLIC "-//W3C//DTD SVG 1.1//EN"
 "http://www.w3.org/Graphics/SVG/1.1/DTD/svg11.dtd">
<!-- Generated by graphviz version 2.34.0 (20130907.0111)
 -->
<!-- Title: internalJSONNode::empty Pages: 1 -->
<svg width="1056pt" height="267pt"
 viewBox="0.00 0.00 1056.00 267.00" xmlns="http://www.w3.org/2000/svg" xmlns:xlink="http://www.w3.org/1999/xlink">
<g id="graph0" class="graph" transform="scale(1 1) rotate(0) translate(4 263)">
<title>internalJSONNode::empty</title>
<polygon fill="white" stroke="white" points="-4,4 -4,-263 1052,-263 1052,4 -4,4"/>
<!-- Node1 -->
<g id="node1" class="node"><title>Node1</title>
<polygon fill="#bfbfbf" stroke="black" points="0,-118.5 0,-139.5 152,-139.5 152,-118.5 0,-118.5"/>
<text text-anchor="middle" x="76" y="-125.9" font-family="Helvetica,sans-Serif" font-size="12.00">internalJSONNode::empty</text>
</g>
<!-- Node2 -->
<g id="node2" class="node"><title>Node2</title>
<g id="a_node2"><a xlink:href="../../d1/d0b/classinternal_j_s_o_n_node.html#a2dba04775883475a7624257a82d1cac9" target="_top" xlink:title="internalJSONNode::Fetch">
<polygon fill="white" stroke="black" points="212.5,-138.5 212.5,-159.5 361.5,-159.5 361.5,-138.5 212.5,-138.5"/>
<text text-anchor="middle" x="287" y="-145.9" font-family="Helvetica,sans-Serif" font-size="12.00">internalJSONNode::Fetch</text>
</a>
</g>
</g>
<!-- Node1&#45;&gt;Node2 -->
<g id="edge1" class="edge"><title>Node1&#45;&gt;Node2</title>
<path fill="none" stroke="midnightblue" d="M152.159,-136.192C168.343,-137.741 185.549,-139.388 202.045,-140.966"/>
<polygon fill="midnightblue" stroke="midnightblue" points="201.92,-144.47 212.208,-141.939 202.587,-137.502 201.92,-144.47"/>
</g>
<!-- Node14 -->
<g id="node14" class="node"><title>Node14</title>
<g id="a_node14"><a xlink:href="../../d1/d0b/classinternal_j_s_o_n_node.html#a10b7b6dcde7ed6d08c9e1979496e9b92" target="_top" xlink:title="internalJSONNode::isNotContainer">
<polygon fill="white" stroke="black" points="188,-98.5 188,-119.5 386,-119.5 386,-98.5 188,-98.5"/>
<text text-anchor="middle" x="287" y="-105.9" font-family="Helvetica,sans-Serif" font-size="12.00">internalJSONNode::isNotContainer</text>
</a>
</g>
</g>
<!-- Node1&#45;&gt;Node14 -->
<g id="edge19" class="edge"><title>Node1&#45;&gt;Node14</title>
<path fill="none" stroke="midnightblue" d="M152.159,-121.808C160.486,-121.011 169.084,-120.188 177.716,-119.362"/>
<polygon fill="midnightblue" stroke="midnightblue" points="178.23,-122.829 187.851,-118.392 177.563,-115.861 178.23,-122.829"/>
</g>
<!-- Node3 -->
<g id="node3" class="node"><title>Node3</title>
<g id="a_node3"><a xlink:href="../../d1/d0b/classinternal_j_s_o_n_node.html#a924514c9b1dbec1f779d8294371c0033" target="_top" xlink:title="internalJSONNode::type">
<polygon fill="white" stroke="black" points="441,-237.5 441,-258.5 583,-258.5 583,-237.5 441,-237.5"/>
<text text-anchor="middle" x="512" y="-244.9" font-family="Helvetica,sans-Serif" font-size="12.00">internalJSONNode::type</text>
</a>
</g>
</g>
<!-- Node2&#45;&gt;Node3 -->
<g id="edge2" class="edge"><title>Node2&#45;&gt;Node3</title>
<path fill="none" stroke="midnightblue" d="M302.485,-159.616C326.253,-176.545 375.545,-209.614 422,-228 428.332,-230.506 435.048,-232.735 441.84,-234.708"/>
<polygon fill="midnightblue" stroke="midnightblue" points="441.242,-238.172 451.81,-237.419 443.079,-231.418 441.242,-238.172"/>
</g>
<!-- Node4 -->
<g id="node4" class="node"><title>Node4</title>
<g id="a_node4"><a xlink:href="../../d1/d0b/classinternal_j_s_o_n_node.html#a40ace389d49c93b870ce3a0aaab70640" target="_top" xlink:title="internalJSONNode::FetchString">
<polygon fill="white" stroke="black" points="422,-119.5 422,-140.5 602,-140.5 602,-119.5 422,-119.5"/>
<text text-anchor="middle" x="512" y="-126.9" font-family="Helvetica,sans-Serif" font-size="12.00">internalJSONNode::FetchString</text>
</a>
</g>
</g>
<!-- Node2&#45;&gt;Node4 -->
<g id="edge3" class="edge"><title>Node2&#45;&gt;Node4</title>
<path fill="none" stroke="midnightblue" d="M361.637,-142.726C377.606,-141.365 394.751,-139.905 411.528,-138.475"/>
<polygon fill="midnightblue" stroke="midnightblue" points="412.246,-141.927 421.913,-137.59 411.652,-134.952 412.246,-141.927"/>
</g>
<!-- Node5 -->
<g id="node5" class="node"><title>Node5</title>
<g id="a_node5"><a xlink:href="../../d1/d0b/classinternal_j_s_o_n_node.html#a9a3f9f79800b6141150dde72a55c0060" target="_top" xlink:title="internalJSONNode::Nullify">
<polygon fill="white" stroke="black" points="659,-158.5 659,-179.5 809,-179.5 809,-158.5 659,-158.5"/>
<text text-anchor="middle" x="734" y="-165.9" font-family="Helvetica,sans-Serif" font-size="12.00">internalJSONNode::Nullify</text>
</a>
</g>
</g>
<!-- Node2&#45;&gt;Node5 -->
<g id="edge18" class="edge"><title>Node2&#45;&gt;Node5</title>
<path fill="none" stroke="midnightblue" d="M361.732,-152.314C440.691,-155.863 565.779,-161.484 648.615,-165.207"/>
<polygon fill="midnightblue" stroke="midnightblue" points="648.606,-168.71 658.753,-165.663 648.921,-161.718 648.606,-168.71"/>
</g>
<!-- Node9 -->
<g id="node9" class="node"><title>Node9</title>
<g id="a_node9"><a xlink:href="../../d1/d0b/classinternal_j_s_o_n_node.html#a69dde8286881b07590238abf1d91a245" target="_top" xlink:title="internalJSONNode::FetchNode">
<polygon fill="white" stroke="black" points="423,-197.5 423,-218.5 601,-218.5 601,-197.5 423,-197.5"/>
<text text-anchor="middle" x="512" y="-204.9" font-family="Helvetica,sans-Serif" font-size="12.00">internalJSONNode::FetchNode</text>
</a>
</g>
</g>
<!-- Node2&#45;&gt;Node9 -->
<g id="edge8" class="edge"><title>Node2&#45;&gt;Node9</title>
<path fill="none" stroke="midnightblue" d="M327.868,-159.548C365.172,-169.418 421.026,-184.195 461.237,-194.834"/>
<polygon fill="midnightblue" stroke="midnightblue" points="460.539,-198.27 471.102,-197.444 462.33,-191.503 460.539,-198.27"/>
</g>
<!-- Node11 -->
<g id="node11" class="node"><title>Node11</title>
<g id="a_node11"><a xlink:href="../../d1/d0b/classinternal_j_s_o_n_node.html#a59d6db90025af648ee5f556e15242e00" target="_top" xlink:title="internalJSONNode::FetchArray">
<polygon fill="white" stroke="black" points="423.5,-79.5 423.5,-100.5 600.5,-100.5 600.5,-79.5 423.5,-79.5"/>
<text text-anchor="middle" x="512" y="-86.9" font-family="Helvetica,sans-Serif" font-size="12.00">internalJSONNode::FetchArray</text>
</a>
</g>
</g>
<!-- Node2&#45;&gt;Node11 -->
<g id="edge12" class="edge"><title>Node2&#45;&gt;Node11</title>
<path fill="none" stroke="midnightblue" d="M353.029,-138.44C364.179,-135.864 375.536,-132.742 386,-129 403.035,-122.908 405.026,-116.26 422,-110 428.844,-107.476 436.107,-105.212 443.416,-103.198"/>
<polygon fill="midnightblue" stroke="midnightblue" points="444.581,-106.511 453.376,-100.604 442.817,-99.7371 444.581,-106.511"/>
</g>
<!-- Node13 -->
<g id="node13" class="node"><title>Node13</title>
<g id="a_node13"><a xlink:href="../../d1/d0b/classinternal_j_s_o_n_node.html#aec946311873984a1b810ecb7a4e3d480" target="_top" xlink:title="internalJSONNode::FetchNumber">
<polygon fill="white" stroke="black" points="638.5,-0.5 638.5,-21.5 829.5,-21.5 829.5,-0.5 638.5,-0.5"/>
<text text-anchor="middle" x="734" y="-7.9" font-family="Helvetica,sans-Serif" font-size="12.00">internalJSONNode::FetchNumber</text>
</a>
</g>
</g>
<!-- Node2&#45;&gt;Node13 -->
<g id="edge16" class="edge"><title>Node2&#45;&gt;Node13</title>
<path fill="none" stroke="midnightblue" d="M361.686,-140.94C370.341,-138.019 378.681,-134.139 386,-129 411.141,-111.349 396.738,-87.4766 422,-70 482.06,-28.45 563.57,-14.1389 628.076,-9.98343"/>
<polygon fill="midnightblue" stroke="midnightblue" points="628.493,-13.4654 638.277,-9.4011 628.094,-6.47682 628.493,-13.4654"/>
</g>
<!-- Node4&#45;&gt;Node5 -->
<g id="edge4" class="edge"><title>Node4&#45;&gt;Node5</title>
<path fill="none" stroke="midnightblue" d="M572.245,-140.503C600.365,-145.487 634.152,-151.477 663.478,-156.676"/>
<polygon fill="midnightblue" stroke="midnightblue" points="663.191,-160.179 673.649,-158.479 664.413,-153.287 663.191,-160.179"/>
</g>
<!-- Node8 -->
<g id="node8" class="node"><title>Node8</title>
<g id="a_node8"><a xlink:href="../../d7/d6f/class_j_s_o_n_worker.html#ab473775a73ea206263df728a421944da" target="_top" xlink:title="JSONWorker::FixString">
<polygon fill="white" stroke="black" points="664.5,-118.5 664.5,-139.5 803.5,-139.5 803.5,-118.5 664.5,-118.5"/>
<text text-anchor="middle" x="734" y="-125.9" font-family="Helvetica,sans-Serif" font-size="12.00">JSONWorker::FixString</text>
</a>
</g>
</g>
<!-- Node4&#45;&gt;Node8 -->
<g id="edge7" class="edge"><title>Node4&#45;&gt;Node8</title>
<path fill="none" stroke="midnightblue" d="M602.165,-129.595C619.328,-129.517 637.193,-129.435 654.006,-129.359"/>
<polygon fill="midnightblue" stroke="midnightblue" points="654.339,-132.858 664.323,-129.312 654.307,-125.858 654.339,-132.858"/>
</g>
<!-- Node6 -->
<g id="node6" class="node"><title>Node6</title>
<g id="a_node6"><a xlink:href="../../d1/da6/_documentation_2_operator-_console_2_j_s_o_n_2_j_s_o_n_memory_8h.html#a8f88e025f043e8c423c6ddc3c887600b" target="_top" xlink:title="clearString">
<polygon fill="white" stroke="black" points="920.5,-98.5 920.5,-119.5 993.5,-119.5 993.5,-98.5 920.5,-98.5"/>
<text text-anchor="middle" x="957" y="-105.9" font-family="Helvetica,sans-Serif" font-size="12.00">clearString</text>
</a>
</g>
</g>
<!-- Node5&#45;&gt;Node6 -->
<g id="edge5" class="edge"><title>Node5&#45;&gt;Node6</title>
<path fill="none" stroke="midnightblue" d="M789.727,-158.454C802.971,-155.633 817.042,-152.412 830,-149 859.065,-141.347 891.366,-131.057 915.986,-122.83"/>
<polygon fill="midnightblue" stroke="midnightblue" points="917.337,-126.068 925.696,-119.559 915.102,-119.434 917.337,-126.068"/>
</g>
<!-- Node7 -->
<g id="node7" class="node"><title>Node7</title>
<g id="a_node7"><a xlink:href="../../d1/d0b/classinternal_j_s_o_n_node.html#a5f943a59b0e0e3a4e88f34dfeee6a922" target="_top" xlink:title="internalJSONNode::SetFetched">
<polygon fill="white" stroke="black" points="866.5,-158.5 866.5,-179.5 1047.5,-179.5 1047.5,-158.5 866.5,-158.5"/>
<text text-anchor="middle" x="957" y="-165.9" font-family="Helvetica,sans-Serif" font-size="12.00">internalJSONNode::SetFetched</text>
</a>
</g>
</g>
<!-- Node5&#45;&gt;Node7 -->
<g id="edge6" class="edge"><title>Node5&#45;&gt;Node7</title>
<path fill="none" stroke="midnightblue" d="M809.205,-169C824.223,-169 840.247,-169 855.985,-169"/>
<polygon fill="midnightblue" stroke="midnightblue" points="856.273,-172.5 866.273,-169 856.273,-165.5 856.273,-172.5"/>
</g>
<!-- Node9&#45;&gt;Node5 -->
<g id="edge9" class="edge"><title>Node9&#45;&gt;Node5</title>
<path fill="none" stroke="midnightblue" d="M572.245,-197.497C600.365,-192.513 634.152,-186.523 663.478,-181.324"/>
<polygon fill="midnightblue" stroke="midnightblue" points="664.413,-184.713 673.649,-179.521 663.191,-177.821 664.413,-184.713"/>
</g>
<!-- Node9&#45;&gt;Node6 -->
<g id="edge11" class="edge"><title>Node9&#45;&gt;Node6</title>
<path fill="none" stroke="midnightblue" d="M583.569,-218.528C650.457,-225.201 752.017,-226.566 830,-189 851.548,-178.62 846.647,-163.054 866,-149 880.551,-138.433 898.336,-129.797 914.242,-123.289"/>
<polygon fill="midnightblue" stroke="midnightblue" points="915.828,-126.427 923.858,-119.514 913.27,-119.911 915.828,-126.427"/>
</g>
<!-- Node10 -->
<g id="node10" class="node"><title>Node10</title>
<g id="a_node10"><a xlink:href="../../d7/d6f/class_j_s_o_n_worker.html#a6e6a8187072b0686575d532c6e8ea794" target="_top" xlink:title="JSONWorker::DoNode">
<polygon fill="white" stroke="black" points="665.5,-236.5 665.5,-257.5 802.5,-257.5 802.5,-236.5 665.5,-236.5"/>
<text text-anchor="middle" x="734" y="-243.9" font-family="Helvetica,sans-Serif" font-size="12.00">JSONWorker::DoNode</text>
</a>
</g>
</g>
<!-- Node9&#45;&gt;Node10 -->
<g id="edge10" class="edge"><title>Node9&#45;&gt;Node10</title>
<path fill="none" stroke="midnightblue" d="M572.245,-218.503C600.365,-223.487 634.152,-229.477 663.478,-234.676"/>
<polygon fill="midnightblue" stroke="midnightblue" points="663.191,-238.179 673.649,-236.479 664.413,-231.287 663.191,-238.179"/>
</g>
<!-- Node11&#45;&gt;Node5 -->
<g id="edge13" class="edge"><title>Node11&#45;&gt;Node5</title>
<path fill="none" stroke="midnightblue" d="M580.746,-100.632C588.171,-103.125 595.415,-106.202 602,-110 622.433,-121.787 617.487,-137.352 638,-149 641.898,-151.213 646.011,-153.183 650.252,-154.935"/>
<polygon fill="midnightblue" stroke="midnightblue" points="649.117,-158.246 659.71,-158.434 651.546,-151.681 649.117,-158.246"/>
</g>
<!-- Node11&#45;&gt;Node6 -->
<g id="edge15" class="edge"><title>Node11&#45;&gt;Node6</title>
<path fill="none" stroke="midnightblue" d="M600.523,-93.7538C693.653,-97.7481 837.398,-103.913 910.274,-107.039"/>
<polygon fill="midnightblue" stroke="midnightblue" points="910.357,-110.546 920.498,-107.477 910.657,-103.552 910.357,-110.546"/>
</g>
<!-- Node12 -->
<g id="node12" class="node"><title>Node12</title>
<g id="a_node12"><a xlink:href="../../d7/d6f/class_j_s_o_n_worker.html#a396aabc632272b5534353d4632bf849b" target="_top" xlink:title="JSONWorker::DoArray">
<polygon fill="white" stroke="black" points="666,-40.5 666,-61.5 802,-61.5 802,-40.5 666,-40.5"/>
<text text-anchor="middle" x="734" y="-47.9" font-family="Helvetica,sans-Serif" font-size="12.00">JSONWorker::DoArray</text>
</a>
</g>
</g>
<!-- Node11&#45;&gt;Node12 -->
<g id="edge14" class="edge"><title>Node11&#45;&gt;Node12</title>
<path fill="none" stroke="midnightblue" d="M572.245,-79.4974C600.365,-74.5126 634.152,-68.5231 663.478,-63.3243"/>
<polygon fill="midnightblue" stroke="midnightblue" points="664.413,-66.7132 673.649,-61.5213 663.191,-59.8207 664.413,-66.7132"/>
</g>
<!-- Node13&#45;&gt;Node6 -->
<g id="edge17" class="edge"><title>Node13&#45;&gt;Node6</title>
<path fill="none" stroke="midnightblue" d="M800.028,-21.5445C810.236,-24.0931 820.534,-27.2092 830,-31 869.352,-46.7587 910.243,-74.5431 934.391,-92.3455"/>
<polygon fill="midnightblue" stroke="midnightblue" points="932.393,-95.2218 942.496,-98.4118 936.588,-89.6177 932.393,-95.2218"/>
</g>
</g>
</svg>
