<?xml version="1.0" encoding="UTF-8" standalone="no"?>
<!DOCTYPE svg PUBLIC "-//W3C//DTD SVG 1.1//EN"
 "http://www.w3.org/Graphics/SVG/1.1/DTD/svg11.dtd">
<!-- Generated by graphviz version 2.34.0 (20130907.0111)
 -->
<!-- Title: internalJSONNode::type Pages: 1 -->
<svg width="1560pt" height="282pt"
 viewBox="0.00 0.00 1560.00 282.00" xmlns="http://www.w3.org/2000/svg" xmlns:xlink="http://www.w3.org/1999/xlink">
<g id="graph0" class="graph" transform="scale(1 1) rotate(0) translate(4 278)">
<title>internalJSONNode::type</title>
<polygon fill="white" stroke="white" points="-4,4 -4,-278 1556,-278 1556,4 -4,4"/>
<!-- Node1 -->
<g id="node1" class="node"><title>Node1</title>
<polygon fill="#bfbfbf" stroke="black" points="0,-107.5 0,-128.5 142,-128.5 142,-107.5 0,-107.5"/>
<text text-anchor="middle" x="71" y="-114.9" font-family="Helvetica,sans-Serif" font-size="12.00">internalJSONNode::type</text>
</g>
<!-- Node2 -->
<g id="node2" class="node"><title>Node2</title>
<g id="a_node2"><a xlink:href="../../d1/d0b/classinternal_j_s_o_n_node.html#a2dba04775883475a7624257a82d1cac9" target="_top" xlink:title="internalJSONNode::Fetch">
<polygon fill="white" stroke="black" points="185.5,-167.5 185.5,-188.5 334.5,-188.5 334.5,-167.5 185.5,-167.5"/>
<text text-anchor="middle" x="260" y="-174.9" font-family="Helvetica,sans-Serif" font-size="12.00">internalJSONNode::Fetch</text>
</a>
</g>
</g>
<!-- Node1&#45;&gt;Node2 -->
<g id="edge1" class="edge"><title>Node1&#45;&gt;Node2</title>
<path fill="none" stroke="midnightblue" d="M114.614,-131.673C148.426,-142.522 195.005,-157.467 226.015,-167.416"/>
<polygon fill="midnightblue" stroke="midnightblue" points="115.593,-128.311 105.001,-128.589 113.454,-134.977 115.593,-128.311"/>
</g>
<!-- Node8 -->
<g id="node8" class="node"><title>Node8</title>
<g id="a_node8"><a xlink:href="../../d6/dc7/class_j_s_o_n_node.html#a9d1b523535c54c224ca16e1ced20a27c" target="_top" xlink:title="JSONNode::write">
<polygon fill="white" stroke="black" points="206.5,-107.5 206.5,-128.5 313.5,-128.5 313.5,-107.5 206.5,-107.5"/>
<text text-anchor="middle" x="260" y="-114.9" font-family="Helvetica,sans-Serif" font-size="12.00">JSONNode::write</text>
</a>
</g>
</g>
<!-- Node1&#45;&gt;Node8 -->
<g id="edge7" class="edge"><title>Node1&#45;&gt;Node8</title>
<path fill="none" stroke="midnightblue" d="M152.23,-118C170.511,-118 189.481,-118 206.271,-118"/>
<polygon fill="midnightblue" stroke="midnightblue" points="152.164,-114.5 142.164,-118 152.164,-121.5 152.164,-114.5"/>
</g>
<!-- Node9 -->
<g id="node9" class="node"><title>Node9</title>
<g id="a_node9"><a xlink:href="../../d6/dc7/class_j_s_o_n_node.html#a5b2d8892d68aa1d9ed2b051424081f74" target="_top" xlink:title="JSONNode::write_formatted">
<polygon fill="white" stroke="black" points="178,-57.5 178,-78.5 342,-78.5 342,-57.5 178,-57.5"/>
<text text-anchor="middle" x="260" y="-64.9" font-family="Helvetica,sans-Serif" font-size="12.00">JSONNode::write_formatted</text>
</a>
</g>
</g>
<!-- Node1&#45;&gt;Node9 -->
<g id="edge8" class="edge"><title>Node1&#45;&gt;Node9</title>
<path fill="none" stroke="midnightblue" d="M121.324,-104.812C152.066,-96.5921 191.079,-86.1607 219.72,-78.5026"/>
<polygon fill="midnightblue" stroke="midnightblue" points="120.414,-101.432 111.658,-107.396 122.223,-108.194 120.414,-101.432"/>
</g>
<!-- Node3 -->
<g id="node3" class="node"><title>Node3</title>
<g id="a_node3"><a xlink:href="../../d1/d0b/classinternal_j_s_o_n_node.html#a83b24cb2bbdac4b1a1a532c44ffd397f" target="_top" xlink:title="internalJSONNode::begin">
<polygon fill="white" stroke="black" points="387.5,-132.5 387.5,-153.5 536.5,-153.5 536.5,-132.5 387.5,-132.5"/>
<text text-anchor="middle" x="462" y="-139.9" font-family="Helvetica,sans-Serif" font-size="12.00">internalJSONNode::begin</text>
</a>
</g>
</g>
<!-- Node2&#45;&gt;Node3 -->
<g id="edge2" class="edge"><title>Node2&#45;&gt;Node3</title>
<path fill="none" stroke="midnightblue" d="M330.936,-165.761C353.68,-161.781 378.712,-157.4 400.69,-153.554"/>
<polygon fill="midnightblue" stroke="midnightblue" points="330.254,-162.327 321.007,-167.499 331.46,-169.223 330.254,-162.327"/>
</g>
<!-- Node4 -->
<g id="node4" class="node"><title>Node4</title>
<g id="a_node4"><a xlink:href="../../d1/d0b/classinternal_j_s_o_n_node.html#accd95751fc868a0f19530f0eeba1d09b" target="_top" xlink:title="internalJSONNode::empty">
<polygon fill="white" stroke="black" points="386,-92.5 386,-113.5 538,-113.5 538,-92.5 386,-92.5"/>
<text text-anchor="middle" x="462" y="-99.9" font-family="Helvetica,sans-Serif" font-size="12.00">internalJSONNode::empty</text>
</a>
</g>
</g>
<!-- Node2&#45;&gt;Node4 -->
<g id="edge3" class="edge"><title>Node2&#45;&gt;Node4</title>
<path fill="none" stroke="midnightblue" d="M291.4,-162.849C320.097,-148.706 361.163,-128.917 378,-123 388.208,-119.413 399.344,-116.245 410.047,-113.549"/>
<polygon fill="midnightblue" stroke="midnightblue" points="289.608,-159.831 282.195,-167.401 292.711,-166.106 289.608,-159.831"/>
</g>
<!-- Node5 -->
<g id="node5" class="node"><title>Node5</title>
<g id="a_node5"><a xlink:href="../../d1/d0b/classinternal_j_s_o_n_node.html#a4bbd647f453bfdb21ef9b6a2fb6f62f8" target="_top" xlink:title="internalJSONNode::end">
<polygon fill="white" stroke="black" points="392,-252.5 392,-273.5 532,-273.5 532,-252.5 392,-252.5"/>
<text text-anchor="middle" x="462" y="-259.9" font-family="Helvetica,sans-Serif" font-size="12.00">internalJSONNode::end</text>
</a>
</g>
</g>
<!-- Node2&#45;&gt;Node5 -->
<g id="edge4" class="edge"><title>Node2&#45;&gt;Node5</title>
<path fill="none" stroke="midnightblue" d="M285.428,-194.154C308.457,-208.745 344.363,-229.884 378,-243 387.39,-246.661 397.648,-249.789 407.651,-252.408"/>
<polygon fill="midnightblue" stroke="midnightblue" points="287.279,-191.183 276.973,-188.723 283.496,-197.072 287.279,-191.183"/>
</g>
<!-- Node6 -->
<g id="node6" class="node"><title>Node6</title>
<g id="a_node6"><a xlink:href="../../d1/d0b/classinternal_j_s_o_n_node.html#abf6beef21cb476c4b2246f7b01a1ee98" target="_top" xlink:title="internalJSONNode::preparse">
<polygon fill="white" stroke="black" points="378.5,-212.5 378.5,-233.5 545.5,-233.5 545.5,-212.5 378.5,-212.5"/>
<text text-anchor="middle" x="462" y="-219.9" font-family="Helvetica,sans-Serif" font-size="12.00">internalJSONNode::preparse</text>
</a>
</g>
</g>
<!-- Node2&#45;&gt;Node6 -->
<g id="edge5" class="edge"><title>Node2&#45;&gt;Node6</title>
<path fill="none" stroke="midnightblue" d="M317.93,-190.809C348.338,-197.651 385.313,-205.97 414.057,-212.438"/>
<polygon fill="midnightblue" stroke="midnightblue" points="318.416,-187.331 307.891,-188.551 316.879,-194.16 318.416,-187.331"/>
</g>
<!-- Node7 -->
<g id="node7" class="node"><title>Node7</title>
<g id="a_node7"><a xlink:href="../../d1/d0b/classinternal_j_s_o_n_node.html#a1b39d2c6b4bd28ed7ce2415fd5a94f57" target="_top" xlink:title="internalJSONNode::size">
<polygon fill="white" stroke="black" points="391.5,-172.5 391.5,-193.5 532.5,-193.5 532.5,-172.5 391.5,-172.5"/>
<text text-anchor="middle" x="462" y="-179.9" font-family="Helvetica,sans-Serif" font-size="12.00">internalJSONNode::size</text>
</a>
</g>
</g>
<!-- Node2&#45;&gt;Node7 -->
<g id="edge6" class="edge"><title>Node2&#45;&gt;Node7</title>
<path fill="none" stroke="midnightblue" d="M344.697,-180.092C360.172,-180.479 376.182,-180.88 391.191,-181.255"/>
<polygon fill="midnightblue" stroke="midnightblue" points="344.705,-176.592 334.621,-179.841 344.53,-183.589 344.705,-176.592"/>
</g>
<!-- Node10 -->
<g id="node10" class="node"><title>Node10</title>
<g id="a_node10"><a xlink:href="../../d3/d71/jsonhelpers_8h.html#a3a69c2987d346d326aeffb52183db0f4" target="_top" xlink:title="prepareTestSettings">
<polygon fill="white" stroke="black" points="400.5,-52.5 400.5,-73.5 523.5,-73.5 523.5,-52.5 400.5,-52.5"/>
<text text-anchor="middle" x="462" y="-59.9" font-family="Helvetica,sans-Serif" font-size="12.00">prepareTestSettings</text>
</a>
</g>
</g>
<!-- Node9&#45;&gt;Node10 -->
<g id="edge9" class="edge"><title>Node9&#45;&gt;Node10</title>
<path fill="none" stroke="midnightblue" d="M352.182,-65.7205C368.53,-65.3118 385.195,-64.8951 400.41,-64.5147"/>
<polygon fill="midnightblue" stroke="midnightblue" points="351.969,-62.2246 342.059,-65.9735 352.144,-69.2224 351.969,-62.2246"/>
</g>
<!-- Node11 -->
<g id="node11" class="node"><title>Node11</title>
<g id="a_node11"><a xlink:href="../../da/d92/class_image_test.html#a7334d76c1cc6780f46626be5b9ff1adb" target="_top" xlink:title="Runs the test pointed to by m_imatestFunc. ">
<polygon fill="white" stroke="black" points="582,-52.5 582,-73.5 680,-73.5 680,-52.5 582,-52.5"/>
<text text-anchor="middle" x="631" y="-59.9" font-family="Helvetica,sans-Serif" font-size="12.00">ImageTest::Run</text>
</a>
</g>
</g>
<!-- Node10&#45;&gt;Node11 -->
<g id="edge10" class="edge"><title>Node10&#45;&gt;Node11</title>
<path fill="none" stroke="midnightblue" d="M534.21,-63C550.283,-63 566.977,-63 581.839,-63"/>
<polygon fill="midnightblue" stroke="midnightblue" points="533.763,-59.5001 523.763,-63 533.763,-66.5001 533.763,-59.5001"/>
</g>
<!-- Node12 -->
<g id="node12" class="node"><title>Node12</title>
<g id="a_node12"><a xlink:href="../../da/d92/class_image_test.html#accf2cfff6fe48fd19888727208dd6728" target="_top" xlink:title="ImageTest::Run">
<polygon fill="white" stroke="black" points="737,-72.5 737,-93.5 835,-93.5 835,-72.5 737,-72.5"/>
<text text-anchor="middle" x="786" y="-79.9" font-family="Helvetica,sans-Serif" font-size="12.00">ImageTest::Run</text>
</a>
</g>
</g>
<!-- Node11&#45;&gt;Node12 -->
<g id="edge11" class="edge"><title>Node11&#45;&gt;Node12</title>
<path fill="none" stroke="midnightblue" d="M690.338,-70.6259C705.716,-72.6361 722.134,-74.7822 736.905,-76.713"/>
<polygon fill="midnightblue" stroke="midnightblue" points="690.779,-67.1539 680.41,-69.3281 689.872,-74.0948 690.779,-67.1539"/>
</g>
<!-- Node13 -->
<g id="node13" class="node"><title>Node13</title>
<g id="a_node13"><a xlink:href="../../da/d92/class_image_test.html#a372478d09c06cd7ab3684840add6215e" target="_top" xlink:title="param must be a pointer to a ThreadControl object; param&#45;&gt;m_data must point to an ImageTest object ...">
<polygon fill="white" stroke="black" points="716.5,-32.5 716.5,-53.5 855.5,-53.5 855.5,-32.5 716.5,-32.5"/>
<text text-anchor="middle" x="786" y="-39.9" font-family="Helvetica,sans-Serif" font-size="12.00">ImageTest::ThreadProc</text>
</a>
</g>
</g>
<!-- Node11&#45;&gt;Node13 -->
<g id="edge12" class="edge"><title>Node11&#45;&gt;Node13</title>
<path fill="none" stroke="midnightblue" d="M690.571,-55.3437C699.052,-54.2351 707.845,-53.0857 716.499,-51.9543"/>
<polygon fill="midnightblue" stroke="midnightblue" points="689.872,-51.9052 680.41,-56.6719 690.779,-58.8461 689.872,-51.9052"/>
</g>
<!-- Node14 -->
<g id="node14" class="node"><title>Node14</title>
<g id="a_node14"><a xlink:href="../../d3/d9f/class_c_operator_console_app.html#a51ad7e6e8f370072c3e89d0d7e9e41a8" target="_top" xlink:title="COperatorConsoleApp\l::InitBlemishThread">
<polygon fill="white" stroke="black" points="892.5,-53 892.5,-87 1029.5,-87 1029.5,-53 892.5,-53"/>
<text text-anchor="start" x="900.5" y="-73.4" font-family="Helvetica,sans-Serif" font-size="12.00">COperatorConsoleApp</text>
<text text-anchor="middle" x="961" y="-60.4" font-family="Helvetica,sans-Serif" font-size="12.00">::InitBlemishThread</text>
</a>
</g>
</g>
<!-- Node13&#45;&gt;Node14 -->
<g id="edge13" class="edge"><title>Node13&#45;&gt;Node14</title>
<path fill="none" stroke="midnightblue" d="M864.382,-55.077C873.669,-56.5264 883.097,-57.9978 892.233,-59.4236"/>
<polygon fill="midnightblue" stroke="midnightblue" points="864.802,-51.6002 854.382,-53.5162 863.722,-58.5165 864.802,-51.6002"/>
</g>
<!-- Node20 -->
<g id="node20" class="node"><title>Node20</title>
<g id="a_node20"><a xlink:href="../../d3/d9f/class_c_operator_console_app.html#af7328d2c00abb1d4a09a65492c69b2b0" target="_top" xlink:title="COperatorConsoleApp\l::InitSFRplusThread">
<polygon fill="white" stroke="black" points="892.5,-0 892.5,-34 1029.5,-34 1029.5,-0 892.5,-0"/>
<text text-anchor="start" x="900.5" y="-20.4" font-family="Helvetica,sans-Serif" font-size="12.00">COperatorConsoleApp</text>
<text text-anchor="middle" x="961" y="-7.4" font-family="Helvetica,sans-Serif" font-size="12.00">::InitSFRplusThread</text>
</a>
</g>
</g>
<!-- Node13&#45;&gt;Node20 -->
<g id="edge19" class="edge"><title>Node13&#45;&gt;Node20</title>
<path fill="none" stroke="midnightblue" d="M865.852,-31.1494C874.751,-29.812 883.759,-28.4583 892.494,-27.1454"/>
<polygon fill="midnightblue" stroke="midnightblue" points="865.24,-27.702 855.871,-32.6494 866.28,-34.6243 865.24,-27.702"/>
</g>
<!-- Node15 -->
<g id="node15" class="node"><title>Node15</title>
<g id="a_node15"><a xlink:href="../../d3/d9f/class_c_operator_console_app.html#a7f0cd7b21cee2171dea973e4e6e7bb9d" target="_top" xlink:title="Init perform application&#45;specific initialization. ">
<polygon fill="white" stroke="black" points="1066.5,-53 1066.5,-87 1203.5,-87 1203.5,-53 1066.5,-53"/>
<text text-anchor="start" x="1074.5" y="-73.4" font-family="Helvetica,sans-Serif" font-size="12.00">COperatorConsoleApp</text>
<text text-anchor="middle" x="1135" y="-60.4" font-family="Helvetica,sans-Serif" font-size="12.00">::Init</text>
</a>
</g>
</g>
<!-- Node14&#45;&gt;Node15 -->
<g id="edge14" class="edge"><title>Node14&#45;&gt;Node15</title>
<path fill="none" stroke="midnightblue" d="M1040.13,-70C1048.85,-70 1057.67,-70 1066.23,-70"/>
<polygon fill="midnightblue" stroke="midnightblue" points="1039.98,-66.5001 1029.98,-70 1039.98,-73.5001 1039.98,-66.5001"/>
</g>
<!-- Node17 -->
<g id="node17" class="node"><title>Node17</title>
<g id="a_node17"><a xlink:href="../../d3/d9f/class_c_operator_console_app.html#aede77af6cae8053d49c752fd95910728" target="_top" xlink:title="This function allows for reallocation of the various image buffers when we change the image size...">
<polygon fill="white" stroke="black" points="1066.5,-0 1066.5,-34 1203.5,-34 1203.5,-0 1066.5,-0"/>
<text text-anchor="start" x="1074.5" y="-20.4" font-family="Helvetica,sans-Serif" font-size="12.00">COperatorConsoleApp</text>
<text text-anchor="middle" x="1135" y="-7.4" font-family="Helvetica,sans-Serif" font-size="12.00">::ReInit</text>
</a>
</g>
</g>
<!-- Node14&#45;&gt;Node17 -->
<g id="edge16" class="edge"><title>Node14&#45;&gt;Node17</title>
<path fill="none" stroke="midnightblue" d="M1027.21,-49.9056C1044.19,-44.6732 1062.32,-39.0863 1078.74,-34.0293"/>
<polygon fill="midnightblue" stroke="midnightblue" points="1025.89,-46.6491 1017.37,-52.9387 1027.96,-53.3387 1025.89,-46.6491"/>
</g>
<!-- Node16 -->
<g id="node16" class="node"><title>Node16</title>
<g id="a_node16"><a xlink:href="../../d3/d9f/class_c_operator_console_app.html#a94f4b258145e77e31644beb999bf099a" target="_top" xlink:title="COperatorConsoleApp initialization. ">
<polygon fill="white" stroke="black" points="1240.5,-53 1240.5,-87 1377.5,-87 1377.5,-53 1240.5,-53"/>
<text text-anchor="start" x="1248.5" y="-73.4" font-family="Helvetica,sans-Serif" font-size="12.00">COperatorConsoleApp</text>
<text text-anchor="middle" x="1309" y="-60.4" font-family="Helvetica,sans-Serif" font-size="12.00">::InitInstance</text>
</a>
</g>
</g>
<!-- Node15&#45;&gt;Node16 -->
<g id="edge15" class="edge"><title>Node15&#45;&gt;Node16</title>
<path fill="none" stroke="midnightblue" d="M1214.13,-70C1222.85,-70 1231.67,-70 1240.23,-70"/>
<polygon fill="midnightblue" stroke="midnightblue" points="1213.98,-66.5001 1203.98,-70 1213.98,-73.5001 1213.98,-66.5001"/>
</g>
<!-- Node18 -->
<g id="node18" class="node"><title>Node18</title>
<g id="a_node18"><a xlink:href="../../d3/d9f/class_c_operator_console_app.html#a620f8d2eed65d743bb177abcb90936e6" target="_top" xlink:title="Called after MSG_SETUP is received. ">
<polygon fill="white" stroke="black" points="1240.5,-0 1240.5,-34 1377.5,-34 1377.5,-0 1240.5,-0"/>
<text text-anchor="start" x="1248.5" y="-20.4" font-family="Helvetica,sans-Serif" font-size="12.00">COperatorConsoleApp</text>
<text text-anchor="middle" x="1309" y="-7.4" font-family="Helvetica,sans-Serif" font-size="12.00">::OnSetup</text>
</a>
</g>
</g>
<!-- Node17&#45;&gt;Node18 -->
<g id="edge17" class="edge"><title>Node17&#45;&gt;Node18</title>
<path fill="none" stroke="midnightblue" d="M1214.13,-17C1222.85,-17 1231.67,-17 1240.23,-17"/>
<polygon fill="midnightblue" stroke="midnightblue" points="1213.98,-13.5001 1203.98,-17 1213.98,-20.5001 1213.98,-13.5001"/>
</g>
<!-- Node19 -->
<g id="node19" class="node"><title>Node19</title>
<g id="a_node19"><a xlink:href="../../d3/d9f/class_c_operator_console_app.html#a7041d197c4e6549f2cb7219981b4eec1" target="_top" xlink:title="Intercepts messages of interest before Windows or MFC. ">
<polygon fill="white" stroke="black" points="1414,-0 1414,-34 1552,-34 1552,-0 1414,-0"/>
<text text-anchor="start" x="1422" y="-20.4" font-family="Helvetica,sans-Serif" font-size="12.00">COperatorConsoleApp</text>
<text text-anchor="middle" x="1483" y="-7.4" font-family="Helvetica,sans-Serif" font-size="12.00">::PreTranslateMessage</text>
</a>
</g>
</g>
<!-- Node18&#45;&gt;Node19 -->
<g id="edge18" class="edge"><title>Node18&#45;&gt;Node19</title>
<path fill="none" stroke="midnightblue" d="M1388.05,-17C1396.7,-17 1405.45,-17 1413.95,-17"/>
<polygon fill="midnightblue" stroke="midnightblue" points="1387.98,-13.5001 1377.98,-17 1387.98,-20.5001 1387.98,-13.5001"/>
</g>
<!-- Node20&#45;&gt;Node15 -->
<g id="edge20" class="edge"><title>Node20&#45;&gt;Node15</title>
<path fill="none" stroke="midnightblue" d="M1027.21,-37.0944C1044.19,-42.3268 1062.32,-47.9137 1078.74,-52.9707"/>
<polygon fill="midnightblue" stroke="midnightblue" points="1027.96,-33.6613 1017.37,-34.0613 1025.89,-40.3509 1027.96,-33.6613"/>
</g>
<!-- Node20&#45;&gt;Node17 -->
<g id="edge21" class="edge"><title>Node20&#45;&gt;Node17</title>
<path fill="none" stroke="midnightblue" d="M1040.13,-17C1048.85,-17 1057.67,-17 1066.23,-17"/>
<polygon fill="midnightblue" stroke="midnightblue" points="1039.98,-13.5001 1029.98,-17 1039.98,-20.5001 1039.98,-13.5001"/>
</g>
</g>
</svg>
