<?xml version="1.0" encoding="UTF-8" standalone="no"?>
<!DOCTYPE svg PUBLIC "-//W3C//DTD SVG 1.1//EN"
 "http://www.w3.org/Graphics/SVG/1.1/DTD/svg11.dtd">
<!-- Generated by graphviz version 2.34.0 (20130907.0111)
 -->
<!-- Title: internalJSONNode::internalJSONNode Pages: 1 -->
<svg width="542pt" height="42pt"
 viewBox="0.00 0.00 542.00 42.00" xmlns="http://www.w3.org/2000/svg" xmlns:xlink="http://www.w3.org/1999/xlink">
<g id="graph0" class="graph" transform="scale(1 1) rotate(0) translate(4 38)">
<title>internalJSONNode::internalJSONNode</title>
<polygon fill="white" stroke="white" points="-4,4 -4,-38 538,-38 538,4 -4,4"/>
<!-- Node1 -->
<g id="node1" class="node"><title>Node1</title>
<polygon fill="#bfbfbf" stroke="black" points="0,-0 0,-34 158,-34 158,-0 0,-0"/>
<text text-anchor="start" x="8" y="-20.4" font-family="Helvetica,sans-Serif" font-size="12.00">internalJSONNode::internal</text>
<text text-anchor="middle" x="79" y="-7.4" font-family="Helvetica,sans-Serif" font-size="12.00">JSONNode</text>
</g>
<!-- Node2 -->
<g id="node2" class="node"><title>Node2</title>
<g id="a_node2"><a xlink:href="../../db/d49/classjson_children.html#ac71d832f3f81306fcb13e6f581f4431a" target="_top" xlink:title="jsonChildren::newChildren">
<polygon fill="white" stroke="black" points="194,-6.5 194,-27.5 346,-27.5 346,-6.5 194,-6.5"/>
<text text-anchor="middle" x="270" y="-13.9" font-family="Helvetica,sans-Serif" font-size="12.00">jsonChildren::newChildren</text>
</a>
</g>
</g>
<!-- Node1&#45;&gt;Node2 -->
<g id="edge1" class="edge"><title>Node1&#45;&gt;Node2</title>
<path fill="none" stroke="midnightblue" d="M158.238,-17C166.613,-17 175.163,-17 183.616,-17"/>
<polygon fill="midnightblue" stroke="midnightblue" points="183.859,-20.5001 193.859,-17 183.859,-13.5001 183.859,-20.5001"/>
</g>
<!-- Node3 -->
<g id="node3" class="node"><title>Node3</title>
<g id="a_node3"><a xlink:href="../../db/d49/classjson_children.html#aa31b15a1d697846a9c2a8a710b2ba6f1" target="_top" xlink:title="jsonChildren::jsonChildren">
<polygon fill="white" stroke="black" points="382,-6.5 382,-27.5 534,-27.5 534,-6.5 382,-6.5"/>
<text text-anchor="middle" x="458" y="-13.9" font-family="Helvetica,sans-Serif" font-size="12.00">jsonChildren::jsonChildren</text>
</a>
</g>
</g>
<!-- Node2&#45;&gt;Node3 -->
<g id="edge2" class="edge"><title>Node2&#45;&gt;Node3</title>
<path fill="none" stroke="midnightblue" d="M346.117,-17C354.596,-17 363.281,-17 371.875,-17"/>
<polygon fill="midnightblue" stroke="midnightblue" points="371.905,-20.5001 381.905,-17 371.905,-13.5001 371.905,-20.5001"/>
</g>
</g>
</svg>
