<?xml version="1.0" encoding="UTF-8" standalone="no"?>
<!DOCTYPE svg PUBLIC "-//W3C//DTD SVG 1.1//EN"
 "http://www.w3.org/Graphics/SVG/1.1/DTD/svg11.dtd">
<!-- Generated by graphviz version 2.34.0 (20130907.0111)
 -->
<!-- Title: internalJSONNode::SetFetched Pages: 1 -->
<svg width="982pt" height="210pt"
 viewBox="0.00 0.00 982.00 210.00" xmlns="http://www.w3.org/2000/svg" xmlns:xlink="http://www.w3.org/1999/xlink">
<g id="graph0" class="graph" transform="scale(1 1) rotate(0) translate(4 206)">
<title>internalJSONNode::SetFetched</title>
<polygon fill="white" stroke="white" points="-4,4 -4,-206 978,-206 978,4 -4,4"/>
<!-- Node1 -->
<g id="node1" class="node"><title>Node1</title>
<polygon fill="#bfbfbf" stroke="black" points="0.5,-80.5 0.5,-101.5 181.5,-101.5 181.5,-80.5 0.5,-80.5"/>
<text text-anchor="middle" x="91" y="-87.9" font-family="Helvetica,sans-Serif" font-size="12.00">internalJSONNode::SetFetched</text>
</g>
<!-- Node2 -->
<g id="node2" class="node"><title>Node2</title>
<g id="a_node2"><a xlink:href="../../d1/d0b/classinternal_j_s_o_n_node.html#a9a3f9f79800b6141150dde72a55c0060" target="_top" xlink:title="internalJSONNode::Nullify">
<polygon fill="white" stroke="black" points="218,-80.5 218,-101.5 368,-101.5 368,-80.5 218,-80.5"/>
<text text-anchor="middle" x="293" y="-87.9" font-family="Helvetica,sans-Serif" font-size="12.00">internalJSONNode::Nullify</text>
</a>
</g>
</g>
<!-- Node1&#45;&gt;Node2 -->
<g id="edge1" class="edge"><title>Node1&#45;&gt;Node2</title>
<path fill="none" stroke="midnightblue" d="M191.958,-91C200.656,-91 209.355,-91 217.792,-91"/>
<polygon fill="midnightblue" stroke="midnightblue" points="191.762,-87.5001 181.762,-91 191.762,-94.5001 191.762,-87.5001"/>
</g>
<!-- Node3 -->
<g id="node3" class="node"><title>Node3</title>
<g id="a_node3"><a xlink:href="../../d1/d0b/classinternal_j_s_o_n_node.html#a2dba04775883475a7624257a82d1cac9" target="_top" xlink:title="internalJSONNode::Fetch">
<polygon fill="white" stroke="black" points="620.5,-100.5 620.5,-121.5 769.5,-121.5 769.5,-100.5 620.5,-100.5"/>
<text text-anchor="middle" x="695" y="-107.9" font-family="Helvetica,sans-Serif" font-size="12.00">internalJSONNode::Fetch</text>
</a>
</g>
</g>
<!-- Node2&#45;&gt;Node3 -->
<g id="edge2" class="edge"><title>Node2&#45;&gt;Node3</title>
<path fill="none" stroke="midnightblue" d="M316.291,-107.546C337.571,-122.234 371.17,-142.628 404,-151 481.519,-170.767 505.213,-164.88 584,-151 615.62,-145.429 650.11,-131.498 671.883,-121.648"/>
<polygon fill="midnightblue" stroke="midnightblue" points="318.147,-104.572 307.963,-101.651 314.103,-110.285 318.147,-104.572"/>
</g>
<!-- Node9 -->
<g id="node9" class="node"><title>Node9</title>
<g id="a_node9"><a xlink:href="../../d1/d0b/classinternal_j_s_o_n_node.html#a59d6db90025af648ee5f556e15242e00" target="_top" xlink:title="internalJSONNode::FetchArray">
<polygon fill="white" stroke="black" points="405.5,-120.5 405.5,-141.5 582.5,-141.5 582.5,-120.5 405.5,-120.5"/>
<text text-anchor="middle" x="494" y="-127.9" font-family="Helvetica,sans-Serif" font-size="12.00">internalJSONNode::FetchArray</text>
</a>
</g>
</g>
<!-- Node2&#45;&gt;Node9 -->
<g id="edge8" class="edge"><title>Node2&#45;&gt;Node9</title>
<path fill="none" stroke="midnightblue" d="M356.436,-103.55C383.523,-108.995 414.885,-115.299 440.719,-120.491"/>
<polygon fill="midnightblue" stroke="midnightblue" points="356.779,-100.049 346.285,-101.51 355.399,-106.912 356.779,-100.049"/>
</g>
<!-- Node10 -->
<g id="node10" class="node"><title>Node10</title>
<g id="a_node10"><a xlink:href="../../d1/d0b/classinternal_j_s_o_n_node.html#a69dde8286881b07590238abf1d91a245" target="_top" xlink:title="internalJSONNode::FetchNode">
<polygon fill="white" stroke="black" points="405,-80.5 405,-101.5 583,-101.5 583,-80.5 405,-80.5"/>
<text text-anchor="middle" x="494" y="-87.9" font-family="Helvetica,sans-Serif" font-size="12.00">internalJSONNode::FetchNode</text>
</a>
</g>
</g>
<!-- Node2&#45;&gt;Node10 -->
<g id="edge10" class="edge"><title>Node2&#45;&gt;Node10</title>
<path fill="none" stroke="midnightblue" d="M378.277,-91C387.024,-91 395.931,-91 404.72,-91"/>
<polygon fill="midnightblue" stroke="midnightblue" points="378.1,-87.5001 368.1,-91 378.1,-94.5001 378.1,-87.5001"/>
</g>
<!-- Node11 -->
<g id="node11" class="node"><title>Node11</title>
<g id="a_node11"><a xlink:href="../../d1/d0b/classinternal_j_s_o_n_node.html#a40ace389d49c93b870ce3a0aaab70640" target="_top" xlink:title="internalJSONNode::FetchString">
<polygon fill="white" stroke="black" points="404,-40.5 404,-61.5 584,-61.5 584,-40.5 404,-40.5"/>
<text text-anchor="middle" x="494" y="-47.9" font-family="Helvetica,sans-Serif" font-size="12.00">internalJSONNode::FetchString</text>
</a>
</g>
</g>
<!-- Node2&#45;&gt;Node11 -->
<g id="edge12" class="edge"><title>Node2&#45;&gt;Node11</title>
<path fill="none" stroke="midnightblue" d="M356.436,-78.45C383.523,-73.0054 414.885,-66.7014 440.719,-61.5087"/>
<polygon fill="midnightblue" stroke="midnightblue" points="355.399,-75.0884 346.285,-80.4905 356.779,-81.9511 355.399,-75.0884"/>
</g>
<!-- Node12 -->
<g id="node12" class="node"><title>Node12</title>
<g id="a_node12"><a xlink:href="../../d6/dc7/class_j_s_o_n_node.html#aabc5878c658fe47378a9f2294d5b1663" target="_top" xlink:title="JSONNode::nullify">
<polygon fill="white" stroke="black" points="439,-0.5 439,-21.5 549,-21.5 549,-0.5 439,-0.5"/>
<text text-anchor="middle" x="494" y="-7.9" font-family="Helvetica,sans-Serif" font-size="12.00">JSONNode::nullify</text>
</a>
</g>
</g>
<!-- Node2&#45;&gt;Node12 -->
<g id="edge14" class="edge"><title>Node2&#45;&gt;Node12</title>
<path fill="none" stroke="midnightblue" d="M318.66,-74.9421C340.35,-61.4654 373.184,-42.6062 404,-31 414.967,-26.8695 427.03,-23.4558 438.64,-20.6896"/>
<polygon fill="midnightblue" stroke="midnightblue" points="316.675,-72.0559 310.085,-80.3514 320.41,-77.9764 316.675,-72.0559"/>
</g>
<!-- Node4 -->
<g id="node4" class="node"><title>Node4</title>
<g id="a_node4"><a xlink:href="../../d1/d0b/classinternal_j_s_o_n_node.html#a83b24cb2bbdac4b1a1a532c44ffd397f" target="_top" xlink:title="internalJSONNode::begin">
<polygon fill="white" stroke="black" points="815.5,-180.5 815.5,-201.5 964.5,-201.5 964.5,-180.5 815.5,-180.5"/>
<text text-anchor="middle" x="890" y="-187.9" font-family="Helvetica,sans-Serif" font-size="12.00">internalJSONNode::begin</text>
</a>
</g>
</g>
<!-- Node3&#45;&gt;Node4 -->
<g id="edge3" class="edge"><title>Node3&#45;&gt;Node4</title>
<path fill="none" stroke="midnightblue" d="M720.705,-126.939C742.424,-140.341 775.274,-159.157 806,-171 815.543,-174.678 825.971,-177.827 836.115,-180.464"/>
<polygon fill="midnightblue" stroke="midnightblue" points="722.451,-123.902 712.117,-121.563 718.736,-129.836 722.451,-123.902"/>
</g>
<!-- Node5 -->
<g id="node5" class="node"><title>Node5</title>
<g id="a_node5"><a xlink:href="../../d1/d0b/classinternal_j_s_o_n_node.html#accd95751fc868a0f19530f0eeba1d09b" target="_top" xlink:title="internalJSONNode::empty">
<polygon fill="white" stroke="black" points="814,-140.5 814,-161.5 966,-161.5 966,-140.5 814,-140.5"/>
<text text-anchor="middle" x="890" y="-147.9" font-family="Helvetica,sans-Serif" font-size="12.00">internalJSONNode::empty</text>
</a>
</g>
</g>
<!-- Node3&#45;&gt;Node5 -->
<g id="edge4" class="edge"><title>Node3&#45;&gt;Node5</title>
<path fill="none" stroke="midnightblue" d="M756.554,-123.55C782.824,-128.995 813.241,-135.299 838.295,-140.491"/>
<polygon fill="midnightblue" stroke="midnightblue" points="757.211,-120.112 746.708,-121.51 755.79,-126.966 757.211,-120.112"/>
</g>
<!-- Node6 -->
<g id="node6" class="node"><title>Node6</title>
<g id="a_node6"><a xlink:href="../../d1/d0b/classinternal_j_s_o_n_node.html#a4bbd647f453bfdb21ef9b6a2fb6f62f8" target="_top" xlink:title="internalJSONNode::end">
<polygon fill="white" stroke="black" points="820,-100.5 820,-121.5 960,-121.5 960,-100.5 820,-100.5"/>
<text text-anchor="middle" x="890" y="-107.9" font-family="Helvetica,sans-Serif" font-size="12.00">internalJSONNode::end</text>
</a>
</g>
</g>
<!-- Node3&#45;&gt;Node6 -->
<g id="edge5" class="edge"><title>Node3&#45;&gt;Node6</title>
<path fill="none" stroke="midnightblue" d="M779.678,-111C793.075,-111 806.809,-111 819.82,-111"/>
<polygon fill="midnightblue" stroke="midnightblue" points="779.516,-107.5 769.516,-111 779.516,-114.5 779.516,-107.5"/>
</g>
<!-- Node7 -->
<g id="node7" class="node"><title>Node7</title>
<g id="a_node7"><a xlink:href="../../d1/d0b/classinternal_j_s_o_n_node.html#abf6beef21cb476c4b2246f7b01a1ee98" target="_top" xlink:title="internalJSONNode::preparse">
<polygon fill="white" stroke="black" points="806.5,-60.5 806.5,-81.5 973.5,-81.5 973.5,-60.5 806.5,-60.5"/>
<text text-anchor="middle" x="890" y="-67.9" font-family="Helvetica,sans-Serif" font-size="12.00">internalJSONNode::preparse</text>
</a>
</g>
</g>
<!-- Node3&#45;&gt;Node7 -->
<g id="edge6" class="edge"><title>Node3&#45;&gt;Node7</title>
<path fill="none" stroke="midnightblue" d="M756.554,-98.45C782.824,-93.0054 813.241,-86.7014 838.295,-81.5087"/>
<polygon fill="midnightblue" stroke="midnightblue" points="755.79,-95.0338 746.708,-100.49 757.211,-101.888 755.79,-95.0338"/>
</g>
<!-- Node8 -->
<g id="node8" class="node"><title>Node8</title>
<g id="a_node8"><a xlink:href="../../d1/d0b/classinternal_j_s_o_n_node.html#a1b39d2c6b4bd28ed7ce2415fd5a94f57" target="_top" xlink:title="internalJSONNode::size">
<polygon fill="white" stroke="black" points="819.5,-20.5 819.5,-41.5 960.5,-41.5 960.5,-20.5 819.5,-20.5"/>
<text text-anchor="middle" x="890" y="-27.9" font-family="Helvetica,sans-Serif" font-size="12.00">internalJSONNode::size</text>
</a>
</g>
</g>
<!-- Node3&#45;&gt;Node8 -->
<g id="edge7" class="edge"><title>Node3&#45;&gt;Node8</title>
<path fill="none" stroke="midnightblue" d="M720.705,-95.0609C742.424,-81.6592 775.274,-62.8433 806,-51 815.543,-47.3217 825.971,-44.1733 836.115,-41.5363"/>
<polygon fill="midnightblue" stroke="midnightblue" points="718.736,-92.1642 712.117,-100.437 722.451,-98.0975 718.736,-92.1642"/>
</g>
<!-- Node9&#45;&gt;Node3 -->
<g id="edge9" class="edge"><title>Node9&#45;&gt;Node3</title>
<path fill="none" stroke="midnightblue" d="M592.668,-121.184C601.992,-120.247 611.338,-119.308 620.377,-118.399"/>
<polygon fill="midnightblue" stroke="midnightblue" points="592.174,-117.716 582.574,-122.199 592.874,-124.681 592.174,-117.716"/>
</g>
<!-- Node10&#45;&gt;Node3 -->
<g id="edge11" class="edge"><title>Node10&#45;&gt;Node3</title>
<path fill="none" stroke="midnightblue" d="M593.339,-100.883C602.38,-101.792 611.433,-102.702 620.201,-103.583"/>
<polygon fill="midnightblue" stroke="midnightblue" points="593.453,-97.3773 583.153,-99.8596 592.753,-104.342 593.453,-97.3773"/>
</g>
<!-- Node11&#45;&gt;Node3 -->
<g id="edge13" class="edge"><title>Node11&#45;&gt;Node3</title>
<path fill="none" stroke="midnightblue" d="M556.889,-63.8351C566.028,-66.0403 575.294,-68.4503 584,-71 613.057,-79.5102 645.554,-91.6644 667.642,-100.338"/>
<polygon fill="midnightblue" stroke="midnightblue" points="557.59,-60.4044 547.054,-61.5257 555.989,-67.2191 557.59,-60.4044"/>
</g>
</g>
</svg>
