<?xml version="1.0" encoding="UTF-8" standalone="no"?>
<!DOCTYPE svg PUBLIC "-//W3C//DTD SVG 1.1//EN"
 "http://www.w3.org/Graphics/SVG/1.1/DTD/svg11.dtd">
<!-- Generated by graphviz version 2.34.0 (20130907.0111)
 -->
<!-- Title: internalJSONNode::Fetch Pages: 1 -->
<svg width="362pt" height="190pt"
 viewBox="0.00 0.00 362.00 190.00" xmlns="http://www.w3.org/2000/svg" xmlns:xlink="http://www.w3.org/1999/xlink">
<g id="graph0" class="graph" transform="scale(1 1) rotate(0) translate(4 186)">
<title>internalJSONNode::Fetch</title>
<polygon fill="white" stroke="white" points="-4,4 -4,-186 358,-186 358,4 -4,4"/>
<!-- Node1 -->
<g id="node1" class="node"><title>Node1</title>
<polygon fill="#bfbfbf" stroke="black" points="0.5,-80.5 0.5,-101.5 149.5,-101.5 149.5,-80.5 0.5,-80.5"/>
<text text-anchor="middle" x="75" y="-87.9" font-family="Helvetica,sans-Serif" font-size="12.00">internalJSONNode::Fetch</text>
</g>
<!-- Node2 -->
<g id="node2" class="node"><title>Node2</title>
<g id="a_node2"><a xlink:href="../../d1/d0b/classinternal_j_s_o_n_node.html#a83b24cb2bbdac4b1a1a532c44ffd397f" target="_top" xlink:title="internalJSONNode::begin">
<polygon fill="white" stroke="black" points="195.5,-160.5 195.5,-181.5 344.5,-181.5 344.5,-160.5 195.5,-160.5"/>
<text text-anchor="middle" x="270" y="-167.9" font-family="Helvetica,sans-Serif" font-size="12.00">internalJSONNode::begin</text>
</a>
</g>
</g>
<!-- Node1&#45;&gt;Node2 -->
<g id="edge1" class="edge"><title>Node1&#45;&gt;Node2</title>
<path fill="none" stroke="midnightblue" d="M100.705,-106.939C122.424,-120.341 155.274,-139.157 186,-151 195.543,-154.678 205.971,-157.827 216.115,-160.464"/>
<polygon fill="midnightblue" stroke="midnightblue" points="102.451,-103.902 92.1173,-101.563 98.7365,-109.836 102.451,-103.902"/>
</g>
<!-- Node3 -->
<g id="node3" class="node"><title>Node3</title>
<g id="a_node3"><a xlink:href="../../d1/d0b/classinternal_j_s_o_n_node.html#accd95751fc868a0f19530f0eeba1d09b" target="_top" xlink:title="internalJSONNode::empty">
<polygon fill="white" stroke="black" points="194,-120.5 194,-141.5 346,-141.5 346,-120.5 194,-120.5"/>
<text text-anchor="middle" x="270" y="-127.9" font-family="Helvetica,sans-Serif" font-size="12.00">internalJSONNode::empty</text>
</a>
</g>
</g>
<!-- Node1&#45;&gt;Node3 -->
<g id="edge2" class="edge"><title>Node1&#45;&gt;Node3</title>
<path fill="none" stroke="midnightblue" d="M136.554,-103.55C162.824,-108.995 193.241,-115.299 218.295,-120.491"/>
<polygon fill="midnightblue" stroke="midnightblue" points="137.211,-100.112 126.708,-101.51 135.79,-106.966 137.211,-100.112"/>
</g>
<!-- Node4 -->
<g id="node4" class="node"><title>Node4</title>
<g id="a_node4"><a xlink:href="../../d1/d0b/classinternal_j_s_o_n_node.html#a4bbd647f453bfdb21ef9b6a2fb6f62f8" target="_top" xlink:title="internalJSONNode::end">
<polygon fill="white" stroke="black" points="200,-80.5 200,-101.5 340,-101.5 340,-80.5 200,-80.5"/>
<text text-anchor="middle" x="270" y="-87.9" font-family="Helvetica,sans-Serif" font-size="12.00">internalJSONNode::end</text>
</a>
</g>
</g>
<!-- Node1&#45;&gt;Node4 -->
<g id="edge3" class="edge"><title>Node1&#45;&gt;Node4</title>
<path fill="none" stroke="midnightblue" d="M159.678,-91C173.075,-91 186.809,-91 199.82,-91"/>
<polygon fill="midnightblue" stroke="midnightblue" points="159.516,-87.5001 149.516,-91 159.516,-94.5001 159.516,-87.5001"/>
</g>
<!-- Node5 -->
<g id="node5" class="node"><title>Node5</title>
<g id="a_node5"><a xlink:href="../../d1/d0b/classinternal_j_s_o_n_node.html#abf6beef21cb476c4b2246f7b01a1ee98" target="_top" xlink:title="internalJSONNode::preparse">
<polygon fill="white" stroke="black" points="186.5,-40.5 186.5,-61.5 353.5,-61.5 353.5,-40.5 186.5,-40.5"/>
<text text-anchor="middle" x="270" y="-47.9" font-family="Helvetica,sans-Serif" font-size="12.00">internalJSONNode::preparse</text>
</a>
</g>
</g>
<!-- Node1&#45;&gt;Node5 -->
<g id="edge4" class="edge"><title>Node1&#45;&gt;Node5</title>
<path fill="none" stroke="midnightblue" d="M136.554,-78.45C162.824,-73.0054 193.241,-66.7014 218.295,-61.5087"/>
<polygon fill="midnightblue" stroke="midnightblue" points="135.79,-75.0338 126.708,-80.4905 137.211,-81.8881 135.79,-75.0338"/>
</g>
<!-- Node6 -->
<g id="node6" class="node"><title>Node6</title>
<g id="a_node6"><a xlink:href="../../d1/d0b/classinternal_j_s_o_n_node.html#a1b39d2c6b4bd28ed7ce2415fd5a94f57" target="_top" xlink:title="internalJSONNode::size">
<polygon fill="white" stroke="black" points="199.5,-0.5 199.5,-21.5 340.5,-21.5 340.5,-0.5 199.5,-0.5"/>
<text text-anchor="middle" x="270" y="-7.9" font-family="Helvetica,sans-Serif" font-size="12.00">internalJSONNode::size</text>
</a>
</g>
</g>
<!-- Node1&#45;&gt;Node6 -->
<g id="edge5" class="edge"><title>Node1&#45;&gt;Node6</title>
<path fill="none" stroke="midnightblue" d="M100.705,-75.0609C122.424,-61.6592 155.274,-42.8433 186,-31 195.543,-27.3217 205.971,-24.1733 216.115,-21.5363"/>
<polygon fill="midnightblue" stroke="midnightblue" points="98.7365,-72.1642 92.1173,-80.4369 102.451,-78.0975 98.7365,-72.1642"/>
</g>
</g>
</svg>
