<?xml version="1.0" encoding="UTF-8" standalone="no"?>
<!DOCTYPE svg PUBLIC "-//W3C//DTD SVG 1.1//EN"
 "http://www.w3.org/Graphics/SVG/1.1/DTD/svg11.dtd">
<!-- Generated by graphviz version 2.34.0 (20130907.0111)
 -->
<!-- Title: internalJSONNode::push_front Pages: 1 -->
<svg width="674pt" height="42pt"
 viewBox="0.00 0.00 674.00 42.00" xmlns="http://www.w3.org/2000/svg" xmlns:xlink="http://www.w3.org/1999/xlink">
<g id="graph0" class="graph" transform="scale(1 1) rotate(0) translate(4 38)">
<title>internalJSONNode::push_front</title>
<polygon fill="white" stroke="white" points="-4,4 -4,-38 670,-38 670,4 -4,4"/>
<!-- Node1 -->
<g id="node1" class="node"><title>Node1</title>
<polygon fill="#bfbfbf" stroke="black" points="0.5,-0 0.5,-34 145.5,-34 145.5,-0 0.5,-0"/>
<text text-anchor="start" x="8.5" y="-20.4" font-family="Helvetica,sans-Serif" font-size="12.00">internalJSONNode::push</text>
<text text-anchor="middle" x="73" y="-7.4" font-family="Helvetica,sans-Serif" font-size="12.00">_front</text>
</g>
<!-- Node2 -->
<g id="node2" class="node"><title>Node2</title>
<g id="a_node2"><a xlink:href="../../d6/dc7/class_j_s_o_n_node.html#a2435b57e1586f3c7c7d915b3490a4e1c" target="_top" xlink:title="JSONNode::newJSONNode">
<polygon fill="white" stroke="black" points="182,-6.5 182,-27.5 346,-27.5 346,-6.5 182,-6.5"/>
<text text-anchor="middle" x="264" y="-13.9" font-family="Helvetica,sans-Serif" font-size="12.00">JSONNode::newJSONNode</text>
</a>
</g>
</g>
<!-- Node1&#45;&gt;Node2 -->
<g id="edge1" class="edge"><title>Node1&#45;&gt;Node2</title>
<path fill="none" stroke="midnightblue" d="M145.722,-17C154.204,-17 162.945,-17 171.651,-17"/>
<polygon fill="midnightblue" stroke="midnightblue" points="171.838,-20.5001 181.837,-17 171.837,-13.5001 171.838,-20.5001"/>
</g>
<!-- Node3 -->
<g id="node3" class="node"><title>Node3</title>
<g id="a_node3"><a xlink:href="../../db/d8a/_documentation_2_operator-_console_2_j_s_o_n_2_j_s_o_n_node_8cpp.html#a459ea7a97e80c19dfc813f2712b9dd73" target="_top" xlink:title="_newJSONNode">
<polygon fill="white" stroke="black" points="382,-6.5 382,-27.5 486,-27.5 486,-6.5 382,-6.5"/>
<text text-anchor="middle" x="434" y="-13.9" font-family="Helvetica,sans-Serif" font-size="12.00">_newJSONNode</text>
</a>
</g>
</g>
<!-- Node2&#45;&gt;Node3 -->
<g id="edge2" class="edge"><title>Node2&#45;&gt;Node3</title>
<path fill="none" stroke="midnightblue" d="M346.047,-17C354.543,-17 363.079,-17 371.307,-17"/>
<polygon fill="midnightblue" stroke="midnightblue" points="371.539,-20.5001 381.539,-17 371.539,-13.5001 371.539,-20.5001"/>
</g>
<!-- Node4 -->
<g id="node4" class="node"><title>Node4</title>
<g id="a_node4"><a xlink:href="../../d6/dc7/class_j_s_o_n_node.html#aba2db3c5af33c64e0cdccd33d18adc59" target="_top" xlink:title="JSONNode::JSONNode">
<polygon fill="white" stroke="black" points="522.5,-6.5 522.5,-27.5 665.5,-27.5 665.5,-6.5 522.5,-6.5"/>
<text text-anchor="middle" x="594" y="-13.9" font-family="Helvetica,sans-Serif" font-size="12.00">JSONNode::JSONNode</text>
</a>
</g>
</g>
<!-- Node3&#45;&gt;Node4 -->
<g id="edge3" class="edge"><title>Node3&#45;&gt;Node4</title>
<path fill="none" stroke="midnightblue" d="M486.298,-17C494.678,-17 503.534,-17 512.417,-17"/>
<polygon fill="midnightblue" stroke="midnightblue" points="512.433,-20.5001 522.433,-17 512.433,-13.5001 512.433,-20.5001"/>
</g>
</g>
</svg>
