<?xml version="1.0" encoding="UTF-8" standalone="no"?>
<!DOCTYPE svg PUBLIC "-//W3C//DTD SVG 1.1//EN"
 "http://www.w3.org/Graphics/SVG/1.1/DTD/svg11.dtd">
<!-- Generated by graphviz version 2.34.0 (20130907.0111)
 -->
<!-- Title: internalJSONNode::incRef Pages: 1 -->
<svg width="1168pt" height="76pt"
 viewBox="0.00 0.00 1168.00 76.00" xmlns="http://www.w3.org/2000/svg" xmlns:xlink="http://www.w3.org/1999/xlink">
<g id="graph0" class="graph" transform="scale(1 1) rotate(0) translate(4 72)">
<title>internalJSONNode::incRef</title>
<polygon fill="white" stroke="white" points="-4,4 -4,-72 1164,-72 1164,4 -4,4"/>
<!-- Node1 -->
<g id="node1" class="node"><title>Node1</title>
<polygon fill="#bfbfbf" stroke="black" points="0.5,-26.5 0.5,-47.5 153.5,-47.5 153.5,-26.5 0.5,-26.5"/>
<text text-anchor="middle" x="77" y="-33.9" font-family="Helvetica,sans-Serif" font-size="12.00">internalJSONNode::incRef</text>
</g>
<!-- Node2 -->
<g id="node2" class="node"><title>Node2</title>
<g id="a_node2"><a xlink:href="../../d1/d0b/classinternal_j_s_o_n_node.html#a72b82897da17766d09a3e4ea4a743cf1" target="_top" xlink:title="internalJSONNode::makeUnique">
<polygon fill="white" stroke="black" points="190,-26.5 190,-47.5 376,-47.5 376,-26.5 190,-26.5"/>
<text text-anchor="middle" x="283" y="-33.9" font-family="Helvetica,sans-Serif" font-size="12.00">internalJSONNode::makeUnique</text>
</a>
</g>
</g>
<!-- Node1&#45;&gt;Node2 -->
<g id="edge1" class="edge"><title>Node1&#45;&gt;Node2</title>
<path fill="none" stroke="midnightblue" d="M153.672,-37C162.148,-37 170.885,-37 179.625,-37"/>
<polygon fill="midnightblue" stroke="midnightblue" points="179.871,-40.5001 189.871,-37 179.871,-33.5001 179.871,-40.5001"/>
</g>
<!-- Node3 -->
<g id="node3" class="node"><title>Node3</title>
<g id="a_node3"><a xlink:href="../../d1/d0b/classinternal_j_s_o_n_node.html#a1d79eee0bbd754c13edac1498e3a7a3d" target="_top" xlink:title="internalJSONNode::decRef">
<polygon fill="white" stroke="black" points="422,-46.5 422,-67.5 580,-67.5 580,-46.5 422,-46.5"/>
<text text-anchor="middle" x="501" y="-53.9" font-family="Helvetica,sans-Serif" font-size="12.00">internalJSONNode::decRef</text>
</a>
</g>
</g>
<!-- Node2&#45;&gt;Node3 -->
<g id="edge2" class="edge"><title>Node2&#45;&gt;Node3</title>
<path fill="none" stroke="midnightblue" d="M376.23,-45.5398C387.936,-46.6237 399.896,-47.7311 411.541,-48.8094"/>
<polygon fill="midnightblue" stroke="midnightblue" points="411.4,-52.3112 421.68,-49.7482 412.046,-45.341 411.4,-52.3112"/>
</g>
<!-- Node4 -->
<g id="node4" class="node"><title>Node4</title>
<g id="a_node4"><a xlink:href="../../d1/d0b/classinternal_j_s_o_n_node.html#a5656ff403a9a79fce1812aacee620fdd" target="_top" xlink:title="internalJSONNode::newInternal">
<polygon fill="white" stroke="black" points="412,-6.5 412,-27.5 590,-27.5 590,-6.5 412,-6.5"/>
<text text-anchor="middle" x="501" y="-13.9" font-family="Helvetica,sans-Serif" font-size="12.00">internalJSONNode::newInternal</text>
</a>
</g>
</g>
<!-- Node2&#45;&gt;Node4 -->
<g id="edge3" class="edge"><title>Node2&#45;&gt;Node4</title>
<path fill="none" stroke="midnightblue" d="M376.23,-28.4602C384.719,-27.6742 393.34,-26.8759 401.879,-26.0853"/>
<polygon fill="midnightblue" stroke="midnightblue" points="402.217,-29.5691 411.851,-25.1619 401.571,-22.5989 402.217,-29.5691"/>
</g>
<!-- Node5 -->
<g id="node5" class="node"><title>Node5</title>
<g id="a_node5"><a xlink:href="../../d1/d0b/classinternal_j_s_o_n_node.html#afb952c1e0ebf1928ecccd9a205baa0db" target="_top" xlink:title="internalJSONNode::internal\lJSONNode">
<polygon fill="white" stroke="black" points="626,-0 626,-34 784,-34 784,-0 626,-0"/>
<text text-anchor="start" x="634" y="-20.4" font-family="Helvetica,sans-Serif" font-size="12.00">internalJSONNode::internal</text>
<text text-anchor="middle" x="705" y="-7.4" font-family="Helvetica,sans-Serif" font-size="12.00">JSONNode</text>
</a>
</g>
</g>
<!-- Node4&#45;&gt;Node5 -->
<g id="edge4" class="edge"><title>Node4&#45;&gt;Node5</title>
<path fill="none" stroke="midnightblue" d="M590.013,-17C598.478,-17 607.067,-17 615.537,-17"/>
<polygon fill="midnightblue" stroke="midnightblue" points="615.793,-20.5001 625.793,-17 615.793,-13.5001 615.793,-20.5001"/>
</g>
<!-- Node6 -->
<g id="node6" class="node"><title>Node6</title>
<g id="a_node6"><a xlink:href="../../db/d49/classjson_children.html#ac71d832f3f81306fcb13e6f581f4431a" target="_top" xlink:title="jsonChildren::newChildren">
<polygon fill="white" stroke="black" points="820,-6.5 820,-27.5 972,-27.5 972,-6.5 820,-6.5"/>
<text text-anchor="middle" x="896" y="-13.9" font-family="Helvetica,sans-Serif" font-size="12.00">jsonChildren::newChildren</text>
</a>
</g>
</g>
<!-- Node5&#45;&gt;Node6 -->
<g id="edge5" class="edge"><title>Node5&#45;&gt;Node6</title>
<path fill="none" stroke="midnightblue" d="M784.238,-17C792.613,-17 801.163,-17 809.616,-17"/>
<polygon fill="midnightblue" stroke="midnightblue" points="809.859,-20.5001 819.859,-17 809.859,-13.5001 809.859,-20.5001"/>
</g>
<!-- Node7 -->
<g id="node7" class="node"><title>Node7</title>
<g id="a_node7"><a xlink:href="../../db/d49/classjson_children.html#aa31b15a1d697846a9c2a8a710b2ba6f1" target="_top" xlink:title="jsonChildren::jsonChildren">
<polygon fill="white" stroke="black" points="1008,-6.5 1008,-27.5 1160,-27.5 1160,-6.5 1008,-6.5"/>
<text text-anchor="middle" x="1084" y="-13.9" font-family="Helvetica,sans-Serif" font-size="12.00">jsonChildren::jsonChildren</text>
</a>
</g>
</g>
<!-- Node6&#45;&gt;Node7 -->
<g id="edge6" class="edge"><title>Node6&#45;&gt;Node7</title>
<path fill="none" stroke="midnightblue" d="M972.117,-17C980.596,-17 989.281,-17 997.875,-17"/>
<polygon fill="midnightblue" stroke="midnightblue" points="997.905,-20.5001 1007.9,-17 997.905,-13.5001 997.905,-20.5001"/>
</g>
</g>
</svg>
