<?xml version="1.0" encoding="UTF-8" standalone="no"?>
<!DOCTYPE svg PUBLIC "-//W3C//DTD SVG 1.1//EN"
 "http://www.w3.org/Graphics/SVG/1.1/DTD/svg11.dtd">
<!-- Generated by graphviz version 2.34.0 (20130907.0111)
 -->
<!-- Title: internalJSONNode::isNotContainer Pages: 1 -->
<svg width="394pt" height="70pt"
 viewBox="0.00 0.00 394.00 70.00" xmlns="http://www.w3.org/2000/svg" xmlns:xlink="http://www.w3.org/1999/xlink">
<g id="graph0" class="graph" transform="scale(1 1) rotate(0) translate(4 66)">
<title>internalJSONNode::isNotContainer</title>
<polygon fill="white" stroke="white" points="-4,4 -4,-66 390,-66 390,4 -4,4"/>
<!-- Node1 -->
<g id="node1" class="node"><title>Node1</title>
<polygon fill="#bfbfbf" stroke="black" points="0,-20.5 0,-41.5 198,-41.5 198,-20.5 0,-20.5"/>
<text text-anchor="middle" x="99" y="-27.9" font-family="Helvetica,sans-Serif" font-size="12.00">internalJSONNode::isNotContainer</text>
</g>
<!-- Node2 -->
<g id="node2" class="node"><title>Node2</title>
<g id="a_node2"><a xlink:href="../../d1/d0b/classinternal_j_s_o_n_node.html#accd95751fc868a0f19530f0eeba1d09b" target="_top" xlink:title="internalJSONNode::empty">
<polygon fill="white" stroke="black" points="234,-40.5 234,-61.5 386,-61.5 386,-40.5 234,-40.5"/>
<text text-anchor="middle" x="310" y="-47.9" font-family="Helvetica,sans-Serif" font-size="12.00">internalJSONNode::empty</text>
</a>
</g>
</g>
<!-- Node1&#45;&gt;Node2 -->
<g id="edge1" class="edge"><title>Node1&#45;&gt;Node2</title>
<path fill="none" stroke="midnightblue" d="M208.199,-41.354C216.823,-42.1792 225.413,-43.0012 233.734,-43.7975"/>
<polygon fill="midnightblue" stroke="midnightblue" points="208.362,-37.8537 198.074,-40.3851 207.695,-44.8219 208.362,-37.8537"/>
</g>
<!-- Node3 -->
<g id="node3" class="node"><title>Node3</title>
<g id="a_node3"><a xlink:href="../../d1/d0b/classinternal_j_s_o_n_node.html#a1b39d2c6b4bd28ed7ce2415fd5a94f57" target="_top" xlink:title="internalJSONNode::size">
<polygon fill="white" stroke="black" points="239.5,-0.5 239.5,-21.5 380.5,-21.5 380.5,-0.5 239.5,-0.5"/>
<text text-anchor="middle" x="310" y="-7.9" font-family="Helvetica,sans-Serif" font-size="12.00">internalJSONNode::size</text>
</a>
</g>
</g>
<!-- Node1&#45;&gt;Node3 -->
<g id="edge2" class="edge"><title>Node1&#45;&gt;Node3</title>
<path fill="none" stroke="midnightblue" d="M208.182,-20.6477C218.722,-19.639 229.213,-18.6351 239.224,-17.6771"/>
<polygon fill="midnightblue" stroke="midnightblue" points="207.695,-17.1781 198.074,-21.6149 208.362,-24.1463 207.695,-17.1781"/>
</g>
</g>
</svg>
