<?xml version="1.0" encoding="UTF-8" standalone="no"?>
<!DOCTYPE svg PUBLIC "-//W3C//DTD SVG 1.1//EN"
 "http://www.w3.org/Graphics/SVG/1.1/DTD/svg11.dtd">
<!-- Generated by graphviz version 2.34.0 (20130907.0111)
 -->
<!-- Title: internalJSONNode::FetchString Pages: 1 -->
<svg width="578pt" height="190pt"
 viewBox="0.00 0.00 578.00 190.00" xmlns="http://www.w3.org/2000/svg" xmlns:xlink="http://www.w3.org/1999/xlink">
<g id="graph0" class="graph" transform="scale(1 1) rotate(0) translate(4 186)">
<title>internalJSONNode::FetchString</title>
<polygon fill="white" stroke="white" points="-4,4 -4,-186 574,-186 574,4 -4,4"/>
<!-- Node1 -->
<g id="node1" class="node"><title>Node1</title>
<polygon fill="#bfbfbf" stroke="black" points="0,-80.5 0,-101.5 180,-101.5 180,-80.5 0,-80.5"/>
<text text-anchor="middle" x="90" y="-87.9" font-family="Helvetica,sans-Serif" font-size="12.00">internalJSONNode::FetchString</text>
</g>
<!-- Node2 -->
<g id="node2" class="node"><title>Node2</title>
<g id="a_node2"><a xlink:href="../../d1/d0b/classinternal_j_s_o_n_node.html#a2dba04775883475a7624257a82d1cac9" target="_top" xlink:title="internalJSONNode::Fetch">
<polygon fill="white" stroke="black" points="216.5,-80.5 216.5,-101.5 365.5,-101.5 365.5,-80.5 216.5,-80.5"/>
<text text-anchor="middle" x="291" y="-87.9" font-family="Helvetica,sans-Serif" font-size="12.00">internalJSONNode::Fetch</text>
</a>
</g>
</g>
<!-- Node1&#45;&gt;Node2 -->
<g id="edge1" class="edge"><title>Node1&#45;&gt;Node2</title>
<path fill="none" stroke="midnightblue" d="M190.273,-91C199.018,-91 207.766,-91 216.247,-91"/>
<polygon fill="midnightblue" stroke="midnightblue" points="190.023,-87.5001 180.023,-91 190.023,-94.5001 190.023,-87.5001"/>
</g>
<!-- Node3 -->
<g id="node3" class="node"><title>Node3</title>
<g id="a_node3"><a xlink:href="../../d1/d0b/classinternal_j_s_o_n_node.html#a83b24cb2bbdac4b1a1a532c44ffd397f" target="_top" xlink:title="internalJSONNode::begin">
<polygon fill="white" stroke="black" points="411.5,-160.5 411.5,-181.5 560.5,-181.5 560.5,-160.5 411.5,-160.5"/>
<text text-anchor="middle" x="486" y="-167.9" font-family="Helvetica,sans-Serif" font-size="12.00">internalJSONNode::begin</text>
</a>
</g>
</g>
<!-- Node2&#45;&gt;Node3 -->
<g id="edge2" class="edge"><title>Node2&#45;&gt;Node3</title>
<path fill="none" stroke="midnightblue" d="M316.705,-106.939C338.424,-120.341 371.274,-139.157 402,-151 411.543,-154.678 421.971,-157.827 432.115,-160.464"/>
<polygon fill="midnightblue" stroke="midnightblue" points="318.451,-103.902 308.117,-101.563 314.736,-109.836 318.451,-103.902"/>
</g>
<!-- Node4 -->
<g id="node4" class="node"><title>Node4</title>
<g id="a_node4"><a xlink:href="../../d1/d0b/classinternal_j_s_o_n_node.html#accd95751fc868a0f19530f0eeba1d09b" target="_top" xlink:title="internalJSONNode::empty">
<polygon fill="white" stroke="black" points="410,-120.5 410,-141.5 562,-141.5 562,-120.5 410,-120.5"/>
<text text-anchor="middle" x="486" y="-127.9" font-family="Helvetica,sans-Serif" font-size="12.00">internalJSONNode::empty</text>
</a>
</g>
</g>
<!-- Node2&#45;&gt;Node4 -->
<g id="edge3" class="edge"><title>Node2&#45;&gt;Node4</title>
<path fill="none" stroke="midnightblue" d="M352.554,-103.55C378.824,-108.995 409.241,-115.299 434.295,-120.491"/>
<polygon fill="midnightblue" stroke="midnightblue" points="353.211,-100.112 342.708,-101.51 351.79,-106.966 353.211,-100.112"/>
</g>
<!-- Node5 -->
<g id="node5" class="node"><title>Node5</title>
<g id="a_node5"><a xlink:href="../../d1/d0b/classinternal_j_s_o_n_node.html#a4bbd647f453bfdb21ef9b6a2fb6f62f8" target="_top" xlink:title="internalJSONNode::end">
<polygon fill="white" stroke="black" points="416,-80.5 416,-101.5 556,-101.5 556,-80.5 416,-80.5"/>
<text text-anchor="middle" x="486" y="-87.9" font-family="Helvetica,sans-Serif" font-size="12.00">internalJSONNode::end</text>
</a>
</g>
</g>
<!-- Node2&#45;&gt;Node5 -->
<g id="edge4" class="edge"><title>Node2&#45;&gt;Node5</title>
<path fill="none" stroke="midnightblue" d="M375.678,-91C389.075,-91 402.809,-91 415.82,-91"/>
<polygon fill="midnightblue" stroke="midnightblue" points="375.516,-87.5001 365.516,-91 375.516,-94.5001 375.516,-87.5001"/>
</g>
<!-- Node6 -->
<g id="node6" class="node"><title>Node6</title>
<g id="a_node6"><a xlink:href="../../d1/d0b/classinternal_j_s_o_n_node.html#abf6beef21cb476c4b2246f7b01a1ee98" target="_top" xlink:title="internalJSONNode::preparse">
<polygon fill="white" stroke="black" points="402.5,-40.5 402.5,-61.5 569.5,-61.5 569.5,-40.5 402.5,-40.5"/>
<text text-anchor="middle" x="486" y="-47.9" font-family="Helvetica,sans-Serif" font-size="12.00">internalJSONNode::preparse</text>
</a>
</g>
</g>
<!-- Node2&#45;&gt;Node6 -->
<g id="edge5" class="edge"><title>Node2&#45;&gt;Node6</title>
<path fill="none" stroke="midnightblue" d="M352.554,-78.45C378.824,-73.0054 409.241,-66.7014 434.295,-61.5087"/>
<polygon fill="midnightblue" stroke="midnightblue" points="351.79,-75.0338 342.708,-80.4905 353.211,-81.8881 351.79,-75.0338"/>
</g>
<!-- Node7 -->
<g id="node7" class="node"><title>Node7</title>
<g id="a_node7"><a xlink:href="../../d1/d0b/classinternal_j_s_o_n_node.html#a1b39d2c6b4bd28ed7ce2415fd5a94f57" target="_top" xlink:title="internalJSONNode::size">
<polygon fill="white" stroke="black" points="415.5,-0.5 415.5,-21.5 556.5,-21.5 556.5,-0.5 415.5,-0.5"/>
<text text-anchor="middle" x="486" y="-7.9" font-family="Helvetica,sans-Serif" font-size="12.00">internalJSONNode::size</text>
</a>
</g>
</g>
<!-- Node2&#45;&gt;Node7 -->
<g id="edge6" class="edge"><title>Node2&#45;&gt;Node7</title>
<path fill="none" stroke="midnightblue" d="M316.705,-75.0609C338.424,-61.6592 371.274,-42.8433 402,-31 411.543,-27.3217 421.971,-24.1733 432.115,-21.5363"/>
<polygon fill="midnightblue" stroke="midnightblue" points="314.736,-72.1642 308.117,-80.4369 318.451,-78.0975 314.736,-72.1642"/>
</g>
</g>
</svg>
