<?xml version="1.0" encoding="UTF-8" standalone="no"?>
<!DOCTYPE svg PUBLIC "-//W3C//DTD SVG 1.1//EN"
 "http://www.w3.org/Graphics/SVG/1.1/DTD/svg11.dtd">
<!-- Generated by graphviz version 2.34.0 (20130907.0111)
 -->
<!-- Title: internalJSONNode::internalJSONNode Pages: 1 -->
<svg width="734pt" height="70pt"
 viewBox="0.00 0.00 734.00 70.00" xmlns="http://www.w3.org/2000/svg" xmlns:xlink="http://www.w3.org/1999/xlink">
<g id="graph0" class="graph" transform="scale(1 1) rotate(0) translate(4 66)">
<title>internalJSONNode::internalJSONNode</title>
<polygon fill="white" stroke="white" points="-4,4 -4,-66 730,-66 730,4 -4,4"/>
<!-- Node1 -->
<g id="node1" class="node"><title>Node1</title>
<polygon fill="#bfbfbf" stroke="black" points="0,-14 0,-48 158,-48 158,-14 0,-14"/>
<text text-anchor="start" x="8" y="-34.4" font-family="Helvetica,sans-Serif" font-size="12.00">internalJSONNode::internal</text>
<text text-anchor="middle" x="79" y="-21.4" font-family="Helvetica,sans-Serif" font-size="12.00">JSONNode</text>
</g>
<!-- Node2 -->
<g id="node2" class="node"><title>Node2</title>
<g id="a_node2"><a xlink:href="../../db/d49/classjson_children.html#ac71d832f3f81306fcb13e6f581f4431a" target="_top" xlink:title="jsonChildren::newChildren">
<polygon fill="white" stroke="black" points="200,-40.5 200,-61.5 352,-61.5 352,-40.5 200,-40.5"/>
<text text-anchor="middle" x="276" y="-47.9" font-family="Helvetica,sans-Serif" font-size="12.00">jsonChildren::newChildren</text>
</a>
</g>
</g>
<!-- Node1&#45;&gt;Node2 -->
<g id="edge1" class="edge"><title>Node1&#45;&gt;Node2</title>
<path fill="none" stroke="midnightblue" d="M158.19,-39.0195C168.629,-40.0901 179.375,-41.1923 189.924,-42.2742"/>
<polygon fill="midnightblue" stroke="midnightblue" points="189.656,-45.765 199.961,-43.3037 190.37,-38.8016 189.656,-45.765"/>
</g>
<!-- Node4 -->
<g id="node4" class="node"><title>Node4</title>
<g id="a_node4"><a xlink:href="../../d6/dc7/class_j_s_o_n_node.html#a2435b57e1586f3c7c7d915b3490a4e1c" target="_top" xlink:title="JSONNode::newJSONNode">
<polygon fill="white" stroke="black" points="194,-0.5 194,-21.5 358,-21.5 358,-0.5 194,-0.5"/>
<text text-anchor="middle" x="276" y="-7.9" font-family="Helvetica,sans-Serif" font-size="12.00">JSONNode::newJSONNode</text>
</a>
</g>
</g>
<!-- Node1&#45;&gt;Node4 -->
<g id="edge3" class="edge"><title>Node1&#45;&gt;Node4</title>
<path fill="none" stroke="midnightblue" d="M158.19,-22.9805C166.644,-22.1135 175.299,-21.2257 183.888,-20.3448"/>
<polygon fill="midnightblue" stroke="midnightblue" points="184.333,-23.8176 193.924,-19.3155 183.619,-16.8541 184.333,-23.8176"/>
</g>
<!-- Node3 -->
<g id="node3" class="node"><title>Node3</title>
<g id="a_node3"><a xlink:href="../../db/d49/classjson_children.html#aa31b15a1d697846a9c2a8a710b2ba6f1" target="_top" xlink:title="jsonChildren::jsonChildren">
<polygon fill="white" stroke="black" points="394,-40.5 394,-61.5 546,-61.5 546,-40.5 394,-40.5"/>
<text text-anchor="middle" x="470" y="-47.9" font-family="Helvetica,sans-Serif" font-size="12.00">jsonChildren::jsonChildren</text>
</a>
</g>
</g>
<!-- Node2&#45;&gt;Node3 -->
<g id="edge2" class="edge"><title>Node2&#45;&gt;Node3</title>
<path fill="none" stroke="midnightblue" d="M352.057,-51C362.498,-51 373.287,-51 383.896,-51"/>
<polygon fill="midnightblue" stroke="midnightblue" points="383.995,-54.5001 393.995,-51 383.995,-47.5001 383.995,-54.5001"/>
</g>
<!-- Node5 -->
<g id="node5" class="node"><title>Node5</title>
<g id="a_node5"><a xlink:href="../../db/d8a/_documentation_2_operator-_console_2_j_s_o_n_2_j_s_o_n_node_8cpp.html#a459ea7a97e80c19dfc813f2712b9dd73" target="_top" xlink:title="_newJSONNode">
<polygon fill="white" stroke="black" points="418,-0.5 418,-21.5 522,-21.5 522,-0.5 418,-0.5"/>
<text text-anchor="middle" x="470" y="-7.9" font-family="Helvetica,sans-Serif" font-size="12.00">_newJSONNode</text>
</a>
</g>
</g>
<!-- Node4&#45;&gt;Node5 -->
<g id="edge4" class="edge"><title>Node4&#45;&gt;Node5</title>
<path fill="none" stroke="midnightblue" d="M358.147,-11C374.77,-11 392.002,-11 407.784,-11"/>
<polygon fill="midnightblue" stroke="midnightblue" points="407.925,-14.5001 417.925,-11 407.925,-7.5001 407.925,-14.5001"/>
</g>
<!-- Node6 -->
<g id="node6" class="node"><title>Node6</title>
<g id="a_node6"><a xlink:href="../../d6/dc7/class_j_s_o_n_node.html#aba2db3c5af33c64e0cdccd33d18adc59" target="_top" xlink:title="JSONNode::JSONNode">
<polygon fill="white" stroke="black" points="582.5,-0.5 582.5,-21.5 725.5,-21.5 725.5,-0.5 582.5,-0.5"/>
<text text-anchor="middle" x="654" y="-7.9" font-family="Helvetica,sans-Serif" font-size="12.00">JSONNode::JSONNode</text>
</a>
</g>
</g>
<!-- Node5&#45;&gt;Node6 -->
<g id="edge5" class="edge"><title>Node5&#45;&gt;Node6</title>
<path fill="none" stroke="midnightblue" d="M522.181,-11C537.593,-11 554.901,-11 571.759,-11"/>
<polygon fill="midnightblue" stroke="midnightblue" points="572.175,-14.5001 582.175,-11 572.175,-7.5001 572.175,-14.5001"/>
</g>
</g>
</svg>
