<?xml version="1.0" encoding="UTF-8" standalone="no"?>
<!DOCTYPE svg PUBLIC "-//W3C//DTD SVG 1.1//EN"
 "http://www.w3.org/Graphics/SVG/1.1/DTD/svg11.dtd">
<!-- Generated by graphviz version 2.34.0 (20130907.0111)
 -->
<!-- Title: internalJSONNode::makeUnique Pages: 1 -->
<svg width="978pt" height="76pt"
 viewBox="0.00 0.00 978.00 76.00" xmlns="http://www.w3.org/2000/svg" xmlns:xlink="http://www.w3.org/1999/xlink">
<g id="graph0" class="graph" transform="scale(1 1) rotate(0) translate(4 72)">
<title>internalJSONNode::makeUnique</title>
<polygon fill="white" stroke="white" points="-4,4 -4,-72 974,-72 974,4 -4,4"/>
<!-- Node1 -->
<g id="node1" class="node"><title>Node1</title>
<polygon fill="#bfbfbf" stroke="black" points="0,-26.5 0,-47.5 186,-47.5 186,-26.5 0,-26.5"/>
<text text-anchor="middle" x="93" y="-33.9" font-family="Helvetica,sans-Serif" font-size="12.00">internalJSONNode::makeUnique</text>
</g>
<!-- Node2 -->
<g id="node2" class="node"><title>Node2</title>
<g id="a_node2"><a xlink:href="../../d1/d0b/classinternal_j_s_o_n_node.html#a1d79eee0bbd754c13edac1498e3a7a3d" target="_top" xlink:title="internalJSONNode::decRef">
<polygon fill="white" stroke="black" points="232,-46.5 232,-67.5 390,-67.5 390,-46.5 232,-46.5"/>
<text text-anchor="middle" x="311" y="-53.9" font-family="Helvetica,sans-Serif" font-size="12.00">internalJSONNode::decRef</text>
</a>
</g>
</g>
<!-- Node1&#45;&gt;Node2 -->
<g id="edge1" class="edge"><title>Node1&#45;&gt;Node2</title>
<path fill="none" stroke="midnightblue" d="M186.23,-45.5398C197.936,-46.6237 209.896,-47.7311 221.541,-48.8094"/>
<polygon fill="midnightblue" stroke="midnightblue" points="221.4,-52.3112 231.68,-49.7482 222.046,-45.341 221.4,-52.3112"/>
</g>
<!-- Node3 -->
<g id="node3" class="node"><title>Node3</title>
<g id="a_node3"><a xlink:href="../../d1/d0b/classinternal_j_s_o_n_node.html#a5656ff403a9a79fce1812aacee620fdd" target="_top" xlink:title="internalJSONNode::newInternal">
<polygon fill="white" stroke="black" points="222,-6.5 222,-27.5 400,-27.5 400,-6.5 222,-6.5"/>
<text text-anchor="middle" x="311" y="-13.9" font-family="Helvetica,sans-Serif" font-size="12.00">internalJSONNode::newInternal</text>
</a>
</g>
</g>
<!-- Node1&#45;&gt;Node3 -->
<g id="edge2" class="edge"><title>Node1&#45;&gt;Node3</title>
<path fill="none" stroke="midnightblue" d="M186.23,-28.4602C194.719,-27.6742 203.34,-26.8759 211.879,-26.0853"/>
<polygon fill="midnightblue" stroke="midnightblue" points="212.217,-29.5691 221.851,-25.1619 211.571,-22.5989 212.217,-29.5691"/>
</g>
<!-- Node4 -->
<g id="node4" class="node"><title>Node4</title>
<g id="a_node4"><a xlink:href="../../d1/d0b/classinternal_j_s_o_n_node.html#afb952c1e0ebf1928ecccd9a205baa0db" target="_top" xlink:title="internalJSONNode::internal\lJSONNode">
<polygon fill="white" stroke="black" points="436,-0 436,-34 594,-34 594,-0 436,-0"/>
<text text-anchor="start" x="444" y="-20.4" font-family="Helvetica,sans-Serif" font-size="12.00">internalJSONNode::internal</text>
<text text-anchor="middle" x="515" y="-7.4" font-family="Helvetica,sans-Serif" font-size="12.00">JSONNode</text>
</a>
</g>
</g>
<!-- Node3&#45;&gt;Node4 -->
<g id="edge3" class="edge"><title>Node3&#45;&gt;Node4</title>
<path fill="none" stroke="midnightblue" d="M400.013,-17C408.478,-17 417.067,-17 425.537,-17"/>
<polygon fill="midnightblue" stroke="midnightblue" points="425.793,-20.5001 435.793,-17 425.793,-13.5001 425.793,-20.5001"/>
</g>
<!-- Node5 -->
<g id="node5" class="node"><title>Node5</title>
<g id="a_node5"><a xlink:href="../../db/d49/classjson_children.html#ac71d832f3f81306fcb13e6f581f4431a" target="_top" xlink:title="jsonChildren::newChildren">
<polygon fill="white" stroke="black" points="630,-6.5 630,-27.5 782,-27.5 782,-6.5 630,-6.5"/>
<text text-anchor="middle" x="706" y="-13.9" font-family="Helvetica,sans-Serif" font-size="12.00">jsonChildren::newChildren</text>
</a>
</g>
</g>
<!-- Node4&#45;&gt;Node5 -->
<g id="edge4" class="edge"><title>Node4&#45;&gt;Node5</title>
<path fill="none" stroke="midnightblue" d="M594.238,-17C602.613,-17 611.163,-17 619.616,-17"/>
<polygon fill="midnightblue" stroke="midnightblue" points="619.859,-20.5001 629.859,-17 619.859,-13.5001 619.859,-20.5001"/>
</g>
<!-- Node6 -->
<g id="node6" class="node"><title>Node6</title>
<g id="a_node6"><a xlink:href="../../db/d49/classjson_children.html#aa31b15a1d697846a9c2a8a710b2ba6f1" target="_top" xlink:title="jsonChildren::jsonChildren">
<polygon fill="white" stroke="black" points="818,-6.5 818,-27.5 970,-27.5 970,-6.5 818,-6.5"/>
<text text-anchor="middle" x="894" y="-13.9" font-family="Helvetica,sans-Serif" font-size="12.00">jsonChildren::jsonChildren</text>
</a>
</g>
</g>
<!-- Node5&#45;&gt;Node6 -->
<g id="edge5" class="edge"><title>Node5&#45;&gt;Node6</title>
<path fill="none" stroke="midnightblue" d="M782.117,-17C790.596,-17 799.281,-17 807.875,-17"/>
<polygon fill="midnightblue" stroke="midnightblue" points="807.905,-20.5001 817.905,-17 807.905,-13.5001 807.905,-20.5001"/>
</g>
</g>
</svg>
