<?xml version="1.0" encoding="UTF-8" standalone="no"?>
<!DOCTYPE svg PUBLIC "-//W3C//DTD SVG 1.1//EN"
 "http://www.w3.org/Graphics/SVG/1.1/DTD/svg11.dtd">
<!-- Generated by graphviz version 2.34.0 (20130907.0111)
 -->
<!-- Title: internalJSONNode::internalJSONNode Pages: 1 -->
<svg width="1560pt" height="334pt"
 viewBox="0.00 0.00 1560.00 334.44" xmlns="http://www.w3.org/2000/svg" xmlns:xlink="http://www.w3.org/1999/xlink">
<g id="graph0" class="graph" transform="scale(1 1) rotate(0) translate(4 330.442)">
<title>internalJSONNode::internalJSONNode</title>
<polygon fill="white" stroke="white" points="-4,4 -4,-330.442 1556,-330.442 1556,4 -4,4"/>
<!-- Node1 -->
<g id="node1" class="node"><title>Node1</title>
<polygon fill="#bfbfbf" stroke="black" points="0,-154 0,-188 158,-188 158,-154 0,-154"/>
<text text-anchor="start" x="8" y="-174.4" font-family="Helvetica,sans-Serif" font-size="12.00">internalJSONNode::internal</text>
<text text-anchor="middle" x="79" y="-161.4" font-family="Helvetica,sans-Serif" font-size="12.00">JSONNode</text>
</g>
<!-- Node2 -->
<g id="node2" class="node"><title>Node2</title>
<g id="a_node2"><a xlink:href="../../d1/d0b/classinternal_j_s_o_n_node.html#a5656ff403a9a79fce1812aacee620fdd" target="_top" xlink:title="internalJSONNode::newInternal">
<polygon fill="white" stroke="black" points="194,-160.5 194,-181.5 372,-181.5 372,-160.5 194,-160.5"/>
<text text-anchor="middle" x="283" y="-167.9" font-family="Helvetica,sans-Serif" font-size="12.00">internalJSONNode::newInternal</text>
</a>
</g>
</g>
<!-- Node1&#45;&gt;Node2 -->
<g id="edge1" class="edge"><title>Node1&#45;&gt;Node2</title>
<path fill="none" stroke="midnightblue" d="M168.299,-171C176.724,-171 185.268,-171 193.693,-171"/>
<polygon fill="midnightblue" stroke="midnightblue" points="168.099,-167.5 158.098,-171 168.098,-174.5 168.099,-167.5"/>
</g>
<!-- Node3 -->
<g id="node3" class="node"><title>Node3</title>
<g id="a_node3"><a xlink:href="../../d1/d0b/classinternal_j_s_o_n_node.html#a72b82897da17766d09a3e4ea4a743cf1" target="_top" xlink:title="internalJSONNode::makeUnique">
<polygon fill="white" stroke="black" points="408,-160.5 408,-181.5 594,-181.5 594,-160.5 408,-160.5"/>
<text text-anchor="middle" x="501" y="-167.9" font-family="Helvetica,sans-Serif" font-size="12.00">internalJSONNode::makeUnique</text>
</a>
</g>
</g>
<!-- Node2&#45;&gt;Node3 -->
<g id="edge2" class="edge"><title>Node2&#45;&gt;Node3</title>
<path fill="none" stroke="midnightblue" d="M382.172,-171C390.739,-171 399.389,-171 407.904,-171"/>
<polygon fill="midnightblue" stroke="midnightblue" points="382.167,-167.5 372.167,-171 382.167,-174.5 382.167,-167.5"/>
</g>
<!-- Node4 -->
<g id="node4" class="node"><title>Node4</title>
<g id="a_node4"><a xlink:href="../../d1/d0b/classinternal_j_s_o_n_node.html#aa7598e92ebf6d0cc190ad23036c84508" target="_top" xlink:title="internalJSONNode::incRef">
<polygon fill="white" stroke="black" points="646.5,-180.5 646.5,-201.5 799.5,-201.5 799.5,-180.5 646.5,-180.5"/>
<text text-anchor="middle" x="723" y="-187.9" font-family="Helvetica,sans-Serif" font-size="12.00">internalJSONNode::incRef</text>
</a>
</g>
</g>
<!-- Node3&#45;&gt;Node4 -->
<g id="edge3" class="edge"><title>Node3&#45;&gt;Node4</title>
<path fill="none" stroke="midnightblue" d="M604.293,-180.299C618.455,-181.587 632.787,-182.89 646.346,-184.122"/>
<polygon fill="midnightblue" stroke="midnightblue" points="604.301,-176.786 594.025,-179.366 603.667,-183.757 604.301,-176.786"/>
</g>
<!-- Node5 -->
<g id="node5" class="node"><title>Node5</title>
<g id="a_node5"><a xlink:href="../../d6/dc7/class_j_s_o_n_node.html#a40fb037e147141fa07f90fe419e3a7a2" target="_top" xlink:title="JSONNode::makeUniqueInternal">
<polygon fill="white" stroke="black" points="630.5,-140.5 630.5,-161.5 815.5,-161.5 815.5,-140.5 630.5,-140.5"/>
<text text-anchor="middle" x="723" y="-147.9" font-family="Helvetica,sans-Serif" font-size="12.00">JSONNode::makeUniqueInternal</text>
</a>
</g>
</g>
<!-- Node3&#45;&gt;Node5 -->
<g id="edge4" class="edge"><title>Node3&#45;&gt;Node5</title>
<path fill="none" stroke="midnightblue" d="M604.215,-161.708C612.932,-160.915 621.715,-160.117 630.343,-159.332"/>
<polygon fill="midnightblue" stroke="midnightblue" points="603.667,-158.243 594.025,-162.634 604.301,-165.214 603.667,-158.243"/>
</g>
<!-- Node6 -->
<g id="node6" class="node"><title>Node6</title>
<g id="a_node6"><a xlink:href="../../d6/dc7/class_j_s_o_n_node.html#ae61d84dcd82f1261ef3bb219229e468f" target="_top" xlink:title="JSONNode::duplicate">
<polygon fill="white" stroke="black" points="859,-280.5 859,-301.5 989,-301.5 989,-280.5 859,-280.5"/>
<text text-anchor="middle" x="924" y="-287.9" font-family="Helvetica,sans-Serif" font-size="12.00">JSONNode::duplicate</text>
</a>
</g>
</g>
<!-- Node5&#45;&gt;Node6 -->
<g id="edge5" class="edge"><title>Node5&#45;&gt;Node6</title>
<path fill="none" stroke="midnightblue" d="M810.503,-166.722C812.415,-168.045 814.252,-169.468 816,-171 851.524,-202.135 817.434,-238.805 852,-271 856.123,-274.84 860.926,-277.952 866.054,-280.471"/>
<polygon fill="midnightblue" stroke="midnightblue" points="812.088,-163.595 801.692,-161.55 808.544,-169.631 812.088,-163.595"/>
</g>
<!-- Node14 -->
<g id="node14" class="node"><title>Node14</title>
<g id="a_node14"><a xlink:href="../../d6/dc7/class_j_s_o_n_node.html#a25976f906aad4da22a065353f1ef5f63" target="_top" xlink:title="JSONNode::clear_name">
<polygon fill="white" stroke="black" points="852,-240.5 852,-261.5 996,-261.5 996,-240.5 852,-240.5"/>
<text text-anchor="middle" x="924" y="-247.9" font-family="Helvetica,sans-Serif" font-size="12.00">JSONNode::clear_name</text>
</a>
</g>
</g>
<!-- Node5&#45;&gt;Node14 -->
<g id="edge14" class="edge"><title>Node5&#45;&gt;Node14</title>
<path fill="none" stroke="midnightblue" d="M807.903,-165.943C810.716,-167.473 813.427,-169.154 816,-171 841.27,-189.125 827.29,-212.118 852,-231 856.986,-234.81 862.664,-237.894 868.588,-240.391"/>
<polygon fill="midnightblue" stroke="midnightblue" points="809.153,-162.662 798.617,-161.549 806.159,-168.99 809.153,-162.662"/>
</g>
<!-- Node15 -->
<g id="node15" class="node"><title>Node15</title>
<g id="a_node15"><a xlink:href="../../d6/dc7/class_j_s_o_n_node.html#a334ff9a1fd0166c1f0cc11a4e3829a20" target="_top" xlink:title="JSONNode::clear">
<polygon fill="white" stroke="black" points="870,-200.5 870,-221.5 978,-221.5 978,-200.5 870,-200.5"/>
<text text-anchor="middle" x="924" y="-207.9" font-family="Helvetica,sans-Serif" font-size="12.00">JSONNode::clear</text>
</a>
</g>
</g>
<!-- Node5&#45;&gt;Node15 -->
<g id="edge16" class="edge"><title>Node5&#45;&gt;Node15</title>
<path fill="none" stroke="midnightblue" d="M794.598,-164.117C801.914,-166.136 809.165,-168.423 816,-171 833.126,-177.458 835.077,-184.027 852,-191 860.643,-194.561 870.131,-197.718 879.278,-200.411"/>
<polygon fill="midnightblue" stroke="midnightblue" points="795.176,-160.651 784.617,-161.527 793.417,-167.426 795.176,-160.651"/>
</g>
<!-- Node16 -->
<g id="node16" class="node"><title>Node16</title>
<g id="a_node16"><a xlink:href="../../d6/dc7/class_j_s_o_n_node.html#aabc5878c658fe47378a9f2294d5b1663" target="_top" xlink:title="JSONNode::nullify">
<polygon fill="white" stroke="black" points="869,-160.5 869,-181.5 979,-181.5 979,-160.5 869,-160.5"/>
<text text-anchor="middle" x="924" y="-167.9" font-family="Helvetica,sans-Serif" font-size="12.00">JSONNode::nullify</text>
</a>
</g>
</g>
<!-- Node5&#45;&gt;Node16 -->
<g id="edge17" class="edge"><title>Node5&#45;&gt;Node16</title>
<path fill="none" stroke="midnightblue" d="M825.871,-161.238C840.661,-162.725 855.382,-164.204 868.724,-165.545"/>
<polygon fill="midnightblue" stroke="midnightblue" points="825.937,-157.727 815.637,-160.21 825.237,-164.692 825.937,-157.727"/>
</g>
<!-- Node17 -->
<g id="node17" class="node"><title>Node17</title>
<g id="a_node17"><a xlink:href="../../d6/dc7/class_j_s_o_n_node.html#aeb5f2c8d831bcf4604cd669ba0e78f42" target="_top" xlink:title="JSONNode::begin">
<polygon fill="white" stroke="black" points="868,-120.5 868,-141.5 980,-141.5 980,-120.5 868,-120.5"/>
<text text-anchor="middle" x="924" y="-127.9" font-family="Helvetica,sans-Serif" font-size="12.00">JSONNode::begin</text>
</a>
</g>
</g>
<!-- Node5&#45;&gt;Node17 -->
<g id="edge18" class="edge"><title>Node5&#45;&gt;Node17</title>
<path fill="none" stroke="midnightblue" d="M825.699,-140.779C840.24,-139.318 854.719,-137.862 867.892,-136.538"/>
<polygon fill="midnightblue" stroke="midnightblue" points="825.237,-137.308 815.637,-141.79 825.937,-144.273 825.237,-137.308"/>
</g>
<!-- Node18 -->
<g id="node18" class="node"><title>Node18</title>
<g id="a_node18"><a xlink:href="../../d6/dc7/class_j_s_o_n_node.html#a2bc88d73d62cb8da471fc1500e67a400" target="_top" xlink:title="JSONNode::end">
<polygon fill="white" stroke="black" points="873,-80.5 873,-101.5 975,-101.5 975,-80.5 873,-80.5"/>
<text text-anchor="middle" x="924" y="-87.9" font-family="Helvetica,sans-Serif" font-size="12.00">JSONNode::end</text>
</a>
</g>
</g>
<!-- Node5&#45;&gt;Node18 -->
<g id="edge19" class="edge"><title>Node5&#45;&gt;Node18</title>
<path fill="none" stroke="midnightblue" d="M766.644,-137.342C791.492,-129.467 823.459,-119.477 852,-111 862.557,-107.864 874.034,-104.578 884.621,-101.597"/>
<polygon fill="midnightblue" stroke="midnightblue" points="765.277,-134.104 756.806,-140.467 767.397,-140.775 765.277,-134.104"/>
</g>
<!-- Node19 -->
<g id="node19" class="node"><title>Node19</title>
<g id="a_node19"><a xlink:href="../../d6/dc7/class_j_s_o_n_node.html#ac5d94b35ff3338939a0d8ab16cd0afd9" target="_top" xlink:title="JSONNode::rbegin">
<polygon fill="white" stroke="black" points="866,-40.5 866,-61.5 982,-61.5 982,-40.5 866,-40.5"/>
<text text-anchor="middle" x="924" y="-47.9" font-family="Helvetica,sans-Serif" font-size="12.00">JSONNode::rbegin</text>
</a>
</g>
</g>
<!-- Node5&#45;&gt;Node19 -->
<g id="edge20" class="edge"><title>Node5&#45;&gt;Node19</title>
<path fill="none" stroke="midnightblue" d="M746.139,-134.417C770.834,-116.592 812.515,-88.4715 852,-71 860.198,-67.3727 869.221,-64.2337 878.005,-61.5872"/>
<polygon fill="midnightblue" stroke="midnightblue" points="743.853,-131.753 737.845,-140.479 747.984,-137.404 743.853,-131.753"/>
</g>
<!-- Node20 -->
<g id="node20" class="node"><title>Node20</title>
<g id="a_node20"><a xlink:href="../../d6/dc7/class_j_s_o_n_node.html#a5d629aec2605dd6a7314f3ce5361080d" target="_top" xlink:title="JSONNode::rend">
<polygon fill="white" stroke="black" points="871,-0.5 871,-21.5 977,-21.5 977,-0.5 871,-0.5"/>
<text text-anchor="middle" x="924" y="-7.9" font-family="Helvetica,sans-Serif" font-size="12.00">JSONNode::rend</text>
</a>
</g>
</g>
<!-- Node5&#45;&gt;Node20 -->
<g id="edge21" class="edge"><title>Node5&#45;&gt;Node20</title>
<path fill="none" stroke="midnightblue" d="M738.965,-132.142C760.959,-105.678 804.573,-57.7698 852,-31 858.691,-27.2231 866.146,-24.118 873.639,-21.5773"/>
<polygon fill="midnightblue" stroke="midnightblue" points="735.972,-130.273 732.36,-140.233 741.395,-134.7 735.972,-130.273"/>
</g>
<!-- Node7 -->
<g id="node7" class="node"><title>Node7</title>
<g id="a_node7"><a xlink:href="../../d6/dc7/class_j_s_o_n_node.html#ad89a85d2b307990217b391df647fd6f5" target="_top" xlink:title="JSONNode::as_node">
<polygon fill="white" stroke="black" points="1032,-280.5 1032,-301.5 1160,-301.5 1160,-280.5 1032,-280.5"/>
<text text-anchor="middle" x="1096" y="-287.9" font-family="Helvetica,sans-Serif" font-size="12.00">JSONNode::as_node</text>
</a>
</g>
</g>
<!-- Node6&#45;&gt;Node7 -->
<g id="edge6" class="edge"><title>Node6&#45;&gt;Node7</title>
<path fill="none" stroke="midnightblue" d="M999.496,-291C1010.26,-291 1021.25,-291 1031.77,-291"/>
<polygon fill="midnightblue" stroke="midnightblue" points="999.27,-287.5 989.27,-291 999.27,-294.5 999.27,-287.5"/>
</g>
<!-- Node8 -->
<g id="node8" class="node"><title>Node8</title>
<g id="a_node8"><a xlink:href="../../d6/dc7/class_j_s_o_n_node.html#ac30e692c490e07e072ebfc7158904706" target="_top" xlink:title="JSONNode::as_array">
<polygon fill="white" stroke="black" points="1032,-240.5 1032,-261.5 1160,-261.5 1160,-240.5 1032,-240.5"/>
<text text-anchor="middle" x="1096" y="-247.9" font-family="Helvetica,sans-Serif" font-size="12.00">JSONNode::as_array</text>
</a>
</g>
</g>
<!-- Node6&#45;&gt;Node8 -->
<g id="edge7" class="edge"><title>Node6&#45;&gt;Node8</title>
<path fill="none" stroke="midnightblue" d="M979.564,-278.161C1002.42,-272.784 1028.66,-266.61 1050.34,-261.509"/>
<polygon fill="midnightblue" stroke="midnightblue" points="978.598,-274.793 969.665,-280.49 980.201,-281.607 978.598,-274.793"/>
</g>
<!-- Node9 -->
<g id="node9" class="node"><title>Node9</title>
<g id="a_node9"><a xlink:href="../../d8/de1/class_blemish_test.html#ad9071bb6332b7fc91a6e7c7ef109cba2" target="_top" xlink:title="Parses the JSON output of an sfrPlus test to determine the pass/fail status of the various metrics...">
<polygon fill="white" stroke="black" points="1394.5,-259.5 1394.5,-280.5 1551.5,-280.5 1551.5,-259.5 1394.5,-259.5"/>
<text text-anchor="middle" x="1473" y="-266.9" font-family="Helvetica,sans-Serif" font-size="12.00">BlemishTest::ParseResults</text>
</a>
</g>
</g>
<!-- Node8&#45;&gt;Node9 -->
<g id="edge8" class="edge"><title>Node8&#45;&gt;Node9</title>
<path fill="none" stroke="midnightblue" d="M1150.07,-265.508C1153.53,-267.159 1156.87,-268.985 1160,-271 1180.1,-283.961 1174.15,-301.269 1196,-311 1284.73,-350.515 1403.77,-302.984 1451.22,-280.517"/>
<polygon fill="midnightblue" stroke="midnightblue" points="1151.31,-262.228 1140.73,-261.532 1148.56,-268.669 1151.31,-262.228"/>
</g>
<!-- Node10 -->
<g id="node10" class="node"><title>Node10</title>
<g id="a_node10"><a xlink:href="../../da/d92/class_image_test.html#a3115f3892d84abcde05ab105ae4aaa8f" target="_top" xlink:title="ImageTest::GetString">
<polygon fill="white" stroke="black" points="1213.5,-280.5 1213.5,-301.5 1340.5,-301.5 1340.5,-280.5 1213.5,-280.5"/>
<text text-anchor="middle" x="1277" y="-287.9" font-family="Helvetica,sans-Serif" font-size="12.00">ImageTest::GetString</text>
</a>
</g>
</g>
<!-- Node8&#45;&gt;Node10 -->
<g id="edge9" class="edge"><title>Node8&#45;&gt;Node10</title>
<path fill="none" stroke="midnightblue" d="M1153.81,-263.694C1178.02,-269.106 1205.94,-275.344 1228.97,-280.491"/>
<polygon fill="midnightblue" stroke="midnightblue" points="1154.55,-260.275 1144.03,-261.51 1153.03,-267.106 1154.55,-260.275"/>
</g>
<!-- Node11 -->
<g id="node11" class="node"><title>Node11</title>
<g id="a_node11"><a xlink:href="../../da/d92/class_image_test.html#ae8c27027ba0cc33150ec423c6b7ec6ae" target="_top" xlink:title="ImageTest::ParseFailures">
<polygon fill="white" stroke="black" points="1201.5,-240.5 1201.5,-261.5 1352.5,-261.5 1352.5,-240.5 1201.5,-240.5"/>
<text text-anchor="middle" x="1277" y="-247.9" font-family="Helvetica,sans-Serif" font-size="12.00">ImageTest::ParseFailures</text>
</a>
</g>
</g>
<!-- Node8&#45;&gt;Node11 -->
<g id="edge10" class="edge"><title>Node8&#45;&gt;Node11</title>
<path fill="none" stroke="midnightblue" d="M1170.21,-251C1180.44,-251 1190.95,-251 1201.2,-251"/>
<polygon fill="midnightblue" stroke="midnightblue" points="1170.11,-247.5 1160.11,-251 1170.11,-254.5 1170.11,-247.5"/>
</g>
<!-- Node12 -->
<g id="node12" class="node"><title>Node12</title>
<g id="a_node12"><a xlink:href="../../d3/d71/jsonhelpers_8h.html#a0c2d0c196f0e8025cfc01c009dd24fad" target="_top" xlink:title="getIntFromArray">
<polygon fill="white" stroke="black" points="1227,-200.5 1227,-221.5 1327,-221.5 1327,-200.5 1227,-200.5"/>
<text text-anchor="middle" x="1277" y="-207.9" font-family="Helvetica,sans-Serif" font-size="12.00">getIntFromArray</text>
</a>
</g>
</g>
<!-- Node8&#45;&gt;Node12 -->
<g id="edge11" class="edge"><title>Node8&#45;&gt;Node12</title>
<path fill="none" stroke="midnightblue" d="M1153.81,-238.306C1178.02,-232.894 1205.94,-226.656 1228.97,-221.509"/>
<polygon fill="midnightblue" stroke="midnightblue" points="1153.03,-234.894 1144.03,-240.49 1154.55,-241.725 1153.03,-234.894"/>
</g>
<!-- Node13 -->
<g id="node13" class="node"><title>Node13</title>
<g id="a_node13"><a xlink:href="../../dd/d12/class_s_f_rplus_test.html#a900f5edde4636d8b6f8f802ff866a15d" target="_top" xlink:title="Determines the pass/fail result for each quadrant. ">
<polygon fill="white" stroke="black" points="1196.5,-160.5 1196.5,-181.5 1357.5,-181.5 1357.5,-160.5 1196.5,-160.5"/>
<text text-anchor="middle" x="1277" y="-167.9" font-family="Helvetica,sans-Serif" font-size="12.00">SFRplusTest::ParseOverlay</text>
</a>
</g>
</g>
<!-- Node8&#45;&gt;Node13 -->
<g id="edge13" class="edge"><title>Node8&#45;&gt;Node13</title>
<path fill="none" stroke="midnightblue" d="M1119.54,-234.63C1138.96,-221.21 1168.17,-202.6 1196,-191 1204.85,-187.31 1214.55,-184.181 1224.05,-181.573"/>
<polygon fill="midnightblue" stroke="midnightblue" points="1117.52,-231.773 1111.35,-240.387 1121.55,-237.5 1117.52,-231.773"/>
</g>
<!-- Node12&#45;&gt;Node9 -->
<g id="edge12" class="edge"><title>Node12&#45;&gt;Node9</title>
<path fill="none" stroke="midnightblue" d="M1332.85,-224.058C1341.3,-226.259 1349.91,-228.609 1358,-231 1387.29,-239.654 1420.25,-251.122 1443.17,-259.38"/>
<polygon fill="midnightblue" stroke="midnightblue" points="1333.59,-220.634 1323.03,-221.548 1331.85,-227.416 1333.59,-220.634"/>
</g>
<!-- Node14&#45;&gt;Node8 -->
<g id="edge15" class="edge"><title>Node14&#45;&gt;Node8</title>
<path fill="none" stroke="midnightblue" d="M1006.16,-251C1014.75,-251 1023.4,-251 1031.75,-251"/>
<polygon fill="midnightblue" stroke="midnightblue" points="1006.11,-247.5 996.11,-251 1006.11,-254.5 1006.11,-247.5"/>
</g>
</g>
</svg>
