<?xml version="1.0" encoding="UTF-8" standalone="no"?>
<!DOCTYPE svg PUBLIC "-//W3C//DTD SVG 1.1//EN"
 "http://www.w3.org/Graphics/SVG/1.1/DTD/svg11.dtd">
<!-- Generated by graphviz version 2.34.0 (20130907.0111)
 -->
<!-- Title: internalJSONNode::hasNoReferences Pages: 1 -->
<svg width="1338pt" height="103pt"
 viewBox="0.00 0.00 1338.00 103.00" xmlns="http://www.w3.org/2000/svg" xmlns:xlink="http://www.w3.org/1999/xlink">
<g id="graph0" class="graph" transform="scale(1 1) rotate(0) translate(4 99)">
<title>internalJSONNode::hasNoReferences</title>
<polygon fill="white" stroke="white" points="-4,4 -4,-99 1334,-99 1334,4 -4,4"/>
<!-- Node1 -->
<g id="node1" class="node"><title>Node1</title>
<polygon fill="#bfbfbf" stroke="black" points="0,-29.5 0,-50.5 214,-50.5 214,-29.5 0,-29.5"/>
<text text-anchor="middle" x="107" y="-36.9" font-family="Helvetica,sans-Serif" font-size="12.00">internalJSONNode::hasNoReferences</text>
</g>
<!-- Node2 -->
<g id="node2" class="node"><title>Node2</title>
<g id="a_node2"><a xlink:href="../../d6/dc7/class_j_s_o_n_node.html#ac68ad8233da336a15052bad5edf087a6" target="_top" xlink:title="JSONNode::decRef">
<polygon fill="white" stroke="black" points="250,-29.5 250,-50.5 370,-50.5 370,-29.5 250,-29.5"/>
<text text-anchor="middle" x="310" y="-36.9" font-family="Helvetica,sans-Serif" font-size="12.00">JSONNode::decRef</text>
</a>
</g>
</g>
<!-- Node1&#45;&gt;Node2 -->
<g id="edge1" class="edge"><title>Node1&#45;&gt;Node2</title>
<path fill="none" stroke="midnightblue" d="M224.116,-40C232.945,-40 241.61,-40 249.828,-40"/>
<polygon fill="midnightblue" stroke="midnightblue" points="224.092,-36.5001 214.092,-40 224.092,-43.5001 224.092,-36.5001"/>
</g>
<!-- Node3 -->
<g id="node3" class="node"><title>Node3</title>
<g id="a_node3"><a xlink:href="../../d6/dc7/class_j_s_o_n_node.html#ab7fcb8d880ff067c76ba5d90ea26cc02" target="_top" xlink:title="JSONNode::~JSONNode">
<polygon fill="white" stroke="black" points="406.5,-29.5 406.5,-50.5 555.5,-50.5 555.5,-29.5 406.5,-29.5"/>
<text text-anchor="middle" x="481" y="-36.9" font-family="Helvetica,sans-Serif" font-size="12.00">JSONNode::~JSONNode</text>
</a>
</g>
</g>
<!-- Node2&#45;&gt;Node3 -->
<g id="edge2" class="edge"><title>Node2&#45;&gt;Node3</title>
<path fill="none" stroke="midnightblue" d="M380.134,-40C388.781,-40 397.65,-40 406.362,-40"/>
<polygon fill="midnightblue" stroke="midnightblue" points="380.108,-36.5001 370.108,-40 380.108,-43.5001 380.108,-36.5001"/>
</g>
<!-- Node4 -->
<g id="node4" class="node"><title>Node4</title>
<g id="a_node4"><a xlink:href="../../d6/dc7/class_j_s_o_n_node.html#a4820d966e35e8512e8de4d646960e149" target="_top" xlink:title="JSONNode::deleteJSONNode">
<polygon fill="white" stroke="black" points="592.5,-29.5 592.5,-50.5 767.5,-50.5 767.5,-29.5 592.5,-29.5"/>
<text text-anchor="middle" x="680" y="-36.9" font-family="Helvetica,sans-Serif" font-size="12.00">JSONNode::deleteJSONNode</text>
</a>
</g>
</g>
<!-- Node3&#45;&gt;Node4 -->
<g id="edge3" class="edge"><title>Node3&#45;&gt;Node4</title>
<path fill="none" stroke="midnightblue" d="M565.793,-40C574.522,-40 583.408,-40 592.169,-40"/>
<polygon fill="midnightblue" stroke="midnightblue" points="565.636,-36.5001 555.636,-40 565.636,-43.5001 565.636,-36.5001"/>
</g>
<!-- Node5 -->
<g id="node5" class="node"><title>Node5</title>
<g id="a_node5"><a xlink:href="../../db/d49/classjson_children.html#a2ed8d882781d9681d3971df0008508b3" target="_top" xlink:title="jsonChildren::deleteAll">
<polygon fill="white" stroke="black" points="804,-53.5 804,-74.5 936,-74.5 936,-53.5 804,-53.5"/>
<text text-anchor="middle" x="870" y="-60.9" font-family="Helvetica,sans-Serif" font-size="12.00">jsonChildren::deleteAll</text>
</a>
</g>
</g>
<!-- Node4&#45;&gt;Node5 -->
<g id="edge4" class="edge"><title>Node4&#45;&gt;Node5</title>
<path fill="none" stroke="midnightblue" d="M773.639,-51.8263C783.844,-53.1291 794.071,-54.4346 803.837,-55.6813"/>
<polygon fill="midnightblue" stroke="midnightblue" points="773.822,-48.3213 763.46,-50.5267 772.936,-55.265 773.822,-48.3213"/>
</g>
<!-- Node9 -->
<g id="node9" class="node"><title>Node9</title>
<g id="a_node9"><a xlink:href="../../d6/dd3/structauto__delete.html#a5cbc6e3213b5b47b849dac80d2ea17b9" target="_top" xlink:title="auto_delete::~auto\l_delete">
<polygon fill="white" stroke="black" points="813.5,-0 813.5,-34 926.5,-34 926.5,-0 813.5,-0"/>
<text text-anchor="start" x="821.5" y="-20.4" font-family="Helvetica,sans-Serif" font-size="12.00">auto_delete::~auto</text>
<text text-anchor="middle" x="870" y="-7.4" font-family="Helvetica,sans-Serif" font-size="12.00">_delete</text>
</a>
</g>
</g>
<!-- Node4&#45;&gt;Node9 -->
<g id="edge8" class="edge"><title>Node4&#45;&gt;Node9</title>
<path fill="none" stroke="midnightblue" d="M777.019,-28.253C789.491,-26.7271 801.917,-25.207 813.416,-23.8002"/>
<polygon fill="midnightblue" stroke="midnightblue" points="776.523,-24.7875 767.022,-29.476 777.373,-31.7357 776.523,-24.7875"/>
</g>
<!-- Node6 -->
<g id="node6" class="node"><title>Node6</title>
<g id="a_node6"><a xlink:href="../../db/d49/classjson_children.html#a4e802eba4a1fe4736655ea44944b3662" target="_top" xlink:title="jsonChildren::~jsonChildren">
<polygon fill="white" stroke="black" points="972,-73.5 972,-94.5 1130,-94.5 1130,-73.5 972,-73.5"/>
<text text-anchor="middle" x="1051" y="-80.9" font-family="Helvetica,sans-Serif" font-size="12.00">jsonChildren::~jsonChildren</text>
</a>
</g>
</g>
<!-- Node5&#45;&gt;Node6 -->
<g id="edge5" class="edge"><title>Node5&#45;&gt;Node6</title>
<path fill="none" stroke="midnightblue" d="M946.312,-72.4148C954.748,-73.3573 963.355,-74.319 971.826,-75.2654"/>
<polygon fill="midnightblue" stroke="midnightblue" points="946.456,-68.9092 936.129,-71.277 945.679,-75.8659 946.456,-68.9092"/>
</g>
<!-- Node8 -->
<g id="node8" class="node"><title>Node8</title>
<g id="a_node8"><a xlink:href="../../db/d49/classjson_children.html#ae5b065bc0e3bf8dc7c3f130c900a1e32" target="_top" xlink:title="jsonChildren::clear">
<polygon fill="white" stroke="black" points="994.5,-33.5 994.5,-54.5 1107.5,-54.5 1107.5,-33.5 994.5,-33.5"/>
<text text-anchor="middle" x="1051" y="-40.9" font-family="Helvetica,sans-Serif" font-size="12.00">jsonChildren::clear</text>
</a>
</g>
</g>
<!-- Node5&#45;&gt;Node8 -->
<g id="edge7" class="edge"><title>Node5&#45;&gt;Node8</title>
<path fill="none" stroke="midnightblue" d="M946.097,-55.6093C962.269,-53.8023 979.087,-51.9233 994.361,-50.2167"/>
<polygon fill="midnightblue" stroke="midnightblue" points="945.679,-52.1341 936.129,-56.723 946.456,-59.0908 945.679,-52.1341"/>
</g>
<!-- Node7 -->
<g id="node7" class="node"><title>Node7</title>
<g id="a_node7"><a xlink:href="../../db/d49/classjson_children.html#a412672e4426b6889baa22a6b7f1e4422" target="_top" xlink:title="jsonChildren::deleteChildren">
<polygon fill="white" stroke="black" points="1166.5,-73.5 1166.5,-94.5 1329.5,-94.5 1329.5,-73.5 1166.5,-73.5"/>
<text text-anchor="middle" x="1248" y="-80.9" font-family="Helvetica,sans-Serif" font-size="12.00">jsonChildren::deleteChildren</text>
</a>
</g>
</g>
<!-- Node6&#45;&gt;Node7 -->
<g id="edge6" class="edge"><title>Node6&#45;&gt;Node7</title>
<path fill="none" stroke="midnightblue" d="M1140.28,-84C1148.93,-84 1157.68,-84 1166.24,-84"/>
<polygon fill="midnightblue" stroke="midnightblue" points="1140.19,-80.5001 1130.19,-84 1140.19,-87.5001 1140.19,-80.5001"/>
</g>
</g>
</svg>
