<?xml version="1.0" encoding="UTF-8" standalone="no"?>
<!DOCTYPE svg PUBLIC "-//W3C//DTD SVG 1.1//EN"
 "http://www.w3.org/Graphics/SVG/1.1/DTD/svg11.dtd">
<!-- Generated by graphviz version 2.34.0 (20130907.0111)
 -->
<!-- Title: internalJSONNode::FetchArray Pages: 1 -->
<svg width="590pt" height="89pt"
 viewBox="0.00 0.00 590.00 89.00" xmlns="http://www.w3.org/2000/svg" xmlns:xlink="http://www.w3.org/1999/xlink">
<g id="graph0" class="graph" transform="scale(1 1) rotate(0) translate(4 85)">
<title>internalJSONNode::FetchArray</title>
<polygon fill="white" stroke="white" points="-4,4 -4,-85 586,-85 586,4 -4,4"/>
<!-- Node1 -->
<g id="node1" class="node"><title>Node1</title>
<polygon fill="#bfbfbf" stroke="black" points="0.5,-40.5 0.5,-61.5 177.5,-61.5 177.5,-40.5 0.5,-40.5"/>
<text text-anchor="middle" x="89" y="-47.9" font-family="Helvetica,sans-Serif" font-size="12.00">internalJSONNode::FetchArray</text>
</g>
<!-- Node2 -->
<g id="node2" class="node"><title>Node2</title>
<g id="a_node2"><a xlink:href="../../d1/da6/_documentation_2_operator-_console_2_j_s_o_n_2_j_s_o_n_memory_8h.html#a8f88e025f043e8c423c6ddc3c887600b" target="_top" xlink:title="clearString">
<polygon fill="white" stroke="black" points="454.5,-59.5 454.5,-80.5 527.5,-80.5 527.5,-59.5 454.5,-59.5"/>
<text text-anchor="middle" x="491" y="-66.9" font-family="Helvetica,sans-Serif" font-size="12.00">clearString</text>
</a>
</g>
</g>
<!-- Node1&#45;&gt;Node2 -->
<g id="edge1" class="edge"><title>Node1&#45;&gt;Node2</title>
<path fill="none" stroke="midnightblue" d="M143.484,-61.5449C165.264,-65.3367 190.742,-69.1364 214,-71 294.769,-77.4718 389.261,-74.9574 444.104,-72.5046"/>
<polygon fill="midnightblue" stroke="midnightblue" points="444.374,-75.9959 454.2,-72.0335 444.047,-69.0035 444.374,-75.9959"/>
</g>
<!-- Node3 -->
<g id="node3" class="node"><title>Node3</title>
<g id="a_node3"><a xlink:href="../../d7/d6f/class_j_s_o_n_worker.html#a396aabc632272b5534353d4632bf849b" target="_top" xlink:title="JSONWorker::DoArray">
<polygon fill="white" stroke="black" points="221,-40.5 221,-61.5 357,-61.5 357,-40.5 221,-40.5"/>
<text text-anchor="middle" x="289" y="-47.9" font-family="Helvetica,sans-Serif" font-size="12.00">JSONWorker::DoArray</text>
</a>
</g>
</g>
<!-- Node1&#45;&gt;Node3 -->
<g id="edge2" class="edge"><title>Node1&#45;&gt;Node3</title>
<path fill="none" stroke="midnightblue" d="M177.71,-51C188.685,-51 199.847,-51 210.647,-51"/>
<polygon fill="midnightblue" stroke="midnightblue" points="210.873,-54.5001 220.873,-51 210.873,-47.5001 210.873,-54.5001"/>
</g>
<!-- Node4 -->
<g id="node4" class="node"><title>Node4</title>
<g id="a_node4"><a xlink:href="../../d1/d0b/classinternal_j_s_o_n_node.html#a9a3f9f79800b6141150dde72a55c0060" target="_top" xlink:title="internalJSONNode::Nullify">
<polygon fill="white" stroke="black" points="214,-0.5 214,-21.5 364,-21.5 364,-0.5 214,-0.5"/>
<text text-anchor="middle" x="289" y="-7.9" font-family="Helvetica,sans-Serif" font-size="12.00">internalJSONNode::Nullify</text>
</a>
</g>
</g>
<!-- Node1&#45;&gt;Node4 -->
<g id="edge3" class="edge"><title>Node1&#45;&gt;Node4</title>
<path fill="none" stroke="midnightblue" d="M142.022,-40.4905C167.727,-35.2977 198.931,-28.9936 225.882,-23.5492"/>
<polygon fill="midnightblue" stroke="midnightblue" points="226.873,-26.9197 235.982,-21.5087 225.487,-20.0583 226.873,-26.9197"/>
</g>
<!-- Node4&#45;&gt;Node2 -->
<g id="edge4" class="edge"><title>Node4&#45;&gt;Node2</title>
<path fill="none" stroke="midnightblue" d="M330.015,-21.5308C341.049,-24.512 353.007,-27.8144 364,-31 391.933,-39.0948 423.161,-48.7564 447.541,-56.438"/>
<polygon fill="midnightblue" stroke="midnightblue" points="446.611,-59.8148 457.201,-59.4911 448.721,-53.1402 446.611,-59.8148"/>
</g>
<!-- Node5 -->
<g id="node5" class="node"><title>Node5</title>
<g id="a_node5"><a xlink:href="../../d1/d0b/classinternal_j_s_o_n_node.html#a5f943a59b0e0e3a4e88f34dfeee6a922" target="_top" xlink:title="internalJSONNode::SetFetched">
<polygon fill="white" stroke="black" points="400.5,-0.5 400.5,-21.5 581.5,-21.5 581.5,-0.5 400.5,-0.5"/>
<text text-anchor="middle" x="491" y="-7.9" font-family="Helvetica,sans-Serif" font-size="12.00">internalJSONNode::SetFetched</text>
</a>
</g>
</g>
<!-- Node4&#45;&gt;Node5 -->
<g id="edge5" class="edge"><title>Node4&#45;&gt;Node5</title>
<path fill="none" stroke="midnightblue" d="M364.188,-11C372.658,-11 381.393,-11 390.126,-11"/>
<polygon fill="midnightblue" stroke="midnightblue" points="390.362,-14.5001 400.362,-11 390.362,-7.5001 390.362,-14.5001"/>
</g>
</g>
</svg>
