<?xml version="1.0" encoding="UTF-8" standalone="no"?>
<!DOCTYPE svg PUBLIC "-//W3C//DTD SVG 1.1//EN"
 "http://www.w3.org/Graphics/SVG/1.1/DTD/svg11.dtd">
<!-- Generated by graphviz version 2.34.0 (20130907.0111)
 -->
<!-- Title: internalJSONNode::Nullify Pages: 1 -->
<svg width="376pt" height="70pt"
 viewBox="0.00 0.00 376.00 70.00" xmlns="http://www.w3.org/2000/svg" xmlns:xlink="http://www.w3.org/1999/xlink">
<g id="graph0" class="graph" transform="scale(1 1) rotate(0) translate(4 66)">
<title>internalJSONNode::Nullify</title>
<polygon fill="white" stroke="white" points="-4,4 -4,-66 372,-66 372,4 -4,4"/>
<!-- Node1 -->
<g id="node1" class="node"><title>Node1</title>
<polygon fill="#bfbfbf" stroke="black" points="0,-20.5 0,-41.5 150,-41.5 150,-20.5 0,-20.5"/>
<text text-anchor="middle" x="75" y="-27.9" font-family="Helvetica,sans-Serif" font-size="12.00">internalJSONNode::Nullify</text>
</g>
<!-- Node2 -->
<g id="node2" class="node"><title>Node2</title>
<g id="a_node2"><a xlink:href="../../d1/da6/_documentation_2_operator-_console_2_j_s_o_n_2_j_s_o_n_memory_8h.html#a8f88e025f043e8c423c6ddc3c887600b" target="_top" xlink:title="clearString">
<polygon fill="white" stroke="black" points="240.5,-40.5 240.5,-61.5 313.5,-61.5 313.5,-40.5 240.5,-40.5"/>
<text text-anchor="middle" x="277" y="-47.9" font-family="Helvetica,sans-Serif" font-size="12.00">clearString</text>
</a>
</g>
</g>
<!-- Node1&#45;&gt;Node2 -->
<g id="edge1" class="edge"><title>Node1&#45;&gt;Node2</title>
<path fill="none" stroke="midnightblue" d="M150.188,-38.4188C177.012,-41.1012 206.496,-44.0496 230.175,-46.4175"/>
<polygon fill="midnightblue" stroke="midnightblue" points="229.98,-49.9154 240.279,-47.4279 230.677,-42.9501 229.98,-49.9154"/>
</g>
<!-- Node3 -->
<g id="node3" class="node"><title>Node3</title>
<g id="a_node3"><a xlink:href="../../d1/d0b/classinternal_j_s_o_n_node.html#a5f943a59b0e0e3a4e88f34dfeee6a922" target="_top" xlink:title="internalJSONNode::SetFetched">
<polygon fill="white" stroke="black" points="186.5,-0.5 186.5,-21.5 367.5,-21.5 367.5,-0.5 186.5,-0.5"/>
<text text-anchor="middle" x="277" y="-7.9" font-family="Helvetica,sans-Serif" font-size="12.00">internalJSONNode::SetFetched</text>
</a>
</g>
</g>
<!-- Node1&#45;&gt;Node3 -->
<g id="edge2" class="edge"><title>Node1&#45;&gt;Node3</title>
<path fill="none" stroke="midnightblue" d="M150.188,-23.5812C158.75,-22.725 167.583,-21.8417 176.411,-20.9589"/>
<polygon fill="midnightblue" stroke="midnightblue" points="176.76,-24.4415 186.362,-19.9638 176.063,-17.4763 176.76,-24.4415"/>
</g>
</g>
</svg>
