<?xml version="1.0" encoding="UTF-8" standalone="no"?>
<!DOCTYPE svg PUBLIC "-//W3C//DTD SVG 1.1//EN"
 "http://www.w3.org/Graphics/SVG/1.1/DTD/svg11.dtd">
<!-- Generated by graphviz version 2.34.0 (20130907.0111)
 -->
<!-- Title: internalJSONNode::FetchNumber Pages: 1 -->
<svg width="590pt" height="190pt"
 viewBox="0.00 0.00 590.00 190.00" xmlns="http://www.w3.org/2000/svg" xmlns:xlink="http://www.w3.org/1999/xlink">
<g id="graph0" class="graph" transform="scale(1 1) rotate(0) translate(4 186)">
<title>internalJSONNode::FetchNumber</title>
<polygon fill="white" stroke="white" points="-4,4 -4,-186 586,-186 586,4 -4,4"/>
<!-- Node1 -->
<g id="node1" class="node"><title>Node1</title>
<polygon fill="#bfbfbf" stroke="black" points="0.5,-80.5 0.5,-101.5 191.5,-101.5 191.5,-80.5 0.5,-80.5"/>
<text text-anchor="middle" x="96" y="-87.9" font-family="Helvetica,sans-Serif" font-size="12.00">internalJSONNode::FetchNumber</text>
</g>
<!-- Node2 -->
<g id="node2" class="node"><title>Node2</title>
<g id="a_node2"><a xlink:href="../../d1/d0b/classinternal_j_s_o_n_node.html#a2dba04775883475a7624257a82d1cac9" target="_top" xlink:title="internalJSONNode::Fetch">
<polygon fill="white" stroke="black" points="228.5,-80.5 228.5,-101.5 377.5,-101.5 377.5,-80.5 228.5,-80.5"/>
<text text-anchor="middle" x="303" y="-87.9" font-family="Helvetica,sans-Serif" font-size="12.00">internalJSONNode::Fetch</text>
</a>
</g>
</g>
<!-- Node1&#45;&gt;Node2 -->
<g id="edge1" class="edge"><title>Node1&#45;&gt;Node2</title>
<path fill="none" stroke="midnightblue" d="M201.787,-91C210.726,-91 219.642,-91 228.263,-91"/>
<polygon fill="midnightblue" stroke="midnightblue" points="201.699,-87.5001 191.699,-91 201.699,-94.5001 201.699,-87.5001"/>
</g>
<!-- Node3 -->
<g id="node3" class="node"><title>Node3</title>
<g id="a_node3"><a xlink:href="../../d1/d0b/classinternal_j_s_o_n_node.html#a83b24cb2bbdac4b1a1a532c44ffd397f" target="_top" xlink:title="internalJSONNode::begin">
<polygon fill="white" stroke="black" points="423.5,-160.5 423.5,-181.5 572.5,-181.5 572.5,-160.5 423.5,-160.5"/>
<text text-anchor="middle" x="498" y="-167.9" font-family="Helvetica,sans-Serif" font-size="12.00">internalJSONNode::begin</text>
</a>
</g>
</g>
<!-- Node2&#45;&gt;Node3 -->
<g id="edge2" class="edge"><title>Node2&#45;&gt;Node3</title>
<path fill="none" stroke="midnightblue" d="M328.705,-106.939C350.424,-120.341 383.274,-139.157 414,-151 423.543,-154.678 433.971,-157.827 444.115,-160.464"/>
<polygon fill="midnightblue" stroke="midnightblue" points="330.451,-103.902 320.117,-101.563 326.736,-109.836 330.451,-103.902"/>
</g>
<!-- Node4 -->
<g id="node4" class="node"><title>Node4</title>
<g id="a_node4"><a xlink:href="../../d1/d0b/classinternal_j_s_o_n_node.html#accd95751fc868a0f19530f0eeba1d09b" target="_top" xlink:title="internalJSONNode::empty">
<polygon fill="white" stroke="black" points="422,-120.5 422,-141.5 574,-141.5 574,-120.5 422,-120.5"/>
<text text-anchor="middle" x="498" y="-127.9" font-family="Helvetica,sans-Serif" font-size="12.00">internalJSONNode::empty</text>
</a>
</g>
</g>
<!-- Node2&#45;&gt;Node4 -->
<g id="edge3" class="edge"><title>Node2&#45;&gt;Node4</title>
<path fill="none" stroke="midnightblue" d="M364.554,-103.55C390.824,-108.995 421.241,-115.299 446.295,-120.491"/>
<polygon fill="midnightblue" stroke="midnightblue" points="365.211,-100.112 354.708,-101.51 363.79,-106.966 365.211,-100.112"/>
</g>
<!-- Node5 -->
<g id="node5" class="node"><title>Node5</title>
<g id="a_node5"><a xlink:href="../../d1/d0b/classinternal_j_s_o_n_node.html#a4bbd647f453bfdb21ef9b6a2fb6f62f8" target="_top" xlink:title="internalJSONNode::end">
<polygon fill="white" stroke="black" points="428,-80.5 428,-101.5 568,-101.5 568,-80.5 428,-80.5"/>
<text text-anchor="middle" x="498" y="-87.9" font-family="Helvetica,sans-Serif" font-size="12.00">internalJSONNode::end</text>
</a>
</g>
</g>
<!-- Node2&#45;&gt;Node5 -->
<g id="edge4" class="edge"><title>Node2&#45;&gt;Node5</title>
<path fill="none" stroke="midnightblue" d="M387.678,-91C401.075,-91 414.809,-91 427.82,-91"/>
<polygon fill="midnightblue" stroke="midnightblue" points="387.516,-87.5001 377.516,-91 387.516,-94.5001 387.516,-87.5001"/>
</g>
<!-- Node6 -->
<g id="node6" class="node"><title>Node6</title>
<g id="a_node6"><a xlink:href="../../d1/d0b/classinternal_j_s_o_n_node.html#abf6beef21cb476c4b2246f7b01a1ee98" target="_top" xlink:title="internalJSONNode::preparse">
<polygon fill="white" stroke="black" points="414.5,-40.5 414.5,-61.5 581.5,-61.5 581.5,-40.5 414.5,-40.5"/>
<text text-anchor="middle" x="498" y="-47.9" font-family="Helvetica,sans-Serif" font-size="12.00">internalJSONNode::preparse</text>
</a>
</g>
</g>
<!-- Node2&#45;&gt;Node6 -->
<g id="edge5" class="edge"><title>Node2&#45;&gt;Node6</title>
<path fill="none" stroke="midnightblue" d="M364.554,-78.45C390.824,-73.0054 421.241,-66.7014 446.295,-61.5087"/>
<polygon fill="midnightblue" stroke="midnightblue" points="363.79,-75.0338 354.708,-80.4905 365.211,-81.8881 363.79,-75.0338"/>
</g>
<!-- Node7 -->
<g id="node7" class="node"><title>Node7</title>
<g id="a_node7"><a xlink:href="../../d1/d0b/classinternal_j_s_o_n_node.html#a1b39d2c6b4bd28ed7ce2415fd5a94f57" target="_top" xlink:title="internalJSONNode::size">
<polygon fill="white" stroke="black" points="427.5,-0.5 427.5,-21.5 568.5,-21.5 568.5,-0.5 427.5,-0.5"/>
<text text-anchor="middle" x="498" y="-7.9" font-family="Helvetica,sans-Serif" font-size="12.00">internalJSONNode::size</text>
</a>
</g>
</g>
<!-- Node2&#45;&gt;Node7 -->
<g id="edge6" class="edge"><title>Node2&#45;&gt;Node7</title>
<path fill="none" stroke="midnightblue" d="M328.705,-75.0609C350.424,-61.6592 383.274,-42.8433 414,-31 423.543,-27.3217 433.971,-24.1733 444.115,-21.5363"/>
<polygon fill="midnightblue" stroke="midnightblue" points="326.736,-72.1642 320.117,-80.4369 330.451,-78.0975 326.736,-72.1642"/>
</g>
</g>
</svg>
