<?xml version="1.0" encoding="UTF-8" standalone="no"?>
<!DOCTYPE svg PUBLIC "-//W3C//DTD SVG 1.1//EN"
 "http://www.w3.org/Graphics/SVG/1.1/DTD/svg11.dtd">
<!-- Generated by graphviz version 2.34.0 (20130907.0111)
 -->
<!-- Title: internalJSONNode::end Pages: 1 -->
<svg width="1026pt" height="267pt"
 viewBox="0.00 0.00 1026.00 267.00" xmlns="http://www.w3.org/2000/svg" xmlns:xlink="http://www.w3.org/1999/xlink">
<g id="graph0" class="graph" transform="scale(1 1) rotate(0) translate(4 263)">
<title>internalJSONNode::end</title>
<polygon fill="white" stroke="white" points="-4,4 -4,-263 1022,-263 1022,4 -4,4"/>
<!-- Node1 -->
<g id="node1" class="node"><title>Node1</title>
<polygon fill="#bfbfbf" stroke="black" points="0,-118.5 0,-139.5 140,-139.5 140,-118.5 0,-118.5"/>
<text text-anchor="middle" x="70" y="-125.9" font-family="Helvetica,sans-Serif" font-size="12.00">internalJSONNode::end</text>
</g>
<!-- Node2 -->
<g id="node2" class="node"><title>Node2</title>
<g id="a_node2"><a xlink:href="../../d1/d0b/classinternal_j_s_o_n_node.html#a2dba04775883475a7624257a82d1cac9" target="_top" xlink:title="internalJSONNode::Fetch">
<polygon fill="white" stroke="black" points="191.5,-138.5 191.5,-159.5 340.5,-159.5 340.5,-138.5 191.5,-138.5"/>
<text text-anchor="middle" x="266" y="-145.9" font-family="Helvetica,sans-Serif" font-size="12.00">internalJSONNode::Fetch</text>
</a>
</g>
</g>
<!-- Node1&#45;&gt;Node2 -->
<g id="edge1" class="edge"><title>Node1&#45;&gt;Node2</title>
<path fill="none" stroke="midnightblue" d="M140.217,-136.136C153.397,-137.495 167.325,-138.93 180.909,-140.331"/>
<polygon fill="midnightblue" stroke="midnightblue" points="180.905,-143.849 191.212,-141.393 181.623,-136.886 180.905,-143.849"/>
</g>
<!-- Node14 -->
<g id="node14" class="node"><title>Node14</title>
<g id="a_node14"><a xlink:href="../../d1/d0b/classinternal_j_s_o_n_node.html#ae0f9898124b9f23eba855a6d240d340c" target="_top" xlink:title="internalJSONNode::isContainer">
<polygon fill="white" stroke="black" points="176,-98.5 176,-119.5 356,-119.5 356,-98.5 176,-98.5"/>
<text text-anchor="middle" x="266" y="-105.9" font-family="Helvetica,sans-Serif" font-size="12.00">internalJSONNode::isContainer</text>
</a>
</g>
</g>
<!-- Node1&#45;&gt;Node14 -->
<g id="edge19" class="edge"><title>Node1&#45;&gt;Node14</title>
<path fill="none" stroke="midnightblue" d="M140.217,-121.864C148.507,-121.01 157.093,-120.124 165.704,-119.237"/>
<polygon fill="midnightblue" stroke="midnightblue" points="166.218,-122.702 175.806,-118.195 165.5,-115.739 166.218,-122.702"/>
</g>
<!-- Node3 -->
<g id="node3" class="node"><title>Node3</title>
<g id="a_node3"><a xlink:href="../../d1/d0b/classinternal_j_s_o_n_node.html#a924514c9b1dbec1f779d8294371c0033" target="_top" xlink:title="internalJSONNode::type">
<polygon fill="white" stroke="black" points="411,-237.5 411,-258.5 553,-258.5 553,-237.5 411,-237.5"/>
<text text-anchor="middle" x="482" y="-244.9" font-family="Helvetica,sans-Serif" font-size="12.00">internalJSONNode::type</text>
</a>
</g>
</g>
<!-- Node2&#45;&gt;Node3 -->
<g id="edge2" class="edge"><title>Node2&#45;&gt;Node3</title>
<path fill="none" stroke="midnightblue" d="M280.385,-159.669C302.379,-176.671 348.115,-209.841 392,-228 398.096,-230.522 404.564,-232.753 411.123,-234.721"/>
<polygon fill="midnightblue" stroke="midnightblue" points="410.19,-238.094 420.763,-237.419 412.076,-231.353 410.19,-238.094"/>
</g>
<!-- Node4 -->
<g id="node4" class="node"><title>Node4</title>
<g id="a_node4"><a xlink:href="../../d1/d0b/classinternal_j_s_o_n_node.html#a40ace389d49c93b870ce3a0aaab70640" target="_top" xlink:title="internalJSONNode::FetchString">
<polygon fill="white" stroke="black" points="392,-119.5 392,-140.5 572,-140.5 572,-119.5 392,-119.5"/>
<text text-anchor="middle" x="482" y="-126.9" font-family="Helvetica,sans-Serif" font-size="12.00">internalJSONNode::FetchString</text>
</a>
</g>
</g>
<!-- Node2&#45;&gt;Node4 -->
<g id="edge3" class="edge"><title>Node2&#45;&gt;Node4</title>
<path fill="none" stroke="midnightblue" d="M340.647,-142.461C353.878,-141.287 367.865,-140.045 381.681,-138.818"/>
<polygon fill="midnightblue" stroke="midnightblue" points="382.046,-142.299 391.698,-137.929 381.427,-135.327 382.046,-142.299"/>
</g>
<!-- Node5 -->
<g id="node5" class="node"><title>Node5</title>
<g id="a_node5"><a xlink:href="../../d1/d0b/classinternal_j_s_o_n_node.html#a9a3f9f79800b6141150dde72a55c0060" target="_top" xlink:title="internalJSONNode::Nullify">
<polygon fill="white" stroke="black" points="629,-158.5 629,-179.5 779,-179.5 779,-158.5 629,-158.5"/>
<text text-anchor="middle" x="704" y="-165.9" font-family="Helvetica,sans-Serif" font-size="12.00">internalJSONNode::Nullify</text>
</a>
</g>
</g>
<!-- Node2&#45;&gt;Node5 -->
<g id="edge18" class="edge"><title>Node2&#45;&gt;Node5</title>
<path fill="none" stroke="midnightblue" d="M340.961,-152.393C417.848,-155.92 538.002,-161.431 618.563,-165.127"/>
<polygon fill="midnightblue" stroke="midnightblue" points="618.526,-168.629 628.676,-165.591 618.847,-161.636 618.526,-168.629"/>
</g>
<!-- Node9 -->
<g id="node9" class="node"><title>Node9</title>
<g id="a_node9"><a xlink:href="../../d1/d0b/classinternal_j_s_o_n_node.html#a69dde8286881b07590238abf1d91a245" target="_top" xlink:title="internalJSONNode::FetchNode">
<polygon fill="white" stroke="black" points="393,-197.5 393,-218.5 571,-218.5 571,-197.5 393,-197.5"/>
<text text-anchor="middle" x="482" y="-204.9" font-family="Helvetica,sans-Serif" font-size="12.00">internalJSONNode::FetchNode</text>
</a>
</g>
</g>
<!-- Node2&#45;&gt;Node9 -->
<g id="edge8" class="edge"><title>Node2&#45;&gt;Node9</title>
<path fill="none" stroke="midnightblue" d="M305.259,-159.548C340.905,-169.376 394.203,-184.07 432.754,-194.698"/>
<polygon fill="midnightblue" stroke="midnightblue" points="432.142,-198.16 442.712,-197.444 434.002,-191.412 432.142,-198.16"/>
</g>
<!-- Node11 -->
<g id="node11" class="node"><title>Node11</title>
<g id="a_node11"><a xlink:href="../../d1/d0b/classinternal_j_s_o_n_node.html#a59d6db90025af648ee5f556e15242e00" target="_top" xlink:title="internalJSONNode::FetchArray">
<polygon fill="white" stroke="black" points="393.5,-79.5 393.5,-100.5 570.5,-100.5 570.5,-79.5 393.5,-79.5"/>
<text text-anchor="middle" x="482" y="-86.9" font-family="Helvetica,sans-Serif" font-size="12.00">internalJSONNode::FetchArray</text>
</a>
</g>
</g>
<!-- Node2&#45;&gt;Node11 -->
<g id="edge12" class="edge"><title>Node2&#45;&gt;Node11</title>
<path fill="none" stroke="midnightblue" d="M324.624,-138.396C335.204,-135.791 346.045,-132.672 356,-129 372.974,-122.74 375.026,-116.26 392,-110 398.844,-107.476 406.107,-105.212 413.416,-103.198"/>
<polygon fill="midnightblue" stroke="midnightblue" points="414.581,-106.511 423.376,-100.604 412.817,-99.7371 414.581,-106.511"/>
</g>
<!-- Node13 -->
<g id="node13" class="node"><title>Node13</title>
<g id="a_node13"><a xlink:href="../../d1/d0b/classinternal_j_s_o_n_node.html#aec946311873984a1b810ecb7a4e3d480" target="_top" xlink:title="internalJSONNode::FetchNumber">
<polygon fill="white" stroke="black" points="608.5,-0.5 608.5,-21.5 799.5,-21.5 799.5,-0.5 608.5,-0.5"/>
<text text-anchor="middle" x="704" y="-7.9" font-family="Helvetica,sans-Serif" font-size="12.00">internalJSONNode::FetchNumber</text>
</a>
</g>
</g>
<!-- Node2&#45;&gt;Node13 -->
<g id="edge16" class="edge"><title>Node2&#45;&gt;Node13</title>
<path fill="none" stroke="midnightblue" d="M338.716,-138.38C344.853,-135.868 350.723,-132.783 356,-129 380.965,-111.102 366.738,-87.4766 392,-70 452.06,-28.45 533.57,-14.1389 598.076,-9.98343"/>
<polygon fill="midnightblue" stroke="midnightblue" points="598.493,-13.4654 608.277,-9.4011 598.094,-6.47682 598.493,-13.4654"/>
</g>
<!-- Node4&#45;&gt;Node5 -->
<g id="edge4" class="edge"><title>Node4&#45;&gt;Node5</title>
<path fill="none" stroke="midnightblue" d="M542.245,-140.503C570.365,-145.487 604.152,-151.477 633.478,-156.676"/>
<polygon fill="midnightblue" stroke="midnightblue" points="633.191,-160.179 643.649,-158.479 634.413,-153.287 633.191,-160.179"/>
</g>
<!-- Node8 -->
<g id="node8" class="node"><title>Node8</title>
<g id="a_node8"><a xlink:href="../../d7/d6f/class_j_s_o_n_worker.html#ab473775a73ea206263df728a421944da" target="_top" xlink:title="JSONWorker::FixString">
<polygon fill="white" stroke="black" points="634.5,-118.5 634.5,-139.5 773.5,-139.5 773.5,-118.5 634.5,-118.5"/>
<text text-anchor="middle" x="704" y="-125.9" font-family="Helvetica,sans-Serif" font-size="12.00">JSONWorker::FixString</text>
</a>
</g>
</g>
<!-- Node4&#45;&gt;Node8 -->
<g id="edge7" class="edge"><title>Node4&#45;&gt;Node8</title>
<path fill="none" stroke="midnightblue" d="M572.165,-129.595C589.328,-129.517 607.193,-129.435 624.006,-129.359"/>
<polygon fill="midnightblue" stroke="midnightblue" points="624.339,-132.858 634.323,-129.312 624.307,-125.858 624.339,-132.858"/>
</g>
<!-- Node6 -->
<g id="node6" class="node"><title>Node6</title>
<g id="a_node6"><a xlink:href="../../d1/da6/_documentation_2_operator-_console_2_j_s_o_n_2_j_s_o_n_memory_8h.html#a8f88e025f043e8c423c6ddc3c887600b" target="_top" xlink:title="clearString">
<polygon fill="white" stroke="black" points="890.5,-98.5 890.5,-119.5 963.5,-119.5 963.5,-98.5 890.5,-98.5"/>
<text text-anchor="middle" x="927" y="-105.9" font-family="Helvetica,sans-Serif" font-size="12.00">clearString</text>
</a>
</g>
</g>
<!-- Node5&#45;&gt;Node6 -->
<g id="edge5" class="edge"><title>Node5&#45;&gt;Node6</title>
<path fill="none" stroke="midnightblue" d="M759.727,-158.454C772.971,-155.633 787.042,-152.412 800,-149 829.065,-141.347 861.366,-131.057 885.986,-122.83"/>
<polygon fill="midnightblue" stroke="midnightblue" points="887.337,-126.068 895.696,-119.559 885.102,-119.434 887.337,-126.068"/>
</g>
<!-- Node7 -->
<g id="node7" class="node"><title>Node7</title>
<g id="a_node7"><a xlink:href="../../d1/d0b/classinternal_j_s_o_n_node.html#a5f943a59b0e0e3a4e88f34dfeee6a922" target="_top" xlink:title="internalJSONNode::SetFetched">
<polygon fill="white" stroke="black" points="836.5,-158.5 836.5,-179.5 1017.5,-179.5 1017.5,-158.5 836.5,-158.5"/>
<text text-anchor="middle" x="927" y="-165.9" font-family="Helvetica,sans-Serif" font-size="12.00">internalJSONNode::SetFetched</text>
</a>
</g>
</g>
<!-- Node5&#45;&gt;Node7 -->
<g id="edge6" class="edge"><title>Node5&#45;&gt;Node7</title>
<path fill="none" stroke="midnightblue" d="M779.205,-169C794.223,-169 810.247,-169 825.985,-169"/>
<polygon fill="midnightblue" stroke="midnightblue" points="826.273,-172.5 836.273,-169 826.273,-165.5 826.273,-172.5"/>
</g>
<!-- Node9&#45;&gt;Node5 -->
<g id="edge9" class="edge"><title>Node9&#45;&gt;Node5</title>
<path fill="none" stroke="midnightblue" d="M542.245,-197.497C570.365,-192.513 604.152,-186.523 633.478,-181.324"/>
<polygon fill="midnightblue" stroke="midnightblue" points="634.413,-184.713 643.649,-179.521 633.191,-177.821 634.413,-184.713"/>
</g>
<!-- Node9&#45;&gt;Node6 -->
<g id="edge11" class="edge"><title>Node9&#45;&gt;Node6</title>
<path fill="none" stroke="midnightblue" d="M553.569,-218.528C620.457,-225.201 722.017,-226.566 800,-189 821.548,-178.62 816.647,-163.054 836,-149 850.551,-138.433 868.336,-129.797 884.242,-123.289"/>
<polygon fill="midnightblue" stroke="midnightblue" points="885.828,-126.427 893.858,-119.514 883.27,-119.911 885.828,-126.427"/>
</g>
<!-- Node10 -->
<g id="node10" class="node"><title>Node10</title>
<g id="a_node10"><a xlink:href="../../d7/d6f/class_j_s_o_n_worker.html#a6e6a8187072b0686575d532c6e8ea794" target="_top" xlink:title="JSONWorker::DoNode">
<polygon fill="white" stroke="black" points="635.5,-236.5 635.5,-257.5 772.5,-257.5 772.5,-236.5 635.5,-236.5"/>
<text text-anchor="middle" x="704" y="-243.9" font-family="Helvetica,sans-Serif" font-size="12.00">JSONWorker::DoNode</text>
</a>
</g>
</g>
<!-- Node9&#45;&gt;Node10 -->
<g id="edge10" class="edge"><title>Node9&#45;&gt;Node10</title>
<path fill="none" stroke="midnightblue" d="M542.245,-218.503C570.365,-223.487 604.152,-229.477 633.478,-234.676"/>
<polygon fill="midnightblue" stroke="midnightblue" points="633.191,-238.179 643.649,-236.479 634.413,-231.287 633.191,-238.179"/>
</g>
<!-- Node11&#45;&gt;Node5 -->
<g id="edge13" class="edge"><title>Node11&#45;&gt;Node5</title>
<path fill="none" stroke="midnightblue" d="M550.746,-100.632C558.171,-103.125 565.415,-106.202 572,-110 592.433,-121.787 587.487,-137.352 608,-149 611.898,-151.213 616.011,-153.183 620.252,-154.935"/>
<polygon fill="midnightblue" stroke="midnightblue" points="619.117,-158.246 629.71,-158.434 621.546,-151.681 619.117,-158.246"/>
</g>
<!-- Node11&#45;&gt;Node6 -->
<g id="edge15" class="edge"><title>Node11&#45;&gt;Node6</title>
<path fill="none" stroke="midnightblue" d="M570.523,-93.7538C663.653,-97.7481 807.398,-103.913 880.274,-107.039"/>
<polygon fill="midnightblue" stroke="midnightblue" points="880.357,-110.546 890.498,-107.477 880.657,-103.552 880.357,-110.546"/>
</g>
<!-- Node12 -->
<g id="node12" class="node"><title>Node12</title>
<g id="a_node12"><a xlink:href="../../d7/d6f/class_j_s_o_n_worker.html#a396aabc632272b5534353d4632bf849b" target="_top" xlink:title="JSONWorker::DoArray">
<polygon fill="white" stroke="black" points="636,-40.5 636,-61.5 772,-61.5 772,-40.5 636,-40.5"/>
<text text-anchor="middle" x="704" y="-47.9" font-family="Helvetica,sans-Serif" font-size="12.00">JSONWorker::DoArray</text>
</a>
</g>
</g>
<!-- Node11&#45;&gt;Node12 -->
<g id="edge14" class="edge"><title>Node11&#45;&gt;Node12</title>
<path fill="none" stroke="midnightblue" d="M542.245,-79.4974C570.365,-74.5126 604.152,-68.5231 633.478,-63.3243"/>
<polygon fill="midnightblue" stroke="midnightblue" points="634.413,-66.7132 643.649,-61.5213 633.191,-59.8207 634.413,-66.7132"/>
</g>
<!-- Node13&#45;&gt;Node6 -->
<g id="edge17" class="edge"><title>Node13&#45;&gt;Node6</title>
<path fill="none" stroke="midnightblue" d="M770.028,-21.5445C780.236,-24.0931 790.534,-27.2092 800,-31 839.352,-46.7587 880.243,-74.5431 904.391,-92.3455"/>
<polygon fill="midnightblue" stroke="midnightblue" points="902.393,-95.2218 912.496,-98.4118 906.588,-89.6177 902.393,-95.2218"/>
</g>
</g>
</svg>
