<?xml version="1.0" encoding="UTF-8" standalone="no"?>
<!DOCTYPE svg PUBLIC "-//W3C//DTD SVG 1.1//EN"
 "http://www.w3.org/Graphics/SVG/1.1/DTD/svg11.dtd">
<!-- Generated by graphviz version 2.34.0 (20130907.0111)
 -->
<!-- Title: internalJSONNode::Fetch Pages: 1 -->
<svg width="820pt" height="266pt"
 viewBox="0.00 0.00 820.00 266.00" xmlns="http://www.w3.org/2000/svg" xmlns:xlink="http://www.w3.org/1999/xlink">
<g id="graph0" class="graph" transform="scale(1 1) rotate(0) translate(4 262)">
<title>internalJSONNode::Fetch</title>
<polygon fill="white" stroke="white" points="-4,4 -4,-262 816,-262 816,4 -4,4"/>
<!-- Node1 -->
<g id="node1" class="node"><title>Node1</title>
<polygon fill="#bfbfbf" stroke="black" points="0.5,-99.5 0.5,-120.5 149.5,-120.5 149.5,-99.5 0.5,-99.5"/>
<text text-anchor="middle" x="75" y="-106.9" font-family="Helvetica,sans-Serif" font-size="12.00">internalJSONNode::Fetch</text>
</g>
<!-- Node2 -->
<g id="node2" class="node"><title>Node2</title>
<g id="a_node2"><a xlink:href="../../d1/d0b/classinternal_j_s_o_n_node.html#a59d6db90025af648ee5f556e15242e00" target="_top" xlink:title="internalJSONNode::FetchArray">
<polygon fill="white" stroke="black" points="187.5,-197.5 187.5,-218.5 364.5,-218.5 364.5,-197.5 187.5,-197.5"/>
<text text-anchor="middle" x="276" y="-204.9" font-family="Helvetica,sans-Serif" font-size="12.00">internalJSONNode::FetchArray</text>
</a>
</g>
</g>
<!-- Node1&#45;&gt;Node2 -->
<g id="edge1" class="edge"><title>Node1&#45;&gt;Node2</title>
<path fill="none" stroke="midnightblue" d="M89.0818,-120.674C108.916,-136.377 148.289,-165.711 186,-183 195.829,-187.506 206.65,-191.373 217.258,-194.623"/>
<polygon fill="midnightblue" stroke="midnightblue" points="216.327,-197.997 226.907,-197.436 218.286,-191.277 216.327,-197.997"/>
</g>
<!-- Node3 -->
<g id="node3" class="node"><title>Node3</title>
<g id="a_node3"><a xlink:href="../../d1/d0b/classinternal_j_s_o_n_node.html#a9a3f9f79800b6141150dde72a55c0060" target="_top" xlink:title="internalJSONNode::Nullify">
<polygon fill="white" stroke="black" points="423,-158.5 423,-179.5 573,-179.5 573,-158.5 423,-158.5"/>
<text text-anchor="middle" x="498" y="-165.9" font-family="Helvetica,sans-Serif" font-size="12.00">internalJSONNode::Nullify</text>
</a>
</g>
</g>
<!-- Node1&#45;&gt;Node3 -->
<g id="edge16" class="edge"><title>Node1&#45;&gt;Node3</title>
<path fill="none" stroke="midnightblue" d="M99.0333,-120.59C120.905,-130.108 154.963,-143.55 186,-150 261.505,-165.691 349.363,-169.798 412.4,-170.357"/>
<polygon fill="midnightblue" stroke="midnightblue" points="412.669,-173.858 422.69,-170.419 412.711,-166.859 412.669,-173.858"/>
</g>
<!-- Node7 -->
<g id="node7" class="node"><title>Node7</title>
<g id="a_node7"><a xlink:href="../../d1/d0b/classinternal_j_s_o_n_node.html#a69dde8286881b07590238abf1d91a245" target="_top" xlink:title="internalJSONNode::FetchNode">
<polygon fill="white" stroke="black" points="187,-79.5 187,-100.5 365,-100.5 365,-79.5 187,-79.5"/>
<text text-anchor="middle" x="276" y="-86.9" font-family="Helvetica,sans-Serif" font-size="12.00">internalJSONNode::FetchNode</text>
</a>
</g>
</g>
<!-- Node1&#45;&gt;Node7 -->
<g id="edge7" class="edge"><title>Node1&#45;&gt;Node7</title>
<path fill="none" stroke="midnightblue" d="M149.535,-102.61C158.479,-101.711 167.724,-100.782 176.952,-99.8541"/>
<polygon fill="midnightblue" stroke="midnightblue" points="177.344,-103.332 186.944,-98.8498 176.644,-96.3675 177.344,-103.332"/>
</g>
<!-- Node9 -->
<g id="node9" class="node"><title>Node9</title>
<g id="a_node9"><a xlink:href="../../d1/d0b/classinternal_j_s_o_n_node.html#aec946311873984a1b810ecb7a4e3d480" target="_top" xlink:title="internalJSONNode::FetchNumber">
<polygon fill="white" stroke="black" points="402.5,-0.5 402.5,-21.5 593.5,-21.5 593.5,-0.5 402.5,-0.5"/>
<text text-anchor="middle" x="498" y="-7.9" font-family="Helvetica,sans-Serif" font-size="12.00">internalJSONNode::FetchNumber</text>
</a>
</g>
</g>
<!-- Node1&#45;&gt;Node9 -->
<g id="edge11" class="edge"><title>Node1&#45;&gt;Node9</title>
<path fill="none" stroke="midnightblue" d="M101.403,-99.4352C123.458,-90.585 156.412,-78.129 186,-70 229.932,-57.9299 347.417,-36.7452 424.749,-23.3157"/>
<polygon fill="midnightblue" stroke="midnightblue" points="425.656,-26.7108 434.912,-21.5553 424.461,-19.8135 425.656,-26.7108"/>
</g>
<!-- Node10 -->
<g id="node10" class="node"><title>Node10</title>
<g id="a_node10"><a xlink:href="../../d1/d0b/classinternal_j_s_o_n_node.html#a40ace389d49c93b870ce3a0aaab70640" target="_top" xlink:title="internalJSONNode::FetchString">
<polygon fill="white" stroke="black" points="186,-119.5 186,-140.5 366,-140.5 366,-119.5 186,-119.5"/>
<text text-anchor="middle" x="276" y="-126.9" font-family="Helvetica,sans-Serif" font-size="12.00">internalJSONNode::FetchString</text>
</a>
</g>
</g>
<!-- Node1&#45;&gt;Node10 -->
<g id="edge13" class="edge"><title>Node1&#45;&gt;Node10</title>
<path fill="none" stroke="midnightblue" d="M149.535,-117.39C158.142,-118.256 167.029,-119.149 175.91,-120.041"/>
<polygon fill="midnightblue" stroke="midnightblue" points="175.621,-123.53 185.921,-121.047 176.321,-116.565 175.621,-123.53"/>
</g>
<!-- Node12 -->
<g id="node12" class="node"><title>Node12</title>
<g id="a_node12"><a xlink:href="../../d1/d0b/classinternal_j_s_o_n_node.html#a924514c9b1dbec1f779d8294371c0033" target="_top" xlink:title="internalJSONNode::type">
<polygon fill="white" stroke="black" points="205,-1.5 205,-22.5 347,-22.5 347,-1.5 205,-1.5"/>
<text text-anchor="middle" x="276" y="-8.9" font-family="Helvetica,sans-Serif" font-size="12.00">internalJSONNode::type</text>
</a>
</g>
</g>
<!-- Node1&#45;&gt;Node12 -->
<g id="edge17" class="edge"><title>Node1&#45;&gt;Node12</title>
<path fill="none" stroke="midnightblue" d="M89.0818,-99.3262C108.916,-83.6225 148.289,-54.2891 186,-37 195.829,-32.4935 206.65,-28.6275 217.258,-25.3769"/>
<polygon fill="midnightblue" stroke="midnightblue" points="218.286,-28.723 226.907,-22.5639 216.327,-22.0027 218.286,-28.723"/>
</g>
<!-- Node2&#45;&gt;Node3 -->
<g id="edge2" class="edge"><title>Node2&#45;&gt;Node3</title>
<path fill="none" stroke="midnightblue" d="M336.245,-197.497C364.365,-192.513 398.152,-186.523 427.478,-181.324"/>
<polygon fill="midnightblue" stroke="midnightblue" points="428.413,-184.713 437.649,-179.521 427.191,-177.821 428.413,-184.713"/>
</g>
<!-- Node4 -->
<g id="node4" class="node"><title>Node4</title>
<g id="a_node4"><a xlink:href="../../d1/da6/_documentation_2_operator-_console_2_j_s_o_n_2_j_s_o_n_memory_8h.html#a8f88e025f043e8c423c6ddc3c887600b" target="_top" xlink:title="clearString">
<polygon fill="white" stroke="black" points="684.5,-98.5 684.5,-119.5 757.5,-119.5 757.5,-98.5 684.5,-98.5"/>
<text text-anchor="middle" x="721" y="-105.9" font-family="Helvetica,sans-Serif" font-size="12.00">clearString</text>
</a>
</g>
</g>
<!-- Node2&#45;&gt;Node4 -->
<g id="edge6" class="edge"><title>Node2&#45;&gt;Node4</title>
<path fill="none" stroke="midnightblue" d="M347.569,-218.528C414.457,-225.201 516.017,-226.566 594,-189 615.548,-178.62 610.647,-163.054 630,-149 644.551,-138.433 662.336,-129.797 678.242,-123.289"/>
<polygon fill="midnightblue" stroke="midnightblue" points="679.828,-126.427 687.858,-119.514 677.27,-119.911 679.828,-126.427"/>
</g>
<!-- Node6 -->
<g id="node6" class="node"><title>Node6</title>
<g id="a_node6"><a xlink:href="../../d7/d6f/class_j_s_o_n_worker.html#a396aabc632272b5534353d4632bf849b" target="_top" xlink:title="JSONWorker::DoArray">
<polygon fill="white" stroke="black" points="430,-236.5 430,-257.5 566,-257.5 566,-236.5 430,-236.5"/>
<text text-anchor="middle" x="498" y="-243.9" font-family="Helvetica,sans-Serif" font-size="12.00">JSONWorker::DoArray</text>
</a>
</g>
</g>
<!-- Node2&#45;&gt;Node6 -->
<g id="edge5" class="edge"><title>Node2&#45;&gt;Node6</title>
<path fill="none" stroke="midnightblue" d="M336.245,-218.503C364.365,-223.487 398.152,-229.477 427.478,-234.676"/>
<polygon fill="midnightblue" stroke="midnightblue" points="427.191,-238.179 437.649,-236.479 428.413,-231.287 427.191,-238.179"/>
</g>
<!-- Node3&#45;&gt;Node4 -->
<g id="edge3" class="edge"><title>Node3&#45;&gt;Node4</title>
<path fill="none" stroke="midnightblue" d="M553.727,-158.454C566.971,-155.633 581.042,-152.412 594,-149 623.065,-141.347 655.366,-131.057 679.986,-122.83"/>
<polygon fill="midnightblue" stroke="midnightblue" points="681.337,-126.068 689.696,-119.559 679.102,-119.434 681.337,-126.068"/>
</g>
<!-- Node5 -->
<g id="node5" class="node"><title>Node5</title>
<g id="a_node5"><a xlink:href="../../d1/d0b/classinternal_j_s_o_n_node.html#a5f943a59b0e0e3a4e88f34dfeee6a922" target="_top" xlink:title="internalJSONNode::SetFetched">
<polygon fill="white" stroke="black" points="630.5,-158.5 630.5,-179.5 811.5,-179.5 811.5,-158.5 630.5,-158.5"/>
<text text-anchor="middle" x="721" y="-165.9" font-family="Helvetica,sans-Serif" font-size="12.00">internalJSONNode::SetFetched</text>
</a>
</g>
</g>
<!-- Node3&#45;&gt;Node5 -->
<g id="edge4" class="edge"><title>Node3&#45;&gt;Node5</title>
<path fill="none" stroke="midnightblue" d="M573.205,-169C588.223,-169 604.247,-169 619.985,-169"/>
<polygon fill="midnightblue" stroke="midnightblue" points="620.273,-172.5 630.273,-169 620.273,-165.5 620.273,-172.5"/>
</g>
<!-- Node7&#45;&gt;Node3 -->
<g id="edge8" class="edge"><title>Node7&#45;&gt;Node3</title>
<path fill="none" stroke="midnightblue" d="M344.746,-100.632C352.171,-103.125 359.415,-106.202 366,-110 386.433,-121.787 381.487,-137.352 402,-149 405.898,-151.213 410.011,-153.183 414.252,-154.935"/>
<polygon fill="midnightblue" stroke="midnightblue" points="413.117,-158.246 423.71,-158.434 415.546,-151.681 413.117,-158.246"/>
</g>
<!-- Node7&#45;&gt;Node4 -->
<g id="edge10" class="edge"><title>Node7&#45;&gt;Node4</title>
<path fill="none" stroke="midnightblue" d="M365.052,-93.7765C458.126,-97.7684 601.318,-103.91 674.108,-107.032"/>
<polygon fill="midnightblue" stroke="midnightblue" points="674.181,-110.538 684.322,-107.47 674.481,-103.544 674.181,-110.538"/>
</g>
<!-- Node8 -->
<g id="node8" class="node"><title>Node8</title>
<g id="a_node8"><a xlink:href="../../d7/d6f/class_j_s_o_n_worker.html#a6e6a8187072b0686575d532c6e8ea794" target="_top" xlink:title="JSONWorker::DoNode">
<polygon fill="white" stroke="black" points="429.5,-40.5 429.5,-61.5 566.5,-61.5 566.5,-40.5 429.5,-40.5"/>
<text text-anchor="middle" x="498" y="-47.9" font-family="Helvetica,sans-Serif" font-size="12.00">JSONWorker::DoNode</text>
</a>
</g>
</g>
<!-- Node7&#45;&gt;Node8 -->
<g id="edge9" class="edge"><title>Node7&#45;&gt;Node8</title>
<path fill="none" stroke="midnightblue" d="M336.245,-79.4974C364.365,-74.5126 398.152,-68.5231 427.478,-63.3243"/>
<polygon fill="midnightblue" stroke="midnightblue" points="428.413,-66.7132 437.649,-61.5213 427.191,-59.8207 428.413,-66.7132"/>
</g>
<!-- Node9&#45;&gt;Node4 -->
<g id="edge12" class="edge"><title>Node9&#45;&gt;Node4</title>
<path fill="none" stroke="midnightblue" d="M564.028,-21.5445C574.236,-24.0931 584.534,-27.2092 594,-31 633.352,-46.7587 674.243,-74.5431 698.391,-92.3455"/>
<polygon fill="midnightblue" stroke="midnightblue" points="696.393,-95.2218 706.496,-98.4118 700.588,-89.6177 696.393,-95.2218"/>
</g>
<!-- Node10&#45;&gt;Node3 -->
<g id="edge14" class="edge"><title>Node10&#45;&gt;Node3</title>
<path fill="none" stroke="midnightblue" d="M336.245,-140.503C364.365,-145.487 398.152,-151.477 427.478,-156.676"/>
<polygon fill="midnightblue" stroke="midnightblue" points="427.191,-160.179 437.649,-158.479 428.413,-153.287 427.191,-160.179"/>
</g>
<!-- Node11 -->
<g id="node11" class="node"><title>Node11</title>
<g id="a_node11"><a xlink:href="../../d7/d6f/class_j_s_o_n_worker.html#ab473775a73ea206263df728a421944da" target="_top" xlink:title="JSONWorker::FixString">
<polygon fill="white" stroke="black" points="428.5,-118.5 428.5,-139.5 567.5,-139.5 567.5,-118.5 428.5,-118.5"/>
<text text-anchor="middle" x="498" y="-125.9" font-family="Helvetica,sans-Serif" font-size="12.00">JSONWorker::FixString</text>
</a>
</g>
</g>
<!-- Node10&#45;&gt;Node11 -->
<g id="edge15" class="edge"><title>Node10&#45;&gt;Node11</title>
<path fill="none" stroke="midnightblue" d="M366.165,-129.595C383.328,-129.517 401.193,-129.435 418.006,-129.359"/>
<polygon fill="midnightblue" stroke="midnightblue" points="418.339,-132.858 428.323,-129.312 418.307,-125.858 418.339,-132.858"/>
</g>
</g>
</svg>
