<?xml version="1.0" encoding="UTF-8" standalone="no"?>
<!DOCTYPE svg PUBLIC "-//W3C//DTD SVG 1.1//EN"
 "http://www.w3.org/Graphics/SVG/1.1/DTD/svg11.dtd">
<!-- Generated by graphviz version 2.34.0 (20130907.0111)
 -->
<!-- Title: internalJSONNode::FetchString Pages: 1 -->
<svg width="592pt" height="90pt"
 viewBox="0.00 0.00 592.00 90.00" xmlns="http://www.w3.org/2000/svg" xmlns:xlink="http://www.w3.org/1999/xlink">
<g id="graph0" class="graph" transform="scale(1 1) rotate(0) translate(4 86)">
<title>internalJSONNode::FetchString</title>
<polygon fill="white" stroke="white" points="-4,4 -4,-86 588,-86 588,4 -4,4"/>
<!-- Node1 -->
<g id="node1" class="node"><title>Node1</title>
<polygon fill="#bfbfbf" stroke="black" points="0,-40.5 0,-61.5 180,-61.5 180,-40.5 0,-40.5"/>
<text text-anchor="middle" x="90" y="-47.9" font-family="Helvetica,sans-Serif" font-size="12.00">internalJSONNode::FetchString</text>
</g>
<!-- Node2 -->
<g id="node2" class="node"><title>Node2</title>
<g id="a_node2"><a xlink:href="../../d7/d6f/class_j_s_o_n_worker.html#ab473775a73ea206263df728a421944da" target="_top" xlink:title="JSONWorker::FixString">
<polygon fill="white" stroke="black" points="221.5,-60.5 221.5,-81.5 360.5,-81.5 360.5,-60.5 221.5,-60.5"/>
<text text-anchor="middle" x="291" y="-67.9" font-family="Helvetica,sans-Serif" font-size="12.00">JSONWorker::FixString</text>
</a>
</g>
</g>
<!-- Node1&#45;&gt;Node2 -->
<g id="edge1" class="edge"><title>Node1&#45;&gt;Node2</title>
<path fill="none" stroke="midnightblue" d="M180.023,-59.9471C190.423,-60.9923 200.978,-62.0531 211.226,-63.083"/>
<polygon fill="midnightblue" stroke="midnightblue" points="211.055,-66.5833 221.354,-64.1009 211.755,-59.6184 211.055,-66.5833"/>
</g>
<!-- Node3 -->
<g id="node3" class="node"><title>Node3</title>
<g id="a_node3"><a xlink:href="../../d1/d0b/classinternal_j_s_o_n_node.html#a9a3f9f79800b6141150dde72a55c0060" target="_top" xlink:title="internalJSONNode::Nullify">
<polygon fill="white" stroke="black" points="216,-20.5 216,-41.5 366,-41.5 366,-20.5 216,-20.5"/>
<text text-anchor="middle" x="291" y="-27.9" font-family="Helvetica,sans-Serif" font-size="12.00">internalJSONNode::Nullify</text>
</a>
</g>
</g>
<!-- Node1&#45;&gt;Node3 -->
<g id="edge2" class="edge"><title>Node1&#45;&gt;Node3</title>
<path fill="none" stroke="midnightblue" d="M180.023,-42.0529C188.651,-41.1858 197.386,-40.308 205.963,-39.4459"/>
<polygon fill="midnightblue" stroke="midnightblue" points="206.344,-42.9254 215.944,-38.4428 205.644,-35.9604 206.344,-42.9254"/>
</g>
<!-- Node4 -->
<g id="node4" class="node"><title>Node4</title>
<g id="a_node4"><a xlink:href="../../d1/da6/_documentation_2_operator-_console_2_j_s_o_n_2_j_s_o_n_memory_8h.html#a8f88e025f043e8c423c6ddc3c887600b" target="_top" xlink:title="clearString">
<polygon fill="white" stroke="black" points="456.5,-40.5 456.5,-61.5 529.5,-61.5 529.5,-40.5 456.5,-40.5"/>
<text text-anchor="middle" x="493" y="-47.9" font-family="Helvetica,sans-Serif" font-size="12.00">clearString</text>
</a>
</g>
</g>
<!-- Node3&#45;&gt;Node4 -->
<g id="edge3" class="edge"><title>Node3&#45;&gt;Node4</title>
<path fill="none" stroke="midnightblue" d="M366.188,-38.4188C393.012,-41.1012 422.496,-44.0496 446.175,-46.4175"/>
<polygon fill="midnightblue" stroke="midnightblue" points="445.98,-49.9154 456.279,-47.4279 446.677,-42.9501 445.98,-49.9154"/>
</g>
<!-- Node5 -->
<g id="node5" class="node"><title>Node5</title>
<g id="a_node5"><a xlink:href="../../d1/d0b/classinternal_j_s_o_n_node.html#a5f943a59b0e0e3a4e88f34dfeee6a922" target="_top" xlink:title="internalJSONNode::SetFetched">
<polygon fill="white" stroke="black" points="402.5,-0.5 402.5,-21.5 583.5,-21.5 583.5,-0.5 402.5,-0.5"/>
<text text-anchor="middle" x="493" y="-7.9" font-family="Helvetica,sans-Serif" font-size="12.00">internalJSONNode::SetFetched</text>
</a>
</g>
</g>
<!-- Node3&#45;&gt;Node5 -->
<g id="edge4" class="edge"><title>Node3&#45;&gt;Node5</title>
<path fill="none" stroke="midnightblue" d="M366.188,-23.5812C374.75,-22.725 383.583,-21.8417 392.411,-20.9589"/>
<polygon fill="midnightblue" stroke="midnightblue" points="392.76,-24.4415 402.362,-19.9638 392.063,-17.4763 392.76,-24.4415"/>
</g>
</g>
</svg>
