<?xml version="1.0" encoding="UTF-8" standalone="no"?>
<!DOCTYPE svg PUBLIC "-//W3C//DTD SVG 1.1//EN"
 "http://www.w3.org/Graphics/SVG/1.1/DTD/svg11.dtd">
<!-- Generated by graphviz version 2.34.0 (20130907.0111)
 -->
<!-- Title: internalJSONNode::decRef Pages: 1 -->
<svg width="1346pt" height="334pt"
 viewBox="0.00 0.00 1346.00 334.44" xmlns="http://www.w3.org/2000/svg" xmlns:xlink="http://www.w3.org/1999/xlink">
<g id="graph0" class="graph" transform="scale(1 1) rotate(0) translate(4 330.442)">
<title>internalJSONNode::decRef</title>
<polygon fill="white" stroke="white" points="-4,4 -4,-330.442 1342,-330.442 1342,4 -4,4"/>
<!-- Node1 -->
<g id="node1" class="node"><title>Node1</title>
<polygon fill="#bfbfbf" stroke="black" points="0,-160.5 0,-181.5 158,-181.5 158,-160.5 0,-160.5"/>
<text text-anchor="middle" x="79" y="-167.9" font-family="Helvetica,sans-Serif" font-size="12.00">internalJSONNode::decRef</text>
</g>
<!-- Node2 -->
<g id="node2" class="node"><title>Node2</title>
<g id="a_node2"><a xlink:href="../../d1/d0b/classinternal_j_s_o_n_node.html#a72b82897da17766d09a3e4ea4a743cf1" target="_top" xlink:title="internalJSONNode::makeUnique">
<polygon fill="white" stroke="black" points="194,-160.5 194,-181.5 380,-181.5 380,-160.5 194,-160.5"/>
<text text-anchor="middle" x="287" y="-167.9" font-family="Helvetica,sans-Serif" font-size="12.00">internalJSONNode::makeUnique</text>
</a>
</g>
</g>
<!-- Node1&#45;&gt;Node2 -->
<g id="edge1" class="edge"><title>Node1&#45;&gt;Node2</title>
<path fill="none" stroke="midnightblue" d="M168.338,-171C176.738,-171 185.27,-171 193.706,-171"/>
<polygon fill="midnightblue" stroke="midnightblue" points="168.174,-167.5 158.173,-171 168.173,-174.5 168.174,-167.5"/>
</g>
<!-- Node3 -->
<g id="node3" class="node"><title>Node3</title>
<g id="a_node3"><a xlink:href="../../d1/d0b/classinternal_j_s_o_n_node.html#aa7598e92ebf6d0cc190ad23036c84508" target="_top" xlink:title="internalJSONNode::incRef">
<polygon fill="white" stroke="black" points="432.5,-180.5 432.5,-201.5 585.5,-201.5 585.5,-180.5 432.5,-180.5"/>
<text text-anchor="middle" x="509" y="-187.9" font-family="Helvetica,sans-Serif" font-size="12.00">internalJSONNode::incRef</text>
</a>
</g>
</g>
<!-- Node2&#45;&gt;Node3 -->
<g id="edge2" class="edge"><title>Node2&#45;&gt;Node3</title>
<path fill="none" stroke="midnightblue" d="M390.293,-180.299C404.455,-181.587 418.787,-182.89 432.346,-184.122"/>
<polygon fill="midnightblue" stroke="midnightblue" points="390.301,-176.786 380.025,-179.366 389.667,-183.757 390.301,-176.786"/>
</g>
<!-- Node4 -->
<g id="node4" class="node"><title>Node4</title>
<g id="a_node4"><a xlink:href="../../d6/dc7/class_j_s_o_n_node.html#a40fb037e147141fa07f90fe419e3a7a2" target="_top" xlink:title="JSONNode::makeUniqueInternal">
<polygon fill="white" stroke="black" points="416.5,-140.5 416.5,-161.5 601.5,-161.5 601.5,-140.5 416.5,-140.5"/>
<text text-anchor="middle" x="509" y="-147.9" font-family="Helvetica,sans-Serif" font-size="12.00">JSONNode::makeUniqueInternal</text>
</a>
</g>
</g>
<!-- Node2&#45;&gt;Node4 -->
<g id="edge3" class="edge"><title>Node2&#45;&gt;Node4</title>
<path fill="none" stroke="midnightblue" d="M390.215,-161.708C398.932,-160.915 407.715,-160.117 416.343,-159.332"/>
<polygon fill="midnightblue" stroke="midnightblue" points="389.667,-158.243 380.025,-162.634 390.301,-165.214 389.667,-158.243"/>
</g>
<!-- Node5 -->
<g id="node5" class="node"><title>Node5</title>
<g id="a_node5"><a xlink:href="../../d6/dc7/class_j_s_o_n_node.html#ae61d84dcd82f1261ef3bb219229e468f" target="_top" xlink:title="JSONNode::duplicate">
<polygon fill="white" stroke="black" points="645,-280.5 645,-301.5 775,-301.5 775,-280.5 645,-280.5"/>
<text text-anchor="middle" x="710" y="-287.9" font-family="Helvetica,sans-Serif" font-size="12.00">JSONNode::duplicate</text>
</a>
</g>
</g>
<!-- Node4&#45;&gt;Node5 -->
<g id="edge4" class="edge"><title>Node4&#45;&gt;Node5</title>
<path fill="none" stroke="midnightblue" d="M596.503,-166.722C598.415,-168.045 600.252,-169.468 602,-171 637.524,-202.135 603.434,-238.805 638,-271 642.123,-274.84 646.926,-277.952 652.054,-280.471"/>
<polygon fill="midnightblue" stroke="midnightblue" points="598.088,-163.595 587.692,-161.55 594.544,-169.631 598.088,-163.595"/>
</g>
<!-- Node13 -->
<g id="node13" class="node"><title>Node13</title>
<g id="a_node13"><a xlink:href="../../d6/dc7/class_j_s_o_n_node.html#a25976f906aad4da22a065353f1ef5f63" target="_top" xlink:title="JSONNode::clear_name">
<polygon fill="white" stroke="black" points="638,-240.5 638,-261.5 782,-261.5 782,-240.5 638,-240.5"/>
<text text-anchor="middle" x="710" y="-247.9" font-family="Helvetica,sans-Serif" font-size="12.00">JSONNode::clear_name</text>
</a>
</g>
</g>
<!-- Node4&#45;&gt;Node13 -->
<g id="edge13" class="edge"><title>Node4&#45;&gt;Node13</title>
<path fill="none" stroke="midnightblue" d="M593.903,-165.943C596.716,-167.473 599.427,-169.154 602,-171 627.27,-189.125 613.29,-212.118 638,-231 642.986,-234.81 648.664,-237.894 654.588,-240.391"/>
<polygon fill="midnightblue" stroke="midnightblue" points="595.153,-162.662 584.617,-161.549 592.159,-168.99 595.153,-162.662"/>
</g>
<!-- Node14 -->
<g id="node14" class="node"><title>Node14</title>
<g id="a_node14"><a xlink:href="../../d6/dc7/class_j_s_o_n_node.html#a334ff9a1fd0166c1f0cc11a4e3829a20" target="_top" xlink:title="JSONNode::clear">
<polygon fill="white" stroke="black" points="656,-200.5 656,-221.5 764,-221.5 764,-200.5 656,-200.5"/>
<text text-anchor="middle" x="710" y="-207.9" font-family="Helvetica,sans-Serif" font-size="12.00">JSONNode::clear</text>
</a>
</g>
</g>
<!-- Node4&#45;&gt;Node14 -->
<g id="edge15" class="edge"><title>Node4&#45;&gt;Node14</title>
<path fill="none" stroke="midnightblue" d="M580.598,-164.117C587.914,-166.136 595.165,-168.423 602,-171 619.126,-177.458 621.077,-184.027 638,-191 646.643,-194.561 656.131,-197.718 665.278,-200.411"/>
<polygon fill="midnightblue" stroke="midnightblue" points="581.176,-160.651 570.617,-161.527 579.417,-167.426 581.176,-160.651"/>
</g>
<!-- Node15 -->
<g id="node15" class="node"><title>Node15</title>
<g id="a_node15"><a xlink:href="../../d6/dc7/class_j_s_o_n_node.html#aabc5878c658fe47378a9f2294d5b1663" target="_top" xlink:title="JSONNode::nullify">
<polygon fill="white" stroke="black" points="655,-160.5 655,-181.5 765,-181.5 765,-160.5 655,-160.5"/>
<text text-anchor="middle" x="710" y="-167.9" font-family="Helvetica,sans-Serif" font-size="12.00">JSONNode::nullify</text>
</a>
</g>
</g>
<!-- Node4&#45;&gt;Node15 -->
<g id="edge16" class="edge"><title>Node4&#45;&gt;Node15</title>
<path fill="none" stroke="midnightblue" d="M611.871,-161.238C626.661,-162.725 641.382,-164.204 654.724,-165.545"/>
<polygon fill="midnightblue" stroke="midnightblue" points="611.937,-157.727 601.637,-160.21 611.237,-164.692 611.937,-157.727"/>
</g>
<!-- Node16 -->
<g id="node16" class="node"><title>Node16</title>
<g id="a_node16"><a xlink:href="../../d6/dc7/class_j_s_o_n_node.html#aeb5f2c8d831bcf4604cd669ba0e78f42" target="_top" xlink:title="JSONNode::begin">
<polygon fill="white" stroke="black" points="654,-120.5 654,-141.5 766,-141.5 766,-120.5 654,-120.5"/>
<text text-anchor="middle" x="710" y="-127.9" font-family="Helvetica,sans-Serif" font-size="12.00">JSONNode::begin</text>
</a>
</g>
</g>
<!-- Node4&#45;&gt;Node16 -->
<g id="edge17" class="edge"><title>Node4&#45;&gt;Node16</title>
<path fill="none" stroke="midnightblue" d="M611.699,-140.779C626.24,-139.318 640.719,-137.862 653.892,-136.538"/>
<polygon fill="midnightblue" stroke="midnightblue" points="611.237,-137.308 601.637,-141.79 611.937,-144.273 611.237,-137.308"/>
</g>
<!-- Node17 -->
<g id="node17" class="node"><title>Node17</title>
<g id="a_node17"><a xlink:href="../../d6/dc7/class_j_s_o_n_node.html#a2bc88d73d62cb8da471fc1500e67a400" target="_top" xlink:title="JSONNode::end">
<polygon fill="white" stroke="black" points="659,-80.5 659,-101.5 761,-101.5 761,-80.5 659,-80.5"/>
<text text-anchor="middle" x="710" y="-87.9" font-family="Helvetica,sans-Serif" font-size="12.00">JSONNode::end</text>
</a>
</g>
</g>
<!-- Node4&#45;&gt;Node17 -->
<g id="edge18" class="edge"><title>Node4&#45;&gt;Node17</title>
<path fill="none" stroke="midnightblue" d="M552.644,-137.342C577.492,-129.467 609.459,-119.477 638,-111 648.557,-107.864 660.034,-104.578 670.621,-101.597"/>
<polygon fill="midnightblue" stroke="midnightblue" points="551.277,-134.104 542.806,-140.467 553.397,-140.775 551.277,-134.104"/>
</g>
<!-- Node18 -->
<g id="node18" class="node"><title>Node18</title>
<g id="a_node18"><a xlink:href="../../d6/dc7/class_j_s_o_n_node.html#ac5d94b35ff3338939a0d8ab16cd0afd9" target="_top" xlink:title="JSONNode::rbegin">
<polygon fill="white" stroke="black" points="652,-40.5 652,-61.5 768,-61.5 768,-40.5 652,-40.5"/>
<text text-anchor="middle" x="710" y="-47.9" font-family="Helvetica,sans-Serif" font-size="12.00">JSONNode::rbegin</text>
</a>
</g>
</g>
<!-- Node4&#45;&gt;Node18 -->
<g id="edge19" class="edge"><title>Node4&#45;&gt;Node18</title>
<path fill="none" stroke="midnightblue" d="M532.139,-134.417C556.834,-116.592 598.515,-88.4715 638,-71 646.198,-67.3727 655.221,-64.2337 664.005,-61.5872"/>
<polygon fill="midnightblue" stroke="midnightblue" points="529.853,-131.753 523.845,-140.479 533.984,-137.404 529.853,-131.753"/>
</g>
<!-- Node19 -->
<g id="node19" class="node"><title>Node19</title>
<g id="a_node19"><a xlink:href="../../d6/dc7/class_j_s_o_n_node.html#a5d629aec2605dd6a7314f3ce5361080d" target="_top" xlink:title="JSONNode::rend">
<polygon fill="white" stroke="black" points="657,-0.5 657,-21.5 763,-21.5 763,-0.5 657,-0.5"/>
<text text-anchor="middle" x="710" y="-7.9" font-family="Helvetica,sans-Serif" font-size="12.00">JSONNode::rend</text>
</a>
</g>
</g>
<!-- Node4&#45;&gt;Node19 -->
<g id="edge20" class="edge"><title>Node4&#45;&gt;Node19</title>
<path fill="none" stroke="midnightblue" d="M524.965,-132.142C546.959,-105.678 590.573,-57.7698 638,-31 644.691,-27.2231 652.146,-24.118 659.639,-21.5773"/>
<polygon fill="midnightblue" stroke="midnightblue" points="521.972,-130.273 518.36,-140.233 527.395,-134.7 521.972,-130.273"/>
</g>
<!-- Node6 -->
<g id="node6" class="node"><title>Node6</title>
<g id="a_node6"><a xlink:href="../../d6/dc7/class_j_s_o_n_node.html#ad89a85d2b307990217b391df647fd6f5" target="_top" xlink:title="JSONNode::as_node">
<polygon fill="white" stroke="black" points="818,-280.5 818,-301.5 946,-301.5 946,-280.5 818,-280.5"/>
<text text-anchor="middle" x="882" y="-287.9" font-family="Helvetica,sans-Serif" font-size="12.00">JSONNode::as_node</text>
</a>
</g>
</g>
<!-- Node5&#45;&gt;Node6 -->
<g id="edge5" class="edge"><title>Node5&#45;&gt;Node6</title>
<path fill="none" stroke="midnightblue" d="M785.496,-291C796.26,-291 807.251,-291 817.766,-291"/>
<polygon fill="midnightblue" stroke="midnightblue" points="785.27,-287.5 775.27,-291 785.27,-294.5 785.27,-287.5"/>
</g>
<!-- Node7 -->
<g id="node7" class="node"><title>Node7</title>
<g id="a_node7"><a xlink:href="../../d6/dc7/class_j_s_o_n_node.html#ac30e692c490e07e072ebfc7158904706" target="_top" xlink:title="JSONNode::as_array">
<polygon fill="white" stroke="black" points="818,-240.5 818,-261.5 946,-261.5 946,-240.5 818,-240.5"/>
<text text-anchor="middle" x="882" y="-247.9" font-family="Helvetica,sans-Serif" font-size="12.00">JSONNode::as_array</text>
</a>
</g>
</g>
<!-- Node5&#45;&gt;Node7 -->
<g id="edge6" class="edge"><title>Node5&#45;&gt;Node7</title>
<path fill="none" stroke="midnightblue" d="M765.564,-278.161C788.42,-272.784 814.658,-266.61 836.338,-261.509"/>
<polygon fill="midnightblue" stroke="midnightblue" points="764.598,-274.793 755.665,-280.49 766.201,-281.607 764.598,-274.793"/>
</g>
<!-- Node8 -->
<g id="node8" class="node"><title>Node8</title>
<g id="a_node8"><a xlink:href="../../d8/de1/class_blemish_test.html#ad9071bb6332b7fc91a6e7c7ef109cba2" target="_top" xlink:title="Parses the JSON output of an sfrPlus test to determine the pass/fail status of the various metrics...">
<polygon fill="white" stroke="black" points="1180.5,-259.5 1180.5,-280.5 1337.5,-280.5 1337.5,-259.5 1180.5,-259.5"/>
<text text-anchor="middle" x="1259" y="-266.9" font-family="Helvetica,sans-Serif" font-size="12.00">BlemishTest::ParseResults</text>
</a>
</g>
</g>
<!-- Node7&#45;&gt;Node8 -->
<g id="edge7" class="edge"><title>Node7&#45;&gt;Node8</title>
<path fill="none" stroke="midnightblue" d="M936.074,-265.508C939.531,-267.159 942.875,-268.985 946,-271 966.101,-283.961 960.151,-301.269 982,-311 1070.73,-350.515 1189.77,-302.984 1237.22,-280.517"/>
<polygon fill="midnightblue" stroke="midnightblue" points="937.305,-262.228 926.733,-261.532 934.564,-268.669 937.305,-262.228"/>
</g>
<!-- Node9 -->
<g id="node9" class="node"><title>Node9</title>
<g id="a_node9"><a xlink:href="../../da/d92/class_image_test.html#a3115f3892d84abcde05ab105ae4aaa8f" target="_top" xlink:title="ImageTest::GetString">
<polygon fill="white" stroke="black" points="999.5,-280.5 999.5,-301.5 1126.5,-301.5 1126.5,-280.5 999.5,-280.5"/>
<text text-anchor="middle" x="1063" y="-287.9" font-family="Helvetica,sans-Serif" font-size="12.00">ImageTest::GetString</text>
</a>
</g>
</g>
<!-- Node7&#45;&gt;Node9 -->
<g id="edge8" class="edge"><title>Node7&#45;&gt;Node9</title>
<path fill="none" stroke="midnightblue" d="M939.806,-263.694C964.023,-269.106 991.941,-275.344 1014.97,-280.491"/>
<polygon fill="midnightblue" stroke="midnightblue" points="940.553,-260.275 930.03,-261.51 939.026,-267.106 940.553,-260.275"/>
</g>
<!-- Node10 -->
<g id="node10" class="node"><title>Node10</title>
<g id="a_node10"><a xlink:href="../../da/d92/class_image_test.html#ae8c27027ba0cc33150ec423c6b7ec6ae" target="_top" xlink:title="ImageTest::ParseFailures">
<polygon fill="white" stroke="black" points="987.5,-240.5 987.5,-261.5 1138.5,-261.5 1138.5,-240.5 987.5,-240.5"/>
<text text-anchor="middle" x="1063" y="-247.9" font-family="Helvetica,sans-Serif" font-size="12.00">ImageTest::ParseFailures</text>
</a>
</g>
</g>
<!-- Node7&#45;&gt;Node10 -->
<g id="edge9" class="edge"><title>Node7&#45;&gt;Node10</title>
<path fill="none" stroke="midnightblue" d="M956.213,-251C966.435,-251 976.951,-251 987.202,-251"/>
<polygon fill="midnightblue" stroke="midnightblue" points="956.109,-247.5 946.109,-251 956.109,-254.5 956.109,-247.5"/>
</g>
<!-- Node11 -->
<g id="node11" class="node"><title>Node11</title>
<g id="a_node11"><a xlink:href="../../d3/d71/jsonhelpers_8h.html#a0c2d0c196f0e8025cfc01c009dd24fad" target="_top" xlink:title="getIntFromArray">
<polygon fill="white" stroke="black" points="1013,-200.5 1013,-221.5 1113,-221.5 1113,-200.5 1013,-200.5"/>
<text text-anchor="middle" x="1063" y="-207.9" font-family="Helvetica,sans-Serif" font-size="12.00">getIntFromArray</text>
</a>
</g>
</g>
<!-- Node7&#45;&gt;Node11 -->
<g id="edge10" class="edge"><title>Node7&#45;&gt;Node11</title>
<path fill="none" stroke="midnightblue" d="M939.806,-238.306C964.023,-232.894 991.941,-226.656 1014.97,-221.509"/>
<polygon fill="midnightblue" stroke="midnightblue" points="939.026,-234.894 930.03,-240.49 940.553,-241.725 939.026,-234.894"/>
</g>
<!-- Node12 -->
<g id="node12" class="node"><title>Node12</title>
<g id="a_node12"><a xlink:href="../../dd/d12/class_s_f_rplus_test.html#a900f5edde4636d8b6f8f802ff866a15d" target="_top" xlink:title="Determines the pass/fail result for each quadrant. ">
<polygon fill="white" stroke="black" points="982.5,-160.5 982.5,-181.5 1143.5,-181.5 1143.5,-160.5 982.5,-160.5"/>
<text text-anchor="middle" x="1063" y="-167.9" font-family="Helvetica,sans-Serif" font-size="12.00">SFRplusTest::ParseOverlay</text>
</a>
</g>
</g>
<!-- Node7&#45;&gt;Node12 -->
<g id="edge12" class="edge"><title>Node7&#45;&gt;Node12</title>
<path fill="none" stroke="midnightblue" d="M905.543,-234.63C924.958,-221.21 954.17,-202.6 982,-191 990.854,-187.31 1000.55,-184.181 1010.05,-181.573"/>
<polygon fill="midnightblue" stroke="midnightblue" points="903.52,-231.773 897.351,-240.387 907.545,-237.5 903.52,-231.773"/>
</g>
<!-- Node11&#45;&gt;Node8 -->
<g id="edge11" class="edge"><title>Node11&#45;&gt;Node8</title>
<path fill="none" stroke="midnightblue" d="M1118.85,-224.058C1127.3,-226.259 1135.91,-228.609 1144,-231 1173.29,-239.654 1206.25,-251.122 1229.17,-259.38"/>
<polygon fill="midnightblue" stroke="midnightblue" points="1119.59,-220.634 1109.03,-221.548 1117.85,-227.416 1119.59,-220.634"/>
</g>
<!-- Node13&#45;&gt;Node7 -->
<g id="edge14" class="edge"><title>Node13&#45;&gt;Node7</title>
<path fill="none" stroke="midnightblue" d="M792.157,-251C800.753,-251 809.402,-251 817.751,-251"/>
<polygon fill="midnightblue" stroke="midnightblue" points="792.11,-247.5 782.11,-251 792.11,-254.5 792.11,-247.5"/>
</g>
</g>
</svg>
