<?xml version="1.0" encoding="UTF-8" standalone="no"?>
<!DOCTYPE svg PUBLIC "-//W3C//DTD SVG 1.1//EN"
 "http://www.w3.org/Graphics/SVG/1.1/DTD/svg11.dtd">
<!-- Generated by graphviz version 2.34.0 (20130907.0111)
 -->
<!-- Title: internalJSONNode::newInternal Pages: 1 -->
<svg width="756pt" height="42pt"
 viewBox="0.00 0.00 756.00 42.00" xmlns="http://www.w3.org/2000/svg" xmlns:xlink="http://www.w3.org/1999/xlink">
<g id="graph0" class="graph" transform="scale(1 1) rotate(0) translate(4 38)">
<title>internalJSONNode::newInternal</title>
<polygon fill="white" stroke="white" points="-4,4 -4,-38 752,-38 752,4 -4,4"/>
<!-- Node1 -->
<g id="node1" class="node"><title>Node1</title>
<polygon fill="#bfbfbf" stroke="black" points="0,-6.5 0,-27.5 178,-27.5 178,-6.5 0,-6.5"/>
<text text-anchor="middle" x="89" y="-13.9" font-family="Helvetica,sans-Serif" font-size="12.00">internalJSONNode::newInternal</text>
</g>
<!-- Node2 -->
<g id="node2" class="node"><title>Node2</title>
<g id="a_node2"><a xlink:href="../../d1/d0b/classinternal_j_s_o_n_node.html#afb952c1e0ebf1928ecccd9a205baa0db" target="_top" xlink:title="internalJSONNode::internal\lJSONNode">
<polygon fill="white" stroke="black" points="214,-0 214,-34 372,-34 372,-0 214,-0"/>
<text text-anchor="start" x="222" y="-20.4" font-family="Helvetica,sans-Serif" font-size="12.00">internalJSONNode::internal</text>
<text text-anchor="middle" x="293" y="-7.4" font-family="Helvetica,sans-Serif" font-size="12.00">JSONNode</text>
</a>
</g>
</g>
<!-- Node1&#45;&gt;Node2 -->
<g id="edge1" class="edge"><title>Node1&#45;&gt;Node2</title>
<path fill="none" stroke="midnightblue" d="M178.013,-17C186.478,-17 195.067,-17 203.537,-17"/>
<polygon fill="midnightblue" stroke="midnightblue" points="203.793,-20.5001 213.793,-17 203.793,-13.5001 203.793,-20.5001"/>
</g>
<!-- Node3 -->
<g id="node3" class="node"><title>Node3</title>
<g id="a_node3"><a xlink:href="../../db/d49/classjson_children.html#ac71d832f3f81306fcb13e6f581f4431a" target="_top" xlink:title="jsonChildren::newChildren">
<polygon fill="white" stroke="black" points="408,-6.5 408,-27.5 560,-27.5 560,-6.5 408,-6.5"/>
<text text-anchor="middle" x="484" y="-13.9" font-family="Helvetica,sans-Serif" font-size="12.00">jsonChildren::newChildren</text>
</a>
</g>
</g>
<!-- Node2&#45;&gt;Node3 -->
<g id="edge2" class="edge"><title>Node2&#45;&gt;Node3</title>
<path fill="none" stroke="midnightblue" d="M372.238,-17C380.613,-17 389.163,-17 397.616,-17"/>
<polygon fill="midnightblue" stroke="midnightblue" points="397.859,-20.5001 407.859,-17 397.859,-13.5001 397.859,-20.5001"/>
</g>
<!-- Node4 -->
<g id="node4" class="node"><title>Node4</title>
<g id="a_node4"><a xlink:href="../../db/d49/classjson_children.html#aa31b15a1d697846a9c2a8a710b2ba6f1" target="_top" xlink:title="jsonChildren::jsonChildren">
<polygon fill="white" stroke="black" points="596,-6.5 596,-27.5 748,-27.5 748,-6.5 596,-6.5"/>
<text text-anchor="middle" x="672" y="-13.9" font-family="Helvetica,sans-Serif" font-size="12.00">jsonChildren::jsonChildren</text>
</a>
</g>
</g>
<!-- Node3&#45;&gt;Node4 -->
<g id="edge3" class="edge"><title>Node3&#45;&gt;Node4</title>
<path fill="none" stroke="midnightblue" d="M560.117,-17C568.596,-17 577.281,-17 585.875,-17"/>
<polygon fill="midnightblue" stroke="midnightblue" points="585.905,-20.5001 595.905,-17 585.905,-13.5001 585.905,-20.5001"/>
</g>
</g>
</svg>
