<?xml version="1.0" encoding="UTF-8" standalone="no"?>
<!DOCTYPE svg PUBLIC "-//W3C//DTD SVG 1.1//EN"
 "http://www.w3.org/Graphics/SVG/1.1/DTD/svg11.dtd">
<!-- Generated by graphviz version 2.34.0 (20130907.0111)
 -->
<!-- Title: internalJSONNode::preparse Pages: 1 -->
<svg width="1054pt" height="266pt"
 viewBox="0.00 0.00 1054.00 266.00" xmlns="http://www.w3.org/2000/svg" xmlns:xlink="http://www.w3.org/1999/xlink">
<g id="graph0" class="graph" transform="scale(1 1) rotate(0) translate(4 262)">
<title>internalJSONNode::preparse</title>
<polygon fill="white" stroke="white" points="-4,4 -4,-262 1050,-262 1050,4 -4,4"/>
<!-- Node1 -->
<g id="node1" class="node"><title>Node1</title>
<polygon fill="#bfbfbf" stroke="black" points="0.5,-79.5 0.5,-100.5 167.5,-100.5 167.5,-79.5 0.5,-79.5"/>
<text text-anchor="middle" x="84" y="-86.9" font-family="Helvetica,sans-Serif" font-size="12.00">internalJSONNode::preparse</text>
</g>
<!-- Node2 -->
<g id="node2" class="node"><title>Node2</title>
<g id="a_node2"><a xlink:href="../../d1/d0b/classinternal_j_s_o_n_node.html#a2dba04775883475a7624257a82d1cac9" target="_top" xlink:title="internalJSONNode::Fetch">
<polygon fill="white" stroke="black" points="219.5,-99.5 219.5,-120.5 368.5,-120.5 368.5,-99.5 219.5,-99.5"/>
<text text-anchor="middle" x="294" y="-106.9" font-family="Helvetica,sans-Serif" font-size="12.00">internalJSONNode::Fetch</text>
</a>
</g>
</g>
<!-- Node1&#45;&gt;Node2 -->
<g id="edge1" class="edge"><title>Node1&#45;&gt;Node2</title>
<path fill="none" stroke="midnightblue" d="M167.506,-97.9333C181.154,-99.2456 195.318,-100.608 209.002,-101.923"/>
<polygon fill="midnightblue" stroke="midnightblue" points="209.067,-105.446 219.357,-102.919 209.737,-98.4778 209.067,-105.446"/>
</g>
<!-- Node14 -->
<g id="node14" class="node"><title>Node14</title>
<g id="a_node14"><a xlink:href="../../d1/d0b/classinternal_j_s_o_n_node.html#ae0f9898124b9f23eba855a6d240d340c" target="_top" xlink:title="internalJSONNode::isContainer">
<polygon fill="white" stroke="black" points="204,-59.5 204,-80.5 384,-80.5 384,-59.5 204,-59.5"/>
<text text-anchor="middle" x="294" y="-66.9" font-family="Helvetica,sans-Serif" font-size="12.00">internalJSONNode::isContainer</text>
</a>
</g>
</g>
<!-- Node1&#45;&gt;Node14 -->
<g id="edge19" class="edge"><title>Node1&#45;&gt;Node14</title>
<path fill="none" stroke="midnightblue" d="M167.506,-82.0667C176.066,-81.2437 184.829,-80.4011 193.549,-79.5626"/>
<polygon fill="midnightblue" stroke="midnightblue" points="194.132,-83.0227 203.751,-78.5816 193.462,-76.0549 194.132,-83.0227"/>
</g>
<!-- Node3 -->
<g id="node3" class="node"><title>Node3</title>
<g id="a_node3"><a xlink:href="../../d1/d0b/classinternal_j_s_o_n_node.html#a59d6db90025af648ee5f556e15242e00" target="_top" xlink:title="internalJSONNode::FetchArray">
<polygon fill="white" stroke="black" points="421.5,-197.5 421.5,-218.5 598.5,-218.5 598.5,-197.5 421.5,-197.5"/>
<text text-anchor="middle" x="510" y="-204.9" font-family="Helvetica,sans-Serif" font-size="12.00">internalJSONNode::FetchArray</text>
</a>
</g>
</g>
<!-- Node2&#45;&gt;Node3 -->
<g id="edge2" class="edge"><title>Node2&#45;&gt;Node3</title>
<path fill="none" stroke="midnightblue" d="M310.118,-120.552C332.977,-136.099 378.125,-165.236 420,-183 430.513,-187.46 442.058,-191.372 453.249,-194.696"/>
<polygon fill="midnightblue" stroke="midnightblue" points="452.381,-198.088 462.957,-197.465 454.301,-191.357 452.381,-198.088"/>
</g>
<!-- Node6 -->
<g id="node6" class="node"><title>Node6</title>
<g id="a_node6"><a xlink:href="../../d1/d0b/classinternal_j_s_o_n_node.html#a9a3f9f79800b6141150dde72a55c0060" target="_top" xlink:title="internalJSONNode::Nullify">
<polygon fill="white" stroke="black" points="657,-158.5 657,-179.5 807,-179.5 807,-158.5 657,-158.5"/>
<text text-anchor="middle" x="732" y="-165.9" font-family="Helvetica,sans-Serif" font-size="12.00">internalJSONNode::Nullify</text>
</a>
</g>
</g>
<!-- Node2&#45;&gt;Node6 -->
<g id="edge17" class="edge"><title>Node2&#45;&gt;Node6</title>
<path fill="none" stroke="midnightblue" d="M321.327,-120.543C346.289,-130.029 385.064,-143.449 420,-150 495.797,-164.213 583.622,-168.488 646.572,-169.486"/>
<polygon fill="midnightblue" stroke="midnightblue" points="646.801,-172.99 656.847,-169.624 646.895,-165.99 646.801,-172.99"/>
</g>
<!-- Node8 -->
<g id="node8" class="node"><title>Node8</title>
<g id="a_node8"><a xlink:href="../../d1/d0b/classinternal_j_s_o_n_node.html#a69dde8286881b07590238abf1d91a245" target="_top" xlink:title="internalJSONNode::FetchNode">
<polygon fill="white" stroke="black" points="421,-79.5 421,-100.5 599,-100.5 599,-79.5 421,-79.5"/>
<text text-anchor="middle" x="510" y="-86.9" font-family="Helvetica,sans-Serif" font-size="12.00">internalJSONNode::FetchNode</text>
</a>
</g>
</g>
<!-- Node2&#45;&gt;Node8 -->
<g id="edge8" class="edge"><title>Node2&#45;&gt;Node8</title>
<path fill="none" stroke="midnightblue" d="M368.647,-103.117C382.17,-101.853 396.483,-100.516 410.595,-99.1967"/>
<polygon fill="midnightblue" stroke="midnightblue" points="411.191,-102.656 420.822,-98.241 410.539,-95.6868 411.191,-102.656"/>
</g>
<!-- Node10 -->
<g id="node10" class="node"><title>Node10</title>
<g id="a_node10"><a xlink:href="../../d1/d0b/classinternal_j_s_o_n_node.html#aec946311873984a1b810ecb7a4e3d480" target="_top" xlink:title="internalJSONNode::FetchNumber">
<polygon fill="white" stroke="black" points="636.5,-0.5 636.5,-21.5 827.5,-21.5 827.5,-0.5 636.5,-0.5"/>
<text text-anchor="middle" x="732" y="-7.9" font-family="Helvetica,sans-Serif" font-size="12.00">internalJSONNode::FetchNumber</text>
</a>
</g>
</g>
<!-- Node2&#45;&gt;Node10 -->
<g id="edge12" class="edge"><title>Node2&#45;&gt;Node10</title>
<path fill="none" stroke="midnightblue" d="M353.163,-99.4531C363.586,-96.854 374.233,-93.7219 384,-90 401.104,-83.4825 402.789,-76.2296 420,-70 442.221,-61.9568 574.985,-38.0861 659.71,-23.2883"/>
<polygon fill="midnightblue" stroke="midnightblue" points="660.544,-26.6959 669.794,-21.5304 659.341,-19.7999 660.544,-26.6959"/>
</g>
<!-- Node11 -->
<g id="node11" class="node"><title>Node11</title>
<g id="a_node11"><a xlink:href="../../d1/d0b/classinternal_j_s_o_n_node.html#a40ace389d49c93b870ce3a0aaab70640" target="_top" xlink:title="internalJSONNode::FetchString">
<polygon fill="white" stroke="black" points="420,-119.5 420,-140.5 600,-140.5 600,-119.5 420,-119.5"/>
<text text-anchor="middle" x="510" y="-126.9" font-family="Helvetica,sans-Serif" font-size="12.00">internalJSONNode::FetchString</text>
</a>
</g>
</g>
<!-- Node2&#45;&gt;Node11 -->
<g id="edge14" class="edge"><title>Node2&#45;&gt;Node11</title>
<path fill="none" stroke="midnightblue" d="M368.647,-116.883C381.878,-118.119 395.865,-119.427 409.681,-120.718"/>
<polygon fill="midnightblue" stroke="midnightblue" points="409.415,-124.208 419.698,-121.654 410.067,-117.239 409.415,-124.208"/>
</g>
<!-- Node13 -->
<g id="node13" class="node"><title>Node13</title>
<g id="a_node13"><a xlink:href="../../d1/d0b/classinternal_j_s_o_n_node.html#a924514c9b1dbec1f779d8294371c0033" target="_top" xlink:title="internalJSONNode::type">
<polygon fill="white" stroke="black" points="439,-1.5 439,-22.5 581,-22.5 581,-1.5 439,-1.5"/>
<text text-anchor="middle" x="510" y="-8.9" font-family="Helvetica,sans-Serif" font-size="12.00">internalJSONNode::type</text>
</a>
</g>
</g>
<!-- Node2&#45;&gt;Node13 -->
<g id="edge18" class="edge"><title>Node2&#45;&gt;Node13</title>
<path fill="none" stroke="midnightblue" d="M365.619,-99.4607C372.121,-96.9402 378.37,-93.8315 384,-90 407.541,-73.9781 396.89,-53.6377 420,-37 425.91,-32.7451 432.521,-29.213 439.399,-26.2814"/>
<polygon fill="midnightblue" stroke="midnightblue" points="440.814,-29.4874 448.902,-22.6442 438.312,-22.9498 440.814,-29.4874"/>
</g>
<!-- Node4 -->
<g id="node4" class="node"><title>Node4</title>
<g id="a_node4"><a xlink:href="../../d1/da6/_documentation_2_operator-_console_2_j_s_o_n_2_j_s_o_n_memory_8h.html#a8f88e025f043e8c423c6ddc3c887600b" target="_top" xlink:title="clearString">
<polygon fill="white" stroke="black" points="918.5,-98.5 918.5,-119.5 991.5,-119.5 991.5,-98.5 918.5,-98.5"/>
<text text-anchor="middle" x="955" y="-105.9" font-family="Helvetica,sans-Serif" font-size="12.00">clearString</text>
</a>
</g>
</g>
<!-- Node3&#45;&gt;Node4 -->
<g id="edge3" class="edge"><title>Node3&#45;&gt;Node4</title>
<path fill="none" stroke="midnightblue" d="M581.569,-218.528C648.457,-225.201 750.017,-226.566 828,-189 849.548,-178.62 844.647,-163.054 864,-149 878.551,-138.433 896.336,-129.797 912.242,-123.289"/>
<polygon fill="midnightblue" stroke="midnightblue" points="913.828,-126.427 921.858,-119.514 911.27,-119.911 913.828,-126.427"/>
</g>
<!-- Node5 -->
<g id="node5" class="node"><title>Node5</title>
<g id="a_node5"><a xlink:href="../../d7/d6f/class_j_s_o_n_worker.html#a396aabc632272b5534353d4632bf849b" target="_top" xlink:title="JSONWorker::DoArray">
<polygon fill="white" stroke="black" points="664,-236.5 664,-257.5 800,-257.5 800,-236.5 664,-236.5"/>
<text text-anchor="middle" x="732" y="-243.9" font-family="Helvetica,sans-Serif" font-size="12.00">JSONWorker::DoArray</text>
</a>
</g>
</g>
<!-- Node3&#45;&gt;Node5 -->
<g id="edge4" class="edge"><title>Node3&#45;&gt;Node5</title>
<path fill="none" stroke="midnightblue" d="M570.245,-218.503C598.365,-223.487 632.152,-229.477 661.478,-234.676"/>
<polygon fill="midnightblue" stroke="midnightblue" points="661.191,-238.179 671.649,-236.479 662.413,-231.287 661.191,-238.179"/>
</g>
<!-- Node3&#45;&gt;Node6 -->
<g id="edge5" class="edge"><title>Node3&#45;&gt;Node6</title>
<path fill="none" stroke="midnightblue" d="M570.245,-197.497C598.365,-192.513 632.152,-186.523 661.478,-181.324"/>
<polygon fill="midnightblue" stroke="midnightblue" points="662.413,-184.713 671.649,-179.521 661.191,-177.821 662.413,-184.713"/>
</g>
<!-- Node6&#45;&gt;Node4 -->
<g id="edge6" class="edge"><title>Node6&#45;&gt;Node4</title>
<path fill="none" stroke="midnightblue" d="M787.727,-158.454C800.971,-155.633 815.042,-152.412 828,-149 857.065,-141.347 889.366,-131.057 913.986,-122.83"/>
<polygon fill="midnightblue" stroke="midnightblue" points="915.337,-126.068 923.696,-119.559 913.102,-119.434 915.337,-126.068"/>
</g>
<!-- Node7 -->
<g id="node7" class="node"><title>Node7</title>
<g id="a_node7"><a xlink:href="../../d1/d0b/classinternal_j_s_o_n_node.html#a5f943a59b0e0e3a4e88f34dfeee6a922" target="_top" xlink:title="internalJSONNode::SetFetched">
<polygon fill="white" stroke="black" points="864.5,-158.5 864.5,-179.5 1045.5,-179.5 1045.5,-158.5 864.5,-158.5"/>
<text text-anchor="middle" x="955" y="-165.9" font-family="Helvetica,sans-Serif" font-size="12.00">internalJSONNode::SetFetched</text>
</a>
</g>
</g>
<!-- Node6&#45;&gt;Node7 -->
<g id="edge7" class="edge"><title>Node6&#45;&gt;Node7</title>
<path fill="none" stroke="midnightblue" d="M807.205,-169C822.223,-169 838.247,-169 853.985,-169"/>
<polygon fill="midnightblue" stroke="midnightblue" points="854.273,-172.5 864.273,-169 854.273,-165.5 854.273,-172.5"/>
</g>
<!-- Node8&#45;&gt;Node4 -->
<g id="edge9" class="edge"><title>Node8&#45;&gt;Node4</title>
<path fill="none" stroke="midnightblue" d="M599.052,-93.7765C692.126,-97.7684 835.318,-103.91 908.108,-107.032"/>
<polygon fill="midnightblue" stroke="midnightblue" points="908.181,-110.538 918.322,-107.47 908.481,-103.544 908.181,-110.538"/>
</g>
<!-- Node8&#45;&gt;Node6 -->
<g id="edge11" class="edge"><title>Node8&#45;&gt;Node6</title>
<path fill="none" stroke="midnightblue" d="M578.746,-100.632C586.171,-103.125 593.415,-106.202 600,-110 620.433,-121.787 615.487,-137.352 636,-149 639.898,-151.213 644.011,-153.183 648.252,-154.935"/>
<polygon fill="midnightblue" stroke="midnightblue" points="647.117,-158.246 657.71,-158.434 649.546,-151.681 647.117,-158.246"/>
</g>
<!-- Node9 -->
<g id="node9" class="node"><title>Node9</title>
<g id="a_node9"><a xlink:href="../../d7/d6f/class_j_s_o_n_worker.html#a6e6a8187072b0686575d532c6e8ea794" target="_top" xlink:title="JSONWorker::DoNode">
<polygon fill="white" stroke="black" points="663.5,-40.5 663.5,-61.5 800.5,-61.5 800.5,-40.5 663.5,-40.5"/>
<text text-anchor="middle" x="732" y="-47.9" font-family="Helvetica,sans-Serif" font-size="12.00">JSONWorker::DoNode</text>
</a>
</g>
</g>
<!-- Node8&#45;&gt;Node9 -->
<g id="edge10" class="edge"><title>Node8&#45;&gt;Node9</title>
<path fill="none" stroke="midnightblue" d="M570.245,-79.4974C598.365,-74.5126 632.152,-68.5231 661.478,-63.3243"/>
<polygon fill="midnightblue" stroke="midnightblue" points="662.413,-66.7132 671.649,-61.5213 661.191,-59.8207 662.413,-66.7132"/>
</g>
<!-- Node10&#45;&gt;Node4 -->
<g id="edge13" class="edge"><title>Node10&#45;&gt;Node4</title>
<path fill="none" stroke="midnightblue" d="M798.028,-21.5445C808.236,-24.0931 818.534,-27.2092 828,-31 867.352,-46.7587 908.243,-74.5431 932.391,-92.3455"/>
<polygon fill="midnightblue" stroke="midnightblue" points="930.393,-95.2218 940.496,-98.4118 934.588,-89.6177 930.393,-95.2218"/>
</g>
<!-- Node11&#45;&gt;Node6 -->
<g id="edge16" class="edge"><title>Node11&#45;&gt;Node6</title>
<path fill="none" stroke="midnightblue" d="M570.245,-140.503C598.365,-145.487 632.152,-151.477 661.478,-156.676"/>
<polygon fill="midnightblue" stroke="midnightblue" points="661.191,-160.179 671.649,-158.479 662.413,-153.287 661.191,-160.179"/>
</g>
<!-- Node12 -->
<g id="node12" class="node"><title>Node12</title>
<g id="a_node12"><a xlink:href="../../d7/d6f/class_j_s_o_n_worker.html#ab473775a73ea206263df728a421944da" target="_top" xlink:title="JSONWorker::FixString">
<polygon fill="white" stroke="black" points="662.5,-118.5 662.5,-139.5 801.5,-139.5 801.5,-118.5 662.5,-118.5"/>
<text text-anchor="middle" x="732" y="-125.9" font-family="Helvetica,sans-Serif" font-size="12.00">JSONWorker::FixString</text>
</a>
</g>
</g>
<!-- Node11&#45;&gt;Node12 -->
<g id="edge15" class="edge"><title>Node11&#45;&gt;Node12</title>
<path fill="none" stroke="midnightblue" d="M600.165,-129.595C617.328,-129.517 635.193,-129.435 652.006,-129.359"/>
<polygon fill="midnightblue" stroke="midnightblue" points="652.339,-132.858 662.323,-129.312 652.307,-125.858 652.339,-132.858"/>
</g>
</g>
</svg>
