<?xml version="1.0" encoding="UTF-8" standalone="no"?>
<!DOCTYPE svg PUBLIC "-//W3C//DTD SVG 1.1//EN"
 "http://www.w3.org/Graphics/SVG/1.1/DTD/svg11.dtd">
<!-- Generated by graphviz version 2.34.0 (20130907.0111)
 -->
<!-- Title: internalJSONNode::push_back Pages: 1 -->
<svg width="706pt" height="30pt"
 viewBox="0.00 0.00 706.00 30.00" xmlns="http://www.w3.org/2000/svg" xmlns:xlink="http://www.w3.org/1999/xlink">
<g id="graph0" class="graph" transform="scale(1 1) rotate(0) translate(4 26)">
<title>internalJSONNode::push_back</title>
<polygon fill="white" stroke="white" points="-4,4 -4,-26 702,-26 702,4 -4,4"/>
<!-- Node1 -->
<g id="node1" class="node"><title>Node1</title>
<polygon fill="#bfbfbf" stroke="black" points="0.5,-0.5 0.5,-21.5 177.5,-21.5 177.5,-0.5 0.5,-0.5"/>
<text text-anchor="middle" x="89" y="-7.9" font-family="Helvetica,sans-Serif" font-size="12.00">internalJSONNode::push_back</text>
</g>
<!-- Node2 -->
<g id="node2" class="node"><title>Node2</title>
<g id="a_node2"><a xlink:href="../../d6/dc7/class_j_s_o_n_node.html#a2435b57e1586f3c7c7d915b3490a4e1c" target="_top" xlink:title="JSONNode::newJSONNode">
<polygon fill="white" stroke="black" points="214,-0.5 214,-21.5 378,-21.5 378,-0.5 214,-0.5"/>
<text text-anchor="middle" x="296" y="-7.9" font-family="Helvetica,sans-Serif" font-size="12.00">JSONNode::newJSONNode</text>
</a>
</g>
</g>
<!-- Node1&#45;&gt;Node2 -->
<g id="edge1" class="edge"><title>Node1&#45;&gt;Node2</title>
<path fill="none" stroke="midnightblue" d="M177.533,-11C186.215,-11 195.044,-11 203.762,-11"/>
<polygon fill="midnightblue" stroke="midnightblue" points="203.931,-14.5001 213.931,-11 203.931,-7.5001 203.931,-14.5001"/>
</g>
<!-- Node3 -->
<g id="node3" class="node"><title>Node3</title>
<g id="a_node3"><a xlink:href="../../db/d8a/_documentation_2_operator-_console_2_j_s_o_n_2_j_s_o_n_node_8cpp.html#a459ea7a97e80c19dfc813f2712b9dd73" target="_top" xlink:title="_newJSONNode">
<polygon fill="white" stroke="black" points="414,-0.5 414,-21.5 518,-21.5 518,-0.5 414,-0.5"/>
<text text-anchor="middle" x="466" y="-7.9" font-family="Helvetica,sans-Serif" font-size="12.00">_newJSONNode</text>
</a>
</g>
</g>
<!-- Node2&#45;&gt;Node3 -->
<g id="edge2" class="edge"><title>Node2&#45;&gt;Node3</title>
<path fill="none" stroke="midnightblue" d="M378.047,-11C386.543,-11 395.079,-11 403.307,-11"/>
<polygon fill="midnightblue" stroke="midnightblue" points="403.539,-14.5001 413.539,-11 403.539,-7.5001 403.539,-14.5001"/>
</g>
<!-- Node4 -->
<g id="node4" class="node"><title>Node4</title>
<g id="a_node4"><a xlink:href="../../d6/dc7/class_j_s_o_n_node.html#aba2db3c5af33c64e0cdccd33d18adc59" target="_top" xlink:title="JSONNode::JSONNode">
<polygon fill="white" stroke="black" points="554.5,-0.5 554.5,-21.5 697.5,-21.5 697.5,-0.5 554.5,-0.5"/>
<text text-anchor="middle" x="626" y="-7.9" font-family="Helvetica,sans-Serif" font-size="12.00">JSONNode::JSONNode</text>
</a>
</g>
</g>
<!-- Node3&#45;&gt;Node4 -->
<g id="edge3" class="edge"><title>Node3&#45;&gt;Node4</title>
<path fill="none" stroke="midnightblue" d="M518.298,-11C526.678,-11 535.534,-11 544.417,-11"/>
<polygon fill="midnightblue" stroke="midnightblue" points="544.433,-14.5001 554.433,-11 544.433,-7.5001 544.433,-14.5001"/>
</g>
</g>
</svg>
