<?xml version="1.0" encoding="UTF-8" standalone="no"?>
<!DOCTYPE svg PUBLIC "-//W3C//DTD SVG 1.1//EN"
 "http://www.w3.org/Graphics/SVG/1.1/DTD/svg11.dtd">
<!-- Generated by graphviz version 2.34.0 (20130907.0111)
 -->
<!-- Title: internalJSONNode::isContainer Pages: 1 -->
<svg width="392pt" height="110pt"
 viewBox="0.00 0.00 392.00 110.00" xmlns="http://www.w3.org/2000/svg" xmlns:xlink="http://www.w3.org/1999/xlink">
<g id="graph0" class="graph" transform="scale(1 1) rotate(0) translate(4 106)">
<title>internalJSONNode::isContainer</title>
<polygon fill="white" stroke="white" points="-4,4 -4,-106 388,-106 388,4 -4,4"/>
<!-- Node1 -->
<g id="node1" class="node"><title>Node1</title>
<polygon fill="#bfbfbf" stroke="black" points="0,-40.5 0,-61.5 180,-61.5 180,-40.5 0,-40.5"/>
<text text-anchor="middle" x="90" y="-47.9" font-family="Helvetica,sans-Serif" font-size="12.00">internalJSONNode::isContainer</text>
</g>
<!-- Node2 -->
<g id="node2" class="node"><title>Node2</title>
<g id="a_node2"><a xlink:href="../../d1/d0b/classinternal_j_s_o_n_node.html#a83b24cb2bbdac4b1a1a532c44ffd397f" target="_top" xlink:title="internalJSONNode::begin">
<polygon fill="white" stroke="black" points="225.5,-80.5 225.5,-101.5 374.5,-101.5 374.5,-80.5 225.5,-80.5"/>
<text text-anchor="middle" x="300" y="-87.9" font-family="Helvetica,sans-Serif" font-size="12.00">internalJSONNode::begin</text>
</a>
</g>
</g>
<!-- Node1&#45;&gt;Node2 -->
<g id="edge1" class="edge"><title>Node1&#45;&gt;Node2</title>
<path fill="none" stroke="midnightblue" d="M155.513,-63.4063C183.994,-68.8834 217.115,-75.2528 244.355,-80.4913"/>
<polygon fill="midnightblue" stroke="midnightblue" points="156.131,-59.9611 145.65,-61.5095 154.809,-66.8351 156.131,-59.9611"/>
</g>
<!-- Node3 -->
<g id="node3" class="node"><title>Node3</title>
<g id="a_node3"><a xlink:href="../../d1/d0b/classinternal_j_s_o_n_node.html#a4bbd647f453bfdb21ef9b6a2fb6f62f8" target="_top" xlink:title="internalJSONNode::end">
<polygon fill="white" stroke="black" points="230,-40.5 230,-61.5 370,-61.5 370,-40.5 230,-40.5"/>
<text text-anchor="middle" x="300" y="-47.9" font-family="Helvetica,sans-Serif" font-size="12.00">internalJSONNode::end</text>
</a>
</g>
</g>
<!-- Node1&#45;&gt;Node3 -->
<g id="edge2" class="edge"><title>Node1&#45;&gt;Node3</title>
<path fill="none" stroke="midnightblue" d="M190.311,-51C203.69,-51 217.172,-51 229.869,-51"/>
<polygon fill="midnightblue" stroke="midnightblue" points="190.116,-47.5001 180.116,-51 190.116,-54.5001 190.116,-47.5001"/>
</g>
<!-- Node4 -->
<g id="node4" class="node"><title>Node4</title>
<g id="a_node4"><a xlink:href="../../d1/d0b/classinternal_j_s_o_n_node.html#abf6beef21cb476c4b2246f7b01a1ee98" target="_top" xlink:title="internalJSONNode::preparse">
<polygon fill="white" stroke="black" points="216.5,-0.5 216.5,-21.5 383.5,-21.5 383.5,-0.5 216.5,-0.5"/>
<text text-anchor="middle" x="300" y="-7.9" font-family="Helvetica,sans-Serif" font-size="12.00">internalJSONNode::preparse</text>
</a>
</g>
</g>
<!-- Node1&#45;&gt;Node4 -->
<g id="edge3" class="edge"><title>Node1&#45;&gt;Node4</title>
<path fill="none" stroke="midnightblue" d="M155.513,-38.5937C183.994,-33.1166 217.115,-26.7472 244.355,-21.5087"/>
<polygon fill="midnightblue" stroke="midnightblue" points="154.809,-35.1649 145.65,-40.4905 156.131,-42.0389 154.809,-35.1649"/>
</g>
</g>
</svg>
