<?xml version="1.0" encoding="UTF-8" standalone="no"?>
<!DOCTYPE svg PUBLIC "-//W3C//DTD SVG 1.1//EN"
 "http://www.w3.org/Graphics/SVG/1.1/DTD/svg11.dtd">
<!-- Generated by graphviz version 2.34.0 (20130907.0111)
 -->
<!-- Title: ascii_one Pages: 1 -->
<svg width="460pt" height="83pt"
 viewBox="0.00 0.00 460.00 83.00" xmlns="http://www.w3.org/2000/svg" xmlns:xlink="http://www.w3.org/1999/xlink">
<g id="graph0" class="graph" transform="scale(1 1) rotate(0) translate(4 79)">
<title>ascii_one</title>
<polygon fill="white" stroke="white" points="-4,4 -4,-79 456,-79 456,4 -4,4"/>
<!-- Node1 -->
<g id="node1" class="node"><title>Node1</title>
<polygon fill="#bfbfbf" stroke="black" points="0,-23.5 0,-44.5 68,-44.5 68,-23.5 0,-23.5"/>
<text text-anchor="middle" x="34" y="-30.9" font-family="Helvetica,sans-Serif" font-size="12.00">ascii_one</text>
</g>
<!-- Node2 -->
<g id="node2" class="node"><title>Node2</title>
<g id="a_node2"><a xlink:href="../../d7/d6f/class_j_s_o_n_worker.html#abfded5cd0ed971450c9bc190fb02a0e1" target="_top" xlink:title="JSONWorker::RemoveWhiteSpace\lAndComments">
<polygon fill="white" stroke="black" points="104,-17 104,-51 304,-51 304,-17 104,-17"/>
<text text-anchor="start" x="112" y="-37.4" font-family="Helvetica,sans-Serif" font-size="12.00">JSONWorker::RemoveWhiteSpace</text>
<text text-anchor="middle" x="204" y="-24.4" font-family="Helvetica,sans-Serif" font-size="12.00">AndComments</text>
</a>
</g>
</g>
<!-- Node1&#45;&gt;Node2 -->
<g id="edge1" class="edge"><title>Node1&#45;&gt;Node2</title>
<path fill="none" stroke="midnightblue" d="M78.3411,-34C86.3754,-34 95.0636,-34 103.985,-34"/>
<polygon fill="midnightblue" stroke="midnightblue" points="78.1914,-30.5001 68.1914,-34 78.1914,-37.5001 78.1914,-30.5001"/>
</g>
<!-- Node3 -->
<g id="node3" class="node"><title>Node3</title>
<g id="a_node3"><a xlink:href="../../d0/d9e/namespacelibjson.html#af3491ef34c4987dbe1abedf992f966e1" target="_top" xlink:title="libjson::strip_white\l_space">
<polygon fill="white" stroke="black" points="340,-41 340,-75 452,-75 452,-41 340,-41"/>
<text text-anchor="start" x="348" y="-61.4" font-family="Helvetica,sans-Serif" font-size="12.00">libjson::strip_white</text>
<text text-anchor="middle" x="396" y="-48.4" font-family="Helvetica,sans-Serif" font-size="12.00">_space</text>
</a>
</g>
</g>
<!-- Node2&#45;&gt;Node3 -->
<g id="edge2" class="edge"><title>Node2&#45;&gt;Node3</title>
<path fill="none" stroke="midnightblue" d="M314.174,-47.7905C322.984,-48.9033 331.628,-49.9951 339.793,-51.0265"/>
<polygon fill="midnightblue" stroke="midnightblue" points="314.533,-44.3081 304.174,-46.5272 313.656,-51.2529 314.533,-44.3081"/>
</g>
<!-- Node4 -->
<g id="node4" class="node"><title>Node4</title>
<g id="a_node4"><a xlink:href="../../d0/d9e/namespacelibjson.html#a7588cf35ceb40558478dbd21e0caf3cf" target="_top" xlink:title="libjson::is_valid">
<polygon fill="white" stroke="black" points="348.5,-0.5 348.5,-21.5 443.5,-21.5 443.5,-0.5 348.5,-0.5"/>
<text text-anchor="middle" x="396" y="-7.9" font-family="Helvetica,sans-Serif" font-size="12.00">libjson::is_valid</text>
</a>
</g>
</g>
<!-- Node2&#45;&gt;Node4 -->
<g id="edge3" class="edge"><title>Node2&#45;&gt;Node4</title>
<path fill="none" stroke="midnightblue" d="M314.174,-20.7842C326.016,-19.3507 337.557,-17.9537 348.038,-16.6848"/>
<polygon fill="midnightblue" stroke="midnightblue" points="313.68,-17.3183 304.174,-21.9948 314.522,-24.2676 313.68,-17.3183"/>
</g>
</g>
</svg>
