<?xml version="1.0" encoding="UTF-8" standalone="no"?>
<!DOCTYPE svg PUBLIC "-//W3C//DTD SVG 1.1//EN"
 "http://www.w3.org/Graphics/SVG/1.1/DTD/svg11.dtd">
<!-- Generated by graphviz version 2.34.0 (20130907.0111)
 -->
<!-- Title: Documentation/Operator&#45;Console/CriticalBuf.h Pages: 1 -->
<svg width="1580pt" height="332pt"
 viewBox="0.00 0.00 1580.00 332.00" xmlns="http://www.w3.org/2000/svg" xmlns:xlink="http://www.w3.org/1999/xlink">
<g id="graph0" class="graph" transform="scale(1 1) rotate(0) translate(4 328)">
<title>Documentation/Operator&#45;Console/CriticalBuf.h</title>
<polygon fill="white" stroke="white" points="-4,4 -4,-328 1576,-328 1576,4 -4,4"/>
<!-- Node1 -->
<g id="node1" class="node"><title>Node1</title>
<polygon fill="#bfbfbf" stroke="black" points="1153.5,-289 1153.5,-323 1298.5,-323 1298.5,-289 1153.5,-289"/>
<text text-anchor="start" x="1161.5" y="-309.4" font-family="Helvetica,sans-Serif" font-size="12.00">Documentation/Operator</text>
<text text-anchor="middle" x="1226" y="-296.4" font-family="Helvetica,sans-Serif" font-size="12.00">&#45;Console/CriticalBuf.h</text>
</g>
<!-- Node2 -->
<g id="node2" class="node"><title>Node2</title>
<g id="a_node2"><a xlink:href="../../d3/db6/_documentation_2_operator-_console_2_image_acquisition_8h.html" target="_top" xlink:title="Documentation/Operator\l&#45;Console/ImageAcquisition.h">
<polygon fill="white" stroke="black" points="824,-217 824,-251 990,-251 990,-217 824,-217"/>
<text text-anchor="start" x="832" y="-237.4" font-family="Helvetica,sans-Serif" font-size="12.00">Documentation/Operator</text>
<text text-anchor="middle" x="907" y="-224.4" font-family="Helvetica,sans-Serif" font-size="12.00">&#45;Console/ImageAcquisition.h</text>
</a>
</g>
</g>
<!-- Node1&#45;&gt;Node2 -->
<g id="edge1" class="edge"><title>Node1&#45;&gt;Node2</title>
<path fill="none" stroke="midnightblue" d="M1143.29,-286.851C1092.75,-275.76 1028.69,-261.703 980.024,-251.024"/>
<polygon fill="midnightblue" stroke="midnightblue" points="1142.7,-290.304 1153.21,-289.028 1144.2,-283.466 1142.7,-290.304"/>
</g>
<!-- Node6 -->
<g id="node6" class="node"><title>Node6</title>
<g id="a_node6"><a xlink:href="../../de/d31/_documentation_2_operator-_console_2_critical_buf_8cpp.html" target="_top" xlink:title="Documentation/Operator\l&#45;Console/CriticalBuf.cpp">
<polygon fill="white" stroke="black" points="1427.5,-1 1427.5,-35 1572.5,-35 1572.5,-1 1427.5,-1"/>
<text text-anchor="start" x="1435.5" y="-21.4" font-family="Helvetica,sans-Serif" font-size="12.00">Documentation/Operator</text>
<text text-anchor="middle" x="1500" y="-8.4" font-family="Helvetica,sans-Serif" font-size="12.00">&#45;Console/CriticalBuf.cpp</text>
</a>
</g>
</g>
<!-- Node1&#45;&gt;Node6 -->
<g id="edge26" class="edge"><title>Node1&#45;&gt;Node6</title>
<path fill="none" stroke="midnightblue" d="M1255.79,-282.528C1286.6,-258.649 1335.39,-219.024 1373,-180 1420.19,-131.042 1467.66,-65.5168 1488.72,-35.3987"/>
<polygon fill="midnightblue" stroke="midnightblue" points="1253.39,-279.959 1247.6,-288.832 1257.66,-285.506 1253.39,-279.959"/>
</g>
<!-- Node3 -->
<g id="node3" class="node"><title>Node3</title>
<g id="a_node3"><a xlink:href="../../de/d16/_documentation_2_operator-_console_2_file_acq_8h.html" target="_top" xlink:title="Documentation/Operator\l&#45;Console/FileAcq.h">
<polygon fill="white" stroke="black" points="209.5,-145 209.5,-179 354.5,-179 354.5,-145 209.5,-145"/>
<text text-anchor="start" x="217.5" y="-165.4" font-family="Helvetica,sans-Serif" font-size="12.00">Documentation/Operator</text>
<text text-anchor="middle" x="282" y="-152.4" font-family="Helvetica,sans-Serif" font-size="12.00">&#45;Console/FileAcq.h</text>
</a>
</g>
</g>
<!-- Node2&#45;&gt;Node3 -->
<g id="edge2" class="edge"><title>Node2&#45;&gt;Node3</title>
<path fill="none" stroke="midnightblue" d="M813.421,-227.019C704.723,-219.346 520.199,-204.079 363,-180 360.301,-179.587 357.557,-179.141 354.789,-178.67"/>
<polygon fill="midnightblue" stroke="midnightblue" points="813.481,-230.531 823.7,-227.737 813.969,-223.548 813.481,-230.531"/>
</g>
<!-- Node4 -->
<g id="node4" class="node"><title>Node4</title>
<g id="a_node4"><a xlink:href="../../da/d65/_documentation_2_operator-_console_2_operator_console_8h.html" target="_top" xlink:title="Documentation/Operator\l&#45;Console/OperatorConsole.h">
<polygon fill="white" stroke="black" points="765,-73 765,-107 931,-107 931,-73 765,-73"/>
<text text-anchor="start" x="773" y="-93.4" font-family="Helvetica,sans-Serif" font-size="12.00">Documentation/Operator</text>
<text text-anchor="middle" x="848" y="-80.4" font-family="Helvetica,sans-Serif" font-size="12.00">&#45;Console/OperatorConsole.h</text>
</a>
</g>
</g>
<!-- Node2&#45;&gt;Node4 -->
<g id="edge17" class="edge"><title>Node2&#45;&gt;Node4</title>
<path fill="none" stroke="midnightblue" d="M932.357,-209.481C948.882,-191.205 965.139,-165.443 952,-144 941.518,-126.894 923.59,-115.092 905.542,-107.05"/>
<polygon fill="midnightblue" stroke="midnightblue" points="929.721,-207.173 925.343,-216.821 934.782,-212.009 929.721,-207.173"/>
</g>
<!-- Node15 -->
<g id="node15" class="node"><title>Node15</title>
<g id="a_node15"><a xlink:href="../../d8/db2/_documentation_2_operator-_console_2_file_acquisition_8h.html" target="_top" xlink:title="Documentation/Operator\l&#45;Console/FileAcquisition.h">
<polygon fill="white" stroke="black" points="372.5,-145 372.5,-179 525.5,-179 525.5,-145 372.5,-145"/>
<text text-anchor="start" x="380.5" y="-165.4" font-family="Helvetica,sans-Serif" font-size="12.00">Documentation/Operator</text>
<text text-anchor="middle" x="449" y="-152.4" font-family="Helvetica,sans-Serif" font-size="12.00">&#45;Console/FileAcquisition.h</text>
</a>
</g>
</g>
<!-- Node2&#45;&gt;Node15 -->
<g id="edge14" class="edge"><title>Node2&#45;&gt;Node15</title>
<path fill="none" stroke="midnightblue" d="M813.855,-221.244C738.262,-211.347 629.022,-196.24 534,-180 531.33,-179.544 528.615,-179.067 525.875,-178.576"/>
<polygon fill="midnightblue" stroke="midnightblue" points="813.46,-224.722 823.829,-222.545 814.366,-217.781 813.46,-224.722"/>
</g>
<!-- Node17 -->
<g id="node17" class="node"><title>Node17</title>
<g id="a_node17"><a xlink:href="../../d6/d5e/_documentation_2_operator-_console_2_imatest_lib_acq_8h.html" target="_top" xlink:title="Documentation/Operator\l&#45;Console/ImatestLibAcq.h">
<polygon fill="white" stroke="black" points="1000.5,-145 1000.5,-179 1151.5,-179 1151.5,-145 1000.5,-145"/>
<text text-anchor="start" x="1008.5" y="-165.4" font-family="Helvetica,sans-Serif" font-size="12.00">Documentation/Operator</text>
<text text-anchor="middle" x="1076" y="-152.4" font-family="Helvetica,sans-Serif" font-size="12.00">&#45;Console/ImatestLibAcq.h</text>
</a>
</g>
</g>
<!-- Node2&#45;&gt;Node17 -->
<g id="edge18" class="edge"><title>Node2&#45;&gt;Node17</title>
<path fill="none" stroke="midnightblue" d="M955.062,-213.093C981.042,-202.332 1012.71,-189.217 1037.12,-179.106"/>
<polygon fill="midnightblue" stroke="midnightblue" points="953.671,-209.88 945.772,-216.941 956.35,-216.347 953.671,-209.88"/>
</g>
<!-- Node19 -->
<g id="node19" class="node"><title>Node19</title>
<g id="a_node19"><a xlink:href="../../da/d62/_documentation_2_operator-_console_2_simple_direct_show_acq_8h.html" target="_top" xlink:title="Documentation/Operator\l&#45;Console/SimpleDirectShowAcq.h">
<polygon fill="white" stroke="black" points="1170,-145 1170,-179 1364,-179 1364,-145 1170,-145"/>
<text text-anchor="start" x="1178" y="-165.4" font-family="Helvetica,sans-Serif" font-size="12.00">Documentation/Operator</text>
<text text-anchor="middle" x="1267" y="-152.4" font-family="Helvetica,sans-Serif" font-size="12.00">&#45;Console/SimpleDirectShowAcq.h</text>
</a>
</g>
</g>
<!-- Node2&#45;&gt;Node19 -->
<g id="edge21" class="edge"><title>Node2&#45;&gt;Node19</title>
<path fill="none" stroke="midnightblue" d="M999.702,-214.975C1056.8,-203.871 1129.37,-189.761 1184.48,-179.045"/>
<polygon fill="midnightblue" stroke="midnightblue" points="998.739,-211.596 989.591,-216.941 1000.08,-218.467 998.739,-211.596"/>
</g>
<!-- Node21 -->
<g id="node21" class="node"><title>Node21</title>
<g id="a_node21"><a xlink:href="../../d9/dd4/_documentation_2_operator-_console_2_image_acquisition_8cpp.html" target="_top" xlink:title="Documentation/Operator\l&#45;Console/ImageAcquisition.cpp">
<polygon fill="white" stroke="black" points="543.5,-145 543.5,-179 722.5,-179 722.5,-145 543.5,-145"/>
<text text-anchor="start" x="551.5" y="-165.4" font-family="Helvetica,sans-Serif" font-size="12.00">Documentation/Operator</text>
<text text-anchor="middle" x="633" y="-152.4" font-family="Helvetica,sans-Serif" font-size="12.00">&#45;Console/ImageAcquisition.cpp</text>
</a>
</g>
</g>
<!-- Node2&#45;&gt;Node21 -->
<g id="edge24" class="edge"><title>Node2&#45;&gt;Node21</title>
<path fill="none" stroke="midnightblue" d="M834.292,-214.425C791.254,-203.43 737.269,-189.638 696.042,-179.106"/>
<polygon fill="midnightblue" stroke="midnightblue" points="833.584,-217.856 844.139,-216.941 835.316,-211.074 833.584,-217.856"/>
</g>
<!-- Node22 -->
<g id="node22" class="node"><title>Node22</title>
<g id="a_node22"><a xlink:href="../../d3/d81/_documentation_2_operator-_console_2_imatest_lib_acquire_image_8h.html" target="_top" xlink:title="Documentation/Operator\l&#45;Console/ImatestLibAcquireImage.h">
<polygon fill="white" stroke="black" points="740.5,-145 740.5,-179 943.5,-179 943.5,-145 740.5,-145"/>
<text text-anchor="start" x="748.5" y="-165.4" font-family="Helvetica,sans-Serif" font-size="12.00">Documentation/Operator</text>
<text text-anchor="middle" x="842" y="-152.4" font-family="Helvetica,sans-Serif" font-size="12.00">&#45;Console/ImatestLibAcquireImage.h</text>
</a>
</g>
</g>
<!-- Node2&#45;&gt;Node22 -->
<g id="edge25" class="edge"><title>Node2&#45;&gt;Node22</title>
<path fill="none" stroke="midnightblue" d="M884.884,-209.183C875.694,-199.286 865.266,-188.055 856.994,-179.147"/>
<polygon fill="midnightblue" stroke="midnightblue" points="882.555,-211.818 891.924,-216.765 887.685,-207.055 882.555,-211.818"/>
</g>
<!-- Node3&#45;&gt;Node4 -->
<g id="edge3" class="edge"><title>Node3&#45;&gt;Node4</title>
<path fill="none" stroke="midnightblue" d="M364.827,-143.785C510.685,-120.956 670.172,-105.657 764.856,-97.5892"/>
<polygon fill="midnightblue" stroke="midnightblue" points="364.126,-140.352 354.795,-145.371 365.219,-147.266 364.126,-140.352"/>
</g>
<!-- Node14 -->
<g id="node14" class="node"><title>Node14</title>
<g id="a_node14"><a xlink:href="../../de/d23/_documentation_2_operator-_console_2_file_acq_8cpp.html" target="_top" xlink:title="Documentation/Operator\l&#45;Console/FileAcq.cpp">
<polygon fill="white" stroke="black" points="206.5,-73 206.5,-107 351.5,-107 351.5,-73 206.5,-73"/>
<text text-anchor="start" x="214.5" y="-93.4" font-family="Helvetica,sans-Serif" font-size="12.00">Documentation/Operator</text>
<text text-anchor="middle" x="279" y="-80.4" font-family="Helvetica,sans-Serif" font-size="12.00">&#45;Console/FileAcq.cpp</text>
</a>
</g>
</g>
<!-- Node3&#45;&gt;Node14 -->
<g id="edge13" class="edge"><title>Node3&#45;&gt;Node14</title>
<path fill="none" stroke="midnightblue" d="M280.865,-134.508C280.47,-125.303 280.04,-115.262 279.692,-107.147"/>
<polygon fill="midnightblue" stroke="midnightblue" points="277.379,-134.924 281.304,-144.765 284.373,-134.624 277.379,-134.924"/>
</g>
<!-- Node5 -->
<g id="node5" class="node"><title>Node5</title>
<g id="a_node5"><a xlink:href="../../d7/d4b/_documentation_2_operator-_console_2_app_thread_8cpp.html" target="_top" xlink:title="Documentation/Operator\l&#45;Console/AppThread.cpp">
<polygon fill="white" stroke="black" points="1098,-1 1098,-35 1246,-35 1246,-1 1098,-1"/>
<text text-anchor="start" x="1106" y="-21.4" font-family="Helvetica,sans-Serif" font-size="12.00">Documentation/Operator</text>
<text text-anchor="middle" x="1172" y="-8.4" font-family="Helvetica,sans-Serif" font-size="12.00">&#45;Console/AppThread.cpp</text>
</a>
</g>
</g>
<!-- Node4&#45;&gt;Node5 -->
<g id="edge4" class="edge"><title>Node4&#45;&gt;Node5</title>
<path fill="none" stroke="midnightblue" d="M932.391,-70.7673C983.634,-59.6963 1048.44,-45.6945 1097.73,-35.0452"/>
<polygon fill="midnightblue" stroke="midnightblue" points="931.367,-67.4077 922.332,-72.9406 932.846,-74.2498 931.367,-67.4077"/>
</g>
<!-- Node4&#45;&gt;Node6 -->
<g id="edge5" class="edge"><title>Node4&#45;&gt;Node6</title>
<path fill="none" stroke="midnightblue" d="M941.424,-76.2311C953.715,-74.7132 966.152,-73.2586 978,-72 1173.11,-51.2732 1223.79,-63.9679 1418,-36 1421.02,-35.5648 1424.1,-35.0866 1427.2,-34.5754"/>
<polygon fill="midnightblue" stroke="midnightblue" points="940.637,-72.8022 931.15,-77.5181 941.507,-79.7479 940.637,-72.8022"/>
</g>
<!-- Node7 -->
<g id="node7" class="node"><title>Node7</title>
<g id="a_node7"><a xlink:href="../../da/df9/_documentation_2_operator-_console_2_image_test_8cpp.html" target="_top" xlink:title="Documentation/Operator\l&#45;Console/ImageTest.cpp">
<polygon fill="white" stroke="black" points="1264.5,-1 1264.5,-35 1409.5,-35 1409.5,-1 1264.5,-1"/>
<text text-anchor="start" x="1272.5" y="-21.4" font-family="Helvetica,sans-Serif" font-size="12.00">Documentation/Operator</text>
<text text-anchor="middle" x="1337" y="-8.4" font-family="Helvetica,sans-Serif" font-size="12.00">&#45;Console/ImageTest.cpp</text>
</a>
</g>
</g>
<!-- Node4&#45;&gt;Node7 -->
<g id="edge6" class="edge"><title>Node4&#45;&gt;Node7</title>
<path fill="none" stroke="midnightblue" d="M941.487,-76.7657C953.768,-75.1613 966.186,-73.5402 978,-72 1101.1,-55.9513 1132.58,-56.6155 1255,-36 1258.01,-35.493 1261.08,-34.9548 1264.18,-34.3939"/>
<polygon fill="midnightblue" stroke="midnightblue" points="940.682,-73.3411 931.22,-78.1075 941.589,-80.2821 940.682,-73.3411"/>
</g>
<!-- Node8 -->
<g id="node8" class="node"><title>Node8</title>
<g id="a_node8"><a xlink:href="../../d4/d9c/_msg_dialog_8cpp.html" target="_top" xlink:title="Documentation/Operator\l&#45;Console/MsgDialog.cpp">
<polygon fill="white" stroke="black" points="0,-1 0,-35 146,-35 146,-1 0,-1"/>
<text text-anchor="start" x="8" y="-21.4" font-family="Helvetica,sans-Serif" font-size="12.00">Documentation/Operator</text>
<text text-anchor="middle" x="73" y="-8.4" font-family="Helvetica,sans-Serif" font-size="12.00">&#45;Console/MsgDialog.cpp</text>
</a>
</g>
</g>
<!-- Node4&#45;&gt;Node8 -->
<g id="edge7" class="edge"><title>Node4&#45;&gt;Node8</title>
<path fill="none" stroke="midnightblue" d="M754.522,-83.3423C593.001,-73.3164 268.11,-51.9831 155,-36 152.121,-35.5932 149.191,-35.1461 146.236,-34.6677"/>
<polygon fill="midnightblue" stroke="midnightblue" points="754.723,-86.8614 764.921,-83.9861 755.156,-79.8747 754.723,-86.8614"/>
</g>
<!-- Node9 -->
<g id="node9" class="node"><title>Node9</title>
<g id="a_node9"><a xlink:href="../../db/db5/_documentation_2_operator-_console_2_operator_console_8cpp.html" target="_top" xlink:title="Documentation/Operator\l&#45;Console/OperatorConsole.cpp">
<polygon fill="white" stroke="black" points="164.5,-1 164.5,-35 343.5,-35 343.5,-1 164.5,-1"/>
<text text-anchor="start" x="172.5" y="-21.4" font-family="Helvetica,sans-Serif" font-size="12.00">Documentation/Operator</text>
<text text-anchor="middle" x="254" y="-8.4" font-family="Helvetica,sans-Serif" font-size="12.00">&#45;Console/OperatorConsole.cpp</text>
</a>
</g>
</g>
<!-- Node4&#45;&gt;Node9 -->
<g id="edge8" class="edge"><title>Node4&#45;&gt;Node9</title>
<path fill="none" stroke="midnightblue" d="M754.802,-80.8723C654.948,-71.7368 491.923,-55.5905 352,-36 349.264,-35.6169 346.487,-35.2153 343.685,-34.799"/>
<polygon fill="midnightblue" stroke="midnightblue" points="754.587,-84.367 764.863,-81.7885 755.222,-77.3959 754.587,-84.367"/>
</g>
<!-- Node10 -->
<g id="node10" class="node"><title>Node10</title>
<g id="a_node10"><a xlink:href="../../dd/dcb/_documentation_2_operator-_console_2_operator_console_dlg_8cpp.html" target="_top" xlink:title="Documentation/Operator\l&#45;Console/OperatorConsoleDlg.cpp">
<polygon fill="white" stroke="black" points="361.5,-1 361.5,-35 558.5,-35 558.5,-1 361.5,-1"/>
<text text-anchor="start" x="369.5" y="-21.4" font-family="Helvetica,sans-Serif" font-size="12.00">Documentation/Operator</text>
<text text-anchor="middle" x="460" y="-8.4" font-family="Helvetica,sans-Serif" font-size="12.00">&#45;Console/OperatorConsoleDlg.cpp</text>
</a>
</g>
</g>
<!-- Node4&#45;&gt;Node10 -->
<g id="edge9" class="edge"><title>Node4&#45;&gt;Node10</title>
<path fill="none" stroke="midnightblue" d="M754.901,-72.2038C692.37,-60.9224 610.458,-46.1446 548.835,-35.027"/>
<polygon fill="midnightblue" stroke="midnightblue" points="754.302,-75.6521 764.764,-73.9832 755.545,-68.7633 754.302,-75.6521"/>
</g>
<!-- Node11 -->
<g id="node11" class="node"><title>Node11</title>
<g id="a_node11"><a xlink:href="../../dd/d14/_documentation_2_operator-_console_2_pass_fail_8cpp.html" target="_top" xlink:title="Documentation/Operator\l&#45;Console/PassFail.cpp">
<polygon fill="white" stroke="black" points="576.5,-1 576.5,-35 721.5,-35 721.5,-1 576.5,-1"/>
<text text-anchor="start" x="584.5" y="-21.4" font-family="Helvetica,sans-Serif" font-size="12.00">Documentation/Operator</text>
<text text-anchor="middle" x="649" y="-8.4" font-family="Helvetica,sans-Serif" font-size="12.00">&#45;Console/PassFail.cpp</text>
</a>
</g>
</g>
<!-- Node4&#45;&gt;Node11 -->
<g id="edge10" class="edge"><title>Node4&#45;&gt;Node11</title>
<path fill="none" stroke="midnightblue" d="M792.61,-69.5161C761.797,-58.6774 723.908,-45.3497 694.786,-35.1057"/>
<polygon fill="midnightblue" stroke="midnightblue" points="791.751,-72.9239 802.345,-72.9406 794.073,-66.3205 791.751,-72.9239"/>
</g>
<!-- Node12 -->
<g id="node12" class="node"><title>Node12</title>
<g id="a_node12"><a xlink:href="../../dd/d4b/_documentation_2_operator-_console_2_password_dialog_8cpp.html" target="_top" xlink:title="Documentation/Operator\l&#45;Console/PasswordDialog.cpp">
<polygon fill="white" stroke="black" points="740,-1 740,-35 916,-35 916,-1 740,-1"/>
<text text-anchor="start" x="748" y="-21.4" font-family="Helvetica,sans-Serif" font-size="12.00">Documentation/Operator</text>
<text text-anchor="middle" x="828" y="-8.4" font-family="Helvetica,sans-Serif" font-size="12.00">&#45;Console/PasswordDialog.cpp</text>
</a>
</g>
</g>
<!-- Node4&#45;&gt;Node12 -->
<g id="edge11" class="edge"><title>Node4&#45;&gt;Node12</title>
<path fill="none" stroke="midnightblue" d="M840.602,-63.1071C837.926,-53.7401 834.982,-43.4379 832.614,-35.1473"/>
<polygon fill="midnightblue" stroke="midnightblue" points="837.249,-64.111 843.361,-72.7646 843.979,-62.1879 837.249,-64.111"/>
</g>
<!-- Node13 -->
<g id="node13" class="node"><title>Node13</title>
<g id="a_node13"><a xlink:href="../../d3/d68/_documentation_2_operator-_console_2_setup_8cpp.html" target="_top" xlink:title="Documentation/Operator\l&#45;Console/Setup.cpp">
<polygon fill="white" stroke="black" points="934.5,-1 934.5,-35 1079.5,-35 1079.5,-1 934.5,-1"/>
<text text-anchor="start" x="942.5" y="-21.4" font-family="Helvetica,sans-Serif" font-size="12.00">Documentation/Operator</text>
<text text-anchor="middle" x="1007" y="-8.4" font-family="Helvetica,sans-Serif" font-size="12.00">&#45;Console/Setup.cpp</text>
</a>
</g>
</g>
<!-- Node4&#45;&gt;Node13 -->
<g id="edge12" class="edge"><title>Node4&#45;&gt;Node13</title>
<path fill="none" stroke="midnightblue" d="M893.863,-68.8088C918.183,-58.1019 947.652,-45.128 970.417,-35.1057"/>
<polygon fill="midnightblue" stroke="midnightblue" points="892.22,-65.7079 884.478,-72.9406 895.04,-72.1145 892.22,-65.7079"/>
</g>
<!-- Node15&#45;&gt;Node4 -->
<g id="edge15" class="edge"><title>Node15&#45;&gt;Node4</title>
<path fill="none" stroke="midnightblue" d="M535.759,-143.699C618.926,-128.461 703.959,-114.26 764.91,-104.323"/>
<polygon fill="midnightblue" stroke="midnightblue" points="535.093,-140.263 525.891,-145.514 536.359,-147.147 535.093,-140.263"/>
</g>
<!-- Node16 -->
<g id="node16" class="node"><title>Node16</title>
<g id="a_node16"><a xlink:href="../../d5/d22/_documentation_2_operator-_console_2_file_acquisition_8cpp.html" target="_top" xlink:title="Documentation/Operator\l&#45;Console/FileAcquisition.cpp">
<polygon fill="white" stroke="black" points="369.5,-73 369.5,-107 536.5,-107 536.5,-73 369.5,-73"/>
<text text-anchor="start" x="377.5" y="-93.4" font-family="Helvetica,sans-Serif" font-size="12.00">Documentation/Operator</text>
<text text-anchor="middle" x="453" y="-80.4" font-family="Helvetica,sans-Serif" font-size="12.00">&#45;Console/FileAcquisition.cpp</text>
</a>
</g>
</g>
<!-- Node15&#45;&gt;Node16 -->
<g id="edge16" class="edge"><title>Node15&#45;&gt;Node16</title>
<path fill="none" stroke="midnightblue" d="M450.514,-134.508C451.04,-125.303 451.614,-115.262 452.077,-107.147"/>
<polygon fill="midnightblue" stroke="midnightblue" points="447.004,-134.581 449.928,-144.765 453.993,-134.981 447.004,-134.581"/>
</g>
<!-- Node17&#45;&gt;Node4 -->
<g id="edge19" class="edge"><title>Node17&#45;&gt;Node4</title>
<path fill="none" stroke="midnightblue" d="M1013.91,-141.937C978.364,-131.024 934.258,-117.483 900.459,-107.106"/>
<polygon fill="midnightblue" stroke="midnightblue" points="1013.11,-145.351 1023.69,-144.941 1015.16,-138.66 1013.11,-145.351"/>
</g>
<!-- Node18 -->
<g id="node18" class="node"><title>Node18</title>
<g id="a_node18"><a xlink:href="../../dc/db7/_documentation_2_operator-_console_2_imatest_lib_acq_8cpp.html" target="_top" xlink:title="Documentation/Operator\l&#45;Console/ImatestLibAcq.cpp">
<polygon fill="white" stroke="black" points="987,-73 987,-107 1151,-107 1151,-73 987,-73"/>
<text text-anchor="start" x="995" y="-93.4" font-family="Helvetica,sans-Serif" font-size="12.00">Documentation/Operator</text>
<text text-anchor="middle" x="1069" y="-80.4" font-family="Helvetica,sans-Serif" font-size="12.00">&#45;Console/ImatestLibAcq.cpp</text>
</a>
</g>
</g>
<!-- Node17&#45;&gt;Node18 -->
<g id="edge20" class="edge"><title>Node17&#45;&gt;Node18</title>
<path fill="none" stroke="midnightblue" d="M1073.38,-134.808C1072.45,-125.521 1071.43,-115.35 1070.61,-107.147"/>
<polygon fill="midnightblue" stroke="midnightblue" points="1069.9,-135.163 1074.38,-144.765 1076.86,-134.466 1069.9,-135.163"/>
</g>
<!-- Node19&#45;&gt;Node4 -->
<g id="edge22" class="edge"><title>Node19&#45;&gt;Node4</title>
<path fill="none" stroke="midnightblue" d="M1161.22,-143.327C1089.88,-131.409 997.075,-115.905 931.049,-104.875"/>
<polygon fill="midnightblue" stroke="midnightblue" points="1160.7,-146.789 1171.14,-144.984 1161.85,-139.884 1160.7,-146.789"/>
</g>
<!-- Node20 -->
<g id="node20" class="node"><title>Node20</title>
<g id="a_node20"><a xlink:href="../../d2/d07/_documentation_2_operator-_console_2_simple_direct_show_acq_8cpp.html" target="_top" xlink:title="Documentation/Operator\l&#45;Console/SimpleDirectShowAcq.cpp">
<polygon fill="white" stroke="black" points="1169,-73 1169,-107 1377,-107 1377,-73 1169,-73"/>
<text text-anchor="start" x="1177" y="-93.4" font-family="Helvetica,sans-Serif" font-size="12.00">Documentation/Operator</text>
<text text-anchor="middle" x="1273" y="-80.4" font-family="Helvetica,sans-Serif" font-size="12.00">&#45;Console/SimpleDirectShowAcq.cpp</text>
</a>
</g>
</g>
<!-- Node19&#45;&gt;Node20 -->
<g id="edge23" class="edge"><title>Node19&#45;&gt;Node20</title>
<path fill="none" stroke="midnightblue" d="M1269.27,-134.508C1270.06,-125.303 1270.92,-115.262 1271.62,-107.147"/>
<polygon fill="midnightblue" stroke="midnightblue" points="1265.76,-134.502 1268.39,-144.765 1272.73,-135.1 1265.76,-134.502"/>
</g>
</g>
</svg>
