<?xml version="1.0" encoding="UTF-8" standalone="no"?>
<!DOCTYPE svg PUBLIC "-//W3C//DTD SVG 1.1//EN"
 "http://www.w3.org/Graphics/SVG/1.1/DTD/svg11.dtd">
<!-- Generated by graphviz version 2.34.0 (20130907.0111)
 -->
<!-- Title: FileAcquisition.cpp Pages: 1 -->
<svg width="698pt" height="320pt"
 viewBox="0.00 0.00 698.00 320.00" xmlns="http://www.w3.org/2000/svg" xmlns:xlink="http://www.w3.org/1999/xlink">
<g id="graph0" class="graph" transform="scale(1 1) rotate(0) translate(4 316)">
<title>FileAcquisition.cpp</title>
<polygon fill="white" stroke="white" points="-4,4 -4,-316 694,-316 694,4 -4,4"/>
<!-- Node1 -->
<g id="node1" class="node"><title>Node1</title>
<polygon fill="#bfbfbf" stroke="black" points="450,-290.5 450,-311.5 566,-311.5 566,-290.5 450,-290.5"/>
<text text-anchor="middle" x="508" y="-297.9" font-family="Helvetica,sans-Serif" font-size="12.00">FileAcquisition.cpp</text>
</g>
<!-- Node2 -->
<g id="node2" class="node"><title>Node2</title>
<g id="a_node2"><a xlink:href="../../db/d06/stdafx_8h.html" target="_top" xlink:title="stdafx.h">
<polygon fill="white" stroke="black" points="296,-116.5 296,-137.5 352,-137.5 352,-116.5 296,-116.5"/>
<text text-anchor="middle" x="324" y="-123.9" font-family="Helvetica,sans-Serif" font-size="12.00">stdafx.h</text>
</a>
</g>
</g>
<!-- Node1&#45;&gt;Node2 -->
<g id="edge1" class="edge"><title>Node1&#45;&gt;Node2</title>
<path fill="none" stroke="midnightblue" d="M449.772,-298.352C414.741,-294.173 372.032,-282.885 346,-254 319.594,-224.7 319.24,-175.4 321.498,-147.96"/>
<polygon fill="midnightblue" stroke="midnightblue" points="325.016,-147.966 322.558,-137.66 318.053,-147.249 325.016,-147.966"/>
</g>
<!-- Node11 -->
<g id="node11" class="node"><title>Node11</title>
<g id="a_node11"><a xlink:href="../../d6/d06/_file_acquisition_8h.html" target="_top" xlink:title="FileAcquisition.h">
<polygon fill="white" stroke="black" points="355.5,-232.5 355.5,-253.5 458.5,-253.5 458.5,-232.5 355.5,-232.5"/>
<text text-anchor="middle" x="407" y="-239.9" font-family="Helvetica,sans-Serif" font-size="12.00">FileAcquisition.h</text>
</a>
</g>
</g>
<!-- Node1&#45;&gt;Node11 -->
<g id="edge10" class="edge"><title>Node1&#45;&gt;Node11</title>
<path fill="none" stroke="midnightblue" d="M490.407,-290.246C474.621,-281.493 451.236,-268.527 433.241,-258.55"/>
<polygon fill="midnightblue" stroke="midnightblue" points="434.834,-255.431 424.391,-253.643 431.44,-261.553 434.834,-255.431"/>
</g>
<!-- Node16 -->
<g id="node16" class="node"><title>Node16</title>
<polygon fill="white" stroke="#bfbfbf" points="477,-232.5 477,-253.5 539,-253.5 539,-232.5 477,-232.5"/>
<text text-anchor="middle" x="508" y="-239.9" font-family="Helvetica,sans-Serif" font-size="12.00">iostream</text>
</g>
<!-- Node1&#45;&gt;Node16 -->
<g id="edge16" class="edge"><title>Node1&#45;&gt;Node16</title>
<path fill="none" stroke="midnightblue" d="M508,-290.246C508,-282.938 508,-272.694 508,-263.705"/>
<polygon fill="midnightblue" stroke="midnightblue" points="511.5,-263.643 508,-253.643 504.5,-263.643 511.5,-263.643"/>
</g>
<!-- Node17 -->
<g id="node17" class="node"><title>Node17</title>
<polygon fill="white" stroke="#bfbfbf" points="557,-232.5 557,-253.5 613,-253.5 613,-232.5 557,-232.5"/>
<text text-anchor="middle" x="585" y="-239.9" font-family="Helvetica,sans-Serif" font-size="12.00">fstream</text>
</g>
<!-- Node1&#45;&gt;Node17 -->
<g id="edge17" class="edge"><title>Node1&#45;&gt;Node17</title>
<path fill="none" stroke="midnightblue" d="M521.412,-290.246C533.006,-281.814 549.975,-269.473 563.468,-259.66"/>
<polygon fill="midnightblue" stroke="midnightblue" points="565.713,-262.355 571.741,-253.643 561.595,-256.694 565.713,-262.355"/>
</g>
<!-- Node18 -->
<g id="node18" class="node"><title>Node18</title>
<polygon fill="white" stroke="#bfbfbf" points="631.5,-232.5 631.5,-253.5 690.5,-253.5 690.5,-232.5 631.5,-232.5"/>
<text text-anchor="middle" x="661" y="-239.9" font-family="Helvetica,sans-Serif" font-size="12.00">sstream</text>
</g>
<!-- Node1&#45;&gt;Node18 -->
<g id="edge18" class="edge"><title>Node1&#45;&gt;Node18</title>
<path fill="none" stroke="midnightblue" d="M534.302,-290.373C559.413,-281.182 597.444,-267.262 625.287,-257.071"/>
<polygon fill="midnightblue" stroke="midnightblue" points="626.854,-260.225 635.042,-253.501 624.448,-253.652 626.854,-260.225"/>
</g>
<!-- Node3 -->
<g id="node3" class="node"><title>Node3</title>
<g id="a_node3"><a xlink:href="../../d9/da6/targetver_8h.html" target="_top" xlink:title="targetver.h">
<polygon fill="white" stroke="black" points="12.5,-58.5 12.5,-79.5 83.5,-79.5 83.5,-58.5 12.5,-58.5"/>
<text text-anchor="middle" x="48" y="-65.9" font-family="Helvetica,sans-Serif" font-size="12.00">targetver.h</text>
</a>
</g>
</g>
<!-- Node2&#45;&gt;Node3 -->
<g id="edge2" class="edge"><title>Node2&#45;&gt;Node3</title>
<path fill="none" stroke="midnightblue" d="M295.868,-120.606C254.115,-112.555 173.032,-96.749 93.9753,-80.1714"/>
<polygon fill="midnightblue" stroke="midnightblue" points="94.3522,-76.6742 83.8459,-78.0407 92.9112,-83.5243 94.3522,-76.6742"/>
</g>
<!-- Node5 -->
<g id="node5" class="node"><title>Node5</title>
<polygon fill="white" stroke="#bfbfbf" points="102,-58.5 102,-79.5 160,-79.5 160,-58.5 102,-58.5"/>
<text text-anchor="middle" x="131" y="-65.9" font-family="Helvetica,sans-Serif" font-size="12.00">afxwin.h</text>
</g>
<!-- Node2&#45;&gt;Node5 -->
<g id="edge4" class="edge"><title>Node2&#45;&gt;Node5</title>
<path fill="none" stroke="midnightblue" d="M295.936,-117.857C262.776,-108.236 207.403,-92.1688 170.065,-81.3348"/>
<polygon fill="midnightblue" stroke="midnightblue" points="170.624,-77.8529 160.045,-78.4276 168.674,-84.5756 170.624,-77.8529"/>
</g>
<!-- Node6 -->
<g id="node6" class="node"><title>Node6</title>
<polygon fill="white" stroke="#bfbfbf" points="178,-58.5 178,-79.5 234,-79.5 234,-58.5 178,-58.5"/>
<text text-anchor="middle" x="206" y="-65.9" font-family="Helvetica,sans-Serif" font-size="12.00">afxext.h</text>
</g>
<!-- Node2&#45;&gt;Node6 -->
<g id="edge5" class="edge"><title>Node2&#45;&gt;Node6</title>
<path fill="none" stroke="midnightblue" d="M303.715,-116.373C284.858,-107.424 256.554,-93.9917 235.255,-83.8835"/>
<polygon fill="midnightblue" stroke="midnightblue" points="236.555,-80.6266 226.02,-79.5011 233.554,-86.9506 236.555,-80.6266"/>
</g>
<!-- Node7 -->
<g id="node7" class="node"><title>Node7</title>
<polygon fill="white" stroke="#bfbfbf" points="252.5,-58.5 252.5,-79.5 315.5,-79.5 315.5,-58.5 252.5,-58.5"/>
<text text-anchor="middle" x="284" y="-65.9" font-family="Helvetica,sans-Serif" font-size="12.00">afxdisp.h</text>
</g>
<!-- Node2&#45;&gt;Node7 -->
<g id="edge6" class="edge"><title>Node2&#45;&gt;Node7</title>
<path fill="none" stroke="midnightblue" d="M317.033,-116.246C311.469,-108.456 303.522,-97.3308 296.817,-87.9439"/>
<polygon fill="midnightblue" stroke="midnightblue" points="299.548,-85.7457 290.888,-79.6427 293.852,-89.8144 299.548,-85.7457"/>
</g>
<!-- Node8 -->
<g id="node8" class="node"><title>Node8</title>
<polygon fill="white" stroke="#bfbfbf" points="334,-58.5 334,-79.5 396,-79.5 396,-58.5 334,-58.5"/>
<text text-anchor="middle" x="365" y="-65.9" font-family="Helvetica,sans-Serif" font-size="12.00">afxdtctl.h</text>
</g>
<!-- Node2&#45;&gt;Node8 -->
<g id="edge7" class="edge"><title>Node2&#45;&gt;Node8</title>
<path fill="none" stroke="midnightblue" d="M331.142,-116.246C336.844,-108.456 344.99,-97.3308 351.862,-87.9439"/>
<polygon fill="midnightblue" stroke="midnightblue" points="354.857,-89.7789 357.94,-79.6427 349.209,-85.6437 354.857,-89.7789"/>
</g>
<!-- Node9 -->
<g id="node9" class="node"><title>Node9</title>
<polygon fill="white" stroke="#bfbfbf" points="414,-58.5 414,-79.5 476,-79.5 476,-58.5 414,-58.5"/>
<text text-anchor="middle" x="445" y="-65.9" font-family="Helvetica,sans-Serif" font-size="12.00">afxcmn.h</text>
</g>
<!-- Node2&#45;&gt;Node9 -->
<g id="edge8" class="edge"><title>Node2&#45;&gt;Node9</title>
<path fill="none" stroke="midnightblue" d="M344.801,-116.373C364.224,-107.384 393.422,-93.8706 415.296,-83.7471"/>
<polygon fill="midnightblue" stroke="midnightblue" points="416.866,-86.8776 424.471,-79.5011 413.926,-80.5249 416.866,-86.8776"/>
</g>
<!-- Node10 -->
<g id="node10" class="node"><title>Node10</title>
<polygon fill="white" stroke="#bfbfbf" points="494,-58.5 494,-79.5 592,-79.5 592,-58.5 494,-58.5"/>
<text text-anchor="middle" x="543" y="-65.9" font-family="Helvetica,sans-Serif" font-size="12.00">afxcontrolbars.h</text>
</g>
<!-- Node2&#45;&gt;Node10 -->
<g id="edge9" class="edge"><title>Node2&#45;&gt;Node10</title>
<path fill="none" stroke="midnightblue" d="M352.269,-118.309C355.216,-117.522 358.167,-116.741 361,-116 406.249,-104.168 457.96,-91.146 494.668,-81.9865"/>
<polygon fill="midnightblue" stroke="midnightblue" points="495.75,-85.3242 504.606,-79.5097 494.057,-78.5319 495.75,-85.3242"/>
</g>
<!-- Node4 -->
<g id="node4" class="node"><title>Node4</title>
<polygon fill="white" stroke="#bfbfbf" points="0,-0.5 0,-21.5 96,-21.5 96,-0.5 0,-0.5"/>
<text text-anchor="middle" x="48" y="-7.9" font-family="Helvetica,sans-Serif" font-size="12.00">SDKDDKVer.h</text>
</g>
<!-- Node3&#45;&gt;Node4 -->
<g id="edge3" class="edge"><title>Node3&#45;&gt;Node4</title>
<path fill="none" stroke="midnightblue" d="M48,-58.2455C48,-50.9382 48,-40.6944 48,-31.7046"/>
<polygon fill="midnightblue" stroke="midnightblue" points="51.5001,-31.6426 48,-21.6427 44.5001,-31.6427 51.5001,-31.6426"/>
</g>
<!-- Node12 -->
<g id="node12" class="node"><title>Node12</title>
<g id="a_node12"><a xlink:href="../../d3/d62/_image_acquisition_8h.html" target="_top" xlink:title="ImageAcquisition.h">
<polygon fill="white" stroke="black" points="352,-174.5 352,-195.5 468,-195.5 468,-174.5 352,-174.5"/>
<text text-anchor="middle" x="410" y="-181.9" font-family="Helvetica,sans-Serif" font-size="12.00">ImageAcquisition.h</text>
</a>
</g>
</g>
<!-- Node11&#45;&gt;Node12 -->
<g id="edge11" class="edge"><title>Node11&#45;&gt;Node12</title>
<path fill="none" stroke="midnightblue" d="M407.523,-232.246C407.914,-224.938 408.463,-214.694 408.944,-205.705"/>
<polygon fill="midnightblue" stroke="midnightblue" points="412.443,-205.816 409.483,-195.643 405.453,-205.441 412.443,-205.816"/>
</g>
<!-- Node12&#45;&gt;Node2 -->
<g id="edge12" class="edge"><title>Node12&#45;&gt;Node2</title>
<path fill="none" stroke="midnightblue" d="M395.02,-174.246C381.825,-165.653 362.395,-153.001 347.192,-143.102"/>
<polygon fill="midnightblue" stroke="midnightblue" points="349.098,-140.166 338.808,-137.643 345.279,-146.032 349.098,-140.166"/>
</g>
<!-- Node13 -->
<g id="node13" class="node"><title>Node13</title>
<g id="a_node13"><a xlink:href="../../d8/d07/_critical_buf_8h.html" target="_top" xlink:title="CriticalBuf.h">
<polygon fill="white" stroke="black" points="370,-116.5 370,-137.5 450,-137.5 450,-116.5 370,-116.5"/>
<text text-anchor="middle" x="410" y="-123.9" font-family="Helvetica,sans-Serif" font-size="12.00">CriticalBuf.h</text>
</a>
</g>
</g>
<!-- Node12&#45;&gt;Node13 -->
<g id="edge13" class="edge"><title>Node12&#45;&gt;Node13</title>
<path fill="none" stroke="midnightblue" d="M410,-174.246C410,-166.938 410,-156.694 410,-147.705"/>
<polygon fill="midnightblue" stroke="midnightblue" points="413.5,-147.643 410,-137.643 406.5,-147.643 413.5,-147.643"/>
</g>
<!-- Node15 -->
<g id="node15" class="node"><title>Node15</title>
<polygon fill="white" stroke="#bfbfbf" points="468.5,-116.5 468.5,-137.5 513.5,-137.5 513.5,-116.5 468.5,-116.5"/>
<text text-anchor="middle" x="491" y="-123.9" font-family="Helvetica,sans-Serif" font-size="12.00">string</text>
</g>
<!-- Node12&#45;&gt;Node15 -->
<g id="edge15" class="edge"><title>Node12&#45;&gt;Node15</title>
<path fill="none" stroke="midnightblue" d="M424.109,-174.246C436.421,-165.734 454.496,-153.237 468.754,-143.38"/>
<polygon fill="midnightblue" stroke="midnightblue" points="470.817,-146.208 477.053,-137.643 466.837,-140.451 470.817,-146.208"/>
</g>
<!-- Node14 -->
<g id="node14" class="node"><title>Node14</title>
<polygon fill="white" stroke="#bfbfbf" points="610.5,-58.5 610.5,-79.5 663.5,-79.5 663.5,-58.5 610.5,-58.5"/>
<text text-anchor="middle" x="637" y="-65.9" font-family="Helvetica,sans-Serif" font-size="12.00">afxmt.h</text>
</g>
<!-- Node13&#45;&gt;Node14 -->
<g id="edge14" class="edge"><title>Node13&#45;&gt;Node14</title>
<path fill="none" stroke="midnightblue" d="M450.344,-116.711C486.952,-108.187 542.655,-94.9809 600.275,-80.1242"/>
<polygon fill="midnightblue" stroke="midnightblue" points="601.488,-83.4256 610.291,-77.5298 599.733,-76.6492 601.488,-83.4256"/>
</g>
</g>
</svg>
