<?xml version="1.0" encoding="UTF-8" standalone="no"?>
<!DOCTYPE svg PUBLIC "-//W3C//DTD SVG 1.1//EN"
 "http://www.w3.org/Graphics/SVG/1.1/DTD/svg11.dtd">
<!-- Generated by graphviz version 2.34.0 (20130907.0111)
 -->
<!-- Title: CPasswordDialog::getUnlockStatus Pages: 1 -->
<svg width="526pt" height="42pt"
 viewBox="0.00 0.00 526.00 42.00" xmlns="http://www.w3.org/2000/svg" xmlns:xlink="http://www.w3.org/1999/xlink">
<g id="graph0" class="graph" transform="scale(1 1) rotate(0) translate(4 38)">
<title>CPasswordDialog::getUnlockStatus</title>
<polygon fill="white" stroke="white" points="-4,4 -4,-38 522,-38 522,4 -4,4"/>
<!-- Node1 -->
<g id="node1" class="node"><title>Node1</title>
<polygon fill="#bfbfbf" stroke="black" points="0,-0 0,-34 170,-34 170,-0 0,-0"/>
<text text-anchor="start" x="8" y="-20.4" font-family="Helvetica,sans-Serif" font-size="12.00">CPasswordDialog::getUnlock</text>
<text text-anchor="middle" x="85" y="-7.4" font-family="Helvetica,sans-Serif" font-size="12.00">Status</text>
</g>
<!-- Node2 -->
<g id="node2" class="node"><title>Node2</title>
<g id="a_node2"><a xlink:href="../../d3/d9f/class_c_operator_console_app.html#a04972a8a1e21b10b9bf422396ff97644" target="_top" xlink:title="Called after MSG_PASS_FAIL is received. ">
<polygon fill="white" stroke="black" points="206.5,-0 206.5,-34 343.5,-34 343.5,-0 206.5,-0"/>
<text text-anchor="start" x="214.5" y="-20.4" font-family="Helvetica,sans-Serif" font-size="12.00">COperatorConsoleApp</text>
<text text-anchor="middle" x="275" y="-7.4" font-family="Helvetica,sans-Serif" font-size="12.00">::OnPassFail</text>
</a>
</g>
</g>
<!-- Node1&#45;&gt;Node2 -->
<g id="edge1" class="edge"><title>Node1&#45;&gt;Node2</title>
<path fill="none" stroke="midnightblue" d="M180.365,-17C189.122,-17 197.874,-17 206.319,-17"/>
<polygon fill="midnightblue" stroke="midnightblue" points="180.102,-13.5001 170.102,-17 180.102,-20.5001 180.102,-13.5001"/>
</g>
<!-- Node3 -->
<g id="node3" class="node"><title>Node3</title>
<g id="a_node3"><a xlink:href="../../d3/d9f/class_c_operator_console_app.html#a7041d197c4e6549f2cb7219981b4eec1" target="_top" xlink:title="Intercepts messages of interest before Windows or MFC. ">
<polygon fill="white" stroke="black" points="380,-0 380,-34 518,-34 518,-0 380,-0"/>
<text text-anchor="start" x="388" y="-20.4" font-family="Helvetica,sans-Serif" font-size="12.00">COperatorConsoleApp</text>
<text text-anchor="middle" x="449" y="-7.4" font-family="Helvetica,sans-Serif" font-size="12.00">::PreTranslateMessage</text>
</a>
</g>
</g>
<!-- Node2&#45;&gt;Node3 -->
<g id="edge2" class="edge"><title>Node2&#45;&gt;Node3</title>
<path fill="none" stroke="midnightblue" d="M354.054,-17C362.696,-17 371.446,-17 379.952,-17"/>
<polygon fill="midnightblue" stroke="midnightblue" points="353.979,-13.5001 343.979,-17 353.979,-20.5001 353.979,-13.5001"/>
</g>
</g>
</svg>
