<?xml version="1.0" encoding="UTF-8" standalone="no"?>
<!DOCTYPE svg PUBLIC "-//W3C//DTD SVG 1.1//EN"
 "http://www.w3.org/Graphics/SVG/1.1/DTD/svg11.dtd">
<!-- Generated by graphviz version 2.34.0 (20130907.0111)
 -->
<!-- Title: CPasswordDialog::getResponse Pages: 1 -->
<svg width="544pt" height="42pt"
 viewBox="0.00 0.00 544.00 42.00" xmlns="http://www.w3.org/2000/svg" xmlns:xlink="http://www.w3.org/1999/xlink">
<g id="graph0" class="graph" transform="scale(1 1) rotate(0) translate(4 38)">
<title>CPasswordDialog::getResponse</title>
<polygon fill="white" stroke="white" points="-4,4 -4,-38 540,-38 540,4 -4,4"/>
<!-- Node1 -->
<g id="node1" class="node"><title>Node1</title>
<polygon fill="#bfbfbf" stroke="black" points="0,-6.5 0,-27.5 188,-27.5 188,-6.5 0,-6.5"/>
<text text-anchor="middle" x="94" y="-13.9" font-family="Helvetica,sans-Serif" font-size="12.00">CPasswordDialog::getResponse</text>
</g>
<!-- Node2 -->
<g id="node2" class="node"><title>Node2</title>
<g id="a_node2"><a xlink:href="../../d3/d9f/class_c_operator_console_app.html#a04972a8a1e21b10b9bf422396ff97644" target="_top" xlink:title="Called after MSG_PASS_FAIL is received. ">
<polygon fill="white" stroke="black" points="224.5,-0 224.5,-34 361.5,-34 361.5,-0 224.5,-0"/>
<text text-anchor="start" x="232.5" y="-20.4" font-family="Helvetica,sans-Serif" font-size="12.00">COperatorConsoleApp</text>
<text text-anchor="middle" x="293" y="-7.4" font-family="Helvetica,sans-Serif" font-size="12.00">::OnPassFail</text>
</a>
</g>
</g>
<!-- Node1&#45;&gt;Node2 -->
<g id="edge1" class="edge"><title>Node1&#45;&gt;Node2</title>
<path fill="none" stroke="midnightblue" d="M198.081,-17C206.988,-17 215.845,-17 224.359,-17"/>
<polygon fill="midnightblue" stroke="midnightblue" points="198.02,-13.5001 188.02,-17 198.02,-20.5001 198.02,-13.5001"/>
</g>
<!-- Node3 -->
<g id="node3" class="node"><title>Node3</title>
<g id="a_node3"><a xlink:href="../../d3/d9f/class_c_operator_console_app.html#a7041d197c4e6549f2cb7219981b4eec1" target="_top" xlink:title="Intercepts messages of interest before Windows or MFC. ">
<polygon fill="white" stroke="black" points="398,-0 398,-34 536,-34 536,-0 398,-0"/>
<text text-anchor="start" x="406" y="-20.4" font-family="Helvetica,sans-Serif" font-size="12.00">COperatorConsoleApp</text>
<text text-anchor="middle" x="467" y="-7.4" font-family="Helvetica,sans-Serif" font-size="12.00">::PreTranslateMessage</text>
</a>
</g>
</g>
<!-- Node2&#45;&gt;Node3 -->
<g id="edge2" class="edge"><title>Node2&#45;&gt;Node3</title>
<path fill="none" stroke="midnightblue" d="M372.054,-17C380.696,-17 389.446,-17 397.952,-17"/>
<polygon fill="midnightblue" stroke="midnightblue" points="371.979,-13.5001 361.979,-17 371.979,-20.5001 371.979,-13.5001"/>
</g>
</g>
</svg>
