<?xml version="1.0" encoding="UTF-8" standalone="no"?>
<!DOCTYPE svg PUBLIC "-//W3C//DTD SVG 1.1//EN"
 "http://www.w3.org/Graphics/SVG/1.1/DTD/svg11.dtd">
<!-- Generated by graphviz version 2.34.0 (20130907.0111)
 -->
<!-- Title: Documentation/Operator&#45;Console/FileAcquisition.cpp Pages: 1 -->
<svg width="698pt" height="334pt"
 viewBox="0.00 0.00 698.00 334.00" xmlns="http://www.w3.org/2000/svg" xmlns:xlink="http://www.w3.org/1999/xlink">
<g id="graph0" class="graph" transform="scale(1 1) rotate(0) translate(4 330)">
<title>Documentation/Operator&#45;Console/FileAcquisition.cpp</title>
<polygon fill="white" stroke="white" points="-4,4 -4,-330 694,-330 694,4 -4,4"/>
<!-- Node1 -->
<g id="node1" class="node"><title>Node1</title>
<polygon fill="#bfbfbf" stroke="black" points="424.5,-291 424.5,-325 591.5,-325 591.5,-291 424.5,-291"/>
<text text-anchor="start" x="432.5" y="-311.4" font-family="Helvetica,sans-Serif" font-size="12.00">Documentation/Operator</text>
<text text-anchor="middle" x="508" y="-298.4" font-family="Helvetica,sans-Serif" font-size="12.00">&#45;Console/FileAcquisition.cpp</text>
</g>
<!-- Node2 -->
<g id="node2" class="node"><title>Node2</title>
<g id="a_node2"><a xlink:href="../../d9/d2e/_documentation_2_operator-_console_2stdafx_8h.html" target="_top" xlink:title="stdafx.h">
<polygon fill="white" stroke="black" points="296,-116.5 296,-137.5 352,-137.5 352,-116.5 296,-116.5"/>
<text text-anchor="middle" x="324" y="-123.9" font-family="Helvetica,sans-Serif" font-size="12.00">stdafx.h</text>
</a>
</g>
</g>
<!-- Node1&#45;&gt;Node2 -->
<g id="edge1" class="edge"><title>Node1&#45;&gt;Node2</title>
<path fill="none" stroke="midnightblue" d="M424.112,-297.307C395.492,-289.865 365.76,-276.817 346,-254 320.178,-224.184 319.598,-175.084 321.663,-147.815"/>
<polygon fill="midnightblue" stroke="midnightblue" points="325.173,-147.872 322.644,-137.584 318.205,-147.204 325.173,-147.872"/>
</g>
<!-- Node11 -->
<g id="node11" class="node"><title>Node11</title>
<g id="a_node11"><a xlink:href="../../d8/db2/_documentation_2_operator-_console_2_file_acquisition_8h.html" target="_top" xlink:title="FileAcquisition.h">
<polygon fill="white" stroke="black" points="355.5,-232.5 355.5,-253.5 458.5,-253.5 458.5,-232.5 355.5,-232.5"/>
<text text-anchor="middle" x="407" y="-239.9" font-family="Helvetica,sans-Serif" font-size="12.00">FileAcquisition.h</text>
</a>
</g>
</g>
<!-- Node1&#45;&gt;Node11 -->
<g id="edge10" class="edge"><title>Node1&#45;&gt;Node11</title>
<path fill="none" stroke="midnightblue" d="M482.252,-290.939C466.423,-281.066 446.283,-268.503 430.822,-258.859"/>
<polygon fill="midnightblue" stroke="midnightblue" points="432.665,-255.884 422.328,-253.561 428.96,-261.823 432.665,-255.884"/>
</g>
<!-- Node15 -->
<g id="node15" class="node"><title>Node15</title>
<polygon fill="white" stroke="#bfbfbf" points="477,-232.5 477,-253.5 539,-253.5 539,-232.5 477,-232.5"/>
<text text-anchor="middle" x="508" y="-239.9" font-family="Helvetica,sans-Serif" font-size="12.00">iostream</text>
</g>
<!-- Node1&#45;&gt;Node15 -->
<g id="edge15" class="edge"><title>Node1&#45;&gt;Node15</title>
<path fill="none" stroke="midnightblue" d="M508,-290.776C508,-282.47 508,-272.295 508,-263.559"/>
<polygon fill="midnightblue" stroke="midnightblue" points="511.5,-263.511 508,-253.511 504.5,-263.511 511.5,-263.511"/>
</g>
<!-- Node16 -->
<g id="node16" class="node"><title>Node16</title>
<polygon fill="white" stroke="#bfbfbf" points="557,-232.5 557,-253.5 613,-253.5 613,-232.5 557,-232.5"/>
<text text-anchor="middle" x="585" y="-239.9" font-family="Helvetica,sans-Serif" font-size="12.00">fstream</text>
</g>
<!-- Node1&#45;&gt;Node16 -->
<g id="edge16" class="edge"><title>Node1&#45;&gt;Node16</title>
<path fill="none" stroke="midnightblue" d="M527.829,-290.776C539.447,-281.271 554.057,-269.317 565.6,-259.873"/>
<polygon fill="midnightblue" stroke="midnightblue" points="567.853,-262.552 573.376,-253.511 563.42,-257.134 567.853,-262.552"/>
</g>
<!-- Node17 -->
<g id="node17" class="node"><title>Node17</title>
<polygon fill="white" stroke="#bfbfbf" points="631.5,-232.5 631.5,-253.5 690.5,-253.5 690.5,-232.5 631.5,-232.5"/>
<text text-anchor="middle" x="661" y="-239.9" font-family="Helvetica,sans-Serif" font-size="12.00">sstream</text>
</g>
<!-- Node1&#45;&gt;Node17 -->
<g id="edge17" class="edge"><title>Node1&#45;&gt;Node17</title>
<path fill="none" stroke="midnightblue" d="M547.004,-290.939C572.216,-280.558 604.646,-267.204 628.467,-257.396"/>
<polygon fill="midnightblue" stroke="midnightblue" points="629.867,-260.605 637.781,-253.561 627.201,-254.132 629.867,-260.605"/>
</g>
<!-- Node3 -->
<g id="node3" class="node"><title>Node3</title>
<g id="a_node3"><a xlink:href="../../da/d3f/_documentation_2_operator-_console_2targetver_8h.html" target="_top" xlink:title="targetver.h">
<polygon fill="white" stroke="black" points="12.5,-58.5 12.5,-79.5 83.5,-79.5 83.5,-58.5 12.5,-58.5"/>
<text text-anchor="middle" x="48" y="-65.9" font-family="Helvetica,sans-Serif" font-size="12.00">targetver.h</text>
</a>
</g>
</g>
<!-- Node2&#45;&gt;Node3 -->
<g id="edge2" class="edge"><title>Node2&#45;&gt;Node3</title>
<path fill="none" stroke="midnightblue" d="M295.868,-120.606C254.115,-112.555 173.032,-96.749 93.9753,-80.1714"/>
<polygon fill="midnightblue" stroke="midnightblue" points="94.3522,-76.6742 83.8459,-78.0407 92.9112,-83.5243 94.3522,-76.6742"/>
</g>
<!-- Node5 -->
<g id="node5" class="node"><title>Node5</title>
<polygon fill="white" stroke="#bfbfbf" points="102,-58.5 102,-79.5 160,-79.5 160,-58.5 102,-58.5"/>
<text text-anchor="middle" x="131" y="-65.9" font-family="Helvetica,sans-Serif" font-size="12.00">afxwin.h</text>
</g>
<!-- Node2&#45;&gt;Node5 -->
<g id="edge4" class="edge"><title>Node2&#45;&gt;Node5</title>
<path fill="none" stroke="midnightblue" d="M295.936,-117.857C262.776,-108.236 207.403,-92.1688 170.065,-81.3348"/>
<polygon fill="midnightblue" stroke="midnightblue" points="170.624,-77.8529 160.045,-78.4276 168.674,-84.5756 170.624,-77.8529"/>
</g>
<!-- Node6 -->
<g id="node6" class="node"><title>Node6</title>
<polygon fill="white" stroke="#bfbfbf" points="178,-58.5 178,-79.5 234,-79.5 234,-58.5 178,-58.5"/>
<text text-anchor="middle" x="206" y="-65.9" font-family="Helvetica,sans-Serif" font-size="12.00">afxext.h</text>
</g>
<!-- Node2&#45;&gt;Node6 -->
<g id="edge5" class="edge"><title>Node2&#45;&gt;Node6</title>
<path fill="none" stroke="midnightblue" d="M303.715,-116.373C284.858,-107.424 256.554,-93.9917 235.255,-83.8835"/>
<polygon fill="midnightblue" stroke="midnightblue" points="236.555,-80.6266 226.02,-79.5011 233.554,-86.9506 236.555,-80.6266"/>
</g>
<!-- Node7 -->
<g id="node7" class="node"><title>Node7</title>
<polygon fill="white" stroke="#bfbfbf" points="252.5,-58.5 252.5,-79.5 315.5,-79.5 315.5,-58.5 252.5,-58.5"/>
<text text-anchor="middle" x="284" y="-65.9" font-family="Helvetica,sans-Serif" font-size="12.00">afxdisp.h</text>
</g>
<!-- Node2&#45;&gt;Node7 -->
<g id="edge6" class="edge"><title>Node2&#45;&gt;Node7</title>
<path fill="none" stroke="midnightblue" d="M317.033,-116.246C311.469,-108.456 303.522,-97.3308 296.817,-87.9439"/>
<polygon fill="midnightblue" stroke="midnightblue" points="299.548,-85.7457 290.888,-79.6427 293.852,-89.8144 299.548,-85.7457"/>
</g>
<!-- Node8 -->
<g id="node8" class="node"><title>Node8</title>
<polygon fill="white" stroke="#bfbfbf" points="334,-58.5 334,-79.5 396,-79.5 396,-58.5 334,-58.5"/>
<text text-anchor="middle" x="365" y="-65.9" font-family="Helvetica,sans-Serif" font-size="12.00">afxdtctl.h</text>
</g>
<!-- Node2&#45;&gt;Node8 -->
<g id="edge7" class="edge"><title>Node2&#45;&gt;Node8</title>
<path fill="none" stroke="midnightblue" d="M331.142,-116.246C336.844,-108.456 344.99,-97.3308 351.862,-87.9439"/>
<polygon fill="midnightblue" stroke="midnightblue" points="354.857,-89.7789 357.94,-79.6427 349.209,-85.6437 354.857,-89.7789"/>
</g>
<!-- Node9 -->
<g id="node9" class="node"><title>Node9</title>
<polygon fill="white" stroke="#bfbfbf" points="414,-58.5 414,-79.5 476,-79.5 476,-58.5 414,-58.5"/>
<text text-anchor="middle" x="445" y="-65.9" font-family="Helvetica,sans-Serif" font-size="12.00">afxcmn.h</text>
</g>
<!-- Node2&#45;&gt;Node9 -->
<g id="edge8" class="edge"><title>Node2&#45;&gt;Node9</title>
<path fill="none" stroke="midnightblue" d="M344.801,-116.373C364.224,-107.384 393.422,-93.8706 415.296,-83.7471"/>
<polygon fill="midnightblue" stroke="midnightblue" points="416.866,-86.8776 424.471,-79.5011 413.926,-80.5249 416.866,-86.8776"/>
</g>
<!-- Node10 -->
<g id="node10" class="node"><title>Node10</title>
<polygon fill="white" stroke="#bfbfbf" points="494,-58.5 494,-79.5 592,-79.5 592,-58.5 494,-58.5"/>
<text text-anchor="middle" x="543" y="-65.9" font-family="Helvetica,sans-Serif" font-size="12.00">afxcontrolbars.h</text>
</g>
<!-- Node2&#45;&gt;Node10 -->
<g id="edge9" class="edge"><title>Node2&#45;&gt;Node10</title>
<path fill="none" stroke="midnightblue" d="M352.182,-118.794C388.515,-109.503 452.211,-93.2155 495.945,-82.0324"/>
<polygon fill="midnightblue" stroke="midnightblue" points="496.958,-85.3861 505.779,-79.5177 495.224,-78.6043 496.958,-85.3861"/>
</g>
<!-- Node4 -->
<g id="node4" class="node"><title>Node4</title>
<polygon fill="white" stroke="#bfbfbf" points="0,-0.5 0,-21.5 96,-21.5 96,-0.5 0,-0.5"/>
<text text-anchor="middle" x="48" y="-7.9" font-family="Helvetica,sans-Serif" font-size="12.00">SDKDDKVer.h</text>
</g>
<!-- Node3&#45;&gt;Node4 -->
<g id="edge3" class="edge"><title>Node3&#45;&gt;Node4</title>
<path fill="none" stroke="midnightblue" d="M48,-58.2455C48,-50.9382 48,-40.6944 48,-31.7046"/>
<polygon fill="midnightblue" stroke="midnightblue" points="51.5001,-31.6426 48,-21.6427 44.5001,-31.6427 51.5001,-31.6426"/>
</g>
<!-- Node12 -->
<g id="node12" class="node"><title>Node12</title>
<g id="a_node12"><a xlink:href="../../d3/db6/_documentation_2_operator-_console_2_image_acquisition_8h.html" target="_top" xlink:title="ImageAcquisition.h">
<polygon fill="white" stroke="black" points="352,-174.5 352,-195.5 468,-195.5 468,-174.5 352,-174.5"/>
<text text-anchor="middle" x="410" y="-181.9" font-family="Helvetica,sans-Serif" font-size="12.00">ImageAcquisition.h</text>
</a>
</g>
</g>
<!-- Node11&#45;&gt;Node12 -->
<g id="edge11" class="edge"><title>Node11&#45;&gt;Node12</title>
<path fill="none" stroke="midnightblue" d="M407.523,-232.246C407.914,-224.938 408.463,-214.694 408.944,-205.705"/>
<polygon fill="midnightblue" stroke="midnightblue" points="412.443,-205.816 409.483,-195.643 405.453,-205.441 412.443,-205.816"/>
</g>
<!-- Node12&#45;&gt;Node2 -->
<g id="edge12" class="edge"><title>Node12&#45;&gt;Node2</title>
<path fill="none" stroke="midnightblue" d="M395.02,-174.246C381.825,-165.653 362.395,-153.001 347.192,-143.102"/>
<polygon fill="midnightblue" stroke="midnightblue" points="349.098,-140.166 338.808,-137.643 345.279,-146.032 349.098,-140.166"/>
</g>
<!-- Node13 -->
<g id="node13" class="node"><title>Node13</title>
<g id="a_node13"><a xlink:href="../../dd/df3/_documentation_2_operator-_console_2_critical_buf_8h.html" target="_top" xlink:title="CriticalBuf.h">
<polygon fill="white" stroke="black" points="503,-116.5 503,-137.5 583,-137.5 583,-116.5 503,-116.5"/>
<text text-anchor="middle" x="543" y="-123.9" font-family="Helvetica,sans-Serif" font-size="12.00">CriticalBuf.h</text>
</a>
</g>
</g>
<!-- Node12&#45;&gt;Node13 -->
<g id="edge13" class="edge"><title>Node12&#45;&gt;Node13</title>
<path fill="none" stroke="midnightblue" d="M432.864,-174.373C454.405,-165.303 486.884,-151.628 510.996,-141.476"/>
<polygon fill="midnightblue" stroke="midnightblue" points="512.577,-144.607 520.435,-137.501 509.86,-138.156 512.577,-144.607"/>
</g>
<!-- Node14 -->
<g id="node14" class="node"><title>Node14</title>
<polygon fill="white" stroke="#bfbfbf" points="610.5,-58.5 610.5,-79.5 663.5,-79.5 663.5,-58.5 610.5,-58.5"/>
<text text-anchor="middle" x="637" y="-65.9" font-family="Helvetica,sans-Serif" font-size="12.00">afxmt.h</text>
</g>
<!-- Node13&#45;&gt;Node14 -->
<g id="edge14" class="edge"><title>Node13&#45;&gt;Node14</title>
<path fill="none" stroke="midnightblue" d="M559.374,-116.246C573.931,-107.573 595.431,-94.7645 612.115,-84.825"/>
<polygon fill="midnightblue" stroke="midnightblue" points="614.014,-87.7676 620.814,-79.6427 610.432,-81.7539 614.014,-87.7676"/>
</g>
</g>
</svg>
