<?xml version="1.0" encoding="UTF-8" standalone="no"?>
<!DOCTYPE svg PUBLIC "-//W3C//DTD SVG 1.1//EN"
 "http://www.w3.org/Graphics/SVG/1.1/DTD/svg11.dtd">
<!-- Generated by graphviz version 2.34.0 (20130907.0111)
 -->
<!-- Title: Documentation/Operator&#45;Console/Timer.cpp Pages: 1 -->
<svg width="785pt" height="218pt"
 viewBox="0.00 0.00 785.00 218.00" xmlns="http://www.w3.org/2000/svg" xmlns:xlink="http://www.w3.org/1999/xlink">
<g id="graph0" class="graph" transform="scale(1 1) rotate(0) translate(4 214)">
<title>Documentation/Operator&#45;Console/Timer.cpp</title>
<polygon fill="white" stroke="white" points="-4,4 -4,-214 781,-214 781,4 -4,4"/>
<!-- Node1 -->
<g id="node1" class="node"><title>Node1</title>
<polygon fill="#bfbfbf" stroke="black" points="432.5,-175 432.5,-209 577.5,-209 577.5,-175 432.5,-175"/>
<text text-anchor="start" x="440.5" y="-195.4" font-family="Helvetica,sans-Serif" font-size="12.00">Documentation/Operator</text>
<text text-anchor="middle" x="505" y="-182.4" font-family="Helvetica,sans-Serif" font-size="12.00">&#45;Console/Timer.cpp</text>
</g>
<!-- Node2 -->
<g id="node2" class="node"><title>Node2</title>
<g id="a_node2"><a xlink:href="../../d9/d2e/_documentation_2_operator-_console_2stdafx_8h.html" target="_top" xlink:title="stdafx.h">
<polygon fill="white" stroke="black" points="296,-116.5 296,-137.5 352,-137.5 352,-116.5 296,-116.5"/>
<text text-anchor="middle" x="324" y="-123.9" font-family="Helvetica,sans-Serif" font-size="12.00">stdafx.h</text>
</a>
</g>
</g>
<!-- Node1&#45;&gt;Node2 -->
<g id="edge1" class="edge"><title>Node1&#45;&gt;Node2</title>
<path fill="none" stroke="midnightblue" d="M458.858,-174.939C428.502,-164.374 389.3,-150.729 360.994,-140.876"/>
<polygon fill="midnightblue" stroke="midnightblue" points="362.063,-137.543 351.468,-137.561 359.762,-144.154 362.063,-137.543"/>
</g>
<!-- Node11 -->
<g id="node11" class="node"><title>Node11</title>
<g id="a_node11"><a xlink:href="../../db/dc4/_documentation_2_operator-_console_2_timer_8h.html" target="_top" xlink:title="Timer.h">
<polygon fill="white" stroke="black" points="619,-116.5 619,-137.5 675,-137.5 675,-116.5 619,-116.5"/>
<text text-anchor="middle" x="647" y="-123.9" font-family="Helvetica,sans-Serif" font-size="12.00">Timer.h</text>
</a>
</g>
</g>
<!-- Node1&#45;&gt;Node11 -->
<g id="edge10" class="edge"><title>Node1&#45;&gt;Node11</title>
<path fill="none" stroke="midnightblue" d="M541.2,-174.939C564.391,-164.65 594.163,-151.442 616.214,-141.658"/>
<polygon fill="midnightblue" stroke="midnightblue" points="617.729,-144.816 625.45,-137.561 614.89,-138.417 617.729,-144.816"/>
</g>
<!-- Node3 -->
<g id="node3" class="node"><title>Node3</title>
<g id="a_node3"><a xlink:href="../../da/d3f/_documentation_2_operator-_console_2targetver_8h.html" target="_top" xlink:title="targetver.h">
<polygon fill="white" stroke="black" points="12.5,-58.5 12.5,-79.5 83.5,-79.5 83.5,-58.5 12.5,-58.5"/>
<text text-anchor="middle" x="48" y="-65.9" font-family="Helvetica,sans-Serif" font-size="12.00">targetver.h</text>
</a>
</g>
</g>
<!-- Node2&#45;&gt;Node3 -->
<g id="edge2" class="edge"><title>Node2&#45;&gt;Node3</title>
<path fill="none" stroke="midnightblue" d="M295.868,-120.606C254.115,-112.555 173.032,-96.749 93.9753,-80.1714"/>
<polygon fill="midnightblue" stroke="midnightblue" points="94.3522,-76.6742 83.8459,-78.0407 92.9112,-83.5243 94.3522,-76.6742"/>
</g>
<!-- Node5 -->
<g id="node5" class="node"><title>Node5</title>
<polygon fill="white" stroke="#bfbfbf" points="102,-58.5 102,-79.5 160,-79.5 160,-58.5 102,-58.5"/>
<text text-anchor="middle" x="131" y="-65.9" font-family="Helvetica,sans-Serif" font-size="12.00">afxwin.h</text>
</g>
<!-- Node2&#45;&gt;Node5 -->
<g id="edge4" class="edge"><title>Node2&#45;&gt;Node5</title>
<path fill="none" stroke="midnightblue" d="M295.936,-117.857C262.776,-108.236 207.403,-92.1688 170.065,-81.3348"/>
<polygon fill="midnightblue" stroke="midnightblue" points="170.624,-77.8529 160.045,-78.4276 168.674,-84.5756 170.624,-77.8529"/>
</g>
<!-- Node6 -->
<g id="node6" class="node"><title>Node6</title>
<polygon fill="white" stroke="#bfbfbf" points="178,-58.5 178,-79.5 234,-79.5 234,-58.5 178,-58.5"/>
<text text-anchor="middle" x="206" y="-65.9" font-family="Helvetica,sans-Serif" font-size="12.00">afxext.h</text>
</g>
<!-- Node2&#45;&gt;Node6 -->
<g id="edge5" class="edge"><title>Node2&#45;&gt;Node6</title>
<path fill="none" stroke="midnightblue" d="M303.715,-116.373C284.858,-107.424 256.554,-93.9917 235.255,-83.8835"/>
<polygon fill="midnightblue" stroke="midnightblue" points="236.555,-80.6266 226.02,-79.5011 233.554,-86.9506 236.555,-80.6266"/>
</g>
<!-- Node7 -->
<g id="node7" class="node"><title>Node7</title>
<polygon fill="white" stroke="#bfbfbf" points="252.5,-58.5 252.5,-79.5 315.5,-79.5 315.5,-58.5 252.5,-58.5"/>
<text text-anchor="middle" x="284" y="-65.9" font-family="Helvetica,sans-Serif" font-size="12.00">afxdisp.h</text>
</g>
<!-- Node2&#45;&gt;Node7 -->
<g id="edge6" class="edge"><title>Node2&#45;&gt;Node7</title>
<path fill="none" stroke="midnightblue" d="M317.033,-116.246C311.469,-108.456 303.522,-97.3308 296.817,-87.9439"/>
<polygon fill="midnightblue" stroke="midnightblue" points="299.548,-85.7457 290.888,-79.6427 293.852,-89.8144 299.548,-85.7457"/>
</g>
<!-- Node8 -->
<g id="node8" class="node"><title>Node8</title>
<polygon fill="white" stroke="#bfbfbf" points="334,-58.5 334,-79.5 396,-79.5 396,-58.5 334,-58.5"/>
<text text-anchor="middle" x="365" y="-65.9" font-family="Helvetica,sans-Serif" font-size="12.00">afxdtctl.h</text>
</g>
<!-- Node2&#45;&gt;Node8 -->
<g id="edge7" class="edge"><title>Node2&#45;&gt;Node8</title>
<path fill="none" stroke="midnightblue" d="M331.142,-116.246C336.844,-108.456 344.99,-97.3308 351.862,-87.9439"/>
<polygon fill="midnightblue" stroke="midnightblue" points="354.857,-89.7789 357.94,-79.6427 349.209,-85.6437 354.857,-89.7789"/>
</g>
<!-- Node9 -->
<g id="node9" class="node"><title>Node9</title>
<polygon fill="white" stroke="#bfbfbf" points="414,-58.5 414,-79.5 476,-79.5 476,-58.5 414,-58.5"/>
<text text-anchor="middle" x="445" y="-65.9" font-family="Helvetica,sans-Serif" font-size="12.00">afxcmn.h</text>
</g>
<!-- Node2&#45;&gt;Node9 -->
<g id="edge8" class="edge"><title>Node2&#45;&gt;Node9</title>
<path fill="none" stroke="midnightblue" d="M344.801,-116.373C364.224,-107.384 393.422,-93.8706 415.296,-83.7471"/>
<polygon fill="midnightblue" stroke="midnightblue" points="416.866,-86.8776 424.471,-79.5011 413.926,-80.5249 416.866,-86.8776"/>
</g>
<!-- Node10 -->
<g id="node10" class="node"><title>Node10</title>
<polygon fill="white" stroke="#bfbfbf" points="494,-58.5 494,-79.5 592,-79.5 592,-58.5 494,-58.5"/>
<text text-anchor="middle" x="543" y="-65.9" font-family="Helvetica,sans-Serif" font-size="12.00">afxcontrolbars.h</text>
</g>
<!-- Node2&#45;&gt;Node10 -->
<g id="edge9" class="edge"><title>Node2&#45;&gt;Node10</title>
<path fill="none" stroke="midnightblue" d="M352.182,-118.794C388.515,-109.503 452.211,-93.2155 495.945,-82.0324"/>
<polygon fill="midnightblue" stroke="midnightblue" points="496.958,-85.3861 505.779,-79.5177 495.224,-78.6043 496.958,-85.3861"/>
</g>
<!-- Node4 -->
<g id="node4" class="node"><title>Node4</title>
<polygon fill="white" stroke="#bfbfbf" points="0,-0.5 0,-21.5 96,-21.5 96,-0.5 0,-0.5"/>
<text text-anchor="middle" x="48" y="-7.9" font-family="Helvetica,sans-Serif" font-size="12.00">SDKDDKVer.h</text>
</g>
<!-- Node3&#45;&gt;Node4 -->
<g id="edge3" class="edge"><title>Node3&#45;&gt;Node4</title>
<path fill="none" stroke="midnightblue" d="M48,-58.2455C48,-50.9382 48,-40.6944 48,-31.7046"/>
<polygon fill="midnightblue" stroke="midnightblue" points="51.5001,-31.6426 48,-21.6427 44.5001,-31.6427 51.5001,-31.6426"/>
</g>
<!-- Node12 -->
<g id="node12" class="node"><title>Node12</title>
<polygon fill="white" stroke="#bfbfbf" points="610,-58.5 610,-79.5 684,-79.5 684,-58.5 610,-58.5"/>
<text text-anchor="middle" x="647" y="-65.9" font-family="Helvetica,sans-Serif" font-size="12.00">sys/types.h</text>
</g>
<!-- Node11&#45;&gt;Node12 -->
<g id="edge11" class="edge"><title>Node11&#45;&gt;Node12</title>
<path fill="none" stroke="midnightblue" d="M647,-116.246C647,-108.938 647,-98.6944 647,-89.7046"/>
<polygon fill="midnightblue" stroke="midnightblue" points="650.5,-89.6426 647,-79.6427 643.5,-89.6427 650.5,-89.6426"/>
</g>
<!-- Node13 -->
<g id="node13" class="node"><title>Node13</title>
<polygon fill="white" stroke="#bfbfbf" points="702.5,-58.5 702.5,-79.5 777.5,-79.5 777.5,-58.5 702.5,-58.5"/>
<text text-anchor="middle" x="740" y="-65.9" font-family="Helvetica,sans-Serif" font-size="12.00">sys/timeb.h</text>
</g>
<!-- Node11&#45;&gt;Node13 -->
<g id="edge12" class="edge"><title>Node11&#45;&gt;Node13</title>
<path fill="none" stroke="midnightblue" d="M663.199,-116.246C677.602,-107.573 698.873,-94.7645 715.38,-84.825"/>
<polygon fill="midnightblue" stroke="midnightblue" points="717.225,-87.7996 723.986,-79.6427 713.614,-81.8028 717.225,-87.7996"/>
</g>
</g>
</svg>
