<?xml version="1.0" encoding="UTF-8" standalone="no"?>
<!DOCTYPE svg PUBLIC "-//W3C//DTD SVG 1.1//EN"
 "http://www.w3.org/Graphics/SVG/1.1/DTD/svg11.dtd">
<!-- Generated by graphviz version 2.34.0 (20130907.0111)
 -->
<!-- Title: jsonChildren Pages: 1 -->
<svg width="253pt" height="192pt"
 viewBox="0.00 0.00 253.00 192.00" xmlns="http://www.w3.org/2000/svg" xmlns:xlink="http://www.w3.org/1999/xlink">
<g id="graph0" class="graph" transform="scale(1 1) rotate(0) translate(4 188)">
<title>jsonChildren</title>
<polygon fill="white" stroke="white" points="-4,4 -4,-188 249,-188 249,4 -4,4"/>
<!-- Node1 -->
<g id="node1" class="node"><title>Node1</title>
<polygon fill="#bfbfbf" stroke="black" points="-0.5,-155.5 -0.5,-176.5 80.5,-176.5 80.5,-155.5 -0.5,-155.5"/>
<text text-anchor="middle" x="40" y="-162.9" font-family="Helvetica,sans-Serif" font-size="12.00">jsonChildren</text>
</g>
<!-- Node3 -->
<g id="node3" class="node"><title>Node3</title>
<g id="a_node3"><a xlink:href="../../d1/d0b/classinternal_j_s_o_n_node.html" target="_top" xlink:title="internalJSONNode">
<polygon fill="white" stroke="black" points="88,-76.5 88,-97.5 202,-97.5 202,-76.5 88,-76.5"/>
<text text-anchor="middle" x="145" y="-83.9" font-family="Helvetica,sans-Serif" font-size="12.00">internalJSONNode</text>
</a>
</g>
</g>
<!-- Node1&#45;&gt;Node3 -->
<g id="edge5" class="edge"><title>Node1&#45;&gt;Node3</title>
<path fill="none" stroke="#9a32cd" stroke-dasharray="5,2" d="M54.0005,-147.544C62.7308,-137.438 74.6295,-124.982 87,-116 97.2243,-108.577 109.723,-102.251 120.496,-97.5008"/>
<polygon fill="#9a32cd" stroke="#9a32cd" points="51.2012,-145.436 47.4715,-155.352 56.5712,-149.926 51.2012,-145.436"/>
<text text-anchor="middle" x="119" y="-119.9" font-family="Helvetica,sans-Serif" font-size="12.00"> CHILDREN</text>
</g>
<!-- Node2 -->
<g id="node2" class="node"><title>Node2</title>
<g id="a_node2"><a xlink:href="../../d6/dc7/class_j_s_o_n_node.html" target="_top" xlink:title="JSONNode">
<polygon fill="white" stroke="black" points="35.5,-2.5 35.5,-23.5 112.5,-23.5 112.5,-2.5 35.5,-2.5"/>
<text text-anchor="middle" x="74" y="-9.9" font-family="Helvetica,sans-Serif" font-size="12.00">JSONNode</text>
</a>
</g>
</g>
<!-- Node2&#45;&gt;Node1 -->
<g id="edge1" class="edge"><title>Node2&#45;&gt;Node1</title>
<path fill="none" stroke="#9a32cd" stroke-dasharray="5,2" d="M64.771,-32.8569C59.2843,-44.9103 52.6944,-61.0351 49,-76 42.0022,-104.346 40.4287,-139.057 40.0865,-155.497"/>
<polygon fill="#9a32cd" stroke="#9a32cd" points="67.9399,-34.3429 69.0326,-23.8046 61.6066,-31.3614 67.9399,-34.3429"/>
<text text-anchor="middle" x="64" y="-83.9" font-family="Helvetica,sans-Serif" font-size="12.00"> array</text>
</g>
<!-- Node2&#45;&gt;Node2 -->
<g id="edge2" class="edge"><title>Node2&#45;&gt;Node2</title>
<path fill="none" stroke="#9a32cd" stroke-dasharray="5,2" d="M122.872,-18.6352C127.251,-17.4563 130,-15.5779 130,-13 130,-8.76953 122.597,-6.42294 112.735,-5.96024"/>
<polygon fill="#9a32cd" stroke="#9a32cd" points="122.16,-15.2002 112.735,-20.0398 123.121,-22.134 122.16,-15.2002"/>
<text text-anchor="middle" x="157" y="-16.4" font-family="Helvetica,sans-Serif" font-size="12.00"> operator[]</text>
<text text-anchor="middle" x="157" y="-3.4" font-family="Helvetica,sans-Serif" font-size="12.00">operator=</text>
</g>
<!-- Node3&#45;&gt;Node2 -->
<g id="edge3" class="edge"><title>Node3&#45;&gt;Node2</title>
<path fill="none" stroke="#9a32cd" stroke-dasharray="5,2" d="M128.302,-69.0671C114.314,-54.8816 94.8504,-35.1441 83.4237,-23.5564"/>
<polygon fill="#9a32cd" stroke="#9a32cd" points="125.911,-71.6269 135.425,-76.2898 130.895,-66.7119 125.911,-71.6269"/>
<text text-anchor="middle" x="135.5" y="-47.9" font-family="Helvetica,sans-Serif" font-size="12.00"> internal</text>
</g>
<!-- Node4 -->
<g id="node4" class="node"><title>Node4</title>
<g id="a_node4"><a xlink:href="../../d9/df1/unioninternal_j_s_o_n_node_1_1value__union__t.html" target="_top" xlink:title="internalJSONNode::value\l_union_t">
<polygon fill="white" stroke="black" points="98.5,-149 98.5,-183 245.5,-183 245.5,-149 98.5,-149"/>
<text text-anchor="start" x="106.5" y="-169.4" font-family="Helvetica,sans-Serif" font-size="12.00">internalJSONNode::value</text>
<text text-anchor="middle" x="172" y="-156.4" font-family="Helvetica,sans-Serif" font-size="12.00">_union_t</text>
</a>
</g>
</g>
<!-- Node4&#45;&gt;Node3 -->
<g id="edge4" class="edge"><title>Node4&#45;&gt;Node3</title>
<path fill="none" stroke="#9a32cd" stroke-dasharray="5,2" d="M162.833,-138.858C157.83,-124.59 151.939,-107.789 148.338,-97.5189"/>
<polygon fill="#9a32cd" stroke="#9a32cd" points="159.662,-140.392 166.274,-148.67 166.268,-138.075 159.662,-140.392"/>
<text text-anchor="middle" x="177.5" y="-119.9" font-family="Helvetica,sans-Serif" font-size="12.00"> _value</text>
</g>
</g>
</svg>
