<?xml version="1.0" encoding="UTF-8" standalone="no"?>
<!DOCTYPE svg PUBLIC "-//W3C//DTD SVG 1.1//EN"
 "http://www.w3.org/Graphics/SVG/1.1/DTD/svg11.dtd">
<!-- Generated by graphviz version 2.34.0 (20130907.0111)
 -->
<!-- Title: StderrRedirect.cpp Pages: 1 -->
<svg width="124pt" height="204pt"
 viewBox="0.00 0.00 124.00 204.00" xmlns="http://www.w3.org/2000/svg" xmlns:xlink="http://www.w3.org/1999/xlink">
<g id="graph0" class="graph" transform="scale(1 1) rotate(0) translate(4 200)">
<title>StderrRedirect.cpp</title>
<polygon fill="white" stroke="white" points="-4,4 -4,-200 120,-200 120,4 -4,4"/>
<!-- Node1 -->
<g id="node1" class="node"><title>Node1</title>
<polygon fill="#bfbfbf" stroke="black" points="0,-174.5 0,-195.5 116,-195.5 116,-174.5 0,-174.5"/>
<text text-anchor="middle" x="58" y="-181.9" font-family="Helvetica,sans-Serif" font-size="12.00">StderrRedirect.cpp</text>
</g>
<!-- Node2 -->
<g id="node2" class="node"><title>Node2</title>
<g id="a_node2"><a xlink:href="../../de/d38/_stderr_redirect_8h.html" target="_top" xlink:title="StderrRedirect.h">
<polygon fill="white" stroke="black" points="7,-116.5 7,-137.5 109,-137.5 109,-116.5 7,-116.5"/>
<text text-anchor="middle" x="58" y="-123.9" font-family="Helvetica,sans-Serif" font-size="12.00">StderrRedirect.h</text>
</a>
</g>
</g>
<!-- Node1&#45;&gt;Node2 -->
<g id="edge1" class="edge"><title>Node1&#45;&gt;Node2</title>
<path fill="none" stroke="midnightblue" d="M58,-174.246C58,-166.938 58,-156.694 58,-147.705"/>
<polygon fill="midnightblue" stroke="midnightblue" points="61.5001,-147.643 58,-137.643 54.5001,-147.643 61.5001,-147.643"/>
</g>
<!-- Node3 -->
<g id="node3" class="node"><title>Node3</title>
<g id="a_node3"><a xlink:href="../../dc/dff/_stdout_redirect_8h.html" target="_top" xlink:title="StdoutRedirect.h">
<polygon fill="white" stroke="black" points="6,-58.5 6,-79.5 110,-79.5 110,-58.5 6,-58.5"/>
<text text-anchor="middle" x="58" y="-65.9" font-family="Helvetica,sans-Serif" font-size="12.00">StdoutRedirect.h</text>
</a>
</g>
</g>
<!-- Node2&#45;&gt;Node3 -->
<g id="edge2" class="edge"><title>Node2&#45;&gt;Node3</title>
<path fill="none" stroke="midnightblue" d="M58,-116.246C58,-108.938 58,-98.6944 58,-89.7046"/>
<polygon fill="midnightblue" stroke="midnightblue" points="61.5001,-89.6426 58,-79.6427 54.5001,-89.6427 61.5001,-89.6426"/>
</g>
<!-- Node4 -->
<g id="node4" class="node"><title>Node4</title>
<polygon fill="white" stroke="#bfbfbf" points="32.5,-0.5 32.5,-21.5 83.5,-21.5 83.5,-0.5 32.5,-0.5"/>
<text text-anchor="middle" x="58" y="-7.9" font-family="Helvetica,sans-Serif" font-size="12.00">stdio.h</text>
</g>
<!-- Node3&#45;&gt;Node4 -->
<g id="edge3" class="edge"><title>Node3&#45;&gt;Node4</title>
<path fill="none" stroke="midnightblue" d="M58,-58.2455C58,-50.9382 58,-40.6944 58,-31.7046"/>
<polygon fill="midnightblue" stroke="midnightblue" points="61.5001,-31.6426 58,-21.6427 54.5001,-31.6427 61.5001,-31.6426"/>
</g>
</g>
</svg>
