<?xml version="1.0" encoding="UTF-8" standalone="no"?>
<!DOCTYPE svg PUBLIC "-//W3C//DTD SVG 1.1//EN"
 "http://www.w3.org/Graphics/SVG/1.1/DTD/svg11.dtd">
<!-- Generated by graphviz version 2.34.0 (20130907.0111)
 -->
<!-- Title: Documentation/Operator&#45;Console/ThreadControl.h Pages: 1 -->
<svg width="1580pt" height="332pt"
 viewBox="0.00 0.00 1580.00 332.00" xmlns="http://www.w3.org/2000/svg" xmlns:xlink="http://www.w3.org/1999/xlink">
<g id="graph0" class="graph" transform="scale(1 1) rotate(0) translate(4 328)">
<title>Documentation/Operator&#45;Console/ThreadControl.h</title>
<polygon fill="white" stroke="white" points="-4,4 -4,-328 1576,-328 1576,4 -4,4"/>
<!-- Node1 -->
<g id="node1" class="node"><title>Node1</title>
<polygon fill="#bfbfbf" stroke="black" points="748,-289 748,-323 898,-323 898,-289 748,-289"/>
<text text-anchor="start" x="756" y="-309.4" font-family="Helvetica,sans-Serif" font-size="12.00">Documentation/Operator</text>
<text text-anchor="middle" x="823" y="-296.4" font-family="Helvetica,sans-Serif" font-size="12.00">&#45;Console/ThreadControl.h</text>
</g>
<!-- Node2 -->
<g id="node2" class="node"><title>Node2</title>
<g id="a_node2"><a xlink:href="../../d5/dd6/_documentation_2_operator-_console_2_image_test_8h.html" target="_top" xlink:title="Documentation/Operator\l&#45;Console/ImageTest.h">
<polygon fill="white" stroke="black" points="552.5,-217 552.5,-251 697.5,-251 697.5,-217 552.5,-217"/>
<text text-anchor="start" x="560.5" y="-237.4" font-family="Helvetica,sans-Serif" font-size="12.00">Documentation/Operator</text>
<text text-anchor="middle" x="625" y="-224.4" font-family="Helvetica,sans-Serif" font-size="12.00">&#45;Console/ImageTest.h</text>
</a>
</g>
</g>
<!-- Node1&#45;&gt;Node2 -->
<g id="edge1" class="edge"><title>Node1&#45;&gt;Node2</title>
<path fill="none" stroke="midnightblue" d="M767.888,-285.516C737.23,-274.677 699.532,-261.35 670.556,-251.106"/>
<polygon fill="midnightblue" stroke="midnightblue" points="766.98,-288.907 777.575,-288.941 769.313,-282.307 766.98,-288.907"/>
</g>
<!-- Node3 -->
<g id="node3" class="node"><title>Node3</title>
<g id="a_node3"><a xlink:href="../../da/df8/_documentation_2_operator-_console_2_blemish_test_8h.html" target="_top" xlink:title="Documentation/Operator\l&#45;Console/BlemishTest.h">
<polygon fill="white" stroke="black" points="451.5,-145 451.5,-179 596.5,-179 596.5,-145 451.5,-145"/>
<text text-anchor="start" x="459.5" y="-165.4" font-family="Helvetica,sans-Serif" font-size="12.00">Documentation/Operator</text>
<text text-anchor="middle" x="524" y="-152.4" font-family="Helvetica,sans-Serif" font-size="12.00">&#45;Console/BlemishTest.h</text>
</a>
</g>
</g>
<!-- Node1&#45;&gt;Node3 -->
<g id="edge19" class="edge"><title>Node1&#45;&gt;Node3</title>
<path fill="none" stroke="midnightblue" d="M737.721,-299.112C665.751,-292.353 570.208,-278.582 543,-252 523.562,-233.009 521.667,-199.361 522.516,-179.324"/>
<polygon fill="midnightblue" stroke="midnightblue" points="737.434,-302.6 747.71,-300.019 738.068,-295.629 737.434,-302.6"/>
</g>
<!-- Node4 -->
<g id="node4" class="node"><title>Node4</title>
<g id="a_node4"><a xlink:href="../../da/d65/_documentation_2_operator-_console_2_operator_console_8h.html" target="_top" xlink:title="Documentation/Operator\l&#45;Console/OperatorConsole.h">
<polygon fill="white" stroke="black" points="653,-73 653,-107 819,-107 819,-73 653,-73"/>
<text text-anchor="start" x="661" y="-93.4" font-family="Helvetica,sans-Serif" font-size="12.00">Documentation/Operator</text>
<text text-anchor="middle" x="736" y="-80.4" font-family="Helvetica,sans-Serif" font-size="12.00">&#45;Console/OperatorConsole.h</text>
</a>
</g>
</g>
<!-- Node1&#45;&gt;Node4 -->
<g id="edge21" class="edge"><title>Node1&#45;&gt;Node4</title>
<path fill="none" stroke="midnightblue" d="M799.391,-281.651C791.304,-272.851 782.631,-262.437 776,-252 757.316,-222.594 753.744,-213.725 745,-180 738.53,-155.045 736.667,-125.032 736.156,-107.013"/>
<polygon fill="midnightblue" stroke="midnightblue" points="796.865,-284.073 806.282,-288.928 801.948,-279.26 796.865,-284.073"/>
</g>
<!-- Node15 -->
<g id="node15" class="node"><title>Node15</title>
<g id="a_node15"><a xlink:href="../../d5/d79/_documentation_2_operator-_console_2_s_f_rplus_test_8h.html" target="_top" xlink:title="Documentation/Operator\l&#45;Console/SFRplusTest.h">
<polygon fill="white" stroke="black" points="754.5,-145 754.5,-179 899.5,-179 899.5,-145 754.5,-145"/>
<text text-anchor="start" x="762.5" y="-165.4" font-family="Helvetica,sans-Serif" font-size="12.00">Documentation/Operator</text>
<text text-anchor="middle" x="827" y="-152.4" font-family="Helvetica,sans-Serif" font-size="12.00">&#45;Console/SFRplusTest.h</text>
</a>
</g>
</g>
<!-- Node1&#45;&gt;Node15 -->
<g id="edge20" class="edge"><title>Node1&#45;&gt;Node15</title>
<path fill="none" stroke="midnightblue" d="M799.987,-281.332C793.155,-272.78 786.552,-262.603 783,-252 777.918,-236.829 777.567,-231.049 783,-216 788.116,-201.827 798.855,-188.766 808.443,-179.156"/>
<polygon fill="midnightblue" stroke="midnightblue" points="797.366,-283.652 806.515,-288.994 802.694,-279.112 797.366,-283.652"/>
</g>
<!-- Node17 -->
<g id="node17" class="node"><title>Node17</title>
<g id="a_node17"><a xlink:href="../../d9/dd4/_documentation_2_operator-_console_2_image_acquisition_8cpp.html" target="_top" xlink:title="Documentation/Operator\l&#45;Console/ImageAcquisition.cpp">
<polygon fill="white" stroke="black" points="792.5,-217 792.5,-251 971.5,-251 971.5,-217 792.5,-217"/>
<text text-anchor="start" x="800.5" y="-237.4" font-family="Helvetica,sans-Serif" font-size="12.00">Documentation/Operator</text>
<text text-anchor="middle" x="882" y="-224.4" font-family="Helvetica,sans-Serif" font-size="12.00">&#45;Console/ImageAcquisition.cpp</text>
</a>
</g>
</g>
<!-- Node1&#45;&gt;Node17 -->
<g id="edge22" class="edge"><title>Node1&#45;&gt;Node17</title>
<path fill="none" stroke="midnightblue" d="M843.323,-280.889C851.604,-271.064 860.956,-259.967 868.39,-251.147"/>
<polygon fill="midnightblue" stroke="midnightblue" points="840.453,-278.863 836.684,-288.765 845.805,-283.374 840.453,-278.863"/>
</g>
<!-- Node18 -->
<g id="node18" class="node"><title>Node18</title>
<g id="a_node18"><a xlink:href="../../dc/db7/_documentation_2_operator-_console_2_imatest_lib_acq_8cpp.html" target="_top" xlink:title="Documentation/Operator\l&#45;Console/ImatestLibAcq.cpp">
<polygon fill="white" stroke="black" points="990,-217 990,-251 1154,-251 1154,-217 990,-217"/>
<text text-anchor="start" x="998" y="-237.4" font-family="Helvetica,sans-Serif" font-size="12.00">Documentation/Operator</text>
<text text-anchor="middle" x="1072" y="-224.4" font-family="Helvetica,sans-Serif" font-size="12.00">&#45;Console/ImatestLibAcq.cpp</text>
</a>
</g>
</g>
<!-- Node1&#45;&gt;Node18 -->
<g id="edge23" class="edge"><title>Node1&#45;&gt;Node18</title>
<path fill="none" stroke="midnightblue" d="M889.816,-286.216C928.804,-275.256 977.482,-261.571 1014.71,-251.106"/>
<polygon fill="midnightblue" stroke="midnightblue" points="888.805,-282.865 880.126,-288.941 890.7,-289.604 888.805,-282.865"/>
</g>
<!-- Node19 -->
<g id="node19" class="node"><title>Node19</title>
<g id="a_node19"><a xlink:href="../../d2/d07/_documentation_2_operator-_console_2_simple_direct_show_acq_8cpp.html" target="_top" xlink:title="Documentation/Operator\l&#45;Console/SimpleDirectShowAcq.cpp">
<polygon fill="white" stroke="black" points="1172,-217 1172,-251 1380,-251 1380,-217 1172,-217"/>
<text text-anchor="start" x="1180" y="-237.4" font-family="Helvetica,sans-Serif" font-size="12.00">Documentation/Operator</text>
<text text-anchor="middle" x="1276" y="-224.4" font-family="Helvetica,sans-Serif" font-size="12.00">&#45;Console/SimpleDirectShowAcq.cpp</text>
</a>
</g>
</g>
<!-- Node1&#45;&gt;Node19 -->
<g id="edge24" class="edge"><title>Node1&#45;&gt;Node19</title>
<path fill="none" stroke="midnightblue" d="M908.396,-291.804C983.322,-280.226 1092.48,-263.358 1172.39,-251.011"/>
<polygon fill="midnightblue" stroke="midnightblue" points="907.406,-288.416 898.058,-293.402 908.475,-295.333 907.406,-288.416"/>
</g>
<!-- Node20 -->
<g id="node20" class="node"><title>Node20</title>
<g id="a_node20"><a xlink:href="../../dc/d36/_documentation_2_operator-_console_2_thread_control_8cpp.html" target="_top" xlink:title="Documentation/Operator\l&#45;Console/ThreadControl.cpp">
<polygon fill="white" stroke="black" points="1398,-217 1398,-251 1562,-251 1562,-217 1398,-217"/>
<text text-anchor="start" x="1406" y="-237.4" font-family="Helvetica,sans-Serif" font-size="12.00">Documentation/Operator</text>
<text text-anchor="middle" x="1480" y="-224.4" font-family="Helvetica,sans-Serif" font-size="12.00">&#45;Console/ThreadControl.cpp</text>
</a>
</g>
</g>
<!-- Node1&#45;&gt;Node20 -->
<g id="edge25" class="edge"><title>Node1&#45;&gt;Node20</title>
<path fill="none" stroke="midnightblue" d="M908.468,-299.439C1019.54,-291.653 1219.34,-275.74 1389,-252 1391.87,-251.599 1394.78,-251.171 1397.72,-250.72"/>
<polygon fill="midnightblue" stroke="midnightblue" points="908.062,-295.959 898.329,-300.144 908.548,-302.942 908.062,-295.959"/>
</g>
<!-- Node2&#45;&gt;Node3 -->
<g id="edge2" class="edge"><title>Node2&#45;&gt;Node3</title>
<path fill="none" stroke="midnightblue" d="M593.411,-211.107C578.531,-200.793 561.09,-188.706 547.413,-179.227"/>
<polygon fill="midnightblue" stroke="midnightblue" points="591.616,-214.121 601.829,-216.941 595.603,-208.368 591.616,-214.121"/>
</g>
<!-- Node2&#45;&gt;Node4 -->
<g id="edge14" class="edge"><title>Node2&#45;&gt;Node4</title>
<path fill="none" stroke="midnightblue" d="M643.76,-209.001C666.408,-180.027 703.878,-132.093 723.358,-107.173"/>
<polygon fill="midnightblue" stroke="midnightblue" points="640.918,-206.953 637.517,-216.987 646.433,-211.264 640.918,-206.953"/>
</g>
<!-- Node7 -->
<g id="node7" class="node"><title>Node7</title>
<g id="a_node7"><a xlink:href="../../da/df9/_documentation_2_operator-_console_2_image_test_8cpp.html" target="_top" xlink:title="Documentation/Operator\l&#45;Console/ImageTest.cpp">
<polygon fill="white" stroke="black" points="-0.5,-1 -0.5,-35 144.5,-35 144.5,-1 -0.5,-1"/>
<text text-anchor="start" x="7.5" y="-21.4" font-family="Helvetica,sans-Serif" font-size="12.00">Documentation/Operator</text>
<text text-anchor="middle" x="72" y="-8.4" font-family="Helvetica,sans-Serif" font-size="12.00">&#45;Console/ImageTest.cpp</text>
</a>
</g>
</g>
<!-- Node2&#45;&gt;Node7 -->
<g id="edge18" class="edge"><title>Node2&#45;&gt;Node7</title>
<path fill="none" stroke="midnightblue" d="M630.876,-206.717C637.201,-170.738 642.019,-106.67 606,-72 569.622,-36.9845 202.976,-43.2002 153,-36 150.298,-35.6107 147.551,-35.1855 144.78,-34.732"/>
<polygon fill="midnightblue" stroke="midnightblue" points="627.366,-206.436 628.908,-216.918 634.239,-207.762 627.366,-206.436"/>
</g>
<!-- Node2&#45;&gt;Node15 -->
<g id="edge15" class="edge"><title>Node2&#45;&gt;Node15</title>
<path fill="none" stroke="midnightblue" d="M680.819,-213.657C712.169,-202.793 750.834,-189.394 780.523,-179.106"/>
<polygon fill="midnightblue" stroke="midnightblue" points="679.646,-210.359 671.343,-216.941 681.938,-216.973 679.646,-210.359"/>
</g>
<!-- Node3&#45;&gt;Node4 -->
<g id="edge3" class="edge"><title>Node3&#45;&gt;Node4</title>
<path fill="none" stroke="midnightblue" d="M582.158,-141.797C615.135,-130.908 655.929,-117.438 687.223,-107.106"/>
<polygon fill="midnightblue" stroke="midnightblue" points="581.035,-138.482 572.637,-144.941 583.23,-145.129 581.035,-138.482"/>
</g>
<!-- Node14 -->
<g id="node14" class="node"><title>Node14</title>
<g id="a_node14"><a xlink:href="../../dc/d58/_documentation_2_operator-_console_2_blemish_test_8cpp.html" target="_top" xlink:title="Documentation/Operator\l&#45;Console/BlemishTest.cpp">
<polygon fill="white" stroke="black" points="443,-73 443,-107 597,-107 597,-73 443,-73"/>
<text text-anchor="start" x="451" y="-93.4" font-family="Helvetica,sans-Serif" font-size="12.00">Documentation/Operator</text>
<text text-anchor="middle" x="520" y="-80.4" font-family="Helvetica,sans-Serif" font-size="12.00">&#45;Console/BlemishTest.cpp</text>
</a>
</g>
</g>
<!-- Node3&#45;&gt;Node14 -->
<g id="edge13" class="edge"><title>Node3&#45;&gt;Node14</title>
<path fill="none" stroke="midnightblue" d="M522.486,-134.508C521.96,-125.303 521.386,-115.262 520.923,-107.147"/>
<polygon fill="midnightblue" stroke="midnightblue" points="519.007,-134.981 523.072,-144.765 525.996,-134.581 519.007,-134.981"/>
</g>
<!-- Node5 -->
<g id="node5" class="node"><title>Node5</title>
<g id="a_node5"><a xlink:href="../../d7/d4b/_documentation_2_operator-_console_2_app_thread_8cpp.html" target="_top" xlink:title="Documentation/Operator\l&#45;Console/AppThread.cpp">
<polygon fill="white" stroke="black" points="1096,-1 1096,-35 1244,-35 1244,-1 1096,-1"/>
<text text-anchor="start" x="1104" y="-21.4" font-family="Helvetica,sans-Serif" font-size="12.00">Documentation/Operator</text>
<text text-anchor="middle" x="1170" y="-8.4" font-family="Helvetica,sans-Serif" font-size="12.00">&#45;Console/AppThread.cpp</text>
</a>
</g>
</g>
<!-- Node4&#45;&gt;Node5 -->
<g id="edge4" class="edge"><title>Node4&#45;&gt;Node5</title>
<path fill="none" stroke="midnightblue" d="M828.696,-72.0491C828.797,-72.0327 828.899,-72.0163 829,-72 942.864,-53.6263 972.314,-55.448 1086,-36 1089.23,-35.448 1092.52,-34.8654 1095.84,-34.2614"/>
<polygon fill="midnightblue" stroke="midnightblue" points="828.42,-68.5472 819.123,-73.6283 829.56,-75.4538 828.42,-68.5472"/>
</g>
<!-- Node6 -->
<g id="node6" class="node"><title>Node6</title>
<g id="a_node6"><a xlink:href="../../de/d31/_documentation_2_operator-_console_2_critical_buf_8cpp.html" target="_top" xlink:title="Documentation/Operator\l&#45;Console/CriticalBuf.cpp">
<polygon fill="white" stroke="black" points="1262.5,-1 1262.5,-35 1407.5,-35 1407.5,-1 1262.5,-1"/>
<text text-anchor="start" x="1270.5" y="-21.4" font-family="Helvetica,sans-Serif" font-size="12.00">Documentation/Operator</text>
<text text-anchor="middle" x="1335" y="-8.4" font-family="Helvetica,sans-Serif" font-size="12.00">&#45;Console/CriticalBuf.cpp</text>
</a>
</g>
</g>
<!-- Node4&#45;&gt;Node6 -->
<g id="edge5" class="edge"><title>Node4&#45;&gt;Node6</title>
<path fill="none" stroke="midnightblue" d="M828.695,-72.0408C828.797,-72.0272 828.898,-72.0136 829,-72 1016.46,-46.9675 1065.85,-63.2448 1253,-36 1256.02,-35.5602 1259.1,-35.0781 1262.2,-34.5637"/>
<polygon fill="midnightblue" stroke="midnightblue" points="828.5,-68.5334 819.09,-73.4028 829.482,-75.4641 828.5,-68.5334"/>
</g>
<!-- Node4&#45;&gt;Node7 -->
<g id="edge6" class="edge"><title>Node4&#45;&gt;Node7</title>
<path fill="none" stroke="midnightblue" d="M642.818,-72.4871C641.538,-72.3197 640.265,-72.1572 639,-72 424.064,-45.2721 367.46,-66.3111 153,-36 150.297,-35.6179 147.549,-35.1989 144.777,-34.7506"/>
<polygon fill="midnightblue" stroke="midnightblue" points="642.359,-75.9568 652.743,-73.8568 643.316,-69.0225 642.359,-75.9568"/>
</g>
<!-- Node8 -->
<g id="node8" class="node"><title>Node8</title>
<g id="a_node8"><a xlink:href="../../d4/d9c/_msg_dialog_8cpp.html" target="_top" xlink:title="Documentation/Operator\l&#45;Console/MsgDialog.cpp">
<polygon fill="white" stroke="black" points="1426,-1 1426,-35 1572,-35 1572,-1 1426,-1"/>
<text text-anchor="start" x="1434" y="-21.4" font-family="Helvetica,sans-Serif" font-size="12.00">Documentation/Operator</text>
<text text-anchor="middle" x="1499" y="-8.4" font-family="Helvetica,sans-Serif" font-size="12.00">&#45;Console/MsgDialog.cpp</text>
</a>
</g>
</g>
<!-- Node4&#45;&gt;Node8 -->
<g id="edge7" class="edge"><title>Node4&#45;&gt;Node8</title>
<path fill="none" stroke="midnightblue" d="M828.694,-72.0373C828.796,-72.0248 828.898,-72.0124 829,-72 1088.47,-40.4436 1156.88,-70.3083 1416,-36 1419.21,-35.5753 1422.48,-35.098 1425.77,-34.5803"/>
<polygon fill="midnightblue" stroke="midnightblue" points="828.534,-68.528 819.078,-73.3055 829.449,-75.4679 828.534,-68.528"/>
</g>
<!-- Node9 -->
<g id="node9" class="node"><title>Node9</title>
<g id="a_node9"><a xlink:href="../../db/db5/_documentation_2_operator-_console_2_operator_console_8cpp.html" target="_top" xlink:title="Documentation/Operator\l&#45;Console/OperatorConsole.cpp">
<polygon fill="white" stroke="black" points="162.5,-1 162.5,-35 341.5,-35 341.5,-1 162.5,-1"/>
<text text-anchor="start" x="170.5" y="-21.4" font-family="Helvetica,sans-Serif" font-size="12.00">Documentation/Operator</text>
<text text-anchor="middle" x="252" y="-8.4" font-family="Helvetica,sans-Serif" font-size="12.00">&#45;Console/OperatorConsole.cpp</text>
</a>
</g>
</g>
<!-- Node4&#45;&gt;Node9 -->
<g id="edge8" class="edge"><title>Node4&#45;&gt;Node9</title>
<path fill="none" stroke="midnightblue" d="M642.878,-72.5873C641.577,-72.3883 640.284,-72.1924 639,-72 510.991,-52.822 478.025,-55.0669 350,-36 347.267,-35.593 344.493,-35.1705 341.694,-34.736"/>
<polygon fill="midnightblue" stroke="midnightblue" points="642.547,-76.0782 652.968,-74.1693 643.631,-69.1626 642.547,-76.0782"/>
</g>
<!-- Node10 -->
<g id="node10" class="node"><title>Node10</title>
<g id="a_node10"><a xlink:href="../../dd/dcb/_documentation_2_operator-_console_2_operator_console_dlg_8cpp.html" target="_top" xlink:title="Documentation/Operator\l&#45;Console/OperatorConsoleDlg.cpp">
<polygon fill="white" stroke="black" points="359.5,-1 359.5,-35 556.5,-35 556.5,-1 359.5,-1"/>
<text text-anchor="start" x="367.5" y="-21.4" font-family="Helvetica,sans-Serif" font-size="12.00">Documentation/Operator</text>
<text text-anchor="middle" x="458" y="-8.4" font-family="Helvetica,sans-Serif" font-size="12.00">&#45;Console/OperatorConsoleDlg.cpp</text>
</a>
</g>
</g>
<!-- Node4&#45;&gt;Node10 -->
<g id="edge9" class="edge"><title>Node4&#45;&gt;Node10</title>
<path fill="none" stroke="midnightblue" d="M662.506,-70.4944C618.795,-59.488 563.879,-45.6601 521.963,-35.1057"/>
<polygon fill="midnightblue" stroke="midnightblue" points="661.669,-73.8928 672.221,-72.9406 663.379,-67.1047 661.669,-73.8928"/>
</g>
<!-- Node11 -->
<g id="node11" class="node"><title>Node11</title>
<g id="a_node11"><a xlink:href="../../dd/d14/_documentation_2_operator-_console_2_pass_fail_8cpp.html" target="_top" xlink:title="Documentation/Operator\l&#45;Console/PassFail.cpp">
<polygon fill="white" stroke="black" points="574.5,-1 574.5,-35 719.5,-35 719.5,-1 574.5,-1"/>
<text text-anchor="start" x="582.5" y="-21.4" font-family="Helvetica,sans-Serif" font-size="12.00">Documentation/Operator</text>
<text text-anchor="middle" x="647" y="-8.4" font-family="Helvetica,sans-Serif" font-size="12.00">&#45;Console/PassFail.cpp</text>
</a>
</g>
</g>
<!-- Node4&#45;&gt;Node11 -->
<g id="edge10" class="edge"><title>Node4&#45;&gt;Node11</title>
<path fill="none" stroke="midnightblue" d="M707.205,-66.3523C694.27,-56.1788 679.305,-44.4081 667.53,-35.1473"/>
<polygon fill="midnightblue" stroke="midnightblue" points="705.334,-69.3335 715.358,-72.7646 709.662,-63.8314 705.334,-69.3335"/>
</g>
<!-- Node12 -->
<g id="node12" class="node"><title>Node12</title>
<g id="a_node12"><a xlink:href="../../dd/d4b/_documentation_2_operator-_console_2_password_dialog_8cpp.html" target="_top" xlink:title="Documentation/Operator\l&#45;Console/PasswordDialog.cpp">
<polygon fill="white" stroke="black" points="738,-1 738,-35 914,-35 914,-1 738,-1"/>
<text text-anchor="start" x="746" y="-21.4" font-family="Helvetica,sans-Serif" font-size="12.00">Documentation/Operator</text>
<text text-anchor="middle" x="826" y="-8.4" font-family="Helvetica,sans-Serif" font-size="12.00">&#45;Console/PasswordDialog.cpp</text>
</a>
</g>
</g>
<!-- Node4&#45;&gt;Node12 -->
<g id="edge11" class="edge"><title>Node4&#45;&gt;Node12</title>
<path fill="none" stroke="midnightblue" d="M765.118,-66.3523C778.199,-56.1788 793.332,-44.4081 805.239,-35.1473"/>
<polygon fill="midnightblue" stroke="midnightblue" points="762.619,-63.8625 756.874,-72.7646 766.916,-69.3879 762.619,-63.8625"/>
</g>
<!-- Node13 -->
<g id="node13" class="node"><title>Node13</title>
<g id="a_node13"><a xlink:href="../../d3/d68/_documentation_2_operator-_console_2_setup_8cpp.html" target="_top" xlink:title="Documentation/Operator\l&#45;Console/Setup.cpp">
<polygon fill="white" stroke="black" points="932.5,-1 932.5,-35 1077.5,-35 1077.5,-1 932.5,-1"/>
<text text-anchor="start" x="940.5" y="-21.4" font-family="Helvetica,sans-Serif" font-size="12.00">Documentation/Operator</text>
<text text-anchor="middle" x="1005" y="-8.4" font-family="Helvetica,sans-Serif" font-size="12.00">&#45;Console/Setup.cpp</text>
</a>
</g>
</g>
<!-- Node4&#45;&gt;Node13 -->
<g id="edge12" class="edge"><title>Node4&#45;&gt;Node13</title>
<path fill="none" stroke="midnightblue" d="M807.648,-70.3555C849.857,-59.3718 902.719,-45.6158 943.108,-35.1057"/>
<polygon fill="midnightblue" stroke="midnightblue" points="806.51,-67.035 797.714,-72.9406 808.273,-73.8093 806.51,-67.035"/>
</g>
<!-- Node15&#45;&gt;Node4 -->
<g id="edge16" class="edge"><title>Node15&#45;&gt;Node4</title>
<path fill="none" stroke="midnightblue" d="M797.935,-138.643C784.624,-128.403 769.145,-116.496 756.991,-107.147"/>
<polygon fill="midnightblue" stroke="midnightblue" points="795.834,-141.442 805.894,-144.765 800.102,-135.893 795.834,-141.442"/>
</g>
<!-- Node16 -->
<g id="node16" class="node"><title>Node16</title>
<g id="a_node16"><a xlink:href="../../d6/d7f/_documentation_2_operator-_console_2_s_f_rplus_test_8cpp.html" target="_top" xlink:title="Documentation/Operator\l&#45;Console/SFRplusTest.cpp">
<polygon fill="white" stroke="black" points="837.5,-73 837.5,-107 994.5,-107 994.5,-73 837.5,-73"/>
<text text-anchor="start" x="845.5" y="-93.4" font-family="Helvetica,sans-Serif" font-size="12.00">Documentation/Operator</text>
<text text-anchor="middle" x="916" y="-80.4" font-family="Helvetica,sans-Serif" font-size="12.00">&#45;Console/SFRplusTest.cpp</text>
</a>
</g>
</g>
<!-- Node15&#45;&gt;Node16 -->
<g id="edge17" class="edge"><title>Node15&#45;&gt;Node16</title>
<path fill="none" stroke="midnightblue" d="M855.795,-138.352C868.73,-128.179 883.695,-116.408 895.47,-107.147"/>
<polygon fill="midnightblue" stroke="midnightblue" points="853.338,-135.831 847.642,-144.765 857.666,-141.334 853.338,-135.831"/>
</g>
</g>
</svg>
