<?xml version="1.0" encoding="UTF-8" standalone="no"?>
<!DOCTYPE svg PUBLIC "-//W3C//DTD SVG 1.1//EN"
 "http://www.w3.org/Graphics/SVG/1.1/DTD/svg11.dtd">
<!-- Generated by graphviz version 2.34.0 (20130907.0111)
 -->
<!-- Title: getIntFromArray Pages: 1 -->
<svg width="1680pt" height="150pt"
 viewBox="0.00 0.00 1680.00 150.00" xmlns="http://www.w3.org/2000/svg" xmlns:xlink="http://www.w3.org/1999/xlink">
<g id="graph0" class="graph" transform="scale(1 1) rotate(0) translate(4 146)">
<title>getIntFromArray</title>
<polygon fill="white" stroke="white" points="-4,4 -4,-146 1676,-146 1676,4 -4,4"/>
<!-- Node1 -->
<g id="node1" class="node"><title>Node1</title>
<polygon fill="#bfbfbf" stroke="black" points="0,-40.5 0,-61.5 100,-61.5 100,-40.5 0,-40.5"/>
<text text-anchor="middle" x="50" y="-47.9" font-family="Helvetica,sans-Serif" font-size="12.00">getIntFromArray</text>
</g>
<!-- Node2 -->
<g id="node2" class="node"><title>Node2</title>
<g id="a_node2"><a xlink:href="../../d6/dc7/class_j_s_o_n_node.html#ac30e692c490e07e072ebfc7158904706" target="_top" xlink:title="JSONNode::as_array">
<polygon fill="white" stroke="black" points="136,-60.5 136,-81.5 264,-81.5 264,-60.5 136,-60.5"/>
<text text-anchor="middle" x="200" y="-67.9" font-family="Helvetica,sans-Serif" font-size="12.00">JSONNode::as_array</text>
</a>
</g>
</g>
<!-- Node1&#45;&gt;Node2 -->
<g id="edge1" class="edge"><title>Node1&#45;&gt;Node2</title>
<path fill="none" stroke="midnightblue" d="M100.282,-57.6597C108.502,-58.7705 117.181,-59.9434 125.845,-61.1142"/>
<polygon fill="midnightblue" stroke="midnightblue" points="125.601,-64.613 135.98,-62.4838 126.539,-57.676 125.601,-64.613"/>
</g>
<!-- Node14 -->
<g id="node14" class="node"><title>Node14</title>
<g id="a_node14"><a xlink:href="../../d6/dc7/class_j_s_o_n_node.html#a18fa41b1187c0d01c9c13547c4f54b24" target="_top" xlink:title="JSONNode::as_int">
<polygon fill="white" stroke="black" points="143,-20.5 143,-41.5 257,-41.5 257,-20.5 143,-20.5"/>
<text text-anchor="middle" x="200" y="-27.9" font-family="Helvetica,sans-Serif" font-size="12.00">JSONNode::as_int</text>
</a>
</g>
</g>
<!-- Node1&#45;&gt;Node14 -->
<g id="edge14" class="edge"><title>Node1&#45;&gt;Node14</title>
<path fill="none" stroke="midnightblue" d="M100.282,-44.3403C110.711,-42.9309 121.881,-41.4215 132.82,-39.9432"/>
<polygon fill="midnightblue" stroke="midnightblue" points="133.333,-43.4059 142.774,-38.5981 132.395,-36.4689 133.333,-43.4059"/>
</g>
<!-- Node3 -->
<g id="node3" class="node"><title>Node3</title>
<g id="a_node3"><a xlink:href="../../d6/dc7/class_j_s_o_n_node.html#a8edf73e69435ea34f5ffde8c9ccad7c6" target="_top" xlink:title="JSONNode::type">
<polygon fill="white" stroke="black" points="320,-120.5 320,-141.5 424,-141.5 424,-120.5 320,-120.5"/>
<text text-anchor="middle" x="372" y="-127.9" font-family="Helvetica,sans-Serif" font-size="12.00">JSONNode::type</text>
</a>
</g>
</g>
<!-- Node2&#45;&gt;Node3 -->
<g id="edge2" class="edge"><title>Node2&#45;&gt;Node3</title>
<path fill="none" stroke="midnightblue" d="M225.131,-81.6138C245.006,-90.1455 274.039,-102.128 300,-111 306.595,-113.254 313.595,-115.453 320.529,-117.519"/>
<polygon fill="midnightblue" stroke="midnightblue" points="320.007,-121.012 330.587,-120.442 321.961,-114.29 320.007,-121.012"/>
</g>
<!-- Node4 -->
<g id="node4" class="node"><title>Node4</title>
<g id="a_node4"><a xlink:href="../../d6/dc7/class_j_s_o_n_node.html#ae61d84dcd82f1261ef3bb219229e468f" target="_top" xlink:title="JSONNode::duplicate">
<polygon fill="white" stroke="black" points="307,-80.5 307,-101.5 437,-101.5 437,-80.5 307,-80.5"/>
<text text-anchor="middle" x="372" y="-87.9" font-family="Helvetica,sans-Serif" font-size="12.00">JSONNode::duplicate</text>
</a>
</g>
</g>
<!-- Node2&#45;&gt;Node4 -->
<g id="edge3" class="edge"><title>Node2&#45;&gt;Node4</title>
<path fill="none" stroke="midnightblue" d="M264.302,-78.4473C274.818,-79.6845 285.809,-80.9775 296.57,-82.2436"/>
<polygon fill="midnightblue" stroke="midnightblue" points="296.454,-85.754 306.795,-83.4464 297.272,-78.8019 296.454,-85.754"/>
</g>
<!-- Node12 -->
<g id="node12" class="node"><title>Node12</title>
<g id="a_node12"><a xlink:href="../../d6/dc7/class_j_s_o_n_node.html#a25976f906aad4da22a065353f1ef5f63" target="_top" xlink:title="JSONNode::clear_name">
<polygon fill="white" stroke="black" points="300,-40.5 300,-61.5 444,-61.5 444,-40.5 300,-40.5"/>
<text text-anchor="middle" x="372" y="-47.9" font-family="Helvetica,sans-Serif" font-size="12.00">JSONNode::clear_name</text>
</a>
</g>
</g>
<!-- Node2&#45;&gt;Node12 -->
<g id="edge11" class="edge"><title>Node2&#45;&gt;Node12</title>
<path fill="none" stroke="midnightblue" d="M264.302,-63.5527C272.647,-62.5709 281.292,-61.5539 289.884,-60.5431"/>
<polygon fill="midnightblue" stroke="midnightblue" points="290.402,-64.0064 299.924,-59.3618 289.584,-57.0543 290.402,-64.0064"/>
</g>
<!-- Node13 -->
<g id="node13" class="node"><title>Node13</title>
<g id="a_node13"><a xlink:href="../../d6/dc7/class_j_s_o_n_node.html#aba2db3c5af33c64e0cdccd33d18adc59" target="_top" xlink:title="JSONNode::JSONNode">
<polygon fill="white" stroke="black" points="300.5,-0.5 300.5,-21.5 443.5,-21.5 443.5,-0.5 300.5,-0.5"/>
<text text-anchor="middle" x="372" y="-7.9" font-family="Helvetica,sans-Serif" font-size="12.00">JSONNode::JSONNode</text>
</a>
</g>
</g>
<!-- Node2&#45;&gt;Node13 -->
<g id="edge13" class="edge"><title>Node2&#45;&gt;Node13</title>
<path fill="none" stroke="midnightblue" d="M238.43,-60.473C246.954,-57.7037 255.887,-54.4998 264,-51 280.806,-43.7503 283.077,-37.9729 300,-31 305.537,-28.7185 311.421,-26.6031 317.339,-24.6693"/>
<polygon fill="midnightblue" stroke="midnightblue" points="318.762,-27.8926 327.278,-21.589 316.69,-21.2064 318.762,-27.8926"/>
</g>
<!-- Node5 -->
<g id="node5" class="node"><title>Node5</title>
<g id="a_node5"><a xlink:href="../../d6/dc7/class_j_s_o_n_node.html#a40fb037e147141fa07f90fe419e3a7a2" target="_top" xlink:title="JSONNode::makeUniqueInternal">
<polygon fill="white" stroke="black" points="480.5,-60.5 480.5,-81.5 665.5,-81.5 665.5,-60.5 480.5,-60.5"/>
<text text-anchor="middle" x="573" y="-67.9" font-family="Helvetica,sans-Serif" font-size="12.00">JSONNode::makeUniqueInternal</text>
</a>
</g>
</g>
<!-- Node4&#45;&gt;Node5 -->
<g id="edge4" class="edge"><title>Node4&#45;&gt;Node5</title>
<path fill="none" stroke="midnightblue" d="M437.06,-84.5618C447.586,-83.5039 458.721,-82.3848 469.899,-81.2614"/>
<polygon fill="midnightblue" stroke="midnightblue" points="470.561,-84.7126 480.161,-80.23 469.861,-77.7477 470.561,-84.7126"/>
</g>
<!-- Node6 -->
<g id="node6" class="node"><title>Node6</title>
<g id="a_node6"><a xlink:href="../../d1/d0b/classinternal_j_s_o_n_node.html#a72b82897da17766d09a3e4ea4a743cf1" target="_top" xlink:title="internalJSONNode::makeUnique">
<polygon fill="white" stroke="black" points="702,-60.5 702,-81.5 888,-81.5 888,-60.5 702,-60.5"/>
<text text-anchor="middle" x="795" y="-67.9" font-family="Helvetica,sans-Serif" font-size="12.00">internalJSONNode::makeUnique</text>
</a>
</g>
</g>
<!-- Node5&#45;&gt;Node6 -->
<g id="edge5" class="edge"><title>Node5&#45;&gt;Node6</title>
<path fill="none" stroke="midnightblue" d="M665.707,-71C674.266,-71 682.977,-71 691.624,-71"/>
<polygon fill="midnightblue" stroke="midnightblue" points="691.734,-74.5001 701.734,-71 691.734,-67.5001 691.734,-74.5001"/>
</g>
<!-- Node7 -->
<g id="node7" class="node"><title>Node7</title>
<g id="a_node7"><a xlink:href="../../d1/d0b/classinternal_j_s_o_n_node.html#a1d79eee0bbd754c13edac1498e3a7a3d" target="_top" xlink:title="internalJSONNode::decRef">
<polygon fill="white" stroke="black" points="934,-80.5 934,-101.5 1092,-101.5 1092,-80.5 934,-80.5"/>
<text text-anchor="middle" x="1013" y="-87.9" font-family="Helvetica,sans-Serif" font-size="12.00">internalJSONNode::decRef</text>
</a>
</g>
</g>
<!-- Node6&#45;&gt;Node7 -->
<g id="edge6" class="edge"><title>Node6&#45;&gt;Node7</title>
<path fill="none" stroke="midnightblue" d="M888.23,-79.5398C899.936,-80.6237 911.896,-81.7311 923.541,-82.8094"/>
<polygon fill="midnightblue" stroke="midnightblue" points="923.4,-86.3112 933.68,-83.7482 924.046,-79.341 923.4,-86.3112"/>
</g>
<!-- Node8 -->
<g id="node8" class="node"><title>Node8</title>
<g id="a_node8"><a xlink:href="../../d1/d0b/classinternal_j_s_o_n_node.html#a5656ff403a9a79fce1812aacee620fdd" target="_top" xlink:title="internalJSONNode::newInternal">
<polygon fill="white" stroke="black" points="924,-40.5 924,-61.5 1102,-61.5 1102,-40.5 924,-40.5"/>
<text text-anchor="middle" x="1013" y="-47.9" font-family="Helvetica,sans-Serif" font-size="12.00">internalJSONNode::newInternal</text>
</a>
</g>
</g>
<!-- Node6&#45;&gt;Node8 -->
<g id="edge7" class="edge"><title>Node6&#45;&gt;Node8</title>
<path fill="none" stroke="midnightblue" d="M888.23,-62.4602C896.719,-61.6742 905.34,-60.8759 913.879,-60.0853"/>
<polygon fill="midnightblue" stroke="midnightblue" points="914.217,-63.5691 923.851,-59.1619 913.571,-56.5989 914.217,-63.5691"/>
</g>
<!-- Node9 -->
<g id="node9" class="node"><title>Node9</title>
<g id="a_node9"><a xlink:href="../../d1/d0b/classinternal_j_s_o_n_node.html#afb952c1e0ebf1928ecccd9a205baa0db" target="_top" xlink:title="internalJSONNode::internal\lJSONNode">
<polygon fill="white" stroke="black" points="1138,-34 1138,-68 1296,-68 1296,-34 1138,-34"/>
<text text-anchor="start" x="1146" y="-54.4" font-family="Helvetica,sans-Serif" font-size="12.00">internalJSONNode::internal</text>
<text text-anchor="middle" x="1217" y="-41.4" font-family="Helvetica,sans-Serif" font-size="12.00">JSONNode</text>
</a>
</g>
</g>
<!-- Node8&#45;&gt;Node9 -->
<g id="edge8" class="edge"><title>Node8&#45;&gt;Node9</title>
<path fill="none" stroke="midnightblue" d="M1102.01,-51C1110.48,-51 1119.07,-51 1127.54,-51"/>
<polygon fill="midnightblue" stroke="midnightblue" points="1127.79,-54.5001 1137.79,-51 1127.79,-47.5001 1127.79,-54.5001"/>
</g>
<!-- Node10 -->
<g id="node10" class="node"><title>Node10</title>
<g id="a_node10"><a xlink:href="../../db/d49/classjson_children.html#ac71d832f3f81306fcb13e6f581f4431a" target="_top" xlink:title="jsonChildren::newChildren">
<polygon fill="white" stroke="black" points="1332,-40.5 1332,-61.5 1484,-61.5 1484,-40.5 1332,-40.5"/>
<text text-anchor="middle" x="1408" y="-47.9" font-family="Helvetica,sans-Serif" font-size="12.00">jsonChildren::newChildren</text>
</a>
</g>
</g>
<!-- Node9&#45;&gt;Node10 -->
<g id="edge9" class="edge"><title>Node9&#45;&gt;Node10</title>
<path fill="none" stroke="midnightblue" d="M1296.24,-51C1304.61,-51 1313.16,-51 1321.62,-51"/>
<polygon fill="midnightblue" stroke="midnightblue" points="1321.86,-54.5001 1331.86,-51 1321.86,-47.5001 1321.86,-54.5001"/>
</g>
<!-- Node11 -->
<g id="node11" class="node"><title>Node11</title>
<g id="a_node11"><a xlink:href="../../db/d49/classjson_children.html#aa31b15a1d697846a9c2a8a710b2ba6f1" target="_top" xlink:title="jsonChildren::jsonChildren">
<polygon fill="white" stroke="black" points="1520,-40.5 1520,-61.5 1672,-61.5 1672,-40.5 1520,-40.5"/>
<text text-anchor="middle" x="1596" y="-47.9" font-family="Helvetica,sans-Serif" font-size="12.00">jsonChildren::jsonChildren</text>
</a>
</g>
</g>
<!-- Node10&#45;&gt;Node11 -->
<g id="edge10" class="edge"><title>Node10&#45;&gt;Node11</title>
<path fill="none" stroke="midnightblue" d="M1484.12,-51C1492.6,-51 1501.28,-51 1509.87,-51"/>
<polygon fill="midnightblue" stroke="midnightblue" points="1509.9,-54.5001 1519.9,-51 1509.9,-47.5001 1509.9,-54.5001"/>
</g>
<!-- Node12&#45;&gt;Node5 -->
<g id="edge12" class="edge"><title>Node12&#45;&gt;Node5</title>
<path fill="none" stroke="midnightblue" d="M444.001,-58.1358C452.516,-58.9916 461.336,-59.878 470.18,-60.7668"/>
<polygon fill="midnightblue" stroke="midnightblue" points="469.861,-64.2523 480.161,-61.7699 470.561,-57.2874 469.861,-64.2523"/>
</g>
</g>
</svg>
