<?xml version="1.0" encoding="UTF-8" standalone="no"?>
<!DOCTYPE svg PUBLIC "-//W3C//DTD SVG 1.1//EN"
 "http://www.w3.org/Graphics/SVG/1.1/DTD/svg11.dtd">
<!-- Generated by graphviz version 2.34.0 (20130907.0111)
 -->
<!-- Title: prepareTestSettings Pages: 1 -->
<svg width="1138pt" height="102pt"
 viewBox="0.00 0.00 1138.00 102.00" xmlns="http://www.w3.org/2000/svg" xmlns:xlink="http://www.w3.org/1999/xlink">
<g id="graph0" class="graph" transform="scale(1 1) rotate(0) translate(4 98)">
<title>prepareTestSettings</title>
<polygon fill="white" stroke="white" points="-4,4 -4,-98 1134,-98 1134,4 -4,4"/>
<!-- Node1 -->
<g id="node1" class="node"><title>Node1</title>
<polygon fill="#bfbfbf" stroke="black" points="0.5,-52.5 0.5,-73.5 123.5,-73.5 123.5,-52.5 0.5,-52.5"/>
<text text-anchor="middle" x="62" y="-59.9" font-family="Helvetica,sans-Serif" font-size="12.00">prepareTestSettings</text>
</g>
<!-- Node2 -->
<g id="node2" class="node"><title>Node2</title>
<g id="a_node2"><a xlink:href="../../da/d92/class_image_test.html#a7334d76c1cc6780f46626be5b9ff1adb" target="_top" xlink:title="Runs the test pointed to by m_imatestFunc. ">
<polygon fill="white" stroke="black" points="160,-52.5 160,-73.5 258,-73.5 258,-52.5 160,-52.5"/>
<text text-anchor="middle" x="209" y="-59.9" font-family="Helvetica,sans-Serif" font-size="12.00">ImageTest::Run</text>
</a>
</g>
</g>
<!-- Node1&#45;&gt;Node2 -->
<g id="edge1" class="edge"><title>Node1&#45;&gt;Node2</title>
<path fill="none" stroke="midnightblue" d="M133.657,-63C142.557,-63 151.494,-63 159.931,-63"/>
<polygon fill="midnightblue" stroke="midnightblue" points="133.653,-59.5001 123.653,-63 133.653,-66.5001 133.653,-59.5001"/>
</g>
<!-- Node3 -->
<g id="node3" class="node"><title>Node3</title>
<g id="a_node3"><a xlink:href="../../da/d92/class_image_test.html#accf2cfff6fe48fd19888727208dd6728" target="_top" xlink:title="ImageTest::Run">
<polygon fill="white" stroke="black" points="315,-72.5 315,-93.5 413,-93.5 413,-72.5 315,-72.5"/>
<text text-anchor="middle" x="364" y="-79.9" font-family="Helvetica,sans-Serif" font-size="12.00">ImageTest::Run</text>
</a>
</g>
</g>
<!-- Node2&#45;&gt;Node3 -->
<g id="edge2" class="edge"><title>Node2&#45;&gt;Node3</title>
<path fill="none" stroke="midnightblue" d="M268.338,-70.6259C283.716,-72.6361 300.134,-74.7822 314.905,-76.713"/>
<polygon fill="midnightblue" stroke="midnightblue" points="268.779,-67.1539 258.41,-69.3281 267.872,-74.0948 268.779,-67.1539"/>
</g>
<!-- Node4 -->
<g id="node4" class="node"><title>Node4</title>
<g id="a_node4"><a xlink:href="../../da/d92/class_image_test.html#a372478d09c06cd7ab3684840add6215e" target="_top" xlink:title="param must be a pointer to a ThreadControl object; param&#45;&gt;m_data must point to an ImageTest object ...">
<polygon fill="white" stroke="black" points="294.5,-32.5 294.5,-53.5 433.5,-53.5 433.5,-32.5 294.5,-32.5"/>
<text text-anchor="middle" x="364" y="-39.9" font-family="Helvetica,sans-Serif" font-size="12.00">ImageTest::ThreadProc</text>
</a>
</g>
</g>
<!-- Node2&#45;&gt;Node4 -->
<g id="edge3" class="edge"><title>Node2&#45;&gt;Node4</title>
<path fill="none" stroke="midnightblue" d="M268.571,-55.3437C277.052,-54.2351 285.845,-53.0857 294.499,-51.9543"/>
<polygon fill="midnightblue" stroke="midnightblue" points="267.872,-51.9052 258.41,-56.6719 268.779,-58.8461 267.872,-51.9052"/>
</g>
<!-- Node5 -->
<g id="node5" class="node"><title>Node5</title>
<g id="a_node5"><a xlink:href="../../d3/d9f/class_c_operator_console_app.html#a51ad7e6e8f370072c3e89d0d7e9e41a8" target="_top" xlink:title="COperatorConsoleApp\l::InitBlemishThread">
<polygon fill="white" stroke="black" points="470.5,-53 470.5,-87 607.5,-87 607.5,-53 470.5,-53"/>
<text text-anchor="start" x="478.5" y="-73.4" font-family="Helvetica,sans-Serif" font-size="12.00">COperatorConsoleApp</text>
<text text-anchor="middle" x="539" y="-60.4" font-family="Helvetica,sans-Serif" font-size="12.00">::InitBlemishThread</text>
</a>
</g>
</g>
<!-- Node4&#45;&gt;Node5 -->
<g id="edge4" class="edge"><title>Node4&#45;&gt;Node5</title>
<path fill="none" stroke="midnightblue" d="M442.382,-55.077C451.669,-56.5264 461.097,-57.9978 470.233,-59.4236"/>
<polygon fill="midnightblue" stroke="midnightblue" points="442.802,-51.6002 432.382,-53.5162 441.722,-58.5165 442.802,-51.6002"/>
</g>
<!-- Node11 -->
<g id="node11" class="node"><title>Node11</title>
<g id="a_node11"><a xlink:href="../../d3/d9f/class_c_operator_console_app.html#af7328d2c00abb1d4a09a65492c69b2b0" target="_top" xlink:title="COperatorConsoleApp\l::InitSFRplusThread">
<polygon fill="white" stroke="black" points="470.5,-0 470.5,-34 607.5,-34 607.5,-0 470.5,-0"/>
<text text-anchor="start" x="478.5" y="-20.4" font-family="Helvetica,sans-Serif" font-size="12.00">COperatorConsoleApp</text>
<text text-anchor="middle" x="539" y="-7.4" font-family="Helvetica,sans-Serif" font-size="12.00">::InitSFRplusThread</text>
</a>
</g>
</g>
<!-- Node4&#45;&gt;Node11 -->
<g id="edge10" class="edge"><title>Node4&#45;&gt;Node11</title>
<path fill="none" stroke="midnightblue" d="M443.852,-31.1494C452.751,-29.812 461.759,-28.4583 470.494,-27.1454"/>
<polygon fill="midnightblue" stroke="midnightblue" points="443.24,-27.702 433.871,-32.6494 444.28,-34.6243 443.24,-27.702"/>
</g>
<!-- Node6 -->
<g id="node6" class="node"><title>Node6</title>
<g id="a_node6"><a xlink:href="../../d3/d9f/class_c_operator_console_app.html#a7f0cd7b21cee2171dea973e4e6e7bb9d" target="_top" xlink:title="Init perform application&#45;specific initialization. ">
<polygon fill="white" stroke="black" points="644.5,-53 644.5,-87 781.5,-87 781.5,-53 644.5,-53"/>
<text text-anchor="start" x="652.5" y="-73.4" font-family="Helvetica,sans-Serif" font-size="12.00">COperatorConsoleApp</text>
<text text-anchor="middle" x="713" y="-60.4" font-family="Helvetica,sans-Serif" font-size="12.00">::Init</text>
</a>
</g>
</g>
<!-- Node5&#45;&gt;Node6 -->
<g id="edge5" class="edge"><title>Node5&#45;&gt;Node6</title>
<path fill="none" stroke="midnightblue" d="M618.134,-70C626.846,-70 635.666,-70 644.233,-70"/>
<polygon fill="midnightblue" stroke="midnightblue" points="617.979,-66.5001 607.979,-70 617.979,-73.5001 617.979,-66.5001"/>
</g>
<!-- Node8 -->
<g id="node8" class="node"><title>Node8</title>
<g id="a_node8"><a xlink:href="../../d3/d9f/class_c_operator_console_app.html#aede77af6cae8053d49c752fd95910728" target="_top" xlink:title="This function allows for reallocation of the various image buffers when we change the image size...">
<polygon fill="white" stroke="black" points="644.5,-0 644.5,-34 781.5,-34 781.5,-0 644.5,-0"/>
<text text-anchor="start" x="652.5" y="-20.4" font-family="Helvetica,sans-Serif" font-size="12.00">COperatorConsoleApp</text>
<text text-anchor="middle" x="713" y="-7.4" font-family="Helvetica,sans-Serif" font-size="12.00">::ReInit</text>
</a>
</g>
</g>
<!-- Node5&#45;&gt;Node8 -->
<g id="edge7" class="edge"><title>Node5&#45;&gt;Node8</title>
<path fill="none" stroke="midnightblue" d="M605.212,-49.9056C622.193,-44.6732 640.324,-39.0863 656.735,-34.0293"/>
<polygon fill="midnightblue" stroke="midnightblue" points="603.895,-46.6491 595.369,-52.9387 605.956,-53.3387 603.895,-46.6491"/>
</g>
<!-- Node7 -->
<g id="node7" class="node"><title>Node7</title>
<g id="a_node7"><a xlink:href="../../d3/d9f/class_c_operator_console_app.html#a94f4b258145e77e31644beb999bf099a" target="_top" xlink:title="COperatorConsoleApp initialization. ">
<polygon fill="white" stroke="black" points="818.5,-53 818.5,-87 955.5,-87 955.5,-53 818.5,-53"/>
<text text-anchor="start" x="826.5" y="-73.4" font-family="Helvetica,sans-Serif" font-size="12.00">COperatorConsoleApp</text>
<text text-anchor="middle" x="887" y="-60.4" font-family="Helvetica,sans-Serif" font-size="12.00">::InitInstance</text>
</a>
</g>
</g>
<!-- Node6&#45;&gt;Node7 -->
<g id="edge6" class="edge"><title>Node6&#45;&gt;Node7</title>
<path fill="none" stroke="midnightblue" d="M792.134,-70C800.846,-70 809.666,-70 818.233,-70"/>
<polygon fill="midnightblue" stroke="midnightblue" points="791.979,-66.5001 781.979,-70 791.979,-73.5001 791.979,-66.5001"/>
</g>
<!-- Node9 -->
<g id="node9" class="node"><title>Node9</title>
<g id="a_node9"><a xlink:href="../../d3/d9f/class_c_operator_console_app.html#a620f8d2eed65d743bb177abcb90936e6" target="_top" xlink:title="Called after MSG_SETUP is received. ">
<polygon fill="white" stroke="black" points="818.5,-0 818.5,-34 955.5,-34 955.5,-0 818.5,-0"/>
<text text-anchor="start" x="826.5" y="-20.4" font-family="Helvetica,sans-Serif" font-size="12.00">COperatorConsoleApp</text>
<text text-anchor="middle" x="887" y="-7.4" font-family="Helvetica,sans-Serif" font-size="12.00">::OnSetup</text>
</a>
</g>
</g>
<!-- Node8&#45;&gt;Node9 -->
<g id="edge8" class="edge"><title>Node8&#45;&gt;Node9</title>
<path fill="none" stroke="midnightblue" d="M792.134,-17C800.846,-17 809.666,-17 818.233,-17"/>
<polygon fill="midnightblue" stroke="midnightblue" points="791.979,-13.5001 781.979,-17 791.979,-20.5001 791.979,-13.5001"/>
</g>
<!-- Node10 -->
<g id="node10" class="node"><title>Node10</title>
<g id="a_node10"><a xlink:href="../../d3/d9f/class_c_operator_console_app.html#a7041d197c4e6549f2cb7219981b4eec1" target="_top" xlink:title="Intercepts messages of interest before Windows or MFC. ">
<polygon fill="white" stroke="black" points="992,-0 992,-34 1130,-34 1130,-0 992,-0"/>
<text text-anchor="start" x="1000" y="-20.4" font-family="Helvetica,sans-Serif" font-size="12.00">COperatorConsoleApp</text>
<text text-anchor="middle" x="1061" y="-7.4" font-family="Helvetica,sans-Serif" font-size="12.00">::PreTranslateMessage</text>
</a>
</g>
</g>
<!-- Node9&#45;&gt;Node10 -->
<g id="edge9" class="edge"><title>Node9&#45;&gt;Node10</title>
<path fill="none" stroke="midnightblue" d="M966.054,-17C974.696,-17 983.446,-17 991.952,-17"/>
<polygon fill="midnightblue" stroke="midnightblue" points="965.979,-13.5001 955.979,-17 965.979,-20.5001 965.979,-13.5001"/>
</g>
<!-- Node11&#45;&gt;Node6 -->
<g id="edge11" class="edge"><title>Node11&#45;&gt;Node6</title>
<path fill="none" stroke="midnightblue" d="M605.212,-37.0944C622.193,-42.3268 640.324,-47.9137 656.735,-52.9707"/>
<polygon fill="midnightblue" stroke="midnightblue" points="605.956,-33.6613 595.369,-34.0613 603.895,-40.3509 605.956,-33.6613"/>
</g>
<!-- Node11&#45;&gt;Node8 -->
<g id="edge12" class="edge"><title>Node11&#45;&gt;Node8</title>
<path fill="none" stroke="midnightblue" d="M618.134,-17C626.846,-17 635.666,-17 644.233,-17"/>
<polygon fill="midnightblue" stroke="midnightblue" points="617.979,-13.5001 607.979,-17 617.979,-20.5001 617.979,-13.5001"/>
</g>
</g>
</svg>
