<?xml version="1.0" encoding="UTF-8" standalone="no"?>
<!DOCTYPE svg PUBLIC "-//W3C//DTD SVG 1.1//EN"
 "http://www.w3.org/Graphics/SVG/1.1/DTD/svg11.dtd">
<!-- Generated by graphviz version 2.34.0 (20130907.0111)
 -->
<!-- Title: CriticalBuf::Set Pages: 1 -->
<svg width="836pt" height="42pt"
 viewBox="0.00 0.00 836.00 42.00" xmlns="http://www.w3.org/2000/svg" xmlns:xlink="http://www.w3.org/1999/xlink">
<g id="graph0" class="graph" transform="scale(1 1) rotate(0) translate(4 38)">
<title>CriticalBuf::Set</title>
<polygon fill="white" stroke="white" points="-4,4 -4,-38 832,-38 832,4 -4,4"/>
<!-- Node1 -->
<g id="node1" class="node"><title>Node1</title>
<polygon fill="#bfbfbf" stroke="black" points="0.5,-6.5 0.5,-27.5 95.5,-27.5 95.5,-6.5 0.5,-6.5"/>
<text text-anchor="middle" x="48" y="-13.9" font-family="Helvetica,sans-Serif" font-size="12.00">CriticalBuf::Set</text>
</g>
<!-- Node2 -->
<g id="node2" class="node"><title>Node2</title>
<g id="a_node2"><a xlink:href="../../d8/d29/class_image_acquisition.html#a87bc694942384075ece4dd9256215f0d" target="_top" xlink:title="ImageAcquisition::ThreadProc">
<polygon fill="white" stroke="black" points="132,-6.5 132,-27.5 306,-27.5 306,-6.5 132,-6.5"/>
<text text-anchor="middle" x="219" y="-13.9" font-family="Helvetica,sans-Serif" font-size="12.00">ImageAcquisition::ThreadProc</text>
</a>
</g>
</g>
<!-- Node1&#45;&gt;Node2 -->
<g id="edge1" class="edge"><title>Node1&#45;&gt;Node2</title>
<path fill="none" stroke="midnightblue" d="M105.716,-17C114.179,-17 123.06,-17 131.964,-17"/>
<polygon fill="midnightblue" stroke="midnightblue" points="105.627,-13.5001 95.6274,-17 105.627,-20.5001 105.627,-13.5001"/>
</g>
<!-- Node3 -->
<g id="node3" class="node"><title>Node3</title>
<g id="a_node3"><a xlink:href="../../d3/d9f/class_c_operator_console_app.html#ae300ef0b301d72f897e75cdf10ff9752" target="_top" xlink:title="COperatorConsoleApp\l::InitCameraThread">
<polygon fill="white" stroke="black" points="342.5,-0 342.5,-34 479.5,-34 479.5,-0 342.5,-0"/>
<text text-anchor="start" x="350.5" y="-20.4" font-family="Helvetica,sans-Serif" font-size="12.00">COperatorConsoleApp</text>
<text text-anchor="middle" x="411" y="-7.4" font-family="Helvetica,sans-Serif" font-size="12.00">::InitCameraThread</text>
</a>
</g>
</g>
<!-- Node2&#45;&gt;Node3 -->
<g id="edge2" class="edge"><title>Node2&#45;&gt;Node3</title>
<path fill="none" stroke="midnightblue" d="M316.12,-17C325,-17 333.868,-17 342.411,-17"/>
<polygon fill="midnightblue" stroke="midnightblue" points="316.105,-13.5001 306.105,-17 316.105,-20.5001 316.105,-13.5001"/>
</g>
<!-- Node4 -->
<g id="node4" class="node"><title>Node4</title>
<g id="a_node4"><a xlink:href="../../d3/d9f/class_c_operator_console_app.html#a7f0cd7b21cee2171dea973e4e6e7bb9d" target="_top" xlink:title="Init perform application&#45;specific initialization. ">
<polygon fill="white" stroke="black" points="516.5,-0 516.5,-34 653.5,-34 653.5,-0 516.5,-0"/>
<text text-anchor="start" x="524.5" y="-20.4" font-family="Helvetica,sans-Serif" font-size="12.00">COperatorConsoleApp</text>
<text text-anchor="middle" x="585" y="-7.4" font-family="Helvetica,sans-Serif" font-size="12.00">::Init</text>
</a>
</g>
</g>
<!-- Node3&#45;&gt;Node4 -->
<g id="edge3" class="edge"><title>Node3&#45;&gt;Node4</title>
<path fill="none" stroke="midnightblue" d="M490.134,-17C498.846,-17 507.666,-17 516.233,-17"/>
<polygon fill="midnightblue" stroke="midnightblue" points="489.979,-13.5001 479.979,-17 489.979,-20.5001 489.979,-13.5001"/>
</g>
<!-- Node5 -->
<g id="node5" class="node"><title>Node5</title>
<g id="a_node5"><a xlink:href="../../d3/d9f/class_c_operator_console_app.html#a94f4b258145e77e31644beb999bf099a" target="_top" xlink:title="COperatorConsoleApp initialization. ">
<polygon fill="white" stroke="black" points="690.5,-0 690.5,-34 827.5,-34 827.5,-0 690.5,-0"/>
<text text-anchor="start" x="698.5" y="-20.4" font-family="Helvetica,sans-Serif" font-size="12.00">COperatorConsoleApp</text>
<text text-anchor="middle" x="759" y="-7.4" font-family="Helvetica,sans-Serif" font-size="12.00">::InitInstance</text>
</a>
</g>
</g>
<!-- Node4&#45;&gt;Node5 -->
<g id="edge4" class="edge"><title>Node4&#45;&gt;Node5</title>
<path fill="none" stroke="midnightblue" d="M664.134,-17C672.846,-17 681.666,-17 690.233,-17"/>
<polygon fill="midnightblue" stroke="midnightblue" points="663.979,-13.5001 653.979,-17 663.979,-20.5001 663.979,-13.5001"/>
</g>
</g>
</svg>
