<?xml version="1.0" encoding="UTF-8" standalone="no"?>
<!DOCTYPE svg PUBLIC "-//W3C//DTD SVG 1.1//EN"
 "http://www.w3.org/Graphics/SVG/1.1/DTD/svg11.dtd">
<!-- Generated by graphviz version 2.34.0 (20130907.0111)
 -->
<!-- Title: CriticalBuf::Get Pages: 1 -->
<svg width="654pt" height="95pt"
 viewBox="0.00 0.00 654.00 95.00" xmlns="http://www.w3.org/2000/svg" xmlns:xlink="http://www.w3.org/1999/xlink">
<g id="graph0" class="graph" transform="scale(1 1) rotate(0) translate(4 91)">
<title>CriticalBuf::Get</title>
<polygon fill="white" stroke="white" points="-4,4 -4,-91 650,-91 650,4 -4,4"/>
<!-- Node1 -->
<g id="node1" class="node"><title>Node1</title>
<polygon fill="#bfbfbf" stroke="black" points="0.5,-32.5 0.5,-53.5 95.5,-53.5 95.5,-32.5 0.5,-32.5"/>
<text text-anchor="middle" x="48" y="-39.9" font-family="Helvetica,sans-Serif" font-size="12.00">CriticalBuf::Get</text>
</g>
<!-- Node2 -->
<g id="node2" class="node"><title>Node2</title>
<g id="a_node2"><a xlink:href="../../d8/d29/class_image_acquisition.html#a1f434970b49d88473a1b943acd6ef48e" target="_top" xlink:title="ImageAcquisition::GetFrame">
<polygon fill="white" stroke="black" points="132,-32.5 132,-53.5 298,-53.5 298,-32.5 132,-32.5"/>
<text text-anchor="middle" x="215" y="-39.9" font-family="Helvetica,sans-Serif" font-size="12.00">ImageAcquisition::GetFrame</text>
</a>
</g>
</g>
<!-- Node1&#45;&gt;Node2 -->
<g id="edge1" class="edge"><title>Node1&#45;&gt;Node2</title>
<path fill="none" stroke="midnightblue" d="M106.114,-43C114.408,-43 123.08,-43 131.749,-43"/>
<polygon fill="midnightblue" stroke="midnightblue" points="105.841,-39.5001 95.841,-43 105.841,-46.5001 105.841,-39.5001"/>
</g>
<!-- Node3 -->
<g id="node3" class="node"><title>Node3</title>
<g id="a_node3"><a xlink:href="../../d3/d9f/class_c_operator_console_app.html#a55ce42948d0ff61bbc0dc9aeb83855f7" target="_top" xlink:title="Called after MSG_RUN_TEST is received. ">
<polygon fill="white" stroke="black" points="334.5,-53 334.5,-87 471.5,-87 471.5,-53 334.5,-53"/>
<text text-anchor="start" x="342.5" y="-73.4" font-family="Helvetica,sans-Serif" font-size="12.00">COperatorConsoleApp</text>
<text text-anchor="middle" x="403" y="-60.4" font-family="Helvetica,sans-Serif" font-size="12.00">::OnRunTest</text>
</a>
</g>
</g>
<!-- Node2&#45;&gt;Node3 -->
<g id="edge2" class="edge"><title>Node2&#45;&gt;Node3</title>
<path fill="none" stroke="midnightblue" d="M298.444,-54.9676C310.434,-56.7082 322.662,-58.4832 334.315,-60.1748"/>
<polygon fill="midnightblue" stroke="midnightblue" points="298.844,-51.4892 288.445,-53.5162 297.839,-58.4166 298.844,-51.4892"/>
</g>
<!-- Node5 -->
<g id="node5" class="node"><title>Node5</title>
<g id="a_node5"><a xlink:href="../../d3/d9f/class_c_operator_console_app.html#a02d49d758d0b69a772df7b6ed00a013a" target="_top" xlink:title="Called after MSG_FRAME_READY is received. ">
<polygon fill="white" stroke="black" points="334.5,-0 334.5,-34 471.5,-34 471.5,-0 334.5,-0"/>
<text text-anchor="start" x="342.5" y="-20.4" font-family="Helvetica,sans-Serif" font-size="12.00">COperatorConsoleApp</text>
<text text-anchor="middle" x="403" y="-7.4" font-family="Helvetica,sans-Serif" font-size="12.00">::OnFrameReady</text>
</a>
</g>
</g>
<!-- Node2&#45;&gt;Node5 -->
<g id="edge4" class="edge"><title>Node2&#45;&gt;Node5</title>
<path fill="none" stroke="midnightblue" d="M301.262,-31.0816C312.375,-29.5283 323.635,-27.9542 334.404,-26.4489"/>
<polygon fill="midnightblue" stroke="midnightblue" points="300.536,-27.649 291.117,-32.4997 301.505,-34.5816 300.536,-27.649"/>
</g>
<!-- Node4 -->
<g id="node4" class="node"><title>Node4</title>
<g id="a_node4"><a xlink:href="../../d3/d9f/class_c_operator_console_app.html#a7041d197c4e6549f2cb7219981b4eec1" target="_top" xlink:title="Intercepts messages of interest before Windows or MFC. ">
<polygon fill="white" stroke="black" points="508,-26 508,-60 646,-60 646,-26 508,-26"/>
<text text-anchor="start" x="516" y="-46.4" font-family="Helvetica,sans-Serif" font-size="12.00">COperatorConsoleApp</text>
<text text-anchor="middle" x="577" y="-33.4" font-family="Helvetica,sans-Serif" font-size="12.00">::PreTranslateMessage</text>
</a>
</g>
</g>
<!-- Node3&#45;&gt;Node4 -->
<g id="edge3" class="edge"><title>Node3&#45;&gt;Node4</title>
<path fill="none" stroke="midnightblue" d="M482.054,-57.7474C490.696,-56.3907 499.446,-55.0171 507.952,-53.682"/>
<polygon fill="midnightblue" stroke="midnightblue" points="481.315,-54.3204 471.979,-59.3289 482.401,-61.2357 481.315,-54.3204"/>
</g>
<!-- Node5&#45;&gt;Node4 -->
<g id="edge5" class="edge"><title>Node5&#45;&gt;Node4</title>
<path fill="none" stroke="midnightblue" d="M482.054,-28.7988C490.696,-30.1052 499.446,-31.4279 507.952,-32.7136"/>
<polygon fill="midnightblue" stroke="midnightblue" points="482.39,-25.3099 471.979,-27.2759 481.343,-32.2313 482.39,-25.3099"/>
</g>
</g>
</svg>
