<?xml version="1.0" encoding="UTF-8" standalone="no"?>
<!DOCTYPE svg PUBLIC "-//W3C//DTD SVG 1.1//EN"
 "http://www.w3.org/Graphics/SVG/1.1/DTD/svg11.dtd">
<!-- Generated by graphviz version 2.34.0 (20130907.0111)
 -->
<!-- Title: CriticalBuf::Init Pages: 1 -->
<svg width="1110pt" height="148pt"
 viewBox="0.00 0.00 1110.00 148.00" xmlns="http://www.w3.org/2000/svg" xmlns:xlink="http://www.w3.org/1999/xlink">
<g id="graph0" class="graph" transform="scale(1 1) rotate(0) translate(4 144)">
<title>CriticalBuf::Init</title>
<polygon fill="white" stroke="white" points="-4,4 -4,-144 1106,-144 1106,4 -4,4"/>
<!-- Node1 -->
<g id="node1" class="node"><title>Node1</title>
<polygon fill="#bfbfbf" stroke="black" points="0.5,-59.5 0.5,-80.5 91.5,-80.5 91.5,-59.5 0.5,-59.5"/>
<text text-anchor="middle" x="46" y="-66.9" font-family="Helvetica,sans-Serif" font-size="12.00">CriticalBuf::Init</text>
</g>
<!-- Node2 -->
<g id="node2" class="node"><title>Node2</title>
<g id="a_node2"><a xlink:href="../../d8/d29/class_image_acquisition.html#a09e47283e2ae3e6c352b8842bde2332a" target="_top" xlink:title="may be overridden, but be sure to call parent function also ">
<polygon fill="white" stroke="black" points="128.5,-59.5 128.5,-80.5 255.5,-80.5 255.5,-59.5 128.5,-59.5"/>
<text text-anchor="middle" x="192" y="-66.9" font-family="Helvetica,sans-Serif" font-size="12.00">ImageAcquisition::Init</text>
</a>
</g>
</g>
<!-- Node1&#45;&gt;Node2 -->
<g id="edge1" class="edge"><title>Node1&#45;&gt;Node2</title>
<path fill="none" stroke="midnightblue" d="M102.036,-70C110.618,-70 119.541,-70 128.278,-70"/>
<polygon fill="midnightblue" stroke="midnightblue" points="101.773,-66.5001 91.7731,-70 101.773,-73.5001 101.773,-66.5001"/>
</g>
<!-- Node3 -->
<g id="node3" class="node"><title>Node3</title>
<g id="a_node3"><a xlink:href="../../dc/d78/class_file_acq.html#afa3f029144b805b817b87dcae7fde0e6" target="_top" xlink:title="Loads a file first into the CImage object m_image, and then into m_buf inherited from class ImageAcqu...">
<polygon fill="white" stroke="black" points="303,-99.5 303,-120.5 395,-120.5 395,-99.5 303,-99.5"/>
<text text-anchor="middle" x="349" y="-106.9" font-family="Helvetica,sans-Serif" font-size="12.00">FileAcq::Open</text>
</a>
</g>
</g>
<!-- Node2&#45;&gt;Node3 -->
<g id="edge2" class="edge"><title>Node2&#45;&gt;Node3</title>
<path fill="none" stroke="midnightblue" d="M243.592,-83.0561C264.232,-88.3823 287.778,-94.4587 307.279,-99.4913"/>
<polygon fill="midnightblue" stroke="midnightblue" points="244.282,-79.6194 233.724,-80.5095 242.533,-86.3974 244.282,-79.6194"/>
</g>
<!-- Node4 -->
<g id="node4" class="node"><title>Node4</title>
<g id="a_node4"><a xlink:href="../../db/def/class_file_acquisition.html#a797827242308ce8dba037e6c36ca4b30" target="_top" xlink:title="Initializes the buffers inherited from class ImageAcquisition with 2 bytes per pixel. ">
<polygon fill="white" stroke="black" points="292,-59.5 292,-80.5 406,-80.5 406,-59.5 292,-59.5"/>
<text text-anchor="middle" x="349" y="-66.9" font-family="Helvetica,sans-Serif" font-size="12.00">FileAcquisition::Init</text>
</a>
</g>
</g>
<!-- Node2&#45;&gt;Node4 -->
<g id="edge3" class="edge"><title>Node2&#45;&gt;Node4</title>
<path fill="none" stroke="midnightblue" d="M265.754,-70C274.46,-70 283.245,-70 291.67,-70"/>
<polygon fill="midnightblue" stroke="midnightblue" points="265.598,-66.5001 255.598,-70 265.598,-73.5001 265.598,-66.5001"/>
</g>
<!-- Node12 -->
<g id="node12" class="node"><title>Node12</title>
<g id="a_node12"><a xlink:href="../../d3/d9f/class_c_operator_console_app.html#a74df2a3e42b3980069fa3946b67ecf79" target="_top" xlink:title="COperatorConsoleApp\l::InitCamera">
<polygon fill="white" stroke="black" points="442.5,-0 442.5,-34 579.5,-34 579.5,-0 442.5,-0"/>
<text text-anchor="start" x="450.5" y="-20.4" font-family="Helvetica,sans-Serif" font-size="12.00">COperatorConsoleApp</text>
<text text-anchor="middle" x="511" y="-7.4" font-family="Helvetica,sans-Serif" font-size="12.00">::InitCamera</text>
</a>
</g>
</g>
<!-- Node2&#45;&gt;Node12 -->
<g id="edge13" class="edge"><title>Node2&#45;&gt;Node12</title>
<path fill="none" stroke="midnightblue" d="M252.915,-57.4039C265.787,-54.8358 279.329,-52.2376 292,-50 342.135,-41.1468 399.017,-32.5855 442.104,-26.4024"/>
<polygon fill="midnightblue" stroke="midnightblue" points="251.877,-54.0428 242.765,-59.4497 253.26,-60.9048 251.877,-54.0428"/>
</g>
<!-- Node5 -->
<g id="node5" class="node"><title>Node5</title>
<g id="a_node5"><a xlink:href="../../d3/d9f/class_c_operator_console_app.html#a8edea834120ba2acc0e16230ff5efb14" target="_top" xlink:title="COperatorConsoleApp\l::InitBlemishAcq">
<polygon fill="white" stroke="black" points="442.5,-53 442.5,-87 579.5,-87 579.5,-53 442.5,-53"/>
<text text-anchor="start" x="450.5" y="-73.4" font-family="Helvetica,sans-Serif" font-size="12.00">COperatorConsoleApp</text>
<text text-anchor="middle" x="511" y="-60.4" font-family="Helvetica,sans-Serif" font-size="12.00">::InitBlemishAcq</text>
</a>
</g>
</g>
<!-- Node4&#45;&gt;Node5 -->
<g id="edge4" class="edge"><title>Node4&#45;&gt;Node5</title>
<path fill="none" stroke="midnightblue" d="M416.63,-70C425.115,-70 433.806,-70 442.308,-70"/>
<polygon fill="midnightblue" stroke="midnightblue" points="416.41,-66.5001 406.41,-70 416.41,-73.5001 416.41,-66.5001"/>
</g>
<!-- Node11 -->
<g id="node11" class="node"><title>Node11</title>
<g id="a_node11"><a xlink:href="../../d3/d9f/class_c_operator_console_app.html#a7e42ecea8d8270d3b3cf9552abc00eba" target="_top" xlink:title="COperatorConsoleApp\l::InitSFRplusAcq">
<polygon fill="white" stroke="black" points="442.5,-106 442.5,-140 579.5,-140 579.5,-106 442.5,-106"/>
<text text-anchor="start" x="450.5" y="-126.4" font-family="Helvetica,sans-Serif" font-size="12.00">COperatorConsoleApp</text>
<text text-anchor="middle" x="511" y="-113.4" font-family="Helvetica,sans-Serif" font-size="12.00">::InitSFRplusAcq</text>
</a>
</g>
</g>
<!-- Node4&#45;&gt;Node11 -->
<g id="edge10" class="edge"><title>Node4&#45;&gt;Node11</title>
<path fill="none" stroke="midnightblue" d="M391.645,-83.7951C412.09,-90.5674 436.913,-98.79 458.536,-105.952"/>
<polygon fill="midnightblue" stroke="midnightblue" points="392.587,-80.42 381.994,-80.598 390.386,-87.065 392.587,-80.42"/>
</g>
<!-- Node6 -->
<g id="node6" class="node"><title>Node6</title>
<g id="a_node6"><a xlink:href="../../d3/d9f/class_c_operator_console_app.html#a7f0cd7b21cee2171dea973e4e6e7bb9d" target="_top" xlink:title="Init perform application&#45;specific initialization. ">
<polygon fill="white" stroke="black" points="616.5,-79 616.5,-113 753.5,-113 753.5,-79 616.5,-79"/>
<text text-anchor="start" x="624.5" y="-99.4" font-family="Helvetica,sans-Serif" font-size="12.00">COperatorConsoleApp</text>
<text text-anchor="middle" x="685" y="-86.4" font-family="Helvetica,sans-Serif" font-size="12.00">::Init</text>
</a>
</g>
</g>
<!-- Node5&#45;&gt;Node6 -->
<g id="edge5" class="edge"><title>Node5&#45;&gt;Node6</title>
<path fill="none" stroke="midnightblue" d="M590.134,-81.811C598.846,-83.1279 607.666,-84.4611 616.233,-85.7562"/>
<polygon fill="midnightblue" stroke="midnightblue" points="590.39,-78.3099 579.979,-80.2759 589.343,-85.2313 590.39,-78.3099"/>
</g>
<!-- Node8 -->
<g id="node8" class="node"><title>Node8</title>
<g id="a_node8"><a xlink:href="../../d3/d9f/class_c_operator_console_app.html#aede77af6cae8053d49c752fd95910728" target="_top" xlink:title="This function allows for reallocation of the various image buffers when we change the image size...">
<polygon fill="white" stroke="black" points="616.5,-26 616.5,-60 753.5,-60 753.5,-26 616.5,-26"/>
<text text-anchor="start" x="624.5" y="-46.4" font-family="Helvetica,sans-Serif" font-size="12.00">COperatorConsoleApp</text>
<text text-anchor="middle" x="685" y="-33.4" font-family="Helvetica,sans-Serif" font-size="12.00">::ReInit</text>
</a>
</g>
</g>
<!-- Node5&#45;&gt;Node8 -->
<g id="edge7" class="edge"><title>Node5&#45;&gt;Node8</title>
<path fill="none" stroke="midnightblue" d="M590.134,-57.7348C598.846,-56.3672 607.666,-54.9827 616.233,-53.6378"/>
<polygon fill="midnightblue" stroke="midnightblue" points="589.315,-54.3204 579.979,-59.3289 590.401,-61.2357 589.315,-54.3204"/>
</g>
<!-- Node7 -->
<g id="node7" class="node"><title>Node7</title>
<g id="a_node7"><a xlink:href="../../d3/d9f/class_c_operator_console_app.html#a94f4b258145e77e31644beb999bf099a" target="_top" xlink:title="COperatorConsoleApp initialization. ">
<polygon fill="white" stroke="black" points="790.5,-79 790.5,-113 927.5,-113 927.5,-79 790.5,-79"/>
<text text-anchor="start" x="798.5" y="-99.4" font-family="Helvetica,sans-Serif" font-size="12.00">COperatorConsoleApp</text>
<text text-anchor="middle" x="859" y="-86.4" font-family="Helvetica,sans-Serif" font-size="12.00">::InitInstance</text>
</a>
</g>
</g>
<!-- Node6&#45;&gt;Node7 -->
<g id="edge6" class="edge"><title>Node6&#45;&gt;Node7</title>
<path fill="none" stroke="midnightblue" d="M764.134,-96C772.846,-96 781.666,-96 790.233,-96"/>
<polygon fill="midnightblue" stroke="midnightblue" points="763.979,-92.5001 753.979,-96 763.979,-99.5001 763.979,-92.5001"/>
</g>
<!-- Node9 -->
<g id="node9" class="node"><title>Node9</title>
<g id="a_node9"><a xlink:href="../../d3/d9f/class_c_operator_console_app.html#a620f8d2eed65d743bb177abcb90936e6" target="_top" xlink:title="Called after MSG_SETUP is received. ">
<polygon fill="white" stroke="black" points="790.5,-26 790.5,-60 927.5,-60 927.5,-26 790.5,-26"/>
<text text-anchor="start" x="798.5" y="-46.4" font-family="Helvetica,sans-Serif" font-size="12.00">COperatorConsoleApp</text>
<text text-anchor="middle" x="859" y="-33.4" font-family="Helvetica,sans-Serif" font-size="12.00">::OnSetup</text>
</a>
</g>
</g>
<!-- Node8&#45;&gt;Node9 -->
<g id="edge8" class="edge"><title>Node8&#45;&gt;Node9</title>
<path fill="none" stroke="midnightblue" d="M764.134,-43C772.846,-43 781.666,-43 790.233,-43"/>
<polygon fill="midnightblue" stroke="midnightblue" points="763.979,-39.5001 753.979,-43 763.979,-46.5001 763.979,-39.5001"/>
</g>
<!-- Node10 -->
<g id="node10" class="node"><title>Node10</title>
<g id="a_node10"><a xlink:href="../../d3/d9f/class_c_operator_console_app.html#a7041d197c4e6549f2cb7219981b4eec1" target="_top" xlink:title="Intercepts messages of interest before Windows or MFC. ">
<polygon fill="white" stroke="black" points="964,-26 964,-60 1102,-60 1102,-26 964,-26"/>
<text text-anchor="start" x="972" y="-46.4" font-family="Helvetica,sans-Serif" font-size="12.00">COperatorConsoleApp</text>
<text text-anchor="middle" x="1033" y="-33.4" font-family="Helvetica,sans-Serif" font-size="12.00">::PreTranslateMessage</text>
</a>
</g>
</g>
<!-- Node9&#45;&gt;Node10 -->
<g id="edge9" class="edge"><title>Node9&#45;&gt;Node10</title>
<path fill="none" stroke="midnightblue" d="M938.054,-43C946.696,-43 955.446,-43 963.952,-43"/>
<polygon fill="midnightblue" stroke="midnightblue" points="937.979,-39.5001 927.979,-43 937.979,-46.5001 937.979,-39.5001"/>
</g>
<!-- Node11&#45;&gt;Node6 -->
<g id="edge11" class="edge"><title>Node11&#45;&gt;Node6</title>
<path fill="none" stroke="midnightblue" d="M590.134,-110.735C598.846,-109.367 607.666,-107.983 616.233,-106.638"/>
<polygon fill="midnightblue" stroke="midnightblue" points="589.315,-107.32 579.979,-112.329 590.401,-114.236 589.315,-107.32"/>
</g>
<!-- Node11&#45;&gt;Node8 -->
<g id="edge12" class="edge"><title>Node11&#45;&gt;Node8</title>
<path fill="none" stroke="midnightblue" d="M568.669,-101.756C572.555,-99.9166 576.367,-97.993 580,-96 597.304,-86.5079 598.696,-79.4921 616,-70 622.459,-66.4568 629.482,-63.1332 636.482,-60.1115"/>
<polygon fill="midnightblue" stroke="midnightblue" points="567.192,-98.583 559.518,-105.888 570.073,-104.963 567.192,-98.583"/>
</g>
<!-- Node12&#45;&gt;Node6 -->
<g id="edge14" class="edge"><title>Node12&#45;&gt;Node6</title>
<path fill="none" stroke="midnightblue" d="M568.426,-38.2268C572.391,-40.0767 576.285,-42.0069 580,-44 597.165,-53.2102 598.835,-59.7898 616,-69 622.604,-72.5434 629.775,-75.8876 636.902,-78.9362"/>
<polygon fill="midnightblue" stroke="midnightblue" points="569.656,-34.9429 559.098,-34.0638 566.803,-41.3352 569.656,-34.9429"/>
</g>
<!-- Node12&#45;&gt;Node8 -->
<g id="edge15" class="edge"><title>Node12&#45;&gt;Node8</title>
<path fill="none" stroke="midnightblue" d="M590.134,-28.811C598.846,-30.1279 607.666,-31.4611 616.233,-32.7562"/>
<polygon fill="midnightblue" stroke="midnightblue" points="590.39,-25.3099 579.979,-27.2759 589.343,-32.2313 590.39,-25.3099"/>
</g>
</g>
</svg>
