<?xml version="1.0" encoding="UTF-8" standalone="no"?>
<!DOCTYPE svg PUBLIC "-//W3C//DTD SVG 1.1//EN"
 "http://www.w3.org/Graphics/SVG/1.1/DTD/svg11.dtd">
<!-- Generated by graphviz version 2.34.0 (20130907.0111)
 -->
<!-- Title: FileAcquisition::Open Pages: 1 -->
<svg width="832pt" height="95pt"
 viewBox="0.00 0.00 832.00 95.00" xmlns="http://www.w3.org/2000/svg" xmlns:xlink="http://www.w3.org/1999/xlink">
<g id="graph0" class="graph" transform="scale(1 1) rotate(0) translate(4 91)">
<title>FileAcquisition::Open</title>
<polygon fill="white" stroke="white" points="-4,4 -4,-91 828,-91 828,4 -4,4"/>
<!-- Node1 -->
<g id="node1" class="node"><title>Node1</title>
<polygon fill="#bfbfbf" stroke="black" points="0,-32.5 0,-53.5 128,-53.5 128,-32.5 0,-32.5"/>
<text text-anchor="middle" x="64" y="-39.9" font-family="Helvetica,sans-Serif" font-size="12.00">FileAcquisition::Open</text>
</g>
<!-- Node2 -->
<g id="node2" class="node"><title>Node2</title>
<g id="a_node2"><a xlink:href="../../d3/d9f/class_c_operator_console_app.html#a8edea834120ba2acc0e16230ff5efb14" target="_top" xlink:title="COperatorConsoleApp\l::InitBlemishAcq">
<polygon fill="white" stroke="black" points="164.5,-53 164.5,-87 301.5,-87 301.5,-53 164.5,-53"/>
<text text-anchor="start" x="172.5" y="-73.4" font-family="Helvetica,sans-Serif" font-size="12.00">COperatorConsoleApp</text>
<text text-anchor="middle" x="233" y="-60.4" font-family="Helvetica,sans-Serif" font-size="12.00">::InitBlemishAcq</text>
</a>
</g>
</g>
<!-- Node1&#45;&gt;Node2 -->
<g id="edge1" class="edge"><title>Node1&#45;&gt;Node2</title>
<path fill="none" stroke="midnightblue" d="M138.226,-54.8389C146.9,-56.2412 155.723,-57.6679 164.315,-59.057"/>
<polygon fill="midnightblue" stroke="midnightblue" points="138.566,-51.3485 128.136,-53.2075 137.449,-58.2588 138.566,-51.3485"/>
</g>
<!-- Node8 -->
<g id="node8" class="node"><title>Node8</title>
<g id="a_node8"><a xlink:href="../../d3/d9f/class_c_operator_console_app.html#a7e42ecea8d8270d3b3cf9552abc00eba" target="_top" xlink:title="COperatorConsoleApp\l::InitSFRplusAcq">
<polygon fill="white" stroke="black" points="164.5,-0 164.5,-34 301.5,-34 301.5,-0 164.5,-0"/>
<text text-anchor="start" x="172.5" y="-20.4" font-family="Helvetica,sans-Serif" font-size="12.00">COperatorConsoleApp</text>
<text text-anchor="middle" x="233" y="-7.4" font-family="Helvetica,sans-Serif" font-size="12.00">::InitSFRplusAcq</text>
</a>
</g>
</g>
<!-- Node1&#45;&gt;Node8 -->
<g id="edge7" class="edge"><title>Node1&#45;&gt;Node8</title>
<path fill="none" stroke="midnightblue" d="M138.226,-31.5996C146.9,-30.2492 155.723,-28.8754 164.315,-27.5377"/>
<polygon fill="midnightblue" stroke="midnightblue" points="137.478,-28.1737 128.136,-33.1705 138.555,-35.0904 137.478,-28.1737"/>
</g>
<!-- Node3 -->
<g id="node3" class="node"><title>Node3</title>
<g id="a_node3"><a xlink:href="../../d3/d9f/class_c_operator_console_app.html#a7f0cd7b21cee2171dea973e4e6e7bb9d" target="_top" xlink:title="Init perform application&#45;specific initialization. ">
<polygon fill="white" stroke="black" points="338.5,-53 338.5,-87 475.5,-87 475.5,-53 338.5,-53"/>
<text text-anchor="start" x="346.5" y="-73.4" font-family="Helvetica,sans-Serif" font-size="12.00">COperatorConsoleApp</text>
<text text-anchor="middle" x="407" y="-60.4" font-family="Helvetica,sans-Serif" font-size="12.00">::Init</text>
</a>
</g>
</g>
<!-- Node2&#45;&gt;Node3 -->
<g id="edge2" class="edge"><title>Node2&#45;&gt;Node3</title>
<path fill="none" stroke="midnightblue" d="M312.134,-70C320.846,-70 329.666,-70 338.233,-70"/>
<polygon fill="midnightblue" stroke="midnightblue" points="311.979,-66.5001 301.979,-70 311.979,-73.5001 311.979,-66.5001"/>
</g>
<!-- Node5 -->
<g id="node5" class="node"><title>Node5</title>
<g id="a_node5"><a xlink:href="../../d3/d9f/class_c_operator_console_app.html#aede77af6cae8053d49c752fd95910728" target="_top" xlink:title="This function allows for reallocation of the various image buffers when we change the image size...">
<polygon fill="white" stroke="black" points="338.5,-0 338.5,-34 475.5,-34 475.5,-0 338.5,-0"/>
<text text-anchor="start" x="346.5" y="-20.4" font-family="Helvetica,sans-Serif" font-size="12.00">COperatorConsoleApp</text>
<text text-anchor="middle" x="407" y="-7.4" font-family="Helvetica,sans-Serif" font-size="12.00">::ReInit</text>
</a>
</g>
</g>
<!-- Node2&#45;&gt;Node5 -->
<g id="edge4" class="edge"><title>Node2&#45;&gt;Node5</title>
<path fill="none" stroke="midnightblue" d="M299.212,-49.9056C316.193,-44.6732 334.324,-39.0863 350.735,-34.0293"/>
<polygon fill="midnightblue" stroke="midnightblue" points="297.895,-46.6491 289.369,-52.9387 299.956,-53.3387 297.895,-46.6491"/>
</g>
<!-- Node4 -->
<g id="node4" class="node"><title>Node4</title>
<g id="a_node4"><a xlink:href="../../d3/d9f/class_c_operator_console_app.html#a94f4b258145e77e31644beb999bf099a" target="_top" xlink:title="COperatorConsoleApp initialization. ">
<polygon fill="white" stroke="black" points="512.5,-53 512.5,-87 649.5,-87 649.5,-53 512.5,-53"/>
<text text-anchor="start" x="520.5" y="-73.4" font-family="Helvetica,sans-Serif" font-size="12.00">COperatorConsoleApp</text>
<text text-anchor="middle" x="581" y="-60.4" font-family="Helvetica,sans-Serif" font-size="12.00">::InitInstance</text>
</a>
</g>
</g>
<!-- Node3&#45;&gt;Node4 -->
<g id="edge3" class="edge"><title>Node3&#45;&gt;Node4</title>
<path fill="none" stroke="midnightblue" d="M486.134,-70C494.846,-70 503.666,-70 512.233,-70"/>
<polygon fill="midnightblue" stroke="midnightblue" points="485.979,-66.5001 475.979,-70 485.979,-73.5001 485.979,-66.5001"/>
</g>
<!-- Node6 -->
<g id="node6" class="node"><title>Node6</title>
<g id="a_node6"><a xlink:href="../../d3/d9f/class_c_operator_console_app.html#a620f8d2eed65d743bb177abcb90936e6" target="_top" xlink:title="Called after MSG_SETUP is received. ">
<polygon fill="white" stroke="black" points="512.5,-0 512.5,-34 649.5,-34 649.5,-0 512.5,-0"/>
<text text-anchor="start" x="520.5" y="-20.4" font-family="Helvetica,sans-Serif" font-size="12.00">COperatorConsoleApp</text>
<text text-anchor="middle" x="581" y="-7.4" font-family="Helvetica,sans-Serif" font-size="12.00">::OnSetup</text>
</a>
</g>
</g>
<!-- Node5&#45;&gt;Node6 -->
<g id="edge5" class="edge"><title>Node5&#45;&gt;Node6</title>
<path fill="none" stroke="midnightblue" d="M486.134,-17C494.846,-17 503.666,-17 512.233,-17"/>
<polygon fill="midnightblue" stroke="midnightblue" points="485.979,-13.5001 475.979,-17 485.979,-20.5001 485.979,-13.5001"/>
</g>
<!-- Node7 -->
<g id="node7" class="node"><title>Node7</title>
<g id="a_node7"><a xlink:href="../../d3/d9f/class_c_operator_console_app.html#a7041d197c4e6549f2cb7219981b4eec1" target="_top" xlink:title="Intercepts messages of interest before Windows or MFC. ">
<polygon fill="white" stroke="black" points="686,-0 686,-34 824,-34 824,-0 686,-0"/>
<text text-anchor="start" x="694" y="-20.4" font-family="Helvetica,sans-Serif" font-size="12.00">COperatorConsoleApp</text>
<text text-anchor="middle" x="755" y="-7.4" font-family="Helvetica,sans-Serif" font-size="12.00">::PreTranslateMessage</text>
</a>
</g>
</g>
<!-- Node6&#45;&gt;Node7 -->
<g id="edge6" class="edge"><title>Node6&#45;&gt;Node7</title>
<path fill="none" stroke="midnightblue" d="M660.054,-17C668.696,-17 677.446,-17 685.952,-17"/>
<polygon fill="midnightblue" stroke="midnightblue" points="659.979,-13.5001 649.979,-17 659.979,-20.5001 659.979,-13.5001"/>
</g>
<!-- Node8&#45;&gt;Node3 -->
<g id="edge8" class="edge"><title>Node8&#45;&gt;Node3</title>
<path fill="none" stroke="midnightblue" d="M299.212,-37.0944C316.193,-42.3268 334.324,-47.9137 350.735,-52.9707"/>
<polygon fill="midnightblue" stroke="midnightblue" points="299.956,-33.6613 289.369,-34.0613 297.895,-40.3509 299.956,-33.6613"/>
</g>
<!-- Node8&#45;&gt;Node5 -->
<g id="edge9" class="edge"><title>Node8&#45;&gt;Node5</title>
<path fill="none" stroke="midnightblue" d="M312.134,-17C320.846,-17 329.666,-17 338.233,-17"/>
<polygon fill="midnightblue" stroke="midnightblue" points="311.979,-13.5001 301.979,-17 311.979,-20.5001 311.979,-13.5001"/>
</g>
</g>
</svg>
