<?xml version="1.0" encoding="UTF-8" standalone="no"?>
<!DOCTYPE svg PUBLIC "-//W3C//DTD SVG 1.1//EN"
 "http://www.w3.org/Graphics/SVG/1.1/DTD/svg11.dtd">
<!-- Generated by graphviz version 2.34.0 (20130907.0111)
 -->
<!-- Title: FileAcquisition::Init Pages: 1 -->
<svg width="818pt" height="95pt"
 viewBox="0.00 0.00 818.00 95.00" xmlns="http://www.w3.org/2000/svg" xmlns:xlink="http://www.w3.org/1999/xlink">
<g id="graph0" class="graph" transform="scale(1 1) rotate(0) translate(4 91)">
<title>FileAcquisition::Init</title>
<polygon fill="white" stroke="white" points="-4,4 -4,-91 814,-91 814,4 -4,4"/>
<!-- Node1 -->
<g id="node1" class="node"><title>Node1</title>
<polygon fill="#bfbfbf" stroke="black" points="0,-32.5 0,-53.5 114,-53.5 114,-32.5 0,-32.5"/>
<text text-anchor="middle" x="57" y="-39.9" font-family="Helvetica,sans-Serif" font-size="12.00">FileAcquisition::Init</text>
</g>
<!-- Node2 -->
<g id="node2" class="node"><title>Node2</title>
<g id="a_node2"><a xlink:href="../../d3/d9f/class_c_operator_console_app.html#a8edea834120ba2acc0e16230ff5efb14" target="_top" xlink:title="COperatorConsoleApp\l::InitBlemishAcq">
<polygon fill="white" stroke="black" points="150.5,-53 150.5,-87 287.5,-87 287.5,-53 150.5,-53"/>
<text text-anchor="start" x="158.5" y="-73.4" font-family="Helvetica,sans-Serif" font-size="12.00">COperatorConsoleApp</text>
<text text-anchor="middle" x="219" y="-60.4" font-family="Helvetica,sans-Serif" font-size="12.00">::InitBlemishAcq</text>
</a>
</g>
</g>
<!-- Node1&#45;&gt;Node2 -->
<g id="edge1" class="edge"><title>Node1&#45;&gt;Node2</title>
<path fill="none" stroke="midnightblue" d="M124.351,-54.1967C132.924,-55.6435 141.713,-57.1266 150.308,-58.5769"/>
<polygon fill="midnightblue" stroke="midnightblue" points="124.853,-50.732 114.41,-52.5192 123.688,-57.6345 124.853,-50.732"/>
</g>
<!-- Node8 -->
<g id="node8" class="node"><title>Node8</title>
<g id="a_node8"><a xlink:href="../../d3/d9f/class_c_operator_console_app.html#a7e42ecea8d8270d3b3cf9552abc00eba" target="_top" xlink:title="COperatorConsoleApp\l::InitSFRplusAcq">
<polygon fill="white" stroke="black" points="150.5,-0 150.5,-34 287.5,-34 287.5,-0 150.5,-0"/>
<text text-anchor="start" x="158.5" y="-20.4" font-family="Helvetica,sans-Serif" font-size="12.00">COperatorConsoleApp</text>
<text text-anchor="middle" x="219" y="-7.4" font-family="Helvetica,sans-Serif" font-size="12.00">::InitSFRplusAcq</text>
</a>
</g>
</g>
<!-- Node1&#45;&gt;Node8 -->
<g id="edge7" class="edge"><title>Node1&#45;&gt;Node8</title>
<path fill="none" stroke="midnightblue" d="M124.351,-32.218C132.924,-30.8248 141.713,-29.3966 150.308,-28"/>
<polygon fill="midnightblue" stroke="midnightblue" points="123.719,-28.7746 114.41,-33.8334 124.842,-35.684 123.719,-28.7746"/>
</g>
<!-- Node3 -->
<g id="node3" class="node"><title>Node3</title>
<g id="a_node3"><a xlink:href="../../d3/d9f/class_c_operator_console_app.html#a7f0cd7b21cee2171dea973e4e6e7bb9d" target="_top" xlink:title="Init perform application&#45;specific initialization. ">
<polygon fill="white" stroke="black" points="324.5,-53 324.5,-87 461.5,-87 461.5,-53 324.5,-53"/>
<text text-anchor="start" x="332.5" y="-73.4" font-family="Helvetica,sans-Serif" font-size="12.00">COperatorConsoleApp</text>
<text text-anchor="middle" x="393" y="-60.4" font-family="Helvetica,sans-Serif" font-size="12.00">::Init</text>
</a>
</g>
</g>
<!-- Node2&#45;&gt;Node3 -->
<g id="edge2" class="edge"><title>Node2&#45;&gt;Node3</title>
<path fill="none" stroke="midnightblue" d="M298.134,-70C306.846,-70 315.666,-70 324.233,-70"/>
<polygon fill="midnightblue" stroke="midnightblue" points="297.979,-66.5001 287.979,-70 297.979,-73.5001 297.979,-66.5001"/>
</g>
<!-- Node5 -->
<g id="node5" class="node"><title>Node5</title>
<g id="a_node5"><a xlink:href="../../d3/d9f/class_c_operator_console_app.html#aede77af6cae8053d49c752fd95910728" target="_top" xlink:title="This function allows for reallocation of the various image buffers when we change the image size...">
<polygon fill="white" stroke="black" points="324.5,-0 324.5,-34 461.5,-34 461.5,-0 324.5,-0"/>
<text text-anchor="start" x="332.5" y="-20.4" font-family="Helvetica,sans-Serif" font-size="12.00">COperatorConsoleApp</text>
<text text-anchor="middle" x="393" y="-7.4" font-family="Helvetica,sans-Serif" font-size="12.00">::ReInit</text>
</a>
</g>
</g>
<!-- Node2&#45;&gt;Node5 -->
<g id="edge4" class="edge"><title>Node2&#45;&gt;Node5</title>
<path fill="none" stroke="midnightblue" d="M285.212,-49.9056C302.193,-44.6732 320.324,-39.0863 336.735,-34.0293"/>
<polygon fill="midnightblue" stroke="midnightblue" points="283.895,-46.6491 275.369,-52.9387 285.956,-53.3387 283.895,-46.6491"/>
</g>
<!-- Node4 -->
<g id="node4" class="node"><title>Node4</title>
<g id="a_node4"><a xlink:href="../../d3/d9f/class_c_operator_console_app.html#a94f4b258145e77e31644beb999bf099a" target="_top" xlink:title="COperatorConsoleApp initialization. ">
<polygon fill="white" stroke="black" points="498.5,-53 498.5,-87 635.5,-87 635.5,-53 498.5,-53"/>
<text text-anchor="start" x="506.5" y="-73.4" font-family="Helvetica,sans-Serif" font-size="12.00">COperatorConsoleApp</text>
<text text-anchor="middle" x="567" y="-60.4" font-family="Helvetica,sans-Serif" font-size="12.00">::InitInstance</text>
</a>
</g>
</g>
<!-- Node3&#45;&gt;Node4 -->
<g id="edge3" class="edge"><title>Node3&#45;&gt;Node4</title>
<path fill="none" stroke="midnightblue" d="M472.134,-70C480.846,-70 489.666,-70 498.233,-70"/>
<polygon fill="midnightblue" stroke="midnightblue" points="471.979,-66.5001 461.979,-70 471.979,-73.5001 471.979,-66.5001"/>
</g>
<!-- Node6 -->
<g id="node6" class="node"><title>Node6</title>
<g id="a_node6"><a xlink:href="../../d3/d9f/class_c_operator_console_app.html#a620f8d2eed65d743bb177abcb90936e6" target="_top" xlink:title="Called after MSG_SETUP is received. ">
<polygon fill="white" stroke="black" points="498.5,-0 498.5,-34 635.5,-34 635.5,-0 498.5,-0"/>
<text text-anchor="start" x="506.5" y="-20.4" font-family="Helvetica,sans-Serif" font-size="12.00">COperatorConsoleApp</text>
<text text-anchor="middle" x="567" y="-7.4" font-family="Helvetica,sans-Serif" font-size="12.00">::OnSetup</text>
</a>
</g>
</g>
<!-- Node5&#45;&gt;Node6 -->
<g id="edge5" class="edge"><title>Node5&#45;&gt;Node6</title>
<path fill="none" stroke="midnightblue" d="M472.134,-17C480.846,-17 489.666,-17 498.233,-17"/>
<polygon fill="midnightblue" stroke="midnightblue" points="471.979,-13.5001 461.979,-17 471.979,-20.5001 471.979,-13.5001"/>
</g>
<!-- Node7 -->
<g id="node7" class="node"><title>Node7</title>
<g id="a_node7"><a xlink:href="../../d3/d9f/class_c_operator_console_app.html#a7041d197c4e6549f2cb7219981b4eec1" target="_top" xlink:title="Intercepts messages of interest before Windows or MFC. ">
<polygon fill="white" stroke="black" points="672,-0 672,-34 810,-34 810,-0 672,-0"/>
<text text-anchor="start" x="680" y="-20.4" font-family="Helvetica,sans-Serif" font-size="12.00">COperatorConsoleApp</text>
<text text-anchor="middle" x="741" y="-7.4" font-family="Helvetica,sans-Serif" font-size="12.00">::PreTranslateMessage</text>
</a>
</g>
</g>
<!-- Node6&#45;&gt;Node7 -->
<g id="edge6" class="edge"><title>Node6&#45;&gt;Node7</title>
<path fill="none" stroke="midnightblue" d="M646.054,-17C654.696,-17 663.446,-17 671.952,-17"/>
<polygon fill="midnightblue" stroke="midnightblue" points="645.979,-13.5001 635.979,-17 645.979,-20.5001 645.979,-13.5001"/>
</g>
<!-- Node8&#45;&gt;Node3 -->
<g id="edge8" class="edge"><title>Node8&#45;&gt;Node3</title>
<path fill="none" stroke="midnightblue" d="M285.212,-37.0944C302.193,-42.3268 320.324,-47.9137 336.735,-52.9707"/>
<polygon fill="midnightblue" stroke="midnightblue" points="285.956,-33.6613 275.369,-34.0613 283.895,-40.3509 285.956,-33.6613"/>
</g>
<!-- Node8&#45;&gt;Node5 -->
<g id="edge9" class="edge"><title>Node8&#45;&gt;Node5</title>
<path fill="none" stroke="midnightblue" d="M298.134,-17C306.846,-17 315.666,-17 324.233,-17"/>
<polygon fill="midnightblue" stroke="midnightblue" points="297.979,-13.5001 287.979,-17 297.979,-20.5001 297.979,-13.5001"/>
</g>
</g>
</svg>
