<?xml version="1.0" encoding="UTF-8" standalone="no"?>
<!DOCTYPE svg PUBLIC "-//W3C//DTD SVG 1.1//EN"
 "http://www.w3.org/Graphics/SVG/1.1/DTD/svg11.dtd">
<!-- Generated by graphviz version 2.34.0 (20130907.0111)
 -->
<!-- Title: BlemishPassFail Pages: 1 -->
<svg width="656pt" height="588pt"
 viewBox="0.00 0.00 656.00 588.00" xmlns="http://www.w3.org/2000/svg" xmlns:xlink="http://www.w3.org/1999/xlink">
<g id="graph0" class="graph" transform="scale(1 1) rotate(0) translate(4 584)">
<title>BlemishPassFail</title>
<polygon fill="white" stroke="white" points="-4,4 -4,-584 652,-584 652,4 -4,4"/>
<!-- Node1 -->
<g id="node1" class="node"><title>Node1</title>
<polygon fill="#bfbfbf" stroke="black" points="126.5,-0.5 126.5,-21.5 231.5,-21.5 231.5,-0.5 126.5,-0.5"/>
<text text-anchor="middle" x="179" y="-7.9" font-family="Helvetica,sans-Serif" font-size="12.00">BlemishPassFail</text>
</g>
<!-- Node2 -->
<g id="node2" class="node"><title>Node2</title>
<g id="a_node2"><a xlink:href="../../d3/d96/structentry.html" target="_top" xlink:title="entry\&lt; double \&gt;">
<polygon fill="white" stroke="black" points="131,-240.5 131,-261.5 227,-261.5 227,-240.5 131,-240.5"/>
<text text-anchor="middle" x="179" y="-247.9" font-family="Helvetica,sans-Serif" font-size="12.00">entry&lt; double &gt;</text>
</a>
</g>
</g>
<!-- Node2&#45;&gt;Node1 -->
<g id="edge1" class="edge"><title>Node2&#45;&gt;Node1</title>
<path fill="none" stroke="#9a32cd" stroke-dasharray="5,2" d="M179,-230.212C179,-181.556 179,-57.448 179,-21.7444"/>
<polygon fill="#9a32cd" stroke="#9a32cd" points="175.5,-230.375 179,-240.375 182.5,-230.375 175.5,-230.375"/>
<text text-anchor="start" x="179" y="-212.4" font-family="Helvetica,sans-Serif" font-size="12.00"> Uniformity_RoverG_corners</text>
<text text-anchor="middle" x="253" y="-199.4" font-family="Helvetica,sans-Serif" font-size="12.00">_pct_max</text>
<text text-anchor="start" x="179" y="-186.4" font-family="Helvetica,sans-Serif" font-size="12.00">Uniformity_BoverG_corners</text>
<text text-anchor="middle" x="253" y="-173.4" font-family="Helvetica,sans-Serif" font-size="12.00">_pct_max</text>
<text text-anchor="start" x="179" y="-160.4" font-family="Helvetica,sans-Serif" font-size="12.00">Optical_center_offset</text>
<text text-anchor="middle" x="253" y="-147.4" font-family="Helvetica,sans-Serif" font-size="12.00">_X_max</text>
<text text-anchor="start" x="179" y="-134.4" font-family="Helvetica,sans-Serif" font-size="12.00">Optical_center_offset</text>
<text text-anchor="middle" x="253" y="-121.4" font-family="Helvetica,sans-Serif" font-size="12.00">_Y_max</text>
<text text-anchor="start" x="179" y="-108.4" font-family="Helvetica,sans-Serif" font-size="12.00">Relative_illumination</text>
<text text-anchor="middle" x="253" y="-95.4" font-family="Helvetica,sans-Serif" font-size="12.00">_corner_diff_pct_max</text>
<text text-anchor="start" x="179" y="-82.4" font-family="Helvetica,sans-Serif" font-size="12.00">Optical_center_offset</text>
<text text-anchor="middle" x="253" y="-69.4" font-family="Helvetica,sans-Serif" font-size="12.00">_max</text>
<text text-anchor="start" x="179" y="-56.4" font-family="Helvetica,sans-Serif" font-size="12.00">Relative_illumination</text>
<text text-anchor="middle" x="253" y="-43.4" font-family="Helvetica,sans-Serif" font-size="12.00">_worst_corner_pct_min</text>
</g>
<!-- Node3 -->
<g id="node3" class="node"><title>Node3</title>
<g id="a_node3"><a xlink:title="STL class. ">
<polygon fill="white" stroke="#bfbfbf" points="148.5,-400.5 148.5,-421.5 215.5,-421.5 215.5,-400.5 148.5,-400.5"/>
<text text-anchor="middle" x="182" y="-407.9" font-family="Helvetica,sans-Serif" font-size="12.00">std::string</text>
</a>
</g>
</g>
<!-- Node3&#45;&gt;Node2 -->
<g id="edge2" class="edge"><title>Node3&#45;&gt;Node2</title>
<path fill="none" stroke="#9a32cd" stroke-dasharray="5,2" d="M181.619,-389.939C180.97,-355.737 179.672,-287.369 179.188,-261.88"/>
<polygon fill="#9a32cd" stroke="#9a32cd" points="178.123,-390.185 181.812,-400.116 185.122,-390.052 178.123,-390.185"/>
<text text-anchor="middle" x="208.5" y="-321.9" font-family="Helvetica,sans-Serif" font-size="12.00"> data_type</text>
</g>
<!-- Node5 -->
<g id="node5" class="node"><title>Node5</title>
<g id="a_node5"><a xlink:href="../../d3/d96/structentry.html" target="_top" xlink:title="A templated struct that contains all information for a single, scalar pass/fail variable. ">
<polygon fill="white" stroke="black" points="78,-314.5 78,-335.5 146,-335.5 146,-314.5 78,-314.5"/>
<text text-anchor="middle" x="112" y="-321.9" font-family="Helvetica,sans-Serif" font-size="12.00">entry&lt; T &gt;</text>
</a>
</g>
</g>
<!-- Node3&#45;&gt;Node5 -->
<g id="edge5" class="edge"><title>Node3&#45;&gt;Node5</title>
<path fill="none" stroke="#9a32cd" stroke-dasharray="5,2" d="M138.777,-401.207C128.714,-397.062 119.154,-390.965 113,-382 103.535,-368.211 106.337,-347.672 109.195,-335.677"/>
<polygon fill="#9a32cd" stroke="#9a32cd" points="137.889,-404.605 148.484,-404.614 140.207,-398 137.889,-404.605"/>
<text text-anchor="middle" x="140.5" y="-365.9" font-family="Helvetica,sans-Serif" font-size="12.00"> data_type</text>
</g>
<!-- Node7 -->
<g id="node7" class="node"><title>Node7</title>
<g id="a_node7"><a xlink:href="../../d3/d96/structentry.html" target="_top" xlink:title="entry\&lt; long \&gt;">
<polygon fill="white" stroke="black" points="-0.5,-240.5 -0.5,-261.5 82.5,-261.5 82.5,-240.5 -0.5,-240.5"/>
<text text-anchor="middle" x="41" y="-247.9" font-family="Helvetica,sans-Serif" font-size="12.00">entry&lt; long &gt;</text>
</a>
</g>
</g>
<!-- Node3&#45;&gt;Node7 -->
<g id="edge8" class="edge"><title>Node3&#45;&gt;Node7</title>
<path fill="none" stroke="#9a32cd" stroke-dasharray="5,2" d="M138.088,-405.054C97.7423,-397.88 40.3386,-380.403 14,-338 -1.52349,-313.008 20.3144,-278.343 33.0111,-261.69"/>
<polygon fill="#9a32cd" stroke="#9a32cd" points="137.772,-408.549 148.205,-406.703 138.898,-401.64 137.772,-408.549"/>
<text text-anchor="middle" x="41.5" y="-321.9" font-family="Helvetica,sans-Serif" font-size="12.00"> data_type</text>
</g>
<!-- Node8 -->
<g id="node8" class="node"><title>Node8</title>
<g id="a_node8"><a xlink:href="../../dc/d74/structvec_entry.html" target="_top" xlink:title="vecEntry\&lt; long \&gt;">
<polygon fill="white" stroke="black" points="313,-240.5 313,-261.5 415,-261.5 415,-240.5 313,-240.5"/>
<text text-anchor="middle" x="364" y="-247.9" font-family="Helvetica,sans-Serif" font-size="12.00">vecEntry&lt; long &gt;</text>
</a>
</g>
</g>
<!-- Node3&#45;&gt;Node8 -->
<g id="edge14" class="edge"><title>Node3&#45;&gt;Node8</title>
<path fill="none" stroke="#9a32cd" stroke-dasharray="5,2" d="M200.863,-393.624C238.726,-360.754 322.929,-287.655 353.034,-261.52"/>
<polygon fill="#9a32cd" stroke="#9a32cd" points="198.368,-391.156 193.111,-400.354 202.957,-396.442 198.368,-391.156"/>
<text text-anchor="middle" x="322.5" y="-321.9" font-family="Helvetica,sans-Serif" font-size="12.00"> data_type</text>
</g>
<!-- Node12 -->
<g id="node12" class="node"><title>Node12</title>
<g id="a_node12"><a xlink:href="../../dc/d74/structvec_entry.html" target="_top" xlink:title="A templated struct that contains all the information for a single vector pass/fail variable...">
<polygon fill="white" stroke="black" points="475.5,-314.5 475.5,-335.5 562.5,-335.5 562.5,-314.5 475.5,-314.5"/>
<text text-anchor="middle" x="519" y="-321.9" font-family="Helvetica,sans-Serif" font-size="12.00">vecEntry&lt; T &gt;</text>
</a>
</g>
</g>
<!-- Node3&#45;&gt;Node12 -->
<g id="edge18" class="edge"><title>Node3&#45;&gt;Node12</title>
<path fill="none" stroke="#9a32cd" stroke-dasharray="5,2" d="M225.829,-397.888C242.267,-393.17 261.063,-387.564 278,-382 309.926,-371.512 316.483,-364.483 349,-356 397.784,-343.273 411.413,-347.11 461,-338 465.652,-337.145 470.505,-336.21 475.337,-335.252"/>
<polygon fill="#9a32cd" stroke="#9a32cd" points="224.597,-394.6 215.936,-400.703 226.512,-401.333 224.597,-394.6"/>
<text text-anchor="middle" x="376.5" y="-365.9" font-family="Helvetica,sans-Serif" font-size="12.00"> data_type</text>
</g>
<!-- Node4 -->
<g id="node4" class="node"><title>Node4</title>
<g id="a_node4"><a xlink:title="STL class. ">
<polygon fill="white" stroke="#bfbfbf" points="127.5,-473 127.5,-507 236.5,-507 236.5,-473 127.5,-473"/>
<text text-anchor="start" x="135.5" y="-493.4" font-family="Helvetica,sans-Serif" font-size="12.00">std::basic_string&lt;</text>
<text text-anchor="middle" x="182" y="-480.4" font-family="Helvetica,sans-Serif" font-size="12.00"> char &gt;</text>
</a>
</g>
</g>
<!-- Node4&#45;&gt;Node3 -->
<g id="edge3" class="edge"><title>Node4&#45;&gt;Node3</title>
<path fill="none" stroke="midnightblue" d="M182,-462.442C182,-448.265 182,-431.69 182,-421.519"/>
<polygon fill="midnightblue" stroke="midnightblue" points="178.5,-462.67 182,-472.67 185.5,-462.67 178.5,-462.67"/>
</g>
<!-- Node5&#45;&gt;Node2 -->
<g id="edge4" class="edge"><title>Node5&#45;&gt;Node2</title>
<path fill="none" stroke="orange" stroke-dasharray="5,2" d="M106.247,-304.474C105.004,-296.289 105.248,-287.056 110,-280 115.632,-271.636 124.238,-265.769 133.482,-261.655"/>
<polygon fill="orange" stroke="orange" points="102.863,-305.379 108.484,-314.359 109.691,-303.834 102.863,-305.379"/>
<text text-anchor="middle" x="139" y="-283.9" font-family="Helvetica,sans-Serif" font-size="12.00"> &lt; double &gt;</text>
</g>
<!-- Node5&#45;&gt;Node7 -->
<g id="edge9" class="edge"><title>Node5&#45;&gt;Node7</title>
<path fill="none" stroke="orange" stroke-dasharray="5,2" d="M76.7093,-309.588C69.4808,-305.392 62.432,-300.222 57,-294 48.892,-284.713 44.6976,-270.891 42.6744,-261.669"/>
<polygon fill="orange" stroke="orange" points="75.3721,-312.838 85.8534,-314.386 78.6247,-306.64 75.3721,-312.838"/>
<text text-anchor="middle" x="79.5" y="-283.9" font-family="Helvetica,sans-Serif" font-size="12.00"> &lt; long &gt;</text>
</g>
<!-- Node6 -->
<g id="node6" class="node"><title>Node6</title>
<polygon fill="white" stroke="#bfbfbf" points="74.5,-558.5 74.5,-579.5 103.5,-579.5 103.5,-558.5 74.5,-558.5"/>
<text text-anchor="middle" x="89" y="-565.9" font-family="Helvetica,sans-Serif" font-size="12.00">T</text>
</g>
<!-- Node6&#45;&gt;Node5 -->
<g id="edge6" class="edge"><title>Node6&#45;&gt;Node5</title>
<path fill="none" stroke="#9a32cd" stroke-dasharray="5,2" d="M88.8272,-548.016C88.8288,-510.206 90.4035,-425.738 103,-356 104.257,-349.044 106.558,-341.416 108.519,-335.593"/>
<polygon fill="#9a32cd" stroke="#9a32cd" points="85.3278,-548.198 88.8667,-558.184 92.3277,-548.171 85.3278,-548.198"/>
<text text-anchor="middle" x="108.5" y="-443.9" font-family="Helvetica,sans-Serif" font-size="12.00"> value</text>
</g>
<!-- Node10 -->
<g id="node10" class="node"><title>Node10</title>
<g id="a_node10"><a xlink:title="STL class. ">
<polygon fill="white" stroke="#bfbfbf" points="338,-479.5 338,-500.5 434,-500.5 434,-479.5 338,-479.5"/>
<text text-anchor="middle" x="386" y="-486.9" font-family="Helvetica,sans-Serif" font-size="12.00">std::vector&lt; T &gt;</text>
</a>
</g>
</g>
<!-- Node6&#45;&gt;Node10 -->
<g id="edge13" class="edge"><title>Node6&#45;&gt;Node10</title>
<path fill="none" stroke="#9a32cd" stroke-dasharray="5,2" d="M113.458,-561.659C165.57,-548.148 287.799,-516.46 349.296,-500.516"/>
<polygon fill="#9a32cd" stroke="#9a32cd" points="112.53,-558.284 103.728,-564.182 114.287,-565.06 112.53,-558.284"/>
<text text-anchor="middle" x="272.5" y="-529.9" font-family="Helvetica,sans-Serif" font-size="12.00"> elements</text>
</g>
<!-- Node7&#45;&gt;Node1 -->
<g id="edge7" class="edge"><title>Node7&#45;&gt;Node1</title>
<path fill="none" stroke="#9a32cd" stroke-dasharray="5,2" d="M36.9765,-230.274C29.8515,-189.269 19.9509,-94.1487 68,-40 76.0466,-30.9319 101.633,-24.1477 126.215,-19.5301"/>
<polygon fill="#9a32cd" stroke="#9a32cd" points="33.5384,-230.93 38.8194,-240.115 40.4187,-229.641 33.5384,-230.93"/>
<text text-anchor="start" x="68" y="-173.4" font-family="Helvetica,sans-Serif" font-size="12.00"> Hot_pixel_clusters</text>
<text text-anchor="middle" x="121.5" y="-160.4" font-family="Helvetica,sans-Serif" font-size="12.00">_max</text>
<text text-anchor="start" x="68" y="-147.4" font-family="Helvetica,sans-Serif" font-size="12.00">Dead_pixel_clusters</text>
<text text-anchor="middle" x="121.5" y="-134.4" font-family="Helvetica,sans-Serif" font-size="12.00">_max</text>
<text text-anchor="start" x="68" y="-121.4" font-family="Helvetica,sans-Serif" font-size="12.00">Defective_pixels</text>
<text text-anchor="middle" x="121.5" y="-108.4" font-family="Helvetica,sans-Serif" font-size="12.00">_max_count</text>
<text text-anchor="middle" x="121.5" y="-95.4" font-family="Helvetica,sans-Serif" font-size="12.00">Hot_pixels_max</text>
<text text-anchor="middle" x="121.5" y="-82.4" font-family="Helvetica,sans-Serif" font-size="12.00">Dead_pixels_max</text>
</g>
<!-- Node8&#45;&gt;Node1 -->
<g id="edge10" class="edge"><title>Node8&#45;&gt;Node1</title>
<path fill="none" stroke="#9a32cd" stroke-dasharray="5,2" d="M367.551,-230.519C373.856,-189.205 381.951,-92.3085 331,-40 317.333,-25.9683 269.816,-18.8343 231.504,-15.2942"/>
<polygon fill="#9a32cd" stroke="#9a32cd" points="364.095,-229.965 365.909,-240.404 371,-231.113 364.095,-229.965"/>
<text text-anchor="middle" x="441.5" y="-134.4" font-family="Helvetica,sans-Serif" font-size="12.00"> Blemish_maximum_count</text>
<text text-anchor="middle" x="441.5" y="-121.4" font-family="Helvetica,sans-Serif" font-size="12.00">Blemish_size_pixels</text>
</g>
<!-- Node9 -->
<g id="node9" class="node"><title>Node9</title>
<polygon fill="white" stroke="#bfbfbf" points="537.5,-358.5 537.5,-379.5 648.5,-379.5 648.5,-358.5 537.5,-358.5"/>
<text text-anchor="middle" x="593" y="-365.9" font-family="Helvetica,sans-Serif" font-size="12.00">std::vector&lt; long &gt;</text>
</g>
<!-- Node9&#45;&gt;Node8 -->
<g id="edge11" class="edge"><title>Node9&#45;&gt;Node8</title>
<path fill="none" stroke="#9a32cd" stroke-dasharray="5,2" d="M589.294,-348.666C586.162,-336.832 580.595,-322.078 571,-312 530.623,-269.59 462.253,-256.609 415.205,-252.926"/>
<polygon fill="#9a32cd" stroke="#9a32cd" points="585.899,-349.522 591.532,-358.496 592.724,-347.968 585.899,-349.522"/>
<text text-anchor="middle" x="600.5" y="-321.9" font-family="Helvetica,sans-Serif" font-size="12.00"> value</text>
</g>
<!-- Node10&#45;&gt;Node9 -->
<g id="edge12" class="edge"><title>Node10&#45;&gt;Node9</title>
<path fill="none" stroke="orange" stroke-dasharray="5,2" d="M414.079,-474.8C426.146,-468.577 440.354,-461.089 453,-454 498.989,-428.221 552.055,-395.559 577.637,-379.625"/>
<polygon fill="orange" stroke="orange" points="412.234,-471.812 404.931,-479.487 415.427,-478.042 412.234,-471.812"/>
<text text-anchor="middle" x="498.5" y="-443.9" font-family="Helvetica,sans-Serif" font-size="12.00"> &lt; long &gt;</text>
</g>
<!-- Node11 -->
<g id="node11" class="node"><title>Node11</title>
<polygon fill="white" stroke="#bfbfbf" points="321.5,-400.5 321.5,-421.5 450.5,-421.5 450.5,-400.5 321.5,-400.5"/>
<text text-anchor="middle" x="386" y="-407.9" font-family="Helvetica,sans-Serif" font-size="12.00">std::vector&lt; CString &gt;</text>
</g>
<!-- Node10&#45;&gt;Node11 -->
<g id="edge16" class="edge"><title>Node10&#45;&gt;Node11</title>
<path fill="none" stroke="orange" stroke-dasharray="5,2" d="M386,-468.875C386,-453.768 386,-433.731 386,-421.916"/>
<polygon fill="orange" stroke="orange" points="382.5,-469.248 386,-479.248 389.5,-469.248 382.5,-469.248"/>
<text text-anchor="middle" x="417.5" y="-443.9" font-family="Helvetica,sans-Serif" font-size="12.00"> &lt; CString &gt;</text>
</g>
<!-- Node11&#45;&gt;Node8 -->
<g id="edge15" class="edge"><title>Node11&#45;&gt;Node8</title>
<path fill="none" stroke="#9a32cd" stroke-dasharray="5,2" d="M381.983,-390.032C379.184,-375.617 375.515,-355.662 373,-338 369.063,-310.356 366.096,-277.484 364.768,-261.573"/>
<polygon fill="#9a32cd" stroke="#9a32cd" points="378.631,-391.123 384.003,-400.255 385.498,-389.766 378.631,-391.123"/>
<text text-anchor="middle" x="419.5" y="-328.4" font-family="Helvetica,sans-Serif" font-size="12.00"> sub_descriptions</text>
<text text-anchor="middle" x="419.5" y="-315.4" font-family="Helvetica,sans-Serif" font-size="12.00">sub_names</text>
</g>
<!-- Node11&#45;&gt;Node12 -->
<g id="edge19" class="edge"><title>Node11&#45;&gt;Node12</title>
<path fill="none" stroke="#9a32cd" stroke-dasharray="5,2" d="M398.556,-392.1C407.543,-380.429 420.567,-365.631 435,-356 448.525,-346.974 465.086,-340.306 479.918,-335.579"/>
<polygon fill="#9a32cd" stroke="#9a32cd" points="395.642,-390.155 392.515,-400.277 401.272,-394.314 395.642,-390.155"/>
<text text-anchor="middle" x="481.5" y="-372.4" font-family="Helvetica,sans-Serif" font-size="12.00"> sub_descriptions</text>
<text text-anchor="middle" x="481.5" y="-359.4" font-family="Helvetica,sans-Serif" font-size="12.00">sub_names</text>
</g>
<!-- Node12&#45;&gt;Node8 -->
<g id="edge17" class="edge"><title>Node12&#45;&gt;Node8</title>
<path fill="none" stroke="orange" stroke-dasharray="5,2" d="M489.069,-310.097C458.38,-295.841 411.461,-274.047 384.668,-261.601"/>
<polygon fill="orange" stroke="orange" points="487.873,-313.4 498.417,-314.439 490.822,-307.052 487.873,-313.4"/>
<text text-anchor="middle" x="473.5" y="-283.9" font-family="Helvetica,sans-Serif" font-size="12.00"> &lt; long &gt;</text>
</g>
</g>
</svg>
