<?xml version="1.0" encoding="UTF-8" standalone="no"?>
<!DOCTYPE svg PUBLIC "-//W3C//DTD SVG 1.1//EN"
 "http://www.w3.org/Graphics/SVG/1.1/DTD/svg11.dtd">
<!-- Generated by graphviz version 2.34.0 (20130907.0111)
 -->
<!-- Title: ImageAcquisition.h Pages: 1 -->
<svg width="1070pt" height="204pt"
 viewBox="0.00 0.00 1070.00 204.00" xmlns="http://www.w3.org/2000/svg" xmlns:xlink="http://www.w3.org/1999/xlink">
<g id="graph0" class="graph" transform="scale(1 1) rotate(0) translate(4 200)">
<title>ImageAcquisition.h</title>
<polygon fill="white" stroke="white" points="-4,4 -4,-200 1066,-200 1066,4 -4,4"/>
<!-- Node1 -->
<g id="node1" class="node"><title>Node1</title>
<polygon fill="#bfbfbf" stroke="black" points="530,-174.5 530,-195.5 646,-195.5 646,-174.5 530,-174.5"/>
<text text-anchor="middle" x="588" y="-181.9" font-family="Helvetica,sans-Serif" font-size="12.00">ImageAcquisition.h</text>
</g>
<!-- Node2 -->
<g id="node2" class="node"><title>Node2</title>
<g id="a_node2"><a xlink:href="../../d1/d59/_file_acq_8h.html" target="_top" xlink:title="FileAcq.h">
<polygon fill="white" stroke="black" points="678,-116.5 678,-137.5 744,-137.5 744,-116.5 678,-116.5"/>
<text text-anchor="middle" x="711" y="-123.9" font-family="Helvetica,sans-Serif" font-size="12.00">FileAcq.h</text>
</a>
</g>
</g>
<!-- Node1&#45;&gt;Node2 -->
<g id="edge1" class="edge"><title>Node1&#45;&gt;Node2</title>
<path fill="none" stroke="midnightblue" d="M618.506,-170.111C640.811,-159.956 670.48,-146.448 690.131,-137.501"/>
<polygon fill="midnightblue" stroke="midnightblue" points="616.795,-167.044 609.144,-174.373 619.696,-173.415 616.795,-167.044"/>
</g>
<!-- Node3 -->
<g id="node3" class="node"><title>Node3</title>
<g id="a_node3"><a xlink:href="../../da/de6/_operator_console_8h.html" target="_top" xlink:title="OperatorConsole.h">
<polygon fill="white" stroke="black" points="430,-58.5 430,-79.5 546,-79.5 546,-58.5 430,-58.5"/>
<text text-anchor="middle" x="488" y="-65.9" font-family="Helvetica,sans-Serif" font-size="12.00">OperatorConsole.h</text>
</a>
</g>
</g>
<!-- Node1&#45;&gt;Node3 -->
<g id="edge16" class="edge"><title>Node1&#45;&gt;Node3</title>
<path fill="none" stroke="midnightblue" d="M550.449,-170.216C534.99,-162.821 518.133,-152.245 507,-138 493.413,-120.616 489.54,-94.0599 488.437,-79.8245"/>
<polygon fill="midnightblue" stroke="midnightblue" points="549.272,-173.524 559.829,-174.414 552.131,-167.134 549.272,-173.524"/>
</g>
<!-- Node14 -->
<g id="node14" class="node"><title>Node14</title>
<g id="a_node14"><a xlink:href="../../d6/d06/_file_acquisition_8h.html" target="_top" xlink:title="FileAcquisition.h">
<polygon fill="white" stroke="black" points="237.5,-116.5 237.5,-137.5 340.5,-137.5 340.5,-116.5 237.5,-116.5"/>
<text text-anchor="middle" x="289" y="-123.9" font-family="Helvetica,sans-Serif" font-size="12.00">FileAcquisition.h</text>
</a>
</g>
</g>
<!-- Node1&#45;&gt;Node14 -->
<g id="edge13" class="edge"><title>Node1&#45;&gt;Node14</title>
<path fill="none" stroke="midnightblue" d="M526.947,-172.565C471.803,-162.237 391.589,-147.214 339.85,-137.524"/>
<polygon fill="midnightblue" stroke="midnightblue" points="526.466,-176.036 536.94,-174.437 527.755,-169.156 526.466,-176.036"/>
</g>
<!-- Node16 -->
<g id="node16" class="node"><title>Node16</title>
<g id="a_node16"><a xlink:href="../../db/d0a/_imatest_lib_acq_8h.html" target="_top" xlink:title="ImatestLibAcq.h">
<polygon fill="white" stroke="black" points="358.5,-116.5 358.5,-137.5 459.5,-137.5 459.5,-116.5 358.5,-116.5"/>
<text text-anchor="middle" x="409" y="-123.9" font-family="Helvetica,sans-Serif" font-size="12.00">ImatestLibAcq.h</text>
</a>
</g>
</g>
<!-- Node1&#45;&gt;Node16 -->
<g id="edge17" class="edge"><title>Node1&#45;&gt;Node16</title>
<path fill="none" stroke="midnightblue" d="M547.48,-171.324C514.653,-161.054 469.122,-146.809 439.37,-137.501"/>
<polygon fill="midnightblue" stroke="midnightblue" points="546.64,-174.728 557.229,-174.373 548.73,-168.047 546.64,-174.728"/>
</g>
<!-- Node18 -->
<g id="node18" class="node"><title>Node18</title>
<g id="a_node18"><a xlink:href="../../d8/d4d/_simple_direct_show_acq_8h.html" target="_top" xlink:title="SimpleDirectShowAcq.h">
<polygon fill="white" stroke="black" points="516,-116.5 516,-137.5 660,-137.5 660,-116.5 516,-116.5"/>
<text text-anchor="middle" x="588" y="-123.9" font-family="Helvetica,sans-Serif" font-size="12.00">SimpleDirectShowAcq.h</text>
</a>
</g>
</g>
<!-- Node1&#45;&gt;Node18 -->
<g id="edge20" class="edge"><title>Node1&#45;&gt;Node18</title>
<path fill="none" stroke="midnightblue" d="M588,-164.158C588,-155.155 588,-144.92 588,-137.643"/>
<polygon fill="midnightblue" stroke="midnightblue" points="584.5,-164.246 588,-174.246 591.5,-164.246 584.5,-164.246"/>
</g>
<!-- Node20 -->
<g id="node20" class="node"><title>Node20</title>
<g id="a_node20"><a xlink:href="../../d6/d0d/_image_acquisition_8cpp.html" target="_top" xlink:title="ImageAcquisition.cpp">
<polygon fill="white" stroke="black" points="762.5,-116.5 762.5,-137.5 891.5,-137.5 891.5,-116.5 762.5,-116.5"/>
<text text-anchor="middle" x="827" y="-123.9" font-family="Helvetica,sans-Serif" font-size="12.00">ImageAcquisition.cpp</text>
</a>
</g>
</g>
<!-- Node1&#45;&gt;Node20 -->
<g id="edge23" class="edge"><title>Node1&#45;&gt;Node20</title>
<path fill="none" stroke="midnightblue" d="M638.734,-172.112C682.738,-161.802 745.598,-147.073 786.354,-137.524"/>
<polygon fill="midnightblue" stroke="midnightblue" points="637.752,-168.748 628.814,-174.437 639.349,-175.563 637.752,-168.748"/>
</g>
<!-- Node21 -->
<g id="node21" class="node"><title>Node21</title>
<g id="a_node21"><a xlink:href="../../d6/d6e/_imatest_lib_acquire_image_8h.html" target="_top" xlink:title="ImatestLibAcquireImage.h">
<polygon fill="white" stroke="black" points="910,-116.5 910,-137.5 1062,-137.5 1062,-116.5 910,-116.5"/>
<text text-anchor="middle" x="986" y="-123.9" font-family="Helvetica,sans-Serif" font-size="12.00">ImatestLibAcquireImage.h</text>
</a>
</g>
</g>
<!-- Node1&#45;&gt;Node21 -->
<g id="edge24" class="edge"><title>Node1&#45;&gt;Node21</title>
<path fill="none" stroke="midnightblue" d="M656.345,-174.384C729.597,-164.077 845.172,-147.815 918.209,-137.538"/>
<polygon fill="midnightblue" stroke="midnightblue" points="655.714,-170.938 646.299,-175.797 656.689,-177.87 655.714,-170.938"/>
</g>
<!-- Node2&#45;&gt;Node3 -->
<g id="edge2" class="edge"><title>Node2&#45;&gt;Node3</title>
<path fill="none" stroke="midnightblue" d="M667.882,-115.172C626.773,-104.849 565.461,-89.4522 526.103,-79.5686"/>
<polygon fill="midnightblue" stroke="midnightblue" points="667.063,-118.575 677.615,-117.616 668.768,-111.786 667.063,-118.575"/>
</g>
<!-- Node13 -->
<g id="node13" class="node"><title>Node13</title>
<g id="a_node13"><a xlink:href="../../d2/d84/_file_acq_8cpp.html" target="_top" xlink:title="FileAcq.cpp">
<polygon fill="white" stroke="black" points="740,-58.5 740,-79.5 820,-79.5 820,-58.5 740,-58.5"/>
<text text-anchor="middle" x="780" y="-65.9" font-family="Helvetica,sans-Serif" font-size="12.00">FileAcq.cpp</text>
</a>
</g>
</g>
<!-- Node2&#45;&gt;Node13 -->
<g id="edge12" class="edge"><title>Node2&#45;&gt;Node13</title>
<path fill="none" stroke="midnightblue" d="M730.803,-109.928C742.864,-100.14 757.871,-87.9595 768.119,-79.6427"/>
<polygon fill="midnightblue" stroke="midnightblue" points="728.578,-107.226 723.019,-116.246 732.989,-112.661 728.578,-107.226"/>
</g>
<!-- Node4 -->
<g id="node4" class="node"><title>Node4</title>
<g id="a_node4"><a xlink:href="../../d3/d22/_app_thread_8cpp.html" target="_top" xlink:title="AppThread.cpp">
<polygon fill="white" stroke="black" points="0,-0.5 0,-21.5 98,-21.5 98,-0.5 0,-0.5"/>
<text text-anchor="middle" x="49" y="-7.9" font-family="Helvetica,sans-Serif" font-size="12.00">AppThread.cpp</text>
</a>
</g>
</g>
<!-- Node3&#45;&gt;Node4 -->
<g id="edge3" class="edge"><title>Node3&#45;&gt;Node4</title>
<path fill="none" stroke="midnightblue" d="M419.676,-57.8657C280.007,-39.7255 242.788,-41.474 107,-22 104.067,-21.5793 101.054,-21.1257 98.0169,-20.6518"/>
<polygon fill="midnightblue" stroke="midnightblue" points="419.542,-61.378 429.912,-59.2067 420.452,-54.4373 419.542,-61.378"/>
</g>
<!-- Node5 -->
<g id="node5" class="node"><title>Node5</title>
<g id="a_node5"><a xlink:href="../../d6/df7/_critical_buf_8cpp.html" target="_top" xlink:title="CriticalBuf.cpp">
<polygon fill="white" stroke="black" points="116.5,-0.5 116.5,-21.5 209.5,-21.5 209.5,-0.5 116.5,-0.5"/>
<text text-anchor="middle" x="163" y="-7.9" font-family="Helvetica,sans-Serif" font-size="12.00">CriticalBuf.cpp</text>
</a>
</g>
</g>
<!-- Node3&#45;&gt;Node5 -->
<g id="edge4" class="edge"><title>Node3&#45;&gt;Node5</title>
<path fill="none" stroke="midnightblue" d="M421.688,-56.7998C367.227,-47.5678 288.091,-34.0761 219,-22 215.984,-21.4729 212.878,-20.9268 209.746,-20.374"/>
<polygon fill="midnightblue" stroke="midnightblue" points="421.118,-60.253 431.562,-58.4727 422.287,-53.3513 421.118,-60.253"/>
</g>
<!-- Node6 -->
<g id="node6" class="node"><title>Node6</title>
<g id="a_node6"><a xlink:href="../../d8/d53/_image_test_8cpp.html" target="_top" xlink:title="ImageTest.cpp">
<polygon fill="white" stroke="black" points="228,-0.5 228,-21.5 322,-21.5 322,-0.5 228,-0.5"/>
<text text-anchor="middle" x="275" y="-7.9" font-family="Helvetica,sans-Serif" font-size="12.00">ImageTest.cpp</text>
</a>
</g>
</g>
<!-- Node3&#45;&gt;Node6 -->
<g id="edge5" class="edge"><title>Node3&#45;&gt;Node6</title>
<path fill="none" stroke="midnightblue" d="M441.542,-55.7856C402.361,-45.4845 347.076,-30.9497 311.138,-21.5011"/>
<polygon fill="midnightblue" stroke="midnightblue" points="440.823,-59.2155 451.384,-58.3733 442.603,-52.4455 440.823,-59.2155"/>
</g>
<!-- Node7 -->
<g id="node7" class="node"><title>Node7</title>
<g id="a_node7"><a xlink:href="../../df/d0a/main_8cpp.html" target="_top" xlink:title="main.cpp">
<polygon fill="white" stroke="black" points="340.5,-0.5 340.5,-21.5 405.5,-21.5 405.5,-0.5 340.5,-0.5"/>
<text text-anchor="middle" x="373" y="-7.9" font-family="Helvetica,sans-Serif" font-size="12.00">main.cpp</text>
</a>
</g>
</g>
<!-- Node3&#45;&gt;Node7 -->
<g id="edge6" class="edge"><title>Node3&#45;&gt;Node7</title>
<path fill="none" stroke="midnightblue" d="M459.197,-53.9741C438.375,-43.8348 410.802,-30.408 392.511,-21.5011"/>
<polygon fill="midnightblue" stroke="midnightblue" points="457.708,-57.1419 468.231,-58.3733 460.772,-50.8484 457.708,-57.1419"/>
</g>
<!-- Node8 -->
<g id="node8" class="node"><title>Node8</title>
<g id="a_node8"><a xlink:href="../../de/da2/_operator_console_8cpp.html" target="_top" xlink:title="OperatorConsole.cpp">
<polygon fill="white" stroke="black" points="423.5,-0.5 423.5,-21.5 552.5,-21.5 552.5,-0.5 423.5,-0.5"/>
<text text-anchor="middle" x="488" y="-7.9" font-family="Helvetica,sans-Serif" font-size="12.00">OperatorConsole.cpp</text>
</a>
</g>
</g>
<!-- Node3&#45;&gt;Node8 -->
<g id="edge7" class="edge"><title>Node3&#45;&gt;Node8</title>
<path fill="none" stroke="midnightblue" d="M488,-48.1575C488,-39.155 488,-28.9199 488,-21.6427"/>
<polygon fill="midnightblue" stroke="midnightblue" points="484.5,-48.2455 488,-58.2455 491.5,-48.2456 484.5,-48.2455"/>
</g>
<!-- Node9 -->
<g id="node9" class="node"><title>Node9</title>
<g id="a_node9"><a xlink:href="../../d8/d29/_operator_console_dlg_8cpp.html" target="_top" xlink:title="OperatorConsoleDlg.cpp">
<polygon fill="white" stroke="black" points="570.5,-0.5 570.5,-21.5 717.5,-21.5 717.5,-0.5 570.5,-0.5"/>
<text text-anchor="middle" x="644" y="-7.9" font-family="Helvetica,sans-Serif" font-size="12.00">OperatorConsoleDlg.cpp</text>
</a>
</g>
</g>
<!-- Node3&#45;&gt;Node9 -->
<g id="edge8" class="edge"><title>Node3&#45;&gt;Node9</title>
<path fill="none" stroke="midnightblue" d="M524.428,-54.9231C552.946,-44.686 591.938,-30.6889 617.533,-21.5011"/>
<polygon fill="midnightblue" stroke="midnightblue" points="523.047,-51.7004 514.817,-58.3733 525.412,-58.2887 523.047,-51.7004"/>
</g>
<!-- Node10 -->
<g id="node10" class="node"><title>Node10</title>
<g id="a_node10"><a xlink:href="../../d0/d57/_pass_fail_8cpp.html" target="_top" xlink:title="PassFail.cpp">
<polygon fill="white" stroke="black" points="736,-0.5 736,-21.5 822,-21.5 822,-0.5 736,-0.5"/>
<text text-anchor="middle" x="779" y="-7.9" font-family="Helvetica,sans-Serif" font-size="12.00">PassFail.cpp</text>
</a>
</g>
</g>
<!-- Node3&#45;&gt;Node10 -->
<g id="edge9" class="edge"><title>Node3&#45;&gt;Node10</title>
<path fill="none" stroke="midnightblue" d="M547.814,-56.4893C603.722,-45.7305 685.85,-29.9258 735.683,-20.3359"/>
<polygon fill="midnightblue" stroke="midnightblue" points="546.852,-53.1101 537.694,-58.4369 548.175,-59.984 546.852,-53.1101"/>
</g>
<!-- Node11 -->
<g id="node11" class="node"><title>Node11</title>
<g id="a_node11"><a xlink:href="../../da/d46/_password_dialog_8cpp.html" target="_top" xlink:title="PasswordDialog.cpp">
<polygon fill="white" stroke="black" points="840,-0.5 840,-21.5 966,-21.5 966,-0.5 840,-0.5"/>
<text text-anchor="middle" x="903" y="-7.9" font-family="Helvetica,sans-Serif" font-size="12.00">PasswordDialog.cpp</text>
</a>
</g>
</g>
<!-- Node3&#45;&gt;Node11 -->
<g id="edge10" class="edge"><title>Node3&#45;&gt;Node11</title>
<path fill="none" stroke="midnightblue" d="M556.284,-57.84C679.206,-40.7344 711.633,-38.0738 831,-22 833.877,-21.6126 836.818,-21.2142 839.788,-20.8097"/>
<polygon fill="midnightblue" stroke="midnightblue" points="555.515,-54.4133 546.095,-59.2621 556.483,-61.3461 555.515,-54.4133"/>
</g>
<!-- Node12 -->
<g id="node12" class="node"><title>Node12</title>
<g id="a_node12"><a xlink:href="../../d5/d27/_setup_8cpp.html" target="_top" xlink:title="Setup.cpp">
<polygon fill="white" stroke="black" points="984,-0.5 984,-21.5 1054,-21.5 1054,-0.5 984,-0.5"/>
<text text-anchor="middle" x="1019" y="-7.9" font-family="Helvetica,sans-Serif" font-size="12.00">Setup.cpp</text>
</a>
</g>
</g>
<!-- Node3&#45;&gt;Node12 -->
<g id="edge11" class="edge"><title>Node3&#45;&gt;Node12</title>
<path fill="none" stroke="midnightblue" d="M556.224,-57.9292C742.832,-36.6633 793.134,-50.3223 975,-22 977.787,-21.566 980.659,-21.0564 983.539,-20.5009"/>
<polygon fill="midnightblue" stroke="midnightblue" points="555.606,-54.4773 546.075,-59.1047 556.411,-61.4308 555.606,-54.4773"/>
</g>
<!-- Node14&#45;&gt;Node3 -->
<g id="edge14" class="edge"><title>Node14&#45;&gt;Node3</title>
<path fill="none" stroke="midnightblue" d="M333.106,-113.588C369.668,-103.3 420.875,-88.8895 454.237,-79.5011"/>
<polygon fill="midnightblue" stroke="midnightblue" points="331.887,-110.295 323.209,-116.373 333.784,-117.033 331.887,-110.295"/>
</g>
<!-- Node15 -->
<g id="node15" class="node"><title>Node15</title>
<g id="a_node15"><a xlink:href="../../dd/dbb/_file_acquisition_8cpp.html" target="_top" xlink:title="FileAcquisition.cpp">
<polygon fill="white" stroke="black" points="164,-58.5 164,-79.5 280,-79.5 280,-58.5 164,-58.5"/>
<text text-anchor="middle" x="222" y="-65.9" font-family="Helvetica,sans-Serif" font-size="12.00">FileAcquisition.cpp</text>
</a>
</g>
</g>
<!-- Node14&#45;&gt;Node15 -->
<g id="edge15" class="edge"><title>Node14&#45;&gt;Node15</title>
<path fill="none" stroke="midnightblue" d="M269.432,-109.645C257.78,-99.9058 243.392,-87.8795 233.537,-79.6427"/>
<polygon fill="midnightblue" stroke="midnightblue" points="267.412,-112.518 277.329,-116.246 271.901,-107.147 267.412,-112.518"/>
</g>
<!-- Node16&#45;&gt;Node3 -->
<g id="edge18" class="edge"><title>Node16&#45;&gt;Node3</title>
<path fill="none" stroke="midnightblue" d="M431.276,-110.21C445.151,-100.374 462.551,-88.0394 474.397,-79.6427"/>
<polygon fill="midnightblue" stroke="midnightblue" points="428.895,-107.607 422.761,-116.246 432.943,-113.318 428.895,-107.607"/>
</g>
<!-- Node17 -->
<g id="node17" class="node"><title>Node17</title>
<g id="a_node17"><a xlink:href="../../d5/d85/_imatest_lib_acq_8cpp.html" target="_top" xlink:title="ImatestLibAcq.cpp">
<polygon fill="white" stroke="black" points="298,-58.5 298,-79.5 412,-79.5 412,-58.5 298,-58.5"/>
<text text-anchor="middle" x="355" y="-65.9" font-family="Helvetica,sans-Serif" font-size="12.00">ImatestLibAcq.cpp</text>
</a>
</g>
</g>
<!-- Node16&#45;&gt;Node17 -->
<g id="edge19" class="edge"><title>Node16&#45;&gt;Node17</title>
<path fill="none" stroke="midnightblue" d="M392.403,-108.788C383.165,-99.2085 372.01,-87.6396 364.298,-79.6427"/>
<polygon fill="midnightblue" stroke="midnightblue" points="390.133,-111.477 399.594,-116.246 395.172,-106.618 390.133,-111.477"/>
</g>
<!-- Node18&#45;&gt;Node3 -->
<g id="edge21" class="edge"><title>Node18&#45;&gt;Node3</title>
<path fill="none" stroke="midnightblue" d="M561.79,-111.323C543.928,-101.32 520.785,-88.3593 505.219,-79.6427"/>
<polygon fill="midnightblue" stroke="midnightblue" points="560.146,-114.413 570.581,-116.246 563.566,-108.306 560.146,-114.413"/>
</g>
<!-- Node19 -->
<g id="node19" class="node"><title>Node19</title>
<g id="a_node19"><a xlink:href="../../de/d1e/_simple_direct_show_acq_8cpp.html" target="_top" xlink:title="SimpleDirectShowAcq.cpp">
<polygon fill="white" stroke="black" points="564,-58.5 564,-79.5 722,-79.5 722,-58.5 564,-58.5"/>
<text text-anchor="middle" x="643" y="-65.9" font-family="Helvetica,sans-Serif" font-size="12.00">SimpleDirectShowAcq.cpp</text>
</a>
</g>
</g>
<!-- Node18&#45;&gt;Node19 -->
<g id="edge22" class="edge"><title>Node18&#45;&gt;Node19</title>
<path fill="none" stroke="midnightblue" d="M604.623,-109.075C614.085,-99.4402 625.597,-87.7196 633.53,-79.6427"/>
<polygon fill="midnightblue" stroke="midnightblue" points="602.09,-106.659 597.58,-116.246 607.084,-111.564 602.09,-106.659"/>
</g>
</g>
</svg>
