<?xml version="1.0" encoding="UTF-8" standalone="no"?>
<!DOCTYPE svg PUBLIC "-//W3C//DTD SVG 1.1//EN"
 "http://www.w3.org/Graphics/SVG/1.1/DTD/svg11.dtd">
<!-- Generated by graphviz version 2.34.0 (20130907.0111)
 -->
<!-- Title: SingleLineComment Pages: 1 -->
<svg width="516pt" height="83pt"
 viewBox="0.00 0.00 516.00 83.00" xmlns="http://www.w3.org/2000/svg" xmlns:xlink="http://www.w3.org/1999/xlink">
<g id="graph0" class="graph" transform="scale(1 1) rotate(0) translate(4 79)">
<title>SingleLineComment</title>
<polygon fill="white" stroke="white" points="-4,4 -4,-79 512,-79 512,4 -4,4"/>
<!-- Node1 -->
<g id="node1" class="node"><title>Node1</title>
<polygon fill="#bfbfbf" stroke="black" points="0.5,-23.5 0.5,-44.5 123.5,-44.5 123.5,-23.5 0.5,-23.5"/>
<text text-anchor="middle" x="62" y="-30.9" font-family="Helvetica,sans-Serif" font-size="12.00">SingleLineComment</text>
</g>
<!-- Node2 -->
<g id="node2" class="node"><title>Node2</title>
<g id="a_node2"><a xlink:href="../../d7/d6f/class_j_s_o_n_worker.html#abfded5cd0ed971450c9bc190fb02a0e1" target="_top" xlink:title="JSONWorker::RemoveWhiteSpace\lAndComments">
<polygon fill="white" stroke="black" points="160,-17 160,-51 360,-51 360,-17 160,-17"/>
<text text-anchor="start" x="168" y="-37.4" font-family="Helvetica,sans-Serif" font-size="12.00">JSONWorker::RemoveWhiteSpace</text>
<text text-anchor="middle" x="260" y="-24.4" font-family="Helvetica,sans-Serif" font-size="12.00">AndComments</text>
</a>
</g>
</g>
<!-- Node1&#45;&gt;Node2 -->
<g id="edge1" class="edge"><title>Node1&#45;&gt;Node2</title>
<path fill="none" stroke="midnightblue" d="M133.8,-34C142.237,-34 150.965,-34 159.707,-34"/>
<polygon fill="midnightblue" stroke="midnightblue" points="133.673,-30.5001 123.673,-34 133.673,-37.5001 133.673,-30.5001"/>
</g>
<!-- Node3 -->
<g id="node3" class="node"><title>Node3</title>
<g id="a_node3"><a xlink:href="../../d0/d9e/namespacelibjson.html#af3491ef34c4987dbe1abedf992f966e1" target="_top" xlink:title="libjson::strip_white\l_space">
<polygon fill="white" stroke="black" points="396,-41 396,-75 508,-75 508,-41 396,-41"/>
<text text-anchor="start" x="404" y="-61.4" font-family="Helvetica,sans-Serif" font-size="12.00">libjson::strip_white</text>
<text text-anchor="middle" x="452" y="-48.4" font-family="Helvetica,sans-Serif" font-size="12.00">_space</text>
</a>
</g>
</g>
<!-- Node2&#45;&gt;Node3 -->
<g id="edge2" class="edge"><title>Node2&#45;&gt;Node3</title>
<path fill="none" stroke="midnightblue" d="M370.174,-47.7905C378.984,-48.9033 387.628,-49.9951 395.793,-51.0265"/>
<polygon fill="midnightblue" stroke="midnightblue" points="370.533,-44.3081 360.174,-46.5272 369.656,-51.2529 370.533,-44.3081"/>
</g>
<!-- Node4 -->
<g id="node4" class="node"><title>Node4</title>
<g id="a_node4"><a xlink:href="../../d0/d9e/namespacelibjson.html#a7588cf35ceb40558478dbd21e0caf3cf" target="_top" xlink:title="libjson::is_valid">
<polygon fill="white" stroke="black" points="404.5,-0.5 404.5,-21.5 499.5,-21.5 499.5,-0.5 404.5,-0.5"/>
<text text-anchor="middle" x="452" y="-7.9" font-family="Helvetica,sans-Serif" font-size="12.00">libjson::is_valid</text>
</a>
</g>
</g>
<!-- Node2&#45;&gt;Node4 -->
<g id="edge3" class="edge"><title>Node2&#45;&gt;Node4</title>
<path fill="none" stroke="midnightblue" d="M370.174,-20.7842C382.016,-19.3507 393.557,-17.9537 404.038,-16.6848"/>
<polygon fill="midnightblue" stroke="midnightblue" points="369.68,-17.3183 360.174,-21.9948 370.522,-24.2676 369.68,-17.3183"/>
</g>
</g>
</svg>
