<?xml version="1.0" encoding="UTF-8" standalone="no"?>
<!DOCTYPE svg PUBLIC "-//W3C//DTD SVG 1.1//EN"
 "http://www.w3.org/Graphics/SVG/1.1/DTD/svg11.dtd">
<!-- Generated by graphviz version 2.34.0 (20130907.0111)
 -->
<!-- Title: JSONNode::reverse_const_iterator Pages: 1 -->
<svg width="507pt" height="192pt"
 viewBox="0.00 0.00 507.00 192.00" xmlns="http://www.w3.org/2000/svg" xmlns:xlink="http://www.w3.org/1999/xlink">
<g id="graph0" class="graph" transform="scale(1 1) rotate(0) translate(4 188)">
<title>JSONNode::reverse_const_iterator</title>
<polygon fill="white" stroke="white" points="-4,4 -4,-188 503,-188 503,4 -4,4"/>
<!-- Node1 -->
<g id="node1" class="node"><title>Node1</title>
<polygon fill="#bfbfbf" stroke="black" points="0,-73 0,-107 156,-107 156,-73 0,-73"/>
<text text-anchor="start" x="8" y="-93.4" font-family="Helvetica,sans-Serif" font-size="12.00">JSONNode::reverse_const</text>
<text text-anchor="middle" x="78" y="-80.4" font-family="Helvetica,sans-Serif" font-size="12.00">_iterator</text>
</g>
<!-- Node2 -->
<g id="node2" class="node"><title>Node2</title>
<g id="a_node2"><a xlink:href="../../d6/dc7/class_j_s_o_n_node.html" target="_top" xlink:title="JSONNode">
<polygon fill="white" stroke="black" points="176.5,-160.5 176.5,-181.5 253.5,-181.5 253.5,-160.5 176.5,-160.5"/>
<text text-anchor="middle" x="215" y="-167.9" font-family="Helvetica,sans-Serif" font-size="12.00">JSONNode</text>
</a>
</g>
</g>
<!-- Node2&#45;&gt;Node1 -->
<g id="edge1" class="edge"><title>Node2&#45;&gt;Node1</title>
<path fill="none" stroke="#9a32cd" stroke-dasharray="5,2" d="M189.695,-155.408C165.966,-141.725 130.555,-121.306 105.991,-107.141"/>
<polygon fill="#9a32cd" stroke="#9a32cd" points="188.063,-158.507 198.475,-160.471 191.56,-152.443 188.063,-158.507"/>
<text text-anchor="middle" x="168" y="-129.9" font-family="Helvetica,sans-Serif" font-size="12.00"> it</text>
</g>
<!-- Node2&#45;&gt;Node2 -->
<g id="edge2" class="edge"><title>Node2&#45;&gt;Node2</title>
<path fill="none" stroke="#9a32cd" stroke-dasharray="5,2" d="M263.872,-176.635C268.251,-175.456 271,-173.578 271,-171 271,-166.77 263.597,-164.423 253.735,-163.96"/>
<polygon fill="#9a32cd" stroke="#9a32cd" points="263.16,-173.2 253.735,-178.04 264.121,-180.134 263.16,-173.2"/>
<text text-anchor="middle" x="298" y="-174.4" font-family="Helvetica,sans-Serif" font-size="12.00"> operator[]</text>
<text text-anchor="middle" x="298" y="-161.4" font-family="Helvetica,sans-Serif" font-size="12.00">operator=</text>
</g>
<!-- Node5 -->
<g id="node5" class="node"><title>Node5</title>
<g id="a_node5"><a xlink:href="../../db/d49/classjson_children.html" target="_top" xlink:title="jsonChildren">
<polygon fill="white" stroke="black" points="174.5,-79.5 174.5,-100.5 255.5,-100.5 255.5,-79.5 174.5,-79.5"/>
<text text-anchor="middle" x="215" y="-86.9" font-family="Helvetica,sans-Serif" font-size="12.00">jsonChildren</text>
</a>
</g>
</g>
<!-- Node2&#45;&gt;Node5 -->
<g id="edge6" class="edge"><title>Node2&#45;&gt;Node5</title>
<path fill="none" stroke="#9a32cd" stroke-dasharray="5,2" d="M215,-150.034C215,-134.287 215,-113.006 215,-100.766"/>
<polygon fill="#9a32cd" stroke="#9a32cd" points="211.5,-150.313 215,-160.313 218.5,-150.313 211.5,-150.313"/>
<text text-anchor="middle" x="230" y="-129.9" font-family="Helvetica,sans-Serif" font-size="12.00"> array</text>
</g>
<!-- Node3 -->
<g id="node3" class="node"><title>Node3</title>
<g id="a_node3"><a xlink:href="../../d1/d0b/classinternal_j_s_o_n_node.html" target="_top" xlink:title="internalJSONNode">
<polygon fill="white" stroke="black" points="236,-0.5 236,-21.5 350,-21.5 350,-0.5 236,-0.5"/>
<text text-anchor="middle" x="293" y="-7.9" font-family="Helvetica,sans-Serif" font-size="12.00">internalJSONNode</text>
</a>
</g>
</g>
<!-- Node3&#45;&gt;Node2 -->
<g id="edge3" class="edge"><title>Node3&#45;&gt;Node2</title>
<path fill="none" stroke="#9a32cd" stroke-dasharray="5,2" d="M290.121,-31.6495C285.395,-58.4046 273.906,-106.763 249,-140 243.241,-147.686 235.249,-154.859 228.461,-160.263"/>
<polygon fill="#9a32cd" stroke="#9a32cd" points="293.603,-32.0447 291.752,-21.6128 286.693,-30.9219 293.603,-32.0447"/>
<text text-anchor="middle" x="300.5" y="-86.9" font-family="Helvetica,sans-Serif" font-size="12.00"> internal</text>
</g>
<!-- Node4 -->
<g id="node4" class="node"><title>Node4</title>
<g id="a_node4"><a xlink:href="../../d9/df1/unioninternal_j_s_o_n_node_1_1value__union__t.html" target="_top" xlink:title="internalJSONNode::value\l_union_t">
<polygon fill="white" stroke="black" points="352.5,-73 352.5,-107 499.5,-107 499.5,-73 352.5,-73"/>
<text text-anchor="start" x="360.5" y="-93.4" font-family="Helvetica,sans-Serif" font-size="12.00">internalJSONNode::value</text>
<text text-anchor="middle" x="426" y="-80.4" font-family="Helvetica,sans-Serif" font-size="12.00">_union_t</text>
</a>
</g>
</g>
<!-- Node4&#45;&gt;Node3 -->
<g id="edge4" class="edge"><title>Node4&#45;&gt;Node3</title>
<path fill="none" stroke="#9a32cd" stroke-dasharray="5,2" d="M389.243,-67.7196C363.141,-52.6081 329.34,-33.0388 309.525,-21.5673"/>
<polygon fill="#9a32cd" stroke="#9a32cd" points="387.711,-70.8769 398.119,-72.8583 391.218,-64.8189 387.711,-70.8769"/>
<text text-anchor="middle" x="381.5" y="-43.9" font-family="Helvetica,sans-Serif" font-size="12.00"> _value</text>
</g>
<!-- Node5&#45;&gt;Node3 -->
<g id="edge5" class="edge"><title>Node5&#45;&gt;Node3</title>
<path fill="none" stroke="#9a32cd" stroke-dasharray="5,2" d="M210.046,-69.4219C208.756,-59.7524 209.096,-48.3916 215,-40 220.878,-31.6451 229.495,-25.7708 238.88,-21.6438"/>
<polygon fill="#9a32cd" stroke="#9a32cd" points="206.637,-70.2273 211.987,-79.3722 213.508,-68.887 206.637,-70.2273"/>
<text text-anchor="middle" x="247" y="-43.9" font-family="Helvetica,sans-Serif" font-size="12.00"> CHILDREN</text>
</g>
</g>
</svg>
