<?xml version="1.0" encoding="UTF-8" standalone="no"?>
<!DOCTYPE svg PUBLIC "-//W3C//DTD SVG 1.1//EN"
 "http://www.w3.org/Graphics/SVG/1.1/DTD/svg11.dtd">
<!-- Generated by graphviz version 2.34.0 (20130907.0111)
 -->
<!-- Title: COperatorConsoleApp::UpdateResultsSFRplus Pages: 1 -->
<svg width="682pt" height="442pt"
 viewBox="0.00 0.00 682.00 442.00" xmlns="http://www.w3.org/2000/svg" xmlns:xlink="http://www.w3.org/1999/xlink">
<g id="graph0" class="graph" transform="scale(1 1) rotate(0) translate(4 438)">
<title>COperatorConsoleApp::UpdateResultsSFRplus</title>
<polygon fill="white" stroke="white" points="-4,4 -4,-438 678,-438 678,4 -4,4"/>
<!-- Node1 -->
<g id="node1" class="node"><title>Node1</title>
<polygon fill="#bfbfbf" stroke="black" points="0,-308 0,-342 144,-342 144,-308 0,-308"/>
<text text-anchor="start" x="8" y="-328.4" font-family="Helvetica,sans-Serif" font-size="12.00">COperatorConsoleApp</text>
<text text-anchor="middle" x="72" y="-315.4" font-family="Helvetica,sans-Serif" font-size="12.00">::UpdateResultsSFRplus</text>
</g>
<!-- Node2 -->
<g id="node2" class="node"><title>Node2</title>
<g id="a_node2"><a xlink:href="../../dd/d12/class_s_f_rplus_test.html#a5ea622bc758ce179adae18196b0ddf8b" target="_top" xlink:title="SFRplusTest::GetQSO">
<polygon fill="white" stroke="black" points="181.5,-361.5 181.5,-382.5 316.5,-382.5 316.5,-361.5 181.5,-361.5"/>
<text text-anchor="middle" x="249" y="-368.9" font-family="Helvetica,sans-Serif" font-size="12.00">SFRplusTest::GetQSO</text>
</a>
</g>
</g>
<!-- Node1&#45;&gt;Node2 -->
<g id="edge1" class="edge"><title>Node1&#45;&gt;Node2</title>
<path fill="none" stroke="midnightblue" d="M136.674,-342.101C157.23,-347.622 179.685,-353.652 199.009,-358.842"/>
<polygon fill="midnightblue" stroke="midnightblue" points="198.237,-362.259 208.802,-361.473 200.052,-355.499 198.237,-362.259"/>
</g>
<!-- Node3 -->
<g id="node3" class="node"><title>Node3</title>
<g id="a_node3"><a xlink:href="../../dd/dd1/class_c_operator_console_dlg.html#ac6388b6097a94350ecf4abf7e166f9a6" target="_top" xlink:title="COperatorConsoleDlg\l::UpdateQuadrants">
<polygon fill="white" stroke="black" points="182,-308 182,-342 316,-342 316,-308 182,-308"/>
<text text-anchor="start" x="190" y="-328.4" font-family="Helvetica,sans-Serif" font-size="12.00">COperatorConsoleDlg</text>
<text text-anchor="middle" x="249" y="-315.4" font-family="Helvetica,sans-Serif" font-size="12.00">::UpdateQuadrants</text>
</a>
</g>
</g>
<!-- Node1&#45;&gt;Node3 -->
<g id="edge2" class="edge"><title>Node1&#45;&gt;Node3</title>
<path fill="none" stroke="midnightblue" d="M144.179,-325C153.255,-325 162.573,-325 171.725,-325"/>
<polygon fill="midnightblue" stroke="midnightblue" points="171.965,-328.5 181.965,-325 171.965,-321.5 171.965,-328.5"/>
</g>
<!-- Node5 -->
<g id="node5" class="node"><title>Node5</title>
<g id="a_node5"><a xlink:href="../../d3/d9f/class_c_operator_console_app.html#a61fec0ac8bc8938749e977686e37e0dc" target="_top" xlink:title="COperatorConsoleApp\l::UpdateResults">
<polygon fill="white" stroke="black" points="180.5,-182 180.5,-216 317.5,-216 317.5,-182 180.5,-182"/>
<text text-anchor="start" x="188.5" y="-202.4" font-family="Helvetica,sans-Serif" font-size="12.00">COperatorConsoleApp</text>
<text text-anchor="middle" x="249" y="-189.4" font-family="Helvetica,sans-Serif" font-size="12.00">::UpdateResults</text>
</a>
</g>
</g>
<!-- Node1&#45;&gt;Node5 -->
<g id="edge4" class="edge"><title>Node1&#45;&gt;Node5</title>
<path fill="none" stroke="midnightblue" d="M96.9661,-307.744C127.86,-285.501 181.681,-246.75 216.035,-222.015"/>
<polygon fill="midnightblue" stroke="midnightblue" points="218.253,-224.731 224.323,-216.047 214.163,-219.05 218.253,-224.731"/>
</g>
<!-- Node4 -->
<g id="node4" class="node"><title>Node4</title>
<g id="a_node4"><a xlink:href="../../dd/dd1/class_c_operator_console_dlg.html#a3dc3be61b2ebac3cd120e8542b3952c3" target="_top" xlink:title="COperatorConsoleDlg\l::UpdateQuadrant">
<polygon fill="white" stroke="black" points="356,-359 356,-393 490,-393 490,-359 356,-359"/>
<text text-anchor="start" x="364" y="-379.4" font-family="Helvetica,sans-Serif" font-size="12.00">COperatorConsoleDlg</text>
<text text-anchor="middle" x="423" y="-366.4" font-family="Helvetica,sans-Serif" font-size="12.00">::UpdateQuadrant</text>
</a>
</g>
</g>
<!-- Node3&#45;&gt;Node4 -->
<g id="edge3" class="edge"><title>Node3&#45;&gt;Node4</title>
<path fill="none" stroke="midnightblue" d="M307.752,-342.124C322.723,-346.563 338.978,-351.383 354.405,-355.957"/>
<polygon fill="midnightblue" stroke="midnightblue" points="353.818,-359.434 364.4,-358.921 355.808,-352.723 353.818,-359.434"/>
</g>
<!-- Node6 -->
<g id="node6" class="node"><title>Node6</title>
<g id="a_node6"><a xlink:href="../../d3/d9f/class_c_operator_console_app.html#ae1cbaab939cb91a18fe8c63e54367fdb" target="_top" xlink:title="COperatorConsoleApp\l::GetResults">
<polygon fill="white" stroke="black" points="354.5,-306 354.5,-340 491.5,-340 491.5,-306 354.5,-306"/>
<text text-anchor="start" x="362.5" y="-326.4" font-family="Helvetica,sans-Serif" font-size="12.00">COperatorConsoleApp</text>
<text text-anchor="middle" x="423" y="-313.4" font-family="Helvetica,sans-Serif" font-size="12.00">::GetResults</text>
</a>
</g>
</g>
<!-- Node5&#45;&gt;Node6 -->
<g id="edge5" class="edge"><title>Node5&#45;&gt;Node6</title>
<path fill="none" stroke="midnightblue" d="M264.653,-216.141C283.504,-237.308 318.117,-273.288 354,-296 356.988,-297.891 360.131,-299.691 363.359,-301.396"/>
<polygon fill="midnightblue" stroke="midnightblue" points="362.108,-304.68 372.626,-305.949 365.195,-298.398 362.108,-304.68"/>
</g>
<!-- Node12 -->
<g id="node12" class="node"><title>Node12</title>
<g id="a_node12"><a xlink:href="../../dd/dd1/class_c_operator_console_dlg.html#ae937941b5c3b8b9655ad4f2f91c7ea9a" target="_top" xlink:title="COperatorConsoleDlg\l::LogMessage">
<polygon fill="white" stroke="black" points="356,-253 356,-287 490,-287 490,-253 356,-253"/>
<text text-anchor="start" x="364" y="-273.4" font-family="Helvetica,sans-Serif" font-size="12.00">COperatorConsoleDlg</text>
<text text-anchor="middle" x="423" y="-260.4" font-family="Helvetica,sans-Serif" font-size="12.00">::LogMessage</text>
</a>
</g>
</g>
<!-- Node5&#45;&gt;Node12 -->
<g id="edge11" class="edge"><title>Node5&#45;&gt;Node12</title>
<path fill="none" stroke="midnightblue" d="M289.916,-216.133C309.23,-224.36 332.777,-234.298 354,-243 358.798,-244.967 363.796,-246.994 368.807,-249.011"/>
<polygon fill="midnightblue" stroke="midnightblue" points="367.827,-252.389 378.411,-252.859 370.43,-245.891 367.827,-252.389"/>
</g>
<!-- Node14 -->
<g id="node14" class="node"><title>Node14</title>
<g id="a_node14"><a xlink:href="../../da/d92/class_image_test.html#a9c723f8f2839a5e455bcc13c7dbdb39d" target="_top" xlink:title="ImageTest::Passed">
<polygon fill="white" stroke="black" points="364,-212.5 364,-233.5 482,-233.5 482,-212.5 364,-212.5"/>
<text text-anchor="middle" x="423" y="-219.9" font-family="Helvetica,sans-Serif" font-size="12.00">ImageTest::Passed</text>
</a>
</g>
</g>
<!-- Node5&#45;&gt;Node14 -->
<g id="edge13" class="edge"><title>Node5&#45;&gt;Node14</title>
<path fill="none" stroke="midnightblue" d="M317.979,-208.485C329.744,-210.127 341.981,-211.835 353.753,-213.477"/>
<polygon fill="midnightblue" stroke="midnightblue" points="353.568,-216.985 363.956,-214.901 354.536,-210.052 353.568,-216.985"/>
</g>
<!-- Node15 -->
<g id="node15" class="node"><title>Node15</title>
<g id="a_node15"><a xlink:href="../../dd/dd1/class_c_operator_console_dlg.html#a699603055bddf9f727f58efd0d2b1d69" target="_top" xlink:title="COperatorConsoleDlg\l::UpdateFPS">
<polygon fill="white" stroke="black" points="356,-159 356,-193 490,-193 490,-159 356,-159"/>
<text text-anchor="start" x="364" y="-179.4" font-family="Helvetica,sans-Serif" font-size="12.00">COperatorConsoleDlg</text>
<text text-anchor="middle" x="423" y="-166.4" font-family="Helvetica,sans-Serif" font-size="12.00">::UpdateFPS</text>
</a>
</g>
</g>
<!-- Node5&#45;&gt;Node15 -->
<g id="edge14" class="edge"><title>Node5&#45;&gt;Node15</title>
<path fill="none" stroke="midnightblue" d="M317.979,-189.91C327.15,-188.683 336.608,-187.419 345.909,-186.175"/>
<polygon fill="midnightblue" stroke="midnightblue" points="346.471,-189.631 355.919,-184.836 345.544,-182.693 346.471,-189.631"/>
</g>
<!-- Node16 -->
<g id="node16" class="node"><title>Node16</title>
<g id="a_node16"><a xlink:href="../../dd/dd1/class_c_operator_console_dlg.html#a652b4785d94be4b8b18809662edb28bd" target="_top" xlink:title="COperatorConsoleDlg\l::UpdateImage">
<polygon fill="white" stroke="black" points="356,-106 356,-140 490,-140 490,-106 356,-106"/>
<text text-anchor="start" x="364" y="-126.4" font-family="Helvetica,sans-Serif" font-size="12.00">COperatorConsoleDlg</text>
<text text-anchor="middle" x="423" y="-113.4" font-family="Helvetica,sans-Serif" font-size="12.00">::UpdateImage</text>
</a>
</g>
</g>
<!-- Node5&#45;&gt;Node16 -->
<g id="edge15" class="edge"><title>Node5&#45;&gt;Node16</title>
<path fill="none" stroke="midnightblue" d="M284.894,-181.895C304.967,-172.222 330.744,-160.084 354,-150 358.687,-147.968 363.58,-145.908 368.498,-143.878"/>
<polygon fill="midnightblue" stroke="midnightblue" points="370,-147.046 377.939,-140.03 367.358,-140.564 370,-147.046"/>
</g>
<!-- Node18 -->
<g id="node18" class="node"><title>Node18</title>
<g id="a_node18"><a xlink:href="../../dd/dd1/class_c_operator_console_dlg.html#a8951b07d9665d1994a9ba7d6896fb816" target="_top" xlink:title="COperatorConsoleDlg\l::UpdateStatus">
<polygon fill="white" stroke="black" points="356,-53 356,-87 490,-87 490,-53 356,-53"/>
<text text-anchor="start" x="364" y="-73.4" font-family="Helvetica,sans-Serif" font-size="12.00">COperatorConsoleDlg</text>
<text text-anchor="middle" x="423" y="-60.4" font-family="Helvetica,sans-Serif" font-size="12.00">::UpdateStatus</text>
</a>
</g>
</g>
<!-- Node5&#45;&gt;Node18 -->
<g id="edge17" class="edge"><title>Node5&#45;&gt;Node18</title>
<path fill="none" stroke="midnightblue" d="M263.423,-181.83C281.752,-159.386 316.629,-120.106 354,-96 356.31,-94.5099 358.719,-93.0853 361.192,-91.7258"/>
<polygon fill="midnightblue" stroke="midnightblue" points="363.025,-94.7211 370.372,-87.0877 359.868,-88.4733 363.025,-94.7211"/>
</g>
<!-- Node19 -->
<g id="node19" class="node"><title>Node19</title>
<g id="a_node19"><a xlink:href="../../dd/dd1/class_c_operator_console_dlg.html#a696a817ef9e443f40c13674083426771" target="_top" xlink:title="COperatorConsoleDlg\l::UpdateSummary">
<polygon fill="white" stroke="black" points="356,-0 356,-34 490,-34 490,-0 356,-0"/>
<text text-anchor="start" x="364" y="-20.4" font-family="Helvetica,sans-Serif" font-size="12.00">COperatorConsoleDlg</text>
<text text-anchor="middle" x="423" y="-7.4" font-family="Helvetica,sans-Serif" font-size="12.00">::UpdateSummary</text>
</a>
</g>
</g>
<!-- Node5&#45;&gt;Node19 -->
<g id="edge18" class="edge"><title>Node5&#45;&gt;Node19</title>
<path fill="none" stroke="midnightblue" d="M257.094,-181.938C271.085,-150.252 305.17,-82.0048 354,-43 355.592,-41.728 357.254,-40.5131 358.97,-39.3532"/>
<polygon fill="midnightblue" stroke="midnightblue" points="361.14,-42.134 367.93,-34.0013 357.55,-36.1243 361.14,-42.134"/>
</g>
<!-- Node7 -->
<g id="node7" class="node"><title>Node7</title>
<g id="a_node7"><a xlink:href="../../da/d92/class_image_test.html#a2dfac15fc3e18dcd1400d2e6fe7f4b1a" target="_top" xlink:title="ImageTest::GetFailInfo">
<polygon fill="white" stroke="black" points="534,-412.5 534,-433.5 668,-433.5 668,-412.5 534,-412.5"/>
<text text-anchor="middle" x="601" y="-419.9" font-family="Helvetica,sans-Serif" font-size="12.00">ImageTest::GetFailInfo</text>
</a>
</g>
</g>
<!-- Node6&#45;&gt;Node7 -->
<g id="edge6" class="edge"><title>Node6&#45;&gt;Node7</title>
<path fill="none" stroke="midnightblue" d="M476.654,-340.135C482.104,-342.99 487.343,-346.264 492,-350 514.212,-367.818 504.866,-386.396 528,-403 530.688,-404.929 533.554,-406.672 536.537,-408.247"/>
<polygon fill="midnightblue" stroke="midnightblue" points="535.226,-411.497 545.775,-412.487 538.146,-405.135 535.226,-411.497"/>
</g>
<!-- Node8 -->
<g id="node8" class="node"><title>Node8</title>
<g id="a_node8"><a xlink:href="../../da/d92/class_image_test.html#ada4d8a43edec3fa01bbc4b01ef4b6b0e" target="_top" xlink:title="ImageTest::GetJSON">
<polygon fill="white" stroke="black" points="537,-372.5 537,-393.5 665,-393.5 665,-372.5 537,-372.5"/>
<text text-anchor="middle" x="601" y="-379.9" font-family="Helvetica,sans-Serif" font-size="12.00">ImageTest::GetJSON</text>
</a>
</g>
</g>
<!-- Node6&#45;&gt;Node8 -->
<g id="edge7" class="edge"><title>Node6&#45;&gt;Node8</title>
<path fill="none" stroke="midnightblue" d="M467.183,-340.087C490.244,-349.116 516.244,-359.116 528,-363 534.945,-365.294 542.322,-367.548 549.605,-369.667"/>
<polygon fill="midnightblue" stroke="midnightblue" points="548.852,-373.092 559.429,-372.466 550.77,-366.36 548.852,-373.092"/>
</g>
<!-- Node9 -->
<g id="node9" class="node"><title>Node9</title>
<g id="a_node9"><a xlink:href="../../da/d92/class_image_test.html#aec44cc808c82707c05710bdaf2b10b4a" target="_top" xlink:title="ImageTest::GetLog">
<polygon fill="white" stroke="black" points="543,-332.5 543,-353.5 659,-353.5 659,-332.5 543,-332.5"/>
<text text-anchor="middle" x="601" y="-339.9" font-family="Helvetica,sans-Serif" font-size="12.00">ImageTest::GetLog</text>
</a>
</g>
</g>
<!-- Node6&#45;&gt;Node9 -->
<g id="edge8" class="edge"><title>Node6&#45;&gt;Node9</title>
<path fill="none" stroke="midnightblue" d="M491.543,-330.675C505.061,-332.212 519.262,-333.825 532.77,-335.36"/>
<polygon fill="midnightblue" stroke="midnightblue" points="532.61,-338.865 542.941,-336.516 533.401,-331.909 532.61,-338.865"/>
</g>
<!-- Node10 -->
<g id="node10" class="node"><title>Node10</title>
<g id="a_node10"><a xlink:href="../../da/d92/class_image_test.html#a0f7d70f970bde7af57011132e4cb49fc" target="_top" xlink:title="ImageTest::GetName">
<polygon fill="white" stroke="black" points="537,-292.5 537,-313.5 665,-313.5 665,-292.5 537,-292.5"/>
<text text-anchor="middle" x="601" y="-299.9" font-family="Helvetica,sans-Serif" font-size="12.00">ImageTest::GetName</text>
</a>
</g>
</g>
<!-- Node6&#45;&gt;Node10 -->
<g id="edge9" class="edge"><title>Node6&#45;&gt;Node10</title>
<path fill="none" stroke="midnightblue" d="M491.543,-315.325C503.089,-314.013 515.133,-312.644 526.818,-311.316"/>
<polygon fill="midnightblue" stroke="midnightblue" points="527.432,-314.769 536.973,-310.162 526.641,-307.814 527.432,-314.769"/>
</g>
<!-- Node11 -->
<g id="node11" class="node"><title>Node11</title>
<g id="a_node11"><a xlink:href="../../da/d92/class_image_test.html#a4cf585eeef3f72a8721af5c1c3daa781" target="_top" xlink:title="ImageTest::GetSummary">
<polygon fill="white" stroke="black" points="528,-252.5 528,-273.5 674,-273.5 674,-252.5 528,-252.5"/>
<text text-anchor="middle" x="601" y="-259.9" font-family="Helvetica,sans-Serif" font-size="12.00">ImageTest::GetSummary</text>
</a>
</g>
</g>
<!-- Node6&#45;&gt;Node11 -->
<g id="edge10" class="edge"><title>Node6&#45;&gt;Node11</title>
<path fill="none" stroke="midnightblue" d="M467.183,-305.913C490.244,-296.884 516.244,-286.884 528,-283 534.945,-280.706 542.322,-278.452 549.605,-276.333"/>
<polygon fill="midnightblue" stroke="midnightblue" points="550.77,-279.64 559.429,-273.534 548.852,-272.908 550.77,-279.64"/>
</g>
<!-- Node13 -->
<g id="node13" class="node"><title>Node13</title>
<g id="a_node13"><a xlink:href="../../dd/d46/class_timestamp.html#ac1238e7ef53954ee90d6687601bc95e9" target="_top" xlink:title="Timestamp::Get">
<polygon fill="white" stroke="black" points="551,-212.5 551,-233.5 651,-233.5 651,-212.5 551,-212.5"/>
<text text-anchor="middle" x="601" y="-219.9" font-family="Helvetica,sans-Serif" font-size="12.00">Timestamp::Get</text>
</a>
</g>
</g>
<!-- Node12&#45;&gt;Node13 -->
<g id="edge12" class="edge"><title>Node12&#45;&gt;Node13</title>
<path fill="none" stroke="midnightblue" d="M488.038,-252.899C508.711,-247.378 531.294,-241.348 550.729,-236.158"/>
<polygon fill="midnightblue" stroke="midnightblue" points="551.82,-239.489 560.578,-233.527 550.014,-232.726 551.82,-239.489"/>
</g>
<!-- Node17 -->
<g id="node17" class="node"><title>Node17</title>
<g id="a_node17"><a xlink:href="../../dc/dad/class_c_static_bmp.html#a00d2d71cabb44468cacd464307d749d4" target="_top" xlink:title="CStaticBmp::Update">
<polygon fill="white" stroke="black" points="538.5,-112.5 538.5,-133.5 663.5,-133.5 663.5,-112.5 538.5,-112.5"/>
<text text-anchor="middle" x="601" y="-119.9" font-family="Helvetica,sans-Serif" font-size="12.00">CStaticBmp::Update</text>
</a>
</g>
</g>
<!-- Node16&#45;&gt;Node17 -->
<g id="edge16" class="edge"><title>Node16&#45;&gt;Node17</title>
<path fill="none" stroke="midnightblue" d="M490.037,-123C502.505,-123 515.602,-123 528.236,-123"/>
<polygon fill="midnightblue" stroke="midnightblue" points="528.249,-126.5 538.249,-123 528.249,-119.5 528.249,-126.5"/>
</g>
</g>
</svg>
