<?xml version="1.0" encoding="UTF-8" standalone="no"?>
<!DOCTYPE svg PUBLIC "-//W3C//DTD SVG 1.1//EN"
 "http://www.w3.org/Graphics/SVG/1.1/DTD/svg11.dtd">
<!-- Generated by graphviz version 2.34.0 (20130907.0111)
 -->
<!-- Title: COperatorConsoleApp::OnPassFail Pages: 1 -->
<svg width="566pt" height="190pt"
 viewBox="0.00 0.00 566.00 190.00" xmlns="http://www.w3.org/2000/svg" xmlns:xlink="http://www.w3.org/1999/xlink">
<g id="graph0" class="graph" transform="scale(1 1) rotate(0) translate(4 186)">
<title>COperatorConsoleApp::OnPassFail</title>
<polygon fill="white" stroke="white" points="-4,4 -4,-186 562,-186 562,4 -4,4"/>
<!-- Node1 -->
<g id="node1" class="node"><title>Node1</title>
<polygon fill="#bfbfbf" stroke="black" points="0.5,-107 0.5,-141 137.5,-141 137.5,-107 0.5,-107"/>
<text text-anchor="start" x="8.5" y="-127.4" font-family="Helvetica,sans-Serif" font-size="12.00">COperatorConsoleApp</text>
<text text-anchor="middle" x="69" y="-114.4" font-family="Helvetica,sans-Serif" font-size="12.00">::OnPassFail</text>
</g>
<!-- Node2 -->
<g id="node2" class="node"><title>Node2</title>
<g id="a_node2"><a xlink:href="../../d9/d42/class_c_password_dialog.html#aed436663c4f70f1e3ae7c4756f93c5d0" target="_top" xlink:title="returns what the user entered as the password ">
<polygon fill="white" stroke="black" points="174,-160.5 174,-181.5 362,-181.5 362,-160.5 174,-160.5"/>
<text text-anchor="middle" x="268" y="-167.9" font-family="Helvetica,sans-Serif" font-size="12.00">CPasswordDialog::getResponse</text>
</a>
</g>
</g>
<!-- Node1&#45;&gt;Node2 -->
<g id="edge1" class="edge"><title>Node1&#45;&gt;Node2</title>
<path fill="none" stroke="midnightblue" d="M137.079,-141.009C149.349,-144.052 162.05,-147.157 174,-150 185.334,-152.696 197.465,-155.497 209.099,-158.141"/>
<polygon fill="midnightblue" stroke="midnightblue" points="208.636,-161.625 219.162,-160.418 210.181,-154.797 208.636,-161.625"/>
</g>
<!-- Node3 -->
<g id="node3" class="node"><title>Node3</title>
<g id="a_node3"><a xlink:href="../../d9/d42/class_c_password_dialog.html#af2dd33a1cd1adc377a4b1ab3844c4c49" target="_top" xlink:title="returns whether the user decided to unlock access to pass/fail settings until the program closes ...">
<polygon fill="white" stroke="black" points="183,-107 183,-141 353,-141 353,-107 183,-107"/>
<text text-anchor="start" x="191" y="-127.4" font-family="Helvetica,sans-Serif" font-size="12.00">CPasswordDialog::getUnlock</text>
<text text-anchor="middle" x="268" y="-114.4" font-family="Helvetica,sans-Serif" font-size="12.00">Status</text>
</a>
</g>
</g>
<!-- Node1&#45;&gt;Node3 -->
<g id="edge2" class="edge"><title>Node1&#45;&gt;Node3</title>
<path fill="none" stroke="midnightblue" d="M137.521,-124C148.806,-124 160.695,-124 172.507,-124"/>
<polygon fill="midnightblue" stroke="midnightblue" points="172.851,-127.5 182.851,-124 172.851,-120.5 172.851,-127.5"/>
</g>
<!-- Node4 -->
<g id="node4" class="node"><title>Node4</title>
<g id="a_node4"><a xlink:href="../../d3/d9f/class_c_operator_console_app.html#aab4583fb7e725968ea95224ef0c773e7" target="_top" xlink:title="This function writes the pass/fail variables to the pass/fail file listed in the imatest INI file...">
<polygon fill="white" stroke="black" points="199.5,-54 199.5,-88 336.5,-88 336.5,-54 199.5,-54"/>
<text text-anchor="start" x="207.5" y="-74.4" font-family="Helvetica,sans-Serif" font-size="12.00">COperatorConsoleApp</text>
<text text-anchor="middle" x="268" y="-61.4" font-family="Helvetica,sans-Serif" font-size="12.00">::WritePassFail</text>
</a>
</g>
</g>
<!-- Node1&#45;&gt;Node4 -->
<g id="edge3" class="edge"><title>Node1&#45;&gt;Node4</title>
<path fill="none" stroke="midnightblue" d="M133.416,-106.939C152.661,-101.761 173.961,-96.0309 193.793,-90.6953"/>
<polygon fill="midnightblue" stroke="midnightblue" points="194.955,-94.0072 203.702,-88.0293 193.136,-87.2475 194.955,-94.0072"/>
</g>
<!-- Node5 -->
<g id="node5" class="node"><title>Node5</title>
<g id="a_node5"><a xlink:href="../../db/db5/_documentation_2_operator-_console_2_operator_console_8cpp.html#a11ecb189cc593bc1e924280e66d85a77" target="_top" xlink:title="Conditionally adds a particular key (variable name) and value to the std::vector&lt;std::string&gt; keys...">
<polygon fill="white" stroke="black" points="418,-120.5 418,-141.5 538,-141.5 538,-120.5 418,-120.5"/>
<text text-anchor="middle" x="478" y="-127.9" font-family="Helvetica,sans-Serif" font-size="12.00">addKeysAndValues</text>
</a>
</g>
</g>
<!-- Node4&#45;&gt;Node5 -->
<g id="edge4" class="edge"><title>Node4&#45;&gt;Node5</title>
<path fill="none" stroke="midnightblue" d="M329.704,-88.0158C340.498,-91.2143 351.608,-94.619 362,-98 378.177,-103.263 381.735,-106.018 398,-111 405.79,-113.386 414.073,-115.711 422.232,-117.881"/>
<polygon fill="midnightblue" stroke="midnightblue" points="421.524,-121.313 432.083,-120.445 423.287,-114.539 421.524,-121.313"/>
</g>
<!-- Node6 -->
<g id="node6" class="node"><title>Node6</title>
<g id="a_node6"><a xlink:href="../../db/db5/_documentation_2_operator-_console_2_operator_console_8cpp.html#ad10a2b1599ac382806e6218f4ccd07c1" target="_top" xlink:title="Converts the vecEntry&lt;CString&gt;.value into a single std::string to facilitate writing to the pass/fail...">
<polygon fill="white" stroke="black" points="408,-80.5 408,-101.5 548,-101.5 548,-80.5 408,-80.5"/>
<text text-anchor="middle" x="478" y="-87.9" font-family="Helvetica,sans-Serif" font-size="12.00">writeVecEntValueString</text>
</a>
</g>
</g>
<!-- Node4&#45;&gt;Node6 -->
<g id="edge5" class="edge"><title>Node4&#45;&gt;Node6</title>
<path fill="none" stroke="midnightblue" d="M336.532,-77.4934C356.015,-79.3669 377.454,-81.4283 397.589,-83.3643"/>
<polygon fill="midnightblue" stroke="midnightblue" points="397.378,-86.8601 407.667,-84.3333 398.048,-79.8922 397.378,-86.8601"/>
</g>
<!-- Node7 -->
<g id="node7" class="node"><title>Node7</title>
<g id="a_node7"><a xlink:href="../../db/db5/_documentation_2_operator-_console_2_operator_console_8cpp.html#a6bde8a4b872c50e28d3bd8910865951d" target="_top" xlink:title="Converts the entry&lt;T&gt;.value into a std::string to facilitate writing to the pass/fail file...">
<polygon fill="white" stroke="black" points="418.5,-40.5 418.5,-61.5 537.5,-61.5 537.5,-40.5 418.5,-40.5"/>
<text text-anchor="middle" x="478" y="-47.9" font-family="Helvetica,sans-Serif" font-size="12.00">writeEntValueString</text>
</a>
</g>
</g>
<!-- Node4&#45;&gt;Node7 -->
<g id="edge6" class="edge"><title>Node4&#45;&gt;Node7</title>
<path fill="none" stroke="midnightblue" d="M336.532,-64.5066C359.471,-62.3008 385.121,-59.8345 408.161,-57.6191"/>
<polygon fill="midnightblue" stroke="midnightblue" points="408.582,-61.0949 418.201,-56.6537 407.912,-54.127 408.582,-61.0949"/>
</g>
<!-- Node8 -->
<g id="node8" class="node"><title>Node8</title>
<g id="a_node8"><a xlink:href="../../db/db5/_documentation_2_operator-_console_2_operator_console_8cpp.html#aac809da01c6c75d04fe012a93ebfec3a" target="_top" xlink:title="Converts the minMaxEntry&lt;CString&gt;.min_val and .max_val into a std::string to facilitate writing to th...">
<polygon fill="white" stroke="black" points="398,-0.5 398,-21.5 558,-21.5 558,-0.5 398,-0.5"/>
<text text-anchor="middle" x="478" y="-7.9" font-family="Helvetica,sans-Serif" font-size="12.00">writeMinMaxEntValueString</text>
</a>
</g>
</g>
<!-- Node4&#45;&gt;Node8 -->
<g id="edge7" class="edge"><title>Node4&#45;&gt;Node8</title>
<path fill="none" stroke="midnightblue" d="M321.848,-53.9235C345.118,-46.5832 372.833,-38.0822 398,-31 406.222,-28.6861 414.961,-26.3512 423.514,-24.134"/>
<polygon fill="midnightblue" stroke="midnightblue" points="424.609,-27.4664 433.428,-21.5934 422.872,-20.6855 424.609,-27.4664"/>
</g>
</g>
</svg>
