<?xml version="1.0" encoding="UTF-8" standalone="no"?>
<!DOCTYPE svg PUBLIC "-//W3C//DTD SVG 1.1//EN"
 "http://www.w3.org/Graphics/SVG/1.1/DTD/svg11.dtd">
<!-- Generated by graphviz version 2.34.0 (20130907.0111)
 -->
<!-- Title: COperatorConsoleApp::UpdateResults Pages: 1 -->
<svg width="674pt" height="95pt"
 viewBox="0.00 0.00 674.00 95.00" xmlns="http://www.w3.org/2000/svg" xmlns:xlink="http://www.w3.org/1999/xlink">
<g id="graph0" class="graph" transform="scale(1 1) rotate(0) translate(4 91)">
<title>COperatorConsoleApp::UpdateResults</title>
<polygon fill="white" stroke="white" points="-4,4 -4,-91 670,-91 670,4 -4,4"/>
<!-- Node1 -->
<g id="node1" class="node"><title>Node1</title>
<polygon fill="#bfbfbf" stroke="black" points="0.5,-27 0.5,-61 137.5,-61 137.5,-27 0.5,-27"/>
<text text-anchor="start" x="8.5" y="-47.4" font-family="Helvetica,sans-Serif" font-size="12.00">COperatorConsoleApp</text>
<text text-anchor="middle" x="69" y="-34.4" font-family="Helvetica,sans-Serif" font-size="12.00">::UpdateResults</text>
</g>
<!-- Node2 -->
<g id="node2" class="node"><title>Node2</title>
<g id="a_node2"><a xlink:href="../../d3/d9f/class_c_operator_console_app.html#aeed50eef07f7d6350dffd5730793908c" target="_top" xlink:title="Called after MSG_BLEMISH_DONE is received. ">
<polygon fill="white" stroke="black" points="354.5,-53 354.5,-87 491.5,-87 491.5,-53 354.5,-53"/>
<text text-anchor="start" x="362.5" y="-73.4" font-family="Helvetica,sans-Serif" font-size="12.00">COperatorConsoleApp</text>
<text text-anchor="middle" x="423" y="-60.4" font-family="Helvetica,sans-Serif" font-size="12.00">::OnBlemishDone</text>
</a>
</g>
</g>
<!-- Node1&#45;&gt;Node2 -->
<g id="edge1" class="edge"><title>Node1&#45;&gt;Node2</title>
<path fill="none" stroke="midnightblue" d="M147.968,-49.759C209.808,-54.3267 295.357,-60.6457 354.339,-65.0023"/>
<polygon fill="midnightblue" stroke="midnightblue" points="148.1,-46.2593 137.869,-49.0131 147.584,-53.2403 148.1,-46.2593"/>
</g>
<!-- Node4 -->
<g id="node4" class="node"><title>Node4</title>
<g id="a_node4"><a xlink:href="../../d3/d9f/class_c_operator_console_app.html#afcaa58d4a5fb9c7cff5e35ae64e1420c" target="_top" xlink:title="COperatorConsoleApp\l::UpdateResultsSFRplus">
<polygon fill="white" stroke="black" points="174,-3 174,-37 318,-37 318,-3 174,-3"/>
<text text-anchor="start" x="182" y="-23.4" font-family="Helvetica,sans-Serif" font-size="12.00">COperatorConsoleApp</text>
<text text-anchor="middle" x="246" y="-10.4" font-family="Helvetica,sans-Serif" font-size="12.00">::UpdateResultsSFRplus</text>
</a>
</g>
</g>
<!-- Node1&#45;&gt;Node4 -->
<g id="edge3" class="edge"><title>Node1&#45;&gt;Node4</title>
<path fill="none" stroke="midnightblue" d="M147.742,-33.3382C156.399,-32.151 165.185,-30.9461 173.755,-29.7708"/>
<polygon fill="midnightblue" stroke="midnightblue" points="147.091,-29.8946 137.66,-34.721 148.042,-36.8297 147.091,-29.8946"/>
</g>
<!-- Node3 -->
<g id="node3" class="node"><title>Node3</title>
<g id="a_node3"><a xlink:href="../../d3/d9f/class_c_operator_console_app.html#a7041d197c4e6549f2cb7219981b4eec1" target="_top" xlink:title="Intercepts messages of interest before Windows or MFC. ">
<polygon fill="white" stroke="black" points="528,-26 528,-60 666,-60 666,-26 528,-26"/>
<text text-anchor="start" x="536" y="-46.4" font-family="Helvetica,sans-Serif" font-size="12.00">COperatorConsoleApp</text>
<text text-anchor="middle" x="597" y="-33.4" font-family="Helvetica,sans-Serif" font-size="12.00">::PreTranslateMessage</text>
</a>
</g>
</g>
<!-- Node2&#45;&gt;Node3 -->
<g id="edge2" class="edge"><title>Node2&#45;&gt;Node3</title>
<path fill="none" stroke="midnightblue" d="M502.054,-57.7474C510.696,-56.3907 519.446,-55.0171 527.952,-53.682"/>
<polygon fill="midnightblue" stroke="midnightblue" points="501.315,-54.3204 491.979,-59.3289 502.401,-61.2357 501.315,-54.3204"/>
</g>
<!-- Node5 -->
<g id="node5" class="node"><title>Node5</title>
<g id="a_node5"><a xlink:href="../../d3/d9f/class_c_operator_console_app.html#a58fa1716c660b80c55845b79505ff4d6" target="_top" xlink:title="Called after MSG_SFRPLUS_DONE is received. ">
<polygon fill="white" stroke="black" points="354.5,-0 354.5,-34 491.5,-34 491.5,-0 354.5,-0"/>
<text text-anchor="start" x="362.5" y="-20.4" font-family="Helvetica,sans-Serif" font-size="12.00">COperatorConsoleApp</text>
<text text-anchor="middle" x="423" y="-7.4" font-family="Helvetica,sans-Serif" font-size="12.00">::OnSFRplusDone</text>
</a>
</g>
</g>
<!-- Node4&#45;&gt;Node5 -->
<g id="edge4" class="edge"><title>Node4&#45;&gt;Node5</title>
<path fill="none" stroke="midnightblue" d="M328.318,-18.606C337.005,-18.4571 345.773,-18.3068 354.278,-18.161"/>
<polygon fill="midnightblue" stroke="midnightblue" points="328.118,-15.1088 318.179,-18.7798 328.238,-22.1078 328.118,-15.1088"/>
</g>
<!-- Node5&#45;&gt;Node3 -->
<g id="edge5" class="edge"><title>Node5&#45;&gt;Node3</title>
<path fill="none" stroke="midnightblue" d="M502.054,-28.7988C510.696,-30.1052 519.446,-31.4279 527.952,-32.7136"/>
<polygon fill="midnightblue" stroke="midnightblue" points="502.39,-25.3099 491.979,-27.2759 501.343,-32.2313 502.39,-25.3099"/>
</g>
</g>
</svg>
