<?xml version="1.0" encoding="UTF-8" standalone="no"?>
<!DOCTYPE svg PUBLIC "-//W3C//DTD SVG 1.1//EN"
 "http://www.w3.org/Graphics/SVG/1.1/DTD/svg11.dtd">
<!-- Generated by graphviz version 2.34.0 (20130907.0111)
 -->
<!-- Title: COperatorConsoleApp::InitCameraThread Pages: 1 -->
<svg width="548pt" height="124pt"
 viewBox="0.00 0.00 548.00 124.00" xmlns="http://www.w3.org/2000/svg" xmlns:xlink="http://www.w3.org/1999/xlink">
<g id="graph0" class="graph" transform="scale(1 1) rotate(0) translate(4 120)">
<title>COperatorConsoleApp::InitCameraThread</title>
<polygon fill="white" stroke="white" points="-4,4 -4,-120 544,-120 544,4 -4,4"/>
<!-- Node1 -->
<g id="node1" class="node"><title>Node1</title>
<polygon fill="#bfbfbf" stroke="black" points="0.5,-62 0.5,-96 137.5,-96 137.5,-62 0.5,-62"/>
<text text-anchor="start" x="8.5" y="-82.4" font-family="Helvetica,sans-Serif" font-size="12.00">COperatorConsoleApp</text>
<text text-anchor="middle" x="69" y="-69.4" font-family="Helvetica,sans-Serif" font-size="12.00">::InitCameraThread</text>
</g>
<!-- Node2 -->
<g id="node2" class="node"><title>Node2</title>
<g id="a_node2"><a xlink:href="../../d7/da0/class_thread_control.html#a5054f2ad6297cc65b4cb9146437f48b0" target="_top" xlink:title="ThreadControl::Init">
<polygon fill="white" stroke="black" points="205.5,-90.5 205.5,-111.5 316.5,-111.5 316.5,-90.5 205.5,-90.5"/>
<text text-anchor="middle" x="261" y="-97.9" font-family="Helvetica,sans-Serif" font-size="12.00">ThreadControl::Init</text>
</a>
</g>
</g>
<!-- Node1&#45;&gt;Node2 -->
<g id="edge1" class="edge"><title>Node1&#45;&gt;Node2</title>
<path fill="none" stroke="midnightblue" d="M137.522,-86.8183C156.241,-88.9858 176.518,-91.3337 195.085,-93.4835"/>
<polygon fill="midnightblue" stroke="midnightblue" points="194.867,-96.9816 205.203,-94.6551 195.672,-90.0281 194.867,-96.9816"/>
</g>
<!-- Node4 -->
<g id="node4" class="node"><title>Node4</title>
<g id="a_node4"><a xlink:href="../../d8/d29/class_image_acquisition.html#a87bc694942384075ece4dd9256215f0d" target="_top" xlink:title="ImageAcquisition::ThreadProc">
<polygon fill="white" stroke="black" points="174,-47.5 174,-68.5 348,-68.5 348,-47.5 174,-47.5"/>
<text text-anchor="middle" x="261" y="-54.9" font-family="Helvetica,sans-Serif" font-size="12.00">ImageAcquisition::ThreadProc</text>
</a>
</g>
</g>
<!-- Node1&#45;&gt;Node4 -->
<g id="edge3" class="edge"><title>Node1&#45;&gt;Node4</title>
<path fill="none" stroke="midnightblue" d="M137.522,-71.5371C146.047,-70.5949 154.894,-69.6169 163.756,-68.6375"/>
<polygon fill="midnightblue" stroke="midnightblue" points="164.197,-72.1102 173.752,-67.5327 163.428,-65.1526 164.197,-72.1102"/>
</g>
<!-- Node3 -->
<g id="node3" class="node"><title>Node3</title>
<g id="a_node3"><a xlink:href="../../d7/da0/class_thread_control.html#ae2bdd5434d609141dda49566f81c9ce6" target="_top" xlink:title="ThreadControl::InitThread">
<polygon fill="white" stroke="black" points="388,-94.5 388,-115.5 536,-115.5 536,-94.5 388,-94.5"/>
<text text-anchor="middle" x="462" y="-101.9" font-family="Helvetica,sans-Serif" font-size="12.00">ThreadControl::InitThread</text>
</a>
</g>
</g>
<!-- Node2&#45;&gt;Node3 -->
<g id="edge2" class="edge"><title>Node2&#45;&gt;Node3</title>
<path fill="none" stroke="midnightblue" d="M316.641,-102.098C335.527,-102.478 357.141,-102.912 377.792,-103.327"/>
<polygon fill="midnightblue" stroke="midnightblue" points="377.768,-106.828 387.836,-103.529 377.909,-99.829 377.768,-106.828"/>
</g>
<!-- Node5 -->
<g id="node5" class="node"><title>Node5</title>
<g id="a_node5"><a xlink:href="../../d8/d29/class_image_acquisition.html#abb79a26a0c95f3fae6d5469ad936d12c" target="_top" xlink:title="capture a single image into m_buf ">
<polygon fill="white" stroke="black" points="384.5,-41 384.5,-75 539.5,-75 539.5,-41 384.5,-41"/>
<text text-anchor="start" x="392.5" y="-61.4" font-family="Helvetica,sans-Serif" font-size="12.00">ImageAcquisition::Capture</text>
<text text-anchor="middle" x="462" y="-48.4" font-family="Helvetica,sans-Serif" font-size="12.00">Frame</text>
</a>
</g>
</g>
<!-- Node4&#45;&gt;Node5 -->
<g id="edge4" class="edge"><title>Node4&#45;&gt;Node5</title>
<path fill="none" stroke="midnightblue" d="M348.127,-58C356.809,-58 365.63,-58 374.318,-58"/>
<polygon fill="midnightblue" stroke="midnightblue" points="374.441,-61.5001 384.441,-58 374.44,-54.5001 374.441,-61.5001"/>
</g>
<!-- Node6 -->
<g id="node6" class="node"><title>Node6</title>
<g id="a_node6"><a xlink:href="../../d3/d1e/class_critical_buf.html#abeb31c8a1c19e03799e9a7ee4397d86b" target="_top" xlink:title="CriticalBuf::Set">
<polygon fill="white" stroke="black" points="414.5,-0.5 414.5,-21.5 509.5,-21.5 509.5,-0.5 414.5,-0.5"/>
<text text-anchor="middle" x="462" y="-7.9" font-family="Helvetica,sans-Serif" font-size="12.00">CriticalBuf::Set</text>
</a>
</g>
</g>
<!-- Node4&#45;&gt;Node6 -->
<g id="edge5" class="edge"><title>Node4&#45;&gt;Node6</title>
<path fill="none" stroke="midnightblue" d="M306.659,-47.4523C336.233,-40.4677 375.205,-31.2631 406.588,-23.851"/>
<polygon fill="midnightblue" stroke="midnightblue" points="407.562,-27.2174 416.49,-21.5125 405.953,-20.4049 407.562,-27.2174"/>
</g>
</g>
</svg>
