<?xml version="1.0" encoding="UTF-8" standalone="no"?>
<!DOCTYPE svg PUBLIC "-//W3C//DTD SVG 1.1//EN"
 "http://www.w3.org/Graphics/SVG/1.1/DTD/svg11.dtd">
<!-- Generated by graphviz version 2.34.0 (20130907.0111)
 -->
<!-- Title: COperatorConsoleApp::UpdateResultsSFRplus Pages: 1 -->
<svg width="500pt" height="42pt"
 viewBox="0.00 0.00 500.00 42.00" xmlns="http://www.w3.org/2000/svg" xmlns:xlink="http://www.w3.org/1999/xlink">
<g id="graph0" class="graph" transform="scale(1 1) rotate(0) translate(4 38)">
<title>COperatorConsoleApp::UpdateResultsSFRplus</title>
<polygon fill="white" stroke="white" points="-4,4 -4,-38 496,-38 496,4 -4,4"/>
<!-- Node1 -->
<g id="node1" class="node"><title>Node1</title>
<polygon fill="#bfbfbf" stroke="black" points="0,-0 0,-34 144,-34 144,-0 0,-0"/>
<text text-anchor="start" x="8" y="-20.4" font-family="Helvetica,sans-Serif" font-size="12.00">COperatorConsoleApp</text>
<text text-anchor="middle" x="72" y="-7.4" font-family="Helvetica,sans-Serif" font-size="12.00">::UpdateResultsSFRplus</text>
</g>
<!-- Node2 -->
<g id="node2" class="node"><title>Node2</title>
<g id="a_node2"><a xlink:href="../../d3/d9f/class_c_operator_console_app.html#a58fa1716c660b80c55845b79505ff4d6" target="_top" xlink:title="Called after MSG_SFRPLUS_DONE is received. ">
<polygon fill="white" stroke="black" points="180.5,-0 180.5,-34 317.5,-34 317.5,-0 180.5,-0"/>
<text text-anchor="start" x="188.5" y="-20.4" font-family="Helvetica,sans-Serif" font-size="12.00">COperatorConsoleApp</text>
<text text-anchor="middle" x="249" y="-7.4" font-family="Helvetica,sans-Serif" font-size="12.00">::OnSFRplusDone</text>
</a>
</g>
</g>
<!-- Node1&#45;&gt;Node2 -->
<g id="edge1" class="edge"><title>Node1&#45;&gt;Node2</title>
<path fill="none" stroke="midnightblue" d="M154.318,-17C163.005,-17 171.773,-17 180.278,-17"/>
<polygon fill="midnightblue" stroke="midnightblue" points="154.179,-13.5001 144.179,-17 154.179,-20.5001 154.179,-13.5001"/>
</g>
<!-- Node3 -->
<g id="node3" class="node"><title>Node3</title>
<g id="a_node3"><a xlink:href="../../d3/d9f/class_c_operator_console_app.html#a7041d197c4e6549f2cb7219981b4eec1" target="_top" xlink:title="Intercepts messages of interest before Windows or MFC. ">
<polygon fill="white" stroke="black" points="354,-0 354,-34 492,-34 492,-0 354,-0"/>
<text text-anchor="start" x="362" y="-20.4" font-family="Helvetica,sans-Serif" font-size="12.00">COperatorConsoleApp</text>
<text text-anchor="middle" x="423" y="-7.4" font-family="Helvetica,sans-Serif" font-size="12.00">::PreTranslateMessage</text>
</a>
</g>
</g>
<!-- Node2&#45;&gt;Node3 -->
<g id="edge2" class="edge"><title>Node2&#45;&gt;Node3</title>
<path fill="none" stroke="midnightblue" d="M328.054,-17C336.696,-17 345.446,-17 353.952,-17"/>
<polygon fill="midnightblue" stroke="midnightblue" points="327.979,-13.5001 317.979,-17 327.979,-20.5001 327.979,-13.5001"/>
</g>
</g>
</svg>
