<?xml version="1.0" encoding="UTF-8" standalone="no"?>
<!DOCTYPE svg PUBLIC "-//W3C//DTD SVG 1.1//EN"
 "http://www.w3.org/Graphics/SVG/1.1/DTD/svg11.dtd">
<!-- Generated by graphviz version 2.34.0 (20130907.0111)
 -->
<!-- Title: COperatorConsoleApp::InitLibs Pages: 1 -->
<svg width="490pt" height="123pt"
 viewBox="0.00 0.00 490.00 123.00" xmlns="http://www.w3.org/2000/svg" xmlns:xlink="http://www.w3.org/1999/xlink">
<g id="graph0" class="graph" transform="scale(1 1) rotate(0) translate(4 119)">
<title>COperatorConsoleApp::InitLibs</title>
<polygon fill="white" stroke="white" points="-4,4 -4,-119 486,-119 486,4 -4,4"/>
<!-- Node1 -->
<g id="node1" class="node"><title>Node1</title>
<polygon fill="#bfbfbf" stroke="black" points="0.5,-34 0.5,-68 137.5,-68 137.5,-34 0.5,-34"/>
<text text-anchor="start" x="8.5" y="-54.4" font-family="Helvetica,sans-Serif" font-size="12.00">COperatorConsoleApp</text>
<text text-anchor="middle" x="69" y="-41.4" font-family="Helvetica,sans-Serif" font-size="12.00">::InitLibs</text>
</g>
<!-- Node2 -->
<g id="node2" class="node"><title>Node2</title>
<g id="a_node2"><a xlink:href="../../d6/d56/imatest__library_8cpp.html#a5e2883cbd4857cc3ccca20aadd262f91" target="_top" xlink:title="imatest_libraryInitialize">
<polygon fill="white" stroke="black" points="174,-40.5 174,-61.5 308,-61.5 308,-40.5 174,-40.5"/>
<text text-anchor="middle" x="241" y="-47.9" font-family="Helvetica,sans-Serif" font-size="12.00">imatest_libraryInitialize</text>
</a>
</g>
</g>
<!-- Node1&#45;&gt;Node2 -->
<g id="edge1" class="edge"><title>Node1&#45;&gt;Node2</title>
<path fill="none" stroke="midnightblue" d="M137.677,-51C146.262,-51 155.093,-51 163.8,-51"/>
<polygon fill="midnightblue" stroke="midnightblue" points="163.942,-54.5001 173.942,-51 163.942,-47.5001 163.942,-54.5001"/>
</g>
<!-- Node3 -->
<g id="node3" class="node"><title>Node3</title>
<g id="a_node3"><a xlink:href="../../d6/d56/imatest__library_8cpp.html#af1f12ec359ef04374b4b929b74844d53" target="_top" xlink:title="imatest_libraryInitialize\lWithHandlers">
<polygon fill="white" stroke="black" points="346,-81 346,-115 480,-115 480,-81 346,-81"/>
<text text-anchor="start" x="354" y="-101.4" font-family="Helvetica,sans-Serif" font-size="12.00">imatest_libraryInitialize</text>
<text text-anchor="middle" x="413" y="-88.4" font-family="Helvetica,sans-Serif" font-size="12.00">WithHandlers</text>
</a>
</g>
</g>
<!-- Node2&#45;&gt;Node3 -->
<g id="edge2" class="edge"><title>Node2&#45;&gt;Node3</title>
<path fill="none" stroke="midnightblue" d="M280.151,-61.5477C297.983,-66.4776 319.815,-72.5135 340.544,-78.2444"/>
<polygon fill="midnightblue" stroke="midnightblue" points="339.718,-81.6474 350.289,-80.9387 341.583,-74.9005 339.718,-81.6474"/>
</g>
<!-- Node4 -->
<g id="node4" class="node"><title>Node4</title>
<g id="a_node4"><a xlink:href="../../d6/d56/imatest__library_8cpp.html#ab25ffae1be58aaf6c617f5bd4e1d9574" target="_top" xlink:title="mclDefaultErrorHandler">
<polygon fill="white" stroke="black" points="344,-40.5 344,-61.5 482,-61.5 482,-40.5 344,-40.5"/>
<text text-anchor="middle" x="413" y="-47.9" font-family="Helvetica,sans-Serif" font-size="12.00">mclDefaultErrorHandler</text>
</a>
</g>
</g>
<!-- Node2&#45;&gt;Node4 -->
<g id="edge3" class="edge"><title>Node2&#45;&gt;Node4</title>
<path fill="none" stroke="midnightblue" d="M308.213,-51C316.498,-51 325.034,-51 333.484,-51"/>
<polygon fill="midnightblue" stroke="midnightblue" points="333.725,-54.5001 343.725,-51 333.725,-47.5001 333.725,-54.5001"/>
</g>
<!-- Node5 -->
<g id="node5" class="node"><title>Node5</title>
<g id="a_node5"><a xlink:href="../../d6/d56/imatest__library_8cpp.html#a720e404d3ffcdd06099adf6ac127be83" target="_top" xlink:title="mclDefaultPrintHandler">
<polygon fill="white" stroke="black" points="345,-0.5 345,-21.5 481,-21.5 481,-0.5 345,-0.5"/>
<text text-anchor="middle" x="413" y="-7.9" font-family="Helvetica,sans-Serif" font-size="12.00">mclDefaultPrintHandler</text>
</a>
</g>
</g>
<!-- Node2&#45;&gt;Node5 -->
<g id="edge4" class="edge"><title>Node2&#45;&gt;Node5</title>
<path fill="none" stroke="midnightblue" d="M286.665,-40.4905C308.346,-35.3892 334.584,-29.2155 357.439,-23.8378"/>
<polygon fill="midnightblue" stroke="midnightblue" points="358.405,-27.2061 367.338,-21.5087 356.802,-20.3922 358.405,-27.2061"/>
</g>
</g>
</svg>
