<?xml version="1.0" encoding="UTF-8" standalone="no"?>
<!DOCTYPE svg PUBLIC "-//W3C//DTD SVG 1.1//EN"
 "http://www.w3.org/Graphics/SVG/1.1/DTD/svg11.dtd">
<!-- Generated by graphviz version 2.34.0 (20130907.0111)
 -->
<!-- Title: COperatorConsoleApp::ReadPassFail Pages: 1 -->
<svg width="312pt" height="164pt"
 viewBox="0.00 0.00 312.00 164.00" xmlns="http://www.w3.org/2000/svg" xmlns:xlink="http://www.w3.org/1999/xlink">
<g id="graph0" class="graph" transform="scale(1 1) rotate(0) translate(4 160)">
<title>COperatorConsoleApp::ReadPassFail</title>
<polygon fill="white" stroke="white" points="-4,4 -4,-160 308,-160 308,4 -4,4"/>
<!-- Node1 -->
<g id="node1" class="node"><title>Node1</title>
<polygon fill="#bfbfbf" stroke="black" points="0.5,-64 0.5,-98 137.5,-98 137.5,-64 0.5,-64"/>
<text text-anchor="start" x="8.5" y="-84.4" font-family="Helvetica,sans-Serif" font-size="12.00">COperatorConsoleApp</text>
<text text-anchor="middle" x="69" y="-71.4" font-family="Helvetica,sans-Serif" font-size="12.00">::ReadPassFail</text>
</g>
<!-- Node2 -->
<g id="node2" class="node"><title>Node2</title>
<g id="a_node2"><a xlink:href="../../db/db5/_documentation_2_operator-_console_2_operator_console_8cpp.html#a5009a154818ee3f0d0da7531e4bf98a4" target="_top" xlink:title="Adds a data_type string and key string to the std::vector&lt;std::string&gt; data_types and keys...">
<polygon fill="white" stroke="black" points="174.5,-134.5 174.5,-155.5 303.5,-155.5 303.5,-134.5 174.5,-134.5"/>
<text text-anchor="middle" x="239" y="-141.9" font-family="Helvetica,sans-Serif" font-size="12.00">addDataTypeAndKey</text>
</a>
</g>
</g>
<!-- Node1&#45;&gt;Node2 -->
<g id="edge1" class="edge"><title>Node1&#45;&gt;Node2</title>
<path fill="none" stroke="midnightblue" d="M108.168,-98.2004C127.681,-106.724 151.913,-116.898 174,-125 179.881,-127.157 186.118,-129.291 192.3,-131.317"/>
<polygon fill="midnightblue" stroke="midnightblue" points="191.322,-134.678 201.913,-134.397 193.458,-128.012 191.322,-134.678"/>
</g>
<!-- Node3 -->
<g id="node3" class="node"><title>Node3</title>
<g id="a_node3"><a xlink:href="../../d3/d96/structentry.html#a422ec1e4cfe0d549468f987b55327919" target="_top" xlink:title="A member function for conditionally assigning the variable &#39;value&#39; to &#39;input&#39;. ">
<polygon fill="white" stroke="black" points="181,-94.5 181,-115.5 297,-115.5 297,-94.5 181,-94.5"/>
<text text-anchor="middle" x="239" y="-101.9" font-family="Helvetica,sans-Serif" font-size="12.00">entry::assign_value</text>
</a>
</g>
</g>
<!-- Node1&#45;&gt;Node3 -->
<g id="edge2" class="edge"><title>Node1&#45;&gt;Node3</title>
<path fill="none" stroke="midnightblue" d="M137.848,-90.6925C148.683,-92.2404 159.89,-93.8414 170.712,-95.3874"/>
<polygon fill="midnightblue" stroke="midnightblue" points="170.55,-98.8997 180.944,-96.8492 171.54,-91.9701 170.55,-98.8997"/>
</g>
<!-- Node4 -->
<g id="node4" class="node"><title>Node4</title>
<g id="a_node4"><a xlink:href="../../de/ddc/structmin_max_entry.html#ad2624259bf0e95269cfcf3d900ba9d44" target="_top" xlink:title="A member function for conditionally assigning the variable &#39;value&#39; to &#39;input&#39;. ">
<polygon fill="white" stroke="black" points="177,-41 177,-75 301,-75 301,-41 177,-41"/>
<text text-anchor="start" x="185" y="-61.4" font-family="Helvetica,sans-Serif" font-size="12.00">minMaxEntry::assign</text>
<text text-anchor="middle" x="239" y="-48.4" font-family="Helvetica,sans-Serif" font-size="12.00">_value</text>
</a>
</g>
</g>
<!-- Node1&#45;&gt;Node4 -->
<g id="edge3" class="edge"><title>Node1&#45;&gt;Node4</title>
<path fill="none" stroke="midnightblue" d="M137.848,-71.7113C147.445,-70.3974 157.335,-69.0434 166.991,-67.7215"/>
<polygon fill="midnightblue" stroke="midnightblue" points="167.513,-71.1828 176.945,-66.3587 166.563,-64.2475 167.513,-71.1828"/>
</g>
<!-- Node5 -->
<g id="node5" class="node"><title>Node5</title>
<g id="a_node5"><a xlink:href="../../d6/d56/imatest__library_8cpp.html#ab3b0d3cdae6c078ef623ac257ead5cef" target="_top" xlink:title="inifile">
<polygon fill="white" stroke="black" points="217,-0.5 217,-21.5 261,-21.5 261,-0.5 217,-0.5"/>
<text text-anchor="middle" x="239" y="-7.9" font-family="Helvetica,sans-Serif" font-size="12.00">inifile</text>
</a>
</g>
</g>
<!-- Node1&#45;&gt;Node5 -->
<g id="edge4" class="edge"><title>Node1&#45;&gt;Node5</title>
<path fill="none" stroke="midnightblue" d="M103.727,-63.815C123.856,-53.8865 150.077,-41.5187 174,-32 184.622,-27.7737 196.464,-23.7129 207.046,-20.3075"/>
<polygon fill="midnightblue" stroke="midnightblue" points="208.237,-23.6019 216.724,-17.2594 206.134,-16.9252 208.237,-23.6019"/>
</g>
</g>
</svg>
