<?xml version="1.0" encoding="UTF-8" standalone="no"?>
<!DOCTYPE svg PUBLIC "-//W3C//DTD SVG 1.1//EN"
 "http://www.w3.org/Graphics/SVG/1.1/DTD/svg11.dtd">
<!-- Generated by graphviz version 2.34.0 (20130907.0111)
 -->
<!-- Title: COperatorConsoleApp::InitOutput Pages: 1 -->
<svg width="704pt" height="170pt"
 viewBox="0.00 0.00 704.00 170.00" xmlns="http://www.w3.org/2000/svg" xmlns:xlink="http://www.w3.org/1999/xlink">
<g id="graph0" class="graph" transform="scale(1 1) rotate(0) translate(4 166)">
<title>COperatorConsoleApp::InitOutput</title>
<polygon fill="white" stroke="white" points="-4,4 -4,-166 700,-166 700,4 -4,4"/>
<!-- Node1 -->
<g id="node1" class="node"><title>Node1</title>
<polygon fill="#bfbfbf" stroke="black" points="0.5,-94 0.5,-128 137.5,-128 137.5,-94 0.5,-94"/>
<text text-anchor="start" x="8.5" y="-114.4" font-family="Helvetica,sans-Serif" font-size="12.00">COperatorConsoleApp</text>
<text text-anchor="middle" x="69" y="-101.4" font-family="Helvetica,sans-Serif" font-size="12.00">::InitOutput</text>
</g>
<!-- Node2 -->
<g id="node2" class="node"><title>Node2</title>
<g id="a_node2"><a xlink:href="../../d5/d67/class_stdout_thread.html#aab5207762f1d6036974b9bbd4b854a23" target="_top" xlink:title="StdoutThread::InitThread">
<polygon fill="white" stroke="black" points="174,-100.5 174,-121.5 318,-121.5 318,-100.5 174,-100.5"/>
<text text-anchor="middle" x="246" y="-107.9" font-family="Helvetica,sans-Serif" font-size="12.00">StdoutThread::InitThread</text>
</a>
</g>
</g>
<!-- Node1&#45;&gt;Node2 -->
<g id="edge1" class="edge"><title>Node1&#45;&gt;Node2</title>
<path fill="none" stroke="midnightblue" d="M137.66,-111C146.163,-111 154.93,-111 163.616,-111"/>
<polygon fill="midnightblue" stroke="midnightblue" points="163.755,-114.5 173.755,-111 163.755,-107.5 163.755,-114.5"/>
</g>
<!-- Node3 -->
<g id="node3" class="node"><title>Node3</title>
<g id="a_node3"><a xlink:href="../../d5/d52/class_stdout_redirect.html#a9dd34e73829d728660436c9d6b4d6d20" target="_top" xlink:title="StdoutRedirect::Init">
<polygon fill="white" stroke="black" points="374.5,-140.5 374.5,-161.5 489.5,-161.5 489.5,-140.5 374.5,-140.5"/>
<text text-anchor="middle" x="432" y="-147.9" font-family="Helvetica,sans-Serif" font-size="12.00">StdoutRedirect::Init</text>
</a>
</g>
</g>
<!-- Node2&#45;&gt;Node3 -->
<g id="edge2" class="edge"><title>Node2&#45;&gt;Node3</title>
<path fill="none" stroke="midnightblue" d="M295.344,-121.51C319.02,-126.657 347.719,-132.895 372.611,-138.307"/>
<polygon fill="midnightblue" stroke="midnightblue" points="372.145,-141.787 382.66,-140.491 373.632,-134.947 372.145,-141.787"/>
</g>
<!-- Node4 -->
<g id="node4" class="node"><title>Node4</title>
<g id="a_node4"><a xlink:href="../../d5/d52/class_stdout_redirect.html#a4151d5c4322285b87c3121e2f69dfc5e" target="_top" xlink:title="StdoutRedirect::Start">
<polygon fill="white" stroke="black" points="369.5,-100.5 369.5,-121.5 494.5,-121.5 494.5,-100.5 369.5,-100.5"/>
<text text-anchor="middle" x="432" y="-107.9" font-family="Helvetica,sans-Serif" font-size="12.00">StdoutRedirect::Start</text>
</a>
</g>
</g>
<!-- Node2&#45;&gt;Node4 -->
<g id="edge3" class="edge"><title>Node2&#45;&gt;Node4</title>
<path fill="none" stroke="midnightblue" d="M318.139,-111C331.597,-111 345.684,-111 359.163,-111"/>
<polygon fill="midnightblue" stroke="midnightblue" points="359.332,-114.5 369.332,-111 359.332,-107.5 359.332,-114.5"/>
</g>
<!-- Node5 -->
<g id="node5" class="node"><title>Node5</title>
<g id="a_node5"><a xlink:href="../../d5/d67/class_stdout_thread.html#a5527fa5fc7f110414f03e63b759bc4c3" target="_top" xlink:title="StdoutThread::ThreadProc">
<polygon fill="white" stroke="black" points="354.5,-60.5 354.5,-81.5 509.5,-81.5 509.5,-60.5 354.5,-60.5"/>
<text text-anchor="middle" x="432" y="-67.9" font-family="Helvetica,sans-Serif" font-size="12.00">StdoutThread::ThreadProc</text>
</a>
</g>
</g>
<!-- Node2&#45;&gt;Node5 -->
<g id="edge4" class="edge"><title>Node2&#45;&gt;Node5</title>
<path fill="none" stroke="midnightblue" d="M295.344,-100.49C319.02,-95.3434 347.719,-89.1046 372.611,-83.6933"/>
<polygon fill="midnightblue" stroke="midnightblue" points="373.632,-87.0532 382.66,-81.5087 372.145,-80.213 373.632,-87.0532"/>
</g>
<!-- Node6 -->
<g id="node6" class="node"><title>Node6</title>
<g id="a_node6"><a xlink:href="../../d6/d56/class_critical_c_string.html#a708b83f5264a7240ebc66018647363e7" target="_top" xlink:title="CriticalCString::Set">
<polygon fill="white" stroke="black" points="562.5,-120.5 562.5,-141.5 679.5,-141.5 679.5,-120.5 562.5,-120.5"/>
<text text-anchor="middle" x="621" y="-127.9" font-family="Helvetica,sans-Serif" font-size="12.00">CriticalCString::Set</text>
</a>
</g>
</g>
<!-- Node5&#45;&gt;Node6 -->
<g id="edge5" class="edge"><title>Node5&#45;&gt;Node6</title>
<path fill="none" stroke="midnightblue" d="M481.253,-81.5308C490.918,-84.1965 500.895,-87.3571 510,-91 526.994,-97.7995 529.04,-104.117 546,-111 551.827,-113.365 558.023,-115.538 564.255,-117.509"/>
<polygon fill="midnightblue" stroke="midnightblue" points="563.444,-120.92 574.028,-120.441 565.455,-114.215 563.444,-120.92"/>
</g>
<!-- Node7 -->
<g id="node7" class="node"><title>Node7</title>
<g id="a_node7"><a xlink:href="../../d5/d52/class_stdout_redirect.html#a00cab998df19e149495fd3f1671d1bff" target="_top" xlink:title="StdoutRedirect::GetBuffer">
<polygon fill="white" stroke="black" points="546,-80.5 546,-101.5 696,-101.5 696,-80.5 546,-80.5"/>
<text text-anchor="middle" x="621" y="-87.9" font-family="Helvetica,sans-Serif" font-size="12.00">StdoutRedirect::GetBuffer</text>
</a>
</g>
</g>
<!-- Node5&#45;&gt;Node7 -->
<g id="edge6" class="edge"><title>Node5&#45;&gt;Node7</title>
<path fill="none" stroke="midnightblue" d="M509.6,-79.1925C518.227,-80.1152 527.052,-81.0591 535.769,-81.9914"/>
<polygon fill="midnightblue" stroke="midnightblue" points="535.619,-85.4951 545.934,-83.0785 536.363,-78.5348 535.619,-85.4951"/>
</g>
<!-- Node8 -->
<g id="node8" class="node"><title>Node8</title>
<g id="a_node8"><a xlink:href="../../db/d23/_documentation_2_operator-_console_2_stdout_thread_8cpp.html#ace7ef40e0acb2373d17bd7a563643e9a" target="_top" xlink:title="FindChar">
<polygon fill="white" stroke="black" points="588.5,-40.5 588.5,-61.5 653.5,-61.5 653.5,-40.5 588.5,-40.5"/>
<text text-anchor="middle" x="621" y="-47.9" font-family="Helvetica,sans-Serif" font-size="12.00">FindChar</text>
</a>
</g>
</g>
<!-- Node5&#45;&gt;Node8 -->
<g id="edge7" class="edge"><title>Node5&#45;&gt;Node8</title>
<path fill="none" stroke="midnightblue" d="M509.6,-62.8075C532.962,-60.3088 557.781,-57.6544 577.957,-55.4965"/>
<polygon fill="midnightblue" stroke="midnightblue" points="578.482,-58.9605 588.053,-54.4168 577.737,-52.0002 578.482,-58.9605"/>
</g>
<!-- Node9 -->
<g id="node9" class="node"><title>Node9</title>
<g id="a_node9"><a xlink:href="../../d6/d56/class_critical_c_string.html#a1f9bbccd2c753e413ff341e4acb40454" target="_top" xlink:title="CriticalCString::Append">
<polygon fill="white" stroke="black" points="551,-0.5 551,-21.5 691,-21.5 691,-0.5 551,-0.5"/>
<text text-anchor="middle" x="621" y="-7.9" font-family="Helvetica,sans-Serif" font-size="12.00">CriticalCString::Append</text>
</a>
</g>
</g>
<!-- Node5&#45;&gt;Node9 -->
<g id="edge8" class="edge"><title>Node5&#45;&gt;Node9</title>
<path fill="none" stroke="midnightblue" d="M461.128,-60.3705C483.869,-51.9397 516.793,-40.1016 546,-31 553.415,-28.6893 561.295,-26.3928 569.042,-24.224"/>
<polygon fill="midnightblue" stroke="midnightblue" points="570.028,-27.5829 578.74,-21.5538 568.17,-20.8341 570.028,-27.5829"/>
</g>
</g>
</svg>
