<?xml version="1.0" encoding="UTF-8" standalone="no"?>
<!DOCTYPE svg PUBLIC "-//W3C//DTD SVG 1.1//EN"
 "http://www.w3.org/Graphics/SVG/1.1/DTD/svg11.dtd">
<!-- Generated by graphviz version 2.34.0 (20130907.0111)
 -->
<!-- Title: COperatorConsoleApp::InitInstance Pages: 1 -->
<svg width="900pt" height="1036pt"
 viewBox="0.00 0.00 900.00 1036.00" xmlns="http://www.w3.org/2000/svg" xmlns:xlink="http://www.w3.org/1999/xlink">
<g id="graph0" class="graph" transform="scale(1 1) rotate(0) translate(4 1032)">
<title>COperatorConsoleApp::InitInstance</title>
<polygon fill="white" stroke="white" points="-4,4 -4,-1032 896,-1032 896,4 -4,4"/>
<!-- Node1 -->
<g id="node1" class="node"><title>Node1</title>
<polygon fill="#bfbfbf" stroke="black" points="0.5,-261 0.5,-295 137.5,-295 137.5,-261 0.5,-261"/>
<text text-anchor="start" x="8.5" y="-281.4" font-family="Helvetica,sans-Serif" font-size="12.00">COperatorConsoleApp</text>
<text text-anchor="middle" x="69" y="-268.4" font-family="Helvetica,sans-Serif" font-size="12.00">::InitInstance</text>
</g>
<!-- Node2 -->
<g id="node2" class="node"><title>Node2</title>
<g id="a_node2"><a xlink:href="../../d3/d9f/class_c_operator_console_app.html#ae77367b83a556990cfd7827dc7b73230" target="_top" xlink:title="Function that closes the Imatest library. Note that once closed, the library cannot be reinitialized...">
<polygon fill="white" stroke="black" points="174.5,-853 174.5,-887 311.5,-887 311.5,-853 174.5,-853"/>
<text text-anchor="start" x="182.5" y="-873.4" font-family="Helvetica,sans-Serif" font-size="12.00">COperatorConsoleApp</text>
<text text-anchor="middle" x="243" y="-860.4" font-family="Helvetica,sans-Serif" font-size="12.00">::CloseLibs</text>
</a>
</g>
</g>
<!-- Node1&#45;&gt;Node2 -->
<g id="edge1" class="edge"><title>Node1&#45;&gt;Node2</title>
<path fill="none" stroke="midnightblue" d="M73.4598,-295.388C85.1392,-353.18 125.124,-543.841 174,-697 190.804,-749.659 215.563,-809.297 230.109,-843.002"/>
<polygon fill="midnightblue" stroke="midnightblue" points="227.081,-844.816 234.275,-852.593 233.501,-842.027 227.081,-844.816"/>
</g>
<!-- Node4 -->
<g id="node4" class="node"><title>Node4</title>
<g id="a_node4"><a xlink:href="../../d3/d9f/class_c_operator_console_app.html#a7f0cd7b21cee2171dea973e4e6e7bb9d" target="_top" xlink:title="Init perform application&#45;specific initialization. ">
<polygon fill="white" stroke="black" points="174.5,-654 174.5,-688 311.5,-688 311.5,-654 174.5,-654"/>
<text text-anchor="start" x="182.5" y="-674.4" font-family="Helvetica,sans-Serif" font-size="12.00">COperatorConsoleApp</text>
<text text-anchor="middle" x="243" y="-661.4" font-family="Helvetica,sans-Serif" font-size="12.00">::Init</text>
</a>
</g>
</g>
<!-- Node1&#45;&gt;Node4 -->
<g id="edge3" class="edge"><title>Node1&#45;&gt;Node4</title>
<path fill="none" stroke="midnightblue" d="M77.5012,-295.139C104.605,-357.068 197.59,-569.528 230.413,-644.526"/>
<polygon fill="midnightblue" stroke="midnightblue" points="227.243,-646.013 234.459,-653.77 233.656,-643.206 227.243,-646.013"/>
</g>
<!-- Node33 -->
<g id="node33" class="node"><title>Node33</title>
<g id="a_node33"><a xlink:href="../../d3/d9f/class_c_operator_console_app.html#a609b0f5874afb0cf46b76de94e0312e5" target="_top" xlink:title="Function that initializes the Imatest library. Must be called before any Imatest library functions ar...">
<polygon fill="white" stroke="black" points="174.5,-314 174.5,-348 311.5,-348 311.5,-314 174.5,-314"/>
<text text-anchor="start" x="182.5" y="-334.4" font-family="Helvetica,sans-Serif" font-size="12.00">COperatorConsoleApp</text>
<text text-anchor="middle" x="243" y="-321.4" font-family="Helvetica,sans-Serif" font-size="12.00">::InitLibs</text>
</a>
</g>
</g>
<!-- Node1&#45;&gt;Node33 -->
<g id="edge41" class="edge"><title>Node1&#45;&gt;Node33</title>
<path fill="none" stroke="midnightblue" d="M125.369,-295.061C141.787,-300.121 159.919,-305.708 176.895,-310.939"/>
<polygon fill="midnightblue" stroke="midnightblue" points="176.148,-314.371 186.735,-313.971 178.209,-307.681 176.148,-314.371"/>
</g>
<!-- Node35 -->
<g id="node35" class="node"><title>Node35</title>
<g id="a_node35"><a xlink:href="../../d3/d9f/class_c_operator_console_app.html#a3326d8200d481631ffb26bff5c621e05" target="_top" xlink:title="COperatorConsoleApp\l::InitOutput">
<polygon fill="white" stroke="black" points="174.5,-261 174.5,-295 311.5,-295 311.5,-261 174.5,-261"/>
<text text-anchor="start" x="182.5" y="-281.4" font-family="Helvetica,sans-Serif" font-size="12.00">COperatorConsoleApp</text>
<text text-anchor="middle" x="243" y="-268.4" font-family="Helvetica,sans-Serif" font-size="12.00">::InitOutput</text>
</a>
</g>
</g>
<!-- Node1&#45;&gt;Node35 -->
<g id="edge43" class="edge"><title>Node1&#45;&gt;Node35</title>
<path fill="none" stroke="midnightblue" d="M137.979,-278C146.55,-278 155.372,-278 164.082,-278"/>
<polygon fill="midnightblue" stroke="midnightblue" points="164.233,-281.5 174.233,-278 164.233,-274.5 164.233,-281.5"/>
</g>
<!-- Node40 -->
<g id="node40" class="node"><title>Node40</title>
<g id="a_node40"><a xlink:href="../../d3/d9f/class_c_operator_console_app.html#a59dada996addd1a16a558b431bcb922e" target="_top" xlink:title="COperatorConsoleApp\l::Quit">
<polygon fill="white" stroke="black" points="174.5,-208 174.5,-242 311.5,-242 311.5,-208 174.5,-208"/>
<text text-anchor="start" x="182.5" y="-228.4" font-family="Helvetica,sans-Serif" font-size="12.00">COperatorConsoleApp</text>
<text text-anchor="middle" x="243" y="-215.4" font-family="Helvetica,sans-Serif" font-size="12.00">::Quit</text>
</a>
</g>
</g>
<!-- Node1&#45;&gt;Node40 -->
<g id="edge48" class="edge"><title>Node1&#45;&gt;Node40</title>
<path fill="none" stroke="midnightblue" d="M125.369,-260.939C141.787,-255.879 159.919,-250.292 176.895,-245.061"/>
<polygon fill="midnightblue" stroke="midnightblue" points="178.209,-248.319 186.735,-242.029 176.148,-241.629 178.209,-248.319"/>
</g>
<!-- Node46 -->
<g id="node46" class="node"><title>Node46</title>
<g id="a_node46"><a xlink:href="../../d3/d9f/class_c_operator_console_app.html#a3ee628baf779a1be1e323a84fccc1d23" target="_top" xlink:title="This function reads in items for the setup dialog from imatest.ini. ">
<polygon fill="white" stroke="black" points="174.5,-155 174.5,-189 311.5,-189 311.5,-155 174.5,-155"/>
<text text-anchor="start" x="182.5" y="-175.4" font-family="Helvetica,sans-Serif" font-size="12.00">COperatorConsoleApp</text>
<text text-anchor="middle" x="243" y="-162.4" font-family="Helvetica,sans-Serif" font-size="12.00">::ReadINISettings</text>
</a>
</g>
</g>
<!-- Node1&#45;&gt;Node46 -->
<g id="edge54" class="edge"><title>Node1&#45;&gt;Node46</title>
<path fill="none" stroke="midnightblue" d="M88.7448,-260.855C108.707,-243.277 141.801,-216.03 174,-198 176.867,-196.394 179.854,-194.847 182.905,-193.362"/>
<polygon fill="midnightblue" stroke="midnightblue" points="184.57,-196.449 192.202,-189.1 181.653,-190.086 184.57,-196.449"/>
</g>
<!-- Node47 -->
<g id="node47" class="node"><title>Node47</title>
<g id="a_node47"><a xlink:href="../../d3/d9f/class_c_operator_console_app.html#a864bc0130d261b22868920143919ceb7" target="_top" xlink:title="This function reads in the pass/fail variable values as in the pass/fail file listed in the imatest I...">
<polygon fill="white" stroke="black" points="174.5,-67 174.5,-101 311.5,-101 311.5,-67 174.5,-67"/>
<text text-anchor="start" x="182.5" y="-87.4" font-family="Helvetica,sans-Serif" font-size="12.00">COperatorConsoleApp</text>
<text text-anchor="middle" x="243" y="-74.4" font-family="Helvetica,sans-Serif" font-size="12.00">::ReadPassFail</text>
</a>
</g>
</g>
<!-- Node1&#45;&gt;Node47 -->
<g id="edge55" class="edge"><title>Node1&#45;&gt;Node47</title>
<path fill="none" stroke="midnightblue" d="M81.9148,-260.855C100.376,-234.754 137.573,-183.974 174,-145 186.081,-132.074 200.547,-118.829 213.024,-107.998"/>
<polygon fill="midnightblue" stroke="midnightblue" points="215.575,-110.422 220.892,-101.257 211.021,-105.106 215.575,-110.422"/>
</g>
<!-- Node3 -->
<g id="node3" class="node"><title>Node3</title>
<g id="a_node3"><a xlink:href="../../da/d69/imatest__library_8h.html#ab8ecf0b8594230498690c8a4bb78e7b8" target="_top" xlink:title="imatest_libraryTerminate">
<polygon fill="white" stroke="black" points="350,-1006.5 350,-1027.5 496,-1027.5 496,-1006.5 350,-1006.5"/>
<text text-anchor="middle" x="423" y="-1013.9" font-family="Helvetica,sans-Serif" font-size="12.00">imatest_libraryTerminate</text>
</a>
</g>
</g>
<!-- Node2&#45;&gt;Node3 -->
<g id="edge2" class="edge"><title>Node2&#45;&gt;Node3</title>
<path fill="none" stroke="midnightblue" d="M253.424,-887.078C269.32,-914.281 304.069,-967.303 348,-996 351.814,-998.491 355.925,-1000.69 360.186,-1002.63"/>
<polygon fill="midnightblue" stroke="midnightblue" points="359.116,-1005.98 369.699,-1006.49 361.745,-999.489 359.116,-1005.98"/>
</g>
<!-- Node5 -->
<g id="node5" class="node"><title>Node5</title>
<g id="a_node5"><a xlink:href="../../d3/d9f/class_c_operator_console_app.html#aeb93b88acfe6d11d64f493f63f74bca6" target="_top" xlink:title="COperatorConsoleApp\l::AllocateImageBuf">
<polygon fill="white" stroke="black" points="354.5,-953 354.5,-987 491.5,-987 491.5,-953 354.5,-953"/>
<text text-anchor="start" x="362.5" y="-973.4" font-family="Helvetica,sans-Serif" font-size="12.00">COperatorConsoleApp</text>
<text text-anchor="middle" x="423" y="-960.4" font-family="Helvetica,sans-Serif" font-size="12.00">::AllocateImageBuf</text>
</a>
</g>
</g>
<!-- Node4&#45;&gt;Node5 -->
<g id="edge4" class="edge"><title>Node4&#45;&gt;Node5</title>
<path fill="none" stroke="midnightblue" d="M250.932,-688.021C263.431,-718.825 290.45,-785.924 312,-843 328.685,-887.192 314.67,-909.527 348,-943 349.411,-944.417 350.903,-945.761 352.461,-947.034"/>
<polygon fill="midnightblue" stroke="midnightblue" points="350.543,-949.964 360.741,-952.836 354.56,-944.231 350.543,-949.964"/>
</g>
<!-- Node7 -->
<g id="node7" class="node"><title>Node7</title>
<g id="a_node7"><a xlink:href="../../d3/d9f/class_c_operator_console_app.html#ac47de682b105a11015ceef305c225924" target="_top" xlink:title="COperatorConsoleApp\l::CheckFiles">
<polygon fill="white" stroke="black" points="354.5,-554 354.5,-588 491.5,-588 491.5,-554 354.5,-554"/>
<text text-anchor="start" x="362.5" y="-574.4" font-family="Helvetica,sans-Serif" font-size="12.00">COperatorConsoleApp</text>
<text text-anchor="middle" x="423" y="-561.4" font-family="Helvetica,sans-Serif" font-size="12.00">::CheckFiles</text>
</a>
</g>
</g>
<!-- Node4&#45;&gt;Node7 -->
<g id="edge6" class="edge"><title>Node4&#45;&gt;Node7</title>
<path fill="none" stroke="midnightblue" d="M264.387,-653.852C284.584,-637.523 316.914,-613.111 348,-597 351.34,-595.269 354.821,-593.609 358.373,-592.025"/>
<polygon fill="midnightblue" stroke="midnightblue" points="360.04,-595.12 367.896,-588.011 357.321,-588.67 360.04,-595.12"/>
</g>
<!-- Node9 -->
<g id="node9" class="node"><title>Node9</title>
<g id="a_node9"><a xlink:href="../../d8/d29/class_image_acquisition.html#af32c2cc8a87105465ba8620e77745c2b" target="_top" xlink:title="ImageAcquisition::GetInfo">
<polygon fill="white" stroke="black" points="348.5,-700.5 348.5,-721.5 497.5,-721.5 497.5,-700.5 348.5,-700.5"/>
<text text-anchor="middle" x="423" y="-707.9" font-family="Helvetica,sans-Serif" font-size="12.00">ImageAcquisition::GetInfo</text>
</a>
</g>
</g>
<!-- Node4&#45;&gt;Node9 -->
<g id="edge8" class="edge"><title>Node4&#45;&gt;Node9</title>
<path fill="none" stroke="midnightblue" d="M311.548,-686.179C329.306,-690.17 348.276,-694.433 365.394,-698.28"/>
<polygon fill="midnightblue" stroke="midnightblue" points="364.712,-701.714 375.236,-700.491 366.247,-694.884 364.712,-701.714"/>
</g>
<!-- Node10 -->
<g id="node10" class="node"><title>Node10</title>
<g id="a_node10"><a xlink:href="../../dd/d34/class_config.html#a47f35832cdd5abdcf3de6843a789256d" target="_top" xlink:title="Config::Init">
<polygon fill="white" stroke="black" points="387.5,-660.5 387.5,-681.5 458.5,-681.5 458.5,-660.5 387.5,-660.5"/>
<text text-anchor="middle" x="423" y="-667.9" font-family="Helvetica,sans-Serif" font-size="12.00">Config::Init</text>
</a>
</g>
</g>
<!-- Node4&#45;&gt;Node10 -->
<g id="edge9" class="edge"><title>Node4&#45;&gt;Node10</title>
<path fill="none" stroke="midnightblue" d="M311.548,-671C333.39,-671 357.065,-671 376.873,-671"/>
<polygon fill="midnightblue" stroke="midnightblue" points="377.146,-674.5 387.146,-671 377.146,-667.5 377.146,-674.5"/>
</g>
<!-- Node11 -->
<g id="node11" class="node"><title>Node11</title>
<g id="a_node11"><a xlink:href="../../d3/d9f/class_c_operator_console_app.html#a8edea834120ba2acc0e16230ff5efb14" target="_top" xlink:title="COperatorConsoleApp\l::InitBlemishAcq">
<polygon fill="white" stroke="black" points="354.5,-607 354.5,-641 491.5,-641 491.5,-607 354.5,-607"/>
<text text-anchor="start" x="362.5" y="-627.4" font-family="Helvetica,sans-Serif" font-size="12.00">COperatorConsoleApp</text>
<text text-anchor="middle" x="423" y="-614.4" font-family="Helvetica,sans-Serif" font-size="12.00">::InitBlemishAcq</text>
</a>
</g>
</g>
<!-- Node4&#45;&gt;Node11 -->
<g id="edge10" class="edge"><title>Node4&#45;&gt;Node11</title>
<path fill="none" stroke="midnightblue" d="M308.514,-653.965C321.199,-650.616 334.604,-647.076 347.584,-643.649"/>
<polygon fill="midnightblue" stroke="midnightblue" points="348.632,-646.992 357.408,-641.055 346.845,-640.224 348.632,-646.992"/>
</g>
<!-- Node15 -->
<g id="node15" class="node"><title>Node15</title>
<g id="a_node15"><a xlink:href="../../d3/d9f/class_c_operator_console_app.html#a51ad7e6e8f370072c3e89d0d7e9e41a8" target="_top" xlink:title="COperatorConsoleApp\l::InitBlemishThread">
<polygon fill="white" stroke="black" points="354.5,-395 354.5,-429 491.5,-429 491.5,-395 354.5,-395"/>
<text text-anchor="start" x="362.5" y="-415.4" font-family="Helvetica,sans-Serif" font-size="12.00">COperatorConsoleApp</text>
<text text-anchor="middle" x="423" y="-402.4" font-family="Helvetica,sans-Serif" font-size="12.00">::InitBlemishThread</text>
</a>
</g>
</g>
<!-- Node4&#45;&gt;Node15 -->
<g id="edge14" class="edge"><title>Node4&#45;&gt;Node15</title>
<path fill="none" stroke="midnightblue" d="M246.844,-653.957C254.828,-611.379 281.374,-499.379 348,-438 349.274,-436.827 350.604,-435.705 351.981,-434.635"/>
<polygon fill="midnightblue" stroke="midnightblue" points="353.974,-437.512 360.326,-429.033 350.073,-431.7 353.974,-437.512"/>
</g>
<!-- Node25 -->
<g id="node25" class="node"><title>Node25</title>
<g id="a_node25"><a xlink:href="../../d3/d9f/class_c_operator_console_app.html#a74df2a3e42b3980069fa3946b67ecf79" target="_top" xlink:title="COperatorConsoleApp\l::InitCamera">
<polygon fill="white" stroke="black" points="354.5,-794 354.5,-828 491.5,-828 491.5,-794 354.5,-794"/>
<text text-anchor="start" x="362.5" y="-814.4" font-family="Helvetica,sans-Serif" font-size="12.00">COperatorConsoleApp</text>
<text text-anchor="middle" x="423" y="-801.4" font-family="Helvetica,sans-Serif" font-size="12.00">::InitCamera</text>
</a>
</g>
</g>
<!-- Node4&#45;&gt;Node25 -->
<g id="edge24" class="edge"><title>Node4&#45;&gt;Node25</title>
<path fill="none" stroke="midnightblue" d="M255.791,-688.331C273.271,-712.82 308.299,-757.513 348,-784 350.874,-785.918 353.902,-787.72 357.025,-789.41"/>
<polygon fill="midnightblue" stroke="midnightblue" points="355.516,-792.569 366.029,-793.884 358.631,-786.3 355.516,-792.569"/>
</g>
<!-- Node27 -->
<g id="node27" class="node"><title>Node27</title>
<g id="a_node27"><a xlink:href="../../d3/d9f/class_c_operator_console_app.html#ae300ef0b301d72f897e75cdf10ff9752" target="_top" xlink:title="COperatorConsoleApp\l::InitCameraThread">
<polygon fill="white" stroke="black" points="354.5,-501 354.5,-535 491.5,-535 491.5,-501 354.5,-501"/>
<text text-anchor="start" x="362.5" y="-521.4" font-family="Helvetica,sans-Serif" font-size="12.00">COperatorConsoleApp</text>
<text text-anchor="middle" x="423" y="-508.4" font-family="Helvetica,sans-Serif" font-size="12.00">::InitCameraThread</text>
</a>
</g>
</g>
<!-- Node4&#45;&gt;Node27 -->
<g id="edge27" class="edge"><title>Node4&#45;&gt;Node27</title>
<path fill="none" stroke="midnightblue" d="M253.862,-653.654C270.119,-626.536 305.058,-574.093 348,-544 350.098,-542.53 352.287,-541.135 354.543,-539.813"/>
<polygon fill="midnightblue" stroke="midnightblue" points="356.316,-542.835 363.521,-535.067 353.044,-536.647 356.316,-542.835"/>
</g>
<!-- Node29 -->
<g id="node29" class="node"><title>Node29</title>
<g id="a_node29"><a xlink:href="../../d3/d9f/class_c_operator_console_app.html#a9d9bd1fee378f6066530372f8d0ae6a1" target="_top" xlink:title="COperatorConsoleApp\l::InitModelessThread">
<polygon fill="white" stroke="black" points="354.5,-900 354.5,-934 491.5,-934 491.5,-900 354.5,-900"/>
<text text-anchor="start" x="362.5" y="-920.4" font-family="Helvetica,sans-Serif" font-size="12.00">COperatorConsoleApp</text>
<text text-anchor="middle" x="423" y="-907.4" font-family="Helvetica,sans-Serif" font-size="12.00">::InitModelessThread</text>
</a>
</g>
</g>
<!-- Node4&#45;&gt;Node29 -->
<g id="edge30" class="edge"><title>Node4&#45;&gt;Node29</title>
<path fill="none" stroke="midnightblue" d="M250.184,-688.102C267.207,-734.374 315.635,-860.528 348,-890 349.684,-891.534 351.462,-892.982 353.316,-894.35"/>
<polygon fill="midnightblue" stroke="midnightblue" points="351.555,-897.379 361.859,-899.844 355.341,-891.491 351.555,-897.379"/>
</g>
<!-- Node30 -->
<g id="node30" class="node"><title>Node30</title>
<g id="a_node30"><a xlink:href="../../d3/d9f/class_c_operator_console_app.html#a7e42ecea8d8270d3b3cf9552abc00eba" target="_top" xlink:title="COperatorConsoleApp\l::InitSFRplusAcq">
<polygon fill="white" stroke="black" points="354.5,-741 354.5,-775 491.5,-775 491.5,-741 354.5,-741"/>
<text text-anchor="start" x="362.5" y="-761.4" font-family="Helvetica,sans-Serif" font-size="12.00">COperatorConsoleApp</text>
<text text-anchor="middle" x="423" y="-748.4" font-family="Helvetica,sans-Serif" font-size="12.00">::InitSFRplusAcq</text>
</a>
</g>
</g>
<!-- Node4&#45;&gt;Node30 -->
<g id="edge31" class="edge"><title>Node4&#45;&gt;Node30</title>
<path fill="none" stroke="midnightblue" d="M270.681,-688.116C291.293,-700.91 320.799,-718.308 348,-731 352.415,-733.06 357.034,-735.07 361.715,-737.003"/>
<polygon fill="midnightblue" stroke="midnightblue" points="360.781,-740.398 371.366,-740.855 363.376,-733.897 360.781,-740.398"/>
</g>
<!-- Node31 -->
<g id="node31" class="node"><title>Node31</title>
<g id="a_node31"><a xlink:href="../../d3/d9f/class_c_operator_console_app.html#af7328d2c00abb1d4a09a65492c69b2b0" target="_top" xlink:title="COperatorConsoleApp\l::InitSFRplusThread">
<polygon fill="white" stroke="black" points="354.5,-448 354.5,-482 491.5,-482 491.5,-448 354.5,-448"/>
<text text-anchor="start" x="362.5" y="-468.4" font-family="Helvetica,sans-Serif" font-size="12.00">COperatorConsoleApp</text>
<text text-anchor="middle" x="423" y="-455.4" font-family="Helvetica,sans-Serif" font-size="12.00">::InitSFRplusThread</text>
</a>
</g>
</g>
<!-- Node4&#45;&gt;Node31 -->
<g id="edge34" class="edge"><title>Node4&#45;&gt;Node31</title>
<path fill="none" stroke="midnightblue" d="M249.305,-653.957C261.188,-618.513 293.273,-536.388 348,-491 349.533,-489.729 351.132,-488.518 352.785,-487.365"/>
<polygon fill="midnightblue" stroke="midnightblue" points="354.739,-490.272 361.441,-482.066 351.084,-484.302 354.739,-490.272"/>
</g>
<!-- Node32 -->
<g id="node32" class="node"><title>Node32</title>
<g id="a_node32"><a xlink:href="../../d3/d9f/class_c_operator_console_app.html#a603dc5a9e0c64b5d2a604965b023c936" target="_top" xlink:title="Called after MSG_SET_SFRPLUS is received. ">
<polygon fill="white" stroke="black" points="354.5,-847 354.5,-881 491.5,-881 491.5,-847 354.5,-847"/>
<text text-anchor="start" x="362.5" y="-867.4" font-family="Helvetica,sans-Serif" font-size="12.00">COperatorConsoleApp</text>
<text text-anchor="middle" x="423" y="-854.4" font-family="Helvetica,sans-Serif" font-size="12.00">::OnSetSFRplus</text>
</a>
</g>
</g>
<!-- Node4&#45;&gt;Node32 -->
<g id="edge40" class="edge"><title>Node4&#45;&gt;Node32</title>
<path fill="none" stroke="midnightblue" d="M250.322,-688.19C263.436,-721.563 296.719,-795.49 348,-837 350.046,-838.656 352.203,-840.216 354.442,-841.685"/>
<polygon fill="midnightblue" stroke="midnightblue" points="353.024,-844.909 363.429,-846.908 356.542,-838.857 353.024,-844.909"/>
</g>
<!-- Node6 -->
<g id="node6" class="node"><title>Node6</title>
<g id="a_node6"><a xlink:href="../../d8/d29/class_image_acquisition.html#aa77f9ea82fa88ae12c6b9fba9e13006e" target="_top" xlink:title="ImageAcquisition::BytesPer\lFrame">
<polygon fill="white" stroke="black" points="540.5,-953 540.5,-987 701.5,-987 701.5,-953 540.5,-953"/>
<text text-anchor="start" x="548.5" y="-973.4" font-family="Helvetica,sans-Serif" font-size="12.00">ImageAcquisition::BytesPer</text>
<text text-anchor="middle" x="621" y="-960.4" font-family="Helvetica,sans-Serif" font-size="12.00">Frame</text>
</a>
</g>
</g>
<!-- Node5&#45;&gt;Node6 -->
<g id="edge5" class="edge"><title>Node5&#45;&gt;Node6</title>
<path fill="none" stroke="midnightblue" d="M491.727,-970C504.125,-970 517.239,-970 530.164,-970"/>
<polygon fill="midnightblue" stroke="midnightblue" points="530.47,-973.5 540.47,-970 530.47,-966.5 530.47,-973.5"/>
</g>
<!-- Node8 -->
<g id="node8" class="node"><title>Node8</title>
<g id="a_node8"><a xlink:href="../../d3/d9f/class_c_operator_console_app.html#a9f0e96c6628d1c991c7a4bf6741ed6d9" target="_top" xlink:title="COperatorConsoleApp\l::FileExists">
<polygon fill="white" stroke="black" points="552.5,-588 552.5,-622 689.5,-622 689.5,-588 552.5,-588"/>
<text text-anchor="start" x="560.5" y="-608.4" font-family="Helvetica,sans-Serif" font-size="12.00">COperatorConsoleApp</text>
<text text-anchor="middle" x="621" y="-595.4" font-family="Helvetica,sans-Serif" font-size="12.00">::FileExists</text>
</a>
</g>
</g>
<!-- Node7&#45;&gt;Node8 -->
<g id="edge7" class="edge"><title>Node7&#45;&gt;Node8</title>
<path fill="none" stroke="midnightblue" d="M491.727,-582.748C507.945,-585.562 525.391,-588.588 542.032,-591.475"/>
<polygon fill="midnightblue" stroke="midnightblue" points="541.82,-594.99 552.271,-593.251 543.016,-588.093 541.82,-594.99"/>
</g>
<!-- Node12 -->
<g id="node12" class="node"><title>Node12</title>
<g id="a_node12"><a xlink:href="../../db/def/class_file_acquisition.html#a797827242308ce8dba037e6c36ca4b30" target="_top" xlink:title="Initializes the buffers inherited from class ImageAcquisition with 2 bytes per pixel. ">
<polygon fill="white" stroke="black" points="564,-734.5 564,-755.5 678,-755.5 678,-734.5 564,-734.5"/>
<text text-anchor="middle" x="621" y="-741.9" font-family="Helvetica,sans-Serif" font-size="12.00">FileAcquisition::Init</text>
</a>
</g>
</g>
<!-- Node11&#45;&gt;Node12 -->
<g id="edge11" class="edge"><title>Node11&#45;&gt;Node12</title>
<path fill="none" stroke="midnightblue" d="M481.494,-641.128C487.324,-643.976 492.949,-647.25 498,-651 519.412,-666.895 513.764,-681.633 534,-699 548.823,-711.721 567.75,-722.318 584.072,-730.122"/>
<polygon fill="midnightblue" stroke="midnightblue" points="582.784,-733.382 593.331,-734.389 585.714,-727.025 582.784,-733.382"/>
</g>
<!-- Node14 -->
<g id="node14" class="node"><title>Node14</title>
<g id="a_node14"><a xlink:href="../../db/def/class_file_acquisition.html#af5cffdb393fa3c0dffb9efd4af5fcc68" target="_top" xlink:title="FileAcquisition::Open">
<polygon fill="white" stroke="black" points="557,-668.5 557,-689.5 685,-689.5 685,-668.5 557,-668.5"/>
<text text-anchor="middle" x="621" y="-675.9" font-family="Helvetica,sans-Serif" font-size="12.00">FileAcquisition::Open</text>
</a>
</g>
</g>
<!-- Node11&#45;&gt;Node14 -->
<g id="edge13" class="edge"><title>Node11&#45;&gt;Node14</title>
<path fill="none" stroke="midnightblue" d="M484.673,-641.026C512.986,-648.971 546.185,-658.287 572.615,-665.703"/>
<polygon fill="midnightblue" stroke="midnightblue" points="571.815,-669.114 582.389,-668.446 573.706,-662.374 571.815,-669.114"/>
</g>
<!-- Node13 -->
<g id="node13" class="node"><title>Node13</title>
<g id="a_node13"><a xlink:href="../../d8/d29/class_image_acquisition.html#a09e47283e2ae3e6c352b8842bde2332a" target="_top" xlink:title="may be overridden, but be sure to call parent function also ">
<polygon fill="white" stroke="red" points="754.5,-773.5 754.5,-794.5 881.5,-794.5 881.5,-773.5 754.5,-773.5"/>
<text text-anchor="middle" x="818" y="-780.9" font-family="Helvetica,sans-Serif" font-size="12.00">ImageAcquisition::Init</text>
</a>
</g>
</g>
<!-- Node12&#45;&gt;Node13 -->
<g id="edge12" class="edge"><title>Node12&#45;&gt;Node13</title>
<path fill="none" stroke="midnightblue" d="M674.513,-755.503C699.111,-760.422 728.601,-766.32 754.355,-771.471"/>
<polygon fill="midnightblue" stroke="midnightblue" points="753.901,-774.949 764.393,-773.479 755.274,-768.085 753.901,-774.949"/>
</g>
<!-- Node16 -->
<g id="node16" class="node"><title>Node16</title>
<g id="a_node16"><a xlink:href="../../d8/d29/class_image_acquisition.html#a0964521623ef639396b854aceebbcbef" target="_top" xlink:title="ImageAcquisition::GetHeight">
<polygon fill="white" stroke="black" points="538.5,-347.5 538.5,-368.5 703.5,-368.5 703.5,-347.5 538.5,-347.5"/>
<text text-anchor="middle" x="621" y="-354.9" font-family="Helvetica,sans-Serif" font-size="12.00">ImageAcquisition::GetHeight</text>
</a>
</g>
</g>
<!-- Node15&#45;&gt;Node16 -->
<g id="edge15" class="edge"><title>Node15&#45;&gt;Node16</title>
<path fill="none" stroke="midnightblue" d="M476.373,-394.977C494.539,-389.295 515.09,-383.114 534,-378 543.115,-375.535 552.824,-373.098 562.311,-370.818"/>
<polygon fill="midnightblue" stroke="midnightblue" points="563.16,-374.214 572.085,-368.505 561.548,-367.402 563.16,-374.214"/>
</g>
<!-- Node17 -->
<g id="node17" class="node"><title>Node17</title>
<g id="a_node17"><a xlink:href="../../d8/d29/class_image_acquisition.html#a589eb2272d57ee982b6970667b034a0d" target="_top" xlink:title="ImageAcquisition::GetWidth">
<polygon fill="white" stroke="black" points="540.5,-387.5 540.5,-408.5 701.5,-408.5 701.5,-387.5 540.5,-387.5"/>
<text text-anchor="middle" x="621" y="-394.9" font-family="Helvetica,sans-Serif" font-size="12.00">ImageAcquisition::GetWidth</text>
</a>
</g>
</g>
<!-- Node15&#45;&gt;Node17 -->
<g id="edge16" class="edge"><title>Node15&#45;&gt;Node17</title>
<path fill="none" stroke="midnightblue" d="M491.727,-407.162C504.125,-406.277 517.239,-405.34 530.164,-404.417"/>
<polygon fill="midnightblue" stroke="midnightblue" points="530.745,-407.884 540.47,-403.681 530.246,-400.902 530.745,-407.884"/>
</g>
<!-- Node18 -->
<g id="node18" class="node"><title>Node18</title>
<g id="a_node18"><a xlink:href="../../d7/da0/class_thread_control.html#a5054f2ad6297cc65b4cb9146437f48b0" target="_top" xlink:title="ThreadControl::Init">
<polygon fill="white" stroke="black" points="565.5,-507.5 565.5,-528.5 676.5,-528.5 676.5,-507.5 565.5,-507.5"/>
<text text-anchor="middle" x="621" y="-514.9" font-family="Helvetica,sans-Serif" font-size="12.00">ThreadControl::Init</text>
</a>
</g>
</g>
<!-- Node15&#45;&gt;Node18 -->
<g id="edge17" class="edge"><title>Node15&#45;&gt;Node18</title>
<path fill="none" stroke="midnightblue" d="M484.499,-429.139C489.305,-431.707 493.884,-434.644 498,-438 522.1,-457.654 508.861,-479.693 534,-498 540.519,-502.747 547.991,-506.388 555.748,-509.177"/>
<polygon fill="midnightblue" stroke="midnightblue" points="554.718,-512.522 565.307,-512.173 556.812,-505.842 554.718,-512.522"/>
</g>
<!-- Node20 -->
<g id="node20" class="node"><title>Node20</title>
<g id="a_node20"><a xlink:href="../../da/d92/class_image_test.html#ab97f2724bc4060b68dd623c2ff8bbb8d" target="_top" xlink:title="ImageTest::Init">
<polygon fill="white" stroke="black" points="575,-427.5 575,-448.5 667,-448.5 667,-427.5 575,-427.5"/>
<text text-anchor="middle" x="621" y="-434.9" font-family="Helvetica,sans-Serif" font-size="12.00">ImageTest::Init</text>
</a>
</g>
</g>
<!-- Node15&#45;&gt;Node20 -->
<g id="edge19" class="edge"><title>Node15&#45;&gt;Node20</title>
<path fill="none" stroke="midnightblue" d="M491.727,-420.984C515.523,-424.141 541.961,-427.648 564.622,-430.654"/>
<polygon fill="midnightblue" stroke="midnightblue" points="564.372,-434.151 574.745,-431.997 565.292,-427.212 564.372,-434.151"/>
</g>
<!-- Node22 -->
<g id="node22" class="node"><title>Node22</title>
<g id="a_node22"><a xlink:href="../../da/d92/class_image_test.html#a372478d09c06cd7ab3684840add6215e" target="_top" xlink:title="param must be a pointer to a ThreadControl object; param&#45;&gt;m_data must point to an ImageTest object ...">
<polygon fill="white" stroke="red" points="551.5,-467.5 551.5,-488.5 690.5,-488.5 690.5,-467.5 551.5,-467.5"/>
<text text-anchor="middle" x="621" y="-474.9" font-family="Helvetica,sans-Serif" font-size="12.00">ImageTest::ThreadProc</text>
</a>
</g>
</g>
<!-- Node15&#45;&gt;Node22 -->
<g id="edge21" class="edge"><title>Node15&#45;&gt;Node22</title>
<path fill="none" stroke="midnightblue" d="M476.191,-429.087C483.592,-431.87 491.045,-434.873 498,-438 514.694,-445.505 516.921,-451.419 534,-458 540.439,-460.481 547.273,-462.708 554.163,-464.694"/>
<polygon fill="midnightblue" stroke="midnightblue" points="553.692,-468.192 564.26,-467.431 555.524,-461.436 553.692,-468.192"/>
</g>
<!-- Node19 -->
<g id="node19" class="node"><title>Node19</title>
<g id="a_node19"><a xlink:href="../../d7/da0/class_thread_control.html#ae2bdd5434d609141dda49566f81c9ce6" target="_top" xlink:title="ThreadControl::InitThread">
<polygon fill="white" stroke="black" points="744,-527.5 744,-548.5 892,-548.5 892,-527.5 744,-527.5"/>
<text text-anchor="middle" x="818" y="-534.9" font-family="Helvetica,sans-Serif" font-size="12.00">ThreadControl::InitThread</text>
</a>
</g>
</g>
<!-- Node18&#45;&gt;Node19 -->
<g id="edge18" class="edge"><title>Node18&#45;&gt;Node19</title>
<path fill="none" stroke="midnightblue" d="M676.578,-523.598C694.328,-525.418 714.449,-527.482 733.802,-529.467"/>
<polygon fill="midnightblue" stroke="midnightblue" points="733.531,-532.957 743.836,-530.496 734.245,-525.994 733.531,-532.957"/>
</g>
<!-- Node21 -->
<g id="node21" class="node"><title>Node21</title>
<g id="a_node21"><a xlink:href="../../da/d92/class_image_test.html#a19f4ba2329209f42293e735fe9797e7c" target="_top" xlink:title="ImageTest::AllocateRGB">
<polygon fill="white" stroke="red" points="745.5,-407.5 745.5,-428.5 890.5,-428.5 890.5,-407.5 745.5,-407.5"/>
<text text-anchor="middle" x="818" y="-414.9" font-family="Helvetica,sans-Serif" font-size="12.00">ImageTest::AllocateRGB</text>
</a>
</g>
</g>
<!-- Node20&#45;&gt;Node21 -->
<g id="edge20" class="edge"><title>Node20&#45;&gt;Node21</title>
<path fill="none" stroke="midnightblue" d="M667.227,-433.361C687.416,-431.291 711.851,-428.784 735.076,-426.402"/>
<polygon fill="midnightblue" stroke="midnightblue" points="735.698,-429.857 745.289,-425.355 734.984,-422.894 735.698,-429.857"/>
</g>
<!-- Node23 -->
<g id="node23" class="node"><title>Node23</title>
<g id="a_node23"><a xlink:href="../../d8/d08/class_timer.html#a4e607b129b392c11adddd9641a320436" target="_top" xlink:title="Timer::Start">
<polygon fill="white" stroke="black" points="779.5,-447.5 779.5,-468.5 856.5,-468.5 856.5,-447.5 779.5,-447.5"/>
<text text-anchor="middle" x="818" y="-454.9" font-family="Helvetica,sans-Serif" font-size="12.00">Timer::Start</text>
</a>
</g>
</g>
<!-- Node22&#45;&gt;Node23 -->
<g id="edge22" class="edge"><title>Node22&#45;&gt;Node23</title>
<path fill="none" stroke="midnightblue" d="M690.75,-470.949C716.73,-468.284 745.702,-465.313 769.333,-462.889"/>
<polygon fill="midnightblue" stroke="midnightblue" points="769.855,-466.354 779.445,-461.852 769.14,-459.39 769.855,-466.354"/>
</g>
<!-- Node24 -->
<g id="node24" class="node"><title>Node24</title>
<g id="a_node24"><a xlink:href="../../da/d92/class_image_test.html#a7334d76c1cc6780f46626be5b9ff1adb" target="_top" xlink:title="Runs the test pointed to by m_imatestFunc. ">
<polygon fill="white" stroke="red" points="769,-487.5 769,-508.5 867,-508.5 867,-487.5 769,-487.5"/>
<text text-anchor="middle" x="818" y="-494.9" font-family="Helvetica,sans-Serif" font-size="12.00">ImageTest::Run</text>
</a>
</g>
</g>
<!-- Node22&#45;&gt;Node24 -->
<g id="edge23" class="edge"><title>Node22&#45;&gt;Node24</title>
<path fill="none" stroke="midnightblue" d="M690.75,-485.051C712.894,-487.322 737.212,-489.817 758.543,-492.004"/>
<polygon fill="midnightblue" stroke="midnightblue" points="758.447,-495.513 768.752,-493.051 759.161,-488.549 758.447,-495.513"/>
</g>
<!-- Node25&#45;&gt;Node13 -->
<g id="edge25" class="edge"><title>Node25&#45;&gt;Node13</title>
<path fill="none" stroke="midnightblue" d="M491.627,-812.777C549.295,-813.527 634.316,-812.82 708,-805 725.622,-803.13 744.648,-799.894 761.795,-796.514"/>
<polygon fill="midnightblue" stroke="midnightblue" points="762.544,-799.934 771.649,-794.517 761.153,-793.073 762.544,-799.934"/>
</g>
<!-- Node26 -->
<g id="node26" class="node"><title>Node26</title>
<g id="a_node26"><a xlink:href="../../df/d22/class_imatest_lib_acq.html#af8b94cf2a548d2edbd61e0e39d7e5cce" target="_top" xlink:title="ImatestLibAcq::Open">
<polygon fill="white" stroke="black" points="558,-774.5 558,-795.5 684,-795.5 684,-774.5 558,-774.5"/>
<text text-anchor="middle" x="621" y="-781.9" font-family="Helvetica,sans-Serif" font-size="12.00">ImatestLibAcq::Open</text>
</a>
</g>
</g>
<!-- Node25&#45;&gt;Node26 -->
<g id="edge26" class="edge"><title>Node25&#45;&gt;Node26</title>
<path fill="none" stroke="midnightblue" d="M491.727,-802.016C509.839,-799.613 529.48,-797.008 547.823,-794.575"/>
<polygon fill="midnightblue" stroke="midnightblue" points="548.408,-798.028 557.861,-793.243 547.488,-791.088 548.408,-798.028"/>
</g>
<!-- Node27&#45;&gt;Node18 -->
<g id="edge28" class="edge"><title>Node27&#45;&gt;Node18</title>
<path fill="none" stroke="midnightblue" d="M491.727,-518C512.267,-518 534.776,-518 555.125,-518"/>
<polygon fill="midnightblue" stroke="midnightblue" points="555.234,-521.5 565.234,-518 555.234,-514.5 555.234,-521.5"/>
</g>
<!-- Node28 -->
<g id="node28" class="node"><title>Node28</title>
<g id="a_node28"><a xlink:href="../../d8/d29/class_image_acquisition.html#a87bc694942384075ece4dd9256215f0d" target="_top" xlink:title="ImageAcquisition::ThreadProc">
<polygon fill="white" stroke="red" points="534,-547.5 534,-568.5 708,-568.5 708,-547.5 534,-547.5"/>
<text text-anchor="middle" x="621" y="-554.9" font-family="Helvetica,sans-Serif" font-size="12.00">ImageAcquisition::ThreadProc</text>
</a>
</g>
</g>
<!-- Node27&#45;&gt;Node28 -->
<g id="edge29" class="edge"><title>Node27&#45;&gt;Node28</title>
<path fill="none" stroke="midnightblue" d="M491.727,-531.822C513.41,-536.247 537.286,-541.12 558.5,-545.449"/>
<polygon fill="midnightblue" stroke="midnightblue" points="557.862,-548.891 568.36,-547.461 559.261,-542.032 557.862,-548.891"/>
</g>
<!-- Node30&#45;&gt;Node12 -->
<g id="edge32" class="edge"><title>Node30&#45;&gt;Node12</title>
<path fill="none" stroke="midnightblue" d="M491.727,-753.508C511.797,-752.177 533.745,-750.721 553.722,-749.396"/>
<polygon fill="midnightblue" stroke="midnightblue" points="554.223,-752.871 563.969,-748.716 553.759,-745.886 554.223,-752.871"/>
</g>
<!-- Node30&#45;&gt;Node14 -->
<g id="edge33" class="edge"><title>Node30&#45;&gt;Node14</title>
<path fill="none" stroke="midnightblue" d="M471.909,-740.941C480.621,-737.719 489.606,-734.318 498,-731 528.434,-718.972 562.681,-704.27 587.125,-693.572"/>
<polygon fill="midnightblue" stroke="midnightblue" points="588.561,-696.765 596.31,-689.539 585.746,-690.355 588.561,-696.765"/>
</g>
<!-- Node31&#45;&gt;Node16 -->
<g id="edge37" class="edge"><title>Node31&#45;&gt;Node16</title>
<path fill="none" stroke="midnightblue" d="M482.646,-448C488.128,-445.142 493.36,-441.831 498,-438 521.982,-418.202 508.861,-396.307 534,-378 536.521,-376.164 539.184,-374.494 541.951,-372.974"/>
<polygon fill="midnightblue" stroke="midnightblue" points="543.574,-376.078 551.095,-368.616 540.562,-369.759 543.574,-376.078"/>
</g>
<!-- Node31&#45;&gt;Node17 -->
<g id="edge36" class="edge"><title>Node31&#45;&gt;Node17</title>
<path fill="none" stroke="midnightblue" d="M474.19,-447.902C482.239,-444.813 490.412,-441.466 498,-438 514.649,-430.395 516.921,-424.581 534,-418 540.439,-415.519 547.273,-413.292 554.163,-411.306"/>
<polygon fill="midnightblue" stroke="midnightblue" points="555.524,-414.564 564.26,-408.569 553.692,-407.808 555.524,-414.564"/>
</g>
<!-- Node31&#45;&gt;Node18 -->
<g id="edge38" class="edge"><title>Node31&#45;&gt;Node18</title>
<path fill="none" stroke="midnightblue" d="M478.359,-482.047C496.037,-487.392 515.792,-493.157 534,-498 543.126,-500.427 552.839,-502.845 562.329,-505.116"/>
<polygon fill="midnightblue" stroke="midnightblue" points="561.567,-508.532 572.104,-507.425 563.176,-501.72 561.567,-508.532"/>
</g>
<!-- Node31&#45;&gt;Node20 -->
<g id="edge35" class="edge"><title>Node31&#45;&gt;Node20</title>
<path fill="none" stroke="midnightblue" d="M491.727,-455.67C515.523,-452.392 541.961,-448.75 564.622,-445.629"/>
<polygon fill="midnightblue" stroke="midnightblue" points="565.316,-449.066 574.745,-444.234 564.361,-442.132 565.316,-449.066"/>
</g>
<!-- Node31&#45;&gt;Node22 -->
<g id="edge39" class="edge"><title>Node31&#45;&gt;Node22</title>
<path fill="none" stroke="midnightblue" d="M491.727,-469.492C507.671,-470.55 524.8,-471.686 541.185,-472.772"/>
<polygon fill="midnightblue" stroke="midnightblue" points="541.064,-476.272 551.273,-473.442 541.527,-469.287 541.064,-476.272"/>
</g>
<!-- Node34 -->
<g id="node34" class="node"><title>Node34</title>
<g id="a_node34"><a xlink:href="../../da/d69/imatest__library_8h.html#a5e2883cbd4857cc3ccca20aadd262f91" target="_top" xlink:title="imatest_libraryInitialize">
<polygon fill="white" stroke="black" points="356,-320.5 356,-341.5 490,-341.5 490,-320.5 356,-320.5"/>
<text text-anchor="middle" x="423" y="-327.9" font-family="Helvetica,sans-Serif" font-size="12.00">imatest_libraryInitialize</text>
</a>
</g>
</g>
<!-- Node33&#45;&gt;Node34 -->
<g id="edge42" class="edge"><title>Node33&#45;&gt;Node34</title>
<path fill="none" stroke="midnightblue" d="M311.548,-331C322.692,-331 334.314,-331 345.655,-331"/>
<polygon fill="midnightblue" stroke="midnightblue" points="345.97,-334.5 355.97,-331 345.97,-327.5 345.97,-334.5"/>
</g>
<!-- Node36 -->
<g id="node36" class="node"><title>Node36</title>
<g id="a_node36"><a xlink:href="../../d5/d67/class_stdout_thread.html#aab5207762f1d6036974b9bbd4b854a23" target="_top" xlink:title="StdoutThread::InitThread">
<polygon fill="white" stroke="black" points="351,-267.5 351,-288.5 495,-288.5 495,-267.5 351,-267.5"/>
<text text-anchor="middle" x="423" y="-274.9" font-family="Helvetica,sans-Serif" font-size="12.00">StdoutThread::InitThread</text>
</a>
</g>
</g>
<!-- Node35&#45;&gt;Node36 -->
<g id="edge44" class="edge"><title>Node35&#45;&gt;Node36</title>
<path fill="none" stroke="midnightblue" d="M311.548,-278C321.11,-278 331.024,-278 340.81,-278"/>
<polygon fill="midnightblue" stroke="midnightblue" points="340.943,-281.5 350.943,-278 340.943,-274.5 340.943,-281.5"/>
</g>
<!-- Node37 -->
<g id="node37" class="node"><title>Node37</title>
<g id="a_node37"><a xlink:href="../../d5/d52/class_stdout_redirect.html#a9dd34e73829d728660436c9d6b4d6d20" target="_top" xlink:title="StdoutRedirect::Init">
<polygon fill="white" stroke="black" points="563.5,-307.5 563.5,-328.5 678.5,-328.5 678.5,-307.5 563.5,-307.5"/>
<text text-anchor="middle" x="621" y="-314.9" font-family="Helvetica,sans-Serif" font-size="12.00">StdoutRedirect::Init</text>
</a>
</g>
</g>
<!-- Node36&#45;&gt;Node37 -->
<g id="edge45" class="edge"><title>Node36&#45;&gt;Node37</title>
<path fill="none" stroke="midnightblue" d="M475.497,-288.51C500.941,-293.702 531.831,-300.006 558.509,-305.451"/>
<polygon fill="midnightblue" stroke="midnightblue" points="558.009,-308.921 568.507,-307.491 559.409,-302.062 558.009,-308.921"/>
</g>
<!-- Node38 -->
<g id="node38" class="node"><title>Node38</title>
<g id="a_node38"><a xlink:href="../../d5/d52/class_stdout_redirect.html#a4151d5c4322285b87c3121e2f69dfc5e" target="_top" xlink:title="StdoutRedirect::Start">
<polygon fill="white" stroke="black" points="558.5,-267.5 558.5,-288.5 683.5,-288.5 683.5,-267.5 558.5,-267.5"/>
<text text-anchor="middle" x="621" y="-274.9" font-family="Helvetica,sans-Serif" font-size="12.00">StdoutRedirect::Start</text>
</a>
</g>
</g>
<!-- Node36&#45;&gt;Node38 -->
<g id="edge46" class="edge"><title>Node36&#45;&gt;Node38</title>
<path fill="none" stroke="midnightblue" d="M495.038,-278C512.346,-278 530.872,-278 548.215,-278"/>
<polygon fill="midnightblue" stroke="midnightblue" points="548.272,-281.5 558.272,-278 548.272,-274.5 548.272,-281.5"/>
</g>
<!-- Node39 -->
<g id="node39" class="node"><title>Node39</title>
<g id="a_node39"><a xlink:href="../../d5/d67/class_stdout_thread.html#a5527fa5fc7f110414f03e63b759bc4c3" target="_top" xlink:title="StdoutThread::ThreadProc">
<polygon fill="white" stroke="red" points="543.5,-227.5 543.5,-248.5 698.5,-248.5 698.5,-227.5 543.5,-227.5"/>
<text text-anchor="middle" x="621" y="-234.9" font-family="Helvetica,sans-Serif" font-size="12.00">StdoutThread::ThreadProc</text>
</a>
</g>
</g>
<!-- Node36&#45;&gt;Node39 -->
<g id="edge47" class="edge"><title>Node36&#45;&gt;Node39</title>
<path fill="none" stroke="midnightblue" d="M475.497,-267.49C500.941,-262.298 531.831,-255.994 558.509,-250.549"/>
<polygon fill="midnightblue" stroke="midnightblue" points="559.409,-253.938 568.507,-248.509 558.009,-247.079 559.409,-253.938"/>
</g>
<!-- Node41 -->
<g id="node41" class="node"><title>Node41</title>
<g id="a_node41"><a xlink:href="../../d7/da0/class_thread_control.html#afd86c1fc3e09d219cf48f5a15539b920" target="_top" xlink:title="ThreadControl::Quit">
<polygon fill="white" stroke="black" points="364,-227.5 364,-248.5 482,-248.5 482,-227.5 364,-227.5"/>
<text text-anchor="middle" x="423" y="-234.9" font-family="Helvetica,sans-Serif" font-size="12.00">ThreadControl::Quit</text>
</a>
</g>
</g>
<!-- Node40&#45;&gt;Node41 -->
<g id="edge49" class="edge"><title>Node40&#45;&gt;Node41</title>
<path fill="none" stroke="midnightblue" d="M311.548,-229.933C325.263,-230.935 339.701,-231.989 353.45,-232.994"/>
<polygon fill="midnightblue" stroke="midnightblue" points="353.579,-236.512 363.807,-233.75 354.089,-229.531 353.579,-236.512"/>
</g>
<!-- Node42 -->
<g id="node42" class="node"><title>Node42</title>
<g id="a_node42"><a xlink:href="../../d5/d67/class_stdout_thread.html#aa1e6ea9a0ab824dd75cfe81fe2686de2" target="_top" xlink:title="StdoutThread::Quit">
<polygon fill="white" stroke="black" points="366,-187.5 366,-208.5 480,-208.5 480,-187.5 366,-187.5"/>
<text text-anchor="middle" x="423" y="-194.9" font-family="Helvetica,sans-Serif" font-size="12.00">StdoutThread::Quit</text>
</a>
</g>
</g>
<!-- Node40&#45;&gt;Node42 -->
<g id="edge50" class="edge"><title>Node40&#45;&gt;Node42</title>
<path fill="none" stroke="midnightblue" d="M311.548,-214.754C325.952,-212.569 341.152,-210.263 355.516,-208.085"/>
<polygon fill="midnightblue" stroke="midnightblue" points="356.441,-211.484 365.803,-206.524 355.391,-204.564 356.441,-211.484"/>
</g>
<!-- Node45 -->
<g id="node45" class="node"><title>Node45</title>
<g id="a_node45"><a xlink:href="../../d3/d9f/class_c_operator_console_app.html#a13535438650fa9d707e82037b7d64bd7" target="_top" xlink:title="A public function to save the contents of the log CEdit to m_logFileName. ">
<polygon fill="white" stroke="black" points="354.5,-134 354.5,-168 491.5,-168 491.5,-134 354.5,-134"/>
<text text-anchor="start" x="362.5" y="-154.4" font-family="Helvetica,sans-Serif" font-size="12.00">COperatorConsoleApp</text>
<text text-anchor="middle" x="423" y="-141.4" font-family="Helvetica,sans-Serif" font-size="12.00">::SaveLog</text>
</a>
</g>
</g>
<!-- Node40&#45;&gt;Node45 -->
<g id="edge53" class="edge"><title>Node40&#45;&gt;Node45</title>
<path fill="none" stroke="midnightblue" d="M289.342,-207.944C296.978,-204.802 304.769,-201.427 312,-198 328.54,-190.162 331.351,-185.605 348,-178 352.624,-175.888 357.465,-173.82 362.363,-171.828"/>
<polygon fill="midnightblue" stroke="midnightblue" points="363.794,-175.026 371.81,-168.098 361.224,-168.515 363.794,-175.026"/>
</g>
<!-- Node43 -->
<g id="node43" class="node"><title>Node43</title>
<g id="a_node43"><a xlink:href="../../d5/d52/class_stdout_redirect.html#a95ecf8bde26cbfb1bcdc77bf9311af57" target="_top" xlink:title="StdoutRedirect::Stop">
<polygon fill="white" stroke="black" points="558.5,-147.5 558.5,-168.5 683.5,-168.5 683.5,-147.5 558.5,-147.5"/>
<text text-anchor="middle" x="621" y="-154.9" font-family="Helvetica,sans-Serif" font-size="12.00">StdoutRedirect::Stop</text>
</a>
</g>
</g>
<!-- Node42&#45;&gt;Node43 -->
<g id="edge51" class="edge"><title>Node42&#45;&gt;Node43</title>
<path fill="none" stroke="midnightblue" d="M475.497,-187.49C500.941,-182.298 531.831,-175.994 558.509,-170.549"/>
<polygon fill="midnightblue" stroke="midnightblue" points="559.409,-173.938 568.507,-168.509 558.009,-167.079 559.409,-173.938"/>
</g>
<!-- Node44 -->
<g id="node44" class="node"><title>Node44</title>
<g id="a_node44"><a xlink:href="../../d5/d52/class_stdout_redirect.html#a16592c4b15073ca7825c04de07503eac" target="_top" xlink:title="StdoutRedirect::Close">
<polygon fill="white" stroke="black" points="555.5,-187.5 555.5,-208.5 686.5,-208.5 686.5,-187.5 555.5,-187.5"/>
<text text-anchor="middle" x="621" y="-194.9" font-family="Helvetica,sans-Serif" font-size="12.00">StdoutRedirect::Close</text>
</a>
</g>
</g>
<!-- Node42&#45;&gt;Node44 -->
<g id="edge52" class="edge"><title>Node42&#45;&gt;Node44</title>
<path fill="none" stroke="midnightblue" d="M480.166,-198C500.38,-198 523.518,-198 545.077,-198"/>
<polygon fill="midnightblue" stroke="midnightblue" points="545.182,-201.5 555.182,-198 545.182,-194.5 545.182,-201.5"/>
</g>
<!-- Node48 -->
<g id="node48" class="node"><title>Node48</title>
<g id="a_node48"><a xlink:href="../../db/db5/_documentation_2_operator-_console_2_operator_console_8cpp.html#a5009a154818ee3f0d0da7531e4bf98a4" target="_top" xlink:title="Adds a data_type string and key string to the std::vector&lt;std::string&gt; data_types and keys...">
<polygon fill="white" stroke="black" points="358.5,-93.5 358.5,-114.5 487.5,-114.5 487.5,-93.5 358.5,-93.5"/>
<text text-anchor="middle" x="423" y="-100.9" font-family="Helvetica,sans-Serif" font-size="12.00">addDataTypeAndKey</text>
</a>
</g>
</g>
<!-- Node47&#45;&gt;Node48 -->
<g id="edge56" class="edge"><title>Node47&#45;&gt;Node48</title>
<path fill="none" stroke="midnightblue" d="M311.548,-91.5897C323.534,-92.9364 336.073,-94.3452 348.221,-95.7102"/>
<polygon fill="midnightblue" stroke="midnightblue" points="347.985,-99.2056 358.313,-96.8442 348.767,-92.2494 347.985,-99.2056"/>
</g>
<!-- Node49 -->
<g id="node49" class="node"><title>Node49</title>
<g id="a_node49"><a xlink:href="../../d3/d96/structentry.html#a422ec1e4cfe0d549468f987b55327919" target="_top" xlink:title="A member function for conditionally assigning the variable &#39;value&#39; to &#39;input&#39;. ">
<polygon fill="white" stroke="black" points="365,-53.5 365,-74.5 481,-74.5 481,-53.5 365,-53.5"/>
<text text-anchor="middle" x="423" y="-60.9" font-family="Helvetica,sans-Serif" font-size="12.00">entry::assign_value</text>
</a>
</g>
</g>
<!-- Node47&#45;&gt;Node49 -->
<g id="edge57" class="edge"><title>Node47&#45;&gt;Node49</title>
<path fill="none" stroke="midnightblue" d="M311.548,-76.4103C325.714,-74.8186 340.651,-73.1403 354.805,-71.5501"/>
<polygon fill="midnightblue" stroke="midnightblue" points="355.403,-75.0049 364.95,-70.4102 354.621,-68.0487 355.403,-75.0049"/>
</g>
<!-- Node50 -->
<g id="node50" class="node"><title>Node50</title>
<g id="a_node50"><a xlink:href="../../de/ddc/structmin_max_entry.html#ad2624259bf0e95269cfcf3d900ba9d44" target="_top" xlink:title="A member function for conditionally assigning the variable &#39;value&#39; to &#39;input&#39;. ">
<polygon fill="white" stroke="black" points="361,-0 361,-34 485,-34 485,-0 361,-0"/>
<text text-anchor="start" x="369" y="-20.4" font-family="Helvetica,sans-Serif" font-size="12.00">minMaxEntry::assign</text>
<text text-anchor="middle" x="423" y="-7.4" font-family="Helvetica,sans-Serif" font-size="12.00">_value</text>
</a>
</g>
</g>
<!-- Node47&#45;&gt;Node50 -->
<g id="edge58" class="edge"><title>Node47&#45;&gt;Node50</title>
<path fill="none" stroke="midnightblue" d="M287.707,-66.9966C306.27,-59.8252 328.164,-51.4327 348,-44 353.579,-41.9096 359.402,-39.7488 365.224,-37.6022"/>
<polygon fill="midnightblue" stroke="midnightblue" points="366.8,-40.752 374.979,-34.0176 364.385,-34.1815 366.8,-40.752"/>
</g>
</g>
</svg>
