<?xml version="1.0" encoding="UTF-8" standalone="no"?>
<!DOCTYPE svg PUBLIC "-//W3C//DTD SVG 1.1//EN"
 "http://www.w3.org/Graphics/SVG/1.1/DTD/svg11.dtd">
<!-- Generated by graphviz version 2.34.0 (20130907.0111)
 -->
<!-- Title: COperatorConsoleApp::UpdateResults Pages: 1 -->
<svg width="502pt" height="472pt"
 viewBox="0.00 0.00 502.00 472.00" xmlns="http://www.w3.org/2000/svg" xmlns:xlink="http://www.w3.org/1999/xlink">
<g id="graph0" class="graph" transform="scale(1 1) rotate(0) translate(4 468)">
<title>COperatorConsoleApp::UpdateResults</title>
<polygon fill="white" stroke="white" points="-4,4 -4,-468 498,-468 498,4 -4,4"/>
<!-- Node1 -->
<g id="node1" class="node"><title>Node1</title>
<polygon fill="#bfbfbf" stroke="black" points="0.5,-159 0.5,-193 137.5,-193 137.5,-159 0.5,-159"/>
<text text-anchor="start" x="8.5" y="-179.4" font-family="Helvetica,sans-Serif" font-size="12.00">COperatorConsoleApp</text>
<text text-anchor="middle" x="69" y="-166.4" font-family="Helvetica,sans-Serif" font-size="12.00">::UpdateResults</text>
</g>
<!-- Node2 -->
<g id="node2" class="node"><title>Node2</title>
<g id="a_node2"><a xlink:href="../../d3/d9f/class_c_operator_console_app.html#ae1cbaab939cb91a18fe8c63e54367fdb" target="_top" xlink:title="COperatorConsoleApp\l::GetResults">
<polygon fill="white" stroke="black" points="174.5,-339 174.5,-373 311.5,-373 311.5,-339 174.5,-339"/>
<text text-anchor="start" x="182.5" y="-359.4" font-family="Helvetica,sans-Serif" font-size="12.00">COperatorConsoleApp</text>
<text text-anchor="middle" x="243" y="-346.4" font-family="Helvetica,sans-Serif" font-size="12.00">::GetResults</text>
</a>
</g>
</g>
<!-- Node1&#45;&gt;Node2 -->
<g id="edge1" class="edge"><title>Node1&#45;&gt;Node2</title>
<path fill="none" stroke="midnightblue" d="M83.7856,-193.329C103.083,-217.245 139.649,-261.343 174,-296 186.365,-308.475 200.867,-321.472 213.295,-332.167"/>
<polygon fill="midnightblue" stroke="midnightblue" points="211.238,-335.012 221.119,-338.833 215.778,-329.684 211.238,-335.012"/>
</g>
<!-- Node8 -->
<g id="node8" class="node"><title>Node8</title>
<g id="a_node8"><a xlink:href="../../dd/dd1/class_c_operator_console_dlg.html#ae937941b5c3b8b9655ad4f2f91c7ea9a" target="_top" xlink:title="COperatorConsoleDlg\l::LogMessage">
<polygon fill="white" stroke="black" points="176,-253 176,-287 310,-287 310,-253 176,-253"/>
<text text-anchor="start" x="184" y="-273.4" font-family="Helvetica,sans-Serif" font-size="12.00">COperatorConsoleDlg</text>
<text text-anchor="middle" x="243" y="-260.4" font-family="Helvetica,sans-Serif" font-size="12.00">::LogMessage</text>
</a>
</g>
</g>
<!-- Node1&#45;&gt;Node8 -->
<g id="edge7" class="edge"><title>Node1&#45;&gt;Node8</title>
<path fill="none" stroke="midnightblue" d="M93.5805,-193.08C114.16,-207.519 145.161,-228.164 174,-243 177.918,-245.016 182.023,-246.981 186.192,-248.872"/>
<polygon fill="midnightblue" stroke="midnightblue" points="184.808,-252.087 195.373,-252.885 187.612,-245.673 184.808,-252.087"/>
</g>
<!-- Node10 -->
<g id="node10" class="node"><title>Node10</title>
<g id="a_node10"><a xlink:href="../../da/d92/class_image_test.html#a9c723f8f2839a5e455bcc13c7dbdb39d" target="_top" xlink:title="ImageTest::Passed">
<polygon fill="white" stroke="black" points="184,-212.5 184,-233.5 302,-233.5 302,-212.5 184,-212.5"/>
<text text-anchor="middle" x="243" y="-219.9" font-family="Helvetica,sans-Serif" font-size="12.00">ImageTest::Passed</text>
</a>
</g>
</g>
<!-- Node1&#45;&gt;Node10 -->
<g id="edge9" class="edge"><title>Node1&#45;&gt;Node10</title>
<path fill="none" stroke="midnightblue" d="M132.583,-193.101C152.693,-198.596 174.653,-204.597 193.587,-209.771"/>
<polygon fill="midnightblue" stroke="midnightblue" points="192.905,-213.213 203.474,-212.473 194.751,-206.46 192.905,-213.213"/>
</g>
<!-- Node11 -->
<g id="node11" class="node"><title>Node11</title>
<g id="a_node11"><a xlink:href="../../dd/dd1/class_c_operator_console_dlg.html#a699603055bddf9f727f58efd0d2b1d69" target="_top" xlink:title="COperatorConsoleDlg\l::UpdateFPS">
<polygon fill="white" stroke="black" points="176,-159 176,-193 310,-193 310,-159 176,-159"/>
<text text-anchor="start" x="184" y="-179.4" font-family="Helvetica,sans-Serif" font-size="12.00">COperatorConsoleDlg</text>
<text text-anchor="middle" x="243" y="-166.4" font-family="Helvetica,sans-Serif" font-size="12.00">::UpdateFPS</text>
</a>
</g>
</g>
<!-- Node1&#45;&gt;Node11 -->
<g id="edge10" class="edge"><title>Node1&#45;&gt;Node11</title>
<path fill="none" stroke="midnightblue" d="M137.979,-176C147.15,-176 156.608,-176 165.909,-176"/>
<polygon fill="midnightblue" stroke="midnightblue" points="165.919,-179.5 175.919,-176 165.919,-172.5 165.919,-179.5"/>
</g>
<!-- Node12 -->
<g id="node12" class="node"><title>Node12</title>
<g id="a_node12"><a xlink:href="../../dd/dd1/class_c_operator_console_dlg.html#a652b4785d94be4b8b18809662edb28bd" target="_top" xlink:title="COperatorConsoleDlg\l::UpdateImage">
<polygon fill="white" stroke="black" points="176,-106 176,-140 310,-140 310,-106 176,-106"/>
<text text-anchor="start" x="184" y="-126.4" font-family="Helvetica,sans-Serif" font-size="12.00">COperatorConsoleDlg</text>
<text text-anchor="middle" x="243" y="-113.4" font-family="Helvetica,sans-Serif" font-size="12.00">::UpdateImage</text>
</a>
</g>
</g>
<!-- Node1&#45;&gt;Node12 -->
<g id="edge11" class="edge"><title>Node1&#45;&gt;Node12</title>
<path fill="none" stroke="midnightblue" d="M125.369,-158.939C141.787,-153.879 159.919,-148.292 176.895,-143.061"/>
<polygon fill="midnightblue" stroke="midnightblue" points="178.209,-146.319 186.735,-140.029 176.148,-139.629 178.209,-146.319"/>
</g>
<!-- Node14 -->
<g id="node14" class="node"><title>Node14</title>
<g id="a_node14"><a xlink:href="../../dd/dd1/class_c_operator_console_dlg.html#a8951b07d9665d1994a9ba7d6896fb816" target="_top" xlink:title="COperatorConsoleDlg\l::UpdateStatus">
<polygon fill="white" stroke="black" points="176,-53 176,-87 310,-87 310,-53 176,-53"/>
<text text-anchor="start" x="184" y="-73.4" font-family="Helvetica,sans-Serif" font-size="12.00">COperatorConsoleDlg</text>
<text text-anchor="middle" x="243" y="-60.4" font-family="Helvetica,sans-Serif" font-size="12.00">::UpdateStatus</text>
</a>
</g>
</g>
<!-- Node1&#45;&gt;Node14 -->
<g id="edge13" class="edge"><title>Node1&#45;&gt;Node14</title>
<path fill="none" stroke="midnightblue" d="M89.202,-158.849C109.27,-141.563 142.208,-114.942 174,-97 177.448,-95.054 181.065,-93.1815 184.758,-91.3936"/>
<polygon fill="midnightblue" stroke="midnightblue" points="186.416,-94.4838 194.043,-87.1297 183.494,-88.1225 186.416,-94.4838"/>
</g>
<!-- Node15 -->
<g id="node15" class="node"><title>Node15</title>
<g id="a_node15"><a xlink:href="../../dd/dd1/class_c_operator_console_dlg.html#a696a817ef9e443f40c13674083426771" target="_top" xlink:title="COperatorConsoleDlg\l::UpdateSummary">
<polygon fill="white" stroke="black" points="176,-0 176,-34 310,-34 310,-0 176,-0"/>
<text text-anchor="start" x="184" y="-20.4" font-family="Helvetica,sans-Serif" font-size="12.00">COperatorConsoleDlg</text>
<text text-anchor="middle" x="243" y="-7.4" font-family="Helvetica,sans-Serif" font-size="12.00">::UpdateSummary</text>
</a>
</g>
</g>
<!-- Node1&#45;&gt;Node15 -->
<g id="edge14" class="edge"><title>Node1&#45;&gt;Node15</title>
<path fill="none" stroke="midnightblue" d="M79.2386,-158.871C95.1165,-130.924 130.146,-75.3914 174,-43 175.817,-41.6577 177.712,-40.3761 179.665,-39.1533"/>
<polygon fill="midnightblue" stroke="midnightblue" points="181.539,-42.1152 188.539,-34.1622 178.107,-36.014 181.539,-42.1152"/>
</g>
<!-- Node3 -->
<g id="node3" class="node"><title>Node3</title>
<g id="a_node3"><a xlink:href="../../da/d92/class_image_test.html#a2dfac15fc3e18dcd1400d2e6fe7f4b1a" target="_top" xlink:title="ImageTest::GetFailInfo">
<polygon fill="white" stroke="black" points="354,-442.5 354,-463.5 488,-463.5 488,-442.5 354,-442.5"/>
<text text-anchor="middle" x="421" y="-449.9" font-family="Helvetica,sans-Serif" font-size="12.00">ImageTest::GetFailInfo</text>
</a>
</g>
</g>
<!-- Node2&#45;&gt;Node3 -->
<g id="edge2" class="edge"><title>Node2&#45;&gt;Node3</title>
<path fill="none" stroke="midnightblue" d="M262.54,-373.063C282.335,-390.44 315.294,-417.034 348,-433 352.618,-435.254 357.53,-437.29 362.536,-439.12"/>
<polygon fill="midnightblue" stroke="midnightblue" points="361.629,-442.508 372.223,-442.391 363.868,-435.876 361.629,-442.508"/>
</g>
<!-- Node4 -->
<g id="node4" class="node"><title>Node4</title>
<g id="a_node4"><a xlink:href="../../da/d92/class_image_test.html#ada4d8a43edec3fa01bbc4b01ef4b6b0e" target="_top" xlink:title="ImageTest::GetJSON">
<polygon fill="white" stroke="black" points="357,-402.5 357,-423.5 485,-423.5 485,-402.5 357,-402.5"/>
<text text-anchor="middle" x="421" y="-409.9" font-family="Helvetica,sans-Serif" font-size="12.00">ImageTest::GetJSON</text>
</a>
</g>
</g>
<!-- Node2&#45;&gt;Node4 -->
<g id="edge3" class="edge"><title>Node2&#45;&gt;Node4</title>
<path fill="none" stroke="midnightblue" d="M289.583,-373.005C307.672,-379.546 328.723,-386.902 348,-393 355.224,-395.285 362.9,-397.569 370.445,-399.733"/>
<polygon fill="midnightblue" stroke="midnightblue" points="369.665,-403.149 380.239,-402.498 371.567,-396.412 369.665,-403.149"/>
</g>
<!-- Node5 -->
<g id="node5" class="node"><title>Node5</title>
<g id="a_node5"><a xlink:href="../../da/d92/class_image_test.html#aec44cc808c82707c05710bdaf2b10b4a" target="_top" xlink:title="ImageTest::GetLog">
<polygon fill="white" stroke="black" points="363,-362.5 363,-383.5 479,-383.5 479,-362.5 363,-362.5"/>
<text text-anchor="middle" x="421" y="-369.9" font-family="Helvetica,sans-Serif" font-size="12.00">ImageTest::GetLog</text>
</a>
</g>
</g>
<!-- Node2&#45;&gt;Node5 -->
<g id="edge4" class="edge"><title>Node2&#45;&gt;Node5</title>
<path fill="none" stroke="midnightblue" d="M311.543,-362.524C325.061,-363.83 339.262,-365.201 352.77,-366.506"/>
<polygon fill="midnightblue" stroke="midnightblue" points="352.651,-370.011 362.941,-367.489 353.324,-363.043 352.651,-370.011"/>
</g>
<!-- Node6 -->
<g id="node6" class="node"><title>Node6</title>
<g id="a_node6"><a xlink:href="../../da/d92/class_image_test.html#a0f7d70f970bde7af57011132e4cb49fc" target="_top" xlink:title="ImageTest::GetName">
<polygon fill="white" stroke="black" points="357,-322.5 357,-343.5 485,-343.5 485,-322.5 357,-322.5"/>
<text text-anchor="middle" x="421" y="-329.9" font-family="Helvetica,sans-Serif" font-size="12.00">ImageTest::GetName</text>
</a>
</g>
</g>
<!-- Node2&#45;&gt;Node6 -->
<g id="edge5" class="edge"><title>Node2&#45;&gt;Node6</title>
<path fill="none" stroke="midnightblue" d="M311.543,-347.173C323.089,-345.664 335.133,-344.091 346.818,-342.564"/>
<polygon fill="midnightblue" stroke="midnightblue" points="347.51,-346.003 356.973,-341.237 346.603,-339.062 347.51,-346.003"/>
</g>
<!-- Node7 -->
<g id="node7" class="node"><title>Node7</title>
<g id="a_node7"><a xlink:href="../../da/d92/class_image_test.html#a4cf585eeef3f72a8721af5c1c3daa781" target="_top" xlink:title="ImageTest::GetSummary">
<polygon fill="white" stroke="black" points="348,-282.5 348,-303.5 494,-303.5 494,-282.5 348,-282.5"/>
<text text-anchor="middle" x="421" y="-289.9" font-family="Helvetica,sans-Serif" font-size="12.00">ImageTest::GetSummary</text>
</a>
</g>
</g>
<!-- Node2&#45;&gt;Node7 -->
<g id="edge6" class="edge"><title>Node2&#45;&gt;Node7</title>
<path fill="none" stroke="midnightblue" d="M282.099,-338.948C301.594,-330.556 325.831,-320.631 348,-313 354.593,-310.73 361.592,-308.532 368.535,-306.476"/>
<polygon fill="midnightblue" stroke="midnightblue" points="369.974,-309.703 378.615,-303.572 368.036,-302.977 369.974,-309.703"/>
</g>
<!-- Node9 -->
<g id="node9" class="node"><title>Node9</title>
<g id="a_node9"><a xlink:href="../../dd/d46/class_timestamp.html#ac1238e7ef53954ee90d6687601bc95e9" target="_top" xlink:title="Timestamp::Get">
<polygon fill="white" stroke="black" points="371,-242.5 371,-263.5 471,-263.5 471,-242.5 371,-242.5"/>
<text text-anchor="middle" x="421" y="-249.9" font-family="Helvetica,sans-Serif" font-size="12.00">Timestamp::Get</text>
</a>
</g>
</g>
<!-- Node8&#45;&gt;Node9 -->
<g id="edge8" class="edge"><title>Node8&#45;&gt;Node9</title>
<path fill="none" stroke="midnightblue" d="M310.037,-263.621C326.757,-262.006 344.608,-260.282 360.958,-258.703"/>
<polygon fill="midnightblue" stroke="midnightblue" points="361.303,-262.186 370.92,-257.741 360.63,-255.218 361.303,-262.186"/>
</g>
<!-- Node13 -->
<g id="node13" class="node"><title>Node13</title>
<g id="a_node13"><a xlink:href="../../dc/dad/class_c_static_bmp.html#a00d2d71cabb44468cacd464307d749d4" target="_top" xlink:title="CStaticBmp::Update">
<polygon fill="white" stroke="black" points="358.5,-112.5 358.5,-133.5 483.5,-133.5 483.5,-112.5 358.5,-112.5"/>
<text text-anchor="middle" x="421" y="-119.9" font-family="Helvetica,sans-Serif" font-size="12.00">CStaticBmp::Update</text>
</a>
</g>
</g>
<!-- Node12&#45;&gt;Node13 -->
<g id="edge12" class="edge"><title>Node12&#45;&gt;Node13</title>
<path fill="none" stroke="midnightblue" d="M310.037,-123C322.505,-123 335.602,-123 348.236,-123"/>
<polygon fill="midnightblue" stroke="midnightblue" points="348.249,-126.5 358.249,-123 348.249,-119.5 348.249,-126.5"/>
</g>
</g>
</svg>
