<?xml version="1.0" encoding="UTF-8" standalone="no"?>
<!DOCTYPE svg PUBLIC "-//W3C//DTD SVG 1.1//EN"
 "http://www.w3.org/Graphics/SVG/1.1/DTD/svg11.dtd">
<!-- Generated by graphviz version 2.34.0 (20130907.0111)
 -->
<!-- Title: COperatorConsoleApp::OnBlemishDone Pages: 1 -->
<svg width="676pt" height="348pt"
 viewBox="0.00 0.00 676.00 348.00" xmlns="http://www.w3.org/2000/svg" xmlns:xlink="http://www.w3.org/1999/xlink">
<g id="graph0" class="graph" transform="scale(1 1) rotate(0) translate(4 344)">
<title>COperatorConsoleApp::OnBlemishDone</title>
<polygon fill="white" stroke="white" points="-4,4 -4,-344 672,-344 672,4 -4,4"/>
<!-- Node1 -->
<g id="node1" class="node"><title>Node1</title>
<polygon fill="#bfbfbf" stroke="black" points="0.5,-185 0.5,-219 137.5,-219 137.5,-185 0.5,-185"/>
<text text-anchor="start" x="8.5" y="-205.4" font-family="Helvetica,sans-Serif" font-size="12.00">COperatorConsoleApp</text>
<text text-anchor="middle" x="69" y="-192.4" font-family="Helvetica,sans-Serif" font-size="12.00">::OnBlemishDone</text>
</g>
<!-- Node2 -->
<g id="node2" class="node"><title>Node2</title>
<g id="a_node2"><a xlink:href="../../d3/d9f/class_c_operator_console_app.html#a24bdd4786c17e5ca514a2e0569687025" target="_top" xlink:title="COperatorConsoleApp\l::SendAppMessage">
<polygon fill="white" stroke="black" points="174.5,-212 174.5,-246 311.5,-246 311.5,-212 174.5,-212"/>
<text text-anchor="start" x="182.5" y="-232.4" font-family="Helvetica,sans-Serif" font-size="12.00">COperatorConsoleApp</text>
<text text-anchor="middle" x="243" y="-219.4" font-family="Helvetica,sans-Serif" font-size="12.00">::SendAppMessage</text>
</a>
</g>
</g>
<!-- Node1&#45;&gt;Node2 -->
<g id="edge1" class="edge"><title>Node1&#45;&gt;Node2</title>
<path fill="none" stroke="midnightblue" d="M137.979,-212.671C146.55,-214.017 155.372,-215.401 164.082,-216.769"/>
<polygon fill="midnightblue" stroke="midnightblue" points="163.811,-220.269 174.233,-218.362 164.897,-213.354 163.811,-220.269"/>
</g>
<!-- Node3 -->
<g id="node3" class="node"><title>Node3</title>
<g id="a_node3"><a xlink:href="../../d3/d9f/class_c_operator_console_app.html#a61fec0ac8bc8938749e977686e37e0dc" target="_top" xlink:title="COperatorConsoleApp\l::UpdateResults">
<polygon fill="white" stroke="black" points="174.5,-159 174.5,-193 311.5,-193 311.5,-159 174.5,-159"/>
<text text-anchor="start" x="182.5" y="-179.4" font-family="Helvetica,sans-Serif" font-size="12.00">COperatorConsoleApp</text>
<text text-anchor="middle" x="243" y="-166.4" font-family="Helvetica,sans-Serif" font-size="12.00">::UpdateResults</text>
</a>
</g>
</g>
<!-- Node1&#45;&gt;Node3 -->
<g id="edge2" class="edge"><title>Node1&#45;&gt;Node3</title>
<path fill="none" stroke="midnightblue" d="M137.979,-191.724C146.55,-190.428 155.372,-189.095 164.082,-187.778"/>
<polygon fill="midnightblue" stroke="midnightblue" points="164.869,-191.199 174.233,-186.244 163.822,-184.278 164.869,-191.199"/>
</g>
<!-- Node4 -->
<g id="node4" class="node"><title>Node4</title>
<g id="a_node4"><a xlink:href="../../da/d92/class_image_test.html#a9c723f8f2839a5e455bcc13c7dbdb39d" target="_top" xlink:title="ImageTest::Passed">
<polygon fill="white" stroke="black" points="358,-318.5 358,-339.5 476,-339.5 476,-318.5 358,-318.5"/>
<text text-anchor="middle" x="417" y="-325.9" font-family="Helvetica,sans-Serif" font-size="12.00">ImageTest::Passed</text>
</a>
</g>
</g>
<!-- Node3&#45;&gt;Node4 -->
<g id="edge3" class="edge"><title>Node3&#45;&gt;Node4</title>
<path fill="none" stroke="midnightblue" d="M299.722,-193.168C304.219,-195.976 308.406,-199.231 312,-203 346.043,-238.705 312.584,-273.657 348,-308 349.94,-309.882 352.046,-311.595 354.273,-313.155"/>
<polygon fill="midnightblue" stroke="midnightblue" points="352.979,-316.45 363.384,-318.445 356.493,-310.397 352.979,-316.45"/>
</g>
<!-- Node5 -->
<g id="node5" class="node"><title>Node5</title>
<g id="a_node5"><a xlink:href="../../dd/dd1/class_c_operator_console_dlg.html#ae937941b5c3b8b9655ad4f2f91c7ea9a" target="_top" xlink:title="COperatorConsoleDlg\l::LogMessage">
<polygon fill="white" stroke="black" points="350,-265 350,-299 484,-299 484,-265 350,-265"/>
<text text-anchor="start" x="358" y="-285.4" font-family="Helvetica,sans-Serif" font-size="12.00">COperatorConsoleDlg</text>
<text text-anchor="middle" x="417" y="-272.4" font-family="Helvetica,sans-Serif" font-size="12.00">::LogMessage</text>
</a>
</g>
</g>
<!-- Node3&#45;&gt;Node5 -->
<g id="edge4" class="edge"><title>Node3&#45;&gt;Node5</title>
<path fill="none" stroke="midnightblue" d="M296.621,-193.176C302.077,-196.024 307.327,-199.285 312,-203 334.004,-220.491 325.996,-237.509 348,-255 350.045,-256.625 352.2,-258.164 354.434,-259.618"/>
<polygon fill="midnightblue" stroke="midnightblue" points="352.976,-262.82 363.379,-264.824 356.497,-256.769 352.976,-262.82"/>
</g>
<!-- Node7 -->
<g id="node7" class="node"><title>Node7</title>
<g id="a_node7"><a xlink:href="../../dd/dd1/class_c_operator_console_dlg.html#a652b4785d94be4b8b18809662edb28bd" target="_top" xlink:title="COperatorConsoleDlg\l::UpdateImage">
<polygon fill="white" stroke="black" points="350,-212 350,-246 484,-246 484,-212 350,-212"/>
<text text-anchor="start" x="358" y="-232.4" font-family="Helvetica,sans-Serif" font-size="12.00">COperatorConsoleDlg</text>
<text text-anchor="middle" x="417" y="-219.4" font-family="Helvetica,sans-Serif" font-size="12.00">::UpdateImage</text>
</a>
</g>
</g>
<!-- Node3&#45;&gt;Node7 -->
<g id="edge6" class="edge"><title>Node3&#45;&gt;Node7</title>
<path fill="none" stroke="midnightblue" d="M299.369,-193.061C315.787,-198.121 333.919,-203.708 350.895,-208.939"/>
<polygon fill="midnightblue" stroke="midnightblue" points="350.148,-212.371 360.735,-211.971 352.209,-205.681 350.148,-212.371"/>
</g>
<!-- Node9 -->
<g id="node9" class="node"><title>Node9</title>
<g id="a_node9"><a xlink:href="../../d3/d9f/class_c_operator_console_app.html#ae1cbaab939cb91a18fe8c63e54367fdb" target="_top" xlink:title="COperatorConsoleApp\l::GetResults">
<polygon fill="white" stroke="black" points="348.5,-159 348.5,-193 485.5,-193 485.5,-159 348.5,-159"/>
<text text-anchor="start" x="356.5" y="-179.4" font-family="Helvetica,sans-Serif" font-size="12.00">COperatorConsoleApp</text>
<text text-anchor="middle" x="417" y="-166.4" font-family="Helvetica,sans-Serif" font-size="12.00">::GetResults</text>
</a>
</g>
</g>
<!-- Node3&#45;&gt;Node9 -->
<g id="edge8" class="edge"><title>Node3&#45;&gt;Node9</title>
<path fill="none" stroke="midnightblue" d="M311.979,-176C320.55,-176 329.372,-176 338.082,-176"/>
<polygon fill="midnightblue" stroke="midnightblue" points="338.233,-179.5 348.233,-176 338.233,-172.5 338.233,-179.5"/>
</g>
<!-- Node15 -->
<g id="node15" class="node"><title>Node15</title>
<g id="a_node15"><a xlink:href="../../dd/dd1/class_c_operator_console_dlg.html#a8951b07d9665d1994a9ba7d6896fb816" target="_top" xlink:title="COperatorConsoleDlg\l::UpdateStatus">
<polygon fill="white" stroke="black" points="350,-106 350,-140 484,-140 484,-106 350,-106"/>
<text text-anchor="start" x="358" y="-126.4" font-family="Helvetica,sans-Serif" font-size="12.00">COperatorConsoleDlg</text>
<text text-anchor="middle" x="417" y="-113.4" font-family="Helvetica,sans-Serif" font-size="12.00">::UpdateStatus</text>
</a>
</g>
</g>
<!-- Node3&#45;&gt;Node15 -->
<g id="edge14" class="edge"><title>Node3&#45;&gt;Node15</title>
<path fill="none" stroke="midnightblue" d="M299.369,-158.939C315.787,-153.879 333.919,-148.292 350.895,-143.061"/>
<polygon fill="midnightblue" stroke="midnightblue" points="352.209,-146.319 360.735,-140.029 350.148,-139.629 352.209,-146.319"/>
</g>
<!-- Node16 -->
<g id="node16" class="node"><title>Node16</title>
<g id="a_node16"><a xlink:href="../../dd/dd1/class_c_operator_console_dlg.html#a696a817ef9e443f40c13674083426771" target="_top" xlink:title="COperatorConsoleDlg\l::UpdateSummary">
<polygon fill="white" stroke="black" points="350,-53 350,-87 484,-87 484,-53 350,-53"/>
<text text-anchor="start" x="358" y="-73.4" font-family="Helvetica,sans-Serif" font-size="12.00">COperatorConsoleDlg</text>
<text text-anchor="middle" x="417" y="-60.4" font-family="Helvetica,sans-Serif" font-size="12.00">::UpdateSummary</text>
</a>
</g>
</g>
<!-- Node3&#45;&gt;Node16 -->
<g id="edge15" class="edge"><title>Node3&#45;&gt;Node16</title>
<path fill="none" stroke="midnightblue" d="M263.202,-158.849C283.27,-141.563 316.208,-114.942 348,-97 351.448,-95.054 355.065,-93.1815 358.758,-91.3936"/>
<polygon fill="midnightblue" stroke="midnightblue" points="360.416,-94.4838 368.043,-87.1297 357.494,-88.1225 360.416,-94.4838"/>
</g>
<!-- Node17 -->
<g id="node17" class="node"><title>Node17</title>
<g id="a_node17"><a xlink:href="../../dd/dd1/class_c_operator_console_dlg.html#a699603055bddf9f727f58efd0d2b1d69" target="_top" xlink:title="COperatorConsoleDlg\l::UpdateFPS">
<polygon fill="white" stroke="black" points="350,-0 350,-34 484,-34 484,-0 350,-0"/>
<text text-anchor="start" x="358" y="-20.4" font-family="Helvetica,sans-Serif" font-size="12.00">COperatorConsoleDlg</text>
<text text-anchor="middle" x="417" y="-7.4" font-family="Helvetica,sans-Serif" font-size="12.00">::UpdateFPS</text>
</a>
</g>
</g>
<!-- Node3&#45;&gt;Node17 -->
<g id="edge16" class="edge"><title>Node3&#45;&gt;Node17</title>
<path fill="none" stroke="midnightblue" d="M253.239,-158.871C269.117,-130.924 304.146,-75.3914 348,-43 349.817,-41.6577 351.712,-40.3761 353.665,-39.1533"/>
<polygon fill="midnightblue" stroke="midnightblue" points="355.539,-42.1152 362.539,-34.1622 352.107,-36.014 355.539,-42.1152"/>
</g>
<!-- Node6 -->
<g id="node6" class="node"><title>Node6</title>
<g id="a_node6"><a xlink:href="../../dd/d46/class_timestamp.html#ac1238e7ef53954ee90d6687601bc95e9" target="_top" xlink:title="Timestamp::Get">
<polygon fill="white" stroke="black" points="545,-285.5 545,-306.5 645,-306.5 645,-285.5 545,-285.5"/>
<text text-anchor="middle" x="595" y="-292.9" font-family="Helvetica,sans-Serif" font-size="12.00">Timestamp::Get</text>
</a>
</g>
</g>
<!-- Node5&#45;&gt;Node6 -->
<g id="edge5" class="edge"><title>Node5&#45;&gt;Node6</title>
<path fill="none" stroke="midnightblue" d="M484.037,-287.253C500.599,-288.57 518.271,-289.976 534.495,-291.267"/>
<polygon fill="midnightblue" stroke="midnightblue" points="534.674,-294.792 544.92,-292.096 535.229,-287.814 534.674,-294.792"/>
</g>
<!-- Node8 -->
<g id="node8" class="node"><title>Node8</title>
<g id="a_node8"><a xlink:href="../../dc/dad/class_c_static_bmp.html#a00d2d71cabb44468cacd464307d749d4" target="_top" xlink:title="CStaticBmp::Update">
<polygon fill="white" stroke="black" points="532.5,-245.5 532.5,-266.5 657.5,-266.5 657.5,-245.5 532.5,-245.5"/>
<text text-anchor="middle" x="595" y="-252.9" font-family="Helvetica,sans-Serif" font-size="12.00">CStaticBmp::Update</text>
</a>
</g>
</g>
<!-- Node7&#45;&gt;Node8 -->
<g id="edge7" class="edge"><title>Node7&#45;&gt;Node8</title>
<path fill="none" stroke="midnightblue" d="M484.037,-239.131C496.505,-241.043 509.602,-243.053 522.236,-244.991"/>
<polygon fill="midnightblue" stroke="midnightblue" points="521.834,-248.47 532.249,-246.527 522.895,-241.551 521.834,-248.47"/>
</g>
<!-- Node10 -->
<g id="node10" class="node"><title>Node10</title>
<g id="a_node10"><a xlink:href="../../da/d92/class_image_test.html#a2dfac15fc3e18dcd1400d2e6fe7f4b1a" target="_top" xlink:title="ImageTest::GetFailInfo">
<polygon fill="white" stroke="black" points="528,-205.5 528,-226.5 662,-226.5 662,-205.5 528,-205.5"/>
<text text-anchor="middle" x="595" y="-212.9" font-family="Helvetica,sans-Serif" font-size="12.00">ImageTest::GetFailInfo</text>
</a>
</g>
</g>
<!-- Node9&#45;&gt;Node10 -->
<g id="edge9" class="edge"><title>Node9&#45;&gt;Node10</title>
<path fill="none" stroke="midnightblue" d="M485.543,-191.351C502.722,-195.255 521.003,-199.41 537.564,-203.174"/>
<polygon fill="midnightblue" stroke="midnightblue" points="537.102,-206.658 547.629,-205.461 538.653,-199.832 537.102,-206.658"/>
</g>
<!-- Node11 -->
<g id="node11" class="node"><title>Node11</title>
<g id="a_node11"><a xlink:href="../../da/d92/class_image_test.html#ada4d8a43edec3fa01bbc4b01ef4b6b0e" target="_top" xlink:title="ImageTest::GetJSON">
<polygon fill="white" stroke="black" points="531,-165.5 531,-186.5 659,-186.5 659,-165.5 531,-165.5"/>
<text text-anchor="middle" x="595" y="-172.9" font-family="Helvetica,sans-Serif" font-size="12.00">ImageTest::GetJSON</text>
</a>
</g>
</g>
<!-- Node9&#45;&gt;Node11 -->
<g id="edge10" class="edge"><title>Node9&#45;&gt;Node11</title>
<path fill="none" stroke="midnightblue" d="M485.543,-176C497.089,-176 509.133,-176 520.818,-176"/>
<polygon fill="midnightblue" stroke="midnightblue" points="520.973,-179.5 530.973,-176 520.973,-172.5 520.973,-179.5"/>
</g>
<!-- Node12 -->
<g id="node12" class="node"><title>Node12</title>
<g id="a_node12"><a xlink:href="../../da/d92/class_image_test.html#aec44cc808c82707c05710bdaf2b10b4a" target="_top" xlink:title="ImageTest::GetLog">
<polygon fill="white" stroke="black" points="537,-125.5 537,-146.5 653,-146.5 653,-125.5 537,-125.5"/>
<text text-anchor="middle" x="595" y="-132.9" font-family="Helvetica,sans-Serif" font-size="12.00">ImageTest::GetLog</text>
</a>
</g>
</g>
<!-- Node9&#45;&gt;Node12 -->
<g id="edge11" class="edge"><title>Node9&#45;&gt;Node12</title>
<path fill="none" stroke="midnightblue" d="M485.543,-160.649C502.722,-156.745 521.003,-152.59 537.564,-148.826"/>
<polygon fill="midnightblue" stroke="midnightblue" points="538.653,-152.168 547.629,-146.539 537.102,-145.342 538.653,-152.168"/>
</g>
<!-- Node13 -->
<g id="node13" class="node"><title>Node13</title>
<g id="a_node13"><a xlink:href="../../da/d92/class_image_test.html#a0f7d70f970bde7af57011132e4cb49fc" target="_top" xlink:title="ImageTest::GetName">
<polygon fill="white" stroke="black" points="531,-85.5 531,-106.5 659,-106.5 659,-85.5 531,-85.5"/>
<text text-anchor="middle" x="595" y="-92.9" font-family="Helvetica,sans-Serif" font-size="12.00">ImageTest::GetName</text>
</a>
</g>
</g>
<!-- Node9&#45;&gt;Node13 -->
<g id="edge12" class="edge"><title>Node9&#45;&gt;Node13</title>
<path fill="none" stroke="midnightblue" d="M467.344,-158.902C473.803,-155.951 480.188,-152.643 486,-149 504.39,-137.471 503.019,-126.529 522,-116 525.935,-113.817 530.126,-111.859 534.431,-110.104"/>
<polygon fill="midnightblue" stroke="midnightblue" points="535.812,-113.325 543.981,-106.579 533.388,-106.758 535.812,-113.325"/>
</g>
<!-- Node14 -->
<g id="node14" class="node"><title>Node14</title>
<g id="a_node14"><a xlink:href="../../da/d92/class_image_test.html#a4cf585eeef3f72a8721af5c1c3daa781" target="_top" xlink:title="ImageTest::GetSummary">
<polygon fill="white" stroke="black" points="522,-45.5 522,-66.5 668,-66.5 668,-45.5 522,-45.5"/>
<text text-anchor="middle" x="595" y="-52.9" font-family="Helvetica,sans-Serif" font-size="12.00">ImageTest::GetSummary</text>
</a>
</g>
</g>
<!-- Node9&#45;&gt;Node14 -->
<g id="edge13" class="edge"><title>Node9&#45;&gt;Node14</title>
<path fill="none" stroke="midnightblue" d="M472.214,-158.917C477.189,-156.075 481.893,-152.79 486,-149 512.584,-124.466 494.141,-99.0769 522,-76 524.011,-74.3345 526.15,-72.8072 528.386,-71.4068"/>
<polygon fill="midnightblue" stroke="midnightblue" points="530.227,-74.3919 537.416,-66.6096 526.943,-68.21 530.227,-74.3919"/>
</g>
</g>
</svg>
