<?xml version="1.0" encoding="UTF-8" standalone="no"?>
<!DOCTYPE svg PUBLIC "-//W3C//DTD SVG 1.1//EN"
 "http://www.w3.org/Graphics/SVG/1.1/DTD/svg11.dtd">
<!-- Generated by graphviz version 2.34.0 (20130907.0111)
 -->
<!-- Title: COperatorConsoleApp::OnRunTest Pages: 1 -->
<svg width="480pt" height="124pt"
 viewBox="0.00 0.00 480.00 124.00" xmlns="http://www.w3.org/2000/svg" xmlns:xlink="http://www.w3.org/1999/xlink">
<g id="graph0" class="graph" transform="scale(1 1) rotate(0) translate(4 120)">
<title>COperatorConsoleApp::OnRunTest</title>
<polygon fill="white" stroke="white" points="-4,4 -4,-120 476,-120 476,4 -4,4"/>
<!-- Node1 -->
<g id="node1" class="node"><title>Node1</title>
<polygon fill="#bfbfbf" stroke="black" points="0.5,-41 0.5,-75 137.5,-75 137.5,-41 0.5,-41"/>
<text text-anchor="start" x="8.5" y="-61.4" font-family="Helvetica,sans-Serif" font-size="12.00">COperatorConsoleApp</text>
<text text-anchor="middle" x="69" y="-48.4" font-family="Helvetica,sans-Serif" font-size="12.00">::OnRunTest</text>
</g>
<!-- Node2 -->
<g id="node2" class="node"><title>Node2</title>
<g id="a_node2"><a xlink:href="../../d8/d29/class_image_acquisition.html#a1f434970b49d88473a1b943acd6ef48e" target="_top" xlink:title="ImageAcquisition::GetFrame">
<polygon fill="white" stroke="black" points="174,-94.5 174,-115.5 340,-115.5 340,-94.5 174,-94.5"/>
<text text-anchor="middle" x="257" y="-101.9" font-family="Helvetica,sans-Serif" font-size="12.00">ImageAcquisition::GetFrame</text>
</a>
</g>
</g>
<!-- Node1&#45;&gt;Node2 -->
<g id="edge1" class="edge"><title>Node1&#45;&gt;Node2</title>
<path fill="none" stroke="midnightblue" d="M137.413,-75.0345C159.481,-80.6109 183.634,-86.7139 204.349,-91.9485"/>
<polygon fill="midnightblue" stroke="midnightblue" points="203.666,-95.3857 214.219,-94.4423 205.381,-88.599 203.666,-95.3857"/>
</g>
<!-- Node4 -->
<g id="node4" class="node"><title>Node4</title>
<g id="a_node4"><a xlink:href="../../d3/d9f/class_c_operator_console_app.html#a096ea47eb802813fb32bb9432ee0e7bc" target="_top" xlink:title="COperatorConsoleApp\l::GetTestName">
<polygon fill="white" stroke="black" points="188.5,-41 188.5,-75 325.5,-75 325.5,-41 188.5,-41"/>
<text text-anchor="start" x="196.5" y="-61.4" font-family="Helvetica,sans-Serif" font-size="12.00">COperatorConsoleApp</text>
<text text-anchor="middle" x="257" y="-48.4" font-family="Helvetica,sans-Serif" font-size="12.00">::GetTestName</text>
</a>
</g>
</g>
<!-- Node1&#45;&gt;Node4 -->
<g id="edge3" class="edge"><title>Node1&#45;&gt;Node4</title>
<path fill="none" stroke="midnightblue" d="M137.676,-58C150.837,-58 164.73,-58 178.188,-58"/>
<polygon fill="midnightblue" stroke="midnightblue" points="178.374,-61.5001 188.374,-58 178.374,-54.5001 178.374,-61.5001"/>
</g>
<!-- Node5 -->
<g id="node5" class="node"><title>Node5</title>
<g id="a_node5"><a xlink:href="../../d7/da0/class_thread_control.html#ae7875d6cedc96ca7688012ece3f8fe6b" target="_top" xlink:title="ThreadControl::Run">
<polygon fill="white" stroke="black" points="198.5,-0.5 198.5,-21.5 315.5,-21.5 315.5,-0.5 198.5,-0.5"/>
<text text-anchor="middle" x="257" y="-7.9" font-family="Helvetica,sans-Serif" font-size="12.00">ThreadControl::Run</text>
</a>
</g>
</g>
<!-- Node1&#45;&gt;Node5 -->
<g id="edge4" class="edge"><title>Node1&#45;&gt;Node5</title>
<path fill="none" stroke="midnightblue" d="M137.413,-40.9655C159.481,-35.3891 183.634,-29.2861 204.349,-24.0515"/>
<polygon fill="midnightblue" stroke="midnightblue" points="205.381,-27.401 214.219,-21.5577 203.666,-20.6143 205.381,-27.401"/>
</g>
<!-- Node3 -->
<g id="node3" class="node"><title>Node3</title>
<g id="a_node3"><a xlink:href="../../d3/d1e/class_critical_buf.html#aa1d37c59b94e873cd14f9aece1cfaebd" target="_top" xlink:title="CriticalBuf::Get">
<polygon fill="white" stroke="black" points="376.5,-94.5 376.5,-115.5 471.5,-115.5 471.5,-94.5 376.5,-94.5"/>
<text text-anchor="middle" x="424" y="-101.9" font-family="Helvetica,sans-Serif" font-size="12.00">CriticalBuf::Get</text>
</a>
</g>
</g>
<!-- Node2&#45;&gt;Node3 -->
<g id="edge2" class="edge"><title>Node2&#45;&gt;Node3</title>
<path fill="none" stroke="midnightblue" d="M340.017,-105C348.872,-105 357.734,-105 366.196,-105"/>
<polygon fill="midnightblue" stroke="midnightblue" points="366.292,-108.5 376.292,-105 366.291,-101.5 366.292,-108.5"/>
</g>
</g>
</svg>
