<?xml version="1.0" encoding="UTF-8" standalone="no"?>
<!DOCTYPE svg PUBLIC "-//W3C//DTD SVG 1.1//EN"
 "http://www.w3.org/Graphics/SVG/1.1/DTD/svg11.dtd">
<!-- Generated by graphviz version 2.34.0 (20130907.0111)
 -->
<!-- Title: COperatorConsoleApp::InitBlemishThread Pages: 1 -->
<svg width="900pt" height="490pt"
 viewBox="0.00 0.00 900.00 490.00" xmlns="http://www.w3.org/2000/svg" xmlns:xlink="http://www.w3.org/1999/xlink">
<g id="graph0" class="graph" transform="scale(1 1) rotate(0) translate(4 486)">
<title>COperatorConsoleApp::InitBlemishThread</title>
<polygon fill="white" stroke="white" points="-4,4 -4,-486 896,-486 896,4 -4,4"/>
<!-- Node1 -->
<g id="node1" class="node"><title>Node1</title>
<polygon fill="#bfbfbf" stroke="black" points="0.5,-374 0.5,-408 137.5,-408 137.5,-374 0.5,-374"/>
<text text-anchor="start" x="8.5" y="-394.4" font-family="Helvetica,sans-Serif" font-size="12.00">COperatorConsoleApp</text>
<text text-anchor="middle" x="69" y="-381.4" font-family="Helvetica,sans-Serif" font-size="12.00">::InitBlemishThread</text>
</g>
<!-- Node2 -->
<g id="node2" class="node"><title>Node2</title>
<g id="a_node2"><a xlink:href="../../d8/d29/class_image_acquisition.html#a0964521623ef639396b854aceebbcbef" target="_top" xlink:title="ImageAcquisition::GetHeight">
<polygon fill="white" stroke="black" points="174.5,-460.5 174.5,-481.5 339.5,-481.5 339.5,-460.5 174.5,-460.5"/>
<text text-anchor="middle" x="257" y="-467.9" font-family="Helvetica,sans-Serif" font-size="12.00">ImageAcquisition::GetHeight</text>
</a>
</g>
</g>
<!-- Node1&#45;&gt;Node2 -->
<g id="edge1" class="edge"><title>Node1&#45;&gt;Node2</title>
<path fill="none" stroke="midnightblue" d="M95.0383,-408.168C115.488,-421.507 145.558,-439.599 174,-451 180.214,-453.491 186.822,-455.73 193.485,-457.727"/>
<polygon fill="midnightblue" stroke="midnightblue" points="192.673,-461.135 203.247,-460.482 194.574,-454.398 192.673,-461.135"/>
</g>
<!-- Node3 -->
<g id="node3" class="node"><title>Node3</title>
<g id="a_node3"><a xlink:href="../../d8/d29/class_image_acquisition.html#a589eb2272d57ee982b6970667b034a0d" target="_top" xlink:title="ImageAcquisition::GetWidth">
<polygon fill="white" stroke="black" points="176.5,-420.5 176.5,-441.5 337.5,-441.5 337.5,-420.5 176.5,-420.5"/>
<text text-anchor="middle" x="257" y="-427.9" font-family="Helvetica,sans-Serif" font-size="12.00">ImageAcquisition::GetWidth</text>
</a>
</g>
</g>
<!-- Node1&#45;&gt;Node3 -->
<g id="edge2" class="edge"><title>Node1&#45;&gt;Node3</title>
<path fill="none" stroke="midnightblue" d="M137.676,-405.554C157.135,-409.739 178.194,-414.268 197.078,-418.329"/>
<polygon fill="midnightblue" stroke="midnightblue" points="196.515,-421.787 207.027,-420.468 197.987,-414.944 196.515,-421.787"/>
</g>
<!-- Node4 -->
<g id="node4" class="node"><title>Node4</title>
<g id="a_node4"><a xlink:href="../../d7/da0/class_thread_control.html#a5054f2ad6297cc65b4cb9146437f48b0" target="_top" xlink:title="ThreadControl::Init">
<polygon fill="white" stroke="black" points="201.5,-380.5 201.5,-401.5 312.5,-401.5 312.5,-380.5 201.5,-380.5"/>
<text text-anchor="middle" x="257" y="-387.9" font-family="Helvetica,sans-Serif" font-size="12.00">ThreadControl::Init</text>
</a>
</g>
</g>
<!-- Node1&#45;&gt;Node4 -->
<g id="edge3" class="edge"><title>Node1&#45;&gt;Node4</title>
<path fill="none" stroke="midnightblue" d="M137.676,-391C155.216,-391 174.056,-391 191.432,-391"/>
<polygon fill="midnightblue" stroke="midnightblue" points="191.472,-394.5 201.472,-391 191.472,-387.5 191.472,-394.5"/>
</g>
<!-- Node6 -->
<g id="node6" class="node"><title>Node6</title>
<g id="a_node6"><a xlink:href="../../da/d92/class_image_test.html#ab97f2724bc4060b68dd623c2ff8bbb8d" target="_top" xlink:title="ImageTest::Init">
<polygon fill="white" stroke="black" points="211,-340.5 211,-361.5 303,-361.5 303,-340.5 211,-340.5"/>
<text text-anchor="middle" x="257" y="-347.9" font-family="Helvetica,sans-Serif" font-size="12.00">ImageTest::Init</text>
</a>
</g>
</g>
<!-- Node1&#45;&gt;Node6 -->
<g id="edge5" class="edge"><title>Node1&#45;&gt;Node6</title>
<path fill="none" stroke="midnightblue" d="M137.676,-376.446C158.469,-371.974 181.09,-367.11 200.932,-362.843"/>
<polygon fill="midnightblue" stroke="midnightblue" points="201.687,-366.26 210.728,-360.736 200.215,-359.417 201.687,-366.26"/>
</g>
<!-- Node9 -->
<g id="node9" class="node"><title>Node9</title>
<g id="a_node9"><a xlink:href="../../da/d92/class_image_test.html#a372478d09c06cd7ab3684840add6215e" target="_top" xlink:title="param must be a pointer to a ThreadControl object; param&#45;&gt;m_data must point to an ImageTest object ...">
<polygon fill="white" stroke="black" points="187.5,-200.5 187.5,-221.5 326.5,-221.5 326.5,-200.5 187.5,-200.5"/>
<text text-anchor="middle" x="257" y="-207.9" font-family="Helvetica,sans-Serif" font-size="12.00">ImageTest::ThreadProc</text>
</a>
</g>
</g>
<!-- Node1&#45;&gt;Node9 -->
<g id="edge8" class="edge"><title>Node1&#45;&gt;Node9</title>
<path fill="none" stroke="midnightblue" d="M87.8345,-373.741C123.169,-339.546 201.743,-263.506 237.563,-228.842"/>
<polygon fill="midnightblue" stroke="midnightblue" points="240.168,-231.192 244.92,-221.723 235.3,-226.162 240.168,-231.192"/>
</g>
<!-- Node5 -->
<g id="node5" class="node"><title>Node5</title>
<g id="a_node5"><a xlink:href="../../d7/da0/class_thread_control.html#ae2bdd5434d609141dda49566f81c9ce6" target="_top" xlink:title="ThreadControl::InitThread">
<polygon fill="white" stroke="black" points="376,-380.5 376,-401.5 524,-401.5 524,-380.5 376,-380.5"/>
<text text-anchor="middle" x="450" y="-387.9" font-family="Helvetica,sans-Serif" font-size="12.00">ThreadControl::InitThread</text>
</a>
</g>
</g>
<!-- Node4&#45;&gt;Node5 -->
<g id="edge4" class="edge"><title>Node4&#45;&gt;Node5</title>
<path fill="none" stroke="midnightblue" d="M312.733,-391C329.136,-391 347.513,-391 365.333,-391"/>
<polygon fill="midnightblue" stroke="midnightblue" points="365.741,-394.5 375.741,-391 365.741,-387.5 365.741,-394.5"/>
</g>
<!-- Node7 -->
<g id="node7" class="node"><title>Node7</title>
<g id="a_node7"><a xlink:href="../../da/d92/class_image_test.html#a19f4ba2329209f42293e735fe9797e7c" target="_top" xlink:title="ImageTest::AllocateRGB">
<polygon fill="white" stroke="black" points="377.5,-340.5 377.5,-361.5 522.5,-361.5 522.5,-340.5 377.5,-340.5"/>
<text text-anchor="middle" x="450" y="-347.9" font-family="Helvetica,sans-Serif" font-size="12.00">ImageTest::AllocateRGB</text>
</a>
</g>
</g>
<!-- Node6&#45;&gt;Node7 -->
<g id="edge6" class="edge"><title>Node6&#45;&gt;Node7</title>
<path fill="none" stroke="midnightblue" d="M303.264,-351C322.311,-351 345.084,-351 366.905,-351"/>
<polygon fill="midnightblue" stroke="midnightblue" points="367.182,-354.5 377.182,-351 367.182,-347.5 367.182,-354.5"/>
</g>
<!-- Node8 -->
<g id="node8" class="node"><title>Node8</title>
<g id="a_node8"><a xlink:href="../../da/d92/class_image_test.html#ad019b2cd49f147623a4f0ded3a927aee" target="_top" xlink:title="ImageTest::DeleteRGB">
<polygon fill="white" stroke="black" points="575.5,-400.5 575.5,-421.5 712.5,-421.5 712.5,-400.5 575.5,-400.5"/>
<text text-anchor="middle" x="644" y="-407.9" font-family="Helvetica,sans-Serif" font-size="12.00">ImageTest::DeleteRGB</text>
</a>
</g>
</g>
<!-- Node7&#45;&gt;Node8 -->
<g id="edge7" class="edge"><title>Node7&#45;&gt;Node8</title>
<path fill="none" stroke="midnightblue" d="M496.348,-361.606C505.632,-364.282 515.239,-367.427 524,-371 540.948,-377.912 542.947,-384.351 560,-391 566.309,-393.46 573.01,-395.679 579.762,-397.665"/>
<polygon fill="midnightblue" stroke="midnightblue" points="579.079,-401.107 589.651,-400.408 580.95,-394.362 579.079,-401.107"/>
</g>
<!-- Node10 -->
<g id="node10" class="node"><title>Node10</title>
<g id="a_node10"><a xlink:href="../../d8/d08/class_timer.html#a4e607b129b392c11adddd9641a320436" target="_top" xlink:title="Timer::Start">
<polygon fill="white" stroke="black" points="411.5,-240.5 411.5,-261.5 488.5,-261.5 488.5,-240.5 411.5,-240.5"/>
<text text-anchor="middle" x="450" y="-247.9" font-family="Helvetica,sans-Serif" font-size="12.00">Timer::Start</text>
</a>
</g>
</g>
<!-- Node9&#45;&gt;Node10 -->
<g id="edge9" class="edge"><title>Node9&#45;&gt;Node10</title>
<path fill="none" stroke="midnightblue" d="M308.183,-221.51C336.927,-227.529 372.801,-235.042 401.147,-240.978"/>
<polygon fill="midnightblue" stroke="midnightblue" points="400.717,-244.464 411.222,-243.088 402.152,-237.613 400.717,-244.464"/>
</g>
<!-- Node11 -->
<g id="node11" class="node"><title>Node11</title>
<g id="a_node11"><a xlink:href="../../da/d92/class_image_test.html#a7334d76c1cc6780f46626be5b9ff1adb" target="_top" xlink:title="Runs the test pointed to by m_imatestFunc. ">
<polygon fill="white" stroke="black" points="401,-200.5 401,-221.5 499,-221.5 499,-200.5 401,-200.5"/>
<text text-anchor="middle" x="450" y="-207.9" font-family="Helvetica,sans-Serif" font-size="12.00">ImageTest::Run</text>
</a>
</g>
</g>
<!-- Node9&#45;&gt;Node11 -->
<g id="edge10" class="edge"><title>Node9&#45;&gt;Node11</title>
<path fill="none" stroke="midnightblue" d="M326.686,-211C347.729,-211 370.662,-211 390.925,-211"/>
<polygon fill="midnightblue" stroke="midnightblue" points="390.944,-214.5 400.944,-211 390.944,-207.5 390.944,-214.5"/>
</g>
<!-- Node22 -->
<g id="node22" class="node"><title>Node22</title>
<g id="a_node22"><a xlink:href="../../d8/d08/class_timer.html#a6379e797f968aaee6ac3bb12dc6b81c5" target="_top" xlink:title="Timer::Stop">
<polygon fill="white" stroke="black" points="411.5,-160.5 411.5,-181.5 488.5,-181.5 488.5,-160.5 411.5,-160.5"/>
<text text-anchor="middle" x="450" y="-167.9" font-family="Helvetica,sans-Serif" font-size="12.00">Timer::Stop</text>
</a>
</g>
</g>
<!-- Node9&#45;&gt;Node22 -->
<g id="edge21" class="edge"><title>Node9&#45;&gt;Node22</title>
<path fill="none" stroke="midnightblue" d="M308.183,-200.49C336.927,-194.471 372.801,-186.958 401.147,-181.022"/>
<polygon fill="midnightblue" stroke="midnightblue" points="402.152,-184.387 411.222,-178.912 400.717,-177.536 402.152,-184.387"/>
</g>
<!-- Node24 -->
<g id="node24" class="node"><title>Node24</title>
<g id="a_node24"><a xlink:href="../../d8/d08/class_timer.html#a40773739b5fe60e836329bbbe6ed65ce" target="_top" xlink:title="gets the elapsed time in milliseconds ">
<polygon fill="white" stroke="black" points="414.5,-120.5 414.5,-141.5 485.5,-141.5 485.5,-120.5 414.5,-120.5"/>
<text text-anchor="middle" x="450" y="-127.9" font-family="Helvetica,sans-Serif" font-size="12.00">Timer::Get</text>
</a>
</g>
</g>
<!-- Node9&#45;&gt;Node24 -->
<g id="edge23" class="edge"><title>Node9&#45;&gt;Node24</title>
<path fill="none" stroke="midnightblue" d="M275.867,-200.464C298.537,-187.439 339.13,-165.254 376,-151 385.097,-147.483 395.055,-144.324 404.61,-141.612"/>
<polygon fill="midnightblue" stroke="midnightblue" points="405.642,-144.958 414.368,-138.95 403.8,-138.205 405.642,-144.958"/>
</g>
<!-- Node12 -->
<g id="node12" class="node"><title>Node12</title>
<g id="a_node12"><a xlink:href="../../da/d92/class_image_test.html#a3b66aa4095c338dd90f6e57e108f3038" target="_top" xlink:title="ImageTest::InitResults">
<polygon fill="white" stroke="black" points="579,-360.5 579,-381.5 709,-381.5 709,-360.5 579,-360.5"/>
<text text-anchor="middle" x="644" y="-367.9" font-family="Helvetica,sans-Serif" font-size="12.00">ImageTest::InitResults</text>
</a>
</g>
</g>
<!-- Node11&#45;&gt;Node12 -->
<g id="edge11" class="edge"><title>Node11&#45;&gt;Node12</title>
<path fill="none" stroke="midnightblue" d="M499.055,-216.776C508.251,-219.793 517.136,-224.299 524,-231 563.843,-269.897 519.559,-312.725 560,-351 562.944,-353.786 566.205,-356.205 569.684,-358.304"/>
<polygon fill="midnightblue" stroke="midnightblue" points="568.216,-361.484 578.718,-362.887 571.383,-355.241 568.216,-361.484"/>
</g>
<!-- Node14 -->
<g id="node14" class="node"><title>Node14</title>
<g id="a_node14"><a xlink:href="../../da/d92/class_image_test.html#acfb4336b719c918a612640d9d8c63834" target="_top" xlink:title="converts from m_rawPixels to m_rgb ">
<polygon fill="white" stroke="black" points="560.5,-320.5 560.5,-341.5 727.5,-341.5 727.5,-320.5 560.5,-320.5"/>
<text text-anchor="middle" x="644" y="-327.9" font-family="Helvetica,sans-Serif" font-size="12.00">ImageTest::PlanesFromRGB</text>
</a>
</g>
</g>
<!-- Node11&#45;&gt;Node14 -->
<g id="edge13" class="edge"><title>Node11&#45;&gt;Node14</title>
<path fill="none" stroke="midnightblue" d="M499.162,-217.736C508.138,-220.696 516.91,-224.935 524,-231 553.627,-256.346 529.984,-286.116 560,-311 561.997,-312.655 564.109,-314.178 566.31,-315.578"/>
<polygon fill="midnightblue" stroke="midnightblue" points="564.735,-318.705 575.194,-320.394 568.07,-312.551 564.735,-318.705"/>
</g>
<!-- Node15 -->
<g id="node15" class="node"><title>Node15</title>
<g id="a_node15"><a xlink:href="../../da/d92/class_image_test.html#ae9ca0a6007b17711f0159e61dbb62e39" target="_top" xlink:title="converts from m_rgb to rgb ">
<polygon fill="white" stroke="black" points="560.5,-280.5 560.5,-301.5 727.5,-301.5 727.5,-280.5 560.5,-280.5"/>
<text text-anchor="middle" x="644" y="-287.9" font-family="Helvetica,sans-Serif" font-size="12.00">ImageTest::RGBFromPlanes</text>
</a>
</g>
</g>
<!-- Node11&#45;&gt;Node15 -->
<g id="edge14" class="edge"><title>Node11&#45;&gt;Node15</title>
<path fill="none" stroke="midnightblue" d="M499.364,-220.049C507.935,-222.805 516.507,-226.378 524,-231 544.357,-243.556 539.452,-258.76 560,-271 563.582,-273.133 567.378,-275.039 571.299,-276.742"/>
<polygon fill="midnightblue" stroke="midnightblue" points="570.041,-280.008 580.63,-280.358 572.571,-273.481 570.041,-280.008"/>
</g>
<!-- Node16 -->
<g id="node16" class="node"><title>Node16</title>
<g id="a_node16"><a xlink:href="../../da/d92/class_image_test.html#a92af335f5f0e96e443b4a938a69d4800" target="_top" xlink:title="ImageTest::SaveImage">
<polygon fill="white" stroke="black" points="575.5,-240.5 575.5,-261.5 712.5,-261.5 712.5,-240.5 575.5,-240.5"/>
<text text-anchor="middle" x="644" y="-247.9" font-family="Helvetica,sans-Serif" font-size="12.00">ImageTest::SaveImage</text>
</a>
</g>
</g>
<!-- Node11&#45;&gt;Node16 -->
<g id="edge15" class="edge"><title>Node11&#45;&gt;Node16</title>
<path fill="none" stroke="midnightblue" d="M499.45,-221.094C524.667,-226.347 555.741,-232.821 582.522,-238.4"/>
<polygon fill="midnightblue" stroke="midnightblue" points="582.051,-241.877 592.554,-240.49 583.478,-235.024 582.051,-241.877"/>
</g>
<!-- Node17 -->
<g id="node17" class="node"><title>Node17</title>
<g id="a_node17"><a xlink:href="../../d0/d59/_documentation_2_operator-_console_2jsonhelpers_8cpp.html#aa7615c9874e29e598b0d0fd34967390d" target="_top" xlink:title="prepareTestSettings">
<polygon fill="white" stroke="black" points="582.5,-200.5 582.5,-221.5 705.5,-221.5 705.5,-200.5 582.5,-200.5"/>
<text text-anchor="middle" x="644" y="-207.9" font-family="Helvetica,sans-Serif" font-size="12.00">prepareTestSettings</text>
</a>
</g>
</g>
<!-- Node11&#45;&gt;Node17 -->
<g id="edge16" class="edge"><title>Node11&#45;&gt;Node17</title>
<path fill="none" stroke="midnightblue" d="M499.45,-211C521.418,-211 547.83,-211 571.977,-211"/>
<polygon fill="midnightblue" stroke="midnightblue" points="572.168,-214.5 582.168,-211 572.168,-207.5 572.168,-214.5"/>
</g>
<!-- Node18 -->
<g id="node18" class="node"><title>Node18</title>
<g id="a_node18"><a xlink:href="../../da/d92/class_image_test.html#ad03c43bf481a29e5f8cd143446be4ca1" target="_top" xlink:title="This must be implemented by subclass. ">
<polygon fill="white" stroke="black" points="570.5,-160.5 570.5,-181.5 717.5,-181.5 717.5,-160.5 570.5,-160.5"/>
<text text-anchor="middle" x="644" y="-167.9" font-family="Helvetica,sans-Serif" font-size="12.00">ImageTest::ParseResults</text>
</a>
</g>
</g>
<!-- Node11&#45;&gt;Node18 -->
<g id="edge17" class="edge"><title>Node11&#45;&gt;Node18</title>
<path fill="none" stroke="midnightblue" d="M499.45,-200.906C524.667,-195.653 555.741,-189.179 582.522,-183.6"/>
<polygon fill="midnightblue" stroke="midnightblue" points="583.478,-186.976 592.554,-181.51 582.051,-180.123 583.478,-186.976"/>
</g>
<!-- Node19 -->
<g id="node19" class="node"><title>Node19</title>
<g id="a_node19"><a xlink:href="../../da/d92/class_image_test.html#af4e55cf62f52fda3a5fc7b3c63dce083" target="_top" xlink:title="ImageTest::SetJSON">
<polygon fill="white" stroke="black" points="580.5,-120.5 580.5,-141.5 707.5,-141.5 707.5,-120.5 580.5,-120.5"/>
<text text-anchor="middle" x="644" y="-127.9" font-family="Helvetica,sans-Serif" font-size="12.00">ImageTest::SetJSON</text>
</a>
</g>
</g>
<!-- Node11&#45;&gt;Node19 -->
<g id="edge18" class="edge"><title>Node11&#45;&gt;Node19</title>
<path fill="none" stroke="midnightblue" d="M499.364,-201.951C507.935,-199.195 516.507,-195.622 524,-191 544.357,-178.444 539.452,-163.24 560,-151 563.582,-148.867 567.378,-146.961 571.299,-145.258"/>
<polygon fill="midnightblue" stroke="midnightblue" points="572.571,-148.519 580.63,-141.642 570.041,-141.992 572.571,-148.519"/>
</g>
<!-- Node20 -->
<g id="node20" class="node"><title>Node20</title>
<g id="a_node20"><a xlink:href="../../dd/d46/class_timestamp.html#ac1238e7ef53954ee90d6687601bc95e9" target="_top" xlink:title="Timestamp::Get">
<polygon fill="white" stroke="black" points="594,-80.5 594,-101.5 694,-101.5 694,-80.5 594,-80.5"/>
<text text-anchor="middle" x="644" y="-87.9" font-family="Helvetica,sans-Serif" font-size="12.00">Timestamp::Get</text>
</a>
</g>
</g>
<!-- Node11&#45;&gt;Node20 -->
<g id="edge19" class="edge"><title>Node11&#45;&gt;Node20</title>
<path fill="none" stroke="midnightblue" d="M499.162,-204.264C508.138,-201.304 516.91,-197.065 524,-191 553.627,-165.654 529.984,-135.884 560,-111 567.039,-105.164 575.505,-100.98 584.302,-97.9895"/>
<polygon fill="midnightblue" stroke="midnightblue" points="585.3,-101.344 593.925,-95.1918 583.345,-94.6227 585.3,-101.344"/>
</g>
<!-- Node21 -->
<g id="node21" class="node"><title>Node21</title>
<g id="a_node21"><a xlink:href="../../da/d92/class_image_test.html#a8e026cbe52c6fd5eb83eef7196c93ada" target="_top" xlink:title="ImageTest::AppendLog">
<polygon fill="white" stroke="black" points="574.5,-40.5 574.5,-61.5 713.5,-61.5 713.5,-40.5 574.5,-40.5"/>
<text text-anchor="middle" x="644" y="-47.9" font-family="Helvetica,sans-Serif" font-size="12.00">ImageTest::AppendLog</text>
</a>
</g>
</g>
<!-- Node11&#45;&gt;Node21 -->
<g id="edge20" class="edge"><title>Node11&#45;&gt;Node21</title>
<path fill="none" stroke="midnightblue" d="M499.055,-205.224C508.251,-202.207 517.136,-197.701 524,-191 563.843,-152.103 519.559,-109.275 560,-71 561.706,-69.3857 563.518,-67.8947 565.417,-66.5177"/>
<polygon fill="midnightblue" stroke="midnightblue" points="567.494,-69.352 574.242,-61.1836 563.873,-63.3614 567.494,-69.352"/>
</g>
<!-- Node13 -->
<g id="node13" class="node"><title>Node13</title>
<g id="a_node13"><a xlink:href="../../d6/d56/class_critical_c_string.html#afaf8265c286f1ee918bbd6d9cfd575ae" target="_top" xlink:title="CriticalCString::Clear">
<polygon fill="white" stroke="black" points="764,-360.5 764,-381.5 892,-381.5 892,-360.5 764,-360.5"/>
<text text-anchor="middle" x="828" y="-367.9" font-family="Helvetica,sans-Serif" font-size="12.00">CriticalCString::Clear</text>
</a>
</g>
</g>
<!-- Node12&#45;&gt;Node13 -->
<g id="edge12" class="edge"><title>Node12&#45;&gt;Node13</title>
<path fill="none" stroke="midnightblue" d="M709.166,-371C723.552,-371 738.92,-371 753.646,-371"/>
<polygon fill="midnightblue" stroke="midnightblue" points="753.719,-374.5 763.719,-371 753.719,-367.5 753.719,-374.5"/>
</g>
<!-- Node23 -->
<g id="node23" class="node"><title>Node23</title>
<g id="a_node23"><a xlink:href="../../d8/d08/class_timer.html#a0d8d7aab98c1c4b20e28aae017873294" target="_top" xlink:title="calculates elapsed time in milliseconds ">
<polygon fill="white" stroke="black" points="596,-0.5 596,-21.5 692,-21.5 692,-0.5 596,-0.5"/>
<text text-anchor="middle" x="644" y="-7.9" font-family="Helvetica,sans-Serif" font-size="12.00">Timer::Elapsed</text>
</a>
</g>
</g>
<!-- Node22&#45;&gt;Node23 -->
<g id="edge22" class="edge"><title>Node22&#45;&gt;Node23</title>
<path fill="none" stroke="midnightblue" d="M488.811,-167.997C501.401,-165.239 514.597,-160.179 524,-151 563.843,-112.103 519.559,-69.2753 560,-31 567.266,-24.1226 576.471,-19.4815 586.087,-16.3756"/>
<polygon fill="midnightblue" stroke="midnightblue" points="587.043,-19.7429 595.784,-13.7554 585.217,-12.9853 587.043,-19.7429"/>
</g>
</g>
</svg>
