<?xml version="1.0" encoding="UTF-8" standalone="no"?>
<!DOCTYPE svg PUBLIC "-//W3C//DTD SVG 1.1//EN"
 "http://www.w3.org/Graphics/SVG/1.1/DTD/svg11.dtd">
<!-- Generated by graphviz version 2.34.0 (20130907.0111)
 -->
<!-- Title: COperatorConsoleApp::OnPassFail Pages: 1 -->
<svg width="566pt" height="210pt"
 viewBox="0.00 0.00 566.00 210.00" xmlns="http://www.w3.org/2000/svg" xmlns:xlink="http://www.w3.org/1999/xlink">
<g id="graph0" class="graph" transform="scale(1 1) rotate(0) translate(4 206)">
<title>COperatorConsoleApp::OnPassFail</title>
<polygon fill="white" stroke="white" points="-4,4 -4,-206 562,-206 562,4 -4,4"/>
<!-- Node1 -->
<g id="node1" class="node"><title>Node1</title>
<polygon fill="#bfbfbf" stroke="black" points="0.5,-127 0.5,-161 137.5,-161 137.5,-127 0.5,-127"/>
<text text-anchor="start" x="8.5" y="-147.4" font-family="Helvetica,sans-Serif" font-size="12.00">COperatorConsoleApp</text>
<text text-anchor="middle" x="69" y="-134.4" font-family="Helvetica,sans-Serif" font-size="12.00">::OnPassFail</text>
</g>
<!-- Node2 -->
<g id="node2" class="node"><title>Node2</title>
<g id="a_node2"><a xlink:href="../../d9/d42/class_c_password_dialog.html#aed436663c4f70f1e3ae7c4756f93c5d0" target="_top" xlink:title="returns what the user entered as the password ">
<polygon fill="white" stroke="black" points="174,-180.5 174,-201.5 362,-201.5 362,-180.5 174,-180.5"/>
<text text-anchor="middle" x="268" y="-187.9" font-family="Helvetica,sans-Serif" font-size="12.00">CPasswordDialog::getResponse</text>
</a>
</g>
</g>
<!-- Node1&#45;&gt;Node2 -->
<g id="edge1" class="edge"><title>Node1&#45;&gt;Node2</title>
<path fill="none" stroke="midnightblue" d="M137.079,-161.009C149.349,-164.052 162.05,-167.157 174,-170 185.334,-172.696 197.465,-175.497 209.099,-178.141"/>
<polygon fill="midnightblue" stroke="midnightblue" points="208.636,-181.625 219.162,-180.418 210.181,-174.797 208.636,-181.625"/>
</g>
<!-- Node3 -->
<g id="node3" class="node"><title>Node3</title>
<g id="a_node3"><a xlink:href="../../d9/d42/class_c_password_dialog.html#af2dd33a1cd1adc377a4b1ab3844c4c49" target="_top" xlink:title="returns whether the user decided to unlock access to pass/fail settings until the program closes ...">
<polygon fill="white" stroke="black" points="183,-127 183,-161 353,-161 353,-127 183,-127"/>
<text text-anchor="start" x="191" y="-147.4" font-family="Helvetica,sans-Serif" font-size="12.00">CPasswordDialog::getUnlock</text>
<text text-anchor="middle" x="268" y="-134.4" font-family="Helvetica,sans-Serif" font-size="12.00">Status</text>
</a>
</g>
</g>
<!-- Node1&#45;&gt;Node3 -->
<g id="edge2" class="edge"><title>Node1&#45;&gt;Node3</title>
<path fill="none" stroke="midnightblue" d="M137.521,-144C148.806,-144 160.695,-144 172.507,-144"/>
<polygon fill="midnightblue" stroke="midnightblue" points="172.851,-147.5 182.851,-144 172.851,-140.5 172.851,-147.5"/>
</g>
<!-- Node4 -->
<g id="node4" class="node"><title>Node4</title>
<g id="a_node4"><a xlink:href="../../d3/d9f/class_c_operator_console_app.html#aab4583fb7e725968ea95224ef0c773e7" target="_top" xlink:title="This function writes the pass/fail variables to the pass/fail file listed in the imatest INI file...">
<polygon fill="white" stroke="black" points="199.5,-74 199.5,-108 336.5,-108 336.5,-74 199.5,-74"/>
<text text-anchor="start" x="207.5" y="-94.4" font-family="Helvetica,sans-Serif" font-size="12.00">COperatorConsoleApp</text>
<text text-anchor="middle" x="268" y="-81.4" font-family="Helvetica,sans-Serif" font-size="12.00">::WritePassFail</text>
</a>
</g>
</g>
<!-- Node1&#45;&gt;Node4 -->
<g id="edge3" class="edge"><title>Node1&#45;&gt;Node4</title>
<path fill="none" stroke="midnightblue" d="M133.416,-126.939C152.661,-121.761 173.961,-116.031 193.793,-110.695"/>
<polygon fill="midnightblue" stroke="midnightblue" points="194.955,-114.007 203.702,-108.029 193.136,-107.248 194.955,-114.007"/>
</g>
<!-- Node5 -->
<g id="node5" class="node"><title>Node5</title>
<g id="a_node5"><a xlink:href="../../db/db5/_documentation_2_operator-_console_2_operator_console_8cpp.html#a11ecb189cc593bc1e924280e66d85a77" target="_top" xlink:title="Conditionally adds a particular key (variable name) and value to the std::vector&lt;std::string&gt; keys...">
<polygon fill="white" stroke="black" points="418,-160.5 418,-181.5 538,-181.5 538,-160.5 418,-160.5"/>
<text text-anchor="middle" x="478" y="-167.9" font-family="Helvetica,sans-Serif" font-size="12.00">addKeysAndValues</text>
</a>
</g>
</g>
<!-- Node4&#45;&gt;Node5 -->
<g id="edge4" class="edge"><title>Node4&#45;&gt;Node5</title>
<path fill="none" stroke="midnightblue" d="M336.551,-106.591C345.374,-109.776 354.087,-113.55 362,-118 380.919,-128.639 378.9,-140.69 398,-151 402.214,-153.274 406.694,-155.297 411.296,-157.094"/>
<polygon fill="midnightblue" stroke="midnightblue" points="410.275,-160.446 420.87,-160.477 412.607,-153.845 410.275,-160.446"/>
</g>
<!-- Node6 -->
<g id="node6" class="node"><title>Node6</title>
<g id="a_node6"><a xlink:href="../../db/db5/_documentation_2_operator-_console_2_operator_console_8cpp.html#ad10a2b1599ac382806e6218f4ccd07c1" target="_top" xlink:title="Converts the vecEntry&lt;CString&gt;.value into a single std::string to facilitate writing to the pass/fail...">
<polygon fill="white" stroke="black" points="408,-120.5 408,-141.5 548,-141.5 548,-120.5 408,-120.5"/>
<text text-anchor="middle" x="478" y="-127.9" font-family="Helvetica,sans-Serif" font-size="12.00">writeVecEntValueString</text>
</a>
</g>
</g>
<!-- Node4&#45;&gt;Node6 -->
<g id="edge5" class="edge"><title>Node4&#45;&gt;Node6</title>
<path fill="none" stroke="midnightblue" d="M336.532,-103.987C360.82,-108.658 388.146,-113.913 412.196,-118.538"/>
<polygon fill="midnightblue" stroke="midnightblue" points="411.804,-122.026 422.285,-120.478 413.126,-115.152 411.804,-122.026"/>
</g>
<!-- Node7 -->
<g id="node7" class="node"><title>Node7</title>
<g id="a_node7"><a xlink:href="../../db/db5/_documentation_2_operator-_console_2_operator_console_8cpp.html#a6bde8a4b872c50e28d3bd8910865951d" target="_top" xlink:title="Converts the entry&lt;T&gt;.value into a std::string to facilitate writing to the pass/fail file...">
<polygon fill="white" stroke="black" points="418.5,-80.5 418.5,-101.5 537.5,-101.5 537.5,-80.5 418.5,-80.5"/>
<text text-anchor="middle" x="478" y="-87.9" font-family="Helvetica,sans-Serif" font-size="12.00">writeEntValueString</text>
</a>
</g>
</g>
<!-- Node4&#45;&gt;Node7 -->
<g id="edge6" class="edge"><title>Node4&#45;&gt;Node7</title>
<path fill="none" stroke="midnightblue" d="M336.532,-91C359.471,-91 385.121,-91 408.161,-91"/>
<polygon fill="midnightblue" stroke="midnightblue" points="408.201,-94.5001 418.201,-91 408.201,-87.5001 408.201,-94.5001"/>
</g>
<!-- Node8 -->
<g id="node8" class="node"><title>Node8</title>
<g id="a_node8"><a xlink:href="../../d6/d56/imatest__library_8cpp.html#ab3b0d3cdae6c078ef623ac257ead5cef" target="_top" xlink:title="inifile">
<polygon fill="white" stroke="black" points="456,-40.5 456,-61.5 500,-61.5 500,-40.5 456,-40.5"/>
<text text-anchor="middle" x="478" y="-47.9" font-family="Helvetica,sans-Serif" font-size="12.00">inifile</text>
</a>
</g>
</g>
<!-- Node4&#45;&gt;Node8 -->
<g id="edge7" class="edge"><title>Node4&#45;&gt;Node8</title>
<path fill="none" stroke="midnightblue" d="M336.532,-78.0131C373.297,-70.9429 417.025,-62.5337 445.813,-56.9975"/>
<polygon fill="midnightblue" stroke="midnightblue" points="446.544,-60.4212 455.703,-55.0956 445.222,-53.5472 446.544,-60.4212"/>
</g>
<!-- Node9 -->
<g id="node9" class="node"><title>Node9</title>
<g id="a_node9"><a xlink:href="../../db/db5/_documentation_2_operator-_console_2_operator_console_8cpp.html#aac809da01c6c75d04fe012a93ebfec3a" target="_top" xlink:title="Converts the minMaxEntry&lt;CString&gt;.min_val and .max_val into a std::string to facilitate writing to th...">
<polygon fill="white" stroke="black" points="398,-0.5 398,-21.5 558,-21.5 558,-0.5 398,-0.5"/>
<text text-anchor="middle" x="478" y="-7.9" font-family="Helvetica,sans-Serif" font-size="12.00">writeMinMaxEntValueString</text>
</a>
</g>
</g>
<!-- Node4&#45;&gt;Node9 -->
<g id="edge8" class="edge"><title>Node4&#45;&gt;Node9</title>
<path fill="none" stroke="midnightblue" d="M301.164,-73.9787C326.843,-60.8986 364.023,-43.0823 398,-31 404.873,-28.5558 412.183,-26.2849 419.474,-24.2165"/>
<polygon fill="midnightblue" stroke="midnightblue" points="420.633,-27.5285 429.362,-21.5244 418.794,-20.7743 420.633,-27.5285"/>
</g>
</g>
</svg>
