<?xml version="1.0" encoding="UTF-8" standalone="no"?>
<!DOCTYPE svg PUBLIC "-//W3C//DTD SVG 1.1//EN"
 "http://www.w3.org/Graphics/SVG/1.1/DTD/svg11.dtd">
<!-- Generated by graphviz version 2.34.0 (20130907.0111)
 -->
<!-- Title: COperatorConsoleApp::WritePassFail Pages: 1 -->
<svg width="342pt" height="150pt"
 viewBox="0.00 0.00 342.00 150.00" xmlns="http://www.w3.org/2000/svg" xmlns:xlink="http://www.w3.org/1999/xlink">
<g id="graph0" class="graph" transform="scale(1 1) rotate(0) translate(4 146)">
<title>COperatorConsoleApp::WritePassFail</title>
<polygon fill="white" stroke="white" points="-4,4 -4,-146 338,-146 338,4 -4,4"/>
<!-- Node1 -->
<g id="node1" class="node"><title>Node1</title>
<polygon fill="#bfbfbf" stroke="black" points="0.5,-54 0.5,-88 137.5,-88 137.5,-54 0.5,-54"/>
<text text-anchor="start" x="8.5" y="-74.4" font-family="Helvetica,sans-Serif" font-size="12.00">COperatorConsoleApp</text>
<text text-anchor="middle" x="69" y="-61.4" font-family="Helvetica,sans-Serif" font-size="12.00">::WritePassFail</text>
</g>
<!-- Node2 -->
<g id="node2" class="node"><title>Node2</title>
<g id="a_node2"><a xlink:href="../../db/db5/_documentation_2_operator-_console_2_operator_console_8cpp.html#a11ecb189cc593bc1e924280e66d85a77" target="_top" xlink:title="Conditionally adds a particular key (variable name) and value to the std::vector&lt;std::string&gt; keys...">
<polygon fill="white" stroke="black" points="194,-120.5 194,-141.5 314,-141.5 314,-120.5 194,-120.5"/>
<text text-anchor="middle" x="254" y="-127.9" font-family="Helvetica,sans-Serif" font-size="12.00">addKeysAndValues</text>
</a>
</g>
</g>
<!-- Node1&#45;&gt;Node2 -->
<g id="edge1" class="edge"><title>Node1&#45;&gt;Node2</title>
<path fill="none" stroke="midnightblue" d="M111.097,-88.1056C130.059,-95.6613 152.982,-104.324 174,-111 181.669,-113.436 189.83,-115.777 197.885,-117.944"/>
<polygon fill="midnightblue" stroke="midnightblue" points="197.058,-121.346 207.619,-120.497 198.834,-114.575 197.058,-121.346"/>
</g>
<!-- Node3 -->
<g id="node3" class="node"><title>Node3</title>
<g id="a_node3"><a xlink:href="../../db/db5/_documentation_2_operator-_console_2_operator_console_8cpp.html#a6bde8a4b872c50e28d3bd8910865951d" target="_top" xlink:title="Converts the entry&lt;T&gt;.value into a std::string to facilitate writing to the pass/fail file...">
<polygon fill="white" stroke="black" points="194.5,-80.5 194.5,-101.5 313.5,-101.5 313.5,-80.5 194.5,-80.5"/>
<text text-anchor="middle" x="254" y="-87.9" font-family="Helvetica,sans-Serif" font-size="12.00">writeEntValueString</text>
</a>
</g>
</g>
<!-- Node1&#45;&gt;Node3 -->
<g id="edge2" class="edge"><title>Node1&#45;&gt;Node3</title>
<path fill="none" stroke="midnightblue" d="M137.623,-78.3904C152.761,-80.045 168.838,-81.8019 184.03,-83.4623"/>
<polygon fill="midnightblue" stroke="midnightblue" points="184.064,-86.9867 194.385,-84.594 184.824,-80.0282 184.064,-86.9867"/>
</g>
<!-- Node4 -->
<g id="node4" class="node"><title>Node4</title>
<g id="a_node4"><a xlink:href="../../db/db5/_documentation_2_operator-_console_2_operator_console_8cpp.html#aac809da01c6c75d04fe012a93ebfec3a" target="_top" xlink:title="Converts the minMaxEntry&lt;CString&gt;.min_val and .max_val into a std::string to facilitate writing to th...">
<polygon fill="white" stroke="black" points="174,-40.5 174,-61.5 334,-61.5 334,-40.5 174,-40.5"/>
<text text-anchor="middle" x="254" y="-47.9" font-family="Helvetica,sans-Serif" font-size="12.00">writeMinMaxEntValueString</text>
</a>
</g>
</g>
<!-- Node1&#45;&gt;Node4 -->
<g id="edge3" class="edge"><title>Node1&#45;&gt;Node4</title>
<path fill="none" stroke="midnightblue" d="M137.623,-63.6096C146.204,-62.6717 155.086,-61.701 163.938,-60.7335"/>
<polygon fill="midnightblue" stroke="midnightblue" points="164.341,-64.2104 173.902,-59.6446 163.581,-57.2519 164.341,-64.2104"/>
</g>
<!-- Node5 -->
<g id="node5" class="node"><title>Node5</title>
<g id="a_node5"><a xlink:href="../../db/db5/_documentation_2_operator-_console_2_operator_console_8cpp.html#ad10a2b1599ac382806e6218f4ccd07c1" target="_top" xlink:title="Converts the vecEntry&lt;CString&gt;.value into a single std::string to facilitate writing to the pass/fail...">
<polygon fill="white" stroke="black" points="184,-0.5 184,-21.5 324,-21.5 324,-0.5 184,-0.5"/>
<text text-anchor="middle" x="254" y="-7.9" font-family="Helvetica,sans-Serif" font-size="12.00">writeVecEntValueString</text>
</a>
</g>
</g>
<!-- Node1&#45;&gt;Node5 -->
<g id="edge4" class="edge"><title>Node1&#45;&gt;Node5</title>
<path fill="none" stroke="midnightblue" d="M111.097,-53.8944C130.059,-46.3387 152.982,-37.6764 174,-31 181.669,-28.564 189.83,-26.2232 197.885,-24.0556"/>
<polygon fill="midnightblue" stroke="midnightblue" points="198.834,-27.4252 207.619,-21.5027 197.058,-20.6542 198.834,-27.4252"/>
</g>
</g>
</svg>
