<?xml version="1.0" encoding="UTF-8" standalone="no"?>
<!DOCTYPE svg PUBLIC "-//W3C//DTD SVG 1.1//EN"
 "http://www.w3.org/Graphics/SVG/1.1/DTD/svg11.dtd">
<!-- Generated by graphviz version 2.34.0 (20130907.0111)
 -->
<!-- Title: COperatorConsoleApp::InitBlemishAcq Pages: 1 -->
<svg width="602pt" height="70pt"
 viewBox="0.00 0.00 602.00 70.00" xmlns="http://www.w3.org/2000/svg" xmlns:xlink="http://www.w3.org/1999/xlink">
<g id="graph0" class="graph" transform="scale(1 1) rotate(0) translate(4 66)">
<title>COperatorConsoleApp::InitBlemishAcq</title>
<polygon fill="white" stroke="white" points="-4,4 -4,-66 598,-66 598,4 -4,4"/>
<!-- Node1 -->
<g id="node1" class="node"><title>Node1</title>
<polygon fill="#bfbfbf" stroke="black" points="0.5,-14 0.5,-48 137.5,-48 137.5,-14 0.5,-14"/>
<text text-anchor="start" x="8.5" y="-34.4" font-family="Helvetica,sans-Serif" font-size="12.00">COperatorConsoleApp</text>
<text text-anchor="middle" x="69" y="-21.4" font-family="Helvetica,sans-Serif" font-size="12.00">::InitBlemishAcq</text>
</g>
<!-- Node2 -->
<g id="node2" class="node"><title>Node2</title>
<g id="a_node2"><a xlink:href="../../db/def/class_file_acquisition.html#a797827242308ce8dba037e6c36ca4b30" target="_top" xlink:title="Initializes the buffers inherited from class ImageAcquisition with 2 bytes per pixel. ">
<polygon fill="white" stroke="black" points="181,-40.5 181,-61.5 295,-61.5 295,-40.5 181,-40.5"/>
<text text-anchor="middle" x="238" y="-47.9" font-family="Helvetica,sans-Serif" font-size="12.00">FileAcquisition::Init</text>
</a>
</g>
</g>
<!-- Node1&#45;&gt;Node2 -->
<g id="edge1" class="edge"><title>Node1&#45;&gt;Node2</title>
<path fill="none" stroke="midnightblue" d="M137.925,-39.1348C148.738,-40.4297 159.911,-41.7678 170.686,-43.0582"/>
<polygon fill="midnightblue" stroke="midnightblue" points="170.523,-46.5637 180.869,-44.2777 171.356,-39.6133 170.523,-46.5637"/>
</g>
<!-- Node5 -->
<g id="node5" class="node"><title>Node5</title>
<g id="a_node5"><a xlink:href="../../db/def/class_file_acquisition.html#af5cffdb393fa3c0dffb9efd4af5fcc68" target="_top" xlink:title="FileAcquisition::Open">
<polygon fill="white" stroke="black" points="174,-0.5 174,-21.5 302,-21.5 302,-0.5 174,-0.5"/>
<text text-anchor="middle" x="238" y="-7.9" font-family="Helvetica,sans-Serif" font-size="12.00">FileAcquisition::Open</text>
</a>
</g>
</g>
<!-- Node1&#45;&gt;Node5 -->
<g id="edge4" class="edge"><title>Node1&#45;&gt;Node5</title>
<path fill="none" stroke="midnightblue" d="M137.925,-22.8652C146.493,-21.8392 155.287,-20.786 163.93,-19.7509"/>
<polygon fill="midnightblue" stroke="midnightblue" points="164.471,-23.2113 173.983,-18.5469 163.638,-16.2609 164.471,-23.2113"/>
</g>
<!-- Node3 -->
<g id="node3" class="node"><title>Node3</title>
<g id="a_node3"><a xlink:href="../../d8/d29/class_image_acquisition.html#a09e47283e2ae3e6c352b8842bde2332a" target="_top" xlink:title="may be overridden, but be sure to call parent function also ">
<polygon fill="white" stroke="black" points="338.5,-40.5 338.5,-61.5 465.5,-61.5 465.5,-40.5 338.5,-40.5"/>
<text text-anchor="middle" x="402" y="-47.9" font-family="Helvetica,sans-Serif" font-size="12.00">ImageAcquisition::Init</text>
</a>
</g>
</g>
<!-- Node2&#45;&gt;Node3 -->
<g id="edge2" class="edge"><title>Node2&#45;&gt;Node3</title>
<path fill="none" stroke="midnightblue" d="M295.205,-51C305.84,-51 317.106,-51 328.167,-51"/>
<polygon fill="midnightblue" stroke="midnightblue" points="328.243,-54.5001 338.243,-51 328.243,-47.5001 328.243,-54.5001"/>
</g>
<!-- Node4 -->
<g id="node4" class="node"><title>Node4</title>
<g id="a_node4"><a xlink:href="../../d3/d1e/class_critical_buf.html#af55d2c476f545955912617611c18cbee" target="_top" xlink:title="CriticalBuf::Init">
<polygon fill="white" stroke="black" points="502.5,-40.5 502.5,-61.5 593.5,-61.5 593.5,-40.5 502.5,-40.5"/>
<text text-anchor="middle" x="548" y="-47.9" font-family="Helvetica,sans-Serif" font-size="12.00">CriticalBuf::Init</text>
</a>
</g>
</g>
<!-- Node3&#45;&gt;Node4 -->
<g id="edge3" class="edge"><title>Node3&#45;&gt;Node4</title>
<path fill="none" stroke="midnightblue" d="M465.742,-51C474.471,-51 483.384,-51 491.958,-51"/>
<polygon fill="midnightblue" stroke="midnightblue" points="492.211,-54.5001 502.211,-51 492.211,-47.5001 492.211,-54.5001"/>
</g>
</g>
</svg>
