<?xml version="1.0" encoding="UTF-8" standalone="no"?>
<!DOCTYPE svg PUBLIC "-//W3C//DTD SVG 1.1//EN"
 "http://www.w3.org/Graphics/SVG/1.1/DTD/svg11.dtd">
<!-- Generated by graphviz version 2.34.0 (20130907.0111)
 -->
<!-- Title: COperatorConsoleApp::OnSFRplusDone Pages: 1 -->
<svg width="856pt" height="401pt"
 viewBox="0.00 0.00 856.00 401.00" xmlns="http://www.w3.org/2000/svg" xmlns:xlink="http://www.w3.org/1999/xlink">
<g id="graph0" class="graph" transform="scale(1 1) rotate(0) translate(4 397)">
<title>COperatorConsoleApp::OnSFRplusDone</title>
<polygon fill="white" stroke="white" points="-4,4 -4,-397 852,-397 852,4 -4,4"/>
<!-- Node1 -->
<g id="node1" class="node"><title>Node1</title>
<polygon fill="#bfbfbf" stroke="black" points="0.5,-211 0.5,-245 137.5,-245 137.5,-211 0.5,-211"/>
<text text-anchor="start" x="8.5" y="-231.4" font-family="Helvetica,sans-Serif" font-size="12.00">COperatorConsoleApp</text>
<text text-anchor="middle" x="69" y="-218.4" font-family="Helvetica,sans-Serif" font-size="12.00">::OnSFRplusDone</text>
</g>
<!-- Node2 -->
<g id="node2" class="node"><title>Node2</title>
<g id="a_node2"><a xlink:href="../../d3/d9f/class_c_operator_console_app.html#a24bdd4786c17e5ca514a2e0569687025" target="_top" xlink:title="COperatorConsoleApp\l::SendAppMessage">
<polygon fill="white" stroke="black" points="177.5,-238 177.5,-272 314.5,-272 314.5,-238 177.5,-238"/>
<text text-anchor="start" x="185.5" y="-258.4" font-family="Helvetica,sans-Serif" font-size="12.00">COperatorConsoleApp</text>
<text text-anchor="middle" x="246" y="-245.4" font-family="Helvetica,sans-Serif" font-size="12.00">::SendAppMessage</text>
</a>
</g>
</g>
<!-- Node1&#45;&gt;Node2 -->
<g id="edge1" class="edge"><title>Node1&#45;&gt;Node2</title>
<path fill="none" stroke="midnightblue" d="M137.66,-238.439C147.297,-239.926 157.272,-241.465 167.086,-242.979"/>
<polygon fill="midnightblue" stroke="midnightblue" points="166.815,-246.479 177.232,-244.544 167.882,-239.56 166.815,-246.479"/>
</g>
<!-- Node3 -->
<g id="node3" class="node"><title>Node3</title>
<g id="a_node3"><a xlink:href="../../d3/d9f/class_c_operator_console_app.html#afcaa58d4a5fb9c7cff5e35ae64e1420c" target="_top" xlink:title="COperatorConsoleApp\l::UpdateResultsSFRplus">
<polygon fill="white" stroke="black" points="174,-185 174,-219 318,-219 318,-185 174,-185"/>
<text text-anchor="start" x="182" y="-205.4" font-family="Helvetica,sans-Serif" font-size="12.00">COperatorConsoleApp</text>
<text text-anchor="middle" x="246" y="-192.4" font-family="Helvetica,sans-Serif" font-size="12.00">::UpdateResultsSFRplus</text>
</a>
</g>
</g>
<!-- Node1&#45;&gt;Node3 -->
<g id="edge2" class="edge"><title>Node1&#45;&gt;Node3</title>
<path fill="none" stroke="midnightblue" d="M137.66,-217.948C146.163,-216.684 154.93,-215.382 163.616,-214.091"/>
<polygon fill="midnightblue" stroke="midnightblue" points="164.378,-217.517 173.755,-212.585 163.349,-210.593 164.378,-217.517"/>
</g>
<!-- Node4 -->
<g id="node4" class="node"><title>Node4</title>
<g id="a_node4"><a xlink:href="../../dd/d12/class_s_f_rplus_test.html#a5ea622bc758ce179adae18196b0ddf8b" target="_top" xlink:title="SFRplusTest::GetQSO">
<polygon fill="white" stroke="black" points="355.5,-238.5 355.5,-259.5 490.5,-259.5 490.5,-238.5 355.5,-238.5"/>
<text text-anchor="middle" x="423" y="-245.9" font-family="Helvetica,sans-Serif" font-size="12.00">SFRplusTest::GetQSO</text>
</a>
</g>
</g>
<!-- Node3&#45;&gt;Node4 -->
<g id="edge3" class="edge"><title>Node3&#45;&gt;Node4</title>
<path fill="none" stroke="midnightblue" d="M310.674,-219.101C331.23,-224.622 353.685,-230.652 373.009,-235.842"/>
<polygon fill="midnightblue" stroke="midnightblue" points="372.237,-239.259 382.802,-238.473 374.052,-232.499 372.237,-239.259"/>
</g>
<!-- Node5 -->
<g id="node5" class="node"><title>Node5</title>
<g id="a_node5"><a xlink:href="../../d3/d9f/class_c_operator_console_app.html#a61fec0ac8bc8938749e977686e37e0dc" target="_top" xlink:title="COperatorConsoleApp\l::UpdateResults">
<polygon fill="white" stroke="black" points="354.5,-185 354.5,-219 491.5,-219 491.5,-185 354.5,-185"/>
<text text-anchor="start" x="362.5" y="-205.4" font-family="Helvetica,sans-Serif" font-size="12.00">COperatorConsoleApp</text>
<text text-anchor="middle" x="423" y="-192.4" font-family="Helvetica,sans-Serif" font-size="12.00">::UpdateResults</text>
</a>
</g>
</g>
<!-- Node3&#45;&gt;Node5 -->
<g id="edge4" class="edge"><title>Node3&#45;&gt;Node5</title>
<path fill="none" stroke="midnightblue" d="M318.179,-202C326.749,-202 335.535,-202 344.193,-202"/>
<polygon fill="midnightblue" stroke="midnightblue" points="344.278,-205.5 354.278,-202 344.278,-198.5 344.278,-205.5"/>
</g>
<!-- Node20 -->
<g id="node20" class="node"><title>Node20</title>
<g id="a_node20"><a xlink:href="../../dd/dd1/class_c_operator_console_dlg.html#ac6388b6097a94350ecf4abf7e166f9a6" target="_top" xlink:title="COperatorConsoleDlg\l::UpdateQuadrants">
<polygon fill="white" stroke="black" points="356,-79 356,-113 490,-113 490,-79 356,-79"/>
<text text-anchor="start" x="364" y="-99.4" font-family="Helvetica,sans-Serif" font-size="12.00">COperatorConsoleDlg</text>
<text text-anchor="middle" x="423" y="-86.4" font-family="Helvetica,sans-Serif" font-size="12.00">::UpdateQuadrants</text>
</a>
</g>
</g>
<!-- Node3&#45;&gt;Node20 -->
<g id="edge19" class="edge"><title>Node3&#45;&gt;Node20</title>
<path fill="none" stroke="midnightblue" d="M275.117,-184.969C304.879,-166.942 351.996,-138.402 384.812,-118.525"/>
<polygon fill="midnightblue" stroke="midnightblue" points="386.923,-121.339 393.663,-113.164 383.296,-115.351 386.923,-121.339"/>
</g>
<!-- Node6 -->
<g id="node6" class="node"><title>Node6</title>
<g id="a_node6"><a xlink:href="../../da/d92/class_image_test.html#a9c723f8f2839a5e455bcc13c7dbdb39d" target="_top" xlink:title="ImageTest::Passed">
<polygon fill="white" stroke="black" points="538,-371.5 538,-392.5 656,-392.5 656,-371.5 538,-371.5"/>
<text text-anchor="middle" x="597" y="-378.9" font-family="Helvetica,sans-Serif" font-size="12.00">ImageTest::Passed</text>
</a>
</g>
</g>
<!-- Node5&#45;&gt;Node6 -->
<g id="edge5" class="edge"><title>Node5&#45;&gt;Node6</title>
<path fill="none" stroke="midnightblue" d="M480.306,-219.139C484.625,-221.949 488.613,-225.212 492,-229 532.531,-274.332 485.723,-317.292 528,-361 529.804,-362.865 531.77,-364.565 533.858,-366.115"/>
<polygon fill="midnightblue" stroke="midnightblue" points="532.087,-369.135 542.441,-371.38 535.747,-363.168 532.087,-369.135"/>
</g>
<!-- Node7 -->
<g id="node7" class="node"><title>Node7</title>
<g id="a_node7"><a xlink:href="../../dd/dd1/class_c_operator_console_dlg.html#ae937941b5c3b8b9655ad4f2f91c7ea9a" target="_top" xlink:title="COperatorConsoleDlg\l::LogMessage">
<polygon fill="white" stroke="black" points="530,-318 530,-352 664,-352 664,-318 530,-318"/>
<text text-anchor="start" x="538" y="-338.4" font-family="Helvetica,sans-Serif" font-size="12.00">COperatorConsoleDlg</text>
<text text-anchor="middle" x="597" y="-325.4" font-family="Helvetica,sans-Serif" font-size="12.00">::LogMessage</text>
</a>
</g>
</g>
<!-- Node5&#45;&gt;Node7 -->
<g id="edge6" class="edge"><title>Node5&#45;&gt;Node7</title>
<path fill="none" stroke="midnightblue" d="M478.671,-219.151C483.497,-221.973 488.043,-225.235 492,-229 519.952,-255.598 500.048,-281.402 528,-308 529.484,-309.412 531.05,-310.753 532.684,-312.027"/>
<polygon fill="midnightblue" stroke="midnightblue" points="531.079,-315.166 541.329,-317.849 534.989,-309.36 531.079,-315.166"/>
</g>
<!-- Node9 -->
<g id="node9" class="node"><title>Node9</title>
<g id="a_node9"><a xlink:href="../../dd/dd1/class_c_operator_console_dlg.html#a652b4785d94be4b8b18809662edb28bd" target="_top" xlink:title="COperatorConsoleDlg\l::UpdateImage">
<polygon fill="white" stroke="black" points="530,-265 530,-299 664,-299 664,-265 530,-265"/>
<text text-anchor="start" x="538" y="-285.4" font-family="Helvetica,sans-Serif" font-size="12.00">COperatorConsoleDlg</text>
<text text-anchor="middle" x="597" y="-272.4" font-family="Helvetica,sans-Serif" font-size="12.00">::UpdateImage</text>
</a>
</g>
</g>
<!-- Node5&#45;&gt;Node9 -->
<g id="edge8" class="edge"><title>Node5&#45;&gt;Node9</title>
<path fill="none" stroke="midnightblue" d="M471.518,-219.112C478.518,-222.133 485.541,-225.457 492,-229 509.304,-238.492 510.696,-245.508 528,-255 531.633,-256.993 535.445,-258.917 539.331,-260.756"/>
<polygon fill="midnightblue" stroke="midnightblue" points="537.927,-263.963 548.482,-264.888 540.808,-257.583 537.927,-263.963"/>
</g>
<!-- Node11 -->
<g id="node11" class="node"><title>Node11</title>
<g id="a_node11"><a xlink:href="../../d3/d9f/class_c_operator_console_app.html#ae1cbaab939cb91a18fe8c63e54367fdb" target="_top" xlink:title="COperatorConsoleApp\l::GetResults">
<polygon fill="white" stroke="black" points="528.5,-212 528.5,-246 665.5,-246 665.5,-212 528.5,-212"/>
<text text-anchor="start" x="536.5" y="-232.4" font-family="Helvetica,sans-Serif" font-size="12.00">COperatorConsoleApp</text>
<text text-anchor="middle" x="597" y="-219.4" font-family="Helvetica,sans-Serif" font-size="12.00">::GetResults</text>
</a>
</g>
</g>
<!-- Node5&#45;&gt;Node11 -->
<g id="edge10" class="edge"><title>Node5&#45;&gt;Node11</title>
<path fill="none" stroke="midnightblue" d="M491.979,-212.671C500.55,-214.017 509.372,-215.401 518.082,-216.769"/>
<polygon fill="midnightblue" stroke="midnightblue" points="517.811,-220.269 528.233,-218.362 518.897,-213.354 517.811,-220.269"/>
</g>
<!-- Node17 -->
<g id="node17" class="node"><title>Node17</title>
<g id="a_node17"><a xlink:href="../../dd/dd1/class_c_operator_console_dlg.html#a8951b07d9665d1994a9ba7d6896fb816" target="_top" xlink:title="COperatorConsoleDlg\l::UpdateStatus">
<polygon fill="white" stroke="black" points="530,-159 530,-193 664,-193 664,-159 530,-159"/>
<text text-anchor="start" x="538" y="-179.4" font-family="Helvetica,sans-Serif" font-size="12.00">COperatorConsoleDlg</text>
<text text-anchor="middle" x="597" y="-166.4" font-family="Helvetica,sans-Serif" font-size="12.00">::UpdateStatus</text>
</a>
</g>
</g>
<!-- Node5&#45;&gt;Node17 -->
<g id="edge16" class="edge"><title>Node5&#45;&gt;Node17</title>
<path fill="none" stroke="midnightblue" d="M491.979,-191.724C501.15,-190.338 510.608,-188.908 519.909,-187.502"/>
<polygon fill="midnightblue" stroke="midnightblue" points="520.555,-190.944 529.919,-185.989 519.508,-184.023 520.555,-190.944"/>
</g>
<!-- Node18 -->
<g id="node18" class="node"><title>Node18</title>
<g id="a_node18"><a xlink:href="../../dd/dd1/class_c_operator_console_dlg.html#a696a817ef9e443f40c13674083426771" target="_top" xlink:title="COperatorConsoleDlg\l::UpdateSummary">
<polygon fill="white" stroke="black" points="530,-106 530,-140 664,-140 664,-106 530,-106"/>
<text text-anchor="start" x="538" y="-126.4" font-family="Helvetica,sans-Serif" font-size="12.00">COperatorConsoleDlg</text>
<text text-anchor="middle" x="597" y="-113.4" font-family="Helvetica,sans-Serif" font-size="12.00">::UpdateSummary</text>
</a>
</g>
</g>
<!-- Node5&#45;&gt;Node18 -->
<g id="edge17" class="edge"><title>Node5&#45;&gt;Node18</title>
<path fill="none" stroke="midnightblue" d="M455.44,-184.877C475.854,-174.034 503.186,-160.029 528,-149 531.833,-147.296 535.815,-145.597 539.843,-143.931"/>
<polygon fill="midnightblue" stroke="midnightblue" points="541.32,-147.109 549.277,-140.113 538.694,-140.62 541.32,-147.109"/>
</g>
<!-- Node19 -->
<g id="node19" class="node"><title>Node19</title>
<g id="a_node19"><a xlink:href="../../dd/dd1/class_c_operator_console_dlg.html#a699603055bddf9f727f58efd0d2b1d69" target="_top" xlink:title="COperatorConsoleDlg\l::UpdateFPS">
<polygon fill="white" stroke="black" points="530,-53 530,-87 664,-87 664,-53 530,-53"/>
<text text-anchor="start" x="538" y="-73.4" font-family="Helvetica,sans-Serif" font-size="12.00">COperatorConsoleDlg</text>
<text text-anchor="middle" x="597" y="-60.4" font-family="Helvetica,sans-Serif" font-size="12.00">::UpdateFPS</text>
</a>
</g>
</g>
<!-- Node5&#45;&gt;Node19 -->
<g id="edge18" class="edge"><title>Node5&#45;&gt;Node19</title>
<path fill="none" stroke="midnightblue" d="M437.002,-184.701C455.123,-161.645 490.047,-120.869 528,-96 530.299,-94.4933 532.699,-93.055 535.165,-91.6843"/>
<polygon fill="midnightblue" stroke="midnightblue" points="537.005,-94.6749 544.325,-87.0154 533.826,-88.4382 537.005,-94.6749"/>
</g>
<!-- Node8 -->
<g id="node8" class="node"><title>Node8</title>
<g id="a_node8"><a xlink:href="../../dd/d46/class_timestamp.html#ac1238e7ef53954ee90d6687601bc95e9" target="_top" xlink:title="Timestamp::Get">
<polygon fill="white" stroke="black" points="725,-338.5 725,-359.5 825,-359.5 825,-338.5 725,-338.5"/>
<text text-anchor="middle" x="775" y="-345.9" font-family="Helvetica,sans-Serif" font-size="12.00">Timestamp::Get</text>
</a>
</g>
</g>
<!-- Node7&#45;&gt;Node8 -->
<g id="edge7" class="edge"><title>Node7&#45;&gt;Node8</title>
<path fill="none" stroke="midnightblue" d="M664.037,-340.253C680.599,-341.57 698.271,-342.976 714.495,-344.267"/>
<polygon fill="midnightblue" stroke="midnightblue" points="714.674,-347.792 724.92,-345.096 715.229,-340.814 714.674,-347.792"/>
</g>
<!-- Node10 -->
<g id="node10" class="node"><title>Node10</title>
<g id="a_node10"><a xlink:href="../../dc/dad/class_c_static_bmp.html#a00d2d71cabb44468cacd464307d749d4" target="_top" xlink:title="CStaticBmp::Update">
<polygon fill="white" stroke="black" points="712.5,-298.5 712.5,-319.5 837.5,-319.5 837.5,-298.5 712.5,-298.5"/>
<text text-anchor="middle" x="775" y="-305.9" font-family="Helvetica,sans-Serif" font-size="12.00">CStaticBmp::Update</text>
</a>
</g>
</g>
<!-- Node9&#45;&gt;Node10 -->
<g id="edge9" class="edge"><title>Node9&#45;&gt;Node10</title>
<path fill="none" stroke="midnightblue" d="M664.037,-292.131C676.505,-294.043 689.602,-296.053 702.236,-297.991"/>
<polygon fill="midnightblue" stroke="midnightblue" points="701.834,-301.47 712.249,-299.527 702.895,-294.551 701.834,-301.47"/>
</g>
<!-- Node12 -->
<g id="node12" class="node"><title>Node12</title>
<g id="a_node12"><a xlink:href="../../da/d92/class_image_test.html#a2dfac15fc3e18dcd1400d2e6fe7f4b1a" target="_top" xlink:title="ImageTest::GetFailInfo">
<polygon fill="white" stroke="black" points="708,-258.5 708,-279.5 842,-279.5 842,-258.5 708,-258.5"/>
<text text-anchor="middle" x="775" y="-265.9" font-family="Helvetica,sans-Serif" font-size="12.00">ImageTest::GetFailInfo</text>
</a>
</g>
</g>
<!-- Node11&#45;&gt;Node12 -->
<g id="edge11" class="edge"><title>Node11&#45;&gt;Node12</title>
<path fill="none" stroke="midnightblue" d="M665.543,-244.351C682.722,-248.255 701.003,-252.41 717.564,-256.174"/>
<polygon fill="midnightblue" stroke="midnightblue" points="717.102,-259.658 727.629,-258.461 718.653,-252.832 717.102,-259.658"/>
</g>
<!-- Node13 -->
<g id="node13" class="node"><title>Node13</title>
<g id="a_node13"><a xlink:href="../../da/d92/class_image_test.html#ada4d8a43edec3fa01bbc4b01ef4b6b0e" target="_top" xlink:title="ImageTest::GetJSON">
<polygon fill="white" stroke="black" points="711,-218.5 711,-239.5 839,-239.5 839,-218.5 711,-218.5"/>
<text text-anchor="middle" x="775" y="-225.9" font-family="Helvetica,sans-Serif" font-size="12.00">ImageTest::GetJSON</text>
</a>
</g>
</g>
<!-- Node11&#45;&gt;Node13 -->
<g id="edge12" class="edge"><title>Node11&#45;&gt;Node13</title>
<path fill="none" stroke="midnightblue" d="M665.543,-229C677.089,-229 689.133,-229 700.818,-229"/>
<polygon fill="midnightblue" stroke="midnightblue" points="700.973,-232.5 710.973,-229 700.973,-225.5 700.973,-232.5"/>
</g>
<!-- Node14 -->
<g id="node14" class="node"><title>Node14</title>
<g id="a_node14"><a xlink:href="../../da/d92/class_image_test.html#aec44cc808c82707c05710bdaf2b10b4a" target="_top" xlink:title="ImageTest::GetLog">
<polygon fill="white" stroke="black" points="717,-178.5 717,-199.5 833,-199.5 833,-178.5 717,-178.5"/>
<text text-anchor="middle" x="775" y="-185.9" font-family="Helvetica,sans-Serif" font-size="12.00">ImageTest::GetLog</text>
</a>
</g>
</g>
<!-- Node11&#45;&gt;Node14 -->
<g id="edge13" class="edge"><title>Node11&#45;&gt;Node14</title>
<path fill="none" stroke="midnightblue" d="M665.543,-213.649C682.722,-209.745 701.003,-205.59 717.564,-201.826"/>
<polygon fill="midnightblue" stroke="midnightblue" points="718.653,-205.168 727.629,-199.539 717.102,-198.342 718.653,-205.168"/>
</g>
<!-- Node15 -->
<g id="node15" class="node"><title>Node15</title>
<g id="a_node15"><a xlink:href="../../da/d92/class_image_test.html#a0f7d70f970bde7af57011132e4cb49fc" target="_top" xlink:title="ImageTest::GetName">
<polygon fill="white" stroke="black" points="711,-138.5 711,-159.5 839,-159.5 839,-138.5 711,-138.5"/>
<text text-anchor="middle" x="775" y="-145.9" font-family="Helvetica,sans-Serif" font-size="12.00">ImageTest::GetName</text>
</a>
</g>
</g>
<!-- Node11&#45;&gt;Node15 -->
<g id="edge14" class="edge"><title>Node11&#45;&gt;Node15</title>
<path fill="none" stroke="midnightblue" d="M647.344,-211.902C653.803,-208.951 660.188,-205.643 666,-202 684.39,-190.471 683.019,-179.529 702,-169 705.935,-166.817 710.126,-164.859 714.431,-163.104"/>
<polygon fill="midnightblue" stroke="midnightblue" points="715.812,-166.325 723.981,-159.579 713.388,-159.758 715.812,-166.325"/>
</g>
<!-- Node16 -->
<g id="node16" class="node"><title>Node16</title>
<g id="a_node16"><a xlink:href="../../da/d92/class_image_test.html#a4cf585eeef3f72a8721af5c1c3daa781" target="_top" xlink:title="ImageTest::GetSummary">
<polygon fill="white" stroke="black" points="702,-98.5 702,-119.5 848,-119.5 848,-98.5 702,-98.5"/>
<text text-anchor="middle" x="775" y="-105.9" font-family="Helvetica,sans-Serif" font-size="12.00">ImageTest::GetSummary</text>
</a>
</g>
</g>
<!-- Node11&#45;&gt;Node16 -->
<g id="edge15" class="edge"><title>Node11&#45;&gt;Node16</title>
<path fill="none" stroke="midnightblue" d="M652.214,-211.917C657.189,-209.075 661.893,-205.79 666,-202 692.584,-177.466 674.141,-152.077 702,-129 704.011,-127.334 706.15,-125.807 708.386,-124.407"/>
<polygon fill="midnightblue" stroke="midnightblue" points="710.227,-127.392 717.416,-119.61 706.943,-121.21 710.227,-127.392"/>
</g>
<!-- Node21 -->
<g id="node21" class="node"><title>Node21</title>
<g id="a_node21"><a xlink:href="../../dd/dd1/class_c_operator_console_dlg.html#a3dc3be61b2ebac3cd120e8542b3952c3" target="_top" xlink:title="COperatorConsoleDlg\l::UpdateQuadrant">
<polygon fill="white" stroke="black" points="530,-0 530,-34 664,-34 664,-0 530,-0"/>
<text text-anchor="start" x="538" y="-20.4" font-family="Helvetica,sans-Serif" font-size="12.00">COperatorConsoleDlg</text>
<text text-anchor="middle" x="597" y="-7.4" font-family="Helvetica,sans-Serif" font-size="12.00">::UpdateQuadrant</text>
</a>
</g>
</g>
<!-- Node20&#45;&gt;Node21 -->
<g id="edge20" class="edge"><title>Node20&#45;&gt;Node21</title>
<path fill="none" stroke="midnightblue" d="M455.44,-78.8767C475.854,-68.0338 503.186,-54.0295 528,-43 531.833,-41.2963 535.815,-39.5974 539.843,-37.9306"/>
<polygon fill="midnightblue" stroke="midnightblue" points="541.32,-41.1087 549.277,-34.1127 538.694,-34.6199 541.32,-41.1087"/>
</g>
</g>
</svg>
