<?xml version="1.0" encoding="UTF-8" standalone="no"?>
<!DOCTYPE svg PUBLIC "-//W3C//DTD SVG 1.1//EN"
 "http://www.w3.org/Graphics/SVG/1.1/DTD/svg11.dtd">
<!-- Generated by graphviz version 2.34.0 (20130907.0111)
 -->
<!-- Title: COperatorConsoleApp::Init Pages: 1 -->
<svg width="1102pt" height="622pt"
 viewBox="0.00 0.00 1102.00 622.00" xmlns="http://www.w3.org/2000/svg" xmlns:xlink="http://www.w3.org/1999/xlink">
<g id="graph0" class="graph" transform="scale(1 1) rotate(0) translate(4 618)">
<title>COperatorConsoleApp::Init</title>
<polygon fill="white" stroke="white" points="-4,4 -4,-618 1098,-618 1098,4 -4,4"/>
<!-- Node1 -->
<g id="node1" class="node"><title>Node1</title>
<polygon fill="#bfbfbf" stroke="black" points="0.5,-313 0.5,-347 137.5,-347 137.5,-313 0.5,-313"/>
<text text-anchor="start" x="8.5" y="-333.4" font-family="Helvetica,sans-Serif" font-size="12.00">COperatorConsoleApp</text>
<text text-anchor="middle" x="69" y="-320.4" font-family="Helvetica,sans-Serif" font-size="12.00">::Init</text>
</g>
<!-- Node2 -->
<g id="node2" class="node"><title>Node2</title>
<g id="a_node2"><a xlink:href="../../d3/d9f/class_c_operator_console_app.html#aeb93b88acfe6d11d64f493f63f74bca6" target="_top" xlink:title="COperatorConsoleApp\l::AllocateImageBuf">
<polygon fill="white" stroke="black" points="180.5,-580 180.5,-614 317.5,-614 317.5,-580 180.5,-580"/>
<text text-anchor="start" x="188.5" y="-600.4" font-family="Helvetica,sans-Serif" font-size="12.00">COperatorConsoleApp</text>
<text text-anchor="middle" x="249" y="-587.4" font-family="Helvetica,sans-Serif" font-size="12.00">::AllocateImageBuf</text>
</a>
</g>
</g>
<!-- Node1&#45;&gt;Node2 -->
<g id="edge1" class="edge"><title>Node1&#45;&gt;Node2</title>
<path fill="none" stroke="midnightblue" d="M72.6727,-347.178C80.3197,-390.658 106.26,-506.146 174,-570 175.658,-571.562 177.413,-573.036 179.246,-574.425"/>
<polygon fill="midnightblue" stroke="midnightblue" points="177.441,-577.427 187.72,-579.994 181.285,-571.577 177.441,-577.427"/>
</g>
<!-- Node4 -->
<g id="node4" class="node"><title>Node4</title>
<g id="a_node4"><a xlink:href="../../d3/d9f/class_c_operator_console_app.html#ac47de682b105a11015ceef305c225924" target="_top" xlink:title="COperatorConsoleApp\l::CheckFiles">
<polygon fill="white" stroke="black" points="180.5,-527 180.5,-561 317.5,-561 317.5,-527 180.5,-527"/>
<text text-anchor="start" x="188.5" y="-547.4" font-family="Helvetica,sans-Serif" font-size="12.00">COperatorConsoleApp</text>
<text text-anchor="middle" x="249" y="-534.4" font-family="Helvetica,sans-Serif" font-size="12.00">::CheckFiles</text>
</a>
</g>
</g>
<!-- Node1&#45;&gt;Node4 -->
<g id="edge3" class="edge"><title>Node1&#45;&gt;Node4</title>
<path fill="none" stroke="midnightblue" d="M74.9811,-347.094C86.4364,-383.498 118.055,-469.248 174,-517 175.957,-518.67 178.026,-520.241 180.18,-521.717"/>
<polygon fill="midnightblue" stroke="midnightblue" points="178.482,-524.781 188.851,-526.958 182.103,-518.79 178.482,-524.781"/>
</g>
<!-- Node6 -->
<g id="node6" class="node"><title>Node6</title>
<g id="a_node6"><a xlink:href="../../d8/d29/class_image_acquisition.html#af32c2cc8a87105465ba8620e77745c2b" target="_top" xlink:title="ImageAcquisition::GetInfo">
<polygon fill="white" stroke="black" points="174.5,-486.5 174.5,-507.5 323.5,-507.5 323.5,-486.5 174.5,-486.5"/>
<text text-anchor="middle" x="249" y="-493.9" font-family="Helvetica,sans-Serif" font-size="12.00">ImageAcquisition::GetInfo</text>
</a>
</g>
</g>
<!-- Node1&#45;&gt;Node6 -->
<g id="edge5" class="edge"><title>Node1&#45;&gt;Node6</title>
<path fill="none" stroke="midnightblue" d="M77.2406,-347.007C91.2462,-377.813 125.042,-442.818 174,-477 176.728,-478.905 179.629,-480.628 182.643,-482.187"/>
<polygon fill="midnightblue" stroke="midnightblue" points="181.409,-485.471 191.964,-486.391 184.287,-479.089 181.409,-485.471"/>
</g>
<!-- Node7 -->
<g id="node7" class="node"><title>Node7</title>
<g id="a_node7"><a xlink:href="../../dd/d34/class_config.html#a47f35832cdd5abdcf3de6843a789256d" target="_top" xlink:title="Config::Init">
<polygon fill="white" stroke="black" points="213.5,-446.5 213.5,-467.5 284.5,-467.5 284.5,-446.5 213.5,-446.5"/>
<text text-anchor="middle" x="249" y="-453.9" font-family="Helvetica,sans-Serif" font-size="12.00">Config::Init</text>
</a>
</g>
</g>
<!-- Node1&#45;&gt;Node7 -->
<g id="edge6" class="edge"><title>Node1&#45;&gt;Node7</title>
<path fill="none" stroke="midnightblue" d="M82.0909,-347.001C99.6735,-370.479 134.539,-412.575 174,-436 182.957,-441.317 193.326,-445.344 203.414,-448.373"/>
<polygon fill="midnightblue" stroke="midnightblue" points="202.778,-451.827 213.347,-451.08 204.619,-445.073 202.778,-451.827"/>
</g>
<!-- Node8 -->
<g id="node8" class="node"><title>Node8</title>
<g id="a_node8"><a xlink:href="../../d3/d9f/class_c_operator_console_app.html#a8edea834120ba2acc0e16230ff5efb14" target="_top" xlink:title="COperatorConsoleApp\l::InitBlemishAcq">
<polygon fill="white" stroke="black" points="180.5,-393 180.5,-427 317.5,-427 317.5,-393 180.5,-393"/>
<text text-anchor="start" x="188.5" y="-413.4" font-family="Helvetica,sans-Serif" font-size="12.00">COperatorConsoleApp</text>
<text text-anchor="middle" x="249" y="-400.4" font-family="Helvetica,sans-Serif" font-size="12.00">::InitBlemishAcq</text>
</a>
</g>
</g>
<!-- Node1&#45;&gt;Node8 -->
<g id="edge7" class="edge"><title>Node1&#45;&gt;Node8</title>
<path fill="none" stroke="midnightblue" d="M100.927,-347.01C121.366,-357.939 148.916,-372.08 174,-383 178.937,-385.149 184.106,-387.276 189.319,-389.337"/>
<polygon fill="midnightblue" stroke="midnightblue" points="188.119,-392.625 198.709,-392.964 190.642,-386.096 188.119,-392.625"/>
</g>
<!-- Node13 -->
<g id="node13" class="node"><title>Node13</title>
<g id="a_node13"><a xlink:href="../../d3/d9f/class_c_operator_console_app.html#a51ad7e6e8f370072c3e89d0d7e9e41a8" target="_top" xlink:title="COperatorConsoleApp\l::InitBlemishThread">
<polygon fill="white" stroke="black" points="180.5,-234 180.5,-268 317.5,-268 317.5,-234 180.5,-234"/>
<text text-anchor="start" x="188.5" y="-254.4" font-family="Helvetica,sans-Serif" font-size="12.00">COperatorConsoleApp</text>
<text text-anchor="middle" x="249" y="-241.4" font-family="Helvetica,sans-Serif" font-size="12.00">::InitBlemishThread</text>
</a>
</g>
</g>
<!-- Node1&#45;&gt;Node13 -->
<g id="edge12" class="edge"><title>Node1&#45;&gt;Node13</title>
<path fill="none" stroke="midnightblue" d="M101.878,-312.879C122.234,-302.242 149.342,-288.622 174,-278 178.945,-275.87 184.12,-273.756 189.337,-271.704"/>
<polygon fill="midnightblue" stroke="midnightblue" points="190.656,-274.946 198.731,-268.087 188.141,-268.414 190.656,-274.946"/>
</g>
<!-- Node37 -->
<g id="node37" class="node"><title>Node37</title>
<g id="a_node37"><a xlink:href="../../d3/d9f/class_c_operator_console_app.html#a74df2a3e42b3980069fa3946b67ecf79" target="_top" xlink:title="COperatorConsoleApp\l::InitCamera">
<polygon fill="white" stroke="black" points="180.5,-287 180.5,-321 317.5,-321 317.5,-287 180.5,-287"/>
<text text-anchor="start" x="188.5" y="-307.4" font-family="Helvetica,sans-Serif" font-size="12.00">COperatorConsoleApp</text>
<text text-anchor="middle" x="249" y="-294.4" font-family="Helvetica,sans-Serif" font-size="12.00">::InitCamera</text>
</a>
</g>
</g>
<!-- Node1&#45;&gt;Node37 -->
<g id="edge36" class="edge"><title>Node1&#45;&gt;Node37</title>
<path fill="none" stroke="midnightblue" d="M137.548,-320.133C148.316,-318.561 159.529,-316.923 170.505,-315.32"/>
<polygon fill="midnightblue" stroke="midnightblue" points="171.109,-318.768 180.498,-313.86 170.097,-311.842 171.109,-318.768"/>
</g>
<!-- Node39 -->
<g id="node39" class="node"><title>Node39</title>
<g id="a_node39"><a xlink:href="../../d3/d9f/class_c_operator_console_app.html#ae300ef0b301d72f897e75cdf10ff9752" target="_top" xlink:title="COperatorConsoleApp\l::InitCameraThread">
<polygon fill="white" stroke="black" points="180.5,-128 180.5,-162 317.5,-162 317.5,-128 180.5,-128"/>
<text text-anchor="start" x="188.5" y="-148.4" font-family="Helvetica,sans-Serif" font-size="12.00">COperatorConsoleApp</text>
<text text-anchor="middle" x="249" y="-135.4" font-family="Helvetica,sans-Serif" font-size="12.00">::InitCameraThread</text>
</a>
</g>
</g>
<!-- Node1&#45;&gt;Node39 -->
<g id="edge39" class="edge"><title>Node1&#45;&gt;Node39</title>
<path fill="none" stroke="midnightblue" d="M76.6916,-312.986C90.2271,-280.699 123.893,-210.268 174,-171 175.608,-169.74 177.281,-168.539 179.007,-167.393"/>
<polygon fill="midnightblue" stroke="midnightblue" points="181.152,-170.193 188.012,-162.118 177.614,-164.153 181.152,-170.193"/>
</g>
<!-- Node43 -->
<g id="node43" class="node"><title>Node43</title>
<g id="a_node43"><a xlink:href="../../d3/d9f/class_c_operator_console_app.html#a9d9bd1fee378f6066530372f8d0ae6a1" target="_top" xlink:title="COperatorConsoleApp\l::InitModelessThread">
<polygon fill="white" stroke="black" points="180.5,-75 180.5,-109 317.5,-109 317.5,-75 180.5,-75"/>
<text text-anchor="start" x="188.5" y="-95.4" font-family="Helvetica,sans-Serif" font-size="12.00">COperatorConsoleApp</text>
<text text-anchor="middle" x="249" y="-82.4" font-family="Helvetica,sans-Serif" font-size="12.00">::InitModelessThread</text>
</a>
</g>
</g>
<!-- Node1&#45;&gt;Node43 -->
<g id="edge44" class="edge"><title>Node1&#45;&gt;Node43</title>
<path fill="none" stroke="midnightblue" d="M73.7364,-312.725C83.2717,-272.701 112.24,-172.86 174,-118 175.295,-116.85 176.644,-115.75 178.038,-114.698"/>
<polygon fill="midnightblue" stroke="midnightblue" points="180.013,-117.588 186.461,-109.182 176.177,-111.732 180.013,-117.588"/>
</g>
<!-- Node44 -->
<g id="node44" class="node"><title>Node44</title>
<g id="a_node44"><a xlink:href="../../d3/d9f/class_c_operator_console_app.html#a7e42ecea8d8270d3b3cf9552abc00eba" target="_top" xlink:title="COperatorConsoleApp\l::InitSFRplusAcq">
<polygon fill="white" stroke="black" points="180.5,-340 180.5,-374 317.5,-374 317.5,-340 180.5,-340"/>
<text text-anchor="start" x="188.5" y="-360.4" font-family="Helvetica,sans-Serif" font-size="12.00">COperatorConsoleApp</text>
<text text-anchor="middle" x="249" y="-347.4" font-family="Helvetica,sans-Serif" font-size="12.00">::InitSFRplusAcq</text>
</a>
</g>
</g>
<!-- Node1&#45;&gt;Node44 -->
<g id="edge45" class="edge"><title>Node1&#45;&gt;Node44</title>
<path fill="none" stroke="midnightblue" d="M137.548,-340.246C148.316,-341.879 159.529,-343.58 170.505,-345.245"/>
<polygon fill="midnightblue" stroke="midnightblue" points="170.086,-348.722 180.498,-346.761 171.136,-341.801 170.086,-348.722"/>
</g>
<!-- Node45 -->
<g id="node45" class="node"><title>Node45</title>
<g id="a_node45"><a xlink:href="../../d3/d9f/class_c_operator_console_app.html#af7328d2c00abb1d4a09a65492c69b2b0" target="_top" xlink:title="COperatorConsoleApp\l::InitSFRplusThread">
<polygon fill="white" stroke="black" points="180.5,-181 180.5,-215 317.5,-215 317.5,-181 180.5,-181"/>
<text text-anchor="start" x="188.5" y="-201.4" font-family="Helvetica,sans-Serif" font-size="12.00">COperatorConsoleApp</text>
<text text-anchor="middle" x="249" y="-188.4" font-family="Helvetica,sans-Serif" font-size="12.00">::InitSFRplusThread</text>
</a>
</g>
</g>
<!-- Node1&#45;&gt;Node45 -->
<g id="edge48" class="edge"><title>Node1&#45;&gt;Node45</title>
<path fill="none" stroke="midnightblue" d="M82.9832,-312.786C101.083,-289.86 135.983,-249.369 174,-225 176.968,-223.097 180.089,-221.304 183.302,-219.617"/>
<polygon fill="midnightblue" stroke="midnightblue" points="185.071,-222.65 192.549,-215.144 182.023,-216.348 185.071,-222.65"/>
</g>
<!-- Node46 -->
<g id="node46" class="node"><title>Node46</title>
<g id="a_node46"><a xlink:href="../../d3/d9f/class_c_operator_console_app.html#a603dc5a9e0c64b5d2a604965b023c936" target="_top" xlink:title="Called after MSG_SET_SFRPLUS is received. ">
<polygon fill="white" stroke="black" points="180.5,-22 180.5,-56 317.5,-56 317.5,-22 180.5,-22"/>
<text text-anchor="start" x="188.5" y="-42.4" font-family="Helvetica,sans-Serif" font-size="12.00">COperatorConsoleApp</text>
<text text-anchor="middle" x="249" y="-29.4" font-family="Helvetica,sans-Serif" font-size="12.00">::OnSetSFRplus</text>
</a>
</g>
</g>
<!-- Node1&#45;&gt;Node46 -->
<g id="edge54" class="edge"><title>Node1&#45;&gt;Node46</title>
<path fill="none" stroke="midnightblue" d="M71.8361,-312.736C77.7052,-266.078 100.187,-136.195 174,-65 175.103,-63.9365 176.251,-62.9162 177.44,-61.9375"/>
<polygon fill="midnightblue" stroke="midnightblue" points="179.629,-64.6769 185.796,-56.062 175.602,-58.9507 179.629,-64.6769"/>
</g>
<!-- Node3 -->
<g id="node3" class="node"><title>Node3</title>
<g id="a_node3"><a xlink:href="../../d8/d29/class_image_acquisition.html#aa77f9ea82fa88ae12c6b9fba9e13006e" target="_top" xlink:title="ImageAcquisition::BytesPer\lFrame">
<polygon fill="white" stroke="black" points="366.5,-580 366.5,-614 527.5,-614 527.5,-580 366.5,-580"/>
<text text-anchor="start" x="374.5" y="-600.4" font-family="Helvetica,sans-Serif" font-size="12.00">ImageAcquisition::BytesPer</text>
<text text-anchor="middle" x="447" y="-587.4" font-family="Helvetica,sans-Serif" font-size="12.00">Frame</text>
</a>
</g>
</g>
<!-- Node2&#45;&gt;Node3 -->
<g id="edge2" class="edge"><title>Node2&#45;&gt;Node3</title>
<path fill="none" stroke="midnightblue" d="M317.727,-597C330.125,-597 343.239,-597 356.164,-597"/>
<polygon fill="midnightblue" stroke="midnightblue" points="356.47,-600.5 366.47,-597 356.47,-593.5 356.47,-600.5"/>
</g>
<!-- Node5 -->
<g id="node5" class="node"><title>Node5</title>
<g id="a_node5"><a xlink:href="../../d3/d9f/class_c_operator_console_app.html#a9f0e96c6628d1c991c7a4bf6741ed6d9" target="_top" xlink:title="COperatorConsoleApp\l::FileExists">
<polygon fill="white" stroke="black" points="378.5,-527 378.5,-561 515.5,-561 515.5,-527 378.5,-527"/>
<text text-anchor="start" x="386.5" y="-547.4" font-family="Helvetica,sans-Serif" font-size="12.00">COperatorConsoleApp</text>
<text text-anchor="middle" x="447" y="-534.4" font-family="Helvetica,sans-Serif" font-size="12.00">::FileExists</text>
</a>
</g>
</g>
<!-- Node4&#45;&gt;Node5 -->
<g id="edge4" class="edge"><title>Node4&#45;&gt;Node5</title>
<path fill="none" stroke="midnightblue" d="M317.727,-544C333.945,-544 351.391,-544 368.032,-544"/>
<polygon fill="midnightblue" stroke="midnightblue" points="368.271,-547.5 378.271,-544 368.271,-540.5 368.271,-547.5"/>
</g>
<!-- Node9 -->
<g id="node9" class="node"><title>Node9</title>
<g id="a_node9"><a xlink:href="../../db/def/class_file_acquisition.html#a797827242308ce8dba037e6c36ca4b30" target="_top" xlink:title="Initializes the buffers inherited from class ImageAcquisition with 2 bytes per pixel. ">
<polygon fill="white" stroke="black" points="390,-431.5 390,-452.5 504,-452.5 504,-431.5 390,-431.5"/>
<text text-anchor="middle" x="447" y="-438.9" font-family="Helvetica,sans-Serif" font-size="12.00">FileAcquisition::Init</text>
</a>
</g>
</g>
<!-- Node8&#45;&gt;Node9 -->
<g id="edge8" class="edge"><title>Node8&#45;&gt;Node9</title>
<path fill="none" stroke="midnightblue" d="M317.727,-421.057C337.889,-424.349 359.947,-427.95 379.997,-431.224"/>
<polygon fill="midnightblue" stroke="midnightblue" points="379.536,-434.695 389.969,-432.852 380.664,-427.786 379.536,-434.695"/>
</g>
<!-- Node12 -->
<g id="node12" class="node"><title>Node12</title>
<g id="a_node12"><a xlink:href="../../db/def/class_file_acquisition.html#af5cffdb393fa3c0dffb9efd4af5fcc68" target="_top" xlink:title="FileAcquisition::Open">
<polygon fill="white" stroke="black" points="383,-391.5 383,-412.5 511,-412.5 511,-391.5 383,-391.5"/>
<text text-anchor="middle" x="447" y="-398.9" font-family="Helvetica,sans-Serif" font-size="12.00">FileAcquisition::Open</text>
</a>
</g>
</g>
<!-- Node8&#45;&gt;Node12 -->
<g id="edge11" class="edge"><title>Node8&#45;&gt;Node12</title>
<path fill="none" stroke="midnightblue" d="M317.727,-407.236C335.476,-406.511 354.695,-405.727 372.72,-404.991"/>
<polygon fill="midnightblue" stroke="midnightblue" points="373.034,-408.481 382.883,-404.576 372.748,-401.487 373.034,-408.481"/>
</g>
<!-- Node10 -->
<g id="node10" class="node"><title>Node10</title>
<g id="a_node10"><a xlink:href="../../d8/d29/class_image_acquisition.html#a09e47283e2ae3e6c352b8842bde2332a" target="_top" xlink:title="may be overridden, but be sure to call parent function also ">
<polygon fill="white" stroke="black" points="584.5,-431.5 584.5,-452.5 711.5,-452.5 711.5,-431.5 584.5,-431.5"/>
<text text-anchor="middle" x="648" y="-438.9" font-family="Helvetica,sans-Serif" font-size="12.00">ImageAcquisition::Init</text>
</a>
</g>
</g>
<!-- Node9&#45;&gt;Node10 -->
<g id="edge9" class="edge"><title>Node9&#45;&gt;Node10</title>
<path fill="none" stroke="midnightblue" d="M504.227,-442C525.953,-442 551.097,-442 574.175,-442"/>
<polygon fill="midnightblue" stroke="midnightblue" points="574.266,-445.5 584.266,-442 574.266,-438.5 574.266,-445.5"/>
</g>
<!-- Node11 -->
<g id="node11" class="node"><title>Node11</title>
<g id="a_node11"><a xlink:href="../../d3/d1e/class_critical_buf.html#af55d2c476f545955912617611c18cbee" target="_top" xlink:title="CriticalBuf::Init">
<polygon fill="white" stroke="black" points="800.5,-473.5 800.5,-494.5 891.5,-494.5 891.5,-473.5 800.5,-473.5"/>
<text text-anchor="middle" x="846" y="-480.9" font-family="Helvetica,sans-Serif" font-size="12.00">CriticalBuf::Init</text>
</a>
</g>
</g>
<!-- Node10&#45;&gt;Node11 -->
<g id="edge10" class="edge"><title>Node10&#45;&gt;Node11</title>
<path fill="none" stroke="midnightblue" d="M698.206,-452.544C726.304,-458.565 761.587,-466.126 790.519,-472.326"/>
<polygon fill="midnightblue" stroke="midnightblue" points="789.954,-475.784 800.466,-474.457 791.421,-468.939 789.954,-475.784"/>
</g>
<!-- Node14 -->
<g id="node14" class="node"><title>Node14</title>
<g id="a_node14"><a xlink:href="../../da/d92/class_image_test.html#ab97f2724bc4060b68dd623c2ff8bbb8d" target="_top" xlink:title="ImageTest::Init">
<polygon fill="white" stroke="black" points="401,-233.5 401,-254.5 493,-254.5 493,-233.5 401,-233.5"/>
<text text-anchor="middle" x="447" y="-240.9" font-family="Helvetica,sans-Serif" font-size="12.00">ImageTest::Init</text>
</a>
</g>
</g>
<!-- Node13&#45;&gt;Node14 -->
<g id="edge13" class="edge"><title>Node13&#45;&gt;Node14</title>
<path fill="none" stroke="midnightblue" d="M317.727,-248.581C341.523,-247.731 367.961,-246.787 390.622,-245.978"/>
<polygon fill="midnightblue" stroke="midnightblue" points="390.877,-249.471 400.745,-245.616 390.627,-242.475 390.877,-249.471"/>
</g>
<!-- Node17 -->
<g id="node17" class="node"><title>Node17</title>
<g id="a_node17"><a xlink:href="../../d8/d29/class_image_acquisition.html#a589eb2272d57ee982b6970667b034a0d" target="_top" xlink:title="ImageAcquisition::GetWidth">
<polygon fill="white" stroke="black" points="366.5,-153.5 366.5,-174.5 527.5,-174.5 527.5,-153.5 366.5,-153.5"/>
<text text-anchor="middle" x="447" y="-160.9" font-family="Helvetica,sans-Serif" font-size="12.00">ImageAcquisition::GetWidth</text>
</a>
</g>
</g>
<!-- Node13&#45;&gt;Node17 -->
<g id="edge16" class="edge"><title>Node13&#45;&gt;Node17</title>
<path fill="none" stroke="midnightblue" d="M306.011,-233.944C312.308,-231.054 318.446,-227.75 324,-224 343.822,-210.615 339.403,-196.158 360,-184 363.638,-181.852 367.49,-179.935 371.468,-178.224"/>
<polygon fill="midnightblue" stroke="midnightblue" points="372.85,-181.442 380.934,-174.593 370.343,-174.907 372.85,-181.442"/>
</g>
<!-- Node18 -->
<g id="node18" class="node"><title>Node18</title>
<g id="a_node18"><a xlink:href="../../d8/d29/class_image_acquisition.html#a0964521623ef639396b854aceebbcbef" target="_top" xlink:title="ImageAcquisition::GetHeight">
<polygon fill="white" stroke="black" points="364.5,-273.5 364.5,-294.5 529.5,-294.5 529.5,-273.5 364.5,-273.5"/>
<text text-anchor="middle" x="447" y="-280.9" font-family="Helvetica,sans-Serif" font-size="12.00">ImageAcquisition::GetHeight</text>
</a>
</g>
</g>
<!-- Node13&#45;&gt;Node18 -->
<g id="edge17" class="edge"><title>Node13&#45;&gt;Node18</title>
<path fill="none" stroke="midnightblue" d="M317.727,-262.403C335.745,-265.437 355.278,-268.725 373.539,-271.8"/>
<polygon fill="midnightblue" stroke="midnightblue" points="373.093,-275.274 383.536,-273.483 374.255,-268.371 373.093,-275.274"/>
</g>
<!-- Node19 -->
<g id="node19" class="node"><title>Node19</title>
<g id="a_node19"><a xlink:href="../../d7/da0/class_thread_control.html#a5054f2ad6297cc65b4cb9146437f48b0" target="_top" xlink:title="ThreadControl::Init">
<polygon fill="white" stroke="black" points="391.5,-113.5 391.5,-134.5 502.5,-134.5 502.5,-113.5 391.5,-113.5"/>
<text text-anchor="middle" x="447" y="-120.9" font-family="Helvetica,sans-Serif" font-size="12.00">ThreadControl::Init</text>
</a>
</g>
</g>
<!-- Node13&#45;&gt;Node19 -->
<g id="edge18" class="edge"><title>Node13&#45;&gt;Node19</title>
<path fill="none" stroke="midnightblue" d="M310.224,-233.934C315.204,-231.105 319.893,-227.817 324,-224 352.558,-197.455 329.885,-168.765 360,-144 366.313,-138.809 373.727,-134.912 381.51,-131.996"/>
<polygon fill="midnightblue" stroke="midnightblue" points="382.685,-135.295 391.136,-128.905 380.545,-128.63 382.685,-135.295"/>
</g>
<!-- Node21 -->
<g id="node21" class="node"><title>Node21</title>
<g id="a_node21"><a xlink:href="../../da/d92/class_image_test.html#a372478d09c06cd7ab3684840add6215e" target="_top" xlink:title="param must be a pointer to a ThreadControl object; param&#45;&gt;m_data must point to an ImageTest object ...">
<polygon fill="white" stroke="black" points="377.5,-193.5 377.5,-214.5 516.5,-214.5 516.5,-193.5 377.5,-193.5"/>
<text text-anchor="middle" x="447" y="-200.9" font-family="Helvetica,sans-Serif" font-size="12.00">ImageTest::ThreadProc</text>
</a>
</g>
</g>
<!-- Node13&#45;&gt;Node21 -->
<g id="edge20" class="edge"><title>Node13&#45;&gt;Node21</title>
<path fill="none" stroke="midnightblue" d="M317.742,-234.235C331.708,-230.817 346.325,-227.268 360,-224 369.728,-221.675 380.084,-219.236 390.116,-216.892"/>
<polygon fill="midnightblue" stroke="midnightblue" points="391.06,-220.266 400.005,-214.587 389.471,-213.448 391.06,-220.266"/>
</g>
<!-- Node15 -->
<g id="node15" class="node"><title>Node15</title>
<g id="a_node15"><a xlink:href="../../da/d92/class_image_test.html#a19f4ba2329209f42293e735fe9797e7c" target="_top" xlink:title="ImageTest::AllocateRGB">
<polygon fill="white" stroke="black" points="575.5,-332.5 575.5,-353.5 720.5,-353.5 720.5,-332.5 575.5,-332.5"/>
<text text-anchor="middle" x="648" y="-339.9" font-family="Helvetica,sans-Serif" font-size="12.00">ImageTest::AllocateRGB</text>
</a>
</g>
</g>
<!-- Node14&#45;&gt;Node15 -->
<g id="edge14" class="edge"><title>Node14&#45;&gt;Node15</title>
<path fill="none" stroke="midnightblue" d="M493.247,-251.137C506.709,-254.152 521.259,-258.321 534,-264 552.939,-272.442 597.998,-305.64 625.149,-326.219"/>
<polygon fill="midnightblue" stroke="midnightblue" points="623.203,-329.137 633.279,-332.41 627.444,-323.568 623.203,-329.137"/>
</g>
<!-- Node16 -->
<g id="node16" class="node"><title>Node16</title>
<g id="a_node16"><a xlink:href="../../da/d92/class_image_test.html#ad019b2cd49f147623a4f0ded3a927aee" target="_top" xlink:title="ImageTest::DeleteRGB">
<polygon fill="white" stroke="black" points="777.5,-433.5 777.5,-454.5 914.5,-454.5 914.5,-433.5 777.5,-433.5"/>
<text text-anchor="middle" x="846" y="-440.9" font-family="Helvetica,sans-Serif" font-size="12.00">ImageTest::DeleteRGB</text>
</a>
</g>
</g>
<!-- Node15&#45;&gt;Node16 -->
<g id="edge15" class="edge"><title>Node15&#45;&gt;Node16</title>
<path fill="none" stroke="midnightblue" d="M660.569,-353.666C680.022,-371.024 721.176,-405.317 762,-424 767.267,-426.41 772.86,-428.551 778.557,-430.448"/>
<polygon fill="midnightblue" stroke="midnightblue" points="777.615,-433.82 788.203,-433.415 779.673,-427.129 777.615,-433.82"/>
</g>
<!-- Node20 -->
<g id="node20" class="node"><title>Node20</title>
<g id="a_node20"><a xlink:href="../../d7/da0/class_thread_control.html#ae2bdd5434d609141dda49566f81c9ce6" target="_top" xlink:title="ThreadControl::InitThread">
<polygon fill="white" stroke="black" points="574,-93.5 574,-114.5 722,-114.5 722,-93.5 574,-93.5"/>
<text text-anchor="middle" x="648" y="-100.9" font-family="Helvetica,sans-Serif" font-size="12.00">ThreadControl::InitThread</text>
</a>
</g>
</g>
<!-- Node19&#45;&gt;Node20 -->
<g id="edge19" class="edge"><title>Node19&#45;&gt;Node20</title>
<path fill="none" stroke="midnightblue" d="M502.641,-118.508C521.527,-116.61 543.141,-114.438 563.792,-112.363"/>
<polygon fill="midnightblue" stroke="midnightblue" points="564.236,-115.836 573.836,-111.353 563.536,-108.871 564.236,-115.836"/>
</g>
<!-- Node22 -->
<g id="node22" class="node"><title>Node22</title>
<g id="a_node22"><a xlink:href="../../d8/d08/class_timer.html#a4e607b129b392c11adddd9641a320436" target="_top" xlink:title="Timer::Start">
<polygon fill="white" stroke="black" points="609.5,-133.5 609.5,-154.5 686.5,-154.5 686.5,-133.5 609.5,-133.5"/>
<text text-anchor="middle" x="648" y="-140.9" font-family="Helvetica,sans-Serif" font-size="12.00">Timer::Start</text>
</a>
</g>
</g>
<!-- Node21&#45;&gt;Node22 -->
<g id="edge21" class="edge"><title>Node21&#45;&gt;Node22</title>
<path fill="none" stroke="midnightblue" d="M503.74,-193.431C513.959,-190.823 524.416,-187.693 534,-184 551.079,-177.419 553.006,-170.799 570,-164 579.329,-160.267 589.574,-157.041 599.461,-154.335"/>
<polygon fill="midnightblue" stroke="midnightblue" points="600.387,-157.71 609.182,-151.802 598.623,-150.936 600.387,-157.71"/>
</g>
<!-- Node23 -->
<g id="node23" class="node"><title>Node23</title>
<g id="a_node23"><a xlink:href="../../da/d92/class_image_test.html#a7334d76c1cc6780f46626be5b9ff1adb" target="_top" xlink:title="Runs the test pointed to by m_imatestFunc. ">
<polygon fill="white" stroke="black" points="599,-253.5 599,-274.5 697,-274.5 697,-253.5 599,-253.5"/>
<text text-anchor="middle" x="648" y="-260.9" font-family="Helvetica,sans-Serif" font-size="12.00">ImageTest::Run</text>
</a>
</g>
</g>
<!-- Node21&#45;&gt;Node23 -->
<g id="edge22" class="edge"><title>Node21&#45;&gt;Node23</title>
<path fill="none" stroke="midnightblue" d="M503.74,-214.569C513.959,-217.177 524.416,-220.307 534,-224 551.079,-230.581 553.006,-237.201 570,-244 575.975,-246.391 582.325,-248.574 588.717,-250.545"/>
<polygon fill="midnightblue" stroke="midnightblue" points="588.167,-254.031 598.747,-253.469 590.126,-247.31 588.167,-254.031"/>
</g>
<!-- Node34 -->
<g id="node34" class="node"><title>Node34</title>
<g id="a_node34"><a xlink:href="../../d8/d08/class_timer.html#a6379e797f968aaee6ac3bb12dc6b81c5" target="_top" xlink:title="Timer::Stop">
<polygon fill="white" stroke="black" points="609.5,-213.5 609.5,-234.5 686.5,-234.5 686.5,-213.5 609.5,-213.5"/>
<text text-anchor="middle" x="648" y="-220.9" font-family="Helvetica,sans-Serif" font-size="12.00">Timer::Stop</text>
</a>
</g>
</g>
<!-- Node21&#45;&gt;Node34 -->
<g id="edge33" class="edge"><title>Node21&#45;&gt;Node34</title>
<path fill="none" stroke="midnightblue" d="M516.763,-210.911C543.894,-213.638 574.406,-216.704 599.074,-219.183"/>
<polygon fill="midnightblue" stroke="midnightblue" points="598.961,-222.689 609.261,-220.207 599.661,-215.725 598.961,-222.689"/>
</g>
<!-- Node36 -->
<g id="node36" class="node"><title>Node36</title>
<g id="a_node36"><a xlink:href="../../d8/d08/class_timer.html#a40773739b5fe60e836329bbbe6ed65ce" target="_top" xlink:title="gets the elapsed time in milliseconds ">
<polygon fill="white" stroke="black" points="612.5,-173.5 612.5,-194.5 683.5,-194.5 683.5,-173.5 612.5,-173.5"/>
<text text-anchor="middle" x="648" y="-180.9" font-family="Helvetica,sans-Serif" font-size="12.00">Timer::Get</text>
</a>
</g>
</g>
<!-- Node21&#45;&gt;Node36 -->
<g id="edge35" class="edge"><title>Node21&#45;&gt;Node36</title>
<path fill="none" stroke="midnightblue" d="M516.763,-197.089C545.101,-194.241 577.128,-191.022 602.331,-188.489"/>
<polygon fill="midnightblue" stroke="midnightblue" points="602.732,-191.967 612.332,-187.484 602.032,-185.002 602.732,-191.967"/>
</g>
<!-- Node24 -->
<g id="node24" class="node"><title>Node24</title>
<g id="a_node24"><a xlink:href="../../da/d92/class_image_test.html#a3b66aa4095c338dd90f6e57e108f3038" target="_top" xlink:title="ImageTest::InitResults">
<polygon fill="white" stroke="black" points="781,-73.5 781,-94.5 911,-94.5 911,-73.5 781,-73.5"/>
<text text-anchor="middle" x="846" y="-80.9" font-family="Helvetica,sans-Serif" font-size="12.00">ImageTest::InitResults</text>
</a>
</g>
</g>
<!-- Node23&#45;&gt;Node24 -->
<g id="edge23" class="edge"><title>Node23&#45;&gt;Node24</title>
<path fill="none" stroke="midnightblue" d="M697.076,-259.731C707.751,-256.709 718.196,-251.823 726,-244 771.374,-198.516 716.226,-149.082 762,-104 764.945,-101.099 768.234,-98.593 771.756,-96.43"/>
<polygon fill="midnightblue" stroke="midnightblue" points="773.626,-99.4048 780.931,-91.7307 770.435,-93.1746 773.626,-99.4048"/>
</g>
<!-- Node26 -->
<g id="node26" class="node"><title>Node26</title>
<g id="a_node26"><a xlink:href="../../da/d92/class_image_test.html#acfb4336b719c918a612640d9d8c63834" target="_top" xlink:title="converts from m_rawPixels to m_rgb ">
<polygon fill="white" stroke="black" points="762.5,-393.5 762.5,-414.5 929.5,-414.5 929.5,-393.5 762.5,-393.5"/>
<text text-anchor="middle" x="846" y="-400.9" font-family="Helvetica,sans-Serif" font-size="12.00">ImageTest::PlanesFromRGB</text>
</a>
</g>
</g>
<!-- Node23&#45;&gt;Node26 -->
<g id="edge25" class="edge"><title>Node23&#45;&gt;Node26</title>
<path fill="none" stroke="midnightblue" d="M666.454,-274.563C683.158,-285.278 708.353,-303.084 726,-323 746.877,-346.562 736.694,-365.275 762,-384 764.482,-385.836 767.109,-387.506 769.842,-389.025"/>
<polygon fill="midnightblue" stroke="midnightblue" points="768.351,-392.191 778.879,-393.377 771.388,-385.885 768.351,-392.191"/>
</g>
<!-- Node27 -->
<g id="node27" class="node"><title>Node27</title>
<g id="a_node27"><a xlink:href="../../da/d92/class_image_test.html#ae9ca0a6007b17711f0159e61dbb62e39" target="_top" xlink:title="converts from m_rgb to rgb ">
<polygon fill="white" stroke="black" points="762.5,-353.5 762.5,-374.5 929.5,-374.5 929.5,-353.5 762.5,-353.5"/>
<text text-anchor="middle" x="846" y="-360.9" font-family="Helvetica,sans-Serif" font-size="12.00">ImageTest::RGBFromPlanes</text>
</a>
</g>
</g>
<!-- Node23&#45;&gt;Node27 -->
<g id="edge26" class="edge"><title>Node23&#45;&gt;Node27</title>
<path fill="none" stroke="midnightblue" d="M662.717,-274.711C687.932,-294.23 740.989,-334.459 762,-344 767.36,-346.434 773.055,-348.594 778.852,-350.507"/>
<polygon fill="midnightblue" stroke="midnightblue" points="778.077,-353.93 788.663,-353.497 780.118,-347.234 778.077,-353.93"/>
</g>
<!-- Node28 -->
<g id="node28" class="node"><title>Node28</title>
<g id="a_node28"><a xlink:href="../../da/d92/class_image_test.html#a92af335f5f0e96e443b4a938a69d4800" target="_top" xlink:title="ImageTest::SaveImage">
<polygon fill="white" stroke="black" points="777.5,-313.5 777.5,-334.5 914.5,-334.5 914.5,-313.5 777.5,-313.5"/>
<text text-anchor="middle" x="846" y="-320.9" font-family="Helvetica,sans-Serif" font-size="12.00">ImageTest::SaveImage</text>
</a>
</g>
</g>
<!-- Node23&#45;&gt;Node28 -->
<g id="edge27" class="edge"><title>Node23&#45;&gt;Node28</title>
<path fill="none" stroke="midnightblue" d="M676.14,-274.501C698.869,-283.079 732.272,-295.183 762,-304 770.171,-306.424 778.859,-308.767 787.419,-310.945"/>
<polygon fill="midnightblue" stroke="midnightblue" points="786.821,-314.403 797.37,-313.42 788.511,-307.61 786.821,-314.403"/>
</g>
<!-- Node29 -->
<g id="node29" class="node"><title>Node29</title>
<g id="a_node29"><a xlink:href="../../d0/d59/_documentation_2_operator-_console_2jsonhelpers_8cpp.html#aa7615c9874e29e598b0d0fd34967390d" target="_top" xlink:title="prepareTestSettings">
<polygon fill="white" stroke="black" points="784.5,-273.5 784.5,-294.5 907.5,-294.5 907.5,-273.5 784.5,-273.5"/>
<text text-anchor="middle" x="846" y="-280.9" font-family="Helvetica,sans-Serif" font-size="12.00">prepareTestSettings</text>
</a>
</g>
</g>
<!-- Node23&#45;&gt;Node29 -->
<g id="edge28" class="edge"><title>Node23&#45;&gt;Node29</title>
<path fill="none" stroke="midnightblue" d="M697.198,-268.918C720.413,-271.287 748.706,-274.174 774.3,-276.786"/>
<polygon fill="midnightblue" stroke="midnightblue" points="774.027,-280.276 784.331,-277.809 774.738,-273.312 774.027,-280.276"/>
</g>
<!-- Node30 -->
<g id="node30" class="node"><title>Node30</title>
<g id="a_node30"><a xlink:href="../../da/d92/class_image_test.html#ad03c43bf481a29e5f8cd143446be4ca1" target="_top" xlink:title="This must be implemented by subclass. ">
<polygon fill="white" stroke="black" points="772.5,-233.5 772.5,-254.5 919.5,-254.5 919.5,-233.5 772.5,-233.5"/>
<text text-anchor="middle" x="846" y="-240.9" font-family="Helvetica,sans-Serif" font-size="12.00">ImageTest::ParseResults</text>
</a>
</g>
</g>
<!-- Node23&#45;&gt;Node30 -->
<g id="edge29" class="edge"><title>Node23&#45;&gt;Node30</title>
<path fill="none" stroke="midnightblue" d="M697.198,-259.082C716.857,-257.076 740.157,-254.698 762.376,-252.431"/>
<polygon fill="midnightblue" stroke="midnightblue" points="762.898,-255.896 772.491,-251.399 762.187,-248.932 762.898,-255.896"/>
</g>
<!-- Node31 -->
<g id="node31" class="node"><title>Node31</title>
<g id="a_node31"><a xlink:href="../../da/d92/class_image_test.html#af4e55cf62f52fda3a5fc7b3c63dce083" target="_top" xlink:title="ImageTest::SetJSON">
<polygon fill="white" stroke="black" points="782.5,-193.5 782.5,-214.5 909.5,-214.5 909.5,-193.5 782.5,-193.5"/>
<text text-anchor="middle" x="846" y="-200.9" font-family="Helvetica,sans-Serif" font-size="12.00">ImageTest::SetJSON</text>
</a>
</g>
</g>
<!-- Node23&#45;&gt;Node31 -->
<g id="edge30" class="edge"><title>Node23&#45;&gt;Node31</title>
<path fill="none" stroke="midnightblue" d="M697.253,-253.469C706.918,-250.804 716.895,-247.643 726,-244 742.994,-237.201 744.947,-230.649 762,-224 768.309,-221.54 775.01,-219.321 781.762,-217.335"/>
<polygon fill="midnightblue" stroke="midnightblue" points="782.95,-220.638 791.651,-214.592 781.079,-213.893 782.95,-220.638"/>
</g>
<!-- Node32 -->
<g id="node32" class="node"><title>Node32</title>
<g id="a_node32"><a xlink:href="../../dd/d46/class_timestamp.html#ac1238e7ef53954ee90d6687601bc95e9" target="_top" xlink:title="Timestamp::Get">
<polygon fill="white" stroke="black" points="796,-153.5 796,-174.5 896,-174.5 896,-153.5 796,-153.5"/>
<text text-anchor="middle" x="846" y="-160.9" font-family="Helvetica,sans-Serif" font-size="12.00">Timestamp::Get</text>
</a>
</g>
</g>
<!-- Node23&#45;&gt;Node32 -->
<g id="edge31" class="edge"><title>Node23&#45;&gt;Node32</title>
<path fill="none" stroke="midnightblue" d="M697.204,-257.567C707.394,-254.605 717.595,-250.288 726,-244 750.902,-225.372 736.934,-202.407 762,-184 769.118,-178.773 777.418,-174.896 785.965,-172.023"/>
<polygon fill="midnightblue" stroke="midnightblue" points="787.052,-175.352 795.669,-169.188 785.089,-168.633 787.052,-175.352"/>
</g>
<!-- Node33 -->
<g id="node33" class="node"><title>Node33</title>
<g id="a_node33"><a xlink:href="../../da/d92/class_image_test.html#a8e026cbe52c6fd5eb83eef7196c93ada" target="_top" xlink:title="ImageTest::AppendLog">
<polygon fill="white" stroke="black" points="776.5,-113.5 776.5,-134.5 915.5,-134.5 915.5,-113.5 776.5,-113.5"/>
<text text-anchor="middle" x="846" y="-120.9" font-family="Helvetica,sans-Serif" font-size="12.00">ImageTest::AppendLog</text>
</a>
</g>
</g>
<!-- Node23&#45;&gt;Node33 -->
<g id="edge32" class="edge"><title>Node23&#45;&gt;Node33</title>
<path fill="none" stroke="midnightblue" d="M697.369,-258.971C707.785,-255.955 718.042,-251.262 726,-244 760.893,-212.16 726.827,-175.531 762,-144 763.749,-142.432 765.599,-140.982 767.531,-139.641"/>
<polygon fill="midnightblue" stroke="midnightblue" points="769.593,-142.491 776.47,-134.431 766.068,-136.443 769.593,-142.491"/>
</g>
<!-- Node25 -->
<g id="node25" class="node"><title>Node25</title>
<g id="a_node25"><a xlink:href="../../d6/d56/class_critical_c_string.html#afaf8265c286f1ee918bbd6d9cfd575ae" target="_top" xlink:title="CriticalCString::Clear">
<polygon fill="white" stroke="black" points="966,-73.5 966,-94.5 1094,-94.5 1094,-73.5 966,-73.5"/>
<text text-anchor="middle" x="1030" y="-80.9" font-family="Helvetica,sans-Serif" font-size="12.00">CriticalCString::Clear</text>
</a>
</g>
</g>
<!-- Node24&#45;&gt;Node25 -->
<g id="edge24" class="edge"><title>Node24&#45;&gt;Node25</title>
<path fill="none" stroke="midnightblue" d="M911.166,-84C925.552,-84 940.92,-84 955.646,-84"/>
<polygon fill="midnightblue" stroke="midnightblue" points="955.719,-87.5001 965.719,-84 955.719,-80.5001 955.719,-87.5001"/>
</g>
<!-- Node35 -->
<g id="node35" class="node"><title>Node35</title>
<g id="a_node35"><a xlink:href="../../d8/d08/class_timer.html#a0d8d7aab98c1c4b20e28aae017873294" target="_top" xlink:title="calculates elapsed time in milliseconds ">
<polygon fill="white" stroke="black" points="798,-33.5 798,-54.5 894,-54.5 894,-33.5 798,-33.5"/>
<text text-anchor="middle" x="846" y="-40.9" font-family="Helvetica,sans-Serif" font-size="12.00">Timer::Elapsed</text>
</a>
</g>
</g>
<!-- Node34&#45;&gt;Node35 -->
<g id="edge34" class="edge"><title>Node34&#45;&gt;Node35</title>
<path fill="none" stroke="midnightblue" d="M686.679,-222.123C700.682,-219.575 715.66,-214.365 726,-204 771.374,-158.516 716.226,-109.082 762,-64 769.207,-56.9015 778.471,-52.1664 788.183,-49.0391"/>
<polygon fill="midnightblue" stroke="midnightblue" points="789.226,-52.3831 797.984,-46.4197 787.419,-45.6204 789.226,-52.3831"/>
</g>
<!-- Node37&#45;&gt;Node10 -->
<g id="edge37" class="edge"><title>Node37&#45;&gt;Node10</title>
<path fill="none" stroke="midnightblue" d="M296.551,-321.006C325.788,-331.674 358.298,-343.507 360,-344 436.032,-366.019 459.686,-354.741 534,-382 565.708,-393.631 599.614,-412.612 621.921,-426.109"/>
<polygon fill="midnightblue" stroke="midnightblue" points="620.091,-429.092 630.444,-431.342 623.753,-423.127 620.091,-429.092"/>
</g>
<!-- Node38 -->
<g id="node38" class="node"><title>Node38</title>
<g id="a_node38"><a xlink:href="../../df/d22/class_imatest_lib_acq.html#af8b94cf2a548d2edbd61e0e39d7e5cce" target="_top" xlink:title="ImatestLibAcq::Open">
<polygon fill="white" stroke="black" points="384,-313.5 384,-334.5 510,-334.5 510,-313.5 384,-313.5"/>
<text text-anchor="middle" x="447" y="-320.9" font-family="Helvetica,sans-Serif" font-size="12.00">ImatestLibAcq::Open</text>
</a>
</g>
</g>
<!-- Node37&#45;&gt;Node38 -->
<g id="edge38" class="edge"><title>Node37&#45;&gt;Node38</title>
<path fill="none" stroke="midnightblue" d="M317.727,-310.911C335.839,-312.759 355.48,-314.763 373.823,-316.635"/>
<polygon fill="midnightblue" stroke="midnightblue" points="373.558,-320.126 383.861,-317.659 374.268,-313.162 373.558,-320.126"/>
</g>
<!-- Node39&#45;&gt;Node19 -->
<g id="edge40" class="edge"><title>Node39&#45;&gt;Node19</title>
<path fill="none" stroke="midnightblue" d="M317.727,-137.744C338.267,-135.543 360.776,-133.131 381.125,-130.951"/>
<polygon fill="midnightblue" stroke="midnightblue" points="381.663,-134.413 391.234,-129.868 380.918,-127.453 381.663,-134.413"/>
</g>
<!-- Node40 -->
<g id="node40" class="node"><title>Node40</title>
<g id="a_node40"><a xlink:href="../../d8/d29/class_image_acquisition.html#a87bc694942384075ece4dd9256215f0d" target="_top" xlink:title="ImageAcquisition::ThreadProc">
<polygon fill="white" stroke="black" points="360,-53.5 360,-74.5 534,-74.5 534,-53.5 360,-53.5"/>
<text text-anchor="middle" x="447" y="-60.9" font-family="Helvetica,sans-Serif" font-size="12.00">ImageAcquisition::ThreadProc</text>
</a>
</g>
</g>
<!-- Node39&#45;&gt;Node40 -->
<g id="edge41" class="edge"><title>Node39&#45;&gt;Node40</title>
<path fill="none" stroke="midnightblue" d="M298.343,-127.889C306.927,-124.701 315.756,-121.324 324,-118 354.912,-105.536 389.62,-90.0219 414.089,-78.8252"/>
<polygon fill="midnightblue" stroke="midnightblue" points="415.634,-81.9672 423.259,-74.6118 412.711,-75.6065 415.634,-81.9672"/>
</g>
<!-- Node41 -->
<g id="node41" class="node"><title>Node41</title>
<g id="a_node41"><a xlink:href="../../d8/d29/class_image_acquisition.html#abb79a26a0c95f3fae6d5469ad936d12c" target="_top" xlink:title="capture a single image into m_buf ">
<polygon fill="white" stroke="black" points="570.5,-0 570.5,-34 725.5,-34 725.5,-0 570.5,-0"/>
<text text-anchor="start" x="578.5" y="-20.4" font-family="Helvetica,sans-Serif" font-size="12.00">ImageAcquisition::Capture</text>
<text text-anchor="middle" x="648" y="-7.4" font-family="Helvetica,sans-Serif" font-size="12.00">Frame</text>
</a>
</g>
</g>
<!-- Node40&#45;&gt;Node41 -->
<g id="edge42" class="edge"><title>Node40&#45;&gt;Node41</title>
<path fill="none" stroke="midnightblue" d="M492.659,-53.4523C514.005,-48.4108 540.248,-42.2128 564.999,-36.3671"/>
<polygon fill="midnightblue" stroke="midnightblue" points="565.834,-39.7662 574.762,-34.0613 564.225,-32.9536 565.834,-39.7662"/>
</g>
<!-- Node42 -->
<g id="node42" class="node"><title>Node42</title>
<g id="a_node42"><a xlink:href="../../d3/d1e/class_critical_buf.html#abeb31c8a1c19e03799e9a7ee4397d86b" target="_top" xlink:title="CriticalBuf::Set">
<polygon fill="white" stroke="black" points="600.5,-53.5 600.5,-74.5 695.5,-74.5 695.5,-53.5 600.5,-53.5"/>
<text text-anchor="middle" x="648" y="-60.9" font-family="Helvetica,sans-Serif" font-size="12.00">CriticalBuf::Set</text>
</a>
</g>
</g>
<!-- Node40&#45;&gt;Node42 -->
<g id="edge43" class="edge"><title>Node40&#45;&gt;Node42</title>
<path fill="none" stroke="midnightblue" d="M534.127,-64C553.182,-64 572.903,-64 590.426,-64"/>
<polygon fill="midnightblue" stroke="midnightblue" points="590.468,-67.5001 600.468,-64 590.468,-60.5001 590.468,-67.5001"/>
</g>
<!-- Node44&#45;&gt;Node9 -->
<g id="edge46" class="edge"><title>Node44&#45;&gt;Node9</title>
<path fill="none" stroke="midnightblue" d="M305.532,-374.02C311.979,-376.929 318.285,-380.246 324,-384 343.445,-396.772 339.816,-410.431 360,-422 366.217,-425.564 373.032,-428.493 380.018,-430.9"/>
<polygon fill="midnightblue" stroke="midnightblue" points="379.024,-434.256 389.612,-433.87 381.094,-427.569 379.024,-434.256"/>
</g>
<!-- Node44&#45;&gt;Node12 -->
<g id="edge47" class="edge"><title>Node44&#45;&gt;Node12</title>
<path fill="none" stroke="midnightblue" d="M317.727,-372.549C341.438,-377.993 367.771,-384.039 390.377,-389.23"/>
<polygon fill="midnightblue" stroke="midnightblue" points="389.619,-392.646 400.148,-391.473 391.185,-385.824 389.619,-392.646"/>
</g>
<!-- Node45&#45;&gt;Node14 -->
<g id="edge49" class="edge"><title>Node45&#45;&gt;Node14</title>
<path fill="none" stroke="midnightblue" d="M317.765,-214.058C331.729,-217.355 346.34,-220.797 360,-224 370.066,-226.36 380.797,-228.865 391.144,-231.274"/>
<polygon fill="midnightblue" stroke="midnightblue" points="390.38,-234.69 400.913,-233.547 391.966,-227.872 390.38,-234.69"/>
</g>
<!-- Node45&#45;&gt;Node17 -->
<g id="edge50" class="edge"><title>Node45&#45;&gt;Node17</title>
<path fill="none" stroke="midnightblue" d="M317.727,-186.252C336.298,-183.03 356.477,-179.529 375.215,-176.279"/>
<polygon fill="midnightblue" stroke="midnightblue" points="375.906,-179.712 385.16,-174.554 374.709,-172.815 375.906,-179.712"/>
</g>
<!-- Node45&#45;&gt;Node18 -->
<g id="edge51" class="edge"><title>Node45&#45;&gt;Node18</title>
<path fill="none" stroke="midnightblue" d="M305.965,-215.124C312.27,-218.003 318.423,-221.285 324,-225 343.632,-238.077 339.611,-252.137 360,-264 363.726,-266.168 367.672,-268.101 371.744,-269.825"/>
<polygon fill="midnightblue" stroke="midnightblue" points="370.838,-273.224 381.43,-273.478 373.308,-266.674 370.838,-273.224"/>
</g>
<!-- Node45&#45;&gt;Node19 -->
<g id="edge52" class="edge"><title>Node45&#45;&gt;Node19</title>
<path fill="none" stroke="midnightblue" d="M302.598,-180.993C309.939,-177.994 317.267,-174.649 324,-171 341.583,-161.47 341.871,-152.446 360,-144 366.687,-140.885 373.899,-138.234 381.202,-135.983"/>
<polygon fill="midnightblue" stroke="midnightblue" points="382.511,-139.25 391.177,-133.155 380.602,-132.515 382.511,-139.25"/>
</g>
<!-- Node45&#45;&gt;Node21 -->
<g id="edge53" class="edge"><title>Node45&#45;&gt;Node21</title>
<path fill="none" stroke="midnightblue" d="M317.727,-200.073C333.671,-200.561 350.8,-201.086 367.185,-201.587"/>
<polygon fill="midnightblue" stroke="midnightblue" points="367.171,-205.088 377.273,-201.896 367.385,-198.092 367.171,-205.088"/>
</g>
</g>
</svg>
