<?xml version="1.0" encoding="UTF-8" standalone="no"?>
<!DOCTYPE svg PUBLIC "-//W3C//DTD SVG 1.1//EN"
 "http://www.w3.org/Graphics/SVG/1.1/DTD/svg11.dtd">
<!-- Generated by graphviz version 2.34.0 (20130907.0111)
 -->
<!-- Title: COperatorConsoleApp::OnSetup Pages: 1 -->
<svg width="1260pt" height="612pt"
 viewBox="0.00 0.00 1260.00 612.00" xmlns="http://www.w3.org/2000/svg" xmlns:xlink="http://www.w3.org/1999/xlink">
<g id="graph0" class="graph" transform="scale(1 1) rotate(0) translate(4 608)">
<title>COperatorConsoleApp::OnSetup</title>
<polygon fill="white" stroke="white" points="-4,4 -4,-608 1256,-608 1256,4 -4,4"/>
<!-- Node1 -->
<g id="node1" class="node"><title>Node1</title>
<polygon fill="#bfbfbf" stroke="black" points="0.5,-166 0.5,-200 137.5,-200 137.5,-166 0.5,-166"/>
<text text-anchor="start" x="8.5" y="-186.4" font-family="Helvetica,sans-Serif" font-size="12.00">COperatorConsoleApp</text>
<text text-anchor="middle" x="69" y="-173.4" font-family="Helvetica,sans-Serif" font-size="12.00">::OnSetup</text>
</g>
<!-- Node2 -->
<g id="node2" class="node"><title>Node2</title>
<g id="a_node2"><a xlink:href="../../d3/d9f/class_c_operator_console_app.html#aede77af6cae8053d49c752fd95910728" target="_top" xlink:title="This function allows for reallocation of the various image buffers when we change the image size...">
<polygon fill="white" stroke="black" points="174.5,-241 174.5,-275 311.5,-275 311.5,-241 174.5,-241"/>
<text text-anchor="start" x="182.5" y="-261.4" font-family="Helvetica,sans-Serif" font-size="12.00">COperatorConsoleApp</text>
<text text-anchor="middle" x="243" y="-248.4" font-family="Helvetica,sans-Serif" font-size="12.00">::ReInit</text>
</a>
</g>
</g>
<!-- Node1&#45;&gt;Node2 -->
<g id="edge1" class="edge"><title>Node1&#45;&gt;Node2</title>
<path fill="none" stroke="midnightblue" d="M109.029,-200.019C134.121,-210.96 166.907,-225.256 193.645,-236.915"/>
<polygon fill="midnightblue" stroke="midnightblue" points="192.262,-240.13 202.828,-240.919 195.06,-233.714 192.262,-240.13"/>
</g>
<!-- Node43 -->
<g id="node43" class="node"><title>Node43</title>
<g id="a_node43"><a xlink:href="../../d3/d9f/class_c_operator_console_app.html#a7bcf9790237d98d6b2182623b4e500fd" target="_top" xlink:title="This function writes items for the setup dialog to imatest.ini. ">
<polygon fill="white" stroke="black" points="174.5,-91 174.5,-125 311.5,-125 311.5,-91 174.5,-91"/>
<text text-anchor="start" x="182.5" y="-111.4" font-family="Helvetica,sans-Serif" font-size="12.00">COperatorConsoleApp</text>
<text text-anchor="middle" x="243" y="-98.4" font-family="Helvetica,sans-Serif" font-size="12.00">::WriteINISettings</text>
</a>
</g>
</g>
<!-- Node1&#45;&gt;Node43 -->
<g id="edge50" class="edge"><title>Node1&#45;&gt;Node43</title>
<path fill="none" stroke="midnightblue" d="M109.029,-165.981C134.121,-155.04 166.907,-140.744 193.645,-129.085"/>
<polygon fill="midnightblue" stroke="midnightblue" points="195.06,-132.286 202.828,-125.081 192.262,-125.87 195.06,-132.286"/>
</g>
<!-- Node3 -->
<g id="node3" class="node"><title>Node3</title>
<g id="a_node3"><a xlink:href="../../d7/da0/class_thread_control.html#afd86c1fc3e09d219cf48f5a15539b920" target="_top" xlink:title="ThreadControl::Quit">
<polygon fill="white" stroke="black" points="364,-347.5 364,-368.5 482,-368.5 482,-347.5 364,-347.5"/>
<text text-anchor="middle" x="423" y="-354.9" font-family="Helvetica,sans-Serif" font-size="12.00">ThreadControl::Quit</text>
</a>
</g>
</g>
<!-- Node2&#45;&gt;Node3 -->
<g id="edge2" class="edge"><title>Node2&#45;&gt;Node3</title>
<path fill="none" stroke="midnightblue" d="M262.112,-275.166C281.812,-292.977 314.934,-320.491 348,-337 353.358,-339.675 359.11,-342.057 364.952,-344.167"/>
<polygon fill="midnightblue" stroke="midnightblue" points="364.224,-347.614 374.818,-347.465 366.443,-340.975 364.224,-347.614"/>
</g>
<!-- Node4 -->
<g id="node4" class="node"><title>Node4</title>
<g id="a_node4"><a xlink:href="../../d3/d9f/class_c_operator_console_app.html#ac47de682b105a11015ceef305c225924" target="_top" xlink:title="COperatorConsoleApp\l::CheckFiles">
<polygon fill="white" stroke="black" points="354.5,-441 354.5,-475 491.5,-475 491.5,-441 354.5,-441"/>
<text text-anchor="start" x="362.5" y="-461.4" font-family="Helvetica,sans-Serif" font-size="12.00">COperatorConsoleApp</text>
<text text-anchor="middle" x="423" y="-448.4" font-family="Helvetica,sans-Serif" font-size="12.00">::CheckFiles</text>
</a>
</g>
</g>
<!-- Node2&#45;&gt;Node4 -->
<g id="edge3" class="edge"><title>Node2&#45;&gt;Node4</title>
<path fill="none" stroke="midnightblue" d="M249.825,-275.116C262.367,-309.503 295.148,-387.406 348,-431 350.031,-432.675 352.175,-434.251 354.403,-435.733"/>
<polygon fill="midnightblue" stroke="midnightblue" points="352.962,-438.946 363.357,-440.996 356.509,-432.911 352.962,-438.946"/>
</g>
<!-- Node6 -->
<g id="node6" class="node"><title>Node6</title>
<g id="a_node6"><a xlink:href="../../d3/d9f/class_c_operator_console_app.html#a8edea834120ba2acc0e16230ff5efb14" target="_top" xlink:title="COperatorConsoleApp\l::InitBlemishAcq">
<polygon fill="white" stroke="black" points="354.5,-135 354.5,-169 491.5,-169 491.5,-135 354.5,-135"/>
<text text-anchor="start" x="362.5" y="-155.4" font-family="Helvetica,sans-Serif" font-size="12.00">COperatorConsoleApp</text>
<text text-anchor="middle" x="423" y="-142.4" font-family="Helvetica,sans-Serif" font-size="12.00">::InitBlemishAcq</text>
</a>
</g>
</g>
<!-- Node2&#45;&gt;Node6 -->
<g id="edge5" class="edge"><title>Node2&#45;&gt;Node6</title>
<path fill="none" stroke="midnightblue" d="M262.646,-240.677C282.529,-222.952 315.558,-195.588 348,-178 351.086,-176.327 354.301,-174.727 357.588,-173.203"/>
<polygon fill="midnightblue" stroke="midnightblue" points="359.221,-176.309 366.993,-169.108 356.427,-169.891 359.221,-176.309"/>
</g>
<!-- Node11 -->
<g id="node11" class="node"><title>Node11</title>
<g id="a_node11"><a xlink:href="../../d8/d29/class_image_acquisition.html#af32c2cc8a87105465ba8620e77745c2b" target="_top" xlink:title="ImageAcquisition::GetInfo">
<polygon fill="white" stroke="black" points="348.5,-94.5 348.5,-115.5 497.5,-115.5 497.5,-94.5 348.5,-94.5"/>
<text text-anchor="middle" x="423" y="-101.9" font-family="Helvetica,sans-Serif" font-size="12.00">ImageAcquisition::GetInfo</text>
</a>
</g>
</g>
<!-- Node2&#45;&gt;Node11 -->
<g id="edge10" class="edge"><title>Node2&#45;&gt;Node11</title>
<path fill="none" stroke="midnightblue" d="M252.637,-240.824C267.882,-212.297 302.319,-155.293 348,-125 350.974,-123.028 354.136,-121.25 357.416,-119.646"/>
<polygon fill="midnightblue" stroke="midnightblue" points="359.097,-122.733 366.906,-115.574 356.336,-116.301 359.097,-122.733"/>
</g>
<!-- Node12 -->
<g id="node12" class="node"><title>Node12</title>
<g id="a_node12"><a xlink:href="../../d3/d9f/class_c_operator_console_app.html#a7e42ecea8d8270d3b3cf9552abc00eba" target="_top" xlink:title="COperatorConsoleApp\l::InitSFRplusAcq">
<polygon fill="white" stroke="black" points="354.5,-188 354.5,-222 491.5,-222 491.5,-188 354.5,-188"/>
<text text-anchor="start" x="362.5" y="-208.4" font-family="Helvetica,sans-Serif" font-size="12.00">COperatorConsoleApp</text>
<text text-anchor="middle" x="423" y="-195.4" font-family="Helvetica,sans-Serif" font-size="12.00">::InitSFRplusAcq</text>
</a>
</g>
</g>
<!-- Node2&#45;&gt;Node12 -->
<g id="edge11" class="edge"><title>Node2&#45;&gt;Node12</title>
<path fill="none" stroke="midnightblue" d="M301.3,-240.939C318.45,-235.832 337.407,-230.188 355.116,-224.915"/>
<polygon fill="midnightblue" stroke="midnightblue" points="356.222,-228.238 364.807,-222.029 354.224,-221.529 356.222,-228.238"/>
</g>
<!-- Node13 -->
<g id="node13" class="node"><title>Node13</title>
<g id="a_node13"><a xlink:href="../../d3/d9f/class_c_operator_console_app.html#a74df2a3e42b3980069fa3946b67ecf79" target="_top" xlink:title="COperatorConsoleApp\l::InitCamera">
<polygon fill="white" stroke="black" points="354.5,-41 354.5,-75 491.5,-75 491.5,-41 354.5,-41"/>
<text text-anchor="start" x="362.5" y="-61.4" font-family="Helvetica,sans-Serif" font-size="12.00">COperatorConsoleApp</text>
<text text-anchor="middle" x="423" y="-48.4" font-family="Helvetica,sans-Serif" font-size="12.00">::InitCamera</text>
</a>
</g>
</g>
<!-- Node2&#45;&gt;Node13 -->
<g id="edge14" class="edge"><title>Node2&#45;&gt;Node13</title>
<path fill="none" stroke="midnightblue" d="M253.423,-240.894C276.358,-199.477 334.212,-96.3722 348,-85 350.031,-83.3249 352.175,-81.7491 354.403,-80.267"/>
<polygon fill="midnightblue" stroke="midnightblue" points="356.509,-83.0888 363.357,-75.0041 352.962,-77.0541 356.509,-83.0888"/>
</g>
<!-- Node15 -->
<g id="node15" class="node"><title>Node15</title>
<g id="a_node15"><a xlink:href="../../d3/d9f/class_c_operator_console_app.html#aeb93b88acfe6d11d64f493f63f74bca6" target="_top" xlink:title="COperatorConsoleApp\l::AllocateImageBuf">
<polygon fill="white" stroke="black" points="354.5,-494 354.5,-528 491.5,-528 491.5,-494 354.5,-494"/>
<text text-anchor="start" x="362.5" y="-514.4" font-family="Helvetica,sans-Serif" font-size="12.00">COperatorConsoleApp</text>
<text text-anchor="middle" x="423" y="-501.4" font-family="Helvetica,sans-Serif" font-size="12.00">::AllocateImageBuf</text>
</a>
</g>
</g>
<!-- Node2&#45;&gt;Node15 -->
<g id="edge17" class="edge"><title>Node2&#45;&gt;Node15</title>
<path fill="none" stroke="midnightblue" d="M247.174,-275.1C255.774,-316.758 283.371,-424.431 348,-484 349.675,-485.544 351.445,-487.001 353.291,-488.376"/>
<polygon fill="midnightblue" stroke="midnightblue" points="351.515,-491.396 361.81,-493.897 355.322,-485.521 351.515,-491.396"/>
</g>
<!-- Node17 -->
<g id="node17" class="node"><title>Node17</title>
<g id="a_node17"><a xlink:href="../../d3/d9f/class_c_operator_console_app.html#a51ad7e6e8f370072c3e89d0d7e9e41a8" target="_top" xlink:title="COperatorConsoleApp\l::InitBlemishThread">
<polygon fill="white" stroke="black" points="354.5,-294 354.5,-328 491.5,-328 491.5,-294 354.5,-294"/>
<text text-anchor="start" x="362.5" y="-314.4" font-family="Helvetica,sans-Serif" font-size="12.00">COperatorConsoleApp</text>
<text text-anchor="middle" x="423" y="-301.4" font-family="Helvetica,sans-Serif" font-size="12.00">::InitBlemishThread</text>
</a>
</g>
</g>
<!-- Node2&#45;&gt;Node17 -->
<g id="edge19" class="edge"><title>Node2&#45;&gt;Node17</title>
<path fill="none" stroke="midnightblue" d="M301.3,-275.061C318.45,-280.168 337.407,-285.812 355.116,-291.085"/>
<polygon fill="midnightblue" stroke="midnightblue" points="354.224,-294.471 364.807,-293.971 356.222,-287.762 354.224,-294.471"/>
</g>
<!-- Node41 -->
<g id="node41" class="node"><title>Node41</title>
<g id="a_node41"><a xlink:href="../../d3/d9f/class_c_operator_console_app.html#af7328d2c00abb1d4a09a65492c69b2b0" target="_top" xlink:title="COperatorConsoleApp\l::InitSFRplusThread">
<polygon fill="white" stroke="black" points="354.5,-241 354.5,-275 491.5,-275 491.5,-241 354.5,-241"/>
<text text-anchor="start" x="362.5" y="-261.4" font-family="Helvetica,sans-Serif" font-size="12.00">COperatorConsoleApp</text>
<text text-anchor="middle" x="423" y="-248.4" font-family="Helvetica,sans-Serif" font-size="12.00">::InitSFRplusThread</text>
</a>
</g>
</g>
<!-- Node2&#45;&gt;Node41 -->
<g id="edge43" class="edge"><title>Node2&#45;&gt;Node41</title>
<path fill="none" stroke="midnightblue" d="M311.548,-258C322.206,-258 333.3,-258 344.169,-258"/>
<polygon fill="midnightblue" stroke="midnightblue" points="344.498,-261.5 354.498,-258 344.498,-254.5 344.498,-261.5"/>
</g>
<!-- Node42 -->
<g id="node42" class="node"><title>Node42</title>
<g id="a_node42"><a xlink:href="../../d3/d9f/class_c_operator_console_app.html#a603dc5a9e0c64b5d2a604965b023c936" target="_top" xlink:title="Called after MSG_SET_SFRPLUS is received. ">
<polygon fill="white" stroke="black" points="354.5,-388 354.5,-422 491.5,-422 491.5,-388 354.5,-388"/>
<text text-anchor="start" x="362.5" y="-408.4" font-family="Helvetica,sans-Serif" font-size="12.00">COperatorConsoleApp</text>
<text text-anchor="middle" x="423" y="-395.4" font-family="Helvetica,sans-Serif" font-size="12.00">::OnSetSFRplus</text>
</a>
</g>
</g>
<!-- Node2&#45;&gt;Node42 -->
<g id="edge49" class="edge"><title>Node2&#45;&gt;Node42</title>
<path fill="none" stroke="midnightblue" d="M254.689,-275.148C271.548,-300.891 306.682,-349.533 348,-378 350.703,-379.862 353.549,-381.612 356.489,-383.255"/>
<polygon fill="midnightblue" stroke="midnightblue" points="355.036,-386.443 365.535,-387.867 358.215,-380.207 355.036,-386.443"/>
</g>
<!-- Node5 -->
<g id="node5" class="node"><title>Node5</title>
<g id="a_node5"><a xlink:href="../../d3/d9f/class_c_operator_console_app.html#a9f0e96c6628d1c991c7a4bf6741ed6d9" target="_top" xlink:title="COperatorConsoleApp\l::FileExists">
<polygon fill="white" stroke="black" points="548.5,-441 548.5,-475 685.5,-475 685.5,-441 548.5,-441"/>
<text text-anchor="start" x="556.5" y="-461.4" font-family="Helvetica,sans-Serif" font-size="12.00">COperatorConsoleApp</text>
<text text-anchor="middle" x="617" y="-448.4" font-family="Helvetica,sans-Serif" font-size="12.00">::FileExists</text>
</a>
</g>
</g>
<!-- Node4&#45;&gt;Node5 -->
<g id="edge4" class="edge"><title>Node4&#45;&gt;Node5</title>
<path fill="none" stroke="midnightblue" d="M491.692,-458C506.748,-458 522.824,-458 538.248,-458"/>
<polygon fill="midnightblue" stroke="midnightblue" points="538.272,-461.5 548.272,-458 538.272,-454.5 538.272,-461.5"/>
</g>
<!-- Node7 -->
<g id="node7" class="node"><title>Node7</title>
<g id="a_node7"><a xlink:href="../../db/def/class_file_acquisition.html#a797827242308ce8dba037e6c36ca4b30" target="_top" xlink:title="Initializes the buffers inherited from class ImageAcquisition with 2 bytes per pixel. ">
<polygon fill="white" stroke="black" points="560,-167.5 560,-188.5 674,-188.5 674,-167.5 560,-167.5"/>
<text text-anchor="middle" x="617" y="-174.9" font-family="Helvetica,sans-Serif" font-size="12.00">FileAcquisition::Init</text>
</a>
</g>
</g>
<!-- Node6&#45;&gt;Node7 -->
<g id="edge6" class="edge"><title>Node6&#45;&gt;Node7</title>
<path fill="none" stroke="midnightblue" d="M491.692,-161.167C510.545,-163.72 530.997,-166.489 549.764,-169.031"/>
<polygon fill="midnightblue" stroke="midnightblue" points="549.322,-172.503 559.701,-170.376 550.261,-165.566 549.322,-172.503"/>
</g>
<!-- Node10 -->
<g id="node10" class="node"><title>Node10</title>
<g id="a_node10"><a xlink:href="../../db/def/class_file_acquisition.html#af5cffdb393fa3c0dffb9efd4af5fcc68" target="_top" xlink:title="FileAcquisition::Open">
<polygon fill="white" stroke="black" points="553,-127.5 553,-148.5 681,-148.5 681,-127.5 553,-127.5"/>
<text text-anchor="middle" x="617" y="-134.9" font-family="Helvetica,sans-Serif" font-size="12.00">FileAcquisition::Open</text>
</a>
</g>
</g>
<!-- Node6&#45;&gt;Node10 -->
<g id="edge9" class="edge"><title>Node6&#45;&gt;Node10</title>
<path fill="none" stroke="midnightblue" d="M491.692,-147.064C508.143,-145.865 525.812,-144.576 542.517,-143.358"/>
<polygon fill="midnightblue" stroke="midnightblue" points="543.056,-146.828 552.775,-142.61 542.547,-139.847 543.056,-146.828"/>
</g>
<!-- Node8 -->
<g id="node8" class="node"><title>Node8</title>
<g id="a_node8"><a xlink:href="../../d8/d29/class_image_acquisition.html#a09e47283e2ae3e6c352b8842bde2332a" target="_top" xlink:title="may be overridden, but be sure to call parent function also ">
<polygon fill="white" stroke="black" points="746.5,-95.5 746.5,-116.5 873.5,-116.5 873.5,-95.5 746.5,-95.5"/>
<text text-anchor="middle" x="810" y="-102.9" font-family="Helvetica,sans-Serif" font-size="12.00">ImageAcquisition::Init</text>
</a>
</g>
</g>
<!-- Node7&#45;&gt;Node8 -->
<g id="edge7" class="edge"><title>Node7&#45;&gt;Node8</title>
<path fill="none" stroke="midnightblue" d="M668.352,-167.454C678.926,-164.758 689.923,-161.589 700,-158 728.388,-147.888 759.259,-132.739 780.876,-121.397"/>
<polygon fill="midnightblue" stroke="midnightblue" points="782.638,-124.424 789.827,-116.64 779.353,-118.242 782.638,-124.424"/>
</g>
<!-- Node9 -->
<g id="node9" class="node"><title>Node9</title>
<g id="a_node9"><a xlink:href="../../d3/d1e/class_critical_buf.html#af55d2c476f545955912617611c18cbee" target="_top" xlink:title="CriticalBuf::Init">
<polygon fill="white" stroke="black" points="958.5,-95.5 958.5,-116.5 1049.5,-116.5 1049.5,-95.5 958.5,-95.5"/>
<text text-anchor="middle" x="1004" y="-102.9" font-family="Helvetica,sans-Serif" font-size="12.00">CriticalBuf::Init</text>
</a>
</g>
</g>
<!-- Node8&#45;&gt;Node9 -->
<g id="edge8" class="edge"><title>Node8&#45;&gt;Node9</title>
<path fill="none" stroke="midnightblue" d="M873.602,-106C897.72,-106 925.05,-106 948.358,-106"/>
<polygon fill="midnightblue" stroke="midnightblue" points="948.418,-109.5 958.418,-106 948.418,-102.5 948.418,-109.5"/>
</g>
<!-- Node12&#45;&gt;Node7 -->
<g id="edge12" class="edge"><title>Node12&#45;&gt;Node7</title>
<path fill="none" stroke="midnightblue" d="M491.692,-195.481C510.545,-192.83 530.997,-189.954 549.764,-187.314"/>
<polygon fill="midnightblue" stroke="midnightblue" points="550.286,-190.776 559.701,-185.917 549.311,-183.844 550.286,-190.776"/>
</g>
<!-- Node12&#45;&gt;Node10 -->
<g id="edge13" class="edge"><title>Node12&#45;&gt;Node10</title>
<path fill="none" stroke="midnightblue" d="M474.19,-187.902C482.239,-184.813 490.412,-181.466 498,-178 514.649,-170.395 516.956,-164.673 534,-158 540.326,-155.523 547.049,-153.288 553.82,-151.287"/>
<polygon fill="midnightblue" stroke="midnightblue" points="555.039,-154.581 563.731,-148.524 553.158,-147.838 555.039,-154.581"/>
</g>
<!-- Node13&#45;&gt;Node8 -->
<g id="edge15" class="edge"><title>Node13&#45;&gt;Node8</title>
<path fill="none" stroke="midnightblue" d="M491.626,-59.0541C547.76,-60.789 629.518,-65.3086 700,-77 722.145,-80.6733 746.313,-86.8718 766.252,-92.5973"/>
<polygon fill="midnightblue" stroke="midnightblue" points="765.386,-95.9905 775.966,-95.4444 767.354,-89.273 765.386,-95.9905"/>
</g>
<!-- Node14 -->
<g id="node14" class="node"><title>Node14</title>
<g id="a_node14"><a xlink:href="../../df/d22/class_imatest_lib_acq.html#af8b94cf2a548d2edbd61e0e39d7e5cce" target="_top" xlink:title="ImatestLibAcq::Open">
<polygon fill="white" stroke="black" points="554,-86.5 554,-107.5 680,-107.5 680,-86.5 554,-86.5"/>
<text text-anchor="middle" x="617" y="-93.9" font-family="Helvetica,sans-Serif" font-size="12.00">ImatestLibAcq::Open</text>
</a>
</g>
</g>
<!-- Node13&#45;&gt;Node14 -->
<g id="edge16" class="edge"><title>Node13&#45;&gt;Node14</title>
<path fill="none" stroke="midnightblue" d="M491.692,-71.7499C512.104,-75.8961 534.39,-80.4231 554.384,-84.4843"/>
<polygon fill="midnightblue" stroke="midnightblue" points="553.805,-87.9381 564.302,-86.4988 555.199,-81.0782 553.805,-87.9381"/>
</g>
<!-- Node16 -->
<g id="node16" class="node"><title>Node16</title>
<g id="a_node16"><a xlink:href="../../d8/d29/class_image_acquisition.html#aa77f9ea82fa88ae12c6b9fba9e13006e" target="_top" xlink:title="ImageAcquisition::BytesPer\lFrame">
<polygon fill="white" stroke="black" points="536.5,-494 536.5,-528 697.5,-528 697.5,-494 536.5,-494"/>
<text text-anchor="start" x="544.5" y="-514.4" font-family="Helvetica,sans-Serif" font-size="12.00">ImageAcquisition::BytesPer</text>
<text text-anchor="middle" x="617" y="-501.4" font-family="Helvetica,sans-Serif" font-size="12.00">Frame</text>
</a>
</g>
</g>
<!-- Node15&#45;&gt;Node16 -->
<g id="edge18" class="edge"><title>Node15&#45;&gt;Node16</title>
<path fill="none" stroke="midnightblue" d="M491.692,-511C502.882,-511 514.635,-511 526.264,-511"/>
<polygon fill="midnightblue" stroke="midnightblue" points="526.436,-514.5 536.436,-511 526.436,-507.5 526.436,-514.5"/>
</g>
<!-- Node18 -->
<g id="node18" class="node"><title>Node18</title>
<g id="a_node18"><a xlink:href="../../d8/d29/class_image_acquisition.html#a0964521623ef639396b854aceebbcbef" target="_top" xlink:title="ImageAcquisition::GetHeight">
<polygon fill="white" stroke="black" points="534.5,-287.5 534.5,-308.5 699.5,-308.5 699.5,-287.5 534.5,-287.5"/>
<text text-anchor="middle" x="617" y="-294.9" font-family="Helvetica,sans-Serif" font-size="12.00">ImageAcquisition::GetHeight</text>
</a>
</g>
</g>
<!-- Node17&#45;&gt;Node18 -->
<g id="edge20" class="edge"><title>Node17&#45;&gt;Node18</title>
<path fill="none" stroke="midnightblue" d="M491.692,-306.417C502.273,-305.7 513.357,-304.95 524.365,-304.204"/>
<polygon fill="midnightblue" stroke="midnightblue" points="524.695,-307.69 534.436,-303.523 524.222,-300.706 524.695,-307.69"/>
</g>
<!-- Node19 -->
<g id="node19" class="node"><title>Node19</title>
<g id="a_node19"><a xlink:href="../../d8/d29/class_image_acquisition.html#a589eb2272d57ee982b6970667b034a0d" target="_top" xlink:title="ImageAcquisition::GetWidth">
<polygon fill="white" stroke="black" points="536.5,-247.5 536.5,-268.5 697.5,-268.5 697.5,-247.5 536.5,-247.5"/>
<text text-anchor="middle" x="617" y="-254.9" font-family="Helvetica,sans-Serif" font-size="12.00">ImageAcquisition::GetWidth</text>
</a>
</g>
</g>
<!-- Node17&#45;&gt;Node19 -->
<g id="edge21" class="edge"><title>Node17&#45;&gt;Node19</title>
<path fill="none" stroke="midnightblue" d="M478.671,-293.985C496.279,-288.67 515.914,-282.915 534,-278 542.723,-275.63 552.003,-273.24 561.066,-270.979"/>
<polygon fill="midnightblue" stroke="midnightblue" points="561.908,-274.376 570.778,-268.582 560.231,-267.58 561.908,-274.376"/>
</g>
<!-- Node20 -->
<g id="node20" class="node"><title>Node20</title>
<g id="a_node20"><a xlink:href="../../d7/da0/class_thread_control.html#a5054f2ad6297cc65b4cb9146437f48b0" target="_top" xlink:title="ThreadControl::Init">
<polygon fill="white" stroke="black" points="561.5,-327.5 561.5,-348.5 672.5,-348.5 672.5,-327.5 561.5,-327.5"/>
<text text-anchor="middle" x="617" y="-334.9" font-family="Helvetica,sans-Serif" font-size="12.00">ThreadControl::Init</text>
</a>
</g>
</g>
<!-- Node17&#45;&gt;Node20 -->
<g id="edge22" class="edge"><title>Node17&#45;&gt;Node20</title>
<path fill="none" stroke="midnightblue" d="M491.692,-320.519C511.002,-323.235 531.99,-326.186 551.128,-328.877"/>
<polygon fill="midnightblue" stroke="midnightblue" points="550.856,-332.374 561.246,-330.3 551.831,-325.442 550.856,-332.374"/>
</g>
<!-- Node22 -->
<g id="node22" class="node"><title>Node22</title>
<g id="a_node22"><a xlink:href="../../da/d92/class_image_test.html#ab97f2724bc4060b68dd623c2ff8bbb8d" target="_top" xlink:title="ImageTest::Init">
<polygon fill="white" stroke="black" points="571,-207.5 571,-228.5 663,-228.5 663,-207.5 571,-207.5"/>
<text text-anchor="middle" x="617" y="-214.9" font-family="Helvetica,sans-Serif" font-size="12.00">ImageTest::Init</text>
</a>
</g>
</g>
<!-- Node17&#45;&gt;Node22 -->
<g id="edge24" class="edge"><title>Node17&#45;&gt;Node22</title>
<path fill="none" stroke="midnightblue" d="M481.035,-293.95C487.015,-291.079 492.8,-287.778 498,-284 519.003,-268.741 512.185,-252.075 534,-238 542.133,-232.752 551.529,-228.881 560.994,-226.026"/>
<polygon fill="midnightblue" stroke="midnightblue" points="562.071,-229.361 570.832,-223.402 560.268,-222.597 562.071,-229.361"/>
</g>
<!-- Node25 -->
<g id="node25" class="node"><title>Node25</title>
<g id="a_node25"><a xlink:href="../../da/d92/class_image_test.html#a372478d09c06cd7ab3684840add6215e" target="_top" xlink:title="param must be a pointer to a ThreadControl object; param&#45;&gt;m_data must point to an ImageTest object ...">
<polygon fill="white" stroke="black" points="547.5,-377.5 547.5,-398.5 686.5,-398.5 686.5,-377.5 547.5,-377.5"/>
<text text-anchor="middle" x="617" y="-384.9" font-family="Helvetica,sans-Serif" font-size="12.00">ImageTest::ThreadProc</text>
</a>
</g>
</g>
<!-- Node17&#45;&gt;Node25 -->
<g id="edge27" class="edge"><title>Node17&#45;&gt;Node25</title>
<path fill="none" stroke="midnightblue" d="M474.19,-328.098C482.239,-331.187 490.412,-334.534 498,-338 514.649,-345.605 517.355,-350.388 534,-358 546.743,-363.828 560.975,-369.358 573.959,-374.046"/>
<polygon fill="midnightblue" stroke="midnightblue" points="573.004,-377.421 583.599,-377.458 575.34,-370.822 573.004,-377.421"/>
</g>
<!-- Node21 -->
<g id="node21" class="node"><title>Node21</title>
<g id="a_node21"><a xlink:href="../../d7/da0/class_thread_control.html#ae2bdd5434d609141dda49566f81c9ce6" target="_top" xlink:title="ThreadControl::InitThread">
<polygon fill="white" stroke="black" points="736,-302.5 736,-323.5 884,-323.5 884,-302.5 736,-302.5"/>
<text text-anchor="middle" x="810" y="-309.9" font-family="Helvetica,sans-Serif" font-size="12.00">ThreadControl::InitThread</text>
</a>
</g>
</g>
<!-- Node20&#45;&gt;Node21 -->
<g id="edge23" class="edge"><title>Node20&#45;&gt;Node21</title>
<path fill="none" stroke="midnightblue" d="M672.733,-330.836C689.136,-328.689 707.513,-326.284 725.333,-323.951"/>
<polygon fill="midnightblue" stroke="midnightblue" points="726.28,-327.357 735.741,-322.589 725.371,-320.416 726.28,-327.357"/>
</g>
<!-- Node23 -->
<g id="node23" class="node"><title>Node23</title>
<g id="a_node23"><a xlink:href="../../da/d92/class_image_test.html#a19f4ba2329209f42293e735fe9797e7c" target="_top" xlink:title="ImageTest::AllocateRGB">
<polygon fill="white" stroke="black" points="737.5,-187.5 737.5,-208.5 882.5,-208.5 882.5,-187.5 737.5,-187.5"/>
<text text-anchor="middle" x="810" y="-194.9" font-family="Helvetica,sans-Serif" font-size="12.00">ImageTest::AllocateRGB</text>
</a>
</g>
</g>
<!-- Node22&#45;&gt;Node23 -->
<g id="edge25" class="edge"><title>Node22&#45;&gt;Node23</title>
<path fill="none" stroke="midnightblue" d="M663.264,-213.26C682.397,-211.257 705.291,-208.86 727.201,-206.565"/>
<polygon fill="midnightblue" stroke="midnightblue" points="727.601,-210.043 737.182,-205.52 726.872,-203.081 727.601,-210.043"/>
</g>
<!-- Node24 -->
<g id="node24" class="node"><title>Node24</title>
<g id="a_node24"><a xlink:href="../../da/d92/class_image_test.html#ad019b2cd49f147623a4f0ded3a927aee" target="_top" xlink:title="ImageTest::DeleteRGB">
<polygon fill="white" stroke="black" points="935.5,-182.5 935.5,-203.5 1072.5,-203.5 1072.5,-182.5 935.5,-182.5"/>
<text text-anchor="middle" x="1004" y="-189.9" font-family="Helvetica,sans-Serif" font-size="12.00">ImageTest::DeleteRGB</text>
</a>
</g>
</g>
<!-- Node23&#45;&gt;Node24 -->
<g id="edge26" class="edge"><title>Node23&#45;&gt;Node24</title>
<path fill="none" stroke="midnightblue" d="M882.767,-196.131C896.652,-195.769 911.26,-195.389 925.324,-195.023"/>
<polygon fill="midnightblue" stroke="midnightblue" points="925.545,-198.518 935.45,-194.759 925.363,-191.521 925.545,-198.518"/>
</g>
<!-- Node26 -->
<g id="node26" class="node"><title>Node26</title>
<g id="a_node26"><a xlink:href="../../d8/d08/class_timer.html#a4e607b129b392c11adddd9641a320436" target="_top" xlink:title="Timer::Start">
<polygon fill="white" stroke="black" points="771.5,-422.5 771.5,-443.5 848.5,-443.5 848.5,-422.5 771.5,-422.5"/>
<text text-anchor="middle" x="810" y="-429.9" font-family="Helvetica,sans-Serif" font-size="12.00">Timer::Start</text>
</a>
</g>
</g>
<!-- Node25&#45;&gt;Node26 -->
<g id="edge28" class="edge"><title>Node25&#45;&gt;Node26</title>
<path fill="none" stroke="midnightblue" d="M662.781,-398.551C692.401,-405.529 731.191,-414.668 761.374,-421.779"/>
<polygon fill="midnightblue" stroke="midnightblue" points="760.719,-425.221 771.255,-424.107 762.324,-418.407 760.719,-425.221"/>
</g>
<!-- Node27 -->
<g id="node27" class="node"><title>Node27</title>
<g id="a_node27"><a xlink:href="../../da/d92/class_image_test.html#a7334d76c1cc6780f46626be5b9ff1adb" target="_top" xlink:title="Runs the test pointed to by m_imatestFunc. ">
<polygon fill="white" stroke="black" points="761,-382.5 761,-403.5 859,-403.5 859,-382.5 761,-382.5"/>
<text text-anchor="middle" x="810" y="-389.9" font-family="Helvetica,sans-Serif" font-size="12.00">ImageTest::Run</text>
</a>
</g>
</g>
<!-- Node25&#45;&gt;Node27 -->
<g id="edge29" class="edge"><title>Node25&#45;&gt;Node27</title>
<path fill="none" stroke="midnightblue" d="M686.686,-389.798C707.729,-390.349 730.662,-390.949 750.925,-391.48"/>
<polygon fill="midnightblue" stroke="midnightblue" points="750.856,-394.979 760.944,-391.742 751.039,-387.981 750.856,-394.979"/>
</g>
<!-- Node38 -->
<g id="node38" class="node"><title>Node38</title>
<g id="a_node38"><a xlink:href="../../d8/d08/class_timer.html#a6379e797f968aaee6ac3bb12dc6b81c5" target="_top" xlink:title="Timer::Stop">
<polygon fill="white" stroke="black" points="771.5,-342.5 771.5,-363.5 848.5,-363.5 848.5,-342.5 771.5,-342.5"/>
<text text-anchor="middle" x="810" y="-349.9" font-family="Helvetica,sans-Serif" font-size="12.00">Timer::Stop</text>
</a>
</g>
</g>
<!-- Node25&#45;&gt;Node38 -->
<g id="edge40" class="edge"><title>Node25&#45;&gt;Node38</title>
<path fill="none" stroke="midnightblue" d="M675.306,-377.499C702.759,-372.468 735.253,-366.514 761.332,-361.735"/>
<polygon fill="midnightblue" stroke="midnightblue" points="762.147,-365.144 771.352,-359.899 760.885,-358.259 762.147,-365.144"/>
</g>
<!-- Node40 -->
<g id="node40" class="node"><title>Node40</title>
<g id="a_node40"><a xlink:href="../../d8/d08/class_timer.html#a40773739b5fe60e836329bbbe6ed65ce" target="_top" xlink:title="gets the elapsed time in milliseconds ">
<polygon fill="white" stroke="black" points="774.5,-462.5 774.5,-483.5 845.5,-483.5 845.5,-462.5 774.5,-462.5"/>
<text text-anchor="middle" x="810" y="-469.9" font-family="Helvetica,sans-Serif" font-size="12.00">Timer::Get</text>
</a>
</g>
</g>
<!-- Node25&#45;&gt;Node40 -->
<g id="edge42" class="edge"><title>Node25&#45;&gt;Node40</title>
<path fill="none" stroke="midnightblue" d="M639.1,-398.583C655.784,-407.067 679.584,-419.425 700,-431 716.312,-440.248 718.788,-445.56 736,-453 744.952,-456.869 754.85,-460.176 764.391,-462.922"/>
<polygon fill="midnightblue" stroke="midnightblue" points="763.584,-466.329 774.152,-465.579 765.423,-459.575 763.584,-466.329"/>
</g>
<!-- Node28 -->
<g id="node28" class="node"><title>Node28</title>
<g id="a_node28"><a xlink:href="../../da/d92/class_image_test.html#a3b66aa4095c338dd90f6e57e108f3038" target="_top" xlink:title="ImageTest::InitResults">
<polygon fill="white" stroke="black" points="939,-262.5 939,-283.5 1069,-283.5 1069,-262.5 939,-262.5"/>
<text text-anchor="middle" x="1004" y="-269.9" font-family="Helvetica,sans-Serif" font-size="12.00">ImageTest::InitResults</text>
</a>
</g>
</g>
<!-- Node27&#45;&gt;Node28 -->
<g id="edge30" class="edge"><title>Node27&#45;&gt;Node28</title>
<path fill="none" stroke="midnightblue" d="M859.162,-386.264C868.138,-383.304 876.91,-379.065 884,-373 913.627,-347.654 889.984,-317.884 920,-293 923.058,-290.465 926.385,-288.242 929.891,-286.292"/>
<polygon fill="midnightblue" stroke="midnightblue" points="931.402,-289.45 938.926,-281.99 928.392,-283.13 931.402,-289.45"/>
</g>
<!-- Node30 -->
<g id="node30" class="node"><title>Node30</title>
<g id="a_node30"><a xlink:href="../../da/d92/class_image_test.html#acfb4336b719c918a612640d9d8c63834" target="_top" xlink:title="converts from m_rawPixels to m_rgb ">
<polygon fill="white" stroke="black" points="920.5,-582.5 920.5,-603.5 1087.5,-603.5 1087.5,-582.5 920.5,-582.5"/>
<text text-anchor="middle" x="1004" y="-589.9" font-family="Helvetica,sans-Serif" font-size="12.00">ImageTest::PlanesFromRGB</text>
</a>
</g>
</g>
<!-- Node27&#45;&gt;Node30 -->
<g id="edge32" class="edge"><title>Node27&#45;&gt;Node30</title>
<path fill="none" stroke="midnightblue" d="M859.044,-398.289C868.351,-401.329 877.284,-405.967 884,-413 934.339,-465.714 868.851,-521.071 920,-573 921.287,-574.307 922.644,-575.534 924.06,-576.686"/>
<polygon fill="midnightblue" stroke="midnightblue" points="922.499,-579.853 932.759,-582.498 926.388,-574.032 922.499,-579.853"/>
</g>
<!-- Node31 -->
<g id="node31" class="node"><title>Node31</title>
<g id="a_node31"><a xlink:href="../../da/d92/class_image_test.html#ae9ca0a6007b17711f0159e61dbb62e39" target="_top" xlink:title="converts from m_rgb to rgb ">
<polygon fill="white" stroke="black" points="920.5,-542.5 920.5,-563.5 1087.5,-563.5 1087.5,-542.5 920.5,-542.5"/>
<text text-anchor="middle" x="1004" y="-549.9" font-family="Helvetica,sans-Serif" font-size="12.00">ImageTest::RGBFromPlanes</text>
</a>
</g>
</g>
<!-- Node27&#45;&gt;Node31 -->
<g id="edge33" class="edge"><title>Node27&#45;&gt;Node31</title>
<path fill="none" stroke="midnightblue" d="M859.055,-398.776C868.251,-401.793 877.136,-406.299 884,-413 923.843,-451.897 879.559,-494.725 920,-533 921.494,-534.414 923.069,-535.733 924.713,-536.964"/>
<polygon fill="midnightblue" stroke="midnightblue" points="923.108,-540.087 933.445,-542.409 926.812,-534.148 923.108,-540.087"/>
</g>
<!-- Node32 -->
<g id="node32" class="node"><title>Node32</title>
<g id="a_node32"><a xlink:href="../../da/d92/class_image_test.html#a92af335f5f0e96e443b4a938a69d4800" target="_top" xlink:title="ImageTest::SaveImage">
<polygon fill="white" stroke="black" points="935.5,-502.5 935.5,-523.5 1072.5,-523.5 1072.5,-502.5 935.5,-502.5"/>
<text text-anchor="middle" x="1004" y="-509.9" font-family="Helvetica,sans-Serif" font-size="12.00">ImageTest::SaveImage</text>
</a>
</g>
</g>
<!-- Node27&#45;&gt;Node32 -->
<g id="edge34" class="edge"><title>Node27&#45;&gt;Node32</title>
<path fill="none" stroke="midnightblue" d="M859.162,-399.736C868.138,-402.696 876.91,-406.935 884,-413 913.627,-438.346 889.984,-468.116 920,-493 921.997,-494.655 924.109,-496.178 926.31,-497.578"/>
<polygon fill="midnightblue" stroke="midnightblue" points="924.735,-500.705 935.194,-502.394 928.07,-494.551 924.735,-500.705"/>
</g>
<!-- Node33 -->
<g id="node33" class="node"><title>Node33</title>
<g id="a_node33"><a xlink:href="../../d0/d59/_documentation_2_operator-_console_2jsonhelpers_8cpp.html#aa7615c9874e29e598b0d0fd34967390d" target="_top" xlink:title="prepareTestSettings">
<polygon fill="white" stroke="black" points="942.5,-462.5 942.5,-483.5 1065.5,-483.5 1065.5,-462.5 942.5,-462.5"/>
<text text-anchor="middle" x="1004" y="-469.9" font-family="Helvetica,sans-Serif" font-size="12.00">prepareTestSettings</text>
</a>
</g>
</g>
<!-- Node27&#45;&gt;Node33 -->
<g id="edge35" class="edge"><title>Node27&#45;&gt;Node33</title>
<path fill="none" stroke="midnightblue" d="M859.364,-402.049C867.935,-404.805 876.507,-408.378 884,-413 904.357,-425.556 899.452,-440.76 920,-453 924.083,-455.432 928.445,-457.569 932.952,-459.445"/>
<polygon fill="midnightblue" stroke="midnightblue" points="931.773,-462.741 942.365,-462.945 934.212,-456.18 931.773,-462.741"/>
</g>
<!-- Node34 -->
<g id="node34" class="node"><title>Node34</title>
<g id="a_node34"><a xlink:href="../../da/d92/class_image_test.html#ad03c43bf481a29e5f8cd143446be4ca1" target="_top" xlink:title="This must be implemented by subclass. ">
<polygon fill="white" stroke="black" points="930.5,-422.5 930.5,-443.5 1077.5,-443.5 1077.5,-422.5 930.5,-422.5"/>
<text text-anchor="middle" x="1004" y="-429.9" font-family="Helvetica,sans-Serif" font-size="12.00">ImageTest::ParseResults</text>
</a>
</g>
</g>
<!-- Node27&#45;&gt;Node34 -->
<g id="edge36" class="edge"><title>Node27&#45;&gt;Node34</title>
<path fill="none" stroke="midnightblue" d="M859.45,-403.094C884.667,-408.347 915.741,-414.821 942.522,-420.4"/>
<polygon fill="midnightblue" stroke="midnightblue" points="942.051,-423.877 952.554,-422.49 943.478,-417.024 942.051,-423.877"/>
</g>
<!-- Node35 -->
<g id="node35" class="node"><title>Node35</title>
<g id="a_node35"><a xlink:href="../../da/d92/class_image_test.html#af4e55cf62f52fda3a5fc7b3c63dce083" target="_top" xlink:title="ImageTest::SetJSON">
<polygon fill="white" stroke="black" points="940.5,-382.5 940.5,-403.5 1067.5,-403.5 1067.5,-382.5 940.5,-382.5"/>
<text text-anchor="middle" x="1004" y="-389.9" font-family="Helvetica,sans-Serif" font-size="12.00">ImageTest::SetJSON</text>
</a>
</g>
</g>
<!-- Node27&#45;&gt;Node35 -->
<g id="edge37" class="edge"><title>Node27&#45;&gt;Node35</title>
<path fill="none" stroke="midnightblue" d="M859.45,-393C880.932,-393 906.664,-393 930.371,-393"/>
<polygon fill="midnightblue" stroke="midnightblue" points="930.389,-396.5 940.389,-393 930.389,-389.5 930.389,-396.5"/>
</g>
<!-- Node36 -->
<g id="node36" class="node"><title>Node36</title>
<g id="a_node36"><a xlink:href="../../dd/d46/class_timestamp.html#ac1238e7ef53954ee90d6687601bc95e9" target="_top" xlink:title="Timestamp::Get">
<polygon fill="white" stroke="black" points="954,-342.5 954,-363.5 1054,-363.5 1054,-342.5 954,-342.5"/>
<text text-anchor="middle" x="1004" y="-349.9" font-family="Helvetica,sans-Serif" font-size="12.00">Timestamp::Get</text>
</a>
</g>
</g>
<!-- Node27&#45;&gt;Node36 -->
<g id="edge38" class="edge"><title>Node27&#45;&gt;Node36</title>
<path fill="none" stroke="midnightblue" d="M859.45,-382.906C885.061,-377.571 916.714,-370.976 943.774,-365.339"/>
<polygon fill="midnightblue" stroke="midnightblue" points="944.822,-368.696 953.898,-363.23 943.394,-361.843 944.822,-368.696"/>
</g>
<!-- Node37 -->
<g id="node37" class="node"><title>Node37</title>
<g id="a_node37"><a xlink:href="../../da/d92/class_image_test.html#a8e026cbe52c6fd5eb83eef7196c93ada" target="_top" xlink:title="ImageTest::AppendLog">
<polygon fill="white" stroke="black" points="934.5,-302.5 934.5,-323.5 1073.5,-323.5 1073.5,-302.5 934.5,-302.5"/>
<text text-anchor="middle" x="1004" y="-309.9" font-family="Helvetica,sans-Serif" font-size="12.00">ImageTest::AppendLog</text>
</a>
</g>
</g>
<!-- Node27&#45;&gt;Node37 -->
<g id="edge39" class="edge"><title>Node27&#45;&gt;Node37</title>
<path fill="none" stroke="midnightblue" d="M859.364,-383.951C867.935,-381.195 876.507,-377.622 884,-373 904.357,-360.444 899.452,-345.24 920,-333 923.582,-330.867 927.378,-328.961 931.299,-327.258"/>
<polygon fill="midnightblue" stroke="midnightblue" points="932.571,-330.519 940.63,-323.642 930.041,-323.992 932.571,-330.519"/>
</g>
<!-- Node29 -->
<g id="node29" class="node"><title>Node29</title>
<g id="a_node29"><a xlink:href="../../d6/d56/class_critical_c_string.html#afaf8265c286f1ee918bbd6d9cfd575ae" target="_top" xlink:title="CriticalCString::Clear">
<polygon fill="white" stroke="black" points="1124,-262.5 1124,-283.5 1252,-283.5 1252,-262.5 1124,-262.5"/>
<text text-anchor="middle" x="1188" y="-269.9" font-family="Helvetica,sans-Serif" font-size="12.00">CriticalCString::Clear</text>
</a>
</g>
</g>
<!-- Node28&#45;&gt;Node29 -->
<g id="edge31" class="edge"><title>Node28&#45;&gt;Node29</title>
<path fill="none" stroke="midnightblue" d="M1069.17,-273C1083.55,-273 1098.92,-273 1113.65,-273"/>
<polygon fill="midnightblue" stroke="midnightblue" points="1113.72,-276.5 1123.72,-273 1113.72,-269.5 1113.72,-276.5"/>
</g>
<!-- Node39 -->
<g id="node39" class="node"><title>Node39</title>
<g id="a_node39"><a xlink:href="../../d8/d08/class_timer.html#a0d8d7aab98c1c4b20e28aae017873294" target="_top" xlink:title="calculates elapsed time in milliseconds ">
<polygon fill="white" stroke="black" points="956,-222.5 956,-243.5 1052,-243.5 1052,-222.5 956,-222.5"/>
<text text-anchor="middle" x="1004" y="-229.9" font-family="Helvetica,sans-Serif" font-size="12.00">Timer::Elapsed</text>
</a>
</g>
</g>
<!-- Node38&#45;&gt;Node39 -->
<g id="edge41" class="edge"><title>Node38&#45;&gt;Node39</title>
<path fill="none" stroke="midnightblue" d="M848.538,-349.202C860.958,-346.364 874.115,-341.457 884,-333 913.627,-307.654 889.984,-277.884 920,-253 927.453,-246.821 936.505,-242.494 945.856,-239.475"/>
<polygon fill="midnightblue" stroke="midnightblue" points="946.94,-242.806 955.654,-236.779 945.083,-236.057 946.94,-242.806"/>
</g>
<!-- Node41&#45;&gt;Node18 -->
<g id="edge44" class="edge"><title>Node41&#45;&gt;Node18</title>
<path fill="none" stroke="midnightblue" d="M491.692,-272.103C512.473,-276.432 535.198,-281.166 555.468,-285.389"/>
<polygon fill="midnightblue" stroke="midnightblue" points="555.006,-288.868 565.51,-287.481 556.434,-282.015 555.006,-288.868"/>
</g>
<!-- Node41&#45;&gt;Node19 -->
<g id="edge45" class="edge"><title>Node41&#45;&gt;Node19</title>
<path fill="none" stroke="midnightblue" d="M491.692,-258C502.882,-258 514.635,-258 526.264,-258"/>
<polygon fill="midnightblue" stroke="midnightblue" points="526.436,-261.5 536.436,-258 526.436,-254.5 526.436,-261.5"/>
</g>
<!-- Node41&#45;&gt;Node20 -->
<g id="edge46" class="edge"><title>Node41&#45;&gt;Node20</title>
<path fill="none" stroke="midnightblue" d="M480.505,-275.033C486.582,-277.685 492.535,-280.669 498,-284 516.793,-295.454 514.666,-307.487 534,-318 539.491,-320.986 545.429,-323.532 551.513,-325.702"/>
<polygon fill="midnightblue" stroke="midnightblue" points="550.557,-329.071 561.149,-328.812 552.707,-322.41 550.557,-329.071"/>
</g>
<!-- Node41&#45;&gt;Node22 -->
<g id="edge47" class="edge"><title>Node41&#45;&gt;Node22</title>
<path fill="none" stroke="midnightblue" d="M491.692,-243.897C514.341,-239.179 539.298,-233.98 560.87,-229.485"/>
<polygon fill="midnightblue" stroke="midnightblue" points="561.765,-232.874 570.841,-227.408 560.338,-226.021 561.765,-232.874"/>
</g>
<!-- Node41&#45;&gt;Node25 -->
<g id="edge48" class="edge"><title>Node41&#45;&gt;Node25</title>
<path fill="none" stroke="midnightblue" d="M485.551,-275.168C490.019,-277.721 494.239,-280.648 498,-284 525.304,-308.334 506.853,-333.491 534,-358 541.182,-364.484 549.88,-369.599 558.892,-373.626"/>
<polygon fill="midnightblue" stroke="midnightblue" points="557.763,-376.945 568.346,-377.44 560.381,-370.453 557.763,-376.945"/>
</g>
<!-- Node44 -->
<g id="node44" class="node"><title>Node44</title>
<g id="a_node44"><a xlink:href="../../d6/d56/imatest__library_8cpp.html#ab3b0d3cdae6c078ef623ac257ead5cef" target="_top" xlink:title="inifile">
<polygon fill="white" stroke="black" points="401,-0.5 401,-21.5 445,-21.5 445,-0.5 401,-0.5"/>
<text text-anchor="middle" x="423" y="-7.9" font-family="Helvetica,sans-Serif" font-size="12.00">inifile</text>
</a>
</g>
</g>
<!-- Node43&#45;&gt;Node44 -->
<g id="edge51" class="edge"><title>Node43&#45;&gt;Node44</title>
<path fill="none" stroke="midnightblue" d="M262.517,-90.8906C282.294,-73.4756 315.239,-46.8513 348,-31 361.46,-24.4873 377.36,-19.8388 390.965,-16.6726"/>
<polygon fill="midnightblue" stroke="midnightblue" points="391.81,-20.0708 400.843,-14.5341 390.329,-13.2293 391.81,-20.0708"/>
</g>
</g>
</svg>
