<?xml version="1.0" encoding="UTF-8" standalone="no"?>
<!DOCTYPE svg PUBLIC "-//W3C//DTD SVG 1.1//EN"
 "http://www.w3.org/Graphics/SVG/1.1/DTD/svg11.dtd">
<!-- Generated by graphviz version 2.34.0 (20130907.0111)
 -->
<!-- Title: COperatorConsoleApp::OnSetSFRplus Pages: 1 -->
<svg width="668pt" height="134pt"
 viewBox="0.00 0.00 668.00 134.00" xmlns="http://www.w3.org/2000/svg" xmlns:xlink="http://www.w3.org/1999/xlink">
<g id="graph0" class="graph" transform="scale(1 1) rotate(0) translate(4 130)">
<title>COperatorConsoleApp::OnSetSFRplus</title>
<polygon fill="white" stroke="white" points="-4,4 -4,-130 664,-130 664,4 -4,4"/>
<!-- Node1 -->
<g id="node1" class="node"><title>Node1</title>
<polygon fill="#bfbfbf" stroke="black" points="0.5,-46 0.5,-80 137.5,-80 137.5,-46 0.5,-46"/>
<text text-anchor="start" x="8.5" y="-66.4" font-family="Helvetica,sans-Serif" font-size="12.00">COperatorConsoleApp</text>
<text text-anchor="middle" x="69" y="-53.4" font-family="Helvetica,sans-Serif" font-size="12.00">::OnSetSFRplus</text>
</g>
<!-- Node2 -->
<g id="node2" class="node"><title>Node2</title>
<g id="a_node2"><a xlink:href="../../d3/d9f/class_c_operator_console_app.html#a7f0cd7b21cee2171dea973e4e6e7bb9d" target="_top" xlink:title="Init perform application&#45;specific initialization. ">
<polygon fill="white" stroke="black" points="174.5,-92 174.5,-126 311.5,-126 311.5,-92 174.5,-92"/>
<text text-anchor="start" x="182.5" y="-112.4" font-family="Helvetica,sans-Serif" font-size="12.00">COperatorConsoleApp</text>
<text text-anchor="middle" x="243" y="-99.4" font-family="Helvetica,sans-Serif" font-size="12.00">::Init</text>
</a>
</g>
</g>
<!-- Node1&#45;&gt;Node2 -->
<g id="edge1" class="edge"><title>Node1&#45;&gt;Node2</title>
<path fill="none" stroke="midnightblue" d="M143.964,-82.7812C155.358,-85.8283 167.039,-88.9523 178.187,-91.9336"/>
<polygon fill="midnightblue" stroke="midnightblue" points="144.611,-79.3312 134.046,-80.1287 142.803,-86.0936 144.611,-79.3312"/>
</g>
<!-- Node4 -->
<g id="node4" class="node"><title>Node4</title>
<g id="a_node4"><a xlink:href="../../d3/d9f/class_c_operator_console_app.html#a7041d197c4e6549f2cb7219981b4eec1" target="_top" xlink:title="Intercepts messages of interest before Windows or MFC. ">
<polygon fill="white" stroke="black" points="522,-23 522,-57 660,-57 660,-23 522,-23"/>
<text text-anchor="start" x="530" y="-43.4" font-family="Helvetica,sans-Serif" font-size="12.00">COperatorConsoleApp</text>
<text text-anchor="middle" x="591" y="-30.4" font-family="Helvetica,sans-Serif" font-size="12.00">::PreTranslateMessage</text>
</a>
</g>
</g>
<!-- Node1&#45;&gt;Node4 -->
<g id="edge3" class="edge"><title>Node1&#45;&gt;Node4</title>
<path fill="none" stroke="midnightblue" d="M147.908,-59.5541C249.465,-55.0621 425.462,-47.2776 521.924,-43.011"/>
<polygon fill="midnightblue" stroke="midnightblue" points="147.55,-56.0664 137.714,-60.005 147.859,-63.0596 147.55,-56.0664"/>
</g>
<!-- Node5 -->
<g id="node5" class="node"><title>Node5</title>
<g id="a_node5"><a xlink:href="../../d3/d9f/class_c_operator_console_app.html#aede77af6cae8053d49c752fd95910728" target="_top" xlink:title="This function allows for reallocation of the various image buffers when we change the image size...">
<polygon fill="white" stroke="black" points="174.5,-0 174.5,-34 311.5,-34 311.5,-0 174.5,-0"/>
<text text-anchor="start" x="182.5" y="-20.4" font-family="Helvetica,sans-Serif" font-size="12.00">COperatorConsoleApp</text>
<text text-anchor="middle" x="243" y="-7.4" font-family="Helvetica,sans-Serif" font-size="12.00">::ReInit</text>
</a>
</g>
</g>
<!-- Node1&#45;&gt;Node5 -->
<g id="edge4" class="edge"><title>Node1&#45;&gt;Node5</title>
<path fill="none" stroke="midnightblue" d="M143.964,-43.2188C155.358,-40.1717 167.039,-37.0477 178.187,-34.0664"/>
<polygon fill="midnightblue" stroke="midnightblue" points="142.803,-39.9064 134.046,-45.8713 144.611,-46.6688 142.803,-39.9064"/>
</g>
<!-- Node3 -->
<g id="node3" class="node"><title>Node3</title>
<g id="a_node3"><a xlink:href="../../d3/d9f/class_c_operator_console_app.html#a94f4b258145e77e31644beb999bf099a" target="_top" xlink:title="COperatorConsoleApp initialization. ">
<polygon fill="white" stroke="black" points="348.5,-92 348.5,-126 485.5,-126 485.5,-92 348.5,-92"/>
<text text-anchor="start" x="356.5" y="-112.4" font-family="Helvetica,sans-Serif" font-size="12.00">COperatorConsoleApp</text>
<text text-anchor="middle" x="417" y="-99.4" font-family="Helvetica,sans-Serif" font-size="12.00">::InitInstance</text>
</a>
</g>
</g>
<!-- Node2&#45;&gt;Node3 -->
<g id="edge2" class="edge"><title>Node2&#45;&gt;Node3</title>
<path fill="none" stroke="midnightblue" d="M322.134,-109C330.846,-109 339.666,-109 348.233,-109"/>
<polygon fill="midnightblue" stroke="midnightblue" points="321.979,-105.5 311.979,-109 321.979,-112.5 321.979,-105.5"/>
</g>
<!-- Node6 -->
<g id="node6" class="node"><title>Node6</title>
<g id="a_node6"><a xlink:href="../../d3/d9f/class_c_operator_console_app.html#a620f8d2eed65d743bb177abcb90936e6" target="_top" xlink:title="Called after MSG_SETUP is received. ">
<polygon fill="white" stroke="black" points="348.5,-0 348.5,-34 485.5,-34 485.5,-0 348.5,-0"/>
<text text-anchor="start" x="356.5" y="-20.4" font-family="Helvetica,sans-Serif" font-size="12.00">COperatorConsoleApp</text>
<text text-anchor="middle" x="417" y="-7.4" font-family="Helvetica,sans-Serif" font-size="12.00">::OnSetup</text>
</a>
</g>
</g>
<!-- Node5&#45;&gt;Node6 -->
<g id="edge5" class="edge"><title>Node5&#45;&gt;Node6</title>
<path fill="none" stroke="midnightblue" d="M322.134,-17C330.846,-17 339.666,-17 348.233,-17"/>
<polygon fill="midnightblue" stroke="midnightblue" points="321.979,-13.5001 311.979,-17 321.979,-20.5001 321.979,-13.5001"/>
</g>
<!-- Node6&#45;&gt;Node4 -->
<g id="edge6" class="edge"><title>Node6&#45;&gt;Node4</title>
<path fill="none" stroke="midnightblue" d="M496.054,-27.4374C504.696,-28.5931 513.446,-29.7632 521.952,-30.9005"/>
<polygon fill="midnightblue" stroke="midnightblue" points="496.355,-23.9466 485.979,-26.0902 495.427,-30.8848 496.355,-23.9466"/>
</g>
</g>
</svg>
