<?xml version="1.0" encoding="UTF-8" standalone="no"?>
<!DOCTYPE svg PUBLIC "-//W3C//DTD SVG 1.1//EN"
 "http://www.w3.org/Graphics/SVG/1.1/DTD/svg11.dtd">
<!-- Generated by graphviz version 2.34.0 (20130907.0111)
 -->
<!-- Title: COperatorConsoleApp::ReadPassFail Pages: 1 -->
<svg width="312pt" height="123pt"
 viewBox="0.00 0.00 312.00 123.00" xmlns="http://www.w3.org/2000/svg" xmlns:xlink="http://www.w3.org/1999/xlink">
<g id="graph0" class="graph" transform="scale(1 1) rotate(0) translate(4 119)">
<title>COperatorConsoleApp::ReadPassFail</title>
<polygon fill="white" stroke="white" points="-4,4 -4,-119 308,-119 308,4 -4,4"/>
<!-- Node1 -->
<g id="node1" class="node"><title>Node1</title>
<polygon fill="#bfbfbf" stroke="black" points="0.5,-47 0.5,-81 137.5,-81 137.5,-47 0.5,-47"/>
<text text-anchor="start" x="8.5" y="-67.4" font-family="Helvetica,sans-Serif" font-size="12.00">COperatorConsoleApp</text>
<text text-anchor="middle" x="69" y="-54.4" font-family="Helvetica,sans-Serif" font-size="12.00">::ReadPassFail</text>
</g>
<!-- Node2 -->
<g id="node2" class="node"><title>Node2</title>
<g id="a_node2"><a xlink:href="../../db/db5/_documentation_2_operator-_console_2_operator_console_8cpp.html#a5009a154818ee3f0d0da7531e4bf98a4" target="_top" xlink:title="Adds a data_type string and key string to the std::vector&lt;std::string&gt; data_types and keys...">
<polygon fill="white" stroke="black" points="174.5,-93.5 174.5,-114.5 303.5,-114.5 303.5,-93.5 174.5,-93.5"/>
<text text-anchor="middle" x="239" y="-100.9" font-family="Helvetica,sans-Serif" font-size="12.00">addDataTypeAndKey</text>
</a>
</g>
</g>
<!-- Node1&#45;&gt;Node2 -->
<g id="edge1" class="edge"><title>Node1&#45;&gt;Node2</title>
<path fill="none" stroke="midnightblue" d="M137.848,-80.1542C153.09,-83.7834 169.07,-87.588 183.676,-91.0657"/>
<polygon fill="midnightblue" stroke="midnightblue" points="183.003,-94.5034 193.542,-93.4148 184.625,-87.6937 183.003,-94.5034"/>
</g>
<!-- Node3 -->
<g id="node3" class="node"><title>Node3</title>
<g id="a_node3"><a xlink:href="../../d3/d96/structentry.html#a422ec1e4cfe0d549468f987b55327919" target="_top" xlink:title="A member function for conditionally assigning the variable &#39;value&#39; to &#39;input&#39;. ">
<polygon fill="white" stroke="black" points="181,-53.5 181,-74.5 297,-74.5 297,-53.5 181,-53.5"/>
<text text-anchor="middle" x="239" y="-60.9" font-family="Helvetica,sans-Serif" font-size="12.00">entry::assign_value</text>
</a>
</g>
</g>
<!-- Node1&#45;&gt;Node3 -->
<g id="edge2" class="edge"><title>Node1&#45;&gt;Node3</title>
<path fill="none" stroke="midnightblue" d="M137.848,-64C148.683,-64 159.89,-64 170.712,-64"/>
<polygon fill="midnightblue" stroke="midnightblue" points="170.944,-67.5001 180.944,-64 170.944,-60.5001 170.944,-67.5001"/>
</g>
<!-- Node4 -->
<g id="node4" class="node"><title>Node4</title>
<g id="a_node4"><a xlink:href="../../de/ddc/structmin_max_entry.html#ad2624259bf0e95269cfcf3d900ba9d44" target="_top" xlink:title="A member function for conditionally assigning the variable &#39;value&#39; to &#39;input&#39;. ">
<polygon fill="white" stroke="black" points="177,-0 177,-34 301,-34 301,-0 177,-0"/>
<text text-anchor="start" x="185" y="-20.4" font-family="Helvetica,sans-Serif" font-size="12.00">minMaxEntry::assign</text>
<text text-anchor="middle" x="239" y="-7.4" font-family="Helvetica,sans-Serif" font-size="12.00">_value</text>
</a>
</g>
</g>
<!-- Node1&#45;&gt;Node4 -->
<g id="edge3" class="edge"><title>Node1&#45;&gt;Node4</title>
<path fill="none" stroke="midnightblue" d="M131.127,-46.899C142.854,-43.6181 155.226,-40.1571 167.227,-36.7995"/>
<polygon fill="midnightblue" stroke="midnightblue" points="168.512,-40.0744 177.2,-34.0096 166.626,-33.3333 168.512,-40.0744"/>
</g>
</g>
</svg>
