<?xml version="1.0" encoding="UTF-8" standalone="no"?>
<!DOCTYPE svg PUBLIC "-//W3C//DTD SVG 1.1//EN"
 "http://www.w3.org/Graphics/SVG/1.1/DTD/svg11.dtd">
<!-- Generated by graphviz version 2.34.0 (20130907.0111)
 -->
<!-- Title: COperatorConsoleApp::GetResults Pages: 1 -->
<svg width="328pt" height="190pt"
 viewBox="0.00 0.00 328.00 190.00" xmlns="http://www.w3.org/2000/svg" xmlns:xlink="http://www.w3.org/1999/xlink">
<g id="graph0" class="graph" transform="scale(1 1) rotate(0) translate(4 186)">
<title>COperatorConsoleApp::GetResults</title>
<polygon fill="white" stroke="white" points="-4,4 -4,-186 324,-186 324,4 -4,4"/>
<!-- Node1 -->
<g id="node1" class="node"><title>Node1</title>
<polygon fill="#bfbfbf" stroke="black" points="0.5,-74 0.5,-108 137.5,-108 137.5,-74 0.5,-74"/>
<text text-anchor="start" x="8.5" y="-94.4" font-family="Helvetica,sans-Serif" font-size="12.00">COperatorConsoleApp</text>
<text text-anchor="middle" x="69" y="-81.4" font-family="Helvetica,sans-Serif" font-size="12.00">::GetResults</text>
</g>
<!-- Node2 -->
<g id="node2" class="node"><title>Node2</title>
<g id="a_node2"><a xlink:href="../../da/d92/class_image_test.html#a2dfac15fc3e18dcd1400d2e6fe7f4b1a" target="_top" xlink:title="ImageTest::GetFailInfo">
<polygon fill="white" stroke="black" points="180,-160.5 180,-181.5 314,-181.5 314,-160.5 180,-160.5"/>
<text text-anchor="middle" x="247" y="-167.9" font-family="Helvetica,sans-Serif" font-size="12.00">ImageTest::GetFailInfo</text>
</a>
</g>
</g>
<!-- Node1&#45;&gt;Node2 -->
<g id="edge1" class="edge"><title>Node1&#45;&gt;Node2</title>
<path fill="none" stroke="midnightblue" d="M95.5584,-108.194C116.055,-121.369 145.935,-139.23 174,-151 179.518,-153.314 185.385,-155.444 191.296,-157.38"/>
<polygon fill="midnightblue" stroke="midnightblue" points="190.644,-160.842 201.232,-160.455 192.714,-154.155 190.644,-160.842"/>
</g>
<!-- Node3 -->
<g id="node3" class="node"><title>Node3</title>
<g id="a_node3"><a xlink:href="../../da/d92/class_image_test.html#ada4d8a43edec3fa01bbc4b01ef4b6b0e" target="_top" xlink:title="ImageTest::GetJSON">
<polygon fill="white" stroke="black" points="183,-120.5 183,-141.5 311,-141.5 311,-120.5 183,-120.5"/>
<text text-anchor="middle" x="247" y="-127.9" font-family="Helvetica,sans-Serif" font-size="12.00">ImageTest::GetJSON</text>
</a>
</g>
</g>
<!-- Node1&#45;&gt;Node3 -->
<g id="edge2" class="edge"><title>Node1&#45;&gt;Node3</title>
<path fill="none" stroke="midnightblue" d="M137.543,-106.351C154.722,-110.255 173.003,-114.41 189.564,-118.174"/>
<polygon fill="midnightblue" stroke="midnightblue" points="189.102,-121.658 199.629,-120.461 190.653,-114.832 189.102,-121.658"/>
</g>
<!-- Node4 -->
<g id="node4" class="node"><title>Node4</title>
<g id="a_node4"><a xlink:href="../../da/d92/class_image_test.html#aec44cc808c82707c05710bdaf2b10b4a" target="_top" xlink:title="ImageTest::GetLog">
<polygon fill="white" stroke="black" points="189,-80.5 189,-101.5 305,-101.5 305,-80.5 189,-80.5"/>
<text text-anchor="middle" x="247" y="-87.9" font-family="Helvetica,sans-Serif" font-size="12.00">ImageTest::GetLog</text>
</a>
</g>
</g>
<!-- Node1&#45;&gt;Node4 -->
<g id="edge3" class="edge"><title>Node1&#45;&gt;Node4</title>
<path fill="none" stroke="midnightblue" d="M137.543,-91C151.061,-91 165.262,-91 178.77,-91"/>
<polygon fill="midnightblue" stroke="midnightblue" points="178.941,-94.5001 188.941,-91 178.941,-87.5001 178.941,-94.5001"/>
</g>
<!-- Node5 -->
<g id="node5" class="node"><title>Node5</title>
<g id="a_node5"><a xlink:href="../../da/d92/class_image_test.html#a0f7d70f970bde7af57011132e4cb49fc" target="_top" xlink:title="ImageTest::GetName">
<polygon fill="white" stroke="black" points="183,-40.5 183,-61.5 311,-61.5 311,-40.5 183,-40.5"/>
<text text-anchor="middle" x="247" y="-47.9" font-family="Helvetica,sans-Serif" font-size="12.00">ImageTest::GetName</text>
</a>
</g>
</g>
<!-- Node1&#45;&gt;Node5 -->
<g id="edge4" class="edge"><title>Node1&#45;&gt;Node5</title>
<path fill="none" stroke="midnightblue" d="M137.543,-75.6494C154.722,-71.7449 173.003,-67.5902 189.564,-63.8263"/>
<polygon fill="midnightblue" stroke="midnightblue" points="190.653,-67.1682 199.629,-61.539 189.102,-60.3423 190.653,-67.1682"/>
</g>
<!-- Node6 -->
<g id="node6" class="node"><title>Node6</title>
<g id="a_node6"><a xlink:href="../../da/d92/class_image_test.html#a4cf585eeef3f72a8721af5c1c3daa781" target="_top" xlink:title="ImageTest::GetSummary">
<polygon fill="white" stroke="black" points="174,-0.5 174,-21.5 320,-21.5 320,-0.5 174,-0.5"/>
<text text-anchor="middle" x="247" y="-7.9" font-family="Helvetica,sans-Serif" font-size="12.00">ImageTest::GetSummary</text>
</a>
</g>
</g>
<!-- Node1&#45;&gt;Node6 -->
<g id="edge5" class="edge"><title>Node1&#45;&gt;Node6</title>
<path fill="none" stroke="midnightblue" d="M95.5584,-73.806C116.055,-60.6306 145.935,-42.7704 174,-31 179.518,-28.6857 185.385,-26.556 191.296,-24.6197"/>
<polygon fill="midnightblue" stroke="midnightblue" points="192.714,-27.8449 201.232,-21.545 190.644,-21.1578 192.714,-27.8449"/>
</g>
</g>
</svg>
