<?xml version="1.0" encoding="UTF-8" standalone="no"?>
<!DOCTYPE svg PUBLIC "-//W3C//DTD SVG 1.1//EN"
 "http://www.w3.org/Graphics/SVG/1.1/DTD/svg11.dtd">
<!-- Generated by graphviz version 2.34.0 (20130907.0111)
 -->
<!-- Title: COperatorConsoleApp::OnSetup Pages: 1 -->
<svg width="1260pt" height="610pt"
 viewBox="0.00 0.00 1260.00 610.00" xmlns="http://www.w3.org/2000/svg" xmlns:xlink="http://www.w3.org/1999/xlink">
<g id="graph0" class="graph" transform="scale(1 1) rotate(0) translate(4 606)">
<title>COperatorConsoleApp::OnSetup</title>
<polygon fill="white" stroke="white" points="-4,4 -4,-606 1256,-606 1256,4 -4,4"/>
<!-- Node1 -->
<g id="node1" class="node"><title>Node1</title>
<polygon fill="#bfbfbf" stroke="black" points="0.5,-317 0.5,-351 137.5,-351 137.5,-317 0.5,-317"/>
<text text-anchor="start" x="8.5" y="-337.4" font-family="Helvetica,sans-Serif" font-size="12.00">COperatorConsoleApp</text>
<text text-anchor="middle" x="69" y="-324.4" font-family="Helvetica,sans-Serif" font-size="12.00">::OnSetup</text>
</g>
<!-- Node2 -->
<g id="node2" class="node"><title>Node2</title>
<g id="a_node2"><a xlink:href="../../d3/d9f/class_c_operator_console_app.html#aede77af6cae8053d49c752fd95910728" target="_top" xlink:title="This function allows for reallocation of the various image buffers when we change the image size...">
<polygon fill="white" stroke="black" points="174.5,-344 174.5,-378 311.5,-378 311.5,-344 174.5,-344"/>
<text text-anchor="start" x="182.5" y="-364.4" font-family="Helvetica,sans-Serif" font-size="12.00">COperatorConsoleApp</text>
<text text-anchor="middle" x="243" y="-351.4" font-family="Helvetica,sans-Serif" font-size="12.00">::ReInit</text>
</a>
</g>
</g>
<!-- Node1&#45;&gt;Node2 -->
<g id="edge1" class="edge"><title>Node1&#45;&gt;Node2</title>
<path fill="none" stroke="midnightblue" d="M137.979,-344.671C146.55,-346.017 155.372,-347.401 164.082,-348.769"/>
<polygon fill="midnightblue" stroke="midnightblue" points="163.811,-352.269 174.233,-350.362 164.897,-345.354 163.811,-352.269"/>
</g>
<!-- Node43 -->
<g id="node43" class="node"><title>Node43</title>
<g id="a_node43"><a xlink:href="../../d3/d9f/class_c_operator_console_app.html#a7bcf9790237d98d6b2182623b4e500fd" target="_top" xlink:title="This function writes items for the setup dialog to imatest.ini. ">
<polygon fill="white" stroke="black" points="174.5,-291 174.5,-325 311.5,-325 311.5,-291 174.5,-291"/>
<text text-anchor="start" x="182.5" y="-311.4" font-family="Helvetica,sans-Serif" font-size="12.00">COperatorConsoleApp</text>
<text text-anchor="middle" x="243" y="-298.4" font-family="Helvetica,sans-Serif" font-size="12.00">::WriteINISettings</text>
</a>
</g>
</g>
<!-- Node1&#45;&gt;Node43 -->
<g id="edge50" class="edge"><title>Node1&#45;&gt;Node43</title>
<path fill="none" stroke="midnightblue" d="M137.979,-323.724C146.55,-322.428 155.372,-321.095 164.082,-319.778"/>
<polygon fill="midnightblue" stroke="midnightblue" points="164.869,-323.199 174.233,-318.244 163.822,-316.278 164.869,-323.199"/>
</g>
<!-- Node3 -->
<g id="node3" class="node"><title>Node3</title>
<g id="a_node3"><a xlink:href="../../d7/da0/class_thread_control.html#afd86c1fc3e09d219cf48f5a15539b920" target="_top" xlink:title="ThreadControl::Quit">
<polygon fill="white" stroke="black" points="364,-580.5 364,-601.5 482,-601.5 482,-580.5 364,-580.5"/>
<text text-anchor="middle" x="423" y="-587.9" font-family="Helvetica,sans-Serif" font-size="12.00">ThreadControl::Quit</text>
</a>
</g>
</g>
<!-- Node2&#45;&gt;Node3 -->
<g id="edge2" class="edge"><title>Node2&#45;&gt;Node3</title>
<path fill="none" stroke="midnightblue" d="M247.59,-378.292C256.812,-418.308 285.161,-517.841 348,-570 350.569,-572.132 353.342,-574.048 356.254,-575.77"/>
<polygon fill="midnightblue" stroke="midnightblue" points="354.844,-578.979 365.347,-580.375 358.007,-572.734 354.844,-578.979"/>
</g>
<!-- Node4 -->
<g id="node4" class="node"><title>Node4</title>
<g id="a_node4"><a xlink:href="../../d3/d9f/class_c_operator_console_app.html#ac47de682b105a11015ceef305c225924" target="_top" xlink:title="COperatorConsoleApp\l::CheckFiles">
<polygon fill="white" stroke="black" points="354.5,-527 354.5,-561 491.5,-561 491.5,-527 354.5,-527"/>
<text text-anchor="start" x="362.5" y="-547.4" font-family="Helvetica,sans-Serif" font-size="12.00">COperatorConsoleApp</text>
<text text-anchor="middle" x="423" y="-534.4" font-family="Helvetica,sans-Serif" font-size="12.00">::CheckFiles</text>
</a>
</g>
</g>
<!-- Node2&#45;&gt;Node4 -->
<g id="edge3" class="edge"><title>Node2&#45;&gt;Node4</title>
<path fill="none" stroke="midnightblue" d="M251.038,-378.132C264.936,-409.936 298.872,-478.371 348,-517 350.268,-518.783 352.664,-520.456 355.153,-522.024"/>
<polygon fill="midnightblue" stroke="midnightblue" points="353.485,-525.101 363.915,-526.962 356.921,-519.003 353.485,-525.101"/>
</g>
<!-- Node6 -->
<g id="node6" class="node"><title>Node6</title>
<g id="a_node6"><a xlink:href="../../d3/d9f/class_c_operator_console_app.html#a8edea834120ba2acc0e16230ff5efb14" target="_top" xlink:title="COperatorConsoleApp\l::InitBlemishAcq">
<polygon fill="white" stroke="black" points="354.5,-474 354.5,-508 491.5,-508 491.5,-474 354.5,-474"/>
<text text-anchor="start" x="362.5" y="-494.4" font-family="Helvetica,sans-Serif" font-size="12.00">COperatorConsoleApp</text>
<text text-anchor="middle" x="423" y="-481.4" font-family="Helvetica,sans-Serif" font-size="12.00">::InitBlemishAcq</text>
</a>
</g>
</g>
<!-- Node2&#45;&gt;Node6 -->
<g id="edge5" class="edge"><title>Node2&#45;&gt;Node6</title>
<path fill="none" stroke="midnightblue" d="M257.367,-378.256C275.636,-400.795 310.445,-440.182 348,-464 351.129,-465.985 354.425,-467.851 357.816,-469.603"/>
<polygon fill="midnightblue" stroke="midnightblue" points="356.439,-472.824 366.971,-473.974 359.455,-466.507 356.439,-472.824"/>
</g>
<!-- Node11 -->
<g id="node11" class="node"><title>Node11</title>
<g id="a_node11"><a xlink:href="../../d8/d29/class_image_acquisition.html#af32c2cc8a87105465ba8620e77745c2b" target="_top" xlink:title="ImageAcquisition::GetInfo">
<polygon fill="white" stroke="black" points="348.5,-327.5 348.5,-348.5 497.5,-348.5 497.5,-327.5 348.5,-327.5"/>
<text text-anchor="middle" x="423" y="-334.9" font-family="Helvetica,sans-Serif" font-size="12.00">ImageAcquisition::GetInfo</text>
</a>
</g>
</g>
<!-- Node2&#45;&gt;Node11 -->
<g id="edge10" class="edge"><title>Node2&#45;&gt;Node11</title>
<path fill="none" stroke="midnightblue" d="M311.548,-352.272C320.266,-351.145 329.275,-349.981 338.215,-348.826"/>
<polygon fill="midnightblue" stroke="midnightblue" points="338.789,-352.281 348.258,-347.528 337.892,-345.339 338.789,-352.281"/>
</g>
<!-- Node12 -->
<g id="node12" class="node"><title>Node12</title>
<g id="a_node12"><a xlink:href="../../d3/d9f/class_c_operator_console_app.html#a7e42ecea8d8270d3b3cf9552abc00eba" target="_top" xlink:title="COperatorConsoleApp\l::InitSFRplusAcq">
<polygon fill="white" stroke="black" points="354.5,-421 354.5,-455 491.5,-455 491.5,-421 354.5,-421"/>
<text text-anchor="start" x="362.5" y="-441.4" font-family="Helvetica,sans-Serif" font-size="12.00">COperatorConsoleApp</text>
<text text-anchor="middle" x="423" y="-428.4" font-family="Helvetica,sans-Serif" font-size="12.00">::InitSFRplusAcq</text>
</a>
</g>
</g>
<!-- Node2&#45;&gt;Node12 -->
<g id="edge11" class="edge"><title>Node2&#45;&gt;Node12</title>
<path fill="none" stroke="midnightblue" d="M277.341,-378.061C297.558,-388.146 324.002,-400.882 348,-411 353.041,-413.125 358.313,-415.245 363.621,-417.31"/>
<polygon fill="midnightblue" stroke="midnightblue" points="362.581,-420.66 373.172,-420.957 365.078,-414.12 362.581,-420.66"/>
</g>
<!-- Node13 -->
<g id="node13" class="node"><title>Node13</title>
<g id="a_node13"><a xlink:href="../../d3/d9f/class_c_operator_console_app.html#a74df2a3e42b3980069fa3946b67ecf79" target="_top" xlink:title="COperatorConsoleApp\l::InitCamera">
<polygon fill="white" stroke="black" points="354.5,-368 354.5,-402 491.5,-402 491.5,-368 354.5,-368"/>
<text text-anchor="start" x="362.5" y="-388.4" font-family="Helvetica,sans-Serif" font-size="12.00">COperatorConsoleApp</text>
<text text-anchor="middle" x="423" y="-375.4" font-family="Helvetica,sans-Serif" font-size="12.00">::InitCamera</text>
</a>
</g>
</g>
<!-- Node2&#45;&gt;Node13 -->
<g id="edge14" class="edge"><title>Node2&#45;&gt;Node13</title>
<path fill="none" stroke="midnightblue" d="M311.548,-370.108C322.316,-371.559 333.529,-373.071 344.505,-374.551"/>
<polygon fill="midnightblue" stroke="midnightblue" points="344.12,-378.031 354.498,-375.899 345.056,-371.094 344.12,-378.031"/>
</g>
<!-- Node15 -->
<g id="node15" class="node"><title>Node15</title>
<g id="a_node15"><a xlink:href="../../d3/d9f/class_c_operator_console_app.html#aeb93b88acfe6d11d64f493f63f74bca6" target="_top" xlink:title="COperatorConsoleApp\l::AllocateImageBuf">
<polygon fill="white" stroke="black" points="354.5,-274 354.5,-308 491.5,-308 491.5,-274 354.5,-274"/>
<text text-anchor="start" x="362.5" y="-294.4" font-family="Helvetica,sans-Serif" font-size="12.00">COperatorConsoleApp</text>
<text text-anchor="middle" x="423" y="-281.4" font-family="Helvetica,sans-Serif" font-size="12.00">::AllocateImageBuf</text>
</a>
</g>
</g>
<!-- Node2&#45;&gt;Node15 -->
<g id="edge17" class="edge"><title>Node2&#45;&gt;Node15</title>
<path fill="none" stroke="midnightblue" d="M287.637,-343.975C295.759,-340.721 304.155,-337.299 312,-334 328.14,-327.212 331.766,-324.56 348,-318 353.151,-315.918 358.531,-313.818 363.937,-311.756"/>
<polygon fill="midnightblue" stroke="midnightblue" points="365.526,-314.898 373.653,-308.1 363.061,-308.346 365.526,-314.898"/>
</g>
<!-- Node17 -->
<g id="node17" class="node"><title>Node17</title>
<g id="a_node17"><a xlink:href="../../d3/d9f/class_c_operator_console_app.html#a51ad7e6e8f370072c3e89d0d7e9e41a8" target="_top" xlink:title="COperatorConsoleApp\l::InitBlemishThread">
<polygon fill="white" stroke="black" points="354.5,-221 354.5,-255 491.5,-255 491.5,-221 354.5,-221"/>
<text text-anchor="start" x="362.5" y="-241.4" font-family="Helvetica,sans-Serif" font-size="12.00">COperatorConsoleApp</text>
<text text-anchor="middle" x="423" y="-228.4" font-family="Helvetica,sans-Serif" font-size="12.00">::InitBlemishThread</text>
</a>
</g>
</g>
<!-- Node2&#45;&gt;Node17 -->
<g id="edge19" class="edge"><title>Node2&#45;&gt;Node17</title>
<path fill="none" stroke="midnightblue" d="M298.149,-343.845C303.136,-341.018 307.861,-337.756 312,-334 337.908,-310.491 321.626,-286.985 348,-264 349.341,-262.831 350.738,-261.714 352.181,-260.647"/>
<polygon fill="midnightblue" stroke="midnightblue" points="354.368,-263.402 360.894,-255.056 350.588,-257.511 354.368,-263.402"/>
</g>
<!-- Node41 -->
<g id="node41" class="node"><title>Node41</title>
<g id="a_node41"><a xlink:href="../../d3/d9f/class_c_operator_console_app.html#af7328d2c00abb1d4a09a65492c69b2b0" target="_top" xlink:title="COperatorConsoleApp\l::InitSFRplusThread">
<polygon fill="white" stroke="black" points="354.5,-168 354.5,-202 491.5,-202 491.5,-168 354.5,-168"/>
<text text-anchor="start" x="362.5" y="-188.4" font-family="Helvetica,sans-Serif" font-size="12.00">COperatorConsoleApp</text>
<text text-anchor="middle" x="423" y="-175.4" font-family="Helvetica,sans-Serif" font-size="12.00">::InitSFRplusThread</text>
</a>
</g>
</g>
<!-- Node2&#45;&gt;Node41 -->
<g id="edge43" class="edge"><title>Node2&#45;&gt;Node41</title>
<path fill="none" stroke="midnightblue" d="M300.231,-343.794C304.566,-340.998 308.579,-337.756 312,-334 350.356,-291.89 308.808,-252.333 348,-211 348.896,-210.055 349.828,-209.145 350.793,-208.267"/>
<polygon fill="midnightblue" stroke="midnightblue" points="352.946,-211.026 358.756,-202.167 348.689,-205.47 352.946,-211.026"/>
</g>
<!-- Node42 -->
<g id="node42" class="node"><title>Node42</title>
<g id="a_node42"><a xlink:href="../../d3/d9f/class_c_operator_console_app.html#a603dc5a9e0c64b5d2a604965b023c936" target="_top" xlink:title="Called after MSG_SET_SFRPLUS is received. ">
<polygon fill="white" stroke="black" points="354.5,-115 354.5,-149 491.5,-149 491.5,-115 354.5,-115"/>
<text text-anchor="start" x="362.5" y="-135.4" font-family="Helvetica,sans-Serif" font-size="12.00">COperatorConsoleApp</text>
<text text-anchor="middle" x="423" y="-122.4" font-family="Helvetica,sans-Serif" font-size="12.00">::OnSetSFRplus</text>
</a>
</g>
</g>
<!-- Node2&#45;&gt;Node42 -->
<g id="edge49" class="edge"><title>Node2&#45;&gt;Node42</title>
<path fill="none" stroke="midnightblue" d="M300.889,-343.875C305.029,-341.065 308.819,-337.798 312,-334 363.27,-272.795 295.513,-218.165 348,-158 348.739,-157.153 349.506,-156.334 350.301,-155.542"/>
<polygon fill="midnightblue" stroke="midnightblue" points="352.613,-158.172 358.097,-149.107 348.156,-152.774 352.613,-158.172"/>
</g>
<!-- Node5 -->
<g id="node5" class="node"><title>Node5</title>
<g id="a_node5"><a xlink:href="../../d3/d9f/class_c_operator_console_app.html#a9f0e96c6628d1c991c7a4bf6741ed6d9" target="_top" xlink:title="COperatorConsoleApp\l::FileExists">
<polygon fill="white" stroke="black" points="548.5,-527 548.5,-561 685.5,-561 685.5,-527 548.5,-527"/>
<text text-anchor="start" x="556.5" y="-547.4" font-family="Helvetica,sans-Serif" font-size="12.00">COperatorConsoleApp</text>
<text text-anchor="middle" x="617" y="-534.4" font-family="Helvetica,sans-Serif" font-size="12.00">::FileExists</text>
</a>
</g>
</g>
<!-- Node4&#45;&gt;Node5 -->
<g id="edge4" class="edge"><title>Node4&#45;&gt;Node5</title>
<path fill="none" stroke="midnightblue" d="M491.692,-544C506.748,-544 522.824,-544 538.248,-544"/>
<polygon fill="midnightblue" stroke="midnightblue" points="538.272,-547.5 548.272,-544 538.272,-540.5 538.272,-547.5"/>
</g>
<!-- Node7 -->
<g id="node7" class="node"><title>Node7</title>
<g id="a_node7"><a xlink:href="../../db/def/class_file_acquisition.html#a797827242308ce8dba037e6c36ca4b30" target="_top" xlink:title="Initializes the buffers inherited from class ImageAcquisition with 2 bytes per pixel. ">
<polygon fill="white" stroke="black" points="560,-480.5 560,-501.5 674,-501.5 674,-480.5 560,-480.5"/>
<text text-anchor="middle" x="617" y="-487.9" font-family="Helvetica,sans-Serif" font-size="12.00">FileAcquisition::Init</text>
</a>
</g>
</g>
<!-- Node6&#45;&gt;Node7 -->
<g id="edge6" class="edge"><title>Node6&#45;&gt;Node7</title>
<path fill="none" stroke="midnightblue" d="M491.692,-491C510.458,-491 530.808,-491 549.505,-491"/>
<polygon fill="midnightblue" stroke="midnightblue" points="549.701,-494.5 559.701,-491 549.701,-487.5 549.701,-494.5"/>
</g>
<!-- Node10 -->
<g id="node10" class="node"><title>Node10</title>
<g id="a_node10"><a xlink:href="../../db/def/class_file_acquisition.html#af5cffdb393fa3c0dffb9efd4af5fcc68" target="_top" xlink:title="FileAcquisition::Open">
<polygon fill="white" stroke="black" points="553,-440.5 553,-461.5 681,-461.5 681,-440.5 553,-440.5"/>
<text text-anchor="middle" x="617" y="-447.9" font-family="Helvetica,sans-Serif" font-size="12.00">FileAcquisition::Open</text>
</a>
</g>
</g>
<!-- Node6&#45;&gt;Node10 -->
<g id="edge9" class="edge"><title>Node6&#45;&gt;Node10</title>
<path fill="none" stroke="midnightblue" d="M491.692,-476.897C512.473,-472.568 535.198,-467.834 555.468,-463.611"/>
<polygon fill="midnightblue" stroke="midnightblue" points="556.434,-466.985 565.51,-461.519 555.006,-460.132 556.434,-466.985"/>
</g>
<!-- Node8 -->
<g id="node8" class="node"><title>Node8</title>
<g id="a_node8"><a xlink:href="../../d8/d29/class_image_acquisition.html#a09e47283e2ae3e6c352b8842bde2332a" target="_top" xlink:title="may be overridden, but be sure to call parent function also ">
<polygon fill="white" stroke="black" points="746.5,-466.5 746.5,-487.5 873.5,-487.5 873.5,-466.5 746.5,-466.5"/>
<text text-anchor="middle" x="810" y="-473.9" font-family="Helvetica,sans-Serif" font-size="12.00">ImageAcquisition::Init</text>
</a>
</g>
</g>
<!-- Node7&#45;&gt;Node8 -->
<g id="edge7" class="edge"><title>Node7&#45;&gt;Node8</title>
<path fill="none" stroke="midnightblue" d="M674.016,-486.894C693.503,-485.466 715.651,-483.842 736.292,-482.329"/>
<polygon fill="midnightblue" stroke="midnightblue" points="736.567,-485.819 746.285,-481.597 736.056,-478.837 736.567,-485.819"/>
</g>
<!-- Node9 -->
<g id="node9" class="node"><title>Node9</title>
<g id="a_node9"><a xlink:href="../../d3/d1e/class_critical_buf.html#af55d2c476f545955912617611c18cbee" target="_top" xlink:title="CriticalBuf::Init">
<polygon fill="white" stroke="black" points="958.5,-466.5 958.5,-487.5 1049.5,-487.5 1049.5,-466.5 958.5,-466.5"/>
<text text-anchor="middle" x="1004" y="-473.9" font-family="Helvetica,sans-Serif" font-size="12.00">CriticalBuf::Init</text>
</a>
</g>
</g>
<!-- Node8&#45;&gt;Node9 -->
<g id="edge8" class="edge"><title>Node8&#45;&gt;Node9</title>
<path fill="none" stroke="midnightblue" d="M873.602,-477C897.72,-477 925.05,-477 948.358,-477"/>
<polygon fill="midnightblue" stroke="midnightblue" points="948.418,-480.5 958.418,-477 948.418,-473.5 948.418,-480.5"/>
</g>
<!-- Node12&#45;&gt;Node7 -->
<g id="edge12" class="edge"><title>Node12&#45;&gt;Node7</title>
<path fill="none" stroke="midnightblue" d="M478.671,-455.015C496.279,-460.33 515.914,-466.085 534,-471 542.723,-473.37 552.003,-475.76 561.066,-478.021"/>
<polygon fill="midnightblue" stroke="midnightblue" points="560.231,-481.42 570.778,-480.418 561.908,-474.624 560.231,-481.42"/>
</g>
<!-- Node12&#45;&gt;Node10 -->
<g id="edge13" class="edge"><title>Node12&#45;&gt;Node10</title>
<path fill="none" stroke="midnightblue" d="M491.692,-442.583C508.143,-443.697 525.812,-444.894 542.517,-446.025"/>
<polygon fill="midnightblue" stroke="midnightblue" points="542.561,-449.535 552.775,-446.719 543.034,-442.551 542.561,-449.535"/>
</g>
<!-- Node13&#45;&gt;Node8 -->
<g id="edge15" class="edge"><title>Node13&#45;&gt;Node8</title>
<path fill="none" stroke="midnightblue" d="M491.686,-374.763C548.936,-368.82 632.228,-366.655 700,-391 738.451,-404.812 773.769,-438.036 793.246,-458.91"/>
<polygon fill="midnightblue" stroke="midnightblue" points="790.821,-461.446 800.135,-466.496 796.003,-456.74 790.821,-461.446"/>
</g>
<!-- Node14 -->
<g id="node14" class="node"><title>Node14</title>
<g id="a_node14"><a xlink:href="../../df/d22/class_imatest_lib_acq.html#af8b94cf2a548d2edbd61e0e39d7e5cce" target="_top" xlink:title="ImatestLibAcq::Open">
<polygon fill="white" stroke="black" points="554,-400.5 554,-421.5 680,-421.5 680,-400.5 554,-400.5"/>
<text text-anchor="middle" x="617" y="-407.9" font-family="Helvetica,sans-Serif" font-size="12.00">ImatestLibAcq::Open</text>
</a>
</g>
</g>
<!-- Node13&#45;&gt;Node14 -->
<g id="edge16" class="edge"><title>Node13&#45;&gt;Node14</title>
<path fill="none" stroke="midnightblue" d="M491.692,-394.167C508.569,-396.452 526.728,-398.911 543.813,-401.225"/>
<polygon fill="midnightblue" stroke="midnightblue" points="543.351,-404.694 553.73,-402.568 544.291,-397.757 543.351,-404.694"/>
</g>
<!-- Node16 -->
<g id="node16" class="node"><title>Node16</title>
<g id="a_node16"><a xlink:href="../../d8/d29/class_image_acquisition.html#aa77f9ea82fa88ae12c6b9fba9e13006e" target="_top" xlink:title="ImageAcquisition::BytesPer\lFrame">
<polygon fill="white" stroke="black" points="536.5,-308 536.5,-342 697.5,-342 697.5,-308 536.5,-308"/>
<text text-anchor="start" x="544.5" y="-328.4" font-family="Helvetica,sans-Serif" font-size="12.00">ImageAcquisition::BytesPer</text>
<text text-anchor="middle" x="617" y="-315.4" font-family="Helvetica,sans-Serif" font-size="12.00">Frame</text>
</a>
</g>
</g>
<!-- Node15&#45;&gt;Node16 -->
<g id="edge18" class="edge"><title>Node15&#45;&gt;Node16</title>
<path fill="none" stroke="midnightblue" d="M491.692,-302.987C502.882,-304.969 514.635,-307.05 526.264,-309.109"/>
<polygon fill="midnightblue" stroke="midnightblue" points="525.979,-312.613 536.436,-310.91 527.199,-305.72 525.979,-312.613"/>
</g>
<!-- Node18 -->
<g id="node18" class="node"><title>Node18</title>
<g id="a_node18"><a xlink:href="../../d8/d29/class_image_acquisition.html#a0964521623ef639396b854aceebbcbef" target="_top" xlink:title="ImageAcquisition::GetHeight">
<polygon fill="white" stroke="black" points="534.5,-107.5 534.5,-128.5 699.5,-128.5 699.5,-107.5 534.5,-107.5"/>
<text text-anchor="middle" x="617" y="-114.9" font-family="Helvetica,sans-Serif" font-size="12.00">ImageAcquisition::GetHeight</text>
</a>
</g>
</g>
<!-- Node17&#45;&gt;Node18 -->
<g id="edge20" class="edge"><title>Node17&#45;&gt;Node18</title>
<path fill="none" stroke="midnightblue" d="M483.715,-220.983C488.86,-218.14 493.725,-214.836 498,-211 524.927,-186.842 505.779,-160.632 534,-138 536.051,-136.356 538.216,-134.843 540.471,-133.453"/>
<polygon fill="midnightblue" stroke="midnightblue" points="542.335,-136.427 549.554,-128.672 539.075,-130.233 542.335,-136.427"/>
</g>
<!-- Node19 -->
<g id="node19" class="node"><title>Node19</title>
<g id="a_node19"><a xlink:href="../../d8/d29/class_image_acquisition.html#a589eb2272d57ee982b6970667b034a0d" target="_top" xlink:title="ImageAcquisition::GetWidth">
<polygon fill="white" stroke="black" points="536.5,-267.5 536.5,-288.5 697.5,-288.5 697.5,-267.5 536.5,-267.5"/>
<text text-anchor="middle" x="617" y="-274.9" font-family="Helvetica,sans-Serif" font-size="12.00">ImageAcquisition::GetWidth</text>
</a>
</g>
</g>
<!-- Node17&#45;&gt;Node19 -->
<g id="edge21" class="edge"><title>Node17&#45;&gt;Node19</title>
<path fill="none" stroke="midnightblue" d="M491.692,-252.103C512.473,-256.432 535.198,-261.166 555.468,-265.389"/>
<polygon fill="midnightblue" stroke="midnightblue" points="555.006,-268.868 565.51,-267.481 556.434,-262.015 555.006,-268.868"/>
</g>
<!-- Node20 -->
<g id="node20" class="node"><title>Node20</title>
<g id="a_node20"><a xlink:href="../../d7/da0/class_thread_control.html#a5054f2ad6297cc65b4cb9146437f48b0" target="_top" xlink:title="ThreadControl::Init">
<polygon fill="white" stroke="black" points="561.5,-147.5 561.5,-168.5 672.5,-168.5 672.5,-147.5 561.5,-147.5"/>
<text text-anchor="middle" x="617" y="-154.9" font-family="Helvetica,sans-Serif" font-size="12.00">ThreadControl::Init</text>
</a>
</g>
</g>
<!-- Node17&#45;&gt;Node20 -->
<g id="edge22" class="edge"><title>Node17&#45;&gt;Node20</title>
<path fill="none" stroke="midnightblue" d="M478.502,-220.923C485.26,-217.998 491.922,-214.692 498,-211 516.55,-199.731 514.855,-188.226 534,-178 539.513,-175.055 545.466,-172.536 551.559,-170.383"/>
<polygon fill="midnightblue" stroke="midnightblue" points="552.75,-173.677 561.205,-167.293 550.614,-167.011 552.75,-173.677"/>
</g>
<!-- Node22 -->
<g id="node22" class="node"><title>Node22</title>
<g id="a_node22"><a xlink:href="../../da/d92/class_image_test.html#ab97f2724bc4060b68dd623c2ff8bbb8d" target="_top" xlink:title="ImageTest::Init">
<polygon fill="white" stroke="black" points="571,-227.5 571,-248.5 663,-248.5 663,-227.5 571,-227.5"/>
<text text-anchor="middle" x="617" y="-234.9" font-family="Helvetica,sans-Serif" font-size="12.00">ImageTest::Init</text>
</a>
</g>
</g>
<!-- Node17&#45;&gt;Node22 -->
<g id="edge24" class="edge"><title>Node17&#45;&gt;Node22</title>
<path fill="none" stroke="midnightblue" d="M491.692,-238C514.238,-238 539.072,-238 560.577,-238"/>
<polygon fill="midnightblue" stroke="midnightblue" points="560.841,-241.5 570.841,-238 560.841,-234.5 560.841,-241.5"/>
</g>
<!-- Node25 -->
<g id="node25" class="node"><title>Node25</title>
<g id="a_node25"><a xlink:href="../../da/d92/class_image_test.html#a372478d09c06cd7ab3684840add6215e" target="_top" xlink:title="param must be a pointer to a ThreadControl object; param&#45;&gt;m_data must point to an ImageTest object ...">
<polygon fill="white" stroke="black" points="547.5,-187.5 547.5,-208.5 686.5,-208.5 686.5,-187.5 547.5,-187.5"/>
<text text-anchor="middle" x="617" y="-194.9" font-family="Helvetica,sans-Serif" font-size="12.00">ImageTest::ThreadProc</text>
</a>
</g>
</g>
<!-- Node17&#45;&gt;Node25 -->
<g id="edge27" class="edge"><title>Node17&#45;&gt;Node25</title>
<path fill="none" stroke="midnightblue" d="M491.692,-223.897C512.473,-219.568 535.198,-214.834 555.468,-210.611"/>
<polygon fill="midnightblue" stroke="midnightblue" points="556.434,-213.985 565.51,-208.519 555.006,-207.132 556.434,-213.985"/>
</g>
<!-- Node21 -->
<g id="node21" class="node"><title>Node21</title>
<g id="a_node21"><a xlink:href="../../d7/da0/class_thread_control.html#ae2bdd5434d609141dda49566f81c9ce6" target="_top" xlink:title="ThreadControl::InitThread">
<polygon fill="white" stroke="black" points="736,-80.5 736,-101.5 884,-101.5 884,-80.5 736,-80.5"/>
<text text-anchor="middle" x="810" y="-87.9" font-family="Helvetica,sans-Serif" font-size="12.00">ThreadControl::InitThread</text>
</a>
</g>
</g>
<!-- Node20&#45;&gt;Node21 -->
<g id="edge23" class="edge"><title>Node20&#45;&gt;Node21</title>
<path fill="none" stroke="midnightblue" d="M672.878,-147.885C682.156,-145.259 691.521,-142.006 700,-138 718.083,-129.456 718.039,-119.797 736,-111 740.674,-108.71 745.65,-106.651 750.721,-104.804"/>
<polygon fill="midnightblue" stroke="midnightblue" points="752.17,-108.01 760.539,-101.512 749.945,-101.373 752.17,-108.01"/>
</g>
<!-- Node23 -->
<g id="node23" class="node"><title>Node23</title>
<g id="a_node23"><a xlink:href="../../da/d92/class_image_test.html#a19f4ba2329209f42293e735fe9797e7c" target="_top" xlink:title="ImageTest::AllocateRGB">
<polygon fill="white" stroke="black" points="737.5,-340.5 737.5,-361.5 882.5,-361.5 882.5,-340.5 737.5,-340.5"/>
<text text-anchor="middle" x="810" y="-347.9" font-family="Helvetica,sans-Serif" font-size="12.00">ImageTest::AllocateRGB</text>
</a>
</g>
</g>
<!-- Node22&#45;&gt;Node23 -->
<g id="edge25" class="edge"><title>Node22&#45;&gt;Node23</title>
<path fill="none" stroke="midnightblue" d="M663.186,-245.05C675.544,-248.025 688.65,-252.195 700,-258 737.508,-277.185 773.095,-311.69 792.886,-332.847"/>
<polygon fill="midnightblue" stroke="midnightblue" points="790.33,-335.238 799.668,-340.242 795.489,-330.507 790.33,-335.238"/>
</g>
<!-- Node24 -->
<g id="node24" class="node"><title>Node24</title>
<g id="a_node24"><a xlink:href="../../da/d92/class_image_test.html#ad019b2cd49f147623a4f0ded3a927aee" target="_top" xlink:title="ImageTest::DeleteRGB">
<polygon fill="white" stroke="black" points="935.5,-400.5 935.5,-421.5 1072.5,-421.5 1072.5,-400.5 935.5,-400.5"/>
<text text-anchor="middle" x="1004" y="-407.9" font-family="Helvetica,sans-Serif" font-size="12.00">ImageTest::DeleteRGB</text>
</a>
</g>
</g>
<!-- Node23&#45;&gt;Node24 -->
<g id="edge26" class="edge"><title>Node23&#45;&gt;Node24</title>
<path fill="none" stroke="midnightblue" d="M837.143,-361.56C859.046,-370.172 891.255,-382.294 920,-391 928.055,-393.44 936.62,-395.781 945.072,-397.947"/>
<polygon fill="midnightblue" stroke="midnightblue" points="944.356,-401.376 954.906,-400.406 946.054,-394.585 944.356,-401.376"/>
</g>
<!-- Node26 -->
<g id="node26" class="node"><title>Node26</title>
<g id="a_node26"><a xlink:href="../../d8/d08/class_timer.html#a4e607b129b392c11adddd9641a320436" target="_top" xlink:title="Timer::Start">
<polygon fill="white" stroke="black" points="771.5,-240.5 771.5,-261.5 848.5,-261.5 848.5,-240.5 771.5,-240.5"/>
<text text-anchor="middle" x="810" y="-247.9" font-family="Helvetica,sans-Serif" font-size="12.00">Timer::Start</text>
</a>
</g>
</g>
<!-- Node25&#45;&gt;Node26 -->
<g id="edge28" class="edge"><title>Node25&#45;&gt;Node26</title>
<path fill="none" stroke="midnightblue" d="M665.067,-208.562C676.56,-211.393 688.776,-214.615 700,-218 716.287,-222.911 719.784,-225.86 736,-231 744.193,-233.597 752.965,-236.173 761.485,-238.568"/>
<polygon fill="midnightblue" stroke="midnightblue" points="760.75,-241.996 771.321,-241.288 762.615,-235.249 760.75,-241.996"/>
</g>
<!-- Node27 -->
<g id="node27" class="node"><title>Node27</title>
<g id="a_node27"><a xlink:href="../../da/d92/class_image_test.html#a7334d76c1cc6780f46626be5b9ff1adb" target="_top" xlink:title="Runs the test pointed to by m_imatestFunc. ">
<polygon fill="white" stroke="black" points="761,-200.5 761,-221.5 859,-221.5 859,-200.5 761,-200.5"/>
<text text-anchor="middle" x="810" y="-207.9" font-family="Helvetica,sans-Serif" font-size="12.00">ImageTest::Run</text>
</a>
</g>
</g>
<!-- Node25&#45;&gt;Node27 -->
<g id="edge29" class="edge"><title>Node25&#45;&gt;Node27</title>
<path fill="none" stroke="midnightblue" d="M686.686,-202.675C707.729,-204.107 730.662,-205.668 750.925,-207.047"/>
<polygon fill="midnightblue" stroke="midnightblue" points="750.73,-210.542 760.944,-207.729 751.205,-203.558 750.73,-210.542"/>
</g>
<!-- Node38 -->
<g id="node38" class="node"><title>Node38</title>
<g id="a_node38"><a xlink:href="../../d8/d08/class_timer.html#a6379e797f968aaee6ac3bb12dc6b81c5" target="_top" xlink:title="Timer::Stop">
<polygon fill="white" stroke="black" points="771.5,-160.5 771.5,-181.5 848.5,-181.5 848.5,-160.5 771.5,-160.5"/>
<text text-anchor="middle" x="810" y="-167.9" font-family="Helvetica,sans-Serif" font-size="12.00">Timer::Stop</text>
</a>
</g>
</g>
<!-- Node25&#45;&gt;Node38 -->
<g id="edge40" class="edge"><title>Node25&#45;&gt;Node38</title>
<path fill="none" stroke="midnightblue" d="M686.686,-188.291C711.448,-184.79 738.829,-180.92 761.395,-177.73"/>
<polygon fill="midnightblue" stroke="midnightblue" points="761.986,-181.181 771.398,-176.316 761.006,-174.25 761.986,-181.181"/>
</g>
<!-- Node40 -->
<g id="node40" class="node"><title>Node40</title>
<g id="a_node40"><a xlink:href="../../d8/d08/class_timer.html#a40773739b5fe60e836329bbbe6ed65ce" target="_top" xlink:title="gets the elapsed time in milliseconds ">
<polygon fill="white" stroke="black" points="774.5,-120.5 774.5,-141.5 845.5,-141.5 845.5,-120.5 774.5,-120.5"/>
<text text-anchor="middle" x="810" y="-127.9" font-family="Helvetica,sans-Serif" font-size="12.00">Timer::Get</text>
</a>
</g>
</g>
<!-- Node25&#45;&gt;Node40 -->
<g id="edge42" class="edge"><title>Node25&#45;&gt;Node40</title>
<path fill="none" stroke="midnightblue" d="M674.619,-187.386C683.323,-184.85 692.05,-181.756 700,-178 718.083,-169.456 718.039,-159.797 736,-151 744.846,-146.667 754.771,-143.157 764.384,-140.359"/>
<polygon fill="midnightblue" stroke="midnightblue" points="765.491,-143.685 774.231,-137.697 763.664,-136.928 765.491,-143.685"/>
</g>
<!-- Node28 -->
<g id="node28" class="node"><title>Node28</title>
<g id="a_node28"><a xlink:href="../../da/d92/class_image_test.html#a3b66aa4095c338dd90f6e57e108f3038" target="_top" xlink:title="ImageTest::InitResults">
<polygon fill="white" stroke="black" points="939,-80.5 939,-101.5 1069,-101.5 1069,-80.5 939,-80.5"/>
<text text-anchor="middle" x="1004" y="-87.9" font-family="Helvetica,sans-Serif" font-size="12.00">ImageTest::InitResults</text>
</a>
</g>
</g>
<!-- Node27&#45;&gt;Node28 -->
<g id="edge30" class="edge"><title>Node27&#45;&gt;Node28</title>
<path fill="none" stroke="midnightblue" d="M859.162,-204.264C868.138,-201.304 876.91,-197.065 884,-191 913.627,-165.654 889.984,-135.884 920,-111 923.058,-108.465 926.385,-106.242 929.891,-104.292"/>
<polygon fill="midnightblue" stroke="midnightblue" points="931.402,-107.45 938.926,-99.9901 928.392,-101.13 931.402,-107.45"/>
</g>
<!-- Node30 -->
<g id="node30" class="node"><title>Node30</title>
<g id="a_node30"><a xlink:href="../../da/d92/class_image_test.html#acfb4336b719c918a612640d9d8c63834" target="_top" xlink:title="converts from m_rawPixels to m_rgb ">
<polygon fill="white" stroke="black" points="920.5,-40.5 920.5,-61.5 1087.5,-61.5 1087.5,-40.5 920.5,-40.5"/>
<text text-anchor="middle" x="1004" y="-47.9" font-family="Helvetica,sans-Serif" font-size="12.00">ImageTest::PlanesFromRGB</text>
</a>
</g>
</g>
<!-- Node27&#45;&gt;Node30 -->
<g id="edge32" class="edge"><title>Node27&#45;&gt;Node30</title>
<path fill="none" stroke="midnightblue" d="M859.055,-205.224C868.251,-202.207 877.136,-197.701 884,-191 923.843,-152.103 879.559,-109.275 920,-71 921.494,-69.5863 923.069,-68.2671 924.713,-67.0363"/>
<polygon fill="midnightblue" stroke="midnightblue" points="926.812,-69.8525 933.445,-61.5908 923.108,-63.9129 926.812,-69.8525"/>
</g>
<!-- Node31 -->
<g id="node31" class="node"><title>Node31</title>
<g id="a_node31"><a xlink:href="../../da/d92/class_image_test.html#ae9ca0a6007b17711f0159e61dbb62e39" target="_top" xlink:title="converts from m_rgb to rgb ">
<polygon fill="white" stroke="black" points="920.5,-360.5 920.5,-381.5 1087.5,-381.5 1087.5,-360.5 920.5,-360.5"/>
<text text-anchor="middle" x="1004" y="-367.9" font-family="Helvetica,sans-Serif" font-size="12.00">ImageTest::RGBFromPlanes</text>
</a>
</g>
</g>
<!-- Node27&#45;&gt;Node31 -->
<g id="edge33" class="edge"><title>Node27&#45;&gt;Node31</title>
<path fill="none" stroke="midnightblue" d="M859.055,-216.776C868.251,-219.793 877.136,-224.299 884,-231 923.843,-269.897 879.559,-312.725 920,-351 921.494,-352.414 923.069,-353.733 924.713,-354.964"/>
<polygon fill="midnightblue" stroke="midnightblue" points="923.108,-358.087 933.445,-360.409 926.812,-352.148 923.108,-358.087"/>
</g>
<!-- Node32 -->
<g id="node32" class="node"><title>Node32</title>
<g id="a_node32"><a xlink:href="../../da/d92/class_image_test.html#a92af335f5f0e96e443b4a938a69d4800" target="_top" xlink:title="ImageTest::SaveImage">
<polygon fill="white" stroke="black" points="935.5,-320.5 935.5,-341.5 1072.5,-341.5 1072.5,-320.5 935.5,-320.5"/>
<text text-anchor="middle" x="1004" y="-327.9" font-family="Helvetica,sans-Serif" font-size="12.00">ImageTest::SaveImage</text>
</a>
</g>
</g>
<!-- Node27&#45;&gt;Node32 -->
<g id="edge34" class="edge"><title>Node27&#45;&gt;Node32</title>
<path fill="none" stroke="midnightblue" d="M859.162,-217.736C868.138,-220.696 876.91,-224.935 884,-231 913.627,-256.346 889.984,-286.116 920,-311 921.997,-312.655 924.109,-314.178 926.31,-315.578"/>
<polygon fill="midnightblue" stroke="midnightblue" points="924.735,-318.705 935.194,-320.394 928.07,-312.551 924.735,-318.705"/>
</g>
<!-- Node33 -->
<g id="node33" class="node"><title>Node33</title>
<g id="a_node33"><a xlink:href="../../d0/d59/_documentation_2_operator-_console_2jsonhelpers_8cpp.html#aa7615c9874e29e598b0d0fd34967390d" target="_top" xlink:title="prepareTestSettings">
<polygon fill="white" stroke="black" points="942.5,-280.5 942.5,-301.5 1065.5,-301.5 1065.5,-280.5 942.5,-280.5"/>
<text text-anchor="middle" x="1004" y="-287.9" font-family="Helvetica,sans-Serif" font-size="12.00">prepareTestSettings</text>
</a>
</g>
</g>
<!-- Node27&#45;&gt;Node33 -->
<g id="edge35" class="edge"><title>Node27&#45;&gt;Node33</title>
<path fill="none" stroke="midnightblue" d="M859.364,-220.049C867.935,-222.805 876.507,-226.378 884,-231 904.357,-243.556 899.452,-258.76 920,-271 924.083,-273.432 928.445,-275.569 932.952,-277.445"/>
<polygon fill="midnightblue" stroke="midnightblue" points="931.773,-280.741 942.365,-280.945 934.212,-274.18 931.773,-280.741"/>
</g>
<!-- Node34 -->
<g id="node34" class="node"><title>Node34</title>
<g id="a_node34"><a xlink:href="../../da/d92/class_image_test.html#ad03c43bf481a29e5f8cd143446be4ca1" target="_top" xlink:title="This must be implemented by subclass. ">
<polygon fill="white" stroke="black" points="930.5,-240.5 930.5,-261.5 1077.5,-261.5 1077.5,-240.5 930.5,-240.5"/>
<text text-anchor="middle" x="1004" y="-247.9" font-family="Helvetica,sans-Serif" font-size="12.00">ImageTest::ParseResults</text>
</a>
</g>
</g>
<!-- Node27&#45;&gt;Node34 -->
<g id="edge36" class="edge"><title>Node27&#45;&gt;Node34</title>
<path fill="none" stroke="midnightblue" d="M859.45,-221.094C884.667,-226.347 915.741,-232.821 942.522,-238.4"/>
<polygon fill="midnightblue" stroke="midnightblue" points="942.051,-241.877 952.554,-240.49 943.478,-235.024 942.051,-241.877"/>
</g>
<!-- Node35 -->
<g id="node35" class="node"><title>Node35</title>
<g id="a_node35"><a xlink:href="../../da/d92/class_image_test.html#af4e55cf62f52fda3a5fc7b3c63dce083" target="_top" xlink:title="ImageTest::SetJSON">
<polygon fill="white" stroke="black" points="940.5,-200.5 940.5,-221.5 1067.5,-221.5 1067.5,-200.5 940.5,-200.5"/>
<text text-anchor="middle" x="1004" y="-207.9" font-family="Helvetica,sans-Serif" font-size="12.00">ImageTest::SetJSON</text>
</a>
</g>
</g>
<!-- Node27&#45;&gt;Node35 -->
<g id="edge37" class="edge"><title>Node27&#45;&gt;Node35</title>
<path fill="none" stroke="midnightblue" d="M859.45,-211C880.932,-211 906.664,-211 930.371,-211"/>
<polygon fill="midnightblue" stroke="midnightblue" points="930.389,-214.5 940.389,-211 930.389,-207.5 930.389,-214.5"/>
</g>
<!-- Node36 -->
<g id="node36" class="node"><title>Node36</title>
<g id="a_node36"><a xlink:href="../../dd/d46/class_timestamp.html#ac1238e7ef53954ee90d6687601bc95e9" target="_top" xlink:title="Timestamp::Get">
<polygon fill="white" stroke="black" points="954,-160.5 954,-181.5 1054,-181.5 1054,-160.5 954,-160.5"/>
<text text-anchor="middle" x="1004" y="-167.9" font-family="Helvetica,sans-Serif" font-size="12.00">Timestamp::Get</text>
</a>
</g>
</g>
<!-- Node27&#45;&gt;Node36 -->
<g id="edge38" class="edge"><title>Node27&#45;&gt;Node36</title>
<path fill="none" stroke="midnightblue" d="M859.45,-200.906C885.061,-195.571 916.714,-188.976 943.774,-183.339"/>
<polygon fill="midnightblue" stroke="midnightblue" points="944.822,-186.696 953.898,-181.23 943.394,-179.843 944.822,-186.696"/>
</g>
<!-- Node37 -->
<g id="node37" class="node"><title>Node37</title>
<g id="a_node37"><a xlink:href="../../da/d92/class_image_test.html#a8e026cbe52c6fd5eb83eef7196c93ada" target="_top" xlink:title="ImageTest::AppendLog">
<polygon fill="white" stroke="black" points="934.5,-120.5 934.5,-141.5 1073.5,-141.5 1073.5,-120.5 934.5,-120.5"/>
<text text-anchor="middle" x="1004" y="-127.9" font-family="Helvetica,sans-Serif" font-size="12.00">ImageTest::AppendLog</text>
</a>
</g>
</g>
<!-- Node27&#45;&gt;Node37 -->
<g id="edge39" class="edge"><title>Node27&#45;&gt;Node37</title>
<path fill="none" stroke="midnightblue" d="M859.364,-201.951C867.935,-199.195 876.507,-195.622 884,-191 904.357,-178.444 899.452,-163.24 920,-151 923.582,-148.867 927.378,-146.961 931.299,-145.258"/>
<polygon fill="midnightblue" stroke="midnightblue" points="932.571,-148.519 940.63,-141.642 930.041,-141.992 932.571,-148.519"/>
</g>
<!-- Node29 -->
<g id="node29" class="node"><title>Node29</title>
<g id="a_node29"><a xlink:href="../../d6/d56/class_critical_c_string.html#afaf8265c286f1ee918bbd6d9cfd575ae" target="_top" xlink:title="CriticalCString::Clear">
<polygon fill="white" stroke="black" points="1124,-80.5 1124,-101.5 1252,-101.5 1252,-80.5 1124,-80.5"/>
<text text-anchor="middle" x="1188" y="-87.9" font-family="Helvetica,sans-Serif" font-size="12.00">CriticalCString::Clear</text>
</a>
</g>
</g>
<!-- Node28&#45;&gt;Node29 -->
<g id="edge31" class="edge"><title>Node28&#45;&gt;Node29</title>
<path fill="none" stroke="midnightblue" d="M1069.17,-91C1083.55,-91 1098.92,-91 1113.65,-91"/>
<polygon fill="midnightblue" stroke="midnightblue" points="1113.72,-94.5001 1123.72,-91 1113.72,-87.5001 1113.72,-94.5001"/>
</g>
<!-- Node39 -->
<g id="node39" class="node"><title>Node39</title>
<g id="a_node39"><a xlink:href="../../d8/d08/class_timer.html#a0d8d7aab98c1c4b20e28aae017873294" target="_top" xlink:title="calculates elapsed time in milliseconds ">
<polygon fill="white" stroke="black" points="956,-0.5 956,-21.5 1052,-21.5 1052,-0.5 956,-0.5"/>
<text text-anchor="middle" x="1004" y="-7.9" font-family="Helvetica,sans-Serif" font-size="12.00">Timer::Elapsed</text>
</a>
</g>
</g>
<!-- Node38&#45;&gt;Node39 -->
<g id="edge41" class="edge"><title>Node38&#45;&gt;Node39</title>
<path fill="none" stroke="midnightblue" d="M848.811,-167.997C861.401,-165.239 874.597,-160.179 884,-151 923.843,-112.103 879.559,-69.2753 920,-31 927.266,-24.1226 936.471,-19.4815 946.087,-16.3756"/>
<polygon fill="midnightblue" stroke="midnightblue" points="947.043,-19.7429 955.784,-13.7554 945.217,-12.9853 947.043,-19.7429"/>
</g>
<!-- Node41&#45;&gt;Node18 -->
<g id="edge44" class="edge"><title>Node41&#45;&gt;Node18</title>
<path fill="none" stroke="midnightblue" d="M474.19,-167.902C482.239,-164.813 490.412,-161.466 498,-158 514.649,-150.395 516.956,-144.673 534,-138 540.326,-135.523 547.049,-133.288 553.82,-131.287"/>
<polygon fill="midnightblue" stroke="midnightblue" points="555.039,-134.581 563.731,-128.524 553.158,-127.838 555.039,-134.581"/>
</g>
<!-- Node41&#45;&gt;Node19 -->
<g id="edge45" class="edge"><title>Node41&#45;&gt;Node19</title>
<path fill="none" stroke="midnightblue" d="M482.973,-202.091C488.268,-204.686 493.37,-207.642 498,-211 519.3,-226.449 511.965,-243.62 534,-258 537.129,-260.042 540.449,-261.876 543.889,-263.522"/>
<polygon fill="midnightblue" stroke="midnightblue" points="542.659,-266.802 553.233,-267.459 545.376,-260.351 542.659,-266.802"/>
</g>
<!-- Node41&#45;&gt;Node20 -->
<g id="edge46" class="edge"><title>Node41&#45;&gt;Node20</title>
<path fill="none" stroke="midnightblue" d="M491.692,-175.481C511.002,-172.765 531.99,-169.814 551.128,-167.123"/>
<polygon fill="midnightblue" stroke="midnightblue" points="551.831,-170.558 561.246,-165.7 550.856,-163.626 551.831,-170.558"/>
</g>
<!-- Node41&#45;&gt;Node22 -->
<g id="edge47" class="edge"><title>Node41&#45;&gt;Node22</title>
<path fill="none" stroke="midnightblue" d="M478.671,-202.015C496.279,-207.33 515.914,-213.085 534,-218 542.723,-220.37 552.003,-222.76 561.066,-225.021"/>
<polygon fill="midnightblue" stroke="midnightblue" points="560.231,-228.42 570.778,-227.418 561.908,-221.624 560.231,-228.42"/>
</g>
<!-- Node41&#45;&gt;Node25 -->
<g id="edge48" class="edge"><title>Node41&#45;&gt;Node25</title>
<path fill="none" stroke="midnightblue" d="M491.692,-189.583C506.341,-190.575 521.957,-191.632 536.997,-192.651"/>
<polygon fill="midnightblue" stroke="midnightblue" points="537.085,-196.165 547.299,-193.348 537.558,-189.181 537.085,-196.165"/>
</g>
</g>
</svg>
