<?xml version="1.0" encoding="UTF-8" standalone="no"?>
<!DOCTYPE svg PUBLIC "-//W3C//DTD SVG 1.1//EN"
 "http://www.w3.org/Graphics/SVG/1.1/DTD/svg11.dtd">
<!-- Generated by graphviz version 2.34.0 (20130907.0111)
 -->
<!-- Title: COperatorConsoleApp::OnShowJSON Pages: 1 -->
<svg width="460pt" height="148pt"
 viewBox="0.00 0.00 460.00 148.00" xmlns="http://www.w3.org/2000/svg" xmlns:xlink="http://www.w3.org/1999/xlink">
<g id="graph0" class="graph" transform="scale(1 1) rotate(0) translate(4 144)">
<title>COperatorConsoleApp::OnShowJSON</title>
<polygon fill="white" stroke="white" points="-4,4 -4,-144 456,-144 456,4 -4,4"/>
<!-- Node1 -->
<g id="node1" class="node"><title>Node1</title>
<polygon fill="#bfbfbf" stroke="black" points="0.5,-53 0.5,-87 137.5,-87 137.5,-53 0.5,-53"/>
<text text-anchor="start" x="8.5" y="-73.4" font-family="Helvetica,sans-Serif" font-size="12.00">COperatorConsoleApp</text>
<text text-anchor="middle" x="69" y="-60.4" font-family="Helvetica,sans-Serif" font-size="12.00">::OnShowJSON</text>
</g>
<!-- Node2 -->
<g id="node2" class="node"><title>Node2</title>
<g id="a_node2"><a xlink:href="../../db/da2/class_modeless_dialog_thread.html#aa832ce7be9bdd9b33d4067aea182a114" target="_top" xlink:title="ModelessDialogThread\l::SetText">
<polygon fill="white" stroke="black" points="174.5,-106 174.5,-140 313.5,-140 313.5,-106 174.5,-106"/>
<text text-anchor="start" x="182.5" y="-126.4" font-family="Helvetica,sans-Serif" font-size="12.00">ModelessDialogThread</text>
<text text-anchor="middle" x="244" y="-113.4" font-family="Helvetica,sans-Serif" font-size="12.00">::SetText</text>
</a>
</g>
</g>
<!-- Node1&#45;&gt;Node2 -->
<g id="edge1" class="edge"><title>Node1&#45;&gt;Node2</title>
<path fill="none" stroke="midnightblue" d="M125.691,-87.0613C142.205,-92.1205 160.442,-97.7077 177.517,-102.939"/>
<polygon fill="midnightblue" stroke="midnightblue" points="176.827,-106.388 187.414,-105.971 178.878,-99.6949 176.827,-106.388"/>
</g>
<!-- Node4 -->
<g id="node4" class="node"><title>Node4</title>
<g id="a_node4"><a xlink:href="../../db/da2/class_modeless_dialog_thread.html#a2d249f81b6f299b56c23f1ffb86888fe" target="_top" xlink:title="ModelessDialogThread\l::SetTitle">
<polygon fill="white" stroke="black" points="174.5,-53 174.5,-87 313.5,-87 313.5,-53 174.5,-53"/>
<text text-anchor="start" x="182.5" y="-73.4" font-family="Helvetica,sans-Serif" font-size="12.00">ModelessDialogThread</text>
<text text-anchor="middle" x="244" y="-60.4" font-family="Helvetica,sans-Serif" font-size="12.00">::SetTitle</text>
</a>
</g>
</g>
<!-- Node1&#45;&gt;Node4 -->
<g id="edge3" class="edge"><title>Node1&#45;&gt;Node4</title>
<path fill="none" stroke="midnightblue" d="M137.878,-70C146.519,-70 155.42,-70 164.214,-70"/>
<polygon fill="midnightblue" stroke="midnightblue" points="164.466,-73.5001 174.466,-70 164.466,-66.5001 164.466,-73.5001"/>
</g>
<!-- Node6 -->
<g id="node6" class="node"><title>Node6</title>
<g id="a_node6"><a xlink:href="../../db/da2/class_modeless_dialog_thread.html#a089a9e2193dc14482b1b782c766f0723" target="_top" xlink:title="ModelessDialogThread\l::Show">
<polygon fill="white" stroke="black" points="174.5,-0 174.5,-34 313.5,-34 313.5,-0 174.5,-0"/>
<text text-anchor="start" x="182.5" y="-20.4" font-family="Helvetica,sans-Serif" font-size="12.00">ModelessDialogThread</text>
<text text-anchor="middle" x="244" y="-7.4" font-family="Helvetica,sans-Serif" font-size="12.00">::Show</text>
</a>
</g>
</g>
<!-- Node1&#45;&gt;Node6 -->
<g id="edge5" class="edge"><title>Node1&#45;&gt;Node6</title>
<path fill="none" stroke="midnightblue" d="M125.691,-52.9387C142.205,-47.8795 160.442,-42.2923 177.517,-37.0613"/>
<polygon fill="midnightblue" stroke="midnightblue" points="178.878,-40.3051 187.414,-34.0293 176.827,-33.6121 178.878,-40.3051"/>
</g>
<!-- Node3 -->
<g id="node3" class="node"><title>Node3</title>
<g id="a_node3"><a xlink:href="../../da/d35/class_text_dlg.html#acc3317ac993239e125eb9abad0bed595" target="_top" xlink:title="set the contents of the window to the string pointed to by &#39;text&#39; ">
<polygon fill="white" stroke="black" points="350,-112.5 350,-133.5 452,-133.5 452,-112.5 350,-112.5"/>
<text text-anchor="middle" x="401" y="-119.9" font-family="Helvetica,sans-Serif" font-size="12.00">TextDlg::SetText</text>
</a>
</g>
</g>
<!-- Node2&#45;&gt;Node3 -->
<g id="edge2" class="edge"><title>Node2&#45;&gt;Node3</title>
<path fill="none" stroke="midnightblue" d="M313.888,-123C322.51,-123 331.276,-123 339.752,-123"/>
<polygon fill="midnightblue" stroke="midnightblue" points="339.918,-126.5 349.918,-123 339.918,-119.5 339.918,-126.5"/>
</g>
<!-- Node5 -->
<g id="node5" class="node"><title>Node5</title>
<g id="a_node5"><a xlink:href="../../da/d35/class_text_dlg.html#a6471ec7c3481e823b24a13b429ffddb2" target="_top" xlink:title="sets the window&#39;s title ">
<polygon fill="white" stroke="black" points="350,-59.5 350,-80.5 452,-80.5 452,-59.5 350,-59.5"/>
<text text-anchor="middle" x="401" y="-66.9" font-family="Helvetica,sans-Serif" font-size="12.00">TextDlg::SetTitle</text>
</a>
</g>
</g>
<!-- Node4&#45;&gt;Node5 -->
<g id="edge4" class="edge"><title>Node4&#45;&gt;Node5</title>
<path fill="none" stroke="midnightblue" d="M313.888,-70C322.51,-70 331.276,-70 339.752,-70"/>
<polygon fill="midnightblue" stroke="midnightblue" points="339.918,-73.5001 349.918,-70 339.918,-66.5001 339.918,-73.5001"/>
</g>
<!-- Node7 -->
<g id="node7" class="node"><title>Node7</title>
<g id="a_node7"><a xlink:href="../../da/d35/class_text_dlg.html#a34ee10e130a4122e949f86e4fb6d0286" target="_top" xlink:title="show or hide the window ">
<polygon fill="white" stroke="black" points="355,-6.5 355,-27.5 447,-27.5 447,-6.5 355,-6.5"/>
<text text-anchor="middle" x="401" y="-13.9" font-family="Helvetica,sans-Serif" font-size="12.00">TextDlg::Show</text>
</a>
</g>
</g>
<!-- Node6&#45;&gt;Node7 -->
<g id="edge6" class="edge"><title>Node6&#45;&gt;Node7</title>
<path fill="none" stroke="midnightblue" d="M313.888,-17C324.209,-17 334.737,-17 344.726,-17"/>
<polygon fill="midnightblue" stroke="midnightblue" points="344.911,-20.5001 354.911,-17 344.911,-13.5001 344.911,-20.5001"/>
</g>
</g>
</svg>
