<?xml version="1.0" encoding="UTF-8" standalone="no"?>
<!DOCTYPE svg PUBLIC "-//W3C//DTD SVG 1.1//EN"
 "http://www.w3.org/Graphics/SVG/1.1/DTD/svg11.dtd">
<!-- Generated by graphviz version 2.34.0 (20130907.0111)
 -->
<!-- Title: COperatorConsoleApp::WritePassFail Pages: 1 -->
<svg width="342pt" height="190pt"
 viewBox="0.00 0.00 342.00 190.00" xmlns="http://www.w3.org/2000/svg" xmlns:xlink="http://www.w3.org/1999/xlink">
<g id="graph0" class="graph" transform="scale(1 1) rotate(0) translate(4 186)">
<title>COperatorConsoleApp::WritePassFail</title>
<polygon fill="white" stroke="white" points="-4,4 -4,-186 338,-186 338,4 -4,4"/>
<!-- Node1 -->
<g id="node1" class="node"><title>Node1</title>
<polygon fill="#bfbfbf" stroke="black" points="0.5,-74 0.5,-108 137.5,-108 137.5,-74 0.5,-74"/>
<text text-anchor="start" x="8.5" y="-94.4" font-family="Helvetica,sans-Serif" font-size="12.00">COperatorConsoleApp</text>
<text text-anchor="middle" x="69" y="-81.4" font-family="Helvetica,sans-Serif" font-size="12.00">::WritePassFail</text>
</g>
<!-- Node2 -->
<g id="node2" class="node"><title>Node2</title>
<g id="a_node2"><a xlink:href="../../db/db5/_documentation_2_operator-_console_2_operator_console_8cpp.html#a11ecb189cc593bc1e924280e66d85a77" target="_top" xlink:title="Conditionally adds a particular key (variable name) and value to the std::vector&lt;std::string&gt; keys...">
<polygon fill="white" stroke="black" points="194,-160.5 194,-181.5 314,-181.5 314,-160.5 194,-160.5"/>
<text text-anchor="middle" x="254" y="-167.9" font-family="Helvetica,sans-Serif" font-size="12.00">addKeysAndValues</text>
</a>
</g>
</g>
<!-- Node1&#45;&gt;Node2 -->
<g id="edge1" class="edge"><title>Node1&#45;&gt;Node2</title>
<path fill="none" stroke="midnightblue" d="M95.0655,-108.101C115.531,-121.402 145.608,-139.475 174,-151 179.936,-153.41 186.244,-155.593 192.606,-157.554"/>
<polygon fill="midnightblue" stroke="midnightblue" points="192.024,-161.029 202.603,-160.453 193.974,-154.306 192.024,-161.029"/>
</g>
<!-- Node3 -->
<g id="node3" class="node"><title>Node3</title>
<g id="a_node3"><a xlink:href="../../d6/d56/imatest__library_8cpp.html#ab3b0d3cdae6c078ef623ac257ead5cef" target="_top" xlink:title="inifile">
<polygon fill="white" stroke="black" points="232,-120.5 232,-141.5 276,-141.5 276,-120.5 232,-120.5"/>
<text text-anchor="middle" x="254" y="-127.9" font-family="Helvetica,sans-Serif" font-size="12.00">inifile</text>
</a>
</g>
</g>
<!-- Node1&#45;&gt;Node3 -->
<g id="edge2" class="edge"><title>Node1&#45;&gt;Node3</title>
<path fill="none" stroke="midnightblue" d="M137.623,-105.781C166.583,-112.111 198.974,-119.191 222.047,-124.234"/>
<polygon fill="midnightblue" stroke="midnightblue" points="221.429,-127.682 231.946,-126.398 222.924,-120.843 221.429,-127.682"/>
</g>
<!-- Node4 -->
<g id="node4" class="node"><title>Node4</title>
<g id="a_node4"><a xlink:href="../../db/db5/_documentation_2_operator-_console_2_operator_console_8cpp.html#a6bde8a4b872c50e28d3bd8910865951d" target="_top" xlink:title="Converts the entry&lt;T&gt;.value into a std::string to facilitate writing to the pass/fail file...">
<polygon fill="white" stroke="black" points="194.5,-80.5 194.5,-101.5 313.5,-101.5 313.5,-80.5 194.5,-80.5"/>
<text text-anchor="middle" x="254" y="-87.9" font-family="Helvetica,sans-Serif" font-size="12.00">writeEntValueString</text>
</a>
</g>
</g>
<!-- Node1&#45;&gt;Node4 -->
<g id="edge3" class="edge"><title>Node1&#45;&gt;Node4</title>
<path fill="none" stroke="midnightblue" d="M137.623,-91C152.761,-91 168.838,-91 184.03,-91"/>
<polygon fill="midnightblue" stroke="midnightblue" points="184.385,-94.5001 194.385,-91 184.385,-87.5001 184.385,-94.5001"/>
</g>
<!-- Node5 -->
<g id="node5" class="node"><title>Node5</title>
<g id="a_node5"><a xlink:href="../../db/db5/_documentation_2_operator-_console_2_operator_console_8cpp.html#aac809da01c6c75d04fe012a93ebfec3a" target="_top" xlink:title="Converts the minMaxEntry&lt;CString&gt;.min_val and .max_val into a std::string to facilitate writing to th...">
<polygon fill="white" stroke="black" points="174,-40.5 174,-61.5 334,-61.5 334,-40.5 174,-40.5"/>
<text text-anchor="middle" x="254" y="-47.9" font-family="Helvetica,sans-Serif" font-size="12.00">writeMinMaxEntValueString</text>
</a>
</g>
</g>
<!-- Node1&#45;&gt;Node5 -->
<g id="edge4" class="edge"><title>Node1&#45;&gt;Node5</title>
<path fill="none" stroke="midnightblue" d="M137.623,-76.2191C156.436,-72.1068 176.698,-67.678 194.912,-63.6968"/>
<polygon fill="midnightblue" stroke="midnightblue" points="195.776,-67.0906 204.798,-61.5359 194.282,-60.2521 195.776,-67.0906"/>
</g>
<!-- Node6 -->
<g id="node6" class="node"><title>Node6</title>
<g id="a_node6"><a xlink:href="../../db/db5/_documentation_2_operator-_console_2_operator_console_8cpp.html#ad10a2b1599ac382806e6218f4ccd07c1" target="_top" xlink:title="Converts the vecEntry&lt;CString&gt;.value into a single std::string to facilitate writing to the pass/fail...">
<polygon fill="white" stroke="black" points="184,-0.5 184,-21.5 324,-21.5 324,-0.5 184,-0.5"/>
<text text-anchor="middle" x="254" y="-7.9" font-family="Helvetica,sans-Serif" font-size="12.00">writeVecEntValueString</text>
</a>
</g>
</g>
<!-- Node1&#45;&gt;Node6 -->
<g id="edge5" class="edge"><title>Node1&#45;&gt;Node6</title>
<path fill="none" stroke="midnightblue" d="M95.0655,-73.8989C115.531,-60.5982 145.608,-42.5254 174,-31 179.936,-28.5904 186.244,-26.4074 192.606,-24.4464"/>
<polygon fill="midnightblue" stroke="midnightblue" points="193.974,-27.694 202.603,-21.5467 192.024,-20.9711 193.974,-27.694"/>
</g>
</g>
</svg>
