<?xml version="1.0" encoding="UTF-8" standalone="no"?>
<!DOCTYPE svg PUBLIC "-//W3C//DTD SVG 1.1//EN"
 "http://www.w3.org/Graphics/SVG/1.1/DTD/svg11.dtd">
<!-- Generated by graphviz version 2.34.0 (20130907.0111)
 -->
<!-- Title: COperatorConsoleApp::Quit Pages: 1 -->
<svg width="488pt" height="143pt"
 viewBox="0.00 0.00 488.00 143.00" xmlns="http://www.w3.org/2000/svg" xmlns:xlink="http://www.w3.org/1999/xlink">
<g id="graph0" class="graph" transform="scale(1 1) rotate(0) translate(4 139)">
<title>COperatorConsoleApp::Quit</title>
<polygon fill="white" stroke="white" points="-4,4 -4,-139 484,-139 484,4 -4,4"/>
<!-- Node1 -->
<g id="node1" class="node"><title>Node1</title>
<polygon fill="#bfbfbf" stroke="black" points="0.5,-47 0.5,-81 137.5,-81 137.5,-47 0.5,-47"/>
<text text-anchor="start" x="8.5" y="-67.4" font-family="Helvetica,sans-Serif" font-size="12.00">COperatorConsoleApp</text>
<text text-anchor="middle" x="69" y="-54.4" font-family="Helvetica,sans-Serif" font-size="12.00">::Quit</text>
</g>
<!-- Node2 -->
<g id="node2" class="node"><title>Node2</title>
<g id="a_node2"><a xlink:href="../../d5/d67/class_stdout_thread.html#aa1e6ea9a0ab824dd75cfe81fe2686de2" target="_top" xlink:title="StdoutThread::Quit">
<polygon fill="white" stroke="black" points="186,-93.5 186,-114.5 300,-114.5 300,-93.5 186,-93.5"/>
<text text-anchor="middle" x="243" y="-100.9" font-family="Helvetica,sans-Serif" font-size="12.00">StdoutThread::Quit</text>
</a>
</g>
</g>
<!-- Node1&#45;&gt;Node2 -->
<g id="edge1" class="edge"><title>Node1&#45;&gt;Node2</title>
<path fill="none" stroke="midnightblue" d="M137.979,-79.8091C154.155,-83.5709 171.221,-87.5398 186.748,-91.1506"/>
<polygon fill="midnightblue" stroke="midnightblue" points="186.171,-94.6098 196.704,-93.466 187.756,-87.7917 186.171,-94.6098"/>
</g>
<!-- Node5 -->
<g id="node5" class="node"><title>Node5</title>
<g id="a_node5"><a xlink:href="../../d7/da0/class_thread_control.html#afd86c1fc3e09d219cf48f5a15539b920" target="_top" xlink:title="ThreadControl::Quit">
<polygon fill="white" stroke="black" points="184,-53.5 184,-74.5 302,-74.5 302,-53.5 184,-53.5"/>
<text text-anchor="middle" x="243" y="-60.9" font-family="Helvetica,sans-Serif" font-size="12.00">ThreadControl::Quit</text>
</a>
</g>
</g>
<!-- Node1&#45;&gt;Node5 -->
<g id="edge4" class="edge"><title>Node1&#45;&gt;Node5</title>
<path fill="none" stroke="midnightblue" d="M137.979,-64C149.744,-64 161.981,-64 173.753,-64"/>
<polygon fill="midnightblue" stroke="midnightblue" points="173.956,-67.5001 183.956,-64 173.956,-60.5001 173.956,-67.5001"/>
</g>
<!-- Node6 -->
<g id="node6" class="node"><title>Node6</title>
<g id="a_node6"><a xlink:href="../../d3/d9f/class_c_operator_console_app.html#aa0ad15e15b08dc7c2704d9978f271954" target="_top" xlink:title="COperatorConsoleApp\l::SaveLog">
<polygon fill="white" stroke="black" points="174.5,-0 174.5,-34 311.5,-34 311.5,-0 174.5,-0"/>
<text text-anchor="start" x="182.5" y="-20.4" font-family="Helvetica,sans-Serif" font-size="12.00">COperatorConsoleApp</text>
<text text-anchor="middle" x="243" y="-7.4" font-family="Helvetica,sans-Serif" font-size="12.00">::SaveLog</text>
</a>
</g>
</g>
<!-- Node1&#45;&gt;Node6 -->
<g id="edge5" class="edge"><title>Node1&#45;&gt;Node6</title>
<path fill="none" stroke="midnightblue" d="M132.583,-46.899C144.709,-43.5853 157.508,-40.0879 169.911,-36.6988"/>
<polygon fill="midnightblue" stroke="midnightblue" points="171.028,-40.0218 179.752,-34.0096 169.183,-33.2694 171.028,-40.0218"/>
</g>
<!-- Node3 -->
<g id="node3" class="node"><title>Node3</title>
<g id="a_node3"><a xlink:href="../../d5/d52/class_stdout_redirect.html#a95ecf8bde26cbfb1bcdc77bf9311af57" target="_top" xlink:title="StdoutRedirect::Stop">
<polygon fill="white" stroke="black" points="351.5,-113.5 351.5,-134.5 476.5,-134.5 476.5,-113.5 351.5,-113.5"/>
<text text-anchor="middle" x="414" y="-120.9" font-family="Helvetica,sans-Serif" font-size="12.00">StdoutRedirect::Stop</text>
</a>
</g>
</g>
<!-- Node2&#45;&gt;Node3 -->
<g id="edge2" class="edge"><title>Node2&#45;&gt;Node3</title>
<path fill="none" stroke="midnightblue" d="M300.275,-110.66C313.359,-112.208 327.463,-113.877 341.118,-115.493"/>
<polygon fill="midnightblue" stroke="midnightblue" points="341.105,-119.016 351.447,-116.716 341.928,-112.065 341.105,-119.016"/>
</g>
<!-- Node4 -->
<g id="node4" class="node"><title>Node4</title>
<g id="a_node4"><a xlink:href="../../d5/d52/class_stdout_redirect.html#a16592c4b15073ca7825c04de07503eac" target="_top" xlink:title="StdoutRedirect::Close">
<polygon fill="white" stroke="black" points="348.5,-73.5 348.5,-94.5 479.5,-94.5 479.5,-73.5 348.5,-73.5"/>
<text text-anchor="middle" x="414" y="-80.9" font-family="Helvetica,sans-Serif" font-size="12.00">StdoutRedirect::Close</text>
</a>
</g>
</g>
<!-- Node2&#45;&gt;Node4 -->
<g id="edge3" class="edge"><title>Node2&#45;&gt;Node4</title>
<path fill="none" stroke="midnightblue" d="M300.275,-97.3403C312.473,-95.8967 325.558,-94.3482 338.338,-92.8357"/>
<polygon fill="midnightblue" stroke="midnightblue" points="338.981,-96.2842 348.5,-91.6331 338.158,-89.3327 338.981,-96.2842"/>
</g>
</g>
</svg>
