<?xml version="1.0" encoding="UTF-8" standalone="no"?>
<!DOCTYPE svg PUBLIC "-//W3C//DTD SVG 1.1//EN"
 "http://www.w3.org/Graphics/SVG/1.1/DTD/svg11.dtd">
<!-- Generated by graphviz version 2.34.0 (20130907.0111)
 -->
<!-- Title: COperatorConsoleApp::InitInstance Pages: 1 -->
<svg width="880pt" height="1101pt"
 viewBox="0.00 0.00 880.00 1101.00" xmlns="http://www.w3.org/2000/svg" xmlns:xlink="http://www.w3.org/1999/xlink">
<g id="graph0" class="graph" transform="scale(1 1) rotate(0) translate(4 1097)">
<title>COperatorConsoleApp::InitInstance</title>
<polygon fill="white" stroke="white" points="-4,4 -4,-1097 876,-1097 876,4 -4,4"/>
<!-- Node1 -->
<g id="node1" class="node"><title>Node1</title>
<polygon fill="#bfbfbf" stroke="black" points="0.5,-301 0.5,-335 137.5,-335 137.5,-301 0.5,-301"/>
<text text-anchor="start" x="8.5" y="-321.4" font-family="Helvetica,sans-Serif" font-size="12.00">COperatorConsoleApp</text>
<text text-anchor="middle" x="69" y="-308.4" font-family="Helvetica,sans-Serif" font-size="12.00">::InitInstance</text>
</g>
<!-- Node2 -->
<g id="node2" class="node"><title>Node2</title>
<g id="a_node2"><a xlink:href="../../d3/d9f/class_c_operator_console_app.html#ae77367b83a556990cfd7827dc7b73230" target="_top" xlink:title="Function that closes the Imatest library. Note that once closed, the library cannot be reinitialized...">
<polygon fill="white" stroke="black" points="174.5,-896 174.5,-930 311.5,-930 311.5,-896 174.5,-896"/>
<text text-anchor="start" x="182.5" y="-916.4" font-family="Helvetica,sans-Serif" font-size="12.00">COperatorConsoleApp</text>
<text text-anchor="middle" x="243" y="-903.4" font-family="Helvetica,sans-Serif" font-size="12.00">::CloseLibs</text>
</a>
</g>
</g>
<!-- Node1&#45;&gt;Node2 -->
<g id="edge1" class="edge"><title>Node1&#45;&gt;Node2</title>
<path fill="none" stroke="midnightblue" d="M73.6083,-335.058C85.7499,-391.761 127.008,-578.899 174,-730 191.543,-786.409 216.719,-850.836 231.002,-886.214"/>
<polygon fill="midnightblue" stroke="midnightblue" points="227.892,-887.857 234.896,-895.806 234.378,-885.224 227.892,-887.857"/>
</g>
<!-- Node4 -->
<g id="node4" class="node"><title>Node4</title>
<g id="a_node4"><a xlink:href="../../d3/d9f/class_c_operator_console_app.html#a7f0cd7b21cee2171dea973e4e6e7bb9d" target="_top" xlink:title="Init perform application&#45;specific initialization. ">
<polygon fill="white" stroke="black" points="174.5,-687 174.5,-721 311.5,-721 311.5,-687 174.5,-687"/>
<text text-anchor="start" x="182.5" y="-707.4" font-family="Helvetica,sans-Serif" font-size="12.00">COperatorConsoleApp</text>
<text text-anchor="middle" x="243" y="-694.4" font-family="Helvetica,sans-Serif" font-size="12.00">::Init</text>
</a>
</g>
</g>
<!-- Node1&#45;&gt;Node4 -->
<g id="edge3" class="edge"><title>Node1&#45;&gt;Node4</title>
<path fill="none" stroke="midnightblue" d="M77.6126,-335.084C104.747,-395.98 196.88,-602.742 230.01,-677.092"/>
<polygon fill="midnightblue" stroke="midnightblue" points="227.013,-678.966 234.28,-686.675 233.407,-676.117 227.013,-678.966"/>
</g>
<!-- Node29 -->
<g id="node29" class="node"><title>Node29</title>
<g id="a_node29"><a xlink:href="../../d3/d9f/class_c_operator_console_app.html#a609b0f5874afb0cf46b76de94e0312e5" target="_top" xlink:title="Function that initializes the Imatest library. Must be called before any Imatest library functions ar...">
<polygon fill="white" stroke="black" points="174.5,-370 174.5,-404 311.5,-404 311.5,-370 174.5,-370"/>
<text text-anchor="start" x="182.5" y="-390.4" font-family="Helvetica,sans-Serif" font-size="12.00">COperatorConsoleApp</text>
<text text-anchor="middle" x="243" y="-377.4" font-family="Helvetica,sans-Serif" font-size="12.00">::InitLibs</text>
</a>
</g>
</g>
<!-- Node1&#45;&gt;Node29 -->
<g id="edge37" class="edge"><title>Node1&#45;&gt;Node29</title>
<path fill="none" stroke="midnightblue" d="M112.517,-335.056C135.878,-344.428 165.048,-356.13 189.784,-366.053"/>
<polygon fill="midnightblue" stroke="midnightblue" points="188.792,-369.426 199.376,-369.901 191.398,-362.929 188.792,-369.426"/>
</g>
<!-- Node34 -->
<g id="node34" class="node"><title>Node34</title>
<g id="a_node34"><a xlink:href="../../d3/d9f/class_c_operator_console_app.html#a3326d8200d481631ffb26bff5c621e05" target="_top" xlink:title="COperatorConsoleApp\l::InitOutput">
<polygon fill="white" stroke="black" points="174.5,-301 174.5,-335 311.5,-335 311.5,-301 174.5,-301"/>
<text text-anchor="start" x="182.5" y="-321.4" font-family="Helvetica,sans-Serif" font-size="12.00">COperatorConsoleApp</text>
<text text-anchor="middle" x="243" y="-308.4" font-family="Helvetica,sans-Serif" font-size="12.00">::InitOutput</text>
</a>
</g>
</g>
<!-- Node1&#45;&gt;Node34 -->
<g id="edge42" class="edge"><title>Node1&#45;&gt;Node34</title>
<path fill="none" stroke="midnightblue" d="M137.979,-318C146.55,-318 155.372,-318 164.082,-318"/>
<polygon fill="midnightblue" stroke="midnightblue" points="164.233,-321.5 174.233,-318 164.233,-314.5 164.233,-321.5"/>
</g>
<!-- Node39 -->
<g id="node39" class="node"><title>Node39</title>
<g id="a_node39"><a xlink:href="../../d3/d9f/class_c_operator_console_app.html#a59dada996addd1a16a558b431bcb922e" target="_top" xlink:title="COperatorConsoleApp\l::Quit">
<polygon fill="white" stroke="black" points="174.5,-235 174.5,-269 311.5,-269 311.5,-235 174.5,-235"/>
<text text-anchor="start" x="182.5" y="-255.4" font-family="Helvetica,sans-Serif" font-size="12.00">COperatorConsoleApp</text>
<text text-anchor="middle" x="243" y="-242.4" font-family="Helvetica,sans-Serif" font-size="12.00">::Quit</text>
</a>
</g>
</g>
<!-- Node1&#45;&gt;Node39 -->
<g id="edge47" class="edge"><title>Node1&#45;&gt;Node39</title>
<path fill="none" stroke="midnightblue" d="M114.742,-300.832C137.138,-292.238 164.426,-281.767 187.981,-272.728"/>
<polygon fill="midnightblue" stroke="midnightblue" points="189.4,-275.933 197.482,-269.082 186.892,-269.397 189.4,-275.933"/>
</g>
<!-- Node45 -->
<g id="node45" class="node"><title>Node45</title>
<g id="a_node45"><a xlink:href="../../d3/d9f/class_c_operator_console_app.html#a3ee628baf779a1be1e323a84fccc1d23" target="_top" xlink:title="This function reads in items for the setup dialog from imatest.ini. ">
<polygon fill="white" stroke="black" points="174.5,-155 174.5,-189 311.5,-189 311.5,-155 174.5,-155"/>
<text text-anchor="start" x="182.5" y="-175.4" font-family="Helvetica,sans-Serif" font-size="12.00">COperatorConsoleApp</text>
<text text-anchor="middle" x="243" y="-162.4" font-family="Helvetica,sans-Serif" font-size="12.00">::ReadINISettings</text>
</a>
</g>
</g>
<!-- Node1&#45;&gt;Node45 -->
<g id="edge53" class="edge"><title>Node1&#45;&gt;Node45</title>
<path fill="none" stroke="midnightblue" d="M88.4532,-300.812C108.989,-281.848 143.326,-250.619 174,-225 185.925,-215.04 199.36,-204.443 211.119,-195.363"/>
<polygon fill="midnightblue" stroke="midnightblue" points="213.54,-197.917 219.34,-189.051 209.277,-192.365 213.54,-197.917"/>
</g>
<!-- Node47 -->
<g id="node47" class="node"><title>Node47</title>
<g id="a_node47"><a xlink:href="../../d3/d9f/class_c_operator_console_app.html#a864bc0130d261b22868920143919ceb7" target="_top" xlink:title="This function reads in the pass/fail variable values as in the pass/fail file listed in the imatest I...">
<polygon fill="white" stroke="black" points="174.5,-87 174.5,-121 311.5,-121 311.5,-87 174.5,-87"/>
<text text-anchor="start" x="182.5" y="-107.4" font-family="Helvetica,sans-Serif" font-size="12.00">COperatorConsoleApp</text>
<text text-anchor="middle" x="243" y="-94.4" font-family="Helvetica,sans-Serif" font-size="12.00">::ReadPassFail</text>
</a>
</g>
</g>
<!-- Node1&#45;&gt;Node47 -->
<g id="edge55" class="edge"><title>Node1&#45;&gt;Node47</title>
<path fill="none" stroke="midnightblue" d="M76.892,-300.938C91.0048,-267.651 125.958,-193.105 174,-145 180.941,-138.05 189.285,-131.793 197.715,-126.381"/>
<polygon fill="midnightblue" stroke="midnightblue" points="199.749,-129.24 206.475,-121.054 196.112,-123.26 199.749,-129.24"/>
</g>
<!-- Node3 -->
<g id="node3" class="node"><title>Node3</title>
<g id="a_node3"><a xlink:href="../../d6/d56/imatest__library_8cpp.html#ab8ecf0b8594230498690c8a4bb78e7b8" target="_top" xlink:title="imatest_libraryTerminate">
<polygon fill="white" stroke="black" points="350,-1071.5 350,-1092.5 496,-1092.5 496,-1071.5 350,-1071.5"/>
<text text-anchor="middle" x="423" y="-1078.9" font-family="Helvetica,sans-Serif" font-size="12.00">imatest_libraryTerminate</text>
</a>
</g>
</g>
<!-- Node2&#45;&gt;Node3 -->
<g id="edge2" class="edge"><title>Node2&#45;&gt;Node3</title>
<path fill="none" stroke="midnightblue" d="M251.25,-930.063C265.271,-960.982 299.091,-1026.28 348,-1061 351.275,-1063.33 354.802,-1065.39 358.477,-1067.23"/>
<polygon fill="midnightblue" stroke="midnightblue" points="357.292,-1070.54 367.856,-1071.36 360.108,-1064.13 357.292,-1070.54"/>
</g>
<!-- Node5 -->
<g id="node5" class="node"><title>Node5</title>
<g id="a_node5"><a xlink:href="../../d3/d9f/class_c_operator_console_app.html#aeb93b88acfe6d11d64f493f63f74bca6" target="_top" xlink:title="COperatorConsoleApp\l::AllocateImageBuf">
<polygon fill="white" stroke="black" points="354.5,-687 354.5,-721 491.5,-721 491.5,-687 354.5,-687"/>
<text text-anchor="start" x="362.5" y="-707.4" font-family="Helvetica,sans-Serif" font-size="12.00">COperatorConsoleApp</text>
<text text-anchor="middle" x="423" y="-694.4" font-family="Helvetica,sans-Serif" font-size="12.00">::AllocateImageBuf</text>
</a>
</g>
</g>
<!-- Node4&#45;&gt;Node5 -->
<g id="edge4" class="edge"><title>Node4&#45;&gt;Node5</title>
<path fill="none" stroke="midnightblue" d="M311.548,-704C322.206,-704 333.3,-704 344.169,-704"/>
<polygon fill="midnightblue" stroke="midnightblue" points="344.498,-707.5 354.498,-704 344.498,-700.5 344.498,-707.5"/>
</g>
<!-- Node7 -->
<g id="node7" class="node"><title>Node7</title>
<g id="a_node7"><a xlink:href="../../d3/d9f/class_c_operator_console_app.html#ac47de682b105a11015ceef305c225924" target="_top" xlink:title="COperatorConsoleApp\l::CheckFiles">
<polygon fill="white" stroke="black" points="354.5,-634 354.5,-668 491.5,-668 491.5,-634 354.5,-634"/>
<text text-anchor="start" x="362.5" y="-654.4" font-family="Helvetica,sans-Serif" font-size="12.00">COperatorConsoleApp</text>
<text text-anchor="middle" x="423" y="-641.4" font-family="Helvetica,sans-Serif" font-size="12.00">::CheckFiles</text>
</a>
</g>
</g>
<!-- Node4&#45;&gt;Node7 -->
<g id="edge6" class="edge"><title>Node4&#45;&gt;Node7</title>
<path fill="none" stroke="midnightblue" d="M301.3,-686.939C318.45,-681.832 337.407,-676.188 355.116,-670.915"/>
<polygon fill="midnightblue" stroke="midnightblue" points="356.222,-674.238 364.807,-668.029 354.224,-667.529 356.222,-674.238"/>
</g>
<!-- Node9 -->
<g id="node9" class="node"><title>Node9</title>
<g id="a_node9"><a xlink:href="../../d8/d29/class_image_acquisition.html#af32c2cc8a87105465ba8620e77745c2b" target="_top" xlink:title="ImageAcquisition::GetInfo">
<polygon fill="white" stroke="black" points="348.5,-593.5 348.5,-614.5 497.5,-614.5 497.5,-593.5 348.5,-593.5"/>
<text text-anchor="middle" x="423" y="-600.9" font-family="Helvetica,sans-Serif" font-size="12.00">ImageAcquisition::GetInfo</text>
</a>
</g>
</g>
<!-- Node4&#45;&gt;Node9 -->
<g id="edge8" class="edge"><title>Node4&#45;&gt;Node9</title>
<path fill="none" stroke="midnightblue" d="M261.67,-686.854C281.256,-668.749 314.522,-640.579 348,-624 352.578,-621.733 357.448,-619.695 362.418,-617.871"/>
<polygon fill="midnightblue" stroke="midnightblue" points="363.695,-621.133 372.05,-614.618 361.456,-614.501 363.695,-621.133"/>
</g>
<!-- Node10 -->
<g id="node10" class="node"><title>Node10</title>
<g id="a_node10"><a xlink:href="../../dd/d34/class_config.html#a47f35832cdd5abdcf3de6843a789256d" target="_top" xlink:title="Config::Init">
<polygon fill="white" stroke="black" points="387.5,-553.5 387.5,-574.5 458.5,-574.5 458.5,-553.5 387.5,-553.5"/>
<text text-anchor="middle" x="423" y="-560.9" font-family="Helvetica,sans-Serif" font-size="12.00">Config::Init</text>
</a>
</g>
</g>
<!-- Node4&#45;&gt;Node10 -->
<g id="edge9" class="edge"><title>Node4&#45;&gt;Node10</title>
<path fill="none" stroke="midnightblue" d="M254.122,-686.833C270.483,-660.612 305.264,-610.813 348,-584 356.97,-578.372 367.513,-574.311 377.785,-571.385"/>
<polygon fill="midnightblue" stroke="midnightblue" points="378.662,-574.774 387.489,-568.915 376.935,-567.99 378.662,-574.774"/>
</g>
<!-- Node11 -->
<g id="node11" class="node"><title>Node11</title>
<g id="a_node11"><a xlink:href="../../d3/d9f/class_c_operator_console_app.html#a8edea834120ba2acc0e16230ff5efb14" target="_top" xlink:title="COperatorConsoleApp\l::InitBlemishAcq">
<polygon fill="white" stroke="black" points="354.5,-500 354.5,-534 491.5,-534 491.5,-500 354.5,-500"/>
<text text-anchor="start" x="362.5" y="-520.4" font-family="Helvetica,sans-Serif" font-size="12.00">COperatorConsoleApp</text>
<text text-anchor="middle" x="423" y="-507.4" font-family="Helvetica,sans-Serif" font-size="12.00">::InitBlemishAcq</text>
</a>
</g>
</g>
<!-- Node4&#45;&gt;Node11 -->
<g id="edge10" class="edge"><title>Node4&#45;&gt;Node11</title>
<path fill="none" stroke="midnightblue" d="M250.705,-686.933C264.263,-654.536 297.967,-583.814 348,-544 350.06,-542.361 352.229,-540.815 354.478,-539.359"/>
<polygon fill="midnightblue" stroke="midnightblue" points="356.571,-542.193 363.494,-534.173 353.08,-536.125 356.571,-542.193"/>
</g>
<!-- Node15 -->
<g id="node15" class="node"><title>Node15</title>
<g id="a_node15"><a xlink:href="../../d3/d9f/class_c_operator_console_app.html#a51ad7e6e8f370072c3e89d0d7e9e41a8" target="_top" xlink:title="COperatorConsoleApp\l::InitBlemishThread">
<polygon fill="white" stroke="black" points="354.5,-952 354.5,-986 491.5,-986 491.5,-952 354.5,-952"/>
<text text-anchor="start" x="362.5" y="-972.4" font-family="Helvetica,sans-Serif" font-size="12.00">COperatorConsoleApp</text>
<text text-anchor="middle" x="423" y="-959.4" font-family="Helvetica,sans-Serif" font-size="12.00">::InitBlemishThread</text>
</a>
</g>
</g>
<!-- Node4&#45;&gt;Node15 -->
<g id="edge14" class="edge"><title>Node4&#45;&gt;Node15</title>
<path fill="none" stroke="midnightblue" d="M249.525,-721.151C265.618,-770.195 313.497,-909.577 348,-942 349.66,-943.56 351.417,-945.031 353.252,-946.419"/>
<polygon fill="midnightblue" stroke="midnightblue" points="351.451,-949.423 361.732,-951.981 355.29,-943.57 351.451,-949.423"/>
</g>
<!-- Node21 -->
<g id="node21" class="node"><title>Node21</title>
<g id="a_node21"><a xlink:href="../../d3/d9f/class_c_operator_console_app.html#a74df2a3e42b3980069fa3946b67ecf79" target="_top" xlink:title="COperatorConsoleApp\l::InitCamera">
<polygon fill="white" stroke="black" points="354.5,-1018 354.5,-1052 491.5,-1052 491.5,-1018 354.5,-1018"/>
<text text-anchor="start" x="362.5" y="-1038.4" font-family="Helvetica,sans-Serif" font-size="12.00">COperatorConsoleApp</text>
<text text-anchor="middle" x="423" y="-1025.4" font-family="Helvetica,sans-Serif" font-size="12.00">::InitCamera</text>
</a>
</g>
</g>
<!-- Node4&#45;&gt;Node21 -->
<g id="edge20" class="edge"><title>Node4&#45;&gt;Node21</title>
<path fill="none" stroke="midnightblue" d="M250.692,-721.234C263.147,-753.453 290.563,-825.067 312,-886 328.931,-934.127 315.246,-955.885 348,-995 353.661,-1001.76 360.767,-1007.56 368.323,-1012.47"/>
<polygon fill="midnightblue" stroke="midnightblue" points="366.955,-1015.73 377.339,-1017.83 370.534,-1009.71 366.955,-1015.73"/>
</g>
<!-- Node23 -->
<g id="node23" class="node"><title>Node23</title>
<g id="a_node23"><a xlink:href="../../d3/d9f/class_c_operator_console_app.html#ae300ef0b301d72f897e75cdf10ff9752" target="_top" xlink:title="COperatorConsoleApp\l::InitCameraThread">
<polygon fill="white" stroke="black" points="354.5,-846 354.5,-880 491.5,-880 491.5,-846 354.5,-846"/>
<text text-anchor="start" x="362.5" y="-866.4" font-family="Helvetica,sans-Serif" font-size="12.00">COperatorConsoleApp</text>
<text text-anchor="middle" x="423" y="-853.4" font-family="Helvetica,sans-Serif" font-size="12.00">::InitCameraThread</text>
</a>
</g>
</g>
<!-- Node4&#45;&gt;Node23 -->
<g id="edge23" class="edge"><title>Node4&#45;&gt;Node23</title>
<path fill="none" stroke="midnightblue" d="M253.216,-721.073C269.062,-748.914 304.046,-804.176 348,-836 350.522,-837.826 353.18,-839.54 355.931,-841.149"/>
<polygon fill="midnightblue" stroke="midnightblue" points="354.501,-844.352 364.977,-845.933 357.774,-838.164 354.501,-844.352"/>
</g>
<!-- Node25 -->
<g id="node25" class="node"><title>Node25</title>
<g id="a_node25"><a xlink:href="../../d3/d9f/class_c_operator_console_app.html#a9d9bd1fee378f6066530372f8d0ae6a1" target="_top" xlink:title="COperatorConsoleApp\l::InitModelessThread">
<polygon fill="white" stroke="black" points="354.5,-793 354.5,-827 491.5,-827 491.5,-793 354.5,-793"/>
<text text-anchor="start" x="362.5" y="-813.4" font-family="Helvetica,sans-Serif" font-size="12.00">COperatorConsoleApp</text>
<text text-anchor="middle" x="423" y="-800.4" font-family="Helvetica,sans-Serif" font-size="12.00">::InitModelessThread</text>
</a>
</g>
</g>
<!-- Node4&#45;&gt;Node25 -->
<g id="edge26" class="edge"><title>Node4&#45;&gt;Node25</title>
<path fill="none" stroke="midnightblue" d="M262.728,-721.012C282.677,-738.438 315.76,-765.398 348,-783 351.713,-785.027 355.61,-786.959 359.592,-788.789"/>
<polygon fill="midnightblue" stroke="midnightblue" points="358.422,-792.097 368.989,-792.869 361.21,-785.676 358.422,-792.097"/>
</g>
<!-- Node26 -->
<g id="node26" class="node"><title>Node26</title>
<g id="a_node26"><a xlink:href="../../d3/d9f/class_c_operator_console_app.html#a7e42ecea8d8270d3b3cf9552abc00eba" target="_top" xlink:title="COperatorConsoleApp\l::InitSFRplusAcq">
<polygon fill="white" stroke="black" points="354.5,-447 354.5,-481 491.5,-481 491.5,-447 354.5,-447"/>
<text text-anchor="start" x="362.5" y="-467.4" font-family="Helvetica,sans-Serif" font-size="12.00">COperatorConsoleApp</text>
<text text-anchor="middle" x="423" y="-454.4" font-family="Helvetica,sans-Serif" font-size="12.00">::InitSFRplusAcq</text>
</a>
</g>
</g>
<!-- Node4&#45;&gt;Node26 -->
<g id="edge27" class="edge"><title>Node4&#45;&gt;Node26</title>
<path fill="none" stroke="midnightblue" d="M247.617,-686.864C256.973,-646.667 285.719,-545.53 348,-490 349.293,-488.847 350.64,-487.745 352.032,-486.691"/>
<polygon fill="midnightblue" stroke="midnightblue" points="354.009,-489.58 360.447,-481.166 350.167,-483.729 354.009,-489.58"/>
</g>
<!-- Node27 -->
<g id="node27" class="node"><title>Node27</title>
<g id="a_node27"><a xlink:href="../../d3/d9f/class_c_operator_console_app.html#af7328d2c00abb1d4a09a65492c69b2b0" target="_top" xlink:title="COperatorConsoleApp\l::InitSFRplusThread">
<polygon fill="white" stroke="black" points="354.5,-899 354.5,-933 491.5,-933 491.5,-899 354.5,-899"/>
<text text-anchor="start" x="362.5" y="-919.4" font-family="Helvetica,sans-Serif" font-size="12.00">COperatorConsoleApp</text>
<text text-anchor="middle" x="423" y="-906.4" font-family="Helvetica,sans-Serif" font-size="12.00">::InitSFRplusThread</text>
</a>
</g>
</g>
<!-- Node4&#45;&gt;Node27 -->
<g id="edge30" class="edge"><title>Node4&#45;&gt;Node27</title>
<path fill="none" stroke="midnightblue" d="M249.123,-721.185C260.755,-757.357 292.543,-841.884 348,-889 349.961,-890.666 352.033,-892.233 354.189,-893.706"/>
<polygon fill="midnightblue" stroke="midnightblue" points="352.498,-896.773 362.869,-898.937 356.111,-890.777 352.498,-896.773"/>
</g>
<!-- Node28 -->
<g id="node28" class="node"><title>Node28</title>
<g id="a_node28"><a xlink:href="../../d3/d9f/class_c_operator_console_app.html#a603dc5a9e0c64b5d2a604965b023c936" target="_top" xlink:title="Called after MSG_SET_SFRPLUS is received. ">
<polygon fill="white" stroke="black" points="354.5,-740 354.5,-774 491.5,-774 491.5,-740 354.5,-740"/>
<text text-anchor="start" x="362.5" y="-760.4" font-family="Helvetica,sans-Serif" font-size="12.00">COperatorConsoleApp</text>
<text text-anchor="middle" x="423" y="-747.4" font-family="Helvetica,sans-Serif" font-size="12.00">::OnSetSFRplus</text>
</a>
</g>
</g>
<!-- Node4&#45;&gt;Node28 -->
<g id="edge36" class="edge"><title>Node4&#45;&gt;Node28</title>
<path fill="none" stroke="midnightblue" d="M301.3,-721.061C318.45,-726.168 337.407,-731.812 355.116,-737.085"/>
<polygon fill="midnightblue" stroke="midnightblue" points="354.224,-740.471 364.807,-739.971 356.222,-733.762 354.224,-740.471"/>
</g>
<!-- Node6 -->
<g id="node6" class="node"><title>Node6</title>
<g id="a_node6"><a xlink:href="../../d8/d29/class_image_acquisition.html#aa77f9ea82fa88ae12c6b9fba9e13006e" target="_top" xlink:title="ImageAcquisition::BytesPer\lFrame">
<polygon fill="white" stroke="black" points="540.5,-687 540.5,-721 701.5,-721 701.5,-687 540.5,-687"/>
<text text-anchor="start" x="548.5" y="-707.4" font-family="Helvetica,sans-Serif" font-size="12.00">ImageAcquisition::BytesPer</text>
<text text-anchor="middle" x="621" y="-694.4" font-family="Helvetica,sans-Serif" font-size="12.00">Frame</text>
</a>
</g>
</g>
<!-- Node5&#45;&gt;Node6 -->
<g id="edge5" class="edge"><title>Node5&#45;&gt;Node6</title>
<path fill="none" stroke="midnightblue" d="M491.727,-704C504.125,-704 517.239,-704 530.164,-704"/>
<polygon fill="midnightblue" stroke="midnightblue" points="530.47,-707.5 540.47,-704 530.47,-700.5 530.47,-707.5"/>
</g>
<!-- Node8 -->
<g id="node8" class="node"><title>Node8</title>
<g id="a_node8"><a xlink:href="../../d3/d9f/class_c_operator_console_app.html#a9f0e96c6628d1c991c7a4bf6741ed6d9" target="_top" xlink:title="COperatorConsoleApp\l::FileExists">
<polygon fill="white" stroke="black" points="552.5,-634 552.5,-668 689.5,-668 689.5,-634 552.5,-634"/>
<text text-anchor="start" x="560.5" y="-654.4" font-family="Helvetica,sans-Serif" font-size="12.00">COperatorConsoleApp</text>
<text text-anchor="middle" x="621" y="-641.4" font-family="Helvetica,sans-Serif" font-size="12.00">::FileExists</text>
</a>
</g>
</g>
<!-- Node7&#45;&gt;Node8 -->
<g id="edge7" class="edge"><title>Node7&#45;&gt;Node8</title>
<path fill="none" stroke="midnightblue" d="M491.727,-651C507.945,-651 525.391,-651 542.032,-651"/>
<polygon fill="midnightblue" stroke="midnightblue" points="542.271,-654.5 552.271,-651 542.271,-647.5 542.271,-654.5"/>
</g>
<!-- Node12 -->
<g id="node12" class="node"><title>Node12</title>
<g id="a_node12"><a xlink:href="../../db/def/class_file_acquisition.html#a797827242308ce8dba037e6c36ca4b30" target="_top" xlink:title="Initializes the buffers inherited from class ImageAcquisition with 2 bytes per pixel. ">
<polygon fill="white" stroke="black" points="564,-546.5 564,-567.5 678,-567.5 678,-546.5 564,-546.5"/>
<text text-anchor="middle" x="621" y="-553.9" font-family="Helvetica,sans-Serif" font-size="12.00">FileAcquisition::Init</text>
</a>
</g>
</g>
<!-- Node11&#45;&gt;Node12 -->
<g id="edge11" class="edge"><title>Node11&#45;&gt;Node12</title>
<path fill="none" stroke="midnightblue" d="M491.727,-530.822C513.41,-535.247 537.286,-540.12 558.5,-544.449"/>
<polygon fill="midnightblue" stroke="midnightblue" points="557.862,-547.891 568.36,-546.461 559.261,-541.032 557.862,-547.891"/>
</g>
<!-- Node14 -->
<g id="node14" class="node"><title>Node14</title>
<g id="a_node14"><a xlink:href="../../db/def/class_file_acquisition.html#af5cffdb393fa3c0dffb9efd4af5fcc68" target="_top" xlink:title="FileAcquisition::Open">
<polygon fill="white" stroke="black" points="557,-506.5 557,-527.5 685,-527.5 685,-506.5 557,-506.5"/>
<text text-anchor="middle" x="621" y="-513.9" font-family="Helvetica,sans-Serif" font-size="12.00">FileAcquisition::Open</text>
</a>
</g>
</g>
<!-- Node11&#45;&gt;Node14 -->
<g id="edge13" class="edge"><title>Node11&#45;&gt;Node14</title>
<path fill="none" stroke="midnightblue" d="M491.727,-517C509.476,-517 528.695,-517 546.72,-517"/>
<polygon fill="midnightblue" stroke="midnightblue" points="546.883,-520.5 556.883,-517 546.883,-513.5 546.883,-520.5"/>
</g>
<!-- Node13 -->
<g id="node13" class="node"><title>Node13</title>
<g id="a_node13"><a xlink:href="../../d8/d29/class_image_acquisition.html#a09e47283e2ae3e6c352b8842bde2332a" target="_top" xlink:title="may be overridden, but be sure to call parent function also ">
<polygon fill="white" stroke="red" points="744.5,-811.5 744.5,-832.5 871.5,-832.5 871.5,-811.5 744.5,-811.5"/>
<text text-anchor="middle" x="808" y="-818.9" font-family="Helvetica,sans-Serif" font-size="12.00">ImageAcquisition::Init</text>
</a>
</g>
</g>
<!-- Node12&#45;&gt;Node13 -->
<g id="edge12" class="edge"><title>Node12&#45;&gt;Node13</title>
<path fill="none" stroke="midnightblue" d="M640.063,-567.653C658.931,-579.497 688.451,-600.134 708,-624 754.548,-680.826 786.775,-763.169 800.118,-801.25"/>
<polygon fill="midnightblue" stroke="midnightblue" points="796.963,-802.839 803.513,-811.166 803.585,-800.572 796.963,-802.839"/>
</g>
<!-- Node16 -->
<g id="node16" class="node"><title>Node16</title>
<g id="a_node16"><a xlink:href="../../d8/d29/class_image_acquisition.html#a0964521623ef639396b854aceebbcbef" target="_top" xlink:title="ImageAcquisition::GetHeight">
<polygon fill="white" stroke="black" points="538.5,-918.5 538.5,-939.5 703.5,-939.5 703.5,-918.5 538.5,-918.5"/>
<text text-anchor="middle" x="621" y="-925.9" font-family="Helvetica,sans-Serif" font-size="12.00">ImageAcquisition::GetHeight</text>
</a>
</g>
</g>
<!-- Node15&#45;&gt;Node16 -->
<g id="edge15" class="edge"><title>Node15&#45;&gt;Node16</title>
<path fill="none" stroke="midnightblue" d="M491.727,-955.178C513.41,-950.753 537.286,-945.88 558.5,-941.551"/>
<polygon fill="midnightblue" stroke="midnightblue" points="559.261,-944.968 568.36,-939.539 557.862,-938.109 559.261,-944.968"/>
</g>
<!-- Node17 -->
<g id="node17" class="node"><title>Node17</title>
<g id="a_node17"><a xlink:href="../../d8/d29/class_image_acquisition.html#a589eb2272d57ee982b6970667b034a0d" target="_top" xlink:title="ImageAcquisition::GetWidth">
<polygon fill="white" stroke="black" points="540.5,-878.5 540.5,-899.5 701.5,-899.5 701.5,-878.5 540.5,-878.5"/>
<text text-anchor="middle" x="621" y="-885.9" font-family="Helvetica,sans-Serif" font-size="12.00">ImageAcquisition::GetWidth</text>
</a>
</g>
</g>
<!-- Node15&#45;&gt;Node17 -->
<g id="edge16" class="edge"><title>Node15&#45;&gt;Node17</title>
<path fill="none" stroke="midnightblue" d="M478.502,-951.923C485.26,-948.998 491.922,-945.692 498,-942 516.55,-930.731 514.8,-919.123 534,-909 538.267,-906.75 542.785,-904.751 547.426,-902.975"/>
<polygon fill="midnightblue" stroke="midnightblue" points="548.781,-906.21 557.089,-899.635 546.494,-899.595 548.781,-906.21"/>
</g>
<!-- Node18 -->
<g id="node18" class="node"><title>Node18</title>
<g id="a_node18"><a xlink:href="../../d7/da0/class_thread_control.html#a5054f2ad6297cc65b4cb9146437f48b0" target="_top" xlink:title="ThreadControl::Init">
<polygon fill="white" stroke="red" points="565.5,-838.5 565.5,-859.5 676.5,-859.5 676.5,-838.5 565.5,-838.5"/>
<text text-anchor="middle" x="621" y="-845.9" font-family="Helvetica,sans-Serif" font-size="12.00">ThreadControl::Init</text>
</a>
</g>
</g>
<!-- Node15&#45;&gt;Node18 -->
<g id="edge17" class="edge"><title>Node15&#45;&gt;Node18</title>
<path fill="none" stroke="midnightblue" d="M483.715,-951.983C488.86,-949.14 493.725,-945.836 498,-942 524.927,-917.842 505.658,-891.48 534,-869 540.404,-863.921 547.871,-860.09 555.68,-857.207"/>
<polygon fill="midnightblue" stroke="midnightblue" points="556.857,-860.506 565.327,-854.142 554.737,-853.835 556.857,-860.506"/>
</g>
<!-- Node19 -->
<g id="node19" class="node"><title>Node19</title>
<g id="a_node19"><a xlink:href="../../da/d92/class_image_test.html#ab97f2724bc4060b68dd623c2ff8bbb8d" target="_top" xlink:title="ImageTest::Init">
<polygon fill="white" stroke="red" points="575,-998.5 575,-1019.5 667,-1019.5 667,-998.5 575,-998.5"/>
<text text-anchor="middle" x="621" y="-1005.9" font-family="Helvetica,sans-Serif" font-size="12.00">ImageTest::Init</text>
</a>
</g>
</g>
<!-- Node15&#45;&gt;Node19 -->
<g id="edge18" class="edge"><title>Node15&#45;&gt;Node19</title>
<path fill="none" stroke="midnightblue" d="M491.727,-982.822C515.63,-987.7 542.199,-993.122 564.928,-997.761"/>
<polygon fill="midnightblue" stroke="midnightblue" points="564.247,-1001.19 574.745,-999.764 565.647,-994.335 564.247,-1001.19"/>
</g>
<!-- Node20 -->
<g id="node20" class="node"><title>Node20</title>
<g id="a_node20"><a xlink:href="../../da/d92/class_image_test.html#a372478d09c06cd7ab3684840add6215e" target="_top" xlink:title="param must be a pointer to a ThreadControl object; param&#45;&gt;m_data must point to an ImageTest object ...">
<polygon fill="white" stroke="red" points="551.5,-958.5 551.5,-979.5 690.5,-979.5 690.5,-958.5 551.5,-958.5"/>
<text text-anchor="middle" x="621" y="-965.9" font-family="Helvetica,sans-Serif" font-size="12.00">ImageTest::ThreadProc</text>
</a>
</g>
</g>
<!-- Node15&#45;&gt;Node20 -->
<g id="edge19" class="edge"><title>Node15&#45;&gt;Node20</title>
<path fill="none" stroke="midnightblue" d="M491.727,-969C507.671,-969 524.8,-969 541.185,-969"/>
<polygon fill="midnightblue" stroke="midnightblue" points="541.273,-972.5 551.273,-969 541.273,-965.5 541.273,-972.5"/>
</g>
<!-- Node21&#45;&gt;Node13 -->
<g id="edge21" class="edge"><title>Node21&#45;&gt;Node13</title>
<path fill="none" stroke="midnightblue" d="M468.512,-1052.09C488.255,-1058.79 511.963,-1065.67 534,-1069 610.466,-1080.55 643.948,-1112.33 708,-1069 785.565,-1016.53 802.366,-892.283 806,-842.832"/>
<polygon fill="midnightblue" stroke="midnightblue" points="809.502,-842.905 806.631,-832.706 802.515,-842.469 809.502,-842.905"/>
</g>
<!-- Node22 -->
<g id="node22" class="node"><title>Node22</title>
<g id="a_node22"><a xlink:href="../../df/d22/class_imatest_lib_acq.html#af8b94cf2a548d2edbd61e0e39d7e5cce" target="_top" xlink:title="ImatestLibAcq::Open">
<polygon fill="white" stroke="black" points="558,-1038.5 558,-1059.5 684,-1059.5 684,-1038.5 558,-1038.5"/>
<text text-anchor="middle" x="621" y="-1045.9" font-family="Helvetica,sans-Serif" font-size="12.00">ImatestLibAcq::Open</text>
</a>
</g>
</g>
<!-- Node21&#45;&gt;Node22 -->
<g id="edge22" class="edge"><title>Node21&#45;&gt;Node22</title>
<path fill="none" stroke="midnightblue" d="M491.727,-1039.84C509.839,-1041.13 529.48,-1042.53 547.823,-1043.84"/>
<polygon fill="midnightblue" stroke="midnightblue" points="547.637,-1047.34 557.861,-1044.56 548.136,-1040.36 547.637,-1047.34"/>
</g>
<!-- Node23&#45;&gt;Node18 -->
<g id="edge24" class="edge"><title>Node23&#45;&gt;Node18</title>
<path fill="none" stroke="midnightblue" d="M491.727,-858.162C512.267,-856.695 534.776,-855.087 555.125,-853.634"/>
<polygon fill="midnightblue" stroke="midnightblue" points="555.508,-857.116 565.234,-852.912 555.01,-850.133 555.508,-857.116"/>
</g>
<!-- Node24 -->
<g id="node24" class="node"><title>Node24</title>
<g id="a_node24"><a xlink:href="../../d8/d29/class_image_acquisition.html#a87bc694942384075ece4dd9256215f0d" target="_top" xlink:title="ImageAcquisition::ThreadProc">
<polygon fill="white" stroke="red" points="534,-798.5 534,-819.5 708,-819.5 708,-798.5 534,-798.5"/>
<text text-anchor="middle" x="621" y="-805.9" font-family="Helvetica,sans-Serif" font-size="12.00">ImageAcquisition::ThreadProc</text>
</a>
</g>
</g>
<!-- Node23&#45;&gt;Node24 -->
<g id="edge25" class="edge"><title>Node23&#45;&gt;Node24</title>
<path fill="none" stroke="midnightblue" d="M476.373,-845.977C494.539,-840.295 515.09,-834.114 534,-829 543.115,-826.535 552.824,-824.098 562.311,-821.818"/>
<polygon fill="midnightblue" stroke="midnightblue" points="563.16,-825.214 572.085,-819.505 561.548,-818.402 563.16,-825.214"/>
</g>
<!-- Node26&#45;&gt;Node12 -->
<g id="edge28" class="edge"><title>Node26&#45;&gt;Node12</title>
<path fill="none" stroke="midnightblue" d="M482.973,-481.091C488.268,-483.686 493.37,-486.642 498,-490 519.3,-505.449 511.888,-522.738 534,-537 540.111,-540.941 546.91,-544.109 553.933,-546.654"/>
<polygon fill="midnightblue" stroke="midnightblue" points="553.012,-550.034 563.604,-549.752 555.148,-543.368 553.012,-550.034"/>
</g>
<!-- Node26&#45;&gt;Node14 -->
<g id="edge29" class="edge"><title>Node26&#45;&gt;Node14</title>
<path fill="none" stroke="midnightblue" d="M480.96,-481.083C497.978,-486.048 516.708,-491.376 534,-496 544.126,-498.708 554.961,-501.464 565.408,-504.049"/>
<polygon fill="midnightblue" stroke="midnightblue" points="564.724,-507.485 575.27,-506.469 566.392,-500.687 564.724,-507.485"/>
</g>
<!-- Node27&#45;&gt;Node16 -->
<g id="edge33" class="edge"><title>Node27&#45;&gt;Node16</title>
<path fill="none" stroke="midnightblue" d="M491.727,-920.492C503.483,-921.272 515.884,-922.094 528.156,-922.908"/>
<polygon fill="midnightblue" stroke="midnightblue" points="528.207,-926.419 538.417,-923.589 528.671,-919.435 528.207,-926.419"/>
</g>
<!-- Node27&#45;&gt;Node17 -->
<g id="edge32" class="edge"><title>Node27&#45;&gt;Node17</title>
<path fill="none" stroke="midnightblue" d="M491.727,-906.67C505.171,-904.818 519.459,-902.85 533.433,-900.925"/>
<polygon fill="midnightblue" stroke="midnightblue" points="534.107,-904.365 543.536,-899.533 533.151,-897.431 534.107,-904.365"/>
</g>
<!-- Node27&#45;&gt;Node18 -->
<g id="edge34" class="edge"><title>Node27&#45;&gt;Node18</title>
<path fill="none" stroke="midnightblue" d="M474.19,-898.902C482.239,-895.813 490.412,-892.466 498,-889 514.649,-881.395 516.921,-875.581 534,-869 540.785,-866.385 548.009,-864.053 555.276,-861.988"/>
<polygon fill="midnightblue" stroke="midnightblue" points="556.42,-865.305 565.174,-859.337 554.609,-858.543 556.42,-865.305"/>
</g>
<!-- Node27&#45;&gt;Node19 -->
<g id="edge31" class="edge"><title>Node27&#45;&gt;Node19</title>
<path fill="none" stroke="midnightblue" d="M482.973,-933.091C488.268,-935.686 493.37,-938.642 498,-942 519.3,-957.449 511.888,-974.738 534,-989 543.271,-994.98 554.126,-999.178 564.942,-1002.12"/>
<polygon fill="midnightblue" stroke="midnightblue" points="564.277,-1005.56 574.817,-1004.49 565.91,-998.756 564.277,-1005.56"/>
</g>
<!-- Node27&#45;&gt;Node20 -->
<g id="edge35" class="edge"><title>Node27&#45;&gt;Node20</title>
<path fill="none" stroke="midnightblue" d="M478.359,-933.047C496.037,-938.392 515.792,-944.157 534,-949 543.126,-951.427 552.839,-953.845 562.329,-956.116"/>
<polygon fill="midnightblue" stroke="midnightblue" points="561.567,-959.532 572.104,-958.425 563.176,-952.72 561.567,-959.532"/>
</g>
<!-- Node30 -->
<g id="node30" class="node"><title>Node30</title>
<g id="a_node30"><a xlink:href="../../d6/d56/imatest__library_8cpp.html#a5e2883cbd4857cc3ccca20aadd262f91" target="_top" xlink:title="imatest_libraryInitialize">
<polygon fill="white" stroke="black" points="356,-389.5 356,-410.5 490,-410.5 490,-389.5 356,-389.5"/>
<text text-anchor="middle" x="423" y="-396.9" font-family="Helvetica,sans-Serif" font-size="12.00">imatest_libraryInitialize</text>
</a>
</g>
</g>
<!-- Node29&#45;&gt;Node30 -->
<g id="edge38" class="edge"><title>Node29&#45;&gt;Node30</title>
<path fill="none" stroke="midnightblue" d="M311.548,-391.933C322.692,-392.747 334.314,-393.596 345.655,-394.424"/>
<polygon fill="midnightblue" stroke="midnightblue" points="345.742,-397.94 355.97,-395.178 346.252,-390.958 345.742,-397.94"/>
</g>
<!-- Node31 -->
<g id="node31" class="node"><title>Node31</title>
<g id="a_node31"><a xlink:href="../../d6/d56/imatest__library_8cpp.html#af1f12ec359ef04374b4b929b74844d53" target="_top" xlink:title="imatest_libraryInitialize\lWithHandlers">
<polygon fill="white" stroke="black" points="554,-453 554,-487 688,-487 688,-453 554,-453"/>
<text text-anchor="start" x="562" y="-473.4" font-family="Helvetica,sans-Serif" font-size="12.00">imatest_libraryInitialize</text>
<text text-anchor="middle" x="621" y="-460.4" font-family="Helvetica,sans-Serif" font-size="12.00">WithHandlers</text>
</a>
</g>
</g>
<!-- Node30&#45;&gt;Node31 -->
<g id="edge39" class="edge"><title>Node30&#45;&gt;Node31</title>
<path fill="none" stroke="midnightblue" d="M449.596,-410.58C471.772,-419.607 504.794,-432.721 534,-443 540.447,-445.269 547.196,-447.55 553.959,-449.772"/>
<polygon fill="midnightblue" stroke="midnightblue" points="553.249,-453.221 563.841,-452.978 555.409,-446.563 553.249,-453.221"/>
</g>
<!-- Node32 -->
<g id="node32" class="node"><title>Node32</title>
<g id="a_node32"><a xlink:href="../../d6/d56/imatest__library_8cpp.html#ab25ffae1be58aaf6c617f5bd4e1d9574" target="_top" xlink:title="mclDefaultErrorHandler">
<polygon fill="white" stroke="black" points="552,-412.5 552,-433.5 690,-433.5 690,-412.5 552,-412.5"/>
<text text-anchor="middle" x="621" y="-419.9" font-family="Helvetica,sans-Serif" font-size="12.00">mclDefaultErrorHandler</text>
</a>
</g>
</g>
<!-- Node30&#45;&gt;Node32 -->
<g id="edge40" class="edge"><title>Node30&#45;&gt;Node32</title>
<path fill="none" stroke="midnightblue" d="M490.083,-407.755C506.713,-409.706 524.719,-411.819 541.876,-413.832"/>
<polygon fill="midnightblue" stroke="midnightblue" points="541.523,-417.315 551.863,-415.004 542.339,-410.363 541.523,-417.315"/>
</g>
<!-- Node33 -->
<g id="node33" class="node"><title>Node33</title>
<g id="a_node33"><a xlink:href="../../d6/d56/imatest__library_8cpp.html#a720e404d3ffcdd06099adf6ac127be83" target="_top" xlink:title="mclDefaultPrintHandler">
<polygon fill="white" stroke="black" points="553,-372.5 553,-393.5 689,-393.5 689,-372.5 553,-372.5"/>
<text text-anchor="middle" x="621" y="-379.9" font-family="Helvetica,sans-Serif" font-size="12.00">mclDefaultPrintHandler</text>
</a>
</g>
</g>
<!-- Node30&#45;&gt;Node33 -->
<g id="edge41" class="edge"><title>Node30&#45;&gt;Node33</title>
<path fill="none" stroke="midnightblue" d="M490.083,-394.268C506.991,-392.802 525.322,-391.212 542.738,-389.701"/>
<polygon fill="midnightblue" stroke="midnightblue" points="543.208,-393.174 552.868,-388.823 542.603,-386.2 543.208,-393.174"/>
</g>
<!-- Node35 -->
<g id="node35" class="node"><title>Node35</title>
<g id="a_node35"><a xlink:href="../../d5/d67/class_stdout_thread.html#aab5207762f1d6036974b9bbd4b854a23" target="_top" xlink:title="StdoutThread::InitThread">
<polygon fill="white" stroke="black" points="351,-307.5 351,-328.5 495,-328.5 495,-307.5 351,-307.5"/>
<text text-anchor="middle" x="423" y="-314.9" font-family="Helvetica,sans-Serif" font-size="12.00">StdoutThread::InitThread</text>
</a>
</g>
</g>
<!-- Node34&#45;&gt;Node35 -->
<g id="edge43" class="edge"><title>Node34&#45;&gt;Node35</title>
<path fill="none" stroke="midnightblue" d="M311.548,-318C321.11,-318 331.024,-318 340.81,-318"/>
<polygon fill="midnightblue" stroke="midnightblue" points="340.943,-321.5 350.943,-318 340.943,-314.5 340.943,-321.5"/>
</g>
<!-- Node36 -->
<g id="node36" class="node"><title>Node36</title>
<g id="a_node36"><a xlink:href="../../d5/d52/class_stdout_redirect.html#a9dd34e73829d728660436c9d6b4d6d20" target="_top" xlink:title="StdoutRedirect::Init">
<polygon fill="white" stroke="black" points="563.5,-332.5 563.5,-353.5 678.5,-353.5 678.5,-332.5 563.5,-332.5"/>
<text text-anchor="middle" x="621" y="-339.9" font-family="Helvetica,sans-Serif" font-size="12.00">StdoutRedirect::Init</text>
</a>
</g>
</g>
<!-- Node35&#45;&gt;Node36 -->
<g id="edge44" class="edge"><title>Node35&#45;&gt;Node36</title>
<path fill="none" stroke="midnightblue" d="M495.038,-327.061C514.075,-329.489 534.584,-332.105 553.373,-334.502"/>
<polygon fill="midnightblue" stroke="midnightblue" points="552.956,-337.977 563.318,-335.77 553.842,-331.033 552.956,-337.977"/>
</g>
<!-- Node37 -->
<g id="node37" class="node"><title>Node37</title>
<g id="a_node37"><a xlink:href="../../d5/d52/class_stdout_redirect.html#a4151d5c4322285b87c3121e2f69dfc5e" target="_top" xlink:title="StdoutRedirect::Start">
<polygon fill="white" stroke="black" points="558.5,-292.5 558.5,-313.5 683.5,-313.5 683.5,-292.5 558.5,-292.5"/>
<text text-anchor="middle" x="621" y="-299.9" font-family="Helvetica,sans-Serif" font-size="12.00">StdoutRedirect::Start</text>
</a>
</g>
</g>
<!-- Node35&#45;&gt;Node37 -->
<g id="edge45" class="edge"><title>Node35&#45;&gt;Node37</title>
<path fill="none" stroke="midnightblue" d="M495.038,-312.563C512.346,-311.239 530.872,-309.821 548.215,-308.494"/>
<polygon fill="midnightblue" stroke="midnightblue" points="548.568,-311.977 558.272,-307.724 548.034,-304.997 548.568,-311.977"/>
</g>
<!-- Node38 -->
<g id="node38" class="node"><title>Node38</title>
<g id="a_node38"><a xlink:href="../../d5/d67/class_stdout_thread.html#a5527fa5fc7f110414f03e63b759bc4c3" target="_top" xlink:title="StdoutThread::ThreadProc">
<polygon fill="white" stroke="red" points="543.5,-252.5 543.5,-273.5 698.5,-273.5 698.5,-252.5 543.5,-252.5"/>
<text text-anchor="middle" x="621" y="-259.9" font-family="Helvetica,sans-Serif" font-size="12.00">StdoutThread::ThreadProc</text>
</a>
</g>
</g>
<!-- Node35&#45;&gt;Node38 -->
<g id="edge46" class="edge"><title>Node35&#45;&gt;Node38</title>
<path fill="none" stroke="midnightblue" d="M466.941,-307.415C477.196,-304.607 488.052,-301.401 498,-298 514.402,-292.393 517.502,-288.315 534,-283 541.78,-280.494 550.05,-278.164 558.268,-276.046"/>
<polygon fill="midnightblue" stroke="midnightblue" points="559.37,-279.378 568.23,-273.569 557.681,-272.585 559.37,-279.378"/>
</g>
<!-- Node40 -->
<g id="node40" class="node"><title>Node40</title>
<g id="a_node40"><a xlink:href="../../d7/da0/class_thread_control.html#afd86c1fc3e09d219cf48f5a15539b920" target="_top" xlink:title="ThreadControl::Quit">
<polygon fill="white" stroke="black" points="364,-267.5 364,-288.5 482,-288.5 482,-267.5 364,-267.5"/>
<text text-anchor="middle" x="423" y="-274.9" font-family="Helvetica,sans-Serif" font-size="12.00">ThreadControl::Quit</text>
</a>
</g>
</g>
<!-- Node39&#45;&gt;Node40 -->
<g id="edge48" class="edge"><title>Node39&#45;&gt;Node40</title>
<path fill="none" stroke="midnightblue" d="M311.548,-261.867C325.398,-263.89 339.984,-266.02 353.855,-268.046"/>
<polygon fill="midnightblue" stroke="midnightblue" points="353.406,-271.518 363.807,-269.5 354.418,-264.591 353.406,-271.518"/>
</g>
<!-- Node41 -->
<g id="node41" class="node"><title>Node41</title>
<g id="a_node41"><a xlink:href="../../d5/d67/class_stdout_thread.html#aa1e6ea9a0ab824dd75cfe81fe2686de2" target="_top" xlink:title="StdoutThread::Quit">
<polygon fill="white" stroke="black" points="366,-227.5 366,-248.5 480,-248.5 480,-227.5 366,-227.5"/>
<text text-anchor="middle" x="423" y="-234.9" font-family="Helvetica,sans-Serif" font-size="12.00">StdoutThread::Quit</text>
</a>
</g>
</g>
<!-- Node39&#45;&gt;Node41 -->
<g id="edge49" class="edge"><title>Node39&#45;&gt;Node41</title>
<path fill="none" stroke="midnightblue" d="M311.548,-246.687C325.952,-245.554 341.152,-244.359 355.516,-243.229"/>
<polygon fill="midnightblue" stroke="midnightblue" points="356.108,-246.693 365.803,-242.42 355.559,-239.715 356.108,-246.693"/>
</g>
<!-- Node44 -->
<g id="node44" class="node"><title>Node44</title>
<g id="a_node44"><a xlink:href="../../d3/d9f/class_c_operator_console_app.html#aa0ad15e15b08dc7c2704d9978f271954" target="_top" xlink:title="COperatorConsoleApp\l::SaveLog">
<polygon fill="white" stroke="black" points="354.5,-174 354.5,-208 491.5,-208 491.5,-174 354.5,-174"/>
<text text-anchor="start" x="362.5" y="-194.4" font-family="Helvetica,sans-Serif" font-size="12.00">COperatorConsoleApp</text>
<text text-anchor="middle" x="423" y="-181.4" font-family="Helvetica,sans-Serif" font-size="12.00">::SaveLog</text>
</a>
</g>
</g>
<!-- Node39&#45;&gt;Node44 -->
<g id="edge52" class="edge"><title>Node39&#45;&gt;Node44</title>
<path fill="none" stroke="midnightblue" d="M294.057,-234.846C315.375,-227.54 340.407,-218.962 362.649,-211.339"/>
<polygon fill="midnightblue" stroke="midnightblue" points="363.994,-214.578 372.319,-208.025 361.724,-207.956 363.994,-214.578"/>
</g>
<!-- Node42 -->
<g id="node42" class="node"><title>Node42</title>
<g id="a_node42"><a xlink:href="../../d5/d52/class_stdout_redirect.html#a95ecf8bde26cbfb1bcdc77bf9311af57" target="_top" xlink:title="StdoutRedirect::Stop">
<polygon fill="white" stroke="black" points="558.5,-212.5 558.5,-233.5 683.5,-233.5 683.5,-212.5 558.5,-212.5"/>
<text text-anchor="middle" x="621" y="-219.9" font-family="Helvetica,sans-Serif" font-size="12.00">StdoutRedirect::Stop</text>
</a>
</g>
</g>
<!-- Node41&#45;&gt;Node42 -->
<g id="edge50" class="edge"><title>Node41&#45;&gt;Node42</title>
<path fill="none" stroke="midnightblue" d="M480.166,-233.702C501.355,-232.08 525.756,-230.213 548.182,-228.496"/>
<polygon fill="midnightblue" stroke="midnightblue" points="548.625,-231.973 558.329,-227.72 548.091,-224.993 548.625,-231.973"/>
</g>
<!-- Node43 -->
<g id="node43" class="node"><title>Node43</title>
<g id="a_node43"><a xlink:href="../../d5/d52/class_stdout_redirect.html#a16592c4b15073ca7825c04de07503eac" target="_top" xlink:title="StdoutRedirect::Close">
<polygon fill="white" stroke="black" points="555.5,-172.5 555.5,-193.5 686.5,-193.5 686.5,-172.5 555.5,-172.5"/>
<text text-anchor="middle" x="621" y="-179.9" font-family="Helvetica,sans-Serif" font-size="12.00">StdoutRedirect::Close</text>
</a>
</g>
</g>
<!-- Node41&#45;&gt;Node43 -->
<g id="edge51" class="edge"><title>Node41&#45;&gt;Node43</title>
<path fill="none" stroke="midnightblue" d="M463.768,-227.459C474.91,-224.305 486.985,-220.696 498,-217 514.276,-211.539 517.598,-208.068 534,-203 542.105,-200.495 550.726,-198.139 559.259,-195.984"/>
<polygon fill="midnightblue" stroke="midnightblue" points="560.321,-199.327 569.201,-193.549 558.656,-192.528 560.321,-199.327"/>
</g>
<!-- Node46 -->
<g id="node46" class="node"><title>Node46</title>
<g id="a_node46"><a xlink:href="../../d6/d56/imatest__library_8cpp.html#ab3b0d3cdae6c078ef623ac257ead5cef" target="_top" xlink:title="inifile">
<polygon fill="white" stroke="black" points="401,-133.5 401,-154.5 445,-154.5 445,-133.5 401,-133.5"/>
<text text-anchor="middle" x="423" y="-140.9" font-family="Helvetica,sans-Serif" font-size="12.00">inifile</text>
</a>
</g>
</g>
<!-- Node45&#45;&gt;Node46 -->
<g id="edge54" class="edge"><title>Node45&#45;&gt;Node46</title>
<path fill="none" stroke="midnightblue" d="M311.548,-161.374C338.763,-157.093 368.824,-152.365 390.705,-148.923"/>
<polygon fill="midnightblue" stroke="midnightblue" points="391.406,-152.356 400.741,-147.344 390.319,-145.441 391.406,-152.356"/>
</g>
<!-- Node47&#45;&gt;Node46 -->
<g id="edge56" class="edge"><title>Node47&#45;&gt;Node46</title>
<path fill="none" stroke="midnightblue" d="M311.548,-119.179C338.763,-125.295 368.824,-132.05 390.705,-136.967"/>
<polygon fill="midnightblue" stroke="midnightblue" points="390.217,-140.445 400.741,-139.223 391.752,-133.615 390.217,-140.445"/>
</g>
<!-- Node48 -->
<g id="node48" class="node"><title>Node48</title>
<g id="a_node48"><a xlink:href="../../db/db5/_documentation_2_operator-_console_2_operator_console_8cpp.html#a5009a154818ee3f0d0da7531e4bf98a4" target="_top" xlink:title="Adds a data_type string and key string to the std::vector&lt;std::string&gt; data_types and keys...">
<polygon fill="white" stroke="black" points="358.5,-93.5 358.5,-114.5 487.5,-114.5 487.5,-93.5 358.5,-93.5"/>
<text text-anchor="middle" x="423" y="-100.9" font-family="Helvetica,sans-Serif" font-size="12.00">addDataTypeAndKey</text>
</a>
</g>
</g>
<!-- Node47&#45;&gt;Node48 -->
<g id="edge57" class="edge"><title>Node47&#45;&gt;Node48</title>
<path fill="none" stroke="midnightblue" d="M311.548,-104C323.534,-104 336.073,-104 348.221,-104"/>
<polygon fill="midnightblue" stroke="midnightblue" points="348.313,-107.5 358.313,-104 348.313,-100.5 348.313,-107.5"/>
</g>
<!-- Node49 -->
<g id="node49" class="node"><title>Node49</title>
<g id="a_node49"><a xlink:href="../../d3/d96/structentry.html#a422ec1e4cfe0d549468f987b55327919" target="_top" xlink:title="A member function for conditionally assigning the variable &#39;value&#39; to &#39;input&#39;. ">
<polygon fill="white" stroke="black" points="365,-53.5 365,-74.5 481,-74.5 481,-53.5 365,-53.5"/>
<text text-anchor="middle" x="423" y="-60.9" font-family="Helvetica,sans-Serif" font-size="12.00">entry::assign_value</text>
</a>
</g>
</g>
<!-- Node47&#45;&gt;Node49 -->
<g id="edge58" class="edge"><title>Node47&#45;&gt;Node49</title>
<path fill="none" stroke="midnightblue" d="M311.548,-88.8207C329.306,-84.8301 348.276,-80.5672 365.394,-76.7204"/>
<polygon fill="midnightblue" stroke="midnightblue" points="366.247,-80.1161 375.236,-74.5087 364.712,-73.2865 366.247,-80.1161"/>
</g>
<!-- Node50 -->
<g id="node50" class="node"><title>Node50</title>
<g id="a_node50"><a xlink:href="../../de/ddc/structmin_max_entry.html#ad2624259bf0e95269cfcf3d900ba9d44" target="_top" xlink:title="A member function for conditionally assigning the variable &#39;value&#39; to &#39;input&#39;. ">
<polygon fill="white" stroke="black" points="361,-0 361,-34 485,-34 485,-0 361,-0"/>
<text text-anchor="start" x="369" y="-20.4" font-family="Helvetica,sans-Serif" font-size="12.00">minMaxEntry::assign</text>
<text text-anchor="middle" x="423" y="-7.4" font-family="Helvetica,sans-Serif" font-size="12.00">_value</text>
</a>
</g>
</g>
<!-- Node47&#45;&gt;Node50 -->
<g id="edge59" class="edge"><title>Node47&#45;&gt;Node50</title>
<path fill="none" stroke="midnightblue" d="M270.681,-86.8837C291.293,-74.0899 320.799,-56.692 348,-44 352.415,-41.94 357.034,-39.9304 361.715,-37.9972"/>
<polygon fill="midnightblue" stroke="midnightblue" points="363.376,-41.1029 371.366,-34.1445 360.781,-34.6019 363.376,-41.1029"/>
</g>
</g>
</svg>
