<?xml version="1.0" encoding="UTF-8" standalone="no"?>
<!DOCTYPE svg PUBLIC "-//W3C//DTD SVG 1.1//EN"
 "http://www.w3.org/Graphics/SVG/1.1/DTD/svg11.dtd">
<!-- Generated by graphviz version 2.34.0 (20130907.0111)
 -->
<!-- Title: COperatorConsoleApp::OnUpdateStdout Pages: 1 -->
<svg width="644pt" height="83pt"
 viewBox="0.00 0.00 644.00 83.00" xmlns="http://www.w3.org/2000/svg" xmlns:xlink="http://www.w3.org/1999/xlink">
<g id="graph0" class="graph" transform="scale(1 1) rotate(0) translate(4 79)">
<title>COperatorConsoleApp::OnUpdateStdout</title>
<polygon fill="white" stroke="white" points="-4,4 -4,-79 640,-79 640,4 -4,4"/>
<!-- Node1 -->
<g id="node1" class="node"><title>Node1</title>
<polygon fill="#bfbfbf" stroke="black" points="0.5,-23 0.5,-57 137.5,-57 137.5,-23 0.5,-23"/>
<text text-anchor="start" x="8.5" y="-43.4" font-family="Helvetica,sans-Serif" font-size="12.00">COperatorConsoleApp</text>
<text text-anchor="middle" x="69" y="-30.4" font-family="Helvetica,sans-Serif" font-size="12.00">::OnUpdateStdout</text>
</g>
<!-- Node2 -->
<g id="node2" class="node"><title>Node2</title>
<g id="a_node2"><a xlink:href="../../d3/d9f/class_c_operator_console_app.html#a5e4a6598aa6a33636d283e29f19c76ca" target="_top" xlink:title="COperatorConsoleApp\l::GetStdoutMsg">
<polygon fill="white" stroke="black" points="174.5,-23 174.5,-57 311.5,-57 311.5,-23 174.5,-23"/>
<text text-anchor="start" x="182.5" y="-43.4" font-family="Helvetica,sans-Serif" font-size="12.00">COperatorConsoleApp</text>
<text text-anchor="middle" x="243" y="-30.4" font-family="Helvetica,sans-Serif" font-size="12.00">::GetStdoutMsg</text>
</a>
</g>
</g>
<!-- Node1&#45;&gt;Node2 -->
<g id="edge1" class="edge"><title>Node1&#45;&gt;Node2</title>
<path fill="none" stroke="midnightblue" d="M137.979,-40C146.55,-40 155.372,-40 164.082,-40"/>
<polygon fill="midnightblue" stroke="midnightblue" points="164.233,-43.5001 174.233,-40 164.233,-36.5001 164.233,-43.5001"/>
</g>
<!-- Node3 -->
<g id="node3" class="node"><title>Node3</title>
<g id="a_node3"><a xlink:href="../../d5/d67/class_stdout_thread.html#a6989ce68e4bbc93a7ff7370901a808c0" target="_top" xlink:title="StdoutThread::Get">
<polygon fill="white" stroke="black" points="359,-53.5 359,-74.5 471,-74.5 471,-53.5 359,-53.5"/>
<text text-anchor="middle" x="415" y="-60.9" font-family="Helvetica,sans-Serif" font-size="12.00">StdoutThread::Get</text>
</a>
</g>
</g>
<!-- Node2&#45;&gt;Node3 -->
<g id="edge2" class="edge"><title>Node2&#45;&gt;Node3</title>
<path fill="none" stroke="midnightblue" d="M311.677,-49.5544C323.902,-51.2803 336.627,-53.0767 348.78,-54.7924"/>
<polygon fill="midnightblue" stroke="midnightblue" points="348.44,-58.279 358.831,-56.2114 349.418,-51.3478 348.44,-58.279"/>
</g>
<!-- Node5 -->
<g id="node5" class="node"><title>Node5</title>
<g id="a_node5"><a xlink:href="../../dd/dd1/class_c_operator_console_dlg.html#ae937941b5c3b8b9655ad4f2f91c7ea9a" target="_top" xlink:title="COperatorConsoleDlg\l::LogMessage">
<polygon fill="white" stroke="black" points="348,-0 348,-34 482,-34 482,-0 348,-0"/>
<text text-anchor="start" x="356" y="-20.4" font-family="Helvetica,sans-Serif" font-size="12.00">COperatorConsoleDlg</text>
<text text-anchor="middle" x="415" y="-7.4" font-family="Helvetica,sans-Serif" font-size="12.00">::LogMessage</text>
</a>
</g>
</g>
<!-- Node2&#45;&gt;Node5 -->
<g id="edge4" class="edge"><title>Node2&#45;&gt;Node5</title>
<path fill="none" stroke="midnightblue" d="M311.677,-30.8437C320.262,-29.6822 329.093,-28.4874 337.8,-27.3094"/>
<polygon fill="midnightblue" stroke="midnightblue" points="338.501,-30.7465 347.942,-25.9373 337.563,-23.8097 338.501,-30.7465"/>
</g>
<!-- Node4 -->
<g id="node4" class="node"><title>Node4</title>
<g id="a_node4"><a xlink:href="../../d6/d56/class_critical_c_string.html#a889c4327ebcbf028214950d6d65291bf" target="_top" xlink:title="copy m_string into str, then optionally clear m_string ">
<polygon fill="white" stroke="black" points="518,-53.5 518,-74.5 636,-74.5 636,-53.5 518,-53.5"/>
<text text-anchor="middle" x="577" y="-60.9" font-family="Helvetica,sans-Serif" font-size="12.00">CriticalCString::Get</text>
</a>
</g>
</g>
<!-- Node3&#45;&gt;Node4 -->
<g id="edge3" class="edge"><title>Node3&#45;&gt;Node4</title>
<path fill="none" stroke="midnightblue" d="M471.063,-64C482.857,-64 495.454,-64 507.679,-64"/>
<polygon fill="midnightblue" stroke="midnightblue" points="507.835,-67.5001 517.835,-64 507.835,-60.5001 507.835,-67.5001"/>
</g>
<!-- Node6 -->
<g id="node6" class="node"><title>Node6</title>
<g id="a_node6"><a xlink:href="../../dd/d46/class_timestamp.html#ac1238e7ef53954ee90d6687601bc95e9" target="_top" xlink:title="Timestamp::Get">
<polygon fill="white" stroke="black" points="527,-6.5 527,-27.5 627,-27.5 627,-6.5 527,-6.5"/>
<text text-anchor="middle" x="577" y="-13.9" font-family="Helvetica,sans-Serif" font-size="12.00">Timestamp::Get</text>
</a>
</g>
</g>
<!-- Node5&#45;&gt;Node6 -->
<g id="edge5" class="edge"><title>Node5&#45;&gt;Node6</title>
<path fill="none" stroke="midnightblue" d="M482.002,-17C493.47,-17 505.333,-17 516.611,-17"/>
<polygon fill="midnightblue" stroke="midnightblue" points="516.774,-20.5001 526.774,-17 516.774,-13.5001 516.774,-20.5001"/>
</g>
</g>
</svg>
