<?xml version="1.0" encoding="UTF-8" standalone="no"?>
<!DOCTYPE svg PUBLIC "-//W3C//DTD SVG 1.1//EN"
 "http://www.w3.org/Graphics/SVG/1.1/DTD/svg11.dtd">
<!-- Generated by graphviz version 2.34.0 (20130907.0111)
 -->
<!-- Title: COperatorConsoleApp::InitCamera Pages: 1 -->
<svg width="438pt" height="70pt"
 viewBox="0.00 0.00 438.00 70.00" xmlns="http://www.w3.org/2000/svg" xmlns:xlink="http://www.w3.org/1999/xlink">
<g id="graph0" class="graph" transform="scale(1 1) rotate(0) translate(4 66)">
<title>COperatorConsoleApp::InitCamera</title>
<polygon fill="white" stroke="white" points="-4,4 -4,-66 434,-66 434,4 -4,4"/>
<!-- Node1 -->
<g id="node1" class="node"><title>Node1</title>
<polygon fill="#bfbfbf" stroke="black" points="0.5,-14 0.5,-48 137.5,-48 137.5,-14 0.5,-14"/>
<text text-anchor="start" x="8.5" y="-34.4" font-family="Helvetica,sans-Serif" font-size="12.00">COperatorConsoleApp</text>
<text text-anchor="middle" x="69" y="-21.4" font-family="Helvetica,sans-Serif" font-size="12.00">::InitCamera</text>
</g>
<!-- Node2 -->
<g id="node2" class="node"><title>Node2</title>
<g id="a_node2"><a xlink:href="../../d8/d29/class_image_acquisition.html#a09e47283e2ae3e6c352b8842bde2332a" target="_top" xlink:title="may be overridden, but be sure to call parent function also ">
<polygon fill="white" stroke="black" points="174.5,-40.5 174.5,-61.5 301.5,-61.5 301.5,-40.5 174.5,-40.5"/>
<text text-anchor="middle" x="238" y="-47.9" font-family="Helvetica,sans-Serif" font-size="12.00">ImageAcquisition::Init</text>
</a>
</g>
</g>
<!-- Node1&#45;&gt;Node2 -->
<g id="edge1" class="edge"><title>Node1&#45;&gt;Node2</title>
<path fill="none" stroke="midnightblue" d="M137.925,-39.1348C146.558,-40.1686 155.42,-41.23 164.126,-42.2726"/>
<polygon fill="midnightblue" stroke="midnightblue" points="163.906,-45.7711 174.251,-43.4852 164.738,-38.8208 163.906,-45.7711"/>
</g>
<!-- Node4 -->
<g id="node4" class="node"><title>Node4</title>
<g id="a_node4"><a xlink:href="../../df/d22/class_imatest_lib_acq.html#af8b94cf2a548d2edbd61e0e39d7e5cce" target="_top" xlink:title="ImatestLibAcq::Open">
<polygon fill="white" stroke="black" points="175,-0.5 175,-21.5 301,-21.5 301,-0.5 175,-0.5"/>
<text text-anchor="middle" x="238" y="-7.9" font-family="Helvetica,sans-Serif" font-size="12.00">ImatestLibAcq::Open</text>
</a>
</g>
</g>
<!-- Node1&#45;&gt;Node4 -->
<g id="edge3" class="edge"><title>Node1&#45;&gt;Node4</title>
<path fill="none" stroke="midnightblue" d="M137.925,-22.8652C146.783,-21.8045 155.883,-20.7147 164.807,-19.6459"/>
<polygon fill="midnightblue" stroke="midnightblue" points="165.273,-23.1152 174.786,-18.4508 164.44,-16.1648 165.273,-23.1152"/>
</g>
<!-- Node3 -->
<g id="node3" class="node"><title>Node3</title>
<g id="a_node3"><a xlink:href="../../d3/d1e/class_critical_buf.html#af55d2c476f545955912617611c18cbee" target="_top" xlink:title="CriticalBuf::Init">
<polygon fill="white" stroke="black" points="338.5,-40.5 338.5,-61.5 429.5,-61.5 429.5,-40.5 338.5,-40.5"/>
<text text-anchor="middle" x="384" y="-47.9" font-family="Helvetica,sans-Serif" font-size="12.00">CriticalBuf::Init</text>
</a>
</g>
</g>
<!-- Node2&#45;&gt;Node3 -->
<g id="edge2" class="edge"><title>Node2&#45;&gt;Node3</title>
<path fill="none" stroke="midnightblue" d="M301.742,-51C310.471,-51 319.384,-51 327.958,-51"/>
<polygon fill="midnightblue" stroke="midnightblue" points="328.211,-54.5001 338.211,-51 328.211,-47.5001 328.211,-54.5001"/>
</g>
</g>
</svg>
