<?xml version="1.0" encoding="UTF-8" standalone="no"?>
<!DOCTYPE svg PUBLIC "-//W3C//DTD SVG 1.1//EN"
 "http://www.w3.org/Graphics/SVG/1.1/DTD/svg11.dtd">
<!-- Generated by graphviz version 2.34.0 (20130907.0111)
 -->
<!-- Title: COperatorConsoleApp::GetStdoutMsg Pages: 1 -->
<svg width="470pt" height="83pt"
 viewBox="0.00 0.00 470.00 83.00" xmlns="http://www.w3.org/2000/svg" xmlns:xlink="http://www.w3.org/1999/xlink">
<g id="graph0" class="graph" transform="scale(1 1) rotate(0) translate(4 79)">
<title>COperatorConsoleApp::GetStdoutMsg</title>
<polygon fill="white" stroke="white" points="-4,4 -4,-79 466,-79 466,4 -4,4"/>
<!-- Node1 -->
<g id="node1" class="node"><title>Node1</title>
<polygon fill="#bfbfbf" stroke="black" points="0.5,-23 0.5,-57 137.5,-57 137.5,-23 0.5,-23"/>
<text text-anchor="start" x="8.5" y="-43.4" font-family="Helvetica,sans-Serif" font-size="12.00">COperatorConsoleApp</text>
<text text-anchor="middle" x="69" y="-30.4" font-family="Helvetica,sans-Serif" font-size="12.00">::GetStdoutMsg</text>
</g>
<!-- Node2 -->
<g id="node2" class="node"><title>Node2</title>
<g id="a_node2"><a xlink:href="../../d5/d67/class_stdout_thread.html#a6989ce68e4bbc93a7ff7370901a808c0" target="_top" xlink:title="StdoutThread::Get">
<polygon fill="white" stroke="black" points="185,-53.5 185,-74.5 297,-74.5 297,-53.5 185,-53.5"/>
<text text-anchor="middle" x="241" y="-60.9" font-family="Helvetica,sans-Serif" font-size="12.00">StdoutThread::Get</text>
</a>
</g>
</g>
<!-- Node1&#45;&gt;Node2 -->
<g id="edge1" class="edge"><title>Node1&#45;&gt;Node2</title>
<path fill="none" stroke="midnightblue" d="M137.677,-49.5544C149.902,-51.2803 162.627,-53.0767 174.78,-54.7924"/>
<polygon fill="midnightblue" stroke="midnightblue" points="174.44,-58.279 184.831,-56.2114 175.418,-51.3478 174.44,-58.279"/>
</g>
<!-- Node4 -->
<g id="node4" class="node"><title>Node4</title>
<g id="a_node4"><a xlink:href="../../dd/dd1/class_c_operator_console_dlg.html#ae937941b5c3b8b9655ad4f2f91c7ea9a" target="_top" xlink:title="COperatorConsoleDlg\l::LogMessage">
<polygon fill="white" stroke="black" points="174,-0 174,-34 308,-34 308,-0 174,-0"/>
<text text-anchor="start" x="182" y="-20.4" font-family="Helvetica,sans-Serif" font-size="12.00">COperatorConsoleDlg</text>
<text text-anchor="middle" x="241" y="-7.4" font-family="Helvetica,sans-Serif" font-size="12.00">::LogMessage</text>
</a>
</g>
</g>
<!-- Node1&#45;&gt;Node4 -->
<g id="edge3" class="edge"><title>Node1&#45;&gt;Node4</title>
<path fill="none" stroke="midnightblue" d="M137.677,-30.8437C146.262,-29.6822 155.093,-28.4874 163.8,-27.3094"/>
<polygon fill="midnightblue" stroke="midnightblue" points="164.501,-30.7465 173.942,-25.9373 163.563,-23.8097 164.501,-30.7465"/>
</g>
<!-- Node3 -->
<g id="node3" class="node"><title>Node3</title>
<g id="a_node3"><a xlink:href="../../d6/d56/class_critical_c_string.html#a889c4327ebcbf028214950d6d65291bf" target="_top" xlink:title="copy m_string into str, then optionally clear m_string ">
<polygon fill="white" stroke="black" points="344,-53.5 344,-74.5 462,-74.5 462,-53.5 344,-53.5"/>
<text text-anchor="middle" x="403" y="-60.9" font-family="Helvetica,sans-Serif" font-size="12.00">CriticalCString::Get</text>
</a>
</g>
</g>
<!-- Node2&#45;&gt;Node3 -->
<g id="edge2" class="edge"><title>Node2&#45;&gt;Node3</title>
<path fill="none" stroke="midnightblue" d="M297.063,-64C308.857,-64 321.454,-64 333.679,-64"/>
<polygon fill="midnightblue" stroke="midnightblue" points="333.835,-67.5001 343.835,-64 333.835,-60.5001 333.835,-67.5001"/>
</g>
<!-- Node5 -->
<g id="node5" class="node"><title>Node5</title>
<g id="a_node5"><a xlink:href="../../dd/d46/class_timestamp.html#ac1238e7ef53954ee90d6687601bc95e9" target="_top" xlink:title="Timestamp::Get">
<polygon fill="white" stroke="black" points="353,-6.5 353,-27.5 453,-27.5 453,-6.5 353,-6.5"/>
<text text-anchor="middle" x="403" y="-13.9" font-family="Helvetica,sans-Serif" font-size="12.00">Timestamp::Get</text>
</a>
</g>
</g>
<!-- Node4&#45;&gt;Node5 -->
<g id="edge4" class="edge"><title>Node4&#45;&gt;Node5</title>
<path fill="none" stroke="midnightblue" d="M308.002,-17C319.47,-17 331.333,-17 342.611,-17"/>
<polygon fill="midnightblue" stroke="midnightblue" points="342.774,-20.5001 352.774,-17 342.774,-13.5001 342.774,-20.5001"/>
</g>
</g>
</svg>
