<?xml version="1.0" encoding="UTF-8" standalone="no"?>
<!DOCTYPE svg PUBLIC "-//W3C//DTD SVG 1.1//EN"
 "http://www.w3.org/Graphics/SVG/1.1/DTD/svg11.dtd">
<!-- Generated by graphviz version 2.34.0 (20130907.0111)
 -->
<!-- Title: COperatorConsoleApp::AllocateImageBuf Pages: 1 -->
<svg width="344pt" height="42pt"
 viewBox="0.00 0.00 344.00 42.00" xmlns="http://www.w3.org/2000/svg" xmlns:xlink="http://www.w3.org/1999/xlink">
<g id="graph0" class="graph" transform="scale(1 1) rotate(0) translate(4 38)">
<title>COperatorConsoleApp::AllocateImageBuf</title>
<polygon fill="white" stroke="white" points="-4,4 -4,-38 340,-38 340,4 -4,4"/>
<!-- Node1 -->
<g id="node1" class="node"><title>Node1</title>
<polygon fill="#bfbfbf" stroke="black" points="0.5,-0 0.5,-34 137.5,-34 137.5,-0 0.5,-0"/>
<text text-anchor="start" x="8.5" y="-20.4" font-family="Helvetica,sans-Serif" font-size="12.00">COperatorConsoleApp</text>
<text text-anchor="middle" x="69" y="-7.4" font-family="Helvetica,sans-Serif" font-size="12.00">::AllocateImageBuf</text>
</g>
<!-- Node2 -->
<g id="node2" class="node"><title>Node2</title>
<g id="a_node2"><a xlink:href="../../d8/d29/class_image_acquisition.html#aa77f9ea82fa88ae12c6b9fba9e13006e" target="_top" xlink:title="ImageAcquisition::BytesPer\lFrame">
<polygon fill="white" stroke="black" points="174.5,-0 174.5,-34 335.5,-34 335.5,-0 174.5,-0"/>
<text text-anchor="start" x="182.5" y="-20.4" font-family="Helvetica,sans-Serif" font-size="12.00">ImageAcquisition::BytesPer</text>
<text text-anchor="middle" x="255" y="-7.4" font-family="Helvetica,sans-Serif" font-size="12.00">Frame</text>
</a>
</g>
</g>
<!-- Node1&#45;&gt;Node2 -->
<g id="edge1" class="edge"><title>Node1&#45;&gt;Node2</title>
<path fill="none" stroke="midnightblue" d="M137.731,-17C146.367,-17 155.311,-17 164.226,-17"/>
<polygon fill="midnightblue" stroke="midnightblue" points="164.263,-20.5001 174.263,-17 164.263,-13.5001 164.263,-20.5001"/>
</g>
</g>
</svg>
