<?xml version="1.0" encoding="UTF-8" standalone="no"?>
<!DOCTYPE svg PUBLIC "-//W3C//DTD SVG 1.1//EN"
 "http://www.w3.org/Graphics/SVG/1.1/DTD/svg11.dtd">
<!-- Generated by graphviz version 2.34.0 (20130907.0111)
 -->
<!-- Title: COperatorConsoleApp::ReInit Pages: 1 -->
<svg width="1086pt" height="603pt"
 viewBox="0.00 0.00 1086.00 603.00" xmlns="http://www.w3.org/2000/svg" xmlns:xlink="http://www.w3.org/1999/xlink">
<g id="graph0" class="graph" transform="scale(1 1) rotate(0) translate(4 599)">
<title>COperatorConsoleApp::ReInit</title>
<polygon fill="white" stroke="white" points="-4,4 -4,-599 1082,-599 1082,4 -4,4"/>
<!-- Node1 -->
<g id="node1" class="node"><title>Node1</title>
<polygon fill="#bfbfbf" stroke="black" points="0.5,-334 0.5,-368 137.5,-368 137.5,-334 0.5,-334"/>
<text text-anchor="start" x="8.5" y="-354.4" font-family="Helvetica,sans-Serif" font-size="12.00">COperatorConsoleApp</text>
<text text-anchor="middle" x="69" y="-341.4" font-family="Helvetica,sans-Serif" font-size="12.00">::ReInit</text>
</g>
<!-- Node2 -->
<g id="node2" class="node"><title>Node2</title>
<g id="a_node2"><a xlink:href="../../d3/d9f/class_c_operator_console_app.html#aeb93b88acfe6d11d64f493f63f74bca6" target="_top" xlink:title="COperatorConsoleApp\l::AllocateImageBuf">
<polygon fill="white" stroke="black" points="180.5,-561 180.5,-595 317.5,-595 317.5,-561 180.5,-561"/>
<text text-anchor="start" x="188.5" y="-581.4" font-family="Helvetica,sans-Serif" font-size="12.00">COperatorConsoleApp</text>
<text text-anchor="middle" x="249" y="-568.4" font-family="Helvetica,sans-Serif" font-size="12.00">::AllocateImageBuf</text>
</a>
</g>
</g>
<!-- Node1&#45;&gt;Node2 -->
<g id="edge1" class="edge"><title>Node1&#45;&gt;Node2</title>
<path fill="none" stroke="midnightblue" d="M74.3091,-368.11C84.7913,-406.335 115.184,-499.355 174,-551 175.753,-552.54 177.602,-553.994 179.525,-555.367"/>
<polygon fill="midnightblue" stroke="midnightblue" points="178.033,-558.562 188.37,-560.887 181.739,-552.624 178.033,-558.562"/>
</g>
<!-- Node4 -->
<g id="node4" class="node"><title>Node4</title>
<g id="a_node4"><a xlink:href="../../d3/d9f/class_c_operator_console_app.html#ac47de682b105a11015ceef305c225924" target="_top" xlink:title="COperatorConsoleApp\l::CheckFiles">
<polygon fill="white" stroke="black" points="180.5,-508 180.5,-542 317.5,-542 317.5,-508 180.5,-508"/>
<text text-anchor="start" x="188.5" y="-528.4" font-family="Helvetica,sans-Serif" font-size="12.00">COperatorConsoleApp</text>
<text text-anchor="middle" x="249" y="-515.4" font-family="Helvetica,sans-Serif" font-size="12.00">::CheckFiles</text>
</a>
</g>
</g>
<!-- Node1&#45;&gt;Node4 -->
<g id="edge3" class="edge"><title>Node1&#45;&gt;Node4</title>
<path fill="none" stroke="midnightblue" d="M77.7623,-368.083C92.3764,-398.431 126.803,-461.937 174,-498 176.292,-499.751 178.709,-501.398 181.214,-502.944"/>
<polygon fill="midnightblue" stroke="midnightblue" points="179.578,-506.039 190.022,-507.824 182.971,-499.916 179.578,-506.039"/>
</g>
<!-- Node6 -->
<g id="node6" class="node"><title>Node6</title>
<g id="a_node6"><a xlink:href="../../d8/d29/class_image_acquisition.html#af32c2cc8a87105465ba8620e77745c2b" target="_top" xlink:title="ImageAcquisition::GetInfo">
<polygon fill="white" stroke="black" points="174.5,-467.5 174.5,-488.5 323.5,-488.5 323.5,-467.5 174.5,-467.5"/>
<text text-anchor="middle" x="249" y="-474.9" font-family="Helvetica,sans-Serif" font-size="12.00">ImageAcquisition::GetInfo</text>
</a>
</g>
</g>
<!-- Node1&#45;&gt;Node6 -->
<g id="edge5" class="edge"><title>Node1&#45;&gt;Node6</title>
<path fill="none" stroke="midnightblue" d="M82.0909,-368.001C99.6735,-391.479 134.539,-433.575 174,-457 178.339,-459.576 183.008,-461.848 187.817,-463.851"/>
<polygon fill="midnightblue" stroke="midnightblue" points="186.593,-467.13 197.185,-467.38 189.061,-460.58 186.593,-467.13"/>
</g>
<!-- Node7 -->
<g id="node7" class="node"><title>Node7</title>
<g id="a_node7"><a xlink:href="../../d3/d9f/class_c_operator_console_app.html#a8edea834120ba2acc0e16230ff5efb14" target="_top" xlink:title="COperatorConsoleApp\l::InitBlemishAcq">
<polygon fill="white" stroke="black" points="180.5,-414 180.5,-448 317.5,-448 317.5,-414 180.5,-414"/>
<text text-anchor="start" x="188.5" y="-434.4" font-family="Helvetica,sans-Serif" font-size="12.00">COperatorConsoleApp</text>
<text text-anchor="middle" x="249" y="-421.4" font-family="Helvetica,sans-Serif" font-size="12.00">::InitBlemishAcq</text>
</a>
</g>
</g>
<!-- Node1&#45;&gt;Node7 -->
<g id="edge6" class="edge"><title>Node1&#45;&gt;Node7</title>
<path fill="none" stroke="midnightblue" d="M100.927,-368.01C121.366,-378.939 148.916,-393.08 174,-404 178.937,-406.149 184.106,-408.276 189.319,-410.337"/>
<polygon fill="midnightblue" stroke="midnightblue" points="188.119,-413.625 198.709,-413.964 190.642,-407.096 188.119,-413.625"/>
</g>
<!-- Node12 -->
<g id="node12" class="node"><title>Node12</title>
<g id="a_node12"><a xlink:href="../../d3/d9f/class_c_operator_console_app.html#a51ad7e6e8f370072c3e89d0d7e9e41a8" target="_top" xlink:title="COperatorConsoleApp\l::InitBlemishThread">
<polygon fill="white" stroke="black" points="180.5,-252 180.5,-286 317.5,-286 317.5,-252 180.5,-252"/>
<text text-anchor="start" x="188.5" y="-272.4" font-family="Helvetica,sans-Serif" font-size="12.00">COperatorConsoleApp</text>
<text text-anchor="middle" x="249" y="-259.4" font-family="Helvetica,sans-Serif" font-size="12.00">::InitBlemishThread</text>
</a>
</g>
</g>
<!-- Node1&#45;&gt;Node12 -->
<g id="edge11" class="edge"><title>Node1&#45;&gt;Node12</title>
<path fill="none" stroke="midnightblue" d="M101.471,-333.947C121.898,-323.132 149.232,-309.132 174,-298 180.088,-295.264 186.518,-292.526 192.943,-289.885"/>
<polygon fill="midnightblue" stroke="midnightblue" points="194.353,-293.09 202.312,-286.096 191.729,-286.6 194.353,-293.09"/>
</g>
<!-- Node36 -->
<g id="node36" class="node"><title>Node36</title>
<g id="a_node36"><a xlink:href="../../d3/d9f/class_c_operator_console_app.html#a74df2a3e42b3980069fa3946b67ecf79" target="_top" xlink:title="COperatorConsoleApp\l::InitCamera">
<polygon fill="white" stroke="black" points="180.5,-308 180.5,-342 317.5,-342 317.5,-308 180.5,-308"/>
<text text-anchor="start" x="188.5" y="-328.4" font-family="Helvetica,sans-Serif" font-size="12.00">COperatorConsoleApp</text>
<text text-anchor="middle" x="249" y="-315.4" font-family="Helvetica,sans-Serif" font-size="12.00">::InitCamera</text>
</a>
</g>
</g>
<!-- Node1&#45;&gt;Node36 -->
<g id="edge35" class="edge"><title>Node1&#45;&gt;Node36</title>
<path fill="none" stroke="midnightblue" d="M137.548,-341.133C148.316,-339.561 159.529,-337.923 170.505,-336.32"/>
<polygon fill="midnightblue" stroke="midnightblue" points="171.109,-339.768 180.498,-334.86 170.097,-332.842 171.109,-339.768"/>
</g>
<!-- Node38 -->
<g id="node38" class="node"><title>Node38</title>
<g id="a_node38"><a xlink:href="../../d3/d9f/class_c_operator_console_app.html#a7e42ecea8d8270d3b3cf9552abc00eba" target="_top" xlink:title="COperatorConsoleApp\l::InitSFRplusAcq">
<polygon fill="white" stroke="black" points="180.5,-361 180.5,-395 317.5,-395 317.5,-361 180.5,-361"/>
<text text-anchor="start" x="188.5" y="-381.4" font-family="Helvetica,sans-Serif" font-size="12.00">COperatorConsoleApp</text>
<text text-anchor="middle" x="249" y="-368.4" font-family="Helvetica,sans-Serif" font-size="12.00">::InitSFRplusAcq</text>
</a>
</g>
</g>
<!-- Node1&#45;&gt;Node38 -->
<g id="edge38" class="edge"><title>Node1&#45;&gt;Node38</title>
<path fill="none" stroke="midnightblue" d="M137.548,-361.246C148.316,-362.879 159.529,-364.58 170.505,-366.245"/>
<polygon fill="midnightblue" stroke="midnightblue" points="170.086,-369.722 180.498,-367.761 171.136,-362.801 170.086,-369.722"/>
</g>
<!-- Node39 -->
<g id="node39" class="node"><title>Node39</title>
<g id="a_node39"><a xlink:href="../../d3/d9f/class_c_operator_console_app.html#af7328d2c00abb1d4a09a65492c69b2b0" target="_top" xlink:title="COperatorConsoleApp\l::InitSFRplusThread">
<polygon fill="white" stroke="black" points="180.5,-199 180.5,-233 317.5,-233 317.5,-199 180.5,-199"/>
<text text-anchor="start" x="188.5" y="-219.4" font-family="Helvetica,sans-Serif" font-size="12.00">COperatorConsoleApp</text>
<text text-anchor="middle" x="249" y="-206.4" font-family="Helvetica,sans-Serif" font-size="12.00">::InitSFRplusThread</text>
</a>
</g>
</g>
<!-- Node1&#45;&gt;Node39 -->
<g id="edge41" class="edge"><title>Node1&#45;&gt;Node39</title>
<path fill="none" stroke="midnightblue" d="M82.1884,-333.843C99.8869,-310.087 134.889,-267.256 174,-242 176.413,-240.442 178.931,-238.964 181.52,-237.564"/>
<polygon fill="midnightblue" stroke="midnightblue" points="183.136,-240.669 190.547,-233.098 180.032,-234.395 183.136,-240.669"/>
</g>
<!-- Node40 -->
<g id="node40" class="node"><title>Node40</title>
<g id="a_node40"><a xlink:href="../../d3/d9f/class_c_operator_console_app.html#a603dc5a9e0c64b5d2a604965b023c936" target="_top" xlink:title="Called after MSG_SET_SFRPLUS is received. ">
<polygon fill="white" stroke="black" points="180.5,-146 180.5,-180 317.5,-180 317.5,-146 180.5,-146"/>
<text text-anchor="start" x="188.5" y="-166.4" font-family="Helvetica,sans-Serif" font-size="12.00">COperatorConsoleApp</text>
<text text-anchor="middle" x="249" y="-153.4" font-family="Helvetica,sans-Serif" font-size="12.00">::OnSetSFRplus</text>
</a>
</g>
</g>
<!-- Node1&#45;&gt;Node40 -->
<g id="edge47" class="edge"><title>Node1&#45;&gt;Node40</title>
<path fill="none" stroke="midnightblue" d="M76.4983,-333.919C89.8111,-301.138 123.268,-229.108 174,-189 175.602,-187.733 177.271,-186.526 178.993,-185.375"/>
<polygon fill="midnightblue" stroke="midnightblue" points="181.141,-188.171 187.981,-180.079 177.588,-182.14 181.141,-188.171"/>
</g>
<!-- Node41 -->
<g id="node41" class="node"><title>Node41</title>
<g id="a_node41"><a xlink:href="../../d7/da0/class_thread_control.html#afd86c1fc3e09d219cf48f5a15539b920" target="_top" xlink:title="ThreadControl::Quit">
<polygon fill="white" stroke="black" points="190,-105.5 190,-126.5 308,-126.5 308,-105.5 190,-105.5"/>
<text text-anchor="middle" x="249" y="-112.9" font-family="Helvetica,sans-Serif" font-size="12.00">ThreadControl::Quit</text>
</a>
</g>
</g>
<!-- Node1&#45;&gt;Node41 -->
<g id="edge48" class="edge"><title>Node1&#45;&gt;Node41</title>
<path fill="none" stroke="midnightblue" d="M73.258,-333.775C81.9073,-292.923 109.356,-189.583 174,-136 176.062,-134.291 178.257,-132.727 180.552,-131.296"/>
<polygon fill="midnightblue" stroke="midnightblue" points="182.61,-134.167 189.824,-126.408 179.345,-127.975 182.61,-134.167"/>
</g>
<!-- Node3 -->
<g id="node3" class="node"><title>Node3</title>
<g id="a_node3"><a xlink:href="../../d8/d29/class_image_acquisition.html#aa77f9ea82fa88ae12c6b9fba9e13006e" target="_top" xlink:title="ImageAcquisition::BytesPer\lFrame">
<polygon fill="white" stroke="black" points="362.5,-561 362.5,-595 523.5,-595 523.5,-561 362.5,-561"/>
<text text-anchor="start" x="370.5" y="-581.4" font-family="Helvetica,sans-Serif" font-size="12.00">ImageAcquisition::BytesPer</text>
<text text-anchor="middle" x="443" y="-568.4" font-family="Helvetica,sans-Serif" font-size="12.00">Frame</text>
</a>
</g>
</g>
<!-- Node2&#45;&gt;Node3 -->
<g id="edge2" class="edge"><title>Node2&#45;&gt;Node3</title>
<path fill="none" stroke="midnightblue" d="M317.692,-578C328.882,-578 340.635,-578 352.264,-578"/>
<polygon fill="midnightblue" stroke="midnightblue" points="352.436,-581.5 362.436,-578 352.436,-574.5 352.436,-581.5"/>
</g>
<!-- Node5 -->
<g id="node5" class="node"><title>Node5</title>
<g id="a_node5"><a xlink:href="../../d3/d9f/class_c_operator_console_app.html#a9f0e96c6628d1c991c7a4bf6741ed6d9" target="_top" xlink:title="COperatorConsoleApp\l::FileExists">
<polygon fill="white" stroke="black" points="374.5,-508 374.5,-542 511.5,-542 511.5,-508 374.5,-508"/>
<text text-anchor="start" x="382.5" y="-528.4" font-family="Helvetica,sans-Serif" font-size="12.00">COperatorConsoleApp</text>
<text text-anchor="middle" x="443" y="-515.4" font-family="Helvetica,sans-Serif" font-size="12.00">::FileExists</text>
</a>
</g>
</g>
<!-- Node4&#45;&gt;Node5 -->
<g id="edge4" class="edge"><title>Node4&#45;&gt;Node5</title>
<path fill="none" stroke="midnightblue" d="M317.692,-525C332.748,-525 348.824,-525 364.248,-525"/>
<polygon fill="midnightblue" stroke="midnightblue" points="364.272,-528.5 374.272,-525 364.272,-521.5 364.272,-528.5"/>
</g>
<!-- Node8 -->
<g id="node8" class="node"><title>Node8</title>
<g id="a_node8"><a xlink:href="../../db/def/class_file_acquisition.html#a797827242308ce8dba037e6c36ca4b30" target="_top" xlink:title="Initializes the buffers inherited from class ImageAcquisition with 2 bytes per pixel. ">
<polygon fill="white" stroke="black" points="386,-439.5 386,-460.5 500,-460.5 500,-439.5 386,-439.5"/>
<text text-anchor="middle" x="443" y="-446.9" font-family="Helvetica,sans-Serif" font-size="12.00">FileAcquisition::Init</text>
</a>
</g>
</g>
<!-- Node7&#45;&gt;Node8 -->
<g id="edge7" class="edge"><title>Node7&#45;&gt;Node8</title>
<path fill="none" stroke="midnightblue" d="M317.692,-437.699C336.458,-439.556 356.808,-441.57 375.505,-443.42"/>
<polygon fill="midnightblue" stroke="midnightblue" points="375.405,-446.927 385.701,-444.429 376.094,-439.961 375.405,-446.927"/>
</g>
<!-- Node11 -->
<g id="node11" class="node"><title>Node11</title>
<g id="a_node11"><a xlink:href="../../db/def/class_file_acquisition.html#af5cffdb393fa3c0dffb9efd4af5fcc68" target="_top" xlink:title="FileAcquisition::Open">
<polygon fill="white" stroke="black" points="379,-399.5 379,-420.5 507,-420.5 507,-399.5 379,-399.5"/>
<text text-anchor="middle" x="443" y="-406.9" font-family="Helvetica,sans-Serif" font-size="12.00">FileAcquisition::Open</text>
</a>
</g>
</g>
<!-- Node7&#45;&gt;Node11 -->
<g id="edge10" class="edge"><title>Node7&#45;&gt;Node11</title>
<path fill="none" stroke="midnightblue" d="M317.692,-423.596C334.143,-421.797 351.812,-419.864 368.517,-418.037"/>
<polygon fill="midnightblue" stroke="midnightblue" points="369.214,-421.482 378.775,-416.915 368.453,-414.523 369.214,-421.482"/>
</g>
<!-- Node9 -->
<g id="node9" class="node"><title>Node9</title>
<g id="a_node9"><a xlink:href="../../d8/d29/class_image_acquisition.html#a09e47283e2ae3e6c352b8842bde2332a" target="_top" xlink:title="may be overridden, but be sure to call parent function also ">
<polygon fill="white" stroke="black" points="572.5,-439.5 572.5,-460.5 699.5,-460.5 699.5,-439.5 572.5,-439.5"/>
<text text-anchor="middle" x="636" y="-446.9" font-family="Helvetica,sans-Serif" font-size="12.00">ImageAcquisition::Init</text>
</a>
</g>
</g>
<!-- Node8&#45;&gt;Node9 -->
<g id="edge8" class="edge"><title>Node8&#45;&gt;Node9</title>
<path fill="none" stroke="midnightblue" d="M500.016,-450C519.414,-450 541.45,-450 562.01,-450"/>
<polygon fill="midnightblue" stroke="midnightblue" points="562.285,-453.5 572.285,-450 562.285,-446.5 562.285,-453.5"/>
</g>
<!-- Node10 -->
<g id="node10" class="node"><title>Node10</title>
<g id="a_node10"><a xlink:href="../../d3/d1e/class_critical_buf.html#af55d2c476f545955912617611c18cbee" target="_top" xlink:title="CriticalBuf::Init">
<polygon fill="white" stroke="black" points="784.5,-440.5 784.5,-461.5 875.5,-461.5 875.5,-440.5 784.5,-440.5"/>
<text text-anchor="middle" x="830" y="-447.9" font-family="Helvetica,sans-Serif" font-size="12.00">CriticalBuf::Init</text>
</a>
</g>
</g>
<!-- Node9&#45;&gt;Node10 -->
<g id="edge9" class="edge"><title>Node9&#45;&gt;Node10</title>
<path fill="none" stroke="midnightblue" d="M699.602,-450.326C723.72,-450.452 751.05,-450.594 774.358,-450.715"/>
<polygon fill="midnightblue" stroke="midnightblue" points="774.4,-454.216 784.418,-450.768 774.437,-447.216 774.4,-454.216"/>
</g>
<!-- Node13 -->
<g id="node13" class="node"><title>Node13</title>
<g id="a_node13"><a xlink:href="../../d8/d29/class_image_acquisition.html#a0964521623ef639396b854aceebbcbef" target="_top" xlink:title="ImageAcquisition::GetHeight">
<polygon fill="white" stroke="black" points="360.5,-121.5 360.5,-142.5 525.5,-142.5 525.5,-121.5 360.5,-121.5"/>
<text text-anchor="middle" x="443" y="-128.9" font-family="Helvetica,sans-Serif" font-size="12.00">ImageAcquisition::GetHeight</text>
</a>
</g>
</g>
<!-- Node12&#45;&gt;Node13 -->
<g id="edge12" class="edge"><title>Node12&#45;&gt;Node13</title>
<path fill="none" stroke="midnightblue" d="M310.758,-251.905C315.567,-249.086 320.073,-245.808 324,-242 354.926,-212.007 327.463,-180.237 360,-152 361.753,-150.478 363.604,-149.068 365.533,-147.762"/>
<polygon fill="midnightblue" stroke="midnightblue" points="367.488,-150.676 374.433,-142.675 364.014,-144.599 367.488,-150.676"/>
</g>
<!-- Node14 -->
<g id="node14" class="node"><title>Node14</title>
<g id="a_node14"><a xlink:href="../../d8/d29/class_image_acquisition.html#a589eb2272d57ee982b6970667b034a0d" target="_top" xlink:title="ImageAcquisition::GetWidth">
<polygon fill="white" stroke="black" points="362.5,-281.5 362.5,-302.5 523.5,-302.5 523.5,-281.5 362.5,-281.5"/>
<text text-anchor="middle" x="443" y="-288.9" font-family="Helvetica,sans-Serif" font-size="12.00">ImageAcquisition::GetWidth</text>
</a>
</g>
</g>
<!-- Node12&#45;&gt;Node14 -->
<g id="edge13" class="edge"><title>Node12&#45;&gt;Node14</title>
<path fill="none" stroke="midnightblue" d="M317.692,-277.109C328.882,-278.449 340.635,-279.857 352.264,-281.25"/>
<polygon fill="midnightblue" stroke="midnightblue" points="352.09,-284.755 362.436,-282.469 352.923,-277.804 352.09,-284.755"/>
</g>
<!-- Node15 -->
<g id="node15" class="node"><title>Node15</title>
<g id="a_node15"><a xlink:href="../../d7/da0/class_thread_control.html#a5054f2ad6297cc65b4cb9146437f48b0" target="_top" xlink:title="ThreadControl::Init">
<polygon fill="white" stroke="black" points="387.5,-161.5 387.5,-182.5 498.5,-182.5 498.5,-161.5 387.5,-161.5"/>
<text text-anchor="middle" x="443" y="-168.9" font-family="Helvetica,sans-Serif" font-size="12.00">ThreadControl::Init</text>
</a>
</g>
</g>
<!-- Node12&#45;&gt;Node15 -->
<g id="edge14" class="edge"><title>Node12&#45;&gt;Node15</title>
<path fill="none" stroke="midnightblue" d="M307.568,-251.971C313.384,-249.104 318.986,-245.799 324,-242 345.827,-225.465 337.292,-207.303 360,-192 365.343,-188.399 371.269,-185.446 377.421,-183.023"/>
<polygon fill="midnightblue" stroke="midnightblue" points="378.915,-186.21 387.223,-179.636 376.628,-179.594 378.915,-186.21"/>
</g>
<!-- Node17 -->
<g id="node17" class="node"><title>Node17</title>
<g id="a_node17"><a xlink:href="../../da/d92/class_image_test.html#ab97f2724bc4060b68dd623c2ff8bbb8d" target="_top" xlink:title="ImageTest::Init">
<polygon fill="white" stroke="black" points="397,-241.5 397,-262.5 489,-262.5 489,-241.5 397,-241.5"/>
<text text-anchor="middle" x="443" y="-248.9" font-family="Helvetica,sans-Serif" font-size="12.00">ImageTest::Init</text>
</a>
</g>
</g>
<!-- Node12&#45;&gt;Node17 -->
<g id="edge16" class="edge"><title>Node12&#45;&gt;Node17</title>
<path fill="none" stroke="midnightblue" d="M317.692,-263.006C340.341,-261.001 365.298,-258.791 386.87,-256.881"/>
<polygon fill="midnightblue" stroke="midnightblue" points="387.189,-260.367 396.841,-255.998 386.572,-253.394 387.189,-260.367"/>
</g>
<!-- Node20 -->
<g id="node20" class="node"><title>Node20</title>
<g id="a_node20"><a xlink:href="../../da/d92/class_image_test.html#a372478d09c06cd7ab3684840add6215e" target="_top" xlink:title="param must be a pointer to a ThreadControl object; param&#45;&gt;m_data must point to an ImageTest object ...">
<polygon fill="white" stroke="black" points="373.5,-201.5 373.5,-222.5 512.5,-222.5 512.5,-201.5 373.5,-201.5"/>
<text text-anchor="middle" x="443" y="-208.9" font-family="Helvetica,sans-Serif" font-size="12.00">ImageTest::ThreadProc</text>
</a>
</g>
</g>
<!-- Node12&#45;&gt;Node20 -->
<g id="edge19" class="edge"><title>Node12&#45;&gt;Node20</title>
<path fill="none" stroke="midnightblue" d="M297.639,-251.989C316.889,-245.374 339.388,-237.968 360,-232 368.386,-229.572 377.31,-227.191 386.067,-224.966"/>
<polygon fill="midnightblue" stroke="midnightblue" points="386.99,-228.343 395.846,-222.527 385.296,-221.551 386.99,-228.343"/>
</g>
<!-- Node16 -->
<g id="node16" class="node"><title>Node16</title>
<g id="a_node16"><a xlink:href="../../d7/da0/class_thread_control.html#ae2bdd5434d609141dda49566f81c9ce6" target="_top" xlink:title="ThreadControl::InitThread">
<polygon fill="white" stroke="black" points="562,-81.5 562,-102.5 710,-102.5 710,-81.5 562,-81.5"/>
<text text-anchor="middle" x="636" y="-88.9" font-family="Helvetica,sans-Serif" font-size="12.00">ThreadControl::InitThread</text>
</a>
</g>
</g>
<!-- Node15&#45;&gt;Node16 -->
<g id="edge15" class="edge"><title>Node15&#45;&gt;Node16</title>
<path fill="none" stroke="midnightblue" d="M498.74,-163.5C508.226,-160.693 517.698,-156.961 526,-152 546.531,-139.732 541.643,-124.556 562,-112 565.364,-109.925 568.945,-108.062 572.646,-106.389"/>
<polygon fill="midnightblue" stroke="midnightblue" points="574.066,-109.59 582.037,-102.61 571.453,-103.096 574.066,-109.59"/>
</g>
<!-- Node18 -->
<g id="node18" class="node"><title>Node18</title>
<g id="a_node18"><a xlink:href="../../da/d92/class_image_test.html#a19f4ba2329209f42293e735fe9797e7c" target="_top" xlink:title="ImageTest::AllocateRGB">
<polygon fill="white" stroke="black" points="563.5,-340.5 563.5,-361.5 708.5,-361.5 708.5,-340.5 563.5,-340.5"/>
<text text-anchor="middle" x="636" y="-347.9" font-family="Helvetica,sans-Serif" font-size="12.00">ImageTest::AllocateRGB</text>
</a>
</g>
</g>
<!-- Node17&#45;&gt;Node18 -->
<g id="edge17" class="edge"><title>Node17&#45;&gt;Node18</title>
<path fill="none" stroke="midnightblue" d="M489.324,-259.747C501.555,-262.717 514.562,-266.71 526,-272 560.491,-287.952 595.14,-315.51 615.832,-333.495"/>
<polygon fill="midnightblue" stroke="midnightblue" points="613.746,-336.322 623.554,-340.329 618.385,-331.08 613.746,-336.322"/>
</g>
<!-- Node19 -->
<g id="node19" class="node"><title>Node19</title>
<g id="a_node19"><a xlink:href="../../da/d92/class_image_test.html#ad019b2cd49f147623a4f0ded3a927aee" target="_top" xlink:title="ImageTest::DeleteRGB">
<polygon fill="white" stroke="black" points="761.5,-400.5 761.5,-421.5 898.5,-421.5 898.5,-400.5 761.5,-400.5"/>
<text text-anchor="middle" x="830" y="-407.9" font-family="Helvetica,sans-Serif" font-size="12.00">ImageTest::DeleteRGB</text>
</a>
</g>
</g>
<!-- Node18&#45;&gt;Node19 -->
<g id="edge18" class="edge"><title>Node18&#45;&gt;Node19</title>
<path fill="none" stroke="midnightblue" d="M663.143,-361.56C685.046,-370.172 717.255,-382.294 746,-391 754.055,-393.44 762.62,-395.781 771.072,-397.947"/>
<polygon fill="midnightblue" stroke="midnightblue" points="770.356,-401.376 780.906,-400.406 772.054,-394.585 770.356,-401.376"/>
</g>
<!-- Node21 -->
<g id="node21" class="node"><title>Node21</title>
<g id="a_node21"><a xlink:href="../../d8/d08/class_timer.html#a4e607b129b392c11adddd9641a320436" target="_top" xlink:title="Timer::Start">
<polygon fill="white" stroke="black" points="597.5,-241.5 597.5,-262.5 674.5,-262.5 674.5,-241.5 597.5,-241.5"/>
<text text-anchor="middle" x="636" y="-248.9" font-family="Helvetica,sans-Serif" font-size="12.00">Timer::Start</text>
</a>
</g>
</g>
<!-- Node20&#45;&gt;Node21 -->
<g id="edge20" class="edge"><title>Node20&#45;&gt;Node21</title>
<path fill="none" stroke="midnightblue" d="M494.183,-222.51C522.927,-228.529 558.801,-236.042 587.147,-241.978"/>
<polygon fill="midnightblue" stroke="midnightblue" points="586.717,-245.464 597.222,-244.088 588.152,-238.613 586.717,-245.464"/>
</g>
<!-- Node22 -->
<g id="node22" class="node"><title>Node22</title>
<g id="a_node22"><a xlink:href="../../da/d92/class_image_test.html#a7334d76c1cc6780f46626be5b9ff1adb" target="_top" xlink:title="Runs the test pointed to by m_imatestFunc. ">
<polygon fill="white" stroke="black" points="587,-201.5 587,-222.5 685,-222.5 685,-201.5 587,-201.5"/>
<text text-anchor="middle" x="636" y="-208.9" font-family="Helvetica,sans-Serif" font-size="12.00">ImageTest::Run</text>
</a>
</g>
</g>
<!-- Node20&#45;&gt;Node22 -->
<g id="edge21" class="edge"><title>Node20&#45;&gt;Node22</title>
<path fill="none" stroke="midnightblue" d="M512.686,-212C533.729,-212 556.662,-212 576.925,-212"/>
<polygon fill="midnightblue" stroke="midnightblue" points="576.944,-215.5 586.944,-212 576.944,-208.5 576.944,-215.5"/>
</g>
<!-- Node33 -->
<g id="node33" class="node"><title>Node33</title>
<g id="a_node33"><a xlink:href="../../d8/d08/class_timer.html#a6379e797f968aaee6ac3bb12dc6b81c5" target="_top" xlink:title="Timer::Stop">
<polygon fill="white" stroke="black" points="597.5,-161.5 597.5,-182.5 674.5,-182.5 674.5,-161.5 597.5,-161.5"/>
<text text-anchor="middle" x="636" y="-168.9" font-family="Helvetica,sans-Serif" font-size="12.00">Timer::Stop</text>
</a>
</g>
</g>
<!-- Node20&#45;&gt;Node33 -->
<g id="edge32" class="edge"><title>Node20&#45;&gt;Node33</title>
<path fill="none" stroke="midnightblue" d="M494.183,-201.49C522.927,-195.471 558.801,-187.958 587.147,-182.022"/>
<polygon fill="midnightblue" stroke="midnightblue" points="588.152,-185.387 597.222,-179.912 586.717,-178.536 588.152,-185.387"/>
</g>
<!-- Node35 -->
<g id="node35" class="node"><title>Node35</title>
<g id="a_node35"><a xlink:href="../../d8/d08/class_timer.html#a40773739b5fe60e836329bbbe6ed65ce" target="_top" xlink:title="gets the elapsed time in milliseconds ">
<polygon fill="white" stroke="black" points="600.5,-121.5 600.5,-142.5 671.5,-142.5 671.5,-121.5 600.5,-121.5"/>
<text text-anchor="middle" x="636" y="-128.9" font-family="Helvetica,sans-Serif" font-size="12.00">Timer::Get</text>
</a>
</g>
</g>
<!-- Node20&#45;&gt;Node35 -->
<g id="edge34" class="edge"><title>Node20&#45;&gt;Node35</title>
<path fill="none" stroke="midnightblue" d="M505.192,-201.439C512.471,-198.933 519.585,-195.833 526,-192 546.531,-179.732 541.643,-164.556 562,-152 570.64,-146.671 580.713,-142.737 590.567,-139.841"/>
<polygon fill="midnightblue" stroke="midnightblue" points="591.51,-143.212 600.287,-137.278 589.725,-136.443 591.51,-143.212"/>
</g>
<!-- Node23 -->
<g id="node23" class="node"><title>Node23</title>
<g id="a_node23"><a xlink:href="../../da/d92/class_image_test.html#a3b66aa4095c338dd90f6e57e108f3038" target="_top" xlink:title="ImageTest::InitResults">
<polygon fill="white" stroke="black" points="765,-80.5 765,-101.5 895,-101.5 895,-80.5 765,-80.5"/>
<text text-anchor="middle" x="830" y="-87.9" font-family="Helvetica,sans-Serif" font-size="12.00">ImageTest::InitResults</text>
</a>
</g>
</g>
<!-- Node22&#45;&gt;Node23 -->
<g id="edge22" class="edge"><title>Node22&#45;&gt;Node23</title>
<path fill="none" stroke="midnightblue" d="M685.184,-205.29C694.159,-202.328 702.925,-198.081 710,-192 739.876,-166.321 715.73,-136.214 746,-111 749.052,-108.458 752.374,-106.229 755.877,-104.275"/>
<polygon fill="midnightblue" stroke="midnightblue" points="757.389,-107.432 764.904,-99.9648 754.372,-101.115 757.389,-107.432"/>
</g>
<!-- Node25 -->
<g id="node25" class="node"><title>Node25</title>
<g id="a_node25"><a xlink:href="../../da/d92/class_image_test.html#acfb4336b719c918a612640d9d8c63834" target="_top" xlink:title="converts from m_rawPixels to m_rgb ">
<polygon fill="white" stroke="black" points="746.5,-40.5 746.5,-61.5 913.5,-61.5 913.5,-40.5 746.5,-40.5"/>
<text text-anchor="middle" x="830" y="-47.9" font-family="Helvetica,sans-Serif" font-size="12.00">ImageTest::PlanesFromRGB</text>
</a>
</g>
</g>
<!-- Node22&#45;&gt;Node25 -->
<g id="edge24" class="edge"><title>Node22&#45;&gt;Node25</title>
<path fill="none" stroke="midnightblue" d="M685.067,-206.236C694.261,-203.218 703.144,-198.709 710,-192 750.103,-152.76 705.294,-109.614 746,-71 747.492,-69.5846 749.066,-68.2639 750.709,-67.0318"/>
<polygon fill="midnightblue" stroke="midnightblue" points="752.808,-69.8472 759.436,-61.5809 749.1,-63.9102 752.808,-69.8472"/>
</g>
<!-- Node26 -->
<g id="node26" class="node"><title>Node26</title>
<g id="a_node26"><a xlink:href="../../da/d92/class_image_test.html#ae9ca0a6007b17711f0159e61dbb62e39" target="_top" xlink:title="converts from m_rgb to rgb ">
<polygon fill="white" stroke="black" points="746.5,-360.5 746.5,-381.5 913.5,-381.5 913.5,-360.5 746.5,-360.5"/>
<text text-anchor="middle" x="830" y="-367.9" font-family="Helvetica,sans-Serif" font-size="12.00">ImageTest::RGBFromPlanes</text>
</a>
</g>
</g>
<!-- Node22&#45;&gt;Node26 -->
<g id="edge25" class="edge"><title>Node22&#45;&gt;Node26</title>
<path fill="none" stroke="midnightblue" d="M685.043,-217.788C694.239,-220.805 703.128,-225.307 710,-232 749.583,-270.554 705.825,-313.064 746,-351 747.495,-352.412 749.072,-353.73 750.718,-354.959"/>
<polygon fill="midnightblue" stroke="midnightblue" points="749.116,-358.084 759.455,-360.399 752.816,-352.142 749.116,-358.084"/>
</g>
<!-- Node27 -->
<g id="node27" class="node"><title>Node27</title>
<g id="a_node27"><a xlink:href="../../da/d92/class_image_test.html#a92af335f5f0e96e443b4a938a69d4800" target="_top" xlink:title="ImageTest::SaveImage">
<polygon fill="white" stroke="black" points="761.5,-320.5 761.5,-341.5 898.5,-341.5 898.5,-320.5 761.5,-320.5"/>
<text text-anchor="middle" x="830" y="-327.9" font-family="Helvetica,sans-Serif" font-size="12.00">ImageTest::SaveImage</text>
</a>
</g>
</g>
<!-- Node22&#45;&gt;Node27 -->
<g id="edge26" class="edge"><title>Node22&#45;&gt;Node27</title>
<path fill="none" stroke="midnightblue" d="M685.14,-218.762C694.118,-221.72 702.896,-225.952 710,-232 739.379,-257.013 716.238,-286.444 746,-311 748.001,-312.651 750.116,-314.169 752.32,-315.566"/>
<polygon fill="midnightblue" stroke="midnightblue" points="750.751,-318.696 761.213,-320.371 754.079,-312.538 750.751,-318.696"/>
</g>
<!-- Node28 -->
<g id="node28" class="node"><title>Node28</title>
<g id="a_node28"><a xlink:href="../../d0/d59/_documentation_2_operator-_console_2jsonhelpers_8cpp.html#aa7615c9874e29e598b0d0fd34967390d" target="_top" xlink:title="prepareTestSettings">
<polygon fill="white" stroke="black" points="768.5,-280.5 768.5,-301.5 891.5,-301.5 891.5,-280.5 768.5,-280.5"/>
<text text-anchor="middle" x="830" y="-287.9" font-family="Helvetica,sans-Serif" font-size="12.00">prepareTestSettings</text>
</a>
</g>
</g>
<!-- Node22&#45;&gt;Node28 -->
<g id="edge27" class="edge"><title>Node22&#45;&gt;Node28</title>
<path fill="none" stroke="midnightblue" d="M685.316,-221.127C693.892,-223.875 702.478,-227.425 710,-232 730.155,-244.257 725.658,-259.056 746,-271 750.098,-273.406 754.472,-275.523 758.987,-277.386"/>
<polygon fill="midnightblue" stroke="midnightblue" points="757.82,-280.686 768.413,-280.864 760.243,-274.119 757.82,-280.686"/>
</g>
<!-- Node29 -->
<g id="node29" class="node"><title>Node29</title>
<g id="a_node29"><a xlink:href="../../da/d92/class_image_test.html#ad03c43bf481a29e5f8cd143446be4ca1" target="_top" xlink:title="This must be implemented by subclass. ">
<polygon fill="white" stroke="black" points="756.5,-240.5 756.5,-261.5 903.5,-261.5 903.5,-240.5 756.5,-240.5"/>
<text text-anchor="middle" x="830" y="-247.9" font-family="Helvetica,sans-Serif" font-size="12.00">ImageTest::ParseResults</text>
</a>
</g>
</g>
<!-- Node22&#45;&gt;Node29 -->
<g id="edge28" class="edge"><title>Node22&#45;&gt;Node29</title>
<path fill="none" stroke="midnightblue" d="M685.45,-221.841C710.273,-226.884 740.772,-233.079 767.263,-238.46"/>
<polygon fill="midnightblue" stroke="midnightblue" points="766.704,-241.917 777.2,-240.478 768.097,-235.058 766.704,-241.917"/>
</g>
<!-- Node30 -->
<g id="node30" class="node"><title>Node30</title>
<g id="a_node30"><a xlink:href="../../da/d92/class_image_test.html#af4e55cf62f52fda3a5fc7b3c63dce083" target="_top" xlink:title="ImageTest::SetJSON">
<polygon fill="white" stroke="black" points="766.5,-200.5 766.5,-221.5 893.5,-221.5 893.5,-200.5 766.5,-200.5"/>
<text text-anchor="middle" x="830" y="-207.9" font-family="Helvetica,sans-Serif" font-size="12.00">ImageTest::SetJSON</text>
</a>
</g>
</g>
<!-- Node22&#45;&gt;Node30 -->
<g id="edge29" class="edge"><title>Node22&#45;&gt;Node30</title>
<path fill="none" stroke="midnightblue" d="M685.45,-211.748C706.932,-211.636 732.664,-211.502 756.371,-211.378"/>
<polygon fill="midnightblue" stroke="midnightblue" points="756.408,-214.878 766.389,-211.326 756.371,-207.878 756.408,-214.878"/>
</g>
<!-- Node31 -->
<g id="node31" class="node"><title>Node31</title>
<g id="a_node31"><a xlink:href="../../dd/d46/class_timestamp.html#ac1238e7ef53954ee90d6687601bc95e9" target="_top" xlink:title="Timestamp::Get">
<polygon fill="white" stroke="black" points="780,-160.5 780,-181.5 880,-181.5 880,-160.5 780,-160.5"/>
<text text-anchor="middle" x="830" y="-167.9" font-family="Helvetica,sans-Serif" font-size="12.00">Timestamp::Get</text>
</a>
</g>
</g>
<!-- Node22&#45;&gt;Node31 -->
<g id="edge30" class="edge"><title>Node22&#45;&gt;Node31</title>
<path fill="none" stroke="midnightblue" d="M685.45,-201.654C711.061,-196.185 742.714,-189.426 769.774,-183.647"/>
<polygon fill="midnightblue" stroke="midnightblue" points="770.849,-186.997 779.898,-181.485 769.387,-180.151 770.849,-186.997"/>
</g>
<!-- Node32 -->
<g id="node32" class="node"><title>Node32</title>
<g id="a_node32"><a xlink:href="../../da/d92/class_image_test.html#a8e026cbe52c6fd5eb83eef7196c93ada" target="_top" xlink:title="ImageTest::AppendLog">
<polygon fill="white" stroke="black" points="760.5,-120.5 760.5,-141.5 899.5,-141.5 899.5,-120.5 760.5,-120.5"/>
<text text-anchor="middle" x="830" y="-127.9" font-family="Helvetica,sans-Serif" font-size="12.00">ImageTest::AppendLog</text>
</a>
</g>
</g>
<!-- Node22&#45;&gt;Node32 -->
<g id="edge31" class="edge"><title>Node22&#45;&gt;Node32</title>
<path fill="none" stroke="midnightblue" d="M685.026,-203.149C693.722,-200.369 702.424,-196.738 710,-192 730.561,-179.143 725.243,-163.537 746,-151 749.568,-148.845 753.354,-146.922 757.267,-145.206"/>
<polygon fill="midnightblue" stroke="midnightblue" points="758.544,-148.465 766.585,-141.566 755.997,-141.945 758.544,-148.465"/>
</g>
<!-- Node24 -->
<g id="node24" class="node"><title>Node24</title>
<g id="a_node24"><a xlink:href="../../d6/d56/class_critical_c_string.html#afaf8265c286f1ee918bbd6d9cfd575ae" target="_top" xlink:title="CriticalCString::Clear">
<polygon fill="white" stroke="black" points="950,-80.5 950,-101.5 1078,-101.5 1078,-80.5 950,-80.5"/>
<text text-anchor="middle" x="1014" y="-87.9" font-family="Helvetica,sans-Serif" font-size="12.00">CriticalCString::Clear</text>
</a>
</g>
</g>
<!-- Node23&#45;&gt;Node24 -->
<g id="edge23" class="edge"><title>Node23&#45;&gt;Node24</title>
<path fill="none" stroke="midnightblue" d="M895.166,-91C909.552,-91 924.92,-91 939.646,-91"/>
<polygon fill="midnightblue" stroke="midnightblue" points="939.719,-94.5001 949.719,-91 939.719,-87.5001 939.719,-94.5001"/>
</g>
<!-- Node34 -->
<g id="node34" class="node"><title>Node34</title>
<g id="a_node34"><a xlink:href="../../d8/d08/class_timer.html#a0d8d7aab98c1c4b20e28aae017873294" target="_top" xlink:title="calculates elapsed time in milliseconds ">
<polygon fill="white" stroke="black" points="782,-0.5 782,-21.5 878,-21.5 878,-0.5 782,-0.5"/>
<text text-anchor="middle" x="830" y="-7.9" font-family="Helvetica,sans-Serif" font-size="12.00">Timer::Elapsed</text>
</a>
</g>
</g>
<!-- Node33&#45;&gt;Node34 -->
<g id="edge33" class="edge"><title>Node33&#45;&gt;Node34</title>
<path fill="none" stroke="midnightblue" d="M674.822,-169.009C687.414,-166.252 700.608,-161.19 710,-152 750.103,-112.76 705.294,-69.6144 746,-31 753.259,-24.1144 762.46,-19.4694 772.075,-16.3621"/>
<polygon fill="midnightblue" stroke="midnightblue" points="773.03,-19.7295 781.771,-13.7415 771.204,-12.972 773.03,-19.7295"/>
</g>
<!-- Node36&#45;&gt;Node9 -->
<g id="edge36" class="edge"><title>Node36&#45;&gt;Node9</title>
<path fill="none" stroke="midnightblue" d="M317.672,-319.339C375.47,-317.2 459.556,-320.619 526,-350 566.82,-368.05 602.453,-407.682 621.128,-431.273"/>
<polygon fill="midnightblue" stroke="midnightblue" points="618.554,-433.666 627.43,-439.45 624.098,-429.393 618.554,-433.666"/>
</g>
<!-- Node37 -->
<g id="node37" class="node"><title>Node37</title>
<g id="a_node37"><a xlink:href="../../df/d22/class_imatest_lib_acq.html#af8b94cf2a548d2edbd61e0e39d7e5cce" target="_top" xlink:title="ImatestLibAcq::Open">
<polygon fill="white" stroke="black" points="380,-359.5 380,-380.5 506,-380.5 506,-359.5 380,-359.5"/>
<text text-anchor="middle" x="443" y="-366.9" font-family="Helvetica,sans-Serif" font-size="12.00">ImatestLibAcq::Open</text>
</a>
</g>
</g>
<!-- Node36&#45;&gt;Node37 -->
<g id="edge37" class="edge"><title>Node36&#45;&gt;Node37</title>
<path fill="none" stroke="midnightblue" d="M317.692,-340.865C340.434,-346.195 365.503,-352.071 387.136,-357.141"/>
<polygon fill="midnightblue" stroke="midnightblue" points="386.597,-360.61 397.132,-359.484 388.195,-353.794 386.597,-360.61"/>
</g>
<!-- Node38&#45;&gt;Node8 -->
<g id="edge39" class="edge"><title>Node38&#45;&gt;Node8</title>
<path fill="none" stroke="midnightblue" d="M302.084,-395.075C309.573,-398.082 317.08,-401.411 324,-405 341.293,-413.968 342.238,-422.002 360,-430 365.307,-432.39 370.941,-434.519 376.673,-436.412"/>
<polygon fill="midnightblue" stroke="midnightblue" points="375.785,-439.8 386.371,-439.378 377.832,-433.106 375.785,-439.8"/>
</g>
<!-- Node38&#45;&gt;Node11 -->
<g id="edge40" class="edge"><title>Node38&#45;&gt;Node11</title>
<path fill="none" stroke="midnightblue" d="M317.692,-389.282C334.143,-392.024 351.812,-394.969 368.517,-397.753"/>
<polygon fill="midnightblue" stroke="midnightblue" points="368.335,-401.271 378.775,-399.462 369.486,-394.366 368.335,-401.271"/>
</g>
<!-- Node39&#45;&gt;Node13 -->
<g id="edge42" class="edge"><title>Node39&#45;&gt;Node13</title>
<path fill="none" stroke="midnightblue" d="M305.483,-198.905C311.939,-196.01 318.26,-192.716 324,-189 343.261,-176.532 340.079,-163.384 360,-152 363.898,-149.772 368.038,-147.791 372.306,-146.03"/>
<polygon fill="midnightblue" stroke="midnightblue" points="373.644,-149.267 381.809,-142.514 371.216,-142.702 373.644,-149.267"/>
</g>
<!-- Node39&#45;&gt;Node14 -->
<g id="edge43" class="edge"><title>Node39&#45;&gt;Node14</title>
<path fill="none" stroke="midnightblue" d="M305.523,-233.046C311.905,-235.72 318.197,-238.706 324,-242 342.112,-252.282 341.403,-262.624 360,-272 364.625,-274.332 369.535,-276.401 374.565,-278.235"/>
<polygon fill="midnightblue" stroke="midnightblue" points="373.746,-281.651 384.339,-281.481 375.952,-275.008 373.746,-281.651"/>
</g>
<!-- Node39&#45;&gt;Node15 -->
<g id="edge44" class="edge"><title>Node39&#45;&gt;Node15</title>
<path fill="none" stroke="midnightblue" d="M317.692,-200.487C340.061,-195.361 364.682,-189.719 386.069,-184.817"/>
<polygon fill="midnightblue" stroke="midnightblue" points="387,-188.195 395.965,-182.55 385.436,-181.372 387,-188.195"/>
</g>
<!-- Node39&#45;&gt;Node17 -->
<g id="edge45" class="edge"><title>Node39&#45;&gt;Node17</title>
<path fill="none" stroke="midnightblue" d="M317.692,-228.692C340.341,-232.939 365.298,-237.618 386.87,-241.663"/>
<polygon fill="midnightblue" stroke="midnightblue" points="386.368,-245.13 396.841,-243.533 387.658,-238.25 386.368,-245.13"/>
</g>
<!-- Node39&#45;&gt;Node20 -->
<g id="edge46" class="edge"><title>Node39&#45;&gt;Node20</title>
<path fill="none" stroke="midnightblue" d="M317.692,-214.59C332.341,-214.285 347.957,-213.959 362.997,-213.646"/>
<polygon fill="midnightblue" stroke="midnightblue" points="363.374,-217.139 373.299,-213.431 363.228,-210.14 363.374,-217.139"/>
</g>
</g>
</svg>
