<?xml version="1.0" encoding="UTF-8" standalone="no"?>
<!DOCTYPE svg PUBLIC "-//W3C//DTD SVG 1.1//EN"
 "http://www.w3.org/Graphics/SVG/1.1/DTD/svg11.dtd">
<!-- Generated by graphviz version 2.34.0 (20130907.0111)
 -->
<!-- Title: COperatorConsoleApp::OnFrameReady Pages: 1 -->
<svg width="480pt" height="70pt"
 viewBox="0.00 0.00 480.00 70.00" xmlns="http://www.w3.org/2000/svg" xmlns:xlink="http://www.w3.org/1999/xlink">
<g id="graph0" class="graph" transform="scale(1 1) rotate(0) translate(4 66)">
<title>COperatorConsoleApp::OnFrameReady</title>
<polygon fill="white" stroke="white" points="-4,4 -4,-66 476,-66 476,4 -4,4"/>
<!-- Node1 -->
<g id="node1" class="node"><title>Node1</title>
<polygon fill="#bfbfbf" stroke="black" points="0.5,-14 0.5,-48 137.5,-48 137.5,-14 0.5,-14"/>
<text text-anchor="start" x="8.5" y="-34.4" font-family="Helvetica,sans-Serif" font-size="12.00">COperatorConsoleApp</text>
<text text-anchor="middle" x="69" y="-21.4" font-family="Helvetica,sans-Serif" font-size="12.00">::OnFrameReady</text>
</g>
<!-- Node2 -->
<g id="node2" class="node"><title>Node2</title>
<g id="a_node2"><a xlink:href="../../d8/d29/class_image_acquisition.html#a1f434970b49d88473a1b943acd6ef48e" target="_top" xlink:title="ImageAcquisition::GetFrame">
<polygon fill="white" stroke="black" points="174,-40.5 174,-61.5 340,-61.5 340,-40.5 174,-40.5"/>
<text text-anchor="middle" x="257" y="-47.9" font-family="Helvetica,sans-Serif" font-size="12.00">ImageAcquisition::GetFrame</text>
</a>
</g>
</g>
<!-- Node1&#45;&gt;Node2 -->
<g id="edge1" class="edge"><title>Node1&#45;&gt;Node2</title>
<path fill="none" stroke="midnightblue" d="M137.676,-38.277C146.113,-39.1842 154.85,-40.1236 163.58,-41.0624"/>
<polygon fill="midnightblue" stroke="midnightblue" points="163.491,-44.5728 173.808,-42.1621 164.239,-37.613 163.491,-44.5728"/>
</g>
<!-- Node4 -->
<g id="node4" class="node"><title>Node4</title>
<g id="a_node4"><a xlink:href="../../d7/da0/class_thread_control.html#ae7875d6cedc96ca7688012ece3f8fe6b" target="_top" xlink:title="ThreadControl::Run">
<polygon fill="white" stroke="black" points="198.5,-0.5 198.5,-21.5 315.5,-21.5 315.5,-0.5 198.5,-0.5"/>
<text text-anchor="middle" x="257" y="-7.9" font-family="Helvetica,sans-Serif" font-size="12.00">ThreadControl::Run</text>
</a>
</g>
</g>
<!-- Node1&#45;&gt;Node4 -->
<g id="edge3" class="edge"><title>Node1&#45;&gt;Node4</title>
<path fill="none" stroke="midnightblue" d="M137.676,-23.723C154.192,-21.9471 171.861,-20.0472 188.374,-18.2716"/>
<polygon fill="midnightblue" stroke="midnightblue" points="188.917,-21.7335 198.486,-17.1843 188.169,-14.7736 188.917,-21.7335"/>
</g>
<!-- Node3 -->
<g id="node3" class="node"><title>Node3</title>
<g id="a_node3"><a xlink:href="../../d3/d1e/class_critical_buf.html#aa1d37c59b94e873cd14f9aece1cfaebd" target="_top" xlink:title="CriticalBuf::Get">
<polygon fill="white" stroke="black" points="376.5,-40.5 376.5,-61.5 471.5,-61.5 471.5,-40.5 376.5,-40.5"/>
<text text-anchor="middle" x="424" y="-47.9" font-family="Helvetica,sans-Serif" font-size="12.00">CriticalBuf::Get</text>
</a>
</g>
</g>
<!-- Node2&#45;&gt;Node3 -->
<g id="edge2" class="edge"><title>Node2&#45;&gt;Node3</title>
<path fill="none" stroke="midnightblue" d="M340.017,-51C348.872,-51 357.734,-51 366.196,-51"/>
<polygon fill="midnightblue" stroke="midnightblue" points="366.292,-54.5001 376.292,-51 366.291,-47.5001 366.292,-54.5001"/>
</g>
</g>
</svg>
