<?xml version="1.0" encoding="UTF-8" standalone="no"?>
<!DOCTYPE svg PUBLIC "-//W3C//DTD SVG 1.1//EN"
 "http://www.w3.org/Graphics/SVG/1.1/DTD/svg11.dtd">
<!-- Generated by graphviz version 2.34.0 (20130907.0111)
 -->
<!-- Title: ModelessDialogThread.h Pages: 1 -->
<svg width="164pt" height="146pt"
 viewBox="0.00 0.00 164.00 146.00" xmlns="http://www.w3.org/2000/svg" xmlns:xlink="http://www.w3.org/1999/xlink">
<g id="graph0" class="graph" transform="scale(1 1) rotate(0) translate(4 142)">
<title>ModelessDialogThread.h</title>
<polygon fill="white" stroke="white" points="-4,4 -4,-142 160,-142 160,4 -4,4"/>
<!-- Node1 -->
<g id="node1" class="node"><title>Node1</title>
<polygon fill="#bfbfbf" stroke="black" points="0,-116.5 0,-137.5 148,-137.5 148,-116.5 0,-116.5"/>
<text text-anchor="middle" x="74" y="-123.9" font-family="Helvetica,sans-Serif" font-size="12.00">ModelessDialogThread.h</text>
</g>
<!-- Node2 -->
<g id="node2" class="node"><title>Node2</title>
<g id="a_node2"><a xlink:href="../../d8/d01/resource_8h.html" target="_top" xlink:title="resource.h">
<polygon fill="white" stroke="black" points="8.5,-0.5 8.5,-21.5 79.5,-21.5 79.5,-0.5 8.5,-0.5"/>
<text text-anchor="middle" x="44" y="-7.9" font-family="Helvetica,sans-Serif" font-size="12.00">resource.h</text>
</a>
</g>
</g>
<!-- Node1&#45;&gt;Node2 -->
<g id="edge1" class="edge"><title>Node1&#45;&gt;Node2</title>
<path fill="none" stroke="midnightblue" d="M71.4422,-116.28C66.505,-97.519 55.5782,-55.9973 49.1008,-31.3831"/>
<polygon fill="midnightblue" stroke="midnightblue" points="52.4811,-30.475 46.5513,-21.695 45.7116,-32.2565 52.4811,-30.475"/>
</g>
<!-- Node3 -->
<g id="node3" class="node"><title>Node3</title>
<g id="a_node3"><a xlink:href="../../dc/d1b/_text_dlg_8h.html" target="_top" xlink:title="TextDlg.h">
<polygon fill="white" stroke="black" points="72.5,-58.5 72.5,-79.5 137.5,-79.5 137.5,-58.5 72.5,-58.5"/>
<text text-anchor="middle" x="105" y="-65.9" font-family="Helvetica,sans-Serif" font-size="12.00">TextDlg.h</text>
</a>
</g>
</g>
<!-- Node1&#45;&gt;Node3 -->
<g id="edge2" class="edge"><title>Node1&#45;&gt;Node3</title>
<path fill="none" stroke="midnightblue" d="M79.3998,-116.246C83.6227,-108.617 89.6173,-97.7881 94.7441,-88.5267"/>
<polygon fill="midnightblue" stroke="midnightblue" points="97.881,-90.0867 99.6621,-79.6427 91.7568,-86.6965 97.881,-90.0867"/>
</g>
<!-- Node3&#45;&gt;Node2 -->
<g id="edge4" class="edge"><title>Node3&#45;&gt;Node2</title>
<path fill="none" stroke="midnightblue" d="M94.3746,-58.2455C85.4527,-50.0549 72.512,-38.1749 61.9808,-28.5069"/>
<polygon fill="midnightblue" stroke="midnightblue" points="64.2371,-25.8271 54.5036,-21.6427 59.5032,-30.9837 64.2371,-25.8271"/>
</g>
<!-- Node4 -->
<g id="node4" class="node"><title>Node4</title>
<polygon fill="white" stroke="#bfbfbf" points="98,-0.5 98,-21.5 156,-21.5 156,-0.5 98,-0.5"/>
<text text-anchor="middle" x="127" y="-7.9" font-family="Helvetica,sans-Serif" font-size="12.00">afxwin.h</text>
</g>
<!-- Node3&#45;&gt;Node4 -->
<g id="edge3" class="edge"><title>Node3&#45;&gt;Node4</title>
<path fill="none" stroke="midnightblue" d="M108.832,-58.2455C111.766,-50.7776 115.905,-40.2427 119.491,-31.1137"/>
<polygon fill="midnightblue" stroke="midnightblue" points="122.813,-32.23 123.212,-21.6427 116.298,-29.6704 122.813,-32.23"/>
</g>
</g>
</svg>
