<?xml version="1.0" encoding="UTF-8" standalone="no"?>
<!DOCTYPE svg PUBLIC "-//W3C//DTD SVG 1.1//EN"
 "http://www.w3.org/Graphics/SVG/1.1/DTD/svg11.dtd">
<!-- Generated by graphviz version 2.34.0 (20130907.0111)
 -->
<!-- Title: Documentation/Operator&#45;Console/StderrRedirect.h Pages: 1 -->
<svg width="1580pt" height="188pt"
 viewBox="0.00 0.00 1580.00 188.00" xmlns="http://www.w3.org/2000/svg" xmlns:xlink="http://www.w3.org/1999/xlink">
<g id="graph0" class="graph" transform="scale(1 1) rotate(0) translate(4 184)">
<title>Documentation/Operator&#45;Console/StderrRedirect.h</title>
<polygon fill="white" stroke="white" points="-4,4 -4,-184 1576,-184 1576,4 -4,4"/>
<!-- Node1 -->
<g id="node1" class="node"><title>Node1</title>
<polygon fill="#bfbfbf" stroke="black" points="763,-145 763,-179 915,-179 915,-145 763,-145"/>
<text text-anchor="start" x="771" y="-165.4" font-family="Helvetica,sans-Serif" font-size="12.00">Documentation/Operator</text>
<text text-anchor="middle" x="839" y="-152.4" font-family="Helvetica,sans-Serif" font-size="12.00">&#45;Console/StderrRedirect.h</text>
</g>
<!-- Node2 -->
<g id="node2" class="node"><title>Node2</title>
<g id="a_node2"><a xlink:href="../../da/d65/_documentation_2_operator-_console_2_operator_console_8h.html" target="_top" xlink:title="Documentation/Operator\l&#45;Console/OperatorConsole.h">
<polygon fill="white" stroke="black" points="664,-73 664,-107 830,-107 830,-73 664,-73"/>
<text text-anchor="start" x="672" y="-93.4" font-family="Helvetica,sans-Serif" font-size="12.00">Documentation/Operator</text>
<text text-anchor="middle" x="747" y="-80.4" font-family="Helvetica,sans-Serif" font-size="12.00">&#45;Console/OperatorConsole.h</text>
</a>
</g>
</g>
<!-- Node1&#45;&gt;Node2 -->
<g id="edge1" class="edge"><title>Node1&#45;&gt;Node2</title>
<path fill="none" stroke="midnightblue" d="M809.616,-138.643C796.159,-128.403 780.509,-116.496 768.222,-107.147"/>
<polygon fill="midnightblue" stroke="midnightblue" points="807.584,-141.495 817.662,-144.765 811.823,-135.924 807.584,-141.495"/>
</g>
<!-- Node12 -->
<g id="node12" class="node"><title>Node12</title>
<g id="a_node12"><a xlink:href="../../db/d5d/_documentation_2_operator-_console_2_stderr_redirect_8cpp.html" target="_top" xlink:title="Documentation/Operator\l&#45;Console/StderrRedirect.cpp">
<polygon fill="white" stroke="black" points="848,-73 848,-107 1014,-107 1014,-73 848,-73"/>
<text text-anchor="start" x="856" y="-93.4" font-family="Helvetica,sans-Serif" font-size="12.00">Documentation/Operator</text>
<text text-anchor="middle" x="931" y="-80.4" font-family="Helvetica,sans-Serif" font-size="12.00">&#45;Console/StderrRedirect.cpp</text>
</a>
</g>
</g>
<!-- Node1&#45;&gt;Node12 -->
<g id="edge11" class="edge"><title>Node1&#45;&gt;Node12</title>
<path fill="none" stroke="midnightblue" d="M868.384,-138.643C881.841,-128.403 897.491,-116.496 909.778,-107.147"/>
<polygon fill="midnightblue" stroke="midnightblue" points="866.177,-135.924 860.338,-144.765 870.416,-141.495 866.177,-135.924"/>
</g>
<!-- Node3 -->
<g id="node3" class="node"><title>Node3</title>
<g id="a_node3"><a xlink:href="../../d7/d4b/_documentation_2_operator-_console_2_app_thread_8cpp.html" target="_top" xlink:title="Documentation/Operator\l&#45;Console/AppThread.cpp">
<polygon fill="white" stroke="black" points="0,-1 0,-35 148,-35 148,-1 0,-1"/>
<text text-anchor="start" x="8" y="-21.4" font-family="Helvetica,sans-Serif" font-size="12.00">Documentation/Operator</text>
<text text-anchor="middle" x="74" y="-8.4" font-family="Helvetica,sans-Serif" font-size="12.00">&#45;Console/AppThread.cpp</text>
</a>
</g>
</g>
<!-- Node2&#45;&gt;Node3 -->
<g id="edge2" class="edge"><title>Node2&#45;&gt;Node3</title>
<path fill="none" stroke="midnightblue" d="M653.28,-83.8432C536.58,-76.6732 331.33,-61.6004 157,-36 154.089,-35.5726 151.127,-35.1082 148.139,-34.6152"/>
<polygon fill="midnightblue" stroke="midnightblue" points="653.407,-87.3573 663.601,-84.4709 653.832,-80.3703 653.407,-87.3573"/>
</g>
<!-- Node4 -->
<g id="node4" class="node"><title>Node4</title>
<g id="a_node4"><a xlink:href="../../de/d31/_documentation_2_operator-_console_2_critical_buf_8cpp.html" target="_top" xlink:title="Documentation/Operator\l&#45;Console/CriticalBuf.cpp">
<polygon fill="white" stroke="black" points="166.5,-1 166.5,-35 311.5,-35 311.5,-1 166.5,-1"/>
<text text-anchor="start" x="174.5" y="-21.4" font-family="Helvetica,sans-Serif" font-size="12.00">Documentation/Operator</text>
<text text-anchor="middle" x="239" y="-8.4" font-family="Helvetica,sans-Serif" font-size="12.00">&#45;Console/CriticalBuf.cpp</text>
</a>
</g>
</g>
<!-- Node2&#45;&gt;Node4 -->
<g id="edge3" class="edge"><title>Node2&#45;&gt;Node4</title>
<path fill="none" stroke="midnightblue" d="M653.565,-79.6703C566.84,-70.4739 434.29,-55.0523 320,-36 317.307,-35.5511 314.568,-35.0752 311.804,-34.5787"/>
<polygon fill="midnightblue" stroke="midnightblue" points="653.335,-83.1653 663.647,-80.7332 654.069,-76.2039 653.335,-83.1653"/>
</g>
<!-- Node5 -->
<g id="node5" class="node"><title>Node5</title>
<g id="a_node5"><a xlink:href="../../da/df9/_documentation_2_operator-_console_2_image_test_8cpp.html" target="_top" xlink:title="Documentation/Operator\l&#45;Console/ImageTest.cpp">
<polygon fill="white" stroke="black" points="329.5,-1 329.5,-35 474.5,-35 474.5,-1 329.5,-1"/>
<text text-anchor="start" x="337.5" y="-21.4" font-family="Helvetica,sans-Serif" font-size="12.00">Documentation/Operator</text>
<text text-anchor="middle" x="402" y="-8.4" font-family="Helvetica,sans-Serif" font-size="12.00">&#45;Console/ImageTest.cpp</text>
</a>
</g>
</g>
<!-- Node2&#45;&gt;Node5 -->
<g id="edge4" class="edge"><title>Node2&#45;&gt;Node5</title>
<path fill="none" stroke="midnightblue" d="M657.014,-70.9947C606.205,-60.796 541.542,-47.7625 484,-36 481.009,-35.3885 477.956,-34.763 474.873,-34.1298"/>
<polygon fill="midnightblue" stroke="midnightblue" points="656.492,-74.4595 666.985,-72.9954 657.869,-67.5963 656.492,-74.4595"/>
</g>
<!-- Node6 -->
<g id="node6" class="node"><title>Node6</title>
<g id="a_node6"><a xlink:href="../../d4/d9c/_msg_dialog_8cpp.html" target="_top" xlink:title="Documentation/Operator\l&#45;Console/MsgDialog.cpp">
<polygon fill="white" stroke="black" points="493,-1 493,-35 639,-35 639,-1 493,-1"/>
<text text-anchor="start" x="501" y="-21.4" font-family="Helvetica,sans-Serif" font-size="12.00">Documentation/Operator</text>
<text text-anchor="middle" x="566" y="-8.4" font-family="Helvetica,sans-Serif" font-size="12.00">&#45;Console/MsgDialog.cpp</text>
</a>
</g>
</g>
<!-- Node2&#45;&gt;Node6 -->
<g id="edge5" class="edge"><title>Node2&#45;&gt;Node6</title>
<path fill="none" stroke="midnightblue" d="M695.891,-69.234C667.998,-58.4468 633.903,-45.261 607.645,-35.1057"/>
<polygon fill="midnightblue" stroke="midnightblue" points="694.886,-72.5979 705.475,-72.9406 697.411,-66.0691 694.886,-72.5979"/>
</g>
<!-- Node7 -->
<g id="node7" class="node"><title>Node7</title>
<g id="a_node7"><a xlink:href="../../db/db5/_documentation_2_operator-_console_2_operator_console_8cpp.html" target="_top" xlink:title="Documentation/Operator\l&#45;Console/OperatorConsole.cpp">
<polygon fill="white" stroke="black" points="657.5,-1 657.5,-35 836.5,-35 836.5,-1 657.5,-1"/>
<text text-anchor="start" x="665.5" y="-21.4" font-family="Helvetica,sans-Serif" font-size="12.00">Documentation/Operator</text>
<text text-anchor="middle" x="747" y="-8.4" font-family="Helvetica,sans-Serif" font-size="12.00">&#45;Console/OperatorConsole.cpp</text>
</a>
</g>
</g>
<!-- Node2&#45;&gt;Node7 -->
<g id="edge6" class="edge"><title>Node2&#45;&gt;Node7</title>
<path fill="none" stroke="midnightblue" d="M747,-62.5079C747,-53.3027 747,-43.2615 747,-35.1473"/>
<polygon fill="midnightblue" stroke="midnightblue" points="743.5,-62.7646 747,-72.7646 750.5,-62.7647 743.5,-62.7646"/>
</g>
<!-- Node8 -->
<g id="node8" class="node"><title>Node8</title>
<g id="a_node8"><a xlink:href="../../dd/dcb/_documentation_2_operator-_console_2_operator_console_dlg_8cpp.html" target="_top" xlink:title="Documentation/Operator\l&#45;Console/OperatorConsoleDlg.cpp">
<polygon fill="white" stroke="black" points="854.5,-1 854.5,-35 1051.5,-35 1051.5,-1 854.5,-1"/>
<text text-anchor="start" x="862.5" y="-21.4" font-family="Helvetica,sans-Serif" font-size="12.00">Documentation/Operator</text>
<text text-anchor="middle" x="953" y="-8.4" font-family="Helvetica,sans-Serif" font-size="12.00">&#45;Console/OperatorConsoleDlg.cpp</text>
</a>
</g>
</g>
<!-- Node2&#45;&gt;Node8 -->
<g id="edge7" class="edge"><title>Node2&#45;&gt;Node8</title>
<path fill="none" stroke="midnightblue" d="M803.925,-69.6567C835.895,-58.7928 875.326,-45.3941 905.603,-35.1057"/>
<polygon fill="midnightblue" stroke="midnightblue" points="802.603,-66.4092 794.261,-72.9406 804.855,-73.037 802.603,-66.4092"/>
</g>
<!-- Node9 -->
<g id="node9" class="node"><title>Node9</title>
<g id="a_node9"><a xlink:href="../../dd/d14/_documentation_2_operator-_console_2_pass_fail_8cpp.html" target="_top" xlink:title="Documentation/Operator\l&#45;Console/PassFail.cpp">
<polygon fill="white" stroke="black" points="1069.5,-1 1069.5,-35 1214.5,-35 1214.5,-1 1069.5,-1"/>
<text text-anchor="start" x="1077.5" y="-21.4" font-family="Helvetica,sans-Serif" font-size="12.00">Documentation/Operator</text>
<text text-anchor="middle" x="1142" y="-8.4" font-family="Helvetica,sans-Serif" font-size="12.00">&#45;Console/PassFail.cpp</text>
</a>
</g>
</g>
<!-- Node2&#45;&gt;Node9 -->
<g id="edge8" class="edge"><title>Node2&#45;&gt;Node9</title>
<path fill="none" stroke="midnightblue" d="M840.308,-71.7962C938.74,-54.8847 965.298,-53.5217 1060,-36 1063,-35.4445 1066.06,-34.8658 1069.15,-34.2714"/>
<polygon fill="midnightblue" stroke="midnightblue" points="839.488,-68.386 830.23,-73.5386 840.681,-75.2837 839.488,-68.386"/>
</g>
<!-- Node10 -->
<g id="node10" class="node"><title>Node10</title>
<g id="a_node10"><a xlink:href="../../dd/d4b/_documentation_2_operator-_console_2_password_dialog_8cpp.html" target="_top" xlink:title="Documentation/Operator\l&#45;Console/PasswordDialog.cpp">
<polygon fill="white" stroke="black" points="1233,-1 1233,-35 1409,-35 1409,-1 1233,-1"/>
<text text-anchor="start" x="1241" y="-21.4" font-family="Helvetica,sans-Serif" font-size="12.00">Documentation/Operator</text>
<text text-anchor="middle" x="1321" y="-8.4" font-family="Helvetica,sans-Serif" font-size="12.00">&#45;Console/PasswordDialog.cpp</text>
</a>
</g>
</g>
<!-- Node2&#45;&gt;Node10 -->
<g id="edge9" class="edge"><title>Node2&#45;&gt;Node10</title>
<path fill="none" stroke="midnightblue" d="M840.249,-71.9003C1010.52,-48.7818 1056.33,-58.2346 1223,-36 1226.25,-35.5662 1229.56,-35.1031 1232.9,-34.6175"/>
<polygon fill="midnightblue" stroke="midnightblue" points="839.62,-68.4537 830.191,-73.2839 840.574,-75.3884 839.62,-68.4537"/>
</g>
<!-- Node11 -->
<g id="node11" class="node"><title>Node11</title>
<g id="a_node11"><a xlink:href="../../d3/d68/_documentation_2_operator-_console_2_setup_8cpp.html" target="_top" xlink:title="Documentation/Operator\l&#45;Console/Setup.cpp">
<polygon fill="white" stroke="black" points="1427.5,-1 1427.5,-35 1572.5,-35 1572.5,-1 1427.5,-1"/>
<text text-anchor="start" x="1435.5" y="-21.4" font-family="Helvetica,sans-Serif" font-size="12.00">Documentation/Operator</text>
<text text-anchor="middle" x="1500" y="-8.4" font-family="Helvetica,sans-Serif" font-size="12.00">&#45;Console/Setup.cpp</text>
</a>
</g>
</g>
<!-- Node2&#45;&gt;Node11 -->
<g id="edge10" class="edge"><title>Node2&#45;&gt;Node11</title>
<path fill="none" stroke="midnightblue" d="M840.163,-71.9525C1096.65,-41.2628 1165.7,-69.8216 1418,-36 1421.03,-35.5943 1424.11,-35.1408 1427.21,-34.6501"/>
<polygon fill="midnightblue" stroke="midnightblue" points="839.68,-68.4853 830.175,-73.166 840.524,-75.4342 839.68,-68.4853"/>
</g>
</g>
</svg>
