<?xml version="1.0" encoding="UTF-8" standalone="no"?>
<!DOCTYPE svg PUBLIC "-//W3C//DTD SVG 1.1//EN"
 "http://www.w3.org/Graphics/SVG/1.1/DTD/svg11.dtd">
<!-- Generated by graphviz version 2.34.0 (20130907.0111)
 -->
<!-- Title: auto_delete Pages: 1 -->
<svg width="429pt" height="192pt"
 viewBox="0.00 0.00 429.00 192.00" xmlns="http://www.w3.org/2000/svg" xmlns:xlink="http://www.w3.org/1999/xlink">
<g id="graph0" class="graph" transform="scale(1 1) rotate(0) translate(4 188)">
<title>auto_delete</title>
<polygon fill="white" stroke="white" points="-4,4 -4,-188 425,-188 425,4 -4,4"/>
<!-- Node1 -->
<g id="node1" class="node"><title>Node1</title>
<polygon fill="#bfbfbf" stroke="black" points="0,-79.5 0,-100.5 78,-100.5 78,-79.5 0,-79.5"/>
<text text-anchor="middle" x="39" y="-86.9" font-family="Helvetica,sans-Serif" font-size="12.00">auto_delete</text>
</g>
<!-- Node2 -->
<g id="node2" class="node"><title>Node2</title>
<g id="a_node2"><a xlink:href="../../d6/dc7/class_j_s_o_n_node.html" target="_top" xlink:title="JSONNode">
<polygon fill="white" stroke="black" points="98.5,-160.5 98.5,-181.5 175.5,-181.5 175.5,-160.5 98.5,-160.5"/>
<text text-anchor="middle" x="137" y="-167.9" font-family="Helvetica,sans-Serif" font-size="12.00">JSONNode</text>
</a>
</g>
</g>
<!-- Node2&#45;&gt;Node1 -->
<g id="edge1" class="edge"><title>Node2&#45;&gt;Node1</title>
<path fill="none" stroke="#9a32cd" stroke-dasharray="5,2" d="M110.09,-155.091C102.692,-150.579 94.8308,-145.383 88,-140 72.503,-127.788 56.7519,-111.113 47.4323,-100.705"/>
<polygon fill="#9a32cd" stroke="#9a32cd" points="108.709,-158.339 119.101,-160.403 112.264,-152.309 108.709,-158.339"/>
<text text-anchor="middle" x="110.5" y="-129.9" font-family="Helvetica,sans-Serif" font-size="12.00"> mynode</text>
</g>
<!-- Node2&#45;&gt;Node2 -->
<g id="edge2" class="edge"><title>Node2&#45;&gt;Node2</title>
<path fill="none" stroke="#9a32cd" stroke-dasharray="5,2" d="M185.872,-176.635C190.251,-175.456 193,-173.578 193,-171 193,-166.77 185.597,-164.423 175.735,-163.96"/>
<polygon fill="#9a32cd" stroke="#9a32cd" points="185.16,-173.2 175.735,-178.04 186.121,-180.134 185.16,-173.2"/>
<text text-anchor="middle" x="220" y="-174.4" font-family="Helvetica,sans-Serif" font-size="12.00"> operator[]</text>
<text text-anchor="middle" x="220" y="-161.4" font-family="Helvetica,sans-Serif" font-size="12.00">operator=</text>
</g>
<!-- Node5 -->
<g id="node5" class="node"><title>Node5</title>
<g id="a_node5"><a xlink:href="../../db/d49/classjson_children.html" target="_top" xlink:title="jsonChildren">
<polygon fill="white" stroke="black" points="96.5,-79.5 96.5,-100.5 177.5,-100.5 177.5,-79.5 96.5,-79.5"/>
<text text-anchor="middle" x="137" y="-86.9" font-family="Helvetica,sans-Serif" font-size="12.00">jsonChildren</text>
</a>
</g>
</g>
<!-- Node2&#45;&gt;Node5 -->
<g id="edge6" class="edge"><title>Node2&#45;&gt;Node5</title>
<path fill="none" stroke="#9a32cd" stroke-dasharray="5,2" d="M137,-150.034C137,-134.287 137,-113.006 137,-100.766"/>
<polygon fill="#9a32cd" stroke="#9a32cd" points="133.5,-150.313 137,-160.313 140.5,-150.313 133.5,-150.313"/>
<text text-anchor="middle" x="152" y="-129.9" font-family="Helvetica,sans-Serif" font-size="12.00"> array</text>
</g>
<!-- Node3 -->
<g id="node3" class="node"><title>Node3</title>
<g id="a_node3"><a xlink:href="../../d1/d0b/classinternal_j_s_o_n_node.html" target="_top" xlink:title="internalJSONNode">
<polygon fill="white" stroke="black" points="158,-0.5 158,-21.5 272,-21.5 272,-0.5 158,-0.5"/>
<text text-anchor="middle" x="215" y="-7.9" font-family="Helvetica,sans-Serif" font-size="12.00">internalJSONNode</text>
</a>
</g>
</g>
<!-- Node3&#45;&gt;Node2 -->
<g id="edge3" class="edge"><title>Node3&#45;&gt;Node2</title>
<path fill="none" stroke="#9a32cd" stroke-dasharray="5,2" d="M212.121,-31.6495C207.395,-58.4046 195.906,-106.763 171,-140 165.241,-147.686 157.249,-154.859 150.461,-160.263"/>
<polygon fill="#9a32cd" stroke="#9a32cd" points="215.603,-32.0447 213.752,-21.6128 208.693,-30.9219 215.603,-32.0447"/>
<text text-anchor="middle" x="223.5" y="-86.9" font-family="Helvetica,sans-Serif" font-size="12.00"> internal</text>
</g>
<!-- Node4 -->
<g id="node4" class="node"><title>Node4</title>
<g id="a_node4"><a xlink:href="../../d9/df1/unioninternal_j_s_o_n_node_1_1value__union__t.html" target="_top" xlink:title="internalJSONNode::value\l_union_t">
<polygon fill="white" stroke="black" points="274.5,-73 274.5,-107 421.5,-107 421.5,-73 274.5,-73"/>
<text text-anchor="start" x="282.5" y="-93.4" font-family="Helvetica,sans-Serif" font-size="12.00">internalJSONNode::value</text>
<text text-anchor="middle" x="348" y="-80.4" font-family="Helvetica,sans-Serif" font-size="12.00">_union_t</text>
</a>
</g>
</g>
<!-- Node4&#45;&gt;Node3 -->
<g id="edge4" class="edge"><title>Node4&#45;&gt;Node3</title>
<path fill="none" stroke="#9a32cd" stroke-dasharray="5,2" d="M311.243,-67.7196C285.141,-52.6081 251.34,-33.0388 231.525,-21.5673"/>
<polygon fill="#9a32cd" stroke="#9a32cd" points="309.711,-70.8769 320.119,-72.8583 313.218,-64.8189 309.711,-70.8769"/>
<text text-anchor="middle" x="303.5" y="-43.9" font-family="Helvetica,sans-Serif" font-size="12.00"> _value</text>
</g>
<!-- Node5&#45;&gt;Node3 -->
<g id="edge5" class="edge"><title>Node5&#45;&gt;Node3</title>
<path fill="none" stroke="#9a32cd" stroke-dasharray="5,2" d="M132.046,-69.4219C130.756,-59.7524 131.096,-48.3916 137,-40 142.878,-31.6451 151.495,-25.7708 160.88,-21.6438"/>
<polygon fill="#9a32cd" stroke="#9a32cd" points="128.637,-70.2273 133.987,-79.3722 135.508,-68.887 128.637,-70.2273"/>
<text text-anchor="middle" x="169" y="-43.9" font-family="Helvetica,sans-Serif" font-size="12.00"> CHILDREN</text>
</g>
</g>
</svg>
