<?xml version="1.0" encoding="UTF-8" standalone="no"?>
<!DOCTYPE svg PUBLIC "-//W3C//DTD SVG 1.1//EN"
 "http://www.w3.org/Graphics/SVG/1.1/DTD/svg11.dtd">
<!-- Generated by graphviz version 2.34.0 (20130907.0111)
 -->
<!-- Title: CPassFail::OnInitDialog Pages: 1 -->
<svg width="312pt" height="110pt"
 viewBox="0.00 0.00 312.00 110.00" xmlns="http://www.w3.org/2000/svg" xmlns:xlink="http://www.w3.org/1999/xlink">
<g id="graph0" class="graph" transform="scale(1 1) rotate(0) translate(4 106)">
<title>CPassFail::OnInitDialog</title>
<polygon fill="white" stroke="white" points="-4,4 -4,-106 308,-106 308,4 -4,4"/>
<!-- Node1 -->
<g id="node1" class="node"><title>Node1</title>
<polygon fill="#bfbfbf" stroke="black" points="0,-40.5 0,-61.5 142,-61.5 142,-40.5 0,-40.5"/>
<text text-anchor="middle" x="71" y="-47.9" font-family="Helvetica,sans-Serif" font-size="12.00">CPassFail::OnInitDialog</text>
</g>
<!-- Node2 -->
<g id="node2" class="node"><title>Node2</title>
<g id="a_node2"><a xlink:href="../../dd/d14/_documentation_2_operator-_console_2_pass_fail_8cpp.html#ae28e63de698122c57a3db04c26324183" target="_top" xlink:title="Conditionally adds an entry&lt;T&gt; as a subitem of a CMFCPropertyGridProperty if the entry&lt;T&gt; is used in ...">
<polygon fill="white" stroke="black" points="198,-80.5 198,-101.5 284,-101.5 284,-80.5 198,-80.5"/>
<text text-anchor="middle" x="241" y="-87.9" font-family="Helvetica,sans-Serif" font-size="12.00">AddSubEntry</text>
</a>
</g>
</g>
<!-- Node1&#45;&gt;Node2 -->
<g id="edge1" class="edge"><title>Node1&#45;&gt;Node2</title>
<path fill="none" stroke="midnightblue" d="M116.14,-61.5095C138.158,-66.752 164.933,-73.127 187.948,-78.6067"/>
<polygon fill="midnightblue" stroke="midnightblue" points="187.352,-82.0626 197.891,-80.9741 188.974,-75.253 187.352,-82.0626"/>
</g>
<!-- Node3 -->
<g id="node3" class="node"><title>Node3</title>
<g id="a_node3"><a xlink:href="../../dd/d14/_documentation_2_operator-_console_2_pass_fail_8cpp.html#a05d6e00432e3f3075fc1b0308ee8a180" target="_top" xlink:title="Conditionally adds a minMaxEntry&lt;T&gt; as a subitem of a CMFCPropertyGridProperty if the minMaxEntry&lt;T&gt; ...">
<polygon fill="white" stroke="black" points="178,-40.5 178,-61.5 304,-61.5 304,-40.5 178,-40.5"/>
<text text-anchor="middle" x="241" y="-47.9" font-family="Helvetica,sans-Serif" font-size="12.00">AddSubMinMaxEntry</text>
</a>
</g>
</g>
<!-- Node1&#45;&gt;Node3 -->
<g id="edge2" class="edge"><title>Node1&#45;&gt;Node3</title>
<path fill="none" stroke="midnightblue" d="M142.274,-51C150.648,-51 159.209,-51 167.612,-51"/>
<polygon fill="midnightblue" stroke="midnightblue" points="167.76,-54.5001 177.76,-51 167.76,-47.5001 167.76,-54.5001"/>
</g>
<!-- Node4 -->
<g id="node4" class="node"><title>Node4</title>
<g id="a_node4"><a xlink:href="../../dd/d14/_documentation_2_operator-_console_2_pass_fail_8cpp.html#a5ed69a8dbfb017176efe56aaea7ca21a" target="_top" xlink:title="Conditionally adds a vecEntry&lt;T&gt; as a subitem of a CMFCPropertyGridProperty if the vecEntry&lt;T&gt; is use...">
<polygon fill="white" stroke="black" points="187.5,-0.5 187.5,-21.5 294.5,-21.5 294.5,-0.5 187.5,-0.5"/>
<text text-anchor="middle" x="241" y="-7.9" font-family="Helvetica,sans-Serif" font-size="12.00">AddSubVecEntry</text>
</a>
</g>
</g>
<!-- Node1&#45;&gt;Node4 -->
<g id="edge3" class="edge"><title>Node1&#45;&gt;Node4</title>
<path fill="none" stroke="midnightblue" d="M116.14,-40.4905C137.566,-35.3892 163.495,-29.2155 186.081,-23.8378"/>
<polygon fill="midnightblue" stroke="midnightblue" points="186.946,-27.2298 195.863,-21.5087 185.325,-20.4202 186.946,-27.2298"/>
</g>
</g>
</svg>
