<?xml version="1.0" encoding="UTF-8" standalone="no"?>
<!DOCTYPE svg PUBLIC "-//W3C//DTD SVG 1.1//EN"
 "http://www.w3.org/Graphics/SVG/1.1/DTD/svg11.dtd">
<!-- Generated by graphviz version 2.34.0 (20130907.0111)
 -->
<!-- Title: JSONWorker::NewNode Pages: 1 -->
<svg width="936pt" height="83pt"
 viewBox="0.00 0.00 936.00 83.00" xmlns="http://www.w3.org/2000/svg" xmlns:xlink="http://www.w3.org/1999/xlink">
<g id="graph0" class="graph" transform="scale(1 1) rotate(0) translate(4 79)">
<title>JSONWorker::NewNode</title>
<polygon fill="white" stroke="white" points="-4,4 -4,-79 932,-79 932,4 -4,4"/>
<!-- Node1 -->
<g id="node1" class="node"><title>Node1</title>
<polygon fill="#bfbfbf" stroke="black" points="0,-24.5 0,-45.5 144,-45.5 144,-24.5 0,-24.5"/>
<text text-anchor="middle" x="72" y="-31.9" font-family="Helvetica,sans-Serif" font-size="12.00">JSONWorker::NewNode</text>
</g>
<!-- Node2 -->
<g id="node2" class="node"><title>Node2</title>
<g id="a_node2"><a xlink:href="../../d1/d0b/classinternal_j_s_o_n_node.html#a5656ff403a9a79fce1812aacee620fdd" target="_top" xlink:title="internalJSONNode::newInternal">
<polygon fill="white" stroke="black" points="180,-45.5 180,-66.5 358,-66.5 358,-45.5 180,-45.5"/>
<text text-anchor="middle" x="269" y="-52.9" font-family="Helvetica,sans-Serif" font-size="12.00">internalJSONNode::newInternal</text>
</a>
</g>
</g>
<!-- Node1&#45;&gt;Node2 -->
<g id="edge1" class="edge"><title>Node1&#45;&gt;Node2</title>
<path fill="none" stroke="midnightblue" d="M144.227,-42.6706C152.516,-43.5633 161.079,-44.4854 169.651,-45.4085"/>
<polygon fill="midnightblue" stroke="midnightblue" points="169.384,-48.8999 179.701,-46.4909 170.133,-41.9402 169.384,-48.8999"/>
</g>
<!-- Node6 -->
<g id="node6" class="node"><title>Node6</title>
<g id="a_node6"><a xlink:href="../../d6/dc7/class_j_s_o_n_node.html#a2435b57e1586f3c7c7d915b3490a4e1c" target="_top" xlink:title="JSONNode::newJSONNode">
<polygon fill="white" stroke="black" points="187,-3.5 187,-24.5 351,-24.5 351,-3.5 187,-3.5"/>
<text text-anchor="middle" x="269" y="-10.9" font-family="Helvetica,sans-Serif" font-size="12.00">JSONNode::newJSONNode</text>
</a>
</g>
</g>
<!-- Node1&#45;&gt;Node6 -->
<g id="edge5" class="edge"><title>Node1&#45;&gt;Node6</title>
<path fill="none" stroke="midnightblue" d="M144.227,-27.3294C154.806,-26.1901 165.831,-25.0028 176.751,-23.8268"/>
<polygon fill="midnightblue" stroke="midnightblue" points="177.166,-27.3024 186.734,-22.7517 176.416,-20.3427 177.166,-27.3024"/>
</g>
<!-- Node3 -->
<g id="node3" class="node"><title>Node3</title>
<g id="a_node3"><a xlink:href="../../d1/d0b/classinternal_j_s_o_n_node.html#afb952c1e0ebf1928ecccd9a205baa0db" target="_top" xlink:title="internalJSONNode::internal\lJSONNode">
<polygon fill="white" stroke="black" points="394,-41 394,-75 552,-75 552,-41 394,-41"/>
<text text-anchor="start" x="402" y="-61.4" font-family="Helvetica,sans-Serif" font-size="12.00">internalJSONNode::internal</text>
<text text-anchor="middle" x="473" y="-48.4" font-family="Helvetica,sans-Serif" font-size="12.00">JSONNode</text>
</a>
</g>
</g>
<!-- Node2&#45;&gt;Node3 -->
<g id="edge2" class="edge"><title>Node2&#45;&gt;Node3</title>
<path fill="none" stroke="midnightblue" d="M358.013,-56.8714C366.478,-56.9552 375.067,-57.0403 383.537,-57.1241"/>
<polygon fill="midnightblue" stroke="midnightblue" points="383.759,-60.6264 393.793,-57.2257 383.828,-53.6267 383.759,-60.6264"/>
</g>
<!-- Node4 -->
<g id="node4" class="node"><title>Node4</title>
<g id="a_node4"><a xlink:href="../../db/d49/classjson_children.html#ac71d832f3f81306fcb13e6f581f4431a" target="_top" xlink:title="jsonChildren::newChildren">
<polygon fill="white" stroke="black" points="588,-47.5 588,-68.5 740,-68.5 740,-47.5 588,-47.5"/>
<text text-anchor="middle" x="664" y="-54.9" font-family="Helvetica,sans-Serif" font-size="12.00">jsonChildren::newChildren</text>
</a>
</g>
</g>
<!-- Node3&#45;&gt;Node4 -->
<g id="edge3" class="edge"><title>Node3&#45;&gt;Node4</title>
<path fill="none" stroke="midnightblue" d="M552.238,-58C560.613,-58 569.163,-58 577.616,-58"/>
<polygon fill="midnightblue" stroke="midnightblue" points="577.859,-61.5001 587.859,-58 577.859,-54.5001 577.859,-61.5001"/>
</g>
<!-- Node5 -->
<g id="node5" class="node"><title>Node5</title>
<g id="a_node5"><a xlink:href="../../db/d49/classjson_children.html#aa31b15a1d697846a9c2a8a710b2ba6f1" target="_top" xlink:title="jsonChildren::jsonChildren">
<polygon fill="white" stroke="black" points="776,-47.5 776,-68.5 928,-68.5 928,-47.5 776,-47.5"/>
<text text-anchor="middle" x="852" y="-54.9" font-family="Helvetica,sans-Serif" font-size="12.00">jsonChildren::jsonChildren</text>
</a>
</g>
</g>
<!-- Node4&#45;&gt;Node5 -->
<g id="edge4" class="edge"><title>Node4&#45;&gt;Node5</title>
<path fill="none" stroke="midnightblue" d="M740.117,-58C748.596,-58 757.281,-58 765.875,-58"/>
<polygon fill="midnightblue" stroke="midnightblue" points="765.905,-61.5001 775.905,-58 765.905,-54.5001 765.905,-61.5001"/>
</g>
<!-- Node7 -->
<g id="node7" class="node"><title>Node7</title>
<g id="a_node7"><a xlink:href="../../d1/df2/_j_s_o_n_node_8cpp.html#a459ea7a97e80c19dfc813f2712b9dd73" target="_top" xlink:title="_newJSONNode">
<polygon fill="white" stroke="black" points="421,-0.5 421,-21.5 525,-21.5 525,-0.5 421,-0.5"/>
<text text-anchor="middle" x="473" y="-7.9" font-family="Helvetica,sans-Serif" font-size="12.00">_newJSONNode</text>
</a>
</g>
</g>
<!-- Node6&#45;&gt;Node7 -->
<g id="edge6" class="edge"><title>Node6&#45;&gt;Node7</title>
<path fill="none" stroke="midnightblue" d="M351.288,-12.7928C371.083,-12.4988 391.929,-12.1892 410.623,-11.9115"/>
<polygon fill="midnightblue" stroke="midnightblue" points="410.82,-15.4091 420.767,-11.7609 410.716,-8.40987 410.82,-15.4091"/>
</g>
<!-- Node8 -->
<g id="node8" class="node"><title>Node8</title>
<g id="a_node8"><a xlink:href="../../d6/dc7/class_j_s_o_n_node.html#aba2db3c5af33c64e0cdccd33d18adc59" target="_top" xlink:title="JSONNode::JSONNode">
<polygon fill="white" stroke="black" points="592.5,-0.5 592.5,-21.5 735.5,-21.5 735.5,-0.5 592.5,-0.5"/>
<text text-anchor="middle" x="664" y="-7.9" font-family="Helvetica,sans-Serif" font-size="12.00">JSONNode::JSONNode</text>
</a>
</g>
</g>
<!-- Node7&#45;&gt;Node8 -->
<g id="edge7" class="edge"><title>Node7&#45;&gt;Node8</title>
<path fill="none" stroke="midnightblue" d="M525.146,-11C542.741,-11 562.896,-11 582.263,-11"/>
<polygon fill="midnightblue" stroke="midnightblue" points="582.301,-14.5001 592.301,-11 582.301,-7.5001 582.301,-14.5001"/>
</g>
</g>
</svg>
