<?xml version="1.0" encoding="UTF-8" standalone="no"?>
<!DOCTYPE svg PUBLIC "-//W3C//DTD SVG 1.1//EN"
 "http://www.w3.org/Graphics/SVG/1.1/DTD/svg11.dtd">
<!-- Generated by graphviz version 2.34.0 (20130907.0111)
 -->
<!-- Title: JSONWorker::RemoveWhiteSpaceAndComments Pages: 1 -->
<svg width="368pt" height="70pt"
 viewBox="0.00 0.00 368.00 70.00" xmlns="http://www.w3.org/2000/svg" xmlns:xlink="http://www.w3.org/1999/xlink">
<g id="graph0" class="graph" transform="scale(1 1) rotate(0) translate(4 66)">
<title>JSONWorker::RemoveWhiteSpaceAndComments</title>
<polygon fill="white" stroke="white" points="-4,4 -4,-66 364,-66 364,4 -4,4"/>
<!-- Node1 -->
<g id="node1" class="node"><title>Node1</title>
<polygon fill="#bfbfbf" stroke="black" points="0,-14 0,-48 200,-48 200,-14 0,-14"/>
<text text-anchor="start" x="8" y="-34.4" font-family="Helvetica,sans-Serif" font-size="12.00">JSONWorker::RemoveWhiteSpace</text>
<text text-anchor="middle" x="100" y="-21.4" font-family="Helvetica,sans-Serif" font-size="12.00">AndComments</text>
</g>
<!-- Node2 -->
<g id="node2" class="node"><title>Node2</title>
<g id="a_node2"><a xlink:href="../../db/d60/_documentation_2_operator-_console_2_j_s_o_n_2_j_s_o_n_worker_8cpp.html#ae0e632ff0e483722772135d750984c68" target="_top" xlink:title="ascii_one">
<polygon fill="white" stroke="black" points="264,-40.5 264,-61.5 332,-61.5 332,-40.5 264,-40.5"/>
<text text-anchor="middle" x="298" y="-47.9" font-family="Helvetica,sans-Serif" font-size="12.00">ascii_one</text>
</a>
</g>
</g>
<!-- Node1&#45;&gt;Node2 -->
<g id="edge1" class="edge"><title>Node1&#45;&gt;Node2</title>
<path fill="none" stroke="midnightblue" d="M200.148,-41.1172C218.997,-43.0406 237.79,-44.9581 253.736,-46.5853"/>
<polygon fill="midnightblue" stroke="midnightblue" points="253.472,-50.0764 263.776,-47.6097 254.183,-43.1126 253.472,-50.0764"/>
</g>
<!-- Node3 -->
<g id="node3" class="node"><title>Node3</title>
<g id="a_node3"><a xlink:href="../../db/d60/_documentation_2_operator-_console_2_j_s_o_n_2_j_s_o_n_worker_8cpp.html#aeac1b0f8a5dd2e0045682288c9a5a986" target="_top" xlink:title="SingleLineComment">
<polygon fill="white" stroke="black" points="236.5,-0.5 236.5,-21.5 359.5,-21.5 359.5,-0.5 236.5,-0.5"/>
<text text-anchor="middle" x="298" y="-7.9" font-family="Helvetica,sans-Serif" font-size="12.00">SingleLineComment</text>
</a>
</g>
</g>
<!-- Node1&#45;&gt;Node3 -->
<g id="edge2" class="edge"><title>Node1&#45;&gt;Node3</title>
<path fill="none" stroke="midnightblue" d="M200.148,-20.8828C208.924,-19.9874 217.687,-19.0932 226.156,-18.2289"/>
<polygon fill="midnightblue" stroke="midnightblue" points="226.729,-21.6887 236.322,-17.1916 226.019,-14.7249 226.729,-21.6887"/>
</g>
</g>
</svg>
