<?xml version="1.0" encoding="UTF-8" standalone="no"?>
<!DOCTYPE svg PUBLIC "-//W3C//DTD SVG 1.1//EN"
 "http://www.w3.org/Graphics/SVG/1.1/DTD/svg11.dtd">
<!-- Generated by graphviz version 2.34.0 (20130907.0111)
 -->
<!-- Title: JSONWorker::FixString Pages: 1 -->
<svg width="754pt" height="190pt"
 viewBox="0.00 0.00 754.00 190.00" xmlns="http://www.w3.org/2000/svg" xmlns:xlink="http://www.w3.org/1999/xlink">
<g id="graph0" class="graph" transform="scale(1 1) rotate(0) translate(4 186)">
<title>JSONWorker::FixString</title>
<polygon fill="white" stroke="white" points="-4,4 -4,-186 750,-186 750,4 -4,4"/>
<!-- Node1 -->
<g id="node1" class="node"><title>Node1</title>
<polygon fill="#bfbfbf" stroke="black" points="0.5,-80.5 0.5,-101.5 139.5,-101.5 139.5,-80.5 0.5,-80.5"/>
<text text-anchor="middle" x="70" y="-87.9" font-family="Helvetica,sans-Serif" font-size="12.00">JSONWorker::FixString</text>
</g>
<!-- Node2 -->
<g id="node2" class="node"><title>Node2</title>
<g id="a_node2"><a xlink:href="../../d1/d0b/classinternal_j_s_o_n_node.html#a40ace389d49c93b870ce3a0aaab70640" target="_top" xlink:title="internalJSONNode::FetchString">
<polygon fill="white" stroke="black" points="176,-80.5 176,-101.5 356,-101.5 356,-80.5 176,-80.5"/>
<text text-anchor="middle" x="266" y="-87.9" font-family="Helvetica,sans-Serif" font-size="12.00">internalJSONNode::FetchString</text>
</a>
</g>
</g>
<!-- Node1&#45;&gt;Node2 -->
<g id="edge1" class="edge"><title>Node1&#45;&gt;Node2</title>
<path fill="none" stroke="midnightblue" d="M149.916,-91C158.409,-91 167.093,-91 175.696,-91"/>
<polygon fill="midnightblue" stroke="midnightblue" points="149.67,-87.5001 139.67,-91 149.67,-94.5001 149.67,-87.5001"/>
</g>
<!-- Node3 -->
<g id="node3" class="node"><title>Node3</title>
<g id="a_node3"><a xlink:href="../../d1/d0b/classinternal_j_s_o_n_node.html#a2dba04775883475a7624257a82d1cac9" target="_top" xlink:title="internalJSONNode::Fetch">
<polygon fill="white" stroke="black" points="392.5,-80.5 392.5,-101.5 541.5,-101.5 541.5,-80.5 392.5,-80.5"/>
<text text-anchor="middle" x="467" y="-87.9" font-family="Helvetica,sans-Serif" font-size="12.00">internalJSONNode::Fetch</text>
</a>
</g>
</g>
<!-- Node2&#45;&gt;Node3 -->
<g id="edge2" class="edge"><title>Node2&#45;&gt;Node3</title>
<path fill="none" stroke="midnightblue" d="M366.273,-91C375.018,-91 383.766,-91 392.247,-91"/>
<polygon fill="midnightblue" stroke="midnightblue" points="366.023,-87.5001 356.023,-91 366.023,-94.5001 366.023,-87.5001"/>
</g>
<!-- Node4 -->
<g id="node4" class="node"><title>Node4</title>
<g id="a_node4"><a xlink:href="../../d1/d0b/classinternal_j_s_o_n_node.html#a83b24cb2bbdac4b1a1a532c44ffd397f" target="_top" xlink:title="internalJSONNode::begin">
<polygon fill="white" stroke="black" points="587.5,-160.5 587.5,-181.5 736.5,-181.5 736.5,-160.5 587.5,-160.5"/>
<text text-anchor="middle" x="662" y="-167.9" font-family="Helvetica,sans-Serif" font-size="12.00">internalJSONNode::begin</text>
</a>
</g>
</g>
<!-- Node3&#45;&gt;Node4 -->
<g id="edge3" class="edge"><title>Node3&#45;&gt;Node4</title>
<path fill="none" stroke="midnightblue" d="M492.705,-106.939C514.424,-120.341 547.274,-139.157 578,-151 587.543,-154.678 597.971,-157.827 608.115,-160.464"/>
<polygon fill="midnightblue" stroke="midnightblue" points="494.451,-103.902 484.117,-101.563 490.736,-109.836 494.451,-103.902"/>
</g>
<!-- Node5 -->
<g id="node5" class="node"><title>Node5</title>
<g id="a_node5"><a xlink:href="../../d1/d0b/classinternal_j_s_o_n_node.html#accd95751fc868a0f19530f0eeba1d09b" target="_top" xlink:title="internalJSONNode::empty">
<polygon fill="white" stroke="black" points="586,-120.5 586,-141.5 738,-141.5 738,-120.5 586,-120.5"/>
<text text-anchor="middle" x="662" y="-127.9" font-family="Helvetica,sans-Serif" font-size="12.00">internalJSONNode::empty</text>
</a>
</g>
</g>
<!-- Node3&#45;&gt;Node5 -->
<g id="edge4" class="edge"><title>Node3&#45;&gt;Node5</title>
<path fill="none" stroke="midnightblue" d="M528.554,-103.55C554.824,-108.995 585.241,-115.299 610.295,-120.491"/>
<polygon fill="midnightblue" stroke="midnightblue" points="529.211,-100.112 518.708,-101.51 527.79,-106.966 529.211,-100.112"/>
</g>
<!-- Node6 -->
<g id="node6" class="node"><title>Node6</title>
<g id="a_node6"><a xlink:href="../../d1/d0b/classinternal_j_s_o_n_node.html#a4bbd647f453bfdb21ef9b6a2fb6f62f8" target="_top" xlink:title="internalJSONNode::end">
<polygon fill="white" stroke="black" points="592,-80.5 592,-101.5 732,-101.5 732,-80.5 592,-80.5"/>
<text text-anchor="middle" x="662" y="-87.9" font-family="Helvetica,sans-Serif" font-size="12.00">internalJSONNode::end</text>
</a>
</g>
</g>
<!-- Node3&#45;&gt;Node6 -->
<g id="edge5" class="edge"><title>Node3&#45;&gt;Node6</title>
<path fill="none" stroke="midnightblue" d="M551.678,-91C565.075,-91 578.809,-91 591.82,-91"/>
<polygon fill="midnightblue" stroke="midnightblue" points="551.516,-87.5001 541.516,-91 551.516,-94.5001 551.516,-87.5001"/>
</g>
<!-- Node7 -->
<g id="node7" class="node"><title>Node7</title>
<g id="a_node7"><a xlink:href="../../d1/d0b/classinternal_j_s_o_n_node.html#abf6beef21cb476c4b2246f7b01a1ee98" target="_top" xlink:title="internalJSONNode::preparse">
<polygon fill="white" stroke="black" points="578.5,-40.5 578.5,-61.5 745.5,-61.5 745.5,-40.5 578.5,-40.5"/>
<text text-anchor="middle" x="662" y="-47.9" font-family="Helvetica,sans-Serif" font-size="12.00">internalJSONNode::preparse</text>
</a>
</g>
</g>
<!-- Node3&#45;&gt;Node7 -->
<g id="edge6" class="edge"><title>Node3&#45;&gt;Node7</title>
<path fill="none" stroke="midnightblue" d="M528.554,-78.45C554.824,-73.0054 585.241,-66.7014 610.295,-61.5087"/>
<polygon fill="midnightblue" stroke="midnightblue" points="527.79,-75.0338 518.708,-80.4905 529.211,-81.8881 527.79,-75.0338"/>
</g>
<!-- Node8 -->
<g id="node8" class="node"><title>Node8</title>
<g id="a_node8"><a xlink:href="../../d1/d0b/classinternal_j_s_o_n_node.html#a1b39d2c6b4bd28ed7ce2415fd5a94f57" target="_top" xlink:title="internalJSONNode::size">
<polygon fill="white" stroke="black" points="591.5,-0.5 591.5,-21.5 732.5,-21.5 732.5,-0.5 591.5,-0.5"/>
<text text-anchor="middle" x="662" y="-7.9" font-family="Helvetica,sans-Serif" font-size="12.00">internalJSONNode::size</text>
</a>
</g>
</g>
<!-- Node3&#45;&gt;Node8 -->
<g id="edge7" class="edge"><title>Node3&#45;&gt;Node8</title>
<path fill="none" stroke="midnightblue" d="M492.705,-75.0609C514.424,-61.6592 547.274,-42.8433 578,-31 587.543,-27.3217 597.971,-24.1733 608.115,-21.5363"/>
<polygon fill="midnightblue" stroke="midnightblue" points="490.736,-72.1642 484.117,-80.4369 494.451,-78.0975 490.736,-72.1642"/>
</g>
</g>
</svg>
