<?xml version="1.0" encoding="UTF-8" standalone="no"?>
<!DOCTYPE svg PUBLIC "-//W3C//DTD SVG 1.1//EN"
 "http://www.w3.org/Graphics/SVG/1.1/DTD/svg11.dtd">
<!-- Generated by graphviz version 2.34.0 (20130907.0111)
 -->
<!-- Title: JSONWorker::DoNode Pages: 1 -->
<svg width="750pt" height="190pt"
 viewBox="0.00 0.00 750.00 190.00" xmlns="http://www.w3.org/2000/svg" xmlns:xlink="http://www.w3.org/1999/xlink">
<g id="graph0" class="graph" transform="scale(1 1) rotate(0) translate(4 186)">
<title>JSONWorker::DoNode</title>
<polygon fill="white" stroke="white" points="-4,4 -4,-186 746,-186 746,4 -4,4"/>
<!-- Node1 -->
<g id="node1" class="node"><title>Node1</title>
<polygon fill="#bfbfbf" stroke="black" points="0.5,-80.5 0.5,-101.5 137.5,-101.5 137.5,-80.5 0.5,-80.5"/>
<text text-anchor="middle" x="69" y="-87.9" font-family="Helvetica,sans-Serif" font-size="12.00">JSONWorker::DoNode</text>
</g>
<!-- Node2 -->
<g id="node2" class="node"><title>Node2</title>
<g id="a_node2"><a xlink:href="../../d1/d0b/classinternal_j_s_o_n_node.html#a69dde8286881b07590238abf1d91a245" target="_top" xlink:title="internalJSONNode::FetchNode">
<polygon fill="white" stroke="black" points="174,-80.5 174,-101.5 352,-101.5 352,-80.5 174,-80.5"/>
<text text-anchor="middle" x="263" y="-87.9" font-family="Helvetica,sans-Serif" font-size="12.00">internalJSONNode::FetchNode</text>
</a>
</g>
</g>
<!-- Node1&#45;&gt;Node2 -->
<g id="edge1" class="edge"><title>Node1&#45;&gt;Node2</title>
<path fill="none" stroke="midnightblue" d="M147.938,-91C156.433,-91 165.124,-91 173.731,-91"/>
<polygon fill="midnightblue" stroke="midnightblue" points="147.692,-87.5001 137.692,-91 147.692,-94.5001 147.692,-87.5001"/>
</g>
<!-- Node3 -->
<g id="node3" class="node"><title>Node3</title>
<g id="a_node3"><a xlink:href="../../d1/d0b/classinternal_j_s_o_n_node.html#a2dba04775883475a7624257a82d1cac9" target="_top" xlink:title="internalJSONNode::Fetch">
<polygon fill="white" stroke="black" points="388.5,-80.5 388.5,-101.5 537.5,-101.5 537.5,-80.5 388.5,-80.5"/>
<text text-anchor="middle" x="463" y="-87.9" font-family="Helvetica,sans-Serif" font-size="12.00">internalJSONNode::Fetch</text>
</a>
</g>
</g>
<!-- Node2&#45;&gt;Node3 -->
<g id="edge2" class="edge"><title>Node2&#45;&gt;Node3</title>
<path fill="none" stroke="midnightblue" d="M362.502,-91C371.22,-91 379.943,-91 388.4,-91"/>
<polygon fill="midnightblue" stroke="midnightblue" points="362.287,-87.5001 352.287,-91 362.287,-94.5001 362.287,-87.5001"/>
</g>
<!-- Node4 -->
<g id="node4" class="node"><title>Node4</title>
<g id="a_node4"><a xlink:href="../../d1/d0b/classinternal_j_s_o_n_node.html#a83b24cb2bbdac4b1a1a532c44ffd397f" target="_top" xlink:title="internalJSONNode::begin">
<polygon fill="white" stroke="black" points="583.5,-160.5 583.5,-181.5 732.5,-181.5 732.5,-160.5 583.5,-160.5"/>
<text text-anchor="middle" x="658" y="-167.9" font-family="Helvetica,sans-Serif" font-size="12.00">internalJSONNode::begin</text>
</a>
</g>
</g>
<!-- Node3&#45;&gt;Node4 -->
<g id="edge3" class="edge"><title>Node3&#45;&gt;Node4</title>
<path fill="none" stroke="midnightblue" d="M488.705,-106.939C510.424,-120.341 543.274,-139.157 574,-151 583.543,-154.678 593.971,-157.827 604.115,-160.464"/>
<polygon fill="midnightblue" stroke="midnightblue" points="490.451,-103.902 480.117,-101.563 486.736,-109.836 490.451,-103.902"/>
</g>
<!-- Node5 -->
<g id="node5" class="node"><title>Node5</title>
<g id="a_node5"><a xlink:href="../../d1/d0b/classinternal_j_s_o_n_node.html#accd95751fc868a0f19530f0eeba1d09b" target="_top" xlink:title="internalJSONNode::empty">
<polygon fill="white" stroke="black" points="582,-120.5 582,-141.5 734,-141.5 734,-120.5 582,-120.5"/>
<text text-anchor="middle" x="658" y="-127.9" font-family="Helvetica,sans-Serif" font-size="12.00">internalJSONNode::empty</text>
</a>
</g>
</g>
<!-- Node3&#45;&gt;Node5 -->
<g id="edge4" class="edge"><title>Node3&#45;&gt;Node5</title>
<path fill="none" stroke="midnightblue" d="M524.554,-103.55C550.824,-108.995 581.241,-115.299 606.295,-120.491"/>
<polygon fill="midnightblue" stroke="midnightblue" points="525.211,-100.112 514.708,-101.51 523.79,-106.966 525.211,-100.112"/>
</g>
<!-- Node6 -->
<g id="node6" class="node"><title>Node6</title>
<g id="a_node6"><a xlink:href="../../d1/d0b/classinternal_j_s_o_n_node.html#a4bbd647f453bfdb21ef9b6a2fb6f62f8" target="_top" xlink:title="internalJSONNode::end">
<polygon fill="white" stroke="black" points="588,-80.5 588,-101.5 728,-101.5 728,-80.5 588,-80.5"/>
<text text-anchor="middle" x="658" y="-87.9" font-family="Helvetica,sans-Serif" font-size="12.00">internalJSONNode::end</text>
</a>
</g>
</g>
<!-- Node3&#45;&gt;Node6 -->
<g id="edge5" class="edge"><title>Node3&#45;&gt;Node6</title>
<path fill="none" stroke="midnightblue" d="M547.678,-91C561.075,-91 574.809,-91 587.82,-91"/>
<polygon fill="midnightblue" stroke="midnightblue" points="547.516,-87.5001 537.516,-91 547.516,-94.5001 547.516,-87.5001"/>
</g>
<!-- Node7 -->
<g id="node7" class="node"><title>Node7</title>
<g id="a_node7"><a xlink:href="../../d1/d0b/classinternal_j_s_o_n_node.html#abf6beef21cb476c4b2246f7b01a1ee98" target="_top" xlink:title="internalJSONNode::preparse">
<polygon fill="white" stroke="black" points="574.5,-40.5 574.5,-61.5 741.5,-61.5 741.5,-40.5 574.5,-40.5"/>
<text text-anchor="middle" x="658" y="-47.9" font-family="Helvetica,sans-Serif" font-size="12.00">internalJSONNode::preparse</text>
</a>
</g>
</g>
<!-- Node3&#45;&gt;Node7 -->
<g id="edge6" class="edge"><title>Node3&#45;&gt;Node7</title>
<path fill="none" stroke="midnightblue" d="M524.554,-78.45C550.824,-73.0054 581.241,-66.7014 606.295,-61.5087"/>
<polygon fill="midnightblue" stroke="midnightblue" points="523.79,-75.0338 514.708,-80.4905 525.211,-81.8881 523.79,-75.0338"/>
</g>
<!-- Node8 -->
<g id="node8" class="node"><title>Node8</title>
<g id="a_node8"><a xlink:href="../../d1/d0b/classinternal_j_s_o_n_node.html#a1b39d2c6b4bd28ed7ce2415fd5a94f57" target="_top" xlink:title="internalJSONNode::size">
<polygon fill="white" stroke="black" points="587.5,-0.5 587.5,-21.5 728.5,-21.5 728.5,-0.5 587.5,-0.5"/>
<text text-anchor="middle" x="658" y="-7.9" font-family="Helvetica,sans-Serif" font-size="12.00">internalJSONNode::size</text>
</a>
</g>
</g>
<!-- Node3&#45;&gt;Node8 -->
<g id="edge7" class="edge"><title>Node3&#45;&gt;Node8</title>
<path fill="none" stroke="midnightblue" d="M488.705,-75.0609C510.424,-61.6592 543.274,-42.8433 574,-31 583.543,-27.3217 593.971,-24.1733 604.115,-21.5363"/>
<polygon fill="midnightblue" stroke="midnightblue" points="486.736,-72.1642 480.117,-80.4369 490.451,-78.0975 486.736,-72.1642"/>
</g>
</g>
</svg>
