<?xml version="1.0" encoding="UTF-8" standalone="no"?>
<!DOCTYPE svg PUBLIC "-//W3C//DTD SVG 1.1//EN"
 "http://www.w3.org/Graphics/SVG/1.1/DTD/svg11.dtd">
<!-- Generated by graphviz version 2.34.0 (20130907.0111)
 -->
<!-- Title: JSONWorker::DoArray Pages: 1 -->
<svg width="748pt" height="190pt"
 viewBox="0.00 0.00 748.00 190.00" xmlns="http://www.w3.org/2000/svg" xmlns:xlink="http://www.w3.org/1999/xlink">
<g id="graph0" class="graph" transform="scale(1 1) rotate(0) translate(4 186)">
<title>JSONWorker::DoArray</title>
<polygon fill="white" stroke="white" points="-4,4 -4,-186 744,-186 744,4 -4,4"/>
<!-- Node1 -->
<g id="node1" class="node"><title>Node1</title>
<polygon fill="#bfbfbf" stroke="black" points="0,-80.5 0,-101.5 136,-101.5 136,-80.5 0,-80.5"/>
<text text-anchor="middle" x="68" y="-87.9" font-family="Helvetica,sans-Serif" font-size="12.00">JSONWorker::DoArray</text>
</g>
<!-- Node2 -->
<g id="node2" class="node"><title>Node2</title>
<g id="a_node2"><a xlink:href="../../d1/d0b/classinternal_j_s_o_n_node.html#a59d6db90025af648ee5f556e15242e00" target="_top" xlink:title="internalJSONNode::FetchArray">
<polygon fill="white" stroke="black" points="172.5,-80.5 172.5,-101.5 349.5,-101.5 349.5,-80.5 172.5,-80.5"/>
<text text-anchor="middle" x="261" y="-87.9" font-family="Helvetica,sans-Serif" font-size="12.00">internalJSONNode::FetchArray</text>
</a>
</g>
</g>
<!-- Node1&#45;&gt;Node2 -->
<g id="edge1" class="edge"><title>Node1&#45;&gt;Node2</title>
<path fill="none" stroke="midnightblue" d="M146.088,-91C154.718,-91 163.556,-91 172.306,-91"/>
<polygon fill="midnightblue" stroke="midnightblue" points="146.071,-87.5001 136.071,-91 146.071,-94.5001 146.071,-87.5001"/>
</g>
<!-- Node3 -->
<g id="node3" class="node"><title>Node3</title>
<g id="a_node3"><a xlink:href="../../d1/d0b/classinternal_j_s_o_n_node.html#a2dba04775883475a7624257a82d1cac9" target="_top" xlink:title="internalJSONNode::Fetch">
<polygon fill="white" stroke="black" points="386.5,-80.5 386.5,-101.5 535.5,-101.5 535.5,-80.5 386.5,-80.5"/>
<text text-anchor="middle" x="461" y="-87.9" font-family="Helvetica,sans-Serif" font-size="12.00">internalJSONNode::Fetch</text>
</a>
</g>
</g>
<!-- Node2&#45;&gt;Node3 -->
<g id="edge2" class="edge"><title>Node2&#45;&gt;Node3</title>
<path fill="none" stroke="midnightblue" d="M359.76,-91C368.679,-91 377.612,-91 386.269,-91"/>
<polygon fill="midnightblue" stroke="midnightblue" points="359.71,-87.5001 349.71,-91 359.71,-94.5001 359.71,-87.5001"/>
</g>
<!-- Node4 -->
<g id="node4" class="node"><title>Node4</title>
<g id="a_node4"><a xlink:href="../../d1/d0b/classinternal_j_s_o_n_node.html#a83b24cb2bbdac4b1a1a532c44ffd397f" target="_top" xlink:title="internalJSONNode::begin">
<polygon fill="white" stroke="black" points="581.5,-160.5 581.5,-181.5 730.5,-181.5 730.5,-160.5 581.5,-160.5"/>
<text text-anchor="middle" x="656" y="-167.9" font-family="Helvetica,sans-Serif" font-size="12.00">internalJSONNode::begin</text>
</a>
</g>
</g>
<!-- Node3&#45;&gt;Node4 -->
<g id="edge3" class="edge"><title>Node3&#45;&gt;Node4</title>
<path fill="none" stroke="midnightblue" d="M486.705,-106.939C508.424,-120.341 541.274,-139.157 572,-151 581.543,-154.678 591.971,-157.827 602.115,-160.464"/>
<polygon fill="midnightblue" stroke="midnightblue" points="488.451,-103.902 478.117,-101.563 484.736,-109.836 488.451,-103.902"/>
</g>
<!-- Node5 -->
<g id="node5" class="node"><title>Node5</title>
<g id="a_node5"><a xlink:href="../../d1/d0b/classinternal_j_s_o_n_node.html#accd95751fc868a0f19530f0eeba1d09b" target="_top" xlink:title="internalJSONNode::empty">
<polygon fill="white" stroke="black" points="580,-120.5 580,-141.5 732,-141.5 732,-120.5 580,-120.5"/>
<text text-anchor="middle" x="656" y="-127.9" font-family="Helvetica,sans-Serif" font-size="12.00">internalJSONNode::empty</text>
</a>
</g>
</g>
<!-- Node3&#45;&gt;Node5 -->
<g id="edge4" class="edge"><title>Node3&#45;&gt;Node5</title>
<path fill="none" stroke="midnightblue" d="M522.554,-103.55C548.824,-108.995 579.241,-115.299 604.295,-120.491"/>
<polygon fill="midnightblue" stroke="midnightblue" points="523.211,-100.112 512.708,-101.51 521.79,-106.966 523.211,-100.112"/>
</g>
<!-- Node6 -->
<g id="node6" class="node"><title>Node6</title>
<g id="a_node6"><a xlink:href="../../d1/d0b/classinternal_j_s_o_n_node.html#a4bbd647f453bfdb21ef9b6a2fb6f62f8" target="_top" xlink:title="internalJSONNode::end">
<polygon fill="white" stroke="black" points="586,-80.5 586,-101.5 726,-101.5 726,-80.5 586,-80.5"/>
<text text-anchor="middle" x="656" y="-87.9" font-family="Helvetica,sans-Serif" font-size="12.00">internalJSONNode::end</text>
</a>
</g>
</g>
<!-- Node3&#45;&gt;Node6 -->
<g id="edge5" class="edge"><title>Node3&#45;&gt;Node6</title>
<path fill="none" stroke="midnightblue" d="M545.678,-91C559.075,-91 572.809,-91 585.82,-91"/>
<polygon fill="midnightblue" stroke="midnightblue" points="545.516,-87.5001 535.516,-91 545.516,-94.5001 545.516,-87.5001"/>
</g>
<!-- Node7 -->
<g id="node7" class="node"><title>Node7</title>
<g id="a_node7"><a xlink:href="../../d1/d0b/classinternal_j_s_o_n_node.html#abf6beef21cb476c4b2246f7b01a1ee98" target="_top" xlink:title="internalJSONNode::preparse">
<polygon fill="white" stroke="black" points="572.5,-40.5 572.5,-61.5 739.5,-61.5 739.5,-40.5 572.5,-40.5"/>
<text text-anchor="middle" x="656" y="-47.9" font-family="Helvetica,sans-Serif" font-size="12.00">internalJSONNode::preparse</text>
</a>
</g>
</g>
<!-- Node3&#45;&gt;Node7 -->
<g id="edge6" class="edge"><title>Node3&#45;&gt;Node7</title>
<path fill="none" stroke="midnightblue" d="M522.554,-78.45C548.824,-73.0054 579.241,-66.7014 604.295,-61.5087"/>
<polygon fill="midnightblue" stroke="midnightblue" points="521.79,-75.0338 512.708,-80.4905 523.211,-81.8881 521.79,-75.0338"/>
</g>
<!-- Node8 -->
<g id="node8" class="node"><title>Node8</title>
<g id="a_node8"><a xlink:href="../../d1/d0b/classinternal_j_s_o_n_node.html#a1b39d2c6b4bd28ed7ce2415fd5a94f57" target="_top" xlink:title="internalJSONNode::size">
<polygon fill="white" stroke="black" points="585.5,-0.5 585.5,-21.5 726.5,-21.5 726.5,-0.5 585.5,-0.5"/>
<text text-anchor="middle" x="656" y="-7.9" font-family="Helvetica,sans-Serif" font-size="12.00">internalJSONNode::size</text>
</a>
</g>
</g>
<!-- Node3&#45;&gt;Node8 -->
<g id="edge7" class="edge"><title>Node3&#45;&gt;Node8</title>
<path fill="none" stroke="midnightblue" d="M486.705,-75.0609C508.424,-61.6592 541.274,-42.8433 572,-31 581.543,-27.3217 591.971,-24.1733 602.115,-21.5363"/>
<polygon fill="midnightblue" stroke="midnightblue" points="484.736,-72.1642 478.117,-80.4369 488.451,-78.0975 484.736,-72.1642"/>
</g>
</g>
</svg>
