<?xml version="1.0" encoding="UTF-8" standalone="no"?>
<!DOCTYPE svg PUBLIC "-//W3C//DTD SVG 1.1//EN"
 "http://www.w3.org/Graphics/SVG/1.1/DTD/svg11.dtd">
<!-- Generated by graphviz version 2.34.0 (20130907.0111)
 -->
<!-- Title: JSONWorker::RemoveWhiteSpaceAndComments Pages: 1 -->
<svg width="356pt" height="83pt"
 viewBox="0.00 0.00 356.00 83.00" xmlns="http://www.w3.org/2000/svg" xmlns:xlink="http://www.w3.org/1999/xlink">
<g id="graph0" class="graph" transform="scale(1 1) rotate(0) translate(4 79)">
<title>JSONWorker::RemoveWhiteSpaceAndComments</title>
<polygon fill="white" stroke="white" points="-4,4 -4,-79 352,-79 352,4 -4,4"/>
<!-- Node1 -->
<g id="node1" class="node"><title>Node1</title>
<polygon fill="#bfbfbf" stroke="black" points="0,-23 0,-57 200,-57 200,-23 0,-23"/>
<text text-anchor="start" x="8" y="-43.4" font-family="Helvetica,sans-Serif" font-size="12.00">JSONWorker::RemoveWhiteSpace</text>
<text text-anchor="middle" x="100" y="-30.4" font-family="Helvetica,sans-Serif" font-size="12.00">AndComments</text>
</g>
<!-- Node2 -->
<g id="node2" class="node"><title>Node2</title>
<g id="a_node2"><a xlink:href="../../d0/d9e/namespacelibjson.html#a7588cf35ceb40558478dbd21e0caf3cf" target="_top" xlink:title="libjson::is_valid">
<polygon fill="white" stroke="black" points="244.5,-53.5 244.5,-74.5 339.5,-74.5 339.5,-53.5 244.5,-53.5"/>
<text text-anchor="middle" x="292" y="-60.9" font-family="Helvetica,sans-Serif" font-size="12.00">libjson::is_valid</text>
</a>
</g>
</g>
<!-- Node1&#45;&gt;Node2 -->
<g id="edge1" class="edge"><title>Node1&#45;&gt;Node2</title>
<path fill="none" stroke="midnightblue" d="M210.174,-53.7905C222.016,-55.2862 233.557,-56.744 244.038,-58.068"/>
<polygon fill="midnightblue" stroke="midnightblue" points="210.533,-50.3081 200.174,-52.5272 209.656,-57.2529 210.533,-50.3081"/>
</g>
<!-- Node3 -->
<g id="node3" class="node"><title>Node3</title>
<g id="a_node3"><a xlink:href="../../d0/d9e/namespacelibjson.html#af3491ef34c4987dbe1abedf992f966e1" target="_top" xlink:title="libjson::strip_white\l_space">
<polygon fill="white" stroke="black" points="236,-0 236,-34 348,-34 348,-0 236,-0"/>
<text text-anchor="start" x="244" y="-20.4" font-family="Helvetica,sans-Serif" font-size="12.00">libjson::strip_white</text>
<text text-anchor="middle" x="292" y="-7.4" font-family="Helvetica,sans-Serif" font-size="12.00">_space</text>
</a>
</g>
</g>
<!-- Node1&#45;&gt;Node3 -->
<g id="edge2" class="edge"><title>Node1&#45;&gt;Node3</title>
<path fill="none" stroke="midnightblue" d="M210.174,-26.7842C218.984,-25.7177 227.628,-24.6714 235.793,-23.683"/>
<polygon fill="midnightblue" stroke="midnightblue" points="209.68,-23.3183 200.174,-27.9948 210.522,-30.2676 209.68,-23.3183"/>
</g>
</g>
</svg>
