<?xml version="1.0" encoding="UTF-8" standalone="no"?>
<!DOCTYPE svg PUBLIC "-//W3C//DTD SVG 1.1//EN"
 "http://www.w3.org/Graphics/SVG/1.1/DTD/svg11.dtd">
<!-- Generated by graphviz version 2.34.0 (20130907.0111)
 -->
<!-- Title: JSONWorker::UnfixString Pages: 1 -->
<svg width="1740pt" height="122pt"
 viewBox="0.00 0.00 1740.00 122.00" xmlns="http://www.w3.org/2000/svg" xmlns:xlink="http://www.w3.org/1999/xlink">
<g id="graph0" class="graph" transform="scale(1 1) rotate(0) translate(4 118)">
<title>JSONWorker::UnfixString</title>
<polygon fill="white" stroke="white" points="-4,4 -4,-118 1736,-118 1736,4 -4,4"/>
<!-- Node1 -->
<g id="node1" class="node"><title>Node1</title>
<polygon fill="#bfbfbf" stroke="black" points="0.5,-52.5 0.5,-73.5 149.5,-73.5 149.5,-52.5 0.5,-52.5"/>
<text text-anchor="middle" x="75" y="-59.9" font-family="Helvetica,sans-Serif" font-size="12.00">JSONWorker::UnfixString</text>
</g>
<!-- Node2 -->
<g id="node2" class="node"><title>Node2</title>
<g id="a_node2"><a xlink:href="../../d1/d0b/classinternal_j_s_o_n_node.html#a55bfed9408d7ce2b07097b3e1faa54b6" target="_top" xlink:title="internalJSONNode::Write">
<polygon fill="white" stroke="black" points="202,-72.5 202,-93.5 350,-93.5 350,-72.5 202,-72.5"/>
<text text-anchor="middle" x="276" y="-79.9" font-family="Helvetica,sans-Serif" font-size="12.00">internalJSONNode::Write</text>
</a>
</g>
</g>
<!-- Node1&#45;&gt;Node2 -->
<g id="edge1" class="edge"><title>Node1&#45;&gt;Node2</title>
<path fill="none" stroke="midnightblue" d="M159.634,-71.4054C173.631,-72.8121 188.057,-74.2621 201.767,-75.6399"/>
<polygon fill="midnightblue" stroke="midnightblue" points="159.835,-67.9081 149.535,-70.3904 159.135,-74.873 159.835,-67.9081"/>
</g>
<!-- Node16 -->
<g id="node16" class="node"><title>Node16</title>
<g id="a_node16"><a xlink:href="../../d1/d0b/classinternal_j_s_o_n_node.html#a9e1507c97498c22434fea59b46e8f5b9" target="_top" xlink:title="internalJSONNode::WriteName">
<polygon fill="white" stroke="black" points="186.5,-32.5 186.5,-53.5 365.5,-53.5 365.5,-32.5 186.5,-32.5"/>
<text text-anchor="middle" x="276" y="-39.9" font-family="Helvetica,sans-Serif" font-size="12.00">internalJSONNode::WriteName</text>
</a>
</g>
</g>
<!-- Node1&#45;&gt;Node16 -->
<g id="edge17" class="edge"><title>Node1&#45;&gt;Node16</title>
<path fill="none" stroke="midnightblue" d="M159.735,-54.5844C168.504,-53.7032 177.44,-52.805 186.262,-51.9184"/>
<polygon fill="midnightblue" stroke="midnightblue" points="159.135,-51.127 149.535,-55.6096 159.835,-58.0919 159.135,-51.127"/>
</g>
<!-- Node3 -->
<g id="node3" class="node"><title>Node3</title>
<g id="a_node3"><a xlink:href="../../d6/dc7/class_j_s_o_n_node.html#a9d1b523535c54c224ca16e1ced20a27c" target="_top" xlink:title="JSONNode::write">
<polygon fill="white" stroke="black" points="430.5,-92.5 430.5,-113.5 537.5,-113.5 537.5,-92.5 430.5,-92.5"/>
<text text-anchor="middle" x="484" y="-99.9" font-family="Helvetica,sans-Serif" font-size="12.00">JSONNode::write</text>
</a>
</g>
</g>
<!-- Node2&#45;&gt;Node3 -->
<g id="edge2" class="edge"><title>Node2&#45;&gt;Node3</title>
<path fill="none" stroke="midnightblue" d="M360.258,-91.0833C383.952,-93.3837 409.094,-95.8246 430.411,-97.8943"/>
<polygon fill="midnightblue" stroke="midnightblue" points="360.499,-87.5904 350.208,-90.1076 359.823,-94.5576 360.499,-87.5904"/>
</g>
<!-- Node4 -->
<g id="node4" class="node"><title>Node4</title>
<g id="a_node4"><a xlink:href="../../d6/dc7/class_j_s_o_n_node.html#a5b2d8892d68aa1d9ed2b051424081f74" target="_top" xlink:title="JSONNode::write_formatted">
<polygon fill="white" stroke="black" points="402,-52.5 402,-73.5 566,-73.5 566,-52.5 402,-52.5"/>
<text text-anchor="middle" x="484" y="-59.9" font-family="Helvetica,sans-Serif" font-size="12.00">JSONNode::write_formatted</text>
</a>
</g>
</g>
<!-- Node2&#45;&gt;Node4 -->
<g id="edge3" class="edge"><title>Node2&#45;&gt;Node4</title>
<path fill="none" stroke="midnightblue" d="M360.552,-74.8881C374.222,-73.561 388.366,-72.1877 401.974,-70.8666"/>
<polygon fill="midnightblue" stroke="midnightblue" points="359.823,-71.4424 350.208,-75.8924 360.499,-78.4096 359.823,-71.4424"/>
</g>
<!-- Node5 -->
<g id="node5" class="node"><title>Node5</title>
<g id="a_node5"><a xlink:href="../../d3/d71/jsonhelpers_8h.html#a3a69c2987d346d326aeffb52183db0f4" target="_top" xlink:title="prepareTestSettings">
<polygon fill="white" stroke="black" points="602.5,-52.5 602.5,-73.5 725.5,-73.5 725.5,-52.5 602.5,-52.5"/>
<text text-anchor="middle" x="664" y="-59.9" font-family="Helvetica,sans-Serif" font-size="12.00">prepareTestSettings</text>
</a>
</g>
</g>
<!-- Node4&#45;&gt;Node5 -->
<g id="edge4" class="edge"><title>Node4&#45;&gt;Node5</title>
<path fill="none" stroke="midnightblue" d="M576.216,-63C585.104,-63 593.963,-63 602.437,-63"/>
<polygon fill="midnightblue" stroke="midnightblue" points="576.187,-59.5001 566.187,-63 576.187,-66.5001 576.187,-59.5001"/>
</g>
<!-- Node6 -->
<g id="node6" class="node"><title>Node6</title>
<g id="a_node6"><a xlink:href="../../da/d92/class_image_test.html#a7334d76c1cc6780f46626be5b9ff1adb" target="_top" xlink:title="Runs the test pointed to by m_imatestFunc. ">
<polygon fill="white" stroke="black" points="762,-52.5 762,-73.5 860,-73.5 860,-52.5 762,-52.5"/>
<text text-anchor="middle" x="811" y="-59.9" font-family="Helvetica,sans-Serif" font-size="12.00">ImageTest::Run</text>
</a>
</g>
</g>
<!-- Node5&#45;&gt;Node6 -->
<g id="edge5" class="edge"><title>Node5&#45;&gt;Node6</title>
<path fill="none" stroke="midnightblue" d="M735.657,-63C744.557,-63 753.494,-63 761.931,-63"/>
<polygon fill="midnightblue" stroke="midnightblue" points="735.653,-59.5001 725.653,-63 735.653,-66.5001 735.653,-59.5001"/>
</g>
<!-- Node7 -->
<g id="node7" class="node"><title>Node7</title>
<g id="a_node7"><a xlink:href="../../da/d92/class_image_test.html#accf2cfff6fe48fd19888727208dd6728" target="_top" xlink:title="ImageTest::Run">
<polygon fill="white" stroke="black" points="917,-72.5 917,-93.5 1015,-93.5 1015,-72.5 917,-72.5"/>
<text text-anchor="middle" x="966" y="-79.9" font-family="Helvetica,sans-Serif" font-size="12.00">ImageTest::Run</text>
</a>
</g>
</g>
<!-- Node6&#45;&gt;Node7 -->
<g id="edge6" class="edge"><title>Node6&#45;&gt;Node7</title>
<path fill="none" stroke="midnightblue" d="M870.338,-70.6259C885.716,-72.6361 902.134,-74.7822 916.905,-76.713"/>
<polygon fill="midnightblue" stroke="midnightblue" points="870.779,-67.1539 860.41,-69.3281 869.872,-74.0948 870.779,-67.1539"/>
</g>
<!-- Node8 -->
<g id="node8" class="node"><title>Node8</title>
<g id="a_node8"><a xlink:href="../../da/d92/class_image_test.html#a372478d09c06cd7ab3684840add6215e" target="_top" xlink:title="param must be a pointer to a ThreadControl object; param&#45;&gt;m_data must point to an ImageTest object ...">
<polygon fill="white" stroke="black" points="896.5,-32.5 896.5,-53.5 1035.5,-53.5 1035.5,-32.5 896.5,-32.5"/>
<text text-anchor="middle" x="966" y="-39.9" font-family="Helvetica,sans-Serif" font-size="12.00">ImageTest::ThreadProc</text>
</a>
</g>
</g>
<!-- Node6&#45;&gt;Node8 -->
<g id="edge7" class="edge"><title>Node6&#45;&gt;Node8</title>
<path fill="none" stroke="midnightblue" d="M870.571,-55.3437C879.052,-54.2351 887.845,-53.0857 896.499,-51.9543"/>
<polygon fill="midnightblue" stroke="midnightblue" points="869.872,-51.9052 860.41,-56.6719 870.779,-58.8461 869.872,-51.9052"/>
</g>
<!-- Node9 -->
<g id="node9" class="node"><title>Node9</title>
<g id="a_node9"><a xlink:href="../../d3/d9f/class_c_operator_console_app.html#a51ad7e6e8f370072c3e89d0d7e9e41a8" target="_top" xlink:title="COperatorConsoleApp\l::InitBlemishThread">
<polygon fill="white" stroke="black" points="1072.5,-53 1072.5,-87 1209.5,-87 1209.5,-53 1072.5,-53"/>
<text text-anchor="start" x="1080.5" y="-73.4" font-family="Helvetica,sans-Serif" font-size="12.00">COperatorConsoleApp</text>
<text text-anchor="middle" x="1141" y="-60.4" font-family="Helvetica,sans-Serif" font-size="12.00">::InitBlemishThread</text>
</a>
</g>
</g>
<!-- Node8&#45;&gt;Node9 -->
<g id="edge8" class="edge"><title>Node8&#45;&gt;Node9</title>
<path fill="none" stroke="midnightblue" d="M1044.38,-55.077C1053.67,-56.5264 1063.1,-57.9978 1072.23,-59.4236"/>
<polygon fill="midnightblue" stroke="midnightblue" points="1044.8,-51.6002 1034.38,-53.5162 1043.72,-58.5165 1044.8,-51.6002"/>
</g>
<!-- Node15 -->
<g id="node15" class="node"><title>Node15</title>
<g id="a_node15"><a xlink:href="../../d3/d9f/class_c_operator_console_app.html#af7328d2c00abb1d4a09a65492c69b2b0" target="_top" xlink:title="COperatorConsoleApp\l::InitSFRplusThread">
<polygon fill="white" stroke="black" points="1072.5,-0 1072.5,-34 1209.5,-34 1209.5,-0 1072.5,-0"/>
<text text-anchor="start" x="1080.5" y="-20.4" font-family="Helvetica,sans-Serif" font-size="12.00">COperatorConsoleApp</text>
<text text-anchor="middle" x="1141" y="-7.4" font-family="Helvetica,sans-Serif" font-size="12.00">::InitSFRplusThread</text>
</a>
</g>
</g>
<!-- Node8&#45;&gt;Node15 -->
<g id="edge14" class="edge"><title>Node8&#45;&gt;Node15</title>
<path fill="none" stroke="midnightblue" d="M1045.85,-31.1494C1054.75,-29.812 1063.76,-28.4583 1072.49,-27.1454"/>
<polygon fill="midnightblue" stroke="midnightblue" points="1045.24,-27.702 1035.87,-32.6494 1046.28,-34.6243 1045.24,-27.702"/>
</g>
<!-- Node10 -->
<g id="node10" class="node"><title>Node10</title>
<g id="a_node10"><a xlink:href="../../d3/d9f/class_c_operator_console_app.html#a7f0cd7b21cee2171dea973e4e6e7bb9d" target="_top" xlink:title="Init perform application&#45;specific initialization. ">
<polygon fill="white" stroke="black" points="1246.5,-53 1246.5,-87 1383.5,-87 1383.5,-53 1246.5,-53"/>
<text text-anchor="start" x="1254.5" y="-73.4" font-family="Helvetica,sans-Serif" font-size="12.00">COperatorConsoleApp</text>
<text text-anchor="middle" x="1315" y="-60.4" font-family="Helvetica,sans-Serif" font-size="12.00">::Init</text>
</a>
</g>
</g>
<!-- Node9&#45;&gt;Node10 -->
<g id="edge9" class="edge"><title>Node9&#45;&gt;Node10</title>
<path fill="none" stroke="midnightblue" d="M1220.13,-70C1228.85,-70 1237.67,-70 1246.23,-70"/>
<polygon fill="midnightblue" stroke="midnightblue" points="1219.98,-66.5001 1209.98,-70 1219.98,-73.5001 1219.98,-66.5001"/>
</g>
<!-- Node12 -->
<g id="node12" class="node"><title>Node12</title>
<g id="a_node12"><a xlink:href="../../d3/d9f/class_c_operator_console_app.html#aede77af6cae8053d49c752fd95910728" target="_top" xlink:title="This function allows for reallocation of the various image buffers when we change the image size...">
<polygon fill="white" stroke="black" points="1246.5,-0 1246.5,-34 1383.5,-34 1383.5,-0 1246.5,-0"/>
<text text-anchor="start" x="1254.5" y="-20.4" font-family="Helvetica,sans-Serif" font-size="12.00">COperatorConsoleApp</text>
<text text-anchor="middle" x="1315" y="-7.4" font-family="Helvetica,sans-Serif" font-size="12.00">::ReInit</text>
</a>
</g>
</g>
<!-- Node9&#45;&gt;Node12 -->
<g id="edge11" class="edge"><title>Node9&#45;&gt;Node12</title>
<path fill="none" stroke="midnightblue" d="M1207.21,-49.9056C1224.19,-44.6732 1242.32,-39.0863 1258.74,-34.0293"/>
<polygon fill="midnightblue" stroke="midnightblue" points="1205.89,-46.6491 1197.37,-52.9387 1207.96,-53.3387 1205.89,-46.6491"/>
</g>
<!-- Node11 -->
<g id="node11" class="node"><title>Node11</title>
<g id="a_node11"><a xlink:href="../../d3/d9f/class_c_operator_console_app.html#a94f4b258145e77e31644beb999bf099a" target="_top" xlink:title="COperatorConsoleApp initialization. ">
<polygon fill="white" stroke="black" points="1420.5,-53 1420.5,-87 1557.5,-87 1557.5,-53 1420.5,-53"/>
<text text-anchor="start" x="1428.5" y="-73.4" font-family="Helvetica,sans-Serif" font-size="12.00">COperatorConsoleApp</text>
<text text-anchor="middle" x="1489" y="-60.4" font-family="Helvetica,sans-Serif" font-size="12.00">::InitInstance</text>
</a>
</g>
</g>
<!-- Node10&#45;&gt;Node11 -->
<g id="edge10" class="edge"><title>Node10&#45;&gt;Node11</title>
<path fill="none" stroke="midnightblue" d="M1394.13,-70C1402.85,-70 1411.67,-70 1420.23,-70"/>
<polygon fill="midnightblue" stroke="midnightblue" points="1393.98,-66.5001 1383.98,-70 1393.98,-73.5001 1393.98,-66.5001"/>
</g>
<!-- Node13 -->
<g id="node13" class="node"><title>Node13</title>
<g id="a_node13"><a xlink:href="../../d3/d9f/class_c_operator_console_app.html#a620f8d2eed65d743bb177abcb90936e6" target="_top" xlink:title="Called after MSG_SETUP is received. ">
<polygon fill="white" stroke="black" points="1420.5,-0 1420.5,-34 1557.5,-34 1557.5,-0 1420.5,-0"/>
<text text-anchor="start" x="1428.5" y="-20.4" font-family="Helvetica,sans-Serif" font-size="12.00">COperatorConsoleApp</text>
<text text-anchor="middle" x="1489" y="-7.4" font-family="Helvetica,sans-Serif" font-size="12.00">::OnSetup</text>
</a>
</g>
</g>
<!-- Node12&#45;&gt;Node13 -->
<g id="edge12" class="edge"><title>Node12&#45;&gt;Node13</title>
<path fill="none" stroke="midnightblue" d="M1394.13,-17C1402.85,-17 1411.67,-17 1420.23,-17"/>
<polygon fill="midnightblue" stroke="midnightblue" points="1393.98,-13.5001 1383.98,-17 1393.98,-20.5001 1393.98,-13.5001"/>
</g>
<!-- Node14 -->
<g id="node14" class="node"><title>Node14</title>
<g id="a_node14"><a xlink:href="../../d3/d9f/class_c_operator_console_app.html#a7041d197c4e6549f2cb7219981b4eec1" target="_top" xlink:title="Intercepts messages of interest before Windows or MFC. ">
<polygon fill="white" stroke="black" points="1594,-0 1594,-34 1732,-34 1732,-0 1594,-0"/>
<text text-anchor="start" x="1602" y="-20.4" font-family="Helvetica,sans-Serif" font-size="12.00">COperatorConsoleApp</text>
<text text-anchor="middle" x="1663" y="-7.4" font-family="Helvetica,sans-Serif" font-size="12.00">::PreTranslateMessage</text>
</a>
</g>
</g>
<!-- Node13&#45;&gt;Node14 -->
<g id="edge13" class="edge"><title>Node13&#45;&gt;Node14</title>
<path fill="none" stroke="midnightblue" d="M1568.05,-17C1576.7,-17 1585.45,-17 1593.95,-17"/>
<polygon fill="midnightblue" stroke="midnightblue" points="1567.98,-13.5001 1557.98,-17 1567.98,-20.5001 1567.98,-13.5001"/>
</g>
<!-- Node15&#45;&gt;Node10 -->
<g id="edge15" class="edge"><title>Node15&#45;&gt;Node10</title>
<path fill="none" stroke="midnightblue" d="M1207.21,-37.0944C1224.19,-42.3268 1242.32,-47.9137 1258.74,-52.9707"/>
<polygon fill="midnightblue" stroke="midnightblue" points="1207.96,-33.6613 1197.37,-34.0613 1205.89,-40.3509 1207.96,-33.6613"/>
</g>
<!-- Node15&#45;&gt;Node12 -->
<g id="edge16" class="edge"><title>Node15&#45;&gt;Node12</title>
<path fill="none" stroke="midnightblue" d="M1220.13,-17C1228.85,-17 1237.67,-17 1246.23,-17"/>
<polygon fill="midnightblue" stroke="midnightblue" points="1219.98,-13.5001 1209.98,-17 1219.98,-20.5001 1219.98,-13.5001"/>
</g>
</g>
</svg>
