<?xml version="1.0" encoding="UTF-8" standalone="no"?>
<!DOCTYPE svg PUBLIC "-//W3C//DTD SVG 1.1//EN"
 "http://www.w3.org/Graphics/SVG/1.1/DTD/svg11.dtd">
<!-- Generated by graphviz version 2.34.0 (20130907.0111)
 -->
<!-- Title: Config::Init Pages: 1 -->
<svg width="428pt" height="42pt"
 viewBox="0.00 0.00 428.00 42.00" xmlns="http://www.w3.org/2000/svg" xmlns:xlink="http://www.w3.org/1999/xlink">
<g id="graph0" class="graph" transform="scale(1 1) rotate(0) translate(4 38)">
<title>Config::Init</title>
<polygon fill="white" stroke="white" points="-4,4 -4,-38 424,-38 424,4 -4,4"/>
<!-- Node1 -->
<g id="node1" class="node"><title>Node1</title>
<polygon fill="#bfbfbf" stroke="black" points="0.5,-6.5 0.5,-27.5 71.5,-27.5 71.5,-6.5 0.5,-6.5"/>
<text text-anchor="middle" x="36" y="-13.9" font-family="Helvetica,sans-Serif" font-size="12.00">Config::Init</text>
</g>
<!-- Node2 -->
<g id="node2" class="node"><title>Node2</title>
<g id="a_node2"><a xlink:href="../../d3/d9f/class_c_operator_console_app.html#a7f0cd7b21cee2171dea973e4e6e7bb9d" target="_top" xlink:title="Init perform application&#45;specific initialization. ">
<polygon fill="white" stroke="black" points="108.5,-0 108.5,-34 245.5,-34 245.5,-0 108.5,-0"/>
<text text-anchor="start" x="116.5" y="-20.4" font-family="Helvetica,sans-Serif" font-size="12.00">COperatorConsoleApp</text>
<text text-anchor="middle" x="177" y="-7.4" font-family="Helvetica,sans-Serif" font-size="12.00">::Init</text>
</a>
</g>
</g>
<!-- Node1&#45;&gt;Node2 -->
<g id="edge1" class="edge"><title>Node1&#45;&gt;Node2</title>
<path fill="none" stroke="midnightblue" d="M81.774,-17C90.2839,-17 99.3625,-17 108.398,-17"/>
<polygon fill="midnightblue" stroke="midnightblue" points="81.717,-13.5001 71.717,-17 81.717,-20.5001 81.717,-13.5001"/>
</g>
<!-- Node3 -->
<g id="node3" class="node"><title>Node3</title>
<g id="a_node3"><a xlink:href="../../d3/d9f/class_c_operator_console_app.html#a94f4b258145e77e31644beb999bf099a" target="_top" xlink:title="COperatorConsoleApp initialization. ">
<polygon fill="white" stroke="black" points="282.5,-0 282.5,-34 419.5,-34 419.5,-0 282.5,-0"/>
<text text-anchor="start" x="290.5" y="-20.4" font-family="Helvetica,sans-Serif" font-size="12.00">COperatorConsoleApp</text>
<text text-anchor="middle" x="351" y="-7.4" font-family="Helvetica,sans-Serif" font-size="12.00">::InitInstance</text>
</a>
</g>
</g>
<!-- Node2&#45;&gt;Node3 -->
<g id="edge2" class="edge"><title>Node2&#45;&gt;Node3</title>
<path fill="none" stroke="midnightblue" d="M256.134,-17C264.846,-17 273.666,-17 282.233,-17"/>
<polygon fill="midnightblue" stroke="midnightblue" points="255.979,-13.5001 245.979,-17 255.979,-20.5001 255.979,-13.5001"/>
</g>
</g>
</svg>
