<?xml version="1.0" encoding="UTF-8" standalone="no"?>
<!DOCTYPE svg PUBLIC "-//W3C//DTD SVG 1.1//EN"
 "http://www.w3.org/Graphics/SVG/1.1/DTD/svg11.dtd">
<!-- Generated by graphviz version 2.34.0 (20130907.0111)
 -->
<!-- Title: SimpleDirectShowAcq Pages: 1 -->
<svg width="142pt" height="88pt"
 viewBox="0.00 0.00 142.00 88.00" xmlns="http://www.w3.org/2000/svg" xmlns:xlink="http://www.w3.org/1999/xlink">
<g id="graph0" class="graph" transform="scale(1 1) rotate(0) translate(4 84)">
<title>SimpleDirectShowAcq</title>
<polygon fill="white" stroke="white" points="-4,4 -4,-84 138,-84 138,4 -4,4"/>
<!-- Node1 -->
<g id="node1" class="node"><title>Node1</title>
<polygon fill="#bfbfbf" stroke="black" points="-0.5,-0.5 -0.5,-21.5 134.5,-21.5 134.5,-0.5 -0.5,-0.5"/>
<text text-anchor="middle" x="67" y="-7.9" font-family="Helvetica,sans-Serif" font-size="12.00">SimpleDirectShowAcq</text>
</g>
<!-- Node2 -->
<g id="node2" class="node"><title>Node2</title>
<g id="a_node2"><a xlink:href="../../d8/d29/class_image_acquisition.html" target="_top" xlink:title="the base class for image acquisition ">
<polygon fill="white" stroke="black" points="13.5,-58.5 13.5,-79.5 120.5,-79.5 120.5,-58.5 13.5,-58.5"/>
<text text-anchor="middle" x="67" y="-65.9" font-family="Helvetica,sans-Serif" font-size="12.00">ImageAcquisition</text>
</a>
</g>
</g>
<!-- Node2&#45;&gt;Node1 -->
<g id="edge1" class="edge"><title>Node2&#45;&gt;Node1</title>
<path fill="none" stroke="midnightblue" d="M60.5113,-48.1575C59.919,-39.155 60.3335,-28.9199 61.7549,-21.6427"/>
<polygon fill="midnightblue" stroke="midnightblue" points="57.0561,-48.739 61.7332,-58.2455 64.0053,-47.8972 57.0561,-48.739"/>
</g>
<!-- Node2&#45;&gt;Node1 -->
<g id="edge2" class="edge"><title>Node2&#45;&gt;Node1</title>
<path fill="none" stroke="midnightblue" d="M73.4887,-48.1575C74.081,-39.155 73.6665,-28.9199 72.2451,-21.6427"/>
<polygon fill="midnightblue" stroke="midnightblue" points="69.9947,-47.8972 72.2668,-58.2455 76.9439,-48.739 69.9947,-47.8972"/>
</g>
</g>
</svg>
