<?xml version="1.0" encoding="UTF-8" standalone="no"?>
<!DOCTYPE svg PUBLIC "-//W3C//DTD SVG 1.1//EN"
 "http://www.w3.org/Graphics/SVG/1.1/DTD/svg11.dtd">
<!-- Generated by graphviz version 2.34.0 (20130907.0111)
 -->
<!-- Title: Documentation/Operator&#45;Console/JSON Pages: 1 -->
<svg width="134pt" height="185pt"
 viewBox="0.00 0.00 134.00 185.00" xmlns="http://www.w3.org/2000/svg" xmlns:xlink="http://www.w3.org/1999/xlink">
<g id="graph0" class="graph" transform="scale(1 1) rotate(0) translate(4 181)">
<title>Documentation/Operator&#45;Console/JSON</title>
<polygon fill="white" stroke="white" points="-4,4 -4,-181 130,-181 130,4 -4,4"/>
<g id="clust1" class="cluster"><title>clusterdir_6f3e0092e3b1652822c8889e52cc0a29</title>
<g id="a_clust1"><a xlink:href="dir_6f3e0092e3b1652822c8889e52cc0a29.html" target="_top" xlink:title="Operator&#45;Console">
<polygon fill="#ddddee" stroke="black" points="8,-8 8,-169 118,-169 118,-8 8,-8"/>
<text text-anchor="middle" x="63" y="-155.4" font-family="Helvetica,sans-Serif" font-size="12.00">Operator&#45;Console</text>
</a>
</g>
</g>
<g id="clust2" class="cluster"><title>clusterdir_d3517d2282a5c37079e477f96925cbcd</title>
<g id="a_clust2"><a xlink:href="dir_d3517d2282a5c37079e477f96925cbcd.html" target="_top">
<polygon fill="#eeeeff" stroke="black" points="18,-16 18,-140 108,-140 108,-16 18,-16"/>
</a>
</g>
</g>
<!-- dir_d3517d2282a5c37079e477f96925cbcd -->
<g id="node1" class="node"><title>dir_d3517d2282a5c37079e477f96925cbcd</title>
<text text-anchor="middle" x="63" y="-110.9" font-family="Helvetica,sans-Serif" font-size="12.00">JSON</text>
</g>
<!-- dir_65cb834a77962d967c9bc6c573dc7507 -->
<g id="node2" class="node"><title>dir_65cb834a77962d967c9bc6c573dc7507</title>
<g id="a_node2"><a xlink:href="dir_65cb834a77962d967c9bc6c573dc7507.html" target="_top" xlink:title="JSONDefs">
<polygon fill="white" stroke="black" points="99.25,-60 26.75,-60 26.75,-24 99.25,-24 99.25,-60"/>
<text text-anchor="middle" x="63" y="-38.9" font-family="Helvetica,sans-Serif" font-size="12.00">JSONDefs</text>
</a>
</g>
</g>
<!-- dir_d3517d2282a5c37079e477f96925cbcd&#45;&gt;dir_65cb834a77962d967c9bc6c573dc7507 -->
<g id="edge1" class="edge"><title>dir_d3517d2282a5c37079e477f96925cbcd&#45;&gt;dir_65cb834a77962d967c9bc6c573dc7507</title>
<path fill="none" stroke="black" d="M63,-95.6966C63,-87.9827 63,-78.7125 63,-70.1124"/>
<polygon fill="black" stroke="black" points="66.5001,-70.1043 63,-60.1043 59.5001,-70.1044 66.5001,-70.1043"/>
<g id="a_edge1&#45;headlabel"><a xlink:href="dir_000003_000005.html" target="_top" xlink:title="4">
<text text-anchor="middle" x="69.3393" y="-70.599" font-family="Helvetica,sans-Serif" font-size="12.00">4</text>
</a>
</g>
</g>
</g>
</svg>
