<?xml version="1.0" encoding="UTF-8" standalone="no"?>
<!DOCTYPE svg PUBLIC "-//W3C//DTD SVG 1.1//EN"
 "http://www.w3.org/Graphics/SVG/1.1/DTD/svg11.dtd">
<!-- Generated by graphviz version 2.34.0 (20130907.0111)
 -->
<!-- Title: Documentation/Operator&#45;Console Pages: 1 -->
<svg width="238pt" height="185pt"
 viewBox="0.00 0.00 238.00 185.00" xmlns="http://www.w3.org/2000/svg" xmlns:xlink="http://www.w3.org/1999/xlink">
<g id="graph0" class="graph" transform="scale(1 1) rotate(0) translate(4 181)">
<title>Documentation/Operator&#45;Console</title>
<polygon fill="white" stroke="white" points="-4,4 -4,-181 234,-181 234,4 -4,4"/>
<g id="clust1" class="cluster"><title>clusterdir_f9dfd35b172a0e2036ace76497fb239b</title>
<g id="a_clust1"><a xlink:href="dir_f9dfd35b172a0e2036ace76497fb239b.html" target="_top" xlink:title="Documentation">
<polygon fill="#ddddee" stroke="black" points="8,-8 8,-169 222,-169 222,-8 8,-8"/>
<text text-anchor="middle" x="115" y="-155.4" font-family="Helvetica,sans-Serif" font-size="12.00">Documentation</text>
</a>
</g>
</g>
<g id="clust2" class="cluster"><title>clusterdir_6f3e0092e3b1652822c8889e52cc0a29</title>
<g id="a_clust2"><a xlink:href="dir_6f3e0092e3b1652822c8889e52cc0a29.html" target="_top">
<polygon fill="#eeeeff" stroke="black" points="16,-16 16,-140 214,-140 214,-16 16,-16"/>
</a>
</g>
</g>
<!-- dir_6f3e0092e3b1652822c8889e52cc0a29 -->
<g id="node1" class="node"><title>dir_6f3e0092e3b1652822c8889e52cc0a29</title>
<text text-anchor="middle" x="151" y="-110.9" font-family="Helvetica,sans-Serif" font-size="12.00">Operator&#45;Console</text>
</g>
<!-- dir_cfed789032586f0ad6b24963430c2af6 -->
<g id="node2" class="node"><title>dir_cfed789032586f0ad6b24963430c2af6</title>
<g id="a_node2"><a xlink:href="dir_cfed789032586f0ad6b24963430c2af6.html" target="_top" xlink:title="escapi21">
<polygon fill="white" stroke="black" points="183.25,-60 118.75,-60 118.75,-24 183.25,-24 183.25,-60"/>
<text text-anchor="middle" x="151" y="-38.9" font-family="Helvetica,sans-Serif" font-size="12.00">escapi21</text>
</a>
</g>
</g>
<!-- dir_6f3e0092e3b1652822c8889e52cc0a29&#45;&gt;dir_cfed789032586f0ad6b24963430c2af6 -->
<g id="edge1" class="edge"><title>dir_6f3e0092e3b1652822c8889e52cc0a29&#45;&gt;dir_cfed789032586f0ad6b24963430c2af6</title>
<path fill="none" stroke="black" d="M151,-95.6966C151,-87.9827 151,-78.7125 151,-70.1124"/>
<polygon fill="black" stroke="black" points="154.5,-70.1043 151,-60.1043 147.5,-70.1044 154.5,-70.1043"/>
<g id="a_edge1&#45;headlabel"><a xlink:href="dir_000001_000002.html" target="_top" xlink:title="1">
<text text-anchor="middle" x="157.339" y="-70.599" font-family="Helvetica,sans-Serif" font-size="12.00">1</text>
</a>
</g>
</g>
<!-- dir_d3517d2282a5c37079e477f96925cbcd -->
<g id="node3" class="node"><title>dir_d3517d2282a5c37079e477f96925cbcd</title>
<g id="a_node3"><a xlink:href="dir_d3517d2282a5c37079e477f96925cbcd.html" target="_top" xlink:title="JSON">
<polygon fill="white" stroke="red" points="78,-132 24,-132 24,-96 78,-96 78,-132"/>
<text text-anchor="middle" x="51" y="-110.9" font-family="Helvetica,sans-Serif" font-size="12.00">JSON</text>
</a>
</g>
</g>
</g>
</svg>
