<?xml version="1.0" encoding="UTF-8" standalone="no"?>
<!DOCTYPE svg PUBLIC "-//W3C//DTD SVG 1.1//EN"
 "http://www.w3.org/Graphics/SVG/1.1/DTD/svg11.dtd">
<!-- Generated by graphviz version 2.34.0 (20130907.0111)
 -->
<!-- Title: Graph Legend Pages: 1 -->
<svg width="570pt" height="174pt"
 viewBox="0.00 0.00 570.00 174.00" xmlns="http://www.w3.org/2000/svg" xmlns:xlink="http://www.w3.org/1999/xlink">
<g id="graph0" class="graph" transform="scale(1 1) rotate(0) translate(4 170)">
<title>Graph Legend</title>
<polygon fill="white" stroke="white" points="-4,4 -4,-170 566,-170 566,4 -4,4"/>
<!-- Node9 -->
<g id="node1" class="node"><title>Node9</title>
<polygon fill="#bfbfbf" stroke="black" points="331.25,-21.5 270.75,-21.5 270.75,-0.5 331.25,-0.5 331.25,-21.5"/>
<text text-anchor="middle" x="301" y="-7.9" font-family="Helvetica,sans-Serif" font-size="12.00">Inherited</text>
</g>
<!-- Node10 -->
<g id="node2" class="node"><title>Node10</title>
<g id="a_node2"><a xlink:href="$classPublicBase.html" xlink:title="PublicBase">
<polygon fill="none" stroke="black" points="76.25,-93.5 -0.25,-93.5 -0.25,-72.5 76.25,-72.5 76.25,-93.5"/>
<text text-anchor="middle" x="38" y="-79.9" font-family="Helvetica,sans-Serif" font-size="12.00">PublicBase</text>
</a>
</g>
</g>
<!-- Node10&#45;&gt;Node9 -->
<g id="edge1" class="edge"><title>Node10&#45;&gt;Node9</title>
<path fill="none" stroke="midnightblue" d="M83.6693,-69.8447C137.291,-55.5726 224.725,-32.3014 270.642,-20.08"/>
<polygon fill="midnightblue" stroke="midnightblue" points="82.5064,-66.5323 73.7431,-72.4866 84.3069,-73.2968 82.5064,-66.5323"/>
</g>
<!-- Node11 -->
<g id="node3" class="node"><title>Node11</title>
<g id="a_node3"><a xlink:href="$classTruncated.html" xlink:title="Truncated">
<polygon fill="none" stroke="red" points="72,-165.5 4,-165.5 4,-144.5 72,-144.5 72,-165.5"/>
<text text-anchor="middle" x="38" y="-151.9" font-family="Helvetica,sans-Serif" font-size="12.00">Truncated</text>
</a>
</g>
</g>
<!-- Node11&#45;&gt;Node10 -->
<g id="edge2" class="edge"><title>Node11&#45;&gt;Node10</title>
<path fill="none" stroke="midnightblue" d="M38,-134.199C38,-120.938 38,-104.065 38,-93.6505"/>
<polygon fill="midnightblue" stroke="midnightblue" points="34.5001,-134.267 38,-144.267 41.5001,-134.267 34.5001,-134.267"/>
</g>
<!-- Node13 -->
<g id="node4" class="node"><title>Node13</title>
<g id="a_node4"><a xlink:href="$classProtectedBase.html" xlink:title="ProtectedBase">
<polygon fill="none" stroke="black" points="189.25,-93.5 94.75,-93.5 94.75,-72.5 189.25,-72.5 189.25,-93.5"/>
<text text-anchor="middle" x="142" y="-79.9" font-family="Helvetica,sans-Serif" font-size="12.00">ProtectedBase</text>
</a>
</g>
</g>
<!-- Node13&#45;&gt;Node9 -->
<g id="edge3" class="edge"><title>Node13&#45;&gt;Node9</title>
<path fill="none" stroke="darkgreen" d="M173.322,-68.2103C204.596,-54.4418 251.84,-33.6429 279.234,-21.5827"/>
<polygon fill="darkgreen" stroke="darkgreen" points="171.517,-65.1809 163.775,-72.4136 174.337,-71.5875 171.517,-65.1809"/>
</g>
<!-- Node14 -->
<g id="node5" class="node"><title>Node14</title>
<g id="a_node5"><a xlink:href="$classPrivateBase.html" xlink:title="PrivateBase">
<polygon fill="none" stroke="black" points="288.25,-93.5 207.75,-93.5 207.75,-72.5 288.25,-72.5 288.25,-93.5"/>
<text text-anchor="middle" x="248" y="-79.9" font-family="Helvetica,sans-Serif" font-size="12.00">PrivateBase</text>
</a>
</g>
</g>
<!-- Node14&#45;&gt;Node9 -->
<g id="edge4" class="edge"><title>Node14&#45;&gt;Node9</title>
<path fill="none" stroke="#8b1a1a" d="M261.508,-64.1593C271.743,-50.6412 285.414,-32.5854 293.693,-21.6505"/>
<polygon fill="#8b1a1a" stroke="#8b1a1a" points="258.615,-62.1814 255.369,-72.2668 264.196,-66.4069 258.615,-62.1814"/>
</g>
<!-- Node15 -->
<g id="node6" class="node"><title>Node15</title>
<polygon fill="none" stroke="#bfbfbf" points="401.25,-93.5 306.75,-93.5 306.75,-72.5 401.25,-72.5 401.25,-93.5"/>
<text text-anchor="middle" x="354" y="-79.9" font-family="Helvetica,sans-Serif" font-size="12.00">Undocumented</text>
</g>
<!-- Node15&#45;&gt;Node9 -->
<g id="edge5" class="edge"><title>Node15&#45;&gt;Node9</title>
<path fill="none" stroke="midnightblue" d="M340.492,-64.1593C330.257,-50.6412 316.586,-32.5854 308.307,-21.6505"/>
<polygon fill="midnightblue" stroke="midnightblue" points="337.804,-66.4069 346.631,-72.2668 343.385,-62.1814 337.804,-66.4069"/>
</g>
<!-- Node16 -->
<g id="node7" class="node"><title>Node16</title>
<g id="a_node7"><a xlink:href="$classTempl.html" xlink:title="Templ&lt; int &gt;">
<polygon fill="none" stroke="black" points="500,-93.5 420,-93.5 420,-72.5 500,-72.5 500,-93.5"/>
<text text-anchor="middle" x="460" y="-79.9" font-family="Helvetica,sans-Serif" font-size="12.00">Templ&lt; int &gt;</text>
</a>
</g>
</g>
<!-- Node16&#45;&gt;Node9 -->
<g id="edge6" class="edge"><title>Node16&#45;&gt;Node9</title>
<path fill="none" stroke="midnightblue" d="M428.678,-68.2103C397.404,-54.4418 350.16,-33.6429 322.766,-21.5827"/>
<polygon fill="midnightblue" stroke="midnightblue" points="427.663,-71.5875 438.225,-72.4136 430.483,-65.1809 427.663,-71.5875"/>
</g>
<!-- Node17 -->
<g id="node8" class="node"><title>Node17</title>
<g id="a_node8"><a xlink:href="$classTempl.html" xlink:title="Templ&lt; T &gt;">
<polygon fill="none" stroke="black" points="497.25,-165.5 422.75,-165.5 422.75,-144.5 497.25,-144.5 497.25,-165.5"/>
<text text-anchor="middle" x="460" y="-151.9" font-family="Helvetica,sans-Serif" font-size="12.00">Templ&lt; T &gt;</text>
</a>
</g>
</g>
<!-- Node17&#45;&gt;Node16 -->
<g id="edge7" class="edge"><title>Node17&#45;&gt;Node16</title>
<path fill="none" stroke="orange" stroke-dasharray="5,2" d="M460,-134.199C460,-120.938 460,-104.065 460,-93.6505"/>
<polygon fill="orange" stroke="orange" points="456.5,-134.267 460,-144.267 463.5,-134.267 456.5,-134.267"/>
<text text-anchor="middle" x="476" y="-115.9" font-family="Helvetica,sans-Serif" font-size="12.00">&lt; int &gt;</text>
</g>
<!-- Node18 -->
<g id="node9" class="node"><title>Node18</title>
<g id="a_node9"><a xlink:href="$classUsed.html" xlink:title="Used">
<polygon fill="none" stroke="black" points="562,-93.5 518,-93.5 518,-72.5 562,-72.5 562,-93.5"/>
<text text-anchor="middle" x="540" y="-79.9" font-family="Helvetica,sans-Serif" font-size="12.00">Used</text>
</a>
</g>
</g>
<!-- Node18&#45;&gt;Node9 -->
<g id="edge8" class="edge"><title>Node18&#45;&gt;Node9</title>
<path fill="none" stroke="#9a32cd" stroke-dasharray="5,2" d="M508.017,-71.7591C439.508,-50.9213 370.173,-31.2937 331.401,-20.4488"/>
<polygon fill="#9a32cd" stroke="#9a32cd" points="507.089,-75.1352 517.675,-74.7066 509.132,-68.44 507.089,-75.1352"/>
<text text-anchor="middle" x="483.5" y="-43.9" font-family="Helvetica,sans-Serif" font-size="12.00">m_usedClass</text>
</g>
</g>
</svg>
