<?xml version="1.0" encoding="UTF-8" standalone="no"?>
<!DOCTYPE svg PUBLIC "-//W3C//DTD SVG 1.1//EN"
 "http://www.w3.org/Graphics/SVG/1.1/DTD/svg11.dtd">
<!-- Generated by graphviz version 2.34.0 (20130907.0111)
 -->
<!-- Title: Graphical Class Hierarchy Pages: 1 -->
<svg width="252pt" height="270pt"
 viewBox="0.00 0.00 252.00 270.00" xmlns="http://www.w3.org/2000/svg" xmlns:xlink="http://www.w3.org/1999/xlink">
<g id="graph0" class="graph" transform="scale(1 1) rotate(0) translate(4 266)">
<title>Graphical Class Hierarchy</title>
<polygon fill="white" stroke="white" points="-4,4 -4,-266 248,-266 248,4 -4,4"/>
<!-- Node1 -->
<g id="node1" class="node"><title>Node1</title>
<polygon fill="white" stroke="#bfbfbf" points="0,-120.5 0,-141.5 74,-141.5 74,-120.5 0,-120.5"/>
<text text-anchor="middle" x="37" y="-127.9" font-family="Helvetica,sans-Serif" font-size="12.00">CDialogEx</text>
</g>
<!-- Node2 -->
<g id="node2" class="node"><title>Node2</title>
<g id="a_node2"><a xlink:href="de/d70/class_c_about_dlg.html" target="_top" xlink:title="CAboutDlg dialog used for App About. ">
<polygon fill="white" stroke="black" points="140,-240.5 140,-261.5 214,-261.5 214,-240.5 140,-240.5"/>
<text text-anchor="middle" x="177" y="-247.9" font-family="Helvetica,sans-Serif" font-size="12.00">CAboutDlg</text>
</a>
</g>
</g>
<!-- Node1&#45;&gt;Node2 -->
<g id="edge1" class="edge"><title>Node1&#45;&gt;Node2</title>
<path fill="none" stroke="midnightblue" d="M47.1047,-150.518C58.6314,-173.135 80.5869,-209.979 110,-231 118.767,-237.265 129.527,-241.597 139.795,-244.581"/>
<polygon fill="midnightblue" stroke="midnightblue" points="50.2309,-148.943 42.6823,-141.509 43.9473,-152.028 50.2309,-148.943"/>
</g>
<!-- Node3 -->
<g id="node3" class="node"><title>Node3</title>
<g id="a_node3"><a xlink:href="dd/dd1/class_c_operator_console_dlg.html" target="_top" xlink:title="The class underlying the main dialog. ">
<polygon fill="white" stroke="black" points="110,-200.5 110,-221.5 244,-221.5 244,-200.5 110,-200.5"/>
<text text-anchor="middle" x="177" y="-207.9" font-family="Helvetica,sans-Serif" font-size="12.00">COperatorConsoleDlg</text>
</a>
</g>
</g>
<!-- Node1&#45;&gt;Node3 -->
<g id="edge2" class="edge"><title>Node1&#45;&gt;Node3</title>
<path fill="none" stroke="midnightblue" d="M55.5051,-149.08C69.2341,-162.339 89.4073,-179.897 110,-191 116.956,-194.75 124.711,-197.896 132.393,-200.5"/>
<polygon fill="midnightblue" stroke="midnightblue" points="57.778,-146.405 48.2118,-141.85 52.8501,-151.376 57.778,-146.405"/>
</g>
<!-- Node4 -->
<g id="node4" class="node"><title>Node4</title>
<g id="a_node4"><a xlink:href="d1/d44/class_c_pass_fail.html" target="_top" xlink:title="The class underlying the PassFail dialog. ">
<polygon fill="white" stroke="black" points="141,-160.5 141,-181.5 213,-181.5 213,-160.5 141,-160.5"/>
<text text-anchor="middle" x="177" y="-167.9" font-family="Helvetica,sans-Serif" font-size="12.00">CPassFail</text>
</a>
</g>
</g>
<!-- Node1&#45;&gt;Node4 -->
<g id="edge3" class="edge"><title>Node1&#45;&gt;Node4</title>
<path fill="none" stroke="midnightblue" d="M83.9907,-144.331C102.561,-149.713 123.643,-155.824 140.937,-160.837"/>
<polygon fill="midnightblue" stroke="midnightblue" points="84.837,-140.932 74.2579,-141.51 82.8881,-147.655 84.837,-140.932"/>
</g>
<!-- Node5 -->
<g id="node5" class="node"><title>Node5</title>
<g id="a_node5"><a xlink:href="d9/d42/class_c_password_dialog.html" target="_top" xlink:title="a class for a simple password query dialog ">
<polygon fill="white" stroke="black" points="120.5,-120.5 120.5,-141.5 233.5,-141.5 233.5,-120.5 120.5,-120.5"/>
<text text-anchor="middle" x="177" y="-127.9" font-family="Helvetica,sans-Serif" font-size="12.00">CPasswordDialog</text>
</a>
</g>
</g>
<!-- Node1&#45;&gt;Node5 -->
<g id="edge4" class="edge"><title>Node1&#45;&gt;Node5</title>
<path fill="none" stroke="midnightblue" d="M84.5467,-131C96.0846,-131 108.563,-131 120.482,-131"/>
<polygon fill="midnightblue" stroke="midnightblue" points="84.2579,-127.5 74.2579,-131 84.2578,-134.5 84.2579,-127.5"/>
</g>
<!-- Node6 -->
<g id="node6" class="node"><title>Node6</title>
<g id="a_node6"><a xlink:href="da/d8d/class_c_setup.html" target="_top" xlink:title="The class underlying the setup dialog. ">
<polygon fill="white" stroke="black" points="149,-80.5 149,-101.5 205,-101.5 205,-80.5 149,-80.5"/>
<text text-anchor="middle" x="177" y="-87.9" font-family="Helvetica,sans-Serif" font-size="12.00">CSetup</text>
</a>
</g>
</g>
<!-- Node1&#45;&gt;Node6 -->
<g id="edge5" class="edge"><title>Node1&#45;&gt;Node6</title>
<path fill="none" stroke="midnightblue" d="M84.1479,-117.624C105.569,-111.415 130.304,-104.245 148.705,-98.9117"/>
<polygon fill="midnightblue" stroke="midnightblue" points="82.8881,-114.345 74.2579,-120.49 84.837,-121.068 82.8881,-114.345"/>
</g>
<!-- Node7 -->
<g id="node7" class="node"><title>Node7</title>
<g id="a_node7"><a xlink:href="d8/d8f/class_msg_dialog.html" target="_top" xlink:title="MsgDialog">
<polygon fill="white" stroke="black" points="140,-40.5 140,-61.5 214,-61.5 214,-40.5 140,-40.5"/>
<text text-anchor="middle" x="177" y="-47.9" font-family="Helvetica,sans-Serif" font-size="12.00">MsgDialog</text>
</a>
</g>
</g>
<!-- Node1&#45;&gt;Node7 -->
<g id="edge6" class="edge"><title>Node1&#45;&gt;Node7</title>
<path fill="none" stroke="midnightblue" d="M55.5051,-112.92C69.2341,-99.6607 89.4073,-82.1029 110,-71 119.169,-66.0566 129.728,-62.1633 139.674,-59.1773"/>
<polygon fill="midnightblue" stroke="midnightblue" points="52.8501,-110.624 48.2118,-120.15 57.778,-115.595 52.8501,-110.624"/>
</g>
<!-- Node8 -->
<g id="node8" class="node"><title>Node8</title>
<g id="a_node8"><a xlink:href="da/d35/class_text_dlg.html" target="_top" xlink:title="TextDlg dialog. ">
<polygon fill="white" stroke="black" points="149,-0.5 149,-21.5 205,-21.5 205,-0.5 149,-0.5"/>
<text text-anchor="middle" x="177" y="-7.9" font-family="Helvetica,sans-Serif" font-size="12.00">TextDlg</text>
</a>
</g>
</g>
<!-- Node1&#45;&gt;Node8 -->
<g id="edge7" class="edge"><title>Node1&#45;&gt;Node8</title>
<path fill="none" stroke="midnightblue" d="M47.1047,-111.482C58.6314,-88.8654 80.5869,-52.0206 110,-31 121.397,-22.855 136.162,-17.9774 148.837,-15.082"/>
<polygon fill="midnightblue" stroke="midnightblue" points="43.9473,-109.972 42.6823,-120.491 50.2309,-113.057 43.9473,-109.972"/>
</g>
</g>
</svg>
