<?xml version="1.0" encoding="UTF-8" standalone="no"?>
<!DOCTYPE svg PUBLIC "-//W3C//DTD SVG 1.1//EN"
 "http://www.w3.org/Graphics/SVG/1.1/DTD/svg11.dtd">
<!-- Generated by graphviz version 2.34.0 (20130907.0111)
 -->
<!-- Title: Graphical Class Hierarchy Pages: 1 -->
<svg width="356pt" height="70pt"
 viewBox="0.00 0.00 356.00 70.00" xmlns="http://www.w3.org/2000/svg" xmlns:xlink="http://www.w3.org/1999/xlink">
<g id="graph0" class="graph" transform="scale(1 1) rotate(0) translate(4 66)">
<title>Graphical Class Hierarchy</title>
<polygon fill="white" stroke="white" points="-4,4 -4,-66 352,-66 352,4 -4,4"/>
<!-- Node1 -->
<g id="node1" class="node"><title>Node1</title>
<g id="a_node1"><a xlink:href="d5/d52/class_stdout_redirect.html" target="_top" xlink:title="Defines functions for redirecting stdout through a buffered pipe. ">
<polygon fill="white" stroke="black" points="0.5,-20.5 0.5,-41.5 95.5,-41.5 95.5,-20.5 0.5,-20.5"/>
<text text-anchor="middle" x="48" y="-27.9" font-family="Helvetica,sans-Serif" font-size="12.00">StdoutRedirect</text>
</a>
</g>
</g>
<!-- Node2 -->
<g id="node2" class="node"><title>Node2</title>
<g id="a_node2"><a xlink:href="da/de2/class_stderr_redirect.html" target="_top" xlink:title="Defines functions for redirecting stderr through a buffered pipe. ">
<polygon fill="white" stroke="black" points="132.5,-40.5 132.5,-61.5 225.5,-61.5 225.5,-40.5 132.5,-40.5"/>
<text text-anchor="middle" x="179" y="-47.9" font-family="Helvetica,sans-Serif" font-size="12.00">StderrRedirect</text>
</a>
</g>
</g>
<!-- Node1&#45;&gt;Node2 -->
<g id="edge1" class="edge"><title>Node1&#45;&gt;Node2</title>
<path fill="none" stroke="midnightblue" d="M105.563,-39.7694C114.523,-41.1586 123.691,-42.58 132.361,-43.9241"/>
<polygon fill="midnightblue" stroke="midnightblue" points="105.99,-36.2939 95.572,-38.2205 104.918,-43.2113 105.99,-36.2939"/>
</g>
<!-- Node3 -->
<g id="node3" class="node"><title>Node3</title>
<g id="a_node3"><a xlink:href="d5/d67/class_stdout_thread.html" target="_top" xlink:title="Defines a thread class for capturing stdout. ">
<polygon fill="white" stroke="black" points="135.5,-0.5 135.5,-21.5 222.5,-21.5 222.5,-0.5 135.5,-0.5"/>
<text text-anchor="middle" x="179" y="-7.9" font-family="Helvetica,sans-Serif" font-size="12.00">StdoutThread</text>
</a>
</g>
</g>
<!-- Node1&#45;&gt;Node3 -->
<g id="edge2" class="edge"><title>Node1&#45;&gt;Node3</title>
<path fill="none" stroke="midnightblue" d="M105.476,-22.2441C115.504,-20.6893 125.795,-19.0939 135.358,-17.6111"/>
<polygon fill="midnightblue" stroke="midnightblue" points="104.918,-18.7887 95.572,-23.7795 105.99,-25.7061 104.918,-18.7887"/>
</g>
<!-- Node4 -->
<g id="node4" class="node"><title>Node4</title>
<g id="a_node4"><a xlink:href="df/d44/class_stderr_thread.html" target="_top" xlink:title="Defines a thread class for capturing stderr. ">
<polygon fill="white" stroke="black" points="262,-0.5 262,-21.5 348,-21.5 348,-0.5 262,-0.5"/>
<text text-anchor="middle" x="305" y="-7.9" font-family="Helvetica,sans-Serif" font-size="12.00">StderrThread</text>
</a>
</g>
</g>
<!-- Node3&#45;&gt;Node4 -->
<g id="edge3" class="edge"><title>Node3&#45;&gt;Node4</title>
<path fill="none" stroke="midnightblue" d="M232.928,-11C242.527,-11 252.423,-11 261.668,-11"/>
<polygon fill="midnightblue" stroke="midnightblue" points="232.674,-7.5001 222.674,-11 232.674,-14.5001 232.674,-7.5001"/>
</g>
</g>
</svg>
