<?xml version="1.0" encoding="UTF-8" standalone="no"?>
<!DOCTYPE svg PUBLIC "-//W3C//DTD SVG 1.1//EN"
 "http://www.w3.org/Graphics/SVG/1.1/DTD/svg11.dtd">
<!-- Generated by graphviz version 2.34.0 (20130907.0111)
 -->
<!-- Title: Graphical Class Hierarchy Pages: 1 -->
<svg width="250pt" height="70pt"
 viewBox="0.00 0.00 250.00 70.00" xmlns="http://www.w3.org/2000/svg" xmlns:xlink="http://www.w3.org/1999/xlink">
<g id="graph0" class="graph" transform="scale(1 1) rotate(0) translate(4 66)">
<title>Graphical Class Hierarchy</title>
<polygon fill="white" stroke="white" points="-4,4 -4,-66 246,-66 246,4 -4,4"/>
<!-- Node1 -->
<g id="node1" class="node"><title>Node1</title>
<polygon fill="white" stroke="#bfbfbf" points="0,-20.5 0,-41.5 68,-41.5 68,-20.5 0,-20.5"/>
<text text-anchor="middle" x="34" y="-27.9" font-family="Helvetica,sans-Serif" font-size="12.00">CWinApp</text>
</g>
<!-- Node2 -->
<g id="node2" class="node"><title>Node2</title>
<g id="a_node2"><a xlink:href="dd/d42/class_app_thread.html" target="_top" xlink:title="Main thread/header file for the Operator Console application. ">
<polygon fill="white" stroke="black" points="135.5,-40.5 135.5,-61.5 210.5,-61.5 210.5,-40.5 135.5,-40.5"/>
<text text-anchor="middle" x="173" y="-47.9" font-family="Helvetica,sans-Serif" font-size="12.00">AppThread</text>
</a>
</g>
</g>
<!-- Node1&#45;&gt;Node2 -->
<g id="edge1" class="edge"><title>Node1&#45;&gt;Node2</title>
<path fill="none" stroke="midnightblue" d="M78.2977,-37.3208C96.6216,-39.9959 117.741,-43.079 135.287,-45.6404"/>
<polygon fill="midnightblue" stroke="midnightblue" points="78.5646,-33.8228 68.1639,-35.8414 77.5534,-40.7494 78.5646,-33.8228"/>
</g>
<!-- Node3 -->
<g id="node3" class="node"><title>Node3</title>
<g id="a_node3"><a xlink:href="d3/d9f/class_c_operator_console_app.html" target="_top" xlink:title="The main class for the Operator Console Application. ">
<polygon fill="white" stroke="black" points="104.5,-0.5 104.5,-21.5 241.5,-21.5 241.5,-0.5 104.5,-0.5"/>
<text text-anchor="middle" x="173" y="-7.9" font-family="Helvetica,sans-Serif" font-size="12.00">COperatorConsoleApp</text>
</a>
</g>
</g>
<!-- Node1&#45;&gt;Node3 -->
<g id="edge2" class="edge"><title>Node1&#45;&gt;Node3</title>
<path fill="none" stroke="midnightblue" d="M78.0881,-24.7098C86.5005,-23.4817 95.5086,-22.1666 104.494,-20.8549"/>
<polygon fill="midnightblue" stroke="midnightblue" points="77.5534,-21.2506 68.1639,-26.1586 78.5646,-28.1772 77.5534,-21.2506"/>
</g>
</g>
</svg>
