<?xml version="1.0" encoding="UTF-8" standalone="no"?>
<!DOCTYPE svg PUBLIC "-//W3C//DTD SVG 1.1//EN"
 "http://www.w3.org/Graphics/SVG/1.1/DTD/svg11.dtd">
<!-- Generated by graphviz version 2.34.0 (20130907.0111)
 -->
<!-- Title: Graphical Class Hierarchy Pages: 1 -->
<svg width="200pt" height="70pt"
 viewBox="0.00 0.00 200.00 70.00" xmlns="http://www.w3.org/2000/svg" xmlns:xlink="http://www.w3.org/1999/xlink">
<g id="graph0" class="graph" transform="scale(1 1) rotate(0) translate(4 66)">
<title>Graphical Class Hierarchy</title>
<polygon fill="white" stroke="white" points="-4,4 -4,-66 196,-66 196,4 -4,4"/>
<!-- Node1 -->
<g id="node1" class="node"><title>Node1</title>
<g id="a_node1"><a xlink:href="da/d92/class_image_test.html" target="_top" xlink:title="An abstract class that defines an image test to be performed. ">
<polygon fill="white" stroke="black" points="0.5,-20.5 0.5,-41.5 71.5,-41.5 71.5,-20.5 0.5,-20.5"/>
<text text-anchor="middle" x="36" y="-27.9" font-family="Helvetica,sans-Serif" font-size="12.00">ImageTest</text>
</a>
</g>
</g>
<!-- Node2 -->
<g id="node2" class="node"><title>Node2</title>
<g id="a_node2"><a xlink:href="d8/de1/class_blemish_test.html" target="_top" xlink:title="contains the details of an Blemish test to be performed including all relevant fields for determining...">
<polygon fill="white" stroke="black" points="109.5,-40.5 109.5,-61.5 190.5,-61.5 190.5,-40.5 109.5,-40.5"/>
<text text-anchor="middle" x="150" y="-47.9" font-family="Helvetica,sans-Serif" font-size="12.00">BlemishTest</text>
</a>
</g>
</g>
<!-- Node1&#45;&gt;Node2 -->
<g id="edge1" class="edge"><title>Node1&#45;&gt;Node2</title>
<path fill="none" stroke="midnightblue" d="M81.6146,-38.9669C90.7659,-40.601 100.341,-42.3108 109.305,-43.9116"/>
<polygon fill="midnightblue" stroke="midnightblue" points="81.9772,-35.4763 71.5176,-37.1639 80.7466,-42.3673 81.9772,-35.4763"/>
</g>
<!-- Node3 -->
<g id="node3" class="node"><title>Node3</title>
<g id="a_node3"><a xlink:href="dd/d12/class_s_f_rplus_test.html" target="_top" xlink:title="contains the details of an sfrPlus test to be performed including all relevant fields for determining...">
<polygon fill="white" stroke="black" points="108,-0.5 108,-21.5 192,-21.5 192,-0.5 108,-0.5"/>
<text text-anchor="middle" x="150" y="-7.9" font-family="Helvetica,sans-Serif" font-size="12.00">SFRplusTest</text>
</a>
</g>
</g>
<!-- Node1&#45;&gt;Node3 -->
<g id="edge2" class="edge"><title>Node1&#45;&gt;Node3</title>
<path fill="none" stroke="midnightblue" d="M81.4527,-23.062C90.1115,-21.5158 99.1553,-19.9008 107.707,-18.3738"/>
<polygon fill="midnightblue" stroke="midnightblue" points="80.7466,-19.6327 71.5176,-24.8361 81.9772,-26.5237 80.7466,-19.6327"/>
</g>
</g>
</svg>
