<?xml version="1.0" encoding="UTF-8" standalone="no"?>
<!DOCTYPE svg PUBLIC "-//W3C//DTD SVG 1.1//EN"
 "http://www.w3.org/Graphics/SVG/1.1/DTD/svg11.dtd">
<!-- Generated by graphviz version 2.34.0 (20130907.0111)
 -->
<!-- Title: Graphical Class Hierarchy Pages: 1 -->
<svg width="288pt" height="150pt"
 viewBox="0.00 0.00 288.00 150.00" xmlns="http://www.w3.org/2000/svg" xmlns:xlink="http://www.w3.org/1999/xlink">
<g id="graph0" class="graph" transform="scale(1 1) rotate(0) translate(4 146)">
<title>Graphical Class Hierarchy</title>
<polygon fill="white" stroke="white" points="-4,4 -4,-146 284,-146 284,4 -4,4"/>
<!-- Node1 -->
<g id="node1" class="node"><title>Node1</title>
<g id="a_node1"><a xlink:href="d8/d29/class_image_acquisition.html" target="_top" xlink:title="the base class for image acquisition ">
<polygon fill="white" stroke="black" points="0.5,-60.5 0.5,-81.5 107.5,-81.5 107.5,-60.5 0.5,-60.5"/>
<text text-anchor="middle" x="54" y="-67.9" font-family="Helvetica,sans-Serif" font-size="12.00">ImageAcquisition</text>
</a>
</g>
</g>
<!-- Node2 -->
<g id="node2" class="node"><title>Node2</title>
<g id="a_node2"><a xlink:href="dc/d78/class_file_acq.html" target="_top" xlink:title="A class for acquiring from a file with the data in RGB format. ">
<polygon fill="white" stroke="black" points="183.5,-120.5 183.5,-141.5 240.5,-141.5 240.5,-120.5 183.5,-120.5"/>
<text text-anchor="middle" x="212" y="-127.9" font-family="Helvetica,sans-Serif" font-size="12.00">FileAcq</text>
</a>
</g>
</g>
<!-- Node1&#45;&gt;Node2 -->
<g id="edge1" class="edge"><title>Node1&#45;&gt;Node2</title>
<path fill="none" stroke="midnightblue" d="M85.6558,-85.9873C102.624,-93.9745 124.225,-103.641 144,-111 156.742,-115.742 171.159,-120.162 183.347,-123.636"/>
<polygon fill="midnightblue" stroke="midnightblue" points="86.7825,-82.6473 76.249,-81.5088 83.7735,-88.9676 86.7825,-82.6473"/>
</g>
<!-- Node3 -->
<g id="node3" class="node"><title>Node3</title>
<g id="a_node3"><a xlink:href="db/def/class_file_acquisition.html" target="_top" xlink:title="Another class for loading an image file that loads into the critical buffer m_frame inherited from cl...">
<polygon fill="white" stroke="black" points="165,-80.5 165,-101.5 259,-101.5 259,-80.5 165,-80.5"/>
<text text-anchor="middle" x="212" y="-87.9" font-family="Helvetica,sans-Serif" font-size="12.00">FileAcquisition</text>
</a>
</g>
</g>
<!-- Node1&#45;&gt;Node3 -->
<g id="edge2" class="edge"><title>Node1&#45;&gt;Node3</title>
<path fill="none" stroke="midnightblue" d="M117.95,-79.0705C133.599,-81.0769 150.089,-83.191 164.769,-85.0729"/>
<polygon fill="midnightblue" stroke="midnightblue" points="118.178,-75.5712 107.814,-77.7711 117.288,-82.5144 118.178,-75.5712"/>
</g>
<!-- Node4 -->
<g id="node4" class="node"><title>Node4</title>
<g id="a_node4"><a xlink:href="df/d22/class_imatest_lib_acq.html" target="_top" xlink:title="A class for acquiring live images through the Imatest library. ">
<polygon fill="white" stroke="black" points="166,-40.5 166,-61.5 258,-61.5 258,-40.5 166,-40.5"/>
<text text-anchor="middle" x="212" y="-47.9" font-family="Helvetica,sans-Serif" font-size="12.00">ImatestLibAcq</text>
</a>
</g>
</g>
<!-- Node1&#45;&gt;Node4 -->
<g id="edge3" class="edge"><title>Node1&#45;&gt;Node4</title>
<path fill="none" stroke="midnightblue" d="M118.147,-62.9043C134.103,-60.8586 150.921,-58.7025 165.793,-56.7957"/>
<polygon fill="midnightblue" stroke="midnightblue" points="117.288,-59.4856 107.814,-64.2289 118.178,-66.4288 117.288,-59.4856"/>
</g>
<!-- Node5 -->
<g id="node5" class="node"><title>Node5</title>
<g id="a_node5"><a xlink:href="d0/d1f/class_simple_direct_show_acq.html" target="_top" xlink:title="A class for acquiring directly from a camera with a DirectShow driver. ">
<polygon fill="white" stroke="black" points="144.5,-0.5 144.5,-21.5 279.5,-21.5 279.5,-0.5 144.5,-0.5"/>
<text text-anchor="middle" x="212" y="-7.9" font-family="Helvetica,sans-Serif" font-size="12.00">SimpleDirectShowAcq</text>
</a>
</g>
</g>
<!-- Node1&#45;&gt;Node5 -->
<g id="edge4" class="edge"><title>Node1&#45;&gt;Node5</title>
<path fill="none" stroke="midnightblue" d="M85.6558,-56.0127C102.624,-48.0255 124.225,-38.3586 144,-31 153.102,-27.6132 163.058,-24.39 172.445,-21.5589"/>
<polygon fill="midnightblue" stroke="midnightblue" points="83.7735,-53.0324 76.249,-60.4912 86.7825,-59.3527 83.7735,-53.0324"/>
</g>
</g>
</svg>
