<?xml version="1.0" encoding="UTF-8" standalone="no"?>
<!DOCTYPE svg PUBLIC "-//W3C//DTD SVG 1.1//EN"
 "http://www.w3.org/Graphics/SVG/1.1/DTD/svg11.dtd">
<!-- Generated by graphviz version 2.34.0 (20130907.0111)
 -->
<!-- Title: Graphical Class Hierarchy Pages: 1 -->
<svg width="240pt" height="70pt"
 viewBox="0.00 0.00 240.00 70.00" xmlns="http://www.w3.org/2000/svg" xmlns:xlink="http://www.w3.org/1999/xlink">
<g id="graph0" class="graph" transform="scale(1 1) rotate(0) translate(4 66)">
<title>Graphical Class Hierarchy</title>
<polygon fill="white" stroke="white" points="-4,4 -4,-66 236,-66 236,4 -4,4"/>
<!-- Node1 -->
<g id="node1" class="node"><title>Node1</title>
<polygon fill="white" stroke="#bfbfbf" points="0,-20.5 0,-41.5 102,-41.5 102,-20.5 0,-20.5"/>
<text text-anchor="middle" x="51" y="-27.9" font-family="Helvetica,sans-Serif" font-size="12.00">CCriticalSection</text>
</g>
<!-- Node2 -->
<g id="node2" class="node"><title>Node2</title>
<g id="a_node2"><a xlink:href="d3/d1e/class_critical_buf.html" target="_top" xlink:title="a buffer class where all access (read or write) to the buffer is protected by critical sections ...">
<polygon fill="white" stroke="black" points="149.5,-40.5 149.5,-61.5 220.5,-61.5 220.5,-40.5 149.5,-40.5"/>
<text text-anchor="middle" x="185" y="-47.9" font-family="Helvetica,sans-Serif" font-size="12.00">CriticalBuf</text>
</a>
</g>
</g>
<!-- Node1&#45;&gt;Node2 -->
<g id="edge1" class="edge"><title>Node1&#45;&gt;Node2</title>
<path fill="none" stroke="midnightblue" d="M112.372,-40.1472C125.075,-42.0719 138.058,-44.0391 149.421,-45.7608"/>
<polygon fill="midnightblue" stroke="midnightblue" points="112.692,-36.6558 102.28,-38.6182 111.643,-43.5768 112.692,-36.6558"/>
</g>
<!-- Node3 -->
<g id="node3" class="node"><title>Node3</title>
<g id="a_node3"><a xlink:href="d6/d56/class_critical_c_string.html" target="_top" xlink:title="A null&#45;terminated string class for which all access is controlled by critical sections. ">
<polygon fill="white" stroke="black" points="138.5,-0.5 138.5,-21.5 231.5,-21.5 231.5,-0.5 138.5,-0.5"/>
<text text-anchor="middle" x="185" y="-7.9" font-family="Helvetica,sans-Serif" font-size="12.00">CriticalCString</text>
</a>
</g>
</g>
<!-- Node1&#45;&gt;Node3 -->
<g id="edge2" class="edge"><title>Node1&#45;&gt;Node3</title>
<path fill="none" stroke="midnightblue" d="M112.372,-21.8528C121.05,-20.5379 129.859,-19.2031 138.193,-17.9404"/>
<polygon fill="midnightblue" stroke="midnightblue" points="111.643,-18.4232 102.28,-23.3818 112.692,-25.3442 111.643,-18.4232"/>
</g>
</g>
</svg>
