<?xml version="1.0" encoding="UTF-8" standalone="no"?>
<!DOCTYPE svg PUBLIC "-//W3C//DTD SVG 1.1//EN"
 "http://www.w3.org/Graphics/SVG/1.1/DTD/svg11.dtd">
<!-- Generated by graphviz version 2.34.0 (20130907.0111)
 -->
<!-- Title: Documentation/Operator&#45;Console/JSON/JSON_Base64.h Pages: 1 -->
<svg width="1910pt" height="560pt"
 viewBox="0.00 0.00 1910.00 560.00" xmlns="http://www.w3.org/2000/svg" xmlns:xlink="http://www.w3.org/1999/xlink">
<g id="graph0" class="graph" transform="scale(1 1) rotate(0) translate(4 556)">
<title>Documentation/Operator&#45;Console/JSON/JSON_Base64.h</title>
<polygon fill="white" stroke="white" points="-4,4 -4,-556 1906,-556 1906,4 -4,4"/>
<!-- Node1 -->
<g id="node1" class="node"><title>Node1</title>
<polygon fill="#bfbfbf" stroke="black" points="1433,-517 1433,-551 1623,-551 1623,-517 1433,-517"/>
<text text-anchor="start" x="1441" y="-537.4" font-family="Helvetica,sans-Serif" font-size="12.00">Documentation/Operator</text>
<text text-anchor="middle" x="1528" y="-524.4" font-family="Helvetica,sans-Serif" font-size="12.00">&#45;Console/JSON/JSON_Base64.h</text>
</g>
<!-- Node2 -->
<g id="node2" class="node"><title>Node2</title>
<g id="a_node2"><a xlink:href="../../d9/d7e/_documentation_2_operator-_console_2_j_s_o_n_2_j_s_o_n_node_8h.html" target="_top" xlink:title="Documentation/Operator\l&#45;Console/JSON/JSONNode.h">
<polygon fill="white" stroke="black" points="953,-445 953,-479 1123,-479 1123,-445 953,-445"/>
<text text-anchor="start" x="961" y="-465.4" font-family="Helvetica,sans-Serif" font-size="12.00">Documentation/Operator</text>
<text text-anchor="middle" x="1038" y="-452.4" font-family="Helvetica,sans-Serif" font-size="12.00">&#45;Console/JSON/JSONNode.h</text>
</a>
</g>
</g>
<!-- Node1&#45;&gt;Node2 -->
<g id="edge1" class="edge"><title>Node1&#45;&gt;Node2</title>
<path fill="none" stroke="midnightblue" d="M1422.77,-517.968C1333.35,-505.193 1206.6,-487.086 1123.37,-475.196"/>
<polygon fill="midnightblue" stroke="midnightblue" points="1422.55,-521.471 1432.94,-519.42 1423.54,-514.541 1422.55,-521.471"/>
</g>
<!-- Node3 -->
<g id="node3" class="node"><title>Node3</title>
<g id="a_node3"><a xlink:href="../../d6/d7b/_documentation_2_operator-_console_2libjson_8h.html" target="_top" xlink:title="Documentation/Operator\l&#45;Console/libjson.h">
<polygon fill="white" stroke="black" points="1207.5,-289 1207.5,-323 1352.5,-323 1352.5,-289 1207.5,-289"/>
<text text-anchor="start" x="1215.5" y="-309.4" font-family="Helvetica,sans-Serif" font-size="12.00">Documentation/Operator</text>
<text text-anchor="middle" x="1280" y="-296.4" font-family="Helvetica,sans-Serif" font-size="12.00">&#45;Console/libjson.h</text>
</a>
</g>
</g>
<!-- Node1&#45;&gt;Node3 -->
<g id="edge39" class="edge"><title>Node1&#45;&gt;Node3</title>
<path fill="none" stroke="midnightblue" d="M1533.41,-506.609C1539.44,-469.099 1544.1,-400.442 1508,-360 1505.31,-356.992 1418.28,-337.334 1352.55,-322.832"/>
<polygon fill="midnightblue" stroke="midnightblue" points="1529.91,-506.293 1531.62,-516.749 1536.81,-507.509 1529.91,-506.293"/>
</g>
<!-- Node32 -->
<g id="node32" class="node"><title>Node32</title>
<g id="a_node32"><a xlink:href="../../d0/d4c/_documentation_2_operator-_console_2_j_s_o_n_2_j_s_o_n___base64_8cpp.html" target="_top" xlink:title="Documentation/Operator\l&#45;Console/JSON/JSON_Base64.cpp">
<polygon fill="white" stroke="black" points="1556.5,-445 1556.5,-479 1759.5,-479 1759.5,-445 1556.5,-445"/>
<text text-anchor="start" x="1564.5" y="-465.4" font-family="Helvetica,sans-Serif" font-size="12.00">Documentation/Operator</text>
<text text-anchor="middle" x="1658" y="-452.4" font-family="Helvetica,sans-Serif" font-size="12.00">&#45;Console/JSON/JSON_Base64.cpp</text>
</a>
</g>
</g>
<!-- Node1&#45;&gt;Node32 -->
<g id="edge40" class="edge"><title>Node1&#45;&gt;Node32</title>
<path fill="none" stroke="midnightblue" d="M1566.79,-512.113C1586.34,-501.587 1609.68,-489.016 1627.86,-479.227"/>
<polygon fill="midnightblue" stroke="midnightblue" points="1564.97,-509.118 1557.82,-516.941 1568.29,-515.281 1564.97,-509.118"/>
</g>
<!-- Node2&#45;&gt;Node3 -->
<g id="edge2" class="edge"><title>Node2&#45;&gt;Node3</title>
<path fill="none" stroke="midnightblue" d="M1133.2,-455.031C1170.95,-448.245 1212.34,-434.677 1242,-408 1266.79,-385.698 1275.48,-345.58 1278.47,-323.204"/>
<polygon fill="midnightblue" stroke="midnightblue" points="1132.47,-451.604 1123.18,-456.692 1133.62,-458.51 1132.47,-451.604"/>
</g>
<!-- Node21 -->
<g id="node21" class="node"><title>Node21</title>
<g id="a_node21"><a xlink:href="../../df/d03/_documentation_2_operator-_console_2_j_s_o_n_2_j_s_o_n_worker_8h.html" target="_top" xlink:title="Documentation/Operator\l&#45;Console/JSON/JSONWorker.h">
<polygon fill="white" stroke="black" points="219,-367 219,-401 399,-401 399,-367 219,-367"/>
<text text-anchor="start" x="227" y="-387.4" font-family="Helvetica,sans-Serif" font-size="12.00">Documentation/Operator</text>
<text text-anchor="middle" x="309" y="-374.4" font-family="Helvetica,sans-Serif" font-size="12.00">&#45;Console/JSON/JSONWorker.h</text>
</a>
</g>
</g>
<!-- Node2&#45;&gt;Node21 -->
<g id="edge24" class="edge"><title>Node2&#45;&gt;Node21</title>
<path fill="none" stroke="midnightblue" d="M942.752,-457.271C818.929,-451.446 596.25,-437.627 408,-408 396.234,-406.148 383.79,-403.674 371.844,-401.034"/>
<polygon fill="midnightblue" stroke="midnightblue" points="942.806,-460.777 952.957,-457.744 943.13,-453.785 942.806,-460.777"/>
</g>
<!-- Node22 -->
<g id="node22" class="node"><title>Node22</title>
<g id="a_node22"><a xlink:href="../../d7/d97/_documentation_2_operator-_console_2_j_s_o_n_2internal_j_s_o_n_node_8cpp.html" target="_top" xlink:title="Documentation/Operator\l&#45;Console/JSON/internalJSONNode.cpp">
<polygon fill="white" stroke="black" points="-0.5,-289 -0.5,-323 220.5,-323 220.5,-289 -0.5,-289"/>
<text text-anchor="start" x="7.5" y="-309.4" font-family="Helvetica,sans-Serif" font-size="12.00">Documentation/Operator</text>
<text text-anchor="middle" x="110" y="-296.4" font-family="Helvetica,sans-Serif" font-size="12.00">&#45;Console/JSON/internalJSONNode.cpp</text>
</a>
</g>
</g>
<!-- Node2&#45;&gt;Node22 -->
<g id="edge33" class="edge"><title>Node2&#45;&gt;Node22</title>
<path fill="none" stroke="midnightblue" d="M942.881,-458.704C739.446,-453.249 275.228,-437.69 210,-408 169.35,-389.497 136.193,-346.669 120.253,-323.163"/>
<polygon fill="midnightblue" stroke="midnightblue" points="942.868,-462.205 952.957,-458.972 943.054,-455.207 942.868,-462.205"/>
</g>
<!-- Node25 -->
<g id="node25" class="node"><title>Node25</title>
<g id="a_node25"><a xlink:href="../../d7/dfe/_documentation_2_operator-_console_2_j_s_o_n_2_j_s_o_n_writer_8cpp.html" target="_top" xlink:title="Documentation/Operator\l&#45;Console/JSON/JSONWriter.cpp">
<polygon fill="white" stroke="black" points="792.5,-289 792.5,-323 979.5,-323 979.5,-289 792.5,-289"/>
<text text-anchor="start" x="800.5" y="-309.4" font-family="Helvetica,sans-Serif" font-size="12.00">Documentation/Operator</text>
<text text-anchor="middle" x="886" y="-296.4" font-family="Helvetica,sans-Serif" font-size="12.00">&#45;Console/JSON/JSONWriter.cpp</text>
</a>
</g>
</g>
<!-- Node2&#45;&gt;Node25 -->
<g id="edge38" class="edge"><title>Node2&#45;&gt;Node25</title>
<path fill="none" stroke="midnightblue" d="M1133.04,-444.483C1171.9,-435.618 1210.46,-423.334 1222,-408 1234.83,-390.955 1235.86,-376.218 1222,-360 1191.35,-324.141 1068.12,-312.398 979.778,-308.636"/>
<polygon fill="midnightblue" stroke="midnightblue" points="1132.18,-441.089 1123.17,-446.663 1133.69,-447.924 1132.18,-441.089"/>
</g>
<!-- Node26 -->
<g id="node26" class="node"><title>Node26</title>
<g id="a_node26"><a xlink:href="../../d6/de0/_documentation_2_operator-_console_2_j_s_o_n_2_j_s_o_n_preparse_8h.html" target="_top" xlink:title="Documentation/Operator\l&#45;Console/JSON/JSONPreparse.h">
<polygon fill="white" stroke="black" points="1308.5,-367 1308.5,-401 1499.5,-401 1499.5,-367 1308.5,-367"/>
<text text-anchor="start" x="1316.5" y="-387.4" font-family="Helvetica,sans-Serif" font-size="12.00">Documentation/Operator</text>
<text text-anchor="middle" x="1404" y="-374.4" font-family="Helvetica,sans-Serif" font-size="12.00">&#45;Console/JSON/JSONPreparse.h</text>
</a>
</g>
</g>
<!-- Node2&#45;&gt;Node26 -->
<g id="edge30" class="edge"><title>Node2&#45;&gt;Node26</title>
<path fill="none" stroke="midnightblue" d="M1125.61,-442.907C1175.06,-432.684 1237.98,-419.655 1294,-408 1304.79,-405.755 1316.18,-403.38 1327.37,-401.043"/>
<polygon fill="midnightblue" stroke="midnightblue" points="1124.67,-439.526 1115.59,-444.978 1126.09,-446.381 1124.67,-439.526"/>
</g>
<!-- Node28 -->
<g id="node28" class="node"><title>Node28</title>
<g id="a_node28"><a xlink:href="../../df/d4e/_documentation_2_operator-_console_2_j_s_o_n_2_j_s_o_n_children_8cpp.html" target="_top" xlink:title="Documentation/Operator\l&#45;Console/JSON/JSONChildren.cpp">
<polygon fill="white" stroke="black" points="417.5,-367 417.5,-401 616.5,-401 616.5,-367 417.5,-367"/>
<text text-anchor="start" x="425.5" y="-387.4" font-family="Helvetica,sans-Serif" font-size="12.00">Documentation/Operator</text>
<text text-anchor="middle" x="517" y="-374.4" font-family="Helvetica,sans-Serif" font-size="12.00">&#45;Console/JSON/JSONChildren.cpp</text>
</a>
</g>
</g>
<!-- Node2&#45;&gt;Node28 -->
<g id="edge34" class="edge"><title>Node2&#45;&gt;Node28</title>
<path fill="none" stroke="midnightblue" d="M942.642,-451.014C858.721,-441.691 733.368,-426.46 625,-408 613.094,-405.972 600.507,-403.549 588.296,-401.049"/>
<polygon fill="midnightblue" stroke="midnightblue" points="942.343,-454.503 952.666,-452.122 943.111,-447.545 942.343,-454.503"/>
</g>
<!-- Node29 -->
<g id="node29" class="node"><title>Node29</title>
<g id="a_node29"><a xlink:href="../../de/dfb/_documentation_2_operator-_console_2_j_s_o_n_2_j_s_o_n_iterators_8cpp.html" target="_top" xlink:title="Documentation/Operator\l&#45;Console/JSON/JSONIterators.cpp">
<polygon fill="white" stroke="black" points="634.5,-367 634.5,-401 831.5,-401 831.5,-367 634.5,-367"/>
<text text-anchor="start" x="642.5" y="-387.4" font-family="Helvetica,sans-Serif" font-size="12.00">Documentation/Operator</text>
<text text-anchor="middle" x="733" y="-374.4" font-family="Helvetica,sans-Serif" font-size="12.00">&#45;Console/JSON/JSONIterators.cpp</text>
</a>
</g>
</g>
<!-- Node2&#45;&gt;Node29 -->
<g id="edge35" class="edge"><title>Node2&#45;&gt;Node29</title>
<path fill="none" stroke="midnightblue" d="M963.724,-442.492C912.779,-429.797 845.863,-413.123 797.222,-401.003"/>
<polygon fill="midnightblue" stroke="midnightblue" points="963.14,-445.953 973.69,-444.975 964.833,-439.161 963.14,-445.953"/>
</g>
<!-- Node30 -->
<g id="node30" class="node"><title>Node30</title>
<g id="a_node30"><a xlink:href="../../db/d8a/_documentation_2_operator-_console_2_j_s_o_n_2_j_s_o_n_node_8cpp.html" target="_top" xlink:title="Documentation/Operator\l&#45;Console/JSON/JSONNode.cpp">
<polygon fill="white" stroke="black" points="850,-367 850,-401 1034,-401 1034,-367 850,-367"/>
<text text-anchor="start" x="858" y="-387.4" font-family="Helvetica,sans-Serif" font-size="12.00">Documentation/Operator</text>
<text text-anchor="middle" x="942" y="-374.4" font-family="Helvetica,sans-Serif" font-size="12.00">&#45;Console/JSON/JSONNode.cpp</text>
</a>
</g>
</g>
<!-- Node2&#45;&gt;Node30 -->
<g id="edge36" class="edge"><title>Node2&#45;&gt;Node30</title>
<path fill="none" stroke="midnightblue" d="M1009.58,-438.502C994.402,-426.485 976.069,-411.971 962.33,-401.094"/>
<polygon fill="midnightblue" stroke="midnightblue" points="1007.63,-441.419 1017.64,-444.882 1011.97,-435.931 1007.63,-441.419"/>
</g>
<!-- Node31 -->
<g id="node31" class="node"><title>Node31</title>
<g id="a_node31"><a xlink:href="../../d3/d25/_documentation_2_operator-_console_2_j_s_o_n_2_j_s_o_n_node___mutex_8cpp.html" target="_top" xlink:title="Documentation/Operator\l&#45;Console/JSON/JSONNode\l_Mutex.cpp">
<polygon fill="white" stroke="black" points="1052.5,-360.5 1052.5,-407.5 1213.5,-407.5 1213.5,-360.5 1052.5,-360.5"/>
<text text-anchor="start" x="1060.5" y="-393.9" font-family="Helvetica,sans-Serif" font-size="12.00">Documentation/Operator</text>
<text text-anchor="start" x="1060.5" y="-380.9" font-family="Helvetica,sans-Serif" font-size="12.00">&#45;Console/JSON/JSONNode</text>
<text text-anchor="middle" x="1133" y="-367.9" font-family="Helvetica,sans-Serif" font-size="12.00">_Mutex.cpp</text>
</a>
</g>
</g>
<!-- Node2&#45;&gt;Node31 -->
<g id="edge37" class="edge"><title>Node2&#45;&gt;Node31</title>
<path fill="none" stroke="midnightblue" d="M1066.17,-438.466C1078.29,-428.766 1092.44,-417.446 1104.59,-407.725"/>
<polygon fill="midnightblue" stroke="midnightblue" points="1063.77,-435.902 1058.15,-444.882 1068.14,-441.368 1063.77,-435.902"/>
</g>
<!-- Node4 -->
<g id="node4" class="node"><title>Node4</title>
<g id="a_node4"><a xlink:href="../../d5/dd6/_documentation_2_operator-_console_2_image_test_8h.html" target="_top" xlink:title="Documentation/Operator\l&#45;Console/ImageTest.h">
<polygon fill="white" stroke="black" points="952.5,-217 952.5,-251 1097.5,-251 1097.5,-217 952.5,-217"/>
<text text-anchor="start" x="960.5" y="-237.4" font-family="Helvetica,sans-Serif" font-size="12.00">Documentation/Operator</text>
<text text-anchor="middle" x="1025" y="-224.4" font-family="Helvetica,sans-Serif" font-size="12.00">&#45;Console/ImageTest.h</text>
</a>
</g>
</g>
<!-- Node3&#45;&gt;Node4 -->
<g id="edge3" class="edge"><title>Node3&#45;&gt;Node4</title>
<path fill="none" stroke="midnightblue" d="M1211.83,-286.286C1171.86,-275.314 1121.88,-261.594 1083.67,-251.106"/>
<polygon fill="midnightblue" stroke="midnightblue" points="1210.93,-289.668 1221.5,-288.941 1212.78,-282.918 1210.93,-289.668"/>
</g>
<!-- Node18 -->
<g id="node18" class="node"><title>Node18</title>
<g id="a_node18"><a xlink:href="../../d6/d7f/_documentation_2_operator-_console_2_s_f_rplus_test_8cpp.html" target="_top" xlink:title="Documentation/Operator\l&#45;Console/SFRplusTest.cpp">
<polygon fill="white" stroke="black" points="1148.5,-73 1148.5,-107 1305.5,-107 1305.5,-73 1148.5,-73"/>
<text text-anchor="start" x="1156.5" y="-93.4" font-family="Helvetica,sans-Serif" font-size="12.00">Documentation/Operator</text>
<text text-anchor="middle" x="1227" y="-80.4" font-family="Helvetica,sans-Serif" font-size="12.00">&#45;Console/SFRplusTest.cpp</text>
</a>
</g>
</g>
<!-- Node3&#45;&gt;Node18 -->
<g id="edge23" class="edge"><title>Node3&#45;&gt;Node18</title>
<path fill="none" stroke="midnightblue" d="M1260.99,-280.477C1255.26,-271.903 1249.56,-261.93 1246,-252 1227.87,-201.391 1226.22,-136.678 1226.55,-107.079"/>
<polygon fill="midnightblue" stroke="midnightblue" points="1258.26,-282.682 1266.88,-288.844 1263.99,-278.653 1258.26,-282.682"/>
</g>
<!-- Node19 -->
<g id="node19" class="node"><title>Node19</title>
<g id="a_node19"><a xlink:href="../../d5/d65/_documentation_2_operator-_console_2_j_s_o_n_2libjson_8cpp.html" target="_top" xlink:title="Documentation/Operator\l&#45;Console/JSON/libjson.cpp">
<polygon fill="white" stroke="black" points="1255.5,-217 1255.5,-251 1412.5,-251 1412.5,-217 1255.5,-217"/>
<text text-anchor="start" x="1263.5" y="-237.4" font-family="Helvetica,sans-Serif" font-size="12.00">Documentation/Operator</text>
<text text-anchor="middle" x="1334" y="-224.4" font-family="Helvetica,sans-Serif" font-size="12.00">&#45;Console/JSON/libjson.cpp</text>
</a>
</g>
</g>
<!-- Node3&#45;&gt;Node19 -->
<g id="edge21" class="edge"><title>Node3&#45;&gt;Node19</title>
<path fill="none" stroke="midnightblue" d="M1298.83,-280.593C1306.35,-270.842 1314.81,-259.879 1321.54,-251.147"/>
<polygon fill="midnightblue" stroke="midnightblue" points="1295.86,-278.709 1292.52,-288.765 1301.4,-282.985 1295.86,-278.709"/>
</g>
<!-- Node20 -->
<g id="node20" class="node"><title>Node20</title>
<g id="a_node20"><a xlink:href="../../d0/d59/_documentation_2_operator-_console_2jsonhelpers_8cpp.html" target="_top" xlink:title="Documentation/Operator\l&#45;Console/jsonhelpers.cpp">
<polygon fill="white" stroke="black" points="1430.5,-217 1430.5,-251 1579.5,-251 1579.5,-217 1430.5,-217"/>
<text text-anchor="start" x="1438.5" y="-237.4" font-family="Helvetica,sans-Serif" font-size="12.00">Documentation/Operator</text>
<text text-anchor="middle" x="1505" y="-224.4" font-family="Helvetica,sans-Serif" font-size="12.00">&#45;Console/jsonhelpers.cpp</text>
</a>
</g>
</g>
<!-- Node3&#45;&gt;Node20 -->
<g id="edge22" class="edge"><title>Node3&#45;&gt;Node20</title>
<path fill="none" stroke="midnightblue" d="M1341.27,-285.937C1376.35,-275.024 1419.88,-261.483 1453.23,-251.106"/>
<polygon fill="midnightblue" stroke="midnightblue" points="1340.13,-282.628 1331.62,-288.941 1342.21,-289.312 1340.13,-282.628"/>
</g>
<!-- Node5 -->
<g id="node5" class="node"><title>Node5</title>
<g id="a_node5"><a xlink:href="../../da/df8/_documentation_2_operator-_console_2_blemish_test_8h.html" target="_top" xlink:title="Documentation/Operator\l&#45;Console/BlemishTest.h">
<polygon fill="white" stroke="black" points="851.5,-145 851.5,-179 996.5,-179 996.5,-145 851.5,-145"/>
<text text-anchor="start" x="859.5" y="-165.4" font-family="Helvetica,sans-Serif" font-size="12.00">Documentation/Operator</text>
<text text-anchor="middle" x="924" y="-152.4" font-family="Helvetica,sans-Serif" font-size="12.00">&#45;Console/BlemishTest.h</text>
</a>
</g>
</g>
<!-- Node4&#45;&gt;Node5 -->
<g id="edge4" class="edge"><title>Node4&#45;&gt;Node5</title>
<path fill="none" stroke="midnightblue" d="M993.411,-211.107C978.531,-200.793 961.09,-188.706 947.413,-179.227"/>
<polygon fill="midnightblue" stroke="midnightblue" points="991.616,-214.121 1001.83,-216.941 995.603,-208.368 991.616,-214.121"/>
</g>
<!-- Node6 -->
<g id="node6" class="node"><title>Node6</title>
<g id="a_node6"><a xlink:href="../../da/d65/_documentation_2_operator-_console_2_operator_console_8h.html" target="_top" xlink:title="Documentation/Operator\l&#45;Console/OperatorConsole.h">
<polygon fill="white" stroke="black" points="964,-73 964,-107 1130,-107 1130,-73 964,-73"/>
<text text-anchor="start" x="972" y="-93.4" font-family="Helvetica,sans-Serif" font-size="12.00">Documentation/Operator</text>
<text text-anchor="middle" x="1047" y="-80.4" font-family="Helvetica,sans-Serif" font-size="12.00">&#45;Console/OperatorConsole.h</text>
</a>
</g>
</g>
<!-- Node4&#45;&gt;Node6 -->
<g id="edge16" class="edge"><title>Node4&#45;&gt;Node6</title>
<path fill="none" stroke="midnightblue" d="M1029.07,-206.726C1033.59,-177.574 1040.73,-131.451 1044.49,-107.173"/>
<polygon fill="midnightblue" stroke="midnightblue" points="1025.55,-206.569 1027.48,-216.987 1032.47,-207.641 1025.55,-206.569"/>
</g>
<!-- Node9 -->
<g id="node9" class="node"><title>Node9</title>
<g id="a_node9"><a xlink:href="../../da/df9/_documentation_2_operator-_console_2_image_test_8cpp.html" target="_top" xlink:title="Documentation/Operator\l&#45;Console/ImageTest.cpp">
<polygon fill="white" stroke="black" points="329.5,-1 329.5,-35 474.5,-35 474.5,-1 329.5,-1"/>
<text text-anchor="start" x="337.5" y="-21.4" font-family="Helvetica,sans-Serif" font-size="12.00">Documentation/Operator</text>
<text text-anchor="middle" x="402" y="-8.4" font-family="Helvetica,sans-Serif" font-size="12.00">&#45;Console/ImageTest.cpp</text>
</a>
</g>
</g>
<!-- Node4&#45;&gt;Node9 -->
<g id="edge20" class="edge"><title>Node4&#45;&gt;Node9</title>
<path fill="none" stroke="midnightblue" d="M955.81,-214.175C921.422,-204.512 879.337,-192.222 842,-180 693.573,-131.415 520.286,-65.1449 442.92,-35.0465"/>
<polygon fill="midnightblue" stroke="midnightblue" points="955.184,-217.634 965.757,-216.958 957.07,-210.893 955.184,-217.634"/>
</g>
<!-- Node17 -->
<g id="node17" class="node"><title>Node17</title>
<g id="a_node17"><a xlink:href="../../d5/d79/_documentation_2_operator-_console_2_s_f_rplus_test_8h.html" target="_top" xlink:title="Documentation/Operator\l&#45;Console/SFRplusTest.h">
<polygon fill="white" stroke="black" points="1053.5,-145 1053.5,-179 1198.5,-179 1198.5,-145 1053.5,-145"/>
<text text-anchor="start" x="1061.5" y="-165.4" font-family="Helvetica,sans-Serif" font-size="12.00">Documentation/Operator</text>
<text text-anchor="middle" x="1126" y="-152.4" font-family="Helvetica,sans-Serif" font-size="12.00">&#45;Console/SFRplusTest.h</text>
</a>
</g>
</g>
<!-- Node4&#45;&gt;Node17 -->
<g id="edge17" class="edge"><title>Node4&#45;&gt;Node17</title>
<path fill="none" stroke="midnightblue" d="M1056.59,-211.107C1071.47,-200.793 1088.91,-188.706 1102.59,-179.227"/>
<polygon fill="midnightblue" stroke="midnightblue" points="1054.4,-208.368 1048.17,-216.941 1058.38,-214.121 1054.4,-208.368"/>
</g>
<!-- Node5&#45;&gt;Node6 -->
<g id="edge5" class="edge"><title>Node5&#45;&gt;Node6</title>
<path fill="none" stroke="midnightblue" d="M960.953,-139.97C979.397,-129.473 1001.36,-116.972 1018.49,-107.227"/>
<polygon fill="midnightblue" stroke="midnightblue" points="959.179,-136.952 952.219,-144.941 962.641,-143.036 959.179,-136.952"/>
</g>
<!-- Node16 -->
<g id="node16" class="node"><title>Node16</title>
<g id="a_node16"><a xlink:href="../../dc/d58/_documentation_2_operator-_console_2_blemish_test_8cpp.html" target="_top" xlink:title="Documentation/Operator\l&#45;Console/BlemishTest.cpp">
<polygon fill="white" stroke="black" points="792,-73 792,-107 946,-107 946,-73 792,-73"/>
<text text-anchor="start" x="800" y="-93.4" font-family="Helvetica,sans-Serif" font-size="12.00">Documentation/Operator</text>
<text text-anchor="middle" x="869" y="-80.4" font-family="Helvetica,sans-Serif" font-size="12.00">&#45;Console/BlemishTest.cpp</text>
</a>
</g>
</g>
<!-- Node5&#45;&gt;Node16 -->
<g id="edge15" class="edge"><title>Node5&#45;&gt;Node16</title>
<path fill="none" stroke="midnightblue" d="M905.055,-136.889C897.336,-127.064 888.617,-115.967 881.687,-107.147"/>
<polygon fill="midnightblue" stroke="midnightblue" points="902.313,-139.064 911.244,-144.765 907.818,-134.739 902.313,-139.064"/>
</g>
<!-- Node7 -->
<g id="node7" class="node"><title>Node7</title>
<g id="a_node7"><a xlink:href="../../d7/d4b/_documentation_2_operator-_console_2_app_thread_8cpp.html" target="_top" xlink:title="Documentation/Operator\l&#45;Console/AppThread.cpp">
<polygon fill="white" stroke="black" points="1591,-1 1591,-35 1739,-35 1739,-1 1591,-1"/>
<text text-anchor="start" x="1599" y="-21.4" font-family="Helvetica,sans-Serif" font-size="12.00">Documentation/Operator</text>
<text text-anchor="middle" x="1665" y="-8.4" font-family="Helvetica,sans-Serif" font-size="12.00">&#45;Console/AppThread.cpp</text>
</a>
</g>
</g>
<!-- Node6&#45;&gt;Node7 -->
<g id="edge6" class="edge"><title>Node6&#45;&gt;Node7</title>
<path fill="none" stroke="midnightblue" d="M1140.23,-71.921C1336.13,-46.6297 1389.09,-63.138 1581,-36 1584.24,-35.5417 1587.55,-35.0366 1590.88,-34.4961"/>
<polygon fill="midnightblue" stroke="midnightblue" points="1139.64,-68.4677 1130.18,-73.2381 1140.55,-75.4083 1139.64,-68.4677"/>
</g>
<!-- Node8 -->
<g id="node8" class="node"><title>Node8</title>
<g id="a_node8"><a xlink:href="../../de/d31/_documentation_2_operator-_console_2_critical_buf_8cpp.html" target="_top" xlink:title="Documentation/Operator\l&#45;Console/CriticalBuf.cpp">
<polygon fill="white" stroke="black" points="1757.5,-1 1757.5,-35 1902.5,-35 1902.5,-1 1757.5,-1"/>
<text text-anchor="start" x="1765.5" y="-21.4" font-family="Helvetica,sans-Serif" font-size="12.00">Documentation/Operator</text>
<text text-anchor="middle" x="1830" y="-8.4" font-family="Helvetica,sans-Serif" font-size="12.00">&#45;Console/CriticalBuf.cpp</text>
</a>
</g>
</g>
<!-- Node6&#45;&gt;Node8 -->
<g id="edge7" class="edge"><title>Node6&#45;&gt;Node8</title>
<path fill="none" stroke="midnightblue" d="M1140.26,-71.9442C1409.92,-40.0824 1482.49,-71.18 1748,-36 1751.03,-35.599 1754.11,-35.1493 1757.22,-34.6618"/>
<polygon fill="midnightblue" stroke="midnightblue" points="1139.69,-68.4882 1130.17,-73.1545 1140.52,-75.4383 1139.69,-68.4882"/>
</g>
<!-- Node6&#45;&gt;Node9 -->
<g id="edge8" class="edge"><title>Node6&#45;&gt;Node9</title>
<path fill="none" stroke="midnightblue" d="M953.763,-71.9267C745.06,-45.5154 688.631,-64.9107 484,-36 480.977,-35.5729 477.898,-35.1015 474.793,-34.5958"/>
<polygon fill="midnightblue" stroke="midnightblue" points="953.453,-75.4155 963.818,-73.2193 954.346,-68.4727 953.453,-75.4155"/>
</g>
<!-- Node10 -->
<g id="node10" class="node"><title>Node10</title>
<g id="a_node10"><a xlink:href="../../d4/d9c/_msg_dialog_8cpp.html" target="_top" xlink:title="Documentation/Operator\l&#45;Console/MsgDialog.cpp">
<polygon fill="white" stroke="black" points="493,-1 493,-35 639,-35 639,-1 493,-1"/>
<text text-anchor="start" x="501" y="-21.4" font-family="Helvetica,sans-Serif" font-size="12.00">Documentation/Operator</text>
<text text-anchor="middle" x="566" y="-8.4" font-family="Helvetica,sans-Serif" font-size="12.00">&#45;Console/MsgDialog.cpp</text>
</a>
</g>
</g>
<!-- Node6&#45;&gt;Node10 -->
<g id="edge9" class="edge"><title>Node6&#45;&gt;Node10</title>
<path fill="none" stroke="midnightblue" d="M953.804,-71.8798C817.436,-51.7946 780.434,-57.4503 648,-36 645.13,-35.5351 642.207,-35.0391 639.259,-34.5196"/>
<polygon fill="midnightblue" stroke="midnightblue" points="953.39,-75.3567 963.797,-73.3711 954.423,-68.4333 953.39,-75.3567"/>
</g>
<!-- Node11 -->
<g id="node11" class="node"><title>Node11</title>
<g id="a_node11"><a xlink:href="../../db/db5/_documentation_2_operator-_console_2_operator_console_8cpp.html" target="_top" xlink:title="Documentation/Operator\l&#45;Console/OperatorConsole.cpp">
<polygon fill="white" stroke="black" points="657.5,-1 657.5,-35 836.5,-35 836.5,-1 657.5,-1"/>
<text text-anchor="start" x="665.5" y="-21.4" font-family="Helvetica,sans-Serif" font-size="12.00">Documentation/Operator</text>
<text text-anchor="middle" x="747" y="-8.4" font-family="Helvetica,sans-Serif" font-size="12.00">&#45;Console/OperatorConsole.cpp</text>
</a>
</g>
</g>
<!-- Node6&#45;&gt;Node11 -->
<g id="edge10" class="edge"><title>Node6&#45;&gt;Node11</title>
<path fill="none" stroke="midnightblue" d="M968.266,-70.6288C920.913,-59.5797 861.215,-45.6501 815.765,-35.0452"/>
<polygon fill="midnightblue" stroke="midnightblue" points="967.64,-74.0767 978.174,-72.9406 969.231,-67.2598 967.64,-74.0767"/>
</g>
<!-- Node12 -->
<g id="node12" class="node"><title>Node12</title>
<g id="a_node12"><a xlink:href="../../dd/dcb/_documentation_2_operator-_console_2_operator_console_dlg_8cpp.html" target="_top" xlink:title="Documentation/Operator\l&#45;Console/OperatorConsoleDlg.cpp">
<polygon fill="white" stroke="black" points="854.5,-1 854.5,-35 1051.5,-35 1051.5,-1 854.5,-1"/>
<text text-anchor="start" x="862.5" y="-21.4" font-family="Helvetica,sans-Serif" font-size="12.00">Documentation/Operator</text>
<text text-anchor="middle" x="953" y="-8.4" font-family="Helvetica,sans-Serif" font-size="12.00">&#45;Console/OperatorConsoleDlg.cpp</text>
</a>
</g>
</g>
<!-- Node6&#45;&gt;Node12 -->
<g id="edge11" class="edge"><title>Node6&#45;&gt;Node12</title>
<path fill="none" stroke="midnightblue" d="M1016.98,-66.6425C1003.23,-56.4033 987.238,-44.4963 974.684,-35.1473"/>
<polygon fill="midnightblue" stroke="midnightblue" points="1015.09,-69.5991 1025.2,-72.7646 1019.27,-63.9848 1015.09,-69.5991"/>
</g>
<!-- Node13 -->
<g id="node13" class="node"><title>Node13</title>
<g id="a_node13"><a xlink:href="../../dd/d14/_documentation_2_operator-_console_2_pass_fail_8cpp.html" target="_top" xlink:title="Documentation/Operator\l&#45;Console/PassFail.cpp">
<polygon fill="white" stroke="black" points="1069.5,-1 1069.5,-35 1214.5,-35 1214.5,-1 1069.5,-1"/>
<text text-anchor="start" x="1077.5" y="-21.4" font-family="Helvetica,sans-Serif" font-size="12.00">Documentation/Operator</text>
<text text-anchor="middle" x="1142" y="-8.4" font-family="Helvetica,sans-Serif" font-size="12.00">&#45;Console/PassFail.cpp</text>
</a>
</g>
</g>
<!-- Node6&#45;&gt;Node13 -->
<g id="edge12" class="edge"><title>Node6&#45;&gt;Node13</title>
<path fill="none" stroke="midnightblue" d="M1077.34,-66.6425C1091.24,-56.4033 1107.4,-44.4963 1120.09,-35.1473"/>
<polygon fill="midnightblue" stroke="midnightblue" points="1075.01,-64.0149 1069.03,-72.7646 1079.16,-69.6503 1075.01,-64.0149"/>
</g>
<!-- Node14 -->
<g id="node14" class="node"><title>Node14</title>
<g id="a_node14"><a xlink:href="../../dd/d4b/_documentation_2_operator-_console_2_password_dialog_8cpp.html" target="_top" xlink:title="Documentation/Operator\l&#45;Console/PasswordDialog.cpp">
<polygon fill="white" stroke="black" points="1233,-1 1233,-35 1409,-35 1409,-1 1233,-1"/>
<text text-anchor="start" x="1241" y="-21.4" font-family="Helvetica,sans-Serif" font-size="12.00">Documentation/Operator</text>
<text text-anchor="middle" x="1321" y="-8.4" font-family="Helvetica,sans-Serif" font-size="12.00">&#45;Console/PasswordDialog.cpp</text>
</a>
</g>
</g>
<!-- Node6&#45;&gt;Node14 -->
<g id="edge13" class="edge"><title>Node6&#45;&gt;Node14</title>
<path fill="none" stroke="midnightblue" d="M1119.71,-70.425C1162.75,-59.4299 1216.73,-45.638 1257.96,-35.1057"/>
<polygon fill="midnightblue" stroke="midnightblue" points="1118.68,-67.0742 1109.86,-72.9406 1120.42,-73.8564 1118.68,-67.0742"/>
</g>
<!-- Node15 -->
<g id="node15" class="node"><title>Node15</title>
<g id="a_node15"><a xlink:href="../../d3/d68/_documentation_2_operator-_console_2_setup_8cpp.html" target="_top" xlink:title="Documentation/Operator\l&#45;Console/Setup.cpp">
<polygon fill="white" stroke="black" points="1427.5,-1 1427.5,-35 1572.5,-35 1572.5,-1 1427.5,-1"/>
<text text-anchor="start" x="1435.5" y="-21.4" font-family="Helvetica,sans-Serif" font-size="12.00">Documentation/Operator</text>
<text text-anchor="middle" x="1500" y="-8.4" font-family="Helvetica,sans-Serif" font-size="12.00">&#45;Console/Setup.cpp</text>
</a>
</g>
</g>
<!-- Node6&#45;&gt;Node15 -->
<g id="edge14" class="edge"><title>Node6&#45;&gt;Node15</title>
<path fill="none" stroke="midnightblue" d="M1140.1,-71.8789C1264.21,-52.8244 1297.83,-56.1796 1418,-36 1421.01,-35.4944 1424.08,-34.9573 1427.18,-34.3974"/>
<polygon fill="midnightblue" stroke="midnightblue" points="1139.55,-68.4212 1130.21,-73.4146 1140.63,-75.3383 1139.55,-68.4212"/>
</g>
<!-- Node17&#45;&gt;Node6 -->
<g id="edge18" class="edge"><title>Node17&#45;&gt;Node6</title>
<path fill="none" stroke="midnightblue" d="M1100.11,-138.061C1088.71,-127.955 1075.58,-116.32 1065.22,-107.147"/>
<polygon fill="midnightblue" stroke="midnightblue" points="1097.87,-140.752 1107.68,-144.765 1102.51,-135.513 1097.87,-140.752"/>
</g>
<!-- Node17&#45;&gt;Node18 -->
<g id="edge19" class="edge"><title>Node17&#45;&gt;Node18</title>
<path fill="none" stroke="midnightblue" d="M1157.59,-139.107C1172.47,-128.793 1189.91,-116.706 1203.59,-107.227"/>
<polygon fill="midnightblue" stroke="midnightblue" points="1155.4,-136.368 1149.17,-144.941 1159.38,-142.121 1155.4,-136.368"/>
</g>
<!-- Node21&#45;&gt;Node3 -->
<g id="edge25" class="edge"><title>Node21&#45;&gt;Node3</title>
<path fill="none" stroke="midnightblue" d="M380.626,-364.872C389.794,-362.991 399.088,-361.297 408,-360 427.687,-357.135 1001.18,-323.346 1207.19,-311.263"/>
<polygon fill="midnightblue" stroke="midnightblue" points="379.8,-361.469 370.749,-366.977 381.259,-368.315 379.8,-361.469"/>
</g>
<!-- Node21&#45;&gt;Node22 -->
<g id="edge26" class="edge"><title>Node21&#45;&gt;Node22</title>
<path fill="none" stroke="midnightblue" d="M257.391,-363.29C224.666,-350.792 182.864,-334.828 152.142,-323.094"/>
<polygon fill="midnightblue" stroke="midnightblue" points="256.207,-366.584 266.797,-366.882 258.704,-360.045 256.207,-366.584"/>
</g>
<!-- Node23 -->
<g id="node23" class="node"><title>Node23</title>
<g id="a_node23"><a xlink:href="../../d5/de0/_documentation_2_operator-_console_2_j_s_o_n_2_j_s_o_n_stream_8cpp.html" target="_top" xlink:title="Documentation/Operator\l&#45;Console/JSON/JSONStream.cpp">
<polygon fill="white" stroke="black" points="451,-289 451,-323 645,-323 645,-289 451,-289"/>
<text text-anchor="start" x="459" y="-309.4" font-family="Helvetica,sans-Serif" font-size="12.00">Documentation/Operator</text>
<text text-anchor="middle" x="548" y="-296.4" font-family="Helvetica,sans-Serif" font-size="12.00">&#45;Console/JSON/JSONStream.cpp</text>
</a>
</g>
</g>
<!-- Node21&#45;&gt;Node23 -->
<g id="edge27" class="edge"><title>Node21&#45;&gt;Node23</title>
<path fill="none" stroke="midnightblue" d="M368.957,-363.934C408.65,-351.312 460.116,-334.947 497.675,-323.003"/>
<polygon fill="midnightblue" stroke="midnightblue" points="367.863,-360.609 359.394,-366.975 369.984,-367.28 367.863,-360.609"/>
</g>
<!-- Node24 -->
<g id="node24" class="node"><title>Node24</title>
<g id="a_node24"><a xlink:href="../../db/d60/_documentation_2_operator-_console_2_j_s_o_n_2_j_s_o_n_worker_8cpp.html" target="_top" xlink:title="Documentation/Operator\l&#45;Console/JSON/JSONWorker.cpp">
<polygon fill="white" stroke="black" points="239,-289 239,-323 433,-323 433,-289 239,-289"/>
<text text-anchor="start" x="247" y="-309.4" font-family="Helvetica,sans-Serif" font-size="12.00">Documentation/Operator</text>
<text text-anchor="middle" x="336" y="-296.4" font-family="Helvetica,sans-Serif" font-size="12.00">&#45;Console/JSON/JSONWorker.cpp</text>
</a>
</g>
</g>
<!-- Node21&#45;&gt;Node24 -->
<g id="edge28" class="edge"><title>Node21&#45;&gt;Node24</title>
<path fill="none" stroke="midnightblue" d="M318.077,-357.449C322.112,-346.091 326.74,-333.065 330.282,-323.094"/>
<polygon fill="midnightblue" stroke="midnightblue" points="314.776,-356.288 314.726,-366.882 321.372,-358.631 314.776,-356.288"/>
</g>
<!-- Node21&#45;&gt;Node25 -->
<g id="edge29" class="edge"><title>Node21&#45;&gt;Node25</title>
<path fill="none" stroke="midnightblue" d="M382.827,-364.845C391.287,-363.063 399.812,-361.4 408,-360 540.503,-337.343 695.402,-322.222 792.119,-314.119"/>
<polygon fill="midnightblue" stroke="midnightblue" points="381.982,-361.447 372.948,-366.983 383.462,-368.288 381.982,-361.447"/>
</g>
<!-- Node26&#45;&gt;Node3 -->
<g id="edge31" class="edge"><title>Node26&#45;&gt;Node3</title>
<path fill="none" stroke="midnightblue" d="M1368.92,-361.497C1349.01,-349.294 1324.5,-334.274 1306.26,-323.094"/>
<polygon fill="midnightblue" stroke="midnightblue" points="1367.35,-364.641 1377.7,-366.882 1371.01,-358.673 1367.35,-364.641"/>
</g>
<!-- Node27 -->
<g id="node27" class="node"><title>Node27</title>
<g id="a_node27"><a xlink:href="../../d1/d1c/_documentation_2_operator-_console_2_j_s_o_n_2_j_s_o_n_preparse_8cpp.html" target="_top" xlink:title="Documentation/Operator\l&#45;Console/JSON/JSONPreparse.cpp">
<polygon fill="white" stroke="black" points="1371,-289 1371,-323 1575,-323 1575,-289 1371,-289"/>
<text text-anchor="start" x="1379" y="-309.4" font-family="Helvetica,sans-Serif" font-size="12.00">Documentation/Operator</text>
<text text-anchor="middle" x="1473" y="-296.4" font-family="Helvetica,sans-Serif" font-size="12.00">&#45;Console/JSON/JSONPreparse.cpp</text>
</a>
</g>
</g>
<!-- Node26&#45;&gt;Node27 -->
<g id="edge32" class="edge"><title>Node26&#45;&gt;Node27</title>
<path fill="none" stroke="midnightblue" d="M1425.65,-359.157C1436.31,-347.415 1448.88,-333.569 1458.39,-323.094"/>
<polygon fill="midnightblue" stroke="midnightblue" points="1422.76,-357.126 1418.63,-366.882 1427.95,-361.831 1422.76,-357.126"/>
</g>
</g>
</svg>
