<?xml version="1.0" encoding="UTF-8" standalone="no"?>
<!DOCTYPE svg PUBLIC "-//W3C//DTD SVG 1.1//EN"
 "http://www.w3.org/Graphics/SVG/1.1/DTD/svg11.dtd">
<!-- Generated by graphviz version 2.34.0 (20130907.0111)
 -->
<!-- Title: TextDlg::Show Pages: 1 -->
<svg width="624pt" height="42pt"
 viewBox="0.00 0.00 624.00 42.00" xmlns="http://www.w3.org/2000/svg" xmlns:xlink="http://www.w3.org/1999/xlink">
<g id="graph0" class="graph" transform="scale(1 1) rotate(0) translate(4 38)">
<title>TextDlg::Show</title>
<polygon fill="white" stroke="white" points="-4,4 -4,-38 620,-38 620,4 -4,4"/>
<!-- Node1 -->
<g id="node1" class="node"><title>Node1</title>
<polygon fill="#bfbfbf" stroke="black" points="0,-6.5 0,-27.5 92,-27.5 92,-6.5 0,-6.5"/>
<text text-anchor="middle" x="46" y="-13.9" font-family="Helvetica,sans-Serif" font-size="12.00">TextDlg::Show</text>
</g>
<!-- Node2 -->
<g id="node2" class="node"><title>Node2</title>
<g id="a_node2"><a xlink:href="../../db/da2/class_modeless_dialog_thread.html#a089a9e2193dc14482b1b782c766f0723" target="_top" xlink:title="ModelessDialogThread\l::Show">
<polygon fill="white" stroke="black" points="128.5,-0 128.5,-34 267.5,-34 267.5,-0 128.5,-0"/>
<text text-anchor="start" x="136.5" y="-20.4" font-family="Helvetica,sans-Serif" font-size="12.00">ModelessDialogThread</text>
<text text-anchor="middle" x="198" y="-7.4" font-family="Helvetica,sans-Serif" font-size="12.00">::Show</text>
</a>
</g>
</g>
<!-- Node1&#45;&gt;Node2 -->
<g id="edge1" class="edge"><title>Node1&#45;&gt;Node2</title>
<path fill="none" stroke="midnightblue" d="M102.206,-17C110.747,-17 119.656,-17 128.446,-17"/>
<polygon fill="midnightblue" stroke="midnightblue" points="102.005,-13.5001 92.0049,-17 102.005,-20.5001 102.005,-13.5001"/>
</g>
<!-- Node3 -->
<g id="node3" class="node"><title>Node3</title>
<g id="a_node3"><a xlink:href="../../d3/d9f/class_c_operator_console_app.html#a571a9da96d69ae7ec8e3bb59a393ba6c" target="_top" xlink:title="Called after MSG_JSON is received. ">
<polygon fill="white" stroke="black" points="304.5,-0 304.5,-34 441.5,-34 441.5,-0 304.5,-0"/>
<text text-anchor="start" x="312.5" y="-20.4" font-family="Helvetica,sans-Serif" font-size="12.00">COperatorConsoleApp</text>
<text text-anchor="middle" x="373" y="-7.4" font-family="Helvetica,sans-Serif" font-size="12.00">::OnShowJSON</text>
</a>
</g>
</g>
<!-- Node2&#45;&gt;Node3 -->
<g id="edge2" class="edge"><title>Node2&#45;&gt;Node3</title>
<path fill="none" stroke="midnightblue" d="M278.139,-17C286.945,-17 295.852,-17 304.494,-17"/>
<polygon fill="midnightblue" stroke="midnightblue" points="277.871,-13.5001 267.871,-17 277.871,-20.5001 277.871,-13.5001"/>
</g>
<!-- Node4 -->
<g id="node4" class="node"><title>Node4</title>
<g id="a_node4"><a xlink:href="../../d3/d9f/class_c_operator_console_app.html#a7041d197c4e6549f2cb7219981b4eec1" target="_top" xlink:title="Intercepts messages of interest before Windows or MFC. ">
<polygon fill="white" stroke="black" points="478,-0 478,-34 616,-34 616,-0 478,-0"/>
<text text-anchor="start" x="486" y="-20.4" font-family="Helvetica,sans-Serif" font-size="12.00">COperatorConsoleApp</text>
<text text-anchor="middle" x="547" y="-7.4" font-family="Helvetica,sans-Serif" font-size="12.00">::PreTranslateMessage</text>
</a>
</g>
</g>
<!-- Node3&#45;&gt;Node4 -->
<g id="edge3" class="edge"><title>Node3&#45;&gt;Node4</title>
<path fill="none" stroke="midnightblue" d="M452.054,-17C460.696,-17 469.446,-17 477.952,-17"/>
<polygon fill="midnightblue" stroke="midnightblue" points="451.979,-13.5001 441.979,-17 451.979,-20.5001 451.979,-13.5001"/>
</g>
</g>
</svg>
