<?xml version="1.0" encoding="UTF-8" standalone="no"?>
<!DOCTYPE svg PUBLIC "-//W3C//DTD SVG 1.1//EN"
 "http://www.w3.org/Graphics/SVG/1.1/DTD/svg11.dtd">
<!-- Generated by graphviz version 2.34.0 (20130907.0111)
 -->
<!-- Title: TextDlg::SetText Pages: 1 -->
<svg width="634pt" height="42pt"
 viewBox="0.00 0.00 634.00 42.00" xmlns="http://www.w3.org/2000/svg" xmlns:xlink="http://www.w3.org/1999/xlink">
<g id="graph0" class="graph" transform="scale(1 1) rotate(0) translate(4 38)">
<title>TextDlg::SetText</title>
<polygon fill="white" stroke="white" points="-4,4 -4,-38 630,-38 630,4 -4,4"/>
<!-- Node1 -->
<g id="node1" class="node"><title>Node1</title>
<polygon fill="#bfbfbf" stroke="black" points="0,-6.5 0,-27.5 102,-27.5 102,-6.5 0,-6.5"/>
<text text-anchor="middle" x="51" y="-13.9" font-family="Helvetica,sans-Serif" font-size="12.00">TextDlg::SetText</text>
</g>
<!-- Node2 -->
<g id="node2" class="node"><title>Node2</title>
<g id="a_node2"><a xlink:href="../../db/da2/class_modeless_dialog_thread.html#aa832ce7be9bdd9b33d4067aea182a114" target="_top" xlink:title="ModelessDialogThread\l::SetText">
<polygon fill="white" stroke="black" points="138.5,-0 138.5,-34 277.5,-34 277.5,-0 138.5,-0"/>
<text text-anchor="start" x="146.5" y="-20.4" font-family="Helvetica,sans-Serif" font-size="12.00">ModelessDialogThread</text>
<text text-anchor="middle" x="208" y="-7.4" font-family="Helvetica,sans-Serif" font-size="12.00">::SetText</text>
</a>
</g>
</g>
<!-- Node1&#45;&gt;Node2 -->
<g id="edge1" class="edge"><title>Node1&#45;&gt;Node2</title>
<path fill="none" stroke="midnightblue" d="M112.489,-17C120.962,-17 129.721,-17 138.333,-17"/>
<polygon fill="midnightblue" stroke="midnightblue" points="112.324,-13.5001 102.324,-17 112.324,-20.5001 112.324,-13.5001"/>
</g>
<!-- Node3 -->
<g id="node3" class="node"><title>Node3</title>
<g id="a_node3"><a xlink:href="../../d3/d9f/class_c_operator_console_app.html#a571a9da96d69ae7ec8e3bb59a393ba6c" target="_top" xlink:title="Called after MSG_JSON is received. ">
<polygon fill="white" stroke="black" points="314.5,-0 314.5,-34 451.5,-34 451.5,-0 314.5,-0"/>
<text text-anchor="start" x="322.5" y="-20.4" font-family="Helvetica,sans-Serif" font-size="12.00">COperatorConsoleApp</text>
<text text-anchor="middle" x="383" y="-7.4" font-family="Helvetica,sans-Serif" font-size="12.00">::OnShowJSON</text>
</a>
</g>
</g>
<!-- Node2&#45;&gt;Node3 -->
<g id="edge2" class="edge"><title>Node2&#45;&gt;Node3</title>
<path fill="none" stroke="midnightblue" d="M288.139,-17C296.945,-17 305.852,-17 314.494,-17"/>
<polygon fill="midnightblue" stroke="midnightblue" points="287.871,-13.5001 277.871,-17 287.871,-20.5001 287.871,-13.5001"/>
</g>
<!-- Node4 -->
<g id="node4" class="node"><title>Node4</title>
<g id="a_node4"><a xlink:href="../../d3/d9f/class_c_operator_console_app.html#a7041d197c4e6549f2cb7219981b4eec1" target="_top" xlink:title="Intercepts messages of interest before Windows or MFC. ">
<polygon fill="white" stroke="black" points="488,-0 488,-34 626,-34 626,-0 488,-0"/>
<text text-anchor="start" x="496" y="-20.4" font-family="Helvetica,sans-Serif" font-size="12.00">COperatorConsoleApp</text>
<text text-anchor="middle" x="557" y="-7.4" font-family="Helvetica,sans-Serif" font-size="12.00">::PreTranslateMessage</text>
</a>
</g>
</g>
<!-- Node3&#45;&gt;Node4 -->
<g id="edge3" class="edge"><title>Node3&#45;&gt;Node4</title>
<path fill="none" stroke="midnightblue" d="M462.054,-17C470.696,-17 479.446,-17 487.952,-17"/>
<polygon fill="midnightblue" stroke="midnightblue" points="461.979,-13.5001 451.979,-17 461.979,-20.5001 461.979,-13.5001"/>
</g>
</g>
</svg>
