<?xml version="1.0" encoding="UTF-8" standalone="no"?>
<!DOCTYPE svg PUBLIC "-//W3C//DTD SVG 1.1//EN"
 "http://www.w3.org/Graphics/SVG/1.1/DTD/svg11.dtd">
<!-- Generated by graphviz version 2.34.0 (20130907.0111)
 -->
<!-- Title: writeEntValueString Pages: 1 -->
<svg width="650pt" height="42pt"
 viewBox="0.00 0.00 650.00 42.00" xmlns="http://www.w3.org/2000/svg" xmlns:xlink="http://www.w3.org/1999/xlink">
<g id="graph0" class="graph" transform="scale(1 1) rotate(0) translate(4 38)">
<title>writeEntValueString</title>
<polygon fill="white" stroke="white" points="-4,4 -4,-38 646,-38 646,4 -4,4"/>
<!-- Node1 -->
<g id="node1" class="node"><title>Node1</title>
<polygon fill="#bfbfbf" stroke="black" points="0.5,-6.5 0.5,-27.5 119.5,-27.5 119.5,-6.5 0.5,-6.5"/>
<text text-anchor="middle" x="60" y="-13.9" font-family="Helvetica,sans-Serif" font-size="12.00">writeEntValueString</text>
</g>
<!-- Node2 -->
<g id="node2" class="node"><title>Node2</title>
<g id="a_node2"><a xlink:href="../../d3/d9f/class_c_operator_console_app.html#aab4583fb7e725968ea95224ef0c773e7" target="_top" xlink:title="This function writes the pass/fail variables to the pass/fail file listed in the imatest INI file...">
<polygon fill="white" stroke="black" points="156.5,-0 156.5,-34 293.5,-34 293.5,-0 156.5,-0"/>
<text text-anchor="start" x="164.5" y="-20.4" font-family="Helvetica,sans-Serif" font-size="12.00">COperatorConsoleApp</text>
<text text-anchor="middle" x="225" y="-7.4" font-family="Helvetica,sans-Serif" font-size="12.00">::WritePassFail</text>
</a>
</g>
</g>
<!-- Node1&#45;&gt;Node2 -->
<g id="edge1" class="edge"><title>Node1&#45;&gt;Node2</title>
<path fill="none" stroke="midnightblue" d="M129.989,-17C138.727,-17 147.662,-17 156.378,-17"/>
<polygon fill="midnightblue" stroke="midnightblue" points="129.847,-13.5001 119.847,-17 129.847,-20.5001 129.847,-13.5001"/>
</g>
<!-- Node3 -->
<g id="node3" class="node"><title>Node3</title>
<g id="a_node3"><a xlink:href="../../d3/d9f/class_c_operator_console_app.html#a04972a8a1e21b10b9bf422396ff97644" target="_top" xlink:title="Called after MSG_PASS_FAIL is received. ">
<polygon fill="white" stroke="black" points="330.5,-0 330.5,-34 467.5,-34 467.5,-0 330.5,-0"/>
<text text-anchor="start" x="338.5" y="-20.4" font-family="Helvetica,sans-Serif" font-size="12.00">COperatorConsoleApp</text>
<text text-anchor="middle" x="399" y="-7.4" font-family="Helvetica,sans-Serif" font-size="12.00">::OnPassFail</text>
</a>
</g>
</g>
<!-- Node2&#45;&gt;Node3 -->
<g id="edge2" class="edge"><title>Node2&#45;&gt;Node3</title>
<path fill="none" stroke="midnightblue" d="M304.134,-17C312.846,-17 321.666,-17 330.233,-17"/>
<polygon fill="midnightblue" stroke="midnightblue" points="303.979,-13.5001 293.979,-17 303.979,-20.5001 303.979,-13.5001"/>
</g>
<!-- Node4 -->
<g id="node4" class="node"><title>Node4</title>
<g id="a_node4"><a xlink:href="../../d3/d9f/class_c_operator_console_app.html#a7041d197c4e6549f2cb7219981b4eec1" target="_top" xlink:title="Intercepts messages of interest before Windows or MFC. ">
<polygon fill="white" stroke="black" points="504,-0 504,-34 642,-34 642,-0 504,-0"/>
<text text-anchor="start" x="512" y="-20.4" font-family="Helvetica,sans-Serif" font-size="12.00">COperatorConsoleApp</text>
<text text-anchor="middle" x="573" y="-7.4" font-family="Helvetica,sans-Serif" font-size="12.00">::PreTranslateMessage</text>
</a>
</g>
</g>
<!-- Node3&#45;&gt;Node4 -->
<g id="edge3" class="edge"><title>Node3&#45;&gt;Node4</title>
<path fill="none" stroke="midnightblue" d="M478.054,-17C486.696,-17 495.446,-17 503.952,-17"/>
<polygon fill="midnightblue" stroke="midnightblue" points="477.979,-13.5001 467.979,-17 477.979,-20.5001 477.979,-13.5001"/>
</g>
</g>
</svg>
