<?xml version="1.0" encoding="UTF-8" standalone="no"?>
<!DOCTYPE svg PUBLIC "-//W3C//DTD SVG 1.1//EN"
 "http://www.w3.org/Graphics/SVG/1.1/DTD/svg11.dtd">
<!-- Generated by graphviz version 2.34.0 (20130907.0111)
 -->
<!-- Title: addDataTypeAndKey Pages: 1 -->
<svg width="486pt" height="42pt"
 viewBox="0.00 0.00 486.00 42.00" xmlns="http://www.w3.org/2000/svg" xmlns:xlink="http://www.w3.org/1999/xlink">
<g id="graph0" class="graph" transform="scale(1 1) rotate(0) translate(4 38)">
<title>addDataTypeAndKey</title>
<polygon fill="white" stroke="white" points="-4,4 -4,-38 482,-38 482,4 -4,4"/>
<!-- Node1 -->
<g id="node1" class="node"><title>Node1</title>
<polygon fill="#bfbfbf" stroke="black" points="0.5,-6.5 0.5,-27.5 129.5,-27.5 129.5,-6.5 0.5,-6.5"/>
<text text-anchor="middle" x="65" y="-13.9" font-family="Helvetica,sans-Serif" font-size="12.00">addDataTypeAndKey</text>
</g>
<!-- Node2 -->
<g id="node2" class="node"><title>Node2</title>
<g id="a_node2"><a xlink:href="../../d3/d9f/class_c_operator_console_app.html#a864bc0130d261b22868920143919ceb7" target="_top" xlink:title="This function reads in the pass/fail variable values as in the pass/fail file listed in the imatest I...">
<polygon fill="white" stroke="black" points="166.5,-0 166.5,-34 303.5,-34 303.5,-0 166.5,-0"/>
<text text-anchor="start" x="174.5" y="-20.4" font-family="Helvetica,sans-Serif" font-size="12.00">COperatorConsoleApp</text>
<text text-anchor="middle" x="235" y="-7.4" font-family="Helvetica,sans-Serif" font-size="12.00">::ReadPassFail</text>
</a>
</g>
</g>
<!-- Node1&#45;&gt;Node2 -->
<g id="edge1" class="edge"><title>Node1&#45;&gt;Node2</title>
<path fill="none" stroke="midnightblue" d="M139.535,-17C148.492,-17 157.61,-17 166.474,-17"/>
<polygon fill="midnightblue" stroke="midnightblue" points="139.514,-13.5001 129.514,-17 139.514,-20.5001 139.514,-13.5001"/>
</g>
<!-- Node3 -->
<g id="node3" class="node"><title>Node3</title>
<g id="a_node3"><a xlink:href="../../d3/d9f/class_c_operator_console_app.html#a94f4b258145e77e31644beb999bf099a" target="_top" xlink:title="COperatorConsoleApp initialization. ">
<polygon fill="white" stroke="black" points="340.5,-0 340.5,-34 477.5,-34 477.5,-0 340.5,-0"/>
<text text-anchor="start" x="348.5" y="-20.4" font-family="Helvetica,sans-Serif" font-size="12.00">COperatorConsoleApp</text>
<text text-anchor="middle" x="409" y="-7.4" font-family="Helvetica,sans-Serif" font-size="12.00">::InitInstance</text>
</a>
</g>
</g>
<!-- Node2&#45;&gt;Node3 -->
<g id="edge2" class="edge"><title>Node2&#45;&gt;Node3</title>
<path fill="none" stroke="midnightblue" d="M314.134,-17C322.846,-17 331.666,-17 340.233,-17"/>
<polygon fill="midnightblue" stroke="midnightblue" points="313.979,-13.5001 303.979,-17 313.979,-20.5001 313.979,-13.5001"/>
</g>
</g>
</svg>
