<?xml version="1.0" encoding="UTF-8" standalone="no"?>
<!DOCTYPE svg PUBLIC "-//W3C//DTD SVG 1.1//EN"
 "http://www.w3.org/Graphics/SVG/1.1/DTD/svg11.dtd">
<!-- Generated by graphviz version 2.34.0 (20130907.0111)
 -->
<!-- Title: ImatestLibAcq Pages: 1 -->
<svg width="221pt" height="248pt"
 viewBox="0.00 0.00 221.00 248.00" xmlns="http://www.w3.org/2000/svg" xmlns:xlink="http://www.w3.org/1999/xlink">
<g id="graph0" class="graph" transform="scale(1 1) rotate(0) translate(4 244)">
<title>ImatestLibAcq</title>
<polygon fill="white" stroke="white" points="-4,4 -4,-244 217,-244 217,4 -4,4"/>
<!-- Node1 -->
<g id="node1" class="node"><title>Node1</title>
<polygon fill="#bfbfbf" stroke="black" points="7,-0.5 7,-21.5 99,-21.5 99,-0.5 7,-0.5"/>
<text text-anchor="middle" x="53" y="-7.9" font-family="Helvetica,sans-Serif" font-size="12.00">ImatestLibAcq</text>
</g>
<!-- Node2 -->
<g id="node2" class="node"><title>Node2</title>
<g id="a_node2"><a xlink:href="../../d8/d29/class_image_acquisition.html" target="_top" xlink:title="the base class for image acquisition ">
<polygon fill="white" stroke="black" points="-0.5,-72.5 -0.5,-93.5 106.5,-93.5 106.5,-72.5 -0.5,-72.5"/>
<text text-anchor="middle" x="53" y="-79.9" font-family="Helvetica,sans-Serif" font-size="12.00">ImageAcquisition</text>
</a>
</g>
</g>
<!-- Node2&#45;&gt;Node1 -->
<g id="edge1" class="edge"><title>Node2&#45;&gt;Node1</title>
<path fill="none" stroke="midnightblue" d="M34.6544,-62.5952C31.1763,-49.2759 32.4624,-32.1688 38.5125,-21.6505"/>
<polygon fill="midnightblue" stroke="midnightblue" points="31.5429,-64.246 38.4651,-72.2668 38.0556,-61.6799 31.5429,-64.246"/>
</g>
<!-- Node2&#45;&gt;Node1 -->
<g id="edge5" class="edge"><title>Node2&#45;&gt;Node1</title>
<path fill="none" stroke="midnightblue" d="M46.8508,-62.1985C45.7341,-48.9378 46.1741,-32.0647 48.1708,-21.6505"/>
<polygon fill="midnightblue" stroke="midnightblue" points="43.3993,-62.7993 48.155,-72.2668 50.3413,-61.9 43.3993,-62.7993"/>
</g>
<!-- Node2&#45;&gt;Node1 -->
<g id="edge6" class="edge"><title>Node2&#45;&gt;Node1</title>
<path fill="none" stroke="midnightblue" d="M59.1492,-62.1985C60.2659,-48.9378 59.8259,-32.0647 57.8292,-21.6505"/>
<polygon fill="midnightblue" stroke="midnightblue" points="55.6587,-61.9 57.845,-72.2668 62.6007,-62.7993 55.6587,-61.9"/>
</g>
<!-- Node2&#45;&gt;Node1 -->
<g id="edge7" class="edge"><title>Node2&#45;&gt;Node1</title>
<path fill="none" stroke="midnightblue" d="M71.3456,-62.5952C74.8237,-49.2759 73.5376,-32.1688 67.4875,-21.6505"/>
<polygon fill="midnightblue" stroke="midnightblue" points="67.9444,-61.6799 67.5349,-72.2668 74.4571,-64.246 67.9444,-61.6799"/>
</g>
<!-- Node3 -->
<g id="node3" class="node"><title>Node3</title>
<g id="a_node3"><a xlink:href="../../d3/d1e/class_critical_buf.html" target="_top" xlink:title="a buffer class where all access (read or write) to the buffer is protected by critical sections ...">
<polygon fill="white" stroke="black" points="15.5,-151.5 15.5,-172.5 86.5,-172.5 86.5,-151.5 15.5,-151.5"/>
<text text-anchor="middle" x="51" y="-158.9" font-family="Helvetica,sans-Serif" font-size="12.00">CriticalBuf</text>
</a>
</g>
</g>
<!-- Node3&#45;&gt;Node2 -->
<g id="edge2" class="edge"><title>Node3&#45;&gt;Node2</title>
<path fill="none" stroke="#9a32cd" stroke-dasharray="5,2" d="M51.5227,-140.875C51.9151,-125.768 52.4356,-105.731 52.7424,-93.9161"/>
<polygon fill="#9a32cd" stroke="#9a32cd" points="48.0142,-141.16 51.2533,-151.248 55.0119,-141.342 48.0142,-141.16"/>
<text text-anchor="middle" x="78" y="-115.9" font-family="Helvetica,sans-Serif" font-size="12.00"> m_frame</text>
</g>
<!-- Node4 -->
<g id="node4" class="node"><title>Node4</title>
<polygon fill="white" stroke="#bfbfbf" points="0,-218.5 0,-239.5 102,-239.5 102,-218.5 0,-218.5"/>
<text text-anchor="middle" x="51" y="-225.9" font-family="Helvetica,sans-Serif" font-size="12.00">CCriticalSection</text>
</g>
<!-- Node4&#45;&gt;Node3 -->
<g id="edge3" class="edge"><title>Node4&#45;&gt;Node3</title>
<path fill="none" stroke="midnightblue" d="M44.7281,-208.168C43.7932,-196.381 44.2295,-181.958 46.037,-172.63"/>
<polygon fill="midnightblue" stroke="midnightblue" points="41.2981,-208.937 46.0446,-218.409 48.2409,-208.044 41.2981,-208.937"/>
</g>
<!-- Node4&#45;&gt;Node3 -->
<g id="edge4" class="edge"><title>Node4&#45;&gt;Node3</title>
<path fill="none" stroke="midnightblue" d="M57.2719,-208.168C58.2068,-196.381 57.7705,-181.958 55.963,-172.63"/>
<polygon fill="midnightblue" stroke="midnightblue" points="53.7591,-208.044 55.9554,-218.409 60.7019,-208.937 53.7591,-208.044"/>
</g>
<!-- Node5 -->
<g id="node5" class="node"><title>Node5</title>
<g id="a_node5"><a xlink:title="STL class. ">
<polygon fill="white" stroke="#bfbfbf" points="125.5,-72.5 125.5,-93.5 192.5,-93.5 192.5,-72.5 125.5,-72.5"/>
<text text-anchor="middle" x="159" y="-79.9" font-family="Helvetica,sans-Serif" font-size="12.00">std::string</text>
</a>
</g>
</g>
<!-- Node5&#45;&gt;Node1 -->
<g id="edge8" class="edge"><title>Node5&#45;&gt;Node1</title>
<path fill="none" stroke="#9a32cd" stroke-dasharray="5,2" d="M135.702,-66.6148C114.94,-52.904 85.1972,-33.2623 67.6137,-21.6505"/>
<polygon fill="#9a32cd" stroke="#9a32cd" points="133.988,-69.6768 144.261,-72.2668 137.845,-63.8355 133.988,-69.6768"/>
<text text-anchor="middle" x="142" y="-43.9" font-family="Helvetica,sans-Serif" font-size="12.00"> m_ini_file</text>
</g>
<!-- Node6 -->
<g id="node6" class="node"><title>Node6</title>
<g id="a_node6"><a xlink:title="STL class. ">
<polygon fill="white" stroke="#bfbfbf" points="104.5,-145 104.5,-179 213.5,-179 213.5,-145 104.5,-145"/>
<text text-anchor="start" x="112.5" y="-165.4" font-family="Helvetica,sans-Serif" font-size="12.00">std::basic_string&lt;</text>
<text text-anchor="middle" x="159" y="-152.4" font-family="Helvetica,sans-Serif" font-size="12.00"> char &gt;</text>
</a>
</g>
</g>
<!-- Node6&#45;&gt;Node5 -->
<g id="edge9" class="edge"><title>Node6&#45;&gt;Node5</title>
<path fill="none" stroke="midnightblue" d="M159,-134.442C159,-120.265 159,-103.69 159,-93.5189"/>
<polygon fill="midnightblue" stroke="midnightblue" points="155.5,-134.67 159,-144.67 162.5,-134.67 155.5,-134.67"/>
</g>
</g>
</svg>
