<?xml version="1.0" encoding="UTF-8" standalone="no"?>
<!DOCTYPE svg PUBLIC "-//W3C//DTD SVG 1.1//EN"
 "http://www.w3.org/Graphics/SVG/1.1/DTD/svg11.dtd">
<!-- Generated by graphviz version 2.34.0 (20130907.0111)
 -->
<!-- Title: PassFailSettings.h Pages: 1 -->
<svg width="1062pt" height="146pt"
 viewBox="0.00 0.00 1062.00 146.00" xmlns="http://www.w3.org/2000/svg" xmlns:xlink="http://www.w3.org/1999/xlink">
<g id="graph0" class="graph" transform="scale(1 1) rotate(0) translate(4 142)">
<title>PassFailSettings.h</title>
<polygon fill="white" stroke="white" points="-4,4 -4,-142 1058,-142 1058,4 -4,4"/>
<!-- Node1 -->
<g id="node1" class="node"><title>Node1</title>
<polygon fill="#bfbfbf" stroke="black" points="806.5,-116.5 806.5,-137.5 921.5,-137.5 921.5,-116.5 806.5,-116.5"/>
<text text-anchor="middle" x="864" y="-123.9" font-family="Helvetica,sans-Serif" font-size="12.00">PassFailSettings.h</text>
</g>
<!-- Node2 -->
<g id="node2" class="node"><title>Node2</title>
<g id="a_node2"><a xlink:href="../../da/de6/_operator_console_8h.html" target="_top" xlink:title="OperatorConsole.h">
<polygon fill="white" stroke="black" points="465,-58.5 465,-79.5 581,-79.5 581,-58.5 465,-58.5"/>
<text text-anchor="middle" x="523" y="-65.9" font-family="Helvetica,sans-Serif" font-size="12.00">OperatorConsole.h</text>
</a>
</g>
</g>
<!-- Node1&#45;&gt;Node2 -->
<g id="edge1" class="edge"><title>Node1&#45;&gt;Node2</title>
<path fill="none" stroke="midnightblue" d="M795.938,-114.823C733.056,-104.496 640.634,-89.3181 581.13,-79.5462"/>
<polygon fill="midnightblue" stroke="midnightblue" points="795.719,-118.333 806.154,-116.5 796.853,-111.426 795.719,-118.333"/>
</g>
<!-- Node12 -->
<g id="node12" class="node"><title>Node12</title>
<g id="a_node12"><a xlink:href="../../d4/d27/_pass_fail_8h.html" target="_top" xlink:title="PassFail.h">
<polygon fill="white" stroke="black" points="828,-58.5 828,-79.5 900,-79.5 900,-58.5 828,-58.5"/>
<text text-anchor="middle" x="864" y="-65.9" font-family="Helvetica,sans-Serif" font-size="12.00">PassFail.h</text>
</a>
</g>
</g>
<!-- Node1&#45;&gt;Node12 -->
<g id="edge11" class="edge"><title>Node1&#45;&gt;Node12</title>
<path fill="none" stroke="midnightblue" d="M864,-106.158C864,-97.155 864,-86.9199 864,-79.6427"/>
<polygon fill="midnightblue" stroke="midnightblue" points="860.5,-106.246 864,-116.246 867.5,-106.246 860.5,-106.246"/>
</g>
<!-- Node13 -->
<g id="node13" class="node"><title>Node13</title>
<g id="a_node13"><a xlink:href="../../da/df2/_pass_fail_settings_8cpp.html" target="_top" xlink:title="PassFailSettings.cpp">
<polygon fill="white" stroke="black" points="918,-58.5 918,-79.5 1046,-79.5 1046,-58.5 918,-58.5"/>
<text text-anchor="middle" x="982" y="-65.9" font-family="Helvetica,sans-Serif" font-size="12.00">PassFailSettings.cpp</text>
</a>
</g>
</g>
<!-- Node1&#45;&gt;Node13 -->
<g id="edge14" class="edge"><title>Node1&#45;&gt;Node13</title>
<path fill="none" stroke="midnightblue" d="M893.555,-111.974C914.92,-101.835 943.212,-88.408 961.98,-79.5011"/>
<polygon fill="midnightblue" stroke="midnightblue" points="891.819,-108.924 884.285,-116.373 894.82,-115.248 891.819,-108.924"/>
</g>
<!-- Node3 -->
<g id="node3" class="node"><title>Node3</title>
<g id="a_node3"><a xlink:href="../../d3/d22/_app_thread_8cpp.html" target="_top" xlink:title="AppThread.cpp">
<polygon fill="white" stroke="black" points="88,-0.5 88,-21.5 186,-21.5 186,-0.5 88,-0.5"/>
<text text-anchor="middle" x="137" y="-7.9" font-family="Helvetica,sans-Serif" font-size="12.00">AppThread.cpp</text>
</a>
</g>
</g>
<!-- Node2&#45;&gt;Node3 -->
<g id="edge2" class="edge"><title>Node2&#45;&gt;Node3</title>
<path fill="none" stroke="midnightblue" d="M454.931,-59.0878C388.528,-50.2443 284.703,-36.0196 195,-22 192.072,-21.5424 189.064,-21.0602 186.03,-20.5648"/>
<polygon fill="midnightblue" stroke="midnightblue" points="454.48,-62.5586 464.854,-60.4065 455.402,-55.6196 454.48,-62.5586"/>
</g>
<!-- Node4 -->
<g id="node4" class="node"><title>Node4</title>
<g id="a_node4"><a xlink:href="../../d6/df7/_critical_buf_8cpp.html" target="_top" xlink:title="CriticalBuf.cpp">
<polygon fill="white" stroke="black" points="204.5,-0.5 204.5,-21.5 297.5,-21.5 297.5,-0.5 204.5,-0.5"/>
<text text-anchor="middle" x="251" y="-7.9" font-family="Helvetica,sans-Serif" font-size="12.00">CriticalBuf.cpp</text>
</a>
</g>
</g>
<!-- Node2&#45;&gt;Node4 -->
<g id="edge3" class="edge"><title>Node2&#45;&gt;Node4</title>
<path fill="none" stroke="midnightblue" d="M466.521,-56.372C416.388,-46.0505 344.032,-31.1537 297.258,-21.5237"/>
<polygon fill="midnightblue" stroke="midnightblue" points="466.05,-59.8484 476.551,-58.4369 467.462,-52.9922 466.05,-59.8484"/>
</g>
<!-- Node5 -->
<g id="node5" class="node"><title>Node5</title>
<g id="a_node5"><a xlink:href="../../d8/d53/_image_test_8cpp.html" target="_top" xlink:title="ImageTest.cpp">
<polygon fill="white" stroke="black" points="316,-0.5 316,-21.5 410,-21.5 410,-0.5 316,-0.5"/>
<text text-anchor="middle" x="363" y="-7.9" font-family="Helvetica,sans-Serif" font-size="12.00">ImageTest.cpp</text>
</a>
</g>
</g>
<!-- Node2&#45;&gt;Node5 -->
<g id="edge4" class="edge"><title>Node2&#45;&gt;Node5</title>
<path fill="none" stroke="midnightblue" d="M486.02,-55.057C456.738,-44.8084 416.511,-30.729 390.146,-21.5011"/>
<polygon fill="midnightblue" stroke="midnightblue" points="484.9,-58.3732 495.495,-58.3733 487.213,-51.7662 484.9,-58.3732"/>
</g>
<!-- Node6 -->
<g id="node6" class="node"><title>Node6</title>
<g id="a_node6"><a xlink:href="../../df/d0a/main_8cpp.html" target="_top" xlink:title="main.cpp">
<polygon fill="white" stroke="black" points="428.5,-0.5 428.5,-21.5 493.5,-21.5 493.5,-0.5 428.5,-0.5"/>
<text text-anchor="middle" x="461" y="-7.9" font-family="Helvetica,sans-Serif" font-size="12.00">main.cpp</text>
</a>
</g>
</g>
<!-- Node2&#45;&gt;Node6 -->
<g id="edge5" class="edge"><title>Node2&#45;&gt;Node6</title>
<path fill="none" stroke="midnightblue" d="M504.578,-51.3607C493.852,-41.6727 480.707,-29.7995 471.676,-21.6427"/>
<polygon fill="midnightblue" stroke="midnightblue" points="502.433,-54.14 512.2,-58.2455 507.125,-48.9453 502.433,-54.14"/>
</g>
<!-- Node7 -->
<g id="node7" class="node"><title>Node7</title>
<g id="a_node7"><a xlink:href="../../de/da2/_operator_console_8cpp.html" target="_top" xlink:title="OperatorConsole.cpp">
<polygon fill="white" stroke="black" points="925.5,-0.5 925.5,-21.5 1054.5,-21.5 1054.5,-0.5 925.5,-0.5"/>
<text text-anchor="middle" x="990" y="-7.9" font-family="Helvetica,sans-Serif" font-size="12.00">OperatorConsole.cpp</text>
</a>
</g>
</g>
<!-- Node2&#45;&gt;Node7 -->
<g id="edge6" class="edge"><title>Node2&#45;&gt;Node7</title>
<path fill="none" stroke="midnightblue" d="M591.537,-60.3522C669.995,-51.5103 802.342,-36.3301 916,-22 919.087,-21.6108 922.245,-21.2067 925.435,-20.7939"/>
<polygon fill="midnightblue" stroke="midnightblue" points="590.847,-56.9076 581.301,-61.5041 591.63,-63.8637 590.847,-56.9076"/>
</g>
<!-- Node8 -->
<g id="node8" class="node"><title>Node8</title>
<g id="a_node8"><a xlink:href="../../d8/d29/_operator_console_dlg_8cpp.html" target="_top" xlink:title="OperatorConsoleDlg.cpp">
<polygon fill="white" stroke="black" points="511.5,-0.5 511.5,-21.5 658.5,-21.5 658.5,-0.5 511.5,-0.5"/>
<text text-anchor="middle" x="585" y="-7.9" font-family="Helvetica,sans-Serif" font-size="12.00">OperatorConsoleDlg.cpp</text>
</a>
</g>
</g>
<!-- Node2&#45;&gt;Node8 -->
<g id="edge7" class="edge"><title>Node2&#45;&gt;Node8</title>
<path fill="none" stroke="midnightblue" d="M541.422,-51.3607C552.148,-41.6727 565.293,-29.7995 574.324,-21.6427"/>
<polygon fill="midnightblue" stroke="midnightblue" points="538.875,-48.9453 533.8,-58.2455 543.567,-54.14 538.875,-48.9453"/>
</g>
<!-- Node9 -->
<g id="node9" class="node"><title>Node9</title>
<g id="a_node9"><a xlink:href="../../d0/d57/_pass_fail_8cpp.html" target="_top" xlink:title="PassFail.cpp">
<polygon fill="white" stroke="black" points="821,-0.5 821,-21.5 907,-21.5 907,-0.5 821,-0.5"/>
<text text-anchor="middle" x="864" y="-7.9" font-family="Helvetica,sans-Serif" font-size="12.00">PassFail.cpp</text>
</a>
</g>
</g>
<!-- Node2&#45;&gt;Node9 -->
<g id="edge8" class="edge"><title>Node2&#45;&gt;Node9</title>
<path fill="none" stroke="midnightblue" d="M591.462,-57.7372C650.086,-48.7974 736.709,-35.2281 812,-22 814.897,-21.4909 817.883,-20.9529 820.889,-20.4011"/>
<polygon fill="midnightblue" stroke="midnightblue" points="590.574,-54.332 581.214,-59.2963 591.626,-61.2523 590.574,-54.332"/>
</g>
<!-- Node10 -->
<g id="node10" class="node"><title>Node10</title>
<g id="a_node10"><a xlink:href="../../da/d46/_password_dialog_8cpp.html" target="_top" xlink:title="PasswordDialog.cpp">
<polygon fill="white" stroke="black" points="677,-0.5 677,-21.5 803,-21.5 803,-0.5 677,-0.5"/>
<text text-anchor="middle" x="740" y="-7.9" font-family="Helvetica,sans-Serif" font-size="12.00">PasswordDialog.cpp</text>
</a>
</g>
</g>
<!-- Node2&#45;&gt;Node10 -->
<g id="edge9" class="edge"><title>Node2&#45;&gt;Node10</title>
<path fill="none" stroke="midnightblue" d="M570.077,-55.8511C610.008,-45.5462 666.492,-30.9697 703.183,-21.5011"/>
<polygon fill="midnightblue" stroke="midnightblue" points="569.112,-52.4854 560.304,-58.3733 570.861,-59.2634 569.112,-52.4854"/>
</g>
<!-- Node11 -->
<g id="node11" class="node"><title>Node11</title>
<g id="a_node11"><a xlink:href="../../d5/d27/_setup_8cpp.html" target="_top" xlink:title="Setup.cpp">
<polygon fill="white" stroke="black" points="0,-0.5 0,-21.5 70,-21.5 70,-0.5 0,-0.5"/>
<text text-anchor="middle" x="35" y="-7.9" font-family="Helvetica,sans-Serif" font-size="12.00">Setup.cpp</text>
</a>
</g>
</g>
<!-- Node2&#45;&gt;Node11 -->
<g id="edge10" class="edge"><title>Node2&#45;&gt;Node11</title>
<path fill="none" stroke="midnightblue" d="M454.818,-63.4944C367.37,-57.1307 211.21,-43.7914 79,-22 76.2174,-21.5414 73.3473,-21.014 70.4693,-20.4462"/>
<polygon fill="midnightblue" stroke="midnightblue" points="454.651,-66.9914 464.876,-64.2176 455.153,-60.0094 454.651,-66.9914"/>
</g>
<!-- Node12&#45;&gt;Node7 -->
<g id="edge12" class="edge"><title>Node12&#45;&gt;Node7</title>
<path fill="none" stroke="midnightblue" d="M894.944,-54.2473C917.827,-44.0771 948.401,-30.4883 968.622,-21.5011"/>
<polygon fill="midnightblue" stroke="midnightblue" points="893.377,-51.1135 885.66,-58.3733 896.22,-57.5102 893.377,-51.1135"/>
</g>
<!-- Node12&#45;&gt;Node9 -->
<g id="edge13" class="edge"><title>Node12&#45;&gt;Node9</title>
<path fill="none" stroke="midnightblue" d="M864,-48.1575C864,-39.155 864,-28.9199 864,-21.6427"/>
<polygon fill="midnightblue" stroke="midnightblue" points="860.5,-48.2455 864,-58.2455 867.5,-48.2456 860.5,-48.2455"/>
</g>
</g>
</svg>
