<?xml version="1.0" encoding="UTF-8" standalone="no"?>
<!DOCTYPE svg PUBLIC "-//W3C//DTD SVG 1.1//EN"
 "http://www.w3.org/Graphics/SVG/1.1/DTD/svg11.dtd">
<!-- Generated by graphviz version 2.34.0 (20130907.0111)
 -->
<!-- Title: Documentation/Operator&#45;Console/StderrRedirect.cpp Pages: 1 -->
<svg width="174pt" height="218pt"
 viewBox="0.00 0.00 174.00 218.00" xmlns="http://www.w3.org/2000/svg" xmlns:xlink="http://www.w3.org/1999/xlink">
<g id="graph0" class="graph" transform="scale(1 1) rotate(0) translate(4 214)">
<title>Documentation/Operator&#45;Console/StderrRedirect.cpp</title>
<polygon fill="white" stroke="white" points="-4,4 -4,-214 170,-214 170,4 -4,4"/>
<!-- Node1 -->
<g id="node1" class="node"><title>Node1</title>
<polygon fill="#bfbfbf" stroke="black" points="0,-175 0,-209 166,-209 166,-175 0,-175"/>
<text text-anchor="start" x="8" y="-195.4" font-family="Helvetica,sans-Serif" font-size="12.00">Documentation/Operator</text>
<text text-anchor="middle" x="83" y="-182.4" font-family="Helvetica,sans-Serif" font-size="12.00">&#45;Console/StderrRedirect.cpp</text>
</g>
<!-- Node2 -->
<g id="node2" class="node"><title>Node2</title>
<g id="a_node2"><a xlink:href="../../d7/d52/_documentation_2_operator-_console_2_stderr_redirect_8h.html" target="_top" xlink:title="StderrRedirect.h">
<polygon fill="white" stroke="black" points="32,-116.5 32,-137.5 134,-137.5 134,-116.5 32,-116.5"/>
<text text-anchor="middle" x="83" y="-123.9" font-family="Helvetica,sans-Serif" font-size="12.00">StderrRedirect.h</text>
</a>
</g>
</g>
<!-- Node1&#45;&gt;Node2 -->
<g id="edge1" class="edge"><title>Node1&#45;&gt;Node2</title>
<path fill="none" stroke="midnightblue" d="M83,-174.776C83,-166.47 83,-156.295 83,-147.559"/>
<polygon fill="midnightblue" stroke="midnightblue" points="86.5001,-147.511 83,-137.511 79.5001,-147.511 86.5001,-147.511"/>
</g>
<!-- Node3 -->
<g id="node3" class="node"><title>Node3</title>
<g id="a_node3"><a xlink:href="../../d4/df5/_documentation_2_operator-_console_2_stdout_redirect_8h.html" target="_top" xlink:title="StdoutRedirect.h">
<polygon fill="white" stroke="black" points="31,-58.5 31,-79.5 135,-79.5 135,-58.5 31,-58.5"/>
<text text-anchor="middle" x="83" y="-65.9" font-family="Helvetica,sans-Serif" font-size="12.00">StdoutRedirect.h</text>
</a>
</g>
</g>
<!-- Node2&#45;&gt;Node3 -->
<g id="edge2" class="edge"><title>Node2&#45;&gt;Node3</title>
<path fill="none" stroke="midnightblue" d="M83,-116.246C83,-108.938 83,-98.6944 83,-89.7046"/>
<polygon fill="midnightblue" stroke="midnightblue" points="86.5001,-89.6426 83,-79.6427 79.5001,-89.6427 86.5001,-89.6426"/>
</g>
<!-- Node4 -->
<g id="node4" class="node"><title>Node4</title>
<polygon fill="white" stroke="#bfbfbf" points="57.5,-0.5 57.5,-21.5 108.5,-21.5 108.5,-0.5 57.5,-0.5"/>
<text text-anchor="middle" x="83" y="-7.9" font-family="Helvetica,sans-Serif" font-size="12.00">stdio.h</text>
</g>
<!-- Node3&#45;&gt;Node4 -->
<g id="edge3" class="edge"><title>Node3&#45;&gt;Node4</title>
<path fill="none" stroke="midnightblue" d="M83,-58.2455C83,-50.9382 83,-40.6944 83,-31.7046"/>
<polygon fill="midnightblue" stroke="midnightblue" points="86.5001,-31.6426 83,-21.6427 79.5001,-31.6427 86.5001,-31.6426"/>
</g>
</g>
</svg>
