<?xml version="1.0" encoding="UTF-8" standalone="no"?>
<!DOCTYPE svg PUBLIC "-//W3C//DTD SVG 1.1//EN"
 "http://www.w3.org/Graphics/SVG/1.1/DTD/svg11.dtd">
<!-- Generated by graphviz version 2.34.0 (20130907.0111)
 -->
<!-- Title: Documentation/Operator&#45;Console/StderrRedirect.h Pages: 1 -->
<svg width="160pt" height="160pt"
 viewBox="0.00 0.00 160.00 160.00" xmlns="http://www.w3.org/2000/svg" xmlns:xlink="http://www.w3.org/1999/xlink">
<g id="graph0" class="graph" transform="scale(1 1) rotate(0) translate(4 156)">
<title>Documentation/Operator&#45;Console/StderrRedirect.h</title>
<polygon fill="white" stroke="white" points="-4,4 -4,-156 156,-156 156,4 -4,4"/>
<!-- Node1 -->
<g id="node1" class="node"><title>Node1</title>
<polygon fill="#bfbfbf" stroke="black" points="0,-117 0,-151 152,-151 152,-117 0,-117"/>
<text text-anchor="start" x="8" y="-137.4" font-family="Helvetica,sans-Serif" font-size="12.00">Documentation/Operator</text>
<text text-anchor="middle" x="76" y="-124.4" font-family="Helvetica,sans-Serif" font-size="12.00">&#45;Console/StderrRedirect.h</text>
</g>
<!-- Node2 -->
<g id="node2" class="node"><title>Node2</title>
<g id="a_node2"><a xlink:href="../../d4/df5/_documentation_2_operator-_console_2_stdout_redirect_8h.html" target="_top" xlink:title="StdoutRedirect.h">
<polygon fill="white" stroke="black" points="24,-58.5 24,-79.5 128,-79.5 128,-58.5 24,-58.5"/>
<text text-anchor="middle" x="76" y="-65.9" font-family="Helvetica,sans-Serif" font-size="12.00">StdoutRedirect.h</text>
</a>
</g>
</g>
<!-- Node1&#45;&gt;Node2 -->
<g id="edge1" class="edge"><title>Node1&#45;&gt;Node2</title>
<path fill="none" stroke="midnightblue" d="M76,-116.776C76,-108.47 76,-98.2953 76,-89.5587"/>
<polygon fill="midnightblue" stroke="midnightblue" points="79.5001,-89.5106 76,-79.5106 72.5001,-89.5107 79.5001,-89.5106"/>
</g>
<!-- Node3 -->
<g id="node3" class="node"><title>Node3</title>
<polygon fill="white" stroke="#bfbfbf" points="50.5,-0.5 50.5,-21.5 101.5,-21.5 101.5,-0.5 50.5,-0.5"/>
<text text-anchor="middle" x="76" y="-7.9" font-family="Helvetica,sans-Serif" font-size="12.00">stdio.h</text>
</g>
<!-- Node2&#45;&gt;Node3 -->
<g id="edge2" class="edge"><title>Node2&#45;&gt;Node3</title>
<path fill="none" stroke="midnightblue" d="M76,-58.2455C76,-50.9382 76,-40.6944 76,-31.7046"/>
<polygon fill="midnightblue" stroke="midnightblue" points="79.5001,-31.6426 76,-21.6427 72.5001,-31.6427 79.5001,-31.6426"/>
</g>
</g>
</svg>
