<?xml version="1.0" encoding="UTF-8" standalone="no"?>
<!DOCTYPE svg PUBLIC "-//W3C//DTD SVG 1.1//EN"
 "http://www.w3.org/Graphics/SVG/1.1/DTD/svg11.dtd">
<!-- Generated by graphviz version 2.34.0 (20130907.0111)
 -->
<!-- Title: auto_delete::~auto_delete Pages: 1 -->
<svg width="926pt" height="83pt"
 viewBox="0.00 0.00 926.00 83.00" xmlns="http://www.w3.org/2000/svg" xmlns:xlink="http://www.w3.org/1999/xlink">
<g id="graph0" class="graph" transform="scale(1 1) rotate(0) translate(4 79)">
<title>auto_delete::~auto_delete</title>
<polygon fill="white" stroke="white" points="-4,4 -4,-79 922,-79 922,4 -4,4"/>
<!-- Node1 -->
<g id="node1" class="node"><title>Node1</title>
<polygon fill="#bfbfbf" stroke="black" points="0.5,-23 0.5,-57 113.5,-57 113.5,-23 0.5,-23"/>
<text text-anchor="start" x="8.5" y="-43.4" font-family="Helvetica,sans-Serif" font-size="12.00">auto_delete::~auto</text>
<text text-anchor="middle" x="57" y="-30.4" font-family="Helvetica,sans-Serif" font-size="12.00">_delete</text>
</g>
<!-- Node2 -->
<g id="node2" class="node"><title>Node2</title>
<g id="a_node2"><a xlink:href="../../d6/dc7/class_j_s_o_n_node.html#a4820d966e35e8512e8de4d646960e149" target="_top" xlink:title="JSONNode::deleteJSONNode">
<polygon fill="white" stroke="black" points="150.5,-29.5 150.5,-50.5 325.5,-50.5 325.5,-29.5 150.5,-29.5"/>
<text text-anchor="middle" x="238" y="-36.9" font-family="Helvetica,sans-Serif" font-size="12.00">JSONNode::deleteJSONNode</text>
</a>
</g>
</g>
<!-- Node1&#45;&gt;Node2 -->
<g id="edge1" class="edge"><title>Node1&#45;&gt;Node2</title>
<path fill="none" stroke="midnightblue" d="M113.656,-40C122.156,-40 131.134,-40 140.213,-40"/>
<polygon fill="midnightblue" stroke="midnightblue" points="140.486,-43.5001 150.486,-40 140.486,-36.5001 140.486,-43.5001"/>
</g>
<!-- Node3 -->
<g id="node3" class="node"><title>Node3</title>
<g id="a_node3"><a xlink:href="../../d6/dc7/class_j_s_o_n_node.html#ab7fcb8d880ff067c76ba5d90ea26cc02" target="_top" xlink:title="JSONNode::~JSONNode">
<polygon fill="white" stroke="black" points="362.5,-29.5 362.5,-50.5 511.5,-50.5 511.5,-29.5 362.5,-29.5"/>
<text text-anchor="middle" x="437" y="-36.9" font-family="Helvetica,sans-Serif" font-size="12.00">JSONNode::~JSONNode</text>
</a>
</g>
</g>
<!-- Node2&#45;&gt;Node3 -->
<g id="edge2" class="edge"><title>Node2&#45;&gt;Node3</title>
<path fill="none" stroke="midnightblue" d="M325.694,-40C334.449,-40 343.33,-40 352.055,-40"/>
<polygon fill="midnightblue" stroke="midnightblue" points="352.21,-43.5001 362.21,-40 352.21,-36.5001 352.21,-43.5001"/>
</g>
<!-- Node4 -->
<g id="node4" class="node"><title>Node4</title>
<g id="a_node4"><a xlink:href="../../d6/dc7/class_j_s_o_n_node.html#ac68ad8233da336a15052bad5edf087a6" target="_top" xlink:title="JSONNode::decRef">
<polygon fill="white" stroke="black" points="548,-29.5 548,-50.5 668,-50.5 668,-29.5 548,-29.5"/>
<text text-anchor="middle" x="608" y="-36.9" font-family="Helvetica,sans-Serif" font-size="12.00">JSONNode::decRef</text>
</a>
</g>
</g>
<!-- Node3&#45;&gt;Node4 -->
<g id="edge3" class="edge"><title>Node3&#45;&gt;Node4</title>
<path fill="none" stroke="midnightblue" d="M511.634,-40C520.329,-40 529.18,-40 537.81,-40"/>
<polygon fill="midnightblue" stroke="midnightblue" points="537.818,-43.5001 547.818,-40 537.818,-36.5001 537.818,-43.5001"/>
</g>
<!-- Node5 -->
<g id="node5" class="node"><title>Node5</title>
<g id="a_node5"><a xlink:href="../../d1/d0b/classinternal_j_s_o_n_node.html#aeb2be9601ca22ac3abb8917c95aa251a" target="_top" xlink:title="internalJSONNode::hasNoReferences">
<polygon fill="white" stroke="black" points="704,-53.5 704,-74.5 918,-74.5 918,-53.5 704,-53.5"/>
<text text-anchor="middle" x="811" y="-60.9" font-family="Helvetica,sans-Serif" font-size="12.00">internalJSONNode::hasNoReferences</text>
</a>
</g>
</g>
<!-- Node4&#45;&gt;Node5 -->
<g id="edge4" class="edge"><title>Node4&#45;&gt;Node5</title>
<path fill="none" stroke="midnightblue" d="M668.219,-47.071C681.862,-48.7 696.733,-50.4756 711.545,-52.2442"/>
<polygon fill="midnightblue" stroke="midnightblue" points="711.43,-55.7552 721.774,-53.4656 712.26,-48.8046 711.43,-55.7552"/>
</g>
<!-- Node6 -->
<g id="node6" class="node"><title>Node6</title>
<g id="a_node6"><a xlink:href="../../d1/d0b/classinternal_j_s_o_n_node.html#a9c6fdbfa2a691417e78b53330c1ceced" target="_top" xlink:title="internalJSONNode::delete\lInternal">
<polygon fill="white" stroke="black" points="735,-0 735,-34 887,-34 887,-0 735,-0"/>
<text text-anchor="start" x="743" y="-20.4" font-family="Helvetica,sans-Serif" font-size="12.00">internalJSONNode::delete</text>
<text text-anchor="middle" x="811" y="-7.4" font-family="Helvetica,sans-Serif" font-size="12.00">Internal</text>
</a>
</g>
</g>
<!-- Node4&#45;&gt;Node6 -->
<g id="edge5" class="edge"><title>Node4&#45;&gt;Node6</title>
<path fill="none" stroke="midnightblue" d="M668.219,-33.2236C685.888,-31.2019 705.617,-28.9443 724.609,-26.7711"/>
<polygon fill="midnightblue" stroke="midnightblue" points="725.225,-30.2236 734.762,-25.6093 724.429,-23.269 725.225,-30.2236"/>
</g>
</g>
</svg>
