<?xml version="1.0" encoding="UTF-8" standalone="no"?>
<!DOCTYPE svg PUBLIC "-//W3C//DTD SVG 1.1//EN"
 "http://www.w3.org/Graphics/SVG/1.1/DTD/svg11.dtd">
<!-- Generated by graphviz version 2.34.0 (20130907.0111)
 -->
<!-- Title: Documentation/Operator&#45;Console/resource.h Pages: 1 -->
<svg width="1580pt" height="332pt"
 viewBox="0.00 0.00 1580.00 332.00" xmlns="http://www.w3.org/2000/svg" xmlns:xlink="http://www.w3.org/1999/xlink">
<g id="graph0" class="graph" transform="scale(1 1) rotate(0) translate(4 328)">
<title>Documentation/Operator&#45;Console/resource.h</title>
<polygon fill="white" stroke="white" points="-4,4 -4,-328 1576,-328 1576,4 -4,4"/>
<!-- Node1 -->
<g id="node1" class="node"><title>Node1</title>
<polygon fill="#bfbfbf" stroke="black" points="406.5,-289 406.5,-323 551.5,-323 551.5,-289 406.5,-289"/>
<text text-anchor="start" x="414.5" y="-309.4" font-family="Helvetica,sans-Serif" font-size="12.00">Documentation/Operator</text>
<text text-anchor="middle" x="479" y="-296.4" font-family="Helvetica,sans-Serif" font-size="12.00">&#45;Console/resource.h</text>
</g>
<!-- Node2 -->
<g id="node2" class="node"><title>Node2</title>
<g id="a_node2"><a xlink:href="../../d4/d82/_documentation_2_operator-_console_2_app_thread_8h.html" target="_top" xlink:title="Documentation/Operator\l&#45;Console/AppThread.h">
<polygon fill="white" stroke="black" points="211.5,-217 211.5,-251 356.5,-251 356.5,-217 211.5,-217"/>
<text text-anchor="start" x="219.5" y="-237.4" font-family="Helvetica,sans-Serif" font-size="12.00">Documentation/Operator</text>
<text text-anchor="middle" x="284" y="-224.4" font-family="Helvetica,sans-Serif" font-size="12.00">&#45;Console/AppThread.h</text>
</a>
</g>
</g>
<!-- Node1&#45;&gt;Node2 -->
<g id="edge1" class="edge"><title>Node1&#45;&gt;Node2</title>
<path fill="none" stroke="midnightblue" d="M424.723,-285.516C394.53,-274.677 357.403,-261.35 328.866,-251.106"/>
<polygon fill="midnightblue" stroke="midnightblue" points="423.669,-288.856 434.263,-288.941 426.034,-282.268 423.669,-288.856"/>
</g>
<!-- Node4 -->
<g id="node4" class="node"><title>Node4</title>
<g id="a_node4"><a xlink:href="../../da/d65/_documentation_2_operator-_console_2_operator_console_8h.html" target="_top" xlink:title="Documentation/Operator\l&#45;Console/OperatorConsole.h">
<polygon fill="white" stroke="black" points="604,-73 604,-107 770,-107 770,-73 604,-73"/>
<text text-anchor="start" x="612" y="-93.4" font-family="Helvetica,sans-Serif" font-size="12.00">Documentation/Operator</text>
<text text-anchor="middle" x="687" y="-80.4" font-family="Helvetica,sans-Serif" font-size="12.00">&#45;Console/OperatorConsole.h</text>
</a>
</g>
</g>
<!-- Node1&#45;&gt;Node4 -->
<g id="edge3" class="edge"><title>Node1&#45;&gt;Node4</title>
<path fill="none" stroke="midnightblue" d="M561.645,-288.999C620.363,-272.683 694.506,-240.769 728,-180 741.632,-155.268 720.345,-125.188 703.694,-107.095"/>
<polygon fill="midnightblue" stroke="midnightblue" points="560.378,-285.715 551.62,-291.677 562.184,-292.478 560.378,-285.715"/>
</g>
<!-- Node13 -->
<g id="node13" class="node"><title>Node13</title>
<g id="a_node13"><a xlink:href="../../db/d8e/_documentation_2_operator-_console_2_modeless_dialog_thread_8h.html" target="_top" xlink:title="Documentation/Operator\l&#45;Console/ModelessDialogThread.h">
<polygon fill="white" stroke="black" points="320,-145 320,-179 518,-179 518,-145 320,-145"/>
<text text-anchor="start" x="328" y="-165.4" font-family="Helvetica,sans-Serif" font-size="12.00">Documentation/Operator</text>
<text text-anchor="middle" x="419" y="-152.4" font-family="Helvetica,sans-Serif" font-size="12.00">&#45;Console/ModelessDialogThread.h</text>
</a>
</g>
</g>
<!-- Node1&#45;&gt;Node13 -->
<g id="edge13" class="edge"><title>Node1&#45;&gt;Node13</title>
<path fill="none" stroke="midnightblue" d="M464.721,-279.732C460.076,-271.068 455.073,-261.229 451,-252 439.995,-227.063 429.807,-197.044 424.004,-179.02"/>
<polygon fill="midnightblue" stroke="midnightblue" points="461.693,-281.49 469.56,-288.587 467.836,-278.134 461.693,-281.49"/>
</g>
<!-- Node15 -->
<g id="node15" class="node"><title>Node15</title>
<g id="a_node15"><a xlink:href="../../df/d07/_documentation_2_operator-_console_2_text_dlg_8h.html" target="_top" xlink:title="Documentation/Operator\l&#45;Console/TextDlg.h">
<polygon fill="white" stroke="black" points="460.5,-217 460.5,-251 605.5,-251 605.5,-217 460.5,-217"/>
<text text-anchor="start" x="468.5" y="-237.4" font-family="Helvetica,sans-Serif" font-size="12.00">Documentation/Operator</text>
<text text-anchor="middle" x="533" y="-224.4" font-family="Helvetica,sans-Serif" font-size="12.00">&#45;Console/TextDlg.h</text>
</a>
</g>
</g>
<!-- Node1&#45;&gt;Node15 -->
<g id="edge16" class="edge"><title>Node1&#45;&gt;Node15</title>
<path fill="none" stroke="midnightblue" d="M497.828,-280.593C505.351,-270.842 513.808,-259.879 520.544,-251.147"/>
<polygon fill="midnightblue" stroke="midnightblue" points="494.861,-278.709 491.524,-288.765 500.404,-282.985 494.861,-278.709"/>
</g>
<!-- Node3 -->
<g id="node3" class="node"><title>Node3</title>
<g id="a_node3"><a xlink:href="../../d7/d4b/_documentation_2_operator-_console_2_app_thread_8cpp.html" target="_top" xlink:title="Documentation/Operator\l&#45;Console/AppThread.cpp">
<polygon fill="white" stroke="black" points="0,-1 0,-35 148,-35 148,-1 0,-1"/>
<text text-anchor="start" x="8" y="-21.4" font-family="Helvetica,sans-Serif" font-size="12.00">Documentation/Operator</text>
<text text-anchor="middle" x="74" y="-8.4" font-family="Helvetica,sans-Serif" font-size="12.00">&#45;Console/AppThread.cpp</text>
</a>
</g>
</g>
<!-- Node2&#45;&gt;Node3 -->
<g id="edge2" class="edge"><title>Node2&#45;&gt;Node3</title>
<path fill="none" stroke="midnightblue" d="M261.035,-209.598C218.141,-165.887 126.861,-72.8683 89.9673,-35.2714"/>
<polygon fill="midnightblue" stroke="midnightblue" points="258.714,-212.229 268.216,-216.915 263.71,-207.326 258.714,-212.229"/>
</g>
<!-- Node4&#45;&gt;Node3 -->
<g id="edge4" class="edge"><title>Node4&#45;&gt;Node3</title>
<path fill="none" stroke="midnightblue" d="M593.476,-78.3763C573.835,-76.2104 553.243,-73.9877 534,-72 366.573,-54.7057 323.462,-60.9223 157,-36 154.091,-35.5644 151.129,-35.0931 148.142,-34.5944"/>
<polygon fill="midnightblue" stroke="midnightblue" points="593.324,-81.8808 603.648,-79.5023 594.094,-74.9233 593.324,-81.8808"/>
</g>
<!-- Node5 -->
<g id="node5" class="node"><title>Node5</title>
<g id="a_node5"><a xlink:href="../../de/d31/_documentation_2_operator-_console_2_critical_buf_8cpp.html" target="_top" xlink:title="Documentation/Operator\l&#45;Console/CriticalBuf.cpp">
<polygon fill="white" stroke="black" points="1427.5,-1 1427.5,-35 1572.5,-35 1572.5,-1 1427.5,-1"/>
<text text-anchor="start" x="1435.5" y="-21.4" font-family="Helvetica,sans-Serif" font-size="12.00">Documentation/Operator</text>
<text text-anchor="middle" x="1500" y="-8.4" font-family="Helvetica,sans-Serif" font-size="12.00">&#45;Console/CriticalBuf.cpp</text>
</a>
</g>
</g>
<!-- Node4&#45;&gt;Node5 -->
<g id="edge5" class="edge"><title>Node4&#45;&gt;Node5</title>
<path fill="none" stroke="midnightblue" d="M780.358,-86.1766C919.738,-81.0711 1190.24,-67.7251 1418,-36 1421.02,-35.5788 1424.1,-35.1123 1427.21,-34.6108"/>
<polygon fill="midnightblue" stroke="midnightblue" points="780.01,-82.6867 770.143,-86.5446 780.263,-89.6822 780.01,-82.6867"/>
</g>
<!-- Node6 -->
<g id="node6" class="node"><title>Node6</title>
<g id="a_node6"><a xlink:href="../../da/df9/_documentation_2_operator-_console_2_image_test_8cpp.html" target="_top" xlink:title="Documentation/Operator\l&#45;Console/ImageTest.cpp">
<polygon fill="white" stroke="black" points="166.5,-1 166.5,-35 311.5,-35 311.5,-1 166.5,-1"/>
<text text-anchor="start" x="174.5" y="-21.4" font-family="Helvetica,sans-Serif" font-size="12.00">Documentation/Operator</text>
<text text-anchor="middle" x="239" y="-8.4" font-family="Helvetica,sans-Serif" font-size="12.00">&#45;Console/ImageTest.cpp</text>
</a>
</g>
</g>
<!-- Node4&#45;&gt;Node6 -->
<g id="edge6" class="edge"><title>Node4&#45;&gt;Node6</title>
<path fill="none" stroke="midnightblue" d="M593.676,-77.0733C519.567,-67.2199 413.401,-52.2531 321,-36 317.993,-35.4711 314.928,-34.9145 311.833,-34.3385"/>
<polygon fill="midnightblue" stroke="midnightblue" points="593.543,-80.5862 603.916,-78.4294 594.462,-73.6468 593.543,-80.5862"/>
</g>
<!-- Node7 -->
<g id="node7" class="node"><title>Node7</title>
<g id="a_node7"><a xlink:href="../../d4/d9c/_msg_dialog_8cpp.html" target="_top" xlink:title="Documentation/Operator\l&#45;Console/MsgDialog.cpp">
<polygon fill="white" stroke="black" points="330,-1 330,-35 476,-35 476,-1 330,-1"/>
<text text-anchor="start" x="338" y="-21.4" font-family="Helvetica,sans-Serif" font-size="12.00">Documentation/Operator</text>
<text text-anchor="middle" x="403" y="-8.4" font-family="Helvetica,sans-Serif" font-size="12.00">&#45;Console/MsgDialog.cpp</text>
</a>
</g>
</g>
<!-- Node4&#45;&gt;Node7 -->
<g id="edge7" class="edge"><title>Node4&#45;&gt;Node7</title>
<path fill="none" stroke="midnightblue" d="M611.92,-70.4944C567.265,-59.488 511.164,-45.6601 468.343,-35.1057"/>
<polygon fill="midnightblue" stroke="midnightblue" points="611.298,-73.9456 621.845,-72.9406 612.973,-67.149 611.298,-73.9456"/>
</g>
<!-- Node8 -->
<g id="node8" class="node"><title>Node8</title>
<g id="a_node8"><a xlink:href="../../db/db5/_documentation_2_operator-_console_2_operator_console_8cpp.html" target="_top" xlink:title="Documentation/Operator\l&#45;Console/OperatorConsole.cpp">
<polygon fill="white" stroke="black" points="494.5,-1 494.5,-35 673.5,-35 673.5,-1 494.5,-1"/>
<text text-anchor="start" x="502.5" y="-21.4" font-family="Helvetica,sans-Serif" font-size="12.00">Documentation/Operator</text>
<text text-anchor="middle" x="584" y="-8.4" font-family="Helvetica,sans-Serif" font-size="12.00">&#45;Console/OperatorConsole.cpp</text>
</a>
</g>
</g>
<!-- Node4&#45;&gt;Node8 -->
<g id="edge8" class="edge"><title>Node4&#45;&gt;Node8</title>
<path fill="none" stroke="midnightblue" d="M654.785,-67.1066C639.61,-56.7935 621.824,-44.7058 607.877,-35.2271"/>
<polygon fill="midnightblue" stroke="midnightblue" points="653.132,-70.2144 663.37,-72.9406 657.066,-64.4249 653.132,-70.2144"/>
</g>
<!-- Node9 -->
<g id="node9" class="node"><title>Node9</title>
<g id="a_node9"><a xlink:href="../../dd/dcb/_documentation_2_operator-_console_2_operator_console_dlg_8cpp.html" target="_top" xlink:title="Documentation/Operator\l&#45;Console/OperatorConsoleDlg.cpp">
<polygon fill="white" stroke="black" points="691.5,-1 691.5,-35 888.5,-35 888.5,-1 691.5,-1"/>
<text text-anchor="start" x="699.5" y="-21.4" font-family="Helvetica,sans-Serif" font-size="12.00">Documentation/Operator</text>
<text text-anchor="middle" x="790" y="-8.4" font-family="Helvetica,sans-Serif" font-size="12.00">&#45;Console/OperatorConsoleDlg.cpp</text>
</a>
</g>
</g>
<!-- Node4&#45;&gt;Node9 -->
<g id="edge9" class="edge"><title>Node4&#45;&gt;Node9</title>
<path fill="none" stroke="midnightblue" d="M719.215,-67.1066C734.39,-56.7935 752.176,-44.7058 766.123,-35.2271"/>
<polygon fill="midnightblue" stroke="midnightblue" points="716.934,-64.4249 710.63,-72.9406 720.868,-70.2144 716.934,-64.4249"/>
</g>
<!-- Node10 -->
<g id="node10" class="node"><title>Node10</title>
<g id="a_node10"><a xlink:href="../../dd/d14/_documentation_2_operator-_console_2_pass_fail_8cpp.html" target="_top" xlink:title="Documentation/Operator\l&#45;Console/PassFail.cpp">
<polygon fill="white" stroke="black" points="906.5,-1 906.5,-35 1051.5,-35 1051.5,-1 906.5,-1"/>
<text text-anchor="start" x="914.5" y="-21.4" font-family="Helvetica,sans-Serif" font-size="12.00">Documentation/Operator</text>
<text text-anchor="middle" x="979" y="-8.4" font-family="Helvetica,sans-Serif" font-size="12.00">&#45;Console/PassFail.cpp</text>
</a>
</g>
</g>
<!-- Node4&#45;&gt;Node10 -->
<g id="edge10" class="edge"><title>Node4&#45;&gt;Node10</title>
<path fill="none" stroke="midnightblue" d="M763.924,-70.5594C809.968,-59.5214 867.923,-45.628 912.069,-35.0452"/>
<polygon fill="midnightblue" stroke="midnightblue" points="762.899,-67.2057 753.991,-72.9406 764.531,-74.0129 762.899,-67.2057"/>
</g>
<!-- Node11 -->
<g id="node11" class="node"><title>Node11</title>
<g id="a_node11"><a xlink:href="../../dd/d4b/_documentation_2_operator-_console_2_password_dialog_8cpp.html" target="_top" xlink:title="Documentation/Operator\l&#45;Console/PasswordDialog.cpp">
<polygon fill="white" stroke="black" points="1070,-1 1070,-35 1246,-35 1246,-1 1070,-1"/>
<text text-anchor="start" x="1078" y="-21.4" font-family="Helvetica,sans-Serif" font-size="12.00">Documentation/Operator</text>
<text text-anchor="middle" x="1158" y="-8.4" font-family="Helvetica,sans-Serif" font-size="12.00">&#45;Console/PasswordDialog.cpp</text>
</a>
</g>
</g>
<!-- Node4&#45;&gt;Node11 -->
<g id="edge11" class="edge"><title>Node4&#45;&gt;Node11</title>
<path fill="none" stroke="midnightblue" d="M780.037,-76.5852C855.568,-66.3127 964.778,-51.0205 1060,-36 1063.24,-35.4888 1066.54,-34.9598 1069.87,-34.4185"/>
<polygon fill="midnightblue" stroke="midnightblue" points="779.509,-73.1246 770.071,-77.938 780.451,-80.061 779.509,-73.1246"/>
</g>
<!-- Node12 -->
<g id="node12" class="node"><title>Node12</title>
<g id="a_node12"><a xlink:href="../../d3/d68/_documentation_2_operator-_console_2_setup_8cpp.html" target="_top" xlink:title="Documentation/Operator\l&#45;Console/Setup.cpp">
<polygon fill="white" stroke="black" points="1264.5,-1 1264.5,-35 1409.5,-35 1409.5,-1 1264.5,-1"/>
<text text-anchor="start" x="1272.5" y="-21.4" font-family="Helvetica,sans-Serif" font-size="12.00">Documentation/Operator</text>
<text text-anchor="middle" x="1337" y="-8.4" font-family="Helvetica,sans-Serif" font-size="12.00">&#45;Console/Setup.cpp</text>
</a>
</g>
</g>
<!-- Node4&#45;&gt;Node12 -->
<g id="edge12" class="edge"><title>Node4&#45;&gt;Node12</title>
<path fill="none" stroke="midnightblue" d="M780.115,-83.5051C892.944,-76.1119 1088.62,-60.9305 1255,-36 1258.02,-35.5476 1261.1,-35.055 1264.2,-34.5319"/>
<polygon fill="midnightblue" stroke="midnightblue" points="779.881,-80.0129 770.128,-84.1533 780.334,-86.9982 779.881,-80.0129"/>
</g>
<!-- Node13&#45;&gt;Node4 -->
<g id="edge14" class="edge"><title>Node13&#45;&gt;Node4</title>
<path fill="none" stroke="midnightblue" d="M490.382,-142.355C532.434,-131.372 585.1,-117.616 625.338,-107.106"/>
<polygon fill="midnightblue" stroke="midnightblue" points="489.275,-139.027 480.485,-144.941 491.045,-145.8 489.275,-139.027"/>
</g>
<!-- Node14 -->
<g id="node14" class="node"><title>Node14</title>
<g id="a_node14"><a xlink:href="../../dd/d65/_documentation_2_operator-_console_2_modeless_dialog_thread_8cpp.html" target="_top" xlink:title="Documentation/Operator\l&#45;Console/ModelessDialogThread.cpp">
<polygon fill="white" stroke="black" points="313,-73 313,-107 525,-107 525,-73 313,-73"/>
<text text-anchor="start" x="321" y="-93.4" font-family="Helvetica,sans-Serif" font-size="12.00">Documentation/Operator</text>
<text text-anchor="middle" x="419" y="-80.4" font-family="Helvetica,sans-Serif" font-size="12.00">&#45;Console/ModelessDialogThread.cpp</text>
</a>
</g>
</g>
<!-- Node13&#45;&gt;Node14 -->
<g id="edge15" class="edge"><title>Node13&#45;&gt;Node14</title>
<path fill="none" stroke="midnightblue" d="M419,-134.508C419,-125.303 419,-115.262 419,-107.147"/>
<polygon fill="midnightblue" stroke="midnightblue" points="415.5,-134.765 419,-144.765 422.5,-134.765 415.5,-134.765"/>
</g>
<!-- Node15&#45;&gt;Node4 -->
<g id="edge18" class="edge"><title>Node15&#45;&gt;Node4</title>
<path fill="none" stroke="midnightblue" d="M536.707,-206.82C540.695,-187.356 548.798,-161.285 565,-144 580.951,-126.983 603.305,-115.144 624.528,-107.046"/>
<polygon fill="midnightblue" stroke="midnightblue" points="533.228,-206.392 534.89,-216.856 540.116,-207.639 533.228,-206.392"/>
</g>
<!-- Node15&#45;&gt;Node13 -->
<g id="edge17" class="edge"><title>Node15&#45;&gt;Node13</title>
<path fill="none" stroke="midnightblue" d="M498.284,-211.683C481.287,-201.246 461.152,-188.883 445.427,-179.227"/>
<polygon fill="midnightblue" stroke="midnightblue" points="496.493,-214.691 506.846,-216.941 500.156,-208.725 496.493,-214.691"/>
</g>
<!-- Node16 -->
<g id="node16" class="node"><title>Node16</title>
<g id="a_node16"><a xlink:href="../../da/d32/_documentation_2_operator-_console_2_text_dlg_8cpp.html" target="_top" xlink:title="Documentation/Operator\l&#45;Console/TextDlg.cpp">
<polygon fill="white" stroke="black" points="574.5,-145 574.5,-179 719.5,-179 719.5,-145 574.5,-145"/>
<text text-anchor="start" x="582.5" y="-165.4" font-family="Helvetica,sans-Serif" font-size="12.00">Documentation/Operator</text>
<text text-anchor="middle" x="647" y="-152.4" font-family="Helvetica,sans-Serif" font-size="12.00">&#45;Console/TextDlg.cpp</text>
</a>
</g>
</g>
<!-- Node15&#45;&gt;Node16 -->
<g id="edge19" class="edge"><title>Node15&#45;&gt;Node16</title>
<path fill="none" stroke="midnightblue" d="M567.716,-211.683C584.713,-201.246 604.848,-188.883 620.573,-179.227"/>
<polygon fill="midnightblue" stroke="midnightblue" points="565.844,-208.725 559.154,-216.941 569.507,-214.691 565.844,-208.725"/>
</g>
</g>
</svg>
