<?xml version="1.0" encoding="UTF-8" standalone="no"?>
<!DOCTYPE svg PUBLIC "-//W3C//DTD SVG 1.1//EN"
 "http://www.w3.org/Graphics/SVG/1.1/DTD/svg11.dtd">
<!-- Generated by graphviz version 2.34.0 (20130907.0111)
 -->
<!-- Title: Documentation/Operator&#45;Console/PassFail.h Pages: 1 -->
<svg width="349pt" height="116pt"
 viewBox="0.00 0.00 349.00 116.00" xmlns="http://www.w3.org/2000/svg" xmlns:xlink="http://www.w3.org/1999/xlink">
<g id="graph0" class="graph" transform="scale(1 1) rotate(0) translate(4 112)">
<title>Documentation/Operator&#45;Console/PassFail.h</title>
<polygon fill="white" stroke="white" points="-4,4 -4,-112 345,-112 345,4 -4,4"/>
<!-- Node1 -->
<g id="node1" class="node"><title>Node1</title>
<polygon fill="#bfbfbf" stroke="black" points="106.5,-73 106.5,-107 251.5,-107 251.5,-73 106.5,-73"/>
<text text-anchor="start" x="114.5" y="-93.4" font-family="Helvetica,sans-Serif" font-size="12.00">Documentation/Operator</text>
<text text-anchor="middle" x="179" y="-80.4" font-family="Helvetica,sans-Serif" font-size="12.00">&#45;Console/PassFail.h</text>
</g>
<!-- Node2 -->
<g id="node2" class="node"><title>Node2</title>
<g id="a_node2"><a xlink:href="../../db/db5/_documentation_2_operator-_console_2_operator_console_8cpp.html" target="_top" xlink:title="Documentation/Operator\l&#45;Console/OperatorConsole.cpp">
<polygon fill="white" stroke="black" points="-0.5,-1 -0.5,-35 178.5,-35 178.5,-1 -0.5,-1"/>
<text text-anchor="start" x="7.5" y="-21.4" font-family="Helvetica,sans-Serif" font-size="12.00">Documentation/Operator</text>
<text text-anchor="middle" x="89" y="-8.4" font-family="Helvetica,sans-Serif" font-size="12.00">&#45;Console/OperatorConsole.cpp</text>
</a>
</g>
</g>
<!-- Node1&#45;&gt;Node2 -->
<g id="edge1" class="edge"><title>Node1&#45;&gt;Node2</title>
<path fill="none" stroke="midnightblue" d="M149.882,-66.3523C136.801,-56.1788 121.668,-44.4081 109.761,-35.1473"/>
<polygon fill="midnightblue" stroke="midnightblue" points="148.084,-69.3879 158.126,-72.7646 152.381,-63.8625 148.084,-69.3879"/>
</g>
<!-- Node3 -->
<g id="node3" class="node"><title>Node3</title>
<g id="a_node3"><a xlink:href="../../dd/d14/_documentation_2_operator-_console_2_pass_fail_8cpp.html" target="_top" xlink:title="Documentation/Operator\l&#45;Console/PassFail.cpp">
<polygon fill="white" stroke="black" points="196.5,-1 196.5,-35 341.5,-35 341.5,-1 196.5,-1"/>
<text text-anchor="start" x="204.5" y="-21.4" font-family="Helvetica,sans-Serif" font-size="12.00">Documentation/Operator</text>
<text text-anchor="middle" x="269" y="-8.4" font-family="Helvetica,sans-Serif" font-size="12.00">&#45;Console/PassFail.cpp</text>
</a>
</g>
</g>
<!-- Node1&#45;&gt;Node3 -->
<g id="edge2" class="edge"><title>Node1&#45;&gt;Node3</title>
<path fill="none" stroke="midnightblue" d="M208.118,-66.3523C221.199,-56.1788 236.332,-44.4081 248.239,-35.1473"/>
<polygon fill="midnightblue" stroke="midnightblue" points="205.619,-63.8625 199.874,-72.7646 209.916,-69.3879 205.619,-63.8625"/>
</g>
</g>
</svg>
