<?xml version="1.0" encoding="UTF-8" standalone="no"?>
<!DOCTYPE svg PUBLIC "-//W3C//DTD SVG 1.1//EN"
 "http://www.w3.org/Graphics/SVG/1.1/DTD/svg11.dtd">
<!-- Generated by graphviz version 2.34.0 (20130907.0111)
 -->
<!-- Title: JSONBase64::json_decode64 Pages: 1 -->
<svg width="354pt" height="70pt"
 viewBox="0.00 0.00 354.00 70.00" xmlns="http://www.w3.org/2000/svg" xmlns:xlink="http://www.w3.org/1999/xlink">
<g id="graph0" class="graph" transform="scale(1 1) rotate(0) translate(4 66)">
<title>JSONBase64::json_decode64</title>
<polygon fill="white" stroke="white" points="-4,4 -4,-66 350,-66 350,4 -4,4"/>
<!-- Node1 -->
<g id="node1" class="node"><title>Node1</title>
<polygon fill="#bfbfbf" stroke="black" points="0,-20.5 0,-41.5 176,-41.5 176,-20.5 0,-20.5"/>
<text text-anchor="middle" x="88" y="-27.9" font-family="Helvetica,sans-Serif" font-size="12.00">JSONBase64::json_decode64</text>
</g>
<!-- Node2 -->
<g id="node2" class="node"><title>Node2</title>
<g id="a_node2"><a xlink:href="../../d6/dc7/class_j_s_o_n_node.html#aef64df34be4901e4bf7ef7d20146a8c5" target="_top" xlink:title="JSONNode::as_binary">
<polygon fill="white" stroke="black" points="212,-40.5 212,-61.5 346,-61.5 346,-40.5 212,-40.5"/>
<text text-anchor="middle" x="279" y="-47.9" font-family="Helvetica,sans-Serif" font-size="12.00">JSONNode::as_binary</text>
</a>
</g>
</g>
<!-- Node1&#45;&gt;Node2 -->
<g id="edge1" class="edge"><title>Node1&#45;&gt;Node2</title>
<path fill="none" stroke="midnightblue" d="M186.189,-41.2846C194.845,-42.2005 203.47,-43.1132 211.775,-43.992"/>
<polygon fill="midnightblue" stroke="midnightblue" points="186.345,-37.7816 176.032,-40.2097 185.608,-44.7427 186.345,-37.7816"/>
</g>
<!-- Node3 -->
<g id="node3" class="node"><title>Node3</title>
<g id="a_node3"><a xlink:href="../../d0/d9e/namespacelibjson.html#a299db1223a2bd5cc157edcebe8a25a68" target="_top" xlink:title="libjson::decode64">
<polygon fill="white" stroke="black" points="224.5,-0.5 224.5,-21.5 333.5,-21.5 333.5,-0.5 224.5,-0.5"/>
<text text-anchor="middle" x="279" y="-7.9" font-family="Helvetica,sans-Serif" font-size="12.00">libjson::decode64</text>
</a>
</g>
</g>
<!-- Node1&#45;&gt;Node3 -->
<g id="edge2" class="edge"><title>Node1&#45;&gt;Node3</title>
<path fill="none" stroke="midnightblue" d="M186.089,-20.726C199.246,-19.3338 212.335,-17.9487 224.337,-16.6786"/>
<polygon fill="midnightblue" stroke="midnightblue" points="185.608,-17.2573 176.032,-21.7903 186.345,-24.2184 185.608,-17.2573"/>
</g>
</g>
</svg>
