<?xml version="1.0" encoding="UTF-8" standalone="no"?>
<!DOCTYPE svg PUBLIC "-//W3C//DTD SVG 1.1//EN"
 "http://www.w3.org/Graphics/SVG/1.1/DTD/svg11.dtd">
<!-- Generated by graphviz version 2.34.0 (20130907.0111)
 -->
<!-- Title: JSONBase64::json_decode64 Pages: 1 -->
<svg width="280pt" height="70pt"
 viewBox="0.00 0.00 280.00 70.00" xmlns="http://www.w3.org/2000/svg" xmlns:xlink="http://www.w3.org/1999/xlink">
<g id="graph0" class="graph" transform="scale(1 1) rotate(0) translate(4 66)">
<title>JSONBase64::json_decode64</title>
<polygon fill="white" stroke="white" points="-4,4 -4,-66 276,-66 276,4 -4,4"/>
<!-- Node1 -->
<g id="node1" class="node"><title>Node1</title>
<polygon fill="#bfbfbf" stroke="black" points="0,-20.5 0,-41.5 176,-41.5 176,-20.5 0,-20.5"/>
<text text-anchor="middle" x="88" y="-27.9" font-family="Helvetica,sans-Serif" font-size="12.00">JSONBase64::json_decode64</text>
</g>
<!-- Node2 -->
<g id="node2" class="node"><title>Node2</title>
<g id="a_node2"><a xlink:href="../../d0/d4c/_documentation_2_operator-_console_2_j_s_o_n_2_j_s_o_n___base64_8cpp.html#a020e9fb20635ef0dfa3f79151f7f975a" target="_top" xlink:title="chars64">
<polygon fill="white" stroke="black" points="212.5,-40.5 212.5,-61.5 271.5,-61.5 271.5,-40.5 212.5,-40.5"/>
<text text-anchor="middle" x="242" y="-47.9" font-family="Helvetica,sans-Serif" font-size="12.00">chars64</text>
</a>
</g>
</g>
<!-- Node1&#45;&gt;Node2 -->
<g id="edge1" class="edge"><title>Node1&#45;&gt;Node2</title>
<path fill="none" stroke="midnightblue" d="M169.006,-41.5271C180.578,-43.0497 192.026,-44.556 202.272,-45.9042"/>
<polygon fill="midnightblue" stroke="midnightblue" points="202.099,-49.4115 212.47,-47.246 203.012,-42.4713 202.099,-49.4115"/>
</g>
<!-- Node3 -->
<g id="node3" class="node"><title>Node3</title>
<g id="a_node3"><a xlink:href="../../d0/d4c/_documentation_2_operator-_console_2_j_s_o_n_2_j_s_o_n___base64_8cpp.html#a012abc0ac749c52f392dba045de16b77" target="_top" xlink:title="toBinary">
<polygon fill="white" stroke="black" points="212.5,-0.5 212.5,-21.5 271.5,-21.5 271.5,-0.5 212.5,-0.5"/>
<text text-anchor="middle" x="242" y="-7.9" font-family="Helvetica,sans-Serif" font-size="12.00">toBinary</text>
</a>
</g>
</g>
<!-- Node1&#45;&gt;Node3 -->
<g id="edge2" class="edge"><title>Node1&#45;&gt;Node3</title>
<path fill="none" stroke="midnightblue" d="M169.006,-20.4729C180.578,-18.9503 192.026,-17.444 202.272,-16.0958"/>
<polygon fill="midnightblue" stroke="midnightblue" points="203.012,-19.5287 212.47,-14.754 202.099,-12.5885 203.012,-19.5287"/>
</g>
</g>
</svg>
