<?xml version="1.0" encoding="UTF-8" standalone="no"?>
<!DOCTYPE svg PUBLIC "-//W3C//DTD SVG 1.1//EN"
 "http://www.w3.org/Graphics/SVG/1.1/DTD/svg11.dtd">
<!-- Generated by graphviz version 2.34.0 (20130907.0111)
 -->
<!-- Title: JSONBase64::json_encode64 Pages: 1 -->
<svg width="358pt" height="70pt"
 viewBox="0.00 0.00 358.00 70.00" xmlns="http://www.w3.org/2000/svg" xmlns:xlink="http://www.w3.org/1999/xlink">
<g id="graph0" class="graph" transform="scale(1 1) rotate(0) translate(4 66)">
<title>JSONBase64::json_encode64</title>
<polygon fill="white" stroke="white" points="-4,4 -4,-66 354,-66 354,4 -4,4"/>
<!-- Node1 -->
<g id="node1" class="node"><title>Node1</title>
<polygon fill="#bfbfbf" stroke="black" points="0,-20.5 0,-41.5 176,-41.5 176,-20.5 0,-20.5"/>
<text text-anchor="middle" x="88" y="-27.9" font-family="Helvetica,sans-Serif" font-size="12.00">JSONBase64::json_encode64</text>
</g>
<!-- Node2 -->
<g id="node2" class="node"><title>Node2</title>
<g id="a_node2"><a xlink:href="../../d0/d9e/namespacelibjson.html#a2639c3f4c65bfd7b631702b270111aea" target="_top" xlink:title="libjson::encode64">
<polygon fill="white" stroke="black" points="227,-40.5 227,-61.5 335,-61.5 335,-40.5 227,-40.5"/>
<text text-anchor="middle" x="281" y="-47.9" font-family="Helvetica,sans-Serif" font-size="12.00">libjson::encode64</text>
</a>
</g>
</g>
<!-- Node1&#45;&gt;Node2 -->
<g id="edge1" class="edge"><title>Node1&#45;&gt;Node2</title>
<path fill="none" stroke="midnightblue" d="M186.287,-41.1872C200.267,-42.651 214.196,-44.1096 226.875,-45.4372"/>
<polygon fill="midnightblue" stroke="midnightblue" points="186.426,-37.6826 176.116,-40.1221 185.697,-44.6446 186.426,-37.6826"/>
</g>
<!-- Node3 -->
<g id="node3" class="node"><title>Node3</title>
<g id="a_node3"><a xlink:href="../../d6/dc7/class_j_s_o_n_node.html#adfdf8be9584560f1985957129e4fec88" target="_top" xlink:title="JSONNode::set_binary">
<polygon fill="white" stroke="black" points="212.5,-0.5 212.5,-21.5 349.5,-21.5 349.5,-0.5 212.5,-0.5"/>
<text text-anchor="middle" x="281" y="-7.9" font-family="Helvetica,sans-Serif" font-size="12.00">JSONNode::set_binary</text>
</a>
</g>
</g>
<!-- Node1&#45;&gt;Node3 -->
<g id="edge2" class="edge"><title>Node1&#45;&gt;Node3</title>
<path fill="none" stroke="midnightblue" d="M186.149,-20.8274C195.042,-19.8961 203.916,-18.9669 212.463,-18.0719"/>
<polygon fill="midnightblue" stroke="midnightblue" points="185.697,-17.3554 176.116,-21.8779 186.426,-24.3174 185.697,-17.3554"/>
</g>
</g>
</svg>
