<?xml version="1.0" encoding="UTF-8" standalone="no"?>
<!DOCTYPE svg PUBLIC "-//W3C//DTD SVG 1.1//EN"
 "http://www.w3.org/Graphics/SVG/1.1/DTD/svg11.dtd">
<!-- Generated by graphviz version 2.34.0 (20130907.0111)
 -->
<!-- Title: StaticBmp.h Pages: 1 -->
<svg width="329pt" height="146pt"
 viewBox="0.00 0.00 329.00 146.00" xmlns="http://www.w3.org/2000/svg" xmlns:xlink="http://www.w3.org/1999/xlink">
<g id="graph0" class="graph" transform="scale(1 1) rotate(0) translate(4 142)">
<title>StaticBmp.h</title>
<polygon fill="white" stroke="white" points="-4,4 -4,-142 325,-142 325,4 -4,4"/>
<!-- Node1 -->
<g id="node1" class="node"><title>Node1</title>
<polygon fill="#bfbfbf" stroke="black" points="168,-116.5 168,-137.5 248,-137.5 248,-116.5 168,-116.5"/>
<text text-anchor="middle" x="208" y="-123.9" font-family="Helvetica,sans-Serif" font-size="12.00">StaticBmp.h</text>
</g>
<!-- Node2 -->
<g id="node2" class="node"><title>Node2</title>
<g id="a_node2"><a xlink:href="../../d7/dcd/_operator_console_dlg_8h.html" target="_top" xlink:title="OperatorConsoleDlg.h">
<polygon fill="white" stroke="black" points="75,-58.5 75,-79.5 209,-79.5 209,-58.5 75,-58.5"/>
<text text-anchor="middle" x="142" y="-65.9" font-family="Helvetica,sans-Serif" font-size="12.00">OperatorConsoleDlg.h</text>
</a>
</g>
</g>
<!-- Node1&#45;&gt;Node2 -->
<g id="edge1" class="edge"><title>Node1&#45;&gt;Node2</title>
<path fill="none" stroke="midnightblue" d="M188.724,-109.645C177.246,-99.9058 163.072,-87.8795 153.365,-79.6427"/>
<polygon fill="midnightblue" stroke="midnightblue" points="186.614,-112.445 196.504,-116.246 191.143,-107.107 186.614,-112.445"/>
</g>
<!-- Node5 -->
<g id="node5" class="node"><title>Node5</title>
<g id="a_node5"><a xlink:href="../../dd/d29/_static_bmp_8cpp.html" target="_top" xlink:title="StaticBmp.cpp">
<polygon fill="white" stroke="black" points="227,-58.5 227,-79.5 321,-79.5 321,-58.5 227,-58.5"/>
<text text-anchor="middle" x="274" y="-65.9" font-family="Helvetica,sans-Serif" font-size="12.00">StaticBmp.cpp</text>
</a>
</g>
</g>
<!-- Node1&#45;&gt;Node5 -->
<g id="edge4" class="edge"><title>Node1&#45;&gt;Node5</title>
<path fill="none" stroke="midnightblue" d="M227.276,-109.645C238.754,-99.9058 252.928,-87.8795 262.635,-79.6427"/>
<polygon fill="midnightblue" stroke="midnightblue" points="224.857,-107.107 219.496,-116.246 229.386,-112.445 224.857,-107.107"/>
</g>
<!-- Node3 -->
<g id="node3" class="node"><title>Node3</title>
<g id="a_node3"><a xlink:href="../../de/da2/_operator_console_8cpp.html" target="_top" xlink:title="OperatorConsole.cpp">
<polygon fill="white" stroke="black" points="-0.5,-0.5 -0.5,-21.5 128.5,-21.5 128.5,-0.5 -0.5,-0.5"/>
<text text-anchor="middle" x="64" y="-7.9" font-family="Helvetica,sans-Serif" font-size="12.00">OperatorConsole.cpp</text>
</a>
</g>
</g>
<!-- Node2&#45;&gt;Node3 -->
<g id="edge2" class="edge"><title>Node2&#45;&gt;Node3</title>
<path fill="none" stroke="midnightblue" d="M120.006,-52.2097C106.307,-42.3743 89.1264,-30.0394 77.4309,-21.6427"/>
<polygon fill="midnightblue" stroke="midnightblue" points="118.249,-55.2566 128.413,-58.2455 122.331,-49.5703 118.249,-55.2566"/>
</g>
<!-- Node4 -->
<g id="node4" class="node"><title>Node4</title>
<g id="a_node4"><a xlink:href="../../d8/d29/_operator_console_dlg_8cpp.html" target="_top" xlink:title="OperatorConsoleDlg.cpp">
<polygon fill="white" stroke="black" points="146.5,-0.5 146.5,-21.5 293.5,-21.5 293.5,-0.5 146.5,-0.5"/>
<text text-anchor="middle" x="220" y="-7.9" font-family="Helvetica,sans-Serif" font-size="12.00">OperatorConsoleDlg.cpp</text>
</a>
</g>
</g>
<!-- Node2&#45;&gt;Node4 -->
<g id="edge3" class="edge"><title>Node2&#45;&gt;Node4</title>
<path fill="none" stroke="midnightblue" d="M163.994,-52.2097C177.693,-42.3743 194.874,-30.0394 206.569,-21.6427"/>
<polygon fill="midnightblue" stroke="midnightblue" points="161.669,-49.5703 155.587,-58.2455 165.751,-55.2566 161.669,-49.5703"/>
</g>
</g>
</svg>
