<?xml version="1.0" encoding="UTF-8" standalone="no"?>
<!DOCTYPE svg PUBLIC "-//W3C//DTD SVG 1.1//EN"
 "http://www.w3.org/Graphics/SVG/1.1/DTD/svg11.dtd">
<!-- Generated by graphviz version 2.34.0 (20130907.0111)
 -->
<!-- Title: StaticBmp.h Pages: 1 -->
<svg width="1062pt" height="204pt"
 viewBox="0.00 0.00 1062.00 204.00" xmlns="http://www.w3.org/2000/svg" xmlns:xlink="http://www.w3.org/1999/xlink">
<g id="graph0" class="graph" transform="scale(1 1) rotate(0) translate(4 200)">
<title>StaticBmp.h</title>
<polygon fill="white" stroke="white" points="-4,4 -4,-200 1058,-200 1058,4 -4,4"/>
<!-- Node1 -->
<g id="node1" class="node"><title>Node1</title>
<polygon fill="#bfbfbf" stroke="black" points="851,-174.5 851,-195.5 931,-195.5 931,-174.5 851,-174.5"/>
<text text-anchor="middle" x="891" y="-181.9" font-family="Helvetica,sans-Serif" font-size="12.00">StaticBmp.h</text>
</g>
<!-- Node2 -->
<g id="node2" class="node"><title>Node2</title>
<g id="a_node2"><a xlink:href="../../d7/dcd/_operator_console_dlg_8h.html" target="_top" xlink:title="OperatorConsoleDlg.h">
<polygon fill="white" stroke="black" points="758,-116.5 758,-137.5 892,-137.5 892,-116.5 758,-116.5"/>
<text text-anchor="middle" x="825" y="-123.9" font-family="Helvetica,sans-Serif" font-size="12.00">OperatorConsoleDlg.h</text>
</a>
</g>
</g>
<!-- Node1&#45;&gt;Node2 -->
<g id="edge1" class="edge"><title>Node1&#45;&gt;Node2</title>
<path fill="none" stroke="midnightblue" d="M871.724,-167.645C860.246,-157.906 846.072,-145.88 836.365,-137.643"/>
<polygon fill="midnightblue" stroke="midnightblue" points="869.614,-170.445 879.504,-174.246 874.143,-165.107 869.614,-170.445"/>
</g>
<!-- Node13 -->
<g id="node13" class="node"><title>Node13</title>
<g id="a_node13"><a xlink:href="../../dd/d29/_static_bmp_8cpp.html" target="_top" xlink:title="StaticBmp.cpp">
<polygon fill="white" stroke="black" points="910,-116.5 910,-137.5 1004,-137.5 1004,-116.5 910,-116.5"/>
<text text-anchor="middle" x="957" y="-123.9" font-family="Helvetica,sans-Serif" font-size="12.00">StaticBmp.cpp</text>
</a>
</g>
</g>
<!-- Node1&#45;&gt;Node13 -->
<g id="edge14" class="edge"><title>Node1&#45;&gt;Node13</title>
<path fill="none" stroke="midnightblue" d="M910.276,-167.645C921.754,-157.906 935.928,-145.88 945.635,-137.643"/>
<polygon fill="midnightblue" stroke="midnightblue" points="907.857,-165.107 902.496,-174.246 912.386,-170.445 907.857,-165.107"/>
</g>
<!-- Node3 -->
<g id="node3" class="node"><title>Node3</title>
<g id="a_node3"><a xlink:href="../../da/de6/_operator_console_8h.html" target="_top" xlink:title="OperatorConsole.h">
<polygon fill="white" stroke="black" points="450,-58.5 450,-79.5 566,-79.5 566,-58.5 450,-58.5"/>
<text text-anchor="middle" x="508" y="-65.9" font-family="Helvetica,sans-Serif" font-size="12.00">OperatorConsole.h</text>
</a>
</g>
</g>
<!-- Node2&#45;&gt;Node3 -->
<g id="edge2" class="edge"><title>Node2&#45;&gt;Node3</title>
<path fill="none" stroke="midnightblue" d="M760.998,-114.694C702.514,-104.362 616.993,-89.2542 561.911,-79.5237"/>
<polygon fill="midnightblue" stroke="midnightblue" points="760.41,-118.144 770.866,-116.437 761.627,-111.251 760.41,-118.144"/>
</g>
<!-- Node8 -->
<g id="node8" class="node"><title>Node8</title>
<g id="a_node8"><a xlink:href="../../de/da2/_operator_console_8cpp.html" target="_top" xlink:title="OperatorConsole.cpp">
<polygon fill="white" stroke="black" points="760.5,-0.5 760.5,-21.5 889.5,-21.5 889.5,-0.5 760.5,-0.5"/>
<text text-anchor="middle" x="825" y="-7.9" font-family="Helvetica,sans-Serif" font-size="12.00">OperatorConsole.cpp</text>
</a>
</g>
</g>
<!-- Node2&#45;&gt;Node8 -->
<g id="edge12" class="edge"><title>Node2&#45;&gt;Node8</title>
<path fill="none" stroke="midnightblue" d="M825,-106.252C825,-81.5837 825,-40.3525 825,-21.695"/>
<polygon fill="midnightblue" stroke="midnightblue" points="821.5,-106.28 825,-116.28 828.5,-106.28 821.5,-106.28"/>
</g>
<!-- Node9 -->
<g id="node9" class="node"><title>Node9</title>
<g id="a_node9"><a xlink:href="../../d8/d29/_operator_console_dlg_8cpp.html" target="_top" xlink:title="OperatorConsoleDlg.cpp">
<polygon fill="white" stroke="black" points="907.5,-0.5 907.5,-21.5 1054.5,-21.5 1054.5,-0.5 907.5,-0.5"/>
<text text-anchor="middle" x="981" y="-7.9" font-family="Helvetica,sans-Serif" font-size="12.00">OperatorConsoleDlg.cpp</text>
</a>
</g>
</g>
<!-- Node2&#45;&gt;Node9 -->
<g id="edge13" class="edge"><title>Node2&#45;&gt;Node9</title>
<path fill="none" stroke="midnightblue" d="M846.451,-110.325C879.185,-86.4031 940.649,-41.4875 967.674,-21.738"/>
<polygon fill="midnightblue" stroke="midnightblue" points="844.041,-107.75 838.032,-116.477 848.171,-113.402 844.041,-107.75"/>
</g>
<!-- Node4 -->
<g id="node4" class="node"><title>Node4</title>
<g id="a_node4"><a xlink:href="../../d3/d22/_app_thread_8cpp.html" target="_top" xlink:title="AppThread.cpp">
<polygon fill="white" stroke="black" points="88,-0.5 88,-21.5 186,-21.5 186,-0.5 88,-0.5"/>
<text text-anchor="middle" x="137" y="-7.9" font-family="Helvetica,sans-Serif" font-size="12.00">AppThread.cpp</text>
</a>
</g>
</g>
<!-- Node3&#45;&gt;Node4 -->
<g id="edge3" class="edge"><title>Node3&#45;&gt;Node4</title>
<path fill="none" stroke="midnightblue" d="M439.681,-58.4572C376.221,-49.4753 279.13,-35.4325 195,-22 192.074,-21.5328 189.066,-21.0431 186.033,-20.5421"/>
<polygon fill="midnightblue" stroke="midnightblue" points="439.567,-61.9758 449.958,-59.9093 440.546,-55.0446 439.567,-61.9758"/>
</g>
<!-- Node5 -->
<g id="node5" class="node"><title>Node5</title>
<g id="a_node5"><a xlink:href="../../d6/df7/_critical_buf_8cpp.html" target="_top" xlink:title="CriticalBuf.cpp">
<polygon fill="white" stroke="black" points="204.5,-0.5 204.5,-21.5 297.5,-21.5 297.5,-0.5 204.5,-0.5"/>
<text text-anchor="middle" x="251" y="-7.9" font-family="Helvetica,sans-Serif" font-size="12.00">CriticalBuf.cpp</text>
</a>
</g>
</g>
<!-- Node3&#45;&gt;Node5 -->
<g id="edge4" class="edge"><title>Node3&#45;&gt;Node5</title>
<path fill="none" stroke="midnightblue" d="M454.339,-56.3073C406.982,-45.9883 338.809,-31.1336 294.707,-21.5237"/>
<polygon fill="midnightblue" stroke="midnightblue" points="453.596,-59.7275 464.112,-58.4369 455.087,-52.888 453.596,-59.7275"/>
</g>
<!-- Node6 -->
<g id="node6" class="node"><title>Node6</title>
<g id="a_node6"><a xlink:href="../../d8/d53/_image_test_8cpp.html" target="_top" xlink:title="ImageTest.cpp">
<polygon fill="white" stroke="black" points="316,-0.5 316,-21.5 410,-21.5 410,-0.5 316,-0.5"/>
<text text-anchor="middle" x="363" y="-7.9" font-family="Helvetica,sans-Serif" font-size="12.00">ImageTest.cpp</text>
</a>
</g>
</g>
<!-- Node3&#45;&gt;Node6 -->
<g id="edge5" class="edge"><title>Node3&#45;&gt;Node6</title>
<path fill="none" stroke="midnightblue" d="M473.444,-54.6541C447.001,-44.4419 411.183,-30.6086 387.601,-21.5011"/>
<polygon fill="midnightblue" stroke="midnightblue" points="472.484,-58.0354 483.074,-58.3733 475.006,-51.5055 472.484,-58.0354"/>
</g>
<!-- Node7 -->
<g id="node7" class="node"><title>Node7</title>
<g id="a_node7"><a xlink:href="../../df/d0a/main_8cpp.html" target="_top" xlink:title="main.cpp">
<polygon fill="white" stroke="black" points="428.5,-0.5 428.5,-21.5 493.5,-21.5 493.5,-0.5 428.5,-0.5"/>
<text text-anchor="middle" x="461" y="-7.9" font-family="Helvetica,sans-Serif" font-size="12.00">main.cpp</text>
</a>
</g>
</g>
<!-- Node3&#45;&gt;Node7 -->
<g id="edge6" class="edge"><title>Node3&#45;&gt;Node7</title>
<path fill="none" stroke="midnightblue" d="M493.313,-50.5004C485.32,-40.9775 475.738,-29.5596 469.093,-21.6427"/>
<polygon fill="midnightblue" stroke="midnightblue" points="490.704,-52.8358 499.813,-58.2455 496.065,-48.3357 490.704,-52.8358"/>
</g>
<!-- Node3&#45;&gt;Node8 -->
<g id="edge7" class="edge"><title>Node3&#45;&gt;Node8</title>
<path fill="none" stroke="midnightblue" d="M572.002,-56.6937C630.486,-46.3621 716.007,-31.2542 771.089,-21.5237"/>
<polygon fill="midnightblue" stroke="midnightblue" points="571.373,-53.2505 562.134,-58.4369 572.59,-60.1438 571.373,-53.2505"/>
</g>
<!-- Node3&#45;&gt;Node9 -->
<g id="edge8" class="edge"><title>Node3&#45;&gt;Node9</title>
<path fill="none" stroke="midnightblue" d="M576.31,-59.9952C654.176,-50.8586 785.266,-35.4395 898,-22 901.026,-21.6392 904.115,-21.2703 907.235,-20.8971"/>
<polygon fill="midnightblue" stroke="midnightblue" points="575.675,-56.5457 566.151,-61.1871 576.491,-63.498 575.675,-56.5457"/>
</g>
<!-- Node10 -->
<g id="node10" class="node"><title>Node10</title>
<g id="a_node10"><a xlink:href="../../d0/d57/_pass_fail_8cpp.html" target="_top" xlink:title="PassFail.cpp">
<polygon fill="white" stroke="black" points="512,-0.5 512,-21.5 598,-21.5 598,-0.5 512,-0.5"/>
<text text-anchor="middle" x="555" y="-7.9" font-family="Helvetica,sans-Serif" font-size="12.00">PassFail.cpp</text>
</a>
</g>
</g>
<!-- Node3&#45;&gt;Node10 -->
<g id="edge9" class="edge"><title>Node3&#45;&gt;Node10</title>
<path fill="none" stroke="midnightblue" d="M522.687,-50.5004C530.68,-40.9775 540.262,-29.5596 546.907,-21.6427"/>
<polygon fill="midnightblue" stroke="midnightblue" points="519.935,-48.3357 516.187,-58.2455 525.296,-52.8358 519.935,-48.3357"/>
</g>
<!-- Node11 -->
<g id="node11" class="node"><title>Node11</title>
<g id="a_node11"><a xlink:href="../../da/d46/_password_dialog_8cpp.html" target="_top" xlink:title="PasswordDialog.cpp">
<polygon fill="white" stroke="black" points="616,-0.5 616,-21.5 742,-21.5 742,-0.5 616,-0.5"/>
<text text-anchor="middle" x="679" y="-7.9" font-family="Helvetica,sans-Serif" font-size="12.00">PasswordDialog.cpp</text>
</a>
</g>
</g>
<!-- Node3&#45;&gt;Node11 -->
<g id="edge10" class="edge"><title>Node3&#45;&gt;Node11</title>
<path fill="none" stroke="midnightblue" d="M547.115,-55.1905C578.443,-44.9309 621.687,-30.7691 649.988,-21.5011"/>
<polygon fill="midnightblue" stroke="midnightblue" points="545.81,-51.9348 537.396,-58.3733 547.989,-58.5872 545.81,-51.9348"/>
</g>
<!-- Node12 -->
<g id="node12" class="node"><title>Node12</title>
<g id="a_node12"><a xlink:href="../../d5/d27/_setup_8cpp.html" target="_top" xlink:title="Setup.cpp">
<polygon fill="white" stroke="black" points="0,-0.5 0,-21.5 70,-21.5 70,-0.5 0,-0.5"/>
<text text-anchor="middle" x="35" y="-7.9" font-family="Helvetica,sans-Serif" font-size="12.00">Setup.cpp</text>
</a>
</g>
</g>
<!-- Node3&#45;&gt;Node12 -->
<g id="edge11" class="edge"><title>Node3&#45;&gt;Node12</title>
<path fill="none" stroke="midnightblue" d="M439.737,-63.1516C354.815,-56.5531 205.559,-43.093 79,-22 76.2182,-21.5364 73.3487,-21.0054 70.4712,-20.4352"/>
<polygon fill="midnightblue" stroke="midnightblue" points="439.529,-66.6459 449.768,-63.9223 440.066,-59.6664 439.529,-66.6459"/>
</g>
</g>
</svg>
