<?xml version="1.0" encoding="UTF-8" standalone="no"?>
<!DOCTYPE svg PUBLIC "-//W3C//DTD SVG 1.1//EN"
 "http://www.w3.org/Graphics/SVG/1.1/DTD/svg11.dtd">
<!-- Generated by graphviz version 2.34.0 (20130907.0111)
 -->
<!-- Title: ImatestLibAcq.cpp Pages: 1 -->
<svg width="739pt" height="320pt"
 viewBox="0.00 0.00 739.00 320.00" xmlns="http://www.w3.org/2000/svg" xmlns:xlink="http://www.w3.org/1999/xlink">
<g id="graph0" class="graph" transform="scale(1 1) rotate(0) translate(4 316)">
<title>ImatestLibAcq.cpp</title>
<polygon fill="white" stroke="white" points="-4,4 -4,-316 735,-316 735,4 -4,4"/>
<!-- Node1 -->
<g id="node1" class="node"><title>Node1</title>
<polygon fill="#bfbfbf" stroke="black" points="441,-290.5 441,-311.5 555,-311.5 555,-290.5 441,-290.5"/>
<text text-anchor="middle" x="498" y="-297.9" font-family="Helvetica,sans-Serif" font-size="12.00">ImatestLibAcq.cpp</text>
</g>
<!-- Node2 -->
<g id="node2" class="node"><title>Node2</title>
<g id="a_node2"><a xlink:href="../../db/d06/stdafx_8h.html" target="_top" xlink:title="stdafx.h">
<polygon fill="white" stroke="black" points="313,-116.5 313,-137.5 369,-137.5 369,-116.5 313,-116.5"/>
<text text-anchor="middle" x="341" y="-123.9" font-family="Helvetica,sans-Serif" font-size="12.00">stdafx.h</text>
</a>
</g>
</g>
<!-- Node1&#45;&gt;Node2 -->
<g id="edge1" class="edge"><title>Node1&#45;&gt;Node2</title>
<path fill="none" stroke="midnightblue" d="M440.843,-296.806C377.617,-289.698 279.81,-267.123 243,-196 227.839,-166.707 269.48,-147.542 303.11,-137.241"/>
<polygon fill="midnightblue" stroke="midnightblue" points="304.137,-140.587 312.773,-134.449 302.194,-133.863 304.137,-140.587"/>
</g>
<!-- Node11 -->
<g id="node11" class="node"><title>Node11</title>
<g id="a_node11"><a xlink:href="../../da/d69/imatest__library_8h.html" target="_top" xlink:title="imatest_library.h">
<polygon fill="white" stroke="black" points="334,-232.5 334,-253.5 436,-253.5 436,-232.5 334,-232.5"/>
<text text-anchor="middle" x="385" y="-239.9" font-family="Helvetica,sans-Serif" font-size="12.00">imatest_library.h</text>
</a>
</g>
</g>
<!-- Node1&#45;&gt;Node11 -->
<g id="edge10" class="edge"><title>Node1&#45;&gt;Node11</title>
<path fill="none" stroke="midnightblue" d="M478.575,-290.373C460.598,-281.464 433.656,-268.113 413.291,-258.02"/>
<polygon fill="midnightblue" stroke="midnightblue" points="414.686,-254.806 404.172,-253.501 411.578,-261.078 414.686,-254.806"/>
</g>
<!-- Node14 -->
<g id="node14" class="node"><title>Node14</title>
<g id="a_node14"><a xlink:href="../../db/d0a/_imatest_lib_acq_8h.html" target="_top" xlink:title="ImatestLibAcq.h">
<polygon fill="white" stroke="black" points="549.5,-232.5 549.5,-253.5 650.5,-253.5 650.5,-232.5 549.5,-232.5"/>
<text text-anchor="middle" x="600" y="-239.9" font-family="Helvetica,sans-Serif" font-size="12.00">ImatestLibAcq.h</text>
</a>
</g>
</g>
<!-- Node1&#45;&gt;Node14 -->
<g id="edge13" class="edge"><title>Node1&#45;&gt;Node14</title>
<path fill="none" stroke="midnightblue" d="M515.767,-290.246C531.71,-281.493 555.326,-268.527 573.499,-258.55"/>
<polygon fill="midnightblue" stroke="midnightblue" points="575.355,-261.523 582.437,-253.643 571.986,-255.387 575.355,-261.523"/>
</g>
<!-- Node19 -->
<g id="node19" class="node"><title>Node19</title>
<g id="a_node19"><a xlink:href="../../da/d22/_thread_control_8h.html" target="_top" xlink:title="ThreadControl.h">
<polygon fill="white" stroke="black" points="448,-174.5 448,-195.5 548,-195.5 548,-174.5 448,-174.5"/>
<text text-anchor="middle" x="498" y="-181.9" font-family="Helvetica,sans-Serif" font-size="12.00">ThreadControl.h</text>
</a>
</g>
</g>
<!-- Node1&#45;&gt;Node19 -->
<g id="edge20" class="edge"><title>Node1&#45;&gt;Node19</title>
<path fill="none" stroke="midnightblue" d="M498,-290.28C498,-271.603 498,-230.369 498,-205.715"/>
<polygon fill="midnightblue" stroke="midnightblue" points="501.5,-205.695 498,-195.695 494.5,-205.695 501.5,-205.695"/>
</g>
<!-- Node20 -->
<g id="node20" class="node"><title>Node20</title>
<polygon fill="white" stroke="#bfbfbf" points="669,-232.5 669,-253.5 731,-253.5 731,-232.5 669,-232.5"/>
<text text-anchor="middle" x="700" y="-239.9" font-family="Helvetica,sans-Serif" font-size="12.00">iostream</text>
</g>
<!-- Node1&#45;&gt;Node20 -->
<g id="edge23" class="edge"><title>Node1&#45;&gt;Node20</title>
<path fill="none" stroke="midnightblue" d="M532.725,-290.373C567.679,-280.683 621.593,-265.737 658.715,-255.445"/>
<polygon fill="midnightblue" stroke="midnightblue" points="660.009,-258.719 668.71,-252.674 658.139,-251.973 660.009,-258.719"/>
</g>
<!-- Node3 -->
<g id="node3" class="node"><title>Node3</title>
<g id="a_node3"><a xlink:href="../../d9/da6/targetver_8h.html" target="_top" xlink:title="targetver.h">
<polygon fill="white" stroke="black" points="357.5,-58.5 357.5,-79.5 428.5,-79.5 428.5,-58.5 357.5,-58.5"/>
<text text-anchor="middle" x="393" y="-65.9" font-family="Helvetica,sans-Serif" font-size="12.00">targetver.h</text>
</a>
</g>
</g>
<!-- Node2&#45;&gt;Node3 -->
<g id="edge2" class="edge"><title>Node2&#45;&gt;Node3</title>
<path fill="none" stroke="midnightblue" d="M350.058,-116.246C357.514,-108.216 368.263,-96.6394 377.142,-87.0781"/>
<polygon fill="midnightblue" stroke="midnightblue" points="379.806,-89.3522 384.046,-79.6427 374.677,-84.589 379.806,-89.3522"/>
</g>
<!-- Node5 -->
<g id="node5" class="node"><title>Node5</title>
<polygon fill="white" stroke="#bfbfbf" points="447,-58.5 447,-79.5 505,-79.5 505,-58.5 447,-58.5"/>
<text text-anchor="middle" x="476" y="-65.9" font-family="Helvetica,sans-Serif" font-size="12.00">afxwin.h</text>
</g>
<!-- Node2&#45;&gt;Node5 -->
<g id="edge4" class="edge"><title>Node2&#45;&gt;Node5</title>
<path fill="none" stroke="midnightblue" d="M364.207,-116.373C386.17,-107.263 419.333,-93.5062 443.84,-83.3404"/>
<polygon fill="midnightblue" stroke="midnightblue" points="445.2,-86.5657 453.096,-79.5011 442.518,-80.0999 445.2,-86.5657"/>
</g>
<!-- Node6 -->
<g id="node6" class="node"><title>Node6</title>
<polygon fill="white" stroke="#bfbfbf" points="523,-58.5 523,-79.5 579,-79.5 579,-58.5 523,-58.5"/>
<text text-anchor="middle" x="551" y="-65.9" font-family="Helvetica,sans-Serif" font-size="12.00">afxext.h</text>
</g>
<!-- Node2&#45;&gt;Node6 -->
<g id="edge5" class="edge"><title>Node2&#45;&gt;Node6</title>
<path fill="none" stroke="midnightblue" d="M369.176,-118.546C401.551,-109.973 456.532,-95.3881 512.924,-80.2816"/>
<polygon fill="midnightblue" stroke="midnightblue" points="513.969,-83.6253 522.721,-77.6556 512.156,-76.8639 513.969,-83.6253"/>
</g>
<!-- Node7 -->
<g id="node7" class="node"><title>Node7</title>
<polygon fill="white" stroke="#bfbfbf" points="-0.5,-58.5 -0.5,-79.5 62.5,-79.5 62.5,-58.5 -0.5,-58.5"/>
<text text-anchor="middle" x="31" y="-65.9" font-family="Helvetica,sans-Serif" font-size="12.00">afxdisp.h</text>
</g>
<!-- Node2&#45;&gt;Node7 -->
<g id="edge6" class="edge"><title>Node2&#45;&gt;Node7</title>
<path fill="none" stroke="midnightblue" d="M312.997,-121.871C265.64,-114.747 166.532,-99.2282 72.6767,-80.0245"/>
<polygon fill="midnightblue" stroke="midnightblue" points="73.2357,-76.5662 62.7345,-77.972 71.8204,-83.4216 73.2357,-76.5662"/>
</g>
<!-- Node8 -->
<g id="node8" class="node"><title>Node8</title>
<polygon fill="white" stroke="#bfbfbf" points="81,-58.5 81,-79.5 143,-79.5 143,-58.5 81,-58.5"/>
<text text-anchor="middle" x="112" y="-65.9" font-family="Helvetica,sans-Serif" font-size="12.00">afxdtctl.h</text>
</g>
<!-- Node2&#45;&gt;Node8 -->
<g id="edge7" class="edge"><title>Node2&#45;&gt;Node8</title>
<path fill="none" stroke="midnightblue" d="M312.808,-119.197C277.737,-110.72 215.759,-95.6996 153.068,-80.2531"/>
<polygon fill="midnightblue" stroke="midnightblue" points="153.551,-76.7675 143.004,-77.7713 151.875,-83.5639 153.551,-76.7675"/>
</g>
<!-- Node9 -->
<g id="node9" class="node"><title>Node9</title>
<polygon fill="white" stroke="#bfbfbf" points="161,-58.5 161,-79.5 223,-79.5 223,-58.5 161,-58.5"/>
<text text-anchor="middle" x="192" y="-65.9" font-family="Helvetica,sans-Serif" font-size="12.00">afxcmn.h</text>
</g>
<!-- Node2&#45;&gt;Node9 -->
<g id="edge8" class="edge"><title>Node2&#45;&gt;Node9</title>
<path fill="none" stroke="midnightblue" d="M315.386,-116.373C290.931,-107.182 253.895,-93.2624 226.779,-83.0713"/>
<polygon fill="midnightblue" stroke="midnightblue" points="227.872,-79.7431 217.28,-79.5011 225.409,-86.2956 227.872,-79.7431"/>
</g>
<!-- Node10 -->
<g id="node10" class="node"><title>Node10</title>
<polygon fill="white" stroke="#bfbfbf" points="241,-58.5 241,-79.5 339,-79.5 339,-58.5 241,-58.5"/>
<text text-anchor="middle" x="290" y="-65.9" font-family="Helvetica,sans-Serif" font-size="12.00">afxcontrolbars.h</text>
</g>
<!-- Node2&#45;&gt;Node10 -->
<g id="edge9" class="edge"><title>Node2&#45;&gt;Node10</title>
<path fill="none" stroke="midnightblue" d="M332.116,-116.246C324.803,-108.216 314.261,-96.6394 305.553,-87.0781"/>
<polygon fill="midnightblue" stroke="midnightblue" points="308.103,-84.6795 298.782,-79.6427 302.927,-89.3928 308.103,-84.6795"/>
</g>
<!-- Node4 -->
<g id="node4" class="node"><title>Node4</title>
<polygon fill="white" stroke="#bfbfbf" points="345,-0.5 345,-21.5 441,-21.5 441,-0.5 345,-0.5"/>
<text text-anchor="middle" x="393" y="-7.9" font-family="Helvetica,sans-Serif" font-size="12.00">SDKDDKVer.h</text>
</g>
<!-- Node3&#45;&gt;Node4 -->
<g id="edge3" class="edge"><title>Node3&#45;&gt;Node4</title>
<path fill="none" stroke="midnightblue" d="M393,-58.2455C393,-50.9382 393,-40.6944 393,-31.7046"/>
<polygon fill="midnightblue" stroke="midnightblue" points="396.5,-31.6426 393,-21.6427 389.5,-31.6427 396.5,-31.6426"/>
</g>
<!-- Node12 -->
<g id="node12" class="node"><title>Node12</title>
<polygon fill="white" stroke="#bfbfbf" points="252,-174.5 252,-195.5 322,-195.5 322,-174.5 252,-174.5"/>
<text text-anchor="middle" x="287" y="-181.9" font-family="Helvetica,sans-Serif" font-size="12.00">mclmcrrt.h</text>
</g>
<!-- Node11&#45;&gt;Node12 -->
<g id="edge11" class="edge"><title>Node11&#45;&gt;Node12</title>
<path fill="none" stroke="midnightblue" d="M367.93,-232.246C352.753,-223.573 330.338,-210.765 312.944,-200.825"/>
<polygon fill="midnightblue" stroke="midnightblue" points="314.294,-197.565 303.875,-195.643 310.821,-203.643 314.294,-197.565"/>
</g>
<!-- Node13 -->
<g id="node13" class="node"><title>Node13</title>
<polygon fill="white" stroke="#bfbfbf" points="340,-174.5 340,-195.5 430,-195.5 430,-174.5 340,-174.5"/>
<text text-anchor="middle" x="385" y="-181.9" font-family="Helvetica,sans-Serif" font-size="12.00">mclcppclass.h</text>
</g>
<!-- Node11&#45;&gt;Node13 -->
<g id="edge12" class="edge"><title>Node11&#45;&gt;Node13</title>
<path fill="none" stroke="midnightblue" d="M385,-232.246C385,-224.938 385,-214.694 385,-205.705"/>
<polygon fill="midnightblue" stroke="midnightblue" points="388.5,-205.643 385,-195.643 381.5,-205.643 388.5,-205.643"/>
</g>
<!-- Node15 -->
<g id="node15" class="node"><title>Node15</title>
<g id="a_node15"><a xlink:href="../../d3/d62/_image_acquisition_8h.html" target="_top" xlink:title="ImageAcquisition.h">
<polygon fill="white" stroke="black" points="566,-174.5 566,-195.5 682,-195.5 682,-174.5 566,-174.5"/>
<text text-anchor="middle" x="624" y="-181.9" font-family="Helvetica,sans-Serif" font-size="12.00">ImageAcquisition.h</text>
</a>
</g>
</g>
<!-- Node14&#45;&gt;Node15 -->
<g id="edge14" class="edge"><title>Node14&#45;&gt;Node15</title>
<path fill="none" stroke="midnightblue" d="M604.18,-232.246C607.381,-224.778 611.896,-214.243 615.808,-205.114"/>
<polygon fill="midnightblue" stroke="midnightblue" points="619.145,-206.213 619.867,-195.643 612.711,-203.455 619.145,-206.213"/>
</g>
<!-- Node18 -->
<g id="node18" class="node"><title>Node18</title>
<polygon fill="white" stroke="#bfbfbf" points="684.5,-116.5 684.5,-137.5 729.5,-137.5 729.5,-116.5 684.5,-116.5"/>
<text text-anchor="middle" x="707" y="-123.9" font-family="Helvetica,sans-Serif" font-size="12.00">string</text>
</g>
<!-- Node14&#45;&gt;Node18 -->
<g id="edge19" class="edge"><title>Node14&#45;&gt;Node18</title>
<path fill="none" stroke="midnightblue" d="M634.988,-232.353C654.234,-225.304 676.984,-213.804 691,-196 701.761,-182.331 705.486,-162.632 706.681,-147.951"/>
<polygon fill="midnightblue" stroke="midnightblue" points="710.181,-148.046 707.177,-137.886 703.189,-147.701 710.181,-148.046"/>
</g>
<!-- Node15&#45;&gt;Node2 -->
<g id="edge15" class="edge"><title>Node15&#45;&gt;Node2</title>
<path fill="none" stroke="midnightblue" d="M575.672,-174.437C520.14,-163.448 430.142,-145.639 379.25,-135.569"/>
<polygon fill="midnightblue" stroke="midnightblue" points="379.802,-132.11 369.312,-133.602 378.443,-138.977 379.802,-132.11"/>
</g>
<!-- Node16 -->
<g id="node16" class="node"><title>Node16</title>
<g id="a_node16"><a xlink:href="../../d8/d07/_critical_buf_8h.html" target="_top" xlink:title="CriticalBuf.h">
<polygon fill="white" stroke="black" points="584,-116.5 584,-137.5 664,-137.5 664,-116.5 584,-116.5"/>
<text text-anchor="middle" x="624" y="-123.9" font-family="Helvetica,sans-Serif" font-size="12.00">CriticalBuf.h</text>
</a>
</g>
</g>
<!-- Node15&#45;&gt;Node16 -->
<g id="edge16" class="edge"><title>Node15&#45;&gt;Node16</title>
<path fill="none" stroke="midnightblue" d="M624,-174.246C624,-166.938 624,-156.694 624,-147.705"/>
<polygon fill="midnightblue" stroke="midnightblue" points="627.5,-147.643 624,-137.643 620.5,-147.643 627.5,-147.643"/>
</g>
<!-- Node15&#45;&gt;Node18 -->
<g id="edge18" class="edge"><title>Node15&#45;&gt;Node18</title>
<path fill="none" stroke="midnightblue" d="M638.457,-174.246C651.073,-165.734 669.594,-153.237 684.205,-143.38"/>
<polygon fill="midnightblue" stroke="midnightblue" points="686.376,-146.137 692.708,-137.643 682.461,-140.334 686.376,-146.137"/>
</g>
<!-- Node17 -->
<g id="node17" class="node"><title>Node17</title>
<polygon fill="white" stroke="#bfbfbf" points="597.5,-58.5 597.5,-79.5 650.5,-79.5 650.5,-58.5 597.5,-58.5"/>
<text text-anchor="middle" x="624" y="-65.9" font-family="Helvetica,sans-Serif" font-size="12.00">afxmt.h</text>
</g>
<!-- Node16&#45;&gt;Node17 -->
<g id="edge17" class="edge"><title>Node16&#45;&gt;Node17</title>
<path fill="none" stroke="midnightblue" d="M624,-116.246C624,-108.938 624,-98.6944 624,-89.7046"/>
<polygon fill="midnightblue" stroke="midnightblue" points="627.5,-89.6426 624,-79.6427 620.5,-89.6427 627.5,-89.6426"/>
</g>
<!-- Node19&#45;&gt;Node2 -->
<g id="edge21" class="edge"><title>Node19&#45;&gt;Node2</title>
<path fill="none" stroke="midnightblue" d="M471.011,-174.373C445.13,-165.142 405.875,-151.14 377.271,-140.937"/>
<polygon fill="midnightblue" stroke="midnightblue" points="378.232,-137.564 367.637,-137.501 375.88,-144.157 378.232,-137.564"/>
</g>
<!-- Node19&#45;&gt;Node17 -->
<g id="edge22" class="edge"><title>Node19&#45;&gt;Node17</title>
<path fill="none" stroke="midnightblue" d="M508.743,-174.28C530.316,-154.762 579.117,-110.609 605.776,-86.4881"/>
<polygon fill="midnightblue" stroke="midnightblue" points="608.217,-88.9995 613.285,-79.695 603.521,-83.8088 608.217,-88.9995"/>
</g>
</g>
</svg>
