<?xml version="1.0" encoding="UTF-8" standalone="no"?>
<!DOCTYPE svg PUBLIC "-//W3C//DTD SVG 1.1//EN"
 "http://www.w3.org/Graphics/SVG/1.1/DTD/svg11.dtd">
<!-- Generated by graphviz version 2.34.0 (20130907.0111)
 -->
<!-- Title: JSON/JSON_Base64.h Pages: 1 -->
<svg width="1452pt" height="436pt"
 viewBox="0.00 0.00 1452.00 436.00" xmlns="http://www.w3.org/2000/svg" xmlns:xlink="http://www.w3.org/1999/xlink">
<g id="graph0" class="graph" transform="scale(1 1) rotate(0) translate(4 432)">
<title>JSON/JSON_Base64.h</title>
<polygon fill="white" stroke="white" points="-4,4 -4,-432 1448,-432 1448,4 -4,4"/>
<!-- Node1 -->
<g id="node1" class="node"><title>Node1</title>
<polygon fill="#bfbfbf" stroke="black" points="1171,-406.5 1171,-427.5 1311,-427.5 1311,-406.5 1171,-406.5"/>
<text text-anchor="middle" x="1241" y="-413.9" font-family="Helvetica,sans-Serif" font-size="12.00">JSON/JSON_Base64.h</text>
</g>
<!-- Node2 -->
<g id="node2" class="node"><title>Node2</title>
<g id="a_node2"><a xlink:href="../../d8/dcb/_j_s_o_n_node_8h.html" target="_top" xlink:title="JSON/JSONNode.h">
<polygon fill="white" stroke="black" points="748,-348.5 748,-369.5 868,-369.5 868,-348.5 748,-348.5"/>
<text text-anchor="middle" x="808" y="-355.9" font-family="Helvetica,sans-Serif" font-size="12.00">JSON/JSONNode.h</text>
</a>
</g>
</g>
<!-- Node1&#45;&gt;Node2 -->
<g id="edge1" class="edge"><title>Node1&#45;&gt;Node2</title>
<path fill="none" stroke="midnightblue" d="M1160.86,-405.635C1076.14,-394.678 944.436,-377.645 868.174,-367.782"/>
<polygon fill="midnightblue" stroke="midnightblue" points="1160.58,-409.129 1170.95,-406.94 1161.48,-402.187 1160.58,-409.129"/>
</g>
<!-- Node3 -->
<g id="node3" class="node"><title>Node3</title>
<g id="a_node3"><a xlink:href="../../d1/d7d/libjson_8h.html" target="_top" xlink:title="libjson.h">
<polygon fill="white" stroke="black" points="1015.5,-232.5 1015.5,-253.5 1074.5,-253.5 1074.5,-232.5 1015.5,-232.5"/>
<text text-anchor="middle" x="1045" y="-239.9" font-family="Helvetica,sans-Serif" font-size="12.00">libjson.h</text>
</a>
</g>
</g>
<!-- Node1&#45;&gt;Node3 -->
<g id="edge39" class="edge"><title>Node1&#45;&gt;Node3</title>
<path fill="none" stroke="midnightblue" d="M1244.1,-396.379C1247.24,-368.98 1248.41,-319.33 1222,-290 1221.37,-289.303 1125.2,-264.563 1074.9,-251.66"/>
<polygon fill="midnightblue" stroke="midnightblue" points="1240.63,-395.947 1242.76,-406.325 1247.56,-396.883 1240.63,-395.947"/>
</g>
<!-- Node32 -->
<g id="node32" class="node"><title>Node32</title>
<g id="a_node32"><a xlink:href="../../de/d85/_j_s_o_n___base64_8cpp.html" target="_top" xlink:title="JSON/JSON_Base64.cpp">
<polygon fill="white" stroke="black" points="1269.5,-348.5 1269.5,-369.5 1422.5,-369.5 1422.5,-348.5 1269.5,-348.5"/>
<text text-anchor="middle" x="1346" y="-355.9" font-family="Helvetica,sans-Serif" font-size="12.00">JSON/JSON_Base64.cpp</text>
</a>
</g>
</g>
<!-- Node1&#45;&gt;Node32 -->
<g id="edge40" class="edge"><title>Node1&#45;&gt;Node32</title>
<path fill="none" stroke="midnightblue" d="M1268.26,-401.46C1287.05,-391.439 1311.5,-378.399 1327.92,-369.643"/>
<polygon fill="midnightblue" stroke="midnightblue" points="1266.47,-398.451 1259.29,-406.246 1269.76,-404.628 1266.47,-398.451"/>
</g>
<!-- Node2&#45;&gt;Node3 -->
<g id="edge2" class="edge"><title>Node2&#45;&gt;Node3</title>
<path fill="none" stroke="midnightblue" d="M878.369,-355.377C919.065,-350.718 969.314,-339.267 1006,-312 1026.1,-297.062 1037.45,-268.469 1042.25,-253.566"/>
<polygon fill="midnightblue" stroke="midnightblue" points="877.831,-351.914 868.243,-356.421 878.549,-358.877 877.831,-351.914"/>
</g>
<!-- Node21 -->
<g id="node21" class="node"><title>Node21</title>
<g id="a_node21"><a xlink:href="../../d8/d46/_j_s_o_n_worker_8h.html" target="_top" xlink:title="JSON/JSONWorker.h">
<polygon fill="white" stroke="black" points="174,-290.5 174,-311.5 304,-311.5 304,-290.5 174,-290.5"/>
<text text-anchor="middle" x="239" y="-297.9" font-family="Helvetica,sans-Serif" font-size="12.00">JSON/JSONWorker.h</text>
</a>
</g>
</g>
<!-- Node2&#45;&gt;Node21 -->
<g id="edge24" class="edge"><title>Node2&#45;&gt;Node21</title>
<path fill="none" stroke="midnightblue" d="M737.547,-352.382C641.462,-344.508 463.996,-329.211 313,-312 310.166,-311.677 307.273,-311.336 304.352,-310.982"/>
<polygon fill="midnightblue" stroke="midnightblue" points="737.469,-355.887 747.72,-353.213 738.038,-348.911 737.469,-355.887"/>
</g>
<!-- Node22 -->
<g id="node22" class="node"><title>Node22</title>
<g id="a_node22"><a xlink:href="../../dd/dde/internal_j_s_o_n_node_8cpp.html" target="_top" xlink:title="JSON/internalJSONNode.cpp">
<polygon fill="white" stroke="black" points="-0.5,-232.5 -0.5,-253.5 170.5,-253.5 170.5,-232.5 -0.5,-232.5"/>
<text text-anchor="middle" x="85" y="-239.9" font-family="Helvetica,sans-Serif" font-size="12.00">JSON/internalJSONNode.cpp</text>
</a>
</g>
</g>
<!-- Node2&#45;&gt;Node22 -->
<g id="edge33" class="edge"><title>Node2&#45;&gt;Node22</title>
<path fill="none" stroke="midnightblue" d="M737.859,-358.441C593.282,-358.47 267.12,-353.733 165,-312 133.615,-299.174 105.605,-269.089 92.6334,-253.595"/>
<polygon fill="midnightblue" stroke="midnightblue" points="737.953,-361.941 747.949,-358.432 737.946,-354.941 737.953,-361.941"/>
</g>
<!-- Node25 -->
<g id="node25" class="node"><title>Node25</title>
<g id="a_node25"><a xlink:href="../../d8/d45/_j_s_o_n_writer_8cpp.html" target="_top" xlink:title="JSON/JSONWriter.cpp">
<polygon fill="white" stroke="black" points="654.5,-232.5 654.5,-253.5 791.5,-253.5 791.5,-232.5 654.5,-232.5"/>
<text text-anchor="middle" x="723" y="-239.9" font-family="Helvetica,sans-Serif" font-size="12.00">JSON/JSONWriter.cpp</text>
</a>
</g>
</g>
<!-- Node2&#45;&gt;Node25 -->
<g id="edge38" class="edge"><title>Node2&#45;&gt;Node25</title>
<path fill="none" stroke="midnightblue" d="M878.296,-353.739C942.106,-347.229 1021.37,-330.877 987,-290 962.486,-260.845 861.317,-250.167 791.587,-246.257"/>
<polygon fill="midnightblue" stroke="midnightblue" points="877.83,-350.268 868.207,-354.702 878.495,-357.236 877.83,-350.268"/>
</g>
<!-- Node26 -->
<g id="node26" class="node"><title>Node26</title>
<g id="a_node26"><a xlink:href="../../da/dde/_j_s_o_n_preparse_8h.html" target="_top" xlink:title="JSON/JSONPreparse.h">
<polygon fill="white" stroke="black" points="1073,-290.5 1073,-311.5 1213,-311.5 1213,-290.5 1073,-290.5"/>
<text text-anchor="middle" x="1143" y="-297.9" font-family="Helvetica,sans-Serif" font-size="12.00">JSON/JSONPreparse.h</text>
</a>
</g>
</g>
<!-- Node2&#45;&gt;Node26 -->
<g id="edge30" class="edge"><title>Node2&#45;&gt;Node26</title>
<path fill="none" stroke="midnightblue" d="M875.253,-346.758C937.068,-336.425 1027.7,-321.274 1086.03,-311.524"/>
<polygon fill="midnightblue" stroke="midnightblue" points="874.494,-343.336 865.208,-348.437 875.648,-350.24 874.494,-343.336"/>
</g>
<!-- Node28 -->
<g id="node28" class="node"><title>Node28</title>
<g id="a_node28"><a xlink:href="../../dc/d59/_j_s_o_n_children_8cpp.html" target="_top" xlink:title="JSON/JSONChildren.cpp">
<polygon fill="white" stroke="black" points="322.5,-290.5 322.5,-311.5 471.5,-311.5 471.5,-290.5 322.5,-290.5"/>
<text text-anchor="middle" x="397" y="-297.9" font-family="Helvetica,sans-Serif" font-size="12.00">JSON/JSONChildren.cpp</text>
</a>
</g>
</g>
<!-- Node2&#45;&gt;Node28 -->
<g id="edge34" class="edge"><title>Node2&#45;&gt;Node28</title>
<path fill="none" stroke="midnightblue" d="M737.886,-348.447C662.267,-338.143 542.582,-321.836 467.005,-311.538"/>
<polygon fill="midnightblue" stroke="midnightblue" points="737.416,-351.915 747.797,-349.797 738.361,-344.979 737.416,-351.915"/>
</g>
<!-- Node29 -->
<g id="node29" class="node"><title>Node29</title>
<g id="a_node29"><a xlink:href="../../d8/de5/_j_s_o_n_iterators_8cpp.html" target="_top" xlink:title="JSON/JSONIterators.cpp">
<polygon fill="white" stroke="black" points="489.5,-290.5 489.5,-311.5 636.5,-311.5 636.5,-290.5 489.5,-290.5"/>
<text text-anchor="middle" x="563" y="-297.9" font-family="Helvetica,sans-Serif" font-size="12.00">JSON/JSONIterators.cpp</text>
</a>
</g>
</g>
<!-- Node2&#45;&gt;Node29 -->
<g id="edge35" class="edge"><title>Node2&#45;&gt;Node29</title>
<path fill="none" stroke="midnightblue" d="M756.277,-346.178C711.155,-335.864 646.534,-321.093 604.666,-311.524"/>
<polygon fill="midnightblue" stroke="midnightblue" points="755.633,-349.621 766.161,-348.437 757.193,-342.797 755.633,-349.621"/>
</g>
<!-- Node30 -->
<g id="node30" class="node"><title>Node30</title>
<g id="a_node30"><a xlink:href="../../d1/df2/_j_s_o_n_node_8cpp.html" target="_top" xlink:title="JSON/JSONNode.cpp">
<polygon fill="white" stroke="black" points="655,-290.5 655,-311.5 789,-311.5 789,-290.5 655,-290.5"/>
<text text-anchor="middle" x="722" y="-297.9" font-family="Helvetica,sans-Serif" font-size="12.00">JSON/JSONNode.cpp</text>
</a>
</g>
</g>
<!-- Node2&#45;&gt;Node30 -->
<g id="edge36" class="edge"><title>Node2&#45;&gt;Node30</title>
<path fill="none" stroke="midnightblue" d="M784.61,-342.769C769.37,-332.846 749.949,-320.199 736.808,-311.643"/>
<polygon fill="midnightblue" stroke="midnightblue" points="782.73,-345.722 793.02,-348.246 786.55,-339.856 782.73,-345.722"/>
</g>
<!-- Node31 -->
<g id="node31" class="node"><title>Node31</title>
<g id="a_node31"><a xlink:href="../../d7/d9f/_j_s_o_n_node___mutex_8cpp.html" target="_top" xlink:title="JSON/JSONNode_Mutex.cpp">
<polygon fill="white" stroke="black" points="807.5,-290.5 807.5,-311.5 978.5,-311.5 978.5,-290.5 807.5,-290.5"/>
<text text-anchor="middle" x="893" y="-297.9" font-family="Helvetica,sans-Serif" font-size="12.00">JSON/JSONNode_Mutex.cpp</text>
</a>
</g>
</g>
<!-- Node2&#45;&gt;Node31 -->
<g id="edge37" class="edge"><title>Node2&#45;&gt;Node31</title>
<path fill="none" stroke="midnightblue" d="M831.542,-342.49C846.539,-332.61 865.497,-320.119 878.364,-311.643"/>
<polygon fill="midnightblue" stroke="midnightblue" points="829.231,-339.821 822.806,-348.246 833.082,-345.667 829.231,-339.821"/>
</g>
<!-- Node4 -->
<g id="node4" class="node"><title>Node4</title>
<g id="a_node4"><a xlink:href="../../d9/da7/_image_test_8h.html" target="_top" xlink:title="ImageTest.h">
<polygon fill="white" stroke="black" points="814,-174.5 814,-195.5 894,-195.5 894,-174.5 814,-174.5"/>
<text text-anchor="middle" x="854" y="-181.9" font-family="Helvetica,sans-Serif" font-size="12.00">ImageTest.h</text>
</a>
</g>
</g>
<!-- Node3&#45;&gt;Node4 -->
<g id="edge3" class="edge"><title>Node3&#45;&gt;Node4</title>
<path fill="none" stroke="midnightblue" d="M1005.22,-230.337C970.031,-220.02 919.318,-205.151 886.509,-195.531"/>
<polygon fill="midnightblue" stroke="midnightblue" points="1004.58,-233.795 1015.16,-233.25 1006.54,-227.078 1004.58,-233.795"/>
</g>
<!-- Node18 -->
<g id="node18" class="node"><title>Node18</title>
<g id="a_node18"><a xlink:href="../../dc/d7a/_s_f_rplus_test_8cpp.html" target="_top" xlink:title="SFRplusTest.cpp">
<polygon fill="white" stroke="black" points="950.5,-58.5 950.5,-79.5 1057.5,-79.5 1057.5,-58.5 950.5,-58.5"/>
<text text-anchor="middle" x="1004" y="-65.9" font-family="Helvetica,sans-Serif" font-size="12.00">SFRplusTest.cpp</text>
</a>
</g>
</g>
<!-- Node3&#45;&gt;Node18 -->
<g id="edge23" class="edge"><title>Node3&#45;&gt;Node18</title>
<path fill="none" stroke="midnightblue" d="M1034.59,-223.465C1030.4,-215.272 1025.88,-205.386 1023,-196 1010.08,-153.915 1005.77,-101.122 1004.48,-79.6989"/>
<polygon fill="midnightblue" stroke="midnightblue" points="1031.6,-225.305 1039.41,-232.47 1037.77,-222.002 1031.6,-225.305"/>
</g>
<!-- Node19 -->
<g id="node19" class="node"><title>Node19</title>
<g id="a_node19"><a xlink:href="../../df/d2a/libjson_8cpp.html" target="_top" xlink:title="JSON/libjson.cpp">
<polygon fill="white" stroke="black" points="1032.5,-174.5 1032.5,-195.5 1139.5,-195.5 1139.5,-174.5 1032.5,-174.5"/>
<text text-anchor="middle" x="1086" y="-181.9" font-family="Helvetica,sans-Serif" font-size="12.00">JSON/libjson.cpp</text>
</a>
</g>
</g>
<!-- Node3&#45;&gt;Node19 -->
<g id="edge21" class="edge"><title>Node3&#45;&gt;Node19</title>
<path fill="none" stroke="midnightblue" d="M1058.24,-223.921C1065.12,-214.518 1073.26,-203.4 1078.94,-195.643"/>
<polygon fill="midnightblue" stroke="midnightblue" points="1055.23,-222.109 1052.14,-232.246 1060.87,-226.244 1055.23,-222.109"/>
</g>
<!-- Node20 -->
<g id="node20" class="node"><title>Node20</title>
<g id="a_node20"><a xlink:href="../../d7/d4a/jsonhelpers_8cpp.html" target="_top" xlink:title="jsonhelpers.cpp">
<polygon fill="white" stroke="black" points="1158,-174.5 1158,-195.5 1256,-195.5 1256,-174.5 1158,-174.5"/>
<text text-anchor="middle" x="1207" y="-181.9" font-family="Helvetica,sans-Serif" font-size="12.00">jsonhelpers.cpp</text>
</a>
</g>
</g>
<!-- Node3&#45;&gt;Node20 -->
<g id="edge22" class="edge"><title>Node3&#45;&gt;Node20</title>
<path fill="none" stroke="midnightblue" d="M1082.44,-229.057C1112.09,-218.808 1152.82,-204.729 1179.51,-195.501"/>
<polygon fill="midnightblue" stroke="midnightblue" points="1081.16,-225.798 1072.85,-232.373 1083.44,-232.414 1081.16,-225.798"/>
</g>
<!-- Node5 -->
<g id="node5" class="node"><title>Node5</title>
<g id="a_node5"><a xlink:href="../../dc/d69/_blemish_test_8h.html" target="_top" xlink:title="BlemishTest.h">
<polygon fill="white" stroke="black" points="736,-116.5 736,-137.5 826,-137.5 826,-116.5 736,-116.5"/>
<text text-anchor="middle" x="781" y="-123.9" font-family="Helvetica,sans-Serif" font-size="12.00">BlemishTest.h</text>
</a>
</g>
</g>
<!-- Node4&#45;&gt;Node5 -->
<g id="edge4" class="edge"><title>Node4&#45;&gt;Node5</title>
<path fill="none" stroke="midnightblue" d="M833.049,-167.928C820.289,-158.14 804.411,-145.959 793.57,-137.643"/>
<polygon fill="midnightblue" stroke="midnightblue" points="831.22,-170.936 841.284,-174.246 835.48,-165.382 831.22,-170.936"/>
</g>
<!-- Node6 -->
<g id="node6" class="node"><title>Node6</title>
<g id="a_node6"><a xlink:href="../../da/de6/_operator_console_8h.html" target="_top" xlink:title="OperatorConsole.h">
<polygon fill="white" stroke="black" points="816,-58.5 816,-79.5 932,-79.5 932,-58.5 816,-58.5"/>
<text text-anchor="middle" x="874" y="-65.9" font-family="Helvetica,sans-Serif" font-size="12.00">OperatorConsole.h</text>
</a>
</g>
</g>
<!-- Node4&#45;&gt;Node6 -->
<g id="edge16" class="edge"><title>Node4&#45;&gt;Node6</title>
<path fill="none" stroke="midnightblue" d="M857.465,-164.252C861.792,-139.584 869.026,-98.3525 872.299,-79.695"/>
<polygon fill="midnightblue" stroke="midnightblue" points="853.986,-163.826 855.705,-174.28 860.881,-165.036 853.986,-163.826"/>
</g>
<!-- Node9 -->
<g id="node9" class="node"><title>Node9</title>
<g id="a_node9"><a xlink:href="../../d8/d53/_image_test_8cpp.html" target="_top" xlink:title="ImageTest.cpp">
<polygon fill="white" stroke="black" points="391,-0.5 391,-21.5 485,-21.5 485,-0.5 391,-0.5"/>
<text text-anchor="middle" x="438" y="-7.9" font-family="Helvetica,sans-Serif" font-size="12.00">ImageTest.cpp</text>
</a>
</g>
</g>
<!-- Node4&#45;&gt;Node9 -->
<g id="edge20" class="edge"><title>Node4&#45;&gt;Node9</title>
<path fill="none" stroke="midnightblue" d="M816.44,-171.101C791.035,-162.204 756.808,-149.882 727,-138 625.312,-97.4643 506.12,-43.3613 458.839,-21.631"/>
<polygon fill="midnightblue" stroke="midnightblue" points="815.466,-174.468 826.061,-174.454 817.77,-167.858 815.466,-174.468"/>
</g>
<!-- Node17 -->
<g id="node17" class="node"><title>Node17</title>
<g id="a_node17"><a xlink:href="../../d2/d9d/_s_f_rplus_test_8h.html" target="_top" xlink:title="SFRplusTest.h">
<polygon fill="white" stroke="black" points="882.5,-116.5 882.5,-137.5 975.5,-137.5 975.5,-116.5 882.5,-116.5"/>
<text text-anchor="middle" x="929" y="-123.9" font-family="Helvetica,sans-Serif" font-size="12.00">SFRplusTest.h</text>
</a>
</g>
</g>
<!-- Node4&#45;&gt;Node17 -->
<g id="edge17" class="edge"><title>Node4&#45;&gt;Node17</title>
<path fill="none" stroke="midnightblue" d="M875.148,-168.21C888.32,-158.374 904.84,-146.039 916.086,-137.643"/>
<polygon fill="midnightblue" stroke="midnightblue" points="872.983,-165.458 867.064,-174.246 877.171,-171.067 872.983,-165.458"/>
</g>
<!-- Node5&#45;&gt;Node6 -->
<g id="edge5" class="edge"><title>Node5&#45;&gt;Node6</title>
<path fill="none" stroke="midnightblue" d="M805.834,-111.046C822.381,-101.082 843.643,-88.2794 857.986,-79.6427"/>
<polygon fill="midnightblue" stroke="midnightblue" points="803.961,-108.089 797.199,-116.246 807.572,-114.085 803.961,-108.089"/>
</g>
<!-- Node16 -->
<g id="node16" class="node"><title>Node16</title>
<g id="a_node16"><a xlink:href="../../dd/d8a/_blemish_test_8cpp.html" target="_top" xlink:title="BlemishTest.cpp">
<polygon fill="white" stroke="black" points="694,-58.5 694,-79.5 798,-79.5 798,-58.5 694,-58.5"/>
<text text-anchor="middle" x="746" y="-65.9" font-family="Helvetica,sans-Serif" font-size="12.00">BlemishTest.cpp</text>
</a>
</g>
</g>
<!-- Node5&#45;&gt;Node16 -->
<g id="edge15" class="edge"><title>Node5&#45;&gt;Node16</title>
<path fill="none" stroke="midnightblue" d="M769.518,-107.63C763.68,-98.2887 756.825,-87.3197 752.027,-79.6427"/>
<polygon fill="midnightblue" stroke="midnightblue" points="766.635,-109.621 774.903,-116.246 772.571,-105.911 766.635,-109.621"/>
</g>
<!-- Node7 -->
<g id="node7" class="node"><title>Node7</title>
<g id="a_node7"><a xlink:href="../../d3/d22/_app_thread_8cpp.html" target="_top" xlink:title="AppThread.cpp">
<polygon fill="white" stroke="black" points="1235,-0.5 1235,-21.5 1333,-21.5 1333,-0.5 1235,-0.5"/>
<text text-anchor="middle" x="1284" y="-7.9" font-family="Helvetica,sans-Serif" font-size="12.00">AppThread.cpp</text>
</a>
</g>
</g>
<!-- Node6&#45;&gt;Node7 -->
<g id="edge6" class="edge"><title>Node6&#45;&gt;Node7</title>
<path fill="none" stroke="midnightblue" d="M942.209,-57.8614C1069.18,-40.5771 1102.93,-40.3724 1226,-22 1228.93,-21.5625 1231.94,-21.0958 1234.98,-20.6121"/>
<polygon fill="midnightblue" stroke="midnightblue" points="941.525,-54.4223 932.093,-59.2477 942.476,-61.3575 941.525,-54.4223"/>
</g>
<!-- Node8 -->
<g id="node8" class="node"><title>Node8</title>
<g id="a_node8"><a xlink:href="../../d6/df7/_critical_buf_8cpp.html" target="_top" xlink:title="CriticalBuf.cpp">
<polygon fill="white" stroke="black" points="1351.5,-0.5 1351.5,-21.5 1444.5,-21.5 1444.5,-0.5 1351.5,-0.5"/>
<text text-anchor="middle" x="1398" y="-7.9" font-family="Helvetica,sans-Serif" font-size="12.00">CriticalBuf.cpp</text>
</a>
</g>
</g>
<!-- Node6&#45;&gt;Node8 -->
<g id="edge7" class="edge"><title>Node6&#45;&gt;Node8</title>
<path fill="none" stroke="midnightblue" d="M942.054,-57.9387C1120.38,-37.0968 1167.85,-45.3214 1342,-22 1345.03,-21.5936 1348.16,-21.1391 1351.3,-20.6539"/>
<polygon fill="midnightblue" stroke="midnightblue" points="941.596,-54.4684 932.077,-59.119 942.419,-61.4199 941.596,-54.4684"/>
</g>
<!-- Node6&#45;&gt;Node9 -->
<g id="edge8" class="edge"><title>Node6&#45;&gt;Node9</title>
<path fill="none" stroke="midnightblue" d="M805.707,-57.8697C666.451,-39.7739 629.299,-41.8415 494,-22 491.069,-21.5701 488.055,-21.1036 485.019,-20.6151"/>
<polygon fill="midnightblue" stroke="midnightblue" points="805.542,-61.378 815.912,-59.208 806.452,-54.4374 805.542,-61.378"/>
</g>
<!-- Node10 -->
<g id="node10" class="node"><title>Node10</title>
<g id="a_node10"><a xlink:href="../../df/d0a/main_8cpp.html" target="_top" xlink:title="main.cpp">
<polygon fill="white" stroke="black" points="503.5,-0.5 503.5,-21.5 568.5,-21.5 568.5,-0.5 503.5,-0.5"/>
<text text-anchor="middle" x="536" y="-7.9" font-family="Helvetica,sans-Serif" font-size="12.00">main.cpp</text>
</a>
</g>
</g>
<!-- Node6&#45;&gt;Node10 -->
<g id="edge9" class="edge"><title>Node6&#45;&gt;Node10</title>
<path fill="none" stroke="midnightblue" d="M805.68,-57.7341C725.009,-45.5625 598.961,-26.3705 577,-22 574.269,-21.4566 571.446,-20.8541 568.618,-20.2222"/>
<polygon fill="midnightblue" stroke="midnightblue" points="805.361,-61.2254 815.771,-59.2556 806.404,-54.3036 805.361,-61.2254"/>
</g>
<!-- Node11 -->
<g id="node11" class="node"><title>Node11</title>
<g id="a_node11"><a xlink:href="../../de/da2/_operator_console_8cpp.html" target="_top" xlink:title="OperatorConsole.cpp">
<polygon fill="white" stroke="black" points="586.5,-0.5 586.5,-21.5 715.5,-21.5 715.5,-0.5 586.5,-0.5"/>
<text text-anchor="middle" x="651" y="-7.9" font-family="Helvetica,sans-Serif" font-size="12.00">OperatorConsole.cpp</text>
</a>
</g>
</g>
<!-- Node6&#45;&gt;Node11 -->
<g id="edge10" class="edge"><title>Node6&#45;&gt;Node11</title>
<path fill="none" stroke="midnightblue" d="M826.143,-55.982C785.111,-45.6781 726.792,-31.0331 688.925,-21.5237"/>
<polygon fill="midnightblue" stroke="midnightblue" points="825.367,-59.3958 835.918,-58.4369 827.072,-52.6066 825.367,-59.3958"/>
</g>
<!-- Node12 -->
<g id="node12" class="node"><title>Node12</title>
<g id="a_node12"><a xlink:href="../../d8/d29/_operator_console_dlg_8cpp.html" target="_top" xlink:title="OperatorConsoleDlg.cpp">
<polygon fill="white" stroke="black" points="733.5,-0.5 733.5,-21.5 880.5,-21.5 880.5,-0.5 733.5,-0.5"/>
<text text-anchor="middle" x="807" y="-7.9" font-family="Helvetica,sans-Serif" font-size="12.00">OperatorConsoleDlg.cpp</text>
</a>
</g>
</g>
<!-- Node6&#45;&gt;Node12 -->
<g id="edge11" class="edge"><title>Node6&#45;&gt;Node12</title>
<path fill="none" stroke="midnightblue" d="M854.432,-51.645C842.78,-41.9058 828.392,-29.8795 818.537,-21.6427"/>
<polygon fill="midnightblue" stroke="midnightblue" points="852.412,-54.5179 862.329,-58.2455 856.901,-49.1469 852.412,-54.5179"/>
</g>
<!-- Node13 -->
<g id="node13" class="node"><title>Node13</title>
<g id="a_node13"><a xlink:href="../../d0/d57/_pass_fail_8cpp.html" target="_top" xlink:title="PassFail.cpp">
<polygon fill="white" stroke="black" points="899,-0.5 899,-21.5 985,-21.5 985,-0.5 899,-0.5"/>
<text text-anchor="middle" x="942" y="-7.9" font-family="Helvetica,sans-Serif" font-size="12.00">PassFail.cpp</text>
</a>
</g>
</g>
<!-- Node6&#45;&gt;Node13 -->
<g id="edge12" class="edge"><title>Node6&#45;&gt;Node13</title>
<path fill="none" stroke="midnightblue" d="M893.86,-51.645C905.686,-41.9058 920.289,-29.8795 930.291,-21.6427"/>
<polygon fill="midnightblue" stroke="midnightblue" points="891.339,-49.1867 885.845,-58.2455 895.789,-54.5902 891.339,-49.1867"/>
</g>
<!-- Node14 -->
<g id="node14" class="node"><title>Node14</title>
<g id="a_node14"><a xlink:href="../../da/d46/_password_dialog_8cpp.html" target="_top" xlink:title="PasswordDialog.cpp">
<polygon fill="white" stroke="black" points="1003,-0.5 1003,-21.5 1129,-21.5 1129,-0.5 1003,-0.5"/>
<text text-anchor="middle" x="1066" y="-7.9" font-family="Helvetica,sans-Serif" font-size="12.00">PasswordDialog.cpp</text>
</a>
</g>
</g>
<!-- Node6&#45;&gt;Node14 -->
<g id="edge13" class="edge"><title>Node6&#45;&gt;Node14</title>
<path fill="none" stroke="midnightblue" d="M917.008,-55.4561C952.252,-45.1765 1001.37,-30.8494 1033.42,-21.5011"/>
<polygon fill="midnightblue" stroke="midnightblue" points="915.626,-52.2132 907.006,-58.3733 917.586,-58.9332 915.626,-52.2132"/>
</g>
<!-- Node15 -->
<g id="node15" class="node"><title>Node15</title>
<g id="a_node15"><a xlink:href="../../d5/d27/_setup_8cpp.html" target="_top" xlink:title="Setup.cpp">
<polygon fill="white" stroke="black" points="1147,-0.5 1147,-21.5 1217,-21.5 1217,-0.5 1147,-0.5"/>
<text text-anchor="middle" x="1182" y="-7.9" font-family="Helvetica,sans-Serif" font-size="12.00">Setup.cpp</text>
</a>
</g>
</g>
<!-- Node6&#45;&gt;Node15 -->
<g id="edge14" class="edge"><title>Node6&#45;&gt;Node15</title>
<path fill="none" stroke="midnightblue" d="M942.133,-57.1082C995.549,-48.3328 1071.68,-35.3043 1138,-22 1140.92,-21.4145 1143.94,-20.7824 1146.97,-20.1306"/>
<polygon fill="midnightblue" stroke="midnightblue" points="941.401,-53.6814 932.097,-58.7508 942.532,-60.5895 941.401,-53.6814"/>
</g>
<!-- Node17&#45;&gt;Node6 -->
<g id="edge18" class="edge"><title>Node17&#45;&gt;Node6</title>
<path fill="none" stroke="midnightblue" d="M912.377,-109.075C902.915,-99.4402 891.403,-87.7196 883.47,-79.6427"/>
<polygon fill="midnightblue" stroke="midnightblue" points="909.916,-111.564 919.42,-116.246 914.91,-106.659 909.916,-111.564"/>
</g>
<!-- Node17&#45;&gt;Node18 -->
<g id="edge19" class="edge"><title>Node17&#45;&gt;Node18</title>
<path fill="none" stroke="midnightblue" d="M950.148,-110.21C963.32,-100.374 979.84,-88.0394 991.086,-79.6427"/>
<polygon fill="midnightblue" stroke="midnightblue" points="947.983,-107.458 942.064,-116.246 952.171,-113.067 947.983,-107.458"/>
</g>
<!-- Node21&#45;&gt;Node3 -->
<g id="edge25" class="edge"><title>Node21&#45;&gt;Node3</title>
<path fill="none" stroke="midnightblue" d="M314.645,-289.9C593.162,-262.754 917.018,-248.913 1015.3,-245.103"/>
<polygon fill="midnightblue" stroke="midnightblue" points="313.95,-286.451 304.34,-290.912 314.635,-293.417 313.95,-286.451"/>
</g>
<!-- Node21&#45;&gt;Node22 -->
<g id="edge26" class="edge"><title>Node21&#45;&gt;Node22</title>
<path fill="none" stroke="midnightblue" d="M203.039,-286.923C174.887,-276.686 136.394,-262.689 111.128,-253.501"/>
<polygon fill="midnightblue" stroke="midnightblue" points="201.932,-290.245 212.526,-290.373 204.325,-283.666 201.932,-290.245"/>
</g>
<!-- Node23 -->
<g id="node23" class="node"><title>Node23</title>
<g id="a_node23"><a xlink:href="../../d4/d80/_j_s_o_n_stream_8cpp.html" target="_top" xlink:title="JSON/JSONStream.cpp">
<polygon fill="white" stroke="black" points="349.5,-232.5 349.5,-253.5 492.5,-253.5 492.5,-232.5 349.5,-232.5"/>
<text text-anchor="middle" x="421" y="-239.9" font-family="Helvetica,sans-Serif" font-size="12.00">JSON/JSONStream.cpp</text>
</a>
</g>
</g>
<!-- Node21&#45;&gt;Node23 -->
<g id="edge27" class="edge"><title>Node21&#45;&gt;Node23</title>
<path fill="none" stroke="midnightblue" d="M280.199,-287.324C313.576,-277.054 359.87,-262.809 390.121,-253.501"/>
<polygon fill="midnightblue" stroke="midnightblue" points="278.815,-284.087 270.287,-290.373 280.874,-290.778 278.815,-284.087"/>
</g>
<!-- Node24 -->
<g id="node24" class="node"><title>Node24</title>
<g id="a_node24"><a xlink:href="../../d1/d6f/_j_s_o_n_worker_8cpp.html" target="_top" xlink:title="JSON/JSONWorker.cpp">
<polygon fill="white" stroke="black" points="188.5,-232.5 188.5,-253.5 331.5,-253.5 331.5,-232.5 188.5,-232.5"/>
<text text-anchor="middle" x="260" y="-239.9" font-family="Helvetica,sans-Serif" font-size="12.00">JSON/JSONWorker.cpp</text>
</a>
</g>
</g>
<!-- Node21&#45;&gt;Node24 -->
<g id="edge28" class="edge"><title>Node21&#45;&gt;Node24</title>
<path fill="none" stroke="midnightblue" d="M246.219,-280.749C249.648,-271.606 253.595,-261.08 256.384,-253.643"/>
<polygon fill="midnightblue" stroke="midnightblue" points="242.892,-279.653 242.658,-290.246 249.446,-282.111 242.892,-279.653"/>
</g>
<!-- Node21&#45;&gt;Node25 -->
<g id="edge29" class="edge"><title>Node21&#45;&gt;Node25</title>
<path fill="none" stroke="midnightblue" d="M314.554,-289.828C440.297,-274.367 575.068,-259.673 654.39,-251.219"/>
<polygon fill="midnightblue" stroke="midnightblue" points="313.856,-286.388 304.36,-291.086 314.713,-293.335 313.856,-286.388"/>
</g>
<!-- Node26&#45;&gt;Node3 -->
<g id="edge31" class="edge"><title>Node26&#45;&gt;Node3</title>
<path fill="none" stroke="midnightblue" d="M1116.83,-285.046C1099.39,-275.082 1076.99,-262.279 1061.87,-253.643"/>
<polygon fill="midnightblue" stroke="midnightblue" points="1115.51,-288.323 1125.93,-290.246 1118.98,-282.245 1115.51,-288.323"/>
</g>
<!-- Node27 -->
<g id="node27" class="node"><title>Node27</title>
<g id="a_node27"><a xlink:href="../../d2/d18/_j_s_o_n_preparse_8cpp.html" target="_top" xlink:title="JSON/JSONPreparse.cpp">
<polygon fill="white" stroke="black" points="1093,-232.5 1093,-253.5 1247,-253.5 1247,-232.5 1093,-232.5"/>
<text text-anchor="middle" x="1170" y="-239.9" font-family="Helvetica,sans-Serif" font-size="12.00">JSON/JSONPreparse.cpp</text>
</a>
</g>
</g>
<!-- Node26&#45;&gt;Node27 -->
<g id="edge32" class="edge"><title>Node26&#45;&gt;Node27</title>
<path fill="none" stroke="midnightblue" d="M1152.14,-281.044C1156.58,-271.833 1161.73,-261.16 1165.35,-253.643"/>
<polygon fill="midnightblue" stroke="midnightblue" points="1148.89,-279.718 1147.7,-290.246 1155.2,-282.758 1148.89,-279.718"/>
</g>
</g>
</svg>
