<?xml version="1.0" encoding="UTF-8" standalone="no"?>
<!DOCTYPE svg PUBLIC "-//W3C//DTD SVG 1.1//EN"
 "http://www.w3.org/Graphics/SVG/1.1/DTD/svg11.dtd">
<!-- Generated by graphviz version 2.34.0 (20130907.0111)
 -->
<!-- Title: JSONStream::operator&lt;&lt; Pages: 1 -->
<svg width="280pt" height="48pt"
 viewBox="0.00 0.00 280.00 48.00" xmlns="http://www.w3.org/2000/svg" xmlns:xlink="http://www.w3.org/1999/xlink">
<g id="graph0" class="graph" transform="scale(1 1) rotate(0) translate(4 44)">
<title>JSONStream::operator&lt;&lt;</title>
<polygon fill="white" stroke="white" points="-4,4 -4,-44 276,-44 276,4 -4,4"/>
<!-- Node1 -->
<g id="node1" class="node"><title>Node1</title>
<polygon fill="#bfbfbf" stroke="black" points="0,-0.5 0,-21.5 150,-21.5 150,-0.5 0,-0.5"/>
<text text-anchor="middle" x="75" y="-7.9" font-family="Helvetica,sans-Serif" font-size="12.00">JSONStream::operator&lt;&lt;</text>
</g>
<!-- Node2 -->
<g id="node2" class="node"><title>Node2</title>
<g id="a_node2"><a xlink:href="../../d0/d9e/namespacelibjson.html#a75a584ccbb433f7555d6450e44d8dc9c" target="_top" xlink:title="libjson::parse">
<polygon fill="white" stroke="black" points="186,-0.5 186,-21.5 272,-21.5 272,-0.5 186,-0.5"/>
<text text-anchor="middle" x="229" y="-7.9" font-family="Helvetica,sans-Serif" font-size="12.00">libjson::parse</text>
</a>
</g>
</g>
<!-- Node1&#45;&gt;Node2 -->
<g id="edge1" class="edge"><title>Node1&#45;&gt;Node2</title>
<path fill="none" stroke="midnightblue" d="M150.219,-11C158.803,-11 167.417,-11 175.623,-11"/>
<polygon fill="midnightblue" stroke="midnightblue" points="175.767,-14.5001 185.767,-11 175.767,-7.5001 175.767,-14.5001"/>
</g>
<!-- Node2&#45;&gt;Node2 -->
<g id="edge2" class="edge"><title>Node2&#45;&gt;Node2</title>
<path fill="none" stroke="midnightblue" d="M204.531,-21.7079C194.074,-30.6531 202.23,-40 229,-40 246.149,-40 255.66,-36.164 257.531,-31.0551"/>
<polygon fill="midnightblue" stroke="midnightblue" points="260.665,-29.4843 253.469,-21.7079 254.245,-32.2743 260.665,-29.4843"/>
</g>
</g>
</svg>
