<?xml version="1.0" encoding="UTF-8" standalone="no"?>
<!DOCTYPE svg PUBLIC "-//W3C//DTD SVG 1.1//EN"
 "http://www.w3.org/Graphics/SVG/1.1/DTD/svg11.dtd">
<!-- Generated by graphviz version 2.34.0 (20130907.0111)
 -->
<!-- Title: JSONStream::parse Pages: 1 -->
<svg width="362pt" height="150pt"
 viewBox="0.00 0.00 362.00 150.00" xmlns="http://www.w3.org/2000/svg" xmlns:xlink="http://www.w3.org/1999/xlink">
<g id="graph0" class="graph" transform="scale(1 1) rotate(0) translate(4 146)">
<title>JSONStream::parse</title>
<polygon fill="white" stroke="white" points="-4,4 -4,-146 358,-146 358,4 -4,4"/>
<!-- Node1 -->
<g id="node1" class="node"><title>Node1</title>
<polygon fill="#bfbfbf" stroke="black" points="0,-60.5 0,-81.5 122,-81.5 122,-60.5 0,-60.5"/>
<text text-anchor="middle" x="61" y="-67.9" font-family="Helvetica,sans-Serif" font-size="12.00">JSONStream::parse</text>
</g>
<!-- Node2 -->
<g id="node2" class="node"><title>Node2</title>
<g id="a_node2"><a xlink:href="../../d7/dfd/class_j_s_o_n_stream.html#a0d6988d7ba074f37e1b72596b0793bd2" target="_top" xlink:title="JSONStream::getIdentifier">
<polygon fill="white" stroke="black" points="179.5,-120.5 179.5,-141.5 332.5,-141.5 332.5,-120.5 179.5,-120.5"/>
<text text-anchor="middle" x="256" y="-127.9" font-family="Helvetica,sans-Serif" font-size="12.00">JSONStream::getIdentifier</text>
</a>
</g>
</g>
<!-- Node1&#45;&gt;Node2 -->
<g id="edge1" class="edge"><title>Node1&#45;&gt;Node2</title>
<path fill="none" stroke="midnightblue" d="M84.0528,-81.6134C103.228,-90.4941 131.946,-102.967 158,-111 166.628,-113.66 175.797,-116.07 184.923,-118.221"/>
<polygon fill="midnightblue" stroke="midnightblue" points="184.254,-121.658 194.78,-120.453 185.8,-114.831 184.254,-121.658"/>
</g>
<!-- Node3 -->
<g id="node3" class="node"><title>Node3</title>
<g id="a_node3"><a xlink:href="../../d2/d52/class_j_s_o_n_validator.html#ac07990f0678973f419611f55bf236596" target="_top" xlink:title="JSONValidator::isValidPartialRoot">
<polygon fill="white" stroke="black" points="158,-80.5 158,-101.5 354,-101.5 354,-80.5 158,-80.5"/>
<text text-anchor="middle" x="256" y="-87.9" font-family="Helvetica,sans-Serif" font-size="12.00">JSONValidator::isValidPartialRoot</text>
</a>
</g>
</g>
<!-- Node1&#45;&gt;Node3 -->
<g id="edge2" class="edge"><title>Node1&#45;&gt;Node3</title>
<path fill="none" stroke="midnightblue" d="M122.008,-77.2185C130.289,-78.0766 138.991,-78.9783 147.813,-79.8925"/>
<polygon fill="midnightblue" stroke="midnightblue" points="147.501,-83.3789 157.809,-80.9284 148.223,-76.4162 147.501,-83.3789"/>
</g>
<!-- Node4 -->
<g id="node4" class="node"><title>Node4</title>
<g id="a_node4"><a xlink:href="../../d0/d9e/namespacelibjson.html#a75a584ccbb433f7555d6450e44d8dc9c" target="_top" xlink:title="libjson::parse">
<polygon fill="white" stroke="black" points="213,-40.5 213,-61.5 299,-61.5 299,-40.5 213,-40.5"/>
<text text-anchor="middle" x="256" y="-47.9" font-family="Helvetica,sans-Serif" font-size="12.00">libjson::parse</text>
</a>
</g>
</g>
<!-- Node1&#45;&gt;Node4 -->
<g id="edge3" class="edge"><title>Node1&#45;&gt;Node4</title>
<path fill="none" stroke="midnightblue" d="M122.008,-64.7815C147.878,-62.1007 177.852,-58.9946 202.787,-56.4106"/>
<polygon fill="midnightblue" stroke="midnightblue" points="203.197,-59.887 212.783,-55.3748 202.476,-52.9243 203.197,-59.887"/>
</g>
<!-- Node5 -->
<g id="node5" class="node"><title>Node5</title>
<g id="a_node5"><a xlink:href="../../d5/d31/classjson__auto.html#ada0214818c5f9522f649b7916eab2682" target="_top" xlink:title="json_auto::set">
<polygon fill="white" stroke="black" points="211.5,-0.5 211.5,-21.5 300.5,-21.5 300.5,-0.5 211.5,-0.5"/>
<text text-anchor="middle" x="256" y="-7.9" font-family="Helvetica,sans-Serif" font-size="12.00">json_auto::set</text>
</a>
</g>
</g>
<!-- Node1&#45;&gt;Node5 -->
<g id="edge4" class="edge"><title>Node1&#45;&gt;Node5</title>
<path fill="none" stroke="midnightblue" d="M84.0528,-60.3866C103.228,-51.5059 131.946,-39.0326 158,-31 171.751,-26.7604 186.877,-23.1554 201.011,-20.2231"/>
<polygon fill="midnightblue" stroke="midnightblue" points="201.973,-23.6001 211.092,-18.2074 200.6,-16.736 201.973,-23.6001"/>
</g>
</g>
</svg>
