<?xml version="1.0" encoding="UTF-8" standalone="no"?>
<!DOCTYPE svg PUBLIC "-//W3C//DTD SVG 1.1//EN"
 "http://www.w3.org/Graphics/SVG/1.1/DTD/svg11.dtd">
<!-- Generated by graphviz version 2.34.0 (20130907.0111)
 -->
<!-- Title: JSONStream::parse Pages: 1 -->
<svg width="362pt" height="168pt"
 viewBox="0.00 0.00 362.00 168.00" xmlns="http://www.w3.org/2000/svg" xmlns:xlink="http://www.w3.org/1999/xlink">
<g id="graph0" class="graph" transform="scale(1 1) rotate(0) translate(4 164)">
<title>JSONStream::parse</title>
<polygon fill="white" stroke="white" points="-4,4 -4,-164 358,-164 358,4 -4,4"/>
<!-- Node1 -->
<g id="node1" class="node"><title>Node1</title>
<polygon fill="#bfbfbf" stroke="black" points="0,-69.5 0,-90.5 122,-90.5 122,-69.5 0,-69.5"/>
<text text-anchor="middle" x="61" y="-76.9" font-family="Helvetica,sans-Serif" font-size="12.00">JSONStream::parse</text>
</g>
<!-- Node2 -->
<g id="node2" class="node"><title>Node2</title>
<g id="a_node2"><a xlink:href="../../d7/dfd/class_j_s_o_n_stream.html#a0d6988d7ba074f37e1b72596b0793bd2" target="_top" xlink:title="JSONStream::getIdentifier">
<polygon fill="white" stroke="black" points="179.5,-138.5 179.5,-159.5 332.5,-159.5 332.5,-138.5 179.5,-138.5"/>
<text text-anchor="middle" x="256" y="-145.9" font-family="Helvetica,sans-Serif" font-size="12.00">JSONStream::getIdentifier</text>
</a>
</g>
</g>
<!-- Node1&#45;&gt;Node2 -->
<g id="edge1" class="edge"><title>Node1&#45;&gt;Node2</title>
<path fill="none" stroke="midnightblue" d="M79.4091,-90.7013C98.171,-101.794 129.221,-118.896 158,-129 165.555,-131.652 173.571,-134.002 181.63,-136.07"/>
<polygon fill="midnightblue" stroke="midnightblue" points="180.91,-139.497 191.454,-138.456 182.562,-132.695 180.91,-139.497"/>
</g>
<!-- Node3 -->
<g id="node3" class="node"><title>Node3</title>
<g id="a_node3"><a xlink:href="../../d2/d52/class_j_s_o_n_validator.html#ac07990f0678973f419611f55bf236596" target="_top" xlink:title="JSONValidator::isValidPartialRoot">
<polygon fill="white" stroke="black" points="158,-98.5 158,-119.5 354,-119.5 354,-98.5 158,-98.5"/>
<text text-anchor="middle" x="256" y="-105.9" font-family="Helvetica,sans-Serif" font-size="12.00">JSONValidator::isValidPartialRoot</text>
</a>
</g>
</g>
<!-- Node1&#45;&gt;Node3 -->
<g id="edge2" class="edge"><title>Node1&#45;&gt;Node3</title>
<path fill="none" stroke="midnightblue" d="M122.008,-89.0168C138.659,-91.5187 157.009,-94.2759 174.621,-96.9224"/>
<polygon fill="midnightblue" stroke="midnightblue" points="174.478,-100.44 184.888,-98.465 175.519,-93.5178 174.478,-100.44"/>
</g>
<!-- Node4 -->
<g id="node4" class="node"><title>Node4</title>
<g id="a_node4"><a xlink:href="../../d0/d9e/namespacelibjson.html#a75a584ccbb433f7555d6450e44d8dc9c" target="_top" xlink:title="libjson::parse">
<polygon fill="white" stroke="black" points="213,-40.5 213,-61.5 299,-61.5 299,-40.5 213,-40.5"/>
<text text-anchor="middle" x="256" y="-47.9" font-family="Helvetica,sans-Serif" font-size="12.00">libjson::parse</text>
</a>
</g>
</g>
<!-- Node1&#45;&gt;Node4 -->
<g id="edge3" class="edge"><title>Node1&#45;&gt;Node4</title>
<path fill="none" stroke="midnightblue" d="M122.008,-70.9832C147.878,-67.096 177.852,-62.5922 202.787,-58.8454"/>
<polygon fill="midnightblue" stroke="midnightblue" points="203.414,-62.2906 212.783,-57.3434 202.374,-55.3683 203.414,-62.2906"/>
</g>
<!-- Node5 -->
<g id="node5" class="node"><title>Node5</title>
<g id="a_node5"><a xlink:href="../../d5/d31/classjson__auto.html#ada0214818c5f9522f649b7916eab2682" target="_top" xlink:title="json_auto::set">
<polygon fill="white" stroke="black" points="211.5,-0.5 211.5,-21.5 300.5,-21.5 300.5,-0.5 211.5,-0.5"/>
<text text-anchor="middle" x="256" y="-7.9" font-family="Helvetica,sans-Serif" font-size="12.00">json_auto::set</text>
</a>
</g>
</g>
<!-- Node1&#45;&gt;Node5 -->
<g id="edge5" class="edge"><title>Node1&#45;&gt;Node5</title>
<path fill="none" stroke="midnightblue" d="M79.4091,-69.2987C98.171,-58.2062 129.221,-41.1038 158,-31 171.708,-26.1874 186.933,-22.373 201.182,-19.422"/>
<polygon fill="midnightblue" stroke="midnightblue" points="202.211,-22.7868 211.349,-17.424 200.861,-15.9182 202.211,-22.7868"/>
</g>
<!-- Node4&#45;&gt;Node4 -->
<g id="edge4" class="edge"><title>Node4&#45;&gt;Node4</title>
<path fill="none" stroke="midnightblue" d="M225.175,-61.7079C212.002,-70.6531 222.277,-80 256,-80 278.657,-80 290.73,-75.7807 292.218,-70.2987"/>
<polygon fill="midnightblue" stroke="midnightblue" points="295.106,-68.3161 286.825,-61.7079 289.178,-72.0381 295.106,-68.3161"/>
</g>
</g>
</svg>
