<?xml version="1.0" encoding="UTF-8" standalone="no"?>
<!DOCTYPE svg PUBLIC "-//W3C//DTD SVG 1.1//EN"
 "http://www.w3.org/Graphics/SVG/1.1/DTD/svg11.dtd">
<!-- Generated by graphviz version 2.34.0 (20130907.0111)
 -->
<!-- Title: JSON/JSONNode.h Pages: 1 -->
<svg width="1757pt" height="378pt"
 viewBox="0.00 0.00 1757.00 378.00" xmlns="http://www.w3.org/2000/svg" xmlns:xlink="http://www.w3.org/1999/xlink">
<g id="graph0" class="graph" transform="scale(1 1) rotate(0) translate(4 374)">
<title>JSON/JSONNode.h</title>
<polygon fill="white" stroke="white" points="-4,4 -4,-374 1753,-374 1753,4 -4,4"/>
<!-- Node1 -->
<g id="node1" class="node"><title>Node1</title>
<polygon fill="#bfbfbf" stroke="black" points="1005,-348.5 1005,-369.5 1125,-369.5 1125,-348.5 1005,-348.5"/>
<text text-anchor="middle" x="1065" y="-355.9" font-family="Helvetica,sans-Serif" font-size="12.00">JSON/JSONNode.h</text>
</g>
<!-- Node2 -->
<g id="node2" class="node"><title>Node2</title>
<g id="a_node2"><a xlink:href="../../d1/d7d/libjson_8h.html" target="_top" xlink:title="libjson.h">
<polygon fill="white" stroke="black" points="624.5,-232.5 624.5,-253.5 683.5,-253.5 683.5,-232.5 624.5,-232.5"/>
<text text-anchor="middle" x="654" y="-239.9" font-family="Helvetica,sans-Serif" font-size="12.00">libjson.h</text>
</a>
</g>
</g>
<!-- Node1&#45;&gt;Node2 -->
<g id="edge1" class="edge"><title>Node1&#45;&gt;Node2</title>
<path fill="none" stroke="midnightblue" d="M1006.33,-346.432C965.134,-337.92 908.879,-325.516 860,-312 794.479,-293.882 718.943,-267.508 680.088,-253.527"/>
<polygon fill="midnightblue" stroke="midnightblue" points="1005.71,-349.876 1016.21,-348.456 1007.11,-343.019 1005.71,-349.876"/>
</g>
<!-- Node20 -->
<g id="node20" class="node"><title>Node20</title>
<g id="a_node20"><a xlink:href="../../d8/d46/_j_s_o_n_worker_8h.html" target="_top" xlink:title="JSON/JSONWorker.h">
<polygon fill="white" stroke="black" points="869,-290.5 869,-311.5 999,-311.5 999,-290.5 869,-290.5"/>
<text text-anchor="middle" x="934" y="-297.9" font-family="Helvetica,sans-Serif" font-size="12.00">JSON/JSONWorker.h</text>
</a>
</g>
</g>
<!-- Node1&#45;&gt;Node20 -->
<g id="edge23" class="edge"><title>Node1&#45;&gt;Node20</title>
<path fill="none" stroke="midnightblue" d="M1033.15,-344.383C1009.32,-334.199 977.343,-320.528 956.226,-311.501"/>
<polygon fill="midnightblue" stroke="midnightblue" points="1031.91,-347.661 1042.48,-348.373 1034.66,-341.224 1031.91,-347.661"/>
</g>
<!-- Node21 -->
<g id="node21" class="node"><title>Node21</title>
<g id="a_node21"><a xlink:href="../../dd/dde/internal_j_s_o_n_node_8cpp.html" target="_top" xlink:title="JSON/internalJSONNode.cpp">
<polygon fill="white" stroke="black" points="1023.5,-232.5 1023.5,-253.5 1194.5,-253.5 1194.5,-232.5 1023.5,-232.5"/>
<text text-anchor="middle" x="1109" y="-239.9" font-family="Helvetica,sans-Serif" font-size="12.00">JSON/internalJSONNode.cpp</text>
</a>
</g>
</g>
<!-- Node1&#45;&gt;Node21 -->
<g id="edge32" class="edge"><title>Node1&#45;&gt;Node21</title>
<path fill="none" stroke="midnightblue" d="M1054.87,-339.09C1048.77,-324.982 1043.49,-305.545 1051,-290 1058.88,-273.684 1075.68,-261.386 1089.18,-253.63"/>
<polygon fill="midnightblue" stroke="midnightblue" points="1051.81,-340.792 1059.29,-348.289 1058.12,-337.759 1051.81,-340.792"/>
</g>
<!-- Node24 -->
<g id="node24" class="node"><title>Node24</title>
<g id="a_node24"><a xlink:href="../../d8/d45/_j_s_o_n_writer_8cpp.html" target="_top" xlink:title="JSON/JSONWriter.cpp">
<polygon fill="white" stroke="black" points="1212.5,-232.5 1212.5,-253.5 1349.5,-253.5 1349.5,-232.5 1212.5,-232.5"/>
<text text-anchor="middle" x="1281" y="-239.9" font-family="Helvetica,sans-Serif" font-size="12.00">JSON/JSONWriter.cpp</text>
</a>
</g>
</g>
<!-- Node1&#45;&gt;Node24 -->
<g id="edge37" class="edge"><title>Node1&#45;&gt;Node24</title>
<path fill="none" stroke="midnightblue" d="M1065.66,-338.105C1067.25,-322.854 1071.91,-302.385 1085,-290 1103.35,-272.646 1163.43,-260.227 1212.28,-252.701"/>
<polygon fill="midnightblue" stroke="midnightblue" points="1062.17,-337.879 1064.97,-348.097 1069.15,-338.363 1062.17,-337.879"/>
</g>
<!-- Node25 -->
<g id="node25" class="node"><title>Node25</title>
<g id="a_node25"><a xlink:href="../../da/dde/_j_s_o_n_preparse_8h.html" target="_top" xlink:title="JSON/JSONPreparse.h">
<polygon fill="white" stroke="black" points="584,-290.5 584,-311.5 724,-311.5 724,-290.5 584,-290.5"/>
<text text-anchor="middle" x="654" y="-297.9" font-family="Helvetica,sans-Serif" font-size="12.00">JSON/JSONPreparse.h</text>
</a>
</g>
</g>
<!-- Node1&#45;&gt;Node25 -->
<g id="edge29" class="edge"><title>Node1&#45;&gt;Node25</title>
<path fill="none" stroke="midnightblue" d="M994.886,-348.447C919.267,-338.143 799.582,-321.836 724.005,-311.538"/>
<polygon fill="midnightblue" stroke="midnightblue" points="994.416,-351.915 1004.8,-349.797 995.361,-344.979 994.416,-351.915"/>
</g>
<!-- Node27 -->
<g id="node27" class="node"><title>Node27</title>
<g id="a_node27"><a xlink:href="../../dc/d59/_j_s_o_n_children_8cpp.html" target="_top" xlink:title="JSON/JSONChildren.cpp">
<polygon fill="white" stroke="black" points="1093.5,-290.5 1093.5,-311.5 1242.5,-311.5 1242.5,-290.5 1093.5,-290.5"/>
<text text-anchor="middle" x="1168" y="-297.9" font-family="Helvetica,sans-Serif" font-size="12.00">JSON/JSONChildren.cpp</text>
</a>
</g>
</g>
<!-- Node1&#45;&gt;Node27 -->
<g id="edge33" class="edge"><title>Node1&#45;&gt;Node27</title>
<path fill="none" stroke="midnightblue" d="M1091.74,-343.46C1110.18,-333.439 1134.16,-320.399 1150.26,-311.643"/>
<polygon fill="midnightblue" stroke="midnightblue" points="1090.05,-340.394 1082.94,-348.246 1093.4,-346.544 1090.05,-340.394"/>
</g>
<!-- Node28 -->
<g id="node28" class="node"><title>Node28</title>
<g id="a_node28"><a xlink:href="../../d8/de5/_j_s_o_n_iterators_8cpp.html" target="_top" xlink:title="JSON/JSONIterators.cpp">
<polygon fill="white" stroke="black" points="1260.5,-290.5 1260.5,-311.5 1407.5,-311.5 1407.5,-290.5 1260.5,-290.5"/>
<text text-anchor="middle" x="1334" y="-297.9" font-family="Helvetica,sans-Serif" font-size="12.00">JSON/JSONIterators.cpp</text>
</a>
</g>
</g>
<!-- Node1&#45;&gt;Node28 -->
<g id="edge34" class="edge"><title>Node1&#45;&gt;Node28</title>
<path fill="none" stroke="midnightblue" d="M1120.86,-346.372C1170.44,-336.05 1241.99,-321.154 1288.25,-311.524"/>
<polygon fill="midnightblue" stroke="midnightblue" points="1120.01,-342.972 1110.94,-348.437 1121.44,-349.825 1120.01,-342.972"/>
</g>
<!-- Node29 -->
<g id="node29" class="node"><title>Node29</title>
<g id="a_node29"><a xlink:href="../../d1/df2/_j_s_o_n_node_8cpp.html" target="_top" xlink:title="JSON/JSONNode.cpp">
<polygon fill="white" stroke="black" points="1426,-290.5 1426,-311.5 1560,-311.5 1560,-290.5 1426,-290.5"/>
<text text-anchor="middle" x="1493" y="-297.9" font-family="Helvetica,sans-Serif" font-size="12.00">JSON/JSONNode.cpp</text>
</a>
</g>
</g>
<!-- Node1&#45;&gt;Node29 -->
<g id="edge35" class="edge"><title>Node1&#45;&gt;Node29</title>
<path fill="none" stroke="midnightblue" d="M1135.46,-348.781C1215.96,-338.248 1346.75,-321.136 1425.85,-310.787"/>
<polygon fill="midnightblue" stroke="midnightblue" points="1134.88,-345.327 1125.41,-350.095 1135.78,-352.268 1134.88,-345.327"/>
</g>
<!-- Node30 -->
<g id="node30" class="node"><title>Node30</title>
<g id="a_node30"><a xlink:href="../../d7/d9f/_j_s_o_n_node___mutex_8cpp.html" target="_top" xlink:title="JSON/JSONNode_Mutex.cpp">
<polygon fill="white" stroke="black" points="1578.5,-290.5 1578.5,-311.5 1749.5,-311.5 1749.5,-290.5 1578.5,-290.5"/>
<text text-anchor="middle" x="1664" y="-297.9" font-family="Helvetica,sans-Serif" font-size="12.00">JSON/JSONNode_Mutex.cpp</text>
</a>
</g>
</g>
<!-- Node1&#45;&gt;Node30 -->
<g id="edge36" class="edge"><title>Node1&#45;&gt;Node30</title>
<path fill="none" stroke="midnightblue" d="M1135.17,-351.905C1232.57,-343.374 1414.24,-327.207 1569,-312 1572.05,-311.7 1575.16,-311.391 1578.3,-311.076"/>
<polygon fill="midnightblue" stroke="midnightblue" points="1134.81,-348.423 1125.15,-352.781 1135.42,-355.396 1134.81,-348.423"/>
</g>
<!-- Node3 -->
<g id="node3" class="node"><title>Node3</title>
<g id="a_node3"><a xlink:href="../../d9/da7/_image_test_8h.html" target="_top" xlink:title="ImageTest.h">
<polygon fill="white" stroke="black" points="423,-174.5 423,-195.5 503,-195.5 503,-174.5 423,-174.5"/>
<text text-anchor="middle" x="463" y="-181.9" font-family="Helvetica,sans-Serif" font-size="12.00">ImageTest.h</text>
</a>
</g>
</g>
<!-- Node2&#45;&gt;Node3 -->
<g id="edge2" class="edge"><title>Node2&#45;&gt;Node3</title>
<path fill="none" stroke="midnightblue" d="M614.221,-230.337C579.031,-220.02 528.318,-205.151 495.509,-195.531"/>
<polygon fill="midnightblue" stroke="midnightblue" points="613.575,-233.795 624.156,-233.25 615.545,-227.078 613.575,-233.795"/>
</g>
<!-- Node17 -->
<g id="node17" class="node"><title>Node17</title>
<g id="a_node17"><a xlink:href="../../dc/d7a/_s_f_rplus_test_8cpp.html" target="_top" xlink:title="SFRplusTest.cpp">
<polygon fill="white" stroke="black" points="559.5,-58.5 559.5,-79.5 666.5,-79.5 666.5,-58.5 559.5,-58.5"/>
<text text-anchor="middle" x="613" y="-65.9" font-family="Helvetica,sans-Serif" font-size="12.00">SFRplusTest.cpp</text>
</a>
</g>
</g>
<!-- Node2&#45;&gt;Node17 -->
<g id="edge22" class="edge"><title>Node2&#45;&gt;Node17</title>
<path fill="none" stroke="midnightblue" d="M643.587,-223.465C639.395,-215.272 634.882,-205.386 632,-196 619.079,-153.915 614.765,-101.122 613.485,-79.6989"/>
<polygon fill="midnightblue" stroke="midnightblue" points="640.602,-225.305 648.407,-232.47 646.773,-222.002 640.602,-225.305"/>
</g>
<!-- Node18 -->
<g id="node18" class="node"><title>Node18</title>
<g id="a_node18"><a xlink:href="../../df/d2a/libjson_8cpp.html" target="_top" xlink:title="JSON/libjson.cpp">
<polygon fill="white" stroke="black" points="641.5,-174.5 641.5,-195.5 748.5,-195.5 748.5,-174.5 641.5,-174.5"/>
<text text-anchor="middle" x="695" y="-181.9" font-family="Helvetica,sans-Serif" font-size="12.00">JSON/libjson.cpp</text>
</a>
</g>
</g>
<!-- Node2&#45;&gt;Node18 -->
<g id="edge20" class="edge"><title>Node2&#45;&gt;Node18</title>
<path fill="none" stroke="midnightblue" d="M667.236,-223.921C674.121,-214.518 682.261,-203.4 687.94,-195.643"/>
<polygon fill="midnightblue" stroke="midnightblue" points="664.225,-222.109 661.142,-232.246 669.873,-226.244 664.225,-222.109"/>
</g>
<!-- Node19 -->
<g id="node19" class="node"><title>Node19</title>
<g id="a_node19"><a xlink:href="../../d7/d4a/jsonhelpers_8cpp.html" target="_top" xlink:title="jsonhelpers.cpp">
<polygon fill="white" stroke="black" points="767,-174.5 767,-195.5 865,-195.5 865,-174.5 767,-174.5"/>
<text text-anchor="middle" x="816" y="-181.9" font-family="Helvetica,sans-Serif" font-size="12.00">jsonhelpers.cpp</text>
</a>
</g>
</g>
<!-- Node2&#45;&gt;Node19 -->
<g id="edge21" class="edge"><title>Node2&#45;&gt;Node19</title>
<path fill="none" stroke="midnightblue" d="M691.442,-229.057C721.09,-218.808 761.82,-204.729 788.515,-195.501"/>
<polygon fill="midnightblue" stroke="midnightblue" points="690.157,-225.798 681.849,-232.373 692.444,-232.414 690.157,-225.798"/>
</g>
<!-- Node4 -->
<g id="node4" class="node"><title>Node4</title>
<g id="a_node4"><a xlink:href="../../dc/d69/_blemish_test_8h.html" target="_top" xlink:title="BlemishTest.h">
<polygon fill="white" stroke="black" points="345,-116.5 345,-137.5 435,-137.5 435,-116.5 345,-116.5"/>
<text text-anchor="middle" x="390" y="-123.9" font-family="Helvetica,sans-Serif" font-size="12.00">BlemishTest.h</text>
</a>
</g>
</g>
<!-- Node3&#45;&gt;Node4 -->
<g id="edge3" class="edge"><title>Node3&#45;&gt;Node4</title>
<path fill="none" stroke="midnightblue" d="M442.049,-167.928C429.289,-158.14 413.411,-145.959 402.57,-137.643"/>
<polygon fill="midnightblue" stroke="midnightblue" points="440.22,-170.936 450.284,-174.246 444.48,-165.382 440.22,-170.936"/>
</g>
<!-- Node5 -->
<g id="node5" class="node"><title>Node5</title>
<g id="a_node5"><a xlink:href="../../da/de6/_operator_console_8h.html" target="_top" xlink:title="OperatorConsole.h">
<polygon fill="white" stroke="black" points="425,-58.5 425,-79.5 541,-79.5 541,-58.5 425,-58.5"/>
<text text-anchor="middle" x="483" y="-65.9" font-family="Helvetica,sans-Serif" font-size="12.00">OperatorConsole.h</text>
</a>
</g>
</g>
<!-- Node3&#45;&gt;Node5 -->
<g id="edge15" class="edge"><title>Node3&#45;&gt;Node5</title>
<path fill="none" stroke="midnightblue" d="M466.465,-164.252C470.792,-139.584 478.026,-98.3525 481.299,-79.695"/>
<polygon fill="midnightblue" stroke="midnightblue" points="462.986,-163.826 464.705,-174.28 469.881,-165.036 462.986,-163.826"/>
</g>
<!-- Node8 -->
<g id="node8" class="node"><title>Node8</title>
<g id="a_node8"><a xlink:href="../../d8/d53/_image_test_8cpp.html" target="_top" xlink:title="ImageTest.cpp">
<polygon fill="white" stroke="black" points="0,-0.5 0,-21.5 94,-21.5 94,-0.5 0,-0.5"/>
<text text-anchor="middle" x="47" y="-7.9" font-family="Helvetica,sans-Serif" font-size="12.00">ImageTest.cpp</text>
</a>
</g>
</g>
<!-- Node3&#45;&gt;Node8 -->
<g id="edge19" class="edge"><title>Node3&#45;&gt;Node8</title>
<path fill="none" stroke="midnightblue" d="M425.44,-171.101C400.035,-162.204 365.808,-149.882 336,-138 234.312,-97.4643 115.12,-43.3613 67.8393,-21.631"/>
<polygon fill="midnightblue" stroke="midnightblue" points="424.466,-174.468 435.061,-174.454 426.77,-167.858 424.466,-174.468"/>
</g>
<!-- Node16 -->
<g id="node16" class="node"><title>Node16</title>
<g id="a_node16"><a xlink:href="../../d2/d9d/_s_f_rplus_test_8h.html" target="_top" xlink:title="SFRplusTest.h">
<polygon fill="white" stroke="black" points="491.5,-116.5 491.5,-137.5 584.5,-137.5 584.5,-116.5 491.5,-116.5"/>
<text text-anchor="middle" x="538" y="-123.9" font-family="Helvetica,sans-Serif" font-size="12.00">SFRplusTest.h</text>
</a>
</g>
</g>
<!-- Node3&#45;&gt;Node16 -->
<g id="edge16" class="edge"><title>Node3&#45;&gt;Node16</title>
<path fill="none" stroke="midnightblue" d="M484.148,-168.21C497.32,-158.374 513.84,-146.039 525.086,-137.643"/>
<polygon fill="midnightblue" stroke="midnightblue" points="481.983,-165.458 476.064,-174.246 486.171,-171.067 481.983,-165.458"/>
</g>
<!-- Node4&#45;&gt;Node5 -->
<g id="edge4" class="edge"><title>Node4&#45;&gt;Node5</title>
<path fill="none" stroke="midnightblue" d="M414.834,-111.046C431.381,-101.082 452.643,-88.2794 466.986,-79.6427"/>
<polygon fill="midnightblue" stroke="midnightblue" points="412.961,-108.089 406.199,-116.246 416.572,-114.085 412.961,-108.089"/>
</g>
<!-- Node15 -->
<g id="node15" class="node"><title>Node15</title>
<g id="a_node15"><a xlink:href="../../dd/d8a/_blemish_test_8cpp.html" target="_top" xlink:title="BlemishTest.cpp">
<polygon fill="white" stroke="black" points="303,-58.5 303,-79.5 407,-79.5 407,-58.5 303,-58.5"/>
<text text-anchor="middle" x="355" y="-65.9" font-family="Helvetica,sans-Serif" font-size="12.00">BlemishTest.cpp</text>
</a>
</g>
</g>
<!-- Node4&#45;&gt;Node15 -->
<g id="edge14" class="edge"><title>Node4&#45;&gt;Node15</title>
<path fill="none" stroke="midnightblue" d="M378.518,-107.63C372.68,-98.2887 365.825,-87.3197 361.027,-79.6427"/>
<polygon fill="midnightblue" stroke="midnightblue" points="375.635,-109.621 383.903,-116.246 381.571,-105.911 375.635,-109.621"/>
</g>
<!-- Node6 -->
<g id="node6" class="node"><title>Node6</title>
<g id="a_node6"><a xlink:href="../../d3/d22/_app_thread_8cpp.html" target="_top" xlink:title="AppThread.cpp">
<polygon fill="white" stroke="black" points="844,-0.5 844,-21.5 942,-21.5 942,-0.5 844,-0.5"/>
<text text-anchor="middle" x="893" y="-7.9" font-family="Helvetica,sans-Serif" font-size="12.00">AppThread.cpp</text>
</a>
</g>
</g>
<!-- Node5&#45;&gt;Node6 -->
<g id="edge5" class="edge"><title>Node5&#45;&gt;Node6</title>
<path fill="none" stroke="midnightblue" d="M551.209,-57.8614C678.177,-40.5771 711.932,-40.3724 835,-22 837.931,-21.5625 840.942,-21.0958 843.977,-20.6121"/>
<polygon fill="midnightblue" stroke="midnightblue" points="550.525,-54.4223 541.093,-59.2477 551.476,-61.3575 550.525,-54.4223"/>
</g>
<!-- Node7 -->
<g id="node7" class="node"><title>Node7</title>
<g id="a_node7"><a xlink:href="../../d6/df7/_critical_buf_8cpp.html" target="_top" xlink:title="CriticalBuf.cpp">
<polygon fill="white" stroke="black" points="960.5,-0.5 960.5,-21.5 1053.5,-21.5 1053.5,-0.5 960.5,-0.5"/>
<text text-anchor="middle" x="1007" y="-7.9" font-family="Helvetica,sans-Serif" font-size="12.00">CriticalBuf.cpp</text>
</a>
</g>
</g>
<!-- Node5&#45;&gt;Node7 -->
<g id="edge6" class="edge"><title>Node5&#45;&gt;Node7</title>
<path fill="none" stroke="midnightblue" d="M551.054,-57.9387C729.381,-37.0968 776.848,-45.3214 951,-22 954.034,-21.5936 957.155,-21.1391 960.297,-20.6539"/>
<polygon fill="midnightblue" stroke="midnightblue" points="550.596,-54.4684 541.077,-59.119 551.419,-61.4199 550.596,-54.4684"/>
</g>
<!-- Node5&#45;&gt;Node8 -->
<g id="edge7" class="edge"><title>Node5&#45;&gt;Node8</title>
<path fill="none" stroke="midnightblue" d="M414.707,-57.8697C275.451,-39.7739 238.299,-41.8415 103,-22 100.069,-21.5701 97.0551,-21.1036 94.0192,-20.6151"/>
<polygon fill="midnightblue" stroke="midnightblue" points="414.542,-61.378 424.912,-59.208 415.452,-54.4374 414.542,-61.378"/>
</g>
<!-- Node9 -->
<g id="node9" class="node"><title>Node9</title>
<g id="a_node9"><a xlink:href="../../df/d0a/main_8cpp.html" target="_top" xlink:title="main.cpp">
<polygon fill="white" stroke="black" points="112.5,-0.5 112.5,-21.5 177.5,-21.5 177.5,-0.5 112.5,-0.5"/>
<text text-anchor="middle" x="145" y="-7.9" font-family="Helvetica,sans-Serif" font-size="12.00">main.cpp</text>
</a>
</g>
</g>
<!-- Node5&#45;&gt;Node9 -->
<g id="edge8" class="edge"><title>Node5&#45;&gt;Node9</title>
<path fill="none" stroke="midnightblue" d="M414.68,-57.7341C334.009,-45.5625 207.961,-26.3705 186,-22 183.269,-21.4566 180.446,-20.8541 177.618,-20.2222"/>
<polygon fill="midnightblue" stroke="midnightblue" points="414.361,-61.2254 424.771,-59.2556 415.404,-54.3036 414.361,-61.2254"/>
</g>
<!-- Node10 -->
<g id="node10" class="node"><title>Node10</title>
<g id="a_node10"><a xlink:href="../../de/da2/_operator_console_8cpp.html" target="_top" xlink:title="OperatorConsole.cpp">
<polygon fill="white" stroke="black" points="195.5,-0.5 195.5,-21.5 324.5,-21.5 324.5,-0.5 195.5,-0.5"/>
<text text-anchor="middle" x="260" y="-7.9" font-family="Helvetica,sans-Serif" font-size="12.00">OperatorConsole.cpp</text>
</a>
</g>
</g>
<!-- Node5&#45;&gt;Node10 -->
<g id="edge9" class="edge"><title>Node5&#45;&gt;Node10</title>
<path fill="none" stroke="midnightblue" d="M435.143,-55.982C394.111,-45.6781 335.792,-31.0331 297.925,-21.5237"/>
<polygon fill="midnightblue" stroke="midnightblue" points="434.367,-59.3958 444.918,-58.4369 436.072,-52.6066 434.367,-59.3958"/>
</g>
<!-- Node11 -->
<g id="node11" class="node"><title>Node11</title>
<g id="a_node11"><a xlink:href="../../d8/d29/_operator_console_dlg_8cpp.html" target="_top" xlink:title="OperatorConsoleDlg.cpp">
<polygon fill="white" stroke="black" points="342.5,-0.5 342.5,-21.5 489.5,-21.5 489.5,-0.5 342.5,-0.5"/>
<text text-anchor="middle" x="416" y="-7.9" font-family="Helvetica,sans-Serif" font-size="12.00">OperatorConsoleDlg.cpp</text>
</a>
</g>
</g>
<!-- Node5&#45;&gt;Node11 -->
<g id="edge10" class="edge"><title>Node5&#45;&gt;Node11</title>
<path fill="none" stroke="midnightblue" d="M463.432,-51.645C451.78,-41.9058 437.392,-29.8795 427.537,-21.6427"/>
<polygon fill="midnightblue" stroke="midnightblue" points="461.412,-54.5179 471.329,-58.2455 465.901,-49.1469 461.412,-54.5179"/>
</g>
<!-- Node12 -->
<g id="node12" class="node"><title>Node12</title>
<g id="a_node12"><a xlink:href="../../d0/d57/_pass_fail_8cpp.html" target="_top" xlink:title="PassFail.cpp">
<polygon fill="white" stroke="black" points="508,-0.5 508,-21.5 594,-21.5 594,-0.5 508,-0.5"/>
<text text-anchor="middle" x="551" y="-7.9" font-family="Helvetica,sans-Serif" font-size="12.00">PassFail.cpp</text>
</a>
</g>
</g>
<!-- Node5&#45;&gt;Node12 -->
<g id="edge11" class="edge"><title>Node5&#45;&gt;Node12</title>
<path fill="none" stroke="midnightblue" d="M502.86,-51.645C514.686,-41.9058 529.289,-29.8795 539.291,-21.6427"/>
<polygon fill="midnightblue" stroke="midnightblue" points="500.339,-49.1867 494.845,-58.2455 504.789,-54.5902 500.339,-49.1867"/>
</g>
<!-- Node13 -->
<g id="node13" class="node"><title>Node13</title>
<g id="a_node13"><a xlink:href="../../da/d46/_password_dialog_8cpp.html" target="_top" xlink:title="PasswordDialog.cpp">
<polygon fill="white" stroke="black" points="612,-0.5 612,-21.5 738,-21.5 738,-0.5 612,-0.5"/>
<text text-anchor="middle" x="675" y="-7.9" font-family="Helvetica,sans-Serif" font-size="12.00">PasswordDialog.cpp</text>
</a>
</g>
</g>
<!-- Node5&#45;&gt;Node13 -->
<g id="edge12" class="edge"><title>Node5&#45;&gt;Node13</title>
<path fill="none" stroke="midnightblue" d="M526.008,-55.4561C561.252,-45.1765 610.374,-30.8494 642.425,-21.5011"/>
<polygon fill="midnightblue" stroke="midnightblue" points="524.626,-52.2132 516.006,-58.3733 526.586,-58.9332 524.626,-52.2132"/>
</g>
<!-- Node14 -->
<g id="node14" class="node"><title>Node14</title>
<g id="a_node14"><a xlink:href="../../d5/d27/_setup_8cpp.html" target="_top" xlink:title="Setup.cpp">
<polygon fill="white" stroke="black" points="756,-0.5 756,-21.5 826,-21.5 826,-0.5 756,-0.5"/>
<text text-anchor="middle" x="791" y="-7.9" font-family="Helvetica,sans-Serif" font-size="12.00">Setup.cpp</text>
</a>
</g>
</g>
<!-- Node5&#45;&gt;Node14 -->
<g id="edge13" class="edge"><title>Node5&#45;&gt;Node14</title>
<path fill="none" stroke="midnightblue" d="M551.133,-57.1082C604.549,-48.3328 680.685,-35.3043 747,-22 749.919,-21.4145 752.94,-20.7824 755.97,-20.1306"/>
<polygon fill="midnightblue" stroke="midnightblue" points="550.401,-53.6814 541.097,-58.7508 551.532,-60.5895 550.401,-53.6814"/>
</g>
<!-- Node16&#45;&gt;Node5 -->
<g id="edge17" class="edge"><title>Node16&#45;&gt;Node5</title>
<path fill="none" stroke="midnightblue" d="M521.377,-109.075C511.915,-99.4402 500.403,-87.7196 492.47,-79.6427"/>
<polygon fill="midnightblue" stroke="midnightblue" points="518.916,-111.564 528.42,-116.246 523.91,-106.659 518.916,-111.564"/>
</g>
<!-- Node16&#45;&gt;Node17 -->
<g id="edge18" class="edge"><title>Node16&#45;&gt;Node17</title>
<path fill="none" stroke="midnightblue" d="M559.148,-110.21C572.32,-100.374 588.84,-88.0394 600.086,-79.6427"/>
<polygon fill="midnightblue" stroke="midnightblue" points="556.983,-107.458 551.064,-116.246 561.171,-113.067 556.983,-107.458"/>
</g>
<!-- Node20&#45;&gt;Node2 -->
<g id="edge24" class="edge"><title>Node20&#45;&gt;Node2</title>
<path fill="none" stroke="midnightblue" d="M867.912,-288.716C819.12,-280.076 751.191,-267.397 692,-254 689.339,-253.398 686.581,-252.739 683.823,-252.057"/>
<polygon fill="midnightblue" stroke="midnightblue" points="867.568,-292.21 878.023,-290.498 868.782,-285.316 867.568,-292.21"/>
</g>
<!-- Node20&#45;&gt;Node21 -->
<g id="edge25" class="edge"><title>Node20&#45;&gt;Node21</title>
<path fill="none" stroke="midnightblue" d="M973.614,-287.324C1005.71,-277.054 1050.22,-262.809 1079.31,-253.501"/>
<polygon fill="midnightblue" stroke="midnightblue" points="972.541,-283.992 964.084,-290.373 974.675,-290.659 972.541,-283.992"/>
</g>
<!-- Node22 -->
<g id="node22" class="node"><title>Node22</title>
<g id="a_node22"><a xlink:href="../../d4/d80/_j_s_o_n_stream_8cpp.html" target="_top" xlink:title="JSON/JSONStream.cpp">
<polygon fill="white" stroke="black" points="701.5,-232.5 701.5,-253.5 844.5,-253.5 844.5,-232.5 701.5,-232.5"/>
<text text-anchor="middle" x="773" y="-239.9" font-family="Helvetica,sans-Serif" font-size="12.00">JSON/JSONStream.cpp</text>
</a>
</g>
</g>
<!-- Node20&#45;&gt;Node22 -->
<g id="edge26" class="edge"><title>Node20&#45;&gt;Node22</title>
<path fill="none" stroke="midnightblue" d="M896.789,-287.057C867.324,-276.808 826.846,-262.729 800.316,-253.501"/>
<polygon fill="midnightblue" stroke="midnightblue" points="895.728,-290.394 906.323,-290.373 898.028,-283.782 895.728,-290.394"/>
</g>
<!-- Node23 -->
<g id="node23" class="node"><title>Node23</title>
<g id="a_node23"><a xlink:href="../../d1/d6f/_j_s_o_n_worker_8cpp.html" target="_top" xlink:title="JSON/JSONWorker.cpp">
<polygon fill="white" stroke="black" points="862.5,-232.5 862.5,-253.5 1005.5,-253.5 1005.5,-232.5 862.5,-232.5"/>
<text text-anchor="middle" x="934" y="-239.9" font-family="Helvetica,sans-Serif" font-size="12.00">JSON/JSONWorker.cpp</text>
</a>
</g>
</g>
<!-- Node20&#45;&gt;Node23 -->
<g id="edge27" class="edge"><title>Node20&#45;&gt;Node23</title>
<path fill="none" stroke="midnightblue" d="M934,-280.158C934,-271.155 934,-260.92 934,-253.643"/>
<polygon fill="midnightblue" stroke="midnightblue" points="930.5,-280.246 934,-290.246 937.5,-280.246 930.5,-280.246"/>
</g>
<!-- Node20&#45;&gt;Node24 -->
<g id="edge28" class="edge"><title>Node20&#45;&gt;Node24</title>
<path fill="none" stroke="midnightblue" d="M1003.27,-288.822C1067.3,-278.487 1161.44,-263.294 1221.99,-253.524"/>
<polygon fill="midnightblue" stroke="midnightblue" points="1002.57,-285.388 993.257,-290.437 1003.69,-292.299 1002.57,-285.388"/>
</g>
<!-- Node25&#45;&gt;Node2 -->
<g id="edge30" class="edge"><title>Node25&#45;&gt;Node2</title>
<path fill="none" stroke="midnightblue" d="M654,-280.158C654,-271.155 654,-260.92 654,-253.643"/>
<polygon fill="midnightblue" stroke="midnightblue" points="650.5,-280.246 654,-290.246 657.5,-280.246 650.5,-280.246"/>
</g>
<!-- Node26 -->
<g id="node26" class="node"><title>Node26</title>
<g id="a_node26"><a xlink:href="../../d2/d18/_j_s_o_n_preparse_8cpp.html" target="_top" xlink:title="JSON/JSONPreparse.cpp">
<polygon fill="white" stroke="black" points="452,-232.5 452,-253.5 606,-253.5 606,-232.5 452,-232.5"/>
<text text-anchor="middle" x="529" y="-239.9" font-family="Helvetica,sans-Serif" font-size="12.00">JSON/JSONPreparse.cpp</text>
</a>
</g>
</g>
<!-- Node25&#45;&gt;Node26 -->
<g id="edge31" class="edge"><title>Node25&#45;&gt;Node26</title>
<path fill="none" stroke="midnightblue" d="M623.302,-286.247C600.601,-276.077 570.268,-262.488 550.208,-253.501"/>
<polygon fill="midnightblue" stroke="midnightblue" points="621.955,-289.479 632.512,-290.373 624.817,-283.091 621.955,-289.479"/>
</g>
</g>
</svg>
