<?xml version="1.0" encoding="UTF-8" standalone="no"?>
<!DOCTYPE svg PUBLIC "-//W3C//DTD SVG 1.1//EN"
 "http://www.w3.org/Graphics/SVG/1.1/DTD/svg11.dtd">
<!-- Generated by graphviz version 2.34.0 (20130907.0111)
 -->
<!-- Title: Documentation/Operator&#45;Console/JSON/JSONNode.h Pages: 1 -->
<svg width="837pt" height="450pt"
 viewBox="0.00 0.00 837.00 450.00" xmlns="http://www.w3.org/2000/svg" xmlns:xlink="http://www.w3.org/1999/xlink">
<g id="graph0" class="graph" transform="scale(1 1) rotate(0) translate(4 446)">
<title>Documentation/Operator&#45;Console/JSON/JSONNode.h</title>
<polygon fill="white" stroke="white" points="-4,4 -4,-446 833,-446 833,4 -4,4"/>
<!-- Node1 -->
<g id="node1" class="node"><title>Node1</title>
<polygon fill="#bfbfbf" stroke="black" points="562,-407 562,-441 732,-441 732,-407 562,-407"/>
<text text-anchor="start" x="570" y="-427.4" font-family="Helvetica,sans-Serif" font-size="12.00">Documentation/Operator</text>
<text text-anchor="middle" x="647" y="-414.4" font-family="Helvetica,sans-Serif" font-size="12.00">&#45;Console/JSON/JSONNode.h</text>
</g>
<!-- Node2 -->
<g id="node2" class="node"><title>Node2</title>
<g id="a_node2"><a xlink:href="../../d5/d0f/_documentation_2_operator-_console_2_j_s_o_n_2_j_s_o_n_debug_8h.html" target="_top" xlink:title="JSONDebug.h">
<polygon fill="white" stroke="black" points="405,-174.5 405,-195.5 497,-195.5 497,-174.5 405,-174.5"/>
<text text-anchor="middle" x="451" y="-181.9" font-family="Helvetica,sans-Serif" font-size="12.00">JSONDebug.h</text>
</a>
</g>
</g>
<!-- Node1&#45;&gt;Node2 -->
<g id="edge1" class="edge"><title>Node1&#45;&gt;Node2</title>
<path fill="none" stroke="midnightblue" d="M642.873,-406.856C635.491,-380.324 618.026,-326.78 589,-290 557.841,-250.517 508.306,-218.143 477.828,-200.502"/>
<polygon fill="midnightblue" stroke="midnightblue" points="479.448,-197.397 469.023,-195.508 475.995,-203.486 479.448,-197.397"/>
</g>
<!-- Node10 -->
<g id="node10" class="node"><title>Node10</title>
<g id="a_node10"><a xlink:href="../../dc/db1/_documentation_2_operator-_console_2_j_s_o_n_2internal_j_s_o_n_node_8h.html" target="_top" xlink:title="internalJSONNode.h">
<polygon fill="white" stroke="black" points="429.5,-348.5 429.5,-369.5 552.5,-369.5 552.5,-348.5 429.5,-348.5"/>
<text text-anchor="middle" x="491" y="-355.9" font-family="Helvetica,sans-Serif" font-size="12.00">internalJSONNode.h</text>
</a>
</g>
</g>
<!-- Node1&#45;&gt;Node10 -->
<g id="edge10" class="edge"><title>Node1&#45;&gt;Node10</title>
<path fill="none" stroke="midnightblue" d="M607.231,-406.939C581.525,-396.558 548.458,-383.204 524.171,-373.396"/>
<polygon fill="midnightblue" stroke="midnightblue" points="525.258,-370.06 514.674,-369.561 522.636,-376.551 525.258,-370.06"/>
</g>
<!-- Node18 -->
<g id="node18" class="node"><title>Node18</title>
<polygon fill="white" stroke="#bfbfbf" points="675.5,-348.5 675.5,-369.5 742.5,-369.5 742.5,-348.5 675.5,-348.5"/>
<text text-anchor="middle" x="709" y="-355.9" font-family="Helvetica,sans-Serif" font-size="12.00">stdexcept</text>
</g>
<!-- Node1&#45;&gt;Node18 -->
<g id="edge26" class="edge"><title>Node1&#45;&gt;Node18</title>
<path fill="none" stroke="midnightblue" d="M662.967,-406.776C672.048,-397.548 683.402,-386.011 692.561,-376.704"/>
<polygon fill="midnightblue" stroke="midnightblue" points="695.121,-379.093 699.64,-369.511 690.131,-374.183 695.121,-379.093"/>
</g>
<!-- Node19 -->
<g id="node19" class="node"><title>Node19</title>
<polygon fill="white" stroke="#bfbfbf" points="761,-348.5 761,-369.5 817,-369.5 817,-348.5 761,-348.5"/>
<text text-anchor="middle" x="789" y="-355.9" font-family="Helvetica,sans-Serif" font-size="12.00">cstdarg</text>
</g>
<!-- Node1&#45;&gt;Node19 -->
<g id="edge27" class="edge"><title>Node1&#45;&gt;Node19</title>
<path fill="none" stroke="midnightblue" d="M683.2,-406.939C706.391,-396.65 736.163,-383.442 758.214,-373.658"/>
<polygon fill="midnightblue" stroke="midnightblue" points="759.729,-376.816 767.45,-369.561 756.89,-370.417 759.729,-376.816"/>
</g>
<!-- Node20 -->
<g id="node20" class="node"><title>Node20</title>
<g id="a_node20"><a xlink:href="../../d0/d70/_documentation_2_operator-_console_2_j_s_o_n_2_j_s_o_n___base64_8h.html" target="_top" xlink:title="JSON_Base64.h">
<polygon fill="white" stroke="black" points="164.5,-232.5 164.5,-253.5 269.5,-253.5 269.5,-232.5 164.5,-232.5"/>
<text text-anchor="middle" x="217" y="-239.9" font-family="Helvetica,sans-Serif" font-size="12.00">JSON_Base64.h</text>
</a>
</g>
</g>
<!-- Node1&#45;&gt;Node20 -->
<g id="edge28" class="edge"><title>Node1&#45;&gt;Node20</title>
<path fill="none" stroke="midnightblue" d="M561.763,-412.58C482.862,-399.571 365.224,-371.331 280,-312 259.905,-298.011 241.444,-276.632 229.772,-261.588"/>
<polygon fill="midnightblue" stroke="midnightblue" points="232.538,-259.443 223.723,-253.566 226.949,-263.658 232.538,-259.443"/>
</g>
<!-- Node3 -->
<g id="node3" class="node"><title>Node3</title>
<g id="a_node3"><a xlink:href="../../da/dbf/_documentation_2_operator-_console_2_j_s_o_n_2_j_s_o_n_defs_8h.html" target="_top" xlink:title="JSONDefs.h">
<polygon fill="white" stroke="black" points="295,-116.5 295,-137.5 377,-137.5 377,-116.5 295,-116.5"/>
<text text-anchor="middle" x="336" y="-123.9" font-family="Helvetica,sans-Serif" font-size="12.00">JSONDefs.h</text>
</a>
</g>
</g>
<!-- Node2&#45;&gt;Node3 -->
<g id="edge2" class="edge"><title>Node2&#45;&gt;Node3</title>
<path fill="none" stroke="midnightblue" d="M431.231,-174.373C412.853,-165.424 385.269,-151.992 364.511,-141.883"/>
<polygon fill="midnightblue" stroke="midnightblue" points="366.034,-138.733 355.511,-137.501 362.97,-145.026 366.034,-138.733"/>
</g>
<!-- Node4 -->
<g id="node4" class="node"><title>Node4</title>
<g id="a_node4"><a xlink:href="../../de/d2a/_documentation_2_operator-_console_2_j_s_o_n_options_8h.html" target="_top" xlink:title="..\\JSONOptions.h">
<polygon fill="white" stroke="black" points="472.5,-0.5 472.5,-21.5 579.5,-21.5 579.5,-0.5 472.5,-0.5"/>
<text text-anchor="middle" x="526" y="-7.9" font-family="Helvetica,sans-Serif" font-size="12.00">..\JSONOptions.h</text>
</a>
</g>
</g>
<!-- Node3&#45;&gt;Node4 -->
<g id="edge3" class="edge"><title>Node3&#45;&gt;Node4</title>
<path fill="none" stroke="midnightblue" d="M334.38,-116.284C332.542,-101.698 331.464,-74.1352 346,-58 361.605,-40.6781 416.987,-28.2506 462.245,-20.7136"/>
<polygon fill="midnightblue" stroke="midnightblue" points="463.004,-24.1365 472.318,-19.0874 461.888,-17.2259 463.004,-24.1365"/>
</g>
<!-- Node5 -->
<g id="node5" class="node"><title>Node5</title>
<g id="a_node5"><a xlink:href="../../d3/d83/_documentation_2_operator-_console_2_j_s_o_n_2_j_s_o_n_defs_2_unknown___c_8h.html" target="_top" xlink:title="JSONDefs\\Unknown_C.h">
<polygon fill="white" stroke="black" points="151,-58.5 151,-79.5 299,-79.5 299,-58.5 151,-58.5"/>
<text text-anchor="middle" x="225" y="-65.9" font-family="Helvetica,sans-Serif" font-size="12.00">JSONDefs\Unknown_C.h</text>
</a>
</g>
</g>
<!-- Node3&#45;&gt;Node5 -->
<g id="edge4" class="edge"><title>Node3&#45;&gt;Node5</title>
<path fill="none" stroke="midnightblue" d="M316.918,-116.373C299.26,-107.464 272.795,-94.1127 252.79,-84.0203"/>
<polygon fill="midnightblue" stroke="midnightblue" points="254.337,-80.8806 243.833,-79.5011 251.184,-87.1303 254.337,-80.8806"/>
</g>
<!-- Node6 -->
<g id="node6" class="node"><title>Node6</title>
<g id="a_node6"><a xlink:href="../../da/d53/_documentation_2_operator-_console_2_j_s_o_n_2_j_s_o_n_defs_2_g_n_u___c_8h.html" target="_top" xlink:title="JSONDefs\\GNU_C.h">
<polygon fill="white" stroke="black" points="355,-58.5 355,-79.5 481,-79.5 481,-58.5 355,-58.5"/>
<text text-anchor="middle" x="418" y="-65.9" font-family="Helvetica,sans-Serif" font-size="12.00">JSONDefs\GNU_C.h</text>
</a>
</g>
</g>
<!-- Node3&#45;&gt;Node6 -->
<g id="edge5" class="edge"><title>Node3&#45;&gt;Node6</title>
<path fill="none" stroke="midnightblue" d="M350.283,-116.246C362.747,-107.734 381.045,-95.2375 395.479,-85.3801"/>
<polygon fill="midnightblue" stroke="midnightblue" points="397.596,-88.1726 403.88,-79.6427 393.648,-82.392 397.596,-88.1726"/>
</g>
<!-- Node7 -->
<g id="node7" class="node"><title>Node7</title>
<g id="a_node7"><a xlink:href="../../de/d63/_documentation_2_operator-_console_2_j_s_o_n_2_j_s_o_n_defs_2_visual___c_8h.html" target="_top" xlink:title="JSONDefs\\Visual_C.h">
<polygon fill="white" stroke="black" points="-0.5,-58.5 -0.5,-79.5 132.5,-79.5 132.5,-58.5 -0.5,-58.5"/>
<text text-anchor="middle" x="66" y="-65.9" font-family="Helvetica,sans-Serif" font-size="12.00">JSONDefs\Visual_C.h</text>
</a>
</g>
</g>
<!-- Node3&#45;&gt;Node7 -->
<g id="edge6" class="edge"><title>Node3&#45;&gt;Node7</title>
<path fill="none" stroke="midnightblue" d="M294.993,-117.495C248.8,-107.914 173.459,-92.2879 121.9,-81.5941"/>
<polygon fill="midnightblue" stroke="midnightblue" points="122.424,-78.1283 111.921,-79.5244 121.002,-84.9824 122.424,-78.1283"/>
</g>
<!-- Node8 -->
<g id="node8" class="node"><title>Node8</title>
<g id="a_node8"><a xlink:href="../../d0/d89/_documentation_2_operator-_console_2_j_s_o_n_2_j_s_o_n_defs_2_strings___defs_8h.html" target="_top" xlink:title="JSONDefs\\Strings_Defs.h">
<polygon fill="white" stroke="black" points="499.5,-58.5 499.5,-79.5 652.5,-79.5 652.5,-58.5 499.5,-58.5"/>
<text text-anchor="middle" x="576" y="-65.9" font-family="Helvetica,sans-Serif" font-size="12.00">JSONDefs\Strings_Defs.h</text>
</a>
</g>
</g>
<!-- Node3&#45;&gt;Node8 -->
<g id="edge7" class="edge"><title>Node3&#45;&gt;Node8</title>
<path fill="none" stroke="midnightblue" d="M376.985,-116.437C417.973,-106.873 481.1,-92.1432 525.236,-81.845"/>
<polygon fill="midnightblue" stroke="midnightblue" points="526.241,-85.2045 535.184,-79.5237 524.651,-78.3876 526.241,-85.2045"/>
</g>
<!-- Node8&#45;&gt;Node4 -->
<g id="edge8" class="edge"><title>Node8&#45;&gt;Node4</title>
<path fill="none" stroke="midnightblue" d="M567.291,-58.2455C560.193,-50.2958 549.992,-38.8706 541.505,-29.3656"/>
<polygon fill="midnightblue" stroke="midnightblue" points="543.881,-26.771 534.61,-21.6427 538.659,-31.4331 543.881,-26.771"/>
</g>
<!-- Node9 -->
<g id="node9" class="node"><title>Node9</title>
<polygon fill="white" stroke="#bfbfbf" points="598,-0.5 598,-21.5 652,-21.5 652,-0.5 598,-0.5"/>
<text text-anchor="middle" x="625" y="-7.9" font-family="Helvetica,sans-Serif" font-size="12.00">string.h</text>
</g>
<!-- Node8&#45;&gt;Node9 -->
<g id="edge9" class="edge"><title>Node8&#45;&gt;Node9</title>
<path fill="none" stroke="midnightblue" d="M584.535,-58.2455C591.491,-50.2958 601.488,-38.8706 609.805,-29.3656"/>
<polygon fill="midnightblue" stroke="midnightblue" points="612.612,-31.4732 616.563,-21.6427 607.344,-26.8637 612.612,-31.4732"/>
</g>
<!-- Node10&#45;&gt;Node2 -->
<g id="edge11" class="edge"><title>Node10&#45;&gt;Node2</title>
<path fill="none" stroke="midnightblue" d="M485.677,-348.436C480.847,-339.337 473.903,-325.127 470,-312 459.121,-275.406 454.275,-230.892 452.272,-205.765"/>
<polygon fill="midnightblue" stroke="midnightblue" points="455.755,-205.402 451.541,-195.682 448.774,-205.909 455.755,-205.402"/>
</g>
<!-- Node11 -->
<g id="node11" class="node"><title>Node11</title>
<g id="a_node11"><a xlink:href="../../dc/df5/_documentation_2_operator-_console_2_j_s_o_n_2_j_s_o_n_children_8h.html" target="_top" xlink:title="JSONChildren.h">
<polygon fill="white" stroke="black" points="479.5,-290.5 479.5,-311.5 580.5,-311.5 580.5,-290.5 479.5,-290.5"/>
<text text-anchor="middle" x="530" y="-297.9" font-family="Helvetica,sans-Serif" font-size="12.00">JSONChildren.h</text>
</a>
</g>
</g>
<!-- Node10&#45;&gt;Node11 -->
<g id="edge12" class="edge"><title>Node10&#45;&gt;Node11</title>
<path fill="none" stroke="midnightblue" d="M497.793,-348.246C503.218,-340.456 510.966,-329.331 517.503,-319.944"/>
<polygon fill="midnightblue" stroke="midnightblue" points="520.442,-321.849 523.285,-311.643 514.697,-317.849 520.442,-321.849"/>
</g>
<!-- Node12 -->
<g id="node12" class="node"><title>Node12</title>
<g id="a_node12"><a xlink:href="../../d1/da6/_documentation_2_operator-_console_2_j_s_o_n_2_j_s_o_n_memory_8h.html" target="_top" xlink:title="JSONMemory.h">
<polygon fill="white" stroke="black" points="675.5,-232.5 675.5,-253.5 774.5,-253.5 774.5,-232.5 675.5,-232.5"/>
<text text-anchor="middle" x="725" y="-239.9" font-family="Helvetica,sans-Serif" font-size="12.00">JSONMemory.h</text>
</a>
</g>
</g>
<!-- Node10&#45;&gt;Node12 -->
<g id="edge19" class="edge"><title>Node10&#45;&gt;Node12</title>
<path fill="none" stroke="midnightblue" d="M511.719,-348.456C531.603,-339.254 562.446,-324.868 589,-312 626.613,-293.773 669.723,-272.081 697.142,-258.182"/>
<polygon fill="midnightblue" stroke="midnightblue" points="698.819,-261.256 706.152,-253.609 695.651,-255.014 698.819,-261.256"/>
</g>
<!-- Node15 -->
<g id="node15" class="node"><title>Node15</title>
<g id="a_node15"><a xlink:href="../../d4/dac/_documentation_2_operator-_console_2_j_s_o_n_2_j_s_o_n_globals_8h.html" target="_top" xlink:title="JSONGlobals.h">
<polygon fill="white" stroke="black" points="287.5,-232.5 287.5,-253.5 384.5,-253.5 384.5,-232.5 287.5,-232.5"/>
<text text-anchor="middle" x="336" y="-239.9" font-family="Helvetica,sans-Serif" font-size="12.00">JSONGlobals.h</text>
</a>
</g>
</g>
<!-- Node10&#45;&gt;Node15 -->
<g id="edge20" class="edge"><title>Node10&#45;&gt;Node15</title>
<path fill="none" stroke="midnightblue" d="M429.301,-352.388C376.21,-346.13 305.478,-333.882 288,-312 274.157,-294.67 294.17,-273.675 312.416,-259.641"/>
<polygon fill="midnightblue" stroke="midnightblue" points="314.524,-262.436 320.548,-253.721 310.403,-256.777 314.524,-262.436"/>
</g>
<!-- Node17 -->
<g id="node17" class="node"><title>Node17</title>
<g id="a_node17"><a xlink:href="../../d9/daa/_documentation_2_operator-_console_2_j_s_o_n_2_j_s_o_n_shared_string_8h.html" target="_top" xlink:title="JSONSharedString.h">
<polygon fill="white" stroke="black" points="297,-290.5 297,-311.5 423,-311.5 423,-290.5 297,-290.5"/>
<text text-anchor="middle" x="360" y="-297.9" font-family="Helvetica,sans-Serif" font-size="12.00">JSONSharedString.h</text>
</a>
</g>
</g>
<!-- Node10&#45;&gt;Node17 -->
<g id="edge23" class="edge"><title>Node10&#45;&gt;Node17</title>
<path fill="none" stroke="midnightblue" d="M468.48,-348.373C447.263,-339.303 415.272,-325.628 391.523,-315.476"/>
<polygon fill="midnightblue" stroke="midnightblue" points="392.797,-312.214 382.226,-311.501 390.045,-318.65 392.797,-312.214"/>
</g>
<!-- Node11&#45;&gt;Node2 -->
<g id="edge18" class="edge"><title>Node11&#45;&gt;Node2</title>
<path fill="none" stroke="midnightblue" d="M523.265,-290.28C510.03,-271.182 480.452,-228.5 463.526,-204.075"/>
<polygon fill="midnightblue" stroke="midnightblue" points="466.291,-201.921 457.718,-195.695 460.538,-205.908 466.291,-201.921"/>
</g>
<!-- Node11&#45;&gt;Node12 -->
<g id="edge13" class="edge"><title>Node11&#45;&gt;Node12</title>
<path fill="none" stroke="midnightblue" d="M563.522,-290.373C596.368,-280.94 646.56,-266.526 682.258,-256.275"/>
<polygon fill="midnightblue" stroke="midnightblue" points="683.27,-259.625 691.916,-253.501 681.338,-252.897 683.27,-259.625"/>
</g>
<!-- Node12&#45;&gt;Node2 -->
<g id="edge17" class="edge"><title>Node12&#45;&gt;Node2</title>
<path fill="none" stroke="midnightblue" d="M678.209,-232.437C630.878,-222.763 557.686,-207.804 507.23,-197.492"/>
<polygon fill="midnightblue" stroke="midnightblue" points="507.639,-194.004 497.141,-195.43 506.238,-200.862 507.639,-194.004"/>
</g>
<!-- Node12&#45;&gt;Node4 -->
<g id="edge16" class="edge"><title>Node12&#45;&gt;Node4</title>
<path fill="none" stroke="midnightblue" d="M719.27,-232.397C713.999,-223.27 706.232,-209.042 701,-196 677.225,-136.733 705.097,-104.187 661,-58 649.068,-45.5029 610.023,-32.9604 576.974,-24.1361"/>
<polygon fill="midnightblue" stroke="midnightblue" points="577.506,-20.6578 566.946,-21.521 575.739,-27.4313 577.506,-20.6578"/>
</g>
<!-- Node13 -->
<g id="node13" class="node"><title>Node13</title>
<polygon fill="white" stroke="#bfbfbf" points="779,-174.5 779,-195.5 829,-195.5 829,-174.5 779,-174.5"/>
<text text-anchor="middle" x="804" y="-181.9" font-family="Helvetica,sans-Serif" font-size="12.00">cstdlib</text>
</g>
<!-- Node12&#45;&gt;Node13 -->
<g id="edge14" class="edge"><title>Node12&#45;&gt;Node13</title>
<path fill="none" stroke="midnightblue" d="M738.761,-232.246C750.655,-223.814 768.065,-211.473 781.909,-201.66"/>
<polygon fill="midnightblue" stroke="midnightblue" points="784.263,-204.281 790.397,-195.643 780.215,-198.57 784.263,-204.281"/>
</g>
<!-- Node14 -->
<g id="node14" class="node"><title>Node14</title>
<polygon fill="white" stroke="#bfbfbf" points="709.5,-174.5 709.5,-195.5 760.5,-195.5 760.5,-174.5 709.5,-174.5"/>
<text text-anchor="middle" x="735" y="-181.9" font-family="Helvetica,sans-Serif" font-size="12.00">cstring</text>
</g>
<!-- Node12&#45;&gt;Node14 -->
<g id="edge15" class="edge"><title>Node12&#45;&gt;Node14</title>
<path fill="none" stroke="midnightblue" d="M726.742,-232.246C728.047,-224.938 729.876,-214.694 731.481,-205.705"/>
<polygon fill="midnightblue" stroke="midnightblue" points="734.966,-206.102 733.278,-195.643 728.075,-204.872 734.966,-206.102"/>
</g>
<!-- Node15&#45;&gt;Node3 -->
<g id="edge21" class="edge"><title>Node15&#45;&gt;Node3</title>
<path fill="none" stroke="midnightblue" d="M336,-232.28C336,-213.603 336,-172.369 336,-147.715"/>
<polygon fill="midnightblue" stroke="midnightblue" points="339.5,-147.695 336,-137.695 332.5,-147.695 339.5,-147.695"/>
</g>
<!-- Node16 -->
<g id="node16" class="node"><title>Node16</title>
<polygon fill="white" stroke="#bfbfbf" points="228.5,-174.5 228.5,-195.5 273.5,-195.5 273.5,-174.5 228.5,-174.5"/>
<text text-anchor="middle" x="251" y="-181.9" font-family="Helvetica,sans-Serif" font-size="12.00">string</text>
</g>
<!-- Node15&#45;&gt;Node16 -->
<g id="edge22" class="edge"><title>Node15&#45;&gt;Node16</title>
<path fill="none" stroke="midnightblue" d="M321.194,-232.246C308.274,-223.734 289.307,-211.237 274.345,-201.38"/>
<polygon fill="midnightblue" stroke="midnightblue" points="275.912,-198.222 265.636,-195.643 272.061,-204.067 275.912,-198.222"/>
</g>
<!-- Node17&#45;&gt;Node2 -->
<g id="edge24" class="edge"><title>Node17&#45;&gt;Node2</title>
<path fill="none" stroke="midnightblue" d="M367.759,-290.28C383.071,-271.098 417.375,-228.124 436.828,-203.753"/>
<polygon fill="midnightblue" stroke="midnightblue" points="439.758,-205.694 443.261,-195.695 434.287,-201.327 439.758,-205.694"/>
</g>
<!-- Node17&#45;&gt;Node15 -->
<g id="edge25" class="edge"><title>Node17&#45;&gt;Node15</title>
<path fill="none" stroke="midnightblue" d="M355.82,-290.246C352.619,-282.778 348.104,-272.243 344.192,-263.114"/>
<polygon fill="midnightblue" stroke="midnightblue" points="347.289,-261.455 340.133,-253.643 340.855,-264.213 347.289,-261.455"/>
</g>
<!-- Node20&#45;&gt;Node2 -->
<g id="edge29" class="edge"><title>Node20&#45;&gt;Node2</title>
<path fill="none" stroke="midnightblue" d="M256.96,-232.437C296.839,-222.893 358.214,-208.205 401.233,-197.91"/>
<polygon fill="midnightblue" stroke="midnightblue" points="402.294,-201.255 411.205,-195.524 400.665,-194.447 402.294,-201.255"/>
</g>
<!-- Node20&#45;&gt;Node16 -->
<g id="edge30" class="edge"><title>Node20&#45;&gt;Node16</title>
<path fill="none" stroke="midnightblue" d="M222.922,-232.246C227.603,-224.537 234.267,-213.56 239.929,-204.235"/>
<polygon fill="midnightblue" stroke="midnightblue" points="242.947,-206.007 245.146,-195.643 236.964,-202.374 242.947,-206.007"/>
</g>
</g>
</svg>
