<?xml version="1.0" encoding="UTF-8" standalone="no"?>
<!DOCTYPE svg PUBLIC "-//W3C//DTD SVG 1.1//EN"
 "http://www.w3.org/Graphics/SVG/1.1/DTD/svg11.dtd">
<!-- Generated by graphviz version 2.34.0 (20130907.0111)
 -->
<!-- Title: StaticBmp.cpp Pages: 1 -->
<svg width="102pt" height="146pt"
 viewBox="0.00 0.00 102.00 146.00" xmlns="http://www.w3.org/2000/svg" xmlns:xlink="http://www.w3.org/1999/xlink">
<g id="graph0" class="graph" transform="scale(1 1) rotate(0) translate(4 142)">
<title>StaticBmp.cpp</title>
<polygon fill="white" stroke="white" points="-4,4 -4,-142 98,-142 98,4 -4,4"/>
<!-- Node1 -->
<g id="node1" class="node"><title>Node1</title>
<polygon fill="#bfbfbf" stroke="black" points="0,-116.5 0,-137.5 94,-137.5 94,-116.5 0,-116.5"/>
<text text-anchor="middle" x="47" y="-123.9" font-family="Helvetica,sans-Serif" font-size="12.00">StaticBmp.cpp</text>
</g>
<!-- Node2 -->
<g id="node2" class="node"><title>Node2</title>
<g id="a_node2"><a xlink:href="../../d8/d13/_static_bmp_8h.html" target="_top" xlink:title="StaticBmp.h">
<polygon fill="white" stroke="black" points="7,-58.5 7,-79.5 87,-79.5 87,-58.5 7,-58.5"/>
<text text-anchor="middle" x="47" y="-65.9" font-family="Helvetica,sans-Serif" font-size="12.00">StaticBmp.h</text>
</a>
</g>
</g>
<!-- Node1&#45;&gt;Node2 -->
<g id="edge1" class="edge"><title>Node1&#45;&gt;Node2</title>
<path fill="none" stroke="midnightblue" d="M47,-116.246C47,-108.938 47,-98.6944 47,-89.7046"/>
<polygon fill="midnightblue" stroke="midnightblue" points="50.5001,-89.6426 47,-79.6427 43.5001,-89.6427 50.5001,-89.6426"/>
</g>
<!-- Node3 -->
<g id="node3" class="node"><title>Node3</title>
<polygon fill="white" stroke="#bfbfbf" points="18,-0.5 18,-21.5 76,-21.5 76,-0.5 18,-0.5"/>
<text text-anchor="middle" x="47" y="-7.9" font-family="Helvetica,sans-Serif" font-size="12.00">afxwin.h</text>
</g>
<!-- Node2&#45;&gt;Node3 -->
<g id="edge2" class="edge"><title>Node2&#45;&gt;Node3</title>
<path fill="none" stroke="midnightblue" d="M47,-58.2455C47,-50.9382 47,-40.6944 47,-31.7046"/>
<polygon fill="midnightblue" stroke="midnightblue" points="50.5001,-31.6426 47,-21.6427 43.5001,-31.6427 50.5001,-31.6426"/>
</g>
</g>
</svg>
