<?xml version="1.0" encoding="UTF-8" standalone="no"?>
<!DOCTYPE svg PUBLIC "-//W3C//DTD SVG 1.1//EN"
 "http://www.w3.org/Graphics/SVG/1.1/DTD/svg11.dtd">
<!-- Generated by graphviz version 2.34.0 (20130907.0111)
 -->
<!-- Title: clearString Pages: 1 -->
<svg width="916pt" height="220pt"
 viewBox="0.00 0.00 916.00 219.84" xmlns="http://www.w3.org/2000/svg" xmlns:xlink="http://www.w3.org/1999/xlink">
<g id="graph0" class="graph" transform="scale(1 1) rotate(0) translate(4 215.837)">
<title>clearString</title>
<polygon fill="white" stroke="white" points="-4,4 -4,-215.837 912,-215.837 912,4 -4,4"/>
<!-- Node1 -->
<g id="node1" class="node"><title>Node1</title>
<polygon fill="#bfbfbf" stroke="black" points="0.5,-90.3371 0.5,-111.337 73.5,-111.337 73.5,-90.3371 0.5,-90.3371"/>
<text text-anchor="middle" x="37" y="-97.7371" font-family="Helvetica,sans-Serif" font-size="12.00">clearString</text>
</g>
<!-- Node2 -->
<g id="node2" class="node"><title>Node2</title>
<g id="a_node2"><a xlink:href="../../d1/d0b/classinternal_j_s_o_n_node.html#ae282376b19b205d594c1c4e685c0cbde" target="_top" xlink:title="internalJSONNode::clearname">
<polygon fill="white" stroke="black" points="118.5,-168.337 118.5,-189.337 293.5,-189.337 293.5,-168.337 118.5,-168.337"/>
<text text-anchor="middle" x="206" y="-175.737" font-family="Helvetica,sans-Serif" font-size="12.00">internalJSONNode::clearname</text>
</a>
</g>
</g>
<!-- Node1&#45;&gt;Node2 -->
<g id="edge1" class="edge"><title>Node1&#45;&gt;Node2</title>
<path fill="none" stroke="midnightblue" d="M57.6318,-118.483C71.412,-130.032 90.7495,-144.634 110,-153.837 122.617,-159.869 136.898,-164.601 150.483,-168.248"/>
<polygon fill="midnightblue" stroke="midnightblue" points="59.6836,-115.631 49.8204,-111.763 55.1182,-120.938 59.6836,-115.631"/>
</g>
<!-- Node3 -->
<g id="node3" class="node"><title>Node3</title>
<g id="a_node3"><a xlink:href="../../d1/d0b/classinternal_j_s_o_n_node.html#a59d6db90025af648ee5f556e15242e00" target="_top" xlink:title="internalJSONNode::FetchArray">
<polygon fill="white" stroke="black" points="339.5,-189.337 339.5,-210.337 516.5,-210.337 516.5,-189.337 339.5,-189.337"/>
<text text-anchor="middle" x="428" y="-196.737" font-family="Helvetica,sans-Serif" font-size="12.00">internalJSONNode::FetchArray</text>
</a>
</g>
</g>
<!-- Node1&#45;&gt;Node3 -->
<g id="edge2" class="edge"><title>Node1&#45;&gt;Node3</title>
<path fill="none" stroke="midnightblue" d="M83.4573,-114.024C92.234,-116.411 101.379,-118.79 110,-120.837 194.635,-140.937 220.641,-128.052 302,-158.837 319.325,-165.392 320.761,-173.06 338,-179.837 347.433,-183.545 357.712,-186.649 367.824,-189.22"/>
<polygon fill="midnightblue" stroke="midnightblue" points="84.3235,-110.633 73.7525,-111.343 82.459,-117.38 84.3235,-110.633"/>
</g>
<!-- Node10 -->
<g id="node10" class="node"><title>Node10</title>
<g id="a_node10"><a xlink:href="../../d1/d0b/classinternal_j_s_o_n_node.html#a69dde8286881b07590238abf1d91a245" target="_top" xlink:title="internalJSONNode::FetchNode">
<polygon fill="white" stroke="black" points="339,-31.3371 339,-52.3371 517,-52.3371 517,-31.3371 339,-31.3371"/>
<text text-anchor="middle" x="428" y="-38.7371" font-family="Helvetica,sans-Serif" font-size="12.00">internalJSONNode::FetchNode</text>
</a>
</g>
</g>
<!-- Node1&#45;&gt;Node10 -->
<g id="edge9" class="edge"><title>Node1&#45;&gt;Node10</title>
<path fill="none" stroke="midnightblue" d="M81.6505,-87.5949C90.9466,-85.0896 100.75,-82.6803 110,-80.8371 186.677,-65.5588 275.054,-55.2795 338.983,-49.1273"/>
<polygon fill="midnightblue" stroke="midnightblue" points="80.5103,-84.279 71.8125,-90.3288 82.3845,-91.0235 80.5103,-84.279"/>
</g>
<!-- Node11 -->
<g id="node11" class="node"><title>Node11</title>
<g id="a_node11"><a xlink:href="../../d1/d0b/classinternal_j_s_o_n_node.html#aec946311873984a1b810ecb7a4e3d480" target="_top" xlink:title="internalJSONNode::FetchNumber">
<polygon fill="white" stroke="black" points="110.5,-12.3371 110.5,-33.3371 301.5,-33.3371 301.5,-12.3371 110.5,-12.3371"/>
<text text-anchor="middle" x="206" y="-19.7371" font-family="Helvetica,sans-Serif" font-size="12.00">internalJSONNode::FetchNumber</text>
</a>
</g>
</g>
<!-- Node1&#45;&gt;Node11 -->
<g id="edge11" class="edge"><title>Node1&#45;&gt;Node11</title>
<path fill="none" stroke="midnightblue" d="M57.6318,-83.191C71.412,-71.642 90.7495,-57.0399 110,-47.8371 122.617,-41.8054 136.898,-37.0728 150.483,-33.4258"/>
<polygon fill="midnightblue" stroke="midnightblue" points="55.1182,-80.7365 49.8204,-89.9117 59.6836,-86.0428 55.1182,-80.7365"/>
</g>
<!-- Node12 -->
<g id="node12" class="node"><title>Node12</title>
<g id="a_node12"><a xlink:href="../../d1/d0b/classinternal_j_s_o_n_node.html#a9a3f9f79800b6141150dde72a55c0060" target="_top" xlink:title="internalJSONNode::Nullify">
<polygon fill="white" stroke="black" points="131,-90.3371 131,-111.337 281,-111.337 281,-90.3371 131,-90.3371"/>
<text text-anchor="middle" x="206" y="-97.7371" font-family="Helvetica,sans-Serif" font-size="12.00">internalJSONNode::Nullify</text>
</a>
</g>
</g>
<!-- Node1&#45;&gt;Node12 -->
<g id="edge13" class="edge"><title>Node1&#45;&gt;Node12</title>
<path fill="none" stroke="midnightblue" d="M83.9998,-100.837C98.4795,-100.837 114.858,-100.837 130.781,-100.837"/>
<polygon fill="midnightblue" stroke="midnightblue" points="83.8257,-97.3372 73.8257,-100.837 83.8257,-104.337 83.8257,-97.3372"/>
</g>
<!-- Node4 -->
<g id="node4" class="node"><title>Node4</title>
<g id="a_node4"><a xlink:href="../../d1/d0b/classinternal_j_s_o_n_node.html#a2dba04775883475a7624257a82d1cac9" target="_top" xlink:title="internalJSONNode::Fetch">
<polygon fill="white" stroke="black" points="554.5,-110.337 554.5,-131.337 703.5,-131.337 703.5,-110.337 554.5,-110.337"/>
<text text-anchor="middle" x="629" y="-117.737" font-family="Helvetica,sans-Serif" font-size="12.00">internalJSONNode::Fetch</text>
</a>
</g>
</g>
<!-- Node3&#45;&gt;Node4 -->
<g id="edge3" class="edge"><title>Node3&#45;&gt;Node4</title>
<path fill="none" stroke="midnightblue" d="M496.601,-186.685C503.907,-184.662 511.164,-182.384 518,-179.837 552.928,-166.822 590.577,-144.663 611.524,-131.522"/>
<polygon fill="midnightblue" stroke="midnightblue" points="495.434,-183.373 486.644,-189.288 497.204,-190.145 495.434,-183.373"/>
</g>
<!-- Node5 -->
<g id="node5" class="node"><title>Node5</title>
<g id="a_node5"><a xlink:href="../../d1/d0b/classinternal_j_s_o_n_node.html#abf6beef21cb476c4b2246f7b01a1ee98" target="_top" xlink:title="internalJSONNode::preparse">
<polygon fill="white" stroke="black" points="740.5,-190.337 740.5,-211.337 907.5,-211.337 907.5,-190.337 740.5,-190.337"/>
<text text-anchor="middle" x="824" y="-197.737" font-family="Helvetica,sans-Serif" font-size="12.00">internalJSONNode::preparse</text>
</a>
</g>
</g>
<!-- Node4&#45;&gt;Node5 -->
<g id="edge4" class="edge"><title>Node4&#45;&gt;Node5</title>
<path fill="none" stroke="midnightblue" d="M654.705,-136.776C676.424,-150.178 709.274,-168.994 740,-180.837 749.543,-184.515 759.971,-187.664 770.115,-190.301"/>
<polygon fill="midnightblue" stroke="midnightblue" points="656.451,-133.74 646.117,-131.4 652.736,-139.673 656.451,-133.74"/>
</g>
<!-- Node6 -->
<g id="node6" class="node"><title>Node6</title>
<g id="a_node6"><a xlink:href="../../d1/d0b/classinternal_j_s_o_n_node.html#a1b39d2c6b4bd28ed7ce2415fd5a94f57" target="_top" xlink:title="internalJSONNode::size">
<polygon fill="white" stroke="black" points="753.5,-150.337 753.5,-171.337 894.5,-171.337 894.5,-150.337 753.5,-150.337"/>
<text text-anchor="middle" x="824" y="-157.737" font-family="Helvetica,sans-Serif" font-size="12.00">internalJSONNode::size</text>
</a>
</g>
</g>
<!-- Node4&#45;&gt;Node6 -->
<g id="edge5" class="edge"><title>Node4&#45;&gt;Node6</title>
<path fill="none" stroke="midnightblue" d="M690.554,-133.387C716.824,-138.832 747.241,-145.136 772.295,-150.328"/>
<polygon fill="midnightblue" stroke="midnightblue" points="691.211,-129.949 680.708,-131.347 689.79,-136.803 691.211,-129.949"/>
</g>
<!-- Node7 -->
<g id="node7" class="node"><title>Node7</title>
<g id="a_node7"><a xlink:href="../../d1/d0b/classinternal_j_s_o_n_node.html#accd95751fc868a0f19530f0eeba1d09b" target="_top" xlink:title="internalJSONNode::empty">
<polygon fill="white" stroke="black" points="748,-110.337 748,-131.337 900,-131.337 900,-110.337 748,-110.337"/>
<text text-anchor="middle" x="824" y="-117.737" font-family="Helvetica,sans-Serif" font-size="12.00">internalJSONNode::empty</text>
</a>
</g>
</g>
<!-- Node4&#45;&gt;Node7 -->
<g id="edge6" class="edge"><title>Node4&#45;&gt;Node7</title>
<path fill="none" stroke="midnightblue" d="M713.805,-120.837C725.101,-120.837 736.633,-120.837 747.768,-120.837"/>
<polygon fill="midnightblue" stroke="midnightblue" points="713.516,-117.337 703.516,-120.837 713.516,-124.337 713.516,-117.337"/>
</g>
<!-- Node8 -->
<g id="node8" class="node"><title>Node8</title>
<g id="a_node8"><a xlink:href="../../d1/d0b/classinternal_j_s_o_n_node.html#a83b24cb2bbdac4b1a1a532c44ffd397f" target="_top" xlink:title="internalJSONNode::begin">
<polygon fill="white" stroke="black" points="749.5,-70.3371 749.5,-91.3371 898.5,-91.3371 898.5,-70.3371 749.5,-70.3371"/>
<text text-anchor="middle" x="824" y="-77.7371" font-family="Helvetica,sans-Serif" font-size="12.00">internalJSONNode::begin</text>
</a>
</g>
</g>
<!-- Node4&#45;&gt;Node8 -->
<g id="edge7" class="edge"><title>Node4&#45;&gt;Node8</title>
<path fill="none" stroke="midnightblue" d="M690.554,-108.287C716.824,-102.843 747.241,-96.5385 772.295,-91.3458"/>
<polygon fill="midnightblue" stroke="midnightblue" points="689.79,-104.871 680.708,-110.328 691.211,-111.725 689.79,-104.871"/>
</g>
<!-- Node9 -->
<g id="node9" class="node"><title>Node9</title>
<g id="a_node9"><a xlink:href="../../d1/d0b/classinternal_j_s_o_n_node.html#a4bbd647f453bfdb21ef9b6a2fb6f62f8" target="_top" xlink:title="internalJSONNode::end">
<polygon fill="white" stroke="black" points="754,-30.3371 754,-51.3371 894,-51.3371 894,-30.3371 754,-30.3371"/>
<text text-anchor="middle" x="824" y="-37.7371" font-family="Helvetica,sans-Serif" font-size="12.00">internalJSONNode::end</text>
</a>
</g>
</g>
<!-- Node4&#45;&gt;Node9 -->
<g id="edge8" class="edge"><title>Node4&#45;&gt;Node9</title>
<path fill="none" stroke="midnightblue" d="M654.705,-104.898C676.424,-91.4963 709.274,-72.6804 740,-60.8371 749.543,-57.1588 759.971,-54.0104 770.115,-51.3734"/>
<polygon fill="midnightblue" stroke="midnightblue" points="652.736,-102.001 646.117,-110.274 656.451,-107.935 652.736,-102.001"/>
</g>
<!-- Node10&#45;&gt;Node4 -->
<g id="edge10" class="edge"><title>Node10&#45;&gt;Node4</title>
<path fill="none" stroke="midnightblue" d="M496.601,-54.9888C503.907,-57.012 511.164,-59.29 518,-61.8371 552.928,-74.8518 590.577,-97.0116 611.524,-110.153"/>
<polygon fill="midnightblue" stroke="midnightblue" points="497.204,-51.5288 486.644,-52.3863 495.434,-58.3013 497.204,-51.5288"/>
</g>
<!-- Node11&#45;&gt;Node4 -->
<g id="edge12" class="edge"><title>Node11&#45;&gt;Node4</title>
<path fill="none" stroke="midnightblue" d="M264.68,-10.5753C328.857,0.363447 434.503,10.2038 518,-21.8371 565.015,-39.8784 604.518,-88.326 620.453,-110.045"/>
<polygon fill="midnightblue" stroke="midnightblue" points="263.983,-7.1443 254.746,-12.3341 265.203,-14.0371 263.983,-7.1443"/>
</g>
<!-- Node12&#45;&gt;Node3 -->
<g id="edge17" class="edge"><title>Node12&#45;&gt;Node3</title>
<path fill="none" stroke="midnightblue" d="M282.313,-115.044C289.291,-117.989 295.988,-121.545 302,-125.837 325.475,-142.598 314.225,-163.505 338,-179.837 343.482,-183.603 349.562,-186.672 355.894,-189.171"/>
<polygon fill="midnightblue" stroke="midnightblue" points="283.253,-111.658 272.661,-111.394 280.777,-118.205 283.253,-111.658"/>
</g>
<!-- Node12&#45;&gt;Node4 -->
<g id="edge18" class="edge"><title>Node12&#45;&gt;Node4</title>
<path fill="none" stroke="midnightblue" d="M291.446,-104.849C368.443,-108.507 481.061,-113.857 554.445,-117.343"/>
<polygon fill="midnightblue" stroke="midnightblue" points="291.452,-101.345 281.297,-104.367 291.12,-108.337 291.452,-101.345"/>
</g>
<!-- Node12&#45;&gt;Node10 -->
<g id="edge16" class="edge"><title>Node12&#45;&gt;Node10</title>
<path fill="none" stroke="midnightblue" d="M261.325,-87.6771C274.709,-84.1235 288.945,-80.0781 302,-75.8371 318.327,-70.533 321.579,-66.8443 338,-61.8371 349.513,-58.3266 362.034,-55.1378 373.95,-52.3891"/>
<polygon fill="midnightblue" stroke="midnightblue" points="260.083,-84.3838 251.289,-90.2937 261.849,-91.1573 260.083,-84.3838"/>
</g>
<!-- Node13 -->
<g id="node13" class="node"><title>Node13</title>
<g id="a_node13"><a xlink:href="../../d1/d0b/classinternal_j_s_o_n_node.html#a40ace389d49c93b870ce3a0aaab70640" target="_top" xlink:title="internalJSONNode::FetchString">
<polygon fill="white" stroke="black" points="338,-149.337 338,-170.337 518,-170.337 518,-149.337 338,-149.337"/>
<text text-anchor="middle" x="428" y="-156.737" font-family="Helvetica,sans-Serif" font-size="12.00">internalJSONNode::FetchString</text>
</a>
</g>
</g>
<!-- Node12&#45;&gt;Node13 -->
<g id="edge14" class="edge"><title>Node12&#45;&gt;Node13</title>
<path fill="none" stroke="midnightblue" d="M257.033,-113.921C271.544,-117.738 287.409,-121.933 302,-125.837 331.004,-133.598 363.751,-142.51 388.449,-149.263"/>
<polygon fill="midnightblue" stroke="midnightblue" points="257.796,-110.503 247.235,-111.347 256.017,-117.273 257.796,-110.503"/>
</g>
<!-- Node14 -->
<g id="node14" class="node"><title>Node14</title>
<g id="a_node14"><a xlink:href="../../d6/dc7/class_j_s_o_n_node.html#aabc5878c658fe47378a9f2294d5b1663" target="_top" xlink:title="JSONNode::nullify">
<polygon fill="white" stroke="black" points="373,-71.3371 373,-92.3371 483,-92.3371 483,-71.3371 373,-71.3371"/>
<text text-anchor="middle" x="428" y="-78.7371" font-family="Helvetica,sans-Serif" font-size="12.00">JSONNode::nullify</text>
</a>
</g>
</g>
<!-- Node12&#45;&gt;Node14 -->
<g id="edge19" class="edge"><title>Node12&#45;&gt;Node14</title>
<path fill="none" stroke="midnightblue" d="M291.17,-93.5679C318.614,-91.1977 348.333,-88.6311 372.954,-86.5048"/>
<polygon fill="midnightblue" stroke="midnightblue" points="290.837,-90.0835 281.175,-94.4311 291.439,-97.0576 290.837,-90.0835"/>
</g>
<!-- Node13&#45;&gt;Node4 -->
<g id="edge15" class="edge"><title>Node13&#45;&gt;Node4</title>
<path fill="none" stroke="midnightblue" d="M492.481,-147.396C518.836,-142.231 549.088,-136.302 574.314,-131.358"/>
<polygon fill="midnightblue" stroke="midnightblue" points="491.73,-143.977 482.59,-149.335 493.077,-150.846 491.73,-143.977"/>
</g>
</g>
</svg>
