<?xml version="1.0" encoding="UTF-8" standalone="no"?>
<!DOCTYPE svg PUBLIC "-//W3C//DTD SVG 1.1//EN"
 "http://www.w3.org/Graphics/SVG/1.1/DTD/svg11.dtd">
<!-- Generated by graphviz version 2.34.0 (20130907.0111)
 -->
<!-- Title: _newJSONNode Pages: 1 -->
<svg width="1868pt" height="136pt"
 viewBox="0.00 0.00 1868.00 136.00" xmlns="http://www.w3.org/2000/svg" xmlns:xlink="http://www.w3.org/1999/xlink">
<g id="graph0" class="graph" transform="scale(1 1) rotate(0) translate(4 132)">
<title>_newJSONNode</title>
<polygon fill="white" stroke="white" points="-4,4 -4,-132 1864,-132 1864,4 -4,4"/>
<!-- Node1 -->
<g id="node1" class="node"><title>Node1</title>
<polygon fill="#bfbfbf" stroke="black" points="0,-53.5 0,-74.5 104,-74.5 104,-53.5 0,-53.5"/>
<text text-anchor="middle" x="52" y="-60.9" font-family="Helvetica,sans-Serif" font-size="12.00">_newJSONNode</text>
</g>
<!-- Node2 -->
<g id="node2" class="node"><title>Node2</title>
<g id="a_node2"><a xlink:href="../../d6/dc7/class_j_s_o_n_node.html#a2435b57e1586f3c7c7d915b3490a4e1c" target="_top" xlink:title="JSONNode::newJSONNode">
<polygon fill="white" stroke="black" points="140,-53.5 140,-74.5 304,-74.5 304,-53.5 140,-53.5"/>
<text text-anchor="middle" x="222" y="-60.9" font-family="Helvetica,sans-Serif" font-size="12.00">JSONNode::newJSONNode</text>
</a>
</g>
</g>
<!-- Node1&#45;&gt;Node2 -->
<g id="edge1" class="edge"><title>Node1&#45;&gt;Node2</title>
<path fill="none" stroke="midnightblue" d="M114.594,-64C122.859,-64 131.436,-64 139.972,-64"/>
<polygon fill="midnightblue" stroke="midnightblue" points="114.318,-60.5001 104.318,-64 114.318,-67.5001 114.318,-60.5001"/>
</g>
<!-- Node3 -->
<g id="node3" class="node"><title>Node3</title>
<g id="a_node3"><a xlink:href="../../d1/d0b/classinternal_j_s_o_n_node.html#a8757ff69826db8035ea7031fa6c3815a" target="_top" xlink:title="internalJSONNode::internal\lJSONNode">
<polygon fill="white" stroke="black" points="350,-94 350,-128 508,-128 508,-94 350,-94"/>
<text text-anchor="start" x="358" y="-114.4" font-family="Helvetica,sans-Serif" font-size="12.00">internalJSONNode::internal</text>
<text text-anchor="middle" x="429" y="-101.4" font-family="Helvetica,sans-Serif" font-size="12.00">JSONNode</text>
</a>
</g>
</g>
<!-- Node2&#45;&gt;Node3 -->
<g id="edge2" class="edge"><title>Node2&#45;&gt;Node3</title>
<path fill="none" stroke="midnightblue" d="M278.941,-76.8254C301.953,-82.1015 328.942,-88.2891 353.584,-93.9387"/>
<polygon fill="midnightblue" stroke="midnightblue" points="279.535,-73.371 269.006,-74.5477 277.971,-80.194 279.535,-73.371"/>
</g>
<!-- Node4 -->
<g id="node4" class="node"><title>Node4</title>
<g id="a_node4"><a xlink:href="../../d1/d0b/classinternal_j_s_o_n_node.html#a52054310b770dc15cf10e34e32713f19" target="_top" xlink:title="internalJSONNode::push_back">
<polygon fill="white" stroke="black" points="340.5,-53.5 340.5,-74.5 517.5,-74.5 517.5,-53.5 340.5,-53.5"/>
<text text-anchor="middle" x="429" y="-60.9" font-family="Helvetica,sans-Serif" font-size="12.00">internalJSONNode::push_back</text>
</a>
</g>
</g>
<!-- Node2&#45;&gt;Node4 -->
<g id="edge3" class="edge"><title>Node2&#45;&gt;Node4</title>
<path fill="none" stroke="midnightblue" d="M314.207,-64C322.94,-64 331.784,-64 340.481,-64"/>
<polygon fill="midnightblue" stroke="midnightblue" points="314.021,-60.5001 304.021,-64 314.021,-67.5001 314.021,-60.5001"/>
</g>
<!-- Node17 -->
<g id="node17" class="node"><title>Node17</title>
<g id="a_node17"><a xlink:href="../../d1/d0b/classinternal_j_s_o_n_node.html#a70aeebf2403905cc309f743e8c7b8539" target="_top" xlink:title="internalJSONNode::push\l_front">
<polygon fill="white" stroke="black" points="356.5,-0 356.5,-34 501.5,-34 501.5,-0 356.5,-0"/>
<text text-anchor="start" x="364.5" y="-20.4" font-family="Helvetica,sans-Serif" font-size="12.00">internalJSONNode::push</text>
<text text-anchor="middle" x="429" y="-7.4" font-family="Helvetica,sans-Serif" font-size="12.00">_front</text>
</a>
</g>
</g>
<!-- Node2&#45;&gt;Node17 -->
<g id="edge18" class="edge"><title>Node2&#45;&gt;Node17</title>
<path fill="none" stroke="midnightblue" d="M278.96,-51.1702C302.845,-45.6941 331.01,-39.2367 356.389,-33.4182"/>
<polygon fill="midnightblue" stroke="midnightblue" points="277.971,-47.806 269.006,-53.4523 279.535,-54.629 277.971,-47.806"/>
</g>
<!-- Node5 -->
<g id="node5" class="node"><title>Node5</title>
<g id="a_node5"><a xlink:href="../../d6/dc7/class_j_s_o_n_node.html#a5200c65f827a99897b00681aa3b35671" target="_top" xlink:title="JSONNode::push_back">
<polygon fill="white" stroke="black" points="554,-53.5 554,-74.5 694,-74.5 694,-53.5 554,-53.5"/>
<text text-anchor="middle" x="624" y="-60.9" font-family="Helvetica,sans-Serif" font-size="12.00">JSONNode::push_back</text>
</a>
</g>
</g>
<!-- Node4&#45;&gt;Node5 -->
<g id="edge4" class="edge"><title>Node4&#45;&gt;Node5</title>
<path fill="none" stroke="midnightblue" d="M528.024,-64C536.787,-64 545.533,-64 553.973,-64"/>
<polygon fill="midnightblue" stroke="midnightblue" points="527.747,-60.5001 517.747,-64 527.747,-67.5001 527.747,-60.5001"/>
</g>
<!-- Node6 -->
<g id="node6" class="node"><title>Node6</title>
<g id="a_node6"><a xlink:href="../../d3/d71/jsonhelpers_8h.html#a3a69c2987d346d326aeffb52183db0f4" target="_top" xlink:title="prepareTestSettings">
<polygon fill="white" stroke="black" points="730.5,-53.5 730.5,-74.5 853.5,-74.5 853.5,-53.5 730.5,-53.5"/>
<text text-anchor="middle" x="792" y="-60.9" font-family="Helvetica,sans-Serif" font-size="12.00">prepareTestSettings</text>
</a>
</g>
</g>
<!-- Node5&#45;&gt;Node6 -->
<g id="edge5" class="edge"><title>Node5&#45;&gt;Node6</title>
<path fill="none" stroke="midnightblue" d="M704.55,-64C713.204,-64 721.908,-64 730.285,-64"/>
<polygon fill="midnightblue" stroke="midnightblue" points="704.437,-60.5001 694.437,-64 704.437,-67.5001 704.437,-60.5001"/>
</g>
<!-- Node7 -->
<g id="node7" class="node"><title>Node7</title>
<g id="a_node7"><a xlink:href="../../da/d92/class_image_test.html#a7334d76c1cc6780f46626be5b9ff1adb" target="_top" xlink:title="Runs the test pointed to by m_imatestFunc. ">
<polygon fill="white" stroke="black" points="890,-53.5 890,-74.5 988,-74.5 988,-53.5 890,-53.5"/>
<text text-anchor="middle" x="939" y="-60.9" font-family="Helvetica,sans-Serif" font-size="12.00">ImageTest::Run</text>
</a>
</g>
</g>
<!-- Node6&#45;&gt;Node7 -->
<g id="edge6" class="edge"><title>Node6&#45;&gt;Node7</title>
<path fill="none" stroke="midnightblue" d="M863.657,-64C872.557,-64 881.494,-64 889.931,-64"/>
<polygon fill="midnightblue" stroke="midnightblue" points="863.653,-60.5001 853.653,-64 863.653,-67.5001 863.653,-60.5001"/>
</g>
<!-- Node8 -->
<g id="node8" class="node"><title>Node8</title>
<g id="a_node8"><a xlink:href="../../da/d92/class_image_test.html#accf2cfff6fe48fd19888727208dd6728" target="_top" xlink:title="ImageTest::Run">
<polygon fill="white" stroke="black" points="1045,-73.5 1045,-94.5 1143,-94.5 1143,-73.5 1045,-73.5"/>
<text text-anchor="middle" x="1094" y="-80.9" font-family="Helvetica,sans-Serif" font-size="12.00">ImageTest::Run</text>
</a>
</g>
</g>
<!-- Node7&#45;&gt;Node8 -->
<g id="edge7" class="edge"><title>Node7&#45;&gt;Node8</title>
<path fill="none" stroke="midnightblue" d="M998.338,-71.6259C1013.72,-73.6361 1030.13,-75.7822 1044.9,-77.713"/>
<polygon fill="midnightblue" stroke="midnightblue" points="998.779,-68.1539 988.41,-70.3281 997.872,-75.0948 998.779,-68.1539"/>
</g>
<!-- Node9 -->
<g id="node9" class="node"><title>Node9</title>
<g id="a_node9"><a xlink:href="../../da/d92/class_image_test.html#a372478d09c06cd7ab3684840add6215e" target="_top" xlink:title="param must be a pointer to a ThreadControl object; param&#45;&gt;m_data must point to an ImageTest object ...">
<polygon fill="white" stroke="black" points="1024.5,-33.5 1024.5,-54.5 1163.5,-54.5 1163.5,-33.5 1024.5,-33.5"/>
<text text-anchor="middle" x="1094" y="-40.9" font-family="Helvetica,sans-Serif" font-size="12.00">ImageTest::ThreadProc</text>
</a>
</g>
</g>
<!-- Node7&#45;&gt;Node9 -->
<g id="edge8" class="edge"><title>Node7&#45;&gt;Node9</title>
<path fill="none" stroke="midnightblue" d="M998.571,-56.3437C1007.05,-55.2351 1015.84,-54.0857 1024.5,-52.9543"/>
<polygon fill="midnightblue" stroke="midnightblue" points="997.872,-52.9052 988.41,-57.6719 998.779,-59.8461 997.872,-52.9052"/>
</g>
<!-- Node10 -->
<g id="node10" class="node"><title>Node10</title>
<g id="a_node10"><a xlink:href="../../d3/d9f/class_c_operator_console_app.html#a51ad7e6e8f370072c3e89d0d7e9e41a8" target="_top" xlink:title="COperatorConsoleApp\l::InitBlemishThread">
<polygon fill="white" stroke="black" points="1200.5,-54 1200.5,-88 1337.5,-88 1337.5,-54 1200.5,-54"/>
<text text-anchor="start" x="1208.5" y="-74.4" font-family="Helvetica,sans-Serif" font-size="12.00">COperatorConsoleApp</text>
<text text-anchor="middle" x="1269" y="-61.4" font-family="Helvetica,sans-Serif" font-size="12.00">::InitBlemishThread</text>
</a>
</g>
</g>
<!-- Node9&#45;&gt;Node10 -->
<g id="edge9" class="edge"><title>Node9&#45;&gt;Node10</title>
<path fill="none" stroke="midnightblue" d="M1172.38,-56.077C1181.67,-57.5264 1191.1,-58.9978 1200.23,-60.4236"/>
<polygon fill="midnightblue" stroke="midnightblue" points="1172.8,-52.6002 1162.38,-54.5162 1171.72,-59.5165 1172.8,-52.6002"/>
</g>
<!-- Node16 -->
<g id="node16" class="node"><title>Node16</title>
<g id="a_node16"><a xlink:href="../../d3/d9f/class_c_operator_console_app.html#af7328d2c00abb1d4a09a65492c69b2b0" target="_top" xlink:title="COperatorConsoleApp\l::InitSFRplusThread">
<polygon fill="white" stroke="black" points="1200.5,-1 1200.5,-35 1337.5,-35 1337.5,-1 1200.5,-1"/>
<text text-anchor="start" x="1208.5" y="-21.4" font-family="Helvetica,sans-Serif" font-size="12.00">COperatorConsoleApp</text>
<text text-anchor="middle" x="1269" y="-8.4" font-family="Helvetica,sans-Serif" font-size="12.00">::InitSFRplusThread</text>
</a>
</g>
</g>
<!-- Node9&#45;&gt;Node16 -->
<g id="edge15" class="edge"><title>Node9&#45;&gt;Node16</title>
<path fill="none" stroke="midnightblue" d="M1173.85,-32.1494C1182.75,-30.812 1191.76,-29.4583 1200.49,-28.1454"/>
<polygon fill="midnightblue" stroke="midnightblue" points="1173.24,-28.702 1163.87,-33.6494 1174.28,-35.6243 1173.24,-28.702"/>
</g>
<!-- Node11 -->
<g id="node11" class="node"><title>Node11</title>
<g id="a_node11"><a xlink:href="../../d3/d9f/class_c_operator_console_app.html#a7f0cd7b21cee2171dea973e4e6e7bb9d" target="_top" xlink:title="Init perform application&#45;specific initialization. ">
<polygon fill="white" stroke="black" points="1374.5,-54 1374.5,-88 1511.5,-88 1511.5,-54 1374.5,-54"/>
<text text-anchor="start" x="1382.5" y="-74.4" font-family="Helvetica,sans-Serif" font-size="12.00">COperatorConsoleApp</text>
<text text-anchor="middle" x="1443" y="-61.4" font-family="Helvetica,sans-Serif" font-size="12.00">::Init</text>
</a>
</g>
</g>
<!-- Node10&#45;&gt;Node11 -->
<g id="edge10" class="edge"><title>Node10&#45;&gt;Node11</title>
<path fill="none" stroke="midnightblue" d="M1348.13,-71C1356.85,-71 1365.67,-71 1374.23,-71"/>
<polygon fill="midnightblue" stroke="midnightblue" points="1347.98,-67.5001 1337.98,-71 1347.98,-74.5001 1347.98,-67.5001"/>
</g>
<!-- Node13 -->
<g id="node13" class="node"><title>Node13</title>
<g id="a_node13"><a xlink:href="../../d3/d9f/class_c_operator_console_app.html#aede77af6cae8053d49c752fd95910728" target="_top" xlink:title="This function allows for reallocation of the various image buffers when we change the image size...">
<polygon fill="white" stroke="black" points="1374.5,-1 1374.5,-35 1511.5,-35 1511.5,-1 1374.5,-1"/>
<text text-anchor="start" x="1382.5" y="-21.4" font-family="Helvetica,sans-Serif" font-size="12.00">COperatorConsoleApp</text>
<text text-anchor="middle" x="1443" y="-8.4" font-family="Helvetica,sans-Serif" font-size="12.00">::ReInit</text>
</a>
</g>
</g>
<!-- Node10&#45;&gt;Node13 -->
<g id="edge12" class="edge"><title>Node10&#45;&gt;Node13</title>
<path fill="none" stroke="midnightblue" d="M1335.21,-50.9056C1352.19,-45.6732 1370.32,-40.0863 1386.74,-35.0293"/>
<polygon fill="midnightblue" stroke="midnightblue" points="1333.89,-47.6491 1325.37,-53.9387 1335.96,-54.3387 1333.89,-47.6491"/>
</g>
<!-- Node12 -->
<g id="node12" class="node"><title>Node12</title>
<g id="a_node12"><a xlink:href="../../d3/d9f/class_c_operator_console_app.html#a94f4b258145e77e31644beb999bf099a" target="_top" xlink:title="COperatorConsoleApp initialization. ">
<polygon fill="white" stroke="black" points="1548.5,-54 1548.5,-88 1685.5,-88 1685.5,-54 1548.5,-54"/>
<text text-anchor="start" x="1556.5" y="-74.4" font-family="Helvetica,sans-Serif" font-size="12.00">COperatorConsoleApp</text>
<text text-anchor="middle" x="1617" y="-61.4" font-family="Helvetica,sans-Serif" font-size="12.00">::InitInstance</text>
</a>
</g>
</g>
<!-- Node11&#45;&gt;Node12 -->
<g id="edge11" class="edge"><title>Node11&#45;&gt;Node12</title>
<path fill="none" stroke="midnightblue" d="M1522.13,-71C1530.85,-71 1539.67,-71 1548.23,-71"/>
<polygon fill="midnightblue" stroke="midnightblue" points="1521.98,-67.5001 1511.98,-71 1521.98,-74.5001 1521.98,-67.5001"/>
</g>
<!-- Node14 -->
<g id="node14" class="node"><title>Node14</title>
<g id="a_node14"><a xlink:href="../../d3/d9f/class_c_operator_console_app.html#a620f8d2eed65d743bb177abcb90936e6" target="_top" xlink:title="Called after MSG_SETUP is received. ">
<polygon fill="white" stroke="black" points="1548.5,-1 1548.5,-35 1685.5,-35 1685.5,-1 1548.5,-1"/>
<text text-anchor="start" x="1556.5" y="-21.4" font-family="Helvetica,sans-Serif" font-size="12.00">COperatorConsoleApp</text>
<text text-anchor="middle" x="1617" y="-8.4" font-family="Helvetica,sans-Serif" font-size="12.00">::OnSetup</text>
</a>
</g>
</g>
<!-- Node13&#45;&gt;Node14 -->
<g id="edge13" class="edge"><title>Node13&#45;&gt;Node14</title>
<path fill="none" stroke="midnightblue" d="M1522.13,-18C1530.85,-18 1539.67,-18 1548.23,-18"/>
<polygon fill="midnightblue" stroke="midnightblue" points="1521.98,-14.5001 1511.98,-18 1521.98,-21.5001 1521.98,-14.5001"/>
</g>
<!-- Node15 -->
<g id="node15" class="node"><title>Node15</title>
<g id="a_node15"><a xlink:href="../../d3/d9f/class_c_operator_console_app.html#a7041d197c4e6549f2cb7219981b4eec1" target="_top" xlink:title="Intercepts messages of interest before Windows or MFC. ">
<polygon fill="white" stroke="black" points="1722,-1 1722,-35 1860,-35 1860,-1 1722,-1"/>
<text text-anchor="start" x="1730" y="-21.4" font-family="Helvetica,sans-Serif" font-size="12.00">COperatorConsoleApp</text>
<text text-anchor="middle" x="1791" y="-8.4" font-family="Helvetica,sans-Serif" font-size="12.00">::PreTranslateMessage</text>
</a>
</g>
</g>
<!-- Node14&#45;&gt;Node15 -->
<g id="edge14" class="edge"><title>Node14&#45;&gt;Node15</title>
<path fill="none" stroke="midnightblue" d="M1696.05,-18C1704.7,-18 1713.45,-18 1721.95,-18"/>
<polygon fill="midnightblue" stroke="midnightblue" points="1695.98,-14.5001 1685.98,-18 1695.98,-21.5001 1695.98,-14.5001"/>
</g>
<!-- Node16&#45;&gt;Node11 -->
<g id="edge16" class="edge"><title>Node16&#45;&gt;Node11</title>
<path fill="none" stroke="midnightblue" d="M1335.21,-38.0944C1352.19,-43.3268 1370.32,-48.9137 1386.74,-53.9707"/>
<polygon fill="midnightblue" stroke="midnightblue" points="1335.96,-34.6613 1325.37,-35.0613 1333.89,-41.3509 1335.96,-34.6613"/>
</g>
<!-- Node16&#45;&gt;Node13 -->
<g id="edge17" class="edge"><title>Node16&#45;&gt;Node13</title>
<path fill="none" stroke="midnightblue" d="M1348.13,-18C1356.85,-18 1365.67,-18 1374.23,-18"/>
<polygon fill="midnightblue" stroke="midnightblue" points="1347.98,-14.5001 1337.98,-18 1347.98,-21.5001 1347.98,-14.5001"/>
</g>
</g>
</svg>
