<?xml version="1.0" encoding="UTF-8" standalone="no"?>
<!DOCTYPE svg PUBLIC "-//W3C//DTD SVG 1.1//EN"
 "http://www.w3.org/Graphics/SVG/1.1/DTD/svg11.dtd">
<!-- Generated by graphviz version 2.34.0 (20130907.0111)
 -->
<!-- Title: Documentation/Operator&#45;Console/JSON/JSONMemory.h Pages: 1 -->
<svg width="1719pt" height="704pt"
 viewBox="0.00 0.00 1719.00 704.00" xmlns="http://www.w3.org/2000/svg" xmlns:xlink="http://www.w3.org/1999/xlink">
<g id="graph0" class="graph" transform="scale(1 1) rotate(0) translate(4 700)">
<title>Documentation/Operator&#45;Console/JSON/JSONMemory.h</title>
<polygon fill="white" stroke="white" points="-4,4 -4,-700 1715,-700 1715,4 -4,4"/>
<!-- Node1 -->
<g id="node1" class="node"><title>Node1</title>
<polygon fill="#bfbfbf" stroke="black" points="819,-661 819,-695 1003,-695 1003,-661 819,-661"/>
<text text-anchor="start" x="827" y="-681.4" font-family="Helvetica,sans-Serif" font-size="12.00">Documentation/Operator</text>
<text text-anchor="middle" x="911" y="-668.4" font-family="Helvetica,sans-Serif" font-size="12.00">&#45;Console/JSON/JSONMemory.h</text>
</g>
<!-- Node2 -->
<g id="node2" class="node"><title>Node2</title>
<g id="a_node2"><a xlink:href="../../dc/df5/_documentation_2_operator-_console_2_j_s_o_n_2_j_s_o_n_children_8h.html" target="_top" xlink:title="Documentation/Operator\l&#45;Console/JSON/JSONChildren.h">
<polygon fill="white" stroke="black" points="818.5,-589 818.5,-623 1003.5,-623 1003.5,-589 818.5,-589"/>
<text text-anchor="start" x="826.5" y="-609.4" font-family="Helvetica,sans-Serif" font-size="12.00">Documentation/Operator</text>
<text text-anchor="middle" x="911" y="-596.4" font-family="Helvetica,sans-Serif" font-size="12.00">&#45;Console/JSON/JSONChildren.h</text>
</a>
</g>
</g>
<!-- Node1&#45;&gt;Node2 -->
<g id="edge1" class="edge"><title>Node1&#45;&gt;Node2</title>
<path fill="none" stroke="midnightblue" d="M911,-650.508C911,-641.303 911,-631.262 911,-623.147"/>
<polygon fill="midnightblue" stroke="midnightblue" points="907.5,-650.765 911,-660.765 914.5,-650.765 907.5,-650.765"/>
</g>
<!-- Node3 -->
<g id="node3" class="node"><title>Node3</title>
<g id="a_node3"><a xlink:href="../../dc/db1/_documentation_2_operator-_console_2_j_s_o_n_2internal_j_s_o_n_node_8h.html" target="_top" xlink:title="Documentation/Operator\l&#45;Console/JSON/internalJSONNode.h">
<polygon fill="white" stroke="black" points="686,-517 686,-551 894,-551 894,-517 686,-517"/>
<text text-anchor="start" x="694" y="-537.4" font-family="Helvetica,sans-Serif" font-size="12.00">Documentation/Operator</text>
<text text-anchor="middle" x="790" y="-524.4" font-family="Helvetica,sans-Serif" font-size="12.00">&#45;Console/JSON/internalJSONNode.h</text>
</a>
</g>
</g>
<!-- Node1&#45;&gt;Node3 -->
<g id="edge43" class="edge"><title>Node1&#45;&gt;Node3</title>
<path fill="none" stroke="midnightblue" d="M850.722,-656.584C835.086,-648.645 819.664,-638.001 809,-624 792.725,-602.633 789.686,-570.397 789.482,-551.15"/>
<polygon fill="midnightblue" stroke="midnightblue" points="849.384,-659.823 859.919,-660.95 852.387,-653.499 849.384,-659.823"/>
</g>
<!-- Node34 -->
<g id="node34" class="node"><title>Node34</title>
<g id="a_node34"><a xlink:href="../../d3/d15/_documentation_2_operator-_console_2_j_s_o_n_2_j_s_o_n_memory_8cpp.html" target="_top" xlink:title="Documentation/Operator\l&#45;Console/JSON/JSONMemory.cpp">
<polygon fill="white" stroke="black" points="1021.5,-589 1021.5,-623 1218.5,-623 1218.5,-589 1021.5,-589"/>
<text text-anchor="start" x="1029.5" y="-609.4" font-family="Helvetica,sans-Serif" font-size="12.00">Documentation/Operator</text>
<text text-anchor="middle" x="1120" y="-596.4" font-family="Helvetica,sans-Serif" font-size="12.00">&#45;Console/JSON/JSONMemory.cpp</text>
</a>
</g>
</g>
<!-- Node1&#45;&gt;Node34 -->
<g id="edge44" class="edge"><title>Node1&#45;&gt;Node34</title>
<path fill="none" stroke="midnightblue" d="M968.754,-657.657C1001.19,-646.793 1041.19,-633.394 1071.91,-623.106"/>
<polygon fill="midnightblue" stroke="midnightblue" points="967.32,-654.446 958.949,-660.941 969.543,-661.083 967.32,-654.446"/>
</g>
<!-- Node2&#45;&gt;Node3 -->
<g id="edge2" class="edge"><title>Node2&#45;&gt;Node3</title>
<path fill="none" stroke="midnightblue" d="M874.152,-583.683C856.111,-573.246 834.741,-560.883 818.05,-551.227"/>
<polygon fill="midnightblue" stroke="midnightblue" points="872.832,-586.963 883.24,-588.941 876.337,-580.903 872.832,-586.963"/>
</g>
<!-- Node30 -->
<g id="node30" class="node"><title>Node30</title>
<g id="a_node30"><a xlink:href="../../df/d4e/_documentation_2_operator-_console_2_j_s_o_n_2_j_s_o_n_children_8cpp.html" target="_top" xlink:title="Documentation/Operator\l&#45;Console/JSON/JSONChildren.cpp">
<polygon fill="white" stroke="black" points="1327.5,-367 1327.5,-401 1526.5,-401 1526.5,-367 1327.5,-367"/>
<text text-anchor="start" x="1335.5" y="-387.4" font-family="Helvetica,sans-Serif" font-size="12.00">Documentation/Operator</text>
<text text-anchor="middle" x="1427" y="-374.4" font-family="Helvetica,sans-Serif" font-size="12.00">&#45;Console/JSON/JSONChildren.cpp</text>
</a>
</g>
</g>
<!-- Node2&#45;&gt;Node30 -->
<g id="edge42" class="edge"><title>Node2&#45;&gt;Node30</title>
<path fill="none" stroke="midnightblue" d="M958.342,-584.816C1059.94,-541.501 1297.1,-440.383 1389.35,-401.052"/>
<polygon fill="midnightblue" stroke="midnightblue" points="956.769,-581.681 948.943,-588.823 959.514,-588.12 956.769,-581.681"/>
</g>
<!-- Node4 -->
<g id="node4" class="node"><title>Node4</title>
<g id="a_node4"><a xlink:href="../../d9/d7e/_documentation_2_operator-_console_2_j_s_o_n_2_j_s_o_n_node_8h.html" target="_top" xlink:title="Documentation/Operator\l&#45;Console/JSON/JSONNode.h">
<polygon fill="white" stroke="black" points="705,-445 705,-479 875,-479 875,-445 705,-445"/>
<text text-anchor="start" x="713" y="-465.4" font-family="Helvetica,sans-Serif" font-size="12.00">Documentation/Operator</text>
<text text-anchor="middle" x="790" y="-452.4" font-family="Helvetica,sans-Serif" font-size="12.00">&#45;Console/JSON/JSONNode.h</text>
</a>
</g>
</g>
<!-- Node3&#45;&gt;Node4 -->
<g id="edge3" class="edge"><title>Node3&#45;&gt;Node4</title>
<path fill="none" stroke="midnightblue" d="M790,-506.508C790,-497.303 790,-487.262 790,-479.147"/>
<polygon fill="midnightblue" stroke="midnightblue" points="786.5,-506.765 790,-516.765 793.5,-506.765 786.5,-506.765"/>
</g>
<!-- Node24 -->
<g id="node24" class="node"><title>Node24</title>
<g id="a_node24"><a xlink:href="../../d7/d97/_documentation_2_operator-_console_2_j_s_o_n_2internal_j_s_o_n_node_8cpp.html" target="_top" xlink:title="Documentation/Operator\l&#45;Console/JSON/internalJSONNode.cpp">
<polygon fill="white" stroke="black" points="-0.5,-289 -0.5,-323 220.5,-323 220.5,-289 -0.5,-289"/>
<text text-anchor="start" x="7.5" y="-309.4" font-family="Helvetica,sans-Serif" font-size="12.00">Documentation/Operator</text>
<text text-anchor="middle" x="110" y="-296.4" font-family="Helvetica,sans-Serif" font-size="12.00">&#45;Console/JSON/internalJSONNode.cpp</text>
</a>
</g>
</g>
<!-- Node3&#45;&gt;Node24 -->
<g id="edge41" class="edge"><title>Node3&#45;&gt;Node24</title>
<path fill="none" stroke="midnightblue" d="M675.639,-522.432C516.645,-505.742 239.375,-468.78 160,-408 132.193,-386.707 118.827,-345.812 113.302,-323.137"/>
<polygon fill="midnightblue" stroke="midnightblue" points="675.629,-525.95 685.937,-523.502 676.352,-518.987 675.629,-525.95"/>
</g>
<!-- Node5 -->
<g id="node5" class="node"><title>Node5</title>
<g id="a_node5"><a xlink:href="../../d6/d7b/_documentation_2_operator-_console_2libjson_8h.html" target="_top" xlink:title="Documentation/Operator\l&#45;Console/libjson.h">
<polygon fill="white" stroke="black" points="982.5,-289 982.5,-323 1127.5,-323 1127.5,-289 982.5,-289"/>
<text text-anchor="start" x="990.5" y="-309.4" font-family="Helvetica,sans-Serif" font-size="12.00">Documentation/Operator</text>
<text text-anchor="middle" x="1055" y="-296.4" font-family="Helvetica,sans-Serif" font-size="12.00">&#45;Console/libjson.h</text>
</a>
</g>
</g>
<!-- Node4&#45;&gt;Node5 -->
<g id="edge4" class="edge"><title>Node4&#45;&gt;Node5</title>
<path fill="none" stroke="midnightblue" d="M885.277,-455.688C956.954,-449.465 1046.68,-436.154 1070,-408 1090.02,-383.838 1075.18,-344.805 1064.12,-323.016"/>
<polygon fill="midnightblue" stroke="midnightblue" points="884.966,-452.202 875.291,-456.52 885.548,-459.177 884.966,-452.202"/>
</g>
<!-- Node23 -->
<g id="node23" class="node"><title>Node23</title>
<g id="a_node23"><a xlink:href="../../df/d03/_documentation_2_operator-_console_2_j_s_o_n_2_j_s_o_n_worker_8h.html" target="_top" xlink:title="Documentation/Operator\l&#45;Console/JSON/JSONWorker.h">
<polygon fill="white" stroke="black" points="246,-367 246,-401 426,-401 426,-367 246,-367"/>
<text text-anchor="start" x="254" y="-387.4" font-family="Helvetica,sans-Serif" font-size="12.00">Documentation/Operator</text>
<text text-anchor="middle" x="336" y="-374.4" font-family="Helvetica,sans-Serif" font-size="12.00">&#45;Console/JSON/JSONWorker.h</text>
</a>
</g>
</g>
<!-- Node4&#45;&gt;Node23 -->
<g id="edge26" class="edge"><title>Node4&#45;&gt;Node23</title>
<path fill="none" stroke="midnightblue" d="M694.66,-448.331C624.121,-438.528 525.805,-423.966 440,-408 428.819,-405.92 417.009,-403.511 405.516,-401.053"/>
<polygon fill="midnightblue" stroke="midnightblue" points="694.476,-451.839 704.862,-449.742 695.436,-444.905 694.476,-451.839"/>
</g>
<!-- Node4&#45;&gt;Node24 -->
<g id="edge35" class="edge"><title>Node4&#45;&gt;Node24</title>
<path fill="none" stroke="midnightblue" d="M694.414,-458.366C558.67,-453.522 317.571,-440.528 237,-408 189.718,-388.912 145.809,-346.326 124.14,-323.012"/>
<polygon fill="midnightblue" stroke="midnightblue" points="694.688,-461.878 704.804,-458.729 694.932,-454.882 694.688,-461.878"/>
</g>
<!-- Node27 -->
<g id="node27" class="node"><title>Node27</title>
<g id="a_node27"><a xlink:href="../../d7/dfe/_documentation_2_operator-_console_2_j_s_o_n_2_j_s_o_n_writer_8cpp.html" target="_top" xlink:title="Documentation/Operator\l&#45;Console/JSON/JSONWriter.cpp">
<polygon fill="white" stroke="black" points="663.5,-289 663.5,-323 850.5,-323 850.5,-289 663.5,-289"/>
<text text-anchor="start" x="671.5" y="-309.4" font-family="Helvetica,sans-Serif" font-size="12.00">Documentation/Operator</text>
<text text-anchor="middle" x="757" y="-296.4" font-family="Helvetica,sans-Serif" font-size="12.00">&#45;Console/JSON/JSONWriter.cpp</text>
</a>
</g>
</g>
<!-- Node4&#45;&gt;Node27 -->
<g id="edge40" class="edge"><title>Node4&#45;&gt;Node27</title>
<path fill="none" stroke="midnightblue" d="M694.776,-458.218C611.991,-453.553 501.036,-441.113 473,-408 459.215,-391.719 459.369,-376.41 473,-360 476.14,-356.22 581.911,-337.199 663.453,-323.017"/>
<polygon fill="midnightblue" stroke="midnightblue" points="694.808,-461.725 704.98,-458.762 695.181,-454.735 694.808,-461.725"/>
</g>
<!-- Node28 -->
<g id="node28" class="node"><title>Node28</title>
<g id="a_node28"><a xlink:href="../../d6/de0/_documentation_2_operator-_console_2_j_s_o_n_2_j_s_o_n_preparse_8h.html" target="_top" xlink:title="Documentation/Operator\l&#45;Console/JSON/JSONPreparse.h">
<polygon fill="white" stroke="black" points="1118.5,-367 1118.5,-401 1309.5,-401 1309.5,-367 1118.5,-367"/>
<text text-anchor="start" x="1126.5" y="-387.4" font-family="Helvetica,sans-Serif" font-size="12.00">Documentation/Operator</text>
<text text-anchor="middle" x="1214" y="-374.4" font-family="Helvetica,sans-Serif" font-size="12.00">&#45;Console/JSON/JSONPreparse.h</text>
</a>
</g>
</g>
<!-- Node4&#45;&gt;Node28 -->
<g id="edge32" class="edge"><title>Node4&#45;&gt;Node28</title>
<path fill="none" stroke="midnightblue" d="M885.331,-445.898C947.662,-435.78 1030.8,-421.825 1104,-408 1115.41,-405.846 1127.45,-403.45 1139.23,-401.042"/>
<polygon fill="midnightblue" stroke="midnightblue" points="884.431,-442.498 875.119,-447.552 885.55,-449.408 884.431,-442.498"/>
</g>
<!-- Node4&#45;&gt;Node30 -->
<g id="edge36" class="edge"><title>Node4&#45;&gt;Node30</title>
<path fill="none" stroke="midnightblue" d="M885.447,-454.534C991.501,-446.626 1167.63,-431.342 1318,-408 1330.52,-406.057 1343.77,-403.602 1356.55,-401.025"/>
<polygon fill="midnightblue" stroke="midnightblue" points="885.121,-451.048 875.406,-455.276 885.637,-458.029 885.121,-451.048"/>
</g>
<!-- Node31 -->
<g id="node31" class="node"><title>Node31</title>
<g id="a_node31"><a xlink:href="../../de/dfb/_documentation_2_operator-_console_2_j_s_o_n_2_j_s_o_n_iterators_8cpp.html" target="_top" xlink:title="Documentation/Operator\l&#45;Console/JSON/JSONIterators.cpp">
<polygon fill="white" stroke="black" points="482.5,-367 482.5,-401 679.5,-401 679.5,-367 482.5,-367"/>
<text text-anchor="start" x="490.5" y="-387.4" font-family="Helvetica,sans-Serif" font-size="12.00">Documentation/Operator</text>
<text text-anchor="middle" x="581" y="-374.4" font-family="Helvetica,sans-Serif" font-size="12.00">&#45;Console/JSON/JSONIterators.cpp</text>
</a>
</g>
</g>
<!-- Node4&#45;&gt;Node31 -->
<g id="edge37" class="edge"><title>Node4&#45;&gt;Node31</title>
<path fill="none" stroke="midnightblue" d="M736.464,-441.533C701.908,-428.967 657.506,-412.82 625.008,-401.003"/>
<polygon fill="midnightblue" stroke="midnightblue" points="735.338,-444.847 745.932,-444.975 737.73,-438.268 735.338,-444.847"/>
</g>
<!-- Node32 -->
<g id="node32" class="node"><title>Node32</title>
<g id="a_node32"><a xlink:href="../../db/d8a/_documentation_2_operator-_console_2_j_s_o_n_2_j_s_o_n_node_8cpp.html" target="_top" xlink:title="Documentation/Operator\l&#45;Console/JSON/JSONNode.cpp">
<polygon fill="white" stroke="black" points="698,-367 698,-401 882,-401 882,-367 698,-367"/>
<text text-anchor="start" x="706" y="-387.4" font-family="Helvetica,sans-Serif" font-size="12.00">Documentation/Operator</text>
<text text-anchor="middle" x="790" y="-374.4" font-family="Helvetica,sans-Serif" font-size="12.00">&#45;Console/JSON/JSONNode.cpp</text>
</a>
</g>
</g>
<!-- Node4&#45;&gt;Node32 -->
<g id="edge38" class="edge"><title>Node4&#45;&gt;Node32</title>
<path fill="none" stroke="midnightblue" d="M790,-434.759C790,-423.566 790,-410.864 790,-401.094"/>
<polygon fill="midnightblue" stroke="midnightblue" points="786.5,-434.882 790,-444.882 793.5,-434.882 786.5,-434.882"/>
</g>
<!-- Node33 -->
<g id="node33" class="node"><title>Node33</title>
<g id="a_node33"><a xlink:href="../../d3/d25/_documentation_2_operator-_console_2_j_s_o_n_2_j_s_o_n_node___mutex_8cpp.html" target="_top" xlink:title="Documentation/Operator\l&#45;Console/JSON/JSONNode\l_Mutex.cpp">
<polygon fill="white" stroke="black" points="900.5,-360.5 900.5,-407.5 1061.5,-407.5 1061.5,-360.5 900.5,-360.5"/>
<text text-anchor="start" x="908.5" y="-393.9" font-family="Helvetica,sans-Serif" font-size="12.00">Documentation/Operator</text>
<text text-anchor="start" x="908.5" y="-380.9" font-family="Helvetica,sans-Serif" font-size="12.00">&#45;Console/JSON/JSONNode</text>
<text text-anchor="middle" x="981" y="-367.9" font-family="Helvetica,sans-Serif" font-size="12.00">_Mutex.cpp</text>
</a>
</g>
</g>
<!-- Node4&#45;&gt;Node33 -->
<g id="edge39" class="edge"><title>Node4&#45;&gt;Node33</title>
<path fill="none" stroke="midnightblue" d="M840.1,-441.065C865.926,-430.788 897.527,-418.215 924.251,-407.581"/>
<polygon fill="midnightblue" stroke="midnightblue" points="838.504,-437.933 830.506,-444.882 841.092,-444.437 838.504,-437.933"/>
</g>
<!-- Node6 -->
<g id="node6" class="node"><title>Node6</title>
<g id="a_node6"><a xlink:href="../../d5/dd6/_documentation_2_operator-_console_2_image_test_8h.html" target="_top" xlink:title="Documentation/Operator\l&#45;Console/ImageTest.h">
<polygon fill="white" stroke="black" points="727.5,-217 727.5,-251 872.5,-251 872.5,-217 727.5,-217"/>
<text text-anchor="start" x="735.5" y="-237.4" font-family="Helvetica,sans-Serif" font-size="12.00">Documentation/Operator</text>
<text text-anchor="middle" x="800" y="-224.4" font-family="Helvetica,sans-Serif" font-size="12.00">&#45;Console/ImageTest.h</text>
</a>
</g>
</g>
<!-- Node5&#45;&gt;Node6 -->
<g id="edge5" class="edge"><title>Node5&#45;&gt;Node6</title>
<path fill="none" stroke="midnightblue" d="M986.827,-286.286C946.857,-275.314 896.877,-261.594 858.671,-251.106"/>
<polygon fill="midnightblue" stroke="midnightblue" points="985.928,-289.668 996.498,-288.941 987.781,-282.918 985.928,-289.668"/>
</g>
<!-- Node20 -->
<g id="node20" class="node"><title>Node20</title>
<g id="a_node20"><a xlink:href="../../d6/d7f/_documentation_2_operator-_console_2_s_f_rplus_test_8cpp.html" target="_top" xlink:title="Documentation/Operator\l&#45;Console/SFRplusTest.cpp">
<polygon fill="white" stroke="black" points="923.5,-73 923.5,-107 1080.5,-107 1080.5,-73 923.5,-73"/>
<text text-anchor="start" x="931.5" y="-93.4" font-family="Helvetica,sans-Serif" font-size="12.00">Documentation/Operator</text>
<text text-anchor="middle" x="1002" y="-80.4" font-family="Helvetica,sans-Serif" font-size="12.00">&#45;Console/SFRplusTest.cpp</text>
</a>
</g>
</g>
<!-- Node5&#45;&gt;Node20 -->
<g id="edge25" class="edge"><title>Node5&#45;&gt;Node20</title>
<path fill="none" stroke="midnightblue" d="M1035.99,-280.477C1030.26,-271.903 1024.56,-261.93 1021,-252 1002.87,-201.391 1001.22,-136.678 1001.55,-107.079"/>
<polygon fill="midnightblue" stroke="midnightblue" points="1033.26,-282.682 1041.88,-288.844 1038.99,-278.653 1033.26,-282.682"/>
</g>
<!-- Node21 -->
<g id="node21" class="node"><title>Node21</title>
<g id="a_node21"><a xlink:href="../../d5/d65/_documentation_2_operator-_console_2_j_s_o_n_2libjson_8cpp.html" target="_top" xlink:title="Documentation/Operator\l&#45;Console/JSON/libjson.cpp">
<polygon fill="white" stroke="black" points="1030.5,-217 1030.5,-251 1187.5,-251 1187.5,-217 1030.5,-217"/>
<text text-anchor="start" x="1038.5" y="-237.4" font-family="Helvetica,sans-Serif" font-size="12.00">Documentation/Operator</text>
<text text-anchor="middle" x="1109" y="-224.4" font-family="Helvetica,sans-Serif" font-size="12.00">&#45;Console/JSON/libjson.cpp</text>
</a>
</g>
</g>
<!-- Node5&#45;&gt;Node21 -->
<g id="edge23" class="edge"><title>Node5&#45;&gt;Node21</title>
<path fill="none" stroke="midnightblue" d="M1073.83,-280.593C1081.35,-270.842 1089.81,-259.879 1096.54,-251.147"/>
<polygon fill="midnightblue" stroke="midnightblue" points="1070.86,-278.709 1067.52,-288.765 1076.4,-282.985 1070.86,-278.709"/>
</g>
<!-- Node22 -->
<g id="node22" class="node"><title>Node22</title>
<g id="a_node22"><a xlink:href="../../d0/d59/_documentation_2_operator-_console_2jsonhelpers_8cpp.html" target="_top" xlink:title="Documentation/Operator\l&#45;Console/jsonhelpers.cpp">
<polygon fill="white" stroke="black" points="1205.5,-217 1205.5,-251 1354.5,-251 1354.5,-217 1205.5,-217"/>
<text text-anchor="start" x="1213.5" y="-237.4" font-family="Helvetica,sans-Serif" font-size="12.00">Documentation/Operator</text>
<text text-anchor="middle" x="1280" y="-224.4" font-family="Helvetica,sans-Serif" font-size="12.00">&#45;Console/jsonhelpers.cpp</text>
</a>
</g>
</g>
<!-- Node5&#45;&gt;Node22 -->
<g id="edge24" class="edge"><title>Node5&#45;&gt;Node22</title>
<path fill="none" stroke="midnightblue" d="M1116.27,-285.937C1151.35,-275.024 1194.88,-261.483 1228.23,-251.106"/>
<polygon fill="midnightblue" stroke="midnightblue" points="1115.13,-282.628 1106.62,-288.941 1117.21,-289.312 1115.13,-282.628"/>
</g>
<!-- Node7 -->
<g id="node7" class="node"><title>Node7</title>
<g id="a_node7"><a xlink:href="../../da/df8/_documentation_2_operator-_console_2_blemish_test_8h.html" target="_top" xlink:title="Documentation/Operator\l&#45;Console/BlemishTest.h">
<polygon fill="white" stroke="black" points="626.5,-145 626.5,-179 771.5,-179 771.5,-145 626.5,-145"/>
<text text-anchor="start" x="634.5" y="-165.4" font-family="Helvetica,sans-Serif" font-size="12.00">Documentation/Operator</text>
<text text-anchor="middle" x="699" y="-152.4" font-family="Helvetica,sans-Serif" font-size="12.00">&#45;Console/BlemishTest.h</text>
</a>
</g>
</g>
<!-- Node6&#45;&gt;Node7 -->
<g id="edge6" class="edge"><title>Node6&#45;&gt;Node7</title>
<path fill="none" stroke="midnightblue" d="M768.411,-211.107C753.531,-200.793 736.09,-188.706 722.413,-179.227"/>
<polygon fill="midnightblue" stroke="midnightblue" points="766.616,-214.121 776.829,-216.941 770.603,-208.368 766.616,-214.121"/>
</g>
<!-- Node8 -->
<g id="node8" class="node"><title>Node8</title>
<g id="a_node8"><a xlink:href="../../da/d65/_documentation_2_operator-_console_2_operator_console_8h.html" target="_top" xlink:title="Documentation/Operator\l&#45;Console/OperatorConsole.h">
<polygon fill="white" stroke="black" points="739,-73 739,-107 905,-107 905,-73 739,-73"/>
<text text-anchor="start" x="747" y="-93.4" font-family="Helvetica,sans-Serif" font-size="12.00">Documentation/Operator</text>
<text text-anchor="middle" x="822" y="-80.4" font-family="Helvetica,sans-Serif" font-size="12.00">&#45;Console/OperatorConsole.h</text>
</a>
</g>
</g>
<!-- Node6&#45;&gt;Node8 -->
<g id="edge18" class="edge"><title>Node6&#45;&gt;Node8</title>
<path fill="none" stroke="midnightblue" d="M804.071,-206.726C808.587,-177.574 815.733,-131.451 819.494,-107.173"/>
<polygon fill="midnightblue" stroke="midnightblue" points="800.553,-206.569 802.481,-216.987 807.471,-207.641 800.553,-206.569"/>
</g>
<!-- Node11 -->
<g id="node11" class="node"><title>Node11</title>
<g id="a_node11"><a xlink:href="../../da/df9/_documentation_2_operator-_console_2_image_test_8cpp.html" target="_top" xlink:title="Documentation/Operator\l&#45;Console/ImageTest.cpp">
<polygon fill="white" stroke="black" points="138.5,-1 138.5,-35 283.5,-35 283.5,-1 138.5,-1"/>
<text text-anchor="start" x="146.5" y="-21.4" font-family="Helvetica,sans-Serif" font-size="12.00">Documentation/Operator</text>
<text text-anchor="middle" x="211" y="-8.4" font-family="Helvetica,sans-Serif" font-size="12.00">&#45;Console/ImageTest.cpp</text>
</a>
</g>
</g>
<!-- Node6&#45;&gt;Node11 -->
<g id="edge22" class="edge"><title>Node6&#45;&gt;Node11</title>
<path fill="none" stroke="midnightblue" d="M729.079,-214.163C694.954,-204.668 653.601,-192.525 617,-180 478.898,-132.74 318.922,-65.5199 248.057,-35.0801"/>
<polygon fill="midnightblue" stroke="midnightblue" points="728.39,-217.604 738.961,-216.896 730.256,-210.858 728.39,-217.604"/>
</g>
<!-- Node19 -->
<g id="node19" class="node"><title>Node19</title>
<g id="a_node19"><a xlink:href="../../d5/d79/_documentation_2_operator-_console_2_s_f_rplus_test_8h.html" target="_top" xlink:title="Documentation/Operator\l&#45;Console/SFRplusTest.h">
<polygon fill="white" stroke="black" points="828.5,-145 828.5,-179 973.5,-179 973.5,-145 828.5,-145"/>
<text text-anchor="start" x="836.5" y="-165.4" font-family="Helvetica,sans-Serif" font-size="12.00">Documentation/Operator</text>
<text text-anchor="middle" x="901" y="-152.4" font-family="Helvetica,sans-Serif" font-size="12.00">&#45;Console/SFRplusTest.h</text>
</a>
</g>
</g>
<!-- Node6&#45;&gt;Node19 -->
<g id="edge19" class="edge"><title>Node6&#45;&gt;Node19</title>
<path fill="none" stroke="midnightblue" d="M831.589,-211.107C846.469,-200.793 863.91,-188.706 877.587,-179.227"/>
<polygon fill="midnightblue" stroke="midnightblue" points="829.397,-208.368 823.171,-216.941 833.384,-214.121 829.397,-208.368"/>
</g>
<!-- Node7&#45;&gt;Node8 -->
<g id="edge7" class="edge"><title>Node7&#45;&gt;Node8</title>
<path fill="none" stroke="midnightblue" d="M735.953,-139.97C754.397,-129.473 776.364,-116.972 793.487,-107.227"/>
<polygon fill="midnightblue" stroke="midnightblue" points="734.179,-136.952 727.219,-144.941 737.641,-143.036 734.179,-136.952"/>
</g>
<!-- Node18 -->
<g id="node18" class="node"><title>Node18</title>
<g id="a_node18"><a xlink:href="../../dc/d58/_documentation_2_operator-_console_2_blemish_test_8cpp.html" target="_top" xlink:title="Documentation/Operator\l&#45;Console/BlemishTest.cpp">
<polygon fill="white" stroke="black" points="567,-73 567,-107 721,-107 721,-73 567,-73"/>
<text text-anchor="start" x="575" y="-93.4" font-family="Helvetica,sans-Serif" font-size="12.00">Documentation/Operator</text>
<text text-anchor="middle" x="644" y="-80.4" font-family="Helvetica,sans-Serif" font-size="12.00">&#45;Console/BlemishTest.cpp</text>
</a>
</g>
</g>
<!-- Node7&#45;&gt;Node18 -->
<g id="edge17" class="edge"><title>Node7&#45;&gt;Node18</title>
<path fill="none" stroke="midnightblue" d="M680.055,-136.889C672.336,-127.064 663.617,-115.967 656.687,-107.147"/>
<polygon fill="midnightblue" stroke="midnightblue" points="677.313,-139.064 686.244,-144.765 682.818,-134.739 677.313,-139.064"/>
</g>
<!-- Node9 -->
<g id="node9" class="node"><title>Node9</title>
<g id="a_node9"><a xlink:href="../../d7/d4b/_documentation_2_operator-_console_2_app_thread_8cpp.html" target="_top" xlink:title="Documentation/Operator\l&#45;Console/AppThread.cpp">
<polygon fill="white" stroke="black" points="1563,-1 1563,-35 1711,-35 1711,-1 1563,-1"/>
<text text-anchor="start" x="1571" y="-21.4" font-family="Helvetica,sans-Serif" font-size="12.00">Documentation/Operator</text>
<text text-anchor="middle" x="1637" y="-8.4" font-family="Helvetica,sans-Serif" font-size="12.00">&#45;Console/AppThread.cpp</text>
</a>
</g>
</g>
<!-- Node8&#45;&gt;Node9 -->
<g id="edge8" class="edge"><title>Node8&#45;&gt;Node9</title>
<path fill="none" stroke="midnightblue" d="M915.323,-71.94C1198.2,-38.8813 1274.18,-71.8796 1553,-36 1556.25,-35.5822 1559.56,-35.1107 1562.89,-34.5977"/>
<polygon fill="midnightblue" stroke="midnightblue" points="914.691,-68.4904 905.173,-73.1441 915.515,-75.4417 914.691,-68.4904"/>
</g>
<!-- Node10 -->
<g id="node10" class="node"><title>Node10</title>
<g id="a_node10"><a xlink:href="../../de/d31/_documentation_2_operator-_console_2_critical_buf_8cpp.html" target="_top" xlink:title="Documentation/Operator\l&#45;Console/CriticalBuf.cpp">
<polygon fill="white" stroke="black" points="301.5,-1 301.5,-35 446.5,-35 446.5,-1 301.5,-1"/>
<text text-anchor="start" x="309.5" y="-21.4" font-family="Helvetica,sans-Serif" font-size="12.00">Documentation/Operator</text>
<text text-anchor="middle" x="374" y="-8.4" font-family="Helvetica,sans-Serif" font-size="12.00">&#45;Console/CriticalBuf.cpp</text>
</a>
</g>
</g>
<!-- Node8&#45;&gt;Node10 -->
<g id="edge9" class="edge"><title>Node8&#45;&gt;Node10</title>
<path fill="none" stroke="midnightblue" d="M728.699,-71.8443C606.953,-53.01 573.912,-55.9406 456,-36 452.99,-35.4909 449.921,-34.9509 446.825,-34.3886"/>
<polygon fill="midnightblue" stroke="midnightblue" points="728.368,-75.335 738.789,-73.4232 729.45,-68.4192 728.368,-75.335"/>
</g>
<!-- Node8&#45;&gt;Node11 -->
<g id="edge10" class="edge"><title>Node8&#45;&gt;Node11</title>
<path fill="none" stroke="midnightblue" d="M728.857,-71.9319C534.65,-46.803 482.08,-63.6479 292,-36 289.298,-35.607 286.552,-35.1788 283.781,-34.7226"/>
<polygon fill="midnightblue" stroke="midnightblue" points="728.444,-75.4076 738.815,-73.2408 729.357,-68.4673 728.444,-75.4076"/>
</g>
<!-- Node12 -->
<g id="node12" class="node"><title>Node12</title>
<g id="a_node12"><a xlink:href="../../d4/d9c/_msg_dialog_8cpp.html" target="_top" xlink:title="Documentation/Operator\l&#45;Console/MsgDialog.cpp">
<polygon fill="white" stroke="black" points="465,-1 465,-35 611,-35 611,-1 465,-1"/>
<text text-anchor="start" x="473" y="-21.4" font-family="Helvetica,sans-Serif" font-size="12.00">Documentation/Operator</text>
<text text-anchor="middle" x="538" y="-8.4" font-family="Helvetica,sans-Serif" font-size="12.00">&#45;Console/MsgDialog.cpp</text>
</a>
</g>
</g>
<!-- Node8&#45;&gt;Node12 -->
<g id="edge11" class="edge"><title>Node8&#45;&gt;Node12</title>
<path fill="none" stroke="midnightblue" d="M746.92,-70.4944C702.265,-59.488 646.164,-45.6601 603.343,-35.1057"/>
<polygon fill="midnightblue" stroke="midnightblue" points="746.298,-73.9456 756.845,-72.9406 747.973,-67.149 746.298,-73.9456"/>
</g>
<!-- Node13 -->
<g id="node13" class="node"><title>Node13</title>
<g id="a_node13"><a xlink:href="../../db/db5/_documentation_2_operator-_console_2_operator_console_8cpp.html" target="_top" xlink:title="Documentation/Operator\l&#45;Console/OperatorConsole.cpp">
<polygon fill="white" stroke="black" points="629.5,-1 629.5,-35 808.5,-35 808.5,-1 629.5,-1"/>
<text text-anchor="start" x="637.5" y="-21.4" font-family="Helvetica,sans-Serif" font-size="12.00">Documentation/Operator</text>
<text text-anchor="middle" x="719" y="-8.4" font-family="Helvetica,sans-Serif" font-size="12.00">&#45;Console/OperatorConsole.cpp</text>
</a>
</g>
</g>
<!-- Node8&#45;&gt;Node13 -->
<g id="edge12" class="edge"><title>Node8&#45;&gt;Node13</title>
<path fill="none" stroke="midnightblue" d="M789.785,-67.1066C774.61,-56.7935 756.824,-44.7058 742.877,-35.2271"/>
<polygon fill="midnightblue" stroke="midnightblue" points="788.132,-70.2144 798.37,-72.9406 792.066,-64.4249 788.132,-70.2144"/>
</g>
<!-- Node14 -->
<g id="node14" class="node"><title>Node14</title>
<g id="a_node14"><a xlink:href="../../dd/dcb/_documentation_2_operator-_console_2_operator_console_dlg_8cpp.html" target="_top" xlink:title="Documentation/Operator\l&#45;Console/OperatorConsoleDlg.cpp">
<polygon fill="white" stroke="black" points="826.5,-1 826.5,-35 1023.5,-35 1023.5,-1 826.5,-1"/>
<text text-anchor="start" x="834.5" y="-21.4" font-family="Helvetica,sans-Serif" font-size="12.00">Documentation/Operator</text>
<text text-anchor="middle" x="925" y="-8.4" font-family="Helvetica,sans-Serif" font-size="12.00">&#45;Console/OperatorConsoleDlg.cpp</text>
</a>
</g>
</g>
<!-- Node8&#45;&gt;Node14 -->
<g id="edge13" class="edge"><title>Node8&#45;&gt;Node14</title>
<path fill="none" stroke="midnightblue" d="M854.215,-67.1066C869.39,-56.7935 887.176,-44.7058 901.123,-35.2271"/>
<polygon fill="midnightblue" stroke="midnightblue" points="851.934,-64.4249 845.63,-72.9406 855.868,-70.2144 851.934,-64.4249"/>
</g>
<!-- Node15 -->
<g id="node15" class="node"><title>Node15</title>
<g id="a_node15"><a xlink:href="../../dd/d14/_documentation_2_operator-_console_2_pass_fail_8cpp.html" target="_top" xlink:title="Documentation/Operator\l&#45;Console/PassFail.cpp">
<polygon fill="white" stroke="black" points="1041.5,-1 1041.5,-35 1186.5,-35 1186.5,-1 1041.5,-1"/>
<text text-anchor="start" x="1049.5" y="-21.4" font-family="Helvetica,sans-Serif" font-size="12.00">Documentation/Operator</text>
<text text-anchor="middle" x="1114" y="-8.4" font-family="Helvetica,sans-Serif" font-size="12.00">&#45;Console/PassFail.cpp</text>
</a>
</g>
</g>
<!-- Node8&#45;&gt;Node15 -->
<g id="edge14" class="edge"><title>Node8&#45;&gt;Node15</title>
<path fill="none" stroke="midnightblue" d="M898.924,-70.5594C944.968,-59.5214 1002.92,-45.628 1047.07,-35.0452"/>
<polygon fill="midnightblue" stroke="midnightblue" points="897.899,-67.2057 888.991,-72.9406 899.531,-74.0129 897.899,-67.2057"/>
</g>
<!-- Node16 -->
<g id="node16" class="node"><title>Node16</title>
<g id="a_node16"><a xlink:href="../../dd/d4b/_documentation_2_operator-_console_2_password_dialog_8cpp.html" target="_top" xlink:title="Documentation/Operator\l&#45;Console/PasswordDialog.cpp">
<polygon fill="white" stroke="black" points="1205,-1 1205,-35 1381,-35 1381,-1 1205,-1"/>
<text text-anchor="start" x="1213" y="-21.4" font-family="Helvetica,sans-Serif" font-size="12.00">Documentation/Operator</text>
<text text-anchor="middle" x="1293" y="-8.4" font-family="Helvetica,sans-Serif" font-size="12.00">&#45;Console/PasswordDialog.cpp</text>
</a>
</g>
</g>
<!-- Node8&#45;&gt;Node16 -->
<g id="edge15" class="edge"><title>Node8&#45;&gt;Node16</title>
<path fill="none" stroke="midnightblue" d="M915.162,-71.8663C1040.09,-52.652 1073.66,-54.2882 1195,-36 1198.24,-35.511 1201.55,-35.001 1204.88,-34.4757"/>
<polygon fill="midnightblue" stroke="midnightblue" points="914.554,-68.4187 905.209,-73.4112 915.628,-75.3359 914.554,-68.4187"/>
</g>
<!-- Node17 -->
<g id="node17" class="node"><title>Node17</title>
<g id="a_node17"><a xlink:href="../../d3/d68/_documentation_2_operator-_console_2_setup_8cpp.html" target="_top" xlink:title="Documentation/Operator\l&#45;Console/Setup.cpp">
<polygon fill="white" stroke="black" points="1399.5,-1 1399.5,-35 1544.5,-35 1544.5,-1 1399.5,-1"/>
<text text-anchor="start" x="1407.5" y="-21.4" font-family="Helvetica,sans-Serif" font-size="12.00">Documentation/Operator</text>
<text text-anchor="middle" x="1472" y="-8.4" font-family="Helvetica,sans-Serif" font-size="12.00">&#45;Console/Setup.cpp</text>
</a>
</g>
</g>
<!-- Node8&#45;&gt;Node17 -->
<g id="edge16" class="edge"><title>Node8&#45;&gt;Node17</title>
<path fill="none" stroke="midnightblue" d="M915.339,-71.9148C1126.17,-45.3265 1183.2,-65.1333 1390,-36 1393.02,-35.5741 1396.1,-35.1037 1399.21,-34.5989"/>
<polygon fill="midnightblue" stroke="midnightblue" points="914.656,-68.4736 905.182,-73.2163 915.545,-75.4168 914.656,-68.4736"/>
</g>
<!-- Node19&#45;&gt;Node8 -->
<g id="edge20" class="edge"><title>Node19&#45;&gt;Node8</title>
<path fill="none" stroke="midnightblue" d="M875.112,-138.061C863.706,-127.955 850.575,-116.32 840.223,-107.147"/>
<polygon fill="midnightblue" stroke="midnightblue" points="872.872,-140.752 882.677,-144.765 877.514,-135.513 872.872,-140.752"/>
</g>
<!-- Node19&#45;&gt;Node20 -->
<g id="edge21" class="edge"><title>Node19&#45;&gt;Node20</title>
<path fill="none" stroke="midnightblue" d="M932.589,-139.107C947.469,-128.793 964.91,-116.706 978.587,-107.227"/>
<polygon fill="midnightblue" stroke="midnightblue" points="930.397,-136.368 924.171,-144.941 934.384,-142.121 930.397,-136.368"/>
</g>
<!-- Node23&#45;&gt;Node5 -->
<g id="edge27" class="edge"><title>Node23&#45;&gt;Node5</title>
<path fill="none" stroke="midnightblue" d="M435.466,-365.396C448.079,-363.431 460.827,-361.574 473,-360 522.336,-353.621 837.671,-325.909 982.478,-313.295"/>
<polygon fill="midnightblue" stroke="midnightblue" points="434.722,-361.971 425.394,-366.993 435.818,-368.884 434.722,-361.971"/>
</g>
<!-- Node23&#45;&gt;Node24 -->
<g id="edge28" class="edge"><title>Node23&#45;&gt;Node24</title>
<path fill="none" stroke="midnightblue" d="M278.588,-363.693C241.153,-351.105 192.879,-334.871 157.587,-323.003"/>
<polygon fill="midnightblue" stroke="midnightblue" points="277.753,-367.105 288.347,-366.975 279.985,-360.47 277.753,-367.105"/>
</g>
<!-- Node25 -->
<g id="node25" class="node"><title>Node25</title>
<g id="a_node25"><a xlink:href="../../d5/de0/_documentation_2_operator-_console_2_j_s_o_n_2_j_s_o_n_stream_8cpp.html" target="_top" xlink:title="Documentation/Operator\l&#45;Console/JSON/JSONStream.cpp">
<polygon fill="white" stroke="black" points="451,-289 451,-323 645,-323 645,-289 451,-289"/>
<text text-anchor="start" x="459" y="-309.4" font-family="Helvetica,sans-Serif" font-size="12.00">Documentation/Operator</text>
<text text-anchor="middle" x="548" y="-296.4" font-family="Helvetica,sans-Serif" font-size="12.00">&#45;Console/JSON/JSONStream.cpp</text>
</a>
</g>
</g>
<!-- Node23&#45;&gt;Node25 -->
<g id="edge29" class="edge"><title>Node23&#45;&gt;Node25</title>
<path fill="none" stroke="midnightblue" d="M390.304,-363.533C425.356,-350.967 470.396,-334.82 503.36,-323.003"/>
<polygon fill="midnightblue" stroke="midnightblue" points="388.933,-360.306 380.701,-366.975 391.295,-366.895 388.933,-360.306"/>
</g>
<!-- Node26 -->
<g id="node26" class="node"><title>Node26</title>
<g id="a_node26"><a xlink:href="../../db/d60/_documentation_2_operator-_console_2_j_s_o_n_2_j_s_o_n_worker_8cpp.html" target="_top" xlink:title="Documentation/Operator\l&#45;Console/JSON/JSONWorker.cpp">
<polygon fill="white" stroke="black" points="239,-289 239,-323 433,-323 433,-289 239,-289"/>
<text text-anchor="start" x="247" y="-309.4" font-family="Helvetica,sans-Serif" font-size="12.00">Documentation/Operator</text>
<text text-anchor="middle" x="336" y="-296.4" font-family="Helvetica,sans-Serif" font-size="12.00">&#45;Console/JSON/JSONWorker.cpp</text>
</a>
</g>
</g>
<!-- Node23&#45;&gt;Node26 -->
<g id="edge30" class="edge"><title>Node23&#45;&gt;Node26</title>
<path fill="none" stroke="midnightblue" d="M336,-356.759C336,-345.566 336,-332.864 336,-323.094"/>
<polygon fill="midnightblue" stroke="midnightblue" points="332.5,-356.882 336,-366.882 339.5,-356.882 332.5,-356.882"/>
</g>
<!-- Node23&#45;&gt;Node27 -->
<g id="edge31" class="edge"><title>Node23&#45;&gt;Node27</title>
<path fill="none" stroke="midnightblue" d="M415.965,-364.876C424.072,-363.17 432.192,-361.515 440,-360 451.041,-357.858 573.943,-337.386 663.408,-322.526"/>
<polygon fill="midnightblue" stroke="midnightblue" points="415.157,-361.469 406.105,-366.975 416.614,-368.316 415.157,-361.469"/>
</g>
<!-- Node28&#45;&gt;Node5 -->
<g id="edge33" class="edge"><title>Node28&#45;&gt;Node5</title>
<path fill="none" stroke="midnightblue" d="M1171.07,-362.481C1145.19,-350.109 1112.69,-334.576 1088.67,-323.094"/>
<polygon fill="midnightblue" stroke="midnightblue" points="1169.75,-365.728 1180.28,-366.882 1172.77,-359.412 1169.75,-365.728"/>
</g>
<!-- Node29 -->
<g id="node29" class="node"><title>Node29</title>
<g id="a_node29"><a xlink:href="../../d1/d1c/_documentation_2_operator-_console_2_j_s_o_n_2_j_s_o_n_preparse_8cpp.html" target="_top" xlink:title="Documentation/Operator\l&#45;Console/JSON/JSONPreparse.cpp">
<polygon fill="white" stroke="black" points="1146,-289 1146,-323 1350,-323 1350,-289 1146,-289"/>
<text text-anchor="start" x="1154" y="-309.4" font-family="Helvetica,sans-Serif" font-size="12.00">Documentation/Operator</text>
<text text-anchor="middle" x="1248" y="-296.4" font-family="Helvetica,sans-Serif" font-size="12.00">&#45;Console/JSON/JSONPreparse.cpp</text>
</a>
</g>
</g>
<!-- Node28&#45;&gt;Node29 -->
<g id="edge34" class="edge"><title>Node28&#45;&gt;Node29</title>
<path fill="none" stroke="midnightblue" d="M1225.43,-357.449C1230.51,-346.091 1236.34,-333.065 1240.8,-323.094"/>
<polygon fill="midnightblue" stroke="midnightblue" points="1222.1,-356.325 1221.21,-366.882 1228.49,-359.183 1222.1,-356.325"/>
</g>
</g>
</svg>
