<?xml version="1.0" encoding="UTF-8" standalone="no"?>
<!DOCTYPE svg PUBLIC "-//W3C//DTD SVG 1.1//EN"
 "http://www.w3.org/Graphics/SVG/1.1/DTD/svg11.dtd">
<!-- Generated by graphviz version 2.34.0 (20130907.0111)
 -->
<!-- Title: Documentation/Operator&#45;Console/CriticalCString.h Pages: 1 -->
<svg width="1580pt" height="332pt"
 viewBox="0.00 0.00 1580.00 332.00" xmlns="http://www.w3.org/2000/svg" xmlns:xlink="http://www.w3.org/1999/xlink">
<g id="graph0" class="graph" transform="scale(1 1) rotate(0) translate(4 328)">
<title>Documentation/Operator&#45;Console/CriticalCString.h</title>
<polygon fill="white" stroke="white" points="-4,4 -4,-328 1576,-328 1576,4 -4,4"/>
<!-- Node1 -->
<g id="node1" class="node"><title>Node1</title>
<polygon fill="#bfbfbf" stroke="black" points="706,-289 706,-323 858,-323 858,-289 706,-289"/>
<text text-anchor="start" x="714" y="-309.4" font-family="Helvetica,sans-Serif" font-size="12.00">Documentation/Operator</text>
<text text-anchor="middle" x="782" y="-296.4" font-family="Helvetica,sans-Serif" font-size="12.00">&#45;Console/CriticalCString.h</text>
</g>
<!-- Node2 -->
<g id="node2" class="node"><title>Node2</title>
<g id="a_node2"><a xlink:href="../../d5/dd6/_documentation_2_operator-_console_2_image_test_8h.html" target="_top" xlink:title="Documentation/Operator\l&#45;Console/ImageTest.h">
<polygon fill="white" stroke="black" points="504.5,-217 504.5,-251 649.5,-251 649.5,-217 504.5,-217"/>
<text text-anchor="start" x="512.5" y="-237.4" font-family="Helvetica,sans-Serif" font-size="12.00">Documentation/Operator</text>
<text text-anchor="middle" x="577" y="-224.4" font-family="Helvetica,sans-Serif" font-size="12.00">&#45;Console/ImageTest.h</text>
</a>
</g>
</g>
<!-- Node1&#45;&gt;Node2 -->
<g id="edge1" class="edge"><title>Node1&#45;&gt;Node2</title>
<path fill="none" stroke="midnightblue" d="M725.352,-285.657C693.536,-274.793 654.297,-261.394 624.167,-251.106"/>
<polygon fill="midnightblue" stroke="midnightblue" points="724.374,-289.021 734.969,-288.941 726.636,-282.397 724.374,-289.021"/>
</g>
<!-- Node17 -->
<g id="node17" class="node"><title>Node17</title>
<g id="a_node17"><a xlink:href="../../d7/de1/_documentation_2_operator-_console_2_stdout_thread_8h.html" target="_top" xlink:title="Documentation/Operator\l&#45;Console/StdoutThread.h">
<polygon fill="white" stroke="black" points="709,-217 709,-251 855,-251 855,-217 709,-217"/>
<text text-anchor="start" x="717" y="-237.4" font-family="Helvetica,sans-Serif" font-size="12.00">Documentation/Operator</text>
<text text-anchor="middle" x="782" y="-224.4" font-family="Helvetica,sans-Serif" font-size="12.00">&#45;Console/StdoutThread.h</text>
</a>
</g>
</g>
<!-- Node1&#45;&gt;Node17 -->
<g id="edge19" class="edge"><title>Node1&#45;&gt;Node17</title>
<path fill="none" stroke="midnightblue" d="M782,-278.508C782,-269.303 782,-259.262 782,-251.147"/>
<polygon fill="midnightblue" stroke="midnightblue" points="778.5,-278.765 782,-288.765 785.5,-278.765 778.5,-278.765"/>
</g>
<!-- Node21 -->
<g id="node21" class="node"><title>Node21</title>
<g id="a_node21"><a xlink:href="../../d2/db8/_documentation_2_operator-_console_2_critical_c_string_8cpp.html" target="_top" xlink:title="Documentation/Operator\l&#45;Console/CriticalCString.cpp">
<polygon fill="white" stroke="black" points="873,-217 873,-251 1039,-251 1039,-217 873,-217"/>
<text text-anchor="start" x="881" y="-237.4" font-family="Helvetica,sans-Serif" font-size="12.00">Documentation/Operator</text>
<text text-anchor="middle" x="956" y="-224.4" font-family="Helvetica,sans-Serif" font-size="12.00">&#45;Console/CriticalCString.cpp</text>
</a>
</g>
</g>
<!-- Node1&#45;&gt;Node21 -->
<g id="edge25" class="edge"><title>Node1&#45;&gt;Node21</title>
<path fill="none" stroke="midnightblue" d="M831.484,-285.093C858.233,-274.332 890.833,-261.217 915.966,-251.106"/>
<polygon fill="midnightblue" stroke="midnightblue" points="829.89,-281.961 821.919,-288.941 832.503,-288.455 829.89,-281.961"/>
</g>
<!-- Node3 -->
<g id="node3" class="node"><title>Node3</title>
<g id="a_node3"><a xlink:href="../../da/df8/_documentation_2_operator-_console_2_blemish_test_8h.html" target="_top" xlink:title="Documentation/Operator\l&#45;Console/BlemishTest.h">
<polygon fill="white" stroke="black" points="504.5,-145 504.5,-179 649.5,-179 649.5,-145 504.5,-145"/>
<text text-anchor="start" x="512.5" y="-165.4" font-family="Helvetica,sans-Serif" font-size="12.00">Documentation/Operator</text>
<text text-anchor="middle" x="577" y="-152.4" font-family="Helvetica,sans-Serif" font-size="12.00">&#45;Console/BlemishTest.h</text>
</a>
</g>
</g>
<!-- Node2&#45;&gt;Node3 -->
<g id="edge2" class="edge"><title>Node2&#45;&gt;Node3</title>
<path fill="none" stroke="midnightblue" d="M577,-206.508C577,-197.303 577,-187.262 577,-179.147"/>
<polygon fill="midnightblue" stroke="midnightblue" points="573.5,-206.765 577,-216.765 580.5,-206.765 573.5,-206.765"/>
</g>
<!-- Node4 -->
<g id="node4" class="node"><title>Node4</title>
<g id="a_node4"><a xlink:href="../../da/d65/_documentation_2_operator-_console_2_operator_console_8h.html" target="_top" xlink:title="Documentation/Operator\l&#45;Console/OperatorConsole.h">
<polygon fill="white" stroke="black" points="653,-73 653,-107 819,-107 819,-73 653,-73"/>
<text text-anchor="start" x="661" y="-93.4" font-family="Helvetica,sans-Serif" font-size="12.00">Documentation/Operator</text>
<text text-anchor="middle" x="736" y="-80.4" font-family="Helvetica,sans-Serif" font-size="12.00">&#45;Console/OperatorConsole.h</text>
</a>
</g>
</g>
<!-- Node2&#45;&gt;Node4 -->
<g id="edge14" class="edge"><title>Node2&#45;&gt;Node4</title>
<path fill="none" stroke="midnightblue" d="M614.325,-211.557C628.607,-202.604 644.657,-191.592 658,-180 684.057,-157.363 709.506,-126.108 723.923,-107.295"/>
<polygon fill="midnightblue" stroke="midnightblue" points="612.392,-208.637 605.701,-216.852 616.054,-214.602 612.392,-208.637"/>
</g>
<!-- Node7 -->
<g id="node7" class="node"><title>Node7</title>
<g id="a_node7"><a xlink:href="../../da/df9/_documentation_2_operator-_console_2_image_test_8cpp.html" target="_top" xlink:title="Documentation/Operator\l&#45;Console/ImageTest.cpp">
<polygon fill="white" stroke="black" points="-0.5,-1 -0.5,-35 144.5,-35 144.5,-1 -0.5,-1"/>
<text text-anchor="start" x="7.5" y="-21.4" font-family="Helvetica,sans-Serif" font-size="12.00">Documentation/Operator</text>
<text text-anchor="middle" x="72" y="-8.4" font-family="Helvetica,sans-Serif" font-size="12.00">&#45;Console/ImageTest.cpp</text>
</a>
</g>
</g>
<!-- Node2&#45;&gt;Node7 -->
<g id="edge18" class="edge"><title>Node2&#45;&gt;Node7</title>
<path fill="none" stroke="midnightblue" d="M494.185,-222.298C445.703,-214.278 383.99,-200.991 332,-180 235.753,-141.14 134.878,-67.7381 92.5738,-35.2147"/>
<polygon fill="midnightblue" stroke="midnightblue" points="493.892,-225.796 504.321,-223.93 495.005,-218.885 493.892,-225.796"/>
</g>
<!-- Node15 -->
<g id="node15" class="node"><title>Node15</title>
<g id="a_node15"><a xlink:href="../../d5/d79/_documentation_2_operator-_console_2_s_f_rplus_test_8h.html" target="_top" xlink:title="Documentation/Operator\l&#45;Console/SFRplusTest.h">
<polygon fill="white" stroke="black" points="341.5,-145 341.5,-179 486.5,-179 486.5,-145 341.5,-145"/>
<text text-anchor="start" x="349.5" y="-165.4" font-family="Helvetica,sans-Serif" font-size="12.00">Documentation/Operator</text>
<text text-anchor="middle" x="414" y="-152.4" font-family="Helvetica,sans-Serif" font-size="12.00">&#45;Console/SFRplusTest.h</text>
</a>
</g>
</g>
<!-- Node2&#45;&gt;Node15 -->
<g id="edge15" class="edge"><title>Node2&#45;&gt;Node15</title>
<path fill="none" stroke="midnightblue" d="M530.314,-212.951C505.319,-202.217 474.944,-189.172 451.503,-179.106"/>
<polygon fill="midnightblue" stroke="midnightblue" points="529.035,-216.211 539.605,-216.941 531.797,-209.779 529.035,-216.211"/>
</g>
<!-- Node3&#45;&gt;Node4 -->
<g id="edge3" class="edge"><title>Node3&#45;&gt;Node4</title>
<path fill="none" stroke="midnightblue" d="M622.863,-140.809C647.183,-130.102 676.652,-117.128 699.417,-107.106"/>
<polygon fill="midnightblue" stroke="midnightblue" points="621.22,-137.708 613.478,-144.941 624.04,-144.115 621.22,-137.708"/>
</g>
<!-- Node14 -->
<g id="node14" class="node"><title>Node14</title>
<g id="a_node14"><a xlink:href="../../dc/d58/_documentation_2_operator-_console_2_blemish_test_8cpp.html" target="_top" xlink:title="Documentation/Operator\l&#45;Console/BlemishTest.cpp">
<polygon fill="white" stroke="black" points="481,-73 481,-107 635,-107 635,-73 481,-73"/>
<text text-anchor="start" x="489" y="-93.4" font-family="Helvetica,sans-Serif" font-size="12.00">Documentation/Operator</text>
<text text-anchor="middle" x="558" y="-80.4" font-family="Helvetica,sans-Serif" font-size="12.00">&#45;Console/BlemishTest.cpp</text>
</a>
</g>
</g>
<!-- Node3&#45;&gt;Node14 -->
<g id="edge13" class="edge"><title>Node3&#45;&gt;Node14</title>
<path fill="none" stroke="midnightblue" d="M569.972,-135.107C567.429,-125.74 564.633,-115.438 562.383,-107.147"/>
<polygon fill="midnightblue" stroke="midnightblue" points="566.596,-136.031 572.593,-144.765 573.351,-134.197 566.596,-136.031"/>
</g>
<!-- Node5 -->
<g id="node5" class="node"><title>Node5</title>
<g id="a_node5"><a xlink:href="../../d7/d4b/_documentation_2_operator-_console_2_app_thread_8cpp.html" target="_top" xlink:title="Documentation/Operator\l&#45;Console/AppThread.cpp">
<polygon fill="white" stroke="black" points="1096,-1 1096,-35 1244,-35 1244,-1 1096,-1"/>
<text text-anchor="start" x="1104" y="-21.4" font-family="Helvetica,sans-Serif" font-size="12.00">Documentation/Operator</text>
<text text-anchor="middle" x="1170" y="-8.4" font-family="Helvetica,sans-Serif" font-size="12.00">&#45;Console/AppThread.cpp</text>
</a>
</g>
</g>
<!-- Node4&#45;&gt;Node5 -->
<g id="edge4" class="edge"><title>Node4&#45;&gt;Node5</title>
<path fill="none" stroke="midnightblue" d="M829.488,-76.1235C900.104,-66.087 999.334,-51.322 1086,-36 1089.22,-35.4301 1092.51,-34.8326 1095.83,-34.2165"/>
<polygon fill="midnightblue" stroke="midnightblue" points="828.692,-72.7013 819.282,-77.5695 829.674,-79.632 828.692,-72.7013"/>
</g>
<!-- Node6 -->
<g id="node6" class="node"><title>Node6</title>
<g id="a_node6"><a xlink:href="../../de/d31/_documentation_2_operator-_console_2_critical_buf_8cpp.html" target="_top" xlink:title="Documentation/Operator\l&#45;Console/CriticalBuf.cpp">
<polygon fill="white" stroke="black" points="1262.5,-1 1262.5,-35 1407.5,-35 1407.5,-1 1262.5,-1"/>
<text text-anchor="start" x="1270.5" y="-21.4" font-family="Helvetica,sans-Serif" font-size="12.00">Documentation/Operator</text>
<text text-anchor="middle" x="1335" y="-8.4" font-family="Helvetica,sans-Serif" font-size="12.00">&#45;Console/CriticalBuf.cpp</text>
</a>
</g>
</g>
<!-- Node4&#45;&gt;Node6 -->
<g id="edge5" class="edge"><title>Node4&#45;&gt;Node6</title>
<path fill="none" stroke="midnightblue" d="M829.2,-79.6947C972.435,-65.3582 1232.41,-39.1806 1253,-36 1256.02,-35.5338 1259.09,-35.0297 1262.19,-34.4971"/>
<polygon fill="midnightblue" stroke="midnightblue" points="828.696,-76.2276 819.094,-80.706 829.393,-83.1929 828.696,-76.2276"/>
</g>
<!-- Node4&#45;&gt;Node7 -->
<g id="edge6" class="edge"><title>Node4&#45;&gt;Node7</title>
<path fill="none" stroke="midnightblue" d="M642.679,-71.92C425.209,-44.7466 366.387,-66.0777 153,-36 150.297,-35.619 147.548,-35.2008 144.777,-34.7532"/>
<polygon fill="midnightblue" stroke="midnightblue" points="642.458,-75.4201 652.82,-73.2077 643.34,-68.4758 642.458,-75.4201"/>
</g>
<!-- Node8 -->
<g id="node8" class="node"><title>Node8</title>
<g id="a_node8"><a xlink:href="../../d4/d9c/_msg_dialog_8cpp.html" target="_top" xlink:title="Documentation/Operator\l&#45;Console/MsgDialog.cpp">
<polygon fill="white" stroke="black" points="1426,-1 1426,-35 1572,-35 1572,-1 1426,-1"/>
<text text-anchor="start" x="1434" y="-21.4" font-family="Helvetica,sans-Serif" font-size="12.00">Documentation/Operator</text>
<text text-anchor="middle" x="1499" y="-8.4" font-family="Helvetica,sans-Serif" font-size="12.00">&#45;Console/MsgDialog.cpp</text>
</a>
</g>
</g>
<!-- Node4&#45;&gt;Node8 -->
<g id="edge7" class="edge"><title>Node4&#45;&gt;Node8</title>
<path fill="none" stroke="midnightblue" d="M828.971,-79.2715C854.269,-76.7569 881.676,-74.1539 907,-72 1132.97,-52.7803 1191.32,-66.8194 1416,-36 1419.21,-35.5602 1422.47,-35.0705 1425.77,-34.5427"/>
<polygon fill="midnightblue" stroke="midnightblue" points="828.62,-75.7891 819.018,-80.267 829.316,-82.7544 828.62,-75.7891"/>
</g>
<!-- Node9 -->
<g id="node9" class="node"><title>Node9</title>
<g id="a_node9"><a xlink:href="../../db/db5/_documentation_2_operator-_console_2_operator_console_8cpp.html" target="_top" xlink:title="Documentation/Operator\l&#45;Console/OperatorConsole.cpp">
<polygon fill="white" stroke="black" points="162.5,-1 162.5,-35 341.5,-35 341.5,-1 162.5,-1"/>
<text text-anchor="start" x="170.5" y="-21.4" font-family="Helvetica,sans-Serif" font-size="12.00">Documentation/Operator</text>
<text text-anchor="middle" x="252" y="-8.4" font-family="Helvetica,sans-Serif" font-size="12.00">&#45;Console/OperatorConsole.cpp</text>
</a>
</g>
</g>
<!-- Node4&#45;&gt;Node9 -->
<g id="edge8" class="edge"><title>Node4&#45;&gt;Node9</title>
<path fill="none" stroke="midnightblue" d="M642.805,-71.8691C512.18,-52.1747 477.047,-54.7859 350,-36 347.267,-35.5959 344.493,-35.1758 341.693,-34.7435"/>
<polygon fill="midnightblue" stroke="midnightblue" points="642.381,-75.3449 652.794,-73.3903 643.435,-68.4246 642.381,-75.3449"/>
</g>
<!-- Node10 -->
<g id="node10" class="node"><title>Node10</title>
<g id="a_node10"><a xlink:href="../../dd/dcb/_documentation_2_operator-_console_2_operator_console_dlg_8cpp.html" target="_top" xlink:title="Documentation/Operator\l&#45;Console/OperatorConsoleDlg.cpp">
<polygon fill="white" stroke="black" points="359.5,-1 359.5,-35 556.5,-35 556.5,-1 359.5,-1"/>
<text text-anchor="start" x="367.5" y="-21.4" font-family="Helvetica,sans-Serif" font-size="12.00">Documentation/Operator</text>
<text text-anchor="middle" x="458" y="-8.4" font-family="Helvetica,sans-Serif" font-size="12.00">&#45;Console/OperatorConsoleDlg.cpp</text>
</a>
</g>
</g>
<!-- Node4&#45;&gt;Node10 -->
<g id="edge9" class="edge"><title>Node4&#45;&gt;Node10</title>
<path fill="none" stroke="midnightblue" d="M662.506,-70.4944C618.795,-59.488 563.879,-45.6601 521.963,-35.1057"/>
<polygon fill="midnightblue" stroke="midnightblue" points="661.669,-73.8928 672.221,-72.9406 663.379,-67.1047 661.669,-73.8928"/>
</g>
<!-- Node11 -->
<g id="node11" class="node"><title>Node11</title>
<g id="a_node11"><a xlink:href="../../dd/d14/_documentation_2_operator-_console_2_pass_fail_8cpp.html" target="_top" xlink:title="Documentation/Operator\l&#45;Console/PassFail.cpp">
<polygon fill="white" stroke="black" points="574.5,-1 574.5,-35 719.5,-35 719.5,-1 574.5,-1"/>
<text text-anchor="start" x="582.5" y="-21.4" font-family="Helvetica,sans-Serif" font-size="12.00">Documentation/Operator</text>
<text text-anchor="middle" x="647" y="-8.4" font-family="Helvetica,sans-Serif" font-size="12.00">&#45;Console/PassFail.cpp</text>
</a>
</g>
</g>
<!-- Node4&#45;&gt;Node11 -->
<g id="edge10" class="edge"><title>Node4&#45;&gt;Node11</title>
<path fill="none" stroke="midnightblue" d="M707.205,-66.3523C694.27,-56.1788 679.305,-44.4081 667.53,-35.1473"/>
<polygon fill="midnightblue" stroke="midnightblue" points="705.334,-69.3335 715.358,-72.7646 709.662,-63.8314 705.334,-69.3335"/>
</g>
<!-- Node12 -->
<g id="node12" class="node"><title>Node12</title>
<g id="a_node12"><a xlink:href="../../dd/d4b/_documentation_2_operator-_console_2_password_dialog_8cpp.html" target="_top" xlink:title="Documentation/Operator\l&#45;Console/PasswordDialog.cpp">
<polygon fill="white" stroke="black" points="738,-1 738,-35 914,-35 914,-1 738,-1"/>
<text text-anchor="start" x="746" y="-21.4" font-family="Helvetica,sans-Serif" font-size="12.00">Documentation/Operator</text>
<text text-anchor="middle" x="826" y="-8.4" font-family="Helvetica,sans-Serif" font-size="12.00">&#45;Console/PasswordDialog.cpp</text>
</a>
</g>
</g>
<!-- Node4&#45;&gt;Node12 -->
<g id="edge11" class="edge"><title>Node4&#45;&gt;Node12</title>
<path fill="none" stroke="midnightblue" d="M765.118,-66.3523C778.199,-56.1788 793.332,-44.4081 805.239,-35.1473"/>
<polygon fill="midnightblue" stroke="midnightblue" points="762.619,-63.8625 756.874,-72.7646 766.916,-69.3879 762.619,-63.8625"/>
</g>
<!-- Node13 -->
<g id="node13" class="node"><title>Node13</title>
<g id="a_node13"><a xlink:href="../../d3/d68/_documentation_2_operator-_console_2_setup_8cpp.html" target="_top" xlink:title="Documentation/Operator\l&#45;Console/Setup.cpp">
<polygon fill="white" stroke="black" points="932.5,-1 932.5,-35 1077.5,-35 1077.5,-1 932.5,-1"/>
<text text-anchor="start" x="940.5" y="-21.4" font-family="Helvetica,sans-Serif" font-size="12.00">Documentation/Operator</text>
<text text-anchor="middle" x="1005" y="-8.4" font-family="Helvetica,sans-Serif" font-size="12.00">&#45;Console/Setup.cpp</text>
</a>
</g>
</g>
<!-- Node4&#45;&gt;Node13 -->
<g id="edge12" class="edge"><title>Node4&#45;&gt;Node13</title>
<path fill="none" stroke="midnightblue" d="M807.648,-70.3555C849.857,-59.3718 902.719,-45.6158 943.108,-35.1057"/>
<polygon fill="midnightblue" stroke="midnightblue" points="806.51,-67.035 797.714,-72.9406 808.273,-73.8093 806.51,-67.035"/>
</g>
<!-- Node15&#45;&gt;Node4 -->
<g id="edge16" class="edge"><title>Node15&#45;&gt;Node4</title>
<path fill="none" stroke="midnightblue" d="M496.693,-143.023C547.806,-131.912 612.839,-117.774 662.206,-107.042"/>
<polygon fill="midnightblue" stroke="midnightblue" points="495.693,-139.659 486.665,-145.203 497.18,-146.499 495.693,-139.659"/>
</g>
<!-- Node16 -->
<g id="node16" class="node"><title>Node16</title>
<g id="a_node16"><a xlink:href="../../d6/d7f/_documentation_2_operator-_console_2_s_f_rplus_test_8cpp.html" target="_top" xlink:title="Documentation/Operator\l&#45;Console/SFRplusTest.cpp">
<polygon fill="white" stroke="black" points="305.5,-73 305.5,-107 462.5,-107 462.5,-73 305.5,-73"/>
<text text-anchor="start" x="313.5" y="-93.4" font-family="Helvetica,sans-Serif" font-size="12.00">Documentation/Operator</text>
<text text-anchor="middle" x="384" y="-80.4" font-family="Helvetica,sans-Serif" font-size="12.00">&#45;Console/SFRplusTest.cpp</text>
</a>
</g>
</g>
<!-- Node15&#45;&gt;Node16 -->
<g id="edge17" class="edge"><title>Node15&#45;&gt;Node16</title>
<path fill="none" stroke="midnightblue" d="M403.031,-135.406C398.983,-125.96 394.511,-115.526 390.92,-107.147"/>
<polygon fill="midnightblue" stroke="midnightblue" points="399.886,-136.952 407.042,-144.765 406.32,-134.194 399.886,-136.952"/>
</g>
<!-- Node17&#45;&gt;Node4 -->
<g id="edge23" class="edge"><title>Node17&#45;&gt;Node4</title>
<path fill="none" stroke="midnightblue" d="M754.517,-209.423C746.677,-201.025 739.143,-190.916 735,-180 725.843,-155.874 729.059,-125.351 732.401,-107.043"/>
<polygon fill="midnightblue" stroke="midnightblue" points="752.172,-212.028 761.715,-216.63 757.124,-207.081 752.172,-212.028"/>
</g>
<!-- Node18 -->
<g id="node18" class="node"><title>Node18</title>
<g id="a_node18"><a xlink:href="../../df/d03/_documentation_2_operator-_console_2_stderr_thread_8h.html" target="_top" xlink:title="Documentation/Operator\l&#45;Console/StderrThread.h">
<polygon fill="white" stroke="black" points="922.5,-145 922.5,-179 1067.5,-179 1067.5,-145 922.5,-145"/>
<text text-anchor="start" x="930.5" y="-165.4" font-family="Helvetica,sans-Serif" font-size="12.00">Documentation/Operator</text>
<text text-anchor="middle" x="995" y="-152.4" font-family="Helvetica,sans-Serif" font-size="12.00">&#45;Console/StderrThread.h</text>
</a>
</g>
</g>
<!-- Node17&#45;&gt;Node18 -->
<g id="edge20" class="edge"><title>Node17&#45;&gt;Node18</title>
<path fill="none" stroke="midnightblue" d="M840.432,-213.797C873.564,-202.908 914.552,-189.438 945.993,-179.106"/>
<polygon fill="midnightblue" stroke="midnightblue" points="839.274,-210.493 830.867,-216.941 841.459,-217.143 839.274,-210.493"/>
</g>
<!-- Node20 -->
<g id="node20" class="node"><title>Node20</title>
<g id="a_node20"><a xlink:href="../../db/d23/_documentation_2_operator-_console_2_stdout_thread_8cpp.html" target="_top" xlink:title="Documentation/Operator\l&#45;Console/StdoutThread.cpp">
<polygon fill="white" stroke="black" points="744,-145 744,-179 904,-179 904,-145 744,-145"/>
<text text-anchor="start" x="752" y="-165.4" font-family="Helvetica,sans-Serif" font-size="12.00">Documentation/Operator</text>
<text text-anchor="middle" x="824" y="-152.4" font-family="Helvetica,sans-Serif" font-size="12.00">&#45;Console/StdoutThread.cpp</text>
</a>
</g>
</g>
<!-- Node17&#45;&gt;Node20 -->
<g id="edge24" class="edge"><title>Node17&#45;&gt;Node20</title>
<path fill="none" stroke="midnightblue" d="M796.999,-208.001C802.76,-198.4 809.178,-187.703 814.312,-179.147"/>
<polygon fill="midnightblue" stroke="midnightblue" points="793.885,-206.389 791.741,-216.765 799.887,-209.99 793.885,-206.389"/>
</g>
<!-- Node18&#45;&gt;Node4 -->
<g id="edge21" class="edge"><title>Node18&#45;&gt;Node4</title>
<path fill="none" stroke="midnightblue" d="M925.758,-142.286C885.161,-131.314 834.396,-117.594 795.591,-107.106"/>
<polygon fill="midnightblue" stroke="midnightblue" points="925.013,-145.71 935.58,-144.941 926.84,-138.953 925.013,-145.71"/>
</g>
<!-- Node19 -->
<g id="node19" class="node"><title>Node19</title>
<g id="a_node19"><a xlink:href="../../da/d05/_documentation_2_operator-_console_2_stderr_thread_8cpp.html" target="_top" xlink:title="Documentation/Operator\l&#45;Console/StderrThread.cpp">
<polygon fill="white" stroke="black" points="916,-73 916,-107 1074,-107 1074,-73 916,-73"/>
<text text-anchor="start" x="924" y="-93.4" font-family="Helvetica,sans-Serif" font-size="12.00">Documentation/Operator</text>
<text text-anchor="middle" x="995" y="-80.4" font-family="Helvetica,sans-Serif" font-size="12.00">&#45;Console/StderrThread.cpp</text>
</a>
</g>
</g>
<!-- Node18&#45;&gt;Node19 -->
<g id="edge22" class="edge"><title>Node18&#45;&gt;Node19</title>
<path fill="none" stroke="midnightblue" d="M995,-134.508C995,-125.303 995,-115.262 995,-107.147"/>
<polygon fill="midnightblue" stroke="midnightblue" points="991.5,-134.765 995,-144.765 998.5,-134.765 991.5,-134.765"/>
</g>
</g>
</svg>
