<?xml version="1.0" encoding="UTF-8" standalone="no"?>
<!DOCTYPE svg PUBLIC "-//W3C//DTD SVG 1.1//EN"
 "http://www.w3.org/Graphics/SVG/1.1/DTD/svg11.dtd">
<!-- Generated by graphviz version 2.34.0 (20130907.0111)
 -->
<!-- Title: CPasswordDialog Pages: 1 -->
<svg width="120pt" height="88pt"
 viewBox="0.00 0.00 120.00 88.00" xmlns="http://www.w3.org/2000/svg" xmlns:xlink="http://www.w3.org/1999/xlink">
<g id="graph0" class="graph" transform="scale(1 1) rotate(0) translate(4 84)">
<title>CPasswordDialog</title>
<polygon fill="white" stroke="white" points="-4,4 -4,-84 116,-84 116,4 -4,4"/>
<!-- Node1 -->
<g id="node1" class="node"><title>Node1</title>
<polygon fill="#bfbfbf" stroke="black" points="-0.5,-0.5 -0.5,-21.5 112.5,-21.5 112.5,-0.5 -0.5,-0.5"/>
<text text-anchor="middle" x="56" y="-7.9" font-family="Helvetica,sans-Serif" font-size="12.00">CPasswordDialog</text>
</g>
<!-- Node2 -->
<g id="node2" class="node"><title>Node2</title>
<polygon fill="white" stroke="#bfbfbf" points="19,-58.5 19,-79.5 93,-79.5 93,-58.5 19,-58.5"/>
<text text-anchor="middle" x="56" y="-65.9" font-family="Helvetica,sans-Serif" font-size="12.00">CDialogEx</text>
</g>
<!-- Node2&#45;&gt;Node1 -->
<g id="edge1" class="edge"><title>Node2&#45;&gt;Node1</title>
<path fill="none" stroke="midnightblue" d="M49.5113,-48.1575C48.919,-39.155 49.3335,-28.9199 50.7549,-21.6427"/>
<polygon fill="midnightblue" stroke="midnightblue" points="46.0561,-48.739 50.7332,-58.2455 53.0053,-47.8972 46.0561,-48.739"/>
</g>
<!-- Node2&#45;&gt;Node1 -->
<g id="edge2" class="edge"><title>Node2&#45;&gt;Node1</title>
<path fill="none" stroke="midnightblue" d="M62.4887,-48.1575C63.081,-39.155 62.6665,-28.9199 61.2451,-21.6427"/>
<polygon fill="midnightblue" stroke="midnightblue" points="58.9947,-47.8972 61.2668,-58.2455 65.9439,-48.739 58.9947,-47.8972"/>
</g>
</g>
</svg>
