<?xml version="1.0" encoding="UTF-8" standalone="no"?>
<!DOCTYPE svg PUBLIC "-//W3C//DTD SVG 1.1//EN"
 "http://www.w3.org/Graphics/SVG/1.1/DTD/svg11.dtd">
<!-- Generated by graphviz version 2.34.0 (20130907.0111)
 -->
<!-- Title: JSON/libjson.cpp Pages: 1 -->
<svg width="1384pt" height="610pt"
 viewBox="0.00 0.00 1384.00 610.00" xmlns="http://www.w3.org/2000/svg" xmlns:xlink="http://www.w3.org/1999/xlink">
<g id="graph0" class="graph" transform="scale(1 1) rotate(0) translate(4 606)">
<title>JSON/libjson.cpp</title>
<polygon fill="white" stroke="white" points="-4,4 -4,-606 1380,-606 1380,4 -4,4"/>
<!-- Node1 -->
<g id="node1" class="node"><title>Node1</title>
<polygon fill="#bfbfbf" stroke="black" points="889.5,-580.5 889.5,-601.5 996.5,-601.5 996.5,-580.5 889.5,-580.5"/>
<text text-anchor="middle" x="943" y="-587.9" font-family="Helvetica,sans-Serif" font-size="12.00">JSON/libjson.cpp</text>
</g>
<!-- Node2 -->
<g id="node2" class="node"><title>Node2</title>
<g id="a_node2"><a xlink:href="../../d1/d7d/libjson_8h.html" target="_top" xlink:title="../libjson.h">
<polygon fill="white" stroke="black" points="909,-522.5 909,-543.5 977,-543.5 977,-522.5 909,-522.5"/>
<text text-anchor="middle" x="943" y="-529.9" font-family="Helvetica,sans-Serif" font-size="12.00">../libjson.h</text>
</a>
</g>
</g>
<!-- Node1&#45;&gt;Node2 -->
<g id="edge1" class="edge"><title>Node1&#45;&gt;Node2</title>
<path fill="none" stroke="midnightblue" d="M943,-580.246C943,-572.938 943,-562.694 943,-553.705"/>
<polygon fill="midnightblue" stroke="midnightblue" points="946.5,-553.643 943,-543.643 939.5,-553.643 946.5,-553.643"/>
</g>
<!-- Node3 -->
<g id="node3" class="node"><title>Node3</title>
<g id="a_node3"><a xlink:href="../../db/d7e/_j_s_o_n_2_j_s_o_n_defs_8h.html" target="_top" xlink:title="JSON\\JSONDefs.h">
<polygon fill="white" stroke="black" points="399,-116.5 399,-137.5 515,-137.5 515,-116.5 399,-116.5"/>
<text text-anchor="middle" x="457" y="-123.9" font-family="Helvetica,sans-Serif" font-size="12.00">JSON\JSONDefs.h</text>
</a>
</g>
</g>
<!-- Node2&#45;&gt;Node3 -->
<g id="edge2" class="edge"><title>Node2&#45;&gt;Node3</title>
<path fill="none" stroke="midnightblue" d="M908.83,-531.097C819.815,-528.313 582.793,-518.018 512,-486 471.303,-467.593 438,-462.666 438,-418 438,-418 438,-418 438,-242 438,-208.376 446.142,-169.923 451.766,-147.372"/>
<polygon fill="midnightblue" stroke="midnightblue" points="455.16,-148.227 454.278,-137.669 448.383,-146.472 455.16,-148.227"/>
</g>
<!-- Node10 -->
<g id="node10" class="node"><title>Node10</title>
<g id="a_node10"><a xlink:href="../../d0/df5/_j_s_o_n_2_j_s_o_n_node_8h.html" target="_top" xlink:title="JSON\\JSONNode.h">
<polygon fill="white" stroke="black" points="814,-406.5 814,-427.5 934,-427.5 934,-406.5 814,-406.5"/>
<text text-anchor="middle" x="874" y="-413.9" font-family="Helvetica,sans-Serif" font-size="12.00">JSON\JSONNode.h</text>
</a>
</g>
</g>
<!-- Node2&#45;&gt;Node10 -->
<g id="edge10" class="edge"><title>Node2&#45;&gt;Node10</title>
<path fill="none" stroke="midnightblue" d="M937.839,-522.169C930.753,-508.813 917.467,-484.276 905,-464 899.221,-454.602 892.406,-444.403 886.64,-436.002"/>
<polygon fill="midnightblue" stroke="midnightblue" points="889.468,-433.938 880.893,-427.715 883.716,-437.927 889.468,-433.938"/>
</g>
<!-- Node18 -->
<g id="node18" class="node"><title>Node18</title>
<polygon fill="white" stroke="#bfbfbf" points="530.5,-174.5 530.5,-195.5 575.5,-195.5 575.5,-174.5 530.5,-174.5"/>
<text text-anchor="middle" x="553" y="-181.9" font-family="Helvetica,sans-Serif" font-size="12.00">string</text>
</g>
<!-- Node2&#45;&gt;Node18 -->
<g id="edge47" class="edge"><title>Node2&#45;&gt;Node18</title>
<path fill="none" stroke="midnightblue" d="M908.66,-530.984C800.812,-526.871 476,-507.09 476,-418 476,-418 476,-418 476,-300 476,-268.62 477.636,-258.138 495,-232 503.274,-219.545 516.007,-208.91 527.437,-201.013"/>
<polygon fill="midnightblue" stroke="midnightblue" points="529.376,-203.927 535.828,-195.523 525.543,-198.069 529.376,-203.927"/>
</g>
<!-- Node20 -->
<g id="node20" class="node"><title>Node20</title>
<polygon fill="white" stroke="#bfbfbf" points="964.5,-348.5 964.5,-369.5 1031.5,-369.5 1031.5,-348.5 964.5,-348.5"/>
<text text-anchor="middle" x="998" y="-355.9" font-family="Helvetica,sans-Serif" font-size="12.00">stdexcept</text>
</g>
<!-- Node2&#45;&gt;Node20 -->
<g id="edge45" class="edge"><title>Node2&#45;&gt;Node20</title>
<path fill="none" stroke="midnightblue" d="M946.115,-522.26C954.925,-494.706 980.147,-415.833 991.871,-379.168"/>
<polygon fill="midnightblue" stroke="midnightblue" points="995.207,-380.224 994.92,-369.633 988.54,-378.092 995.207,-380.224"/>
</g>
<!-- Node22 -->
<g id="node22" class="node"><title>Node22</title>
<g id="a_node22"><a xlink:href="../../d4/d6e/_j_s_o_n_2_j_s_o_n___base64_8h.html" target="_top" xlink:title="JSON_Base64.h">
<polygon fill="white" stroke="black" points="882.5,-290.5 882.5,-311.5 987.5,-311.5 987.5,-290.5 882.5,-290.5"/>
<text text-anchor="middle" x="935" y="-297.9" font-family="Helvetica,sans-Serif" font-size="12.00">JSON_Base64.h</text>
</a>
</g>
</g>
<!-- Node2&#45;&gt;Node22 -->
<g id="edge44" class="edge"><title>Node2&#45;&gt;Node22</title>
<path fill="none" stroke="midnightblue" d="M908.837,-528.525C860.382,-522.812 775.505,-509.64 757,-486 726.591,-447.154 699.213,-448.4 805,-348 823.385,-330.551 848.799,-319.667 872.283,-312.902"/>
<polygon fill="midnightblue" stroke="midnightblue" points="873.447,-316.214 882.203,-310.248 871.638,-309.452 873.447,-316.214"/>
</g>
<!-- Node23 -->
<g id="node23" class="node"><title>Node23</title>
<g id="a_node23"><a xlink:href="../../d0/d4d/_j_s_o_n_2_j_s_o_n_worker_8h.html" target="_top" xlink:title="JSON\\JSONWorker.h">
<polygon fill="white" stroke="black" points="766,-464.5 766,-485.5 896,-485.5 896,-464.5 766,-464.5"/>
<text text-anchor="middle" x="831" y="-471.9" font-family="Helvetica,sans-Serif" font-size="12.00">JSON\JSONWorker.h</text>
</a>
</g>
</g>
<!-- Node2&#45;&gt;Node23 -->
<g id="edge34" class="edge"><title>Node2&#45;&gt;Node23</title>
<path fill="none" stroke="midnightblue" d="M923.747,-522.373C905.929,-513.464 879.225,-500.113 859.041,-490.02"/>
<polygon fill="midnightblue" stroke="midnightblue" points="860.512,-486.843 850.002,-485.501 857.381,-493.104 860.512,-486.843"/>
</g>
<!-- Node24 -->
<g id="node24" class="node"><title>Node24</title>
<g id="a_node24"><a xlink:href="../../de/d23/_j_s_o_n_2_j_s_o_n_validator_8h.html" target="_top" xlink:title="JSON\\JSONValidator.h">
<polygon fill="white" stroke="black" points="1088.5,-406.5 1088.5,-427.5 1227.5,-427.5 1227.5,-406.5 1088.5,-406.5"/>
<text text-anchor="middle" x="1158" y="-413.9" font-family="Helvetica,sans-Serif" font-size="12.00">JSON\JSONValidator.h</text>
</a>
</g>
</g>
<!-- Node2&#45;&gt;Node24 -->
<g id="edge37" class="edge"><title>Node2&#45;&gt;Node24</title>
<path fill="none" stroke="midnightblue" d="M977.32,-528.158C1027.15,-521.9 1116.11,-507.954 1139,-486 1151.83,-473.696 1156.22,-453.508 1157.62,-438.318"/>
<polygon fill="midnightblue" stroke="midnightblue" points="1161.14,-438.067 1158.19,-427.89 1154.15,-437.683 1161.14,-438.067"/>
</g>
<!-- Node25 -->
<g id="node25" class="node"><title>Node25</title>
<g id="a_node25"><a xlink:href="../../d8/dd2/_j_s_o_n_2_j_s_o_n_stream_8h.html" target="_top" xlink:title="JSON\\JSONStream.h">
<polygon fill="white" stroke="black" points="1246,-406.5 1246,-427.5 1376,-427.5 1376,-406.5 1246,-406.5"/>
<text text-anchor="middle" x="1311" y="-413.9" font-family="Helvetica,sans-Serif" font-size="12.00">JSON\JSONStream.h</text>
</a>
</g>
</g>
<!-- Node2&#45;&gt;Node25 -->
<g id="edge39" class="edge"><title>Node2&#45;&gt;Node25</title>
<path fill="none" stroke="midnightblue" d="M977.046,-527.1C1020.28,-520.354 1096.86,-506.645 1160,-486 1183.83,-478.208 1245.28,-449.469 1282.03,-431.943"/>
<polygon fill="midnightblue" stroke="midnightblue" points="1283.73,-435.008 1291.24,-427.536 1280.71,-428.693 1283.73,-435.008"/>
</g>
<!-- Node26 -->
<g id="node26" class="node"><title>Node26</title>
<g id="a_node26"><a xlink:href="../../da/de9/_j_s_o_n_2_j_s_o_n_preparse_8h.html" target="_top" xlink:title="JSON\\JSONPreparse.h">
<polygon fill="white" stroke="black" points="990,-464.5 990,-485.5 1130,-485.5 1130,-464.5 990,-464.5"/>
<text text-anchor="middle" x="1060" y="-471.9" font-family="Helvetica,sans-Serif" font-size="12.00">JSON\JSONPreparse.h</text>
</a>
</g>
</g>
<!-- Node2&#45;&gt;Node26 -->
<g id="edge41" class="edge"><title>Node2&#45;&gt;Node26</title>
<path fill="none" stroke="midnightblue" d="M963.113,-522.373C981.81,-513.424 1009.87,-499.992 1030.99,-489.883"/>
<polygon fill="midnightblue" stroke="midnightblue" points="1032.64,-492.975 1040.15,-485.501 1029.62,-486.661 1032.64,-492.975"/>
</g>
<!-- Node27 -->
<g id="node27" class="node"><title>Node27</title>
<polygon fill="white" stroke="#bfbfbf" points="1224.5,-464.5 1224.5,-485.5 1277.5,-485.5 1277.5,-464.5 1224.5,-464.5"/>
<text text-anchor="middle" x="1251" y="-471.9" font-family="Helvetica,sans-Serif" font-size="12.00">cwchar</text>
</g>
<!-- Node2&#45;&gt;Node27 -->
<g id="edge46" class="edge"><title>Node2&#45;&gt;Node27</title>
<path fill="none" stroke="midnightblue" d="M977.281,-526.865C1028.23,-519.059 1126.87,-503.277 1210,-486 1211.43,-485.702 1212.9,-485.389 1214.37,-485.066"/>
<polygon fill="midnightblue" stroke="midnightblue" points="1215.19,-488.47 1224.15,-482.827 1213.62,-481.646 1215.19,-488.47"/>
</g>
<!-- Node4 -->
<g id="node4" class="node"><title>Node4</title>
<g id="a_node4"><a xlink:href="../../dc/d13/_j_s_o_n_options_8h.html" target="_top" xlink:title="..\\JSONOptions.h">
<polygon fill="white" stroke="black" points="423.5,-0.5 423.5,-21.5 530.5,-21.5 530.5,-0.5 423.5,-0.5"/>
<text text-anchor="middle" x="477" y="-7.9" font-family="Helvetica,sans-Serif" font-size="12.00">..\JSONOptions.h</text>
</a>
</g>
</g>
<!-- Node3&#45;&gt;Node4 -->
<g id="edge3" class="edge"><title>Node3&#45;&gt;Node4</title>
<path fill="none" stroke="midnightblue" d="M458.705,-116.28C461.982,-97.6031 469.216,-56.3692 473.541,-31.7152"/>
<polygon fill="midnightblue" stroke="midnightblue" points="477.018,-32.1494 475.299,-21.695 470.124,-30.9397 477.018,-32.1494"/>
</g>
<!-- Node5 -->
<g id="node5" class="node"><title>Node5</title>
<g id="a_node5"><a xlink:href="../../d9/d62/_j_s_o_n_2_j_s_o_n_defs_2_unknown___c_8h.html" target="_top" xlink:title="JSONDefs\\Unknown_C.h">
<polygon fill="white" stroke="black" points="505,-58.5 505,-79.5 653,-79.5 653,-58.5 505,-58.5"/>
<text text-anchor="middle" x="579" y="-65.9" font-family="Helvetica,sans-Serif" font-size="12.00">JSONDefs\Unknown_C.h</text>
</a>
</g>
</g>
<!-- Node3&#45;&gt;Node5 -->
<g id="edge4" class="edge"><title>Node3&#45;&gt;Node5</title>
<path fill="none" stroke="midnightblue" d="M477.973,-116.373C497.557,-107.384 526.996,-93.8706 549.051,-83.7471"/>
<polygon fill="midnightblue" stroke="midnightblue" points="550.673,-86.8538 558.301,-79.5011 547.753,-80.4919 550.673,-86.8538"/>
</g>
<!-- Node6 -->
<g id="node6" class="node"><title>Node6</title>
<g id="a_node6"><a xlink:href="../../de/dbe/_j_s_o_n_2_j_s_o_n_defs_2_g_n_u___c_8h.html" target="_top" xlink:title="JSONDefs\\GNU_C.h">
<polygon fill="white" stroke="black" points="0,-58.5 0,-79.5 126,-79.5 126,-58.5 0,-58.5"/>
<text text-anchor="middle" x="63" y="-65.9" font-family="Helvetica,sans-Serif" font-size="12.00">JSONDefs\GNU_C.h</text>
</a>
</g>
</g>
<!-- Node3&#45;&gt;Node6 -->
<g id="edge5" class="edge"><title>Node3&#45;&gt;Node6</title>
<path fill="none" stroke="midnightblue" d="M398.864,-117.737C329.109,-107.823 212.093,-91.1909 136.233,-80.4088"/>
<polygon fill="midnightblue" stroke="midnightblue" points="136.665,-76.9351 126.272,-78.993 135.68,-83.8654 136.665,-76.9351"/>
</g>
<!-- Node7 -->
<g id="node7" class="node"><title>Node7</title>
<g id="a_node7"><a xlink:href="../../d6/d90/_j_s_o_n_2_j_s_o_n_defs_2_visual___c_8h.html" target="_top" xlink:title="JSONDefs\\Visual_C.h">
<polygon fill="white" stroke="black" points="144.5,-58.5 144.5,-79.5 277.5,-79.5 277.5,-58.5 144.5,-58.5"/>
<text text-anchor="middle" x="211" y="-65.9" font-family="Helvetica,sans-Serif" font-size="12.00">JSONDefs\Visual_C.h</text>
</a>
</g>
</g>
<!-- Node3&#45;&gt;Node7 -->
<g id="edge6" class="edge"><title>Node3&#45;&gt;Node7</title>
<path fill="none" stroke="midnightblue" d="M414.991,-116.437C372.89,-106.853 308,-92.0812 262.748,-81.78"/>
<polygon fill="midnightblue" stroke="midnightblue" points="263.364,-78.3307 252.836,-79.5237 261.81,-85.1561 263.364,-78.3307"/>
</g>
<!-- Node8 -->
<g id="node8" class="node"><title>Node8</title>
<g id="a_node8"><a xlink:href="../../d7/d67/_j_s_o_n_2_j_s_o_n_defs_2_strings___defs_8h.html" target="_top" xlink:title="JSONDefs\\Strings_Defs.h">
<polygon fill="white" stroke="black" points="295.5,-58.5 295.5,-79.5 448.5,-79.5 448.5,-58.5 295.5,-58.5"/>
<text text-anchor="middle" x="372" y="-65.9" font-family="Helvetica,sans-Serif" font-size="12.00">JSONDefs\Strings_Defs.h</text>
</a>
</g>
</g>
<!-- Node3&#45;&gt;Node8 -->
<g id="edge7" class="edge"><title>Node3&#45;&gt;Node8</title>
<path fill="none" stroke="midnightblue" d="M442.194,-116.246C429.274,-107.734 410.307,-95.2375 395.345,-85.3801"/>
<polygon fill="midnightblue" stroke="midnightblue" points="396.912,-82.2216 386.636,-79.6427 393.061,-88.067 396.912,-82.2216"/>
</g>
<!-- Node8&#45;&gt;Node4 -->
<g id="edge8" class="edge"><title>Node8&#45;&gt;Node4</title>
<path fill="none" stroke="midnightblue" d="M390.29,-58.2455C406.776,-49.4527 431.235,-36.4079 449.977,-26.4125"/>
<polygon fill="midnightblue" stroke="midnightblue" points="451.744,-29.4368 458.92,-21.6427 448.449,-23.2604 451.744,-29.4368"/>
</g>
<!-- Node9 -->
<g id="node9" class="node"><title>Node9</title>
<polygon fill="white" stroke="#bfbfbf" points="345,-0.5 345,-21.5 399,-21.5 399,-0.5 345,-0.5"/>
<text text-anchor="middle" x="372" y="-7.9" font-family="Helvetica,sans-Serif" font-size="12.00">string.h</text>
</g>
<!-- Node8&#45;&gt;Node9 -->
<g id="edge9" class="edge"><title>Node8&#45;&gt;Node9</title>
<path fill="none" stroke="midnightblue" d="M372,-58.2455C372,-50.9382 372,-40.6944 372,-31.7046"/>
<polygon fill="midnightblue" stroke="midnightblue" points="375.5,-31.6426 372,-21.6427 368.5,-31.6427 375.5,-31.6426"/>
</g>
<!-- Node11 -->
<g id="node11" class="node"><title>Node11</title>
<g id="a_node11"><a xlink:href="../../d6/dbe/_j_s_o_n_2_j_s_o_n_debug_8h.html" target="_top" xlink:title="JSONDebug.h">
<polygon fill="white" stroke="black" points="851,-174.5 851,-195.5 943,-195.5 943,-174.5 851,-174.5"/>
<text text-anchor="middle" x="897" y="-181.9" font-family="Helvetica,sans-Serif" font-size="12.00">JSONDebug.h</text>
</a>
</g>
</g>
<!-- Node10&#45;&gt;Node11 -->
<g id="edge11" class="edge"><title>Node10&#45;&gt;Node11</title>
<path fill="none" stroke="midnightblue" d="M885.532,-406.387C915.656,-381.249 994.491,-315.269 996,-312 1017.01,-266.477 959.371,-222.602 923.408,-200.617"/>
<polygon fill="midnightblue" stroke="midnightblue" points="925.181,-197.599 914.793,-195.512 921.612,-203.621 925.181,-197.599"/>
</g>
<!-- Node12 -->
<g id="node12" class="node"><title>Node12</title>
<g id="a_node12"><a xlink:href="../../da/d1f/_j_s_o_n_2internal_j_s_o_n_node_8h.html" target="_top" xlink:title="internalJSONNode.h">
<polygon fill="white" stroke="black" points="634.5,-348.5 634.5,-369.5 757.5,-369.5 757.5,-348.5 634.5,-348.5"/>
<text text-anchor="middle" x="696" y="-355.9" font-family="Helvetica,sans-Serif" font-size="12.00">internalJSONNode.h</text>
</a>
</g>
</g>
<!-- Node10&#45;&gt;Node12 -->
<g id="edge13" class="edge"><title>Node10&#45;&gt;Node12</title>
<path fill="none" stroke="midnightblue" d="M843.401,-406.373C813.674,-397.021 768.384,-382.773 735.854,-372.538"/>
<polygon fill="midnightblue" stroke="midnightblue" points="736.789,-369.164 726.2,-369.501 734.689,-375.841 736.789,-369.164"/>
</g>
<!-- Node10&#45;&gt;Node20 -->
<g id="edge29" class="edge"><title>Node10&#45;&gt;Node20</title>
<path fill="none" stroke="midnightblue" d="M895.316,-406.373C915.222,-397.384 945.144,-383.871 967.56,-373.747"/>
<polygon fill="midnightblue" stroke="midnightblue" points="969.289,-376.807 976.962,-369.501 966.408,-370.427 969.289,-376.807"/>
</g>
<!-- Node21 -->
<g id="node21" class="node"><title>Node21</title>
<polygon fill="white" stroke="#bfbfbf" points="814,-348.5 814,-369.5 870,-369.5 870,-348.5 814,-348.5"/>
<text text-anchor="middle" x="842" y="-355.9" font-family="Helvetica,sans-Serif" font-size="12.00">cstdarg</text>
</g>
<!-- Node10&#45;&gt;Node21 -->
<g id="edge30" class="edge"><title>Node10&#45;&gt;Node21</title>
<path fill="none" stroke="midnightblue" d="M868.426,-406.246C864.067,-398.617 857.879,-387.788 852.587,-378.527"/>
<polygon fill="midnightblue" stroke="midnightblue" points="855.51,-376.589 847.51,-369.643 849.433,-380.062 855.51,-376.589"/>
</g>
<!-- Node10&#45;&gt;Node22 -->
<g id="edge31" class="edge"><title>Node10&#45;&gt;Node22</title>
<path fill="none" stroke="midnightblue" d="M879.201,-406.28C889.33,-387.351 911.857,-345.251 924.981,-320.725"/>
<polygon fill="midnightblue" stroke="midnightblue" points="928.18,-322.163 929.812,-311.695 922.008,-318.861 928.18,-322.163"/>
</g>
<!-- Node11&#45;&gt;Node3 -->
<g id="edge12" class="edge"><title>Node11&#45;&gt;Node3</title>
<path fill="none" stroke="midnightblue" d="M850.975,-175.981C846.594,-175.283 842.215,-174.611 838,-174 728.832,-158.167 601.507,-143.573 525.174,-135.238"/>
<polygon fill="midnightblue" stroke="midnightblue" points="525.527,-131.756 515.207,-134.154 524.77,-138.715 525.527,-131.756"/>
</g>
<!-- Node12&#45;&gt;Node11 -->
<g id="edge14" class="edge"><title>Node12&#45;&gt;Node11</title>
<path fill="none" stroke="midnightblue" d="M756.893,-348.478C783.027,-341.851 812.441,-330.698 834,-312 866.965,-283.41 884.581,-233.469 892.231,-205.825"/>
<polygon fill="midnightblue" stroke="midnightblue" points="895.713,-206.342 894.84,-195.783 888.938,-204.582 895.713,-206.342"/>
</g>
<!-- Node13 -->
<g id="node13" class="node"><title>Node13</title>
<g id="a_node13"><a xlink:href="../../df/d61/_j_s_o_n_2_j_s_o_n_children_8h.html" target="_top" xlink:title="JSONChildren.h">
<polygon fill="white" stroke="black" points="724.5,-290.5 724.5,-311.5 825.5,-311.5 825.5,-290.5 724.5,-290.5"/>
<text text-anchor="middle" x="775" y="-297.9" font-family="Helvetica,sans-Serif" font-size="12.00">JSONChildren.h</text>
</a>
</g>
</g>
<!-- Node12&#45;&gt;Node13 -->
<g id="edge15" class="edge"><title>Node12&#45;&gt;Node13</title>
<path fill="none" stroke="midnightblue" d="M709.761,-348.246C721.655,-339.814 739.065,-327.473 752.909,-317.66"/>
<polygon fill="midnightblue" stroke="midnightblue" points="755.263,-320.281 761.397,-311.643 751.215,-314.57 755.263,-320.281"/>
</g>
<!-- Node14 -->
<g id="node14" class="node"><title>Node14</title>
<g id="a_node14"><a xlink:href="../../dc/d7c/_j_s_o_n_2_j_s_o_n_memory_8h.html" target="_top" xlink:title="JSONMemory.h">
<polygon fill="white" stroke="black" points="658.5,-232.5 658.5,-253.5 757.5,-253.5 757.5,-232.5 658.5,-232.5"/>
<text text-anchor="middle" x="708" y="-239.9" font-family="Helvetica,sans-Serif" font-size="12.00">JSONMemory.h</text>
</a>
</g>
</g>
<!-- Node12&#45;&gt;Node14 -->
<g id="edge22" class="edge"><title>Node12&#45;&gt;Node14</title>
<path fill="none" stroke="midnightblue" d="M697.023,-348.28C698.989,-329.603 703.33,-288.369 705.925,-263.715"/>
<polygon fill="midnightblue" stroke="midnightblue" points="709.413,-264.006 706.979,-253.695 702.452,-263.274 709.413,-264.006"/>
</g>
<!-- Node17 -->
<g id="node17" class="node"><title>Node17</title>
<g id="a_node17"><a xlink:href="../../de/d55/_j_s_o_n_2_j_s_o_n_globals_8h.html" target="_top" xlink:title="JSONGlobals.h">
<polygon fill="white" stroke="black" points="504.5,-232.5 504.5,-253.5 601.5,-253.5 601.5,-232.5 504.5,-232.5"/>
<text text-anchor="middle" x="553" y="-239.9" font-family="Helvetica,sans-Serif" font-size="12.00">JSONGlobals.h</text>
</a>
</g>
</g>
<!-- Node12&#45;&gt;Node17 -->
<g id="edge23" class="edge"><title>Node12&#45;&gt;Node17</title>
<path fill="none" stroke="midnightblue" d="M634.447,-348.499C593.687,-340.805 545.51,-328.529 533,-312 522.035,-297.512 530.372,-277.115 539.393,-262.445"/>
<polygon fill="midnightblue" stroke="midnightblue" points="542.561,-264.006 545.224,-253.751 536.747,-260.107 542.561,-264.006"/>
</g>
<!-- Node19 -->
<g id="node19" class="node"><title>Node19</title>
<g id="a_node19"><a xlink:href="../../d7/d81/_j_s_o_n_2_j_s_o_n_shared_string_8h.html" target="_top" xlink:title="JSONSharedString.h">
<polygon fill="white" stroke="black" points="542,-290.5 542,-311.5 668,-311.5 668,-290.5 542,-290.5"/>
<text text-anchor="middle" x="605" y="-297.9" font-family="Helvetica,sans-Serif" font-size="12.00">JSONSharedString.h</text>
</a>
</g>
</g>
<!-- Node12&#45;&gt;Node19 -->
<g id="edge26" class="edge"><title>Node12&#45;&gt;Node19</title>
<path fill="none" stroke="midnightblue" d="M680.149,-348.246C666.187,-339.653 645.627,-327.001 629.54,-317.102"/>
<polygon fill="midnightblue" stroke="midnightblue" points="631.02,-313.903 620.669,-311.643 627.352,-319.865 631.02,-313.903"/>
</g>
<!-- Node13&#45;&gt;Node11 -->
<g id="edge21" class="edge"><title>Node13&#45;&gt;Node11</title>
<path fill="none" stroke="midnightblue" d="M785.402,-290.28C806.2,-270.846 853.135,-226.989 879.02,-202.801"/>
<polygon fill="midnightblue" stroke="midnightblue" points="881.708,-205.08 886.625,-195.695 876.928,-199.965 881.708,-205.08"/>
</g>
<!-- Node13&#45;&gt;Node14 -->
<g id="edge16" class="edge"><title>Node13&#45;&gt;Node14</title>
<path fill="none" stroke="midnightblue" d="M763.329,-290.246C753.434,-281.975 739.037,-269.942 727.41,-260.223"/>
<polygon fill="midnightblue" stroke="midnightblue" points="729.454,-257.37 719.537,-253.643 724.965,-262.741 729.454,-257.37"/>
</g>
<!-- Node14&#45;&gt;Node4 -->
<g id="edge19" class="edge"><title>Node14&#45;&gt;Node4</title>
<path fill="none" stroke="midnightblue" d="M706.194,-232.379C699.351,-196.339 674.756,-70.7395 662,-58 644.929,-40.9503 587.294,-28.4003 540.838,-20.755"/>
<polygon fill="midnightblue" stroke="midnightblue" points="541.24,-17.2749 530.813,-19.1514 540.134,-24.187 541.24,-17.2749"/>
</g>
<!-- Node14&#45;&gt;Node11 -->
<g id="edge20" class="edge"><title>Node14&#45;&gt;Node11</title>
<path fill="none" stroke="midnightblue" d="M740.49,-232.373C772.19,-222.981 820.558,-208.65 855.129,-198.406"/>
<polygon fill="midnightblue" stroke="midnightblue" points="856.34,-201.698 864.934,-195.501 854.351,-194.986 856.34,-201.698"/>
</g>
<!-- Node15 -->
<g id="node15" class="node"><title>Node15</title>
<polygon fill="white" stroke="#bfbfbf" points="779,-174.5 779,-195.5 829,-195.5 829,-174.5 779,-174.5"/>
<text text-anchor="middle" x="804" y="-181.9" font-family="Helvetica,sans-Serif" font-size="12.00">cstdlib</text>
</g>
<!-- Node14&#45;&gt;Node15 -->
<g id="edge17" class="edge"><title>Node14&#45;&gt;Node15</title>
<path fill="none" stroke="midnightblue" d="M724.722,-232.246C739.589,-223.573 761.547,-210.765 778.586,-200.825"/>
<polygon fill="midnightblue" stroke="midnightblue" points="780.595,-203.705 787.47,-195.643 777.068,-197.658 780.595,-203.705"/>
</g>
<!-- Node16 -->
<g id="node16" class="node"><title>Node16</title>
<polygon fill="white" stroke="#bfbfbf" points="709.5,-174.5 709.5,-195.5 760.5,-195.5 760.5,-174.5 709.5,-174.5"/>
<text text-anchor="middle" x="735" y="-181.9" font-family="Helvetica,sans-Serif" font-size="12.00">cstring</text>
</g>
<!-- Node14&#45;&gt;Node16 -->
<g id="edge18" class="edge"><title>Node14&#45;&gt;Node16</title>
<path fill="none" stroke="midnightblue" d="M712.703,-232.246C716.342,-224.697 721.492,-214.016 725.926,-204.82"/>
<polygon fill="midnightblue" stroke="midnightblue" points="729.16,-206.17 730.351,-195.643 722.855,-203.13 729.16,-206.17"/>
</g>
<!-- Node17&#45;&gt;Node3 -->
<g id="edge24" class="edge"><title>Node17&#45;&gt;Node3</title>
<path fill="none" stroke="midnightblue" d="M544.815,-232.28C528.591,-213.014 492.155,-169.746 471.681,-145.434"/>
<polygon fill="midnightblue" stroke="midnightblue" points="474.283,-143.09 465.164,-137.695 468.928,-147.599 474.283,-143.09"/>
</g>
<!-- Node17&#45;&gt;Node18 -->
<g id="edge25" class="edge"><title>Node17&#45;&gt;Node18</title>
<path fill="none" stroke="midnightblue" d="M553,-232.246C553,-224.938 553,-214.694 553,-205.705"/>
<polygon fill="midnightblue" stroke="midnightblue" points="556.5,-205.643 553,-195.643 549.5,-205.643 556.5,-205.643"/>
</g>
<!-- Node19&#45;&gt;Node11 -->
<g id="edge27" class="edge"><title>Node19&#45;&gt;Node11</title>
<path fill="none" stroke="midnightblue" d="M647.126,-290.425C680.063,-282.354 726.698,-269.632 766,-254 804.383,-238.734 846.371,-215.73 872.204,-200.787"/>
<polygon fill="midnightblue" stroke="midnightblue" points="874.085,-203.742 880.954,-195.676 870.554,-197.698 874.085,-203.742"/>
</g>
<!-- Node19&#45;&gt;Node17 -->
<g id="edge28" class="edge"><title>Node19&#45;&gt;Node17</title>
<path fill="none" stroke="midnightblue" d="M595.942,-290.246C588.486,-282.216 577.737,-270.639 568.858,-261.078"/>
<polygon fill="midnightblue" stroke="midnightblue" points="571.323,-258.589 561.954,-253.643 566.194,-263.352 571.323,-258.589"/>
</g>
<!-- Node22&#45;&gt;Node11 -->
<g id="edge32" class="edge"><title>Node22&#45;&gt;Node11</title>
<path fill="none" stroke="midnightblue" d="M931.76,-290.28C925.506,-271.519 911.666,-229.997 903.461,-205.383"/>
<polygon fill="midnightblue" stroke="midnightblue" points="906.714,-204.075 900.232,-195.695 900.074,-206.289 906.714,-204.075"/>
</g>
<!-- Node22&#45;&gt;Node18 -->
<g id="edge33" class="edge"><title>Node22&#45;&gt;Node18</title>
<path fill="none" stroke="midnightblue" d="M882.471,-294.439C811.833,-286.468 690.317,-270.882 649,-254 633.073,-247.493 596.531,-220.099 573.406,-202.128"/>
<polygon fill="midnightblue" stroke="midnightblue" points="575.304,-199.169 565.271,-195.765 570.991,-204.683 575.304,-199.169"/>
</g>
<!-- Node23&#45;&gt;Node10 -->
<g id="edge35" class="edge"><title>Node23&#45;&gt;Node10</title>
<path fill="none" stroke="midnightblue" d="M838.49,-464.246C844.533,-456.376 853.19,-445.101 860.444,-435.654"/>
<polygon fill="midnightblue" stroke="midnightblue" points="863.282,-437.706 866.596,-427.643 857.729,-433.443 863.282,-437.706"/>
</g>
<!-- Node23&#45;&gt;Node19 -->
<g id="edge36" class="edge"><title>Node23&#45;&gt;Node19</title>
<path fill="none" stroke="midnightblue" d="M791.636,-464.39C745.134,-451.018 668.597,-422.325 625,-370 613.701,-356.439 608.785,-336.727 606.646,-322.014"/>
<polygon fill="midnightblue" stroke="midnightblue" points="610.106,-321.459 605.493,-311.922 603.151,-322.255 610.106,-321.459"/>
</g>
<!-- Node24&#45;&gt;Node11 -->
<g id="edge38" class="edge"><title>Node24&#45;&gt;Node11</title>
<path fill="none" stroke="midnightblue" d="M1156.53,-406.241C1151.4,-375.535 1131.28,-280.094 1074,-232 1040.44,-203.823 991.614,-192.658 953.742,-188.351"/>
<polygon fill="midnightblue" stroke="midnightblue" points="953.672,-184.826 943.372,-187.31 952.973,-191.791 953.672,-184.826"/>
</g>
<!-- Node25&#45;&gt;Node11 -->
<g id="edge40" class="edge"><title>Node25&#45;&gt;Node11</title>
<path fill="none" stroke="midnightblue" d="M1302.9,-406.144C1276.86,-375.152 1191.58,-278.953 1099,-232 1053.07,-208.705 995.319,-197.078 953.345,-191.354"/>
<polygon fill="midnightblue" stroke="midnightblue" points="953.665,-187.867 943.299,-190.056 952.768,-194.809 953.665,-187.867"/>
</g>
<!-- Node26&#45;&gt;Node10 -->
<g id="edge43" class="edge"><title>Node26&#45;&gt;Node10</title>
<path fill="none" stroke="midnightblue" d="M1028.03,-464.373C996.829,-454.981 949.229,-440.65 915.207,-430.406"/>
<polygon fill="midnightblue" stroke="midnightblue" points="916.142,-427.033 905.557,-427.501 914.124,-433.736 916.142,-427.033"/>
</g>
<!-- Node26&#45;&gt;Node11 -->
<g id="edge42" class="edge"><title>Node26&#45;&gt;Node11</title>
<path fill="none" stroke="midnightblue" d="M1060,-464.24C1060,-444.537 1060,-398.594 1060,-360 1060,-360 1060,-360 1060,-300 1060,-244.432 995.599,-213.679 947.757,-198.5"/>
<polygon fill="midnightblue" stroke="midnightblue" points="948.717,-195.134 938.132,-195.582 946.686,-201.833 948.717,-195.134"/>
</g>
</g>
</svg>
