<?xml version="1.0" encoding="UTF-8" standalone="no"?>
<!DOCTYPE svg PUBLIC "-//W3C//DTD SVG 1.1//EN"
 "http://www.w3.org/Graphics/SVG/1.1/DTD/svg11.dtd">
<!-- Generated by graphviz version 2.34.0 (20130907.0111)
 -->
<!-- Title: JSONWorker Pages: 1 -->
<svg width="437pt" height="192pt"
 viewBox="0.00 0.00 437.00 192.00" xmlns="http://www.w3.org/2000/svg" xmlns:xlink="http://www.w3.org/1999/xlink">
<g id="graph0" class="graph" transform="scale(1 1) rotate(0) translate(4 188)">
<title>JSONWorker</title>
<polygon fill="white" stroke="white" points="-4,4 -4,-188 433,-188 433,4 -4,4"/>
<!-- Node1 -->
<g id="node1" class="node"><title>Node1</title>
<polygon fill="#bfbfbf" stroke="black" points="0,-79.5 0,-100.5 86,-100.5 86,-79.5 0,-79.5"/>
<text text-anchor="middle" x="43" y="-86.9" font-family="Helvetica,sans-Serif" font-size="12.00">JSONWorker</text>
</g>
<!-- Node2 -->
<g id="node2" class="node"><title>Node2</title>
<g id="a_node2"><a xlink:href="../../d6/dc7/class_j_s_o_n_node.html" target="_top" xlink:title="JSONNode">
<polygon fill="white" stroke="black" points="139.5,-160.5 139.5,-181.5 216.5,-181.5 216.5,-160.5 139.5,-160.5"/>
<text text-anchor="middle" x="178" y="-167.9" font-family="Helvetica,sans-Serif" font-size="12.00">JSONNode</text>
</a>
</g>
</g>
<!-- Node2&#45;&gt;Node1 -->
<g id="edge1" class="edge"><title>Node2&#45;&gt;Node1</title>
<path fill="none" stroke="#9a32cd" stroke-dasharray="5,2" d="M129.284,-165.199C95.9167,-160.808 55.8163,-152.976 45,-140 35.9507,-129.144 37.7962,-111.764 40.2124,-100.885"/>
<polygon fill="#9a32cd" stroke="#9a32cd" points="129.028,-168.694 139.383,-166.453 129.891,-161.747 129.028,-168.694"/>
<text text-anchor="middle" x="101" y="-129.9" font-family="Helvetica,sans-Serif" font-size="12.00"> RemoveWhiteSpace</text>
</g>
<!-- Node2&#45;&gt;Node2 -->
<g id="edge2" class="edge"><title>Node2&#45;&gt;Node2</title>
<path fill="none" stroke="#9a32cd" stroke-dasharray="5,2" d="M226.872,-176.635C231.251,-175.456 234,-173.578 234,-171 234,-166.77 226.597,-164.423 216.735,-163.96"/>
<polygon fill="#9a32cd" stroke="#9a32cd" points="226.16,-173.2 216.735,-178.04 227.121,-180.134 226.16,-173.2"/>
<text text-anchor="middle" x="261" y="-174.4" font-family="Helvetica,sans-Serif" font-size="12.00"> operator[]</text>
<text text-anchor="middle" x="261" y="-161.4" font-family="Helvetica,sans-Serif" font-size="12.00">operator=</text>
</g>
<!-- Node5 -->
<g id="node5" class="node"><title>Node5</title>
<g id="a_node5"><a xlink:href="../../db/d49/classjson_children.html" target="_top" xlink:title="jsonChildren">
<polygon fill="white" stroke="black" points="104.5,-79.5 104.5,-100.5 185.5,-100.5 185.5,-79.5 104.5,-79.5"/>
<text text-anchor="middle" x="145" y="-86.9" font-family="Helvetica,sans-Serif" font-size="12.00">jsonChildren</text>
</a>
</g>
</g>
<!-- Node2&#45;&gt;Node5 -->
<g id="edge6" class="edge"><title>Node2&#45;&gt;Node5</title>
<path fill="none" stroke="#9a32cd" stroke-dasharray="5,2" d="M170.04,-150.945C163.429,-135.117 154.292,-113.244 149.08,-100.766"/>
<polygon fill="#9a32cd" stroke="#9a32cd" points="166.869,-152.435 173.954,-160.313 173.329,-149.737 166.869,-152.435"/>
<text text-anchor="middle" x="181" y="-129.9" font-family="Helvetica,sans-Serif" font-size="12.00"> array</text>
</g>
<!-- Node3 -->
<g id="node3" class="node"><title>Node3</title>
<g id="a_node3"><a xlink:href="../../d1/d0b/classinternal_j_s_o_n_node.html" target="_top" xlink:title="internalJSONNode">
<polygon fill="white" stroke="black" points="166,-0.5 166,-21.5 280,-21.5 280,-0.5 166,-0.5"/>
<text text-anchor="middle" x="223" y="-7.9" font-family="Helvetica,sans-Serif" font-size="12.00">internalJSONNode</text>
</a>
</g>
</g>
<!-- Node3&#45;&gt;Node2 -->
<g id="edge3" class="edge"><title>Node3&#45;&gt;Node2</title>
<path fill="none" stroke="#9a32cd" stroke-dasharray="5,2" d="M222.206,-31.7751C220.561,-57.6222 215.509,-103.851 200,-140 196.791,-147.479 191.412,-154.863 186.776,-160.434"/>
<polygon fill="#9a32cd" stroke="#9a32cd" points="225.704,-31.9085 222.736,-21.738 218.714,-31.5397 225.704,-31.9085"/>
<text text-anchor="middle" x="238.5" y="-86.9" font-family="Helvetica,sans-Serif" font-size="12.00"> internal</text>
</g>
<!-- Node4 -->
<g id="node4" class="node"><title>Node4</title>
<g id="a_node4"><a xlink:href="../../d9/df1/unioninternal_j_s_o_n_node_1_1value__union__t.html" target="_top" xlink:title="internalJSONNode::value\l_union_t">
<polygon fill="white" stroke="black" points="282.5,-73 282.5,-107 429.5,-107 429.5,-73 282.5,-73"/>
<text text-anchor="start" x="290.5" y="-93.4" font-family="Helvetica,sans-Serif" font-size="12.00">internalJSONNode::value</text>
<text text-anchor="middle" x="356" y="-80.4" font-family="Helvetica,sans-Serif" font-size="12.00">_union_t</text>
</a>
</g>
</g>
<!-- Node4&#45;&gt;Node3 -->
<g id="edge4" class="edge"><title>Node4&#45;&gt;Node3</title>
<path fill="none" stroke="#9a32cd" stroke-dasharray="5,2" d="M319.243,-67.7196C293.141,-52.6081 259.34,-33.0388 239.525,-21.5673"/>
<polygon fill="#9a32cd" stroke="#9a32cd" points="317.711,-70.8769 328.119,-72.8583 321.218,-64.8189 317.711,-70.8769"/>
<text text-anchor="middle" x="312.5" y="-43.9" font-family="Helvetica,sans-Serif" font-size="12.00"> _value</text>
</g>
<!-- Node5&#45;&gt;Node3 -->
<g id="edge5" class="edge"><title>Node5&#45;&gt;Node3</title>
<path fill="none" stroke="#9a32cd" stroke-dasharray="5,2" d="M140.046,-69.4219C138.756,-59.7524 139.096,-48.3916 145,-40 150.878,-31.6451 159.495,-25.7708 168.88,-21.6438"/>
<polygon fill="#9a32cd" stroke="#9a32cd" points="136.637,-70.2273 141.987,-79.3722 143.508,-68.887 136.637,-70.2273"/>
<text text-anchor="middle" x="177" y="-43.9" font-family="Helvetica,sans-Serif" font-size="12.00"> CHILDREN</text>
</g>
</g>
</svg>
