<?xml version="1.0" encoding="UTF-8" standalone="no"?>
<!DOCTYPE svg PUBLIC "-//W3C//DTD SVG 1.1//EN"
 "http://www.w3.org/Graphics/SVG/1.1/DTD/svg11.dtd">
<!-- Generated by graphviz version 2.34.0 (20130907.0111)
 -->
<!-- Title: Documentation/Operator&#45;Console/JSON/JSONSharedString.h Pages: 1 -->
<svg width="2312pt" height="632pt"
 viewBox="0.00 0.00 2312.00 632.00" xmlns="http://www.w3.org/2000/svg" xmlns:xlink="http://www.w3.org/1999/xlink">
<g id="graph0" class="graph" transform="scale(1 1) rotate(0) translate(4 628)">
<title>Documentation/Operator&#45;Console/JSON/JSONSharedString.h</title>
<polygon fill="white" stroke="white" points="-4,4 -4,-628 2308,-628 2308,4 -4,4"/>
<!-- Node1 -->
<g id="node1" class="node"><title>Node1</title>
<polygon fill="#bfbfbf" stroke="black" points="1974.5,-589 1974.5,-623 2185.5,-623 2185.5,-589 1974.5,-589"/>
<text text-anchor="start" x="1982.5" y="-609.4" font-family="Helvetica,sans-Serif" font-size="12.00">Documentation/Operator</text>
<text text-anchor="middle" x="2080" y="-596.4" font-family="Helvetica,sans-Serif" font-size="12.00">&#45;Console/JSON/JSONSharedString.h</text>
</g>
<!-- Node2 -->
<g id="node2" class="node"><title>Node2</title>
<g id="a_node2"><a xlink:href="../../dc/db1/_documentation_2_operator-_console_2_j_s_o_n_2internal_j_s_o_n_node_8h.html" target="_top" xlink:title="Documentation/Operator\l&#45;Console/JSON/internalJSONNode.h">
<polygon fill="white" stroke="black" points="1844,-517 1844,-551 2052,-551 2052,-517 1844,-517"/>
<text text-anchor="start" x="1852" y="-537.4" font-family="Helvetica,sans-Serif" font-size="12.00">Documentation/Operator</text>
<text text-anchor="middle" x="1948" y="-524.4" font-family="Helvetica,sans-Serif" font-size="12.00">&#45;Console/JSON/internalJSONNode.h</text>
</a>
</g>
</g>
<!-- Node1&#45;&gt;Node2 -->
<g id="edge1" class="edge"><title>Node1&#45;&gt;Node2</title>
<path fill="none" stroke="midnightblue" d="M2040.88,-584.256C2020.98,-573.701 1997.14,-561.06 1978.6,-551.227"/>
<polygon fill="midnightblue" stroke="midnightblue" points="2039.24,-587.348 2049.72,-588.941 2042.52,-581.163 2039.24,-587.348"/>
</g>
<!-- Node22 -->
<g id="node22" class="node"><title>Node22</title>
<g id="a_node22"><a xlink:href="../../df/d03/_documentation_2_operator-_console_2_j_s_o_n_2_j_s_o_n_worker_8h.html" target="_top" xlink:title="Documentation/Operator\l&#45;Console/JSON/JSONWorker.h">
<polygon fill="white" stroke="black" points="1796,-367 1796,-401 1976,-401 1976,-367 1796,-367"/>
<text text-anchor="start" x="1804" y="-387.4" font-family="Helvetica,sans-Serif" font-size="12.00">Documentation/Operator</text>
<text text-anchor="middle" x="1886" y="-374.4" font-family="Helvetica,sans-Serif" font-size="12.00">&#45;Console/JSON/JSONWorker.h</text>
</a>
</g>
</g>
<!-- Node1&#45;&gt;Node22 -->
<g id="edge41" class="edge"><title>Node1&#45;&gt;Node22</title>
<path fill="none" stroke="midnightblue" d="M2079.22,-578.725C2077.57,-559.955 2073.03,-534.801 2061,-516 2026.22,-461.657 1960.46,-421.72 1920.21,-401.02"/>
<polygon fill="midnightblue" stroke="midnightblue" points="2075.74,-579.194 2079.9,-588.942 2082.73,-578.733 2075.74,-579.194"/>
</g>
<!-- Node33 -->
<g id="node33" class="node"><title>Node33</title>
<g id="a_node33"><a xlink:href="../../d2/d55/_documentation_2_operator-_console_2_j_s_o_n_2_number_to_string_8h.html" target="_top" xlink:title="Documentation/Operator\l&#45;Console/JSON/NumberToString.h">
<polygon fill="white" stroke="black" points="2108,-445 2108,-479 2304,-479 2304,-445 2108,-445"/>
<text text-anchor="start" x="2116" y="-465.4" font-family="Helvetica,sans-Serif" font-size="12.00">Documentation/Operator</text>
<text text-anchor="middle" x="2206" y="-452.4" font-family="Helvetica,sans-Serif" font-size="12.00">&#45;Console/JSON/NumberToString.h</text>
</a>
</g>
</g>
<!-- Node1&#45;&gt;Node33 -->
<g id="edge42" class="edge"><title>Node1&#45;&gt;Node33</title>
<path fill="none" stroke="midnightblue" d="M2100.96,-581.373C2126.64,-552.439 2169.44,-504.2 2191.65,-479.173"/>
<polygon fill="midnightblue" stroke="midnightblue" points="2098.23,-579.184 2094.21,-588.987 2103.46,-583.83 2098.23,-579.184"/>
</g>
<!-- Node3 -->
<g id="node3" class="node"><title>Node3</title>
<g id="a_node3"><a xlink:href="../../d9/d7e/_documentation_2_operator-_console_2_j_s_o_n_2_j_s_o_n_node_8h.html" target="_top" xlink:title="Documentation/Operator\l&#45;Console/JSON/JSONNode.h">
<polygon fill="white" stroke="black" points="1316,-445 1316,-479 1486,-479 1486,-445 1316,-445"/>
<text text-anchor="start" x="1324" y="-465.4" font-family="Helvetica,sans-Serif" font-size="12.00">Documentation/Operator</text>
<text text-anchor="middle" x="1401" y="-452.4" font-family="Helvetica,sans-Serif" font-size="12.00">&#45;Console/JSON/JSONNode.h</text>
</a>
</g>
</g>
<!-- Node2&#45;&gt;Node3 -->
<g id="edge2" class="edge"><title>Node2&#45;&gt;Node3</title>
<path fill="none" stroke="midnightblue" d="M1833.64,-518.365C1730.07,-505.111 1579.81,-485.883 1486.38,-473.926"/>
<polygon fill="midnightblue" stroke="midnightblue" points="1833.46,-521.871 1843.83,-519.669 1834.35,-514.928 1833.46,-521.871"/>
</g>
<!-- Node23 -->
<g id="node23" class="node"><title>Node23</title>
<g id="a_node23"><a xlink:href="../../d7/d97/_documentation_2_operator-_console_2_j_s_o_n_2internal_j_s_o_n_node_8cpp.html" target="_top" xlink:title="Documentation/Operator\l&#45;Console/JSON/internalJSONNode.cpp">
<polygon fill="white" stroke="black" points="1966.5,-289 1966.5,-323 2187.5,-323 2187.5,-289 1966.5,-289"/>
<text text-anchor="start" x="1974.5" y="-309.4" font-family="Helvetica,sans-Serif" font-size="12.00">Documentation/Operator</text>
<text text-anchor="middle" x="2077" y="-296.4" font-family="Helvetica,sans-Serif" font-size="12.00">&#45;Console/JSON/internalJSONNode.cpp</text>
</a>
</g>
</g>
<!-- Node2&#45;&gt;Node23 -->
<g id="edge40" class="edge"><title>Node2&#45;&gt;Node23</title>
<path fill="none" stroke="midnightblue" d="M1962.52,-507.95C1977.1,-482.74 2000.2,-442.725 2020,-408 2037.05,-378.09 2056.76,-343.074 2067.96,-323.118"/>
<polygon fill="midnightblue" stroke="midnightblue" points="1959.35,-506.437 1957.37,-516.845 1965.4,-509.944 1959.35,-506.437"/>
</g>
<!-- Node4 -->
<g id="node4" class="node"><title>Node4</title>
<g id="a_node4"><a xlink:href="../../d6/d7b/_documentation_2_operator-_console_2libjson_8h.html" target="_top" xlink:title="Documentation/Operator\l&#45;Console/libjson.h">
<polygon fill="white" stroke="black" points="877.5,-289 877.5,-323 1022.5,-323 1022.5,-289 877.5,-289"/>
<text text-anchor="start" x="885.5" y="-309.4" font-family="Helvetica,sans-Serif" font-size="12.00">Documentation/Operator</text>
<text text-anchor="middle" x="950" y="-296.4" font-family="Helvetica,sans-Serif" font-size="12.00">&#45;Console/libjson.h</text>
</a>
</g>
</g>
<!-- Node3&#45;&gt;Node4 -->
<g id="edge3" class="edge"><title>Node3&#45;&gt;Node4</title>
<path fill="none" stroke="midnightblue" d="M1305.56,-456.249C1181.1,-449.073 976.374,-433.529 953,-408 931.913,-384.97 938.7,-345.137 944.793,-323.001"/>
<polygon fill="midnightblue" stroke="midnightblue" points="1305.68,-459.762 1315.87,-456.835 1306.08,-452.773 1305.68,-459.762"/>
</g>
<!-- Node3&#45;&gt;Node22 -->
<g id="edge25" class="edge"><title>Node3&#45;&gt;Node22</title>
<path fill="none" stroke="midnightblue" d="M1496.53,-450.255C1574.66,-440.889 1687.87,-426.001 1786,-408 1797.04,-405.975 1808.7,-403.554 1820.01,-401.054"/>
<polygon fill="midnightblue" stroke="midnightblue" points="1495.74,-446.824 1486.22,-451.483 1496.56,-453.775 1495.74,-446.824"/>
</g>
<!-- Node3&#45;&gt;Node23 -->
<g id="edge34" class="edge"><title>Node3&#45;&gt;Node23</title>
<path fill="none" stroke="midnightblue" d="M1496.11,-460.726C1639.15,-458.923 1901.76,-449.801 1985,-408 2010.6,-395.146 2008.72,-381.183 2028,-360 2039.3,-347.581 2052.2,-333.642 2061.92,-323.177"/>
<polygon fill="midnightblue" stroke="midnightblue" points="1495.98,-457.227 1486.02,-460.844 1496.06,-464.227 1495.98,-457.227"/>
</g>
<!-- Node26 -->
<g id="node26" class="node"><title>Node26</title>
<g id="a_node26"><a xlink:href="../../d7/dfe/_documentation_2_operator-_console_2_j_s_o_n_2_j_s_o_n_writer_8cpp.html" target="_top" xlink:title="Documentation/Operator\l&#45;Console/JSON/JSONWriter.cpp">
<polygon fill="white" stroke="black" points="1206.5,-289 1206.5,-323 1393.5,-323 1393.5,-289 1206.5,-289"/>
<text text-anchor="start" x="1214.5" y="-309.4" font-family="Helvetica,sans-Serif" font-size="12.00">Documentation/Operator</text>
<text text-anchor="middle" x="1300" y="-296.4" font-family="Helvetica,sans-Serif" font-size="12.00">&#45;Console/JSON/JSONWriter.cpp</text>
</a>
</g>
</g>
<!-- Node3&#45;&gt;Node26 -->
<g id="edge39" class="edge"><title>Node3&#45;&gt;Node26</title>
<path fill="none" stroke="midnightblue" d="M1305.66,-455.815C1186.02,-448.315 993.734,-432.584 972,-408 902,-328.82 1086.47,-310.876 1206.38,-307.323"/>
<polygon fill="midnightblue" stroke="midnightblue" points="1305.74,-459.326 1315.93,-456.45 1306.17,-452.339 1305.74,-459.326"/>
</g>
<!-- Node27 -->
<g id="node27" class="node"><title>Node27</title>
<g id="a_node27"><a xlink:href="../../d6/de0/_documentation_2_operator-_console_2_j_s_o_n_2_j_s_o_n_preparse_8h.html" target="_top" xlink:title="Documentation/Operator\l&#45;Console/JSON/JSONPreparse.h">
<polygon fill="white" stroke="black" points="695.5,-367 695.5,-401 886.5,-401 886.5,-367 695.5,-367"/>
<text text-anchor="start" x="703.5" y="-387.4" font-family="Helvetica,sans-Serif" font-size="12.00">Documentation/Operator</text>
<text text-anchor="middle" x="791" y="-374.4" font-family="Helvetica,sans-Serif" font-size="12.00">&#45;Console/JSON/JSONPreparse.h</text>
</a>
</g>
</g>
<!-- Node3&#45;&gt;Node27 -->
<g id="edge31" class="edge"><title>Node3&#45;&gt;Node27</title>
<path fill="none" stroke="midnightblue" d="M1305.56,-453.754C1204.67,-445.425 1041.06,-430.009 901,-408 888.472,-406.031 875.214,-403.58 862.405,-401.017"/>
<polygon fill="midnightblue" stroke="midnightblue" points="1305.48,-457.259 1315.73,-454.588 1306.05,-450.283 1305.48,-457.259"/>
</g>
<!-- Node29 -->
<g id="node29" class="node"><title>Node29</title>
<g id="a_node29"><a xlink:href="../../df/d4e/_documentation_2_operator-_console_2_j_s_o_n_2_j_s_o_n_children_8cpp.html" target="_top" xlink:title="Documentation/Operator\l&#45;Console/JSON/JSONChildren.cpp">
<polygon fill="white" stroke="black" points="981.5,-367 981.5,-401 1180.5,-401 1180.5,-367 981.5,-367"/>
<text text-anchor="start" x="989.5" y="-387.4" font-family="Helvetica,sans-Serif" font-size="12.00">Documentation/Operator</text>
<text text-anchor="middle" x="1081" y="-374.4" font-family="Helvetica,sans-Serif" font-size="12.00">&#45;Console/JSON/JSONChildren.cpp</text>
</a>
</g>
</g>
<!-- Node3&#45;&gt;Node29 -->
<g id="edge35" class="edge"><title>Node3&#45;&gt;Node29</title>
<path fill="none" stroke="midnightblue" d="M1323.74,-442.65C1270.21,-429.936 1199.63,-413.174 1148.38,-401.003"/>
<polygon fill="midnightblue" stroke="midnightblue" points="1322.99,-446.07 1333.53,-444.975 1324.61,-439.259 1322.99,-446.07"/>
</g>
<!-- Node30 -->
<g id="node30" class="node"><title>Node30</title>
<g id="a_node30"><a xlink:href="../../de/dfb/_documentation_2_operator-_console_2_j_s_o_n_2_j_s_o_n_iterators_8cpp.html" target="_top" xlink:title="Documentation/Operator\l&#45;Console/JSON/JSONIterators.cpp">
<polygon fill="white" stroke="black" points="1198.5,-367 1198.5,-401 1395.5,-401 1395.5,-367 1198.5,-367"/>
<text text-anchor="start" x="1206.5" y="-387.4" font-family="Helvetica,sans-Serif" font-size="12.00">Documentation/Operator</text>
<text text-anchor="middle" x="1297" y="-374.4" font-family="Helvetica,sans-Serif" font-size="12.00">&#45;Console/JSON/JSONIterators.cpp</text>
</a>
</g>
</g>
<!-- Node3&#45;&gt;Node30 -->
<g id="edge36" class="edge"><title>Node3&#45;&gt;Node30</title>
<path fill="none" stroke="midnightblue" d="M1370.67,-438.835C1354.14,-426.754 1334.05,-412.072 1319.02,-401.094"/>
<polygon fill="midnightblue" stroke="midnightblue" points="1368.81,-441.808 1378.94,-444.882 1372.94,-436.156 1368.81,-441.808"/>
</g>
<!-- Node31 -->
<g id="node31" class="node"><title>Node31</title>
<g id="a_node31"><a xlink:href="../../db/d8a/_documentation_2_operator-_console_2_j_s_o_n_2_j_s_o_n_node_8cpp.html" target="_top" xlink:title="Documentation/Operator\l&#45;Console/JSON/JSONNode.cpp">
<polygon fill="white" stroke="black" points="1414,-367 1414,-401 1598,-401 1598,-367 1414,-367"/>
<text text-anchor="start" x="1422" y="-387.4" font-family="Helvetica,sans-Serif" font-size="12.00">Documentation/Operator</text>
<text text-anchor="middle" x="1506" y="-374.4" font-family="Helvetica,sans-Serif" font-size="12.00">&#45;Console/JSON/JSONNode.cpp</text>
</a>
</g>
</g>
<!-- Node3&#45;&gt;Node31 -->
<g id="edge37" class="edge"><title>Node3&#45;&gt;Node31</title>
<path fill="none" stroke="midnightblue" d="M1431.62,-438.835C1448.31,-426.754 1468.6,-412.072 1483.76,-401.094"/>
<polygon fill="midnightblue" stroke="midnightblue" points="1429.32,-436.184 1423.27,-444.882 1433.42,-441.854 1429.32,-436.184"/>
</g>
<!-- Node32 -->
<g id="node32" class="node"><title>Node32</title>
<g id="a_node32"><a xlink:href="../../d3/d25/_documentation_2_operator-_console_2_j_s_o_n_2_j_s_o_n_node___mutex_8cpp.html" target="_top" xlink:title="Documentation/Operator\l&#45;Console/JSON/JSONNode\l_Mutex.cpp">
<polygon fill="white" stroke="black" points="1616.5,-360.5 1616.5,-407.5 1777.5,-407.5 1777.5,-360.5 1616.5,-360.5"/>
<text text-anchor="start" x="1624.5" y="-393.9" font-family="Helvetica,sans-Serif" font-size="12.00">Documentation/Operator</text>
<text text-anchor="start" x="1624.5" y="-380.9" font-family="Helvetica,sans-Serif" font-size="12.00">&#45;Console/JSON/JSONNode</text>
<text text-anchor="middle" x="1697" y="-367.9" font-family="Helvetica,sans-Serif" font-size="12.00">_Mutex.cpp</text>
</a>
</g>
</g>
<!-- Node3&#45;&gt;Node32 -->
<g id="edge38" class="edge"><title>Node3&#45;&gt;Node32</title>
<path fill="none" stroke="midnightblue" d="M1473.3,-442.436C1516.58,-431.323 1571.69,-417.175 1616.37,-405.702"/>
<polygon fill="midnightblue" stroke="midnightblue" points="1472.23,-439.098 1463.41,-444.975 1473.97,-445.878 1472.23,-439.098"/>
</g>
<!-- Node5 -->
<g id="node5" class="node"><title>Node5</title>
<g id="a_node5"><a xlink:href="../../d5/dd6/_documentation_2_operator-_console_2_image_test_8h.html" target="_top" xlink:title="Documentation/Operator\l&#45;Console/ImageTest.h">
<polygon fill="white" stroke="black" points="622.5,-217 622.5,-251 767.5,-251 767.5,-217 622.5,-217"/>
<text text-anchor="start" x="630.5" y="-237.4" font-family="Helvetica,sans-Serif" font-size="12.00">Documentation/Operator</text>
<text text-anchor="middle" x="695" y="-224.4" font-family="Helvetica,sans-Serif" font-size="12.00">&#45;Console/ImageTest.h</text>
</a>
</g>
</g>
<!-- Node4&#45;&gt;Node5 -->
<g id="edge4" class="edge"><title>Node4&#45;&gt;Node5</title>
<path fill="none" stroke="midnightblue" d="M881.827,-286.286C841.857,-275.314 791.877,-261.594 753.671,-251.106"/>
<polygon fill="midnightblue" stroke="midnightblue" points="880.928,-289.668 891.498,-288.941 882.781,-282.918 880.928,-289.668"/>
</g>
<!-- Node19 -->
<g id="node19" class="node"><title>Node19</title>
<g id="a_node19"><a xlink:href="../../d6/d7f/_documentation_2_operator-_console_2_s_f_rplus_test_8cpp.html" target="_top" xlink:title="Documentation/Operator\l&#45;Console/SFRplusTest.cpp">
<polygon fill="white" stroke="black" points="818.5,-73 818.5,-107 975.5,-107 975.5,-73 818.5,-73"/>
<text text-anchor="start" x="826.5" y="-93.4" font-family="Helvetica,sans-Serif" font-size="12.00">Documentation/Operator</text>
<text text-anchor="middle" x="897" y="-80.4" font-family="Helvetica,sans-Serif" font-size="12.00">&#45;Console/SFRplusTest.cpp</text>
</a>
</g>
</g>
<!-- Node4&#45;&gt;Node19 -->
<g id="edge24" class="edge"><title>Node4&#45;&gt;Node19</title>
<path fill="none" stroke="midnightblue" d="M930.991,-280.477C925.262,-271.903 919.557,-261.93 916,-252 897.874,-201.391 896.219,-136.678 896.547,-107.079"/>
<polygon fill="midnightblue" stroke="midnightblue" points="928.263,-282.682 936.881,-288.844 933.987,-278.653 928.263,-282.682"/>
</g>
<!-- Node20 -->
<g id="node20" class="node"><title>Node20</title>
<g id="a_node20"><a xlink:href="../../d5/d65/_documentation_2_operator-_console_2_j_s_o_n_2libjson_8cpp.html" target="_top" xlink:title="Documentation/Operator\l&#45;Console/JSON/libjson.cpp">
<polygon fill="white" stroke="black" points="925.5,-217 925.5,-251 1082.5,-251 1082.5,-217 925.5,-217"/>
<text text-anchor="start" x="933.5" y="-237.4" font-family="Helvetica,sans-Serif" font-size="12.00">Documentation/Operator</text>
<text text-anchor="middle" x="1004" y="-224.4" font-family="Helvetica,sans-Serif" font-size="12.00">&#45;Console/JSON/libjson.cpp</text>
</a>
</g>
</g>
<!-- Node4&#45;&gt;Node20 -->
<g id="edge22" class="edge"><title>Node4&#45;&gt;Node20</title>
<path fill="none" stroke="midnightblue" d="M968.828,-280.593C976.351,-270.842 984.808,-259.879 991.544,-251.147"/>
<polygon fill="midnightblue" stroke="midnightblue" points="965.861,-278.709 962.524,-288.765 971.404,-282.985 965.861,-278.709"/>
</g>
<!-- Node21 -->
<g id="node21" class="node"><title>Node21</title>
<g id="a_node21"><a xlink:href="../../d0/d59/_documentation_2_operator-_console_2jsonhelpers_8cpp.html" target="_top" xlink:title="Documentation/Operator\l&#45;Console/jsonhelpers.cpp">
<polygon fill="white" stroke="black" points="1100.5,-217 1100.5,-251 1249.5,-251 1249.5,-217 1100.5,-217"/>
<text text-anchor="start" x="1108.5" y="-237.4" font-family="Helvetica,sans-Serif" font-size="12.00">Documentation/Operator</text>
<text text-anchor="middle" x="1175" y="-224.4" font-family="Helvetica,sans-Serif" font-size="12.00">&#45;Console/jsonhelpers.cpp</text>
</a>
</g>
</g>
<!-- Node4&#45;&gt;Node21 -->
<g id="edge23" class="edge"><title>Node4&#45;&gt;Node21</title>
<path fill="none" stroke="midnightblue" d="M1011.27,-285.937C1046.35,-275.024 1089.88,-261.483 1123.23,-251.106"/>
<polygon fill="midnightblue" stroke="midnightblue" points="1010.13,-282.628 1001.62,-288.941 1012.21,-289.312 1010.13,-282.628"/>
</g>
<!-- Node6 -->
<g id="node6" class="node"><title>Node6</title>
<g id="a_node6"><a xlink:href="../../da/df8/_documentation_2_operator-_console_2_blemish_test_8h.html" target="_top" xlink:title="Documentation/Operator\l&#45;Console/BlemishTest.h">
<polygon fill="white" stroke="black" points="521.5,-145 521.5,-179 666.5,-179 666.5,-145 521.5,-145"/>
<text text-anchor="start" x="529.5" y="-165.4" font-family="Helvetica,sans-Serif" font-size="12.00">Documentation/Operator</text>
<text text-anchor="middle" x="594" y="-152.4" font-family="Helvetica,sans-Serif" font-size="12.00">&#45;Console/BlemishTest.h</text>
</a>
</g>
</g>
<!-- Node5&#45;&gt;Node6 -->
<g id="edge5" class="edge"><title>Node5&#45;&gt;Node6</title>
<path fill="none" stroke="midnightblue" d="M663.411,-211.107C648.531,-200.793 631.09,-188.706 617.413,-179.227"/>
<polygon fill="midnightblue" stroke="midnightblue" points="661.616,-214.121 671.829,-216.941 665.603,-208.368 661.616,-214.121"/>
</g>
<!-- Node7 -->
<g id="node7" class="node"><title>Node7</title>
<g id="a_node7"><a xlink:href="../../da/d65/_documentation_2_operator-_console_2_operator_console_8h.html" target="_top" xlink:title="Documentation/Operator\l&#45;Console/OperatorConsole.h">
<polygon fill="white" stroke="black" points="634,-73 634,-107 800,-107 800,-73 634,-73"/>
<text text-anchor="start" x="642" y="-93.4" font-family="Helvetica,sans-Serif" font-size="12.00">Documentation/Operator</text>
<text text-anchor="middle" x="717" y="-80.4" font-family="Helvetica,sans-Serif" font-size="12.00">&#45;Console/OperatorConsole.h</text>
</a>
</g>
</g>
<!-- Node5&#45;&gt;Node7 -->
<g id="edge17" class="edge"><title>Node5&#45;&gt;Node7</title>
<path fill="none" stroke="midnightblue" d="M699.071,-206.726C703.587,-177.574 710.733,-131.451 714.494,-107.173"/>
<polygon fill="midnightblue" stroke="midnightblue" points="695.553,-206.569 697.481,-216.987 702.471,-207.641 695.553,-206.569"/>
</g>
<!-- Node10 -->
<g id="node10" class="node"><title>Node10</title>
<g id="a_node10"><a xlink:href="../../da/df9/_documentation_2_operator-_console_2_image_test_8cpp.html" target="_top" xlink:title="Documentation/Operator\l&#45;Console/ImageTest.cpp">
<polygon fill="white" stroke="black" points="-0.5,-1 -0.5,-35 144.5,-35 144.5,-1 -0.5,-1"/>
<text text-anchor="start" x="7.5" y="-21.4" font-family="Helvetica,sans-Serif" font-size="12.00">Documentation/Operator</text>
<text text-anchor="middle" x="72" y="-8.4" font-family="Helvetica,sans-Serif" font-size="12.00">&#45;Console/ImageTest.cpp</text>
</a>
</g>
</g>
<!-- Node5&#45;&gt;Node10 -->
<g id="edge21" class="edge"><title>Node5&#45;&gt;Node10</title>
<path fill="none" stroke="midnightblue" d="M625.81,-214.175C591.422,-204.512 549.337,-192.222 512,-180 363.573,-131.415 190.286,-65.1449 112.92,-35.0465"/>
<polygon fill="midnightblue" stroke="midnightblue" points="625.184,-217.634 635.757,-216.958 627.07,-210.893 625.184,-217.634"/>
</g>
<!-- Node18 -->
<g id="node18" class="node"><title>Node18</title>
<g id="a_node18"><a xlink:href="../../d5/d79/_documentation_2_operator-_console_2_s_f_rplus_test_8h.html" target="_top" xlink:title="Documentation/Operator\l&#45;Console/SFRplusTest.h">
<polygon fill="white" stroke="black" points="723.5,-145 723.5,-179 868.5,-179 868.5,-145 723.5,-145"/>
<text text-anchor="start" x="731.5" y="-165.4" font-family="Helvetica,sans-Serif" font-size="12.00">Documentation/Operator</text>
<text text-anchor="middle" x="796" y="-152.4" font-family="Helvetica,sans-Serif" font-size="12.00">&#45;Console/SFRplusTest.h</text>
</a>
</g>
</g>
<!-- Node5&#45;&gt;Node18 -->
<g id="edge18" class="edge"><title>Node5&#45;&gt;Node18</title>
<path fill="none" stroke="midnightblue" d="M726.589,-211.107C741.469,-200.793 758.91,-188.706 772.587,-179.227"/>
<polygon fill="midnightblue" stroke="midnightblue" points="724.397,-208.368 718.171,-216.941 728.384,-214.121 724.397,-208.368"/>
</g>
<!-- Node6&#45;&gt;Node7 -->
<g id="edge6" class="edge"><title>Node6&#45;&gt;Node7</title>
<path fill="none" stroke="midnightblue" d="M630.953,-139.97C649.397,-129.473 671.364,-116.972 688.487,-107.227"/>
<polygon fill="midnightblue" stroke="midnightblue" points="629.179,-136.952 622.219,-144.941 632.641,-143.036 629.179,-136.952"/>
</g>
<!-- Node17 -->
<g id="node17" class="node"><title>Node17</title>
<g id="a_node17"><a xlink:href="../../dc/d58/_documentation_2_operator-_console_2_blemish_test_8cpp.html" target="_top" xlink:title="Documentation/Operator\l&#45;Console/BlemishTest.cpp">
<polygon fill="white" stroke="black" points="462,-73 462,-107 616,-107 616,-73 462,-73"/>
<text text-anchor="start" x="470" y="-93.4" font-family="Helvetica,sans-Serif" font-size="12.00">Documentation/Operator</text>
<text text-anchor="middle" x="539" y="-80.4" font-family="Helvetica,sans-Serif" font-size="12.00">&#45;Console/BlemishTest.cpp</text>
</a>
</g>
</g>
<!-- Node6&#45;&gt;Node17 -->
<g id="edge16" class="edge"><title>Node6&#45;&gt;Node17</title>
<path fill="none" stroke="midnightblue" d="M575.055,-136.889C567.336,-127.064 558.617,-115.967 551.687,-107.147"/>
<polygon fill="midnightblue" stroke="midnightblue" points="572.313,-139.064 581.244,-144.765 577.818,-134.739 572.313,-139.064"/>
</g>
<!-- Node8 -->
<g id="node8" class="node"><title>Node8</title>
<g id="a_node8"><a xlink:href="../../d7/d4b/_documentation_2_operator-_console_2_app_thread_8cpp.html" target="_top" xlink:title="Documentation/Operator\l&#45;Console/AppThread.cpp">
<polygon fill="white" stroke="black" points="1261,-1 1261,-35 1409,-35 1409,-1 1261,-1"/>
<text text-anchor="start" x="1269" y="-21.4" font-family="Helvetica,sans-Serif" font-size="12.00">Documentation/Operator</text>
<text text-anchor="middle" x="1335" y="-8.4" font-family="Helvetica,sans-Serif" font-size="12.00">&#45;Console/AppThread.cpp</text>
</a>
</g>
</g>
<!-- Node7&#45;&gt;Node8 -->
<g id="edge7" class="edge"><title>Node7&#45;&gt;Node8</title>
<path fill="none" stroke="midnightblue" d="M810.229,-71.921C1006.13,-46.6297 1059.09,-63.138 1251,-36 1254.24,-35.5417 1257.55,-35.0366 1260.88,-34.4961"/>
<polygon fill="midnightblue" stroke="midnightblue" points="809.645,-68.4677 800.184,-73.2381 810.555,-75.4083 809.645,-68.4677"/>
</g>
<!-- Node9 -->
<g id="node9" class="node"><title>Node9</title>
<g id="a_node9"><a xlink:href="../../de/d31/_documentation_2_operator-_console_2_critical_buf_8cpp.html" target="_top" xlink:title="Documentation/Operator\l&#45;Console/CriticalBuf.cpp">
<polygon fill="white" stroke="black" points="1427.5,-1 1427.5,-35 1572.5,-35 1572.5,-1 1427.5,-1"/>
<text text-anchor="start" x="1435.5" y="-21.4" font-family="Helvetica,sans-Serif" font-size="12.00">Documentation/Operator</text>
<text text-anchor="middle" x="1500" y="-8.4" font-family="Helvetica,sans-Serif" font-size="12.00">&#45;Console/CriticalBuf.cpp</text>
</a>
</g>
</g>
<!-- Node7&#45;&gt;Node9 -->
<g id="edge8" class="edge"><title>Node7&#45;&gt;Node9</title>
<path fill="none" stroke="midnightblue" d="M810.262,-71.9442C1079.92,-40.0824 1152.49,-71.18 1418,-36 1421.03,-35.599 1424.11,-35.1493 1427.22,-34.6618"/>
<polygon fill="midnightblue" stroke="midnightblue" points="809.686,-68.4882 800.174,-73.1545 810.52,-75.4383 809.686,-68.4882"/>
</g>
<!-- Node7&#45;&gt;Node10 -->
<g id="edge9" class="edge"><title>Node7&#45;&gt;Node10</title>
<path fill="none" stroke="midnightblue" d="M623.763,-71.9267C415.06,-45.5154 358.631,-64.9107 154,-36 150.977,-35.5729 147.898,-35.1015 144.793,-34.5958"/>
<polygon fill="midnightblue" stroke="midnightblue" points="623.453,-75.4155 633.818,-73.2193 624.346,-68.4727 623.453,-75.4155"/>
</g>
<!-- Node11 -->
<g id="node11" class="node"><title>Node11</title>
<g id="a_node11"><a xlink:href="../../d4/d9c/_msg_dialog_8cpp.html" target="_top" xlink:title="Documentation/Operator\l&#45;Console/MsgDialog.cpp">
<polygon fill="white" stroke="black" points="163,-1 163,-35 309,-35 309,-1 163,-1"/>
<text text-anchor="start" x="171" y="-21.4" font-family="Helvetica,sans-Serif" font-size="12.00">Documentation/Operator</text>
<text text-anchor="middle" x="236" y="-8.4" font-family="Helvetica,sans-Serif" font-size="12.00">&#45;Console/MsgDialog.cpp</text>
</a>
</g>
</g>
<!-- Node7&#45;&gt;Node11 -->
<g id="edge10" class="edge"><title>Node7&#45;&gt;Node11</title>
<path fill="none" stroke="midnightblue" d="M623.804,-71.8798C487.436,-51.7946 450.434,-57.4503 318,-36 315.13,-35.5351 312.207,-35.0391 309.259,-34.5196"/>
<polygon fill="midnightblue" stroke="midnightblue" points="623.39,-75.3567 633.797,-73.3711 624.423,-68.4333 623.39,-75.3567"/>
</g>
<!-- Node12 -->
<g id="node12" class="node"><title>Node12</title>
<g id="a_node12"><a xlink:href="../../db/db5/_documentation_2_operator-_console_2_operator_console_8cpp.html" target="_top" xlink:title="Documentation/Operator\l&#45;Console/OperatorConsole.cpp">
<polygon fill="white" stroke="black" points="327.5,-1 327.5,-35 506.5,-35 506.5,-1 327.5,-1"/>
<text text-anchor="start" x="335.5" y="-21.4" font-family="Helvetica,sans-Serif" font-size="12.00">Documentation/Operator</text>
<text text-anchor="middle" x="417" y="-8.4" font-family="Helvetica,sans-Serif" font-size="12.00">&#45;Console/OperatorConsole.cpp</text>
</a>
</g>
</g>
<!-- Node7&#45;&gt;Node12 -->
<g id="edge11" class="edge"><title>Node7&#45;&gt;Node12</title>
<path fill="none" stroke="midnightblue" d="M638.266,-70.6288C590.913,-59.5797 531.215,-45.6501 485.765,-35.0452"/>
<polygon fill="midnightblue" stroke="midnightblue" points="637.64,-74.0767 648.174,-72.9406 639.231,-67.2598 637.64,-74.0767"/>
</g>
<!-- Node13 -->
<g id="node13" class="node"><title>Node13</title>
<g id="a_node13"><a xlink:href="../../dd/dcb/_documentation_2_operator-_console_2_operator_console_dlg_8cpp.html" target="_top" xlink:title="Documentation/Operator\l&#45;Console/OperatorConsoleDlg.cpp">
<polygon fill="white" stroke="black" points="524.5,-1 524.5,-35 721.5,-35 721.5,-1 524.5,-1"/>
<text text-anchor="start" x="532.5" y="-21.4" font-family="Helvetica,sans-Serif" font-size="12.00">Documentation/Operator</text>
<text text-anchor="middle" x="623" y="-8.4" font-family="Helvetica,sans-Serif" font-size="12.00">&#45;Console/OperatorConsoleDlg.cpp</text>
</a>
</g>
</g>
<!-- Node7&#45;&gt;Node13 -->
<g id="edge12" class="edge"><title>Node7&#45;&gt;Node13</title>
<path fill="none" stroke="midnightblue" d="M686.977,-66.6425C673.227,-56.4033 657.238,-44.4963 644.684,-35.1473"/>
<polygon fill="midnightblue" stroke="midnightblue" points="685.087,-69.5991 695.198,-72.7646 689.268,-63.9848 685.087,-69.5991"/>
</g>
<!-- Node14 -->
<g id="node14" class="node"><title>Node14</title>
<g id="a_node14"><a xlink:href="../../dd/d14/_documentation_2_operator-_console_2_pass_fail_8cpp.html" target="_top" xlink:title="Documentation/Operator\l&#45;Console/PassFail.cpp">
<polygon fill="white" stroke="black" points="739.5,-1 739.5,-35 884.5,-35 884.5,-1 739.5,-1"/>
<text text-anchor="start" x="747.5" y="-21.4" font-family="Helvetica,sans-Serif" font-size="12.00">Documentation/Operator</text>
<text text-anchor="middle" x="812" y="-8.4" font-family="Helvetica,sans-Serif" font-size="12.00">&#45;Console/PassFail.cpp</text>
</a>
</g>
</g>
<!-- Node7&#45;&gt;Node14 -->
<g id="edge13" class="edge"><title>Node7&#45;&gt;Node14</title>
<path fill="none" stroke="midnightblue" d="M747.342,-66.6425C761.238,-56.4033 777.398,-44.4963 790.086,-35.1473"/>
<polygon fill="midnightblue" stroke="midnightblue" points="745.008,-64.0149 739.034,-72.7646 749.16,-69.6503 745.008,-64.0149"/>
</g>
<!-- Node15 -->
<g id="node15" class="node"><title>Node15</title>
<g id="a_node15"><a xlink:href="../../dd/d4b/_documentation_2_operator-_console_2_password_dialog_8cpp.html" target="_top" xlink:title="Documentation/Operator\l&#45;Console/PasswordDialog.cpp">
<polygon fill="white" stroke="black" points="903,-1 903,-35 1079,-35 1079,-1 903,-1"/>
<text text-anchor="start" x="911" y="-21.4" font-family="Helvetica,sans-Serif" font-size="12.00">Documentation/Operator</text>
<text text-anchor="middle" x="991" y="-8.4" font-family="Helvetica,sans-Serif" font-size="12.00">&#45;Console/PasswordDialog.cpp</text>
</a>
</g>
</g>
<!-- Node7&#45;&gt;Node15 -->
<g id="edge14" class="edge"><title>Node7&#45;&gt;Node15</title>
<path fill="none" stroke="midnightblue" d="M789.708,-70.425C832.746,-59.4299 886.731,-45.638 927.958,-35.1057"/>
<polygon fill="midnightblue" stroke="midnightblue" points="788.684,-67.0742 779.861,-72.9406 790.416,-73.8564 788.684,-67.0742"/>
</g>
<!-- Node16 -->
<g id="node16" class="node"><title>Node16</title>
<g id="a_node16"><a xlink:href="../../d3/d68/_documentation_2_operator-_console_2_setup_8cpp.html" target="_top" xlink:title="Documentation/Operator\l&#45;Console/Setup.cpp">
<polygon fill="white" stroke="black" points="1097.5,-1 1097.5,-35 1242.5,-35 1242.5,-1 1097.5,-1"/>
<text text-anchor="start" x="1105.5" y="-21.4" font-family="Helvetica,sans-Serif" font-size="12.00">Documentation/Operator</text>
<text text-anchor="middle" x="1170" y="-8.4" font-family="Helvetica,sans-Serif" font-size="12.00">&#45;Console/Setup.cpp</text>
</a>
</g>
</g>
<!-- Node7&#45;&gt;Node16 -->
<g id="edge15" class="edge"><title>Node7&#45;&gt;Node16</title>
<path fill="none" stroke="midnightblue" d="M810.098,-71.8789C934.212,-52.8244 967.829,-56.1796 1088,-36 1091.01,-35.4944 1094.08,-34.9573 1097.18,-34.3974"/>
<polygon fill="midnightblue" stroke="midnightblue" points="809.554,-68.4212 800.21,-73.4146 810.629,-75.3383 809.554,-68.4212"/>
</g>
<!-- Node18&#45;&gt;Node7 -->
<g id="edge19" class="edge"><title>Node18&#45;&gt;Node7</title>
<path fill="none" stroke="midnightblue" d="M770.112,-138.061C758.706,-127.955 745.575,-116.32 735.223,-107.147"/>
<polygon fill="midnightblue" stroke="midnightblue" points="767.872,-140.752 777.677,-144.765 772.514,-135.513 767.872,-140.752"/>
</g>
<!-- Node18&#45;&gt;Node19 -->
<g id="edge20" class="edge"><title>Node18&#45;&gt;Node19</title>
<path fill="none" stroke="midnightblue" d="M827.589,-139.107C842.469,-128.793 859.91,-116.706 873.587,-107.227"/>
<polygon fill="midnightblue" stroke="midnightblue" points="825.397,-136.368 819.171,-144.941 829.384,-142.121 825.397,-136.368"/>
</g>
<!-- Node22&#45;&gt;Node4 -->
<g id="edge26" class="edge"><title>Node22&#45;&gt;Node4</title>
<path fill="none" stroke="midnightblue" d="M1813.64,-364.88C1804.38,-362.997 1795,-361.301 1786,-360 1526.43,-322.479 1458.71,-341.004 1197,-324 1138.34,-320.189 1071.87,-315.599 1022.67,-312.149"/>
<polygon fill="midnightblue" stroke="midnightblue" points="1813.11,-368.344 1823.62,-366.985 1814.56,-361.495 1813.11,-368.344"/>
</g>
<!-- Node22&#45;&gt;Node23 -->
<g id="edge27" class="edge"><title>Node22&#45;&gt;Node23</title>
<path fill="none" stroke="midnightblue" d="M1935.94,-363.129C1967.29,-350.655 2007.19,-334.777 2036.55,-323.094"/>
<polygon fill="midnightblue" stroke="midnightblue" points="1934.5,-359.933 1926.51,-366.882 1937.09,-366.437 1934.5,-359.933"/>
</g>
<!-- Node24 -->
<g id="node24" class="node"><title>Node24</title>
<g id="a_node24"><a xlink:href="../../d5/de0/_documentation_2_operator-_console_2_j_s_o_n_2_j_s_o_n_stream_8cpp.html" target="_top" xlink:title="Documentation/Operator\l&#45;Console/JSON/JSONStream.cpp">
<polygon fill="white" stroke="black" points="1542,-289 1542,-323 1736,-323 1736,-289 1542,-289"/>
<text text-anchor="start" x="1550" y="-309.4" font-family="Helvetica,sans-Serif" font-size="12.00">Documentation/Operator</text>
<text text-anchor="middle" x="1639" y="-296.4" font-family="Helvetica,sans-Serif" font-size="12.00">&#45;Console/JSON/JSONStream.cpp</text>
</a>
</g>
</g>
<!-- Node22&#45;&gt;Node24 -->
<g id="edge28" class="edge"><title>Node22&#45;&gt;Node24</title>
<path fill="none" stroke="midnightblue" d="M1824.3,-364.014C1783.24,-351.381 1729.91,-334.972 1691.01,-323.003"/>
<polygon fill="midnightblue" stroke="midnightblue" points="1823.33,-367.38 1833.92,-366.975 1825.39,-360.689 1823.33,-367.38"/>
</g>
<!-- Node25 -->
<g id="node25" class="node"><title>Node25</title>
<g id="a_node25"><a xlink:href="../../db/d60/_documentation_2_operator-_console_2_j_s_o_n_2_j_s_o_n_worker_8cpp.html" target="_top" xlink:title="Documentation/Operator\l&#45;Console/JSON/JSONWorker.cpp">
<polygon fill="white" stroke="black" points="1754,-289 1754,-323 1948,-323 1948,-289 1754,-289"/>
<text text-anchor="start" x="1762" y="-309.4" font-family="Helvetica,sans-Serif" font-size="12.00">Documentation/Operator</text>
<text text-anchor="middle" x="1851" y="-296.4" font-family="Helvetica,sans-Serif" font-size="12.00">&#45;Console/JSON/JSONWorker.cpp</text>
</a>
</g>
</g>
<!-- Node22&#45;&gt;Node25 -->
<g id="edge29" class="edge"><title>Node22&#45;&gt;Node25</title>
<path fill="none" stroke="midnightblue" d="M1874.39,-357.793C1869.12,-346.355 1863.05,-333.166 1858.41,-323.094"/>
<polygon fill="midnightblue" stroke="midnightblue" points="1871.22,-359.263 1878.58,-366.882 1877.57,-356.335 1871.22,-359.263"/>
</g>
<!-- Node22&#45;&gt;Node26 -->
<g id="edge30" class="edge"><title>Node22&#45;&gt;Node26</title>
<path fill="none" stroke="midnightblue" d="M1811.42,-364.839C1802.88,-363.058 1794.27,-361.397 1786,-360 1650.42,-337.097 1491.82,-321.957 1393.62,-313.926"/>
<polygon fill="midnightblue" stroke="midnightblue" points="1810.89,-368.304 1821.4,-366.975 1812.36,-361.459 1810.89,-368.304"/>
</g>
<!-- Node27&#45;&gt;Node4 -->
<g id="edge32" class="edge"><title>Node27&#45;&gt;Node4</title>
<path fill="none" stroke="midnightblue" d="M833.929,-362.481C859.812,-350.109 892.309,-334.576 916.329,-323.094"/>
<polygon fill="midnightblue" stroke="midnightblue" points="832.233,-359.412 824.72,-366.882 835.252,-365.728 832.233,-359.412"/>
</g>
<!-- Node28 -->
<g id="node28" class="node"><title>Node28</title>
<g id="a_node28"><a xlink:href="../../d1/d1c/_documentation_2_operator-_console_2_j_s_o_n_2_j_s_o_n_preparse_8cpp.html" target="_top" xlink:title="Documentation/Operator\l&#45;Console/JSON/JSONPreparse.cpp">
<polygon fill="white" stroke="black" points="655,-289 655,-323 859,-323 859,-289 655,-289"/>
<text text-anchor="start" x="663" y="-309.4" font-family="Helvetica,sans-Serif" font-size="12.00">Documentation/Operator</text>
<text text-anchor="middle" x="757" y="-296.4" font-family="Helvetica,sans-Serif" font-size="12.00">&#45;Console/JSON/JSONPreparse.cpp</text>
</a>
</g>
</g>
<!-- Node27&#45;&gt;Node28 -->
<g id="edge33" class="edge"><title>Node27&#45;&gt;Node28</title>
<path fill="none" stroke="midnightblue" d="M779.569,-357.449C774.488,-346.091 768.661,-333.065 764.2,-323.094"/>
<polygon fill="midnightblue" stroke="midnightblue" points="776.511,-359.183 783.789,-366.882 782.901,-356.325 776.511,-359.183"/>
</g>
<!-- Node33&#45;&gt;Node23 -->
<g id="edge43" class="edge"><title>Node33&#45;&gt;Node23</title>
<path fill="none" stroke="midnightblue" d="M2185.83,-436.927C2159.36,-405.326 2113.59,-350.682 2090.77,-323.436"/>
<polygon fill="midnightblue" stroke="midnightblue" points="2183.33,-439.392 2192.44,-444.81 2188.7,-434.897 2183.33,-439.392"/>
</g>
</g>
</svg>
