<?xml version="1.0" encoding="UTF-8" standalone="no"?>
<!DOCTYPE svg PUBLIC "-//W3C//DTD SVG 1.1//EN"
 "http://www.w3.org/Graphics/SVG/1.1/DTD/svg11.dtd">
<!-- Generated by graphviz version 2.34.0 (20130907.0111)
 -->
<!-- Title: CPassFailSettings Pages: 1 -->
<svg width="1614pt" height="917pt"
 viewBox="0.00 0.00 1614.00 917.02" xmlns="http://www.w3.org/2000/svg" xmlns:xlink="http://www.w3.org/1999/xlink">
<g id="graph0" class="graph" transform="scale(1 1) rotate(0) translate(4 913.018)">
<title>CPassFailSettings</title>
<polygon fill="white" stroke="white" points="-4,4 -4,-913.018 1610,-913.018 1610,4 -4,4"/>
<!-- Node1 -->
<g id="node1" class="node"><title>Node1</title>
<polygon fill="#bfbfbf" stroke="black" points="1490.5,-564.518 1490.5,-585.518 1605.5,-585.518 1605.5,-564.518 1490.5,-564.518"/>
<text text-anchor="middle" x="1548" y="-571.918" font-family="Helvetica,sans-Serif" font-size="12.00">CPassFailSettings</text>
</g>
<!-- Node2 -->
<g id="node2" class="node"><title>Node2</title>
<g id="a_node2"><a xlink:href="../../da/ded/_pass_fail_settings_8h.html#df/d39/struct_blemish_pass_fail" target="_top" xlink:title="A struct that contains an entry&lt;T&gt;,minMaxEntry&lt;T&gt;, or vecEntry&lt;T&gt; for every pass/fail Blemish variabl...">
<polygon fill="white" stroke="black" points="1304.5,-246.518 1304.5,-267.518 1409.5,-267.518 1409.5,-246.518 1304.5,-246.518"/>
<text text-anchor="middle" x="1357" y="-253.918" font-family="Helvetica,sans-Serif" font-size="12.00">BlemishPassFail</text>
</a>
</g>
</g>
<!-- Node2&#45;&gt;Node1 -->
<g id="edge1" class="edge"><title>Node2&#45;&gt;Node1</title>
<path fill="none" stroke="#9a32cd" stroke-dasharray="5,2" d="M1369.56,-276.473C1405.33,-336.653 1513.4,-518.482 1540.69,-564.397"/>
<polygon fill="#9a32cd" stroke="#9a32cd" points="1372.41,-274.406 1364.29,-267.598 1366.39,-277.983 1372.41,-274.406"/>
<text text-anchor="middle" x="1450" y="-448.418" font-family="Helvetica,sans-Serif" font-size="12.00"> blemish</text>
</g>
<!-- Node3 -->
<g id="node3" class="node"><title>Node3</title>
<g id="a_node3"><a xlink:href="../../d3/d96/structentry.html" target="_top" xlink:title="entry\&lt; double \&gt;">
<polygon fill="white" stroke="black" points="693,-248.518 693,-269.518 789,-269.518 789,-248.518 693,-248.518"/>
<text text-anchor="middle" x="741" y="-255.918" font-family="Helvetica,sans-Serif" font-size="12.00">entry&lt; double &gt;</text>
</a>
</g>
</g>
<!-- Node3&#45;&gt;Node2 -->
<g id="edge2" class="edge"><title>Node3&#45;&gt;Node2</title>
<path fill="none" stroke="#9a32cd" stroke-dasharray="5,2" d="M768.609,-243.159C785.208,-233.839 807.287,-222.464 828,-215.018 955.107,-169.325 996.703,-159.205 1130,-181.018 1206.8,-193.585 1292.68,-228.682 1332.89,-246.44"/>
<polygon fill="#9a32cd" stroke="#9a32cd" points="766.459,-240.356 759.52,-248.363 769.937,-246.431 766.459,-240.356"/>
<text text-anchor="start" x="982" y="-353.418" font-family="Helvetica,sans-Serif" font-size="12.00"> Uniformity_RoverG_corners</text>
<text text-anchor="middle" x="1056" y="-340.418" font-family="Helvetica,sans-Serif" font-size="12.00">_pct_max</text>
<text text-anchor="start" x="982" y="-327.418" font-family="Helvetica,sans-Serif" font-size="12.00">Uniformity_BoverG_corners</text>
<text text-anchor="middle" x="1056" y="-314.418" font-family="Helvetica,sans-Serif" font-size="12.00">_pct_max</text>
<text text-anchor="start" x="982" y="-301.418" font-family="Helvetica,sans-Serif" font-size="12.00">Optical_center_offset</text>
<text text-anchor="middle" x="1056" y="-288.418" font-family="Helvetica,sans-Serif" font-size="12.00">_X_max</text>
<text text-anchor="start" x="982" y="-275.418" font-family="Helvetica,sans-Serif" font-size="12.00">Optical_center_offset</text>
<text text-anchor="middle" x="1056" y="-262.418" font-family="Helvetica,sans-Serif" font-size="12.00">_Y_max</text>
<text text-anchor="start" x="982" y="-249.418" font-family="Helvetica,sans-Serif" font-size="12.00">Relative_illumination</text>
<text text-anchor="middle" x="1056" y="-236.418" font-family="Helvetica,sans-Serif" font-size="12.00">_corner_diff_pct_max</text>
<text text-anchor="start" x="982" y="-223.418" font-family="Helvetica,sans-Serif" font-size="12.00">Optical_center_offset</text>
<text text-anchor="middle" x="1056" y="-210.418" font-family="Helvetica,sans-Serif" font-size="12.00">_max</text>
<text text-anchor="start" x="982" y="-197.418" font-family="Helvetica,sans-Serif" font-size="12.00">Relative_illumination</text>
<text text-anchor="middle" x="1056" y="-184.418" font-family="Helvetica,sans-Serif" font-size="12.00">_worst_corner_pct_min</text>
</g>
<!-- Node14 -->
<g id="node14" class="node"><title>Node14</title>
<g id="a_node14"><a xlink:href="../../da/ded/_pass_fail_settings_8h.html#d2/dca/struct_s_f_rplus_pass_fail" target="_top" xlink:title="A struct that contains an entry&lt;T&gt;,minMaxEntry&lt;T&gt;, etc. ">
<polygon fill="white" stroke="black" points="1002,-707.518 1002,-728.518 1110,-728.518 1110,-707.518 1002,-707.518"/>
<text text-anchor="middle" x="1056" y="-714.918" font-family="Helvetica,sans-Serif" font-size="12.00">SFRplusPassFail</text>
</a>
</g>
</g>
<!-- Node3&#45;&gt;Node14 -->
<g id="edge30" class="edge"><title>Node3&#45;&gt;Node14</title>
<path fill="none" stroke="#9a32cd" stroke-dasharray="5,2" d="M779.562,-245.422C828.883,-230.258 914.945,-213.493 964,-260.018 989.276,-283.989 972.98,-539.371 982,-573.018 996.45,-626.918 1032.22,-684.181 1047.68,-707.362"/>
<polygon fill="#9a32cd" stroke="#9a32cd" points="778.371,-242.129 769.915,-248.512 780.507,-248.795 778.371,-242.129"/>
<text text-anchor="middle" x="896" y="-562.418" font-family="Helvetica,sans-Serif" font-size="12.00"> Rotation_degrees_max</text>
<text text-anchor="start" x="828" y="-549.418" font-family="Helvetica,sans-Serif" font-size="12.00">Secondary_readout_1</text>
<text text-anchor="middle" x="896" y="-536.418" font-family="Helvetica,sans-Serif" font-size="12.00">_outer_min_min</text>
<text text-anchor="start" x="828" y="-523.418" font-family="Helvetica,sans-Serif" font-size="12.00">Secondary_readout_2</text>
<text text-anchor="middle" x="896" y="-510.418" font-family="Helvetica,sans-Serif" font-size="12.00">_outer_min_min</text>
<text text-anchor="start" x="828" y="-497.418" font-family="Helvetica,sans-Serif" font-size="12.00">Secondary_readout_2</text>
<text text-anchor="middle" x="896" y="-484.418" font-family="Helvetica,sans-Serif" font-size="12.00">_outer_mean_min</text>
<text text-anchor="start" x="828" y="-471.418" font-family="Helvetica,sans-Serif" font-size="12.00">Secondary_readout_1</text>
<text text-anchor="middle" x="896" y="-458.418" font-family="Helvetica,sans-Serif" font-size="12.00">_outer_mean_min</text>
<text text-anchor="start" x="828" y="-445.418" font-family="Helvetica,sans-Serif" font-size="12.00">Secondary_readout_2</text>
<text text-anchor="start" x="828" y="-432.418" font-family="Helvetica,sans-Serif" font-size="12.00">_outer_quadrant_delta</text>
<text text-anchor="middle" x="896" y="-419.418" font-family="Helvetica,sans-Serif" font-size="12.00">_max</text>
<text text-anchor="start" x="828" y="-406.418" font-family="Helvetica,sans-Serif" font-size="12.00">Secondary_readout</text>
<text text-anchor="start" x="828" y="-393.418" font-family="Helvetica,sans-Serif" font-size="12.00">_1_outer_quadrant_delta</text>
<text text-anchor="middle" x="896" y="-380.418" font-family="Helvetica,sans-Serif" font-size="12.00">_max</text>
<text text-anchor="start" x="828" y="-367.418" font-family="Helvetica,sans-Serif" font-size="12.00">Secondary_readout</text>
<text text-anchor="start" x="828" y="-354.418" font-family="Helvetica,sans-Serif" font-size="12.00">_2_outer_quadrant_mean</text>
<text text-anchor="middle" x="896" y="-341.418" font-family="Helvetica,sans-Serif" font-size="12.00">_min_min</text>
<text text-anchor="start" x="828" y="-328.418" font-family="Helvetica,sans-Serif" font-size="12.00">High_pixel_saturation</text>
<text text-anchor="middle" x="896" y="-315.418" font-family="Helvetica,sans-Serif" font-size="12.00">_fraction_max</text>
<text text-anchor="start" x="828" y="-302.418" font-family="Helvetica,sans-Serif" font-size="12.00">Secondary_readout_1</text>
<text text-anchor="start" x="828" y="-289.418" font-family="Helvetica,sans-Serif" font-size="12.00">_outer_quadrant_mean</text>
<text text-anchor="middle" x="896" y="-276.418" font-family="Helvetica,sans-Serif" font-size="12.00">_min_min</text>
<text text-anchor="middle" x="896" y="-263.418" font-family="Helvetica,sans-Serif" font-size="12.00">...</text>
</g>
<!-- Node4 -->
<g id="node4" class="node"><title>Node4</title>
<g id="a_node4"><a xlink:title="STL class. ">
<polygon fill="white" stroke="#bfbfbf" points="212.5,-330.518 212.5,-351.518 279.5,-351.518 279.5,-330.518 212.5,-330.518"/>
<text text-anchor="middle" x="246" y="-337.918" font-family="Helvetica,sans-Serif" font-size="12.00">std::string</text>
</a>
</g>
</g>
<!-- Node4&#45;&gt;Node3 -->
<g id="edge3" class="edge"><title>Node4&#45;&gt;Node3</title>
<path fill="none" stroke="#9a32cd" stroke-dasharray="5,2" d="M274.262,-325.297C302.995,-309.622 350.09,-286.425 394,-276.018 498.46,-251.26 625.465,-252.763 692.789,-255.941"/>
<polygon fill="#9a32cd" stroke="#9a32cd" points="272.299,-322.384 265.252,-330.296 275.695,-328.505 272.299,-322.384"/>
<text text-anchor="middle" x="459" y="-279.418" font-family="Helvetica,sans-Serif" font-size="12.00"> data_type</text>
</g>
<!-- Node6 -->
<g id="node6" class="node"><title>Node6</title>
<g id="a_node6"><a xlink:href="../../d3/d96/structentry.html" target="_top" xlink:title="A templated struct that contains all information for a single, scalar pass/fail variable. ">
<polygon fill="white" stroke="black" points="425,-298.518 425,-319.518 493,-319.518 493,-298.518 425,-298.518"/>
<text text-anchor="middle" x="459" y="-305.918" font-family="Helvetica,sans-Serif" font-size="12.00">entry&lt; T &gt;</text>
</a>
</g>
</g>
<!-- Node4&#45;&gt;Node6 -->
<g id="edge6" class="edge"><title>Node4&#45;&gt;Node6</title>
<path fill="none" stroke="#9a32cd" stroke-dasharray="5,2" d="M289.629,-332.855C297.076,-331.513 304.756,-330.182 312,-329.018 350.648,-322.807 395.249,-316.876 424.884,-313.109"/>
<polygon fill="#9a32cd" stroke="#9a32cd" points="288.888,-329.433 279.683,-334.678 290.15,-336.318 288.888,-329.433"/>
<text text-anchor="middle" x="344" y="-332.418" font-family="Helvetica,sans-Serif" font-size="12.00"> data_type</text>
</g>
<!-- Node8 -->
<g id="node8" class="node"><title>Node8</title>
<g id="a_node8"><a xlink:href="../../d3/d96/structentry.html" target="_top" xlink:title="entry\&lt; long \&gt;">
<polygon fill="white" stroke="black" points="699.5,-345.518 699.5,-366.518 782.5,-366.518 782.5,-345.518 699.5,-345.518"/>
<text text-anchor="middle" x="741" y="-352.918" font-family="Helvetica,sans-Serif" font-size="12.00">entry&lt; long &gt;</text>
</a>
</g>
</g>
<!-- Node4&#45;&gt;Node8 -->
<g id="edge9" class="edge"><title>Node4&#45;&gt;Node8</title>
<path fill="none" stroke="#9a32cd" stroke-dasharray="5,2" d="M289.732,-342.318C383.649,-345.175 606.997,-351.971 699.154,-354.775"/>
<polygon fill="#9a32cd" stroke="#9a32cd" points="289.831,-338.819 279.729,-342.013 289.618,-345.816 289.831,-338.819"/>
<text text-anchor="middle" x="459" y="-353.418" font-family="Helvetica,sans-Serif" font-size="12.00"> data_type</text>
</g>
<!-- Node9 -->
<g id="node9" class="node"><title>Node9</title>
<g id="a_node9"><a xlink:href="../../dc/d74/structvec_entry.html" target="_top" xlink:title="vecEntry\&lt; long \&gt;">
<polygon fill="white" stroke="black" points="1005,-87.5176 1005,-108.518 1107,-108.518 1107,-87.5176 1005,-87.5176"/>
<text text-anchor="middle" x="1056" y="-94.9176" font-family="Helvetica,sans-Serif" font-size="12.00">vecEntry&lt; long &gt;</text>
</a>
</g>
</g>
<!-- Node4&#45;&gt;Node9 -->
<g id="edge15" class="edge"><title>Node4&#45;&gt;Node9</title>
<path fill="none" stroke="#9a32cd" stroke-dasharray="5,2" d="M261.769,-322.441C273.881,-308.365 292.205,-289.543 312,-278.018 344.816,-258.911 357.286,-263.716 394,-254.018 454.562,-238.02 870.03,-141.092 1009.48,-108.614"/>
<polygon fill="#9a32cd" stroke="#9a32cd" points="258.782,-320.559 255.073,-330.483 264.161,-325.038 258.782,-320.559"/>
<text text-anchor="middle" x="598" y="-221.418" font-family="Helvetica,sans-Serif" font-size="12.00"> data_type</text>
</g>
<!-- Node13 -->
<g id="node13" class="node"><title>Node13</title>
<g id="a_node13"><a xlink:href="../../dc/d74/structvec_entry.html" target="_top" xlink:title="A templated struct that contains all the information for a single vector pass/fail variable...">
<polygon fill="white" stroke="black" points="697.5,-40.5176 697.5,-61.5176 784.5,-61.5176 784.5,-40.5176 697.5,-40.5176"/>
<text text-anchor="middle" x="741" y="-47.9176" font-family="Helvetica,sans-Serif" font-size="12.00">vecEntry&lt; T &gt;</text>
</a>
</g>
</g>
<!-- Node4&#45;&gt;Node13 -->
<g id="edge19" class="edge"><title>Node4&#45;&gt;Node13</title>
<path fill="none" stroke="#9a32cd" stroke-dasharray="5,2" d="M265.084,-322.678C274.966,-311.705 286.653,-297.011 294,-282.018 308.894,-251.623 289.455,-233.265 312,-208.018 319.059,-200.112 614.084,-95.4724 710.126,-61.5521"/>
<polygon fill="#9a32cd" stroke="#9a32cd" points="262.246,-320.589 257.981,-330.288 267.363,-325.365 262.246,-320.589"/>
<text text-anchor="middle" x="459" y="-178.418" font-family="Helvetica,sans-Serif" font-size="12.00"> data_type</text>
</g>
<!-- Node15 -->
<g id="node15" class="node"><title>Node15</title>
<g id="a_node15"><a xlink:href="../../de/ddc/structmin_max_entry.html" target="_top" xlink:title="minMaxEntry\&lt; double \&gt;">
<polygon fill="white" stroke="black" points="672,-504.518 672,-525.518 810,-525.518 810,-504.518 672,-504.518"/>
<text text-anchor="middle" x="741" y="-511.918" font-family="Helvetica,sans-Serif" font-size="12.00">minMaxEntry&lt; double &gt;</text>
</a>
</g>
</g>
<!-- Node4&#45;&gt;Node15 -->
<g id="edge23" class="edge"><title>Node4&#45;&gt;Node15</title>
<path fill="none" stroke="#9a32cd" stroke-dasharray="5,2" d="M251.862,-361.859C259.603,-390.282 277.509,-440.777 312,-468.018 421.552,-554.542 599.033,-539.84 687.037,-525.555"/>
<polygon fill="#9a32cd" stroke="#9a32cd" points="255.163,-360.638 249.302,-351.812 248.38,-362.367 255.163,-360.638"/>
<text text-anchor="middle" x="459" y="-539.418" font-family="Helvetica,sans-Serif" font-size="12.00"> data_type</text>
</g>
<!-- Node16 -->
<g id="node16" class="node"><title>Node16</title>
<g id="a_node16"><a xlink:href="../../de/ddc/structmin_max_entry.html" target="_top" xlink:title="A templated struct that contains all information for a single min&#45;max variable pair. ">
<polygon fill="white" stroke="black" points="404,-457.518 404,-478.518 514,-478.518 514,-457.518 404,-457.518"/>
<text text-anchor="middle" x="459" y="-464.918" font-family="Helvetica,sans-Serif" font-size="12.00">minMaxEntry&lt; T &gt;</text>
</a>
</g>
</g>
<!-- Node4&#45;&gt;Node16 -->
<g id="edge25" class="edge"><title>Node4&#45;&gt;Node16</title>
<path fill="none" stroke="#9a32cd" stroke-dasharray="5,2" d="M256.71,-360.752C267.512,-380.663 286.811,-410.848 312,-428.018 327.364,-438.49 370.349,-449.606 405.727,-457.455"/>
<polygon fill="#9a32cd" stroke="#9a32cd" points="259.696,-358.908 251.976,-351.652 253.486,-362.138 259.696,-358.908"/>
<text text-anchor="middle" x="344" y="-454.418" font-family="Helvetica,sans-Serif" font-size="12.00"> data_type</text>
</g>
<!-- Node17 -->
<g id="node17" class="node"><title>Node17</title>
<g id="a_node17"><a xlink:href="../../d3/d96/structentry.html" target="_top" xlink:title="entry\&lt; CString \&gt;">
<polygon fill="white" stroke="black" points="690.5,-435.518 690.5,-456.518 791.5,-456.518 791.5,-435.518 690.5,-435.518"/>
<text text-anchor="middle" x="741" y="-442.918" font-family="Helvetica,sans-Serif" font-size="12.00">entry&lt; CString &gt;</text>
</a>
</g>
</g>
<!-- Node4&#45;&gt;Node17 -->
<g id="edge28" class="edge"><title>Node4&#45;&gt;Node17</title>
<path fill="none" stroke="#9a32cd" stroke-dasharray="5,2" d="M289.344,-352.439C296.873,-354.37 304.655,-356.303 312,-358.018 448.298,-389.83 610.444,-421.496 690.386,-436.703"/>
<polygon fill="#9a32cd" stroke="#9a32cd" points="290.209,-349.047 279.65,-349.918 288.447,-355.822 290.209,-349.047"/>
<text text-anchor="middle" x="459" y="-407.418" font-family="Helvetica,sans-Serif" font-size="12.00"> data_type</text>
</g>
<!-- Node5 -->
<g id="node5" class="node"><title>Node5</title>
<g id="a_node5"><a xlink:title="STL class. ">
<polygon fill="white" stroke="#bfbfbf" points="0.5,-324.018 0.5,-358.018 109.5,-358.018 109.5,-324.018 0.5,-324.018"/>
<text text-anchor="start" x="8.5" y="-344.418" font-family="Helvetica,sans-Serif" font-size="12.00">std::basic_string&lt;</text>
<text text-anchor="middle" x="55" y="-331.418" font-family="Helvetica,sans-Serif" font-size="12.00"> char &gt;</text>
</a>
</g>
</g>
<!-- Node5&#45;&gt;Node4 -->
<g id="edge4" class="edge"><title>Node5&#45;&gt;Node4</title>
<path fill="none" stroke="midnightblue" d="M119.963,-341.018C150.982,-341.018 186.919,-341.018 212.284,-341.018"/>
<polygon fill="midnightblue" stroke="midnightblue" points="119.654,-337.518 109.654,-341.018 119.654,-344.518 119.654,-337.518"/>
</g>
<!-- Node6&#45;&gt;Node3 -->
<g id="edge5" class="edge"><title>Node6&#45;&gt;Node3</title>
<path fill="none" stroke="orange" stroke-dasharray="5,2" d="M503.325,-301.281C554.657,-292.115 639.876,-276.897 692.833,-267.44"/>
<polygon fill="orange" stroke="orange" points="502.448,-297.882 493.219,-303.086 503.679,-304.773 502.448,-297.882"/>
<text text-anchor="middle" x="598" y="-298.418" font-family="Helvetica,sans-Serif" font-size="12.00"> &lt; double &gt;</text>
</g>
<!-- Node6&#45;&gt;Node8 -->
<g id="edge10" class="edge"><title>Node6&#45;&gt;Node8</title>
<path fill="none" stroke="orange" stroke-dasharray="5,2" d="M503.362,-310.984C542.932,-313.369 602.86,-318.466 654,-329.018 673.464,-333.034 694.782,-339.71 711.323,-345.419"/>
<polygon fill="orange" stroke="orange" points="503.446,-307.484 493.263,-310.408 503.047,-314.472 503.446,-307.484"/>
<text text-anchor="middle" x="598" y="-332.418" font-family="Helvetica,sans-Serif" font-size="12.00"> &lt; long &gt;</text>
</g>
<!-- Node6&#45;&gt;Node17 -->
<g id="edge29" class="edge"><title>Node6&#45;&gt;Node17</title>
<path fill="none" stroke="orange" stroke-dasharray="5,2" d="M500.403,-323.271C508.364,-326.504 516.554,-330.139 524,-334.018 532.527,-338.459 533.477,-341.568 542,-346.018 589.409,-370.77 606.458,-365.522 654,-390.018 680.45,-403.646 708.988,-423.324 725.635,-435.36"/>
<polygon fill="orange" stroke="orange" points="501.459,-319.925 490.871,-319.537 498.906,-326.443 501.459,-319.925"/>
<text text-anchor="middle" x="598" y="-393.418" font-family="Helvetica,sans-Serif" font-size="12.00"> &lt; CString &gt;</text>
</g>
<!-- Node7 -->
<g id="node7" class="node"><title>Node7</title>
<polygon fill="white" stroke="#bfbfbf" points="40.5,-186.518 40.5,-207.518 69.5,-207.518 69.5,-186.518 40.5,-186.518"/>
<text text-anchor="middle" x="55" y="-193.918" font-family="Helvetica,sans-Serif" font-size="12.00">T</text>
</g>
<!-- Node7&#45;&gt;Node6 -->
<g id="edge7" class="edge"><title>Node7&#45;&gt;Node6</title>
<path fill="none" stroke="#9a32cd" stroke-dasharray="5,2" d="M79.6191,-204.005C134.599,-220.21 275.48,-261.38 394,-293.018 403.959,-295.676 414.826,-298.443 424.731,-300.913"/>
<polygon fill="#9a32cd" stroke="#9a32cd" points="80.3824,-200.582 69.8006,-201.108 78.4009,-207.295 80.3824,-200.582"/>
<text text-anchor="middle" x="246" y="-268.418" font-family="Helvetica,sans-Serif" font-size="12.00"> value</text>
</g>
<!-- Node11 -->
<g id="node11" class="node"><title>Node11</title>
<g id="a_node11"><a xlink:title="STL class. ">
<polygon fill="white" stroke="#bfbfbf" points="198,-96.5176 198,-117.518 294,-117.518 294,-96.5176 198,-96.5176"/>
<text text-anchor="middle" x="246" y="-103.918" font-family="Helvetica,sans-Serif" font-size="12.00">std::vector&lt; T &gt;</text>
</a>
</g>
</g>
<!-- Node7&#45;&gt;Node11 -->
<g id="edge14" class="edge"><title>Node7&#45;&gt;Node11</title>
<path fill="none" stroke="#9a32cd" stroke-dasharray="5,2" d="M78.9373,-186.095C115.519,-168.675 186.623,-134.816 222.761,-117.608"/>
<polygon fill="#9a32cd" stroke="#9a32cd" points="77.1162,-183.086 69.5924,-190.545 80.1258,-189.406 77.1162,-183.086"/>
<text text-anchor="middle" x="154" y="-166.418" font-family="Helvetica,sans-Serif" font-size="12.00"> elements</text>
</g>
<!-- Node7&#45;&gt;Node16 -->
<g id="edge26" class="edge"><title>Node7&#45;&gt;Node16</title>
<path fill="none" stroke="#9a32cd" stroke-dasharray="5,2" d="M66.7128,-216.709C96.8379,-269.658 188.234,-414.43 312,-464.018 340.834,-475.57 375.503,-476.982 403.822,-475.314"/>
<polygon fill="#9a32cd" stroke="#9a32cd" points="69.5929,-214.688 61.6594,-207.665 63.4822,-218.102 69.5929,-214.688"/>
<text text-anchor="middle" x="246" y="-472.418" font-family="Helvetica,sans-Serif" font-size="12.00"> min_val</text>
<text text-anchor="middle" x="246" y="-459.418" font-family="Helvetica,sans-Serif" font-size="12.00">max_val</text>
</g>
<!-- Node8&#45;&gt;Node2 -->
<g id="edge8" class="edge"><title>Node8&#45;&gt;Node2</title>
<path fill="none" stroke="#9a32cd" stroke-dasharray="5,2" d="M760.346,-338.324C775.059,-323.459 795.564,-301.152 810,-279.018 820.429,-263.027 811.919,-250.306 828,-240.018 878.915,-207.441 918.269,-200.492 964,-240.018 1005.8,-276.146 940.2,-326.89 982,-363.018 1031.77,-406.03 1065.8,-377.326 1130,-363.018 1214.18,-344.258 1304.05,-290.612 1339.9,-267.652"/>
<polygon fill="#9a32cd" stroke="#9a32cd" points="757.872,-335.849 753.243,-345.379 762.805,-340.815 757.872,-335.849"/>
<text text-anchor="start" x="1002.5" y="-480.418" font-family="Helvetica,sans-Serif" font-size="12.00"> Hot_pixel_clusters</text>
<text text-anchor="middle" x="1056" y="-467.418" font-family="Helvetica,sans-Serif" font-size="12.00">_max</text>
<text text-anchor="start" x="1002.5" y="-454.418" font-family="Helvetica,sans-Serif" font-size="12.00">Dead_pixel_clusters</text>
<text text-anchor="middle" x="1056" y="-441.418" font-family="Helvetica,sans-Serif" font-size="12.00">_max</text>
<text text-anchor="start" x="1002.5" y="-428.418" font-family="Helvetica,sans-Serif" font-size="12.00">Defective_pixels</text>
<text text-anchor="middle" x="1056" y="-415.418" font-family="Helvetica,sans-Serif" font-size="12.00">_max_count</text>
<text text-anchor="middle" x="1056" y="-402.418" font-family="Helvetica,sans-Serif" font-size="12.00">Hot_pixels_max</text>
<text text-anchor="middle" x="1056" y="-389.418" font-family="Helvetica,sans-Serif" font-size="12.00">Dead_pixels_max</text>
</g>
<!-- Node8&#45;&gt;Node14 -->
<g id="edge31" class="edge"><title>Node8&#45;&gt;Node14</title>
<path fill="none" stroke="#9a32cd" stroke-dasharray="5,2" d="M765.544,-372.979C781.124,-385.661 800.393,-404.475 810,-426.018 833.95,-479.722 787.572,-647.317 828,-690.018 839.756,-702.435 938.462,-710.818 1001.79,-714.975"/>
<polygon fill="#9a32cd" stroke="#9a32cd" points="767.389,-369.979 757.352,-366.586 763.082,-375.498 767.389,-369.979"/>
<text text-anchor="middle" x="896" y="-807.418" font-family="Helvetica,sans-Serif" font-size="12.00"> upside_down</text>
<text text-anchor="start" x="828" y="-794.418" font-family="Helvetica,sans-Serif" font-size="12.00">Stepchart_expected</text>
<text text-anchor="middle" x="896" y="-781.418" font-family="Helvetica,sans-Serif" font-size="12.00">_detected</text>
<text text-anchor="middle" x="896" y="-768.418" font-family="Helvetica,sans-Serif" font-size="12.00">Bayer_decode</text>
<text text-anchor="middle" x="896" y="-755.418" font-family="Helvetica,sans-Serif" font-size="12.00">Mirrored_chart</text>
<text text-anchor="middle" x="896" y="-742.418" font-family="Helvetica,sans-Serif" font-size="12.00">Color_expected_detected</text>
<text text-anchor="middle" x="896" y="-729.418" font-family="Helvetica,sans-Serif" font-size="12.00">All_Edge_IDs_detected</text>
<text text-anchor="middle" x="896" y="-716.418" font-family="Helvetica,sans-Serif" font-size="12.00">Horizontal_bars_OK_min</text>
</g>
<!-- Node20 -->
<g id="node20" class="node"><title>Node20</title>
<g id="a_node20"><a xlink:href="../../da/ded/_pass_fail_settings_8h.html#d5/dc9/struct_o_i_s_pass_fail" target="_top" xlink:title="A struct that contains an entry&lt;T&gt;,minMaxEntry&lt;T&gt;, or vecEntry&lt;T&gt; for every pass/fail OIS variable...">
<polygon fill="white" stroke="black" points="1175.5,-583.518 1175.5,-604.518 1258.5,-604.518 1258.5,-583.518 1175.5,-583.518"/>
<text text-anchor="middle" x="1217" y="-590.918" font-family="Helvetica,sans-Serif" font-size="12.00">OISPassFail</text>
</a>
</g>
</g>
<!-- Node8&#45;&gt;Node20 -->
<g id="edge37" class="edge"><title>Node8&#45;&gt;Node20</title>
<path fill="none" stroke="#9a32cd" stroke-dasharray="5,2" d="M765.179,-373.148C780.591,-385.908 799.808,-404.745 810,-426.018 824.124,-455.499 804.134,-549.678 828,-572.018 840.53,-583.746 1078.32,-590.73 1175.32,-593.101"/>
<polygon fill="#9a32cd" stroke="#9a32cd" points="767.093,-370.198 757.09,-366.707 762.733,-375.674 767.093,-370.198"/>
<text text-anchor="middle" x="896" y="-641.418" font-family="Helvetica,sans-Serif" font-size="12.00"> R_improve_H_dB_min</text>
<text text-anchor="middle" x="896" y="-628.418" font-family="Helvetica,sans-Serif" font-size="12.00">R_improve_V_dB_min</text>
<text text-anchor="start" x="829.5" y="-615.418" font-family="Helvetica,sans-Serif" font-size="12.00">L_MTF50_delta2_gain</text>
<text text-anchor="middle" x="896" y="-602.418" font-family="Helvetica,sans-Serif" font-size="12.00">_summary_all_dB_min</text>
<text text-anchor="middle" x="896" y="-589.418" font-family="Helvetica,sans-Serif" font-size="12.00">R_improve_ALL_dB_min</text>
</g>
<!-- Node9&#45;&gt;Node2 -->
<g id="edge11" class="edge"><title>Node9&#45;&gt;Node2</title>
<path fill="none" stroke="#9a32cd" stroke-dasharray="5,2" d="M1117.4,-91.2925C1166.92,-88.9302 1236.64,-93.1478 1286,-127.018 1328.91,-156.46 1347.78,-220.952 1353.76,-246.395"/>
<polygon fill="#9a32cd" stroke="#9a32cd" points="1116.93,-87.8136 1107.15,-91.8882 1117.34,-94.8018 1116.93,-87.8136"/>
<text text-anchor="middle" x="1217" y="-143.418" font-family="Helvetica,sans-Serif" font-size="12.00"> Blemish_maximum_count</text>
<text text-anchor="middle" x="1217" y="-130.418" font-family="Helvetica,sans-Serif" font-size="12.00">Blemish_size_pixels</text>
</g>
<!-- Node10 -->
<g id="node10" class="node"><title>Node10</title>
<polygon fill="white" stroke="#bfbfbf" points="542.5,-132.518 542.5,-153.518 653.5,-153.518 653.5,-132.518 542.5,-132.518"/>
<text text-anchor="middle" x="598" y="-139.918" font-family="Helvetica,sans-Serif" font-size="12.00">std::vector&lt; long &gt;</text>
</g>
<!-- Node10&#45;&gt;Node9 -->
<g id="edge12" class="edge"><title>Node10&#45;&gt;Node9</title>
<path fill="none" stroke="#9a32cd" stroke-dasharray="5,2" d="M653.714,-128.172C653.809,-128.121 653.905,-128.069 654,-128.018 663.411,-122.919 662.066,-116.004 672,-112.018 730.973,-88.3544 915.146,-92.2079 1004.87,-95.6904"/>
<polygon fill="#9a32cd" stroke="#9a32cd" points="652.003,-125.106 644.387,-132.471 654.934,-131.463 652.003,-125.106"/>
<text text-anchor="middle" x="741" y="-115.418" font-family="Helvetica,sans-Serif" font-size="12.00"> value</text>
</g>
<!-- Node11&#45;&gt;Node10 -->
<g id="edge13" class="edge"><title>Node11&#45;&gt;Node10</title>
<path fill="none" stroke="orange" stroke-dasharray="5,2" d="M304.275,-99.5774C306.883,-99.3618 309.468,-99.1729 312,-99.0176 406.222,-93.2411 432.411,-89.1574 524,-112.018 542.569,-116.652 562.495,-125.393 576.83,-132.415"/>
<polygon fill="orange" stroke="orange" points="303.784,-96.108 294.154,-100.526 304.438,-103.077 303.784,-96.108"/>
<text text-anchor="middle" x="344" y="-102.418" font-family="Helvetica,sans-Serif" font-size="12.00"> &lt; long &gt;</text>
</g>
<!-- Node12 -->
<g id="node12" class="node"><title>Node12</title>
<polygon fill="white" stroke="#bfbfbf" points="394.5,-38.5176 394.5,-59.5176 523.5,-59.5176 523.5,-38.5176 394.5,-38.5176"/>
<text text-anchor="middle" x="459" y="-45.9176" font-family="Helvetica,sans-Serif" font-size="12.00">std::vector&lt; CString &gt;</text>
</g>
<!-- Node11&#45;&gt;Node12 -->
<g id="edge17" class="edge"><title>Node11&#45;&gt;Node12</title>
<path fill="none" stroke="orange" stroke-dasharray="5,2" d="M262.823,-88.557C274.866,-75.9723 292.629,-60.3156 312,-53.0176 337.864,-43.2733 368.172,-41.1017 394.45,-41.8207"/>
<polygon fill="orange" stroke="orange" points="259.94,-86.5229 255.775,-96.2647 265.106,-91.2466 259.94,-86.5229"/>
<text text-anchor="middle" x="344" y="-56.4176" font-family="Helvetica,sans-Serif" font-size="12.00"> &lt; CString &gt;</text>
</g>
<!-- Node19 -->
<g id="node19" class="node"><title>Node19</title>
<polygon fill="white" stroke="#bfbfbf" points="1004,-530.018 1004,-564.018 1108,-564.018 1108,-530.018 1004,-530.018"/>
<text text-anchor="start" x="1012" y="-550.418" font-family="Helvetica,sans-Serif" font-size="12.00">std::vector&lt; entry</text>
<text text-anchor="middle" x="1056" y="-537.418" font-family="Helvetica,sans-Serif" font-size="12.00">&lt; CString &gt; &gt;</text>
</g>
<!-- Node11&#45;&gt;Node19 -->
<g id="edge35" class="edge"><title>Node11&#45;&gt;Node19</title>
<path fill="none" stroke="orange" stroke-dasharray="5,2" d="M304.324,-112.093C379.536,-119.021 504.325,-131.544 524,-140.018 533.564,-144.137 532.537,-150.67 542,-155.018 628.411,-194.722 900.189,-155.51 964,-226.018 1004.05,-270.274 953.125,-441.777 982,-494.018 990.41,-509.233 1005.25,-521.217 1019.37,-529.913"/>
<polygon fill="orange" stroke="orange" points="304.334,-108.579 294.056,-111.153 303.696,-115.55 304.334,-108.579"/>
<text text-anchor="middle" x="598" y="-178.418" font-family="Helvetica,sans-Serif" font-size="12.00"> &lt; entry&lt; CString &gt; &gt;</text>
</g>
<!-- Node12&#45;&gt;Node9 -->
<g id="edge16" class="edge"><title>Node12&#45;&gt;Node9</title>
<path fill="none" stroke="#9a32cd" stroke-dasharray="5,2" d="M504.072,-35.7488C570.514,-17.4915 700.245,11.3578 810,-5.01764 880.778,-15.5777 897.6,-25.333 964,-52.0176 989.788,-62.3813 1018.17,-77.3346 1036.27,-87.35"/>
<polygon fill="#9a32cd" stroke="#9a32cd" points="503.038,-32.4037 494.351,-38.4692 504.924,-39.1447 503.038,-32.4037"/>
<text text-anchor="middle" x="741" y="-21.4176" font-family="Helvetica,sans-Serif" font-size="12.00"> sub_descriptions</text>
<text text-anchor="middle" x="741" y="-8.41764" font-family="Helvetica,sans-Serif" font-size="12.00">sub_names</text>
</g>
<!-- Node12&#45;&gt;Node13 -->
<g id="edge20" class="edge"><title>Node12&#45;&gt;Node13</title>
<path fill="none" stroke="#9a32cd" stroke-dasharray="5,2" d="M533.726,-49.5442C585.792,-49.9162 653.756,-50.4016 697.153,-50.7116"/>
<polygon fill="#9a32cd" stroke="#9a32cd" points="533.561,-46.0431 523.536,-49.4715 533.511,-53.0429 533.561,-46.0431"/>
<text text-anchor="middle" x="598" y="-67.4176" font-family="Helvetica,sans-Serif" font-size="12.00"> sub_descriptions</text>
<text text-anchor="middle" x="598" y="-54.4176" font-family="Helvetica,sans-Serif" font-size="12.00">sub_names</text>
</g>
<!-- Node13&#45;&gt;Node9 -->
<g id="edge18" class="edge"><title>Node13&#45;&gt;Node9</title>
<path fill="none" stroke="orange" stroke-dasharray="5,2" d="M795.076,-52.8384C840.31,-55.094 906.877,-60.0828 964,-71.0176 984.717,-74.9835 1007.47,-81.7335 1025.04,-87.492"/>
<polygon fill="orange" stroke="orange" points="795.062,-49.3339 784.909,-52.3595 794.733,-56.3262 795.062,-49.3339"/>
<text text-anchor="middle" x="896" y="-74.4176" font-family="Helvetica,sans-Serif" font-size="12.00"> &lt; long &gt;</text>
</g>
<!-- Node14&#45;&gt;Node1 -->
<g id="edge21" class="edge"><title>Node14&#45;&gt;Node1</title>
<path fill="none" stroke="#9a32cd" stroke-dasharray="5,2" d="M1102.82,-704.645C1199.65,-676.387 1423.34,-611.105 1510.92,-585.548"/>
<polygon fill="#9a32cd" stroke="#9a32cd" points="1101.65,-701.341 1093.03,-707.503 1103.61,-708.061 1101.65,-701.341"/>
<text text-anchor="middle" x="1357" y="-648.418" font-family="Helvetica,sans-Serif" font-size="12.00"> sfrplus</text>
</g>
<!-- Node15&#45;&gt;Node14 -->
<g id="edge22" class="edge"><title>Node15&#45;&gt;Node14</title>
<path fill="none" stroke="#9a32cd" stroke-dasharray="5,2" d="M743.936,-535.922C750.73,-604.164 775.939,-818.37 828,-859.018 875.643,-896.216 910.921,-887.934 964,-859.018 1016.7,-830.305 1043.51,-756.501 1051.97,-728.767"/>
<polygon fill="#9a32cd" stroke="#9a32cd" points="747.385,-535.223 742.941,-525.605 740.418,-535.895 747.385,-535.223"/>
<text text-anchor="start" x="831.5" y="-899.418" font-family="Helvetica,sans-Serif" font-size="12.00"> Chart_mean_pixel_level</text>
<text text-anchor="middle" x="896" y="-886.418" font-family="Helvetica,sans-Serif" font-size="12.00">_bounds</text>
</g>
<!-- Node16&#45;&gt;Node15 -->
<g id="edge24" class="edge"><title>Node16&#45;&gt;Node15</title>
<path fill="none" stroke="orange" stroke-dasharray="5,2" d="M524.788,-471.421C562.732,-474.227 611.413,-479.231 654,-488.018 673.464,-492.034 694.782,-498.71 711.323,-504.419"/>
<polygon fill="orange" stroke="orange" points="524.606,-467.9 514.385,-470.687 524.113,-474.883 524.606,-467.9"/>
<text text-anchor="middle" x="598" y="-491.418" font-family="Helvetica,sans-Serif" font-size="12.00"> &lt; double &gt;</text>
</g>
<!-- Node17&#45;&gt;Node14 -->
<g id="edge27" class="edge"><title>Node17&#45;&gt;Node14</title>
<path fill="none" stroke="#9a32cd" stroke-dasharray="5,2" d="M775.161,-461.664C788.356,-469.691 802.226,-480.808 810,-495.018 827.518,-527.038 801.493,-797.926 828,-823.018 849.948,-843.794 936.508,-835.571 964,-823.018 1007.45,-803.178 1038.12,-751.216 1049.79,-728.689"/>
<polygon fill="#9a32cd" stroke="#9a32cd" points="776.644,-458.482 766.218,-456.601 773.195,-464.573 776.644,-458.482"/>
<text text-anchor="middle" x="896" y="-838.418" font-family="Helvetica,sans-Serif" font-size="12.00"> passfail_ini_file_date</text>
</g>
<!-- Node17&#45;&gt;Node19 -->
<g id="edge34" class="edge"><title>Node17&#45;&gt;Node19</title>
<path fill="none" stroke="#9a32cd" stroke-dasharray="5,2" d="M774.51,-461.694C787.723,-469.772 801.787,-480.92 810,-495.018 828.567,-526.888 800.541,-635.391 828,-660.018 850.499,-680.196 936.74,-673.066 964,-660.018 1005.81,-640.008 1034.53,-590.386 1047.37,-564.057"/>
<polygon fill="#9a32cd" stroke="#9a32cd" points="776,-458.514 765.581,-456.593 772.528,-464.592 776,-458.514"/>
<text text-anchor="middle" x="896" y="-676.418" font-family="Helvetica,sans-Serif" font-size="12.00"> elements</text>
</g>
<!-- Node18 -->
<g id="node18" class="node"><title>Node18</title>
<g id="a_node18"><a xlink:href="../../da/ded/_pass_fail_settings_8h.html#d6/da0/struct_other_pass_fail" target="_top" xlink:title="A struct that can be used to catch other (that is, not Blemish, OIS, or SFRplus) pass/fail categories...">
<polygon fill="white" stroke="black" points="1311,-536.518 1311,-557.518 1403,-557.518 1403,-536.518 1311,-536.518"/>
<text text-anchor="middle" x="1357" y="-543.918" font-family="Helvetica,sans-Serif" font-size="12.00">OtherPassFail</text>
</a>
</g>
</g>
<!-- Node18&#45;&gt;Node1 -->
<g id="edge32" class="edge"><title>Node18&#45;&gt;Node1</title>
<path fill="none" stroke="#9a32cd" stroke-dasharray="5,2" d="M1413.36,-555.219C1437.55,-558.803 1465.9,-563.003 1490.25,-566.61"/>
<polygon fill="#9a32cd" stroke="#9a32cd" points="1413.68,-551.728 1403.27,-553.724 1412.65,-558.652 1413.68,-551.728"/>
<text text-anchor="middle" x="1450" y="-567.418" font-family="Helvetica,sans-Serif" font-size="12.00"> other</text>
</g>
<!-- Node19&#45;&gt;Node18 -->
<g id="edge33" class="edge"><title>Node19&#45;&gt;Node18</title>
<path fill="none" stroke="#9a32cd" stroke-dasharray="5,2" d="M1118.4,-547.018C1175.49,-547.018 1259.23,-547.018 1310.54,-547.018"/>
<polygon fill="#9a32cd" stroke="#9a32cd" points="1118.06,-543.518 1108.06,-547.018 1118.06,-550.518 1118.06,-543.518"/>
<text text-anchor="middle" x="1217" y="-550.418" font-family="Helvetica,sans-Serif" font-size="12.00"> ent_vec</text>
</g>
<!-- Node20&#45;&gt;Node1 -->
<g id="edge36" class="edge"><title>Node20&#45;&gt;Node1</title>
<path fill="none" stroke="#9a32cd" stroke-dasharray="5,2" d="M1269.08,-591.375C1320.38,-588.681 1401.68,-584.299 1472,-580.018 1477.99,-579.653 1484.25,-579.258 1490.49,-578.855"/>
<polygon fill="#9a32cd" stroke="#9a32cd" points="1268.72,-587.889 1258.92,-591.907 1269.09,-594.879 1268.72,-587.889"/>
<text text-anchor="middle" x="1357" y="-593.418" font-family="Helvetica,sans-Serif" font-size="12.00"> ois</text>
</g>
</g>
</svg>
