<?xml version="1.0" encoding="UTF-8" standalone="no"?>
<!DOCTYPE svg PUBLIC "-//W3C//DTD SVG 1.1//EN"
 "http://www.w3.org/Graphics/SVG/1.1/DTD/svg11.dtd">
<!-- Generated by graphviz version 2.34.0 (20130907.0111)
 -->
<!-- Title: Timestamp.h Pages: 1 -->
<svg width="1060pt" height="262pt"
 viewBox="0.00 0.00 1060.00 262.00" xmlns="http://www.w3.org/2000/svg" xmlns:xlink="http://www.w3.org/1999/xlink">
<g id="graph0" class="graph" transform="scale(1 1) rotate(0) translate(4 258)">
<title>Timestamp.h</title>
<polygon fill="white" stroke="white" points="-4,4 -4,-258 1056,-258 1056,4 -4,4"/>
<!-- Node1 -->
<g id="node1" class="node"><title>Node1</title>
<polygon fill="#bfbfbf" stroke="black" points="697,-232.5 697,-253.5 781,-253.5 781,-232.5 697,-232.5"/>
<text text-anchor="middle" x="739" y="-239.9" font-family="Helvetica,sans-Serif" font-size="12.00">Timestamp.h</text>
</g>
<!-- Node2 -->
<g id="node2" class="node"><title>Node2</title>
<g id="a_node2"><a xlink:href="../../d9/da7/_image_test_8h.html" target="_top" xlink:title="ImageTest.h">
<polygon fill="white" stroke="black" points="457,-174.5 457,-195.5 537,-195.5 537,-174.5 457,-174.5"/>
<text text-anchor="middle" x="497" y="-181.9" font-family="Helvetica,sans-Serif" font-size="12.00">ImageTest.h</text>
</a>
</g>
</g>
<!-- Node1&#45;&gt;Node2 -->
<g id="edge1" class="edge"><title>Node1&#45;&gt;Node2</title>
<path fill="none" stroke="midnightblue" d="M687.849,-230.163C642.992,-219.783 578.659,-204.896 537.35,-195.337"/>
<polygon fill="midnightblue" stroke="midnightblue" points="687.142,-233.592 697.674,-232.437 688.72,-226.772 687.142,-233.592"/>
</g>
<!-- Node17 -->
<g id="node17" class="node"><title>Node17</title>
<g id="a_node17"><a xlink:href="../../d7/dcd/_operator_console_dlg_8h.html" target="_top" xlink:title="OperatorConsoleDlg.h">
<polygon fill="white" stroke="black" points="765,-58.5 765,-79.5 899,-79.5 899,-58.5 765,-58.5"/>
<text text-anchor="middle" x="832" y="-65.9" font-family="Helvetica,sans-Serif" font-size="12.00">OperatorConsoleDlg.h</text>
</a>
</g>
</g>
<!-- Node1&#45;&gt;Node17 -->
<g id="edge19" class="edge"><title>Node1&#45;&gt;Node17</title>
<path fill="none" stroke="midnightblue" d="M742.584,-222.441C745.585,-208.494 750.582,-189.536 758,-174 776.141,-136.005 808.116,-97.1212 823.398,-79.5972"/>
<polygon fill="midnightblue" stroke="midnightblue" points="739.123,-221.901 740.599,-232.392 745.988,-223.271 739.123,-221.901"/>
</g>
<!-- Node18 -->
<g id="node18" class="node"><title>Node18</title>
<g id="a_node18"><a xlink:href="../../d5/df8/_timestamp_8cpp.html" target="_top" xlink:title="Timestamp.cpp">
<polygon fill="white" stroke="black" points="767,-174.5 767,-195.5 865,-195.5 865,-174.5 767,-174.5"/>
<text text-anchor="middle" x="816" y="-181.9" font-family="Helvetica,sans-Serif" font-size="12.00">Timestamp.cpp</text>
</a>
</g>
</g>
<!-- Node1&#45;&gt;Node18 -->
<g id="edge22" class="edge"><title>Node1&#45;&gt;Node18</title>
<path fill="none" stroke="midnightblue" d="M760.712,-226.21C774.235,-216.374 791.196,-204.039 802.741,-195.643"/>
<polygon fill="midnightblue" stroke="midnightblue" points="758.441,-223.533 752.412,-232.246 762.558,-229.194 758.441,-223.533"/>
</g>
<!-- Node3 -->
<g id="node3" class="node"><title>Node3</title>
<g id="a_node3"><a xlink:href="../../dc/d69/_blemish_test_8h.html" target="_top" xlink:title="BlemishTest.h">
<polygon fill="white" stroke="black" points="379,-116.5 379,-137.5 469,-137.5 469,-116.5 379,-116.5"/>
<text text-anchor="middle" x="424" y="-123.9" font-family="Helvetica,sans-Serif" font-size="12.00">BlemishTest.h</text>
</a>
</g>
</g>
<!-- Node2&#45;&gt;Node3 -->
<g id="edge2" class="edge"><title>Node2&#45;&gt;Node3</title>
<path fill="none" stroke="midnightblue" d="M476.049,-167.928C463.289,-158.14 447.411,-145.959 436.57,-137.643"/>
<polygon fill="midnightblue" stroke="midnightblue" points="474.22,-170.936 484.284,-174.246 478.48,-165.382 474.22,-170.936"/>
</g>
<!-- Node4 -->
<g id="node4" class="node"><title>Node4</title>
<g id="a_node4"><a xlink:href="../../da/de6/_operator_console_8h.html" target="_top" xlink:title="OperatorConsole.h">
<polygon fill="white" stroke="black" points="439,-58.5 439,-79.5 555,-79.5 555,-58.5 439,-58.5"/>
<text text-anchor="middle" x="497" y="-65.9" font-family="Helvetica,sans-Serif" font-size="12.00">OperatorConsole.h</text>
</a>
</g>
</g>
<!-- Node2&#45;&gt;Node4 -->
<g id="edge14" class="edge"><title>Node2&#45;&gt;Node4</title>
<path fill="none" stroke="midnightblue" d="M497,-164.252C497,-139.584 497,-98.3525 497,-79.695"/>
<polygon fill="midnightblue" stroke="midnightblue" points="493.5,-164.28 497,-174.28 500.5,-164.28 493.5,-164.28"/>
</g>
<!-- Node7 -->
<g id="node7" class="node"><title>Node7</title>
<g id="a_node7"><a xlink:href="../../d8/d53/_image_test_8cpp.html" target="_top" xlink:title="ImageTest.cpp">
<polygon fill="white" stroke="black" points="0,-0.5 0,-21.5 94,-21.5 94,-0.5 0,-0.5"/>
<text text-anchor="middle" x="47" y="-7.9" font-family="Helvetica,sans-Serif" font-size="12.00">ImageTest.cpp</text>
</a>
</g>
</g>
<!-- Node2&#45;&gt;Node7 -->
<g id="edge18" class="edge"><title>Node2&#45;&gt;Node7</title>
<path fill="none" stroke="midnightblue" d="M460.565,-171.069C435.13,-161.978 400.422,-149.441 370,-138 257.603,-95.7292 124.228,-42.8211 70.8305,-21.5262"/>
<polygon fill="midnightblue" stroke="midnightblue" points="459.577,-174.433 470.172,-174.497 461.93,-167.84 459.577,-174.433"/>
</g>
<!-- Node15 -->
<g id="node15" class="node"><title>Node15</title>
<g id="a_node15"><a xlink:href="../../d2/d9d/_s_f_rplus_test_8h.html" target="_top" xlink:title="SFRplusTest.h">
<polygon fill="white" stroke="black" points="525.5,-116.5 525.5,-137.5 618.5,-137.5 618.5,-116.5 525.5,-116.5"/>
<text text-anchor="middle" x="572" y="-123.9" font-family="Helvetica,sans-Serif" font-size="12.00">SFRplusTest.h</text>
</a>
</g>
</g>
<!-- Node2&#45;&gt;Node15 -->
<g id="edge15" class="edge"><title>Node2&#45;&gt;Node15</title>
<path fill="none" stroke="midnightblue" d="M518.148,-168.21C531.32,-158.374 547.84,-146.039 559.086,-137.643"/>
<polygon fill="midnightblue" stroke="midnightblue" points="515.983,-165.458 510.064,-174.246 520.171,-171.067 515.983,-165.458"/>
</g>
<!-- Node3&#45;&gt;Node4 -->
<g id="edge3" class="edge"><title>Node3&#45;&gt;Node4</title>
<path fill="none" stroke="midnightblue" d="M444.951,-109.928C457.711,-100.14 473.589,-87.9595 484.43,-79.6427"/>
<polygon fill="midnightblue" stroke="midnightblue" points="442.52,-107.382 436.716,-116.246 446.78,-112.936 442.52,-107.382"/>
</g>
<!-- Node14 -->
<g id="node14" class="node"><title>Node14</title>
<g id="a_node14"><a xlink:href="../../dd/d8a/_blemish_test_8cpp.html" target="_top" xlink:title="BlemishTest.cpp">
<polygon fill="white" stroke="black" points="317,-58.5 317,-79.5 421,-79.5 421,-58.5 317,-58.5"/>
<text text-anchor="middle" x="369" y="-65.9" font-family="Helvetica,sans-Serif" font-size="12.00">BlemishTest.cpp</text>
</a>
</g>
</g>
<!-- Node3&#45;&gt;Node14 -->
<g id="edge13" class="edge"><title>Node3&#45;&gt;Node14</title>
<path fill="none" stroke="midnightblue" d="M407.377,-109.075C397.915,-99.4402 386.403,-87.7196 378.47,-79.6427"/>
<polygon fill="midnightblue" stroke="midnightblue" points="404.916,-111.564 414.42,-116.246 409.91,-106.659 404.916,-111.564"/>
</g>
<!-- Node5 -->
<g id="node5" class="node"><title>Node5</title>
<g id="a_node5"><a xlink:href="../../d3/d22/_app_thread_8cpp.html" target="_top" xlink:title="AppThread.cpp">
<polygon fill="white" stroke="black" points="448,-0.5 448,-21.5 546,-21.5 546,-0.5 448,-0.5"/>
<text text-anchor="middle" x="497" y="-7.9" font-family="Helvetica,sans-Serif" font-size="12.00">AppThread.cpp</text>
</a>
</g>
</g>
<!-- Node4&#45;&gt;Node5 -->
<g id="edge4" class="edge"><title>Node4&#45;&gt;Node5</title>
<path fill="none" stroke="midnightblue" d="M497,-48.1575C497,-39.155 497,-28.9199 497,-21.6427"/>
<polygon fill="midnightblue" stroke="midnightblue" points="493.5,-48.2455 497,-58.2455 500.5,-48.2456 493.5,-48.2455"/>
</g>
<!-- Node6 -->
<g id="node6" class="node"><title>Node6</title>
<g id="a_node6"><a xlink:href="../../d6/df7/_critical_buf_8cpp.html" target="_top" xlink:title="CriticalBuf.cpp">
<polygon fill="white" stroke="black" points="564.5,-0.5 564.5,-21.5 657.5,-21.5 657.5,-0.5 564.5,-0.5"/>
<text text-anchor="middle" x="611" y="-7.9" font-family="Helvetica,sans-Serif" font-size="12.00">CriticalBuf.cpp</text>
</a>
</g>
</g>
<!-- Node4&#45;&gt;Node6 -->
<g id="edge5" class="edge"><title>Node4&#45;&gt;Node6</title>
<path fill="none" stroke="midnightblue" d="M525.832,-53.8368C546.439,-43.7139 573.608,-30.3679 591.658,-21.5011"/>
<polygon fill="midnightblue" stroke="midnightblue" points="524.03,-50.8227 516.597,-58.3733 527.116,-57.1056 524.03,-50.8227"/>
</g>
<!-- Node4&#45;&gt;Node7 -->
<g id="edge6" class="edge"><title>Node4&#45;&gt;Node7</title>
<path fill="none" stroke="midnightblue" d="M428.717,-57.8792C283.272,-39.3567 244.465,-42.3944 103,-22 100.068,-21.5772 97.0533,-21.1162 94.0167,-20.6317"/>
<polygon fill="midnightblue" stroke="midnightblue" points="428.55,-61.3864 438.914,-59.1907 429.443,-54.4436 428.55,-61.3864"/>
</g>
<!-- Node8 -->
<g id="node8" class="node"><title>Node8</title>
<g id="a_node8"><a xlink:href="../../df/d0a/main_8cpp.html" target="_top" xlink:title="main.cpp">
<polygon fill="white" stroke="black" points="675.5,-0.5 675.5,-21.5 740.5,-21.5 740.5,-0.5 675.5,-0.5"/>
<text text-anchor="middle" x="708" y="-7.9" font-family="Helvetica,sans-Serif" font-size="12.00">main.cpp</text>
</a>
</g>
</g>
<!-- Node4&#45;&gt;Node8 -->
<g id="edge7" class="edge"><title>Node4&#45;&gt;Node8</title>
<path fill="none" stroke="midnightblue" d="M543.045,-55.7796C583.007,-45.1734 639.868,-30.0824 675.316,-20.6744"/>
<polygon fill="midnightblue" stroke="midnightblue" points="542.04,-52.4251 533.272,-58.3733 543.835,-59.1908 542.04,-52.4251"/>
</g>
<!-- Node9 -->
<g id="node9" class="node"><title>Node9</title>
<g id="a_node9"><a xlink:href="../../de/da2/_operator_console_8cpp.html" target="_top" xlink:title="OperatorConsole.cpp">
<polygon fill="white" stroke="black" points="923.5,-0.5 923.5,-21.5 1052.5,-21.5 1052.5,-0.5 923.5,-0.5"/>
<text text-anchor="middle" x="988" y="-7.9" font-family="Helvetica,sans-Serif" font-size="12.00">OperatorConsole.cpp</text>
</a>
</g>
</g>
<!-- Node4&#45;&gt;Node9 -->
<g id="edge8" class="edge"><title>Node4&#45;&gt;Node9</title>
<path fill="none" stroke="midnightblue" d="M565.021,-57.9192C720.821,-38.5271 761.903,-40.0943 914,-22 917.09,-21.6324 920.25,-21.2459 923.442,-20.8472"/>
<polygon fill="midnightblue" stroke="midnightblue" points="564.569,-54.4484 555.082,-59.1652 565.44,-61.3941 564.569,-54.4484"/>
</g>
<!-- Node10 -->
<g id="node10" class="node"><title>Node10</title>
<g id="a_node10"><a xlink:href="../../d8/d29/_operator_console_dlg_8cpp.html" target="_top" xlink:title="OperatorConsoleDlg.cpp">
<polygon fill="white" stroke="black" points="758.5,-0.5 758.5,-21.5 905.5,-21.5 905.5,-0.5 758.5,-0.5"/>
<text text-anchor="middle" x="832" y="-7.9" font-family="Helvetica,sans-Serif" font-size="12.00">OperatorConsoleDlg.cpp</text>
</a>
</g>
</g>
<!-- Node4&#45;&gt;Node10 -->
<g id="edge9" class="edge"><title>Node4&#45;&gt;Node10</title>
<path fill="none" stroke="midnightblue" d="M564.253,-56.7577C626.068,-46.4245 716.698,-31.2743 775.028,-21.5237"/>
<polygon fill="midnightblue" stroke="midnightblue" points="563.494,-53.3359 554.208,-58.4369 564.648,-60.2401 563.494,-53.3359"/>
</g>
<!-- Node11 -->
<g id="node11" class="node"><title>Node11</title>
<g id="a_node11"><a xlink:href="../../d0/d57/_pass_fail_8cpp.html" target="_top" xlink:title="PassFail.cpp">
<polygon fill="white" stroke="black" points="112,-0.5 112,-21.5 198,-21.5 198,-0.5 112,-0.5"/>
<text text-anchor="middle" x="155" y="-7.9" font-family="Helvetica,sans-Serif" font-size="12.00">PassFail.cpp</text>
</a>
</g>
</g>
<!-- Node4&#45;&gt;Node11 -->
<g id="edge10" class="edge"><title>Node4&#45;&gt;Node11</title>
<path fill="none" stroke="midnightblue" d="M428.809,-57.4473C356.908,-46.2731 248.421,-29.2658 207,-22 204.102,-21.4917 201.117,-20.9543 198.11,-20.4029"/>
<polygon fill="midnightblue" stroke="midnightblue" points="428.282,-60.9073 438.701,-58.9837 429.357,-53.9903 428.282,-60.9073"/>
</g>
<!-- Node12 -->
<g id="node12" class="node"><title>Node12</title>
<g id="a_node12"><a xlink:href="../../da/d46/_password_dialog_8cpp.html" target="_top" xlink:title="PasswordDialog.cpp">
<polygon fill="white" stroke="black" points="216,-0.5 216,-21.5 342,-21.5 342,-0.5 216,-0.5"/>
<text text-anchor="middle" x="279" y="-7.9" font-family="Helvetica,sans-Serif" font-size="12.00">PasswordDialog.cpp</text>
</a>
</g>
</g>
<!-- Node4&#45;&gt;Node12 -->
<g id="edge11" class="edge"><title>Node4&#45;&gt;Node12</title>
<path fill="none" stroke="midnightblue" d="M449.706,-55.8511C409.591,-45.5462 352.846,-30.9697 315.987,-21.5011"/>
<polygon fill="midnightblue" stroke="midnightblue" points="448.968,-59.2751 459.524,-58.3733 450.71,-52.4952 448.968,-59.2751"/>
</g>
<!-- Node13 -->
<g id="node13" class="node"><title>Node13</title>
<g id="a_node13"><a xlink:href="../../d5/d27/_setup_8cpp.html" target="_top" xlink:title="Setup.cpp">
<polygon fill="white" stroke="black" points="360,-0.5 360,-21.5 430,-21.5 430,-0.5 360,-0.5"/>
<text text-anchor="middle" x="395" y="-7.9" font-family="Helvetica,sans-Serif" font-size="12.00">Setup.cpp</text>
</a>
</g>
</g>
<!-- Node4&#45;&gt;Node13 -->
<g id="edge12" class="edge"><title>Node4&#45;&gt;Node13</title>
<path fill="none" stroke="midnightblue" d="M470.266,-53.3225C452.047,-43.3198 428.44,-30.3593 412.563,-21.6427"/>
<polygon fill="midnightblue" stroke="midnightblue" points="468.783,-56.5009 479.233,-58.2455 472.152,-50.3649 468.783,-56.5009"/>
</g>
<!-- Node15&#45;&gt;Node4 -->
<g id="edge16" class="edge"><title>Node15&#45;&gt;Node4</title>
<path fill="none" stroke="midnightblue" d="M550.852,-110.21C537.68,-100.374 521.16,-88.0394 509.914,-79.6427"/>
<polygon fill="midnightblue" stroke="midnightblue" points="548.829,-113.067 558.936,-116.246 553.017,-107.458 548.829,-113.067"/>
</g>
<!-- Node16 -->
<g id="node16" class="node"><title>Node16</title>
<g id="a_node16"><a xlink:href="../../dc/d7a/_s_f_rplus_test_8cpp.html" target="_top" xlink:title="SFRplusTest.cpp">
<polygon fill="white" stroke="black" points="573.5,-58.5 573.5,-79.5 680.5,-79.5 680.5,-58.5 573.5,-58.5"/>
<text text-anchor="middle" x="627" y="-65.9" font-family="Helvetica,sans-Serif" font-size="12.00">SFRplusTest.cpp</text>
</a>
</g>
</g>
<!-- Node15&#45;&gt;Node16 -->
<g id="edge17" class="edge"><title>Node15&#45;&gt;Node16</title>
<path fill="none" stroke="midnightblue" d="M588.623,-109.075C598.085,-99.4402 609.597,-87.7196 617.53,-79.6427"/>
<polygon fill="midnightblue" stroke="midnightblue" points="586.09,-106.659 581.58,-116.246 591.084,-111.564 586.09,-106.659"/>
</g>
<!-- Node17&#45;&gt;Node9 -->
<g id="edge20" class="edge"><title>Node17&#45;&gt;Node9</title>
<path fill="none" stroke="midnightblue" d="M868.428,-54.9231C896.946,-44.686 935.938,-30.6889 961.533,-21.5011"/>
<polygon fill="midnightblue" stroke="midnightblue" points="867.047,-51.7004 858.817,-58.3733 869.412,-58.2887 867.047,-51.7004"/>
</g>
<!-- Node17&#45;&gt;Node10 -->
<g id="edge21" class="edge"><title>Node17&#45;&gt;Node10</title>
<path fill="none" stroke="midnightblue" d="M832,-48.1575C832,-39.155 832,-28.9199 832,-21.6427"/>
<polygon fill="midnightblue" stroke="midnightblue" points="828.5,-48.2455 832,-58.2455 835.5,-48.2456 828.5,-48.2455"/>
</g>
</g>
</svg>
