<?xml version="1.0" encoding="UTF-8" standalone="no"?>
<!DOCTYPE svg PUBLIC "-//W3C//DTD SVG 1.1//EN"
 "http://www.w3.org/Graphics/SVG/1.1/DTD/svg11.dtd">
<!-- Generated by graphviz version 2.34.0 (20130907.0111)
 -->
<!-- Title: Timestamp.h Pages: 1 -->
<svg width="1061pt" height="262pt"
 viewBox="0.00 0.00 1061.00 262.00" xmlns="http://www.w3.org/2000/svg" xmlns:xlink="http://www.w3.org/1999/xlink">
<g id="graph0" class="graph" transform="scale(1 1) rotate(0) translate(4 258)">
<title>Timestamp.h</title>
<polygon fill="white" stroke="white" points="-4,4 -4,-258 1057,-258 1057,4 -4,4"/>
<!-- Node1 -->
<g id="node1" class="node"><title>Node1</title>
<polygon fill="#bfbfbf" stroke="black" points="594,-232.5 594,-253.5 678,-253.5 678,-232.5 594,-232.5"/>
<text text-anchor="middle" x="636" y="-239.9" font-family="Helvetica,sans-Serif" font-size="12.00">Timestamp.h</text>
</g>
<!-- Node2 -->
<g id="node2" class="node"><title>Node2</title>
<g id="a_node2"><a xlink:href="../../d9/da7/_image_test_8h.html" target="_top" xlink:title="ImageTest.h">
<polygon fill="white" stroke="black" points="458,-174.5 458,-195.5 538,-195.5 538,-174.5 458,-174.5"/>
<text text-anchor="middle" x="498" y="-181.9" font-family="Helvetica,sans-Serif" font-size="12.00">ImageTest.h</text>
</a>
</g>
</g>
<!-- Node1&#45;&gt;Node2 -->
<g id="edge1" class="edge"><title>Node1&#45;&gt;Node2</title>
<path fill="none" stroke="midnightblue" d="M602.779,-228.519C577.646,-218.32 543.758,-204.569 521.413,-195.501"/>
<polygon fill="midnightblue" stroke="midnightblue" points="601.695,-231.856 612.277,-232.373 604.327,-225.37 601.695,-231.856"/>
</g>
<!-- Node17 -->
<g id="node17" class="node"><title>Node17</title>
<g id="a_node17"><a xlink:href="../../d7/dcd/_operator_console_dlg_8h.html" target="_top" xlink:title="OperatorConsoleDlg.h">
<polygon fill="white" stroke="black" points="640,-116.5 640,-137.5 774,-137.5 774,-116.5 640,-116.5"/>
<text text-anchor="middle" x="707" y="-123.9" font-family="Helvetica,sans-Serif" font-size="12.00">OperatorConsoleDlg.h</text>
</a>
</g>
</g>
<!-- Node1&#45;&gt;Node17 -->
<g id="edge19" class="edge"><title>Node1&#45;&gt;Node17</title>
<path fill="none" stroke="midnightblue" d="M638.533,-221.864C641.032,-207.64 645.862,-188.591 655,-174 664.468,-158.881 680.369,-145.869 692.1,-137.581"/>
<polygon fill="midnightblue" stroke="midnightblue" points="635.026,-221.648 636.991,-232.059 641.948,-222.694 635.026,-221.648"/>
</g>
<!-- Node18 -->
<g id="node18" class="node"><title>Node18</title>
<g id="a_node18"><a xlink:href="../../d5/df8/_timestamp_8cpp.html" target="_top" xlink:title="Timestamp.cpp">
<polygon fill="white" stroke="black" points="664,-174.5 664,-195.5 762,-195.5 762,-174.5 664,-174.5"/>
<text text-anchor="middle" x="713" y="-181.9" font-family="Helvetica,sans-Serif" font-size="12.00">Timestamp.cpp</text>
</a>
</g>
</g>
<!-- Node1&#45;&gt;Node18 -->
<g id="edge23" class="edge"><title>Node1&#45;&gt;Node18</title>
<path fill="none" stroke="midnightblue" d="M657.712,-226.21C671.235,-216.374 688.196,-204.039 699.741,-195.643"/>
<polygon fill="midnightblue" stroke="midnightblue" points="655.441,-223.533 649.412,-232.246 659.558,-229.194 655.441,-223.533"/>
</g>
<!-- Node3 -->
<g id="node3" class="node"><title>Node3</title>
<g id="a_node3"><a xlink:href="../../dc/d69/_blemish_test_8h.html" target="_top" xlink:title="BlemishTest.h">
<polygon fill="white" stroke="black" points="380,-116.5 380,-137.5 470,-137.5 470,-116.5 380,-116.5"/>
<text text-anchor="middle" x="425" y="-123.9" font-family="Helvetica,sans-Serif" font-size="12.00">BlemishTest.h</text>
</a>
</g>
</g>
<!-- Node2&#45;&gt;Node3 -->
<g id="edge2" class="edge"><title>Node2&#45;&gt;Node3</title>
<path fill="none" stroke="midnightblue" d="M477.049,-167.928C464.289,-158.14 448.411,-145.959 437.57,-137.643"/>
<polygon fill="midnightblue" stroke="midnightblue" points="475.22,-170.936 485.284,-174.246 479.48,-165.382 475.22,-170.936"/>
</g>
<!-- Node4 -->
<g id="node4" class="node"><title>Node4</title>
<g id="a_node4"><a xlink:href="../../da/de6/_operator_console_8h.html" target="_top" xlink:title="OperatorConsole.h">
<polygon fill="white" stroke="black" points="440,-58.5 440,-79.5 556,-79.5 556,-58.5 440,-58.5"/>
<text text-anchor="middle" x="498" y="-65.9" font-family="Helvetica,sans-Serif" font-size="12.00">OperatorConsole.h</text>
</a>
</g>
</g>
<!-- Node2&#45;&gt;Node4 -->
<g id="edge14" class="edge"><title>Node2&#45;&gt;Node4</title>
<path fill="none" stroke="midnightblue" d="M498,-164.252C498,-139.584 498,-98.3525 498,-79.695"/>
<polygon fill="midnightblue" stroke="midnightblue" points="494.5,-164.28 498,-174.28 501.5,-164.28 494.5,-164.28"/>
</g>
<!-- Node7 -->
<g id="node7" class="node"><title>Node7</title>
<g id="a_node7"><a xlink:href="../../d8/d53/_image_test_8cpp.html" target="_top" xlink:title="ImageTest.cpp">
<polygon fill="white" stroke="black" points="0,-0.5 0,-21.5 94,-21.5 94,-0.5 0,-0.5"/>
<text text-anchor="middle" x="47" y="-7.9" font-family="Helvetica,sans-Serif" font-size="12.00">ImageTest.cpp</text>
</a>
</g>
</g>
<!-- Node2&#45;&gt;Node7 -->
<g id="edge18" class="edge"><title>Node2&#45;&gt;Node7</title>
<path fill="none" stroke="midnightblue" d="M461.568,-171.059C436.135,-161.963 401.428,-149.425 371,-138 258.279,-95.6745 124.478,-42.797 70.9078,-21.5182"/>
<polygon fill="midnightblue" stroke="midnightblue" points="460.58,-174.423 471.175,-174.489 462.934,-167.83 460.58,-174.423"/>
</g>
<!-- Node15 -->
<g id="node15" class="node"><title>Node15</title>
<g id="a_node15"><a xlink:href="../../d2/d9d/_s_f_rplus_test_8h.html" target="_top" xlink:title="SFRplusTest.h">
<polygon fill="white" stroke="black" points="526.5,-116.5 526.5,-137.5 619.5,-137.5 619.5,-116.5 526.5,-116.5"/>
<text text-anchor="middle" x="573" y="-123.9" font-family="Helvetica,sans-Serif" font-size="12.00">SFRplusTest.h</text>
</a>
</g>
</g>
<!-- Node2&#45;&gt;Node15 -->
<g id="edge15" class="edge"><title>Node2&#45;&gt;Node15</title>
<path fill="none" stroke="midnightblue" d="M519.148,-168.21C532.32,-158.374 548.84,-146.039 560.086,-137.643"/>
<polygon fill="midnightblue" stroke="midnightblue" points="516.983,-165.458 511.064,-174.246 521.171,-171.067 516.983,-165.458"/>
</g>
<!-- Node3&#45;&gt;Node4 -->
<g id="edge3" class="edge"><title>Node3&#45;&gt;Node4</title>
<path fill="none" stroke="midnightblue" d="M445.951,-109.928C458.711,-100.14 474.589,-87.9595 485.43,-79.6427"/>
<polygon fill="midnightblue" stroke="midnightblue" points="443.52,-107.382 437.716,-116.246 447.78,-112.936 443.52,-107.382"/>
</g>
<!-- Node14 -->
<g id="node14" class="node"><title>Node14</title>
<g id="a_node14"><a xlink:href="../../dd/d8a/_blemish_test_8cpp.html" target="_top" xlink:title="BlemishTest.cpp">
<polygon fill="white" stroke="black" points="318,-58.5 318,-79.5 422,-79.5 422,-58.5 318,-58.5"/>
<text text-anchor="middle" x="370" y="-65.9" font-family="Helvetica,sans-Serif" font-size="12.00">BlemishTest.cpp</text>
</a>
</g>
</g>
<!-- Node3&#45;&gt;Node14 -->
<g id="edge13" class="edge"><title>Node3&#45;&gt;Node14</title>
<path fill="none" stroke="midnightblue" d="M408.377,-109.075C398.915,-99.4402 387.403,-87.7196 379.47,-79.6427"/>
<polygon fill="midnightblue" stroke="midnightblue" points="405.916,-111.564 415.42,-116.246 410.91,-106.659 405.916,-111.564"/>
</g>
<!-- Node5 -->
<g id="node5" class="node"><title>Node5</title>
<g id="a_node5"><a xlink:href="../../d3/d22/_app_thread_8cpp.html" target="_top" xlink:title="AppThread.cpp">
<polygon fill="white" stroke="black" points="200,-0.5 200,-21.5 298,-21.5 298,-0.5 200,-0.5"/>
<text text-anchor="middle" x="249" y="-7.9" font-family="Helvetica,sans-Serif" font-size="12.00">AppThread.cpp</text>
</a>
</g>
</g>
<!-- Node4&#45;&gt;Node5 -->
<g id="edge4" class="edge"><title>Node4&#45;&gt;Node5</title>
<path fill="none" stroke="midnightblue" d="M445.721,-56.2425C399.85,-45.9262 333.987,-31.1135 291.346,-21.5237"/>
<polygon fill="midnightblue" stroke="midnightblue" points="444.954,-59.6573 455.478,-58.4369 446.49,-52.8279 444.954,-59.6573"/>
</g>
<!-- Node6 -->
<g id="node6" class="node"><title>Node6</title>
<g id="a_node6"><a xlink:href="../../d6/df7/_critical_buf_8cpp.html" target="_top" xlink:title="CriticalBuf.cpp">
<polygon fill="white" stroke="black" points="316.5,-0.5 316.5,-21.5 409.5,-21.5 409.5,-0.5 316.5,-0.5"/>
<text text-anchor="middle" x="363" y="-7.9" font-family="Helvetica,sans-Serif" font-size="12.00">CriticalBuf.cpp</text>
</a>
</g>
</g>
<!-- Node4&#45;&gt;Node6 -->
<g id="edge5" class="edge"><title>Node4&#45;&gt;Node6</title>
<path fill="none" stroke="midnightblue" d="M465.501,-54.5189C440.915,-44.3201 407.763,-30.5685 385.904,-21.5011"/>
<polygon fill="midnightblue" stroke="midnightblue" points="464.215,-57.7745 474.793,-58.3733 466.897,-51.3087 464.215,-57.7745"/>
</g>
<!-- Node4&#45;&gt;Node7 -->
<g id="edge6" class="edge"><title>Node4&#45;&gt;Node7</title>
<path fill="none" stroke="midnightblue" d="M429.688,-57.8761C283.826,-39.3272 244.896,-42.4325 103,-22 100.067,-21.5777 97.0532,-21.1171 94.0166,-20.6329"/>
<polygon fill="midnightblue" stroke="midnightblue" points="429.55,-61.387 439.915,-59.1895 430.442,-54.4441 429.55,-61.387"/>
</g>
<!-- Node8 -->
<g id="node8" class="node"><title>Node8</title>
<g id="a_node8"><a xlink:href="../../df/d0a/main_8cpp.html" target="_top" xlink:title="main.cpp">
<polygon fill="white" stroke="black" points="427.5,-0.5 427.5,-21.5 492.5,-21.5 492.5,-0.5 427.5,-0.5"/>
<text text-anchor="middle" x="460" y="-7.9" font-family="Helvetica,sans-Serif" font-size="12.00">main.cpp</text>
</a>
</g>
</g>
<!-- Node4&#45;&gt;Node8 -->
<g id="edge7" class="edge"><title>Node4&#45;&gt;Node8</title>
<path fill="none" stroke="midnightblue" d="M485.732,-49.9209C479.351,-40.5176 471.807,-29.3997 466.543,-21.6427"/>
<polygon fill="midnightblue" stroke="midnightblue" points="482.87,-51.936 491.381,-58.2455 488.662,-48.0055 482.87,-51.936"/>
</g>
<!-- Node9 -->
<g id="node9" class="node"><title>Node9</title>
<g id="a_node9"><a xlink:href="../../de/da2/_operator_console_8cpp.html" target="_top" xlink:title="OperatorConsole.cpp">
<polygon fill="white" stroke="black" points="759.5,-0.5 759.5,-21.5 888.5,-21.5 888.5,-0.5 759.5,-0.5"/>
<text text-anchor="middle" x="824" y="-7.9" font-family="Helvetica,sans-Serif" font-size="12.00">OperatorConsole.cpp</text>
</a>
</g>
</g>
<!-- Node4&#45;&gt;Node9 -->
<g id="edge8" class="edge"><title>Node4&#45;&gt;Node9</title>
<path fill="none" stroke="midnightblue" d="M563.819,-56.6937C623.964,-46.3621 711.913,-31.2542 768.559,-21.5237"/>
<polygon fill="midnightblue" stroke="midnightblue" points="562.934,-53.2943 553.671,-58.4369 564.119,-60.1933 562.934,-53.2943"/>
</g>
<!-- Node10 -->
<g id="node10" class="node"><title>Node10</title>
<g id="a_node10"><a xlink:href="../../d8/d29/_operator_console_dlg_8cpp.html" target="_top" xlink:title="OperatorConsoleDlg.cpp">
<polygon fill="white" stroke="black" points="906.5,-0.5 906.5,-21.5 1053.5,-21.5 1053.5,-0.5 906.5,-0.5"/>
<text text-anchor="middle" x="980" y="-7.9" font-family="Helvetica,sans-Serif" font-size="12.00">OperatorConsoleDlg.cpp</text>
</a>
</g>
</g>
<!-- Node4&#45;&gt;Node10 -->
<g id="edge9" class="edge"><title>Node4&#45;&gt;Node10</title>
<path fill="none" stroke="midnightblue" d="M566.427,-57.8574C713.937,-39.0256 752.854,-38.498 897,-22 900.028,-21.6534 903.118,-21.2964 906.239,-20.933"/>
<polygon fill="midnightblue" stroke="midnightblue" points="565.558,-54.4402 556.085,-59.1849 566.449,-61.3832 565.558,-54.4402"/>
</g>
<!-- Node11 -->
<g id="node11" class="node"><title>Node11</title>
<g id="a_node11"><a xlink:href="../../d0/d57/_pass_fail_8cpp.html" target="_top" xlink:title="PassFail.cpp">
<polygon fill="white" stroke="black" points="511,-0.5 511,-21.5 597,-21.5 597,-0.5 511,-0.5"/>
<text text-anchor="middle" x="554" y="-7.9" font-family="Helvetica,sans-Serif" font-size="12.00">PassFail.cpp</text>
</a>
</g>
</g>
<!-- Node4&#45;&gt;Node11 -->
<g id="edge10" class="edge"><title>Node4&#45;&gt;Node11</title>
<path fill="none" stroke="midnightblue" d="M514.925,-51.0751C524.56,-41.4402 536.28,-29.7196 544.357,-21.6427"/>
<polygon fill="midnightblue" stroke="midnightblue" points="512.351,-48.6996 507.754,-58.2455 517.3,-53.6493 512.351,-48.6996"/>
</g>
<!-- Node12 -->
<g id="node12" class="node"><title>Node12</title>
<g id="a_node12"><a xlink:href="../../da/d46/_password_dialog_8cpp.html" target="_top" xlink:title="PasswordDialog.cpp">
<polygon fill="white" stroke="black" points="615,-0.5 615,-21.5 741,-21.5 741,-0.5 615,-0.5"/>
<text text-anchor="middle" x="678" y="-7.9" font-family="Helvetica,sans-Serif" font-size="12.00">PasswordDialog.cpp</text>
</a>
</g>
</g>
<!-- Node4&#45;&gt;Node12 -->
<g id="edge11" class="edge"><title>Node4&#45;&gt;Node12</title>
<path fill="none" stroke="midnightblue" d="M538.746,-55.3235C571.756,-45.0536 617.542,-30.8093 647.461,-21.5011"/>
<polygon fill="midnightblue" stroke="midnightblue" points="537.452,-52.0605 528.943,-58.3733 539.531,-58.7445 537.452,-52.0605"/>
</g>
<!-- Node13 -->
<g id="node13" class="node"><title>Node13</title>
<g id="a_node13"><a xlink:href="../../d5/d27/_setup_8cpp.html" target="_top" xlink:title="Setup.cpp">
<polygon fill="white" stroke="black" points="112,-0.5 112,-21.5 182,-21.5 182,-0.5 112,-0.5"/>
<text text-anchor="middle" x="147" y="-7.9" font-family="Helvetica,sans-Serif" font-size="12.00">Setup.cpp</text>
</a>
</g>
</g>
<!-- Node4&#45;&gt;Node13 -->
<g id="edge12" class="edge"><title>Node4&#45;&gt;Node13</title>
<path fill="none" stroke="midnightblue" d="M429.8,-57.813C340.247,-44.432 193.936,-22.5529 191,-22 188.075,-21.4492 185.048,-20.8416 182.015,-20.2061"/>
<polygon fill="midnightblue" stroke="midnightblue" points="429.482,-61.3042 439.889,-59.3205 430.516,-54.3811 429.482,-61.3042"/>
</g>
<!-- Node15&#45;&gt;Node4 -->
<g id="edge16" class="edge"><title>Node15&#45;&gt;Node4</title>
<path fill="none" stroke="midnightblue" d="M551.852,-110.21C538.68,-100.374 522.16,-88.0394 510.914,-79.6427"/>
<polygon fill="midnightblue" stroke="midnightblue" points="549.829,-113.067 559.936,-116.246 554.017,-107.458 549.829,-113.067"/>
</g>
<!-- Node16 -->
<g id="node16" class="node"><title>Node16</title>
<g id="a_node16"><a xlink:href="../../dc/d7a/_s_f_rplus_test_8cpp.html" target="_top" xlink:title="SFRplusTest.cpp">
<polygon fill="white" stroke="black" points="574.5,-58.5 574.5,-79.5 681.5,-79.5 681.5,-58.5 574.5,-58.5"/>
<text text-anchor="middle" x="628" y="-65.9" font-family="Helvetica,sans-Serif" font-size="12.00">SFRplusTest.cpp</text>
</a>
</g>
</g>
<!-- Node15&#45;&gt;Node16 -->
<g id="edge17" class="edge"><title>Node15&#45;&gt;Node16</title>
<path fill="none" stroke="midnightblue" d="M589.623,-109.075C599.085,-99.4402 610.597,-87.7196 618.53,-79.6427"/>
<polygon fill="midnightblue" stroke="midnightblue" points="587.09,-106.659 582.58,-116.246 592.084,-111.564 587.09,-106.659"/>
</g>
<!-- Node17&#45;&gt;Node4 -->
<g id="edge20" class="edge"><title>Node17&#45;&gt;Node4</title>
<path fill="none" stroke="midnightblue" d="M661.169,-113.72C622.739,-103.423 568.648,-88.9296 533.46,-79.5011"/>
<polygon fill="midnightblue" stroke="midnightblue" points="660.506,-117.166 671.072,-116.373 662.318,-110.404 660.506,-117.166"/>
</g>
<!-- Node17&#45;&gt;Node9 -->
<g id="edge21" class="edge"><title>Node17&#45;&gt;Node9</title>
<path fill="none" stroke="midnightblue" d="M724.275,-109.168C749.116,-84.9639 794.125,-41.1088 814.05,-21.695"/>
<polygon fill="midnightblue" stroke="midnightblue" points="721.695,-106.795 716.975,-116.28 726.58,-111.809 721.695,-106.795"/>
</g>
<!-- Node17&#45;&gt;Node10 -->
<g id="edge22" class="edge"><title>Node17&#45;&gt;Node10</title>
<path fill="none" stroke="midnightblue" d="M739.214,-112.548C795.049,-89.2324 908.476,-41.8672 957.067,-21.5766"/>
<polygon fill="midnightblue" stroke="midnightblue" points="737.685,-109.393 729.806,-116.477 740.383,-115.853 737.685,-109.393"/>
</g>
</g>
</svg>
