<?xml version="1.0" encoding="UTF-8" standalone="no"?>
<!DOCTYPE svg PUBLIC "-//W3C//DTD SVG 1.1//EN"
 "http://www.w3.org/Graphics/SVG/1.1/DTD/svg11.dtd">
<!-- Generated by graphviz version 2.34.0 (20130907.0111)
 -->
<!-- Title: _newJSONNode Pages: 1 -->
<svg width="1868pt" height="177pt"
 viewBox="0.00 0.00 1868.00 177.00" xmlns="http://www.w3.org/2000/svg" xmlns:xlink="http://www.w3.org/1999/xlink">
<g id="graph0" class="graph" transform="scale(1 1) rotate(0) translate(4 173)">
<title>_newJSONNode</title>
<polygon fill="white" stroke="white" points="-4,4 -4,-173 1864,-173 1864,4 -4,4"/>
<!-- Node1 -->
<g id="node1" class="node"><title>Node1</title>
<polygon fill="#bfbfbf" stroke="black" points="0,-70.5 0,-91.5 104,-91.5 104,-70.5 0,-70.5"/>
<text text-anchor="middle" x="52" y="-77.9" font-family="Helvetica,sans-Serif" font-size="12.00">_newJSONNode</text>
</g>
<!-- Node2 -->
<g id="node2" class="node"><title>Node2</title>
<g id="a_node2"><a xlink:href="../../d6/dc7/class_j_s_o_n_node.html#a2435b57e1586f3c7c7d915b3490a4e1c" target="_top" xlink:title="JSONNode::newJSONNode">
<polygon fill="white" stroke="black" points="140,-70.5 140,-91.5 304,-91.5 304,-70.5 140,-70.5"/>
<text text-anchor="middle" x="222" y="-77.9" font-family="Helvetica,sans-Serif" font-size="12.00">JSONNode::newJSONNode</text>
</a>
</g>
</g>
<!-- Node1&#45;&gt;Node2 -->
<g id="edge1" class="edge"><title>Node1&#45;&gt;Node2</title>
<path fill="none" stroke="midnightblue" d="M114.594,-81C122.859,-81 131.436,-81 139.972,-81"/>
<polygon fill="midnightblue" stroke="midnightblue" points="114.318,-77.5001 104.318,-81 114.318,-84.5001 114.318,-77.5001"/>
</g>
<!-- Node3 -->
<g id="node3" class="node"><title>Node3</title>
<g id="a_node3"><a xlink:href="../../d1/d0b/classinternal_j_s_o_n_node.html#a8757ff69826db8035ea7031fa6c3815a" target="_top" xlink:title="internalJSONNode::internal\lJSONNode">
<polygon fill="white" stroke="black" points="350,-135 350,-169 508,-169 508,-135 350,-135"/>
<text text-anchor="start" x="358" y="-155.4" font-family="Helvetica,sans-Serif" font-size="12.00">internalJSONNode::internal</text>
<text text-anchor="middle" x="429" y="-142.4" font-family="Helvetica,sans-Serif" font-size="12.00">JSONNode</text>
</a>
</g>
</g>
<!-- Node2&#45;&gt;Node3 -->
<g id="edge2" class="edge"><title>Node2&#45;&gt;Node3</title>
<path fill="none" stroke="midnightblue" d="M259.155,-95.2588C282.17,-104.17 312.682,-115.683 340,-125 349.831,-128.353 360.343,-131.744 370.557,-134.938"/>
<polygon fill="midnightblue" stroke="midnightblue" points="260.371,-91.9762 249.782,-91.6128 257.833,-98.5 260.371,-91.9762"/>
</g>
<!-- Node4 -->
<g id="node4" class="node"><title>Node4</title>
<g id="a_node4"><a xlink:href="../../d1/d0b/classinternal_j_s_o_n_node.html#a52054310b770dc15cf10e34e32713f19" target="_top" xlink:title="internalJSONNode::push_back">
<polygon fill="white" stroke="black" points="340.5,-94.5 340.5,-115.5 517.5,-115.5 517.5,-94.5 340.5,-94.5"/>
<text text-anchor="middle" x="429" y="-101.9" font-family="Helvetica,sans-Serif" font-size="12.00">internalJSONNode::push_back</text>
</a>
</g>
</g>
<!-- Node2&#45;&gt;Node4 -->
<g id="edge3" class="edge"><title>Node2&#45;&gt;Node4</title>
<path fill="none" stroke="midnightblue" d="M314.207,-91.6779C322.94,-92.7003 331.784,-93.7357 340.481,-94.7539"/>
<polygon fill="midnightblue" stroke="midnightblue" points="314.361,-88.1721 304.021,-90.4854 313.547,-95.1246 314.361,-88.1721"/>
</g>
<!-- Node17 -->
<g id="node17" class="node"><title>Node17</title>
<g id="a_node17"><a xlink:href="../../d1/d0b/classinternal_j_s_o_n_node.html#a70aeebf2403905cc309f743e8c7b8539" target="_top" xlink:title="internalJSONNode::push\l_front">
<polygon fill="white" stroke="black" points="356.5,-41 356.5,-75 501.5,-75 501.5,-41 356.5,-41"/>
<text text-anchor="start" x="364.5" y="-61.4" font-family="Helvetica,sans-Serif" font-size="12.00">internalJSONNode::push</text>
<text text-anchor="middle" x="429" y="-48.4" font-family="Helvetica,sans-Serif" font-size="12.00">_front</text>
</a>
</g>
</g>
<!-- Node2&#45;&gt;Node17 -->
<g id="edge18" class="edge"><title>Node2&#45;&gt;Node17</title>
<path fill="none" stroke="midnightblue" d="M314.202,-70.7676C328.274,-69.1888 342.633,-67.5777 356.202,-66.0554"/>
<polygon fill="midnightblue" stroke="midnightblue" points="313.569,-67.3166 304.021,-71.9098 314.349,-74.2729 313.569,-67.3166"/>
</g>
<!-- Node18 -->
<g id="node18" class="node"><title>Node18</title>
<g id="a_node18"><a xlink:href="../../d7/d6f/class_j_s_o_n_worker.html#a418642b2c8c08ea74f87472557695883" target="_top" xlink:title="JSONWorker::NewNode">
<polygon fill="white" stroke="black" points="357,-0.5 357,-21.5 501,-21.5 501,-0.5 357,-0.5"/>
<text text-anchor="middle" x="429" y="-7.9" font-family="Helvetica,sans-Serif" font-size="12.00">JSONWorker::NewNode</text>
</a>
</g>
</g>
<!-- Node2&#45;&gt;Node18 -->
<g id="edge19" class="edge"><title>Node2&#45;&gt;Node18</title>
<path fill="none" stroke="midnightblue" d="M254.81,-66.0232C278.044,-55.4946 310.507,-41.6243 340,-32 351.945,-28.1019 365.019,-24.5893 377.348,-21.6019"/>
<polygon fill="midnightblue" stroke="midnightblue" points="253.087,-62.9624 245.453,-70.3088 256.002,-69.3266 253.087,-62.9624"/>
</g>
<!-- Node5 -->
<g id="node5" class="node"><title>Node5</title>
<g id="a_node5"><a xlink:href="../../d6/dc7/class_j_s_o_n_node.html#a5200c65f827a99897b00681aa3b35671" target="_top" xlink:title="JSONNode::push_back">
<polygon fill="white" stroke="black" points="554,-94.5 554,-115.5 694,-115.5 694,-94.5 554,-94.5"/>
<text text-anchor="middle" x="624" y="-101.9" font-family="Helvetica,sans-Serif" font-size="12.00">JSONNode::push_back</text>
</a>
</g>
</g>
<!-- Node4&#45;&gt;Node5 -->
<g id="edge4" class="edge"><title>Node4&#45;&gt;Node5</title>
<path fill="none" stroke="midnightblue" d="M528.024,-105C536.787,-105 545.533,-105 553.973,-105"/>
<polygon fill="midnightblue" stroke="midnightblue" points="527.747,-101.5 517.747,-105 527.747,-108.5 527.747,-101.5"/>
</g>
<!-- Node6 -->
<g id="node6" class="node"><title>Node6</title>
<g id="a_node6"><a xlink:href="../../d3/d71/jsonhelpers_8h.html#a3a69c2987d346d326aeffb52183db0f4" target="_top" xlink:title="prepareTestSettings">
<polygon fill="white" stroke="black" points="730.5,-94.5 730.5,-115.5 853.5,-115.5 853.5,-94.5 730.5,-94.5"/>
<text text-anchor="middle" x="792" y="-101.9" font-family="Helvetica,sans-Serif" font-size="12.00">prepareTestSettings</text>
</a>
</g>
</g>
<!-- Node5&#45;&gt;Node6 -->
<g id="edge5" class="edge"><title>Node5&#45;&gt;Node6</title>
<path fill="none" stroke="midnightblue" d="M704.55,-105C713.204,-105 721.908,-105 730.285,-105"/>
<polygon fill="midnightblue" stroke="midnightblue" points="704.437,-101.5 694.437,-105 704.437,-108.5 704.437,-101.5"/>
</g>
<!-- Node7 -->
<g id="node7" class="node"><title>Node7</title>
<g id="a_node7"><a xlink:href="../../da/d92/class_image_test.html#a7334d76c1cc6780f46626be5b9ff1adb" target="_top" xlink:title="Runs the test pointed to by m_imatestFunc. ">
<polygon fill="white" stroke="black" points="890,-94.5 890,-115.5 988,-115.5 988,-94.5 890,-94.5"/>
<text text-anchor="middle" x="939" y="-101.9" font-family="Helvetica,sans-Serif" font-size="12.00">ImageTest::Run</text>
</a>
</g>
</g>
<!-- Node6&#45;&gt;Node7 -->
<g id="edge6" class="edge"><title>Node6&#45;&gt;Node7</title>
<path fill="none" stroke="midnightblue" d="M863.657,-105C872.557,-105 881.494,-105 889.931,-105"/>
<polygon fill="midnightblue" stroke="midnightblue" points="863.653,-101.5 853.653,-105 863.653,-108.5 863.653,-101.5"/>
</g>
<!-- Node8 -->
<g id="node8" class="node"><title>Node8</title>
<g id="a_node8"><a xlink:href="../../da/d92/class_image_test.html#accf2cfff6fe48fd19888727208dd6728" target="_top" xlink:title="ImageTest::Run">
<polygon fill="white" stroke="black" points="1045,-114.5 1045,-135.5 1143,-135.5 1143,-114.5 1045,-114.5"/>
<text text-anchor="middle" x="1094" y="-121.9" font-family="Helvetica,sans-Serif" font-size="12.00">ImageTest::Run</text>
</a>
</g>
</g>
<!-- Node7&#45;&gt;Node8 -->
<g id="edge7" class="edge"><title>Node7&#45;&gt;Node8</title>
<path fill="none" stroke="midnightblue" d="M998.338,-112.626C1013.72,-114.636 1030.13,-116.782 1044.9,-118.713"/>
<polygon fill="midnightblue" stroke="midnightblue" points="998.779,-109.154 988.41,-111.328 997.872,-116.095 998.779,-109.154"/>
</g>
<!-- Node9 -->
<g id="node9" class="node"><title>Node9</title>
<g id="a_node9"><a xlink:href="../../da/d92/class_image_test.html#a372478d09c06cd7ab3684840add6215e" target="_top" xlink:title="param must be a pointer to a ThreadControl object; param&#45;&gt;m_data must point to an ImageTest object ...">
<polygon fill="white" stroke="black" points="1024.5,-74.5 1024.5,-95.5 1163.5,-95.5 1163.5,-74.5 1024.5,-74.5"/>
<text text-anchor="middle" x="1094" y="-81.9" font-family="Helvetica,sans-Serif" font-size="12.00">ImageTest::ThreadProc</text>
</a>
</g>
</g>
<!-- Node7&#45;&gt;Node9 -->
<g id="edge8" class="edge"><title>Node7&#45;&gt;Node9</title>
<path fill="none" stroke="midnightblue" d="M998.571,-97.3437C1007.05,-96.2351 1015.84,-95.0857 1024.5,-93.9543"/>
<polygon fill="midnightblue" stroke="midnightblue" points="997.872,-93.9052 988.41,-98.6719 998.779,-100.846 997.872,-93.9052"/>
</g>
<!-- Node10 -->
<g id="node10" class="node"><title>Node10</title>
<g id="a_node10"><a xlink:href="../../d3/d9f/class_c_operator_console_app.html#a51ad7e6e8f370072c3e89d0d7e9e41a8" target="_top" xlink:title="COperatorConsoleApp\l::InitBlemishThread">
<polygon fill="white" stroke="black" points="1200.5,-95 1200.5,-129 1337.5,-129 1337.5,-95 1200.5,-95"/>
<text text-anchor="start" x="1208.5" y="-115.4" font-family="Helvetica,sans-Serif" font-size="12.00">COperatorConsoleApp</text>
<text text-anchor="middle" x="1269" y="-102.4" font-family="Helvetica,sans-Serif" font-size="12.00">::InitBlemishThread</text>
</a>
</g>
</g>
<!-- Node9&#45;&gt;Node10 -->
<g id="edge9" class="edge"><title>Node9&#45;&gt;Node10</title>
<path fill="none" stroke="midnightblue" d="M1172.38,-97.077C1181.67,-98.5264 1191.1,-99.9978 1200.23,-101.424"/>
<polygon fill="midnightblue" stroke="midnightblue" points="1172.8,-93.6002 1162.38,-95.5162 1171.72,-100.516 1172.8,-93.6002"/>
</g>
<!-- Node16 -->
<g id="node16" class="node"><title>Node16</title>
<g id="a_node16"><a xlink:href="../../d3/d9f/class_c_operator_console_app.html#af7328d2c00abb1d4a09a65492c69b2b0" target="_top" xlink:title="COperatorConsoleApp\l::InitSFRplusThread">
<polygon fill="white" stroke="black" points="1200.5,-42 1200.5,-76 1337.5,-76 1337.5,-42 1200.5,-42"/>
<text text-anchor="start" x="1208.5" y="-62.4" font-family="Helvetica,sans-Serif" font-size="12.00">COperatorConsoleApp</text>
<text text-anchor="middle" x="1269" y="-49.4" font-family="Helvetica,sans-Serif" font-size="12.00">::InitSFRplusThread</text>
</a>
</g>
</g>
<!-- Node9&#45;&gt;Node16 -->
<g id="edge15" class="edge"><title>Node9&#45;&gt;Node16</title>
<path fill="none" stroke="midnightblue" d="M1173.85,-73.1494C1182.75,-71.812 1191.76,-70.4583 1200.49,-69.1454"/>
<polygon fill="midnightblue" stroke="midnightblue" points="1173.24,-69.702 1163.87,-74.6494 1174.28,-76.6243 1173.24,-69.702"/>
</g>
<!-- Node11 -->
<g id="node11" class="node"><title>Node11</title>
<g id="a_node11"><a xlink:href="../../d3/d9f/class_c_operator_console_app.html#a7f0cd7b21cee2171dea973e4e6e7bb9d" target="_top" xlink:title="Init perform application&#45;specific initialization. ">
<polygon fill="white" stroke="black" points="1374.5,-95 1374.5,-129 1511.5,-129 1511.5,-95 1374.5,-95"/>
<text text-anchor="start" x="1382.5" y="-115.4" font-family="Helvetica,sans-Serif" font-size="12.00">COperatorConsoleApp</text>
<text text-anchor="middle" x="1443" y="-102.4" font-family="Helvetica,sans-Serif" font-size="12.00">::Init</text>
</a>
</g>
</g>
<!-- Node10&#45;&gt;Node11 -->
<g id="edge10" class="edge"><title>Node10&#45;&gt;Node11</title>
<path fill="none" stroke="midnightblue" d="M1348.13,-112C1356.85,-112 1365.67,-112 1374.23,-112"/>
<polygon fill="midnightblue" stroke="midnightblue" points="1347.98,-108.5 1337.98,-112 1347.98,-115.5 1347.98,-108.5"/>
</g>
<!-- Node13 -->
<g id="node13" class="node"><title>Node13</title>
<g id="a_node13"><a xlink:href="../../d3/d9f/class_c_operator_console_app.html#aede77af6cae8053d49c752fd95910728" target="_top" xlink:title="This function allows for reallocation of the various image buffers when we change the image size...">
<polygon fill="white" stroke="black" points="1374.5,-42 1374.5,-76 1511.5,-76 1511.5,-42 1374.5,-42"/>
<text text-anchor="start" x="1382.5" y="-62.4" font-family="Helvetica,sans-Serif" font-size="12.00">COperatorConsoleApp</text>
<text text-anchor="middle" x="1443" y="-49.4" font-family="Helvetica,sans-Serif" font-size="12.00">::ReInit</text>
</a>
</g>
</g>
<!-- Node10&#45;&gt;Node13 -->
<g id="edge12" class="edge"><title>Node10&#45;&gt;Node13</title>
<path fill="none" stroke="midnightblue" d="M1335.21,-91.9056C1352.19,-86.6732 1370.32,-81.0863 1386.74,-76.0293"/>
<polygon fill="midnightblue" stroke="midnightblue" points="1333.89,-88.6491 1325.37,-94.9387 1335.96,-95.3387 1333.89,-88.6491"/>
</g>
<!-- Node12 -->
<g id="node12" class="node"><title>Node12</title>
<g id="a_node12"><a xlink:href="../../d3/d9f/class_c_operator_console_app.html#a94f4b258145e77e31644beb999bf099a" target="_top" xlink:title="COperatorConsoleApp initialization. ">
<polygon fill="white" stroke="black" points="1548.5,-95 1548.5,-129 1685.5,-129 1685.5,-95 1548.5,-95"/>
<text text-anchor="start" x="1556.5" y="-115.4" font-family="Helvetica,sans-Serif" font-size="12.00">COperatorConsoleApp</text>
<text text-anchor="middle" x="1617" y="-102.4" font-family="Helvetica,sans-Serif" font-size="12.00">::InitInstance</text>
</a>
</g>
</g>
<!-- Node11&#45;&gt;Node12 -->
<g id="edge11" class="edge"><title>Node11&#45;&gt;Node12</title>
<path fill="none" stroke="midnightblue" d="M1522.13,-112C1530.85,-112 1539.67,-112 1548.23,-112"/>
<polygon fill="midnightblue" stroke="midnightblue" points="1521.98,-108.5 1511.98,-112 1521.98,-115.5 1521.98,-108.5"/>
</g>
<!-- Node14 -->
<g id="node14" class="node"><title>Node14</title>
<g id="a_node14"><a xlink:href="../../d3/d9f/class_c_operator_console_app.html#a620f8d2eed65d743bb177abcb90936e6" target="_top" xlink:title="Called after MSG_SETUP is received. ">
<polygon fill="white" stroke="black" points="1548.5,-42 1548.5,-76 1685.5,-76 1685.5,-42 1548.5,-42"/>
<text text-anchor="start" x="1556.5" y="-62.4" font-family="Helvetica,sans-Serif" font-size="12.00">COperatorConsoleApp</text>
<text text-anchor="middle" x="1617" y="-49.4" font-family="Helvetica,sans-Serif" font-size="12.00">::OnSetup</text>
</a>
</g>
</g>
<!-- Node13&#45;&gt;Node14 -->
<g id="edge13" class="edge"><title>Node13&#45;&gt;Node14</title>
<path fill="none" stroke="midnightblue" d="M1522.13,-59C1530.85,-59 1539.67,-59 1548.23,-59"/>
<polygon fill="midnightblue" stroke="midnightblue" points="1521.98,-55.5001 1511.98,-59 1521.98,-62.5001 1521.98,-55.5001"/>
</g>
<!-- Node15 -->
<g id="node15" class="node"><title>Node15</title>
<g id="a_node15"><a xlink:href="../../d3/d9f/class_c_operator_console_app.html#a7041d197c4e6549f2cb7219981b4eec1" target="_top" xlink:title="Intercepts messages of interest before Windows or MFC. ">
<polygon fill="white" stroke="black" points="1722,-42 1722,-76 1860,-76 1860,-42 1722,-42"/>
<text text-anchor="start" x="1730" y="-62.4" font-family="Helvetica,sans-Serif" font-size="12.00">COperatorConsoleApp</text>
<text text-anchor="middle" x="1791" y="-49.4" font-family="Helvetica,sans-Serif" font-size="12.00">::PreTranslateMessage</text>
</a>
</g>
</g>
<!-- Node14&#45;&gt;Node15 -->
<g id="edge14" class="edge"><title>Node14&#45;&gt;Node15</title>
<path fill="none" stroke="midnightblue" d="M1696.05,-59C1704.7,-59 1713.45,-59 1721.95,-59"/>
<polygon fill="midnightblue" stroke="midnightblue" points="1695.98,-55.5001 1685.98,-59 1695.98,-62.5001 1695.98,-55.5001"/>
</g>
<!-- Node16&#45;&gt;Node11 -->
<g id="edge16" class="edge"><title>Node16&#45;&gt;Node11</title>
<path fill="none" stroke="midnightblue" d="M1335.21,-79.0944C1352.19,-84.3268 1370.32,-89.9137 1386.74,-94.9707"/>
<polygon fill="midnightblue" stroke="midnightblue" points="1335.96,-75.6613 1325.37,-76.0613 1333.89,-82.3509 1335.96,-75.6613"/>
</g>
<!-- Node16&#45;&gt;Node13 -->
<g id="edge17" class="edge"><title>Node16&#45;&gt;Node13</title>
<path fill="none" stroke="midnightblue" d="M1348.13,-59C1356.85,-59 1365.67,-59 1374.23,-59"/>
<polygon fill="midnightblue" stroke="midnightblue" points="1347.98,-55.5001 1337.98,-59 1347.98,-62.5001 1347.98,-55.5001"/>
</g>
</g>
</svg>
