<?xml version="1.0" encoding="UTF-8" standalone="no"?>
<!DOCTYPE svg PUBLIC "-//W3C//DTD SVG 1.1//EN"
 "http://www.w3.org/Graphics/SVG/1.1/DTD/svg11.dtd">
<!-- Generated by graphviz version 2.34.0 (20130907.0111)
 -->
<!-- Title: ModelessDialogThread Pages: 1 -->
<svg width="202pt" height="162pt"
 viewBox="0.00 0.00 202.00 162.00" xmlns="http://www.w3.org/2000/svg" xmlns:xlink="http://www.w3.org/1999/xlink">
<g id="graph0" class="graph" transform="scale(1 1) rotate(0) translate(4 158)">
<title>ModelessDialogThread</title>
<polygon fill="white" stroke="white" points="-4,4 -4,-158 198,-158 198,4 -4,4"/>
<!-- Node1 -->
<g id="node1" class="node"><title>Node1</title>
<polygon fill="#bfbfbf" stroke="black" points="-0.5,-0.5 -0.5,-21.5 138.5,-21.5 138.5,-0.5 -0.5,-0.5"/>
<text text-anchor="middle" x="69" y="-7.9" font-family="Helvetica,sans-Serif" font-size="12.00">ModelessDialogThread</text>
</g>
<!-- Node2 -->
<g id="node2" class="node"><title>Node2</title>
<polygon fill="white" stroke="#bfbfbf" points="27.5,-72.5 27.5,-93.5 110.5,-93.5 110.5,-72.5 27.5,-72.5"/>
<text text-anchor="middle" x="69" y="-79.9" font-family="Helvetica,sans-Serif" font-size="12.00">CWinThread</text>
</g>
<!-- Node2&#45;&gt;Node1 -->
<g id="edge1" class="edge"><title>Node2&#45;&gt;Node1</title>
<path fill="none" stroke="midnightblue" d="M62.8508,-62.1985C61.7341,-48.9378 62.1741,-32.0647 64.1708,-21.6505"/>
<polygon fill="midnightblue" stroke="midnightblue" points="59.3993,-62.7993 64.155,-72.2668 66.3413,-61.9 59.3993,-62.7993"/>
</g>
<!-- Node2&#45;&gt;Node1 -->
<g id="edge2" class="edge"><title>Node2&#45;&gt;Node1</title>
<path fill="none" stroke="midnightblue" d="M75.1492,-62.1985C76.2659,-48.9378 75.8259,-32.0647 73.8292,-21.6505"/>
<polygon fill="midnightblue" stroke="midnightblue" points="71.6587,-61.9 73.845,-72.2668 78.6007,-62.7993 71.6587,-61.9"/>
</g>
<!-- Node3 -->
<g id="node3" class="node"><title>Node3</title>
<g id="a_node3"><a xlink:href="../../da/d35/class_text_dlg.html" target="_top" xlink:title="TextDlg dialog. ">
<polygon fill="white" stroke="black" points="129,-72.5 129,-93.5 185,-93.5 185,-72.5 129,-72.5"/>
<text text-anchor="middle" x="157" y="-79.9" font-family="Helvetica,sans-Serif" font-size="12.00">TextDlg</text>
</a>
</g>
</g>
<!-- Node3&#45;&gt;Node1 -->
<g id="edge3" class="edge"><title>Node3&#45;&gt;Node1</title>
<path fill="none" stroke="#9a32cd" stroke-dasharray="5,2" d="M136.488,-65.6838C119.32,-52.0273 95.4025,-33.002 81.1321,-21.6505"/>
<polygon fill="#9a32cd" stroke="#9a32cd" points="134.759,-68.7806 144.764,-72.2668 139.117,-63.3024 134.759,-68.7806"/>
<text text-anchor="middle" x="146" y="-43.9" font-family="Helvetica,sans-Serif" font-size="12.00"> m_dialog</text>
</g>
<!-- Node4 -->
<g id="node4" class="node"><title>Node4</title>
<polygon fill="white" stroke="#bfbfbf" points="120,-132.5 120,-153.5 194,-153.5 194,-132.5 120,-132.5"/>
<text text-anchor="middle" x="157" y="-139.9" font-family="Helvetica,sans-Serif" font-size="12.00">CDialogEx</text>
</g>
<!-- Node4&#45;&gt;Node3 -->
<g id="edge4" class="edge"><title>Node4&#45;&gt;Node3</title>
<path fill="none" stroke="midnightblue" d="M150.58,-122.465C149.884,-112.82 150.288,-101.608 151.793,-93.7856"/>
<polygon fill="midnightblue" stroke="midnightblue" points="147.112,-122.938 151.834,-132.422 154.057,-122.064 147.112,-122.938"/>
</g>
<!-- Node4&#45;&gt;Node3 -->
<g id="edge5" class="edge"><title>Node4&#45;&gt;Node3</title>
<path fill="none" stroke="midnightblue" d="M163.42,-122.465C164.116,-112.82 163.712,-101.608 162.207,-93.7856"/>
<polygon fill="midnightblue" stroke="midnightblue" points="159.943,-122.064 162.166,-132.422 166.888,-122.938 159.943,-122.064"/>
</g>
</g>
</svg>
