<?xml version="1.0" encoding="UTF-8" standalone="no"?>
<!DOCTYPE svg PUBLIC "-//W3C//DTD SVG 1.1//EN"
 "http://www.w3.org/Graphics/SVG/1.1/DTD/svg11.dtd">
<!-- Generated by graphviz version 2.34.0 (20130907.0111)
 -->
<!-- Title: JSONNode::const_iterator Pages: 1 -->
<svg width="505pt" height="192pt"
 viewBox="0.00 0.00 505.00 192.00" xmlns="http://www.w3.org/2000/svg" xmlns:xlink="http://www.w3.org/1999/xlink">
<g id="graph0" class="graph" transform="scale(1 1) rotate(0) translate(4 188)">
<title>JSONNode::const_iterator</title>
<polygon fill="white" stroke="white" points="-4,4 -4,-188 501,-188 501,4 -4,4"/>
<!-- Node1 -->
<g id="node1" class="node"><title>Node1</title>
<polygon fill="#bfbfbf" stroke="black" points="0,-79.5 0,-100.5 154,-100.5 154,-79.5 0,-79.5"/>
<text text-anchor="middle" x="77" y="-86.9" font-family="Helvetica,sans-Serif" font-size="12.00">JSONNode::const_iterator</text>
</g>
<!-- Node2 -->
<g id="node2" class="node"><title>Node2</title>
<g id="a_node2"><a xlink:href="../../d6/dc7/class_j_s_o_n_node.html" target="_top" xlink:title="JSONNode">
<polygon fill="white" stroke="black" points="174.5,-160.5 174.5,-181.5 251.5,-181.5 251.5,-160.5 174.5,-160.5"/>
<text text-anchor="middle" x="213" y="-167.9" font-family="Helvetica,sans-Serif" font-size="12.00">JSONNode</text>
</a>
</g>
</g>
<!-- Node2&#45;&gt;Node1 -->
<g id="edge1" class="edge"><title>Node2&#45;&gt;Node1</title>
<path fill="none" stroke="#9a32cd" stroke-dasharray="5,2" d="M187.919,-155.431C160.388,-139.438 116.981,-114.224 93.463,-100.563"/>
<polygon fill="#9a32cd" stroke="#9a32cd" points="186.19,-158.474 196.595,-160.471 189.706,-152.421 186.19,-158.474"/>
<text text-anchor="middle" x="167" y="-129.9" font-family="Helvetica,sans-Serif" font-size="12.00"> it</text>
</g>
<!-- Node2&#45;&gt;Node2 -->
<g id="edge2" class="edge"><title>Node2&#45;&gt;Node2</title>
<path fill="none" stroke="#9a32cd" stroke-dasharray="5,2" d="M261.872,-176.635C266.251,-175.456 269,-173.578 269,-171 269,-166.77 261.597,-164.423 251.735,-163.96"/>
<polygon fill="#9a32cd" stroke="#9a32cd" points="261.16,-173.2 251.735,-178.04 262.121,-180.134 261.16,-173.2"/>
<text text-anchor="middle" x="296" y="-174.4" font-family="Helvetica,sans-Serif" font-size="12.00"> operator[]</text>
<text text-anchor="middle" x="296" y="-161.4" font-family="Helvetica,sans-Serif" font-size="12.00">operator=</text>
</g>
<!-- Node5 -->
<g id="node5" class="node"><title>Node5</title>
<g id="a_node5"><a xlink:href="../../db/d49/classjson_children.html" target="_top" xlink:title="jsonChildren">
<polygon fill="white" stroke="black" points="172.5,-79.5 172.5,-100.5 253.5,-100.5 253.5,-79.5 172.5,-79.5"/>
<text text-anchor="middle" x="213" y="-86.9" font-family="Helvetica,sans-Serif" font-size="12.00">jsonChildren</text>
</a>
</g>
</g>
<!-- Node2&#45;&gt;Node5 -->
<g id="edge6" class="edge"><title>Node2&#45;&gt;Node5</title>
<path fill="none" stroke="#9a32cd" stroke-dasharray="5,2" d="M213,-150.034C213,-134.287 213,-113.006 213,-100.766"/>
<polygon fill="#9a32cd" stroke="#9a32cd" points="209.5,-150.313 213,-160.313 216.5,-150.313 209.5,-150.313"/>
<text text-anchor="middle" x="228" y="-129.9" font-family="Helvetica,sans-Serif" font-size="12.00"> array</text>
</g>
<!-- Node3 -->
<g id="node3" class="node"><title>Node3</title>
<g id="a_node3"><a xlink:href="../../d1/d0b/classinternal_j_s_o_n_node.html" target="_top" xlink:title="internalJSONNode">
<polygon fill="white" stroke="black" points="234,-0.5 234,-21.5 348,-21.5 348,-0.5 234,-0.5"/>
<text text-anchor="middle" x="291" y="-7.9" font-family="Helvetica,sans-Serif" font-size="12.00">internalJSONNode</text>
</a>
</g>
</g>
<!-- Node3&#45;&gt;Node2 -->
<g id="edge3" class="edge"><title>Node3&#45;&gt;Node2</title>
<path fill="none" stroke="#9a32cd" stroke-dasharray="5,2" d="M288.121,-31.6495C283.395,-58.4046 271.906,-106.763 247,-140 241.241,-147.686 233.249,-154.859 226.461,-160.263"/>
<polygon fill="#9a32cd" stroke="#9a32cd" points="291.603,-32.0447 289.752,-21.6128 284.693,-30.9219 291.603,-32.0447"/>
<text text-anchor="middle" x="298.5" y="-86.9" font-family="Helvetica,sans-Serif" font-size="12.00"> internal</text>
</g>
<!-- Node4 -->
<g id="node4" class="node"><title>Node4</title>
<g id="a_node4"><a xlink:href="../../d9/df1/unioninternal_j_s_o_n_node_1_1value__union__t.html" target="_top" xlink:title="internalJSONNode::value\l_union_t">
<polygon fill="white" stroke="black" points="350.5,-73 350.5,-107 497.5,-107 497.5,-73 350.5,-73"/>
<text text-anchor="start" x="358.5" y="-93.4" font-family="Helvetica,sans-Serif" font-size="12.00">internalJSONNode::value</text>
<text text-anchor="middle" x="424" y="-80.4" font-family="Helvetica,sans-Serif" font-size="12.00">_union_t</text>
</a>
</g>
</g>
<!-- Node4&#45;&gt;Node3 -->
<g id="edge4" class="edge"><title>Node4&#45;&gt;Node3</title>
<path fill="none" stroke="#9a32cd" stroke-dasharray="5,2" d="M387.243,-67.7196C361.141,-52.6081 327.34,-33.0388 307.525,-21.5673"/>
<polygon fill="#9a32cd" stroke="#9a32cd" points="385.711,-70.8769 396.119,-72.8583 389.218,-64.8189 385.711,-70.8769"/>
<text text-anchor="middle" x="379.5" y="-43.9" font-family="Helvetica,sans-Serif" font-size="12.00"> _value</text>
</g>
<!-- Node5&#45;&gt;Node3 -->
<g id="edge5" class="edge"><title>Node5&#45;&gt;Node3</title>
<path fill="none" stroke="#9a32cd" stroke-dasharray="5,2" d="M208.046,-69.4219C206.756,-59.7524 207.096,-48.3916 213,-40 218.878,-31.6451 227.495,-25.7708 236.88,-21.6438"/>
<polygon fill="#9a32cd" stroke="#9a32cd" points="204.637,-70.2273 209.987,-79.3722 211.508,-68.887 204.637,-70.2273"/>
<text text-anchor="middle" x="245" y="-43.9" font-family="Helvetica,sans-Serif" font-size="12.00"> CHILDREN</text>
</g>
</g>
</svg>
