<?xml version="1.0" encoding="UTF-8" standalone="no"?>
<!DOCTYPE svg PUBLIC "-//W3C//DTD SVG 1.1//EN"
 "http://www.w3.org/Graphics/SVG/1.1/DTD/svg11.dtd">
<!-- Generated by graphviz version 2.34.0 (20130907.0111)
 -->
<!-- Title: StdoutRedirect.cpp Pages: 1 -->
<svg width="437pt" height="146pt"
 viewBox="0.00 0.00 437.00 146.00" xmlns="http://www.w3.org/2000/svg" xmlns:xlink="http://www.w3.org/1999/xlink">
<g id="graph0" class="graph" transform="scale(1 1) rotate(0) translate(4 142)">
<title>StdoutRedirect.cpp</title>
<polygon fill="white" stroke="white" points="-4,4 -4,-142 433,-142 433,4 -4,4"/>
<!-- Node1 -->
<g id="node1" class="node"><title>Node1</title>
<polygon fill="#bfbfbf" stroke="black" points="120.5,-116.5 120.5,-137.5 237.5,-137.5 237.5,-116.5 120.5,-116.5"/>
<text text-anchor="middle" x="179" y="-123.9" font-family="Helvetica,sans-Serif" font-size="12.00">StdoutRedirect.cpp</text>
</g>
<!-- Node2 -->
<g id="node2" class="node"><title>Node2</title>
<polygon fill="white" stroke="#bfbfbf" points="-0.5,-58.5 -0.5,-79.5 70.5,-79.5 70.5,-58.5 -0.5,-58.5"/>
<text text-anchor="middle" x="35" y="-65.9" font-family="Helvetica,sans-Serif" font-size="12.00">windows.h</text>
</g>
<!-- Node1&#45;&gt;Node2 -->
<g id="edge1" class="edge"><title>Node1&#45;&gt;Node2</title>
<path fill="none" stroke="midnightblue" d="M154.246,-116.373C130.715,-107.223 95.1313,-93.3844 68.9574,-83.2057"/>
<polygon fill="midnightblue" stroke="midnightblue" points="70.0201,-79.8636 59.4315,-79.5011 67.4829,-86.3877 70.0201,-79.8636"/>
</g>
<!-- Node3 -->
<g id="node3" class="node"><title>Node3</title>
<polygon fill="white" stroke="#bfbfbf" points="212.5,-0.5 212.5,-21.5 263.5,-21.5 263.5,-0.5 212.5,-0.5"/>
<text text-anchor="middle" x="238" y="-7.9" font-family="Helvetica,sans-Serif" font-size="12.00">stdio.h</text>
</g>
<!-- Node1&#45;&gt;Node3 -->
<g id="edge2" class="edge"><title>Node1&#45;&gt;Node3</title>
<path fill="none" stroke="midnightblue" d="M159.019,-116.321C135.777,-103.714 102.454,-80.608 118,-58 136.776,-30.6942 174.158,-19.5889 202.236,-15.0771"/>
<polygon fill="midnightblue" stroke="midnightblue" points="203.062,-18.4961 212.484,-13.6508 202.097,-11.5629 203.062,-18.4961"/>
</g>
<!-- Node4 -->
<g id="node4" class="node"><title>Node4</title>
<polygon fill="white" stroke="#bfbfbf" points="127,-58.5 127,-79.5 173,-79.5 173,-58.5 127,-58.5"/>
<text text-anchor="middle" x="150" y="-65.9" font-family="Helvetica,sans-Serif" font-size="12.00">fcntl.h</text>
</g>
<!-- Node1&#45;&gt;Node4 -->
<g id="edge3" class="edge"><title>Node1&#45;&gt;Node4</title>
<path fill="none" stroke="midnightblue" d="M173.949,-116.246C169.998,-108.617 164.39,-97.7881 159.594,-88.5267"/>
<polygon fill="midnightblue" stroke="midnightblue" points="162.7,-86.9131 154.994,-79.6427 156.484,-90.1321 162.7,-86.9131"/>
</g>
<!-- Node5 -->
<g id="node5" class="node"><title>Node5</title>
<polygon fill="white" stroke="#bfbfbf" points="191.5,-58.5 191.5,-79.5 226.5,-79.5 226.5,-58.5 191.5,-58.5"/>
<text text-anchor="middle" x="209" y="-65.9" font-family="Helvetica,sans-Serif" font-size="12.00">io.h</text>
</g>
<!-- Node1&#45;&gt;Node5 -->
<g id="edge4" class="edge"><title>Node1&#45;&gt;Node5</title>
<path fill="none" stroke="midnightblue" d="M184.226,-116.246C188.312,-108.617 194.113,-97.7881 199.075,-88.5267"/>
<polygon fill="midnightblue" stroke="midnightblue" points="202.197,-90.1103 203.834,-79.6427 196.027,-86.8047 202.197,-90.1103"/>
</g>
<!-- Node6 -->
<g id="node6" class="node"><title>Node6</title>
<polygon fill="white" stroke="#bfbfbf" points="245,-58.5 245,-79.5 307,-79.5 307,-58.5 245,-58.5"/>
<text text-anchor="middle" x="276" y="-65.9" font-family="Helvetica,sans-Serif" font-size="12.00">iostream</text>
</g>
<!-- Node1&#45;&gt;Node6 -->
<g id="edge5" class="edge"><title>Node1&#45;&gt;Node6</title>
<path fill="none" stroke="midnightblue" d="M195.896,-116.246C210.918,-107.573 233.104,-94.7645 250.321,-84.825"/>
<polygon fill="midnightblue" stroke="midnightblue" points="252.387,-87.6737 259.298,-79.6427 248.887,-81.6114 252.387,-87.6737"/>
</g>
<!-- Node7 -->
<g id="node7" class="node"><title>Node7</title>
<g id="a_node7"><a xlink:href="../../dc/dff/_stdout_redirect_8h.html" target="_top" xlink:title="StdoutRedirect.h">
<polygon fill="white" stroke="black" points="325,-58.5 325,-79.5 429,-79.5 429,-58.5 325,-58.5"/>
<text text-anchor="middle" x="377" y="-65.9" font-family="Helvetica,sans-Serif" font-size="12.00">StdoutRedirect.h</text>
</a>
</g>
</g>
<!-- Node1&#45;&gt;Node7 -->
<g id="edge6" class="edge"><title>Node1&#45;&gt;Node7</title>
<path fill="none" stroke="midnightblue" d="M213.037,-116.373C246.389,-106.94 297.353,-92.5265 333.6,-82.2747"/>
<polygon fill="midnightblue" stroke="midnightblue" points="334.737,-85.5906 343.407,-79.5011 332.832,-78.8548 334.737,-85.5906"/>
</g>
<!-- Node7&#45;&gt;Node3 -->
<g id="edge7" class="edge"><title>Node7&#45;&gt;Node3</title>
<path fill="none" stroke="midnightblue" d="M353.105,-58.3733C330.492,-49.2629 296.346,-35.5062 271.113,-25.3404"/>
<polygon fill="midnightblue" stroke="midnightblue" points="272.167,-21.9917 261.583,-21.5011 269.551,-28.4845 272.167,-21.9917"/>
</g>
</g>
</svg>
