<?xml version="1.0" encoding="UTF-8" standalone="no"?>
<!DOCTYPE svg PUBLIC "-//W3C//DTD SVG 1.1//EN"
 "http://www.w3.org/Graphics/SVG/1.1/DTD/svg11.dtd">
<!-- Generated by graphviz version 2.34.0 (20130907.0111)
 -->
<!-- Title: setup_settings.h Pages: 1 -->
<svg width="1062pt" height="146pt"
 viewBox="0.00 0.00 1062.00 146.00" xmlns="http://www.w3.org/2000/svg" xmlns:xlink="http://www.w3.org/1999/xlink">
<g id="graph0" class="graph" transform="scale(1 1) rotate(0) translate(4 142)">
<title>setup_settings.h</title>
<polygon fill="white" stroke="white" points="-4,4 -4,-142 1058,-142 1058,4 -4,4"/>
<!-- Node1 -->
<g id="node1" class="node"><title>Node1</title>
<polygon fill="#bfbfbf" stroke="black" points="620.5,-116.5 620.5,-137.5 721.5,-137.5 721.5,-116.5 620.5,-116.5"/>
<text text-anchor="middle" x="671" y="-123.9" font-family="Helvetica,sans-Serif" font-size="12.00">setup_settings.h</text>
</g>
<!-- Node2 -->
<g id="node2" class="node"><title>Node2</title>
<g id="a_node2"><a xlink:href="../../da/de6/_operator_console_8h.html" target="_top" xlink:title="OperatorConsole.h">
<polygon fill="white" stroke="black" points="492,-58.5 492,-79.5 608,-79.5 608,-58.5 492,-58.5"/>
<text text-anchor="middle" x="550" y="-65.9" font-family="Helvetica,sans-Serif" font-size="12.00">OperatorConsole.h</text>
</a>
</g>
</g>
<!-- Node1&#45;&gt;Node2 -->
<g id="edge1" class="edge"><title>Node1&#45;&gt;Node2</title>
<path fill="none" stroke="midnightblue" d="M640.99,-112.111C619.047,-101.956 589.861,-88.4482 570.529,-79.5011"/>
<polygon fill="midnightblue" stroke="midnightblue" points="639.654,-115.349 650.199,-116.373 642.594,-108.997 639.654,-115.349"/>
</g>
<!-- Node12 -->
<g id="node12" class="node"><title>Node12</title>
<g id="a_node12"><a xlink:href="../../de/d93/_setup_8h.html" target="_top" xlink:title="Setup.h">
<polygon fill="white" stroke="black" points="786,-58.5 786,-79.5 842,-79.5 842,-58.5 786,-58.5"/>
<text text-anchor="middle" x="814" y="-65.9" font-family="Helvetica,sans-Serif" font-size="12.00">Setup.h</text>
</a>
</g>
</g>
<!-- Node1&#45;&gt;Node12 -->
<g id="edge11" class="edge"><title>Node1&#45;&gt;Node12</title>
<path fill="none" stroke="midnightblue" d="M705.08,-112.654C731.157,-102.442 766.481,-88.6086 789.738,-79.5011"/>
<polygon fill="midnightblue" stroke="midnightblue" points="703.618,-109.468 695.583,-116.373 706.17,-115.986 703.618,-109.468"/>
</g>
<!-- Node3 -->
<g id="node3" class="node"><title>Node3</title>
<g id="a_node3"><a xlink:href="../../d3/d22/_app_thread_8cpp.html" target="_top" xlink:title="AppThread.cpp">
<polygon fill="white" stroke="black" points="331,-0.5 331,-21.5 429,-21.5 429,-0.5 331,-0.5"/>
<text text-anchor="middle" x="380" y="-7.9" font-family="Helvetica,sans-Serif" font-size="12.00">AppThread.cpp</text>
</a>
</g>
</g>
<!-- Node2&#45;&gt;Node3 -->
<g id="edge2" class="edge"><title>Node2&#45;&gt;Node3</title>
<path fill="none" stroke="midnightblue" d="M511.114,-55.1905C479.969,-44.9309 436.978,-30.7691 408.843,-21.5011"/>
<polygon fill="midnightblue" stroke="midnightblue" points="510.183,-58.5687 520.776,-58.3733 512.373,-51.9202 510.183,-58.5687"/>
</g>
<!-- Node4 -->
<g id="node4" class="node"><title>Node4</title>
<g id="a_node4"><a xlink:href="../../d6/df7/_critical_buf_8cpp.html" target="_top" xlink:title="CriticalBuf.cpp">
<polygon fill="white" stroke="black" points="447.5,-0.5 447.5,-21.5 540.5,-21.5 540.5,-0.5 447.5,-0.5"/>
<text text-anchor="middle" x="494" y="-7.9" font-family="Helvetica,sans-Serif" font-size="12.00">CriticalBuf.cpp</text>
</a>
</g>
</g>
<!-- Node2&#45;&gt;Node4 -->
<g id="edge3" class="edge"><title>Node2&#45;&gt;Node4</title>
<path fill="none" stroke="midnightblue" d="M533.075,-51.0751C523.44,-41.4402 511.72,-29.7196 503.643,-21.6427"/>
<polygon fill="midnightblue" stroke="midnightblue" points="530.7,-53.6493 540.246,-58.2455 535.649,-48.6996 530.7,-53.6493"/>
</g>
<!-- Node5 -->
<g id="node5" class="node"><title>Node5</title>
<g id="a_node5"><a xlink:href="../../d8/d53/_image_test_8cpp.html" target="_top" xlink:title="ImageTest.cpp">
<polygon fill="white" stroke="black" points="559,-0.5 559,-21.5 653,-21.5 653,-0.5 559,-0.5"/>
<text text-anchor="middle" x="606" y="-7.9" font-family="Helvetica,sans-Serif" font-size="12.00">ImageTest.cpp</text>
</a>
</g>
</g>
<!-- Node2&#45;&gt;Node5 -->
<g id="edge4" class="edge"><title>Node2&#45;&gt;Node5</title>
<path fill="none" stroke="midnightblue" d="M566.925,-51.0751C576.56,-41.4402 588.28,-29.7196 596.357,-21.6427"/>
<polygon fill="midnightblue" stroke="midnightblue" points="564.351,-48.6996 559.754,-58.2455 569.3,-53.6493 564.351,-48.6996"/>
</g>
<!-- Node6 -->
<g id="node6" class="node"><title>Node6</title>
<g id="a_node6"><a xlink:href="../../df/d0a/main_8cpp.html" target="_top" xlink:title="main.cpp">
<polygon fill="white" stroke="black" points="-0.5,-0.5 -0.5,-21.5 64.5,-21.5 64.5,-0.5 -0.5,-0.5"/>
<text text-anchor="middle" x="32" y="-7.9" font-family="Helvetica,sans-Serif" font-size="12.00">main.cpp</text>
</a>
</g>
</g>
<!-- Node2&#45;&gt;Node6 -->
<g id="edge5" class="edge"><title>Node2&#45;&gt;Node6</title>
<path fill="none" stroke="midnightblue" d="M481.678,-64.3553C388.887,-58.7328 218.059,-45.994 74,-22 71.0425,-21.5074 67.9839,-20.9246 64.9279,-20.2918"/>
<polygon fill="midnightblue" stroke="midnightblue" points="481.588,-67.8561 491.779,-64.9578 482.005,-60.8685 481.588,-67.8561"/>
</g>
<!-- Node7 -->
<g id="node7" class="node"><title>Node7</title>
<g id="a_node7"><a xlink:href="../../de/da2/_operator_console_8cpp.html" target="_top" xlink:title="OperatorConsole.cpp">
<polygon fill="white" stroke="black" points="671.5,-0.5 671.5,-21.5 800.5,-21.5 800.5,-0.5 671.5,-0.5"/>
<text text-anchor="middle" x="736" y="-7.9" font-family="Helvetica,sans-Serif" font-size="12.00">OperatorConsole.cpp</text>
</a>
</g>
</g>
<!-- Node2&#45;&gt;Node7 -->
<g id="edge6" class="edge"><title>Node2&#45;&gt;Node7</title>
<path fill="none" stroke="midnightblue" d="M591.664,-55.4561C625.807,-45.1765 673.393,-30.8494 704.443,-21.5011"/>
<polygon fill="midnightblue" stroke="midnightblue" points="590.541,-52.1389 581.975,-58.3733 592.559,-58.8417 590.541,-52.1389"/>
</g>
<!-- Node8 -->
<g id="node8" class="node"><title>Node8</title>
<g id="a_node8"><a xlink:href="../../d8/d29/_operator_console_dlg_8cpp.html" target="_top" xlink:title="OperatorConsoleDlg.cpp">
<polygon fill="white" stroke="black" points="818.5,-0.5 818.5,-21.5 965.5,-21.5 965.5,-0.5 818.5,-0.5"/>
<text text-anchor="middle" x="892" y="-7.9" font-family="Helvetica,sans-Serif" font-size="12.00">OperatorConsoleDlg.cpp</text>
</a>
</g>
</g>
<!-- Node2&#45;&gt;Node8 -->
<g id="edge7" class="edge"><title>Node2&#45;&gt;Node8</title>
<path fill="none" stroke="midnightblue" d="M618.262,-56.8226C681.328,-46.496 774.021,-31.3181 833.7,-21.5462"/>
<polygon fill="midnightblue" stroke="midnightblue" points="617.319,-53.4304 608.016,-58.5004 618.45,-60.3384 617.319,-53.4304"/>
</g>
<!-- Node9 -->
<g id="node9" class="node"><title>Node9</title>
<g id="a_node9"><a xlink:href="../../d0/d57/_pass_fail_8cpp.html" target="_top" xlink:title="PassFail.cpp">
<polygon fill="white" stroke="black" points="83,-0.5 83,-21.5 169,-21.5 169,-0.5 83,-0.5"/>
<text text-anchor="middle" x="126" y="-7.9" font-family="Helvetica,sans-Serif" font-size="12.00">PassFail.cpp</text>
</a>
</g>
</g>
<!-- Node2&#45;&gt;Node9 -->
<g id="edge8" class="edge"><title>Node2&#45;&gt;Node9</title>
<path fill="none" stroke="midnightblue" d="M481.618,-60.9328C406.849,-52.8823 283.595,-38.6629 178,-22 175.094,-21.5415 172.102,-21.0413 169.091,-20.5171"/>
<polygon fill="midnightblue" stroke="midnightblue" points="481.524,-64.4427 491.84,-62.0275 482.269,-57.4825 481.524,-64.4427"/>
</g>
<!-- Node10 -->
<g id="node10" class="node"><title>Node10</title>
<g id="a_node10"><a xlink:href="../../da/d46/_password_dialog_8cpp.html" target="_top" xlink:title="PasswordDialog.cpp">
<polygon fill="white" stroke="black" points="187,-0.5 187,-21.5 313,-21.5 313,-0.5 187,-0.5"/>
<text text-anchor="middle" x="250" y="-7.9" font-family="Helvetica,sans-Serif" font-size="12.00">PasswordDialog.cpp</text>
</a>
</g>
</g>
<!-- Node2&#45;&gt;Node10 -->
<g id="edge9" class="edge"><title>Node2&#45;&gt;Node10</title>
<path fill="none" stroke="midnightblue" d="M488.743,-56.5654C433.414,-46.2373 352.932,-31.214 301.02,-21.5237"/>
<polygon fill="midnightblue" stroke="midnightblue" points="488.297,-60.0424 498.769,-58.4369 489.581,-53.1613 488.297,-60.0424"/>
</g>
<!-- Node11 -->
<g id="node11" class="node"><title>Node11</title>
<g id="a_node11"><a xlink:href="../../d5/d27/_setup_8cpp.html" target="_top" xlink:title="Setup.cpp">
<polygon fill="white" stroke="black" points="984,-0.5 984,-21.5 1054,-21.5 1054,-0.5 984,-0.5"/>
<text text-anchor="middle" x="1019" y="-7.9" font-family="Helvetica,sans-Serif" font-size="12.00">Setup.cpp</text>
</a>
</g>
</g>
<!-- Node2&#45;&gt;Node11 -->
<g id="edge10" class="edge"><title>Node2&#45;&gt;Node11</title>
<path fill="none" stroke="midnightblue" d="M618.414,-62.9209C702.491,-56.1408 849.34,-42.5486 974,-22 977.159,-21.4793 980.429,-20.8773 983.699,-20.2319"/>
<polygon fill="midnightblue" stroke="midnightblue" points="617.918,-59.4494 608.228,-63.7338 618.474,-66.4272 617.918,-59.4494"/>
</g>
<!-- Node12&#45;&gt;Node7 -->
<g id="edge12" class="edge"><title>Node12&#45;&gt;Node7</title>
<path fill="none" stroke="midnightblue" d="M792.006,-52.2097C778.307,-42.3743 761.126,-30.0394 749.431,-21.6427"/>
<polygon fill="midnightblue" stroke="midnightblue" points="790.249,-55.2566 800.413,-58.2455 794.331,-49.5703 790.249,-55.2566"/>
</g>
<!-- Node12&#45;&gt;Node8 -->
<g id="edge13" class="edge"><title>Node12&#45;&gt;Node8</title>
<path fill="none" stroke="midnightblue" d="M835.994,-52.2097C849.693,-42.3743 866.874,-30.0394 878.569,-21.6427"/>
<polygon fill="midnightblue" stroke="midnightblue" points="833.669,-49.5703 827.587,-58.2455 837.751,-55.2566 833.669,-49.5703"/>
</g>
<!-- Node12&#45;&gt;Node11 -->
<g id="edge14" class="edge"><title>Node12&#45;&gt;Node11</title>
<path fill="none" stroke="midnightblue" d="M852.189,-57.568C890.01,-47.2364 947.431,-31.5506 984.073,-21.541"/>
<polygon fill="midnightblue" stroke="midnightblue" points="850.799,-54.3193 842.075,-60.3309 852.643,-61.0719 850.799,-54.3193"/>
</g>
</g>
</svg>
