<?xml version="1.0" encoding="UTF-8" standalone="no"?>
<!DOCTYPE svg PUBLIC "-//W3C//DTD SVG 1.1//EN"
 "http://www.w3.org/Graphics/SVG/1.1/DTD/svg11.dtd">
<!-- Generated by graphviz version 2.34.0 (20130907.0111)
 -->
<!-- Title: JSON/JSONWorker.cpp Pages: 1 -->
<svg width="838pt" height="552pt"
 viewBox="0.00 0.00 838.00 552.00" xmlns="http://www.w3.org/2000/svg" xmlns:xlink="http://www.w3.org/1999/xlink">
<g id="graph0" class="graph" transform="scale(1 1) rotate(0) translate(4 548)">
<title>JSON/JSONWorker.cpp</title>
<polygon fill="white" stroke="white" points="-4,4 -4,-548 834,-548 834,4 -4,4"/>
<!-- Node1 -->
<g id="node1" class="node"><title>Node1</title>
<polygon fill="#bfbfbf" stroke="black" points="397.5,-522.5 397.5,-543.5 540.5,-543.5 540.5,-522.5 397.5,-522.5"/>
<text text-anchor="middle" x="469" y="-529.9" font-family="Helvetica,sans-Serif" font-size="12.00">JSON/JSONWorker.cpp</text>
</g>
<!-- Node2 -->
<g id="node2" class="node"><title>Node2</title>
<g id="a_node2"><a xlink:href="../../d8/d46/_j_s_o_n_worker_8h.html" target="_top" xlink:title="JSONWorker.h">
<polygon fill="white" stroke="black" points="421.5,-464.5 421.5,-485.5 516.5,-485.5 516.5,-464.5 421.5,-464.5"/>
<text text-anchor="middle" x="469" y="-471.9" font-family="Helvetica,sans-Serif" font-size="12.00">JSONWorker.h</text>
</a>
</g>
</g>
<!-- Node1&#45;&gt;Node2 -->
<g id="edge1" class="edge"><title>Node1&#45;&gt;Node2</title>
<path fill="none" stroke="midnightblue" d="M469,-522.246C469,-514.938 469,-504.694 469,-495.705"/>
<polygon fill="midnightblue" stroke="midnightblue" points="472.5,-495.643 469,-485.643 465.5,-495.643 472.5,-495.643"/>
</g>
<!-- Node3 -->
<g id="node3" class="node"><title>Node3</title>
<g id="a_node3"><a xlink:href="../../d8/dcb/_j_s_o_n_node_8h.html" target="_top" xlink:title="JSONNode.h">
<polygon fill="white" stroke="black" points="316,-406.5 316,-427.5 402,-427.5 402,-406.5 316,-406.5"/>
<text text-anchor="middle" x="359" y="-413.9" font-family="Helvetica,sans-Serif" font-size="12.00">JSONNode.h</text>
</a>
</g>
</g>
<!-- Node2&#45;&gt;Node3 -->
<g id="edge2" class="edge"><title>Node2&#45;&gt;Node3</title>
<path fill="none" stroke="midnightblue" d="M449.839,-464.246C432.489,-455.413 406.71,-442.289 387.042,-432.276"/>
<polygon fill="midnightblue" stroke="midnightblue" points="388.441,-429.06 377.941,-427.643 385.265,-435.299 388.441,-429.06"/>
</g>
<!-- Node19 -->
<g id="node19" class="node"><title>Node19</title>
<g id="a_node19"><a xlink:href="../../df/de5/_j_s_o_n_shared_string_8h.html" target="_top" xlink:title="JSONSharedString.h">
<polygon fill="white" stroke="black" points="356,-290.5 356,-311.5 482,-311.5 482,-290.5 356,-290.5"/>
<text text-anchor="middle" x="419" y="-297.9" font-family="Helvetica,sans-Serif" font-size="12.00">JSONSharedString.h</text>
</a>
</g>
</g>
<!-- Node2&#45;&gt;Node19 -->
<g id="edge33" class="edge"><title>Node2&#45;&gt;Node19</title>
<path fill="none" stroke="midnightblue" d="M466.169,-464.26C458.193,-436.824 435.427,-358.509 424.71,-321.642"/>
<polygon fill="midnightblue" stroke="midnightblue" points="427.953,-320.259 421.8,-311.633 421.231,-322.213 427.953,-320.259"/>
</g>
<!-- Node4 -->
<g id="node4" class="node"><title>Node4</title>
<g id="a_node4"><a xlink:href="../../d6/d82/_j_s_o_n_debug_8h.html" target="_top" xlink:title="JSONDebug.h">
<polygon fill="white" stroke="black" points="270,-174.5 270,-195.5 362,-195.5 362,-174.5 270,-174.5"/>
<text text-anchor="middle" x="316" y="-181.9" font-family="Helvetica,sans-Serif" font-size="12.00">JSONDebug.h</text>
</a>
</g>
</g>
<!-- Node3&#45;&gt;Node4 -->
<g id="edge3" class="edge"><title>Node3&#45;&gt;Node4</title>
<path fill="none" stroke="midnightblue" d="M356.172,-406.19C353.563,-396.917 349.697,-382.59 347,-370 334.257,-310.521 323.53,-239.303 318.717,-205.567"/>
<polygon fill="midnightblue" stroke="midnightblue" points="322.178,-205.048 317.317,-195.634 315.247,-206.025 322.178,-205.048"/>
</g>
<!-- Node12 -->
<g id="node12" class="node"><title>Node12</title>
<g id="a_node12"><a xlink:href="../../dd/db0/internal_j_s_o_n_node_8h.html" target="_top" xlink:title="internalJSONNode.h">
<polygon fill="white" stroke="black" points="176.5,-348.5 176.5,-369.5 299.5,-369.5 299.5,-348.5 176.5,-348.5"/>
<text text-anchor="middle" x="238" y="-355.9" font-family="Helvetica,sans-Serif" font-size="12.00">internalJSONNode.h</text>
</a>
</g>
</g>
<!-- Node3&#45;&gt;Node12 -->
<g id="edge12" class="edge"><title>Node3&#45;&gt;Node12</title>
<path fill="none" stroke="midnightblue" d="M338.199,-406.373C318.776,-397.384 289.578,-383.871 267.704,-373.747"/>
<polygon fill="midnightblue" stroke="midnightblue" points="269.074,-370.525 258.529,-369.501 266.134,-376.878 269.074,-370.525"/>
</g>
<!-- Node20 -->
<g id="node20" class="node"><title>Node20</title>
<polygon fill="white" stroke="#bfbfbf" points="356.5,-348.5 356.5,-369.5 423.5,-369.5 423.5,-348.5 356.5,-348.5"/>
<text text-anchor="middle" x="390" y="-355.9" font-family="Helvetica,sans-Serif" font-size="12.00">stdexcept</text>
</g>
<!-- Node3&#45;&gt;Node20 -->
<g id="edge28" class="edge"><title>Node3&#45;&gt;Node20</title>
<path fill="none" stroke="midnightblue" d="M364.4,-406.246C368.623,-398.617 374.617,-387.788 379.744,-378.527"/>
<polygon fill="midnightblue" stroke="midnightblue" points="382.881,-380.087 384.662,-369.643 376.757,-376.696 382.881,-380.087"/>
</g>
<!-- Node21 -->
<g id="node21" class="node"><title>Node21</title>
<polygon fill="white" stroke="#bfbfbf" points="102,-348.5 102,-369.5 158,-369.5 158,-348.5 102,-348.5"/>
<text text-anchor="middle" x="130" y="-355.9" font-family="Helvetica,sans-Serif" font-size="12.00">cstdarg</text>
</g>
<!-- Node3&#45;&gt;Node21 -->
<g id="edge29" class="edge"><title>Node3&#45;&gt;Node21</title>
<path fill="none" stroke="midnightblue" d="M317.717,-406.472C280.907,-397.895 225.311,-384.743 168.186,-370.255"/>
<polygon fill="midnightblue" stroke="midnightblue" points="168.814,-366.803 158.26,-367.728 167.087,-373.587 168.814,-366.803"/>
</g>
<!-- Node22 -->
<g id="node22" class="node"><title>Node22</title>
<g id="a_node22"><a xlink:href="../../d5/d4b/_j_s_o_n___base64_8h.html" target="_top" xlink:title="JSON_Base64.h">
<polygon fill="white" stroke="black" points="497.5,-232.5 497.5,-253.5 602.5,-253.5 602.5,-232.5 497.5,-232.5"/>
<text text-anchor="middle" x="550" y="-239.9" font-family="Helvetica,sans-Serif" font-size="12.00">JSON_Base64.h</text>
</a>
</g>
</g>
<!-- Node3&#45;&gt;Node22 -->
<g id="edge30" class="edge"><title>Node3&#45;&gt;Node22</title>
<path fill="none" stroke="midnightblue" d="M376.515,-406.39C391.759,-397.699 414.147,-384.132 432,-370 474.252,-336.556 515.361,-287.936 536.09,-261.955"/>
<polygon fill="midnightblue" stroke="midnightblue" points="539.099,-263.792 542.541,-253.771 533.602,-259.458 539.099,-263.792"/>
</g>
<!-- Node5 -->
<g id="node5" class="node"><title>Node5</title>
<g id="a_node5"><a xlink:href="../../dd/d47/_j_s_o_n_defs_8h.html" target="_top" xlink:title="JSONDefs.h">
<polygon fill="white" stroke="black" points="390,-116.5 390,-137.5 472,-137.5 472,-116.5 390,-116.5"/>
<text text-anchor="middle" x="431" y="-123.9" font-family="Helvetica,sans-Serif" font-size="12.00">JSONDefs.h</text>
</a>
</g>
</g>
<!-- Node4&#45;&gt;Node5 -->
<g id="edge4" class="edge"><title>Node4&#45;&gt;Node5</title>
<path fill="none" stroke="midnightblue" d="M335.769,-174.373C354.147,-165.424 381.731,-151.992 402.489,-141.883"/>
<polygon fill="midnightblue" stroke="midnightblue" points="404.03,-145.026 411.489,-137.501 400.966,-138.733 404.03,-145.026"/>
</g>
<!-- Node6 -->
<g id="node6" class="node"><title>Node6</title>
<g id="a_node6"><a xlink:href="../../dc/d13/_j_s_o_n_options_8h.html" target="_top" xlink:title="..\\JSONOptions.h">
<polygon fill="white" stroke="black" points="284.5,-0.5 284.5,-21.5 391.5,-21.5 391.5,-0.5 284.5,-0.5"/>
<text text-anchor="middle" x="338" y="-7.9" font-family="Helvetica,sans-Serif" font-size="12.00">..\JSONOptions.h</text>
</a>
</g>
</g>
<!-- Node5&#45;&gt;Node6 -->
<g id="edge5" class="edge"><title>Node5&#45;&gt;Node6</title>
<path fill="none" stroke="midnightblue" d="M406.664,-116.498C390.349,-108.937 369.617,-96.8208 357,-80 346.45,-65.9347 341.758,-46.2832 339.671,-31.7211"/>
<polygon fill="midnightblue" stroke="midnightblue" points="343.144,-31.2908 338.529,-21.7542 336.19,-32.0876 343.144,-31.2908"/>
</g>
<!-- Node7 -->
<g id="node7" class="node"><title>Node7</title>
<g id="a_node7"><a xlink:href="../../d1/d44/_unknown___c_8h.html" target="_top" xlink:title="JSONDefs\\Unknown_C.h">
<polygon fill="white" stroke="black" points="538,-58.5 538,-79.5 686,-79.5 686,-58.5 538,-58.5"/>
<text text-anchor="middle" x="612" y="-65.9" font-family="Helvetica,sans-Serif" font-size="12.00">JSONDefs\Unknown_C.h</text>
</a>
</g>
</g>
<!-- Node5&#45;&gt;Node7 -->
<g id="edge6" class="edge"><title>Node5&#45;&gt;Node7</title>
<path fill="none" stroke="midnightblue" d="M462.115,-116.373C492.343,-107.021 538.396,-92.7725 571.474,-82.5385"/>
<polygon fill="midnightblue" stroke="midnightblue" points="572.772,-85.8005 581.291,-79.5011 570.703,-79.1133 572.772,-85.8005"/>
</g>
<!-- Node8 -->
<g id="node8" class="node"><title>Node8</title>
<g id="a_node8"><a xlink:href="../../d7/d3c/_g_n_u___c_8h.html" target="_top" xlink:title="JSONDefs\\GNU_C.h">
<polygon fill="white" stroke="black" points="704,-58.5 704,-79.5 830,-79.5 830,-58.5 704,-58.5"/>
<text text-anchor="middle" x="767" y="-65.9" font-family="Helvetica,sans-Serif" font-size="12.00">JSONDefs\GNU_C.h</text>
</a>
</g>
</g>
<!-- Node5&#45;&gt;Node8 -->
<g id="edge7" class="edge"><title>Node5&#45;&gt;Node8</title>
<path fill="none" stroke="midnightblue" d="M472.2,-119.133C528.872,-109.688 631.567,-92.5722 699.535,-81.2442"/>
<polygon fill="midnightblue" stroke="midnightblue" points="700.428,-84.6437 709.717,-79.5472 699.277,-77.7389 700.428,-84.6437"/>
</g>
<!-- Node9 -->
<g id="node9" class="node"><title>Node9</title>
<g id="a_node9"><a xlink:href="../../d0/d22/_visual___c_8h.html" target="_top" xlink:title="JSONDefs\\Visual_C.h">
<polygon fill="white" stroke="black" points="176.5,-58.5 176.5,-79.5 309.5,-79.5 309.5,-58.5 176.5,-58.5"/>
<text text-anchor="middle" x="243" y="-65.9" font-family="Helvetica,sans-Serif" font-size="12.00">JSONDefs\Visual_C.h</text>
</a>
</g>
</g>
<!-- Node5&#45;&gt;Node9 -->
<g id="edge8" class="edge"><title>Node5&#45;&gt;Node9</title>
<path fill="none" stroke="midnightblue" d="M398.682,-116.373C367.149,-106.981 319.038,-92.6496 284.65,-82.4064"/>
<polygon fill="midnightblue" stroke="midnightblue" points="285.48,-79.0016 274.897,-79.5011 283.481,-85.7103 285.48,-79.0016"/>
</g>
<!-- Node10 -->
<g id="node10" class="node"><title>Node10</title>
<g id="a_node10"><a xlink:href="../../d8/d1d/_strings___defs_8h.html" target="_top" xlink:title="JSONDefs\\Strings_Defs.h">
<polygon fill="white" stroke="black" points="366.5,-58.5 366.5,-79.5 519.5,-79.5 519.5,-58.5 366.5,-58.5"/>
<text text-anchor="middle" x="443" y="-65.9" font-family="Helvetica,sans-Serif" font-size="12.00">JSONDefs\Strings_Defs.h</text>
</a>
</g>
</g>
<!-- Node5&#45;&gt;Node10 -->
<g id="edge9" class="edge"><title>Node5&#45;&gt;Node10</title>
<path fill="none" stroke="midnightblue" d="M433.09,-116.246C434.656,-108.938 436.851,-98.6944 438.778,-89.7046"/>
<polygon fill="midnightblue" stroke="midnightblue" points="442.261,-90.1541 440.934,-79.6427 435.416,-88.6873 442.261,-90.1541"/>
</g>
<!-- Node10&#45;&gt;Node6 -->
<g id="edge10" class="edge"><title>Node10&#45;&gt;Node6</title>
<path fill="none" stroke="midnightblue" d="M424.71,-58.2455C408.224,-49.4527 383.765,-36.4079 365.023,-26.4125"/>
<polygon fill="midnightblue" stroke="midnightblue" points="366.551,-23.2604 356.08,-21.6427 363.256,-29.4368 366.551,-23.2604"/>
</g>
<!-- Node11 -->
<g id="node11" class="node"><title>Node11</title>
<polygon fill="white" stroke="#bfbfbf" points="416,-0.5 416,-21.5 470,-21.5 470,-0.5 416,-0.5"/>
<text text-anchor="middle" x="443" y="-7.9" font-family="Helvetica,sans-Serif" font-size="12.00">string.h</text>
</g>
<!-- Node10&#45;&gt;Node11 -->
<g id="edge11" class="edge"><title>Node10&#45;&gt;Node11</title>
<path fill="none" stroke="midnightblue" d="M443,-58.2455C443,-50.9382 443,-40.6944 443,-31.7046"/>
<polygon fill="midnightblue" stroke="midnightblue" points="446.5,-31.6426 443,-21.6427 439.5,-31.6427 446.5,-31.6426"/>
</g>
<!-- Node12&#45;&gt;Node4 -->
<g id="edge13" class="edge"><title>Node12&#45;&gt;Node4</title>
<path fill="none" stroke="midnightblue" d="M242.417,-348.26C254.913,-320.706 290.681,-241.833 307.308,-205.168"/>
<polygon fill="midnightblue" stroke="midnightblue" points="310.689,-206.186 311.631,-195.633 304.314,-203.295 310.689,-206.186"/>
</g>
<!-- Node13 -->
<g id="node13" class="node"><title>Node13</title>
<g id="a_node13"><a xlink:href="../../d5/d5d/_j_s_o_n_children_8h.html" target="_top" xlink:title="JSONChildren.h">
<polygon fill="white" stroke="black" points="122.5,-290.5 122.5,-311.5 223.5,-311.5 223.5,-290.5 122.5,-290.5"/>
<text text-anchor="middle" x="173" y="-297.9" font-family="Helvetica,sans-Serif" font-size="12.00">JSONChildren.h</text>
</a>
</g>
</g>
<!-- Node12&#45;&gt;Node13 -->
<g id="edge14" class="edge"><title>Node12&#45;&gt;Node13</title>
<path fill="none" stroke="midnightblue" d="M226.678,-348.246C217.078,-339.975 203.111,-327.942 191.831,-318.223"/>
<polygon fill="midnightblue" stroke="midnightblue" points="194.053,-315.518 184.192,-311.643 189.484,-320.821 194.053,-315.518"/>
</g>
<!-- Node14 -->
<g id="node14" class="node"><title>Node14</title>
<g id="a_node14"><a xlink:href="../../de/dda/_j_s_o_n_memory_8h.html" target="_top" xlink:title="JSONMemory.h">
<polygon fill="white" stroke="black" points="55.5,-232.5 55.5,-253.5 154.5,-253.5 154.5,-232.5 55.5,-232.5"/>
<text text-anchor="middle" x="105" y="-239.9" font-family="Helvetica,sans-Serif" font-size="12.00">JSONMemory.h</text>
</a>
</g>
</g>
<!-- Node12&#45;&gt;Node14 -->
<g id="edge21" class="edge"><title>Node12&#45;&gt;Node14</title>
<path fill="none" stroke="midnightblue" d="M176.475,-349.318C153.126,-342.863 128.462,-331.612 113,-312 102.326,-298.462 101.179,-278.438 102.19,-263.623"/>
<polygon fill="midnightblue" stroke="midnightblue" points="105.689,-263.815 103.261,-253.502 98.7277,-263.078 105.689,-263.815"/>
</g>
<!-- Node17 -->
<g id="node17" class="node"><title>Node17</title>
<g id="a_node17"><a xlink:href="../../d8/dc8/_j_s_o_n_globals_8h.html" target="_top" xlink:title="JSONGlobals.h">
<polygon fill="white" stroke="black" points="382.5,-232.5 382.5,-253.5 479.5,-253.5 479.5,-232.5 382.5,-232.5"/>
<text text-anchor="middle" x="431" y="-239.9" font-family="Helvetica,sans-Serif" font-size="12.00">JSONGlobals.h</text>
</a>
</g>
</g>
<!-- Node12&#45;&gt;Node17 -->
<g id="edge22" class="edge"><title>Node12&#45;&gt;Node17</title>
<path fill="none" stroke="midnightblue" d="M252.647,-348.492C273.422,-335.093 312.733,-310.05 347,-290 365.714,-279.05 387.16,-267.32 403.697,-258.445"/>
<polygon fill="midnightblue" stroke="midnightblue" points="405.638,-261.376 412.81,-253.577 402.34,-255.202 405.638,-261.376"/>
</g>
<!-- Node12&#45;&gt;Node19 -->
<g id="edge25" class="edge"><title>Node12&#45;&gt;Node19</title>
<path fill="none" stroke="midnightblue" d="M269.115,-348.373C299.343,-339.021 345.396,-324.773 378.474,-314.538"/>
<polygon fill="midnightblue" stroke="midnightblue" points="379.772,-317.801 388.291,-311.501 377.703,-311.113 379.772,-317.801"/>
</g>
<!-- Node13&#45;&gt;Node4 -->
<g id="edge20" class="edge"><title>Node13&#45;&gt;Node4</title>
<path fill="none" stroke="midnightblue" d="M180.694,-290.408C192.188,-276.462 214.966,-250.264 238,-232 253.302,-219.867 272.119,-208.678 287.437,-200.373"/>
<polygon fill="midnightblue" stroke="midnightblue" points="289.262,-203.368 296.46,-195.593 285.985,-197.182 289.262,-203.368"/>
</g>
<!-- Node13&#45;&gt;Node14 -->
<g id="edge15" class="edge"><title>Node13&#45;&gt;Node14</title>
<path fill="none" stroke="midnightblue" d="M161.155,-290.246C151.112,-281.975 136.501,-269.942 124.7,-260.223"/>
<polygon fill="midnightblue" stroke="midnightblue" points="126.653,-257.298 116.709,-253.643 122.203,-262.702 126.653,-257.298"/>
</g>
<!-- Node14&#45;&gt;Node4 -->
<g id="edge19" class="edge"><title>Node14&#45;&gt;Node4</title>
<path fill="none" stroke="midnightblue" d="M141.272,-232.373C176.966,-222.9 231.588,-208.403 270.245,-198.143"/>
<polygon fill="midnightblue" stroke="midnightblue" points="271.434,-201.449 280.201,-195.501 269.638,-194.684 271.434,-201.449"/>
</g>
<!-- Node14&#45;&gt;Node6 -->
<g id="edge18" class="edge"><title>Node14&#45;&gt;Node6</title>
<path fill="none" stroke="midnightblue" d="M110.484,-232.372C115.529,-223.229 122.969,-208.989 128,-196 151.02,-136.567 121.648,-102.782 167,-58 195.073,-30.2794 237.972,-18.7916 273.779,-14.2278"/>
<polygon fill="midnightblue" stroke="midnightblue" points="274.604,-17.6575 284.154,-13.0697 273.827,-10.7007 274.604,-17.6575"/>
</g>
<!-- Node15 -->
<g id="node15" class="node"><title>Node15</title>
<polygon fill="white" stroke="#bfbfbf" points="0,-174.5 0,-195.5 50,-195.5 50,-174.5 0,-174.5"/>
<text text-anchor="middle" x="25" y="-181.9" font-family="Helvetica,sans-Serif" font-size="12.00">cstdlib</text>
</g>
<!-- Node14&#45;&gt;Node15 -->
<g id="edge16" class="edge"><title>Node14&#45;&gt;Node15</title>
<path fill="none" stroke="midnightblue" d="M91.0651,-232.246C78.9053,-223.734 61.0536,-211.237 46.9715,-201.38"/>
<polygon fill="midnightblue" stroke="midnightblue" points="48.9747,-198.51 38.7752,-195.643 44.9605,-204.245 48.9747,-198.51"/>
</g>
<!-- Node16 -->
<g id="node16" class="node"><title>Node16</title>
<polygon fill="white" stroke="#bfbfbf" points="68.5,-174.5 68.5,-195.5 119.5,-195.5 119.5,-174.5 68.5,-174.5"/>
<text text-anchor="middle" x="94" y="-181.9" font-family="Helvetica,sans-Serif" font-size="12.00">cstring</text>
</g>
<!-- Node14&#45;&gt;Node16 -->
<g id="edge17" class="edge"><title>Node14&#45;&gt;Node16</title>
<path fill="none" stroke="midnightblue" d="M103.084,-232.246C101.649,-224.938 99.6364,-214.694 97.8705,-205.705"/>
<polygon fill="midnightblue" stroke="midnightblue" points="101.256,-204.781 95.8941,-195.643 94.3873,-206.13 101.256,-204.781"/>
</g>
<!-- Node17&#45;&gt;Node5 -->
<g id="edge23" class="edge"><title>Node17&#45;&gt;Node5</title>
<path fill="none" stroke="midnightblue" d="M431,-232.28C431,-213.603 431,-172.369 431,-147.715"/>
<polygon fill="midnightblue" stroke="midnightblue" points="434.5,-147.695 431,-137.695 427.5,-147.695 434.5,-147.695"/>
</g>
<!-- Node18 -->
<g id="node18" class="node"><title>Node18</title>
<polygon fill="white" stroke="#bfbfbf" points="493.5,-174.5 493.5,-195.5 538.5,-195.5 538.5,-174.5 493.5,-174.5"/>
<text text-anchor="middle" x="516" y="-181.9" font-family="Helvetica,sans-Serif" font-size="12.00">string</text>
</g>
<!-- Node17&#45;&gt;Node18 -->
<g id="edge24" class="edge"><title>Node17&#45;&gt;Node18</title>
<path fill="none" stroke="midnightblue" d="M445.806,-232.246C458.726,-223.734 477.693,-211.237 492.655,-201.38"/>
<polygon fill="midnightblue" stroke="midnightblue" points="494.939,-204.067 501.364,-195.643 491.088,-198.222 494.939,-204.067"/>
</g>
<!-- Node19&#45;&gt;Node4 -->
<g id="edge26" class="edge"><title>Node19&#45;&gt;Node4</title>
<path fill="none" stroke="midnightblue" d="M408.874,-290.374C399.378,-281.232 384.9,-266.993 373,-254 357.836,-237.443 341.462,-217.697 330.172,-203.76"/>
<polygon fill="midnightblue" stroke="midnightblue" points="332.853,-201.509 323.856,-195.914 327.4,-205.898 332.853,-201.509"/>
</g>
<!-- Node19&#45;&gt;Node17 -->
<g id="edge27" class="edge"><title>Node19&#45;&gt;Node17</title>
<path fill="none" stroke="midnightblue" d="M421.09,-290.246C422.656,-282.938 424.851,-272.694 426.778,-263.705"/>
<polygon fill="midnightblue" stroke="midnightblue" points="430.261,-264.154 428.934,-253.643 423.416,-262.687 430.261,-264.154"/>
</g>
<!-- Node22&#45;&gt;Node4 -->
<g id="edge31" class="edge"><title>Node22&#45;&gt;Node4</title>
<path fill="none" stroke="midnightblue" d="M510.04,-232.437C470.161,-222.893 408.786,-208.205 365.767,-197.91"/>
<polygon fill="midnightblue" stroke="midnightblue" points="366.335,-194.447 355.795,-195.524 364.706,-201.255 366.335,-194.447"/>
</g>
<!-- Node22&#45;&gt;Node18 -->
<g id="edge32" class="edge"><title>Node22&#45;&gt;Node18</title>
<path fill="none" stroke="midnightblue" d="M544.078,-232.246C539.397,-224.537 532.733,-213.56 527.071,-204.235"/>
<polygon fill="midnightblue" stroke="midnightblue" points="530.036,-202.374 521.854,-195.643 524.053,-206.007 530.036,-202.374"/>
</g>
</g>
</svg>
