<?xml version="1.0" encoding="UTF-8" standalone="no"?>
<!DOCTYPE svg PUBLIC "-//W3C//DTD SVG 1.1//EN"
 "http://www.w3.org/Graphics/SVG/1.1/DTD/svg11.dtd">
<!-- Generated by graphviz version 2.34.0 (20130907.0111)
 -->
<!-- Title: CSetup::ShowNormalElements Pages: 1 -->
<svg width="430pt" height="70pt"
 viewBox="0.00 0.00 430.00 70.00" xmlns="http://www.w3.org/2000/svg" xmlns:xlink="http://www.w3.org/1999/xlink">
<g id="graph0" class="graph" transform="scale(1 1) rotate(0) translate(4 66)">
<title>CSetup::ShowNormalElements</title>
<polygon fill="white" stroke="white" points="-4,4 -4,-66 426,-66 426,4 -4,4"/>
<!-- Node1 -->
<g id="node1" class="node"><title>Node1</title>
<polygon fill="#bfbfbf" stroke="black" points="0,-20.5 0,-41.5 178,-41.5 178,-20.5 0,-20.5"/>
<text text-anchor="middle" x="89" y="-27.9" font-family="Helvetica,sans-Serif" font-size="12.00">CSetup::ShowNormalElements</text>
</g>
<!-- Node2 -->
<g id="node2" class="node"><title>Node2</title>
<g id="a_node2"><a xlink:href="../../da/d8d/class_c_setup.html#ad269a35311df2ffcc5ef53d4e15e1e2d" target="_top" xlink:title="CSetup::OnInitDialog">
<polygon fill="white" stroke="black" points="255,-40.5 255,-61.5 381,-61.5 381,-40.5 255,-40.5"/>
<text text-anchor="middle" x="318" y="-47.9" font-family="Helvetica,sans-Serif" font-size="12.00">CSetup::OnInitDialog</text>
</a>
</g>
</g>
<!-- Node1&#45;&gt;Node2 -->
<g id="edge1" class="edge"><title>Node1&#45;&gt;Node2</title>
<path fill="none" stroke="midnightblue" d="M188.096,-39.6428C210.789,-41.6422 234.318,-43.7153 254.965,-45.5344"/>
<polygon fill="midnightblue" stroke="midnightblue" points="188.358,-36.1524 178.089,-38.7611 187.743,-43.1254 188.358,-36.1524"/>
</g>
<!-- Node3 -->
<g id="node3" class="node"><title>Node3</title>
<g id="a_node3"><a xlink:href="../../da/d8d/class_c_setup.html#a78c6cb0507422c15b4a46f0bf40ac649" target="_top" xlink:title="CSetup::OnLbnSelchangeDeviceList">
<polygon fill="white" stroke="black" points="214,-0.5 214,-21.5 422,-21.5 422,-0.5 214,-0.5"/>
<text text-anchor="middle" x="318" y="-7.9" font-family="Helvetica,sans-Serif" font-size="12.00">CSetup::OnLbnSelchangeDeviceList</text>
</a>
</g>
</g>
<!-- Node1&#45;&gt;Node3 -->
<g id="edge2" class="edge"><title>Node1&#45;&gt;Node3</title>
<path fill="none" stroke="midnightblue" d="M188.052,-22.3611C196.595,-21.6083 205.258,-20.8451 213.841,-20.0889"/>
<polygon fill="midnightblue" stroke="midnightblue" points="187.743,-18.8746 178.089,-23.2389 188.358,-25.8476 187.743,-18.8746"/>
</g>
</g>
</svg>
