<?xml version="1.0" encoding="UTF-8" standalone="no"?>
<!DOCTYPE svg PUBLIC "-//W3C//DTD SVG 1.1//EN"
 "http://www.w3.org/Graphics/SVG/1.1/DTD/svg11.dtd">
<!-- Generated by graphviz version 2.34.0 (20130907.0111)
 -->
<!-- Title: CSetup::ShowOmnivisionElements Pages: 1 -->
<svg width="450pt" height="70pt"
 viewBox="0.00 0.00 450.00 70.00" xmlns="http://www.w3.org/2000/svg" xmlns:xlink="http://www.w3.org/1999/xlink">
<g id="graph0" class="graph" transform="scale(1 1) rotate(0) translate(4 66)">
<title>CSetup::ShowOmnivisionElements</title>
<polygon fill="white" stroke="white" points="-4,4 -4,-66 446,-66 446,4 -4,4"/>
<!-- Node1 -->
<g id="node1" class="node"><title>Node1</title>
<polygon fill="#bfbfbf" stroke="black" points="0,-20.5 0,-41.5 198,-41.5 198,-20.5 0,-20.5"/>
<text text-anchor="middle" x="99" y="-27.9" font-family="Helvetica,sans-Serif" font-size="12.00">CSetup::ShowOmnivisionElements</text>
</g>
<!-- Node2 -->
<g id="node2" class="node"><title>Node2</title>
<g id="a_node2"><a xlink:href="../../da/d8d/class_c_setup.html#ad269a35311df2ffcc5ef53d4e15e1e2d" target="_top" xlink:title="CSetup::OnInitDialog">
<polygon fill="white" stroke="black" points="275,-40.5 275,-61.5 401,-61.5 401,-40.5 275,-40.5"/>
<text text-anchor="middle" x="338" y="-47.9" font-family="Helvetica,sans-Serif" font-size="12.00">CSetup::OnInitDialog</text>
</a>
</g>
</g>
<!-- Node1&#45;&gt;Node2 -->
<g id="edge1" class="edge"><title>Node1&#45;&gt;Node2</title>
<path fill="none" stroke="midnightblue" d="M208.21,-40.1317C231.067,-42.0605 254.438,-44.0328 274.888,-45.7585"/>
<polygon fill="midnightblue" stroke="midnightblue" points="208.367,-36.6325 198.108,-39.2791 207.778,-43.6077 208.367,-36.6325"/>
</g>
<!-- Node3 -->
<g id="node3" class="node"><title>Node3</title>
<g id="a_node3"><a xlink:href="../../da/d8d/class_c_setup.html#a78c6cb0507422c15b4a46f0bf40ac649" target="_top" xlink:title="CSetup::OnLbnSelchangeDeviceList">
<polygon fill="white" stroke="black" points="234,-0.5 234,-21.5 442,-21.5 442,-0.5 234,-0.5"/>
<text text-anchor="middle" x="338" y="-7.9" font-family="Helvetica,sans-Serif" font-size="12.00">CSetup::OnLbnSelchangeDeviceList</text>
</a>
</g>
</g>
<!-- Node1&#45;&gt;Node3 -->
<g id="edge2" class="edge"><title>Node1&#45;&gt;Node3</title>
<path fill="none" stroke="midnightblue" d="M208.156,-21.8729C216.753,-21.1474 225.424,-20.4157 233.985,-19.6933"/>
<polygon fill="midnightblue" stroke="midnightblue" points="207.778,-18.3923 198.108,-22.7209 208.367,-25.3675 207.778,-18.3923"/>
</g>
</g>
</svg>
