<?xml version="1.0" encoding="UTF-8" standalone="no"?>
<!DOCTYPE svg PUBLIC "-//W3C//DTD SVG 1.1//EN"
 "http://www.w3.org/Graphics/SVG/1.1/DTD/svg11.dtd">
<!-- Generated by graphviz version 2.34.0 (20130907.0111)
 -->
<!-- Title: CSetup::ShowEpiphanElements Pages: 1 -->
<svg width="436pt" height="70pt"
 viewBox="0.00 0.00 436.00 70.00" xmlns="http://www.w3.org/2000/svg" xmlns:xlink="http://www.w3.org/1999/xlink">
<g id="graph0" class="graph" transform="scale(1 1) rotate(0) translate(4 66)">
<title>CSetup::ShowEpiphanElements</title>
<polygon fill="white" stroke="white" points="-4,4 -4,-66 432,-66 432,4 -4,4"/>
<!-- Node1 -->
<g id="node1" class="node"><title>Node1</title>
<polygon fill="#bfbfbf" stroke="black" points="0,-20.5 0,-41.5 184,-41.5 184,-20.5 0,-20.5"/>
<text text-anchor="middle" x="92" y="-27.9" font-family="Helvetica,sans-Serif" font-size="12.00">CSetup::ShowEpiphanElements</text>
</g>
<!-- Node2 -->
<g id="node2" class="node"><title>Node2</title>
<g id="a_node2"><a xlink:href="../../da/d8d/class_c_setup.html#ad269a35311df2ffcc5ef53d4e15e1e2d" target="_top" xlink:title="CSetup::OnInitDialog">
<polygon fill="white" stroke="black" points="261,-40.5 261,-61.5 387,-61.5 387,-40.5 261,-40.5"/>
<text text-anchor="middle" x="324" y="-47.9" font-family="Helvetica,sans-Serif" font-size="12.00">CSetup::OnInitDialog</text>
</a>
</g>
</g>
<!-- Node1&#45;&gt;Node2 -->
<g id="edge1" class="edge"><title>Node1&#45;&gt;Node2</title>
<path fill="none" stroke="midnightblue" d="M194.246,-39.804C216.936,-41.7771 240.351,-43.8131 260.888,-45.599"/>
<polygon fill="midnightblue" stroke="midnightblue" points="194.498,-36.3128 184.232,-38.9333 193.892,-43.2865 194.498,-36.3128"/>
</g>
<!-- Node3 -->
<g id="node3" class="node"><title>Node3</title>
<g id="a_node3"><a xlink:href="../../da/d8d/class_c_setup.html#a78c6cb0507422c15b4a46f0bf40ac649" target="_top" xlink:title="CSetup::OnLbnSelchangeDeviceList">
<polygon fill="white" stroke="black" points="220,-0.5 220,-21.5 428,-21.5 428,-0.5 220,-0.5"/>
<text text-anchor="middle" x="324" y="-7.9" font-family="Helvetica,sans-Serif" font-size="12.00">CSetup::OnLbnSelchangeDeviceList</text>
</a>
</g>
</g>
<!-- Node1&#45;&gt;Node3 -->
<g id="edge2" class="edge"><title>Node1&#45;&gt;Node3</title>
<path fill="none" stroke="midnightblue" d="M194.421,-22.1808C202.823,-21.4502 211.323,-20.711 219.739,-19.9792"/>
<polygon fill="midnightblue" stroke="midnightblue" points="193.892,-18.7135 184.232,-23.0667 194.498,-25.6872 193.892,-18.7135"/>
</g>
</g>
</svg>
