<?xml version="1.0" encoding="UTF-8" standalone="no"?>
<!DOCTYPE svg PUBLIC "-//W3C//DTD SVG 1.1//EN"
 "http://www.w3.org/Graphics/SVG/1.1/DTD/svg11.dtd">
<!-- Generated by graphviz version 2.34.0 (20130907.0111)
 -->
<!-- Title: CSetup::OnInitDialog Pages: 1 -->
<svg width="368pt" height="110pt"
 viewBox="0.00 0.00 368.00 110.00" xmlns="http://www.w3.org/2000/svg" xmlns:xlink="http://www.w3.org/1999/xlink">
<g id="graph0" class="graph" transform="scale(1 1) rotate(0) translate(4 106)">
<title>CSetup::OnInitDialog</title>
<polygon fill="white" stroke="white" points="-4,4 -4,-106 364,-106 364,4 -4,4"/>
<!-- Node1 -->
<g id="node1" class="node"><title>Node1</title>
<polygon fill="#bfbfbf" stroke="black" points="0,-40.5 0,-61.5 126,-61.5 126,-40.5 0,-40.5"/>
<text text-anchor="middle" x="63" y="-47.9" font-family="Helvetica,sans-Serif" font-size="12.00">CSetup::OnInitDialog</text>
</g>
<!-- Node2 -->
<g id="node2" class="node"><title>Node2</title>
<g id="a_node2"><a xlink:href="../../da/d8d/class_c_setup.html#a8f165e6d1265d67b00c5dbacffdf5e2d" target="_top" xlink:title="This function shows dialog elements that are meant only for Epiphan and hides those meant for Omnivis...">
<polygon fill="white" stroke="black" points="169,-80.5 169,-101.5 353,-101.5 353,-80.5 169,-80.5"/>
<text text-anchor="middle" x="261" y="-87.9" font-family="Helvetica,sans-Serif" font-size="12.00">CSetup::ShowEpiphanElements</text>
</a>
</g>
</g>
<!-- Node1&#45;&gt;Node2 -->
<g id="edge1" class="edge"><title>Node1&#45;&gt;Node2</title>
<path fill="none" stroke="midnightblue" d="M115.497,-61.5095C140.941,-66.7023 171.831,-73.0064 198.509,-78.4508"/>
<polygon fill="midnightblue" stroke="midnightblue" points="198.009,-81.9209 208.507,-80.4913 199.409,-75.0623 198.009,-81.9209"/>
</g>
<!-- Node3 -->
<g id="node3" class="node"><title>Node3</title>
<g id="a_node3"><a xlink:href="../../da/d8d/class_c_setup.html#a50408bc691c2cc2fa14a7a9c7d53d9a0" target="_top" xlink:title="This function hides dialog elements that are meant only for Omnivision or Epiphan. ">
<polygon fill="white" stroke="black" points="172,-40.5 172,-61.5 350,-61.5 350,-40.5 172,-40.5"/>
<text text-anchor="middle" x="261" y="-47.9" font-family="Helvetica,sans-Serif" font-size="12.00">CSetup::ShowNormalElements</text>
</a>
</g>
</g>
<!-- Node1&#45;&gt;Node3 -->
<g id="edge2" class="edge"><title>Node1&#45;&gt;Node3</title>
<path fill="none" stroke="midnightblue" d="M126.016,-51C137.406,-51 149.55,-51 161.699,-51"/>
<polygon fill="midnightblue" stroke="midnightblue" points="161.89,-54.5001 171.89,-51 161.89,-47.5001 161.89,-54.5001"/>
</g>
<!-- Node4 -->
<g id="node4" class="node"><title>Node4</title>
<g id="a_node4"><a xlink:href="../../da/d8d/class_c_setup.html#aecb4c2bbab8d7434f2d4b83698f0f00b" target="_top" xlink:title="This function shows dialog elements that are meant only for Omnivision and hides those meant for Epip...">
<polygon fill="white" stroke="black" points="162,-0.5 162,-21.5 360,-21.5 360,-0.5 162,-0.5"/>
<text text-anchor="middle" x="261" y="-7.9" font-family="Helvetica,sans-Serif" font-size="12.00">CSetup::ShowOmnivisionElements</text>
</a>
</g>
</g>
<!-- Node1&#45;&gt;Node4 -->
<g id="edge3" class="edge"><title>Node1&#45;&gt;Node4</title>
<path fill="none" stroke="midnightblue" d="M115.497,-40.4905C140.941,-35.2977 171.831,-28.9936 198.509,-23.5492"/>
<polygon fill="midnightblue" stroke="midnightblue" points="199.409,-26.9377 208.507,-21.5087 198.009,-20.0791 199.409,-26.9377"/>
</g>
</g>
</svg>
