<?xml version="1.0" encoding="UTF-8" standalone="no"?>
<!DOCTYPE svg PUBLIC "-//W3C//DTD SVG 1.1//EN"
 "http://www.w3.org/Graphics/SVG/1.1/DTD/svg11.dtd">
<!-- Generated by graphviz version 2.34.0 (20130907.0111)
 -->
<!-- Title: CSetup::OnLbnSelchangeDeviceList Pages: 1 -->
<svg width="450pt" height="110pt"
 viewBox="0.00 0.00 450.00 110.00" xmlns="http://www.w3.org/2000/svg" xmlns:xlink="http://www.w3.org/1999/xlink">
<g id="graph0" class="graph" transform="scale(1 1) rotate(0) translate(4 106)">
<title>CSetup::OnLbnSelchangeDeviceList</title>
<polygon fill="white" stroke="white" points="-4,4 -4,-106 446,-106 446,4 -4,4"/>
<!-- Node1 -->
<g id="node1" class="node"><title>Node1</title>
<polygon fill="#bfbfbf" stroke="black" points="0,-40.5 0,-61.5 208,-61.5 208,-40.5 0,-40.5"/>
<text text-anchor="middle" x="104" y="-47.9" font-family="Helvetica,sans-Serif" font-size="12.00">CSetup::OnLbnSelchangeDeviceList</text>
</g>
<!-- Node2 -->
<g id="node2" class="node"><title>Node2</title>
<g id="a_node2"><a xlink:href="../../da/d8d/class_c_setup.html#a8f165e6d1265d67b00c5dbacffdf5e2d" target="_top" xlink:title="This function shows dialog elements that are meant only for Epiphan and hides those meant for Omnivis...">
<polygon fill="white" stroke="black" points="251,-80.5 251,-101.5 435,-101.5 435,-80.5 251,-80.5"/>
<text text-anchor="middle" x="343" y="-87.9" font-family="Helvetica,sans-Serif" font-size="12.00">CSetup::ShowEpiphanElements</text>
</a>
</g>
</g>
<!-- Node1&#45;&gt;Node2 -->
<g id="edge1" class="edge"><title>Node1&#45;&gt;Node2</title>
<path fill="none" stroke="midnightblue" d="M167.269,-61.5095C198.714,-66.8167 237.036,-73.2846 269.77,-78.8093"/>
<polygon fill="midnightblue" stroke="midnightblue" points="269.293,-82.2782 279.736,-80.4913 270.458,-75.3758 269.293,-82.2782"/>
</g>
<!-- Node3 -->
<g id="node3" class="node"><title>Node3</title>
<g id="a_node3"><a xlink:href="../../da/d8d/class_c_setup.html#a50408bc691c2cc2fa14a7a9c7d53d9a0" target="_top" xlink:title="This function hides dialog elements that are meant only for Omnivision or Epiphan. ">
<polygon fill="white" stroke="black" points="254,-40.5 254,-61.5 432,-61.5 432,-40.5 254,-40.5"/>
<text text-anchor="middle" x="343" y="-47.9" font-family="Helvetica,sans-Serif" font-size="12.00">CSetup::ShowNormalElements</text>
</a>
</g>
</g>
<!-- Node1&#45;&gt;Node3 -->
<g id="edge2" class="edge"><title>Node1&#45;&gt;Node3</title>
<path fill="none" stroke="midnightblue" d="M208.262,-51C220.033,-51 232.007,-51 243.71,-51"/>
<polygon fill="midnightblue" stroke="midnightblue" points="243.913,-54.5001 253.913,-51 243.913,-47.5001 243.913,-54.5001"/>
</g>
<!-- Node4 -->
<g id="node4" class="node"><title>Node4</title>
<g id="a_node4"><a xlink:href="../../da/d8d/class_c_setup.html#aecb4c2bbab8d7434f2d4b83698f0f00b" target="_top" xlink:title="This function shows dialog elements that are meant only for Omnivision and hides those meant for Epip...">
<polygon fill="white" stroke="black" points="244,-0.5 244,-21.5 442,-21.5 442,-0.5 244,-0.5"/>
<text text-anchor="middle" x="343" y="-7.9" font-family="Helvetica,sans-Serif" font-size="12.00">CSetup::ShowOmnivisionElements</text>
</a>
</g>
</g>
<!-- Node1&#45;&gt;Node4 -->
<g id="edge3" class="edge"><title>Node1&#45;&gt;Node4</title>
<path fill="none" stroke="midnightblue" d="M167.269,-40.4905C198.714,-35.1833 237.036,-28.7154 269.77,-23.1907"/>
<polygon fill="midnightblue" stroke="midnightblue" points="270.458,-26.6242 279.736,-21.5087 269.293,-19.7218 270.458,-26.6242"/>
</g>
</g>
</svg>
