<?xml version="1.0" encoding="UTF-8" standalone="no"?>
<!DOCTYPE svg PUBLIC "-//W3C//DTD SVG 1.1//EN"
 "http://www.w3.org/Graphics/SVG/1.1/DTD/svg11.dtd">
<!-- Generated by graphviz version 2.34.0 (20130907.0111)
 -->
<!-- Title: imatest_library.cpp Pages: 1 -->
<svg width="222pt" height="146pt"
 viewBox="0.00 0.00 222.00 146.00" xmlns="http://www.w3.org/2000/svg" xmlns:xlink="http://www.w3.org/1999/xlink">
<g id="graph0" class="graph" transform="scale(1 1) rotate(0) translate(4 142)">
<title>imatest_library.cpp</title>
<polygon fill="white" stroke="white" points="-4,4 -4,-142 218,-142 218,4 -4,4"/>
<!-- Node1 -->
<g id="node1" class="node"><title>Node1</title>
<polygon fill="#bfbfbf" stroke="black" points="14,-116.5 14,-137.5 130,-137.5 130,-116.5 14,-116.5"/>
<text text-anchor="middle" x="72" y="-123.9" font-family="Helvetica,sans-Serif" font-size="12.00">imatest_library.cpp</text>
</g>
<!-- Node2 -->
<g id="node2" class="node"><title>Node2</title>
<polygon fill="white" stroke="#bfbfbf" points="-0.5,-58.5 -0.5,-79.5 50.5,-79.5 50.5,-58.5 -0.5,-58.5"/>
<text text-anchor="middle" x="25" y="-65.9" font-family="Helvetica,sans-Serif" font-size="12.00">stdio.h</text>
</g>
<!-- Node1&#45;&gt;Node2 -->
<g id="edge1" class="edge"><title>Node1&#45;&gt;Node2</title>
<path fill="none" stroke="midnightblue" d="M63.8132,-116.246C57.1411,-108.296 47.5521,-96.8706 39.5747,-87.3656"/>
<polygon fill="midnightblue" stroke="midnightblue" points="42.2026,-85.0524 33.093,-79.6427 36.8408,-89.5525 42.2026,-85.0524"/>
</g>
<!-- Node3 -->
<g id="node3" class="node"><title>Node3</title>
<g id="a_node3"><a xlink:href="../../da/d69/imatest__library_8h.html" target="_top" xlink:title="imatest_library.h">
<polygon fill="white" stroke="black" points="69,-58.5 69,-79.5 171,-79.5 171,-58.5 69,-58.5"/>
<text text-anchor="middle" x="120" y="-65.9" font-family="Helvetica,sans-Serif" font-size="12.00">imatest_library.h</text>
</a>
</g>
</g>
<!-- Node1&#45;&gt;Node3 -->
<g id="edge2" class="edge"><title>Node1&#45;&gt;Node3</title>
<path fill="none" stroke="midnightblue" d="M80.361,-116.246C87.175,-108.296 96.9681,-96.8706 105.115,-87.3656"/>
<polygon fill="midnightblue" stroke="midnightblue" points="107.884,-89.513 111.735,-79.6427 102.569,-84.9575 107.884,-89.513"/>
</g>
<!-- Node4 -->
<g id="node4" class="node"><title>Node4</title>
<polygon fill="white" stroke="#bfbfbf" points="36,-0.5 36,-21.5 106,-21.5 106,-0.5 36,-0.5"/>
<text text-anchor="middle" x="71" y="-7.9" font-family="Helvetica,sans-Serif" font-size="12.00">mclmcrrt.h</text>
</g>
<!-- Node3&#45;&gt;Node4 -->
<g id="edge3" class="edge"><title>Node3&#45;&gt;Node4</title>
<path fill="none" stroke="midnightblue" d="M111.465,-58.2455C104.509,-50.2958 94.5117,-38.8706 86.1949,-29.3656"/>
<polygon fill="midnightblue" stroke="midnightblue" points="88.6564,-26.8637 79.4373,-21.6427 83.3884,-31.4732 88.6564,-26.8637"/>
</g>
<!-- Node5 -->
<g id="node5" class="node"><title>Node5</title>
<polygon fill="white" stroke="#bfbfbf" points="124,-0.5 124,-21.5 214,-21.5 214,-0.5 124,-0.5"/>
<text text-anchor="middle" x="169" y="-7.9" font-family="Helvetica,sans-Serif" font-size="12.00">mclcppclass.h</text>
</g>
<!-- Node3&#45;&gt;Node5 -->
<g id="edge4" class="edge"><title>Node3&#45;&gt;Node5</title>
<path fill="none" stroke="midnightblue" d="M128.535,-58.2455C135.491,-50.2958 145.488,-38.8706 153.805,-29.3656"/>
<polygon fill="midnightblue" stroke="midnightblue" points="156.612,-31.4732 160.563,-21.6427 151.344,-26.8637 156.612,-31.4732"/>
</g>
</g>
</svg>
