<?xml version="1.0" encoding="UTF-8" standalone="no"?>
<!DOCTYPE svg PUBLIC "-//W3C//DTD SVG 1.1//EN"
 "http://www.w3.org/Graphics/SVG/1.1/DTD/svg11.dtd">
<!-- Generated by graphviz version 2.34.0 (20130907.0111)
 -->
<!-- Title: Documentation/Operator&#45;Console/ModelessDialogThread.h Pages: 1 -->
<svg width="206pt" height="160pt"
 viewBox="0.00 0.00 206.00 160.00" xmlns="http://www.w3.org/2000/svg" xmlns:xlink="http://www.w3.org/1999/xlink">
<g id="graph0" class="graph" transform="scale(1 1) rotate(0) translate(4 156)">
<title>Documentation/Operator&#45;Console/ModelessDialogThread.h</title>
<polygon fill="white" stroke="white" points="-4,4 -4,-156 202,-156 202,4 -4,4"/>
<!-- Node1 -->
<g id="node1" class="node"><title>Node1</title>
<polygon fill="#bfbfbf" stroke="black" points="0,-117 0,-151 198,-151 198,-117 0,-117"/>
<text text-anchor="start" x="8" y="-137.4" font-family="Helvetica,sans-Serif" font-size="12.00">Documentation/Operator</text>
<text text-anchor="middle" x="99" y="-124.4" font-family="Helvetica,sans-Serif" font-size="12.00">&#45;Console/ModelessDialogThread.h</text>
</g>
<!-- Node2 -->
<g id="node2" class="node"><title>Node2</title>
<g id="a_node2"><a xlink:href="../../d9/de8/_documentation_2_operator-_console_2resource_8h.html" target="_top" xlink:title="resource.h">
<polygon fill="white" stroke="black" points="33.5,-0.5 33.5,-21.5 104.5,-21.5 104.5,-0.5 33.5,-0.5"/>
<text text-anchor="middle" x="69" y="-7.9" font-family="Helvetica,sans-Serif" font-size="12.00">resource.h</text>
</a>
</g>
</g>
<!-- Node1&#45;&gt;Node2 -->
<g id="edge1" class="edge"><title>Node1&#45;&gt;Node2</title>
<path fill="none" stroke="midnightblue" d="M94.9541,-116.681C89.4865,-94.6289 79.7495,-55.3565 73.882,-31.6907"/>
<polygon fill="midnightblue" stroke="midnightblue" points="77.2214,-30.6154 71.4177,-21.7516 70.4271,-32.3 77.2214,-30.6154"/>
</g>
<!-- Node3 -->
<g id="node3" class="node"><title>Node3</title>
<g id="a_node3"><a xlink:href="../../df/d07/_documentation_2_operator-_console_2_text_dlg_8h.html" target="_top" xlink:title="TextDlg.h">
<polygon fill="white" stroke="black" points="97.5,-58.5 97.5,-79.5 162.5,-79.5 162.5,-58.5 97.5,-58.5"/>
<text text-anchor="middle" x="130" y="-65.9" font-family="Helvetica,sans-Serif" font-size="12.00">TextDlg.h</text>
</a>
</g>
</g>
<!-- Node1&#45;&gt;Node3 -->
<g id="edge2" class="edge"><title>Node1&#45;&gt;Node3</title>
<path fill="none" stroke="midnightblue" d="M106.983,-116.776C111.206,-108.194 116.412,-97.6149 120.803,-88.6899"/>
<polygon fill="midnightblue" stroke="midnightblue" points="124.045,-90.0285 125.32,-79.5106 117.765,-86.9379 124.045,-90.0285"/>
</g>
<!-- Node3&#45;&gt;Node2 -->
<g id="edge4" class="edge"><title>Node3&#45;&gt;Node2</title>
<path fill="none" stroke="midnightblue" d="M119.375,-58.2455C110.453,-50.0549 97.512,-38.1749 86.9808,-28.5069"/>
<polygon fill="midnightblue" stroke="midnightblue" points="89.2371,-25.8271 79.5036,-21.6427 84.5032,-30.9837 89.2371,-25.8271"/>
</g>
<!-- Node4 -->
<g id="node4" class="node"><title>Node4</title>
<polygon fill="white" stroke="#bfbfbf" points="123,-0.5 123,-21.5 181,-21.5 181,-0.5 123,-0.5"/>
<text text-anchor="middle" x="152" y="-7.9" font-family="Helvetica,sans-Serif" font-size="12.00">afxwin.h</text>
</g>
<!-- Node3&#45;&gt;Node4 -->
<g id="edge3" class="edge"><title>Node3&#45;&gt;Node4</title>
<path fill="none" stroke="midnightblue" d="M133.832,-58.2455C136.766,-50.7776 140.905,-40.2427 144.491,-31.1137"/>
<polygon fill="midnightblue" stroke="midnightblue" points="147.813,-32.23 148.212,-21.6427 141.298,-29.6704 147.813,-32.23"/>
</g>
</g>
</svg>
