<?xml version="1.0" encoding="UTF-8" standalone="no"?>
<!DOCTYPE svg PUBLIC "-//W3C//DTD SVG 1.1//EN"
 "http://www.w3.org/Graphics/SVG/1.1/DTD/svg11.dtd">
<!-- Generated by graphviz version 2.34.0 (20130907.0111)
 -->
<!-- Title: jsonChildren::deleteAll Pages: 1 -->
<svg width="944pt" height="83pt"
 viewBox="0.00 0.00 944.00 83.00" xmlns="http://www.w3.org/2000/svg" xmlns:xlink="http://www.w3.org/1999/xlink">
<g id="graph0" class="graph" transform="scale(1 1) rotate(0) translate(4 79)">
<title>jsonChildren::deleteAll</title>
<polygon fill="white" stroke="white" points="-4,4 -4,-79 940,-79 940,4 -4,4"/>
<!-- Node1 -->
<g id="node1" class="node"><title>Node1</title>
<polygon fill="#bfbfbf" stroke="black" points="0,-29.5 0,-50.5 132,-50.5 132,-29.5 0,-29.5"/>
<text text-anchor="middle" x="66" y="-36.9" font-family="Helvetica,sans-Serif" font-size="12.00">jsonChildren::deleteAll</text>
</g>
<!-- Node2 -->
<g id="node2" class="node"><title>Node2</title>
<g id="a_node2"><a xlink:href="../../d6/dc7/class_j_s_o_n_node.html#a4820d966e35e8512e8de4d646960e149" target="_top" xlink:title="JSONNode::deleteJSONNode">
<polygon fill="white" stroke="black" points="168.5,-29.5 168.5,-50.5 343.5,-50.5 343.5,-29.5 168.5,-29.5"/>
<text text-anchor="middle" x="256" y="-36.9" font-family="Helvetica,sans-Serif" font-size="12.00">JSONNode::deleteJSONNode</text>
</a>
</g>
</g>
<!-- Node1&#45;&gt;Node2 -->
<g id="edge1" class="edge"><title>Node1&#45;&gt;Node2</title>
<path fill="none" stroke="midnightblue" d="M132.226,-40C140.61,-40 149.333,-40 158.09,-40"/>
<polygon fill="midnightblue" stroke="midnightblue" points="158.366,-43.5001 168.366,-40 158.366,-36.5001 158.366,-43.5001"/>
</g>
<!-- Node3 -->
<g id="node3" class="node"><title>Node3</title>
<g id="a_node3"><a xlink:href="../../d6/dc7/class_j_s_o_n_node.html#ab7fcb8d880ff067c76ba5d90ea26cc02" target="_top" xlink:title="JSONNode::~JSONNode">
<polygon fill="white" stroke="black" points="380.5,-29.5 380.5,-50.5 529.5,-50.5 529.5,-29.5 380.5,-29.5"/>
<text text-anchor="middle" x="455" y="-36.9" font-family="Helvetica,sans-Serif" font-size="12.00">JSONNode::~JSONNode</text>
</a>
</g>
</g>
<!-- Node2&#45;&gt;Node3 -->
<g id="edge2" class="edge"><title>Node2&#45;&gt;Node3</title>
<path fill="none" stroke="midnightblue" d="M343.694,-40C352.449,-40 361.33,-40 370.055,-40"/>
<polygon fill="midnightblue" stroke="midnightblue" points="370.21,-43.5001 380.21,-40 370.21,-36.5001 370.21,-43.5001"/>
</g>
<!-- Node4 -->
<g id="node4" class="node"><title>Node4</title>
<g id="a_node4"><a xlink:href="../../d6/dc7/class_j_s_o_n_node.html#ac68ad8233da336a15052bad5edf087a6" target="_top" xlink:title="JSONNode::decRef">
<polygon fill="white" stroke="black" points="566,-29.5 566,-50.5 686,-50.5 686,-29.5 566,-29.5"/>
<text text-anchor="middle" x="626" y="-36.9" font-family="Helvetica,sans-Serif" font-size="12.00">JSONNode::decRef</text>
</a>
</g>
</g>
<!-- Node3&#45;&gt;Node4 -->
<g id="edge3" class="edge"><title>Node3&#45;&gt;Node4</title>
<path fill="none" stroke="midnightblue" d="M529.634,-40C538.329,-40 547.18,-40 555.81,-40"/>
<polygon fill="midnightblue" stroke="midnightblue" points="555.818,-43.5001 565.818,-40 555.818,-36.5001 555.818,-43.5001"/>
</g>
<!-- Node5 -->
<g id="node5" class="node"><title>Node5</title>
<g id="a_node5"><a xlink:href="../../d1/d0b/classinternal_j_s_o_n_node.html#aeb2be9601ca22ac3abb8917c95aa251a" target="_top" xlink:title="internalJSONNode::hasNoReferences">
<polygon fill="white" stroke="black" points="722,-53.5 722,-74.5 936,-74.5 936,-53.5 722,-53.5"/>
<text text-anchor="middle" x="829" y="-60.9" font-family="Helvetica,sans-Serif" font-size="12.00">internalJSONNode::hasNoReferences</text>
</a>
</g>
</g>
<!-- Node4&#45;&gt;Node5 -->
<g id="edge4" class="edge"><title>Node4&#45;&gt;Node5</title>
<path fill="none" stroke="midnightblue" d="M686.219,-47.071C699.862,-48.7 714.733,-50.4756 729.545,-52.2442"/>
<polygon fill="midnightblue" stroke="midnightblue" points="729.43,-55.7552 739.774,-53.4656 730.26,-48.8046 729.43,-55.7552"/>
</g>
<!-- Node6 -->
<g id="node6" class="node"><title>Node6</title>
<g id="a_node6"><a xlink:href="../../d1/d0b/classinternal_j_s_o_n_node.html#a9c6fdbfa2a691417e78b53330c1ceced" target="_top" xlink:title="internalJSONNode::delete\lInternal">
<polygon fill="white" stroke="black" points="753,-0 753,-34 905,-34 905,-0 753,-0"/>
<text text-anchor="start" x="761" y="-20.4" font-family="Helvetica,sans-Serif" font-size="12.00">internalJSONNode::delete</text>
<text text-anchor="middle" x="829" y="-7.4" font-family="Helvetica,sans-Serif" font-size="12.00">Internal</text>
</a>
</g>
</g>
<!-- Node4&#45;&gt;Node6 -->
<g id="edge5" class="edge"><title>Node4&#45;&gt;Node6</title>
<path fill="none" stroke="midnightblue" d="M686.219,-33.2236C703.888,-31.2019 723.617,-28.9443 742.609,-26.7711"/>
<polygon fill="midnightblue" stroke="midnightblue" points="743.225,-30.2236 752.762,-25.6093 742.429,-23.269 743.225,-30.2236"/>
</g>
</g>
</svg>
