<?xml version="1.0" encoding="UTF-8" standalone="no"?>
<!DOCTYPE svg PUBLIC "-//W3C//DTD SVG 1.1//EN"
 "http://www.w3.org/Graphics/SVG/1.1/DTD/svg11.dtd">
<!-- Generated by graphviz version 2.34.0 (20130907.0111)
 -->
<!-- Title: jsonChildren::deleteChildren Pages: 1 -->
<svg width="1338pt" height="83pt"
 viewBox="0.00 0.00 1338.00 83.00" xmlns="http://www.w3.org/2000/svg" xmlns:xlink="http://www.w3.org/1999/xlink">
<g id="graph0" class="graph" transform="scale(1 1) rotate(0) translate(4 79)">
<title>jsonChildren::deleteChildren</title>
<polygon fill="white" stroke="white" points="-4,4 -4,-79 1334,-79 1334,4 -4,4"/>
<!-- Node1 -->
<g id="node1" class="node"><title>Node1</title>
<polygon fill="#bfbfbf" stroke="black" points="0.5,-29.5 0.5,-50.5 163.5,-50.5 163.5,-29.5 0.5,-29.5"/>
<text text-anchor="middle" x="82" y="-36.9" font-family="Helvetica,sans-Serif" font-size="12.00">jsonChildren::deleteChildren</text>
</g>
<!-- Node2 -->
<g id="node2" class="node"><title>Node2</title>
<g id="a_node2"><a xlink:href="../../db/d49/classjson_children.html#a4e802eba4a1fe4736655ea44944b3662" target="_top" xlink:title="jsonChildren::~jsonChildren">
<polygon fill="white" stroke="black" points="200,-29.5 200,-50.5 358,-50.5 358,-29.5 200,-29.5"/>
<text text-anchor="middle" x="279" y="-36.9" font-family="Helvetica,sans-Serif" font-size="12.00">jsonChildren::~jsonChildren</text>
</a>
</g>
</g>
<!-- Node1&#45;&gt;Node2 -->
<g id="edge1" class="edge"><title>Node1&#45;&gt;Node2</title>
<path fill="none" stroke="midnightblue" d="M163.722,-40C172.307,-40 181.071,-40 189.737,-40"/>
<polygon fill="midnightblue" stroke="midnightblue" points="189.848,-43.5001 199.848,-40 189.848,-36.5001 189.848,-43.5001"/>
</g>
<!-- Node3 -->
<g id="node3" class="node"><title>Node3</title>
<g id="a_node3"><a xlink:href="../../db/d49/classjson_children.html#a2ed8d882781d9681d3971df0008508b3" target="_top" xlink:title="jsonChildren::deleteAll">
<polygon fill="white" stroke="black" points="394,-29.5 394,-50.5 526,-50.5 526,-29.5 394,-29.5"/>
<text text-anchor="middle" x="460" y="-36.9" font-family="Helvetica,sans-Serif" font-size="12.00">jsonChildren::deleteAll</text>
</a>
</g>
</g>
<!-- Node2&#45;&gt;Node3 -->
<g id="edge2" class="edge"><title>Node2&#45;&gt;Node3</title>
<path fill="none" stroke="midnightblue" d="M358.252,-40C366.679,-40 375.241,-40 383.633,-40"/>
<polygon fill="midnightblue" stroke="midnightblue" points="383.765,-43.5001 393.765,-40 383.765,-36.5001 383.765,-43.5001"/>
</g>
<!-- Node4 -->
<g id="node4" class="node"><title>Node4</title>
<g id="a_node4"><a xlink:href="../../d6/dc7/class_j_s_o_n_node.html#a4820d966e35e8512e8de4d646960e149" target="_top" xlink:title="JSONNode::deleteJSONNode">
<polygon fill="white" stroke="black" points="562.5,-29.5 562.5,-50.5 737.5,-50.5 737.5,-29.5 562.5,-29.5"/>
<text text-anchor="middle" x="650" y="-36.9" font-family="Helvetica,sans-Serif" font-size="12.00">JSONNode::deleteJSONNode</text>
</a>
</g>
</g>
<!-- Node3&#45;&gt;Node4 -->
<g id="edge3" class="edge"><title>Node3&#45;&gt;Node4</title>
<path fill="none" stroke="midnightblue" d="M526.226,-40C534.61,-40 543.333,-40 552.09,-40"/>
<polygon fill="midnightblue" stroke="midnightblue" points="552.366,-43.5001 562.366,-40 552.366,-36.5001 552.366,-43.5001"/>
</g>
<!-- Node5 -->
<g id="node5" class="node"><title>Node5</title>
<g id="a_node5"><a xlink:href="../../d6/dc7/class_j_s_o_n_node.html#ab7fcb8d880ff067c76ba5d90ea26cc02" target="_top" xlink:title="JSONNode::~JSONNode">
<polygon fill="white" stroke="black" points="774.5,-29.5 774.5,-50.5 923.5,-50.5 923.5,-29.5 774.5,-29.5"/>
<text text-anchor="middle" x="849" y="-36.9" font-family="Helvetica,sans-Serif" font-size="12.00">JSONNode::~JSONNode</text>
</a>
</g>
</g>
<!-- Node4&#45;&gt;Node5 -->
<g id="edge4" class="edge"><title>Node4&#45;&gt;Node5</title>
<path fill="none" stroke="midnightblue" d="M737.694,-40C746.449,-40 755.33,-40 764.055,-40"/>
<polygon fill="midnightblue" stroke="midnightblue" points="764.21,-43.5001 774.21,-40 764.21,-36.5001 764.21,-43.5001"/>
</g>
<!-- Node6 -->
<g id="node6" class="node"><title>Node6</title>
<g id="a_node6"><a xlink:href="../../d6/dc7/class_j_s_o_n_node.html#ac68ad8233da336a15052bad5edf087a6" target="_top" xlink:title="JSONNode::decRef">
<polygon fill="white" stroke="black" points="960,-29.5 960,-50.5 1080,-50.5 1080,-29.5 960,-29.5"/>
<text text-anchor="middle" x="1020" y="-36.9" font-family="Helvetica,sans-Serif" font-size="12.00">JSONNode::decRef</text>
</a>
</g>
</g>
<!-- Node5&#45;&gt;Node6 -->
<g id="edge5" class="edge"><title>Node5&#45;&gt;Node6</title>
<path fill="none" stroke="midnightblue" d="M923.634,-40C932.329,-40 941.18,-40 949.81,-40"/>
<polygon fill="midnightblue" stroke="midnightblue" points="949.818,-43.5001 959.818,-40 949.818,-36.5001 949.818,-43.5001"/>
</g>
<!-- Node7 -->
<g id="node7" class="node"><title>Node7</title>
<g id="a_node7"><a xlink:href="../../d1/d0b/classinternal_j_s_o_n_node.html#aeb2be9601ca22ac3abb8917c95aa251a" target="_top" xlink:title="internalJSONNode::hasNoReferences">
<polygon fill="white" stroke="black" points="1116,-53.5 1116,-74.5 1330,-74.5 1330,-53.5 1116,-53.5"/>
<text text-anchor="middle" x="1223" y="-60.9" font-family="Helvetica,sans-Serif" font-size="12.00">internalJSONNode::hasNoReferences</text>
</a>
</g>
</g>
<!-- Node6&#45;&gt;Node7 -->
<g id="edge6" class="edge"><title>Node6&#45;&gt;Node7</title>
<path fill="none" stroke="midnightblue" d="M1080.22,-47.071C1093.86,-48.7 1108.73,-50.4756 1123.55,-52.2442"/>
<polygon fill="midnightblue" stroke="midnightblue" points="1123.43,-55.7552 1133.77,-53.4656 1124.26,-48.8046 1123.43,-55.7552"/>
</g>
<!-- Node8 -->
<g id="node8" class="node"><title>Node8</title>
<g id="a_node8"><a xlink:href="../../d1/d0b/classinternal_j_s_o_n_node.html#a9c6fdbfa2a691417e78b53330c1ceced" target="_top" xlink:title="internalJSONNode::delete\lInternal">
<polygon fill="white" stroke="black" points="1147,-0 1147,-34 1299,-34 1299,-0 1147,-0"/>
<text text-anchor="start" x="1155" y="-20.4" font-family="Helvetica,sans-Serif" font-size="12.00">internalJSONNode::delete</text>
<text text-anchor="middle" x="1223" y="-7.4" font-family="Helvetica,sans-Serif" font-size="12.00">Internal</text>
</a>
</g>
</g>
<!-- Node6&#45;&gt;Node8 -->
<g id="edge7" class="edge"><title>Node6&#45;&gt;Node8</title>
<path fill="none" stroke="midnightblue" d="M1080.22,-33.2236C1097.89,-31.2019 1117.62,-28.9443 1136.61,-26.7711"/>
<polygon fill="midnightblue" stroke="midnightblue" points="1137.22,-30.2236 1146.76,-25.6093 1136.43,-23.269 1137.22,-30.2236"/>
</g>
</g>
</svg>
