<?xml version="1.0" encoding="UTF-8" standalone="no"?>
<!DOCTYPE svg PUBLIC "-//W3C//DTD SVG 1.1//EN"
 "http://www.w3.org/Graphics/SVG/1.1/DTD/svg11.dtd">
<!-- Generated by graphviz version 2.34.0 (20130907.0111)
 -->
<!-- Title: jsonChildren::~jsonChildren Pages: 1 -->
<svg width="1138pt" height="83pt"
 viewBox="0.00 0.00 1138.00 83.00" xmlns="http://www.w3.org/2000/svg" xmlns:xlink="http://www.w3.org/1999/xlink">
<g id="graph0" class="graph" transform="scale(1 1) rotate(0) translate(4 79)">
<title>jsonChildren::~jsonChildren</title>
<polygon fill="white" stroke="white" points="-4,4 -4,-79 1134,-79 1134,4 -4,4"/>
<!-- Node1 -->
<g id="node1" class="node"><title>Node1</title>
<polygon fill="#bfbfbf" stroke="black" points="0,-29.5 0,-50.5 158,-50.5 158,-29.5 0,-29.5"/>
<text text-anchor="middle" x="79" y="-36.9" font-family="Helvetica,sans-Serif" font-size="12.00">jsonChildren::~jsonChildren</text>
</g>
<!-- Node2 -->
<g id="node2" class="node"><title>Node2</title>
<g id="a_node2"><a xlink:href="../../db/d49/classjson_children.html#a2ed8d882781d9681d3971df0008508b3" target="_top" xlink:title="jsonChildren::deleteAll">
<polygon fill="white" stroke="black" points="194,-29.5 194,-50.5 326,-50.5 326,-29.5 194,-29.5"/>
<text text-anchor="middle" x="260" y="-36.9" font-family="Helvetica,sans-Serif" font-size="12.00">jsonChildren::deleteAll</text>
</a>
</g>
</g>
<!-- Node1&#45;&gt;Node2 -->
<g id="edge1" class="edge"><title>Node1&#45;&gt;Node2</title>
<path fill="none" stroke="midnightblue" d="M158.252,-40C166.679,-40 175.241,-40 183.633,-40"/>
<polygon fill="midnightblue" stroke="midnightblue" points="183.765,-43.5001 193.765,-40 183.765,-36.5001 183.765,-43.5001"/>
</g>
<!-- Node3 -->
<g id="node3" class="node"><title>Node3</title>
<g id="a_node3"><a xlink:href="../../d6/dc7/class_j_s_o_n_node.html#a4820d966e35e8512e8de4d646960e149" target="_top" xlink:title="JSONNode::deleteJSONNode">
<polygon fill="white" stroke="black" points="362.5,-29.5 362.5,-50.5 537.5,-50.5 537.5,-29.5 362.5,-29.5"/>
<text text-anchor="middle" x="450" y="-36.9" font-family="Helvetica,sans-Serif" font-size="12.00">JSONNode::deleteJSONNode</text>
</a>
</g>
</g>
<!-- Node2&#45;&gt;Node3 -->
<g id="edge2" class="edge"><title>Node2&#45;&gt;Node3</title>
<path fill="none" stroke="midnightblue" d="M326.226,-40C334.61,-40 343.333,-40 352.09,-40"/>
<polygon fill="midnightblue" stroke="midnightblue" points="352.366,-43.5001 362.366,-40 352.366,-36.5001 352.366,-43.5001"/>
</g>
<!-- Node4 -->
<g id="node4" class="node"><title>Node4</title>
<g id="a_node4"><a xlink:href="../../d6/dc7/class_j_s_o_n_node.html#ab7fcb8d880ff067c76ba5d90ea26cc02" target="_top" xlink:title="JSONNode::~JSONNode">
<polygon fill="white" stroke="black" points="574.5,-29.5 574.5,-50.5 723.5,-50.5 723.5,-29.5 574.5,-29.5"/>
<text text-anchor="middle" x="649" y="-36.9" font-family="Helvetica,sans-Serif" font-size="12.00">JSONNode::~JSONNode</text>
</a>
</g>
</g>
<!-- Node3&#45;&gt;Node4 -->
<g id="edge3" class="edge"><title>Node3&#45;&gt;Node4</title>
<path fill="none" stroke="midnightblue" d="M537.694,-40C546.449,-40 555.33,-40 564.055,-40"/>
<polygon fill="midnightblue" stroke="midnightblue" points="564.21,-43.5001 574.21,-40 564.21,-36.5001 564.21,-43.5001"/>
</g>
<!-- Node5 -->
<g id="node5" class="node"><title>Node5</title>
<g id="a_node5"><a xlink:href="../../d6/dc7/class_j_s_o_n_node.html#ac68ad8233da336a15052bad5edf087a6" target="_top" xlink:title="JSONNode::decRef">
<polygon fill="white" stroke="black" points="760,-29.5 760,-50.5 880,-50.5 880,-29.5 760,-29.5"/>
<text text-anchor="middle" x="820" y="-36.9" font-family="Helvetica,sans-Serif" font-size="12.00">JSONNode::decRef</text>
</a>
</g>
</g>
<!-- Node4&#45;&gt;Node5 -->
<g id="edge4" class="edge"><title>Node4&#45;&gt;Node5</title>
<path fill="none" stroke="midnightblue" d="M723.634,-40C732.329,-40 741.18,-40 749.81,-40"/>
<polygon fill="midnightblue" stroke="midnightblue" points="749.818,-43.5001 759.818,-40 749.818,-36.5001 749.818,-43.5001"/>
</g>
<!-- Node6 -->
<g id="node6" class="node"><title>Node6</title>
<g id="a_node6"><a xlink:href="../../d1/d0b/classinternal_j_s_o_n_node.html#aeb2be9601ca22ac3abb8917c95aa251a" target="_top" xlink:title="internalJSONNode::hasNoReferences">
<polygon fill="white" stroke="black" points="916,-53.5 916,-74.5 1130,-74.5 1130,-53.5 916,-53.5"/>
<text text-anchor="middle" x="1023" y="-60.9" font-family="Helvetica,sans-Serif" font-size="12.00">internalJSONNode::hasNoReferences</text>
</a>
</g>
</g>
<!-- Node5&#45;&gt;Node6 -->
<g id="edge5" class="edge"><title>Node5&#45;&gt;Node6</title>
<path fill="none" stroke="midnightblue" d="M880.219,-47.071C893.862,-48.7 908.733,-50.4756 923.545,-52.2442"/>
<polygon fill="midnightblue" stroke="midnightblue" points="923.43,-55.7552 933.774,-53.4656 924.26,-48.8046 923.43,-55.7552"/>
</g>
<!-- Node7 -->
<g id="node7" class="node"><title>Node7</title>
<g id="a_node7"><a xlink:href="../../d1/d0b/classinternal_j_s_o_n_node.html#a9c6fdbfa2a691417e78b53330c1ceced" target="_top" xlink:title="internalJSONNode::delete\lInternal">
<polygon fill="white" stroke="black" points="947,-0 947,-34 1099,-34 1099,-0 947,-0"/>
<text text-anchor="start" x="955" y="-20.4" font-family="Helvetica,sans-Serif" font-size="12.00">internalJSONNode::delete</text>
<text text-anchor="middle" x="1023" y="-7.4" font-family="Helvetica,sans-Serif" font-size="12.00">Internal</text>
</a>
</g>
</g>
<!-- Node5&#45;&gt;Node7 -->
<g id="edge6" class="edge"><title>Node5&#45;&gt;Node7</title>
<path fill="none" stroke="midnightblue" d="M880.219,-33.2236C897.888,-31.2019 917.617,-28.9443 936.609,-26.7711"/>
<polygon fill="midnightblue" stroke="midnightblue" points="937.225,-30.2236 946.762,-25.6093 936.429,-23.269 937.225,-30.2236"/>
</g>
</g>
</svg>
