<?xml version="1.0" encoding="UTF-8" standalone="no"?>
<!DOCTYPE svg PUBLIC "-//W3C//DTD SVG 1.1//EN"
 "http://www.w3.org/Graphics/SVG/1.1/DTD/svg11.dtd">
<!-- Generated by graphviz version 2.34.0 (20130907.0111)
 -->
<!-- Title: jsonChildren::jsonChildren Pages: 1 -->
<svg width="542pt" height="42pt"
 viewBox="0.00 0.00 542.00 42.00" xmlns="http://www.w3.org/2000/svg" xmlns:xlink="http://www.w3.org/1999/xlink">
<g id="graph0" class="graph" transform="scale(1 1) rotate(0) translate(4 38)">
<title>jsonChildren::jsonChildren</title>
<polygon fill="white" stroke="white" points="-4,4 -4,-38 538,-38 538,4 -4,4"/>
<!-- Node1 -->
<g id="node1" class="node"><title>Node1</title>
<polygon fill="#bfbfbf" stroke="black" points="0,-6.5 0,-27.5 152,-27.5 152,-6.5 0,-6.5"/>
<text text-anchor="middle" x="76" y="-13.9" font-family="Helvetica,sans-Serif" font-size="12.00">jsonChildren::jsonChildren</text>
</g>
<!-- Node2 -->
<g id="node2" class="node"><title>Node2</title>
<g id="a_node2"><a xlink:href="../../db/d49/classjson_children.html#ac71d832f3f81306fcb13e6f581f4431a" target="_top" xlink:title="jsonChildren::newChildren">
<polygon fill="white" stroke="black" points="188,-6.5 188,-27.5 340,-27.5 340,-6.5 188,-6.5"/>
<text text-anchor="middle" x="264" y="-13.9" font-family="Helvetica,sans-Serif" font-size="12.00">jsonChildren::newChildren</text>
</a>
</g>
</g>
<!-- Node1&#45;&gt;Node2 -->
<g id="edge1" class="edge"><title>Node1&#45;&gt;Node2</title>
<path fill="none" stroke="midnightblue" d="M162.147,-17C170.742,-17 179.426,-17 187.905,-17"/>
<polygon fill="midnightblue" stroke="midnightblue" points="162.117,-13.5001 152.117,-17 162.117,-20.5001 162.117,-13.5001"/>
</g>
<!-- Node3 -->
<g id="node3" class="node"><title>Node3</title>
<g id="a_node3"><a xlink:href="../../d1/d0b/classinternal_j_s_o_n_node.html#a8757ff69826db8035ea7031fa6c3815a" target="_top" xlink:title="internalJSONNode::internal\lJSONNode">
<polygon fill="white" stroke="black" points="376,-0 376,-34 534,-34 534,-0 376,-0"/>
<text text-anchor="start" x="384" y="-20.4" font-family="Helvetica,sans-Serif" font-size="12.00">internalJSONNode::internal</text>
<text text-anchor="middle" x="455" y="-7.4" font-family="Helvetica,sans-Serif" font-size="12.00">JSONNode</text>
</a>
</g>
</g>
<!-- Node2&#45;&gt;Node3 -->
<g id="edge2" class="edge"><title>Node2&#45;&gt;Node3</title>
<path fill="none" stroke="midnightblue" d="M350.503,-17C358.97,-17 367.535,-17 375.922,-17"/>
<polygon fill="midnightblue" stroke="midnightblue" points="350.241,-13.5001 340.241,-17 350.241,-20.5001 350.241,-13.5001"/>
</g>
</g>
</svg>
