<?xml version="1.0" encoding="UTF-8" standalone="no"?>
<!DOCTYPE svg PUBLIC "-//W3C//DTD SVG 1.1//EN"
 "http://www.w3.org/Graphics/SVG/1.1/DTD/svg11.dtd">
<!-- Generated by graphviz version 2.34.0 (20130907.0111)
 -->
<!-- Title: jsonChildren::clear Pages: 1 -->
<svg width="1094pt" height="83pt"
 viewBox="0.00 0.00 1094.00 83.00" xmlns="http://www.w3.org/2000/svg" xmlns:xlink="http://www.w3.org/1999/xlink">
<g id="graph0" class="graph" transform="scale(1 1) rotate(0) translate(4 79)">
<title>jsonChildren::clear</title>
<polygon fill="white" stroke="white" points="-4,4 -4,-79 1090,-79 1090,4 -4,4"/>
<!-- Node1 -->
<g id="node1" class="node"><title>Node1</title>
<polygon fill="#bfbfbf" stroke="black" points="0.5,-29.5 0.5,-50.5 113.5,-50.5 113.5,-29.5 0.5,-29.5"/>
<text text-anchor="middle" x="57" y="-36.9" font-family="Helvetica,sans-Serif" font-size="12.00">jsonChildren::clear</text>
</g>
<!-- Node2 -->
<g id="node2" class="node"><title>Node2</title>
<g id="a_node2"><a xlink:href="../../db/d49/classjson_children.html#a2ed8d882781d9681d3971df0008508b3" target="_top" xlink:title="jsonChildren::deleteAll">
<polygon fill="white" stroke="black" points="150,-29.5 150,-50.5 282,-50.5 282,-29.5 150,-29.5"/>
<text text-anchor="middle" x="216" y="-36.9" font-family="Helvetica,sans-Serif" font-size="12.00">jsonChildren::deleteAll</text>
</a>
</g>
</g>
<!-- Node1&#45;&gt;Node2 -->
<g id="edge1" class="edge"><title>Node1&#45;&gt;Node2</title>
<path fill="none" stroke="midnightblue" d="M113.794,-40C122.156,-40 130.895,-40 139.582,-40"/>
<polygon fill="midnightblue" stroke="midnightblue" points="139.732,-43.5001 149.732,-40 139.732,-36.5001 139.732,-43.5001"/>
</g>
<!-- Node3 -->
<g id="node3" class="node"><title>Node3</title>
<g id="a_node3"><a xlink:href="../../d6/dc7/class_j_s_o_n_node.html#a4820d966e35e8512e8de4d646960e149" target="_top" xlink:title="JSONNode::deleteJSONNode">
<polygon fill="white" stroke="black" points="318.5,-29.5 318.5,-50.5 493.5,-50.5 493.5,-29.5 318.5,-29.5"/>
<text text-anchor="middle" x="406" y="-36.9" font-family="Helvetica,sans-Serif" font-size="12.00">JSONNode::deleteJSONNode</text>
</a>
</g>
</g>
<!-- Node2&#45;&gt;Node3 -->
<g id="edge2" class="edge"><title>Node2&#45;&gt;Node3</title>
<path fill="none" stroke="midnightblue" d="M282.226,-40C290.61,-40 299.333,-40 308.09,-40"/>
<polygon fill="midnightblue" stroke="midnightblue" points="308.366,-43.5001 318.366,-40 308.366,-36.5001 308.366,-43.5001"/>
</g>
<!-- Node4 -->
<g id="node4" class="node"><title>Node4</title>
<g id="a_node4"><a xlink:href="../../d6/dc7/class_j_s_o_n_node.html#ab7fcb8d880ff067c76ba5d90ea26cc02" target="_top" xlink:title="JSONNode::~JSONNode">
<polygon fill="white" stroke="black" points="530.5,-29.5 530.5,-50.5 679.5,-50.5 679.5,-29.5 530.5,-29.5"/>
<text text-anchor="middle" x="605" y="-36.9" font-family="Helvetica,sans-Serif" font-size="12.00">JSONNode::~JSONNode</text>
</a>
</g>
</g>
<!-- Node3&#45;&gt;Node4 -->
<g id="edge3" class="edge"><title>Node3&#45;&gt;Node4</title>
<path fill="none" stroke="midnightblue" d="M493.694,-40C502.449,-40 511.33,-40 520.055,-40"/>
<polygon fill="midnightblue" stroke="midnightblue" points="520.21,-43.5001 530.21,-40 520.21,-36.5001 520.21,-43.5001"/>
</g>
<!-- Node5 -->
<g id="node5" class="node"><title>Node5</title>
<g id="a_node5"><a xlink:href="../../d6/dc7/class_j_s_o_n_node.html#ac68ad8233da336a15052bad5edf087a6" target="_top" xlink:title="JSONNode::decRef">
<polygon fill="white" stroke="black" points="716,-29.5 716,-50.5 836,-50.5 836,-29.5 716,-29.5"/>
<text text-anchor="middle" x="776" y="-36.9" font-family="Helvetica,sans-Serif" font-size="12.00">JSONNode::decRef</text>
</a>
</g>
</g>
<!-- Node4&#45;&gt;Node5 -->
<g id="edge4" class="edge"><title>Node4&#45;&gt;Node5</title>
<path fill="none" stroke="midnightblue" d="M679.634,-40C688.329,-40 697.18,-40 705.81,-40"/>
<polygon fill="midnightblue" stroke="midnightblue" points="705.818,-43.5001 715.818,-40 705.818,-36.5001 705.818,-43.5001"/>
</g>
<!-- Node6 -->
<g id="node6" class="node"><title>Node6</title>
<g id="a_node6"><a xlink:href="../../d1/d0b/classinternal_j_s_o_n_node.html#aeb2be9601ca22ac3abb8917c95aa251a" target="_top" xlink:title="internalJSONNode::hasNoReferences">
<polygon fill="white" stroke="black" points="872,-53.5 872,-74.5 1086,-74.5 1086,-53.5 872,-53.5"/>
<text text-anchor="middle" x="979" y="-60.9" font-family="Helvetica,sans-Serif" font-size="12.00">internalJSONNode::hasNoReferences</text>
</a>
</g>
</g>
<!-- Node5&#45;&gt;Node6 -->
<g id="edge5" class="edge"><title>Node5&#45;&gt;Node6</title>
<path fill="none" stroke="midnightblue" d="M836.219,-47.071C849.862,-48.7 864.733,-50.4756 879.545,-52.2442"/>
<polygon fill="midnightblue" stroke="midnightblue" points="879.43,-55.7552 889.774,-53.4656 880.26,-48.8046 879.43,-55.7552"/>
</g>
<!-- Node7 -->
<g id="node7" class="node"><title>Node7</title>
<g id="a_node7"><a xlink:href="../../d1/d0b/classinternal_j_s_o_n_node.html#a9c6fdbfa2a691417e78b53330c1ceced" target="_top" xlink:title="internalJSONNode::delete\lInternal">
<polygon fill="white" stroke="black" points="903,-0 903,-34 1055,-34 1055,-0 903,-0"/>
<text text-anchor="start" x="911" y="-20.4" font-family="Helvetica,sans-Serif" font-size="12.00">internalJSONNode::delete</text>
<text text-anchor="middle" x="979" y="-7.4" font-family="Helvetica,sans-Serif" font-size="12.00">Internal</text>
</a>
</g>
</g>
<!-- Node5&#45;&gt;Node7 -->
<g id="edge6" class="edge"><title>Node5&#45;&gt;Node7</title>
<path fill="none" stroke="midnightblue" d="M836.219,-33.2236C853.888,-31.2019 873.617,-28.9443 892.609,-26.7711"/>
<polygon fill="midnightblue" stroke="midnightblue" points="893.225,-30.2236 902.762,-25.6093 892.429,-23.269 893.225,-30.2236"/>
</g>
</g>
</svg>
