<?xml version="1.0" encoding="UTF-8" standalone="no"?>
<!DOCTYPE svg PUBLIC "-//W3C//DTD SVG 1.1//EN"
 "http://www.w3.org/Graphics/SVG/1.1/DTD/svg11.dtd">
<!-- Generated by graphviz version 2.34.0 (20130907.0111)
 -->
<!-- Title: jsonChildren::erase Pages: 1 -->
<svg width="294pt" height="70pt"
 viewBox="0.00 0.00 294.00 70.00" xmlns="http://www.w3.org/2000/svg" xmlns:xlink="http://www.w3.org/1999/xlink">
<g id="graph0" class="graph" transform="scale(1 1) rotate(0) translate(4 66)">
<title>jsonChildren::erase</title>
<polygon fill="white" stroke="white" points="-4,4 -4,-66 290,-66 290,4 -4,4"/>
<!-- Node1 -->
<g id="node1" class="node"><title>Node1</title>
<polygon fill="#bfbfbf" stroke="black" points="0.5,-20.5 0.5,-41.5 117.5,-41.5 117.5,-20.5 0.5,-20.5"/>
<text text-anchor="middle" x="59" y="-27.9" font-family="Helvetica,sans-Serif" font-size="12.00">jsonChildren::erase</text>
</g>
<!-- Node2 -->
<g id="node2" class="node"><title>Node2</title>
<g id="a_node2"><a xlink:href="../../db/d49/classjson_children.html#aae32349c36ef32f817b7d30d2de163f7" target="_top" xlink:title="jsonChildren::doerase">
<polygon fill="white" stroke="black" points="154.5,-40.5 154.5,-61.5 285.5,-61.5 285.5,-40.5 154.5,-40.5"/>
<text text-anchor="middle" x="220" y="-47.9" font-family="Helvetica,sans-Serif" font-size="12.00">jsonChildren::doerase</text>
</a>
</g>
</g>
<!-- Node1&#45;&gt;Node2 -->
<g id="edge1" class="edge"><title>Node1&#45;&gt;Node2</title>
<path fill="none" stroke="midnightblue" d="M117.852,-38.277C126.497,-39.3644 135.512,-40.4983 144.443,-41.6217"/>
<polygon fill="midnightblue" stroke="midnightblue" points="144.108,-45.1071 154.467,-42.8826 144.982,-38.1618 144.108,-45.1071"/>
</g>
<!-- Node3 -->
<g id="node3" class="node"><title>Node3</title>
<g id="a_node3"><a xlink:href="../../db/d49/classjson_children.html#a9d072fa2a4b87909d1d7853f9ece2e17" target="_top" xlink:title="jsonChildren::shrink">
<polygon fill="white" stroke="black" points="161,-0.5 161,-21.5 279,-21.5 279,-0.5 161,-0.5"/>
<text text-anchor="middle" x="220" y="-7.9" font-family="Helvetica,sans-Serif" font-size="12.00">jsonChildren::shrink</text>
</a>
</g>
</g>
<!-- Node1&#45;&gt;Node3 -->
<g id="edge2" class="edge"><title>Node1&#45;&gt;Node3</title>
<path fill="none" stroke="midnightblue" d="M117.852,-23.723C128.594,-22.3719 139.905,-20.949 150.919,-19.5637"/>
<polygon fill="midnightblue" stroke="midnightblue" points="151.439,-23.0259 160.924,-18.3051 150.566,-16.0806 151.439,-23.0259"/>
</g>
</g>
</svg>
