<?xml version="1.0" encoding="UTF-8" standalone="no"?>
<!DOCTYPE svg PUBLIC "-//W3C//DTD SVG 1.1//EN"
 "http://www.w3.org/Graphics/SVG/1.1/DTD/svg11.dtd">
<!-- Generated by graphviz version 2.34.0 (20130907.0111)
 -->
<!-- Title: jsonChildren::inc Pages: 1 -->
<svg width="290pt" height="123pt"
 viewBox="0.00 0.00 290.00 123.00" xmlns="http://www.w3.org/2000/svg" xmlns:xlink="http://www.w3.org/1999/xlink">
<g id="graph0" class="graph" transform="scale(1 1) rotate(0) translate(4 119)">
<title>jsonChildren::inc</title>
<polygon fill="white" stroke="white" points="-4,4 -4,-119 286,-119 286,4 -4,4"/>
<!-- Node1 -->
<g id="node1" class="node"><title>Node1</title>
<polygon fill="#bfbfbf" stroke="black" points="0,-53.5 0,-74.5 102,-74.5 102,-53.5 0,-53.5"/>
<text text-anchor="middle" x="51" y="-60.9" font-family="Helvetica,sans-Serif" font-size="12.00">jsonChildren::inc</text>
</g>
<!-- Node2 -->
<g id="node2" class="node"><title>Node2</title>
<g id="a_node2"><a xlink:href="../../db/d49/classjson_children.html#a8feff9e267663d21b646cc1ce789eaa1" target="_top" xlink:title="jsonChildren::insert">
<polygon fill="white" stroke="black" points="152,-93.5 152,-114.5 268,-114.5 268,-93.5 152,-93.5"/>
<text text-anchor="middle" x="210" y="-100.9" font-family="Helvetica,sans-Serif" font-size="12.00">jsonChildren::insert</text>
</a>
</g>
</g>
<!-- Node1&#45;&gt;Node2 -->
<g id="edge1" class="edge"><title>Node1&#45;&gt;Node2</title>
<path fill="none" stroke="midnightblue" d="M102.96,-76.9835C123.934,-82.3271 147.911,-88.4358 167.753,-93.4913"/>
<polygon fill="midnightblue" stroke="midnightblue" points="103.804,-73.5869 93.2499,-74.5095 102.076,-80.3702 103.804,-73.5869"/>
</g>
<!-- Node3 -->
<g id="node3" class="node"><title>Node3</title>
<g id="a_node3"><a xlink:href="../../db/d49/classjson_children.html#a6248740f11c3809f0c732a19b7e9f4a8" target="_top" xlink:title="jsonChildren::push_back">
<polygon fill="white" stroke="black" points="138,-53.5 138,-74.5 282,-74.5 282,-53.5 138,-53.5"/>
<text text-anchor="middle" x="210" y="-60.9" font-family="Helvetica,sans-Serif" font-size="12.00">jsonChildren::push_back</text>
</a>
</g>
</g>
<!-- Node1&#45;&gt;Node3 -->
<g id="edge2" class="edge"><title>Node1&#45;&gt;Node3</title>
<path fill="none" stroke="midnightblue" d="M112.194,-64C120.607,-64 129.317,-64 137.908,-64"/>
<polygon fill="midnightblue" stroke="midnightblue" points="112.107,-60.5001 102.107,-64 112.107,-67.5001 112.107,-60.5001"/>
</g>
<!-- Node4 -->
<g id="node4" class="node"><title>Node4</title>
<g id="a_node4"><a xlink:href="../../db/d49/classjson_children.html#a7cdd10c014ca9694d83673e93e84139d" target="_top" xlink:title="jsonChildren::push\l_front">
<polygon fill="white" stroke="black" points="154,-0 154,-34 266,-34 266,-0 154,-0"/>
<text text-anchor="start" x="162" y="-20.4" font-family="Helvetica,sans-Serif" font-size="12.00">jsonChildren::push</text>
<text text-anchor="middle" x="210" y="-7.4" font-family="Helvetica,sans-Serif" font-size="12.00">_front</text>
</a>
</g>
</g>
<!-- Node1&#45;&gt;Node4 -->
<g id="edge3" class="edge"><title>Node1&#45;&gt;Node4</title>
<path fill="none" stroke="midnightblue" d="M97.278,-50.4454C114.937,-45.1591 135.346,-39.0494 153.85,-33.5098"/>
<polygon fill="midnightblue" stroke="midnightblue" points="95.81,-47.2314 87.2339,-53.4523 97.8176,-53.9373 95.81,-47.2314"/>
</g>
</g>
</svg>
