<?xml version="1.0" encoding="UTF-8" standalone="no"?>
<!DOCTYPE svg PUBLIC "-//W3C//DTD SVG 1.1//EN"
 "http://www.w3.org/Graphics/SVG/1.1/DTD/svg11.dtd">
<!-- Generated by graphviz version 2.34.0 (20130907.0111)
 -->
<!-- Title: jsonChildren::deleteAll Pages: 1 -->
<svg width="534pt" height="70pt"
 viewBox="0.00 0.00 534.00 70.00" xmlns="http://www.w3.org/2000/svg" xmlns:xlink="http://www.w3.org/1999/xlink">
<g id="graph0" class="graph" transform="scale(1 1) rotate(0) translate(4 66)">
<title>jsonChildren::deleteAll</title>
<polygon fill="white" stroke="white" points="-4,4 -4,-66 530,-66 530,4 -4,4"/>
<!-- Node1 -->
<g id="node1" class="node"><title>Node1</title>
<polygon fill="#bfbfbf" stroke="black" points="0,-20.5 0,-41.5 132,-41.5 132,-20.5 0,-20.5"/>
<text text-anchor="middle" x="66" y="-27.9" font-family="Helvetica,sans-Serif" font-size="12.00">jsonChildren::deleteAll</text>
</g>
<!-- Node2 -->
<g id="node2" class="node"><title>Node2</title>
<g id="a_node2"><a xlink:href="../../db/d49/classjson_children.html#ae5b065bc0e3bf8dc7c3f130c900a1e32" target="_top" xlink:title="jsonChildren::clear">
<polygon fill="white" stroke="black" points="190.5,-40.5 190.5,-61.5 303.5,-61.5 303.5,-40.5 190.5,-40.5"/>
<text text-anchor="middle" x="247" y="-47.9" font-family="Helvetica,sans-Serif" font-size="12.00">jsonChildren::clear</text>
</a>
</g>
</g>
<!-- Node1&#45;&gt;Node2 -->
<g id="edge1" class="edge"><title>Node1&#45;&gt;Node2</title>
<path fill="none" stroke="midnightblue" d="M142.097,-39.3907C158.269,-41.1977 175.087,-43.0767 190.361,-44.7833"/>
<polygon fill="midnightblue" stroke="midnightblue" points="142.456,-35.9092 132.129,-38.277 141.679,-42.8659 142.456,-35.9092"/>
</g>
<!-- Node3 -->
<g id="node3" class="node"><title>Node3</title>
<g id="a_node3"><a xlink:href="../../db/d49/classjson_children.html#a4e802eba4a1fe4736655ea44944b3662" target="_top" xlink:title="jsonChildren::~jsonChildren">
<polygon fill="white" stroke="black" points="168,-0.5 168,-21.5 326,-21.5 326,-0.5 168,-0.5"/>
<text text-anchor="middle" x="247" y="-7.9" font-family="Helvetica,sans-Serif" font-size="12.00">jsonChildren::~jsonChildren</text>
</a>
</g>
</g>
<!-- Node1&#45;&gt;Node3 -->
<g id="edge2" class="edge"><title>Node1&#45;&gt;Node3</title>
<path fill="none" stroke="midnightblue" d="M142.312,-22.5852C150.748,-21.6427 159.355,-20.681 167.826,-19.7346"/>
<polygon fill="midnightblue" stroke="midnightblue" points="141.679,-19.1341 132.129,-23.723 142.456,-26.0908 141.679,-19.1341"/>
</g>
<!-- Node4 -->
<g id="node4" class="node"><title>Node4</title>
<g id="a_node4"><a xlink:href="../../db/d49/classjson_children.html#a412672e4426b6889baa22a6b7f1e4422" target="_top" xlink:title="jsonChildren::deleteChildren">
<polygon fill="white" stroke="black" points="362.5,-0.5 362.5,-21.5 525.5,-21.5 525.5,-0.5 362.5,-0.5"/>
<text text-anchor="middle" x="444" y="-7.9" font-family="Helvetica,sans-Serif" font-size="12.00">jsonChildren::deleteChildren</text>
</a>
</g>
</g>
<!-- Node3&#45;&gt;Node4 -->
<g id="edge3" class="edge"><title>Node3&#45;&gt;Node4</title>
<path fill="none" stroke="midnightblue" d="M336.281,-11C344.929,-11 353.675,-11 362.243,-11"/>
<polygon fill="midnightblue" stroke="midnightblue" points="336.19,-7.5001 326.19,-11 336.19,-14.5001 336.19,-7.5001"/>
</g>
</g>
</svg>
