<?xml version="1.0" encoding="UTF-8" standalone="no"?>
<!DOCTYPE svg PUBLIC "-//W3C//DTD SVG 1.1//EN"
 "http://www.w3.org/Graphics/SVG/1.1/DTD/svg11.dtd">
<!-- Generated by graphviz version 2.34.0 (20130907.0111)
 -->
<!-- Title: jsonChildren::reserve2 Pages: 1 -->
<svg width="496pt" height="30pt"
 viewBox="0.00 0.00 496.00 30.00" xmlns="http://www.w3.org/2000/svg" xmlns:xlink="http://www.w3.org/1999/xlink">
<g id="graph0" class="graph" transform="scale(1 1) rotate(0) translate(4 26)">
<title>jsonChildren::reserve2</title>
<polygon fill="white" stroke="white" points="-4,4 -4,-26 492,-26 492,4 -4,4"/>
<!-- Node1 -->
<g id="node1" class="node"><title>Node1</title>
<polygon fill="#bfbfbf" stroke="black" points="0.5,-0.5 0.5,-21.5 133.5,-21.5 133.5,-0.5 0.5,-0.5"/>
<text text-anchor="middle" x="67" y="-7.9" font-family="Helvetica,sans-Serif" font-size="12.00">jsonChildren::reserve2</text>
</g>
<!-- Node2 -->
<g id="node2" class="node"><title>Node2</title>
<g id="a_node2"><a xlink:href="../../d1/d0b/classinternal_j_s_o_n_node.html#a3f0049ba61147f7892466f127cb6c49c" target="_top" xlink:title="internalJSONNode::reserve">
<polygon fill="white" stroke="black" points="170.5,-0.5 170.5,-21.5 329.5,-21.5 329.5,-0.5 170.5,-0.5"/>
<text text-anchor="middle" x="250" y="-7.9" font-family="Helvetica,sans-Serif" font-size="12.00">internalJSONNode::reserve</text>
</a>
</g>
</g>
<!-- Node1&#45;&gt;Node2 -->
<g id="edge1" class="edge"><title>Node1&#45;&gt;Node2</title>
<path fill="none" stroke="midnightblue" d="M143.802,-11C152.583,-11 161.555,-11 170.373,-11"/>
<polygon fill="midnightblue" stroke="midnightblue" points="143.601,-7.5001 133.601,-11 143.601,-14.5001 143.601,-7.5001"/>
</g>
<!-- Node3 -->
<g id="node3" class="node"><title>Node3</title>
<g id="a_node3"><a xlink:href="../../d6/dc7/class_j_s_o_n_node.html#a1de6c867df6cd62f1bf3a9646303c19f" target="_top" xlink:title="JSONNode::reserve">
<polygon fill="white" stroke="black" points="366,-0.5 366,-21.5 488,-21.5 488,-0.5 366,-0.5"/>
<text text-anchor="middle" x="427" y="-7.9" font-family="Helvetica,sans-Serif" font-size="12.00">JSONNode::reserve</text>
</a>
</g>
</g>
<!-- Node2&#45;&gt;Node3 -->
<g id="edge2" class="edge"><title>Node2&#45;&gt;Node3</title>
<path fill="none" stroke="midnightblue" d="M339.563,-11C348.45,-11 357.323,-11 365.814,-11"/>
<polygon fill="midnightblue" stroke="midnightblue" points="339.542,-7.5001 329.542,-11 339.542,-14.5001 339.542,-7.5001"/>
</g>
</g>
</svg>
