<?xml version="1.0" encoding="UTF-8" standalone="no"?>
<!DOCTYPE svg PUBLIC "-//W3C//DTD SVG 1.1//EN"
 "http://www.w3.org/Graphics/SVG/1.1/DTD/svg11.dtd">
<!-- Generated by graphviz version 2.34.0 (20130907.0111)
 -->
<!-- Title: Documentation/Operator&#45;Console/Setup.h Pages: 1 -->
<svg width="588pt" height="276pt"
 viewBox="0.00 0.00 588.00 276.00" xmlns="http://www.w3.org/2000/svg" xmlns:xlink="http://www.w3.org/1999/xlink">
<g id="graph0" class="graph" transform="scale(1 1) rotate(0) translate(4 272)">
<title>Documentation/Operator&#45;Console/Setup.h</title>
<polygon fill="white" stroke="white" points="-4,4 -4,-272 584,-272 584,4 -4,4"/>
<!-- Node1 -->
<g id="node1" class="node"><title>Node1</title>
<polygon fill="#bfbfbf" stroke="black" points="193.5,-233 193.5,-267 338.5,-267 338.5,-233 193.5,-233"/>
<text text-anchor="start" x="201.5" y="-253.4" font-family="Helvetica,sans-Serif" font-size="12.00">Documentation/Operator</text>
<text text-anchor="middle" x="266" y="-240.4" font-family="Helvetica,sans-Serif" font-size="12.00">&#45;Console/Setup.h</text>
</g>
<!-- Node2 -->
<g id="node2" class="node"><title>Node2</title>
<polygon fill="white" stroke="#bfbfbf" points="0,-58.5 0,-79.5 58,-79.5 58,-58.5 0,-58.5"/>
<text text-anchor="middle" x="29" y="-65.9" font-family="Helvetica,sans-Serif" font-size="12.00">afxwin.h</text>
</g>
<!-- Node1&#45;&gt;Node2 -->
<g id="edge1" class="edge"><title>Node1&#45;&gt;Node2</title>
<path fill="none" stroke="midnightblue" d="M244.55,-232.799C199.257,-198.591 94.37,-119.372 49.7229,-85.6515"/>
<polygon fill="midnightblue" stroke="midnightblue" points="51.7214,-82.7748 41.6322,-79.5408 47.5026,-88.3607 51.7214,-82.7748"/>
</g>
<!-- Node3 -->
<g id="node3" class="node"><title>Node3</title>
<g id="a_node3"><a xlink:href="../../d3/d79/_documentation_2_operator-_console_2setup__settings_8h.html" target="_top" xlink:title="setup_settings.h">
<polygon fill="white" stroke="black" points="215.5,-174.5 215.5,-195.5 316.5,-195.5 316.5,-174.5 215.5,-174.5"/>
<text text-anchor="middle" x="266" y="-181.9" font-family="Helvetica,sans-Serif" font-size="12.00">setup_settings.h</text>
</a>
</g>
</g>
<!-- Node1&#45;&gt;Node3 -->
<g id="edge2" class="edge"><title>Node1&#45;&gt;Node3</title>
<path fill="none" stroke="midnightblue" d="M266,-232.776C266,-224.47 266,-214.295 266,-205.559"/>
<polygon fill="midnightblue" stroke="midnightblue" points="269.5,-205.511 266,-195.511 262.5,-205.511 269.5,-205.511"/>
</g>
<!-- Node14 -->
<g id="node14" class="node"><title>Node14</title>
<polygon fill="white" stroke="#bfbfbf" points="334.5,-174.5 334.5,-195.5 447.5,-195.5 447.5,-174.5 334.5,-174.5"/>
<text text-anchor="middle" x="391" y="-181.9" font-family="Helvetica,sans-Serif" font-size="12.00">afxeditbrowsectrl.h</text>
</g>
<!-- Node1&#45;&gt;Node14 -->
<g id="edge14" class="edge"><title>Node1&#45;&gt;Node14</title>
<path fill="none" stroke="midnightblue" d="M297.866,-232.939C317.915,-222.835 343.551,-209.914 362.849,-200.188"/>
<polygon fill="midnightblue" stroke="midnightblue" points="364.675,-203.187 372.03,-195.561 361.525,-196.936 364.675,-203.187"/>
</g>
<!-- Node4 -->
<g id="node4" class="node"><title>Node4</title>
<g id="a_node4"><a xlink:href="../../d9/d2e/_documentation_2_operator-_console_2stdafx_8h.html" target="_top" xlink:title="stdafx.h">
<polygon fill="white" stroke="black" points="205,-116.5 205,-137.5 261,-137.5 261,-116.5 205,-116.5"/>
<text text-anchor="middle" x="233" y="-123.9" font-family="Helvetica,sans-Serif" font-size="12.00">stdafx.h</text>
</a>
</g>
</g>
<!-- Node3&#45;&gt;Node4 -->
<g id="edge3" class="edge"><title>Node3&#45;&gt;Node4</title>
<path fill="none" stroke="midnightblue" d="M260.252,-174.246C255.756,-166.617 249.375,-155.788 243.918,-146.527"/>
<polygon fill="midnightblue" stroke="midnightblue" points="246.775,-144.481 238.682,-137.643 240.744,-148.035 246.775,-144.481"/>
</g>
<!-- Node12 -->
<g id="node12" class="node"><title>Node12</title>
<polygon fill="white" stroke="#bfbfbf" points="279.5,-116.5 279.5,-137.5 332.5,-137.5 332.5,-116.5 279.5,-116.5"/>
<text text-anchor="middle" x="306" y="-123.9" font-family="Helvetica,sans-Serif" font-size="12.00">afxstr.h</text>
</g>
<!-- Node3&#45;&gt;Node12 -->
<g id="edge12" class="edge"><title>Node3&#45;&gt;Node12</title>
<path fill="none" stroke="midnightblue" d="M272.967,-174.246C278.531,-166.456 286.478,-155.331 293.183,-145.944"/>
<polygon fill="midnightblue" stroke="midnightblue" points="296.148,-147.814 299.112,-137.643 290.452,-143.746 296.148,-147.814"/>
</g>
<!-- Node13 -->
<g id="node13" class="node"><title>Node13</title>
<polygon fill="white" stroke="#bfbfbf" points="351,-116.5 351,-137.5 399,-137.5 399,-116.5 351,-116.5"/>
<text text-anchor="middle" x="375" y="-123.9" font-family="Helvetica,sans-Serif" font-size="12.00">vector</text>
</g>
<!-- Node3&#45;&gt;Node13 -->
<g id="edge13" class="edge"><title>Node3&#45;&gt;Node13</title>
<path fill="none" stroke="midnightblue" d="M284.986,-174.246C302.179,-165.413 327.724,-152.289 347.213,-142.276"/>
<polygon fill="midnightblue" stroke="midnightblue" points="348.936,-145.326 356.231,-137.643 345.737,-139.099 348.936,-145.326"/>
</g>
<!-- Node4&#45;&gt;Node2 -->
<g id="edge6" class="edge"><title>Node4&#45;&gt;Node2</title>
<path fill="none" stroke="midnightblue" d="M204.635,-118.213C169.008,-108.433 107.717,-91.6086 67.7783,-80.645"/>
<polygon fill="midnightblue" stroke="midnightblue" points="68.6829,-77.2639 58.1131,-77.9918 66.8298,-84.0142 68.6829,-77.2639"/>
</g>
<!-- Node5 -->
<g id="node5" class="node"><title>Node5</title>
<g id="a_node5"><a xlink:href="../../da/d3f/_documentation_2_operator-_console_2targetver_8h.html" target="_top" xlink:title="targetver.h">
<polygon fill="white" stroke="black" points="76.5,-58.5 76.5,-79.5 147.5,-79.5 147.5,-58.5 76.5,-58.5"/>
<text text-anchor="middle" x="112" y="-65.9" font-family="Helvetica,sans-Serif" font-size="12.00">targetver.h</text>
</a>
</g>
</g>
<!-- Node4&#45;&gt;Node5 -->
<g id="edge4" class="edge"><title>Node4&#45;&gt;Node5</title>
<path fill="none" stroke="midnightblue" d="M212.199,-116.373C192.776,-107.384 163.578,-93.8706 141.704,-83.7471"/>
<polygon fill="midnightblue" stroke="midnightblue" points="143.074,-80.5249 132.529,-79.5011 140.134,-86.8776 143.074,-80.5249"/>
</g>
<!-- Node7 -->
<g id="node7" class="node"><title>Node7</title>
<polygon fill="white" stroke="#bfbfbf" points="166,-58.5 166,-79.5 222,-79.5 222,-58.5 166,-58.5"/>
<text text-anchor="middle" x="194" y="-65.9" font-family="Helvetica,sans-Serif" font-size="12.00">afxext.h</text>
</g>
<!-- Node4&#45;&gt;Node7 -->
<g id="edge7" class="edge"><title>Node4&#45;&gt;Node7</title>
<path fill="none" stroke="midnightblue" d="M226.207,-116.246C220.782,-108.456 213.034,-97.3308 206.497,-87.9439"/>
<polygon fill="midnightblue" stroke="midnightblue" points="209.303,-85.8485 200.715,-79.6427 203.558,-89.849 209.303,-85.8485"/>
</g>
<!-- Node8 -->
<g id="node8" class="node"><title>Node8</title>
<polygon fill="white" stroke="#bfbfbf" points="240.5,-58.5 240.5,-79.5 303.5,-79.5 303.5,-58.5 240.5,-58.5"/>
<text text-anchor="middle" x="272" y="-65.9" font-family="Helvetica,sans-Serif" font-size="12.00">afxdisp.h</text>
</g>
<!-- Node4&#45;&gt;Node8 -->
<g id="edge8" class="edge"><title>Node4&#45;&gt;Node8</title>
<path fill="none" stroke="midnightblue" d="M239.793,-116.246C245.218,-108.456 252.966,-97.3308 259.503,-87.9439"/>
<polygon fill="midnightblue" stroke="midnightblue" points="262.442,-89.849 265.285,-79.6427 256.697,-85.8485 262.442,-89.849"/>
</g>
<!-- Node9 -->
<g id="node9" class="node"><title>Node9</title>
<polygon fill="white" stroke="#bfbfbf" points="322,-58.5 322,-79.5 384,-79.5 384,-58.5 322,-58.5"/>
<text text-anchor="middle" x="353" y="-65.9" font-family="Helvetica,sans-Serif" font-size="12.00">afxdtctl.h</text>
</g>
<!-- Node4&#45;&gt;Node9 -->
<g id="edge9" class="edge"><title>Node4&#45;&gt;Node9</title>
<path fill="none" stroke="midnightblue" d="M253.629,-116.373C272.892,-107.384 301.849,-93.8706 323.542,-83.7471"/>
<polygon fill="midnightblue" stroke="midnightblue" points="325.059,-86.9017 332.64,-79.5011 322.098,-80.5584 325.059,-86.9017"/>
</g>
<!-- Node10 -->
<g id="node10" class="node"><title>Node10</title>
<polygon fill="white" stroke="#bfbfbf" points="402,-58.5 402,-79.5 464,-79.5 464,-58.5 402,-58.5"/>
<text text-anchor="middle" x="433" y="-65.9" font-family="Helvetica,sans-Serif" font-size="12.00">afxcmn.h</text>
</g>
<!-- Node4&#45;&gt;Node10 -->
<g id="edge10" class="edge"><title>Node4&#45;&gt;Node10</title>
<path fill="none" stroke="midnightblue" d="M261.231,-118.095C295.332,-108.547 352.967,-92.4094 391.974,-81.4873"/>
<polygon fill="midnightblue" stroke="midnightblue" points="393.269,-84.7594 401.955,-78.6926 391.382,-78.0186 393.269,-84.7594"/>
</g>
<!-- Node11 -->
<g id="node11" class="node"><title>Node11</title>
<polygon fill="white" stroke="#bfbfbf" points="482,-58.5 482,-79.5 580,-79.5 580,-58.5 482,-58.5"/>
<text text-anchor="middle" x="531" y="-65.9" font-family="Helvetica,sans-Serif" font-size="12.00">afxcontrolbars.h</text>
</g>
<!-- Node4&#45;&gt;Node11 -->
<g id="edge11" class="edge"><title>Node4&#45;&gt;Node11</title>
<path fill="none" stroke="midnightblue" d="M261.159,-118.314C264.467,-117.493 267.802,-116.702 271,-116 290.257,-111.77 401.053,-92.451 471.658,-80.2335"/>
<polygon fill="midnightblue" stroke="midnightblue" points="472.51,-83.6381 481.767,-78.4851 471.317,-76.7405 472.51,-83.6381"/>
</g>
<!-- Node6 -->
<g id="node6" class="node"><title>Node6</title>
<polygon fill="white" stroke="#bfbfbf" points="64,-0.5 64,-21.5 160,-21.5 160,-0.5 64,-0.5"/>
<text text-anchor="middle" x="112" y="-7.9" font-family="Helvetica,sans-Serif" font-size="12.00">SDKDDKVer.h</text>
</g>
<!-- Node5&#45;&gt;Node6 -->
<g id="edge5" class="edge"><title>Node5&#45;&gt;Node6</title>
<path fill="none" stroke="midnightblue" d="M112,-58.2455C112,-50.9382 112,-40.6944 112,-31.7046"/>
<polygon fill="midnightblue" stroke="midnightblue" points="115.5,-31.6426 112,-21.6427 108.5,-31.6427 115.5,-31.6426"/>
</g>
</g>
</svg>
