<?xml version="1.0" encoding="UTF-8" standalone="no"?>
<!DOCTYPE svg PUBLIC "-//W3C//DTD SVG 1.1//EN"
 "http://www.w3.org/Graphics/SVG/1.1/DTD/svg11.dtd">
<!-- Generated by graphviz version 2.34.0 (20130907.0111)
 -->
<!-- Title: Documentation/Operator&#45;Console/CriticalCString.cpp Pages: 1 -->
<svg width="174pt" height="160pt"
 viewBox="0.00 0.00 174.00 160.00" xmlns="http://www.w3.org/2000/svg" xmlns:xlink="http://www.w3.org/1999/xlink">
<g id="graph0" class="graph" transform="scale(1 1) rotate(0) translate(4 156)">
<title>Documentation/Operator&#45;Console/CriticalCString.cpp</title>
<polygon fill="white" stroke="white" points="-4,4 -4,-156 170,-156 170,4 -4,4"/>
<!-- Node1 -->
<g id="node1" class="node"><title>Node1</title>
<polygon fill="#bfbfbf" stroke="black" points="0,-117 0,-151 166,-151 166,-117 0,-117"/>
<text text-anchor="start" x="8" y="-137.4" font-family="Helvetica,sans-Serif" font-size="12.00">Documentation/Operator</text>
<text text-anchor="middle" x="83" y="-124.4" font-family="Helvetica,sans-Serif" font-size="12.00">&#45;Console/CriticalCString.cpp</text>
</g>
<!-- Node2 -->
<g id="node2" class="node"><title>Node2</title>
<g id="a_node2"><a xlink:href="../../de/dc8/_documentation_2_operator-_console_2_critical_c_string_8h.html" target="_top" xlink:title="CriticalCString.h">
<polygon fill="white" stroke="black" points="32,-58.5 32,-79.5 134,-79.5 134,-58.5 32,-58.5"/>
<text text-anchor="middle" x="83" y="-65.9" font-family="Helvetica,sans-Serif" font-size="12.00">CriticalCString.h</text>
</a>
</g>
</g>
<!-- Node1&#45;&gt;Node2 -->
<g id="edge1" class="edge"><title>Node1&#45;&gt;Node2</title>
<path fill="none" stroke="midnightblue" d="M83,-116.776C83,-108.47 83,-98.2953 83,-89.5587"/>
<polygon fill="midnightblue" stroke="midnightblue" points="86.5001,-89.5106 83,-79.5106 79.5001,-89.5107 86.5001,-89.5106"/>
</g>
<!-- Node3 -->
<g id="node3" class="node"><title>Node3</title>
<polygon fill="white" stroke="#bfbfbf" points="23.5,-0.5 23.5,-21.5 76.5,-21.5 76.5,-0.5 23.5,-0.5"/>
<text text-anchor="middle" x="50" y="-7.9" font-family="Helvetica,sans-Serif" font-size="12.00">afxmt.h</text>
</g>
<!-- Node2&#45;&gt;Node3 -->
<g id="edge2" class="edge"><title>Node2&#45;&gt;Node3</title>
<path fill="none" stroke="midnightblue" d="M77.2518,-58.2455C72.7565,-50.617 66.3752,-39.7881 60.9175,-30.5267"/>
<polygon fill="midnightblue" stroke="midnightblue" points="63.7747,-28.4811 55.6823,-21.6427 57.7439,-32.035 63.7747,-28.4811"/>
</g>
<!-- Node4 -->
<g id="node4" class="node"><title>Node4</title>
<polygon fill="white" stroke="#bfbfbf" points="94.5,-0.5 94.5,-21.5 139.5,-21.5 139.5,-0.5 94.5,-0.5"/>
<text text-anchor="middle" x="117" y="-7.9" font-family="Helvetica,sans-Serif" font-size="12.00">string</text>
</g>
<!-- Node2&#45;&gt;Node4 -->
<g id="edge3" class="edge"><title>Node2&#45;&gt;Node4</title>
<path fill="none" stroke="midnightblue" d="M88.9223,-58.2455C93.6027,-50.5367 100.267,-39.5598 105.929,-30.2348"/>
<polygon fill="midnightblue" stroke="midnightblue" points="108.947,-32.007 111.146,-21.6427 102.964,-28.3741 108.947,-32.007"/>
</g>
</g>
</svg>
