<?xml version="1.0" encoding="UTF-8" standalone="no"?>
<!DOCTYPE svg PUBLIC "-//W3C//DTD SVG 1.1//EN"
 "http://www.w3.org/Graphics/SVG/1.1/DTD/svg11.dtd">
<!-- Generated by graphviz version 2.34.0 (20130907.0111)
 -->
<!-- Title: entry::assign_value Pages: 1 -->
<svg width="472pt" height="42pt"
 viewBox="0.00 0.00 472.00 42.00" xmlns="http://www.w3.org/2000/svg" xmlns:xlink="http://www.w3.org/1999/xlink">
<g id="graph0" class="graph" transform="scale(1 1) rotate(0) translate(4 38)">
<title>entry::assign_value</title>
<polygon fill="white" stroke="white" points="-4,4 -4,-38 468,-38 468,4 -4,4"/>
<!-- Node1 -->
<g id="node1" class="node"><title>Node1</title>
<polygon fill="#bfbfbf" stroke="black" points="0,-6.5 0,-27.5 116,-27.5 116,-6.5 0,-6.5"/>
<text text-anchor="middle" x="58" y="-13.9" font-family="Helvetica,sans-Serif" font-size="12.00">entry::assign_value</text>
</g>
<!-- Node2 -->
<g id="node2" class="node"><title>Node2</title>
<g id="a_node2"><a xlink:href="../../d3/d9f/class_c_operator_console_app.html#a864bc0130d261b22868920143919ceb7" target="_top" xlink:title="This function reads in the pass/fail variable values as in the pass/fail file listed in the imatest I...">
<polygon fill="white" stroke="black" points="152.5,-0 152.5,-34 289.5,-34 289.5,-0 152.5,-0"/>
<text text-anchor="start" x="160.5" y="-20.4" font-family="Helvetica,sans-Serif" font-size="12.00">COperatorConsoleApp</text>
<text text-anchor="middle" x="221" y="-7.4" font-family="Helvetica,sans-Serif" font-size="12.00">::ReadPassFail</text>
</a>
</g>
</g>
<!-- Node1&#45;&gt;Node2 -->
<g id="edge1" class="edge"><title>Node1&#45;&gt;Node2</title>
<path fill="none" stroke="midnightblue" d="M126.479,-17C134.996,-17 143.712,-17 152.234,-17"/>
<polygon fill="midnightblue" stroke="midnightblue" points="126.216,-13.5001 116.216,-17 126.216,-20.5001 126.216,-13.5001"/>
</g>
<!-- Node3 -->
<g id="node3" class="node"><title>Node3</title>
<g id="a_node3"><a xlink:href="../../d3/d9f/class_c_operator_console_app.html#a94f4b258145e77e31644beb999bf099a" target="_top" xlink:title="COperatorConsoleApp initialization. ">
<polygon fill="white" stroke="black" points="326.5,-0 326.5,-34 463.5,-34 463.5,-0 326.5,-0"/>
<text text-anchor="start" x="334.5" y="-20.4" font-family="Helvetica,sans-Serif" font-size="12.00">COperatorConsoleApp</text>
<text text-anchor="middle" x="395" y="-7.4" font-family="Helvetica,sans-Serif" font-size="12.00">::InitInstance</text>
</a>
</g>
</g>
<!-- Node2&#45;&gt;Node3 -->
<g id="edge2" class="edge"><title>Node2&#45;&gt;Node3</title>
<path fill="none" stroke="midnightblue" d="M300.134,-17C308.846,-17 317.666,-17 326.233,-17"/>
<polygon fill="midnightblue" stroke="midnightblue" points="299.979,-13.5001 289.979,-17 299.979,-20.5001 299.979,-13.5001"/>
</g>
</g>
</svg>
