<?xml version="1.0" encoding="UTF-8" standalone="no"?>
<!DOCTYPE svg PUBLIC "-//W3C//DTD SVG 1.1//EN"
 "http://www.w3.org/Graphics/SVG/1.1/DTD/svg11.dtd">
<!-- Generated by graphviz version 2.34.0 (20130907.0111)
 -->
<!-- Title: Timestamp::Get Pages: 1 -->
<svg width="1194pt" height="312pt"
 viewBox="0.00 0.00 1194.00 312.00" xmlns="http://www.w3.org/2000/svg" xmlns:xlink="http://www.w3.org/1999/xlink">
<g id="graph0" class="graph" transform="scale(1 1) rotate(0) translate(4 308)">
<title>Timestamp::Get</title>
<polygon fill="white" stroke="white" points="-4,4 -4,-308 1190,-308 1190,4 -4,4"/>
<!-- Node1 -->
<g id="node1" class="node"><title>Node1</title>
<polygon fill="#bfbfbf" stroke="black" points="0,-202.5 0,-223.5 100,-223.5 100,-202.5 0,-202.5"/>
<text text-anchor="middle" x="50" y="-209.9" font-family="Helvetica,sans-Serif" font-size="12.00">Timestamp::Get</text>
</g>
<!-- Node2 -->
<g id="node2" class="node"><title>Node2</title>
<g id="a_node2"><a xlink:href="../../da/d92/class_image_test.html#aca5fb71bfeae5b95079e97e3cb22d40a" target="_top" xlink:title="ImageTest::GetDataNode">
<polygon fill="white" stroke="black" points="147,-282.5 147,-303.5 297,-303.5 297,-282.5 147,-282.5"/>
<text text-anchor="middle" x="222" y="-289.9" font-family="Helvetica,sans-Serif" font-size="12.00">ImageTest::GetDataNode</text>
</a>
</g>
</g>
<!-- Node1&#45;&gt;Node2 -->
<g id="edge1" class="edge"><title>Node1&#45;&gt;Node2</title>
<path fill="none" stroke="midnightblue" d="M70.5464,-230.121C86.9641,-243.647 111.593,-262.016 136,-273 144.433,-276.795 153.673,-279.917 162.857,-282.471"/>
<polygon fill="midnightblue" stroke="midnightblue" points="72.6564,-227.322 62.7542,-223.554 68.1454,-232.675 72.6564,-227.322"/>
</g>
<!-- Node3 -->
<g id="node3" class="node"><title>Node3</title>
<g id="a_node3"><a xlink:href="../../da/d92/class_image_test.html#a45319e33d6d338270ca12a6fdc3f0efd" target="_top" xlink:title="ImageTest::GetPassFailNode">
<polygon fill="white" stroke="black" points="136.5,-242.5 136.5,-263.5 307.5,-263.5 307.5,-242.5 136.5,-242.5"/>
<text text-anchor="middle" x="222" y="-249.9" font-family="Helvetica,sans-Serif" font-size="12.00">ImageTest::GetPassFailNode</text>
</a>
</g>
</g>
<!-- Node1&#45;&gt;Node3 -->
<g id="edge2" class="edge"><title>Node1&#45;&gt;Node3</title>
<path fill="none" stroke="midnightblue" d="M105.564,-225.839C128.42,-231.216 154.658,-237.39 176.338,-242.491"/>
<polygon fill="midnightblue" stroke="midnightblue" points="106.201,-222.393 95.6655,-223.51 104.598,-229.207 106.201,-222.393"/>
</g>
<!-- Node4 -->
<g id="node4" class="node"><title>Node4</title>
<g id="a_node4"><a xlink:href="../../da/d92/class_image_test.html#a3115f3892d84abcde05ab105ae4aaa8f" target="_top" xlink:title="ImageTest::GetString">
<polygon fill="white" stroke="black" points="158.5,-202.5 158.5,-223.5 285.5,-223.5 285.5,-202.5 158.5,-202.5"/>
<text text-anchor="middle" x="222" y="-209.9" font-family="Helvetica,sans-Serif" font-size="12.00">ImageTest::GetString</text>
</a>
</g>
</g>
<!-- Node1&#45;&gt;Node4 -->
<g id="edge3" class="edge"><title>Node1&#45;&gt;Node4</title>
<path fill="none" stroke="midnightblue" d="M110.184,-213C125.737,-213 142.565,-213 158.296,-213"/>
<polygon fill="midnightblue" stroke="midnightblue" points="110.171,-209.5 100.171,-213 110.171,-216.5 110.171,-209.5"/>
</g>
<!-- Node5 -->
<g id="node5" class="node"><title>Node5</title>
<g id="a_node5"><a xlink:href="../../dd/dd1/class_c_operator_console_dlg.html#ae937941b5c3b8b9655ad4f2f91c7ea9a" target="_top" xlink:title="COperatorConsoleDlg\l::LogMessage">
<polygon fill="white" stroke="black" points="347,-107 347,-141 481,-141 481,-107 347,-107"/>
<text text-anchor="start" x="355" y="-127.4" font-family="Helvetica,sans-Serif" font-size="12.00">COperatorConsoleDlg</text>
<text text-anchor="middle" x="414" y="-114.4" font-family="Helvetica,sans-Serif" font-size="12.00">::LogMessage</text>
</a>
</g>
</g>
<!-- Node1&#45;&gt;Node5 -->
<g id="edge4" class="edge"><title>Node1&#45;&gt;Node5</title>
<path fill="none" stroke="midnightblue" d="M69.6463,-195.526C85.8555,-181.461 110.659,-162.524 136,-153 204.685,-127.187 289.273,-121.786 346.776,-121.669"/>
<polygon fill="midnightblue" stroke="midnightblue" points="67.1214,-193.088 61.996,-202.361 71.7852,-198.308 67.1214,-193.088"/>
</g>
<!-- Node14 -->
<g id="node14" class="node"><title>Node14</title>
<g id="a_node14"><a xlink:href="../../da/d92/class_image_test.html#a7334d76c1cc6780f46626be5b9ff1adb" target="_top" xlink:title="Runs the test pointed to by m_imatestFunc. ">
<polygon fill="white" stroke="black" points="173,-162.5 173,-183.5 271,-183.5 271,-162.5 173,-162.5"/>
<text text-anchor="middle" x="222" y="-169.9" font-family="Helvetica,sans-Serif" font-size="12.00">ImageTest::Run</text>
</a>
</g>
</g>
<!-- Node1&#45;&gt;Node14 -->
<g id="edge16" class="edge"><title>Node1&#45;&gt;Node14</title>
<path fill="none" stroke="midnightblue" d="M105.564,-200.161C128.42,-194.784 154.658,-188.61 176.338,-183.509"/>
<polygon fill="midnightblue" stroke="midnightblue" points="104.598,-196.793 95.6655,-202.49 106.201,-203.607 104.598,-196.793"/>
</g>
<!-- Node6 -->
<g id="node6" class="node"><title>Node6</title>
<g id="a_node6"><a xlink:href="../../d3/d9f/class_c_operator_console_app.html#a5e4a6598aa6a33636d283e29f19c76ca" target="_top" xlink:title="COperatorConsoleApp\l::GetStdoutMsg">
<polygon fill="white" stroke="black" points="697.5,-107 697.5,-141 834.5,-141 834.5,-107 697.5,-107"/>
<text text-anchor="start" x="705.5" y="-127.4" font-family="Helvetica,sans-Serif" font-size="12.00">COperatorConsoleApp</text>
<text text-anchor="middle" x="766" y="-114.4" font-family="Helvetica,sans-Serif" font-size="12.00">::GetStdoutMsg</text>
</a>
</g>
</g>
<!-- Node5&#45;&gt;Node6 -->
<g id="edge5" class="edge"><title>Node5&#45;&gt;Node6</title>
<path fill="none" stroke="midnightblue" d="M491.268,-124C552.681,-124 638.206,-124 697.238,-124"/>
<polygon fill="midnightblue" stroke="midnightblue" points="491.244,-120.5 481.244,-124 491.244,-127.5 491.244,-120.5"/>
</g>
<!-- Node10 -->
<g id="node10" class="node"><title>Node10</title>
<g id="a_node10"><a xlink:href="../../d3/d9f/class_c_operator_console_app.html#a61fec0ac8bc8938749e977686e37e0dc" target="_top" xlink:title="COperatorConsoleApp\l::UpdateResults">
<polygon fill="white" stroke="black" points="520.5,-53 520.5,-87 657.5,-87 657.5,-53 520.5,-53"/>
<text text-anchor="start" x="528.5" y="-73.4" font-family="Helvetica,sans-Serif" font-size="12.00">COperatorConsoleApp</text>
<text text-anchor="middle" x="589" y="-60.4" font-family="Helvetica,sans-Serif" font-size="12.00">::UpdateResults</text>
</a>
</g>
</g>
<!-- Node5&#45;&gt;Node10 -->
<g id="edge10" class="edge"><title>Node5&#45;&gt;Node10</title>
<path fill="none" stroke="midnightblue" d="M479.428,-103.889C497.153,-98.3568 516.203,-92.4106 533.321,-87.0674"/>
<polygon fill="midnightblue" stroke="midnightblue" points="478.241,-100.593 469.738,-106.914 480.327,-107.275 478.241,-100.593"/>
</g>
<!-- Node7 -->
<g id="node7" class="node"><title>Node7</title>
<g id="a_node7"><a xlink:href="../../d3/d9f/class_c_operator_console_app.html#a5ffde398d86b31aa60e8dbb3cd0cf8f4" target="_top" xlink:title="Called after MSG_STDERR is received. ">
<polygon fill="white" stroke="black" points="874.5,-92 874.5,-126 1011.5,-126 1011.5,-92 874.5,-92"/>
<text text-anchor="start" x="882.5" y="-112.4" font-family="Helvetica,sans-Serif" font-size="12.00">COperatorConsoleApp</text>
<text text-anchor="middle" x="943" y="-99.4" font-family="Helvetica,sans-Serif" font-size="12.00">::OnUpdateStderr</text>
</a>
</g>
</g>
<!-- Node6&#45;&gt;Node7 -->
<g id="edge6" class="edge"><title>Node6&#45;&gt;Node7</title>
<path fill="none" stroke="midnightblue" d="M844.804,-117.331C854.616,-116.49 864.592,-115.635 874.232,-114.809"/>
<polygon fill="midnightblue" stroke="midnightblue" points="844.324,-113.859 834.66,-118.201 844.922,-120.834 844.324,-113.859"/>
</g>
<!-- Node9 -->
<g id="node9" class="node"><title>Node9</title>
<g id="a_node9"><a xlink:href="../../d3/d9f/class_c_operator_console_app.html#a1baba590ed8125440723c012ff6a4e77" target="_top" xlink:title="Called after MSG_STDOUT is received. ">
<polygon fill="white" stroke="black" points="874.5,-145 874.5,-179 1011.5,-179 1011.5,-145 874.5,-145"/>
<text text-anchor="start" x="882.5" y="-165.4" font-family="Helvetica,sans-Serif" font-size="12.00">COperatorConsoleApp</text>
<text text-anchor="middle" x="943" y="-152.4" font-family="Helvetica,sans-Serif" font-size="12.00">::OnUpdateStdout</text>
</a>
</g>
</g>
<!-- Node6&#45;&gt;Node9 -->
<g id="edge8" class="edge"><title>Node6&#45;&gt;Node9</title>
<path fill="none" stroke="midnightblue" d="M844.494,-140.827C854.406,-142.98 864.491,-145.169 874.232,-147.285"/>
<polygon fill="midnightblue" stroke="midnightblue" points="845.175,-137.394 834.66,-138.692 843.689,-144.234 845.175,-137.394"/>
</g>
<!-- Node8 -->
<g id="node8" class="node"><title>Node8</title>
<g id="a_node8"><a xlink:href="../../d3/d9f/class_c_operator_console_app.html#a7041d197c4e6549f2cb7219981b4eec1" target="_top" xlink:title="Intercepts messages of interest before Windows or MFC. ">
<polygon fill="white" stroke="black" points="1048,-92 1048,-126 1186,-126 1186,-92 1048,-92"/>
<text text-anchor="start" x="1056" y="-112.4" font-family="Helvetica,sans-Serif" font-size="12.00">COperatorConsoleApp</text>
<text text-anchor="middle" x="1117" y="-99.4" font-family="Helvetica,sans-Serif" font-size="12.00">::PreTranslateMessage</text>
</a>
</g>
</g>
<!-- Node7&#45;&gt;Node8 -->
<g id="edge7" class="edge"><title>Node7&#45;&gt;Node8</title>
<path fill="none" stroke="midnightblue" d="M1022.05,-109C1030.7,-109 1039.45,-109 1047.95,-109"/>
<polygon fill="midnightblue" stroke="midnightblue" points="1021.98,-105.5 1011.98,-109 1021.98,-112.5 1021.98,-105.5"/>
</g>
<!-- Node9&#45;&gt;Node8 -->
<g id="edge9" class="edge"><title>Node9&#45;&gt;Node8</title>
<path fill="none" stroke="midnightblue" d="M1009.21,-141.906C1026.19,-136.673 1044.32,-131.086 1060.74,-126.029"/>
<polygon fill="midnightblue" stroke="midnightblue" points="1007.89,-138.649 999.369,-144.939 1009.96,-145.339 1007.89,-138.649"/>
</g>
<!-- Node11 -->
<g id="node11" class="node"><title>Node11</title>
<g id="a_node11"><a xlink:href="../../d3/d9f/class_c_operator_console_app.html#aeed50eef07f7d6350dffd5730793908c" target="_top" xlink:title="Called after MSG_BLEMISH_DONE is received. ">
<polygon fill="white" stroke="black" points="697.5,-53 697.5,-87 834.5,-87 834.5,-53 697.5,-53"/>
<text text-anchor="start" x="705.5" y="-73.4" font-family="Helvetica,sans-Serif" font-size="12.00">COperatorConsoleApp</text>
<text text-anchor="middle" x="766" y="-60.4" font-family="Helvetica,sans-Serif" font-size="12.00">::OnBlemishDone</text>
</a>
</g>
</g>
<!-- Node10&#45;&gt;Node11 -->
<g id="edge11" class="edge"><title>Node10&#45;&gt;Node11</title>
<path fill="none" stroke="midnightblue" d="M667.804,-70C677.616,-70 687.592,-70 697.232,-70"/>
<polygon fill="midnightblue" stroke="midnightblue" points="667.66,-66.5001 657.66,-70 667.66,-73.5001 667.66,-66.5001"/>
</g>
<!-- Node12 -->
<g id="node12" class="node"><title>Node12</title>
<g id="a_node12"><a xlink:href="../../d3/d9f/class_c_operator_console_app.html#afcaa58d4a5fb9c7cff5e35ae64e1420c" target="_top" xlink:title="COperatorConsoleApp\l::UpdateResultsSFRplus">
<polygon fill="white" stroke="black" points="694,-0 694,-34 838,-34 838,-0 694,-0"/>
<text text-anchor="start" x="702" y="-20.4" font-family="Helvetica,sans-Serif" font-size="12.00">COperatorConsoleApp</text>
<text text-anchor="middle" x="766" y="-7.4" font-family="Helvetica,sans-Serif" font-size="12.00">::UpdateResultsSFRplus</text>
</a>
</g>
</g>
<!-- Node10&#45;&gt;Node12 -->
<g id="edge13" class="edge"><title>Node10&#45;&gt;Node12</title>
<path fill="none" stroke="midnightblue" d="M656.349,-49.9056C673.626,-44.6732 692.073,-39.0863 708.771,-34.0293"/>
<polygon fill="midnightblue" stroke="midnightblue" points="654.891,-46.6904 646.334,-52.9387 656.92,-53.3899 654.891,-46.6904"/>
</g>
<!-- Node11&#45;&gt;Node8 -->
<g id="edge12" class="edge"><title>Node11&#45;&gt;Node8</title>
<path fill="none" stroke="midnightblue" d="M844.79,-69.751C893.154,-70.5981 956.485,-73.526 1012,-82 1027.4,-84.3504 1043.82,-88.04 1058.95,-91.9451"/>
<polygon fill="midnightblue" stroke="midnightblue" points="844.756,-66.2502 834.705,-69.6006 844.651,-73.2494 844.756,-66.2502"/>
</g>
<!-- Node13 -->
<g id="node13" class="node"><title>Node13</title>
<g id="a_node13"><a xlink:href="../../d3/d9f/class_c_operator_console_app.html#a58fa1716c660b80c55845b79505ff4d6" target="_top" xlink:title="Called after MSG_SFRPLUS_DONE is received. ">
<polygon fill="white" stroke="black" points="874.5,-0 874.5,-34 1011.5,-34 1011.5,-0 874.5,-0"/>
<text text-anchor="start" x="882.5" y="-20.4" font-family="Helvetica,sans-Serif" font-size="12.00">COperatorConsoleApp</text>
<text text-anchor="middle" x="943" y="-7.4" font-family="Helvetica,sans-Serif" font-size="12.00">::OnSFRplusDone</text>
</a>
</g>
</g>
<!-- Node12&#45;&gt;Node13 -->
<g id="edge14" class="edge"><title>Node12&#45;&gt;Node13</title>
<path fill="none" stroke="midnightblue" d="M848.318,-17C857.005,-17 865.773,-17 874.278,-17"/>
<polygon fill="midnightblue" stroke="midnightblue" points="848.179,-13.5001 838.179,-17 848.179,-20.5001 848.179,-13.5001"/>
</g>
<!-- Node13&#45;&gt;Node8 -->
<g id="edge15" class="edge"><title>Node13&#45;&gt;Node8</title>
<path fill="none" stroke="midnightblue" d="M991.165,-38.5705C998.197,-41.9663 1005.32,-45.5101 1012,-49 1038.05,-62.613 1066.95,-79.432 1087.66,-91.7958"/>
<polygon fill="midnightblue" stroke="midnightblue" points="992.219,-35.1956 981.686,-34.0506 989.206,-41.514 992.219,-35.1956"/>
</g>
<!-- Node15 -->
<g id="node15" class="node"><title>Node15</title>
<g id="a_node15"><a xlink:href="../../da/d92/class_image_test.html#accf2cfff6fe48fd19888727208dd6728" target="_top" xlink:title="ImageTest::Run">
<polygon fill="white" stroke="black" points="365,-162.5 365,-183.5 463,-183.5 463,-162.5 365,-162.5"/>
<text text-anchor="middle" x="414" y="-169.9" font-family="Helvetica,sans-Serif" font-size="12.00">ImageTest::Run</text>
</a>
</g>
</g>
<!-- Node14&#45;&gt;Node15 -->
<g id="edge17" class="edge"><title>Node14&#45;&gt;Node15</title>
<path fill="none" stroke="midnightblue" d="M281.457,-173C308.242,-173 339.601,-173 364.981,-173"/>
<polygon fill="midnightblue" stroke="midnightblue" points="281.437,-169.5 271.437,-173 281.437,-176.5 281.437,-169.5"/>
</g>
<!-- Node16 -->
<g id="node16" class="node"><title>Node16</title>
<g id="a_node16"><a xlink:href="../../da/d92/class_image_test.html#a372478d09c06cd7ab3684840add6215e" target="_top" xlink:title="param must be a pointer to a ThreadControl object; param&#45;&gt;m_data must point to an ImageTest object ...">
<polygon fill="white" stroke="black" points="344.5,-204.5 344.5,-225.5 483.5,-225.5 483.5,-204.5 344.5,-204.5"/>
<text text-anchor="middle" x="414" y="-211.9" font-family="Helvetica,sans-Serif" font-size="12.00">ImageTest::ThreadProc</text>
</a>
</g>
</g>
<!-- Node14&#45;&gt;Node16 -->
<g id="edge18" class="edge"><title>Node14&#45;&gt;Node16</title>
<path fill="none" stroke="midnightblue" d="M281.048,-185.832C308.07,-191.805 339.818,-198.823 365.4,-204.478"/>
<polygon fill="midnightblue" stroke="midnightblue" points="281.465,-182.339 270.945,-183.598 279.954,-189.174 281.465,-182.339"/>
</g>
<!-- Node17 -->
<g id="node17" class="node"><title>Node17</title>
<g id="a_node17"><a xlink:href="../../d3/d9f/class_c_operator_console_app.html#a51ad7e6e8f370072c3e89d0d7e9e41a8" target="_top" xlink:title="COperatorConsoleApp\l::InitBlemishThread">
<polygon fill="white" stroke="black" points="520.5,-251 520.5,-285 657.5,-285 657.5,-251 520.5,-251"/>
<text text-anchor="start" x="528.5" y="-271.4" font-family="Helvetica,sans-Serif" font-size="12.00">COperatorConsoleApp</text>
<text text-anchor="middle" x="589" y="-258.4" font-family="Helvetica,sans-Serif" font-size="12.00">::InitBlemishThread</text>
</a>
</g>
</g>
<!-- Node16&#45;&gt;Node17 -->
<g id="edge19" class="edge"><title>Node16&#45;&gt;Node17</title>
<path fill="none" stroke="midnightblue" d="M459.427,-228.611C481.647,-235.418 508.762,-243.725 532.354,-250.952"/>
<polygon fill="midnightblue" stroke="midnightblue" points="460.18,-225.181 449.593,-225.598 458.129,-231.874 460.18,-225.181"/>
</g>
<!-- Node22 -->
<g id="node22" class="node"><title>Node22</title>
<g id="a_node22"><a xlink:href="../../d3/d9f/class_c_operator_console_app.html#af7328d2c00abb1d4a09a65492c69b2b0" target="_top" xlink:title="COperatorConsoleApp\l::InitSFRplusThread">
<polygon fill="white" stroke="black" points="520.5,-198 520.5,-232 657.5,-232 657.5,-198 520.5,-198"/>
<text text-anchor="start" x="528.5" y="-218.4" font-family="Helvetica,sans-Serif" font-size="12.00">COperatorConsoleApp</text>
<text text-anchor="middle" x="589" y="-205.4" font-family="Helvetica,sans-Serif" font-size="12.00">::InitSFRplusThread</text>
</a>
</g>
</g>
<!-- Node16&#45;&gt;Node22 -->
<g id="edge25" class="edge"><title>Node16&#45;&gt;Node22</title>
<path fill="none" stroke="midnightblue" d="M494.139,-215C502.945,-215 511.852,-215 520.494,-215"/>
<polygon fill="midnightblue" stroke="midnightblue" points="493.871,-211.5 483.871,-215 493.871,-218.5 493.871,-211.5"/>
</g>
<!-- Node18 -->
<g id="node18" class="node"><title>Node18</title>
<g id="a_node18"><a xlink:href="../../d3/d9f/class_c_operator_console_app.html#a7f0cd7b21cee2171dea973e4e6e7bb9d" target="_top" xlink:title="Init perform application&#45;specific initialization. ">
<polygon fill="white" stroke="black" points="697.5,-251 697.5,-285 834.5,-285 834.5,-251 697.5,-251"/>
<text text-anchor="start" x="705.5" y="-271.4" font-family="Helvetica,sans-Serif" font-size="12.00">COperatorConsoleApp</text>
<text text-anchor="middle" x="766" y="-258.4" font-family="Helvetica,sans-Serif" font-size="12.00">::Init</text>
</a>
</g>
</g>
<!-- Node17&#45;&gt;Node18 -->
<g id="edge20" class="edge"><title>Node17&#45;&gt;Node18</title>
<path fill="none" stroke="midnightblue" d="M667.804,-268C677.616,-268 687.592,-268 697.232,-268"/>
<polygon fill="midnightblue" stroke="midnightblue" points="667.66,-264.5 657.66,-268 667.66,-271.5 667.66,-264.5"/>
</g>
<!-- Node20 -->
<g id="node20" class="node"><title>Node20</title>
<g id="a_node20"><a xlink:href="../../d3/d9f/class_c_operator_console_app.html#aede77af6cae8053d49c752fd95910728" target="_top" xlink:title="This function allows for reallocation of the various image buffers when we change the image size...">
<polygon fill="white" stroke="black" points="697.5,-198 697.5,-232 834.5,-232 834.5,-198 697.5,-198"/>
<text text-anchor="start" x="705.5" y="-218.4" font-family="Helvetica,sans-Serif" font-size="12.00">COperatorConsoleApp</text>
<text text-anchor="middle" x="766" y="-205.4" font-family="Helvetica,sans-Serif" font-size="12.00">::ReInit</text>
</a>
</g>
</g>
<!-- Node17&#45;&gt;Node20 -->
<g id="edge22" class="edge"><title>Node17&#45;&gt;Node20</title>
<path fill="none" stroke="midnightblue" d="M656.349,-247.906C673.626,-242.673 692.073,-237.086 708.771,-232.029"/>
<polygon fill="midnightblue" stroke="midnightblue" points="654.891,-244.69 646.334,-250.939 656.92,-251.39 654.891,-244.69"/>
</g>
<!-- Node19 -->
<g id="node19" class="node"><title>Node19</title>
<g id="a_node19"><a xlink:href="../../d3/d9f/class_c_operator_console_app.html#a94f4b258145e77e31644beb999bf099a" target="_top" xlink:title="COperatorConsoleApp initialization. ">
<polygon fill="white" stroke="black" points="874.5,-251 874.5,-285 1011.5,-285 1011.5,-251 874.5,-251"/>
<text text-anchor="start" x="882.5" y="-271.4" font-family="Helvetica,sans-Serif" font-size="12.00">COperatorConsoleApp</text>
<text text-anchor="middle" x="943" y="-258.4" font-family="Helvetica,sans-Serif" font-size="12.00">::InitInstance</text>
</a>
</g>
</g>
<!-- Node18&#45;&gt;Node19 -->
<g id="edge21" class="edge"><title>Node18&#45;&gt;Node19</title>
<path fill="none" stroke="midnightblue" d="M844.804,-268C854.616,-268 864.592,-268 874.232,-268"/>
<polygon fill="midnightblue" stroke="midnightblue" points="844.66,-264.5 834.66,-268 844.66,-271.5 844.66,-264.5"/>
</g>
<!-- Node21 -->
<g id="node21" class="node"><title>Node21</title>
<g id="a_node21"><a xlink:href="../../d3/d9f/class_c_operator_console_app.html#a620f8d2eed65d743bb177abcb90936e6" target="_top" xlink:title="Called after MSG_SETUP is received. ">
<polygon fill="white" stroke="black" points="874.5,-198 874.5,-232 1011.5,-232 1011.5,-198 874.5,-198"/>
<text text-anchor="start" x="882.5" y="-218.4" font-family="Helvetica,sans-Serif" font-size="12.00">COperatorConsoleApp</text>
<text text-anchor="middle" x="943" y="-205.4" font-family="Helvetica,sans-Serif" font-size="12.00">::OnSetup</text>
</a>
</g>
</g>
<!-- Node20&#45;&gt;Node21 -->
<g id="edge23" class="edge"><title>Node20&#45;&gt;Node21</title>
<path fill="none" stroke="midnightblue" d="M844.804,-215C854.616,-215 864.592,-215 874.232,-215"/>
<polygon fill="midnightblue" stroke="midnightblue" points="844.66,-211.5 834.66,-215 844.66,-218.5 844.66,-211.5"/>
</g>
<!-- Node21&#45;&gt;Node8 -->
<g id="edge24" class="edge"><title>Node21&#45;&gt;Node8</title>
<path fill="none" stroke="midnightblue" d="M1001.24,-193.606C1004.94,-191.818 1008.55,-189.946 1012,-188 1043.79,-170.058 1076.73,-143.437 1096.8,-126.151"/>
<polygon fill="midnightblue" stroke="midnightblue" points="999.584,-190.516 991.957,-197.87 1002.51,-196.877 999.584,-190.516"/>
</g>
<!-- Node22&#45;&gt;Node18 -->
<g id="edge26" class="edge"><title>Node22&#45;&gt;Node18</title>
<path fill="none" stroke="midnightblue" d="M656.349,-235.094C673.626,-240.327 692.073,-245.914 708.771,-250.971"/>
<polygon fill="midnightblue" stroke="midnightblue" points="656.92,-231.61 646.334,-232.061 654.891,-238.31 656.92,-231.61"/>
</g>
<!-- Node22&#45;&gt;Node20 -->
<g id="edge27" class="edge"><title>Node22&#45;&gt;Node20</title>
<path fill="none" stroke="midnightblue" d="M667.804,-215C677.616,-215 687.592,-215 697.232,-215"/>
<polygon fill="midnightblue" stroke="midnightblue" points="667.66,-211.5 657.66,-215 667.66,-218.5 667.66,-211.5"/>
</g>
</g>
</svg>
