<?xml version="1.0" encoding="UTF-8" standalone="no"?>
<!DOCTYPE svg PUBLIC "-//W3C//DTD SVG 1.1//EN"
 "http://www.w3.org/Graphics/SVG/1.1/DTD/svg11.dtd">
<!-- Generated by graphviz version 2.34.0 (20130907.0111)
 -->
<!-- Title: minMaxEntry::assign_value Pages: 1 -->
<svg width="480pt" height="42pt"
 viewBox="0.00 0.00 480.00 42.00" xmlns="http://www.w3.org/2000/svg" xmlns:xlink="http://www.w3.org/1999/xlink">
<g id="graph0" class="graph" transform="scale(1 1) rotate(0) translate(4 38)">
<title>minMaxEntry::assign_value</title>
<polygon fill="white" stroke="white" points="-4,4 -4,-38 476,-38 476,4 -4,4"/>
<!-- Node1 -->
<g id="node1" class="node"><title>Node1</title>
<polygon fill="#bfbfbf" stroke="black" points="0,-0 0,-34 124,-34 124,-0 0,-0"/>
<text text-anchor="start" x="8" y="-20.4" font-family="Helvetica,sans-Serif" font-size="12.00">minMaxEntry::assign</text>
<text text-anchor="middle" x="62" y="-7.4" font-family="Helvetica,sans-Serif" font-size="12.00">_value</text>
</g>
<!-- Node2 -->
<g id="node2" class="node"><title>Node2</title>
<g id="a_node2"><a xlink:href="../../d3/d9f/class_c_operator_console_app.html#a864bc0130d261b22868920143919ceb7" target="_top" xlink:title="This function reads in the pass/fail variable values as in the pass/fail file listed in the imatest I...">
<polygon fill="white" stroke="black" points="160.5,-0 160.5,-34 297.5,-34 297.5,-0 160.5,-0"/>
<text text-anchor="start" x="168.5" y="-20.4" font-family="Helvetica,sans-Serif" font-size="12.00">COperatorConsoleApp</text>
<text text-anchor="middle" x="229" y="-7.4" font-family="Helvetica,sans-Serif" font-size="12.00">::ReadPassFail</text>
</a>
</g>
</g>
<!-- Node1&#45;&gt;Node2 -->
<g id="edge1" class="edge"><title>Node1&#45;&gt;Node2</title>
<path fill="none" stroke="midnightblue" d="M134.457,-17C143.073,-17 151.853,-17 160.412,-17"/>
<polygon fill="midnightblue" stroke="midnightblue" points="134.44,-13.5001 124.44,-17 134.44,-20.5001 134.44,-13.5001"/>
</g>
<!-- Node3 -->
<g id="node3" class="node"><title>Node3</title>
<g id="a_node3"><a xlink:href="../../d3/d9f/class_c_operator_console_app.html#a94f4b258145e77e31644beb999bf099a" target="_top" xlink:title="COperatorConsoleApp initialization. ">
<polygon fill="white" stroke="black" points="334.5,-0 334.5,-34 471.5,-34 471.5,-0 334.5,-0"/>
<text text-anchor="start" x="342.5" y="-20.4" font-family="Helvetica,sans-Serif" font-size="12.00">COperatorConsoleApp</text>
<text text-anchor="middle" x="403" y="-7.4" font-family="Helvetica,sans-Serif" font-size="12.00">::InitInstance</text>
</a>
</g>
</g>
<!-- Node2&#45;&gt;Node3 -->
<g id="edge2" class="edge"><title>Node2&#45;&gt;Node3</title>
<path fill="none" stroke="midnightblue" d="M308.134,-17C316.846,-17 325.666,-17 334.233,-17"/>
<polygon fill="midnightblue" stroke="midnightblue" points="307.979,-13.5001 297.979,-17 307.979,-20.5001 307.979,-13.5001"/>
</g>
</g>
</svg>
