<?xml version="1.0" encoding="UTF-8" standalone="no"?>
<!DOCTYPE svg PUBLIC "-//W3C//DTD SVG 1.1//EN"
 "http://www.w3.org/Graphics/SVG/1.1/DTD/svg11.dtd">
<!-- Generated by graphviz version 2.34.0 (20130907.0111)
 -->
<!-- Title: Documentation/Operator&#45;Console/TextDlg.cpp Pages: 1 -->
<svg width="706pt" height="218pt"
 viewBox="0.00 0.00 706.00 218.00" xmlns="http://www.w3.org/2000/svg" xmlns:xlink="http://www.w3.org/1999/xlink">
<g id="graph0" class="graph" transform="scale(1 1) rotate(0) translate(4 214)">
<title>Documentation/Operator&#45;Console/TextDlg.cpp</title>
<polygon fill="white" stroke="white" points="-4,4 -4,-214 702,-214 702,4 -4,4"/>
<!-- Node1 -->
<g id="node1" class="node"><title>Node1</title>
<polygon fill="#bfbfbf" stroke="black" points="490.5,-175 490.5,-209 635.5,-209 635.5,-175 490.5,-175"/>
<text text-anchor="start" x="498.5" y="-195.4" font-family="Helvetica,sans-Serif" font-size="12.00">Documentation/Operator</text>
<text text-anchor="middle" x="563" y="-182.4" font-family="Helvetica,sans-Serif" font-size="12.00">&#45;Console/TextDlg.cpp</text>
</g>
<!-- Node2 -->
<g id="node2" class="node"><title>Node2</title>
<g id="a_node2"><a xlink:href="../../d9/d2e/_documentation_2_operator-_console_2stdafx_8h.html" target="_top" xlink:title="stdafx.h">
<polygon fill="white" stroke="black" points="301,-116.5 301,-137.5 357,-137.5 357,-116.5 301,-116.5"/>
<text text-anchor="middle" x="329" y="-123.9" font-family="Helvetica,sans-Serif" font-size="12.00">stdafx.h</text>
</a>
</g>
</g>
<!-- Node1&#45;&gt;Node2 -->
<g id="edge1" class="edge"><title>Node1&#45;&gt;Node2</title>
<path fill="none" stroke="midnightblue" d="M503.346,-174.939C460.398,-163.376 403.753,-148.126 366.864,-138.194"/>
<polygon fill="midnightblue" stroke="midnightblue" points="367.577,-134.761 357.011,-135.541 365.757,-141.521 367.577,-134.761"/>
</g>
<!-- Node11 -->
<g id="node11" class="node"><title>Node11</title>
<g id="a_node11"><a xlink:href="../../df/d07/_documentation_2_operator-_console_2_text_dlg_8h.html" target="_top" xlink:title="TextDlg.h">
<polygon fill="white" stroke="black" points="530.5,-116.5 530.5,-137.5 595.5,-137.5 595.5,-116.5 530.5,-116.5"/>
<text text-anchor="middle" x="563" y="-123.9" font-family="Helvetica,sans-Serif" font-size="12.00">TextDlg.h</text>
</a>
</g>
</g>
<!-- Node1&#45;&gt;Node11 -->
<g id="edge10" class="edge"><title>Node1&#45;&gt;Node11</title>
<path fill="none" stroke="midnightblue" d="M563,-174.776C563,-166.47 563,-156.295 563,-147.559"/>
<polygon fill="midnightblue" stroke="midnightblue" points="566.5,-147.511 563,-137.511 559.5,-147.511 566.5,-147.511"/>
</g>
<!-- Node13 -->
<g id="node13" class="node"><title>Node13</title>
<polygon fill="white" stroke="#bfbfbf" points="613.5,-116.5 613.5,-137.5 698.5,-137.5 698.5,-116.5 613.5,-116.5"/>
<text text-anchor="middle" x="656" y="-123.9" font-family="Helvetica,sans-Serif" font-size="12.00">afxdialogex.h</text>
</g>
<!-- Node1&#45;&gt;Node13 -->
<g id="edge13" class="edge"><title>Node1&#45;&gt;Node13</title>
<path fill="none" stroke="midnightblue" d="M586.95,-174.776C601.254,-165.086 619.314,-152.852 633.377,-143.326"/>
<polygon fill="midnightblue" stroke="midnightblue" points="635.644,-146.017 641.961,-137.511 631.718,-140.221 635.644,-146.017"/>
</g>
<!-- Node3 -->
<g id="node3" class="node"><title>Node3</title>
<g id="a_node3"><a xlink:href="../../da/d3f/_documentation_2_operator-_console_2targetver_8h.html" target="_top" xlink:title="targetver.h">
<polygon fill="white" stroke="black" points="12.5,-58.5 12.5,-79.5 83.5,-79.5 83.5,-58.5 12.5,-58.5"/>
<text text-anchor="middle" x="48" y="-65.9" font-family="Helvetica,sans-Serif" font-size="12.00">targetver.h</text>
</a>
</g>
</g>
<!-- Node2&#45;&gt;Node3 -->
<g id="edge2" class="edge"><title>Node2&#45;&gt;Node3</title>
<path fill="none" stroke="midnightblue" d="M300.979,-120.784C258.457,-112.815 174.851,-96.9406 93.7217,-80.1105"/>
<polygon fill="midnightblue" stroke="midnightblue" points="94.3466,-76.6657 83.8431,-78.0538 92.9198,-83.5187 94.3466,-76.6657"/>
</g>
<!-- Node5 -->
<g id="node5" class="node"><title>Node5</title>
<polygon fill="white" stroke="#bfbfbf" points="534,-58.5 534,-79.5 592,-79.5 592,-58.5 534,-58.5"/>
<text text-anchor="middle" x="563" y="-65.9" font-family="Helvetica,sans-Serif" font-size="12.00">afxwin.h</text>
</g>
<!-- Node2&#45;&gt;Node5 -->
<g id="edge4" class="edge"><title>Node2&#45;&gt;Node5</title>
<path fill="none" stroke="midnightblue" d="M357.295,-119.61C393.586,-111.359 458.712,-96.3712 523.933,-80.2197"/>
<polygon fill="midnightblue" stroke="midnightblue" points="525.114,-83.5328 533.974,-77.7239 523.425,-76.7395 525.114,-83.5328"/>
</g>
<!-- Node6 -->
<g id="node6" class="node"><title>Node6</title>
<polygon fill="white" stroke="#bfbfbf" points="102,-58.5 102,-79.5 158,-79.5 158,-58.5 102,-58.5"/>
<text text-anchor="middle" x="130" y="-65.9" font-family="Helvetica,sans-Serif" font-size="12.00">afxext.h</text>
</g>
<!-- Node2&#45;&gt;Node6 -->
<g id="edge5" class="edge"><title>Node2&#45;&gt;Node6</title>
<path fill="none" stroke="midnightblue" d="M300.91,-118.095C266.193,-108.326 206.961,-91.6574 168.151,-80.7361"/>
<polygon fill="midnightblue" stroke="midnightblue" points="168.843,-77.2947 158.268,-77.9549 166.946,-84.033 168.843,-77.2947"/>
</g>
<!-- Node7 -->
<g id="node7" class="node"><title>Node7</title>
<polygon fill="white" stroke="#bfbfbf" points="176.5,-58.5 176.5,-79.5 239.5,-79.5 239.5,-58.5 176.5,-58.5"/>
<text text-anchor="middle" x="208" y="-65.9" font-family="Helvetica,sans-Serif" font-size="12.00">afxdisp.h</text>
</g>
<!-- Node2&#45;&gt;Node7 -->
<g id="edge6" class="edge"><title>Node2&#45;&gt;Node7</title>
<path fill="none" stroke="midnightblue" d="M308.199,-116.373C288.776,-107.384 259.578,-93.8706 237.704,-83.7471"/>
<polygon fill="midnightblue" stroke="midnightblue" points="239.074,-80.5249 228.529,-79.5011 236.134,-86.8776 239.074,-80.5249"/>
</g>
<!-- Node8 -->
<g id="node8" class="node"><title>Node8</title>
<polygon fill="white" stroke="#bfbfbf" points="258,-58.5 258,-79.5 320,-79.5 320,-58.5 258,-58.5"/>
<text text-anchor="middle" x="289" y="-65.9" font-family="Helvetica,sans-Serif" font-size="12.00">afxdtctl.h</text>
</g>
<!-- Node2&#45;&gt;Node8 -->
<g id="edge7" class="edge"><title>Node2&#45;&gt;Node8</title>
<path fill="none" stroke="midnightblue" d="M322.033,-116.246C316.469,-108.456 308.522,-97.3308 301.817,-87.9439"/>
<polygon fill="midnightblue" stroke="midnightblue" points="304.548,-85.7457 295.888,-79.6427 298.852,-89.8144 304.548,-85.7457"/>
</g>
<!-- Node9 -->
<g id="node9" class="node"><title>Node9</title>
<polygon fill="white" stroke="#bfbfbf" points="338,-58.5 338,-79.5 400,-79.5 400,-58.5 338,-58.5"/>
<text text-anchor="middle" x="369" y="-65.9" font-family="Helvetica,sans-Serif" font-size="12.00">afxcmn.h</text>
</g>
<!-- Node2&#45;&gt;Node9 -->
<g id="edge8" class="edge"><title>Node2&#45;&gt;Node9</title>
<path fill="none" stroke="midnightblue" d="M335.967,-116.246C341.531,-108.456 349.478,-97.3308 356.183,-87.9439"/>
<polygon fill="midnightblue" stroke="midnightblue" points="359.148,-89.8144 362.112,-79.6427 353.452,-85.7457 359.148,-89.8144"/>
</g>
<!-- Node10 -->
<g id="node10" class="node"><title>Node10</title>
<polygon fill="white" stroke="#bfbfbf" points="418,-58.5 418,-79.5 516,-79.5 516,-58.5 418,-58.5"/>
<text text-anchor="middle" x="467" y="-65.9" font-family="Helvetica,sans-Serif" font-size="12.00">afxcontrolbars.h</text>
</g>
<!-- Node2&#45;&gt;Node10 -->
<g id="edge9" class="edge"><title>Node2&#45;&gt;Node10</title>
<path fill="none" stroke="midnightblue" d="M352.723,-116.373C375.174,-107.263 409.074,-93.5062 434.125,-83.3404"/>
<polygon fill="midnightblue" stroke="midnightblue" points="435.636,-86.5045 443.587,-79.5011 433.004,-80.0182 435.636,-86.5045"/>
</g>
<!-- Node4 -->
<g id="node4" class="node"><title>Node4</title>
<polygon fill="white" stroke="#bfbfbf" points="0,-0.5 0,-21.5 96,-21.5 96,-0.5 0,-0.5"/>
<text text-anchor="middle" x="48" y="-7.9" font-family="Helvetica,sans-Serif" font-size="12.00">SDKDDKVer.h</text>
</g>
<!-- Node3&#45;&gt;Node4 -->
<g id="edge3" class="edge"><title>Node3&#45;&gt;Node4</title>
<path fill="none" stroke="midnightblue" d="M48,-58.2455C48,-50.9382 48,-40.6944 48,-31.7046"/>
<polygon fill="midnightblue" stroke="midnightblue" points="51.5001,-31.6426 48,-21.6427 44.5001,-31.6427 51.5001,-31.6426"/>
</g>
<!-- Node11&#45;&gt;Node5 -->
<g id="edge11" class="edge"><title>Node11&#45;&gt;Node5</title>
<path fill="none" stroke="midnightblue" d="M563,-116.246C563,-108.938 563,-98.6944 563,-89.7046"/>
<polygon fill="midnightblue" stroke="midnightblue" points="566.5,-89.6426 563,-79.6427 559.5,-89.6427 566.5,-89.6426"/>
</g>
<!-- Node12 -->
<g id="node12" class="node"><title>Node12</title>
<g id="a_node12"><a xlink:href="../../d9/de8/_documentation_2_operator-_console_2resource_8h.html" target="_top" xlink:title="resource.h">
<polygon fill="white" stroke="black" points="610.5,-58.5 610.5,-79.5 681.5,-79.5 681.5,-58.5 610.5,-58.5"/>
<text text-anchor="middle" x="646" y="-65.9" font-family="Helvetica,sans-Serif" font-size="12.00">resource.h</text>
</a>
</g>
</g>
<!-- Node11&#45;&gt;Node12 -->
<g id="edge12" class="edge"><title>Node11&#45;&gt;Node12</title>
<path fill="none" stroke="midnightblue" d="M577.457,-116.246C590.073,-107.734 608.594,-95.2375 623.205,-85.3801"/>
<polygon fill="midnightblue" stroke="midnightblue" points="625.376,-88.1371 631.708,-79.6427 621.461,-82.3343 625.376,-88.1371"/>
</g>
</g>
</svg>
