<?xml version="1.0" encoding="UTF-8" standalone="no"?>
<!DOCTYPE svg PUBLIC "-//W3C//DTD SVG 1.1//EN"
 "http://www.w3.org/Graphics/SVG/1.1/DTD/svg11.dtd">
<!-- Generated by graphviz version 2.34.0 (20130907.0111)
 -->
<!-- Title: Documentation/Operator&#45;Console/JSON/JSONNode.h Pages: 1 -->
<svg width="2338pt" height="488pt"
 viewBox="0.00 0.00 2338.00 488.00" xmlns="http://www.w3.org/2000/svg" xmlns:xlink="http://www.w3.org/1999/xlink">
<g id="graph0" class="graph" transform="scale(1 1) rotate(0) translate(4 484)">
<title>Documentation/Operator&#45;Console/JSON/JSONNode.h</title>
<polygon fill="white" stroke="white" points="-4,4 -4,-484 2334,-484 2334,4 -4,4"/>
<!-- Node1 -->
<g id="node1" class="node"><title>Node1</title>
<polygon fill="#bfbfbf" stroke="black" points="1421,-445 1421,-479 1591,-479 1591,-445 1421,-445"/>
<text text-anchor="start" x="1429" y="-465.4" font-family="Helvetica,sans-Serif" font-size="12.00">Documentation/Operator</text>
<text text-anchor="middle" x="1506" y="-452.4" font-family="Helvetica,sans-Serif" font-size="12.00">&#45;Console/JSON/JSONNode.h</text>
</g>
<!-- Node2 -->
<g id="node2" class="node"><title>Node2</title>
<g id="a_node2"><a xlink:href="../../d6/d7b/_documentation_2_operator-_console_2libjson_8h.html" target="_top" xlink:title="Documentation/Operator\l&#45;Console/libjson.h">
<polygon fill="white" stroke="black" points="877.5,-289 877.5,-323 1022.5,-323 1022.5,-289 877.5,-289"/>
<text text-anchor="start" x="885.5" y="-309.4" font-family="Helvetica,sans-Serif" font-size="12.00">Documentation/Operator</text>
<text text-anchor="middle" x="950" y="-296.4" font-family="Helvetica,sans-Serif" font-size="12.00">&#45;Console/libjson.h</text>
</a>
</g>
</g>
<!-- Node1&#45;&gt;Node2 -->
<g id="edge1" class="edge"><title>Node1&#45;&gt;Node2</title>
<path fill="none" stroke="midnightblue" d="M1410.87,-444.014C1362.65,-434.701 1303.36,-422.172 1251,-408 1157.62,-382.726 1050.81,-344.638 992.872,-323.183"/>
<polygon fill="midnightblue" stroke="midnightblue" points="1410.5,-447.508 1420.98,-445.952 1411.82,-440.633 1410.5,-447.508"/>
</g>
<!-- Node20 -->
<g id="node20" class="node"><title>Node20</title>
<g id="a_node20"><a xlink:href="../../df/d03/_documentation_2_operator-_console_2_j_s_o_n_2_j_s_o_n_worker_8h.html" target="_top" xlink:title="Documentation/Operator\l&#45;Console/JSON/JSONWorker.h">
<polygon fill="white" stroke="black" points="1260,-367 1260,-401 1440,-401 1440,-367 1260,-367"/>
<text text-anchor="start" x="1268" y="-387.4" font-family="Helvetica,sans-Serif" font-size="12.00">Documentation/Operator</text>
<text text-anchor="middle" x="1350" y="-374.4" font-family="Helvetica,sans-Serif" font-size="12.00">&#45;Console/JSON/JSONWorker.h</text>
</a>
</g>
</g>
<!-- Node1&#45;&gt;Node20 -->
<g id="edge23" class="edge"><title>Node1&#45;&gt;Node20</title>
<path fill="none" stroke="midnightblue" d="M1463.88,-440.481C1438.49,-428.109 1406.6,-412.576 1383.04,-401.094"/>
<polygon fill="midnightblue" stroke="midnightblue" points="1462.39,-443.649 1472.92,-444.882 1465.46,-437.356 1462.39,-443.649"/>
</g>
<!-- Node21 -->
<g id="node21" class="node"><title>Node21</title>
<g id="a_node21"><a xlink:href="../../d7/d97/_documentation_2_operator-_console_2_j_s_o_n_2internal_j_s_o_n_node_8cpp.html" target="_top" xlink:title="Documentation/Operator\l&#45;Console/JSON/internalJSONNode.cpp">
<polygon fill="white" stroke="black" points="1465.5,-289 1465.5,-323 1686.5,-323 1686.5,-289 1465.5,-289"/>
<text text-anchor="start" x="1473.5" y="-309.4" font-family="Helvetica,sans-Serif" font-size="12.00">Documentation/Operator</text>
<text text-anchor="middle" x="1576" y="-296.4" font-family="Helvetica,sans-Serif" font-size="12.00">&#45;Console/JSON/internalJSONNode.cpp</text>
</a>
</g>
</g>
<!-- Node1&#45;&gt;Node21 -->
<g id="edge32" class="edge"><title>Node1&#45;&gt;Node21</title>
<path fill="none" stroke="midnightblue" d="M1494.23,-435.441C1486.21,-414.018 1479.16,-383.285 1492,-360 1501.08,-343.541 1517.65,-331.49 1533.7,-323.076"/>
<polygon fill="midnightblue" stroke="midnightblue" points="1491.04,-436.895 1498.03,-444.853 1497.53,-434.27 1491.04,-436.895"/>
</g>
<!-- Node24 -->
<g id="node24" class="node"><title>Node24</title>
<g id="a_node24"><a xlink:href="../../d7/dfe/_documentation_2_operator-_console_2_j_s_o_n_2_j_s_o_n_writer_8cpp.html" target="_top" xlink:title="Documentation/Operator\l&#45;Console/JSON/JSONWriter.cpp">
<polygon fill="white" stroke="black" points="1704.5,-289 1704.5,-323 1891.5,-323 1891.5,-289 1704.5,-289"/>
<text text-anchor="start" x="1712.5" y="-309.4" font-family="Helvetica,sans-Serif" font-size="12.00">Documentation/Operator</text>
<text text-anchor="middle" x="1798" y="-296.4" font-family="Helvetica,sans-Serif" font-size="12.00">&#45;Console/JSON/JSONWriter.cpp</text>
</a>
</g>
</g>
<!-- Node1&#45;&gt;Node24 -->
<g id="edge37" class="edge"><title>Node1&#45;&gt;Node24</title>
<path fill="none" stroke="midnightblue" d="M1503.71,-434.781C1503.24,-411.895 1506.55,-379.393 1526,-360 1532.51,-353.514 1628.09,-335.899 1704.13,-322.745"/>
<polygon fill="midnightblue" stroke="midnightblue" points="1500.21,-435.01 1504.16,-444.841 1507.21,-434.693 1500.21,-435.01"/>
</g>
<!-- Node25 -->
<g id="node25" class="node"><title>Node25</title>
<g id="a_node25"><a xlink:href="../../d6/de0/_documentation_2_operator-_console_2_j_s_o_n_2_j_s_o_n_preparse_8h.html" target="_top" xlink:title="Documentation/Operator\l&#45;Console/JSON/JSONPreparse.h">
<polygon fill="white" stroke="black" points="854.5,-367 854.5,-401 1045.5,-401 1045.5,-367 854.5,-367"/>
<text text-anchor="start" x="862.5" y="-387.4" font-family="Helvetica,sans-Serif" font-size="12.00">Documentation/Operator</text>
<text text-anchor="middle" x="950" y="-374.4" font-family="Helvetica,sans-Serif" font-size="12.00">&#45;Console/JSON/JSONPreparse.h</text>
</a>
</g>
</g>
<!-- Node1&#45;&gt;Node25 -->
<g id="edge29" class="edge"><title>Node1&#45;&gt;Node25</title>
<path fill="none" stroke="midnightblue" d="M1410.97,-448.01C1309.01,-434.074 1148.01,-412.066 1045.77,-398.091"/>
<polygon fill="midnightblue" stroke="midnightblue" points="1410.57,-451.488 1420.95,-449.375 1411.52,-444.552 1410.57,-451.488"/>
</g>
<!-- Node27 -->
<g id="node27" class="node"><title>Node27</title>
<g id="a_node27"><a xlink:href="../../df/d4e/_documentation_2_operator-_console_2_j_s_o_n_2_j_s_o_n_children_8cpp.html" target="_top" xlink:title="Documentation/Operator\l&#45;Console/JSON/JSONChildren.cpp">
<polygon fill="white" stroke="black" points="1534.5,-367 1534.5,-401 1733.5,-401 1733.5,-367 1534.5,-367"/>
<text text-anchor="start" x="1542.5" y="-387.4" font-family="Helvetica,sans-Serif" font-size="12.00">Documentation/Operator</text>
<text text-anchor="middle" x="1634" y="-374.4" font-family="Helvetica,sans-Serif" font-size="12.00">&#45;Console/JSON/JSONChildren.cpp</text>
</a>
</g>
</g>
<!-- Node1&#45;&gt;Node27 -->
<g id="edge33" class="edge"><title>Node1&#45;&gt;Node27</title>
<path fill="none" stroke="midnightblue" d="M1541.94,-439.662C1562.54,-427.429 1587.98,-412.324 1606.89,-401.094"/>
<polygon fill="midnightblue" stroke="midnightblue" points="1539.96,-436.767 1533.15,-444.882 1543.53,-442.786 1539.96,-436.767"/>
</g>
<!-- Node28 -->
<g id="node28" class="node"><title>Node28</title>
<g id="a_node28"><a xlink:href="../../de/dfb/_documentation_2_operator-_console_2_j_s_o_n_2_j_s_o_n_iterators_8cpp.html" target="_top" xlink:title="Documentation/Operator\l&#45;Console/JSON/JSONIterators.cpp">
<polygon fill="white" stroke="black" points="1751.5,-367 1751.5,-401 1948.5,-401 1948.5,-367 1751.5,-367"/>
<text text-anchor="start" x="1759.5" y="-387.4" font-family="Helvetica,sans-Serif" font-size="12.00">Documentation/Operator</text>
<text text-anchor="middle" x="1850" y="-374.4" font-family="Helvetica,sans-Serif" font-size="12.00">&#45;Console/JSON/JSONIterators.cpp</text>
</a>
</g>
</g>
<!-- Node1&#45;&gt;Node28 -->
<g id="edge34" class="edge"><title>Node1&#45;&gt;Node28</title>
<path fill="none" stroke="midnightblue" d="M1588.34,-442.808C1645.97,-430.076 1722.25,-413.224 1777.57,-401.003"/>
<polygon fill="midnightblue" stroke="midnightblue" points="1587.54,-439.4 1578.53,-444.975 1589.05,-446.235 1587.54,-439.4"/>
</g>
<!-- Node29 -->
<g id="node29" class="node"><title>Node29</title>
<g id="a_node29"><a xlink:href="../../db/d8a/_documentation_2_operator-_console_2_j_s_o_n_2_j_s_o_n_node_8cpp.html" target="_top" xlink:title="Documentation/Operator\l&#45;Console/JSON/JSONNode.cpp">
<polygon fill="white" stroke="black" points="1967,-367 1967,-401 2151,-401 2151,-367 1967,-367"/>
<text text-anchor="start" x="1975" y="-387.4" font-family="Helvetica,sans-Serif" font-size="12.00">Documentation/Operator</text>
<text text-anchor="middle" x="2059" y="-374.4" font-family="Helvetica,sans-Serif" font-size="12.00">&#45;Console/JSON/JSONNode.cpp</text>
</a>
</g>
</g>
<!-- Node1&#45;&gt;Node29 -->
<g id="edge35" class="edge"><title>Node1&#45;&gt;Node29</title>
<path fill="none" stroke="midnightblue" d="M1601.25,-452.731C1692.81,-444.093 1834.91,-428.88 1957,-408 1968.54,-406.026 1980.74,-403.587 1992.54,-401.042"/>
<polygon fill="midnightblue" stroke="midnightblue" points="1600.8,-449.258 1591.17,-453.675 1601.45,-456.227 1600.8,-449.258"/>
</g>
<!-- Node30 -->
<g id="node30" class="node"><title>Node30</title>
<g id="a_node30"><a xlink:href="../../d3/d25/_documentation_2_operator-_console_2_j_s_o_n_2_j_s_o_n_node___mutex_8cpp.html" target="_top" xlink:title="Documentation/Operator\l&#45;Console/JSON/JSONNode\l_Mutex.cpp">
<polygon fill="white" stroke="black" points="2169.5,-360.5 2169.5,-407.5 2330.5,-407.5 2330.5,-360.5 2169.5,-360.5"/>
<text text-anchor="start" x="2177.5" y="-393.9" font-family="Helvetica,sans-Serif" font-size="12.00">Documentation/Operator</text>
<text text-anchor="start" x="2177.5" y="-380.9" font-family="Helvetica,sans-Serif" font-size="12.00">&#45;Console/JSON/JSONNode</text>
<text text-anchor="middle" x="2250" y="-367.9" font-family="Helvetica,sans-Serif" font-size="12.00">_Mutex.cpp</text>
</a>
</g>
</g>
<!-- Node1&#45;&gt;Node30 -->
<g id="edge36" class="edge"><title>Node1&#45;&gt;Node30</title>
<path fill="none" stroke="midnightblue" d="M1601.38,-458.326C1729.28,-453.59 1963.09,-440.896 2160,-408 2163.02,-407.495 2166.09,-406.938 2169.18,-406.341"/>
<polygon fill="midnightblue" stroke="midnightblue" points="1601.09,-454.834 1591.22,-458.693 1601.34,-461.829 1601.09,-454.834"/>
</g>
<!-- Node3 -->
<g id="node3" class="node"><title>Node3</title>
<g id="a_node3"><a xlink:href="../../d5/dd6/_documentation_2_operator-_console_2_image_test_8h.html" target="_top" xlink:title="Documentation/Operator\l&#45;Console/ImageTest.h">
<polygon fill="white" stroke="black" points="622.5,-217 622.5,-251 767.5,-251 767.5,-217 622.5,-217"/>
<text text-anchor="start" x="630.5" y="-237.4" font-family="Helvetica,sans-Serif" font-size="12.00">Documentation/Operator</text>
<text text-anchor="middle" x="695" y="-224.4" font-family="Helvetica,sans-Serif" font-size="12.00">&#45;Console/ImageTest.h</text>
</a>
</g>
</g>
<!-- Node2&#45;&gt;Node3 -->
<g id="edge2" class="edge"><title>Node2&#45;&gt;Node3</title>
<path fill="none" stroke="midnightblue" d="M881.827,-286.286C841.857,-275.314 791.877,-261.594 753.671,-251.106"/>
<polygon fill="midnightblue" stroke="midnightblue" points="880.928,-289.668 891.498,-288.941 882.781,-282.918 880.928,-289.668"/>
</g>
<!-- Node17 -->
<g id="node17" class="node"><title>Node17</title>
<g id="a_node17"><a xlink:href="../../d6/d7f/_documentation_2_operator-_console_2_s_f_rplus_test_8cpp.html" target="_top" xlink:title="Documentation/Operator\l&#45;Console/SFRplusTest.cpp">
<polygon fill="white" stroke="black" points="818.5,-73 818.5,-107 975.5,-107 975.5,-73 818.5,-73"/>
<text text-anchor="start" x="826.5" y="-93.4" font-family="Helvetica,sans-Serif" font-size="12.00">Documentation/Operator</text>
<text text-anchor="middle" x="897" y="-80.4" font-family="Helvetica,sans-Serif" font-size="12.00">&#45;Console/SFRplusTest.cpp</text>
</a>
</g>
</g>
<!-- Node2&#45;&gt;Node17 -->
<g id="edge22" class="edge"><title>Node2&#45;&gt;Node17</title>
<path fill="none" stroke="midnightblue" d="M930.991,-280.477C925.262,-271.903 919.557,-261.93 916,-252 897.874,-201.391 896.219,-136.678 896.547,-107.079"/>
<polygon fill="midnightblue" stroke="midnightblue" points="928.263,-282.682 936.881,-288.844 933.987,-278.653 928.263,-282.682"/>
</g>
<!-- Node18 -->
<g id="node18" class="node"><title>Node18</title>
<g id="a_node18"><a xlink:href="../../d5/d65/_documentation_2_operator-_console_2_j_s_o_n_2libjson_8cpp.html" target="_top" xlink:title="Documentation/Operator\l&#45;Console/JSON/libjson.cpp">
<polygon fill="white" stroke="black" points="925.5,-217 925.5,-251 1082.5,-251 1082.5,-217 925.5,-217"/>
<text text-anchor="start" x="933.5" y="-237.4" font-family="Helvetica,sans-Serif" font-size="12.00">Documentation/Operator</text>
<text text-anchor="middle" x="1004" y="-224.4" font-family="Helvetica,sans-Serif" font-size="12.00">&#45;Console/JSON/libjson.cpp</text>
</a>
</g>
</g>
<!-- Node2&#45;&gt;Node18 -->
<g id="edge20" class="edge"><title>Node2&#45;&gt;Node18</title>
<path fill="none" stroke="midnightblue" d="M968.828,-280.593C976.351,-270.842 984.808,-259.879 991.544,-251.147"/>
<polygon fill="midnightblue" stroke="midnightblue" points="965.861,-278.709 962.524,-288.765 971.404,-282.985 965.861,-278.709"/>
</g>
<!-- Node19 -->
<g id="node19" class="node"><title>Node19</title>
<g id="a_node19"><a xlink:href="../../d0/d59/_documentation_2_operator-_console_2jsonhelpers_8cpp.html" target="_top" xlink:title="Documentation/Operator\l&#45;Console/jsonhelpers.cpp">
<polygon fill="white" stroke="black" points="1100.5,-217 1100.5,-251 1249.5,-251 1249.5,-217 1100.5,-217"/>
<text text-anchor="start" x="1108.5" y="-237.4" font-family="Helvetica,sans-Serif" font-size="12.00">Documentation/Operator</text>
<text text-anchor="middle" x="1175" y="-224.4" font-family="Helvetica,sans-Serif" font-size="12.00">&#45;Console/jsonhelpers.cpp</text>
</a>
</g>
</g>
<!-- Node2&#45;&gt;Node19 -->
<g id="edge21" class="edge"><title>Node2&#45;&gt;Node19</title>
<path fill="none" stroke="midnightblue" d="M1011.27,-285.937C1046.35,-275.024 1089.88,-261.483 1123.23,-251.106"/>
<polygon fill="midnightblue" stroke="midnightblue" points="1010.13,-282.628 1001.62,-288.941 1012.21,-289.312 1010.13,-282.628"/>
</g>
<!-- Node4 -->
<g id="node4" class="node"><title>Node4</title>
<g id="a_node4"><a xlink:href="../../da/df8/_documentation_2_operator-_console_2_blemish_test_8h.html" target="_top" xlink:title="Documentation/Operator\l&#45;Console/BlemishTest.h">
<polygon fill="white" stroke="black" points="521.5,-145 521.5,-179 666.5,-179 666.5,-145 521.5,-145"/>
<text text-anchor="start" x="529.5" y="-165.4" font-family="Helvetica,sans-Serif" font-size="12.00">Documentation/Operator</text>
<text text-anchor="middle" x="594" y="-152.4" font-family="Helvetica,sans-Serif" font-size="12.00">&#45;Console/BlemishTest.h</text>
</a>
</g>
</g>
<!-- Node3&#45;&gt;Node4 -->
<g id="edge3" class="edge"><title>Node3&#45;&gt;Node4</title>
<path fill="none" stroke="midnightblue" d="M663.411,-211.107C648.531,-200.793 631.09,-188.706 617.413,-179.227"/>
<polygon fill="midnightblue" stroke="midnightblue" points="661.616,-214.121 671.829,-216.941 665.603,-208.368 661.616,-214.121"/>
</g>
<!-- Node5 -->
<g id="node5" class="node"><title>Node5</title>
<g id="a_node5"><a xlink:href="../../da/d65/_documentation_2_operator-_console_2_operator_console_8h.html" target="_top" xlink:title="Documentation/Operator\l&#45;Console/OperatorConsole.h">
<polygon fill="white" stroke="black" points="634,-73 634,-107 800,-107 800,-73 634,-73"/>
<text text-anchor="start" x="642" y="-93.4" font-family="Helvetica,sans-Serif" font-size="12.00">Documentation/Operator</text>
<text text-anchor="middle" x="717" y="-80.4" font-family="Helvetica,sans-Serif" font-size="12.00">&#45;Console/OperatorConsole.h</text>
</a>
</g>
</g>
<!-- Node3&#45;&gt;Node5 -->
<g id="edge15" class="edge"><title>Node3&#45;&gt;Node5</title>
<path fill="none" stroke="midnightblue" d="M699.071,-206.726C703.587,-177.574 710.733,-131.451 714.494,-107.173"/>
<polygon fill="midnightblue" stroke="midnightblue" points="695.553,-206.569 697.481,-216.987 702.471,-207.641 695.553,-206.569"/>
</g>
<!-- Node8 -->
<g id="node8" class="node"><title>Node8</title>
<g id="a_node8"><a xlink:href="../../da/df9/_documentation_2_operator-_console_2_image_test_8cpp.html" target="_top" xlink:title="Documentation/Operator\l&#45;Console/ImageTest.cpp">
<polygon fill="white" stroke="black" points="-0.5,-1 -0.5,-35 144.5,-35 144.5,-1 -0.5,-1"/>
<text text-anchor="start" x="7.5" y="-21.4" font-family="Helvetica,sans-Serif" font-size="12.00">Documentation/Operator</text>
<text text-anchor="middle" x="72" y="-8.4" font-family="Helvetica,sans-Serif" font-size="12.00">&#45;Console/ImageTest.cpp</text>
</a>
</g>
</g>
<!-- Node3&#45;&gt;Node8 -->
<g id="edge19" class="edge"><title>Node3&#45;&gt;Node8</title>
<path fill="none" stroke="midnightblue" d="M625.81,-214.175C591.422,-204.512 549.337,-192.222 512,-180 363.573,-131.415 190.286,-65.1449 112.92,-35.0465"/>
<polygon fill="midnightblue" stroke="midnightblue" points="625.184,-217.634 635.757,-216.958 627.07,-210.893 625.184,-217.634"/>
</g>
<!-- Node16 -->
<g id="node16" class="node"><title>Node16</title>
<g id="a_node16"><a xlink:href="../../d5/d79/_documentation_2_operator-_console_2_s_f_rplus_test_8h.html" target="_top" xlink:title="Documentation/Operator\l&#45;Console/SFRplusTest.h">
<polygon fill="white" stroke="black" points="723.5,-145 723.5,-179 868.5,-179 868.5,-145 723.5,-145"/>
<text text-anchor="start" x="731.5" y="-165.4" font-family="Helvetica,sans-Serif" font-size="12.00">Documentation/Operator</text>
<text text-anchor="middle" x="796" y="-152.4" font-family="Helvetica,sans-Serif" font-size="12.00">&#45;Console/SFRplusTest.h</text>
</a>
</g>
</g>
<!-- Node3&#45;&gt;Node16 -->
<g id="edge16" class="edge"><title>Node3&#45;&gt;Node16</title>
<path fill="none" stroke="midnightblue" d="M726.589,-211.107C741.469,-200.793 758.91,-188.706 772.587,-179.227"/>
<polygon fill="midnightblue" stroke="midnightblue" points="724.397,-208.368 718.171,-216.941 728.384,-214.121 724.397,-208.368"/>
</g>
<!-- Node4&#45;&gt;Node5 -->
<g id="edge4" class="edge"><title>Node4&#45;&gt;Node5</title>
<path fill="none" stroke="midnightblue" d="M630.953,-139.97C649.397,-129.473 671.364,-116.972 688.487,-107.227"/>
<polygon fill="midnightblue" stroke="midnightblue" points="629.179,-136.952 622.219,-144.941 632.641,-143.036 629.179,-136.952"/>
</g>
<!-- Node15 -->
<g id="node15" class="node"><title>Node15</title>
<g id="a_node15"><a xlink:href="../../dc/d58/_documentation_2_operator-_console_2_blemish_test_8cpp.html" target="_top" xlink:title="Documentation/Operator\l&#45;Console/BlemishTest.cpp">
<polygon fill="white" stroke="black" points="462,-73 462,-107 616,-107 616,-73 462,-73"/>
<text text-anchor="start" x="470" y="-93.4" font-family="Helvetica,sans-Serif" font-size="12.00">Documentation/Operator</text>
<text text-anchor="middle" x="539" y="-80.4" font-family="Helvetica,sans-Serif" font-size="12.00">&#45;Console/BlemishTest.cpp</text>
</a>
</g>
</g>
<!-- Node4&#45;&gt;Node15 -->
<g id="edge14" class="edge"><title>Node4&#45;&gt;Node15</title>
<path fill="none" stroke="midnightblue" d="M575.055,-136.889C567.336,-127.064 558.617,-115.967 551.687,-107.147"/>
<polygon fill="midnightblue" stroke="midnightblue" points="572.313,-139.064 581.244,-144.765 577.818,-134.739 572.313,-139.064"/>
</g>
<!-- Node6 -->
<g id="node6" class="node"><title>Node6</title>
<g id="a_node6"><a xlink:href="../../d7/d4b/_documentation_2_operator-_console_2_app_thread_8cpp.html" target="_top" xlink:title="Documentation/Operator\l&#45;Console/AppThread.cpp">
<polygon fill="white" stroke="black" points="1261,-1 1261,-35 1409,-35 1409,-1 1261,-1"/>
<text text-anchor="start" x="1269" y="-21.4" font-family="Helvetica,sans-Serif" font-size="12.00">Documentation/Operator</text>
<text text-anchor="middle" x="1335" y="-8.4" font-family="Helvetica,sans-Serif" font-size="12.00">&#45;Console/AppThread.cpp</text>
</a>
</g>
</g>
<!-- Node5&#45;&gt;Node6 -->
<g id="edge5" class="edge"><title>Node5&#45;&gt;Node6</title>
<path fill="none" stroke="midnightblue" d="M810.229,-71.921C1006.13,-46.6297 1059.09,-63.138 1251,-36 1254.24,-35.5417 1257.55,-35.0366 1260.88,-34.4961"/>
<polygon fill="midnightblue" stroke="midnightblue" points="809.645,-68.4677 800.184,-73.2381 810.555,-75.4083 809.645,-68.4677"/>
</g>
<!-- Node7 -->
<g id="node7" class="node"><title>Node7</title>
<g id="a_node7"><a xlink:href="../../de/d31/_documentation_2_operator-_console_2_critical_buf_8cpp.html" target="_top" xlink:title="Documentation/Operator\l&#45;Console/CriticalBuf.cpp">
<polygon fill="white" stroke="black" points="1427.5,-1 1427.5,-35 1572.5,-35 1572.5,-1 1427.5,-1"/>
<text text-anchor="start" x="1435.5" y="-21.4" font-family="Helvetica,sans-Serif" font-size="12.00">Documentation/Operator</text>
<text text-anchor="middle" x="1500" y="-8.4" font-family="Helvetica,sans-Serif" font-size="12.00">&#45;Console/CriticalBuf.cpp</text>
</a>
</g>
</g>
<!-- Node5&#45;&gt;Node7 -->
<g id="edge6" class="edge"><title>Node5&#45;&gt;Node7</title>
<path fill="none" stroke="midnightblue" d="M810.262,-71.9442C1079.92,-40.0824 1152.49,-71.18 1418,-36 1421.03,-35.599 1424.11,-35.1493 1427.22,-34.6618"/>
<polygon fill="midnightblue" stroke="midnightblue" points="809.686,-68.4882 800.174,-73.1545 810.52,-75.4383 809.686,-68.4882"/>
</g>
<!-- Node5&#45;&gt;Node8 -->
<g id="edge7" class="edge"><title>Node5&#45;&gt;Node8</title>
<path fill="none" stroke="midnightblue" d="M623.763,-71.9267C415.06,-45.5154 358.631,-64.9107 154,-36 150.977,-35.5729 147.898,-35.1015 144.793,-34.5958"/>
<polygon fill="midnightblue" stroke="midnightblue" points="623.453,-75.4155 633.818,-73.2193 624.346,-68.4727 623.453,-75.4155"/>
</g>
<!-- Node9 -->
<g id="node9" class="node"><title>Node9</title>
<g id="a_node9"><a xlink:href="../../d4/d9c/_msg_dialog_8cpp.html" target="_top" xlink:title="Documentation/Operator\l&#45;Console/MsgDialog.cpp">
<polygon fill="white" stroke="black" points="163,-1 163,-35 309,-35 309,-1 163,-1"/>
<text text-anchor="start" x="171" y="-21.4" font-family="Helvetica,sans-Serif" font-size="12.00">Documentation/Operator</text>
<text text-anchor="middle" x="236" y="-8.4" font-family="Helvetica,sans-Serif" font-size="12.00">&#45;Console/MsgDialog.cpp</text>
</a>
</g>
</g>
<!-- Node5&#45;&gt;Node9 -->
<g id="edge8" class="edge"><title>Node5&#45;&gt;Node9</title>
<path fill="none" stroke="midnightblue" d="M623.804,-71.8798C487.436,-51.7946 450.434,-57.4503 318,-36 315.13,-35.5351 312.207,-35.0391 309.259,-34.5196"/>
<polygon fill="midnightblue" stroke="midnightblue" points="623.39,-75.3567 633.797,-73.3711 624.423,-68.4333 623.39,-75.3567"/>
</g>
<!-- Node10 -->
<g id="node10" class="node"><title>Node10</title>
<g id="a_node10"><a xlink:href="../../db/db5/_documentation_2_operator-_console_2_operator_console_8cpp.html" target="_top" xlink:title="Documentation/Operator\l&#45;Console/OperatorConsole.cpp">
<polygon fill="white" stroke="black" points="327.5,-1 327.5,-35 506.5,-35 506.5,-1 327.5,-1"/>
<text text-anchor="start" x="335.5" y="-21.4" font-family="Helvetica,sans-Serif" font-size="12.00">Documentation/Operator</text>
<text text-anchor="middle" x="417" y="-8.4" font-family="Helvetica,sans-Serif" font-size="12.00">&#45;Console/OperatorConsole.cpp</text>
</a>
</g>
</g>
<!-- Node5&#45;&gt;Node10 -->
<g id="edge9" class="edge"><title>Node5&#45;&gt;Node10</title>
<path fill="none" stroke="midnightblue" d="M638.266,-70.6288C590.913,-59.5797 531.215,-45.6501 485.765,-35.0452"/>
<polygon fill="midnightblue" stroke="midnightblue" points="637.64,-74.0767 648.174,-72.9406 639.231,-67.2598 637.64,-74.0767"/>
</g>
<!-- Node11 -->
<g id="node11" class="node"><title>Node11</title>
<g id="a_node11"><a xlink:href="../../dd/dcb/_documentation_2_operator-_console_2_operator_console_dlg_8cpp.html" target="_top" xlink:title="Documentation/Operator\l&#45;Console/OperatorConsoleDlg.cpp">
<polygon fill="white" stroke="black" points="524.5,-1 524.5,-35 721.5,-35 721.5,-1 524.5,-1"/>
<text text-anchor="start" x="532.5" y="-21.4" font-family="Helvetica,sans-Serif" font-size="12.00">Documentation/Operator</text>
<text text-anchor="middle" x="623" y="-8.4" font-family="Helvetica,sans-Serif" font-size="12.00">&#45;Console/OperatorConsoleDlg.cpp</text>
</a>
</g>
</g>
<!-- Node5&#45;&gt;Node11 -->
<g id="edge10" class="edge"><title>Node5&#45;&gt;Node11</title>
<path fill="none" stroke="midnightblue" d="M686.977,-66.6425C673.227,-56.4033 657.238,-44.4963 644.684,-35.1473"/>
<polygon fill="midnightblue" stroke="midnightblue" points="685.087,-69.5991 695.198,-72.7646 689.268,-63.9848 685.087,-69.5991"/>
</g>
<!-- Node12 -->
<g id="node12" class="node"><title>Node12</title>
<g id="a_node12"><a xlink:href="../../dd/d14/_documentation_2_operator-_console_2_pass_fail_8cpp.html" target="_top" xlink:title="Documentation/Operator\l&#45;Console/PassFail.cpp">
<polygon fill="white" stroke="black" points="739.5,-1 739.5,-35 884.5,-35 884.5,-1 739.5,-1"/>
<text text-anchor="start" x="747.5" y="-21.4" font-family="Helvetica,sans-Serif" font-size="12.00">Documentation/Operator</text>
<text text-anchor="middle" x="812" y="-8.4" font-family="Helvetica,sans-Serif" font-size="12.00">&#45;Console/PassFail.cpp</text>
</a>
</g>
</g>
<!-- Node5&#45;&gt;Node12 -->
<g id="edge11" class="edge"><title>Node5&#45;&gt;Node12</title>
<path fill="none" stroke="midnightblue" d="M747.342,-66.6425C761.238,-56.4033 777.398,-44.4963 790.086,-35.1473"/>
<polygon fill="midnightblue" stroke="midnightblue" points="745.008,-64.0149 739.034,-72.7646 749.16,-69.6503 745.008,-64.0149"/>
</g>
<!-- Node13 -->
<g id="node13" class="node"><title>Node13</title>
<g id="a_node13"><a xlink:href="../../dd/d4b/_documentation_2_operator-_console_2_password_dialog_8cpp.html" target="_top" xlink:title="Documentation/Operator\l&#45;Console/PasswordDialog.cpp">
<polygon fill="white" stroke="black" points="903,-1 903,-35 1079,-35 1079,-1 903,-1"/>
<text text-anchor="start" x="911" y="-21.4" font-family="Helvetica,sans-Serif" font-size="12.00">Documentation/Operator</text>
<text text-anchor="middle" x="991" y="-8.4" font-family="Helvetica,sans-Serif" font-size="12.00">&#45;Console/PasswordDialog.cpp</text>
</a>
</g>
</g>
<!-- Node5&#45;&gt;Node13 -->
<g id="edge12" class="edge"><title>Node5&#45;&gt;Node13</title>
<path fill="none" stroke="midnightblue" d="M789.708,-70.425C832.746,-59.4299 886.731,-45.638 927.958,-35.1057"/>
<polygon fill="midnightblue" stroke="midnightblue" points="788.684,-67.0742 779.861,-72.9406 790.416,-73.8564 788.684,-67.0742"/>
</g>
<!-- Node14 -->
<g id="node14" class="node"><title>Node14</title>
<g id="a_node14"><a xlink:href="../../d3/d68/_documentation_2_operator-_console_2_setup_8cpp.html" target="_top" xlink:title="Documentation/Operator\l&#45;Console/Setup.cpp">
<polygon fill="white" stroke="black" points="1097.5,-1 1097.5,-35 1242.5,-35 1242.5,-1 1097.5,-1"/>
<text text-anchor="start" x="1105.5" y="-21.4" font-family="Helvetica,sans-Serif" font-size="12.00">Documentation/Operator</text>
<text text-anchor="middle" x="1170" y="-8.4" font-family="Helvetica,sans-Serif" font-size="12.00">&#45;Console/Setup.cpp</text>
</a>
</g>
</g>
<!-- Node5&#45;&gt;Node14 -->
<g id="edge13" class="edge"><title>Node5&#45;&gt;Node14</title>
<path fill="none" stroke="midnightblue" d="M810.098,-71.8789C934.212,-52.8244 967.829,-56.1796 1088,-36 1091.01,-35.4944 1094.08,-34.9573 1097.18,-34.3974"/>
<polygon fill="midnightblue" stroke="midnightblue" points="809.554,-68.4212 800.21,-73.4146 810.629,-75.3383 809.554,-68.4212"/>
</g>
<!-- Node16&#45;&gt;Node5 -->
<g id="edge17" class="edge"><title>Node16&#45;&gt;Node5</title>
<path fill="none" stroke="midnightblue" d="M770.112,-138.061C758.706,-127.955 745.575,-116.32 735.223,-107.147"/>
<polygon fill="midnightblue" stroke="midnightblue" points="767.872,-140.752 777.677,-144.765 772.514,-135.513 767.872,-140.752"/>
</g>
<!-- Node16&#45;&gt;Node17 -->
<g id="edge18" class="edge"><title>Node16&#45;&gt;Node17</title>
<path fill="none" stroke="midnightblue" d="M827.589,-139.107C842.469,-128.793 859.91,-116.706 873.587,-107.227"/>
<polygon fill="midnightblue" stroke="midnightblue" points="825.397,-136.368 819.171,-144.941 829.384,-142.121 825.397,-136.368"/>
</g>
<!-- Node20&#45;&gt;Node2 -->
<g id="edge24" class="edge"><title>Node20&#45;&gt;Node2</title>
<path fill="none" stroke="midnightblue" d="M1250.91,-365.167C1188.11,-353.73 1105.22,-338.381 1032,-324 1029,-323.412 1025.95,-322.805 1022.86,-322.188"/>
<polygon fill="midnightblue" stroke="midnightblue" points="1250.34,-368.622 1260.81,-366.968 1251.6,-361.735 1250.34,-368.622"/>
</g>
<!-- Node20&#45;&gt;Node21 -->
<g id="edge25" class="edge"><title>Node20&#45;&gt;Node21</title>
<path fill="none" stroke="midnightblue" d="M1407.41,-363.693C1444.85,-351.105 1493.12,-334.871 1528.41,-323.003"/>
<polygon fill="midnightblue" stroke="midnightblue" points="1406.02,-360.47 1397.65,-366.975 1408.25,-367.105 1406.02,-360.47"/>
</g>
<!-- Node22 -->
<g id="node22" class="node"><title>Node22</title>
<g id="a_node22"><a xlink:href="../../d5/de0/_documentation_2_operator-_console_2_j_s_o_n_2_j_s_o_n_stream_8cpp.html" target="_top" xlink:title="Documentation/Operator\l&#45;Console/JSON/JSONStream.cpp">
<polygon fill="white" stroke="black" points="1041,-289 1041,-323 1235,-323 1235,-289 1041,-289"/>
<text text-anchor="start" x="1049" y="-309.4" font-family="Helvetica,sans-Serif" font-size="12.00">Documentation/Operator</text>
<text text-anchor="middle" x="1138" y="-296.4" font-family="Helvetica,sans-Serif" font-size="12.00">&#45;Console/JSON/JSONStream.cpp</text>
</a>
</g>
</g>
<!-- Node20&#45;&gt;Node22 -->
<g id="edge26" class="edge"><title>Node20&#45;&gt;Node22</title>
<path fill="none" stroke="midnightblue" d="M1295.7,-363.533C1260.64,-350.967 1215.6,-334.82 1182.64,-323.003"/>
<polygon fill="midnightblue" stroke="midnightblue" points="1294.7,-366.895 1305.3,-366.975 1297.07,-360.306 1294.7,-366.895"/>
</g>
<!-- Node23 -->
<g id="node23" class="node"><title>Node23</title>
<g id="a_node23"><a xlink:href="../../db/d60/_documentation_2_operator-_console_2_j_s_o_n_2_j_s_o_n_worker_8cpp.html" target="_top" xlink:title="Documentation/Operator\l&#45;Console/JSON/JSONWorker.cpp">
<polygon fill="white" stroke="black" points="1253,-289 1253,-323 1447,-323 1447,-289 1253,-289"/>
<text text-anchor="start" x="1261" y="-309.4" font-family="Helvetica,sans-Serif" font-size="12.00">Documentation/Operator</text>
<text text-anchor="middle" x="1350" y="-296.4" font-family="Helvetica,sans-Serif" font-size="12.00">&#45;Console/JSON/JSONWorker.cpp</text>
</a>
</g>
</g>
<!-- Node20&#45;&gt;Node23 -->
<g id="edge27" class="edge"><title>Node20&#45;&gt;Node23</title>
<path fill="none" stroke="midnightblue" d="M1350,-356.759C1350,-345.566 1350,-332.864 1350,-323.094"/>
<polygon fill="midnightblue" stroke="midnightblue" points="1346.5,-356.882 1350,-366.882 1353.5,-356.882 1346.5,-356.882"/>
</g>
<!-- Node20&#45;&gt;Node24 -->
<g id="edge28" class="edge"><title>Node20&#45;&gt;Node24</title>
<path fill="none" stroke="midnightblue" d="M1450.18,-366.005C1526.14,-353.119 1629.81,-335.533 1704.17,-322.918"/>
<polygon fill="midnightblue" stroke="midnightblue" points="1449.39,-362.588 1440.12,-367.712 1450.57,-369.49 1449.39,-362.588"/>
</g>
<!-- Node25&#45;&gt;Node2 -->
<g id="edge30" class="edge"><title>Node25&#45;&gt;Node2</title>
<path fill="none" stroke="midnightblue" d="M950,-356.759C950,-345.566 950,-332.864 950,-323.094"/>
<polygon fill="midnightblue" stroke="midnightblue" points="946.5,-356.882 950,-366.882 953.5,-356.882 946.5,-356.882"/>
</g>
<!-- Node26 -->
<g id="node26" class="node"><title>Node26</title>
<g id="a_node26"><a xlink:href="../../d1/d1c/_documentation_2_operator-_console_2_j_s_o_n_2_j_s_o_n_preparse_8cpp.html" target="_top" xlink:title="Documentation/Operator\l&#45;Console/JSON/JSONPreparse.cpp">
<polygon fill="white" stroke="black" points="655,-289 655,-323 859,-323 859,-289 655,-289"/>
<text text-anchor="start" x="663" y="-309.4" font-family="Helvetica,sans-Serif" font-size="12.00">Documentation/Operator</text>
<text text-anchor="middle" x="757" y="-296.4" font-family="Helvetica,sans-Serif" font-size="12.00">&#45;Console/JSON/JSONPreparse.cpp</text>
</a>
</g>
</g>
<!-- Node25&#45;&gt;Node26 -->
<g id="edge31" class="edge"><title>Node25&#45;&gt;Node26</title>
<path fill="none" stroke="midnightblue" d="M899.538,-363.129C867.861,-350.655 827.539,-334.777 797.871,-323.094"/>
<polygon fill="midnightblue" stroke="midnightblue" points="898.483,-366.475 909.07,-366.882 901.047,-359.962 898.483,-366.475"/>
</g>
</g>
</svg>
