<?xml version="1.0" encoding="UTF-8" standalone="no"?>
<!DOCTYPE svg PUBLIC "-//W3C//DTD SVG 1.1//EN"
 "http://www.w3.org/Graphics/SVG/1.1/DTD/svg11.dtd">
<!-- Generated by graphviz version 2.34.0 (20130907.0111)
 -->
<!-- Title: Documentation/Operator&#45;Console/ImatestLibAcq.h Pages: 1 -->
<svg width="671pt" height="276pt"
 viewBox="0.00 0.00 671.00 276.00" xmlns="http://www.w3.org/2000/svg" xmlns:xlink="http://www.w3.org/1999/xlink">
<g id="graph0" class="graph" transform="scale(1 1) rotate(0) translate(4 272)">
<title>Documentation/Operator&#45;Console/ImatestLibAcq.h</title>
<polygon fill="white" stroke="white" points="-4,4 -4,-272 667,-272 667,4 -4,4"/>
<!-- Node1 -->
<g id="node1" class="node"><title>Node1</title>
<polygon fill="#bfbfbf" stroke="black" points="406.5,-233 406.5,-267 557.5,-267 557.5,-233 406.5,-233"/>
<text text-anchor="start" x="414.5" y="-253.4" font-family="Helvetica,sans-Serif" font-size="12.00">Documentation/Operator</text>
<text text-anchor="middle" x="482" y="-240.4" font-family="Helvetica,sans-Serif" font-size="12.00">&#45;Console/ImatestLibAcq.h</text>
</g>
<!-- Node2 -->
<g id="node2" class="node"><title>Node2</title>
<g id="a_node2"><a xlink:href="../../d3/db6/_documentation_2_operator-_console_2_image_acquisition_8h.html" target="_top" xlink:title="ImageAcquisition.h">
<polygon fill="white" stroke="black" points="375,-174.5 375,-195.5 491,-195.5 491,-174.5 375,-174.5"/>
<text text-anchor="middle" x="433" y="-181.9" font-family="Helvetica,sans-Serif" font-size="12.00">ImageAcquisition.h</text>
</a>
</g>
</g>
<!-- Node1&#45;&gt;Node2 -->
<g id="edge1" class="edge"><title>Node1&#45;&gt;Node2</title>
<path fill="none" stroke="midnightblue" d="M469.381,-232.776C462.419,-223.824 453.768,-212.701 446.648,-203.548"/>
<polygon fill="midnightblue" stroke="midnightblue" points="449.299,-201.255 440.397,-195.511 443.774,-205.553 449.299,-201.255"/>
</g>
<!-- Node14 -->
<g id="node14" class="node"><title>Node14</title>
<polygon fill="white" stroke="#bfbfbf" points="509.5,-174.5 509.5,-195.5 554.5,-195.5 554.5,-174.5 509.5,-174.5"/>
<text text-anchor="middle" x="532" y="-181.9" font-family="Helvetica,sans-Serif" font-size="12.00">string</text>
</g>
<!-- Node1&#45;&gt;Node14 -->
<g id="edge13" class="edge"><title>Node1&#45;&gt;Node14</title>
<path fill="none" stroke="midnightblue" d="M494.876,-232.776C501.981,-223.824 510.809,-212.701 518.073,-203.548"/>
<polygon fill="midnightblue" stroke="midnightblue" points="520.977,-205.519 524.452,-195.511 515.494,-201.168 520.977,-205.519"/>
</g>
<!-- Node3 -->
<g id="node3" class="node"><title>Node3</title>
<g id="a_node3"><a xlink:href="../../d9/d2e/_documentation_2_operator-_console_2stdafx_8h.html" target="_top" xlink:title="stdafx.h">
<polygon fill="white" stroke="black" points="296,-116.5 296,-137.5 352,-137.5 352,-116.5 296,-116.5"/>
<text text-anchor="middle" x="324" y="-123.9" font-family="Helvetica,sans-Serif" font-size="12.00">stdafx.h</text>
</a>
</g>
</g>
<!-- Node2&#45;&gt;Node3 -->
<g id="edge2" class="edge"><title>Node2&#45;&gt;Node3</title>
<path fill="none" stroke="midnightblue" d="M414.014,-174.246C396.821,-165.413 371.276,-152.289 351.787,-142.276"/>
<polygon fill="midnightblue" stroke="midnightblue" points="353.263,-139.099 342.769,-137.643 350.064,-145.326 353.263,-139.099"/>
</g>
<!-- Node12 -->
<g id="node12" class="node"><title>Node12</title>
<g id="a_node12"><a xlink:href="../../dd/df3/_documentation_2_operator-_console_2_critical_buf_8h.html" target="_top" xlink:title="CriticalBuf.h">
<polygon fill="white" stroke="black" points="503,-116.5 503,-137.5 583,-137.5 583,-116.5 503,-116.5"/>
<text text-anchor="middle" x="543" y="-123.9" font-family="Helvetica,sans-Serif" font-size="12.00">CriticalBuf.h</text>
</a>
</g>
</g>
<!-- Node2&#45;&gt;Node12 -->
<g id="edge11" class="edge"><title>Node2&#45;&gt;Node12</title>
<path fill="none" stroke="midnightblue" d="M452.161,-174.246C469.511,-165.413 495.29,-152.289 514.958,-142.276"/>
<polygon fill="midnightblue" stroke="midnightblue" points="516.735,-145.299 524.059,-137.643 513.559,-139.06 516.735,-145.299"/>
</g>
<!-- Node4 -->
<g id="node4" class="node"><title>Node4</title>
<g id="a_node4"><a xlink:href="../../da/d3f/_documentation_2_operator-_console_2targetver_8h.html" target="_top" xlink:title="targetver.h">
<polygon fill="white" stroke="black" points="12.5,-58.5 12.5,-79.5 83.5,-79.5 83.5,-58.5 12.5,-58.5"/>
<text text-anchor="middle" x="48" y="-65.9" font-family="Helvetica,sans-Serif" font-size="12.00">targetver.h</text>
</a>
</g>
</g>
<!-- Node3&#45;&gt;Node4 -->
<g id="edge3" class="edge"><title>Node3&#45;&gt;Node4</title>
<path fill="none" stroke="midnightblue" d="M295.868,-120.606C254.115,-112.555 173.032,-96.749 93.9753,-80.1714"/>
<polygon fill="midnightblue" stroke="midnightblue" points="94.3522,-76.6742 83.8459,-78.0407 92.9112,-83.5243 94.3522,-76.6742"/>
</g>
<!-- Node6 -->
<g id="node6" class="node"><title>Node6</title>
<polygon fill="white" stroke="#bfbfbf" points="102,-58.5 102,-79.5 160,-79.5 160,-58.5 102,-58.5"/>
<text text-anchor="middle" x="131" y="-65.9" font-family="Helvetica,sans-Serif" font-size="12.00">afxwin.h</text>
</g>
<!-- Node3&#45;&gt;Node6 -->
<g id="edge5" class="edge"><title>Node3&#45;&gt;Node6</title>
<path fill="none" stroke="midnightblue" d="M295.936,-117.857C262.776,-108.236 207.403,-92.1688 170.065,-81.3348"/>
<polygon fill="midnightblue" stroke="midnightblue" points="170.624,-77.8529 160.045,-78.4276 168.674,-84.5756 170.624,-77.8529"/>
</g>
<!-- Node7 -->
<g id="node7" class="node"><title>Node7</title>
<polygon fill="white" stroke="#bfbfbf" points="178,-58.5 178,-79.5 234,-79.5 234,-58.5 178,-58.5"/>
<text text-anchor="middle" x="206" y="-65.9" font-family="Helvetica,sans-Serif" font-size="12.00">afxext.h</text>
</g>
<!-- Node3&#45;&gt;Node7 -->
<g id="edge6" class="edge"><title>Node3&#45;&gt;Node7</title>
<path fill="none" stroke="midnightblue" d="M303.715,-116.373C284.858,-107.424 256.554,-93.9917 235.255,-83.8835"/>
<polygon fill="midnightblue" stroke="midnightblue" points="236.555,-80.6266 226.02,-79.5011 233.554,-86.9506 236.555,-80.6266"/>
</g>
<!-- Node8 -->
<g id="node8" class="node"><title>Node8</title>
<polygon fill="white" stroke="#bfbfbf" points="252.5,-58.5 252.5,-79.5 315.5,-79.5 315.5,-58.5 252.5,-58.5"/>
<text text-anchor="middle" x="284" y="-65.9" font-family="Helvetica,sans-Serif" font-size="12.00">afxdisp.h</text>
</g>
<!-- Node3&#45;&gt;Node8 -->
<g id="edge7" class="edge"><title>Node3&#45;&gt;Node8</title>
<path fill="none" stroke="midnightblue" d="M317.033,-116.246C311.469,-108.456 303.522,-97.3308 296.817,-87.9439"/>
<polygon fill="midnightblue" stroke="midnightblue" points="299.548,-85.7457 290.888,-79.6427 293.852,-89.8144 299.548,-85.7457"/>
</g>
<!-- Node9 -->
<g id="node9" class="node"><title>Node9</title>
<polygon fill="white" stroke="#bfbfbf" points="334,-58.5 334,-79.5 396,-79.5 396,-58.5 334,-58.5"/>
<text text-anchor="middle" x="365" y="-65.9" font-family="Helvetica,sans-Serif" font-size="12.00">afxdtctl.h</text>
</g>
<!-- Node3&#45;&gt;Node9 -->
<g id="edge8" class="edge"><title>Node3&#45;&gt;Node9</title>
<path fill="none" stroke="midnightblue" d="M331.142,-116.246C336.844,-108.456 344.99,-97.3308 351.862,-87.9439"/>
<polygon fill="midnightblue" stroke="midnightblue" points="354.857,-89.7789 357.94,-79.6427 349.209,-85.6437 354.857,-89.7789"/>
</g>
<!-- Node10 -->
<g id="node10" class="node"><title>Node10</title>
<polygon fill="white" stroke="#bfbfbf" points="414,-58.5 414,-79.5 476,-79.5 476,-58.5 414,-58.5"/>
<text text-anchor="middle" x="445" y="-65.9" font-family="Helvetica,sans-Serif" font-size="12.00">afxcmn.h</text>
</g>
<!-- Node3&#45;&gt;Node10 -->
<g id="edge9" class="edge"><title>Node3&#45;&gt;Node10</title>
<path fill="none" stroke="midnightblue" d="M344.801,-116.373C364.224,-107.384 393.422,-93.8706 415.296,-83.7471"/>
<polygon fill="midnightblue" stroke="midnightblue" points="416.866,-86.8776 424.471,-79.5011 413.926,-80.5249 416.866,-86.8776"/>
</g>
<!-- Node11 -->
<g id="node11" class="node"><title>Node11</title>
<polygon fill="white" stroke="#bfbfbf" points="494,-58.5 494,-79.5 592,-79.5 592,-58.5 494,-58.5"/>
<text text-anchor="middle" x="543" y="-65.9" font-family="Helvetica,sans-Serif" font-size="12.00">afxcontrolbars.h</text>
</g>
<!-- Node3&#45;&gt;Node11 -->
<g id="edge10" class="edge"><title>Node3&#45;&gt;Node11</title>
<path fill="none" stroke="midnightblue" d="M352.182,-118.794C388.515,-109.503 452.211,-93.2155 495.945,-82.0324"/>
<polygon fill="midnightblue" stroke="midnightblue" points="496.958,-85.3861 505.779,-79.5177 495.224,-78.6043 496.958,-85.3861"/>
</g>
<!-- Node5 -->
<g id="node5" class="node"><title>Node5</title>
<polygon fill="white" stroke="#bfbfbf" points="0,-0.5 0,-21.5 96,-21.5 96,-0.5 0,-0.5"/>
<text text-anchor="middle" x="48" y="-7.9" font-family="Helvetica,sans-Serif" font-size="12.00">SDKDDKVer.h</text>
</g>
<!-- Node4&#45;&gt;Node5 -->
<g id="edge4" class="edge"><title>Node4&#45;&gt;Node5</title>
<path fill="none" stroke="midnightblue" d="M48,-58.2455C48,-50.9382 48,-40.6944 48,-31.7046"/>
<polygon fill="midnightblue" stroke="midnightblue" points="51.5001,-31.6426 48,-21.6427 44.5001,-31.6427 51.5001,-31.6426"/>
</g>
<!-- Node13 -->
<g id="node13" class="node"><title>Node13</title>
<polygon fill="white" stroke="#bfbfbf" points="610.5,-58.5 610.5,-79.5 663.5,-79.5 663.5,-58.5 610.5,-58.5"/>
<text text-anchor="middle" x="637" y="-65.9" font-family="Helvetica,sans-Serif" font-size="12.00">afxmt.h</text>
</g>
<!-- Node12&#45;&gt;Node13 -->
<g id="edge12" class="edge"><title>Node12&#45;&gt;Node13</title>
<path fill="none" stroke="midnightblue" d="M559.374,-116.246C573.931,-107.573 595.431,-94.7645 612.115,-84.825"/>
<polygon fill="midnightblue" stroke="midnightblue" points="614.014,-87.7676 620.814,-79.6427 610.432,-81.7539 614.014,-87.7676"/>
</g>
</g>
</svg>
