<?xml version="1.0" encoding="UTF-8" standalone="no"?>
<!DOCTYPE svg PUBLIC "-//W3C//DTD SVG 1.1//EN"
 "http://www.w3.org/Graphics/SVG/1.1/DTD/svg11.dtd">
<!-- Generated by graphviz version 2.34.0 (20130907.0111)
 -->
<!-- Title: SimpleDirectShowAcq Pages: 1 -->
<svg width="142pt" height="222pt"
 viewBox="0.00 0.00 142.00 222.00" xmlns="http://www.w3.org/2000/svg" xmlns:xlink="http://www.w3.org/1999/xlink">
<g id="graph0" class="graph" transform="scale(1 1) rotate(0) translate(4 218)">
<title>SimpleDirectShowAcq</title>
<polygon fill="white" stroke="white" points="-4,4 -4,-218 138,-218 138,4 -4,4"/>
<!-- Node1 -->
<g id="node1" class="node"><title>Node1</title>
<polygon fill="#bfbfbf" stroke="black" points="-0.5,-0.5 -0.5,-21.5 134.5,-21.5 134.5,-0.5 -0.5,-0.5"/>
<text text-anchor="middle" x="67" y="-7.9" font-family="Helvetica,sans-Serif" font-size="12.00">SimpleDirectShowAcq</text>
</g>
<!-- Node2 -->
<g id="node2" class="node"><title>Node2</title>
<g id="a_node2"><a xlink:href="../../d8/d29/class_image_acquisition.html" target="_top" xlink:title="the base class for image acquisition ">
<polygon fill="white" stroke="black" points="13.5,-60.5 13.5,-81.5 120.5,-81.5 120.5,-60.5 13.5,-60.5"/>
<text text-anchor="middle" x="67" y="-67.9" font-family="Helvetica,sans-Serif" font-size="12.00">ImageAcquisition</text>
</a>
</g>
</g>
<!-- Node2&#45;&gt;Node1 -->
<g id="edge1" class="edge"><title>Node2&#45;&gt;Node1</title>
<path fill="none" stroke="midnightblue" d="M60.5802,-50.4646C59.8842,-40.8204 60.2885,-29.6076 61.7932,-21.7856"/>
<polygon fill="midnightblue" stroke="midnightblue" points="57.1121,-50.9379 61.8337,-60.4225 64.0573,-50.0636 57.1121,-50.9379"/>
</g>
<!-- Node2&#45;&gt;Node1 -->
<g id="edge5" class="edge"><title>Node2&#45;&gt;Node1</title>
<path fill="none" stroke="midnightblue" d="M73.4198,-50.4646C74.1158,-40.8204 73.7115,-29.6076 72.2068,-21.7856"/>
<polygon fill="midnightblue" stroke="midnightblue" points="69.9427,-50.0636 72.1663,-60.4225 76.8879,-50.9379 69.9427,-50.0636"/>
</g>
<!-- Node3 -->
<g id="node3" class="node"><title>Node3</title>
<g id="a_node3"><a xlink:href="../../d3/d1e/class_critical_buf.html" target="_top" xlink:title="a buffer class where all access (read or write) to the buffer is protected by critical sections ...">
<polygon fill="white" stroke="black" points="31.5,-132.5 31.5,-153.5 102.5,-153.5 102.5,-132.5 31.5,-132.5"/>
<text text-anchor="middle" x="67" y="-139.9" font-family="Helvetica,sans-Serif" font-size="12.00">CriticalBuf</text>
</a>
</g>
</g>
<!-- Node3&#45;&gt;Node2 -->
<g id="edge2" class="edge"><title>Node3&#45;&gt;Node2</title>
<path fill="none" stroke="#9a32cd" stroke-dasharray="5,2" d="M67,-122.199C67,-108.938 67,-92.0647 67,-81.6505"/>
<polygon fill="#9a32cd" stroke="#9a32cd" points="63.5001,-122.267 67,-132.267 70.5001,-122.267 63.5001,-122.267"/>
<text text-anchor="middle" x="92" y="-103.9" font-family="Helvetica,sans-Serif" font-size="12.00"> m_frame</text>
</g>
<!-- Node4 -->
<g id="node4" class="node"><title>Node4</title>
<polygon fill="white" stroke="#bfbfbf" points="16,-192.5 16,-213.5 118,-213.5 118,-192.5 16,-192.5"/>
<text text-anchor="middle" x="67" y="-199.9" font-family="Helvetica,sans-Serif" font-size="12.00">CCriticalSection</text>
</g>
<!-- Node4&#45;&gt;Node3 -->
<g id="edge3" class="edge"><title>Node4&#45;&gt;Node3</title>
<path fill="none" stroke="midnightblue" d="M60.5802,-182.465C59.8842,-172.82 60.2885,-161.608 61.7932,-153.786"/>
<polygon fill="midnightblue" stroke="midnightblue" points="57.1121,-182.938 61.8337,-192.422 64.0573,-182.064 57.1121,-182.938"/>
</g>
<!-- Node4&#45;&gt;Node3 -->
<g id="edge4" class="edge"><title>Node4&#45;&gt;Node3</title>
<path fill="none" stroke="midnightblue" d="M73.4198,-182.465C74.1158,-172.82 73.7115,-161.608 72.2068,-153.786"/>
<polygon fill="midnightblue" stroke="midnightblue" points="69.9427,-182.064 72.1663,-192.422 76.8879,-182.938 69.9427,-182.064"/>
</g>
</g>
</svg>
