<?xml version="1.0" encoding="UTF-8" standalone="no"?>
<!DOCTYPE svg PUBLIC "-//W3C//DTD SVG 1.1//EN"
 "http://www.w3.org/Graphics/SVG/1.1/DTD/svg11.dtd">
<!-- Generated by graphviz version 2.34.0 (20130907.0111)
 -->
<!-- Title: Documentation/Operator&#45;Console/OperatorConsoleDlg.h Pages: 1 -->
<svg width="600pt" height="276pt"
 viewBox="0.00 0.00 600.00 276.00" xmlns="http://www.w3.org/2000/svg" xmlns:xlink="http://www.w3.org/1999/xlink">
<g id="graph0" class="graph" transform="scale(1 1) rotate(0) translate(4 272)">
<title>Documentation/Operator&#45;Console/OperatorConsoleDlg.h</title>
<polygon fill="white" stroke="white" points="-4,4 -4,-272 596,-272 596,4 -4,4"/>
<!-- Node1 -->
<g id="node1" class="node"><title>Node1</title>
<polygon fill="#bfbfbf" stroke="black" points="25,-233 25,-267 209,-267 209,-233 25,-233"/>
<text text-anchor="start" x="33" y="-253.4" font-family="Helvetica,sans-Serif" font-size="12.00">Documentation/Operator</text>
<text text-anchor="middle" x="117" y="-240.4" font-family="Helvetica,sans-Serif" font-size="12.00">&#45;Console/OperatorConsoleDlg.h</text>
</g>
<!-- Node2 -->
<g id="node2" class="node"><title>Node2</title>
<polygon fill="white" stroke="#bfbfbf" points="0,-58.5 0,-79.5 58,-79.5 58,-58.5 0,-58.5"/>
<text text-anchor="middle" x="29" y="-65.9" font-family="Helvetica,sans-Serif" font-size="12.00">afxwin.h</text>
</g>
<!-- Node1&#45;&gt;Node2 -->
<g id="edge1" class="edge"><title>Node1&#45;&gt;Node2</title>
<path fill="none" stroke="midnightblue" d="M95.6377,-232.988C71.7101,-213.575 34.28,-178.394 19,-138 13.0116,-122.169 16.7293,-103.005 21.2357,-89.0619"/>
<polygon fill="midnightblue" stroke="midnightblue" points="24.5631,-90.1527 24.6878,-79.5586 17.9838,-87.7627 24.5631,-90.1527"/>
</g>
<!-- Node3 -->
<g id="node3" class="node"><title>Node3</title>
<polygon fill="white" stroke="#bfbfbf" points="76,-58.5 76,-79.5 138,-79.5 138,-58.5 76,-58.5"/>
<text text-anchor="middle" x="107" y="-65.9" font-family="Helvetica,sans-Serif" font-size="12.00">afxcmn.h</text>
</g>
<!-- Node1&#45;&gt;Node3 -->
<g id="edge2" class="edge"><title>Node1&#45;&gt;Node3</title>
<path fill="none" stroke="midnightblue" d="M118.101,-232.972C119.574,-207.924 121.514,-158.013 117,-116 116.064,-107.285 114.157,-97.7985 112.257,-89.7166"/>
<polygon fill="midnightblue" stroke="midnightblue" points="115.59,-88.6187 109.762,-79.7707 108.8,-90.3218 115.59,-88.6187"/>
</g>
<!-- Node4 -->
<g id="node4" class="node"><title>Node4</title>
<g id="a_node4"><a xlink:href="../../de/d3c/_documentation_2_operator-_console_2_static_bmp_8h.html" target="_top" xlink:title="StaticBmp.h">
<polygon fill="white" stroke="black" points="28,-116.5 28,-137.5 108,-137.5 108,-116.5 28,-116.5"/>
<text text-anchor="middle" x="68" y="-123.9" font-family="Helvetica,sans-Serif" font-size="12.00">StaticBmp.h</text>
</a>
</g>
</g>
<!-- Node1&#45;&gt;Node4 -->
<g id="edge3" class="edge"><title>Node1&#45;&gt;Node4</title>
<path fill="none" stroke="midnightblue" d="M110.392,-232.681C101.38,-210.429 85.2692,-170.644 75.7153,-147.052"/>
<polygon fill="midnightblue" stroke="midnightblue" points="78.9466,-145.707 71.949,-137.752 72.4584,-148.334 78.9466,-145.707"/>
</g>
<!-- Node5 -->
<g id="node5" class="node"><title>Node5</title>
<g id="a_node5"><a xlink:href="../../d9/df1/_documentation_2_operator-_console_2_timestamp_8h.html" target="_top" xlink:title="Timestamp.h">
<polygon fill="white" stroke="black" points="177,-174.5 177,-195.5 261,-195.5 261,-174.5 177,-174.5"/>
<text text-anchor="middle" x="219" y="-181.9" font-family="Helvetica,sans-Serif" font-size="12.00">Timestamp.h</text>
</a>
</g>
</g>
<!-- Node1&#45;&gt;Node5 -->
<g id="edge5" class="edge"><title>Node1&#45;&gt;Node5</title>
<path fill="none" stroke="midnightblue" d="M143.003,-232.939C158.989,-223.066 179.329,-210.503 194.942,-200.859"/>
<polygon fill="midnightblue" stroke="midnightblue" points="196.852,-203.794 203.521,-195.561 193.173,-197.838 196.852,-203.794"/>
</g>
<!-- Node4&#45;&gt;Node2 -->
<g id="edge4" class="edge"><title>Node4&#45;&gt;Node2</title>
<path fill="none" stroke="midnightblue" d="M61.2067,-116.246C55.7822,-108.456 48.0339,-97.3308 41.4967,-87.9439"/>
<polygon fill="midnightblue" stroke="midnightblue" points="44.3025,-85.8485 35.7154,-79.6427 38.5583,-89.849 44.3025,-85.8485"/>
</g>
<!-- Node6 -->
<g id="node6" class="node"><title>Node6</title>
<g id="a_node6"><a xlink:href="../../d9/d2e/_documentation_2_operator-_console_2stdafx_8h.html" target="_top" xlink:title="stdafx.h">
<polygon fill="white" stroke="black" points="198,-116.5 198,-137.5 254,-137.5 254,-116.5 198,-116.5"/>
<text text-anchor="middle" x="226" y="-123.9" font-family="Helvetica,sans-Serif" font-size="12.00">stdafx.h</text>
</a>
</g>
</g>
<!-- Node5&#45;&gt;Node6 -->
<g id="edge6" class="edge"><title>Node5&#45;&gt;Node6</title>
<path fill="none" stroke="midnightblue" d="M220.219,-174.246C221.133,-166.938 222.413,-156.694 223.537,-147.705"/>
<polygon fill="midnightblue" stroke="midnightblue" points="227.027,-148 224.795,-137.643 220.081,-147.131 227.027,-148"/>
</g>
<!-- Node6&#45;&gt;Node2 -->
<g id="edge9" class="edge"><title>Node6&#45;&gt;Node2</title>
<path fill="none" stroke="midnightblue" d="M197.775,-117.977C163.69,-108.288 106.18,-91.9395 67.9055,-81.0594"/>
<polygon fill="midnightblue" stroke="midnightblue" points="68.7119,-77.6501 58.1359,-78.2823 66.7978,-84.3833 68.7119,-77.6501"/>
</g>
<!-- Node6&#45;&gt;Node3 -->
<g id="edge13" class="edge"><title>Node6&#45;&gt;Node3</title>
<path fill="none" stroke="midnightblue" d="M205.543,-116.373C186.526,-107.424 157.982,-93.9917 136.502,-83.8835"/>
<polygon fill="midnightblue" stroke="midnightblue" points="137.728,-80.5923 127.19,-79.5011 134.748,-86.926 137.728,-80.5923"/>
</g>
<!-- Node7 -->
<g id="node7" class="node"><title>Node7</title>
<g id="a_node7"><a xlink:href="../../da/d3f/_documentation_2_operator-_console_2targetver_8h.html" target="_top" xlink:title="targetver.h">
<polygon fill="white" stroke="black" points="508.5,-58.5 508.5,-79.5 579.5,-79.5 579.5,-58.5 508.5,-58.5"/>
<text text-anchor="middle" x="544" y="-65.9" font-family="Helvetica,sans-Serif" font-size="12.00">targetver.h</text>
</a>
</g>
</g>
<!-- Node6&#45;&gt;Node7 -->
<g id="edge7" class="edge"><title>Node6&#45;&gt;Node7</title>
<path fill="none" stroke="midnightblue" d="M254.384,-121.713C302.394,-114.355 402.899,-98.4931 498.09,-80.0989"/>
<polygon fill="midnightblue" stroke="midnightblue" points="499.026,-83.4824 508.174,-78.1367 497.689,-76.6113 499.026,-83.4824"/>
</g>
<!-- Node9 -->
<g id="node9" class="node"><title>Node9</title>
<polygon fill="white" stroke="#bfbfbf" points="156,-58.5 156,-79.5 212,-79.5 212,-58.5 156,-58.5"/>
<text text-anchor="middle" x="184" y="-65.9" font-family="Helvetica,sans-Serif" font-size="12.00">afxext.h</text>
</g>
<!-- Node6&#45;&gt;Node9 -->
<g id="edge10" class="edge"><title>Node6&#45;&gt;Node9</title>
<path fill="none" stroke="midnightblue" d="M218.684,-116.246C212.782,-108.376 204.326,-97.101 197.241,-87.6542"/>
<polygon fill="midnightblue" stroke="midnightblue" points="200.032,-85.5427 191.232,-79.6427 194.432,-89.7427 200.032,-85.5427"/>
</g>
<!-- Node10 -->
<g id="node10" class="node"><title>Node10</title>
<polygon fill="white" stroke="#bfbfbf" points="230.5,-58.5 230.5,-79.5 293.5,-79.5 293.5,-58.5 230.5,-58.5"/>
<text text-anchor="middle" x="262" y="-65.9" font-family="Helvetica,sans-Serif" font-size="12.00">afxdisp.h</text>
</g>
<!-- Node6&#45;&gt;Node10 -->
<g id="edge11" class="edge"><title>Node6&#45;&gt;Node10</title>
<path fill="none" stroke="midnightblue" d="M232.271,-116.246C237.226,-108.537 244.283,-97.5598 250.278,-88.2348"/>
<polygon fill="midnightblue" stroke="midnightblue" points="253.338,-89.9471 255.801,-79.6427 247.449,-86.1618 253.338,-89.9471"/>
</g>
<!-- Node11 -->
<g id="node11" class="node"><title>Node11</title>
<polygon fill="white" stroke="#bfbfbf" points="312,-58.5 312,-79.5 374,-79.5 374,-58.5 312,-58.5"/>
<text text-anchor="middle" x="343" y="-65.9" font-family="Helvetica,sans-Serif" font-size="12.00">afxdtctl.h</text>
</g>
<!-- Node6&#45;&gt;Node11 -->
<g id="edge12" class="edge"><title>Node6&#45;&gt;Node11</title>
<path fill="none" stroke="midnightblue" d="M246.113,-116.373C264.81,-107.424 292.874,-93.9917 313.993,-83.8835"/>
<polygon fill="midnightblue" stroke="midnightblue" points="315.64,-86.9755 323.149,-79.5011 312.618,-80.6614 315.64,-86.9755"/>
</g>
<!-- Node12 -->
<g id="node12" class="node"><title>Node12</title>
<polygon fill="white" stroke="#bfbfbf" points="392,-58.5 392,-79.5 490,-79.5 490,-58.5 392,-58.5"/>
<text text-anchor="middle" x="441" y="-65.9" font-family="Helvetica,sans-Serif" font-size="12.00">afxcontrolbars.h</text>
</g>
<!-- Node6&#45;&gt;Node12 -->
<g id="edge14" class="edge"><title>Node6&#45;&gt;Node12</title>
<path fill="none" stroke="midnightblue" d="M254.107,-118.679C289.725,-109.402 351.614,-93.282 394.359,-82.1485"/>
<polygon fill="midnightblue" stroke="midnightblue" points="395.451,-85.4807 404.246,-79.573 393.687,-78.7067 395.451,-85.4807"/>
</g>
<!-- Node8 -->
<g id="node8" class="node"><title>Node8</title>
<polygon fill="white" stroke="#bfbfbf" points="496,-0.5 496,-21.5 592,-21.5 592,-0.5 496,-0.5"/>
<text text-anchor="middle" x="544" y="-7.9" font-family="Helvetica,sans-Serif" font-size="12.00">SDKDDKVer.h</text>
</g>
<!-- Node7&#45;&gt;Node8 -->
<g id="edge8" class="edge"><title>Node7&#45;&gt;Node8</title>
<path fill="none" stroke="midnightblue" d="M544,-58.2455C544,-50.9382 544,-40.6944 544,-31.7046"/>
<polygon fill="midnightblue" stroke="midnightblue" points="547.5,-31.6426 544,-21.6427 540.5,-31.6427 547.5,-31.6426"/>
</g>
</g>
</svg>
