<?xml version="1.0" encoding="UTF-8" standalone="no"?>
<!DOCTYPE svg PUBLIC "-//W3C//DTD SVG 1.1//EN"
 "http://www.w3.org/Graphics/SVG/1.1/DTD/svg11.dtd">
<!-- Generated by graphviz version 2.34.0 (20130907.0111)
 -->
<!-- Title: CriticalCString.h Pages: 1 -->
<svg width="123pt" height="88pt"
 viewBox="0.00 0.00 123.00 88.00" xmlns="http://www.w3.org/2000/svg" xmlns:xlink="http://www.w3.org/1999/xlink">
<g id="graph0" class="graph" transform="scale(1 1) rotate(0) translate(4 84)">
<title>CriticalCString.h</title>
<polygon fill="white" stroke="white" points="-4,4 -4,-84 119,-84 119,4 -4,4"/>
<!-- Node1 -->
<g id="node1" class="node"><title>Node1</title>
<polygon fill="#bfbfbf" stroke="black" points="8,-58.5 8,-79.5 110,-79.5 110,-58.5 8,-58.5"/>
<text text-anchor="middle" x="59" y="-65.9" font-family="Helvetica,sans-Serif" font-size="12.00">CriticalCString.h</text>
</g>
<!-- Node2 -->
<g id="node2" class="node"><title>Node2</title>
<polygon fill="white" stroke="#bfbfbf" points="-0.5,-0.5 -0.5,-21.5 52.5,-21.5 52.5,-0.5 -0.5,-0.5"/>
<text text-anchor="middle" x="26" y="-7.9" font-family="Helvetica,sans-Serif" font-size="12.00">afxmt.h</text>
</g>
<!-- Node1&#45;&gt;Node2 -->
<g id="edge1" class="edge"><title>Node1&#45;&gt;Node2</title>
<path fill="none" stroke="midnightblue" d="M53.2518,-58.2455C48.7565,-50.617 42.3752,-39.7881 36.9175,-30.5267"/>
<polygon fill="midnightblue" stroke="midnightblue" points="39.7747,-28.4811 31.6823,-21.6427 33.7439,-32.035 39.7747,-28.4811"/>
</g>
<!-- Node3 -->
<g id="node3" class="node"><title>Node3</title>
<polygon fill="white" stroke="#bfbfbf" points="70.5,-0.5 70.5,-21.5 115.5,-21.5 115.5,-0.5 70.5,-0.5"/>
<text text-anchor="middle" x="93" y="-7.9" font-family="Helvetica,sans-Serif" font-size="12.00">string</text>
</g>
<!-- Node1&#45;&gt;Node3 -->
<g id="edge2" class="edge"><title>Node1&#45;&gt;Node3</title>
<path fill="none" stroke="midnightblue" d="M64.9223,-58.2455C69.6027,-50.5367 76.2673,-39.5598 81.9289,-30.2348"/>
<polygon fill="midnightblue" stroke="midnightblue" points="84.9475,-32.007 87.1455,-21.6427 78.9639,-28.3741 84.9475,-32.007"/>
</g>
</g>
</svg>
