<?xml version="1.0" encoding="UTF-8" standalone="no"?>
<!DOCTYPE svg PUBLIC "-//W3C//DTD SVG 1.1//EN"
 "http://www.w3.org/Graphics/SVG/1.1/DTD/svg11.dtd">
<!-- Generated by graphviz version 2.34.0 (20130907.0111)
 -->
<!-- Title: Documentation/Operator&#45;Console/JSON/JSONGlobals.h Pages: 1 -->
<svg width="641pt" height="218pt"
 viewBox="0.00 0.00 640.61 218.00" xmlns="http://www.w3.org/2000/svg" xmlns:xlink="http://www.w3.org/1999/xlink">
<g id="graph0" class="graph" transform="scale(1 1) rotate(0) translate(4 214)">
<title>Documentation/Operator&#45;Console/JSON/JSONGlobals.h</title>
<polygon fill="white" stroke="white" points="-4,4 -4,-214 636.615,-214 636.615,4 -4,4"/>
<!-- Node1 -->
<g id="node1" class="node"><title>Node1</title>
<polygon fill="#bfbfbf" stroke="black" points="197.615,-175 197.615,-209 379.615,-209 379.615,-175 197.615,-175"/>
<text text-anchor="start" x="205.615" y="-195.4" font-family="Helvetica,sans-Serif" font-size="12.00">Documentation/Operator</text>
<text text-anchor="middle" x="288.615" y="-182.4" font-family="Helvetica,sans-Serif" font-size="12.00">&#45;Console/JSON/JSONGlobals.h</text>
</g>
<!-- Node2 -->
<g id="node2" class="node"><title>Node2</title>
<g id="a_node2"><a xlink:href="../../da/dbf/_documentation_2_operator-_console_2_j_s_o_n_2_j_s_o_n_defs_8h.html" target="_top" xlink:title="JSONDefs.h">
<polygon fill="white" stroke="black" points="206.615,-116.5 206.615,-137.5 288.615,-137.5 288.615,-116.5 206.615,-116.5"/>
<text text-anchor="middle" x="247.615" y="-123.9" font-family="Helvetica,sans-Serif" font-size="12.00">JSONDefs.h</text>
</a>
</g>
</g>
<!-- Node1&#45;&gt;Node2 -->
<g id="edge1" class="edge"><title>Node1&#45;&gt;Node2</title>
<path fill="none" stroke="midnightblue" d="M278.056,-174.776C272.351,-166.009 265.29,-155.159 259.405,-146.116"/>
<polygon fill="midnightblue" stroke="midnightblue" points="262.192,-143.983 253.804,-137.511 256.325,-147.801 262.192,-143.983"/>
</g>
<!-- Node9 -->
<g id="node9" class="node"><title>Node9</title>
<polygon fill="white" stroke="#bfbfbf" points="307.115,-116.5 307.115,-137.5 352.115,-137.5 352.115,-116.5 307.115,-116.5"/>
<text text-anchor="middle" x="329.615" y="-123.9" font-family="Helvetica,sans-Serif" font-size="12.00">string</text>
</g>
<!-- Node1&#45;&gt;Node9 -->
<g id="edge9" class="edge"><title>Node1&#45;&gt;Node9</title>
<path fill="none" stroke="midnightblue" d="M299.173,-174.776C304.879,-166.009 311.94,-155.159 317.825,-146.116"/>
<polygon fill="midnightblue" stroke="midnightblue" points="320.904,-147.801 323.425,-137.511 315.037,-143.983 320.904,-147.801"/>
</g>
<!-- Node3 -->
<g id="node3" class="node"><title>Node3</title>
<g id="a_node3"><a xlink:href="../../de/d2a/_documentation_2_operator-_console_2_j_s_o_n_options_8h.html" target="_top" xlink:title="..\\JSONOptions.h">
<polygon fill="white" stroke="black" points="170.115,-0.5 170.115,-21.5 277.115,-21.5 277.115,-0.5 170.115,-0.5"/>
<text text-anchor="middle" x="223.615" y="-7.9" font-family="Helvetica,sans-Serif" font-size="12.00">..\JSONOptions.h</text>
</a>
</g>
</g>
<!-- Node2&#45;&gt;Node3 -->
<g id="edge2" class="edge"><title>Node2&#45;&gt;Node3</title>
<path fill="none" stroke="midnightblue" d="M206.573,-124.157C145.211,-120.444 34.1242,-109.7 9.61493,-80 -33.7814,-27.413 82.0036,-14.941 159.722,-12.3165"/>
<polygon fill="midnightblue" stroke="midnightblue" points="160.048,-15.8086 169.942,-12.0198 159.845,-8.81155 160.048,-15.8086"/>
</g>
<!-- Node4 -->
<g id="node4" class="node"><title>Node4</title>
<g id="a_node4"><a xlink:href="../../d3/d83/_documentation_2_operator-_console_2_j_s_o_n_2_j_s_o_n_defs_2_unknown___c_8h.html" target="_top" xlink:title="JSONDefs\\Unknown_C.h">
<polygon fill="white" stroke="black" points="18.6149,-58.5 18.6149,-79.5 166.615,-79.5 166.615,-58.5 18.6149,-58.5"/>
<text text-anchor="middle" x="92.6149" y="-65.9" font-family="Helvetica,sans-Serif" font-size="12.00">JSONDefs\Unknown_C.h</text>
</a>
</g>
</g>
<!-- Node2&#45;&gt;Node4 -->
<g id="edge3" class="edge"><title>Node2&#45;&gt;Node4</title>
<path fill="none" stroke="midnightblue" d="M220.969,-116.373C195.418,-107.142 156.664,-93.1402 128.424,-82.9375"/>
<polygon fill="midnightblue" stroke="midnightblue" points="129.507,-79.6074 118.913,-79.5011 127.128,-86.1909 129.507,-79.6074"/>
</g>
<!-- Node5 -->
<g id="node5" class="node"><title>Node5</title>
<g id="a_node5"><a xlink:href="../../da/d53/_documentation_2_operator-_console_2_j_s_o_n_2_j_s_o_n_defs_2_g_n_u___c_8h.html" target="_top" xlink:title="JSONDefs\\GNU_C.h">
<polygon fill="white" stroke="black" points="184.615,-58.5 184.615,-79.5 310.615,-79.5 310.615,-58.5 184.615,-58.5"/>
<text text-anchor="middle" x="247.615" y="-65.9" font-family="Helvetica,sans-Serif" font-size="12.00">JSONDefs\GNU_C.h</text>
</a>
</g>
</g>
<!-- Node2&#45;&gt;Node5 -->
<g id="edge4" class="edge"><title>Node2&#45;&gt;Node5</title>
<path fill="none" stroke="midnightblue" d="M247.615,-116.246C247.615,-108.938 247.615,-98.6944 247.615,-89.7046"/>
<polygon fill="midnightblue" stroke="midnightblue" points="251.115,-89.6426 247.615,-79.6427 244.115,-89.6427 251.115,-89.6426"/>
</g>
<!-- Node6 -->
<g id="node6" class="node"><title>Node6</title>
<g id="a_node6"><a xlink:href="../../de/d63/_documentation_2_operator-_console_2_j_s_o_n_2_j_s_o_n_defs_2_visual___c_8h.html" target="_top" xlink:title="JSONDefs\\Visual_C.h">
<polygon fill="white" stroke="black" points="329.115,-58.5 329.115,-79.5 462.115,-79.5 462.115,-58.5 329.115,-58.5"/>
<text text-anchor="middle" x="395.615" y="-65.9" font-family="Helvetica,sans-Serif" font-size="12.00">JSONDefs\Visual_C.h</text>
</a>
</g>
</g>
<!-- Node2&#45;&gt;Node6 -->
<g id="edge5" class="edge"><title>Node2&#45;&gt;Node6</title>
<path fill="none" stroke="midnightblue" d="M273.057,-116.373C297.348,-107.182 334.136,-93.2624 361.069,-83.0713"/>
<polygon fill="midnightblue" stroke="midnightblue" points="362.391,-86.3136 370.505,-79.5011 359.913,-79.7666 362.391,-86.3136"/>
</g>
<!-- Node7 -->
<g id="node7" class="node"><title>Node7</title>
<g id="a_node7"><a xlink:href="../../d0/d89/_documentation_2_operator-_console_2_j_s_o_n_2_j_s_o_n_defs_2_strings___defs_8h.html" target="_top" xlink:title="JSONDefs\\Strings_Defs.h">
<polygon fill="white" stroke="black" points="480.115,-58.5 480.115,-79.5 633.115,-79.5 633.115,-58.5 480.115,-58.5"/>
<text text-anchor="middle" x="556.615" y="-65.9" font-family="Helvetica,sans-Serif" font-size="12.00">JSONDefs\Strings_Defs.h</text>
</a>
</g>
</g>
<!-- Node2&#45;&gt;Node7 -->
<g id="edge6" class="edge"><title>Node2&#45;&gt;Node7</title>
<path fill="none" stroke="midnightblue" d="M288.802,-117.689C291.783,-117.11 294.744,-116.542 297.615,-116 363.247,-103.61 438.419,-90.3635 490.811,-81.2828"/>
<polygon fill="midnightblue" stroke="midnightblue" points="491.719,-84.6777 500.976,-79.5237 490.526,-77.7803 491.719,-84.6777"/>
</g>
<!-- Node7&#45;&gt;Node3 -->
<g id="edge7" class="edge"><title>Node7&#45;&gt;Node3</title>
<path fill="none" stroke="midnightblue" d="M499.749,-58.4369C440.713,-48.509 348.574,-33.0142 287.174,-22.6886"/>
<polygon fill="midnightblue" stroke="midnightblue" points="287.658,-19.221 277.216,-21.0141 286.498,-26.1241 287.658,-19.221"/>
</g>
<!-- Node8 -->
<g id="node8" class="node"><title>Node8</title>
<polygon fill="white" stroke="#bfbfbf" points="529.615,-0.5 529.615,-21.5 583.615,-21.5 583.615,-0.5 529.615,-0.5"/>
<text text-anchor="middle" x="556.615" y="-7.9" font-family="Helvetica,sans-Serif" font-size="12.00">string.h</text>
</g>
<!-- Node7&#45;&gt;Node8 -->
<g id="edge8" class="edge"><title>Node7&#45;&gt;Node8</title>
<path fill="none" stroke="midnightblue" d="M556.615,-58.2455C556.615,-50.9382 556.615,-40.6944 556.615,-31.7046"/>
<polygon fill="midnightblue" stroke="midnightblue" points="560.115,-31.6426 556.615,-21.6427 553.115,-31.6427 560.115,-31.6426"/>
</g>
</g>
</svg>
