<?xml version="1.0" encoding="UTF-8" standalone="no"?>
<!DOCTYPE svg PUBLIC "-//W3C//DTD SVG 1.1//EN"
 "http://www.w3.org/Graphics/SVG/1.1/DTD/svg11.dtd">
<!-- Generated by graphviz version 2.34.0 (20130907.0111)
 -->
<!-- Title: StdoutThread.h Pages: 1 -->
<svg width="1062pt" height="204pt"
 viewBox="0.00 0.00 1062.00 204.00" xmlns="http://www.w3.org/2000/svg" xmlns:xlink="http://www.w3.org/1999/xlink">
<g id="graph0" class="graph" transform="scale(1 1) rotate(0) translate(4 200)">
<title>StdoutThread.h</title>
<polygon fill="white" stroke="white" points="-4,4 -4,-200 1058,-200 1058,4 -4,4"/>
<!-- Node1 -->
<g id="node1" class="node"><title>Node1</title>
<polygon fill="#bfbfbf" stroke="black" points="516,-174.5 516,-195.5 612,-195.5 612,-174.5 516,-174.5"/>
<text text-anchor="middle" x="564" y="-181.9" font-family="Helvetica,sans-Serif" font-size="12.00">StdoutThread.h</text>
</g>
<!-- Node2 -->
<g id="node2" class="node"><title>Node2</title>
<g id="a_node2"><a xlink:href="../../d5/dd3/_stderr_thread_8h.html" target="_top" xlink:title="StderrThread.h">
<polygon fill="white" stroke="black" points="516.5,-116.5 516.5,-137.5 611.5,-137.5 611.5,-116.5 516.5,-116.5"/>
<text text-anchor="middle" x="564" y="-123.9" font-family="Helvetica,sans-Serif" font-size="12.00">StderrThread.h</text>
</a>
</g>
</g>
<!-- Node1&#45;&gt;Node2 -->
<g id="edge1" class="edge"><title>Node1&#45;&gt;Node2</title>
<path fill="none" stroke="midnightblue" d="M564,-164.158C564,-155.155 564,-144.92 564,-137.643"/>
<polygon fill="midnightblue" stroke="midnightblue" points="560.5,-164.246 564,-174.246 567.5,-164.246 560.5,-164.246"/>
</g>
<!-- Node3 -->
<g id="node3" class="node"><title>Node3</title>
<g id="a_node3"><a xlink:href="../../da/de6/_operator_console_8h.html" target="_top" xlink:title="OperatorConsole.h">
<polygon fill="white" stroke="black" points="430,-58.5 430,-79.5 546,-79.5 546,-58.5 430,-58.5"/>
<text text-anchor="middle" x="488" y="-65.9" font-family="Helvetica,sans-Serif" font-size="12.00">OperatorConsole.h</text>
</a>
</g>
</g>
<!-- Node1&#45;&gt;Node3 -->
<g id="edge13" class="edge"><title>Node1&#45;&gt;Node3</title>
<path fill="none" stroke="midnightblue" d="M538.549,-168.667C527.403,-160.776 515.054,-150.237 507,-138 494.869,-119.57 490.404,-93.4391 488.822,-79.5481"/>
<polygon fill="midnightblue" stroke="midnightblue" points="536.869,-171.754 547.126,-174.409 540.764,-165.937 536.869,-171.754"/>
</g>
<!-- Node14 -->
<g id="node14" class="node"><title>Node14</title>
<g id="a_node14"><a xlink:href="../../d5/df2/_stdout_thread_8cpp.html" target="_top" xlink:title="StdoutThread.cpp">
<polygon fill="white" stroke="black" points="630,-116.5 630,-137.5 740,-137.5 740,-116.5 630,-116.5"/>
<text text-anchor="middle" x="685" y="-123.9" font-family="Helvetica,sans-Serif" font-size="12.00">StdoutThread.cpp</text>
</a>
</g>
</g>
<!-- Node1&#45;&gt;Node14 -->
<g id="edge14" class="edge"><title>Node1&#45;&gt;Node14</title>
<path fill="none" stroke="midnightblue" d="M594.01,-170.111C615.953,-159.956 645.139,-146.448 664.471,-137.501"/>
<polygon fill="midnightblue" stroke="midnightblue" points="592.406,-166.997 584.801,-174.373 595.346,-173.349 592.406,-166.997"/>
</g>
<!-- Node2&#45;&gt;Node3 -->
<g id="edge2" class="edge"><title>Node2&#45;&gt;Node3</title>
<path fill="none" stroke="midnightblue" d="M542.57,-110.21C529.222,-100.374 512.482,-88.0394 501.086,-79.6427"/>
<polygon fill="midnightblue" stroke="midnightblue" points="540.635,-113.131 550.762,-116.246 544.787,-107.496 540.635,-113.131"/>
</g>
<!-- Node13 -->
<g id="node13" class="node"><title>Node13</title>
<g id="a_node13"><a xlink:href="../../d2/de6/_stderr_thread_8cpp.html" target="_top" xlink:title="StderrThread.cpp">
<polygon fill="white" stroke="black" points="564,-58.5 564,-79.5 672,-79.5 672,-58.5 564,-58.5"/>
<text text-anchor="middle" x="618" y="-65.9" font-family="Helvetica,sans-Serif" font-size="12.00">StderrThread.cpp</text>
</a>
</g>
</g>
<!-- Node2&#45;&gt;Node13 -->
<g id="edge12" class="edge"><title>Node2&#45;&gt;Node13</title>
<path fill="none" stroke="midnightblue" d="M580.597,-108.788C589.835,-99.2085 600.99,-87.6396 608.702,-79.6427"/>
<polygon fill="midnightblue" stroke="midnightblue" points="577.828,-106.618 573.406,-116.246 582.867,-111.477 577.828,-106.618"/>
</g>
<!-- Node4 -->
<g id="node4" class="node"><title>Node4</title>
<g id="a_node4"><a xlink:href="../../d3/d22/_app_thread_8cpp.html" target="_top" xlink:title="AppThread.cpp">
<polygon fill="white" stroke="black" points="0,-0.5 0,-21.5 98,-21.5 98,-0.5 0,-0.5"/>
<text text-anchor="middle" x="49" y="-7.9" font-family="Helvetica,sans-Serif" font-size="12.00">AppThread.cpp</text>
</a>
</g>
</g>
<!-- Node3&#45;&gt;Node4 -->
<g id="edge3" class="edge"><title>Node3&#45;&gt;Node4</title>
<path fill="none" stroke="midnightblue" d="M419.817,-60.8199C343.477,-52.5362 216.146,-37.9875 107,-22 104.068,-21.5705 101.056,-21.11 98.0199,-20.6311"/>
<polygon fill="midnightblue" stroke="midnightblue" points="419.467,-64.3023 429.785,-61.8973 420.219,-57.3428 419.467,-64.3023"/>
</g>
<!-- Node5 -->
<g id="node5" class="node"><title>Node5</title>
<g id="a_node5"><a xlink:href="../../d6/df7/_critical_buf_8cpp.html" target="_top" xlink:title="CriticalBuf.cpp">
<polygon fill="white" stroke="black" points="116.5,-0.5 116.5,-21.5 209.5,-21.5 209.5,-0.5 116.5,-0.5"/>
<text text-anchor="middle" x="163" y="-7.9" font-family="Helvetica,sans-Serif" font-size="12.00">CriticalBuf.cpp</text>
</a>
</g>
</g>
<!-- Node3&#45;&gt;Node5 -->
<g id="edge4" class="edge"><title>Node3&#45;&gt;Node5</title>
<path fill="none" stroke="midnightblue" d="M421.688,-56.7998C367.227,-47.5678 288.091,-34.0761 219,-22 215.984,-21.4729 212.878,-20.9268 209.746,-20.374"/>
<polygon fill="midnightblue" stroke="midnightblue" points="421.118,-60.253 431.562,-58.4727 422.287,-53.3513 421.118,-60.253"/>
</g>
<!-- Node6 -->
<g id="node6" class="node"><title>Node6</title>
<g id="a_node6"><a xlink:href="../../d8/d53/_image_test_8cpp.html" target="_top" xlink:title="ImageTest.cpp">
<polygon fill="white" stroke="black" points="228,-0.5 228,-21.5 322,-21.5 322,-0.5 228,-0.5"/>
<text text-anchor="middle" x="275" y="-7.9" font-family="Helvetica,sans-Serif" font-size="12.00">ImageTest.cpp</text>
</a>
</g>
</g>
<!-- Node3&#45;&gt;Node6 -->
<g id="edge5" class="edge"><title>Node3&#45;&gt;Node6</title>
<path fill="none" stroke="midnightblue" d="M441.542,-55.7856C402.361,-45.4845 347.076,-30.9497 311.138,-21.5011"/>
<polygon fill="midnightblue" stroke="midnightblue" points="440.823,-59.2155 451.384,-58.3733 442.603,-52.4455 440.823,-59.2155"/>
</g>
<!-- Node7 -->
<g id="node7" class="node"><title>Node7</title>
<g id="a_node7"><a xlink:href="../../df/d0a/main_8cpp.html" target="_top" xlink:title="main.cpp">
<polygon fill="white" stroke="black" points="340.5,-0.5 340.5,-21.5 405.5,-21.5 405.5,-0.5 340.5,-0.5"/>
<text text-anchor="middle" x="373" y="-7.9" font-family="Helvetica,sans-Serif" font-size="12.00">main.cpp</text>
</a>
</g>
</g>
<!-- Node3&#45;&gt;Node7 -->
<g id="edge6" class="edge"><title>Node3&#45;&gt;Node7</title>
<path fill="none" stroke="midnightblue" d="M459.197,-53.9741C438.375,-43.8348 410.802,-30.408 392.511,-21.5011"/>
<polygon fill="midnightblue" stroke="midnightblue" points="457.708,-57.1419 468.231,-58.3733 460.772,-50.8484 457.708,-57.1419"/>
</g>
<!-- Node8 -->
<g id="node8" class="node"><title>Node8</title>
<g id="a_node8"><a xlink:href="../../de/da2/_operator_console_8cpp.html" target="_top" xlink:title="OperatorConsole.cpp">
<polygon fill="white" stroke="black" points="423.5,-0.5 423.5,-21.5 552.5,-21.5 552.5,-0.5 423.5,-0.5"/>
<text text-anchor="middle" x="488" y="-7.9" font-family="Helvetica,sans-Serif" font-size="12.00">OperatorConsole.cpp</text>
</a>
</g>
</g>
<!-- Node3&#45;&gt;Node8 -->
<g id="edge7" class="edge"><title>Node3&#45;&gt;Node8</title>
<path fill="none" stroke="midnightblue" d="M488,-48.1575C488,-39.155 488,-28.9199 488,-21.6427"/>
<polygon fill="midnightblue" stroke="midnightblue" points="484.5,-48.2455 488,-58.2455 491.5,-48.2456 484.5,-48.2455"/>
</g>
<!-- Node9 -->
<g id="node9" class="node"><title>Node9</title>
<g id="a_node9"><a xlink:href="../../d8/d29/_operator_console_dlg_8cpp.html" target="_top" xlink:title="OperatorConsoleDlg.cpp">
<polygon fill="white" stroke="black" points="570.5,-0.5 570.5,-21.5 717.5,-21.5 717.5,-0.5 570.5,-0.5"/>
<text text-anchor="middle" x="644" y="-7.9" font-family="Helvetica,sans-Serif" font-size="12.00">OperatorConsoleDlg.cpp</text>
</a>
</g>
</g>
<!-- Node3&#45;&gt;Node9 -->
<g id="edge8" class="edge"><title>Node3&#45;&gt;Node9</title>
<path fill="none" stroke="midnightblue" d="M524.428,-54.9231C552.946,-44.686 591.938,-30.6889 617.533,-21.5011"/>
<polygon fill="midnightblue" stroke="midnightblue" points="523.047,-51.7004 514.817,-58.3733 525.412,-58.2887 523.047,-51.7004"/>
</g>
<!-- Node10 -->
<g id="node10" class="node"><title>Node10</title>
<g id="a_node10"><a xlink:href="../../d0/d57/_pass_fail_8cpp.html" target="_top" xlink:title="PassFail.cpp">
<polygon fill="white" stroke="black" points="736,-0.5 736,-21.5 822,-21.5 822,-0.5 736,-0.5"/>
<text text-anchor="middle" x="779" y="-7.9" font-family="Helvetica,sans-Serif" font-size="12.00">PassFail.cpp</text>
</a>
</g>
</g>
<!-- Node3&#45;&gt;Node10 -->
<g id="edge9" class="edge"><title>Node3&#45;&gt;Node10</title>
<path fill="none" stroke="midnightblue" d="M547.814,-56.4893C603.722,-45.7305 685.85,-29.9258 735.683,-20.3359"/>
<polygon fill="midnightblue" stroke="midnightblue" points="546.852,-53.1101 537.694,-58.4369 548.175,-59.984 546.852,-53.1101"/>
</g>
<!-- Node11 -->
<g id="node11" class="node"><title>Node11</title>
<g id="a_node11"><a xlink:href="../../da/d46/_password_dialog_8cpp.html" target="_top" xlink:title="PasswordDialog.cpp">
<polygon fill="white" stroke="black" points="840,-0.5 840,-21.5 966,-21.5 966,-0.5 840,-0.5"/>
<text text-anchor="middle" x="903" y="-7.9" font-family="Helvetica,sans-Serif" font-size="12.00">PasswordDialog.cpp</text>
</a>
</g>
</g>
<!-- Node3&#45;&gt;Node11 -->
<g id="edge10" class="edge"><title>Node3&#45;&gt;Node11</title>
<path fill="none" stroke="midnightblue" d="M556.284,-57.84C679.206,-40.7344 711.633,-38.0738 831,-22 833.877,-21.6126 836.818,-21.2142 839.788,-20.8097"/>
<polygon fill="midnightblue" stroke="midnightblue" points="555.515,-54.4133 546.095,-59.2621 556.483,-61.3461 555.515,-54.4133"/>
</g>
<!-- Node12 -->
<g id="node12" class="node"><title>Node12</title>
<g id="a_node12"><a xlink:href="../../d5/d27/_setup_8cpp.html" target="_top" xlink:title="Setup.cpp">
<polygon fill="white" stroke="black" points="984,-0.5 984,-21.5 1054,-21.5 1054,-0.5 984,-0.5"/>
<text text-anchor="middle" x="1019" y="-7.9" font-family="Helvetica,sans-Serif" font-size="12.00">Setup.cpp</text>
</a>
</g>
</g>
<!-- Node3&#45;&gt;Node12 -->
<g id="edge11" class="edge"><title>Node3&#45;&gt;Node12</title>
<path fill="none" stroke="midnightblue" d="M556.224,-57.9292C742.832,-36.6633 793.134,-50.3223 975,-22 977.787,-21.566 980.659,-21.0564 983.539,-20.5009"/>
<polygon fill="midnightblue" stroke="midnightblue" points="555.606,-54.4773 546.075,-59.1047 556.411,-61.4308 555.606,-54.4773"/>
</g>
</g>
</svg>
