<?xml version="1.0" encoding="UTF-8" standalone="no"?>
<!DOCTYPE svg PUBLIC "-//W3C//DTD SVG 1.1//EN"
 "http://www.w3.org/Graphics/SVG/1.1/DTD/svg11.dtd">
<!-- Generated by graphviz version 2.34.0 (20130907.0111)
 -->
<!-- Title: Documentation/Operator&#45;Console/PassFailSettings.h Pages: 1 -->
<svg width="600pt" height="218pt"
 viewBox="0.00 0.00 600.00 218.00" xmlns="http://www.w3.org/2000/svg" xmlns:xlink="http://www.w3.org/1999/xlink">
<g id="graph0" class="graph" transform="scale(1 1) rotate(0) translate(4 214)">
<title>Documentation/Operator&#45;Console/PassFailSettings.h</title>
<polygon fill="white" stroke="white" points="-4,4 -4,-214 596,-214 596,4 -4,4"/>
<!-- Node1 -->
<g id="node1" class="node"><title>Node1</title>
<polygon fill="#bfbfbf" stroke="black" points="298.5,-175 298.5,-209 463.5,-209 463.5,-175 298.5,-175"/>
<text text-anchor="start" x="306.5" y="-195.4" font-family="Helvetica,sans-Serif" font-size="12.00">Documentation/Operator</text>
<text text-anchor="middle" x="381" y="-182.4" font-family="Helvetica,sans-Serif" font-size="12.00">&#45;Console/PassFailSettings.h</text>
</g>
<!-- Node2 -->
<g id="node2" class="node"><title>Node2</title>
<g id="a_node2"><a xlink:href="../../d9/d2e/_documentation_2_operator-_console_2stdafx_8h.html" target="_top" xlink:title="stdafx.h">
<polygon fill="white" stroke="black" points="256,-116.5 256,-137.5 312,-137.5 312,-116.5 256,-116.5"/>
<text text-anchor="middle" x="284" y="-123.9" font-family="Helvetica,sans-Serif" font-size="12.00">stdafx.h</text>
</a>
</g>
</g>
<!-- Node1&#45;&gt;Node2 -->
<g id="edge1" class="edge"><title>Node1&#45;&gt;Node2</title>
<path fill="none" stroke="midnightblue" d="M356.272,-174.939C341.211,-165.158 322.088,-152.738 307.296,-143.13"/>
<polygon fill="midnightblue" stroke="midnightblue" points="309.014,-140.072 298.721,-137.561 305.201,-145.943 309.014,-140.072"/>
</g>
<!-- Node11 -->
<g id="node11" class="node"><title>Node11</title>
<polygon fill="white" stroke="#bfbfbf" points="330,-116.5 330,-137.5 370,-137.5 370,-116.5 330,-116.5"/>
<text text-anchor="middle" x="350" y="-123.9" font-family="Helvetica,sans-Serif" font-size="12.00">map</text>
</g>
<!-- Node1&#45;&gt;Node11 -->
<g id="edge10" class="edge"><title>Node1&#45;&gt;Node11</title>
<path fill="none" stroke="midnightblue" d="M373.017,-174.776C368.794,-166.194 363.588,-155.615 359.197,-146.69"/>
<polygon fill="midnightblue" stroke="midnightblue" points="362.235,-144.938 354.68,-137.511 355.955,-148.029 362.235,-144.938"/>
</g>
<!-- Node12 -->
<g id="node12" class="node"><title>Node12</title>
<polygon fill="white" stroke="#bfbfbf" points="388,-116.5 388,-137.5 436,-137.5 436,-116.5 388,-116.5"/>
<text text-anchor="middle" x="412" y="-123.9" font-family="Helvetica,sans-Serif" font-size="12.00">vector</text>
</g>
<!-- Node1&#45;&gt;Node12 -->
<g id="edge11" class="edge"><title>Node1&#45;&gt;Node12</title>
<path fill="none" stroke="midnightblue" d="M388.983,-174.776C393.206,-166.194 398.412,-155.615 402.803,-146.69"/>
<polygon fill="midnightblue" stroke="midnightblue" points="406.045,-148.029 407.32,-137.511 399.765,-144.938 406.045,-148.029"/>
</g>
<!-- Node13 -->
<g id="node13" class="node"><title>Node13</title>
<polygon fill="white" stroke="#bfbfbf" points="454.5,-116.5 454.5,-137.5 499.5,-137.5 499.5,-116.5 454.5,-116.5"/>
<text text-anchor="middle" x="477" y="-123.9" font-family="Helvetica,sans-Serif" font-size="12.00">string</text>
</g>
<!-- Node1&#45;&gt;Node13 -->
<g id="edge12" class="edge"><title>Node1&#45;&gt;Node13</title>
<path fill="none" stroke="midnightblue" d="M405.473,-174.939C420.378,-165.158 439.305,-152.738 453.944,-143.13"/>
<polygon fill="midnightblue" stroke="midnightblue" points="455.991,-145.974 462.431,-137.561 452.15,-140.121 455.991,-145.974"/>
</g>
<!-- Node3 -->
<g id="node3" class="node"><title>Node3</title>
<g id="a_node3"><a xlink:href="../../da/d3f/_documentation_2_operator-_console_2targetver_8h.html" target="_top" xlink:title="targetver.h">
<polygon fill="white" stroke="black" points="12.5,-58.5 12.5,-79.5 83.5,-79.5 83.5,-58.5 12.5,-58.5"/>
<text text-anchor="middle" x="48" y="-65.9" font-family="Helvetica,sans-Serif" font-size="12.00">targetver.h</text>
</a>
</g>
</g>
<!-- Node2&#45;&gt;Node3 -->
<g id="edge2" class="edge"><title>Node2&#45;&gt;Node3</title>
<path fill="none" stroke="midnightblue" d="M255.533,-119.245C215.359,-109.712 141.598,-92.2098 93.6996,-80.844"/>
<polygon fill="midnightblue" stroke="midnightblue" points="94.4304,-77.4203 83.8924,-78.5168 92.8142,-84.2311 94.4304,-77.4203"/>
</g>
<!-- Node5 -->
<g id="node5" class="node"><title>Node5</title>
<polygon fill="white" stroke="#bfbfbf" points="102,-58.5 102,-79.5 160,-79.5 160,-58.5 102,-58.5"/>
<text text-anchor="middle" x="131" y="-65.9" font-family="Helvetica,sans-Serif" font-size="12.00">afxwin.h</text>
</g>
<!-- Node2&#45;&gt;Node5 -->
<g id="edge4" class="edge"><title>Node2&#45;&gt;Node5</title>
<path fill="none" stroke="midnightblue" d="M257.698,-116.373C232.587,-107.182 194.556,-93.2624 166.713,-83.0713"/>
<polygon fill="midnightblue" stroke="midnightblue" points="167.552,-79.6516 156.958,-79.5011 165.146,-86.2251 167.552,-79.6516"/>
</g>
<!-- Node6 -->
<g id="node6" class="node"><title>Node6</title>
<polygon fill="white" stroke="#bfbfbf" points="178,-58.5 178,-79.5 234,-79.5 234,-58.5 178,-58.5"/>
<text text-anchor="middle" x="206" y="-65.9" font-family="Helvetica,sans-Serif" font-size="12.00">afxext.h</text>
</g>
<!-- Node2&#45;&gt;Node6 -->
<g id="edge5" class="edge"><title>Node2&#45;&gt;Node6</title>
<path fill="none" stroke="midnightblue" d="M270.413,-116.246C258.67,-107.814 241.48,-95.4729 227.812,-85.6598"/>
<polygon fill="midnightblue" stroke="midnightblue" points="229.595,-82.6316 219.431,-79.6427 225.513,-88.3179 229.595,-82.6316"/>
</g>
<!-- Node7 -->
<g id="node7" class="node"><title>Node7</title>
<polygon fill="white" stroke="#bfbfbf" points="252.5,-58.5 252.5,-79.5 315.5,-79.5 315.5,-58.5 252.5,-58.5"/>
<text text-anchor="middle" x="284" y="-65.9" font-family="Helvetica,sans-Serif" font-size="12.00">afxdisp.h</text>
</g>
<!-- Node2&#45;&gt;Node7 -->
<g id="edge6" class="edge"><title>Node2&#45;&gt;Node7</title>
<path fill="none" stroke="midnightblue" d="M284,-116.246C284,-108.938 284,-98.6944 284,-89.7046"/>
<polygon fill="midnightblue" stroke="midnightblue" points="287.5,-89.6426 284,-79.6427 280.5,-89.6427 287.5,-89.6426"/>
</g>
<!-- Node8 -->
<g id="node8" class="node"><title>Node8</title>
<polygon fill="white" stroke="#bfbfbf" points="334,-58.5 334,-79.5 396,-79.5 396,-58.5 334,-58.5"/>
<text text-anchor="middle" x="365" y="-65.9" font-family="Helvetica,sans-Serif" font-size="12.00">afxdtctl.h</text>
</g>
<!-- Node2&#45;&gt;Node8 -->
<g id="edge7" class="edge"><title>Node2&#45;&gt;Node8</title>
<path fill="none" stroke="midnightblue" d="M298.109,-116.246C310.421,-107.734 328.496,-95.2375 342.754,-85.3801"/>
<polygon fill="midnightblue" stroke="midnightblue" points="344.817,-88.2085 351.053,-79.6427 340.837,-82.4506 344.817,-88.2085"/>
</g>
<!-- Node9 -->
<g id="node9" class="node"><title>Node9</title>
<polygon fill="white" stroke="#bfbfbf" points="414,-58.5 414,-79.5 476,-79.5 476,-58.5 414,-58.5"/>
<text text-anchor="middle" x="445" y="-65.9" font-family="Helvetica,sans-Serif" font-size="12.00">afxcmn.h</text>
</g>
<!-- Node2&#45;&gt;Node9 -->
<g id="edge8" class="edge"><title>Node2&#45;&gt;Node9</title>
<path fill="none" stroke="midnightblue" d="M311.677,-116.373C338.333,-107.102 378.824,-93.0178 408.188,-82.804"/>
<polygon fill="midnightblue" stroke="midnightblue" points="409.389,-86.0921 417.684,-79.5011 407.089,-79.4807 409.389,-86.0921"/>
</g>
<!-- Node10 -->
<g id="node10" class="node"><title>Node10</title>
<polygon fill="white" stroke="#bfbfbf" points="494,-58.5 494,-79.5 592,-79.5 592,-58.5 494,-58.5"/>
<text text-anchor="middle" x="543" y="-65.9" font-family="Helvetica,sans-Serif" font-size="12.00">afxcontrolbars.h</text>
</g>
<!-- Node2&#45;&gt;Node10 -->
<g id="edge9" class="edge"><title>Node2&#45;&gt;Node10</title>
<path fill="none" stroke="midnightblue" d="M312.237,-118.182C315.19,-117.42 318.152,-116.679 321,-116 375.993,-102.883 439.163,-90.0043 484.022,-81.2256"/>
<polygon fill="midnightblue" stroke="midnightblue" points="484.729,-84.6539 493.874,-79.3058 483.39,-77.7831 484.729,-84.6539"/>
</g>
<!-- Node4 -->
<g id="node4" class="node"><title>Node4</title>
<polygon fill="white" stroke="#bfbfbf" points="0,-0.5 0,-21.5 96,-21.5 96,-0.5 0,-0.5"/>
<text text-anchor="middle" x="48" y="-7.9" font-family="Helvetica,sans-Serif" font-size="12.00">SDKDDKVer.h</text>
</g>
<!-- Node3&#45;&gt;Node4 -->
<g id="edge3" class="edge"><title>Node3&#45;&gt;Node4</title>
<path fill="none" stroke="midnightblue" d="M48,-58.2455C48,-50.9382 48,-40.6944 48,-31.7046"/>
<polygon fill="midnightblue" stroke="midnightblue" points="51.5001,-31.6426 48,-21.6427 44.5001,-31.6427 51.5001,-31.6426"/>
</g>
</g>
</svg>
