<?xml version="1.0" encoding="UTF-8" standalone="no"?>
<!DOCTYPE svg PUBLIC "-//W3C//DTD SVG 1.1//EN"
 "http://www.w3.org/Graphics/SVG/1.1/DTD/svg11.dtd">
<!-- Generated by graphviz version 2.34.0 (20130907.0111)
 -->
<!-- Title: OISPassFail Pages: 1 -->
<svg width="246pt" height="372pt"
 viewBox="0.00 0.00 246.00 372.00" xmlns="http://www.w3.org/2000/svg" xmlns:xlink="http://www.w3.org/1999/xlink">
<g id="graph0" class="graph" transform="scale(1 1) rotate(0) translate(4 368)">
<title>OISPassFail</title>
<polygon fill="white" stroke="white" points="-4,4 -4,-368 242,-368 242,4 -4,4"/>
<!-- Node1 -->
<g id="node1" class="node"><title>Node1</title>
<polygon fill="#bfbfbf" stroke="black" points="63.5,-0.5 63.5,-21.5 146.5,-21.5 146.5,-0.5 63.5,-0.5"/>
<text text-anchor="middle" x="105" y="-7.9" font-family="Helvetica,sans-Serif" font-size="12.00">OISPassFail</text>
</g>
<!-- Node2 -->
<g id="node2" class="node"><title>Node2</title>
<g id="a_node2"><a xlink:href="../../d3/d96/structentry.html" target="_top" xlink:title="entry\&lt; long \&gt;">
<polygon fill="white" stroke="black" points="63.5,-124.5 63.5,-145.5 146.5,-145.5 146.5,-124.5 63.5,-124.5"/>
<text text-anchor="middle" x="105" y="-131.9" font-family="Helvetica,sans-Serif" font-size="12.00">entry&lt; long &gt;</text>
</a>
</g>
</g>
<!-- Node2&#45;&gt;Node1 -->
<g id="edge1" class="edge"><title>Node2&#45;&gt;Node1</title>
<path fill="none" stroke="#9a32cd" stroke-dasharray="5,2" d="M105,-114.391C105,-87.8282 105,-41.4446 105,-21.5287"/>
<polygon fill="#9a32cd" stroke="#9a32cd" points="101.5,-114.427 105,-124.427 108.5,-114.427 101.5,-114.427"/>
<text text-anchor="middle" x="171.5" y="-95.9" font-family="Helvetica,sans-Serif" font-size="12.00"> R_improve_H_dB_min</text>
<text text-anchor="middle" x="171.5" y="-82.9" font-family="Helvetica,sans-Serif" font-size="12.00">R_improve_V_dB_min</text>
<text text-anchor="start" x="105" y="-69.9" font-family="Helvetica,sans-Serif" font-size="12.00">L_MTF50_delta2_gain</text>
<text text-anchor="middle" x="171.5" y="-56.9" font-family="Helvetica,sans-Serif" font-size="12.00">_summary_all_dB_min</text>
<text text-anchor="middle" x="171.5" y="-43.9" font-family="Helvetica,sans-Serif" font-size="12.00">R_improve_ALL_dB_min</text>
</g>
<!-- Node3 -->
<g id="node3" class="node"><title>Node3</title>
<g id="a_node3"><a xlink:title="STL class. ">
<polygon fill="white" stroke="#bfbfbf" points="75.5,-268.5 75.5,-289.5 142.5,-289.5 142.5,-268.5 75.5,-268.5"/>
<text text-anchor="middle" x="109" y="-275.9" font-family="Helvetica,sans-Serif" font-size="12.00">std::string</text>
</a>
</g>
</g>
<!-- Node3&#45;&gt;Node2 -->
<g id="edge2" class="edge"><title>Node3&#45;&gt;Node2</title>
<path fill="none" stroke="#9a32cd" stroke-dasharray="5,2" d="M120.563,-259.397C121.98,-256.354 123.207,-253.161 124,-250 133.305,-212.928 135.226,-200.536 124,-164 121.93,-157.261 117.625,-150.688 113.636,-145.605"/>
<polygon fill="#9a32cd" stroke="#9a32cd" points="117.381,-257.923 115.681,-268.38 123.531,-261.265 117.381,-257.923"/>
<text text-anchor="middle" x="158.5" y="-203.9" font-family="Helvetica,sans-Serif" font-size="12.00"> data_type</text>
</g>
<!-- Node5 -->
<g id="node5" class="node"><title>Node5</title>
<g id="a_node5"><a xlink:href="../../d3/d96/structentry.html" target="_top" xlink:title="A templated struct that contains all information for a single, scalar pass/fail variable. ">
<polygon fill="white" stroke="black" points="34,-196.5 34,-217.5 102,-217.5 102,-196.5 34,-196.5"/>
<text text-anchor="middle" x="68" y="-203.9" font-family="Helvetica,sans-Serif" font-size="12.00">entry&lt; T &gt;</text>
</a>
</g>
</g>
<!-- Node3&#45;&gt;Node5 -->
<g id="edge5" class="edge"><title>Node3&#45;&gt;Node5</title>
<path fill="none" stroke="#9a32cd" stroke-dasharray="5,2" d="M79.4504,-262.341C75.27,-258.842 71.5375,-254.735 69,-250 63.6257,-239.971 64.43,-226.569 65.8784,-217.628"/>
<polygon fill="#9a32cd" stroke="#9a32cd" points="77.6708,-265.371 87.8449,-268.327 81.7349,-259.671 77.6708,-265.371"/>
<text text-anchor="middle" x="96.5" y="-239.9" font-family="Helvetica,sans-Serif" font-size="12.00"> data_type</text>
</g>
<!-- Node4 -->
<g id="node4" class="node"><title>Node4</title>
<g id="a_node4"><a xlink:title="STL class. ">
<polygon fill="white" stroke="#bfbfbf" points="54.5,-329 54.5,-363 163.5,-363 163.5,-329 54.5,-329"/>
<text text-anchor="start" x="62.5" y="-349.4" font-family="Helvetica,sans-Serif" font-size="12.00">std::basic_string&lt;</text>
<text text-anchor="middle" x="109" y="-336.4" font-family="Helvetica,sans-Serif" font-size="12.00"> char &gt;</text>
</a>
</g>
</g>
<!-- Node4&#45;&gt;Node3 -->
<g id="edge3" class="edge"><title>Node4&#45;&gt;Node3</title>
<path fill="none" stroke="midnightblue" d="M109,-318.722C109,-308.452 109,-297.32 109,-289.639"/>
<polygon fill="midnightblue" stroke="midnightblue" points="105.5,-318.933 109,-328.933 112.5,-318.933 105.5,-318.933"/>
</g>
<!-- Node5&#45;&gt;Node2 -->
<g id="edge4" class="edge"><title>Node5&#45;&gt;Node2</title>
<path fill="none" stroke="orange" stroke-dasharray="5,2" d="M70.9986,-186.602C72.6638,-179.219 75.1967,-170.925 79,-164 82.7684,-157.139 88.5868,-150.654 93.7648,-145.656"/>
<polygon fill="orange" stroke="orange" points="67.546,-186.023 69.1328,-196.499 74.4249,-187.32 67.546,-186.023"/>
<text text-anchor="middle" x="101.5" y="-167.9" font-family="Helvetica,sans-Serif" font-size="12.00"> &lt; long &gt;</text>
</g>
<!-- Node6 -->
<g id="node6" class="node"><title>Node6</title>
<polygon fill="white" stroke="#bfbfbf" points="-0.5,-268.5 -0.5,-289.5 28.5,-289.5 28.5,-268.5 -0.5,-268.5"/>
<text text-anchor="middle" x="14" y="-275.9" font-family="Helvetica,sans-Serif" font-size="12.00">T</text>
</g>
<!-- Node6&#45;&gt;Node5 -->
<g id="edge6" class="edge"><title>Node6&#45;&gt;Node5</title>
<path fill="none" stroke="#9a32cd" stroke-dasharray="5,2" d="M18.8853,-258.428C21.3899,-250.923 24.9938,-242.587 30,-236 35.5535,-228.693 43.5212,-222.42 50.7276,-217.675"/>
<polygon fill="#9a32cd" stroke="#9a32cd" points="15.4704,-257.638 16.0453,-268.217 22.1932,-259.588 15.4704,-257.638"/>
<text text-anchor="middle" x="45.5" y="-239.9" font-family="Helvetica,sans-Serif" font-size="12.00"> value</text>
</g>
</g>
</svg>
