<?xml version="1.0" encoding="UTF-8" standalone="no"?>
<!DOCTYPE svg PUBLIC "-//W3C//DTD SVG 1.1//EN"
 "http://www.w3.org/Graphics/SVG/1.1/DTD/svg11.dtd">
<!-- Generated by graphviz version 2.34.0 (20130907.0111)
 -->
<!-- Title: ModelessDialogThread Pages: 1 -->
<svg width="146pt" height="88pt"
 viewBox="0.00 0.00 146.00 88.00" xmlns="http://www.w3.org/2000/svg" xmlns:xlink="http://www.w3.org/1999/xlink">
<g id="graph0" class="graph" transform="scale(1 1) rotate(0) translate(4 84)">
<title>ModelessDialogThread</title>
<polygon fill="white" stroke="white" points="-4,4 -4,-84 142,-84 142,4 -4,4"/>
<!-- Node1 -->
<g id="node1" class="node"><title>Node1</title>
<polygon fill="#bfbfbf" stroke="black" points="-0.5,-0.5 -0.5,-21.5 138.5,-21.5 138.5,-0.5 -0.5,-0.5"/>
<text text-anchor="middle" x="69" y="-7.9" font-family="Helvetica,sans-Serif" font-size="12.00">ModelessDialogThread</text>
</g>
<!-- Node2 -->
<g id="node2" class="node"><title>Node2</title>
<polygon fill="white" stroke="#bfbfbf" points="27.5,-58.5 27.5,-79.5 110.5,-79.5 110.5,-58.5 27.5,-58.5"/>
<text text-anchor="middle" x="69" y="-65.9" font-family="Helvetica,sans-Serif" font-size="12.00">CWinThread</text>
</g>
<!-- Node2&#45;&gt;Node1 -->
<g id="edge1" class="edge"><title>Node2&#45;&gt;Node1</title>
<path fill="none" stroke="midnightblue" d="M62.5113,-48.1575C61.919,-39.155 62.3335,-28.9199 63.7549,-21.6427"/>
<polygon fill="midnightblue" stroke="midnightblue" points="59.0561,-48.739 63.7332,-58.2455 66.0053,-47.8972 59.0561,-48.739"/>
</g>
<!-- Node2&#45;&gt;Node1 -->
<g id="edge2" class="edge"><title>Node2&#45;&gt;Node1</title>
<path fill="none" stroke="midnightblue" d="M75.4887,-48.1575C76.081,-39.155 75.6665,-28.9199 74.2451,-21.6427"/>
<polygon fill="midnightblue" stroke="midnightblue" points="71.9947,-47.8972 74.2668,-58.2455 78.9439,-48.739 71.9947,-47.8972"/>
</g>
</g>
</svg>
