<?xml version="1.0" encoding="UTF-8" standalone="no"?>
<!DOCTYPE svg PUBLIC "-//W3C//DTD SVG 1.1//EN"
 "http://www.w3.org/Graphics/SVG/1.1/DTD/svg11.dtd">
<!-- Generated by graphviz version 2.34.0 (20130907.0111)
 -->
<!-- Title: JSON/internalJSONNode.cpp Pages: 1 -->
<svg width="836pt" height="552pt"
 viewBox="0.00 0.00 836.00 552.00" xmlns="http://www.w3.org/2000/svg" xmlns:xlink="http://www.w3.org/1999/xlink">
<g id="graph0" class="graph" transform="scale(1 1) rotate(0) translate(4 548)">
<title>JSON/internalJSONNode.cpp</title>
<polygon fill="white" stroke="white" points="-4,4 -4,-548 832,-548 832,4 -4,4"/>
<!-- Node1 -->
<g id="node1" class="node"><title>Node1</title>
<polygon fill="#bfbfbf" stroke="black" points="215.5,-522.5 215.5,-543.5 386.5,-543.5 386.5,-522.5 215.5,-522.5"/>
<text text-anchor="middle" x="301" y="-529.9" font-family="Helvetica,sans-Serif" font-size="12.00">JSON/internalJSONNode.cpp</text>
</g>
<!-- Node2 -->
<g id="node2" class="node"><title>Node2</title>
<g id="a_node2"><a xlink:href="../../da/d1f/_j_s_o_n_2internal_j_s_o_n_node_8h.html" target="_top" xlink:title="internalJSONNode.h">
<polygon fill="white" stroke="black" points="355.5,-348.5 355.5,-369.5 478.5,-369.5 478.5,-348.5 355.5,-348.5"/>
<text text-anchor="middle" x="417" y="-355.9" font-family="Helvetica,sans-Serif" font-size="12.00">internalJSONNode.h</text>
</a>
</g>
</g>
<!-- Node1&#45;&gt;Node2 -->
<g id="edge1" class="edge"><title>Node1&#45;&gt;Node2</title>
<path fill="none" stroke="midnightblue" d="M307.569,-522.26C326.311,-494.469 380.261,-414.475 404.703,-378.233"/>
<polygon fill="midnightblue" stroke="midnightblue" points="407.813,-379.881 410.503,-369.633 402.01,-375.967 407.813,-379.881"/>
</g>
<!-- Node15 -->
<g id="node15" class="node"><title>Node15</title>
<g id="a_node15"><a xlink:href="../../de/d55/_j_s_o_n_2_j_s_o_n_globals_8h.html" target="_top" xlink:title="JSONGlobals.h">
<polygon fill="white" stroke="black" points="199.5,-232.5 199.5,-253.5 296.5,-253.5 296.5,-232.5 199.5,-232.5"/>
<text text-anchor="middle" x="248" y="-239.9" font-family="Helvetica,sans-Serif" font-size="12.00">JSONGlobals.h</text>
</a>
</g>
</g>
<!-- Node1&#45;&gt;Node15 -->
<g id="edge41" class="edge"><title>Node1&#45;&gt;Node15</title>
<path fill="none" stroke="midnightblue" d="M215.305,-527.021C143.622,-517.663 53,-491.331 53,-418 53,-418 53,-418 53,-358 53,-321.746 154.723,-278.393 211.229,-257.107"/>
<polygon fill="midnightblue" stroke="midnightblue" points="212.732,-260.283 220.886,-253.518 210.293,-253.721 212.732,-260.283"/>
</g>
<!-- Node18 -->
<g id="node18" class="node"><title>Node18</title>
<g id="a_node18"><a xlink:href="../../de/d38/_j_s_o_n_2_number_to_string_8h.html" target="_top" xlink:title="NumberToString.h">
<polygon fill="white" stroke="black" points="623.5,-348.5 623.5,-369.5 734.5,-369.5 734.5,-348.5 623.5,-348.5"/>
<text text-anchor="middle" x="679" y="-355.9" font-family="Helvetica,sans-Serif" font-size="12.00">NumberToString.h</text>
</a>
</g>
</g>
<!-- Node1&#45;&gt;Node18 -->
<g id="edge25" class="edge"><title>Node1&#45;&gt;Node18</title>
<path fill="none" stroke="midnightblue" d="M322.133,-522.384C385.52,-493.541 574.235,-407.671 648.495,-373.881"/>
<polygon fill="midnightblue" stroke="midnightblue" points="650.131,-376.982 657.783,-369.654 647.231,-370.61 650.131,-376.982"/>
</g>
<!-- Node21 -->
<g id="node21" class="node"><title>Node21</title>
<g id="a_node21"><a xlink:href="../../d0/df5/_j_s_o_n_2_j_s_o_n_node_8h.html" target="_top" xlink:title="JSONNode.h">
<polygon fill="white" stroke="black" points="222,-406.5 222,-427.5 308,-427.5 308,-406.5 222,-406.5"/>
<text text-anchor="middle" x="265" y="-413.9" font-family="Helvetica,sans-Serif" font-size="12.00">JSONNode.h</text>
</a>
</g>
</g>
<!-- Node1&#45;&gt;Node21 -->
<g id="edge30" class="edge"><title>Node1&#45;&gt;Node21</title>
<path fill="none" stroke="midnightblue" d="M298.299,-522.27C294.588,-509.03 287.615,-484.623 281,-464 278.167,-455.169 274.825,-445.46 271.929,-437.248"/>
<polygon fill="midnightblue" stroke="midnightblue" points="275.225,-436.07 268.573,-427.824 268.631,-438.419 275.225,-436.07"/>
</g>
<!-- Node25 -->
<g id="node25" class="node"><title>Node25</title>
<g id="a_node25"><a xlink:href="../../d0/d4d/_j_s_o_n_2_j_s_o_n_worker_8h.html" target="_top" xlink:title="JSONWorker.h">
<polygon fill="white" stroke="black" points="177.5,-464.5 177.5,-485.5 272.5,-485.5 272.5,-464.5 177.5,-464.5"/>
<text text-anchor="middle" x="225" y="-471.9" font-family="Helvetica,sans-Serif" font-size="12.00">JSONWorker.h</text>
</a>
</g>
</g>
<!-- Node1&#45;&gt;Node25 -->
<g id="edge38" class="edge"><title>Node1&#45;&gt;Node25</title>
<path fill="none" stroke="midnightblue" d="M287.762,-522.246C276.319,-513.814 259.57,-501.473 246.253,-491.66"/>
<polygon fill="midnightblue" stroke="midnightblue" points="248.213,-488.757 238.086,-485.643 244.061,-494.392 248.213,-488.757"/>
</g>
<!-- Node3 -->
<g id="node3" class="node"><title>Node3</title>
<g id="a_node3"><a xlink:href="../../d6/dbe/_j_s_o_n_2_j_s_o_n_debug_8h.html" target="_top" xlink:title="JSONDebug.h">
<polygon fill="white" stroke="black" points="386,-174.5 386,-195.5 478,-195.5 478,-174.5 386,-174.5"/>
<text text-anchor="middle" x="432" y="-181.9" font-family="Helvetica,sans-Serif" font-size="12.00">JSONDebug.h</text>
</a>
</g>
</g>
<!-- Node2&#45;&gt;Node3 -->
<g id="edge2" class="edge"><title>Node2&#45;&gt;Node3</title>
<path fill="none" stroke="midnightblue" d="M478.765,-356.042C511.151,-351.475 548.297,-339.896 569,-312 604.189,-264.585 519.349,-220.664 467.897,-199.406"/>
<polygon fill="midnightblue" stroke="midnightblue" points="468.99,-196.073 458.406,-195.583 466.374,-202.566 468.99,-196.073"/>
</g>
<!-- Node11 -->
<g id="node11" class="node"><title>Node11</title>
<g id="a_node11"><a xlink:href="../../df/d61/_j_s_o_n_2_j_s_o_n_children_8h.html" target="_top" xlink:title="JSONChildren.h">
<polygon fill="white" stroke="black" points="459.5,-290.5 459.5,-311.5 560.5,-311.5 560.5,-290.5 459.5,-290.5"/>
<text text-anchor="middle" x="510" y="-297.9" font-family="Helvetica,sans-Serif" font-size="12.00">JSONChildren.h</text>
</a>
</g>
</g>
<!-- Node2&#45;&gt;Node11 -->
<g id="edge11" class="edge"><title>Node2&#45;&gt;Node11</title>
<path fill="none" stroke="midnightblue" d="M433.199,-348.246C447.602,-339.573 468.873,-326.765 485.38,-316.825"/>
<polygon fill="midnightblue" stroke="midnightblue" points="487.225,-319.8 493.986,-311.643 483.614,-313.803 487.225,-319.8"/>
</g>
<!-- Node12 -->
<g id="node12" class="node"><title>Node12</title>
<g id="a_node12"><a xlink:href="../../dc/d7c/_j_s_o_n_2_j_s_o_n_memory_8h.html" target="_top" xlink:title="JSONMemory.h">
<polygon fill="white" stroke="black" points="684.5,-232.5 684.5,-253.5 783.5,-253.5 783.5,-232.5 684.5,-232.5"/>
<text text-anchor="middle" x="734" y="-239.9" font-family="Helvetica,sans-Serif" font-size="12.00">JSONMemory.h</text>
</a>
</g>
</g>
<!-- Node2&#45;&gt;Node12 -->
<g id="edge18" class="edge"><title>Node2&#45;&gt;Node12</title>
<path fill="none" stroke="midnightblue" d="M469.715,-348.429C507.515,-340.737 559.27,-328.491 603,-312 605.694,-310.984 669.2,-277.864 706.785,-258.229"/>
<polygon fill="midnightblue" stroke="midnightblue" points="708.487,-261.288 715.729,-253.555 705.245,-255.084 708.487,-261.288"/>
</g>
<!-- Node2&#45;&gt;Node15 -->
<g id="edge19" class="edge"><title>Node2&#45;&gt;Node15</title>
<path fill="none" stroke="midnightblue" d="M382.83,-348.481C359.718,-340.975 329.282,-328.93 306,-312 287.086,-298.246 270.339,-277.117 259.763,-262.064"/>
<polygon fill="midnightblue" stroke="midnightblue" points="262.526,-259.903 254.012,-253.597 256.736,-263.836 262.526,-259.903"/>
</g>
<!-- Node17 -->
<g id="node17" class="node"><title>Node17</title>
<g id="a_node17"><a xlink:href="../../d7/d81/_j_s_o_n_2_j_s_o_n_shared_string_8h.html" target="_top" xlink:title="JSONSharedString.h">
<polygon fill="white" stroke="black" points="315,-290.5 315,-311.5 441,-311.5 441,-290.5 315,-290.5"/>
<text text-anchor="middle" x="378" y="-297.9" font-family="Helvetica,sans-Serif" font-size="12.00">JSONSharedString.h</text>
</a>
</g>
</g>
<!-- Node2&#45;&gt;Node17 -->
<g id="edge22" class="edge"><title>Node2&#45;&gt;Node17</title>
<path fill="none" stroke="midnightblue" d="M410.207,-348.246C404.782,-340.456 397.034,-329.331 390.497,-319.944"/>
<polygon fill="midnightblue" stroke="midnightblue" points="393.303,-317.849 384.715,-311.643 387.558,-321.849 393.303,-317.849"/>
</g>
<!-- Node4 -->
<g id="node4" class="node"><title>Node4</title>
<g id="a_node4"><a xlink:href="../../db/d7e/_j_s_o_n_2_j_s_o_n_defs_8h.html" target="_top" xlink:title="JSONDefs.h">
<polygon fill="white" stroke="black" points="331,-116.5 331,-137.5 413,-137.5 413,-116.5 331,-116.5"/>
<text text-anchor="middle" x="372" y="-123.9" font-family="Helvetica,sans-Serif" font-size="12.00">JSONDefs.h</text>
</a>
</g>
</g>
<!-- Node3&#45;&gt;Node4 -->
<g id="edge3" class="edge"><title>Node3&#45;&gt;Node4</title>
<path fill="none" stroke="midnightblue" d="M421.549,-174.246C412.773,-166.055 400.045,-154.175 389.686,-144.507"/>
<polygon fill="midnightblue" stroke="midnightblue" points="392.03,-141.907 382.331,-137.643 387.254,-147.025 392.03,-141.907"/>
</g>
<!-- Node5 -->
<g id="node5" class="node"><title>Node5</title>
<g id="a_node5"><a xlink:href="../../dc/d13/_j_s_o_n_options_8h.html" target="_top" xlink:title="..\\JSONOptions.h">
<polygon fill="white" stroke="black" points="423.5,-0.5 423.5,-21.5 530.5,-21.5 530.5,-0.5 423.5,-0.5"/>
<text text-anchor="middle" x="477" y="-7.9" font-family="Helvetica,sans-Serif" font-size="12.00">..\JSONOptions.h</text>
</a>
</g>
</g>
<!-- Node4&#45;&gt;Node5 -->
<g id="edge4" class="edge"><title>Node4&#45;&gt;Node5</title>
<path fill="none" stroke="midnightblue" d="M402.288,-116.361C420.566,-109.085 442.961,-97.347 457,-80 468.104,-66.2797 473.044,-46.5865 475.241,-31.9211"/>
<polygon fill="midnightblue" stroke="midnightblue" points="478.731,-32.2135 476.443,-21.8686 471.78,-31.3823 478.731,-32.2135"/>
</g>
<!-- Node6 -->
<g id="node6" class="node"><title>Node6</title>
<g id="a_node6"><a xlink:href="../../d9/d62/_j_s_o_n_2_j_s_o_n_defs_2_unknown___c_8h.html" target="_top" xlink:title="JSONDefs\\Unknown_C.h">
<polygon fill="white" stroke="black" points="505,-58.5 505,-79.5 653,-79.5 653,-58.5 505,-58.5"/>
<text text-anchor="middle" x="579" y="-65.9" font-family="Helvetica,sans-Serif" font-size="12.00">JSONDefs\Unknown_C.h</text>
</a>
</g>
</g>
<!-- Node4&#45;&gt;Node6 -->
<g id="edge5" class="edge"><title>Node4&#45;&gt;Node6</title>
<path fill="none" stroke="midnightblue" d="M407.585,-116.373C442.602,-106.9 496.188,-92.4032 534.112,-82.1435"/>
<polygon fill="midnightblue" stroke="midnightblue" points="535.141,-85.4912 543.88,-79.5011 533.313,-78.7341 535.141,-85.4912"/>
</g>
<!-- Node7 -->
<g id="node7" class="node"><title>Node7</title>
<g id="a_node7"><a xlink:href="../../de/dbe/_j_s_o_n_2_j_s_o_n_defs_2_g_n_u___c_8h.html" target="_top" xlink:title="JSONDefs\\GNU_C.h">
<polygon fill="white" stroke="black" points="0,-58.5 0,-79.5 126,-79.5 126,-58.5 0,-58.5"/>
<text text-anchor="middle" x="63" y="-65.9" font-family="Helvetica,sans-Serif" font-size="12.00">JSONDefs\GNU_C.h</text>
</a>
</g>
</g>
<!-- Node4&#45;&gt;Node7 -->
<g id="edge6" class="edge"><title>Node4&#45;&gt;Node7</title>
<path fill="none" stroke="midnightblue" d="M330.967,-118.564C278.405,-109.038 186.792,-92.4347 125.523,-81.331"/>
<polygon fill="midnightblue" stroke="midnightblue" points="126.048,-77.8693 115.584,-79.5299 124.8,-84.7571 126.048,-77.8693"/>
</g>
<!-- Node8 -->
<g id="node8" class="node"><title>Node8</title>
<g id="a_node8"><a xlink:href="../../d6/d90/_j_s_o_n_2_j_s_o_n_defs_2_visual___c_8h.html" target="_top" xlink:title="JSONDefs\\Visual_C.h">
<polygon fill="white" stroke="black" points="144.5,-58.5 144.5,-79.5 277.5,-79.5 277.5,-58.5 144.5,-58.5"/>
<text text-anchor="middle" x="211" y="-65.9" font-family="Helvetica,sans-Serif" font-size="12.00">JSONDefs\Visual_C.h</text>
</a>
</g>
</g>
<!-- Node4&#45;&gt;Node8 -->
<g id="edge7" class="edge"><title>Node4&#45;&gt;Node8</title>
<path fill="none" stroke="midnightblue" d="M344.323,-116.373C317.667,-107.102 277.176,-93.0178 247.812,-82.804"/>
<polygon fill="midnightblue" stroke="midnightblue" points="248.911,-79.4807 238.316,-79.5011 246.611,-86.0921 248.911,-79.4807"/>
</g>
<!-- Node9 -->
<g id="node9" class="node"><title>Node9</title>
<g id="a_node9"><a xlink:href="../../d7/d67/_j_s_o_n_2_j_s_o_n_defs_2_strings___defs_8h.html" target="_top" xlink:title="JSONDefs\\Strings_Defs.h">
<polygon fill="white" stroke="black" points="295.5,-58.5 295.5,-79.5 448.5,-79.5 448.5,-58.5 295.5,-58.5"/>
<text text-anchor="middle" x="372" y="-65.9" font-family="Helvetica,sans-Serif" font-size="12.00">JSONDefs\Strings_Defs.h</text>
</a>
</g>
</g>
<!-- Node4&#45;&gt;Node9 -->
<g id="edge8" class="edge"><title>Node4&#45;&gt;Node9</title>
<path fill="none" stroke="midnightblue" d="M372,-116.246C372,-108.938 372,-98.6944 372,-89.7046"/>
<polygon fill="midnightblue" stroke="midnightblue" points="375.5,-89.6426 372,-79.6427 368.5,-89.6427 375.5,-89.6426"/>
</g>
<!-- Node9&#45;&gt;Node5 -->
<g id="edge9" class="edge"><title>Node9&#45;&gt;Node5</title>
<path fill="none" stroke="midnightblue" d="M390.29,-58.2455C406.776,-49.4527 431.235,-36.4079 449.977,-26.4125"/>
<polygon fill="midnightblue" stroke="midnightblue" points="451.744,-29.4368 458.92,-21.6427 448.449,-23.2604 451.744,-29.4368"/>
</g>
<!-- Node10 -->
<g id="node10" class="node"><title>Node10</title>
<polygon fill="white" stroke="#bfbfbf" points="345,-0.5 345,-21.5 399,-21.5 399,-0.5 345,-0.5"/>
<text text-anchor="middle" x="372" y="-7.9" font-family="Helvetica,sans-Serif" font-size="12.00">string.h</text>
</g>
<!-- Node9&#45;&gt;Node10 -->
<g id="edge10" class="edge"><title>Node9&#45;&gt;Node10</title>
<path fill="none" stroke="midnightblue" d="M372,-58.2455C372,-50.9382 372,-40.6944 372,-31.7046"/>
<polygon fill="midnightblue" stroke="midnightblue" points="375.5,-31.6426 372,-21.6427 368.5,-31.6427 375.5,-31.6426"/>
</g>
<!-- Node11&#45;&gt;Node3 -->
<g id="edge17" class="edge"><title>Node11&#45;&gt;Node3</title>
<path fill="none" stroke="midnightblue" d="M503.35,-290.28C490.283,-271.182 461.079,-228.5 444.367,-204.075"/>
<polygon fill="midnightblue" stroke="midnightblue" points="447.169,-201.972 438.633,-195.695 441.392,-205.924 447.169,-201.972"/>
</g>
<!-- Node11&#45;&gt;Node12 -->
<g id="edge12" class="edge"><title>Node11&#45;&gt;Node12</title>
<path fill="none" stroke="midnightblue" d="M548.252,-290.437C586.347,-280.913 644.931,-266.267 686.099,-255.975"/>
<polygon fill="midnightblue" stroke="midnightblue" points="687.053,-259.345 695.905,-253.524 685.355,-252.554 687.053,-259.345"/>
</g>
<!-- Node12&#45;&gt;Node3 -->
<g id="edge16" class="edge"><title>Node12&#45;&gt;Node3</title>
<path fill="none" stroke="midnightblue" d="M684.469,-232.815C630.593,-222.825 544.642,-206.887 488.259,-196.432"/>
<polygon fill="midnightblue" stroke="midnightblue" points="488.56,-192.928 478.089,-194.546 487.284,-199.811 488.56,-192.928"/>
</g>
<!-- Node12&#45;&gt;Node5 -->
<g id="edge15" class="edge"><title>Node12&#45;&gt;Node5</title>
<path fill="none" stroke="midnightblue" d="M725.294,-232.462C717.633,-223.606 706.688,-209.754 700,-196 672.18,-138.789 707.542,-102.418 662,-58 644.728,-41.154 587.121,-28.5757 540.726,-20.8682"/>
<polygon fill="midnightblue" stroke="midnightblue" points="541.145,-17.3906 530.715,-19.2505 540.028,-24.301 541.145,-17.3906"/>
</g>
<!-- Node13 -->
<g id="node13" class="node"><title>Node13</title>
<polygon fill="white" stroke="#bfbfbf" points="709,-174.5 709,-195.5 759,-195.5 759,-174.5 709,-174.5"/>
<text text-anchor="middle" x="734" y="-181.9" font-family="Helvetica,sans-Serif" font-size="12.00">cstdlib</text>
</g>
<!-- Node12&#45;&gt;Node13 -->
<g id="edge13" class="edge"><title>Node12&#45;&gt;Node13</title>
<path fill="none" stroke="midnightblue" d="M734,-232.246C734,-224.938 734,-214.694 734,-205.705"/>
<polygon fill="midnightblue" stroke="midnightblue" points="737.5,-205.643 734,-195.643 730.5,-205.643 737.5,-205.643"/>
</g>
<!-- Node14 -->
<g id="node14" class="node"><title>Node14</title>
<polygon fill="white" stroke="#bfbfbf" points="777.5,-174.5 777.5,-195.5 828.5,-195.5 828.5,-174.5 777.5,-174.5"/>
<text text-anchor="middle" x="803" y="-181.9" font-family="Helvetica,sans-Serif" font-size="12.00">cstring</text>
</g>
<!-- Node12&#45;&gt;Node14 -->
<g id="edge14" class="edge"><title>Node12&#45;&gt;Node14</title>
<path fill="none" stroke="midnightblue" d="M746.019,-232.246C756.21,-223.975 771.036,-211.942 783.011,-202.223"/>
<polygon fill="midnightblue" stroke="midnightblue" points="785.56,-204.662 791.119,-195.643 781.149,-199.227 785.56,-204.662"/>
</g>
<!-- Node15&#45;&gt;Node4 -->
<g id="edge20" class="edge"><title>Node15&#45;&gt;Node4</title>
<path fill="none" stroke="midnightblue" d="M258.572,-232.28C279.803,-212.762 327.829,-168.609 354.066,-144.488"/>
<polygon fill="midnightblue" stroke="midnightblue" points="356.462,-147.04 361.455,-137.695 351.724,-141.886 356.462,-147.04"/>
</g>
<!-- Node16 -->
<g id="node16" class="node"><title>Node16</title>
<polygon fill="white" stroke="#bfbfbf" points="182.5,-174.5 182.5,-195.5 227.5,-195.5 227.5,-174.5 182.5,-174.5"/>
<text text-anchor="middle" x="205" y="-181.9" font-family="Helvetica,sans-Serif" font-size="12.00">string</text>
</g>
<!-- Node15&#45;&gt;Node16 -->
<g id="edge21" class="edge"><title>Node15&#45;&gt;Node16</title>
<path fill="none" stroke="midnightblue" d="M240.51,-232.246C234.467,-224.376 225.81,-213.101 218.556,-203.654"/>
<polygon fill="midnightblue" stroke="midnightblue" points="221.271,-201.443 212.404,-195.643 215.718,-205.706 221.271,-201.443"/>
</g>
<!-- Node17&#45;&gt;Node3 -->
<g id="edge23" class="edge"><title>Node17&#45;&gt;Node3</title>
<path fill="none" stroke="midnightblue" d="M382.604,-290.28C391.531,-271.435 411.336,-229.624 422.975,-205.053"/>
<polygon fill="midnightblue" stroke="midnightblue" points="426.29,-206.231 427.408,-195.695 419.964,-203.234 426.29,-206.231"/>
</g>
<!-- Node17&#45;&gt;Node15 -->
<g id="edge24" class="edge"><title>Node17&#45;&gt;Node15</title>
<path fill="none" stroke="midnightblue" d="M355.652,-290.373C334.597,-281.303 302.85,-267.628 279.283,-257.476"/>
<polygon fill="midnightblue" stroke="midnightblue" points="280.625,-254.243 270.056,-253.501 277.856,-260.672 280.625,-254.243"/>
</g>
<!-- Node18&#45;&gt;Node3 -->
<g id="edge27" class="edge"><title>Node18&#45;&gt;Node3</title>
<path fill="none" stroke="midnightblue" d="M690.014,-348.266C704.12,-334.597 725.249,-309.236 712,-290 685.558,-251.608 558.147,-215.845 484.634,-197.955"/>
<polygon fill="midnightblue" stroke="midnightblue" points="485.176,-194.485 474.635,-195.551 483.54,-201.291 485.176,-194.485"/>
</g>
<!-- Node18&#45;&gt;Node17 -->
<g id="edge28" class="edge"><title>Node18&#45;&gt;Node17</title>
<path fill="none" stroke="midnightblue" d="M627.598,-348.437C575.435,-338.732 494.68,-323.708 439.235,-313.393"/>
<polygon fill="midnightblue" stroke="midnightblue" points="439.661,-309.912 429.19,-311.524 438.381,-316.794 439.661,-309.912"/>
</g>
<!-- Node19 -->
<g id="node19" class="node"><title>Node19</title>
<polygon fill="white" stroke="#bfbfbf" points="759,-290.5 759,-311.5 803,-311.5 803,-290.5 759,-290.5"/>
<text text-anchor="middle" x="781" y="-297.9" font-family="Helvetica,sans-Serif" font-size="12.00">limits</text>
</g>
<!-- Node18&#45;&gt;Node19 -->
<g id="edge26" class="edge"><title>Node18&#45;&gt;Node19</title>
<path fill="none" stroke="midnightblue" d="M696.767,-348.246C712.71,-339.493 736.326,-326.527 754.499,-316.55"/>
<polygon fill="midnightblue" stroke="midnightblue" points="756.355,-319.523 763.437,-311.643 752.986,-313.387 756.355,-319.523"/>
</g>
<!-- Node20 -->
<g id="node20" class="node"><title>Node20</title>
<polygon fill="white" stroke="#bfbfbf" points="655,-290.5 655,-311.5 703,-311.5 703,-290.5 655,-290.5"/>
<text text-anchor="middle" x="679" y="-297.9" font-family="Helvetica,sans-Serif" font-size="12.00">cstdio</text>
</g>
<!-- Node18&#45;&gt;Node20 -->
<g id="edge29" class="edge"><title>Node18&#45;&gt;Node20</title>
<path fill="none" stroke="midnightblue" d="M679,-348.246C679,-340.938 679,-330.694 679,-321.705"/>
<polygon fill="midnightblue" stroke="midnightblue" points="682.5,-321.643 679,-311.643 675.5,-321.643 682.5,-321.643"/>
</g>
<!-- Node21&#45;&gt;Node2 -->
<g id="edge32" class="edge"><title>Node21&#45;&gt;Node2</title>
<path fill="none" stroke="midnightblue" d="M291.13,-406.373C316.077,-397.182 353.859,-383.262 381.521,-373.071"/>
<polygon fill="midnightblue" stroke="midnightblue" points="383.038,-376.242 391.211,-369.501 380.618,-369.674 383.038,-376.242"/>
</g>
<!-- Node21&#45;&gt;Node3 -->
<g id="edge31" class="edge"><title>Node21&#45;&gt;Node3</title>
<path fill="none" stroke="midnightblue" d="M278.028,-406.314C288.079,-397.965 301.213,-384.922 307,-370 319.858,-336.848 290.842,-322.166 306,-290 325.833,-247.913 371.98,-217.062 402.578,-200.328"/>
<polygon fill="midnightblue" stroke="midnightblue" points="404.327,-203.362 411.528,-195.591 401.052,-197.175 404.327,-203.362"/>
</g>
<!-- Node22 -->
<g id="node22" class="node"><title>Node22</title>
<polygon fill="white" stroke="#bfbfbf" points="231.5,-348.5 231.5,-369.5 298.5,-369.5 298.5,-348.5 231.5,-348.5"/>
<text text-anchor="middle" x="265" y="-355.9" font-family="Helvetica,sans-Serif" font-size="12.00">stdexcept</text>
</g>
<!-- Node21&#45;&gt;Node22 -->
<g id="edge33" class="edge"><title>Node21&#45;&gt;Node22</title>
<path fill="none" stroke="midnightblue" d="M265,-406.246C265,-398.938 265,-388.694 265,-379.705"/>
<polygon fill="midnightblue" stroke="midnightblue" points="268.5,-379.643 265,-369.643 261.5,-379.643 268.5,-379.643"/>
</g>
<!-- Node23 -->
<g id="node23" class="node"><title>Node23</title>
<polygon fill="white" stroke="#bfbfbf" points="157,-348.5 157,-369.5 213,-369.5 213,-348.5 157,-348.5"/>
<text text-anchor="middle" x="185" y="-355.9" font-family="Helvetica,sans-Serif" font-size="12.00">cstdarg</text>
</g>
<!-- Node21&#45;&gt;Node23 -->
<g id="edge34" class="edge"><title>Node21&#45;&gt;Node23</title>
<path fill="none" stroke="midnightblue" d="M251.065,-406.246C238.905,-397.734 221.054,-385.237 206.972,-375.38"/>
<polygon fill="midnightblue" stroke="midnightblue" points="208.975,-372.51 198.775,-369.643 204.96,-378.245 208.975,-372.51"/>
</g>
<!-- Node24 -->
<g id="node24" class="node"><title>Node24</title>
<g id="a_node24"><a xlink:href="../../d4/d6e/_j_s_o_n_2_j_s_o_n___base64_8h.html" target="_top" xlink:title="JSON_Base64.h">
<polygon fill="white" stroke="black" points="76.5,-232.5 76.5,-253.5 181.5,-253.5 181.5,-232.5 76.5,-232.5"/>
<text text-anchor="middle" x="129" y="-239.9" font-family="Helvetica,sans-Serif" font-size="12.00">JSON_Base64.h</text>
</a>
</g>
</g>
<!-- Node21&#45;&gt;Node24 -->
<g id="edge35" class="edge"><title>Node21&#45;&gt;Node24</title>
<path fill="none" stroke="midnightblue" d="M221.88,-409.935C196.503,-404.056 165.957,-392.53 148,-370 123.629,-339.423 123.854,-291.005 126.328,-263.958"/>
<polygon fill="midnightblue" stroke="midnightblue" points="129.833,-264.115 127.462,-253.789 122.876,-263.34 129.833,-264.115"/>
</g>
<!-- Node24&#45;&gt;Node3 -->
<g id="edge36" class="edge"><title>Node24&#45;&gt;Node3</title>
<path fill="none" stroke="midnightblue" d="M180.743,-232.437C235.003,-222.409 319.996,-206.7 375.852,-196.377"/>
<polygon fill="midnightblue" stroke="midnightblue" points="376.731,-199.774 385.929,-194.515 375.459,-192.891 376.731,-199.774"/>
</g>
<!-- Node24&#45;&gt;Node16 -->
<g id="edge37" class="edge"><title>Node24&#45;&gt;Node16</title>
<path fill="none" stroke="midnightblue" d="M142.238,-232.246C153.681,-223.814 170.43,-211.473 183.747,-201.66"/>
<polygon fill="midnightblue" stroke="midnightblue" points="185.939,-204.392 191.914,-195.643 181.787,-198.757 185.939,-204.392"/>
</g>
<!-- Node25&#45;&gt;Node17 -->
<g id="edge40" class="edge"><title>Node25&#45;&gt;Node17</title>
<path fill="none" stroke="midnightblue" d="M210.892,-464.242C180.776,-442.252 115.494,-387.651 148,-348 167.616,-324.073 244.984,-312.344 304.631,-306.762"/>
<polygon fill="midnightblue" stroke="midnightblue" points="305.142,-310.23 314.79,-305.853 304.518,-303.258 305.142,-310.23"/>
</g>
<!-- Node25&#45;&gt;Node21 -->
<g id="edge39" class="edge"><title>Node25&#45;&gt;Node21</title>
<path fill="none" stroke="midnightblue" d="M231.967,-464.246C237.531,-456.456 245.478,-445.331 252.183,-435.944"/>
<polygon fill="midnightblue" stroke="midnightblue" points="255.148,-437.814 258.112,-427.643 249.452,-433.746 255.148,-437.814"/>
</g>
</g>
</svg>
