<?xml version="1.0" encoding="UTF-8" standalone="no"?>
<!DOCTYPE svg PUBLIC "-//W3C//DTD SVG 1.1//EN"
 "http://www.w3.org/Graphics/SVG/1.1/DTD/svg11.dtd">
<!-- Generated by graphviz version 2.34.0 (20130907.0111)
 -->
<!-- Title: Setup.h Pages: 1 -->
<svg width="390pt" height="88pt"
 viewBox="0.00 0.00 390.00 88.00" xmlns="http://www.w3.org/2000/svg" xmlns:xlink="http://www.w3.org/1999/xlink">
<g id="graph0" class="graph" transform="scale(1 1) rotate(0) translate(4 84)">
<title>Setup.h</title>
<polygon fill="white" stroke="white" points="-4,4 -4,-84 386,-84 386,4 -4,4"/>
<!-- Node1 -->
<g id="node1" class="node"><title>Node1</title>
<polygon fill="#bfbfbf" stroke="black" points="192,-58.5 192,-79.5 248,-79.5 248,-58.5 192,-58.5"/>
<text text-anchor="middle" x="220" y="-65.9" font-family="Helvetica,sans-Serif" font-size="12.00">Setup.h</text>
</g>
<!-- Node2 -->
<g id="node2" class="node"><title>Node2</title>
<g id="a_node2"><a xlink:href="../../de/da2/_operator_console_8cpp.html" target="_top" xlink:title="OperatorConsole.cpp">
<polygon fill="white" stroke="black" points="-0.5,-0.5 -0.5,-21.5 128.5,-21.5 128.5,-0.5 -0.5,-0.5"/>
<text text-anchor="middle" x="64" y="-7.9" font-family="Helvetica,sans-Serif" font-size="12.00">OperatorConsole.cpp</text>
</a>
</g>
</g>
<!-- Node1&#45;&gt;Node2 -->
<g id="edge1" class="edge"><title>Node1&#45;&gt;Node2</title>
<path fill="none" stroke="midnightblue" d="M183.572,-54.9231C155.054,-44.686 116.062,-30.6889 90.4674,-21.5011"/>
<polygon fill="midnightblue" stroke="midnightblue" points="182.588,-58.2887 193.183,-58.3733 184.953,-51.7004 182.588,-58.2887"/>
</g>
<!-- Node3 -->
<g id="node3" class="node"><title>Node3</title>
<g id="a_node3"><a xlink:href="../../d8/d29/_operator_console_dlg_8cpp.html" target="_top" xlink:title="OperatorConsoleDlg.cpp">
<polygon fill="white" stroke="black" points="146.5,-0.5 146.5,-21.5 293.5,-21.5 293.5,-0.5 146.5,-0.5"/>
<text text-anchor="middle" x="220" y="-7.9" font-family="Helvetica,sans-Serif" font-size="12.00">OperatorConsoleDlg.cpp</text>
</a>
</g>
</g>
<!-- Node1&#45;&gt;Node3 -->
<g id="edge2" class="edge"><title>Node1&#45;&gt;Node3</title>
<path fill="none" stroke="midnightblue" d="M220,-48.1575C220,-39.155 220,-28.9199 220,-21.6427"/>
<polygon fill="midnightblue" stroke="midnightblue" points="216.5,-48.2455 220,-58.2455 223.5,-48.2456 216.5,-48.2455"/>
</g>
<!-- Node4 -->
<g id="node4" class="node"><title>Node4</title>
<g id="a_node4"><a xlink:href="../../d5/d27/_setup_8cpp.html" target="_top" xlink:title="Setup.cpp">
<polygon fill="white" stroke="black" points="312,-0.5 312,-21.5 382,-21.5 382,-0.5 312,-0.5"/>
<text text-anchor="middle" x="347" y="-7.9" font-family="Helvetica,sans-Serif" font-size="12.00">Setup.cpp</text>
</a>
</g>
</g>
<!-- Node1&#45;&gt;Node4 -->
<g id="edge3" class="edge"><title>Node1&#45;&gt;Node4</title>
<path fill="none" stroke="midnightblue" d="M251.189,-54.2473C274.254,-44.0771 305.071,-30.4883 325.453,-21.5011"/>
<polygon fill="midnightblue" stroke="midnightblue" points="249.57,-51.1361 241.832,-58.3733 252.394,-57.5411 249.57,-51.1361"/>
</g>
</g>
</svg>
