<?xml version="1.0" encoding="UTF-8" standalone="no"?>
<!DOCTYPE svg PUBLIC "-//W3C//DTD SVG 1.1//EN"
 "http://www.w3.org/Graphics/SVG/1.1/DTD/svg11.dtd">
<!-- Generated by graphviz version 2.34.0 (20130907.0111)
 -->
<!-- Title: json_shared_string::begin Pages: 1 -->
<svg width="606pt" height="154pt"
 viewBox="0.00 0.00 606.00 154.00" xmlns="http://www.w3.org/2000/svg" xmlns:xlink="http://www.w3.org/1999/xlink">
<g id="graph0" class="graph" transform="scale(1 1) rotate(0) translate(4 150)">
<title>json_shared_string::begin</title>
<polygon fill="white" stroke="white" points="-4,4 -4,-150 602,-150 602,4 -4,4"/>
<!-- Node1 -->
<g id="node1" class="node"><title>Node1</title>
<polygon fill="#bfbfbf" stroke="black" points="0,-80 0,-114 116,-114 116,-80 0,-80"/>
<text text-anchor="start" x="8" y="-100.4" font-family="Helvetica,sans-Serif" font-size="12.00">json_shared_string</text>
<text text-anchor="middle" x="58" y="-87.4" font-family="Helvetica,sans-Serif" font-size="12.00">::begin</text>
</g>
<!-- Node2 -->
<g id="node2" class="node"><title>Node2</title>
<g id="a_node2"><a xlink:href="../../dc/d3b/classjson__shared__string.html#a90d3a4074179493cf3bd889d3698d396" target="_top" xlink:title="json_shared_string::end">
<polygon fill="white" stroke="black" points="152.5,-86.5 152.5,-107.5 293.5,-107.5 293.5,-86.5 152.5,-86.5"/>
<text text-anchor="middle" x="223" y="-93.9" font-family="Helvetica,sans-Serif" font-size="12.00">json_shared_string::end</text>
</a>
</g>
</g>
<!-- Node1&#45;&gt;Node2 -->
<g id="edge1" class="edge"><title>Node1&#45;&gt;Node2</title>
<path fill="none" stroke="midnightblue" d="M126.078,-97C134.763,-97 143.675,-97 152.401,-97"/>
<polygon fill="midnightblue" stroke="midnightblue" points="126.01,-93.5001 116.009,-97 126.009,-100.5 126.01,-93.5001"/>
</g>
<!-- Node3 -->
<g id="node3" class="node"><title>Node3</title>
<g id="a_node3"><a xlink:href="../../dc/d3b/classjson__shared__string.html#ad2568ab8e00f23b05b4fe2024812b869" target="_top" xlink:title="json_shared_string\l::find">
<polygon fill="white" stroke="black" points="330,-112 330,-146 446,-146 446,-112 330,-112"/>
<text text-anchor="start" x="338" y="-132.4" font-family="Helvetica,sans-Serif" font-size="12.00">json_shared_string</text>
<text text-anchor="middle" x="388" y="-119.4" font-family="Helvetica,sans-Serif" font-size="12.00">::find</text>
</a>
</g>
</g>
<!-- Node1&#45;&gt;Node3 -->
<g id="edge7" class="edge"><title>Node1&#45;&gt;Node3</title>
<path fill="none" stroke="midnightblue" d="M126.319,-112.809C134.925,-114.437 143.645,-115.896 152,-117 212.344,-124.977 282.053,-127.733 329.783,-128.644"/>
<polygon fill="midnightblue" stroke="midnightblue" points="126.784,-109.333 116.295,-110.831 125.429,-116.201 126.784,-109.333"/>
</g>
<!-- Node4 -->
<g id="node4" class="node"><title>Node4</title>
<g id="a_node4"><a xlink:href="../../dc/d3b/classjson__shared__string.html#a2ff7317dd76f9371991874fb427d4d74" target="_top" xlink:title="json_shared_string\l::toString">
<polygon fill="white" stroke="black" points="330,-53 330,-87 446,-87 446,-53 330,-53"/>
<text text-anchor="start" x="338" y="-73.4" font-family="Helvetica,sans-Serif" font-size="12.00">json_shared_string</text>
<text text-anchor="middle" x="388" y="-60.4" font-family="Helvetica,sans-Serif" font-size="12.00">::toString</text>
</a>
</g>
</g>
<!-- Node1&#45;&gt;Node4 -->
<g id="edge8" class="edge"><title>Node1&#45;&gt;Node4</title>
<path fill="none" stroke="midnightblue" d="M126.297,-81.0206C134.907,-79.4211 143.634,-78.0156 152,-77 212.374,-69.671 282.077,-68.5021 329.798,-68.8053"/>
<polygon fill="midnightblue" stroke="midnightblue" points="125.416,-77.6263 116.271,-82.9757 126.756,-84.4969 125.416,-77.6263"/>
</g>
<!-- Node2&#45;&gt;Node3 -->
<g id="edge2" class="edge"><title>Node2&#45;&gt;Node3</title>
<path fill="none" stroke="midnightblue" d="M287.781,-109.521C301.663,-112.247 316.267,-115.114 329.872,-117.785"/>
<polygon fill="midnightblue" stroke="midnightblue" points="288.311,-106.059 277.824,-107.567 286.962,-112.928 288.311,-106.059"/>
</g>
<!-- Node2&#45;&gt;Node4 -->
<g id="edge3" class="edge"><title>Node2&#45;&gt;Node4</title>
<path fill="none" stroke="midnightblue" d="M297.391,-84.8432C308.26,-83.0428 319.323,-81.2102 329.797,-79.4753"/>
<polygon fill="midnightblue" stroke="midnightblue" points="296.78,-81.3966 287.487,-86.4838 297.924,-88.3025 296.78,-81.3966"/>
</g>
<!-- Node5 -->
<g id="node5" class="node"><title>Node5</title>
<g id="a_node5"><a xlink:href="../../dc/d3b/classjson__shared__string.html#a027b70812ce750455306d3d393527a4e" target="_top" xlink:title="json_shared_string\l::c_str">
<polygon fill="white" stroke="black" points="482,-106 482,-140 598,-140 598,-106 482,-106"/>
<text text-anchor="start" x="490" y="-126.4" font-family="Helvetica,sans-Serif" font-size="12.00">json_shared_string</text>
<text text-anchor="middle" x="540" y="-113.4" font-family="Helvetica,sans-Serif" font-size="12.00">::c_str</text>
</a>
</g>
</g>
<!-- Node4&#45;&gt;Node5 -->
<g id="edge4" class="edge"><title>Node4&#45;&gt;Node5</title>
<path fill="none" stroke="midnightblue" d="M447.119,-90.5353C461.565,-95.6397 476.893,-101.055 490.804,-105.971"/>
<polygon fill="midnightblue" stroke="midnightblue" points="447.881,-87.0928 437.287,-87.0613 445.549,-93.6929 447.881,-87.0928"/>
</g>
<!-- Node6 -->
<g id="node6" class="node"><title>Node6</title>
<g id="a_node6"><a xlink:href="../../dc/d3b/classjson__shared__string.html#a91ecb98ed2c739a57590911fc914d772" target="_top" xlink:title="json_shared_string\l::operator!=">
<polygon fill="white" stroke="black" points="482,-53 482,-87 598,-87 598,-53 482,-53"/>
<text text-anchor="start" x="490" y="-73.4" font-family="Helvetica,sans-Serif" font-size="12.00">json_shared_string</text>
<text text-anchor="middle" x="540" y="-60.4" font-family="Helvetica,sans-Serif" font-size="12.00">::operator!=</text>
</a>
</g>
</g>
<!-- Node4&#45;&gt;Node6 -->
<g id="edge5" class="edge"><title>Node4&#45;&gt;Node6</title>
<path fill="none" stroke="midnightblue" d="M456.311,-70C464.728,-70 473.277,-70 481.525,-70"/>
<polygon fill="midnightblue" stroke="midnightblue" points="456.137,-66.5001 446.136,-70 456.136,-73.5001 456.137,-66.5001"/>
</g>
<!-- Node7 -->
<g id="node7" class="node"><title>Node7</title>
<g id="a_node7"><a xlink:href="../../dc/d3b/classjson__shared__string.html#a43f094dc21319bdc7c30f63e9d60a9a4" target="_top" xlink:title="json_shared_string\l::operator==">
<polygon fill="white" stroke="black" points="482,-0 482,-34 598,-34 598,-0 482,-0"/>
<text text-anchor="start" x="490" y="-20.4" font-family="Helvetica,sans-Serif" font-size="12.00">json_shared_string</text>
<text text-anchor="middle" x="540" y="-7.4" font-family="Helvetica,sans-Serif" font-size="12.00">::operator==</text>
</a>
</g>
</g>
<!-- Node4&#45;&gt;Node7 -->
<g id="edge6" class="edge"><title>Node4&#45;&gt;Node7</title>
<path fill="none" stroke="midnightblue" d="M447.119,-49.4647C461.565,-44.3603 476.893,-38.9445 490.804,-34.0293"/>
<polygon fill="midnightblue" stroke="midnightblue" points="445.549,-46.3071 437.287,-52.9387 447.881,-52.9072 445.549,-46.3071"/>
</g>
</g>
</svg>
