<?xml version="1.0" encoding="UTF-8" standalone="no"?>
<!DOCTYPE svg PUBLIC "-//W3C//DTD SVG 1.1//EN"
 "http://www.w3.org/Graphics/SVG/1.1/DTD/svg11.dtd">
<!-- Generated by graphviz version 2.34.0 (20130907.0111)
 -->
<!-- Title: json_shared_string::deref Pages: 1 -->
<svg width="288pt" height="148pt"
 viewBox="0.00 0.00 288.00 148.00" xmlns="http://www.w3.org/2000/svg" xmlns:xlink="http://www.w3.org/1999/xlink">
<g id="graph0" class="graph" transform="scale(1 1) rotate(0) translate(4 144)">
<title>json_shared_string::deref</title>
<polygon fill="white" stroke="white" points="-4,4 -4,-144 284,-144 284,4 -4,4"/>
<!-- Node1 -->
<g id="node1" class="node"><title>Node1</title>
<polygon fill="#bfbfbf" stroke="black" points="0,-53 0,-87 116,-87 116,-53 0,-53"/>
<text text-anchor="start" x="8" y="-73.4" font-family="Helvetica,sans-Serif" font-size="12.00">json_shared_string</text>
<text text-anchor="middle" x="58" y="-60.4" font-family="Helvetica,sans-Serif" font-size="12.00">::deref</text>
</g>
<!-- Node2 -->
<g id="node2" class="node"><title>Node2</title>
<g id="a_node2"><a xlink:href="../../dc/d3b/classjson__shared__string.html#ae071cc887ebdd23500b3c0912488392d" target="_top" xlink:title="json_shared_string\l::assign">
<polygon fill="white" stroke="black" points="158,-106 158,-140 274,-140 274,-106 158,-106"/>
<text text-anchor="start" x="166" y="-126.4" font-family="Helvetica,sans-Serif" font-size="12.00">json_shared_string</text>
<text text-anchor="middle" x="216" y="-113.4" font-family="Helvetica,sans-Serif" font-size="12.00">::assign</text>
</a>
</g>
</g>
<!-- Node1&#45;&gt;Node2 -->
<g id="edge1" class="edge"><title>Node1&#45;&gt;Node2</title>
<path fill="none" stroke="midnightblue" d="M119.01,-90.3882C134.161,-95.5355 150.269,-101.008 164.876,-105.971"/>
<polygon fill="midnightblue" stroke="midnightblue" points="119.812,-86.9642 109.218,-87.0613 117.561,-93.5922 119.812,-86.9642"/>
</g>
<!-- Node3 -->
<g id="node3" class="node"><title>Node3</title>
<g id="a_node3"><a xlink:href="../../dc/d3b/classjson__shared__string.html#a804e56beb80985666ceb6daf21ccbeb8" target="_top" xlink:title="json_shared_string\l::operator=">
<polygon fill="white" stroke="black" points="158,-53 158,-87 274,-87 274,-53 158,-53"/>
<text text-anchor="start" x="166" y="-73.4" font-family="Helvetica,sans-Serif" font-size="12.00">json_shared_string</text>
<text text-anchor="middle" x="216" y="-60.4" font-family="Helvetica,sans-Serif" font-size="12.00">::operator=</text>
</a>
</g>
</g>
<!-- Node1&#45;&gt;Node3 -->
<g id="edge2" class="edge"><title>Node1&#45;&gt;Node3</title>
<path fill="none" stroke="midnightblue" d="M126.518,-70C136.947,-70 147.63,-70 157.804,-70"/>
<polygon fill="midnightblue" stroke="midnightblue" points="126.203,-66.5001 116.203,-70 126.203,-73.5001 126.203,-66.5001"/>
</g>
<!-- Node4 -->
<g id="node4" class="node"><title>Node4</title>
<g id="a_node4"><a xlink:href="../../dc/d3b/classjson__shared__string.html#add4f2e111f5b64ae38ef35e29505294e" target="_top" xlink:title="json_shared_string\l::~json_shared_string">
<polygon fill="white" stroke="black" points="152,-0 152,-34 280,-34 280,-0 152,-0"/>
<text text-anchor="start" x="160" y="-20.4" font-family="Helvetica,sans-Serif" font-size="12.00">json_shared_string</text>
<text text-anchor="middle" x="216" y="-7.4" font-family="Helvetica,sans-Serif" font-size="12.00">::~json_shared_string</text>
</a>
</g>
</g>
<!-- Node1&#45;&gt;Node4 -->
<g id="edge3" class="edge"><title>Node1&#45;&gt;Node4</title>
<path fill="none" stroke="midnightblue" d="M119.01,-49.6118C134.161,-44.4645 150.269,-38.9918 164.876,-34.0293"/>
<polygon fill="midnightblue" stroke="midnightblue" points="117.561,-46.4078 109.218,-52.9387 119.812,-53.0358 117.561,-46.4078"/>
</g>
</g>
</svg>
