<?xml version="1.0" encoding="UTF-8" standalone="no"?>
<!DOCTYPE svg PUBLIC "-//W3C//DTD SVG 1.1//EN"
 "http://www.w3.org/Graphics/SVG/1.1/DTD/svg11.dtd">
<!-- Generated by graphviz version 2.34.0 (20130907.0111)
 -->
<!-- Title: json_shared_string::assign Pages: 1 -->
<svg width="276pt" height="42pt"
 viewBox="0.00 0.00 276.00 42.00" xmlns="http://www.w3.org/2000/svg" xmlns:xlink="http://www.w3.org/1999/xlink">
<g id="graph0" class="graph" transform="scale(1 1) rotate(0) translate(4 38)">
<title>json_shared_string::assign</title>
<polygon fill="white" stroke="white" points="-4,4 -4,-38 272,-38 272,4 -4,4"/>
<!-- Node1 -->
<g id="node1" class="node"><title>Node1</title>
<polygon fill="#bfbfbf" stroke="black" points="0,-0 0,-34 116,-34 116,-0 0,-0"/>
<text text-anchor="start" x="8" y="-20.4" font-family="Helvetica,sans-Serif" font-size="12.00">json_shared_string</text>
<text text-anchor="middle" x="58" y="-7.4" font-family="Helvetica,sans-Serif" font-size="12.00">::assign</text>
</g>
<!-- Node2 -->
<g id="node2" class="node"><title>Node2</title>
<g id="a_node2"><a xlink:href="../../dc/d3b/classjson__shared__string.html#a072981d6a260f603a1d29522e75514a9" target="_top" xlink:title="json_shared_string\l::deref">
<polygon fill="white" stroke="black" points="152,-0 152,-34 268,-34 268,-0 152,-0"/>
<text text-anchor="start" x="160" y="-20.4" font-family="Helvetica,sans-Serif" font-size="12.00">json_shared_string</text>
<text text-anchor="middle" x="210" y="-7.4" font-family="Helvetica,sans-Serif" font-size="12.00">::deref</text>
</a>
</g>
</g>
<!-- Node1&#45;&gt;Node2 -->
<g id="edge1" class="edge"><title>Node1&#45;&gt;Node2</title>
<path fill="none" stroke="midnightblue" d="M116.136,-17C124.377,-17 132.923,-17 141.344,-17"/>
<polygon fill="midnightblue" stroke="midnightblue" points="141.526,-20.5001 151.525,-17 141.525,-13.5001 141.526,-20.5001"/>
</g>
</g>
</svg>
