<?xml version="1.0" encoding="UTF-8" standalone="no"?>
<!DOCTYPE svg PUBLIC "-//W3C//DTD SVG 1.1//EN"
 "http://www.w3.org/Graphics/SVG/1.1/DTD/svg11.dtd">
<!-- Generated by graphviz version 2.34.0 (20130907.0111)
 -->
<!-- Title: json_shared_string::end Pages: 1 -->
<svg width="454pt" height="148pt"
 viewBox="0.00 0.00 454.00 148.00" xmlns="http://www.w3.org/2000/svg" xmlns:xlink="http://www.w3.org/1999/xlink">
<g id="graph0" class="graph" transform="scale(1 1) rotate(0) translate(4 144)">
<title>json_shared_string::end</title>
<polygon fill="white" stroke="white" points="-4,4 -4,-144 450,-144 450,4 -4,4"/>
<!-- Node1 -->
<g id="node1" class="node"><title>Node1</title>
<polygon fill="#bfbfbf" stroke="black" points="0.5,-85.5 0.5,-106.5 141.5,-106.5 141.5,-85.5 0.5,-85.5"/>
<text text-anchor="middle" x="71" y="-92.9" font-family="Helvetica,sans-Serif" font-size="12.00">json_shared_string::end</text>
</g>
<!-- Node2 -->
<g id="node2" class="node"><title>Node2</title>
<g id="a_node2"><a xlink:href="../../dc/d3b/classjson__shared__string.html#ad2568ab8e00f23b05b4fe2024812b869" target="_top" xlink:title="json_shared_string\l::find">
<polygon fill="white" stroke="black" points="178,-106 178,-140 294,-140 294,-106 178,-106"/>
<text text-anchor="start" x="186" y="-126.4" font-family="Helvetica,sans-Serif" font-size="12.00">json_shared_string</text>
<text text-anchor="middle" x="236" y="-113.4" font-family="Helvetica,sans-Serif" font-size="12.00">::find</text>
</a>
</g>
</g>
<!-- Node1&#45;&gt;Node2 -->
<g id="edge1" class="edge"><title>Node1&#45;&gt;Node2</title>
<path fill="none" stroke="midnightblue" d="M145.391,-108.157C156.26,-109.957 167.323,-111.79 177.797,-113.525"/>
<polygon fill="midnightblue" stroke="midnightblue" points="145.924,-104.698 135.487,-106.516 144.78,-111.603 145.924,-104.698"/>
</g>
<!-- Node3 -->
<g id="node3" class="node"><title>Node3</title>
<g id="a_node3"><a xlink:href="../../dc/d3b/classjson__shared__string.html#a2ff7317dd76f9371991874fb427d4d74" target="_top" xlink:title="json_shared_string\l::toString">
<polygon fill="white" stroke="black" points="178,-53 178,-87 294,-87 294,-53 178,-53"/>
<text text-anchor="start" x="186" y="-73.4" font-family="Helvetica,sans-Serif" font-size="12.00">json_shared_string</text>
<text text-anchor="middle" x="236" y="-60.4" font-family="Helvetica,sans-Serif" font-size="12.00">::toString</text>
</a>
</g>
</g>
<!-- Node1&#45;&gt;Node3 -->
<g id="edge2" class="edge"><title>Node1&#45;&gt;Node3</title>
<path fill="none" stroke="midnightblue" d="M147.853,-83.9007C157.94,-82.2918 168.142,-80.6644 177.838,-79.1178"/>
<polygon fill="midnightblue" stroke="midnightblue" points="147.152,-80.4682 137.828,-85.4997 148.255,-87.3808 147.152,-80.4682"/>
</g>
<!-- Node4 -->
<g id="node4" class="node"><title>Node4</title>
<g id="a_node4"><a xlink:href="../../dc/d3b/classjson__shared__string.html#a027b70812ce750455306d3d393527a4e" target="_top" xlink:title="json_shared_string\l::c_str">
<polygon fill="white" stroke="black" points="330,-106 330,-140 446,-140 446,-106 330,-106"/>
<text text-anchor="start" x="338" y="-126.4" font-family="Helvetica,sans-Serif" font-size="12.00">json_shared_string</text>
<text text-anchor="middle" x="388" y="-113.4" font-family="Helvetica,sans-Serif" font-size="12.00">::c_str</text>
</a>
</g>
</g>
<!-- Node3&#45;&gt;Node4 -->
<g id="edge3" class="edge"><title>Node3&#45;&gt;Node4</title>
<path fill="none" stroke="midnightblue" d="M295.119,-90.5353C309.565,-95.6397 324.893,-101.055 338.804,-105.971"/>
<polygon fill="midnightblue" stroke="midnightblue" points="295.881,-87.0928 285.287,-87.0613 293.549,-93.6929 295.881,-87.0928"/>
</g>
<!-- Node5 -->
<g id="node5" class="node"><title>Node5</title>
<g id="a_node5"><a xlink:href="../../dc/d3b/classjson__shared__string.html#a91ecb98ed2c739a57590911fc914d772" target="_top" xlink:title="json_shared_string\l::operator!=">
<polygon fill="white" stroke="black" points="330,-53 330,-87 446,-87 446,-53 330,-53"/>
<text text-anchor="start" x="338" y="-73.4" font-family="Helvetica,sans-Serif" font-size="12.00">json_shared_string</text>
<text text-anchor="middle" x="388" y="-60.4" font-family="Helvetica,sans-Serif" font-size="12.00">::operator!=</text>
</a>
</g>
</g>
<!-- Node3&#45;&gt;Node5 -->
<g id="edge4" class="edge"><title>Node3&#45;&gt;Node5</title>
<path fill="none" stroke="midnightblue" d="M304.311,-70C312.728,-70 321.277,-70 329.525,-70"/>
<polygon fill="midnightblue" stroke="midnightblue" points="304.137,-66.5001 294.136,-70 304.136,-73.5001 304.137,-66.5001"/>
</g>
<!-- Node6 -->
<g id="node6" class="node"><title>Node6</title>
<g id="a_node6"><a xlink:href="../../dc/d3b/classjson__shared__string.html#a43f094dc21319bdc7c30f63e9d60a9a4" target="_top" xlink:title="json_shared_string\l::operator==">
<polygon fill="white" stroke="black" points="330,-0 330,-34 446,-34 446,-0 330,-0"/>
<text text-anchor="start" x="338" y="-20.4" font-family="Helvetica,sans-Serif" font-size="12.00">json_shared_string</text>
<text text-anchor="middle" x="388" y="-7.4" font-family="Helvetica,sans-Serif" font-size="12.00">::operator==</text>
</a>
</g>
</g>
<!-- Node3&#45;&gt;Node6 -->
<g id="edge5" class="edge"><title>Node3&#45;&gt;Node6</title>
<path fill="none" stroke="midnightblue" d="M295.119,-49.4647C309.565,-44.3603 324.893,-38.9445 338.804,-34.0293"/>
<polygon fill="midnightblue" stroke="midnightblue" points="293.549,-46.3071 285.287,-52.9387 295.881,-52.9072 293.549,-46.3071"/>
</g>
</g>
</svg>
