<?xml version="1.0" encoding="UTF-8" standalone="no"?>
<!DOCTYPE svg PUBLIC "-//W3C//DTD SVG 1.1//EN"
 "http://www.w3.org/Graphics/SVG/1.1/DTD/svg11.dtd">
<!-- Generated by graphviz version 2.34.0 (20130907.0111)
 -->
<!-- Title: json_shared_string::toString Pages: 1 -->
<svg width="276pt" height="148pt"
 viewBox="0.00 0.00 276.00 148.00" xmlns="http://www.w3.org/2000/svg" xmlns:xlink="http://www.w3.org/1999/xlink">
<g id="graph0" class="graph" transform="scale(1 1) rotate(0) translate(4 144)">
<title>json_shared_string::toString</title>
<polygon fill="white" stroke="white" points="-4,4 -4,-144 272,-144 272,4 -4,4"/>
<!-- Node1 -->
<g id="node1" class="node"><title>Node1</title>
<polygon fill="#bfbfbf" stroke="black" points="0,-53 0,-87 116,-87 116,-53 0,-53"/>
<text text-anchor="start" x="8" y="-73.4" font-family="Helvetica,sans-Serif" font-size="12.00">json_shared_string</text>
<text text-anchor="middle" x="58" y="-60.4" font-family="Helvetica,sans-Serif" font-size="12.00">::toString</text>
</g>
<!-- Node2 -->
<g id="node2" class="node"><title>Node2</title>
<g id="a_node2"><a xlink:href="../../dc/d3b/classjson__shared__string.html#a027b70812ce750455306d3d393527a4e" target="_top" xlink:title="json_shared_string\l::c_str">
<polygon fill="white" stroke="black" points="152,-106 152,-140 268,-140 268,-106 152,-106"/>
<text text-anchor="start" x="160" y="-126.4" font-family="Helvetica,sans-Serif" font-size="12.00">json_shared_string</text>
<text text-anchor="middle" x="210" y="-113.4" font-family="Helvetica,sans-Serif" font-size="12.00">::c_str</text>
</a>
</g>
</g>
<!-- Node1&#45;&gt;Node2 -->
<g id="edge1" class="edge"><title>Node1&#45;&gt;Node2</title>
<path fill="none" stroke="midnightblue" d="M117.119,-90.5353C131.565,-95.6397 146.893,-101.055 160.804,-105.971"/>
<polygon fill="midnightblue" stroke="midnightblue" points="117.881,-87.0928 107.287,-87.0613 115.549,-93.6929 117.881,-87.0928"/>
</g>
<!-- Node3 -->
<g id="node3" class="node"><title>Node3</title>
<g id="a_node3"><a xlink:href="../../dc/d3b/classjson__shared__string.html#a91ecb98ed2c739a57590911fc914d772" target="_top" xlink:title="json_shared_string\l::operator!=">
<polygon fill="white" stroke="black" points="152,-53 152,-87 268,-87 268,-53 152,-53"/>
<text text-anchor="start" x="160" y="-73.4" font-family="Helvetica,sans-Serif" font-size="12.00">json_shared_string</text>
<text text-anchor="middle" x="210" y="-60.4" font-family="Helvetica,sans-Serif" font-size="12.00">::operator!=</text>
</a>
</g>
</g>
<!-- Node1&#45;&gt;Node3 -->
<g id="edge2" class="edge"><title>Node1&#45;&gt;Node3</title>
<path fill="none" stroke="midnightblue" d="M126.311,-70C134.728,-70 143.277,-70 151.525,-70"/>
<polygon fill="midnightblue" stroke="midnightblue" points="126.137,-66.5001 116.136,-70 126.136,-73.5001 126.137,-66.5001"/>
</g>
<!-- Node4 -->
<g id="node4" class="node"><title>Node4</title>
<g id="a_node4"><a xlink:href="../../dc/d3b/classjson__shared__string.html#a43f094dc21319bdc7c30f63e9d60a9a4" target="_top" xlink:title="json_shared_string\l::operator==">
<polygon fill="white" stroke="black" points="152,-0 152,-34 268,-34 268,-0 152,-0"/>
<text text-anchor="start" x="160" y="-20.4" font-family="Helvetica,sans-Serif" font-size="12.00">json_shared_string</text>
<text text-anchor="middle" x="210" y="-7.4" font-family="Helvetica,sans-Serif" font-size="12.00">::operator==</text>
</a>
</g>
</g>
<!-- Node1&#45;&gt;Node4 -->
<g id="edge3" class="edge"><title>Node1&#45;&gt;Node4</title>
<path fill="none" stroke="midnightblue" d="M117.119,-49.4647C131.565,-44.3603 146.893,-38.9445 160.804,-34.0293"/>
<polygon fill="midnightblue" stroke="midnightblue" points="115.549,-46.3071 107.287,-52.9387 117.881,-52.9072 115.549,-46.3071"/>
</g>
</g>
</svg>
