<?xml version="1.0" encoding="UTF-8" standalone="no"?>
<!DOCTYPE svg PUBLIC "-//W3C//DTD SVG 1.1//EN"
 "http://www.w3.org/Graphics/SVG/1.1/DTD/svg11.dtd">
<!-- Generated by graphviz version 2.34.0 (20130907.0111)
 -->
<!-- Title: json_shared_string::toString Pages: 1 -->
<svg width="454pt" height="55pt"
 viewBox="0.00 0.00 454.00 55.00" xmlns="http://www.w3.org/2000/svg" xmlns:xlink="http://www.w3.org/1999/xlink">
<g id="graph0" class="graph" transform="scale(1 1) rotate(0) translate(4 51)">
<title>json_shared_string::toString</title>
<polygon fill="white" stroke="white" points="-4,4 -4,-51 450,-51 450,4 -4,4"/>
<!-- Node1 -->
<g id="node1" class="node"><title>Node1</title>
<polygon fill="#bfbfbf" stroke="black" points="0,-13 0,-47 116,-47 116,-13 0,-13"/>
<text text-anchor="start" x="8" y="-33.4" font-family="Helvetica,sans-Serif" font-size="12.00">json_shared_string</text>
<text text-anchor="middle" x="58" y="-20.4" font-family="Helvetica,sans-Serif" font-size="12.00">::toString</text>
</g>
<!-- Node2 -->
<g id="node2" class="node"><title>Node2</title>
<g id="a_node2"><a xlink:href="../../dc/d3b/classjson__shared__string.html#a90d75bed1e4df7a755115cde83914b8f" target="_top" xlink:title="json_shared_string\l::begin">
<polygon fill="white" stroke="black" points="330,-13 330,-47 446,-47 446,-13 330,-13"/>
<text text-anchor="start" x="338" y="-33.4" font-family="Helvetica,sans-Serif" font-size="12.00">json_shared_string</text>
<text text-anchor="middle" x="388" y="-20.4" font-family="Helvetica,sans-Serif" font-size="12.00">::begin</text>
</a>
</g>
</g>
<!-- Node1&#45;&gt;Node2 -->
<g id="edge1" class="edge"><title>Node1&#45;&gt;Node2</title>
<path fill="none" stroke="midnightblue" d="M116.051,-30.7103C127.932,-30.8311 140.374,-30.9375 152,-31 215.11,-31.3393 230.89,-31.3393 294,-31 302.356,-30.9551 311.134,-30.8875 319.822,-30.8081"/>
<polygon fill="midnightblue" stroke="midnightblue" points="319.983,-34.3068 329.949,-30.7103 319.915,-27.3072 319.983,-34.3068"/>
</g>
<!-- Node3 -->
<g id="node3" class="node"><title>Node3</title>
<g id="a_node3"><a xlink:href="../../dc/d3b/classjson__shared__string.html#a90d3a4074179493cf3bd889d3698d396" target="_top" xlink:title="json_shared_string::end">
<polygon fill="white" stroke="black" points="152.5,-0.5 152.5,-21.5 293.5,-21.5 293.5,-0.5 152.5,-0.5"/>
<text text-anchor="middle" x="223" y="-7.9" font-family="Helvetica,sans-Serif" font-size="12.00">json_shared_string::end</text>
</a>
</g>
</g>
<!-- Node1&#45;&gt;Node3 -->
<g id="edge2" class="edge"><title>Node1&#45;&gt;Node3</title>
<path fill="none" stroke="midnightblue" d="M116.009,-23.3547C124.547,-22.3595 133.481,-21.3182 142.384,-20.2804"/>
<polygon fill="midnightblue" stroke="midnightblue" points="142.873,-23.7472 152.401,-19.1128 142.063,-16.7943 142.873,-23.7472"/>
</g>
<!-- Node3&#45;&gt;Node2 -->
<g id="edge3" class="edge"><title>Node3&#45;&gt;Node2</title>
<path fill="none" stroke="midnightblue" d="M293.599,-19.1128C302.306,-20.1277 311.199,-21.1643 319.867,-22.1747"/>
<polygon fill="midnightblue" stroke="midnightblue" points="319.577,-25.6645 329.915,-23.346 320.388,-18.7116 319.577,-25.6645"/>
</g>
</g>
</svg>
