<?xml version="1.0" encoding="UTF-8" standalone="no"?>
<!DOCTYPE svg PUBLIC "-//W3C//DTD SVG 1.1//EN"
 "http://www.w3.org/Graphics/SVG/1.1/DTD/svg11.dtd">
<!-- Generated by graphviz version 2.34.0 (20130907.0111)
 -->
<!-- Title: json_shared_string::operator== Pages: 1 -->
<svg width="606pt" height="55pt"
 viewBox="0.00 0.00 606.00 55.00" xmlns="http://www.w3.org/2000/svg" xmlns:xlink="http://www.w3.org/1999/xlink">
<g id="graph0" class="graph" transform="scale(1 1) rotate(0) translate(4 51)">
<title>json_shared_string::operator==</title>
<polygon fill="white" stroke="white" points="-4,4 -4,-51 602,-51 602,4 -4,4"/>
<!-- Node1 -->
<g id="node1" class="node"><title>Node1</title>
<polygon fill="#bfbfbf" stroke="black" points="0,-13 0,-47 116,-47 116,-13 0,-13"/>
<text text-anchor="start" x="8" y="-33.4" font-family="Helvetica,sans-Serif" font-size="12.00">json_shared_string</text>
<text text-anchor="middle" x="58" y="-20.4" font-family="Helvetica,sans-Serif" font-size="12.00">::operator==</text>
</g>
<!-- Node2 -->
<g id="node2" class="node"><title>Node2</title>
<g id="a_node2"><a xlink:href="../../dc/d3b/classjson__shared__string.html#a2ff7317dd76f9371991874fb427d4d74" target="_top" xlink:title="json_shared_string\l::toString">
<polygon fill="white" stroke="black" points="152,-13 152,-47 268,-47 268,-13 152,-13"/>
<text text-anchor="start" x="160" y="-33.4" font-family="Helvetica,sans-Serif" font-size="12.00">json_shared_string</text>
<text text-anchor="middle" x="210" y="-20.4" font-family="Helvetica,sans-Serif" font-size="12.00">::toString</text>
</a>
</g>
</g>
<!-- Node1&#45;&gt;Node2 -->
<g id="edge1" class="edge"><title>Node1&#45;&gt;Node2</title>
<path fill="none" stroke="midnightblue" d="M116.136,-30C124.377,-30 132.923,-30 141.344,-30"/>
<polygon fill="midnightblue" stroke="midnightblue" points="141.526,-33.5001 151.525,-30 141.525,-26.5001 141.526,-33.5001"/>
</g>
<!-- Node3 -->
<g id="node3" class="node"><title>Node3</title>
<g id="a_node3"><a xlink:href="../../dc/d3b/classjson__shared__string.html#a90d75bed1e4df7a755115cde83914b8f" target="_top" xlink:title="json_shared_string\l::begin">
<polygon fill="white" stroke="black" points="482,-13 482,-47 598,-47 598,-13 482,-13"/>
<text text-anchor="start" x="490" y="-33.4" font-family="Helvetica,sans-Serif" font-size="12.00">json_shared_string</text>
<text text-anchor="middle" x="540" y="-20.4" font-family="Helvetica,sans-Serif" font-size="12.00">::begin</text>
</a>
</g>
</g>
<!-- Node2&#45;&gt;Node3 -->
<g id="edge2" class="edge"><title>Node2&#45;&gt;Node3</title>
<path fill="none" stroke="midnightblue" d="M268.051,-30.7103C279.932,-30.8311 292.374,-30.9375 304,-31 367.11,-31.3393 382.89,-31.3393 446,-31 454.356,-30.9551 463.134,-30.8875 471.822,-30.8081"/>
<polygon fill="midnightblue" stroke="midnightblue" points="471.983,-34.3068 481.949,-30.7103 471.915,-27.3072 471.983,-34.3068"/>
</g>
<!-- Node4 -->
<g id="node4" class="node"><title>Node4</title>
<g id="a_node4"><a xlink:href="../../dc/d3b/classjson__shared__string.html#a90d3a4074179493cf3bd889d3698d396" target="_top" xlink:title="json_shared_string::end">
<polygon fill="white" stroke="black" points="304.5,-0.5 304.5,-21.5 445.5,-21.5 445.5,-0.5 304.5,-0.5"/>
<text text-anchor="middle" x="375" y="-7.9" font-family="Helvetica,sans-Serif" font-size="12.00">json_shared_string::end</text>
</a>
</g>
</g>
<!-- Node2&#45;&gt;Node4 -->
<g id="edge3" class="edge"><title>Node2&#45;&gt;Node4</title>
<path fill="none" stroke="midnightblue" d="M268.009,-23.3547C276.547,-22.3595 285.481,-21.3182 294.384,-20.2804"/>
<polygon fill="midnightblue" stroke="midnightblue" points="294.873,-23.7472 304.401,-19.1128 294.063,-16.7943 294.873,-23.7472"/>
</g>
<!-- Node4&#45;&gt;Node3 -->
<g id="edge4" class="edge"><title>Node4&#45;&gt;Node3</title>
<path fill="none" stroke="midnightblue" d="M445.599,-19.1128C454.306,-20.1277 463.199,-21.1643 471.867,-22.1747"/>
<polygon fill="midnightblue" stroke="midnightblue" points="471.577,-25.6645 481.915,-23.346 472.388,-18.7116 471.577,-25.6645"/>
</g>
</g>
</svg>
