<?xml version="1.0" encoding="UTF-8" standalone="no"?>
<!DOCTYPE svg PUBLIC "-//W3C//DTD SVG 1.1//EN"
 "http://www.w3.org/Graphics/SVG/1.1/DTD/svg11.dtd">
<!-- Generated by graphviz version 2.34.0 (20130907.0111)
 -->
<!-- Title: JSON/internalJSONNode.h Pages: 1 -->
<svg width="1430pt" height="436pt"
 viewBox="0.00 0.00 1430.00 436.00" xmlns="http://www.w3.org/2000/svg" xmlns:xlink="http://www.w3.org/1999/xlink">
<g id="graph0" class="graph" transform="scale(1 1) rotate(0) translate(4 432)">
<title>JSON/internalJSONNode.h</title>
<polygon fill="white" stroke="white" points="-4,4 -4,-432 1426,-432 1426,4 -4,4"/>
<!-- Node1 -->
<g id="node1" class="node"><title>Node1</title>
<polygon fill="#bfbfbf" stroke="black" points="243,-406.5 243,-427.5 401,-427.5 401,-406.5 243,-406.5"/>
<text text-anchor="middle" x="322" y="-413.9" font-family="Helvetica,sans-Serif" font-size="12.00">JSON/internalJSONNode.h</text>
</g>
<!-- Node2 -->
<g id="node2" class="node"><title>Node2</title>
<g id="a_node2"><a xlink:href="../../d0/df5/_j_s_o_n_2_j_s_o_n_node_8h.html" target="_top" xlink:title="JSON/JSONNode.h">
<polygon fill="white" stroke="black" points="538,-348.5 538,-369.5 658,-369.5 658,-348.5 538,-348.5"/>
<text text-anchor="middle" x="598" y="-355.9" font-family="Helvetica,sans-Serif" font-size="12.00">JSON/JSONNode.h</text>
</a>
</g>
</g>
<!-- Node1&#45;&gt;Node2 -->
<g id="edge1" class="edge"><title>Node1&#45;&gt;Node2</title>
<path fill="none" stroke="midnightblue" d="M378.991,-404.437C429.873,-394.113 503.501,-379.174 551.062,-369.524"/>
<polygon fill="midnightblue" stroke="midnightblue" points="378.237,-401.018 369.132,-406.437 379.629,-407.878 378.237,-401.018"/>
</g>
<!-- Node22 -->
<g id="node22" class="node"><title>Node22</title>
<g id="a_node22"><a xlink:href="../../dd/dbe/_j_s_o_n_2internal_j_s_o_n_node_8cpp.html" target="_top" xlink:title="JSON/internalJSONNode.cpp">
<polygon fill="white" stroke="black" points="-0.5,-232.5 -0.5,-253.5 170.5,-253.5 170.5,-232.5 -0.5,-232.5"/>
<text text-anchor="middle" x="85" y="-239.9" font-family="Helvetica,sans-Serif" font-size="12.00">JSON/internalJSONNode.cpp</text>
</a>
</g>
</g>
<!-- Node1&#45;&gt;Node22 -->
<g id="edge39" class="edge"><title>Node1&#45;&gt;Node22</title>
<path fill="none" stroke="midnightblue" d="M245.158,-404.258C190.723,-391.517 121.332,-365.32 86,-312 74.2607,-294.284 78.5354,-267.863 82.1082,-253.737"/>
<polygon fill="midnightblue" stroke="midnightblue" points="244.615,-407.723 255.137,-406.484 246.139,-400.891 244.615,-407.723"/>
</g>
<!-- Node3 -->
<g id="node3" class="node"><title>Node3</title>
<g id="a_node3"><a xlink:href="../../d1/d7d/libjson_8h.html" target="_top" xlink:title="libjson.h">
<polygon fill="white" stroke="black" points="993.5,-232.5 993.5,-253.5 1052.5,-253.5 1052.5,-232.5 993.5,-232.5"/>
<text text-anchor="middle" x="1023" y="-239.9" font-family="Helvetica,sans-Serif" font-size="12.00">libjson.h</text>
</a>
</g>
</g>
<!-- Node2&#45;&gt;Node3 -->
<g id="edge2" class="edge"><title>Node2&#45;&gt;Node3</title>
<path fill="none" stroke="midnightblue" d="M668.228,-353.407C754.737,-346.934 896.129,-333.461 944,-312 974.384,-298.379 1001.9,-269.209 1014.98,-253.879"/>
<polygon fill="midnightblue" stroke="midnightblue" points="667.936,-349.919 658.219,-354.143 668.449,-356.901 667.936,-349.919"/>
</g>
<!-- Node21 -->
<g id="node21" class="node"><title>Node21</title>
<g id="a_node21"><a xlink:href="../../d0/d4d/_j_s_o_n_2_j_s_o_n_worker_8h.html" target="_top" xlink:title="JSON/JSONWorker.h">
<polygon fill="white" stroke="black" points="788,-290.5 788,-311.5 918,-311.5 918,-290.5 788,-290.5"/>
<text text-anchor="middle" x="853" y="-297.9" font-family="Helvetica,sans-Serif" font-size="12.00">JSON/JSONWorker.h</text>
</a>
</g>
</g>
<!-- Node2&#45;&gt;Node21 -->
<g id="edge24" class="edge"><title>Node2&#45;&gt;Node21</title>
<path fill="none" stroke="midnightblue" d="M651.539,-346.242C698.515,-335.926 765.965,-321.113 809.633,-311.524"/>
<polygon fill="midnightblue" stroke="midnightblue" points="650.563,-342.873 641.546,-348.437 652.064,-349.71 650.563,-342.873"/>
</g>
<!-- Node2&#45;&gt;Node22 -->
<g id="edge33" class="edge"><title>Node2&#45;&gt;Node22</title>
<path fill="none" stroke="midnightblue" d="M527.841,-355.819C399.209,-351.193 135.828,-338.569 104,-312 86.6857,-297.546 84.4453,-268.741 84.5546,-253.681"/>
<polygon fill="midnightblue" stroke="midnightblue" points="527.87,-359.322 537.988,-356.178 528.117,-352.327 527.87,-359.322"/>
</g>
<!-- Node25 -->
<g id="node25" class="node"><title>Node25</title>
<g id="a_node25"><a xlink:href="../../d7/db2/_j_s_o_n_2_j_s_o_n_writer_8cpp.html" target="_top" xlink:title="JSON/JSONWriter.cpp">
<polygon fill="white" stroke="black" points="838.5,-232.5 838.5,-253.5 975.5,-253.5 975.5,-232.5 838.5,-232.5"/>
<text text-anchor="middle" x="907" y="-239.9" font-family="Helvetica,sans-Serif" font-size="12.00">JSON/JSONWriter.cpp</text>
</a>
</g>
</g>
<!-- Node2&#45;&gt;Node25 -->
<g id="edge38" class="edge"><title>Node2&#45;&gt;Node25</title>
<path fill="none" stroke="midnightblue" d="M668.064,-358.51C754.516,-357.47 894.139,-349.775 927,-312 941.699,-295.103 925.389,-267.862 914.732,-253.525"/>
<polygon fill="midnightblue" stroke="midnightblue" points="668.022,-355.01 658.055,-358.604 668.087,-362.01 668.022,-355.01"/>
</g>
<!-- Node26 -->
<g id="node26" class="node"><title>Node26</title>
<g id="a_node26"><a xlink:href="../../da/de9/_j_s_o_n_2_j_s_o_n_preparse_8h.html" target="_top" xlink:title="JSON/JSONPreparse.h">
<polygon fill="white" stroke="black" points="1012,-290.5 1012,-311.5 1152,-311.5 1152,-290.5 1012,-290.5"/>
<text text-anchor="middle" x="1082" y="-297.9" font-family="Helvetica,sans-Serif" font-size="12.00">JSON/JSONPreparse.h</text>
</a>
</g>
</g>
<!-- Node2&#45;&gt;Node26 -->
<g id="edge30" class="edge"><title>Node2&#45;&gt;Node26</title>
<path fill="none" stroke="midnightblue" d="M668.267,-350.005C748.156,-340.896 882.482,-325.518 998,-312 1002.52,-311.471 1007.18,-310.923 1011.88,-310.369"/>
<polygon fill="midnightblue" stroke="midnightblue" points="667.86,-346.529 658.32,-351.139 668.652,-353.484 667.86,-346.529"/>
</g>
<!-- Node28 -->
<g id="node28" class="node"><title>Node28</title>
<g id="a_node28"><a xlink:href="../../d0/dcd/_j_s_o_n_2_j_s_o_n_children_8cpp.html" target="_top" xlink:title="JSON/JSONChildren.cpp">
<polygon fill="white" stroke="black" points="113.5,-290.5 113.5,-311.5 262.5,-311.5 262.5,-290.5 113.5,-290.5"/>
<text text-anchor="middle" x="188" y="-297.9" font-family="Helvetica,sans-Serif" font-size="12.00">JSON/JSONChildren.cpp</text>
</a>
</g>
</g>
<!-- Node2&#45;&gt;Node28 -->
<g id="edge34" class="edge"><title>Node2&#45;&gt;Node28</title>
<path fill="none" stroke="midnightblue" d="M527.594,-348.384C452.134,-338.077 333.074,-321.815 257.835,-311.538"/>
<polygon fill="midnightblue" stroke="midnightblue" points="527.562,-351.912 537.943,-349.797 528.509,-344.976 527.562,-351.912"/>
</g>
<!-- Node29 -->
<g id="node29" class="node"><title>Node29</title>
<g id="a_node29"><a xlink:href="../../dd/df9/_j_s_o_n_2_j_s_o_n_iterators_8cpp.html" target="_top" xlink:title="JSON/JSONIterators.cpp">
<polygon fill="white" stroke="black" points="280.5,-290.5 280.5,-311.5 427.5,-311.5 427.5,-290.5 280.5,-290.5"/>
<text text-anchor="middle" x="354" y="-297.9" font-family="Helvetica,sans-Serif" font-size="12.00">JSON/JSONIterators.cpp</text>
</a>
</g>
</g>
<!-- Node2&#45;&gt;Node29 -->
<g id="edge35" class="edge"><title>Node2&#45;&gt;Node29</title>
<path fill="none" stroke="midnightblue" d="M546.488,-346.178C501.551,-335.864 437.193,-321.093 395.496,-311.524"/>
<polygon fill="midnightblue" stroke="midnightblue" points="545.803,-349.611 556.332,-348.437 547.368,-342.789 545.803,-349.611"/>
</g>
<!-- Node30 -->
<g id="node30" class="node"><title>Node30</title>
<g id="a_node30"><a xlink:href="../../d0/d8a/_j_s_o_n_2_j_s_o_n_node_8cpp.html" target="_top" xlink:title="JSON/JSONNode.cpp">
<polygon fill="white" stroke="black" points="446,-290.5 446,-311.5 580,-311.5 580,-290.5 446,-290.5"/>
<text text-anchor="middle" x="513" y="-297.9" font-family="Helvetica,sans-Serif" font-size="12.00">JSON/JSONNode.cpp</text>
</a>
</g>
</g>
<!-- Node2&#45;&gt;Node30 -->
<g id="edge36" class="edge"><title>Node2&#45;&gt;Node30</title>
<path fill="none" stroke="midnightblue" d="M574.458,-342.49C559.461,-332.61 540.503,-320.119 527.636,-311.643"/>
<polygon fill="midnightblue" stroke="midnightblue" points="572.918,-345.667 583.194,-348.246 576.769,-339.821 572.918,-345.667"/>
</g>
<!-- Node31 -->
<g id="node31" class="node"><title>Node31</title>
<g id="a_node31"><a xlink:href="../../d3/dc8/_j_s_o_n_2_j_s_o_n_node___mutex_8cpp.html" target="_top" xlink:title="JSON/JSONNode_Mutex.cpp">
<polygon fill="white" stroke="black" points="598.5,-290.5 598.5,-311.5 769.5,-311.5 769.5,-290.5 598.5,-290.5"/>
<text text-anchor="middle" x="684" y="-297.9" font-family="Helvetica,sans-Serif" font-size="12.00">JSON/JSONNode_Mutex.cpp</text>
</a>
</g>
</g>
<!-- Node2&#45;&gt;Node31 -->
<g id="edge37" class="edge"><title>Node2&#45;&gt;Node31</title>
<path fill="none" stroke="midnightblue" d="M621.39,-342.769C636.63,-332.846 656.051,-320.199 669.192,-311.643"/>
<polygon fill="midnightblue" stroke="midnightblue" points="619.45,-339.856 612.98,-348.246 623.27,-345.722 619.45,-339.856"/>
</g>
<!-- Node4 -->
<g id="node4" class="node"><title>Node4</title>
<g id="a_node4"><a xlink:href="../../d9/da7/_image_test_8h.html" target="_top" xlink:title="ImageTest.h">
<polygon fill="white" stroke="black" points="792,-174.5 792,-195.5 872,-195.5 872,-174.5 792,-174.5"/>
<text text-anchor="middle" x="832" y="-181.9" font-family="Helvetica,sans-Serif" font-size="12.00">ImageTest.h</text>
</a>
</g>
</g>
<!-- Node3&#45;&gt;Node4 -->
<g id="edge3" class="edge"><title>Node3&#45;&gt;Node4</title>
<path fill="none" stroke="midnightblue" d="M983.221,-230.337C948.031,-220.02 897.318,-205.151 864.509,-195.531"/>
<polygon fill="midnightblue" stroke="midnightblue" points="982.575,-233.795 993.156,-233.25 984.545,-227.078 982.575,-233.795"/>
</g>
<!-- Node18 -->
<g id="node18" class="node"><title>Node18</title>
<g id="a_node18"><a xlink:href="../../dc/d7a/_s_f_rplus_test_8cpp.html" target="_top" xlink:title="SFRplusTest.cpp">
<polygon fill="white" stroke="black" points="928.5,-58.5 928.5,-79.5 1035.5,-79.5 1035.5,-58.5 928.5,-58.5"/>
<text text-anchor="middle" x="982" y="-65.9" font-family="Helvetica,sans-Serif" font-size="12.00">SFRplusTest.cpp</text>
</a>
</g>
</g>
<!-- Node3&#45;&gt;Node18 -->
<g id="edge23" class="edge"><title>Node3&#45;&gt;Node18</title>
<path fill="none" stroke="midnightblue" d="M1012.59,-223.465C1008.4,-215.272 1003.88,-205.386 1001,-196 988.079,-153.915 983.765,-101.122 982.485,-79.6989"/>
<polygon fill="midnightblue" stroke="midnightblue" points="1009.6,-225.305 1017.41,-232.47 1015.77,-222.002 1009.6,-225.305"/>
</g>
<!-- Node19 -->
<g id="node19" class="node"><title>Node19</title>
<g id="a_node19"><a xlink:href="../../d8/d8e/_j_s_o_n_2libjson_8cpp.html" target="_top" xlink:title="JSON/libjson.cpp">
<polygon fill="white" stroke="black" points="1010.5,-174.5 1010.5,-195.5 1117.5,-195.5 1117.5,-174.5 1010.5,-174.5"/>
<text text-anchor="middle" x="1064" y="-181.9" font-family="Helvetica,sans-Serif" font-size="12.00">JSON/libjson.cpp</text>
</a>
</g>
</g>
<!-- Node3&#45;&gt;Node19 -->
<g id="edge21" class="edge"><title>Node3&#45;&gt;Node19</title>
<path fill="none" stroke="midnightblue" d="M1036.24,-223.921C1043.12,-214.518 1051.26,-203.4 1056.94,-195.643"/>
<polygon fill="midnightblue" stroke="midnightblue" points="1033.23,-222.109 1030.14,-232.246 1038.87,-226.244 1033.23,-222.109"/>
</g>
<!-- Node20 -->
<g id="node20" class="node"><title>Node20</title>
<g id="a_node20"><a xlink:href="../../d7/d4a/jsonhelpers_8cpp.html" target="_top" xlink:title="jsonhelpers.cpp">
<polygon fill="white" stroke="black" points="1136,-174.5 1136,-195.5 1234,-195.5 1234,-174.5 1136,-174.5"/>
<text text-anchor="middle" x="1185" y="-181.9" font-family="Helvetica,sans-Serif" font-size="12.00">jsonhelpers.cpp</text>
</a>
</g>
</g>
<!-- Node3&#45;&gt;Node20 -->
<g id="edge22" class="edge"><title>Node3&#45;&gt;Node20</title>
<path fill="none" stroke="midnightblue" d="M1060.44,-229.057C1090.09,-218.808 1130.82,-204.729 1157.51,-195.501"/>
<polygon fill="midnightblue" stroke="midnightblue" points="1059.16,-225.798 1050.85,-232.373 1061.44,-232.414 1059.16,-225.798"/>
</g>
<!-- Node5 -->
<g id="node5" class="node"><title>Node5</title>
<g id="a_node5"><a xlink:href="../../dc/d69/_blemish_test_8h.html" target="_top" xlink:title="BlemishTest.h">
<polygon fill="white" stroke="black" points="714,-116.5 714,-137.5 804,-137.5 804,-116.5 714,-116.5"/>
<text text-anchor="middle" x="759" y="-123.9" font-family="Helvetica,sans-Serif" font-size="12.00">BlemishTest.h</text>
</a>
</g>
</g>
<!-- Node4&#45;&gt;Node5 -->
<g id="edge4" class="edge"><title>Node4&#45;&gt;Node5</title>
<path fill="none" stroke="midnightblue" d="M811.049,-167.928C798.289,-158.14 782.411,-145.959 771.57,-137.643"/>
<polygon fill="midnightblue" stroke="midnightblue" points="809.22,-170.936 819.284,-174.246 813.48,-165.382 809.22,-170.936"/>
</g>
<!-- Node6 -->
<g id="node6" class="node"><title>Node6</title>
<g id="a_node6"><a xlink:href="../../da/de6/_operator_console_8h.html" target="_top" xlink:title="OperatorConsole.h">
<polygon fill="white" stroke="black" points="794,-58.5 794,-79.5 910,-79.5 910,-58.5 794,-58.5"/>
<text text-anchor="middle" x="852" y="-65.9" font-family="Helvetica,sans-Serif" font-size="12.00">OperatorConsole.h</text>
</a>
</g>
</g>
<!-- Node4&#45;&gt;Node6 -->
<g id="edge16" class="edge"><title>Node4&#45;&gt;Node6</title>
<path fill="none" stroke="midnightblue" d="M835.465,-164.252C839.792,-139.584 847.026,-98.3525 850.299,-79.695"/>
<polygon fill="midnightblue" stroke="midnightblue" points="831.986,-163.826 833.705,-174.28 838.881,-165.036 831.986,-163.826"/>
</g>
<!-- Node9 -->
<g id="node9" class="node"><title>Node9</title>
<g id="a_node9"><a xlink:href="../../d8/d53/_image_test_8cpp.html" target="_top" xlink:title="ImageTest.cpp">
<polygon fill="white" stroke="black" points="369,-0.5 369,-21.5 463,-21.5 463,-0.5 369,-0.5"/>
<text text-anchor="middle" x="416" y="-7.9" font-family="Helvetica,sans-Serif" font-size="12.00">ImageTest.cpp</text>
</a>
</g>
</g>
<!-- Node4&#45;&gt;Node9 -->
<g id="edge20" class="edge"><title>Node4&#45;&gt;Node9</title>
<path fill="none" stroke="midnightblue" d="M794.44,-171.101C769.035,-162.204 734.808,-149.882 705,-138 603.312,-97.4643 484.12,-43.3613 436.839,-21.631"/>
<polygon fill="midnightblue" stroke="midnightblue" points="793.466,-174.468 804.061,-174.454 795.77,-167.858 793.466,-174.468"/>
</g>
<!-- Node17 -->
<g id="node17" class="node"><title>Node17</title>
<g id="a_node17"><a xlink:href="../../d2/d9d/_s_f_rplus_test_8h.html" target="_top" xlink:title="SFRplusTest.h">
<polygon fill="white" stroke="black" points="860.5,-116.5 860.5,-137.5 953.5,-137.5 953.5,-116.5 860.5,-116.5"/>
<text text-anchor="middle" x="907" y="-123.9" font-family="Helvetica,sans-Serif" font-size="12.00">SFRplusTest.h</text>
</a>
</g>
</g>
<!-- Node4&#45;&gt;Node17 -->
<g id="edge17" class="edge"><title>Node4&#45;&gt;Node17</title>
<path fill="none" stroke="midnightblue" d="M853.148,-168.21C866.32,-158.374 882.84,-146.039 894.086,-137.643"/>
<polygon fill="midnightblue" stroke="midnightblue" points="850.983,-165.458 845.064,-174.246 855.171,-171.067 850.983,-165.458"/>
</g>
<!-- Node5&#45;&gt;Node6 -->
<g id="edge5" class="edge"><title>Node5&#45;&gt;Node6</title>
<path fill="none" stroke="midnightblue" d="M783.834,-111.046C800.381,-101.082 821.643,-88.2794 835.986,-79.6427"/>
<polygon fill="midnightblue" stroke="midnightblue" points="781.961,-108.089 775.199,-116.246 785.572,-114.085 781.961,-108.089"/>
</g>
<!-- Node16 -->
<g id="node16" class="node"><title>Node16</title>
<g id="a_node16"><a xlink:href="../../dd/d8a/_blemish_test_8cpp.html" target="_top" xlink:title="BlemishTest.cpp">
<polygon fill="white" stroke="black" points="672,-58.5 672,-79.5 776,-79.5 776,-58.5 672,-58.5"/>
<text text-anchor="middle" x="724" y="-65.9" font-family="Helvetica,sans-Serif" font-size="12.00">BlemishTest.cpp</text>
</a>
</g>
</g>
<!-- Node5&#45;&gt;Node16 -->
<g id="edge15" class="edge"><title>Node5&#45;&gt;Node16</title>
<path fill="none" stroke="midnightblue" d="M747.518,-107.63C741.68,-98.2887 734.825,-87.3197 730.027,-79.6427"/>
<polygon fill="midnightblue" stroke="midnightblue" points="744.635,-109.621 752.903,-116.246 750.571,-105.911 744.635,-109.621"/>
</g>
<!-- Node7 -->
<g id="node7" class="node"><title>Node7</title>
<g id="a_node7"><a xlink:href="../../d3/d22/_app_thread_8cpp.html" target="_top" xlink:title="AppThread.cpp">
<polygon fill="white" stroke="black" points="1213,-0.5 1213,-21.5 1311,-21.5 1311,-0.5 1213,-0.5"/>
<text text-anchor="middle" x="1262" y="-7.9" font-family="Helvetica,sans-Serif" font-size="12.00">AppThread.cpp</text>
</a>
</g>
</g>
<!-- Node6&#45;&gt;Node7 -->
<g id="edge6" class="edge"><title>Node6&#45;&gt;Node7</title>
<path fill="none" stroke="midnightblue" d="M920.209,-57.8614C1047.18,-40.5771 1080.93,-40.3724 1204,-22 1206.93,-21.5625 1209.94,-21.0958 1212.98,-20.6121"/>
<polygon fill="midnightblue" stroke="midnightblue" points="919.525,-54.4223 910.093,-59.2477 920.476,-61.3575 919.525,-54.4223"/>
</g>
<!-- Node8 -->
<g id="node8" class="node"><title>Node8</title>
<g id="a_node8"><a xlink:href="../../d6/df7/_critical_buf_8cpp.html" target="_top" xlink:title="CriticalBuf.cpp">
<polygon fill="white" stroke="black" points="1329.5,-0.5 1329.5,-21.5 1422.5,-21.5 1422.5,-0.5 1329.5,-0.5"/>
<text text-anchor="middle" x="1376" y="-7.9" font-family="Helvetica,sans-Serif" font-size="12.00">CriticalBuf.cpp</text>
</a>
</g>
</g>
<!-- Node6&#45;&gt;Node8 -->
<g id="edge7" class="edge"><title>Node6&#45;&gt;Node8</title>
<path fill="none" stroke="midnightblue" d="M920.054,-57.9387C1098.38,-37.0968 1145.85,-45.3214 1320,-22 1323.03,-21.5936 1326.16,-21.1391 1329.3,-20.6539"/>
<polygon fill="midnightblue" stroke="midnightblue" points="919.596,-54.4684 910.077,-59.119 920.419,-61.4199 919.596,-54.4684"/>
</g>
<!-- Node6&#45;&gt;Node9 -->
<g id="edge8" class="edge"><title>Node6&#45;&gt;Node9</title>
<path fill="none" stroke="midnightblue" d="M783.707,-57.8697C644.451,-39.7739 607.299,-41.8415 472,-22 469.069,-21.5701 466.055,-21.1036 463.019,-20.6151"/>
<polygon fill="midnightblue" stroke="midnightblue" points="783.542,-61.378 793.912,-59.208 784.452,-54.4374 783.542,-61.378"/>
</g>
<!-- Node10 -->
<g id="node10" class="node"><title>Node10</title>
<g id="a_node10"><a xlink:href="../../df/d0a/main_8cpp.html" target="_top" xlink:title="main.cpp">
<polygon fill="white" stroke="black" points="481.5,-0.5 481.5,-21.5 546.5,-21.5 546.5,-0.5 481.5,-0.5"/>
<text text-anchor="middle" x="514" y="-7.9" font-family="Helvetica,sans-Serif" font-size="12.00">main.cpp</text>
</a>
</g>
</g>
<!-- Node6&#45;&gt;Node10 -->
<g id="edge9" class="edge"><title>Node6&#45;&gt;Node10</title>
<path fill="none" stroke="midnightblue" d="M783.68,-57.7341C703.009,-45.5625 576.961,-26.3705 555,-22 552.269,-21.4566 549.446,-20.8541 546.618,-20.2222"/>
<polygon fill="midnightblue" stroke="midnightblue" points="783.361,-61.2254 793.771,-59.2556 784.404,-54.3036 783.361,-61.2254"/>
</g>
<!-- Node11 -->
<g id="node11" class="node"><title>Node11</title>
<g id="a_node11"><a xlink:href="../../de/da2/_operator_console_8cpp.html" target="_top" xlink:title="OperatorConsole.cpp">
<polygon fill="white" stroke="black" points="564.5,-0.5 564.5,-21.5 693.5,-21.5 693.5,-0.5 564.5,-0.5"/>
<text text-anchor="middle" x="629" y="-7.9" font-family="Helvetica,sans-Serif" font-size="12.00">OperatorConsole.cpp</text>
</a>
</g>
</g>
<!-- Node6&#45;&gt;Node11 -->
<g id="edge10" class="edge"><title>Node6&#45;&gt;Node11</title>
<path fill="none" stroke="midnightblue" d="M804.143,-55.982C763.111,-45.6781 704.792,-31.0331 666.925,-21.5237"/>
<polygon fill="midnightblue" stroke="midnightblue" points="803.367,-59.3958 813.918,-58.4369 805.072,-52.6066 803.367,-59.3958"/>
</g>
<!-- Node12 -->
<g id="node12" class="node"><title>Node12</title>
<g id="a_node12"><a xlink:href="../../d8/d29/_operator_console_dlg_8cpp.html" target="_top" xlink:title="OperatorConsoleDlg.cpp">
<polygon fill="white" stroke="black" points="711.5,-0.5 711.5,-21.5 858.5,-21.5 858.5,-0.5 711.5,-0.5"/>
<text text-anchor="middle" x="785" y="-7.9" font-family="Helvetica,sans-Serif" font-size="12.00">OperatorConsoleDlg.cpp</text>
</a>
</g>
</g>
<!-- Node6&#45;&gt;Node12 -->
<g id="edge11" class="edge"><title>Node6&#45;&gt;Node12</title>
<path fill="none" stroke="midnightblue" d="M832.432,-51.645C820.78,-41.9058 806.392,-29.8795 796.537,-21.6427"/>
<polygon fill="midnightblue" stroke="midnightblue" points="830.412,-54.5179 840.329,-58.2455 834.901,-49.1469 830.412,-54.5179"/>
</g>
<!-- Node13 -->
<g id="node13" class="node"><title>Node13</title>
<g id="a_node13"><a xlink:href="../../d0/d57/_pass_fail_8cpp.html" target="_top" xlink:title="PassFail.cpp">
<polygon fill="white" stroke="black" points="877,-0.5 877,-21.5 963,-21.5 963,-0.5 877,-0.5"/>
<text text-anchor="middle" x="920" y="-7.9" font-family="Helvetica,sans-Serif" font-size="12.00">PassFail.cpp</text>
</a>
</g>
</g>
<!-- Node6&#45;&gt;Node13 -->
<g id="edge12" class="edge"><title>Node6&#45;&gt;Node13</title>
<path fill="none" stroke="midnightblue" d="M871.86,-51.645C883.686,-41.9058 898.289,-29.8795 908.291,-21.6427"/>
<polygon fill="midnightblue" stroke="midnightblue" points="869.339,-49.1867 863.845,-58.2455 873.789,-54.5902 869.339,-49.1867"/>
</g>
<!-- Node14 -->
<g id="node14" class="node"><title>Node14</title>
<g id="a_node14"><a xlink:href="../../da/d46/_password_dialog_8cpp.html" target="_top" xlink:title="PasswordDialog.cpp">
<polygon fill="white" stroke="black" points="981,-0.5 981,-21.5 1107,-21.5 1107,-0.5 981,-0.5"/>
<text text-anchor="middle" x="1044" y="-7.9" font-family="Helvetica,sans-Serif" font-size="12.00">PasswordDialog.cpp</text>
</a>
</g>
</g>
<!-- Node6&#45;&gt;Node14 -->
<g id="edge13" class="edge"><title>Node6&#45;&gt;Node14</title>
<path fill="none" stroke="midnightblue" d="M895.008,-55.4561C930.252,-45.1765 979.374,-30.8494 1011.42,-21.5011"/>
<polygon fill="midnightblue" stroke="midnightblue" points="893.626,-52.2132 885.006,-58.3733 895.586,-58.9332 893.626,-52.2132"/>
</g>
<!-- Node15 -->
<g id="node15" class="node"><title>Node15</title>
<g id="a_node15"><a xlink:href="../../d5/d27/_setup_8cpp.html" target="_top" xlink:title="Setup.cpp">
<polygon fill="white" stroke="black" points="1125,-0.5 1125,-21.5 1195,-21.5 1195,-0.5 1125,-0.5"/>
<text text-anchor="middle" x="1160" y="-7.9" font-family="Helvetica,sans-Serif" font-size="12.00">Setup.cpp</text>
</a>
</g>
</g>
<!-- Node6&#45;&gt;Node15 -->
<g id="edge14" class="edge"><title>Node6&#45;&gt;Node15</title>
<path fill="none" stroke="midnightblue" d="M920.133,-57.1082C973.549,-48.3328 1049.68,-35.3043 1116,-22 1118.92,-21.4145 1121.94,-20.7824 1124.97,-20.1306"/>
<polygon fill="midnightblue" stroke="midnightblue" points="919.401,-53.6814 910.097,-58.7508 920.532,-60.5895 919.401,-53.6814"/>
</g>
<!-- Node17&#45;&gt;Node6 -->
<g id="edge18" class="edge"><title>Node17&#45;&gt;Node6</title>
<path fill="none" stroke="midnightblue" d="M890.377,-109.075C880.915,-99.4402 869.403,-87.7196 861.47,-79.6427"/>
<polygon fill="midnightblue" stroke="midnightblue" points="887.916,-111.564 897.42,-116.246 892.91,-106.659 887.916,-111.564"/>
</g>
<!-- Node17&#45;&gt;Node18 -->
<g id="edge19" class="edge"><title>Node17&#45;&gt;Node18</title>
<path fill="none" stroke="midnightblue" d="M928.148,-110.21C941.32,-100.374 957.84,-88.0394 969.086,-79.6427"/>
<polygon fill="midnightblue" stroke="midnightblue" points="925.983,-107.458 920.064,-116.246 930.171,-113.067 925.983,-107.458"/>
</g>
<!-- Node21&#45;&gt;Node3 -->
<g id="edge25" class="edge"><title>Node21&#45;&gt;Node3</title>
<path fill="none" stroke="midnightblue" d="M891.886,-287.19C923.031,-276.931 966.022,-262.769 994.157,-253.501"/>
<polygon fill="midnightblue" stroke="midnightblue" points="890.627,-283.92 882.224,-290.373 892.817,-290.569 890.627,-283.92"/>
</g>
<!-- Node21&#45;&gt;Node22 -->
<g id="edge26" class="edge"><title>Node21&#45;&gt;Node22</title>
<path fill="none" stroke="midnightblue" d="M778.307,-290.031C778.204,-290.02 778.102,-290.01 778,-290 559.633,-268.219 301.492,-254.158 170.501,-247.849"/>
<polygon fill="midnightblue" stroke="midnightblue" points="777.673,-293.483 787.988,-291.064 778.416,-286.522 777.673,-293.483"/>
</g>
<!-- Node23 -->
<g id="node23" class="node"><title>Node23</title>
<g id="a_node23"><a xlink:href="../../de/dcb/_j_s_o_n_2_j_s_o_n_stream_8cpp.html" target="_top" xlink:title="JSON/JSONStream.cpp">
<polygon fill="white" stroke="black" points="677.5,-232.5 677.5,-253.5 820.5,-253.5 820.5,-232.5 677.5,-232.5"/>
<text text-anchor="middle" x="749" y="-239.9" font-family="Helvetica,sans-Serif" font-size="12.00">JSON/JSONStream.cpp</text>
</a>
</g>
</g>
<!-- Node21&#45;&gt;Node23 -->
<g id="edge27" class="edge"><title>Node21&#45;&gt;Node23</title>
<path fill="none" stroke="midnightblue" d="M825.997,-285.46C807.386,-275.439 783.17,-262.399 766.908,-253.643"/>
<polygon fill="midnightblue" stroke="midnightblue" points="824.42,-288.586 834.885,-290.246 827.739,-282.423 824.42,-288.586"/>
</g>
<!-- Node24 -->
<g id="node24" class="node"><title>Node24</title>
<g id="a_node24"><a xlink:href="../../dc/d24/_j_s_o_n_2_j_s_o_n_worker_8cpp.html" target="_top" xlink:title="JSON/JSONWorker.cpp">
<polygon fill="white" stroke="black" points="516.5,-232.5 516.5,-253.5 659.5,-253.5 659.5,-232.5 516.5,-232.5"/>
<text text-anchor="middle" x="588" y="-239.9" font-family="Helvetica,sans-Serif" font-size="12.00">JSON/JSONWorker.cpp</text>
</a>
</g>
</g>
<!-- Node21&#45;&gt;Node24 -->
<g id="edge28" class="edge"><title>Node21&#45;&gt;Node24</title>
<path fill="none" stroke="midnightblue" d="M797.668,-288.307C748.838,-277.988 678.543,-263.134 633.067,-253.524"/>
<polygon fill="midnightblue" stroke="midnightblue" points="797.238,-291.794 807.746,-290.437 798.686,-284.945 797.238,-291.794"/>
</g>
<!-- Node21&#45;&gt;Node25 -->
<g id="edge29" class="edge"><title>Node21&#45;&gt;Node25</title>
<path fill="none" stroke="midnightblue" d="M869.597,-282.788C878.835,-273.208 889.99,-261.64 897.702,-253.643"/>
<polygon fill="midnightblue" stroke="midnightblue" points="866.828,-280.618 862.406,-290.246 871.867,-285.477 866.828,-280.618"/>
</g>
<!-- Node26&#45;&gt;Node3 -->
<g id="edge31" class="edge"><title>Node26&#45;&gt;Node3</title>
<path fill="none" stroke="midnightblue" d="M1064.47,-283.361C1054.26,-273.673 1041.75,-261.8 1033.16,-253.643"/>
<polygon fill="midnightblue" stroke="midnightblue" points="1062.06,-285.9 1071.72,-290.246 1066.88,-280.823 1062.06,-285.9"/>
</g>
<!-- Node27 -->
<g id="node27" class="node"><title>Node27</title>
<g id="a_node27"><a xlink:href="../../dc/d8b/_j_s_o_n_2_j_s_o_n_preparse_8cpp.html" target="_top" xlink:title="JSON/JSONPreparse.cpp">
<polygon fill="white" stroke="black" points="1071,-232.5 1071,-253.5 1225,-253.5 1225,-232.5 1071,-232.5"/>
<text text-anchor="middle" x="1148" y="-239.9" font-family="Helvetica,sans-Serif" font-size="12.00">JSON/JSONPreparse.cpp</text>
</a>
</g>
</g>
<!-- Node26&#45;&gt;Node27 -->
<g id="edge32" class="edge"><title>Node26&#45;&gt;Node27</title>
<path fill="none" stroke="midnightblue" d="M1101.28,-283.645C1112.75,-273.906 1126.93,-261.88 1136.64,-253.643"/>
<polygon fill="midnightblue" stroke="midnightblue" points="1098.86,-281.107 1093.5,-290.246 1103.39,-286.445 1098.86,-281.107"/>
</g>
</g>
</svg>
