<?xml version="1.0" encoding="UTF-8" standalone="no"?>
<!DOCTYPE svg PUBLIC "-//W3C//DTD SVG 1.1//EN"
 "http://www.w3.org/Graphics/SVG/1.1/DTD/svg11.dtd">
<!-- Generated by graphviz version 2.34.0 (20130907.0111)
 -->
<!-- Title: imatest_library.h Pages: 1 -->
<svg width="2652pt" height="318pt"
 viewBox="0.00 0.00 2652.00 318.00" xmlns="http://www.w3.org/2000/svg" xmlns:xlink="http://www.w3.org/1999/xlink">
<g id="graph0" class="graph" transform="scale(1 1) rotate(0) translate(4 314)">
<title>imatest_library.h</title>
<polygon fill="white" stroke="white" points="-4,4 -4,-314 2648,-314 2648,4 -4,4"/>
<!-- Node1 -->
<g id="node1" class="node"><title>Node1</title>
<polygon fill="#bfbfbf" stroke="black" points="1724,-288.5 1724,-309.5 1826,-309.5 1826,-288.5 1724,-288.5"/>
<text text-anchor="middle" x="1775" y="-295.9" font-family="Helvetica,sans-Serif" font-size="12.00">imatest_library.h</text>
</g>
<!-- Node2 -->
<g id="node2" class="node"><title>Node2</title>
<g id="a_node2"><a xlink:href="../../d9/da7/_image_test_8h.html" target="_top" xlink:title="ImageTest.h">
<polygon fill="white" stroke="black" points="679,-223.5 679,-244.5 759,-244.5 759,-223.5 679,-223.5"/>
<text text-anchor="middle" x="719" y="-230.9" font-family="Helvetica,sans-Serif" font-size="12.00">ImageTest.h</text>
</a>
</g>
</g>
<!-- Node1&#45;&gt;Node2 -->
<g id="edge1" class="edge"><title>Node1&#45;&gt;Node2</title>
<path fill="none" stroke="midnightblue" d="M1713.67,-294.341C1519.25,-282.742 920.054,-246.995 759.131,-237.394"/>
<polygon fill="midnightblue" stroke="midnightblue" points="1713.52,-297.838 1723.71,-294.94 1713.94,-290.851 1713.52,-297.838"/>
</g>
<!-- Node9 -->
<g id="node9" class="node"><title>Node9</title>
<g id="a_node9"><a xlink:href="../../de/da2/_operator_console_8cpp.html" target="_top" xlink:title="OperatorConsole.cpp">
<polygon fill="white" stroke="black" points="924.5,-7.5 924.5,-28.5 1053.5,-28.5 1053.5,-7.5 924.5,-7.5"/>
<text text-anchor="middle" x="989" y="-14.9" font-family="Helvetica,sans-Serif" font-size="12.00">OperatorConsole.cpp</text>
</a>
</g>
</g>
<!-- Node1&#45;&gt;Node9 -->
<g id="edge44" class="edge"><title>Node1&#45;&gt;Node9</title>
<path fill="none" stroke="midnightblue" d="M1713.67,-297.96C1642.94,-296.09 1524.18,-287.287 1429,-252 1291.69,-201.091 1285.17,-135.071 1153,-72 1112.09,-52.4767 1062.16,-37.4992 1028.22,-28.5247"/>
<polygon fill="midnightblue" stroke="midnightblue" points="1713.68,-301.46 1723.75,-298.187 1713.84,-294.462 1713.68,-301.46"/>
</g>
<!-- Node14 -->
<g id="node14" class="node"><title>Node14</title>
<g id="a_node14"><a xlink:href="../../dd/d8a/_blemish_test_8cpp.html" target="_top" xlink:title="BlemishTest.cpp">
<polygon fill="white" stroke="black" points="1040,-79.5 1040,-100.5 1144,-100.5 1144,-79.5 1040,-79.5"/>
<text text-anchor="middle" x="1092" y="-86.9" font-family="Helvetica,sans-Serif" font-size="12.00">BlemishTest.cpp</text>
</a>
</g>
</g>
<!-- Node1&#45;&gt;Node14 -->
<g id="edge19" class="edge"><title>Node1&#45;&gt;Node14</title>
<path fill="none" stroke="midnightblue" d="M1713.63,-296.317C1572.54,-292.001 1233.82,-278.938 1190,-252 1131.18,-215.839 1102.75,-129.914 1094.57,-100.823"/>
<polygon fill="midnightblue" stroke="midnightblue" points="1713.74,-299.821 1723.84,-296.624 1713.95,-292.825 1713.74,-299.821"/>
</g>
<!-- Node16 -->
<g id="node16" class="node"><title>Node16</title>
<g id="a_node16"><a xlink:href="../../dc/d7a/_s_f_rplus_test_8cpp.html" target="_top" xlink:title="SFRplusTest.cpp">
<polygon fill="white" stroke="black" points="850.5,-79.5 850.5,-100.5 957.5,-100.5 957.5,-79.5 850.5,-79.5"/>
<text text-anchor="middle" x="904" y="-86.9" font-family="Helvetica,sans-Serif" font-size="12.00">SFRplusTest.cpp</text>
</a>
</g>
</g>
<!-- Node1&#45;&gt;Node16 -->
<g id="edge45" class="edge"><title>Node1&#45;&gt;Node16</title>
<path fill="none" stroke="midnightblue" d="M1713.63,-297.398C1577.14,-295.43 1252.33,-287.09 1149,-252 1046.83,-217.304 945.86,-129.661 914.17,-100.559"/>
<polygon fill="midnightblue" stroke="midnightblue" points="1713.86,-300.901 1723.91,-297.539 1713.96,-293.902 1713.86,-300.901"/>
</g>
<!-- Node17 -->
<g id="node17" class="node"><title>Node17</title>
<g id="a_node17"><a xlink:href="../../d5/dd6/_documentation_2_operator-_console_2_image_test_8h.html" target="_top" xlink:title="Documentation/Operator\l&#45;Console/ImageTest.h">
<polygon fill="white" stroke="black" points="1438.5,-217 1438.5,-251 1583.5,-251 1583.5,-217 1438.5,-217"/>
<text text-anchor="start" x="1446.5" y="-237.4" font-family="Helvetica,sans-Serif" font-size="12.00">Documentation/Operator</text>
<text text-anchor="middle" x="1511" y="-224.4" font-family="Helvetica,sans-Serif" font-size="12.00">&#45;Console/ImageTest.h</text>
</a>
</g>
</g>
<!-- Node1&#45;&gt;Node17 -->
<g id="edge20" class="edge"><title>Node1&#45;&gt;Node17</title>
<path fill="none" stroke="midnightblue" d="M1725.01,-286.07C1683.45,-276.154 1623.94,-261.952 1578.22,-251.04"/>
<polygon fill="midnightblue" stroke="midnightblue" points="1724.36,-289.515 1734.9,-288.432 1725.99,-282.706 1724.36,-289.515"/>
</g>
<!-- Node24 -->
<g id="node24" class="node"><title>Node24</title>
<g id="a_node24"><a xlink:href="../../db/db5/_documentation_2_operator-_console_2_operator_console_8cpp.html" target="_top" xlink:title="Documentation/Operator\l&#45;Console/OperatorConsole.cpp">
<polygon fill="white" stroke="black" points="2465.5,-1 2465.5,-35 2644.5,-35 2644.5,-1 2465.5,-1"/>
<text text-anchor="start" x="2473.5" y="-21.4" font-family="Helvetica,sans-Serif" font-size="12.00">Documentation/Operator</text>
<text text-anchor="middle" x="2555" y="-8.4" font-family="Helvetica,sans-Serif" font-size="12.00">&#45;Console/OperatorConsole.cpp</text>
</a>
</g>
</g>
<!-- Node1&#45;&gt;Node24 -->
<g id="edge40" class="edge"><title>Node1&#45;&gt;Node24</title>
<path fill="none" stroke="midnightblue" d="M1794.58,-281.938C1817.61,-263.735 1857.58,-234.231 1896,-216 2093.56,-122.258 2345.69,-61.8242 2473.22,-35.0138"/>
<polygon fill="midnightblue" stroke="midnightblue" points="1792.24,-279.33 1786.62,-288.315 1796.61,-284.792 1792.24,-279.33"/>
</g>
<!-- Node29 -->
<g id="node29" class="node"><title>Node29</title>
<g id="a_node29"><a xlink:href="../../dc/d58/_documentation_2_operator-_console_2_blemish_test_8cpp.html" target="_top" xlink:title="Documentation/Operator\l&#45;Console/BlemishTest.cpp">
<polygon fill="white" stroke="black" points="1775,-73 1775,-107 1929,-107 1929,-73 1775,-73"/>
<text text-anchor="start" x="1783" y="-93.4" font-family="Helvetica,sans-Serif" font-size="12.00">Documentation/Operator</text>
<text text-anchor="middle" x="1852" y="-80.4" font-family="Helvetica,sans-Serif" font-size="12.00">&#45;Console/BlemishTest.cpp</text>
</a>
</g>
</g>
<!-- Node1&#45;&gt;Node29 -->
<g id="edge38" class="edge"><title>Node1&#45;&gt;Node29</title>
<path fill="none" stroke="midnightblue" d="M1782.15,-278.785C1797.21,-238.293 1831.97,-144.834 1845.99,-107.168"/>
<polygon fill="midnightblue" stroke="midnightblue" points="1778.82,-277.701 1778.61,-288.294 1785.38,-280.141 1778.82,-277.701"/>
</g>
<!-- Node31 -->
<g id="node31" class="node"><title>Node31</title>
<g id="a_node31"><a xlink:href="../../d6/d7f/_documentation_2_operator-_console_2_s_f_rplus_test_8cpp.html" target="_top" xlink:title="Documentation/Operator\l&#45;Console/SFRplusTest.cpp">
<polygon fill="white" stroke="black" points="1599.5,-73 1599.5,-107 1756.5,-107 1756.5,-73 1599.5,-73"/>
<text text-anchor="start" x="1607.5" y="-93.4" font-family="Helvetica,sans-Serif" font-size="12.00">Documentation/Operator</text>
<text text-anchor="middle" x="1678" y="-80.4" font-family="Helvetica,sans-Serif" font-size="12.00">&#45;Console/SFRplusTest.cpp</text>
</a>
</g>
</g>
<!-- Node1&#45;&gt;Node31 -->
<g id="edge41" class="edge"><title>Node1&#45;&gt;Node31</title>
<path fill="none" stroke="midnightblue" d="M1777.3,-278.125C1779.89,-247.069 1780.8,-186.226 1755,-144 1745.27,-128.075 1728.74,-115.763 1713.49,-107.03"/>
<polygon fill="midnightblue" stroke="midnightblue" points="1773.78,-278.172 1776.28,-288.468 1780.75,-278.86 1773.78,-278.172"/>
</g>
<!-- Node32 -->
<g id="node32" class="node"><title>Node32</title>
<g id="a_node32"><a xlink:href="../../dc/db7/_documentation_2_operator-_console_2_imatest_lib_acq_8cpp.html" target="_top" xlink:title="Documentation/Operator\l&#45;Console/ImatestLibAcq.cpp">
<polygon fill="white" stroke="black" points="1905,-217 1905,-251 2069,-251 2069,-217 1905,-217"/>
<text text-anchor="start" x="1913" y="-237.4" font-family="Helvetica,sans-Serif" font-size="12.00">Documentation/Operator</text>
<text text-anchor="middle" x="1987" y="-224.4" font-family="Helvetica,sans-Serif" font-size="12.00">&#45;Console/ImatestLibAcq.cpp</text>
</a>
</g>
</g>
<!-- Node1&#45;&gt;Node32 -->
<g id="edge39" class="edge"><title>Node1&#45;&gt;Node32</title>
<path fill="none" stroke="midnightblue" d="M1817.06,-285.5C1850.33,-275.614 1897,-261.744 1933.02,-251.04"/>
<polygon fill="midnightblue" stroke="midnightblue" points="1815.79,-282.228 1807.2,-288.432 1817.78,-288.938 1815.79,-282.228"/>
</g>
<!-- Node33 -->
<g id="node33" class="node"><title>Node33</title>
<g id="a_node33"><a xlink:href="../../d6/d56/imatest__library_8cpp.html" target="_top" xlink:title="imatest_library.cpp">
<polygon fill="white" stroke="black" points="2087,-223.5 2087,-244.5 2203,-244.5 2203,-223.5 2087,-223.5"/>
<text text-anchor="middle" x="2145" y="-230.9" font-family="Helvetica,sans-Serif" font-size="12.00">imatest_library.cpp</text>
</a>
</g>
</g>
<!-- Node1&#45;&gt;Node33 -->
<g id="edge42" class="edge"><title>Node1&#45;&gt;Node33</title>
<path fill="none" stroke="midnightblue" d="M1836.49,-290.459C1897.93,-282.504 1994.93,-268.802 2078,-252 2088.47,-249.883 2099.76,-247.183 2110.03,-244.561"/>
<polygon fill="midnightblue" stroke="midnightblue" points="1835.67,-287.036 1826.2,-291.781 1836.56,-293.979 1835.67,-287.036"/>
</g>
<!-- Node34 -->
<g id="node34" class="node"><title>Node34</title>
<g id="a_node34"><a xlink:href="../../d5/d85/_imatest_lib_acq_8cpp.html" target="_top" xlink:title="ImatestLibAcq.cpp">
<polygon fill="white" stroke="black" points="2221,-223.5 2221,-244.5 2335,-244.5 2335,-223.5 2221,-223.5"/>
<text text-anchor="middle" x="2278" y="-230.9" font-family="Helvetica,sans-Serif" font-size="12.00">ImatestLibAcq.cpp</text>
</a>
</g>
</g>
<!-- Node1&#45;&gt;Node34 -->
<g id="edge43" class="edge"><title>Node1&#45;&gt;Node34</title>
<path fill="none" stroke="midnightblue" d="M1836.12,-294.416C1920.99,-288.793 2079.08,-275.98 2212,-252 2222.83,-250.046 2234.5,-247.269 2244.97,-244.523"/>
<polygon fill="midnightblue" stroke="midnightblue" points="1835.89,-290.923 1826.14,-295.066 1836.35,-297.908 1835.89,-290.923"/>
</g>
<!-- Node3 -->
<g id="node3" class="node"><title>Node3</title>
<g id="a_node3"><a xlink:href="../../dc/d69/_blemish_test_8h.html" target="_top" xlink:title="BlemishTest.h">
<polygon fill="white" stroke="black" points="784,-151.5 784,-172.5 874,-172.5 874,-151.5 784,-151.5"/>
<text text-anchor="middle" x="829" y="-158.9" font-family="Helvetica,sans-Serif" font-size="12.00">BlemishTest.h</text>
</a>
</g>
</g>
<!-- Node2&#45;&gt;Node3 -->
<g id="edge2" class="edge"><title>Node2&#45;&gt;Node3</title>
<path fill="none" stroke="midnightblue" d="M742.887,-217.799C764.445,-204.08 795.506,-184.314 813.835,-172.651"/>
<polygon fill="midnightblue" stroke="midnightblue" points="740.853,-214.945 734.295,-223.267 744.611,-220.851 740.853,-214.945"/>
</g>
<!-- Node4 -->
<g id="node4" class="node"><title>Node4</title>
<g id="a_node4"><a xlink:href="../../da/de6/_operator_console_8h.html" target="_top" xlink:title="OperatorConsole.h">
<polygon fill="white" stroke="black" points="586,-79.5 586,-100.5 702,-100.5 702,-79.5 586,-79.5"/>
<text text-anchor="middle" x="644" y="-86.9" font-family="Helvetica,sans-Serif" font-size="12.00">OperatorConsole.h</text>
</a>
</g>
</g>
<!-- Node2&#45;&gt;Node4 -->
<g id="edge14" class="edge"><title>Node2&#45;&gt;Node4</title>
<path fill="none" stroke="midnightblue" d="M696.601,-217.15C684.851,-207.678 671.227,-194.652 663,-180 648.38,-153.962 644.991,-117.861 644.219,-100.747"/>
<polygon fill="midnightblue" stroke="midnightblue" points="694.659,-220.073 704.721,-223.392 698.925,-214.523 694.659,-220.073"/>
</g>
<!-- Node7 -->
<g id="node7" class="node"><title>Node7</title>
<g id="a_node7"><a xlink:href="../../d8/d53/_image_test_8cpp.html" target="_top" xlink:title="ImageTest.cpp">
<polygon fill="white" stroke="black" points="0,-7.5 0,-28.5 94,-28.5 94,-7.5 0,-7.5"/>
<text text-anchor="middle" x="47" y="-14.9" font-family="Helvetica,sans-Serif" font-size="12.00">ImageTest.cpp</text>
</a>
</g>
</g>
<!-- Node2&#45;&gt;Node7 -->
<g id="edge18" class="edge"><title>Node2&#45;&gt;Node7</title>
<path fill="none" stroke="midnightblue" d="M679.055,-220.279C556.168,-181.146 185.516,-63.1109 77.0968,-28.5844"/>
<polygon fill="midnightblue" stroke="midnightblue" points="678.229,-223.69 688.82,-223.389 680.354,-217.02 678.229,-223.69"/>
</g>
<!-- Node15 -->
<g id="node15" class="node"><title>Node15</title>
<g id="a_node15"><a xlink:href="../../d2/d9d/_s_f_rplus_test_8h.html" target="_top" xlink:title="SFRplusTest.h">
<polygon fill="white" stroke="black" points="672.5,-151.5 672.5,-172.5 765.5,-172.5 765.5,-151.5 672.5,-151.5"/>
<text text-anchor="middle" x="719" y="-158.9" font-family="Helvetica,sans-Serif" font-size="12.00">SFRplusTest.h</text>
</a>
</g>
</g>
<!-- Node2&#45;&gt;Node15 -->
<g id="edge15" class="edge"><title>Node2&#45;&gt;Node15</title>
<path fill="none" stroke="midnightblue" d="M719,-213.199C719,-199.938 719,-183.065 719,-172.651"/>
<polygon fill="midnightblue" stroke="midnightblue" points="715.5,-213.267 719,-223.267 722.5,-213.267 715.5,-213.267"/>
</g>
<!-- Node3&#45;&gt;Node4 -->
<g id="edge3" class="edge"><title>Node3&#45;&gt;Node4</title>
<path fill="none" stroke="midnightblue" d="M793.964,-147.743C757.599,-133.984 701.613,-112.8 669.326,-100.583"/>
<polygon fill="midnightblue" stroke="midnightblue" points="793.073,-151.148 803.664,-151.414 795.55,-144.601 793.073,-151.148"/>
</g>
<!-- Node3&#45;&gt;Node14 -->
<g id="edge13" class="edge"><title>Node3&#45;&gt;Node14</title>
<path fill="none" stroke="midnightblue" d="M874.6,-148.863C926.063,-135.166 1008.73,-113.162 1055.91,-100.605"/>
<polygon fill="midnightblue" stroke="midnightblue" points="873.506,-145.532 864.743,-151.487 875.307,-152.297 873.506,-145.532"/>
</g>
<!-- Node5 -->
<g id="node5" class="node"><title>Node5</title>
<g id="a_node5"><a xlink:href="../../d3/d22/_app_thread_8cpp.html" target="_top" xlink:title="AppThread.cpp">
<polygon fill="white" stroke="black" points="697,-7.5 697,-28.5 795,-28.5 795,-7.5 697,-7.5"/>
<text text-anchor="middle" x="746" y="-14.9" font-family="Helvetica,sans-Serif" font-size="12.00">AppThread.cpp</text>
</a>
</g>
</g>
<!-- Node4&#45;&gt;Node5 -->
<g id="edge4" class="edge"><title>Node4&#45;&gt;Node5</title>
<path fill="none" stroke="midnightblue" d="M666.688,-73.43C686.653,-59.728 715.094,-40.2102 731.938,-28.6505"/>
<polygon fill="midnightblue" stroke="midnightblue" points="664.447,-70.7225 658.183,-79.2668 668.408,-76.4941 664.447,-70.7225"/>
</g>
<!-- Node6 -->
<g id="node6" class="node"><title>Node6</title>
<g id="a_node6"><a xlink:href="../../d6/df7/_critical_buf_8cpp.html" target="_top" xlink:title="CriticalBuf.cpp">
<polygon fill="white" stroke="black" points="813.5,-7.5 813.5,-28.5 906.5,-28.5 906.5,-7.5 813.5,-7.5"/>
<text text-anchor="middle" x="860" y="-14.9" font-family="Helvetica,sans-Serif" font-size="12.00">CriticalBuf.cpp</text>
</a>
</g>
</g>
<!-- Node4&#45;&gt;Node6 -->
<g id="edge5" class="edge"><title>Node4&#45;&gt;Node6</title>
<path fill="none" stroke="midnightblue" d="M683.285,-76.2687C725.684,-62.5282 792.249,-40.9562 830.43,-28.5827"/>
<polygon fill="midnightblue" stroke="midnightblue" points="682.015,-73.0011 673.581,-79.4136 684.173,-79.6601 682.015,-73.0011"/>
</g>
<!-- Node4&#45;&gt;Node7 -->
<g id="edge6" class="edge"><title>Node4&#45;&gt;Node7</title>
<path fill="none" stroke="midnightblue" d="M575.514,-86.6132C472.219,-82.0435 270.793,-69.3487 103,-36 93.6325,-34.1382 83.594,-31.3516 74.6402,-28.5704"/>
<polygon fill="midnightblue" stroke="midnightblue" points="575.663,-90.1227 585.804,-87.0558 575.964,-83.1292 575.663,-90.1227"/>
</g>
<!-- Node8 -->
<g id="node8" class="node"><title>Node8</title>
<g id="a_node8"><a xlink:href="../../df/d0a/main_8cpp.html" target="_top" xlink:title="main.cpp">
<polygon fill="white" stroke="black" points="112.5,-7.5 112.5,-28.5 177.5,-28.5 177.5,-7.5 112.5,-7.5"/>
<text text-anchor="middle" x="145" y="-14.9" font-family="Helvetica,sans-Serif" font-size="12.00">main.cpp</text>
</a>
</g>
</g>
<!-- Node4&#45;&gt;Node8 -->
<g id="edge7" class="edge"><title>Node4&#45;&gt;Node8</title>
<path fill="none" stroke="midnightblue" d="M575.815,-87.0006C485.378,-83.0205 321.396,-71.1691 186,-36 178.989,-34.179 171.599,-31.4032 165.054,-28.6194"/>
<polygon fill="midnightblue" stroke="midnightblue" points="575.799,-90.5029 585.938,-87.4266 576.094,-83.5091 575.799,-90.5029"/>
</g>
<!-- Node4&#45;&gt;Node9 -->
<g id="edge8" class="edge"><title>Node4&#45;&gt;Node9</title>
<path fill="none" stroke="midnightblue" d="M705.235,-77.6156C760.237,-67.2492 843.155,-51.2736 915,-36 925.96,-33.6701 937.8,-31.0132 948.727,-28.5034"/>
<polygon fill="midnightblue" stroke="midnightblue" points="704.479,-74.1962 695.298,-79.4845 705.773,-81.0756 704.479,-74.1962"/>
</g>
<!-- Node10 -->
<g id="node10" class="node"><title>Node10</title>
<g id="a_node10"><a xlink:href="../../d8/d29/_operator_console_dlg_8cpp.html" target="_top" xlink:title="OperatorConsoleDlg.cpp">
<polygon fill="white" stroke="black" points="195.5,-7.5 195.5,-28.5 342.5,-28.5 342.5,-7.5 195.5,-7.5"/>
<text text-anchor="middle" x="269" y="-14.9" font-family="Helvetica,sans-Serif" font-size="12.00">OperatorConsoleDlg.cpp</text>
</a>
</g>
</g>
<!-- Node4&#45;&gt;Node10 -->
<g id="edge9" class="edge"><title>Node4&#45;&gt;Node10</title>
<path fill="none" stroke="midnightblue" d="M579.619,-77.7427C520.401,-67.2866 430.188,-51.101 352,-36 339.869,-33.657 326.762,-31.0213 314.627,-28.5372"/>
<polygon fill="midnightblue" stroke="midnightblue" points="579.121,-81.2089 589.577,-79.4986 580.336,-74.3152 579.121,-81.2089"/>
</g>
<!-- Node11 -->
<g id="node11" class="node"><title>Node11</title>
<g id="a_node11"><a xlink:href="../../d0/d57/_pass_fail_8cpp.html" target="_top" xlink:title="PassFail.cpp">
<polygon fill="white" stroke="black" points="361,-7.5 361,-28.5 447,-28.5 447,-7.5 361,-7.5"/>
<text text-anchor="middle" x="404" y="-14.9" font-family="Helvetica,sans-Serif" font-size="12.00">PassFail.cpp</text>
</a>
</g>
</g>
<!-- Node4&#45;&gt;Node11 -->
<g id="edge10" class="edge"><title>Node4&#45;&gt;Node11</title>
<path fill="none" stroke="midnightblue" d="M598.742,-76.8033C560.566,-66.381 504.543,-50.7707 456,-36 448.367,-33.6775 440.145,-31.0488 432.542,-28.565"/>
<polygon fill="midnightblue" stroke="midnightblue" points="597.962,-80.2184 608.531,-79.4688 599.801,-73.4643 597.962,-80.2184"/>
</g>
<!-- Node12 -->
<g id="node12" class="node"><title>Node12</title>
<g id="a_node12"><a xlink:href="../../da/d46/_password_dialog_8cpp.html" target="_top" xlink:title="PasswordDialog.cpp">
<polygon fill="white" stroke="black" points="465,-7.5 465,-28.5 591,-28.5 591,-7.5 465,-7.5"/>
<text text-anchor="middle" x="528" y="-14.9" font-family="Helvetica,sans-Serif" font-size="12.00">PasswordDialog.cpp</text>
</a>
</g>
</g>
<!-- Node4&#45;&gt;Node12 -->
<g id="edge11" class="edge"><title>Node4&#45;&gt;Node12</title>
<path fill="none" stroke="midnightblue" d="M619.113,-73.9823C596.369,-60.257 563.407,-40.3665 543.992,-28.6505"/>
<polygon fill="midnightblue" stroke="midnightblue" points="617.5,-77.0968 627.871,-79.2668 621.117,-71.1034 617.5,-77.0968"/>
</g>
<!-- Node13 -->
<g id="node13" class="node"><title>Node13</title>
<g id="a_node13"><a xlink:href="../../d5/d27/_setup_8cpp.html" target="_top" xlink:title="Setup.cpp">
<polygon fill="white" stroke="black" points="609,-7.5 609,-28.5 679,-28.5 679,-7.5 609,-7.5"/>
<text text-anchor="middle" x="644" y="-14.9" font-family="Helvetica,sans-Serif" font-size="12.00">Setup.cpp</text>
</a>
</g>
</g>
<!-- Node4&#45;&gt;Node13 -->
<g id="edge12" class="edge"><title>Node4&#45;&gt;Node13</title>
<path fill="none" stroke="midnightblue" d="M644,-69.1985C644,-55.9378 644,-39.0647 644,-28.6505"/>
<polygon fill="midnightblue" stroke="midnightblue" points="640.5,-69.2668 644,-79.2668 647.5,-69.2668 640.5,-69.2668"/>
</g>
<!-- Node15&#45;&gt;Node4 -->
<g id="edge16" class="edge"><title>Node15&#45;&gt;Node4</title>
<path fill="none" stroke="midnightblue" d="M701.114,-144.307C686.513,-130.679 666.391,-111.898 654.34,-100.651"/>
<polygon fill="midnightblue" stroke="midnightblue" points="698.873,-147.002 708.572,-151.267 703.649,-141.885 698.873,-147.002"/>
</g>
<!-- Node15&#45;&gt;Node16 -->
<g id="edge17" class="edge"><title>Node15&#45;&gt;Node16</title>
<path fill="none" stroke="midnightblue" d="M754.036,-147.743C790.401,-133.984 846.387,-112.8 878.674,-100.583"/>
<polygon fill="midnightblue" stroke="midnightblue" points="752.45,-144.601 744.336,-151.414 754.927,-151.148 752.45,-144.601"/>
</g>
<!-- Node18 -->
<g id="node18" class="node"><title>Node18</title>
<g id="a_node18"><a xlink:href="../../da/df8/_documentation_2_operator-_console_2_blemish_test_8h.html" target="_top" xlink:title="Documentation/Operator\l&#45;Console/BlemishTest.h">
<polygon fill="white" stroke="black" points="1601.5,-145 1601.5,-179 1746.5,-179 1746.5,-145 1601.5,-145"/>
<text text-anchor="start" x="1609.5" y="-165.4" font-family="Helvetica,sans-Serif" font-size="12.00">Documentation/Operator</text>
<text text-anchor="middle" x="1674" y="-152.4" font-family="Helvetica,sans-Serif" font-size="12.00">&#45;Console/BlemishTest.h</text>
</a>
</g>
</g>
<!-- Node17&#45;&gt;Node18 -->
<g id="edge21" class="edge"><title>Node17&#45;&gt;Node18</title>
<path fill="none" stroke="midnightblue" d="M1557.69,-212.951C1582.68,-202.217 1613.06,-189.172 1636.5,-179.106"/>
<polygon fill="midnightblue" stroke="midnightblue" points="1556.2,-209.779 1548.4,-216.941 1558.97,-216.211 1556.2,-209.779"/>
</g>
<!-- Node19 -->
<g id="node19" class="node"><title>Node19</title>
<g id="a_node19"><a xlink:href="../../da/d65/_documentation_2_operator-_console_2_operator_console_8h.html" target="_top" xlink:title="Documentation/Operator\l&#45;Console/OperatorConsole.h">
<polygon fill="white" stroke="black" points="1415,-73 1415,-107 1581,-107 1581,-73 1415,-73"/>
<text text-anchor="start" x="1423" y="-93.4" font-family="Helvetica,sans-Serif" font-size="12.00">Documentation/Operator</text>
<text text-anchor="middle" x="1498" y="-80.4" font-family="Helvetica,sans-Serif" font-size="12.00">&#45;Console/OperatorConsole.h</text>
</a>
</g>
</g>
<!-- Node17&#45;&gt;Node19 -->
<g id="edge33" class="edge"><title>Node17&#45;&gt;Node19</title>
<path fill="none" stroke="midnightblue" d="M1461.21,-211.78C1448.42,-203.781 1436.24,-193.306 1429,-180 1421.35,-165.947 1421.93,-158.352 1429,-144 1436.75,-128.283 1451.64,-115.928 1465.61,-107.114"/>
<polygon fill="midnightblue" stroke="midnightblue" points="1459.7,-214.949 1470.11,-216.927 1463.2,-208.89 1459.7,-214.949"/>
</g>
<!-- Node22 -->
<g id="node22" class="node"><title>Node22</title>
<g id="a_node22"><a xlink:href="../../da/df9/_documentation_2_operator-_console_2_image_test_8cpp.html" target="_top" xlink:title="Documentation/Operator\l&#45;Console/ImageTest.cpp">
<polygon fill="white" stroke="black" points="1071.5,-1 1071.5,-35 1216.5,-35 1216.5,-1 1071.5,-1"/>
<text text-anchor="start" x="1079.5" y="-21.4" font-family="Helvetica,sans-Serif" font-size="12.00">Documentation/Operator</text>
<text text-anchor="middle" x="1144" y="-8.4" font-family="Helvetica,sans-Serif" font-size="12.00">&#45;Console/ImageTest.cpp</text>
</a>
</g>
</g>
<!-- Node17&#45;&gt;Node22 -->
<g id="edge37" class="edge"><title>Node17&#45;&gt;Node22</title>
<path fill="none" stroke="midnightblue" d="M1474.27,-211.618C1457.69,-201.962 1437.86,-190.409 1420,-180 1328.94,-126.923 1221.01,-63.9468 1171.42,-35.0023"/>
<polygon fill="midnightblue" stroke="midnightblue" points="1472.72,-214.76 1483.12,-216.768 1476.24,-208.711 1472.72,-214.76"/>
</g>
<!-- Node30 -->
<g id="node30" class="node"><title>Node30</title>
<g id="a_node30"><a xlink:href="../../d5/d79/_documentation_2_operator-_console_2_s_f_rplus_test_8h.html" target="_top" xlink:title="Documentation/Operator\l&#45;Console/SFRplusTest.h">
<polygon fill="white" stroke="black" points="1438.5,-145 1438.5,-179 1583.5,-179 1583.5,-145 1438.5,-145"/>
<text text-anchor="start" x="1446.5" y="-165.4" font-family="Helvetica,sans-Serif" font-size="12.00">Documentation/Operator</text>
<text text-anchor="middle" x="1511" y="-152.4" font-family="Helvetica,sans-Serif" font-size="12.00">&#45;Console/SFRplusTest.h</text>
</a>
</g>
</g>
<!-- Node17&#45;&gt;Node30 -->
<g id="edge34" class="edge"><title>Node17&#45;&gt;Node30</title>
<path fill="none" stroke="midnightblue" d="M1511,-206.508C1511,-197.303 1511,-187.262 1511,-179.147"/>
<polygon fill="midnightblue" stroke="midnightblue" points="1507.5,-206.765 1511,-216.765 1514.5,-206.765 1507.5,-206.765"/>
</g>
<!-- Node18&#45;&gt;Node19 -->
<g id="edge22" class="edge"><title>Node18&#45;&gt;Node19</title>
<path fill="none" stroke="midnightblue" d="M1624.3,-141.234C1597.18,-130.447 1564.03,-117.261 1538.49,-107.106"/>
<polygon fill="midnightblue" stroke="midnightblue" points="1623.04,-144.497 1633.62,-144.941 1625.62,-137.993 1623.04,-144.497"/>
</g>
<!-- Node18&#45;&gt;Node29 -->
<g id="edge32" class="edge"><title>Node18&#45;&gt;Node29</title>
<path fill="none" stroke="midnightblue" d="M1724.26,-141.234C1751.69,-130.447 1785.22,-117.261 1811.05,-107.106"/>
<polygon fill="midnightblue" stroke="midnightblue" points="1722.86,-138.024 1714.84,-144.941 1725.42,-144.538 1722.86,-138.024"/>
</g>
<!-- Node20 -->
<g id="node20" class="node"><title>Node20</title>
<g id="a_node20"><a xlink:href="../../d7/d4b/_documentation_2_operator-_console_2_app_thread_8cpp.html" target="_top" xlink:title="Documentation/Operator\l&#45;Console/AppThread.cpp">
<polygon fill="white" stroke="black" points="2136,-1 2136,-35 2284,-35 2284,-1 2136,-1"/>
<text text-anchor="start" x="2144" y="-21.4" font-family="Helvetica,sans-Serif" font-size="12.00">Documentation/Operator</text>
<text text-anchor="middle" x="2210" y="-8.4" font-family="Helvetica,sans-Serif" font-size="12.00">&#45;Console/AppThread.cpp</text>
</a>
</g>
</g>
<!-- Node19&#45;&gt;Node20 -->
<g id="edge23" class="edge"><title>Node19&#45;&gt;Node20</title>
<path fill="none" stroke="midnightblue" d="M1591.15,-71.9475C1828.64,-42.9446 1892.6,-67.3157 2126,-36 2129.24,-35.5647 2132.55,-35.0787 2135.89,-34.5539"/>
<polygon fill="midnightblue" stroke="midnightblue" points="1590.67,-68.4806 1581.18,-73.1847 1591.53,-75.4274 1590.67,-68.4806"/>
</g>
<!-- Node21 -->
<g id="node21" class="node"><title>Node21</title>
<g id="a_node21"><a xlink:href="../../de/d31/_documentation_2_operator-_console_2_critical_buf_8cpp.html" target="_top" xlink:title="Documentation/Operator\l&#45;Console/CriticalBuf.cpp">
<polygon fill="white" stroke="black" points="2302.5,-1 2302.5,-35 2447.5,-35 2447.5,-1 2302.5,-1"/>
<text text-anchor="start" x="2310.5" y="-21.4" font-family="Helvetica,sans-Serif" font-size="12.00">Documentation/Operator</text>
<text text-anchor="middle" x="2375" y="-8.4" font-family="Helvetica,sans-Serif" font-size="12.00">&#45;Console/CriticalBuf.cpp</text>
</a>
</g>
</g>
<!-- Node19&#45;&gt;Node21 -->
<g id="edge24" class="edge"><title>Node19&#45;&gt;Node21</title>
<path fill="none" stroke="midnightblue" d="M1591.39,-71.939C1902.5,-36.3554 1986.03,-75.4434 2293,-36 2296.03,-35.6109 2299.11,-35.1712 2302.22,-34.6919"/>
<polygon fill="midnightblue" stroke="midnightblue" points="1590.7,-68.4951 1581.17,-73.1248 1591.51,-75.4484 1590.7,-68.4951"/>
</g>
<!-- Node19&#45;&gt;Node22 -->
<g id="edge25" class="edge"><title>Node19&#45;&gt;Node22</title>
<path fill="none" stroke="midnightblue" d="M1404.94,-71.153C1352.38,-61.001 1285.49,-47.9615 1226,-36 1223.01,-35.3981 1219.95,-34.7806 1216.87,-34.154"/>
<polygon fill="midnightblue" stroke="midnightblue" points="1404.44,-74.6203 1414.92,-73.0789 1405.76,-67.7472 1404.44,-74.6203"/>
</g>
<!-- Node23 -->
<g id="node23" class="node"><title>Node23</title>
<g id="a_node23"><a xlink:href="../../d4/d9c/_msg_dialog_8cpp.html" target="_top" xlink:title="Documentation/Operator\l&#45;Console/MsgDialog.cpp">
<polygon fill="white" stroke="black" points="1235,-1 1235,-35 1381,-35 1381,-1 1235,-1"/>
<text text-anchor="start" x="1243" y="-21.4" font-family="Helvetica,sans-Serif" font-size="12.00">Documentation/Operator</text>
<text text-anchor="middle" x="1308" y="-8.4" font-family="Helvetica,sans-Serif" font-size="12.00">&#45;Console/MsgDialog.cpp</text>
</a>
</g>
</g>
<!-- Node19&#45;&gt;Node23 -->
<g id="edge26" class="edge"><title>Node19&#45;&gt;Node23</title>
<path fill="none" stroke="midnightblue" d="M1444.73,-69.3752C1415.38,-58.5621 1379.4,-45.3054 1351.72,-35.1057"/>
<polygon fill="midnightblue" stroke="midnightblue" points="1443.82,-72.7677 1454.41,-72.9406 1446.24,-66.1993 1443.82,-72.7677"/>
</g>
<!-- Node19&#45;&gt;Node24 -->
<g id="edge27" class="edge"><title>Node19&#45;&gt;Node24</title>
<path fill="none" stroke="midnightblue" d="M1591.14,-71.9757C1974.53,-29.7043 2076.21,-76.3338 2456,-36 2459.12,-35.6685 2462.29,-35.2996 2465.49,-34.9001"/>
<polygon fill="midnightblue" stroke="midnightblue" points="1590.72,-68.5014 1581.17,-73.0886 1591.49,-75.4583 1590.72,-68.5014"/>
</g>
<!-- Node25 -->
<g id="node25" class="node"><title>Node25</title>
<g id="a_node25"><a xlink:href="../../dd/dcb/_documentation_2_operator-_console_2_operator_console_dlg_8cpp.html" target="_top" xlink:title="Documentation/Operator\l&#45;Console/OperatorConsoleDlg.cpp">
<polygon fill="white" stroke="black" points="1399.5,-1 1399.5,-35 1596.5,-35 1596.5,-1 1399.5,-1"/>
<text text-anchor="start" x="1407.5" y="-21.4" font-family="Helvetica,sans-Serif" font-size="12.00">Documentation/Operator</text>
<text text-anchor="middle" x="1498" y="-8.4" font-family="Helvetica,sans-Serif" font-size="12.00">&#45;Console/OperatorConsoleDlg.cpp</text>
</a>
</g>
</g>
<!-- Node19&#45;&gt;Node25 -->
<g id="edge28" class="edge"><title>Node19&#45;&gt;Node25</title>
<path fill="none" stroke="midnightblue" d="M1498,-62.5079C1498,-53.3027 1498,-43.2615 1498,-35.1473"/>
<polygon fill="midnightblue" stroke="midnightblue" points="1494.5,-62.7646 1498,-72.7646 1501.5,-62.7647 1494.5,-62.7646"/>
</g>
<!-- Node26 -->
<g id="node26" class="node"><title>Node26</title>
<g id="a_node26"><a xlink:href="../../dd/d14/_documentation_2_operator-_console_2_pass_fail_8cpp.html" target="_top" xlink:title="Documentation/Operator\l&#45;Console/PassFail.cpp">
<polygon fill="white" stroke="black" points="1614.5,-1 1614.5,-35 1759.5,-35 1759.5,-1 1614.5,-1"/>
<text text-anchor="start" x="1622.5" y="-21.4" font-family="Helvetica,sans-Serif" font-size="12.00">Documentation/Operator</text>
<text text-anchor="middle" x="1687" y="-8.4" font-family="Helvetica,sans-Serif" font-size="12.00">&#45;Console/PassFail.cpp</text>
</a>
</g>
</g>
<!-- Node19&#45;&gt;Node26 -->
<g id="edge29" class="edge"><title>Node19&#45;&gt;Node26</title>
<path fill="none" stroke="midnightblue" d="M1550.99,-69.3752C1580.18,-58.5621 1615.98,-45.3054 1643.51,-35.1057"/>
<polygon fill="midnightblue" stroke="midnightblue" points="1549.52,-66.1853 1541.36,-72.9406 1551.95,-72.7495 1549.52,-66.1853"/>
</g>
<!-- Node27 -->
<g id="node27" class="node"><title>Node27</title>
<g id="a_node27"><a xlink:href="../../dd/d4b/_documentation_2_operator-_console_2_password_dialog_8cpp.html" target="_top" xlink:title="Documentation/Operator\l&#45;Console/PasswordDialog.cpp">
<polygon fill="white" stroke="black" points="1778,-1 1778,-35 1954,-35 1954,-1 1778,-1"/>
<text text-anchor="start" x="1786" y="-21.4" font-family="Helvetica,sans-Serif" font-size="12.00">Documentation/Operator</text>
<text text-anchor="middle" x="1866" y="-8.4" font-family="Helvetica,sans-Serif" font-size="12.00">&#45;Console/PasswordDialog.cpp</text>
</a>
</g>
</g>
<!-- Node19&#45;&gt;Node27 -->
<g id="edge30" class="edge"><title>Node19&#45;&gt;Node27</title>
<path fill="none" stroke="midnightblue" d="M1591.05,-71.3004C1649.68,-60.1476 1724.77,-45.8636 1781.66,-35.0422"/>
<polygon fill="midnightblue" stroke="midnightblue" points="1590.22,-67.8963 1581.05,-73.2034 1591.52,-74.773 1590.22,-67.8963"/>
</g>
<!-- Node28 -->
<g id="node28" class="node"><title>Node28</title>
<g id="a_node28"><a xlink:href="../../d3/d68/_documentation_2_operator-_console_2_setup_8cpp.html" target="_top" xlink:title="Documentation/Operator\l&#45;Console/Setup.cpp">
<polygon fill="white" stroke="black" points="1972.5,-1 1972.5,-35 2117.5,-35 2117.5,-1 1972.5,-1"/>
<text text-anchor="start" x="1980.5" y="-21.4" font-family="Helvetica,sans-Serif" font-size="12.00">Documentation/Operator</text>
<text text-anchor="middle" x="2045" y="-8.4" font-family="Helvetica,sans-Serif" font-size="12.00">&#45;Console/Setup.cpp</text>
</a>
</g>
</g>
<!-- Node19&#45;&gt;Node28 -->
<g id="edge31" class="edge"><title>Node19&#45;&gt;Node28</title>
<path fill="none" stroke="midnightblue" d="M1591.22,-71.903C1756.67,-49.3052 1801.55,-60.454 1963,-36 1966.02,-35.5428 1969.09,-35.0462 1972.2,-34.5197"/>
<polygon fill="midnightblue" stroke="midnightblue" points="1590.62,-68.4538 1581.19,-73.2942 1591.58,-75.3874 1590.62,-68.4538"/>
</g>
<!-- Node30&#45;&gt;Node19 -->
<g id="edge35" class="edge"><title>Node30&#45;&gt;Node19</title>
<path fill="none" stroke="midnightblue" d="M1506.14,-134.808C1504.41,-125.521 1502.52,-115.35 1501,-107.147"/>
<polygon fill="midnightblue" stroke="midnightblue" points="1502.72,-135.572 1507.98,-144.765 1509.6,-134.294 1502.72,-135.572"/>
</g>
<!-- Node30&#45;&gt;Node31 -->
<g id="edge36" class="edge"><title>Node30&#45;&gt;Node31</title>
<path fill="none" stroke="midnightblue" d="M1558.83,-140.951C1584.44,-130.217 1615.56,-117.172 1639.58,-107.106"/>
<polygon fill="midnightblue" stroke="midnightblue" points="1557.18,-137.847 1549.31,-144.941 1559.89,-144.303 1557.18,-137.847"/>
</g>
</g>
</svg>
