<?xml version="1.0" encoding="UTF-8" standalone="no"?>
<!DOCTYPE svg PUBLIC "-//W3C//DTD SVG 1.1//EN"
 "http://www.w3.org/Graphics/SVG/1.1/DTD/svg11.dtd">
<!-- Generated by graphviz version 2.34.0 (20130907.0111)
 -->
<!-- Title: imatest_library.h Pages: 1 -->
<svg width="2652pt" height="318pt"
 viewBox="0.00 0.00 2652.00 318.00" xmlns="http://www.w3.org/2000/svg" xmlns:xlink="http://www.w3.org/1999/xlink">
<g id="graph0" class="graph" transform="scale(1 1) rotate(0) translate(4 314)">
<title>imatest_library.h</title>
<polygon fill="white" stroke="white" points="-4,4 -4,-314 2648,-314 2648,4 -4,4"/>
<!-- Node1 -->
<g id="node1" class="node"><title>Node1</title>
<polygon fill="#bfbfbf" stroke="black" points="1579,-288.5 1579,-309.5 1681,-309.5 1681,-288.5 1579,-288.5"/>
<text text-anchor="middle" x="1630" y="-295.9" font-family="Helvetica,sans-Serif" font-size="12.00">imatest_library.h</text>
</g>
<!-- Node2 -->
<g id="node2" class="node"><title>Node2</title>
<g id="a_node2"><a xlink:href="../../d9/da7/_image_test_8h.html" target="_top" xlink:title="ImageTest.h">
<polygon fill="white" stroke="black" points="679,-223.5 679,-244.5 759,-244.5 759,-223.5 679,-223.5"/>
<text text-anchor="middle" x="719" y="-230.9" font-family="Helvetica,sans-Serif" font-size="12.00">ImageTest.h</text>
</a>
</g>
</g>
<!-- Node1&#45;&gt;Node2 -->
<g id="edge1" class="edge"><title>Node1&#45;&gt;Node2</title>
<path fill="none" stroke="midnightblue" d="M1568.75,-293.764C1395.17,-281.76 903.228,-247.74 759.129,-237.775"/>
<polygon fill="midnightblue" stroke="midnightblue" points="1568.52,-297.257 1578.74,-294.455 1569.01,-290.273 1568.52,-297.257"/>
</g>
<!-- Node9 -->
<g id="node9" class="node"><title>Node9</title>
<g id="a_node9"><a xlink:href="../../de/da2/_operator_console_8cpp.html" target="_top" xlink:title="OperatorConsole.cpp">
<polygon fill="white" stroke="black" points="924.5,-7.5 924.5,-28.5 1053.5,-28.5 1053.5,-7.5 924.5,-7.5"/>
<text text-anchor="middle" x="989" y="-14.9" font-family="Helvetica,sans-Serif" font-size="12.00">OperatorConsole.cpp</text>
</a>
</g>
</g>
<!-- Node1&#45;&gt;Node9 -->
<g id="edge43" class="edge"><title>Node1&#45;&gt;Node9</title>
<path fill="none" stroke="midnightblue" d="M1568.71,-291.058C1524.88,-284.62 1465.2,-272.793 1416,-252 1283.16,-195.855 1275.44,-135.611 1146,-72 1106.76,-52.7133 1058.77,-37.645 1026.25,-28.585"/>
<polygon fill="midnightblue" stroke="midnightblue" points="1568.25,-294.529 1578.65,-292.467 1569.23,-287.598 1568.25,-294.529"/>
</g>
<!-- Node14 -->
<g id="node14" class="node"><title>Node14</title>
<g id="a_node14"><a xlink:href="../../dd/d8a/_blemish_test_8cpp.html" target="_top" xlink:title="BlemishTest.cpp">
<polygon fill="white" stroke="black" points="1033,-79.5 1033,-100.5 1137,-100.5 1137,-79.5 1033,-79.5"/>
<text text-anchor="middle" x="1085" y="-86.9" font-family="Helvetica,sans-Serif" font-size="12.00">BlemishTest.cpp</text>
</a>
</g>
</g>
<!-- Node1&#45;&gt;Node14 -->
<g id="edge19" class="edge"><title>Node1&#45;&gt;Node14</title>
<path fill="none" stroke="midnightblue" d="M1568.52,-298.521C1460.25,-298.346 1241.04,-292.778 1178,-252 1120.81,-215.005 1094.72,-129.621 1087.31,-100.746"/>
<polygon fill="midnightblue" stroke="midnightblue" points="1568.64,-302.021 1578.64,-298.522 1568.64,-295.021 1568.64,-302.021"/>
</g>
<!-- Node16 -->
<g id="node16" class="node"><title>Node16</title>
<g id="a_node16"><a xlink:href="../../dc/d7a/_s_f_rplus_test_8cpp.html" target="_top" xlink:title="SFRplusTest.cpp">
<polygon fill="white" stroke="black" points="854.5,-79.5 854.5,-100.5 961.5,-100.5 961.5,-79.5 854.5,-79.5"/>
<text text-anchor="middle" x="908" y="-86.9" font-family="Helvetica,sans-Serif" font-size="12.00">SFRplusTest.cpp</text>
</a>
</g>
</g>
<!-- Node1&#45;&gt;Node16 -->
<g id="edge44" class="edge"><title>Node1&#45;&gt;Node16</title>
<path fill="none" stroke="midnightblue" d="M1568.49,-296.167C1454.62,-292.131 1215.51,-280.466 1138,-252 1041.46,-216.544 947.813,-130.162 917.873,-100.889"/>
<polygon fill="midnightblue" stroke="midnightblue" points="1568.67,-299.675 1578.78,-296.523 1568.91,-292.679 1568.67,-299.675"/>
</g>
<!-- Node17 -->
<g id="node17" class="node"><title>Node17</title>
<g id="a_node17"><a xlink:href="../../d5/dd6/_documentation_2_operator-_console_2_image_test_8h.html" target="_top" xlink:title="Documentation/Operator\l&#45;Console/ImageTest.h">
<polygon fill="white" stroke="black" points="1425.5,-217 1425.5,-251 1570.5,-251 1570.5,-217 1425.5,-217"/>
<text text-anchor="start" x="1433.5" y="-237.4" font-family="Helvetica,sans-Serif" font-size="12.00">Documentation/Operator</text>
<text text-anchor="middle" x="1498" y="-224.4" font-family="Helvetica,sans-Serif" font-size="12.00">&#45;Console/ImageTest.h</text>
</a>
</g>
</g>
<!-- Node1&#45;&gt;Node17 -->
<g id="edge20" class="edge"><title>Node1&#45;&gt;Node17</title>
<path fill="none" stroke="midnightblue" d="M1600.81,-284.067C1580.36,-274.306 1552.97,-261.236 1531.61,-251.04"/>
<polygon fill="midnightblue" stroke="midnightblue" points="1599.42,-287.283 1609.95,-288.432 1602.43,-280.966 1599.42,-287.283"/>
</g>
<!-- Node24 -->
<g id="node24" class="node"><title>Node24</title>
<g id="a_node24"><a xlink:href="../../db/db5/_documentation_2_operator-_console_2_operator_console_8cpp.html" target="_top" xlink:title="Documentation/Operator\l&#45;Console/OperatorConsole.cpp">
<polygon fill="white" stroke="black" points="2465.5,-1 2465.5,-35 2644.5,-35 2644.5,-1 2465.5,-1"/>
<text text-anchor="start" x="2473.5" y="-21.4" font-family="Helvetica,sans-Serif" font-size="12.00">Documentation/Operator</text>
<text text-anchor="middle" x="2555" y="-8.4" font-family="Helvetica,sans-Serif" font-size="12.00">&#45;Console/OperatorConsole.cpp</text>
</a>
</g>
</g>
<!-- Node1&#45;&gt;Node24 -->
<g id="edge40" class="edge"><title>Node1&#45;&gt;Node24</title>
<path fill="none" stroke="midnightblue" d="M1671.3,-285.544C1820.87,-240.431 2334.21,-85.5957 2501.69,-35.0794"/>
<polygon fill="midnightblue" stroke="midnightblue" points="1670.14,-282.238 1661.57,-288.477 1672.16,-288.94 1670.14,-282.238"/>
</g>
<!-- Node29 -->
<g id="node29" class="node"><title>Node29</title>
<g id="a_node29"><a xlink:href="../../dc/d58/_documentation_2_operator-_console_2_blemish_test_8cpp.html" target="_top" xlink:title="Documentation/Operator\l&#45;Console/BlemishTest.cpp">
<polygon fill="white" stroke="black" points="1775,-73 1775,-107 1929,-107 1929,-73 1775,-73"/>
<text text-anchor="start" x="1783" y="-93.4" font-family="Helvetica,sans-Serif" font-size="12.00">Documentation/Operator</text>
<text text-anchor="middle" x="1852" y="-80.4" font-family="Helvetica,sans-Serif" font-size="12.00">&#45;Console/BlemishTest.cpp</text>
</a>
</g>
</g>
<!-- Node1&#45;&gt;Node29 -->
<g id="edge38" class="edge"><title>Node1&#45;&gt;Node29</title>
<path fill="none" stroke="midnightblue" d="M1664.68,-284.328C1682.28,-276.418 1703.4,-265.377 1720,-252 1774.6,-208.002 1822.25,-138.23 1842.13,-107.014"/>
<polygon fill="midnightblue" stroke="midnightblue" points="1663.09,-281.202 1655.31,-288.394 1665.88,-287.623 1663.09,-281.202"/>
</g>
<!-- Node31 -->
<g id="node31" class="node"><title>Node31</title>
<g id="a_node31"><a xlink:href="../../d6/d7f/_documentation_2_operator-_console_2_s_f_rplus_test_8cpp.html" target="_top" xlink:title="Documentation/Operator\l&#45;Console/SFRplusTest.cpp">
<polygon fill="white" stroke="black" points="1599.5,-73 1599.5,-107 1756.5,-107 1756.5,-73 1599.5,-73"/>
<text text-anchor="start" x="1607.5" y="-93.4" font-family="Helvetica,sans-Serif" font-size="12.00">Documentation/Operator</text>
<text text-anchor="middle" x="1678" y="-80.4" font-family="Helvetica,sans-Serif" font-size="12.00">&#45;Console/SFRplusTest.cpp</text>
</a>
</g>
</g>
<!-- Node1&#45;&gt;Node31 -->
<g id="edge41" class="edge"><title>Node1&#45;&gt;Node31</title>
<path fill="none" stroke="midnightblue" d="M1652.71,-282.605C1679.91,-262.635 1724.05,-224.976 1742,-180 1747.93,-165.139 1748.81,-158.479 1742,-144 1734.76,-128.595 1720.59,-116.131 1707.43,-107.17"/>
<polygon fill="midnightblue" stroke="midnightblue" points="1650.63,-279.791 1644.53,-288.454 1654.7,-285.485 1650.63,-279.791"/>
</g>
<!-- Node32 -->
<g id="node32" class="node"><title>Node32</title>
<g id="a_node32"><a xlink:href="../../dc/db7/_documentation_2_operator-_console_2_imatest_lib_acq_8cpp.html" target="_top" xlink:title="Documentation/Operator\l&#45;Console/ImatestLibAcq.cpp">
<polygon fill="white" stroke="black" points="1985,-217 1985,-251 2149,-251 2149,-217 1985,-217"/>
<text text-anchor="start" x="1993" y="-237.4" font-family="Helvetica,sans-Serif" font-size="12.00">Documentation/Operator</text>
<text text-anchor="middle" x="2067" y="-224.4" font-family="Helvetica,sans-Serif" font-size="12.00">&#45;Console/ImatestLibAcq.cpp</text>
</a>
</g>
</g>
<!-- Node1&#45;&gt;Node32 -->
<g id="edge39" class="edge"><title>Node1&#45;&gt;Node32</title>
<path fill="none" stroke="midnightblue" d="M1691.38,-290.493C1759.74,-281.953 1873.45,-267.21 1971,-252 1975.52,-251.296 1980.15,-250.551 1984.82,-249.782"/>
<polygon fill="midnightblue" stroke="midnightblue" points="1690.71,-287.049 1681.22,-291.758 1691.58,-293.995 1690.71,-287.049"/>
</g>
<!-- Node33 -->
<g id="node33" class="node"><title>Node33</title>
<g id="a_node33"><a xlink:href="../../d5/d85/_imatest_lib_acq_8cpp.html" target="_top" xlink:title="ImatestLibAcq.cpp">
<polygon fill="white" stroke="black" points="2167,-223.5 2167,-244.5 2281,-244.5 2281,-223.5 2167,-223.5"/>
<text text-anchor="middle" x="2224" y="-230.9" font-family="Helvetica,sans-Serif" font-size="12.00">ImatestLibAcq.cpp</text>
</a>
</g>
</g>
<!-- Node1&#45;&gt;Node33 -->
<g id="edge42" class="edge"><title>Node1&#45;&gt;Node33</title>
<path fill="none" stroke="midnightblue" d="M1691.44,-295.939C1790.34,-291.886 1990.69,-280.633 2158,-252 2168.96,-250.124 2180.77,-247.333 2191.33,-244.553"/>
<polygon fill="midnightblue" stroke="midnightblue" points="1691.18,-292.447 1681.33,-296.343 1691.46,-299.441 1691.18,-292.447"/>
</g>
<!-- Node3 -->
<g id="node3" class="node"><title>Node3</title>
<g id="a_node3"><a xlink:href="../../dc/d69/_blemish_test_8h.html" target="_top" xlink:title="BlemishTest.h">
<polygon fill="white" stroke="black" points="784,-151.5 784,-172.5 874,-172.5 874,-151.5 784,-151.5"/>
<text text-anchor="middle" x="829" y="-158.9" font-family="Helvetica,sans-Serif" font-size="12.00">BlemishTest.h</text>
</a>
</g>
</g>
<!-- Node2&#45;&gt;Node3 -->
<g id="edge2" class="edge"><title>Node2&#45;&gt;Node3</title>
<path fill="none" stroke="midnightblue" d="M742.887,-217.799C764.445,-204.08 795.506,-184.314 813.835,-172.651"/>
<polygon fill="midnightblue" stroke="midnightblue" points="740.853,-214.945 734.295,-223.267 744.611,-220.851 740.853,-214.945"/>
</g>
<!-- Node4 -->
<g id="node4" class="node"><title>Node4</title>
<g id="a_node4"><a xlink:href="../../da/de6/_operator_console_8h.html" target="_top" xlink:title="OperatorConsole.h">
<polygon fill="white" stroke="black" points="586,-79.5 586,-100.5 702,-100.5 702,-79.5 586,-79.5"/>
<text text-anchor="middle" x="644" y="-86.9" font-family="Helvetica,sans-Serif" font-size="12.00">OperatorConsole.h</text>
</a>
</g>
</g>
<!-- Node2&#45;&gt;Node4 -->
<g id="edge14" class="edge"><title>Node2&#45;&gt;Node4</title>
<path fill="none" stroke="midnightblue" d="M696.601,-217.15C684.851,-207.678 671.227,-194.652 663,-180 648.38,-153.962 644.991,-117.861 644.219,-100.747"/>
<polygon fill="midnightblue" stroke="midnightblue" points="694.659,-220.073 704.721,-223.392 698.925,-214.523 694.659,-220.073"/>
</g>
<!-- Node7 -->
<g id="node7" class="node"><title>Node7</title>
<g id="a_node7"><a xlink:href="../../d8/d53/_image_test_8cpp.html" target="_top" xlink:title="ImageTest.cpp">
<polygon fill="white" stroke="black" points="0,-7.5 0,-28.5 94,-28.5 94,-7.5 0,-7.5"/>
<text text-anchor="middle" x="47" y="-14.9" font-family="Helvetica,sans-Serif" font-size="12.00">ImageTest.cpp</text>
</a>
</g>
</g>
<!-- Node2&#45;&gt;Node7 -->
<g id="edge18" class="edge"><title>Node2&#45;&gt;Node7</title>
<path fill="none" stroke="midnightblue" d="M679.055,-220.279C556.168,-181.146 185.516,-63.1109 77.0968,-28.5844"/>
<polygon fill="midnightblue" stroke="midnightblue" points="678.229,-223.69 688.82,-223.389 680.354,-217.02 678.229,-223.69"/>
</g>
<!-- Node15 -->
<g id="node15" class="node"><title>Node15</title>
<g id="a_node15"><a xlink:href="../../d2/d9d/_s_f_rplus_test_8h.html" target="_top" xlink:title="SFRplusTest.h">
<polygon fill="white" stroke="black" points="672.5,-151.5 672.5,-172.5 765.5,-172.5 765.5,-151.5 672.5,-151.5"/>
<text text-anchor="middle" x="719" y="-158.9" font-family="Helvetica,sans-Serif" font-size="12.00">SFRplusTest.h</text>
</a>
</g>
</g>
<!-- Node2&#45;&gt;Node15 -->
<g id="edge15" class="edge"><title>Node2&#45;&gt;Node15</title>
<path fill="none" stroke="midnightblue" d="M719,-213.199C719,-199.938 719,-183.065 719,-172.651"/>
<polygon fill="midnightblue" stroke="midnightblue" points="715.5,-213.267 719,-223.267 722.5,-213.267 715.5,-213.267"/>
</g>
<!-- Node3&#45;&gt;Node4 -->
<g id="edge3" class="edge"><title>Node3&#45;&gt;Node4</title>
<path fill="none" stroke="midnightblue" d="M793.964,-147.743C757.599,-133.984 701.613,-112.8 669.326,-100.583"/>
<polygon fill="midnightblue" stroke="midnightblue" points="793.073,-151.148 803.664,-151.414 795.55,-144.601 793.073,-151.148"/>
</g>
<!-- Node3&#45;&gt;Node14 -->
<g id="edge13" class="edge"><title>Node3&#45;&gt;Node14</title>
<path fill="none" stroke="midnightblue" d="M873.7,-148.777C923.815,-135.074 1004.05,-113.136 1049.87,-100.605"/>
<polygon fill="midnightblue" stroke="midnightblue" points="872.514,-145.473 863.792,-151.487 874.361,-152.225 872.514,-145.473"/>
</g>
<!-- Node5 -->
<g id="node5" class="node"><title>Node5</title>
<g id="a_node5"><a xlink:href="../../d3/d22/_app_thread_8cpp.html" target="_top" xlink:title="AppThread.cpp">
<polygon fill="white" stroke="black" points="697,-7.5 697,-28.5 795,-28.5 795,-7.5 697,-7.5"/>
<text text-anchor="middle" x="746" y="-14.9" font-family="Helvetica,sans-Serif" font-size="12.00">AppThread.cpp</text>
</a>
</g>
</g>
<!-- Node4&#45;&gt;Node5 -->
<g id="edge4" class="edge"><title>Node4&#45;&gt;Node5</title>
<path fill="none" stroke="midnightblue" d="M666.688,-73.43C686.653,-59.728 715.094,-40.2102 731.938,-28.6505"/>
<polygon fill="midnightblue" stroke="midnightblue" points="664.447,-70.7225 658.183,-79.2668 668.408,-76.4941 664.447,-70.7225"/>
</g>
<!-- Node6 -->
<g id="node6" class="node"><title>Node6</title>
<g id="a_node6"><a xlink:href="../../d6/df7/_critical_buf_8cpp.html" target="_top" xlink:title="CriticalBuf.cpp">
<polygon fill="white" stroke="black" points="813.5,-7.5 813.5,-28.5 906.5,-28.5 906.5,-7.5 813.5,-7.5"/>
<text text-anchor="middle" x="860" y="-14.9" font-family="Helvetica,sans-Serif" font-size="12.00">CriticalBuf.cpp</text>
</a>
</g>
</g>
<!-- Node4&#45;&gt;Node6 -->
<g id="edge5" class="edge"><title>Node4&#45;&gt;Node6</title>
<path fill="none" stroke="midnightblue" d="M683.285,-76.2687C725.684,-62.5282 792.249,-40.9562 830.43,-28.5827"/>
<polygon fill="midnightblue" stroke="midnightblue" points="682.015,-73.0011 673.581,-79.4136 684.173,-79.6601 682.015,-73.0011"/>
</g>
<!-- Node4&#45;&gt;Node7 -->
<g id="edge6" class="edge"><title>Node4&#45;&gt;Node7</title>
<path fill="none" stroke="midnightblue" d="M575.514,-86.6132C472.219,-82.0435 270.793,-69.3487 103,-36 93.6325,-34.1382 83.594,-31.3516 74.6402,-28.5704"/>
<polygon fill="midnightblue" stroke="midnightblue" points="575.663,-90.1227 585.804,-87.0558 575.964,-83.1292 575.663,-90.1227"/>
</g>
<!-- Node8 -->
<g id="node8" class="node"><title>Node8</title>
<g id="a_node8"><a xlink:href="../../df/d0a/main_8cpp.html" target="_top" xlink:title="main.cpp">
<polygon fill="white" stroke="black" points="112.5,-7.5 112.5,-28.5 177.5,-28.5 177.5,-7.5 112.5,-7.5"/>
<text text-anchor="middle" x="145" y="-14.9" font-family="Helvetica,sans-Serif" font-size="12.00">main.cpp</text>
</a>
</g>
</g>
<!-- Node4&#45;&gt;Node8 -->
<g id="edge7" class="edge"><title>Node4&#45;&gt;Node8</title>
<path fill="none" stroke="midnightblue" d="M575.815,-87.0006C485.378,-83.0205 321.396,-71.1691 186,-36 178.989,-34.179 171.599,-31.4032 165.054,-28.6194"/>
<polygon fill="midnightblue" stroke="midnightblue" points="575.799,-90.5029 585.938,-87.4266 576.094,-83.5091 575.799,-90.5029"/>
</g>
<!-- Node4&#45;&gt;Node9 -->
<g id="edge8" class="edge"><title>Node4&#45;&gt;Node9</title>
<path fill="none" stroke="midnightblue" d="M705.235,-77.6156C760.237,-67.2492 843.155,-51.2736 915,-36 925.96,-33.6701 937.8,-31.0132 948.727,-28.5034"/>
<polygon fill="midnightblue" stroke="midnightblue" points="704.479,-74.1962 695.298,-79.4845 705.773,-81.0756 704.479,-74.1962"/>
</g>
<!-- Node10 -->
<g id="node10" class="node"><title>Node10</title>
<g id="a_node10"><a xlink:href="../../d8/d29/_operator_console_dlg_8cpp.html" target="_top" xlink:title="OperatorConsoleDlg.cpp">
<polygon fill="white" stroke="black" points="195.5,-7.5 195.5,-28.5 342.5,-28.5 342.5,-7.5 195.5,-7.5"/>
<text text-anchor="middle" x="269" y="-14.9" font-family="Helvetica,sans-Serif" font-size="12.00">OperatorConsoleDlg.cpp</text>
</a>
</g>
</g>
<!-- Node4&#45;&gt;Node10 -->
<g id="edge9" class="edge"><title>Node4&#45;&gt;Node10</title>
<path fill="none" stroke="midnightblue" d="M579.619,-77.7427C520.401,-67.2866 430.188,-51.101 352,-36 339.869,-33.657 326.762,-31.0213 314.627,-28.5372"/>
<polygon fill="midnightblue" stroke="midnightblue" points="579.121,-81.2089 589.577,-79.4986 580.336,-74.3152 579.121,-81.2089"/>
</g>
<!-- Node11 -->
<g id="node11" class="node"><title>Node11</title>
<g id="a_node11"><a xlink:href="../../d0/d57/_pass_fail_8cpp.html" target="_top" xlink:title="PassFail.cpp">
<polygon fill="white" stroke="black" points="361,-7.5 361,-28.5 447,-28.5 447,-7.5 361,-7.5"/>
<text text-anchor="middle" x="404" y="-14.9" font-family="Helvetica,sans-Serif" font-size="12.00">PassFail.cpp</text>
</a>
</g>
</g>
<!-- Node4&#45;&gt;Node11 -->
<g id="edge10" class="edge"><title>Node4&#45;&gt;Node11</title>
<path fill="none" stroke="midnightblue" d="M598.742,-76.8033C560.566,-66.381 504.543,-50.7707 456,-36 448.367,-33.6775 440.145,-31.0488 432.542,-28.565"/>
<polygon fill="midnightblue" stroke="midnightblue" points="597.962,-80.2184 608.531,-79.4688 599.801,-73.4643 597.962,-80.2184"/>
</g>
<!-- Node12 -->
<g id="node12" class="node"><title>Node12</title>
<g id="a_node12"><a xlink:href="../../da/d46/_password_dialog_8cpp.html" target="_top" xlink:title="PasswordDialog.cpp">
<polygon fill="white" stroke="black" points="465,-7.5 465,-28.5 591,-28.5 591,-7.5 465,-7.5"/>
<text text-anchor="middle" x="528" y="-14.9" font-family="Helvetica,sans-Serif" font-size="12.00">PasswordDialog.cpp</text>
</a>
</g>
</g>
<!-- Node4&#45;&gt;Node12 -->
<g id="edge11" class="edge"><title>Node4&#45;&gt;Node12</title>
<path fill="none" stroke="midnightblue" d="M619.113,-73.9823C596.369,-60.257 563.407,-40.3665 543.992,-28.6505"/>
<polygon fill="midnightblue" stroke="midnightblue" points="617.5,-77.0968 627.871,-79.2668 621.117,-71.1034 617.5,-77.0968"/>
</g>
<!-- Node13 -->
<g id="node13" class="node"><title>Node13</title>
<g id="a_node13"><a xlink:href="../../d5/d27/_setup_8cpp.html" target="_top" xlink:title="Setup.cpp">
<polygon fill="white" stroke="black" points="609,-7.5 609,-28.5 679,-28.5 679,-7.5 609,-7.5"/>
<text text-anchor="middle" x="644" y="-14.9" font-family="Helvetica,sans-Serif" font-size="12.00">Setup.cpp</text>
</a>
</g>
</g>
<!-- Node4&#45;&gt;Node13 -->
<g id="edge12" class="edge"><title>Node4&#45;&gt;Node13</title>
<path fill="none" stroke="midnightblue" d="M644,-69.1985C644,-55.9378 644,-39.0647 644,-28.6505"/>
<polygon fill="midnightblue" stroke="midnightblue" points="640.5,-69.2668 644,-79.2668 647.5,-69.2668 640.5,-69.2668"/>
</g>
<!-- Node15&#45;&gt;Node4 -->
<g id="edge16" class="edge"><title>Node15&#45;&gt;Node4</title>
<path fill="none" stroke="midnightblue" d="M701.114,-144.307C686.513,-130.679 666.391,-111.898 654.34,-100.651"/>
<polygon fill="midnightblue" stroke="midnightblue" points="698.873,-147.002 708.572,-151.267 703.649,-141.885 698.873,-147.002"/>
</g>
<!-- Node15&#45;&gt;Node16 -->
<g id="edge17" class="edge"><title>Node15&#45;&gt;Node16</title>
<path fill="none" stroke="midnightblue" d="M754.318,-147.919C791.455,-134.165 849,-112.852 882.127,-100.583"/>
<polygon fill="midnightblue" stroke="midnightblue" points="753.045,-144.658 744.883,-151.414 755.476,-151.222 753.045,-144.658"/>
</g>
<!-- Node18 -->
<g id="node18" class="node"><title>Node18</title>
<g id="a_node18"><a xlink:href="../../da/df8/_documentation_2_operator-_console_2_blemish_test_8h.html" target="_top" xlink:title="Documentation/Operator\l&#45;Console/BlemishTest.h">
<polygon fill="white" stroke="black" points="1588.5,-145 1588.5,-179 1733.5,-179 1733.5,-145 1588.5,-145"/>
<text text-anchor="start" x="1596.5" y="-165.4" font-family="Helvetica,sans-Serif" font-size="12.00">Documentation/Operator</text>
<text text-anchor="middle" x="1661" y="-152.4" font-family="Helvetica,sans-Serif" font-size="12.00">&#45;Console/BlemishTest.h</text>
</a>
</g>
</g>
<!-- Node17&#45;&gt;Node18 -->
<g id="edge21" class="edge"><title>Node17&#45;&gt;Node18</title>
<path fill="none" stroke="midnightblue" d="M1544.69,-212.951C1569.68,-202.217 1600.06,-189.172 1623.5,-179.106"/>
<polygon fill="midnightblue" stroke="midnightblue" points="1543.2,-209.779 1535.4,-216.941 1545.97,-216.211 1543.2,-209.779"/>
</g>
<!-- Node19 -->
<g id="node19" class="node"><title>Node19</title>
<g id="a_node19"><a xlink:href="../../da/d65/_documentation_2_operator-_console_2_operator_console_8h.html" target="_top" xlink:title="Documentation/Operator\l&#45;Console/OperatorConsole.h">
<polygon fill="white" stroke="black" points="1415,-73 1415,-107 1581,-107 1581,-73 1415,-73"/>
<text text-anchor="start" x="1423" y="-93.4" font-family="Helvetica,sans-Serif" font-size="12.00">Documentation/Operator</text>
<text text-anchor="middle" x="1498" y="-80.4" font-family="Helvetica,sans-Serif" font-size="12.00">&#45;Console/OperatorConsole.h</text>
</a>
</g>
</g>
<!-- Node17&#45;&gt;Node19 -->
<g id="edge33" class="edge"><title>Node17&#45;&gt;Node19</title>
<path fill="none" stroke="midnightblue" d="M1448.21,-211.78C1435.42,-203.781 1423.24,-193.306 1416,-180 1408.35,-165.947 1408.35,-158.053 1416,-144 1424.91,-127.623 1441.31,-115.535 1457.11,-107.073"/>
<polygon fill="midnightblue" stroke="midnightblue" points="1446.7,-214.949 1457.11,-216.927 1450.2,-208.89 1446.7,-214.949"/>
</g>
<!-- Node22 -->
<g id="node22" class="node"><title>Node22</title>
<g id="a_node22"><a xlink:href="../../da/df9/_documentation_2_operator-_console_2_image_test_8cpp.html" target="_top" xlink:title="Documentation/Operator\l&#45;Console/ImageTest.cpp">
<polygon fill="white" stroke="black" points="1071.5,-1 1071.5,-35 1216.5,-35 1216.5,-1 1071.5,-1"/>
<text text-anchor="start" x="1079.5" y="-21.4" font-family="Helvetica,sans-Serif" font-size="12.00">Documentation/Operator</text>
<text text-anchor="middle" x="1144" y="-8.4" font-family="Helvetica,sans-Serif" font-size="12.00">&#45;Console/ImageTest.cpp</text>
</a>
</g>
</g>
<!-- Node17&#45;&gt;Node22 -->
<g id="edge37" class="edge"><title>Node17&#45;&gt;Node22</title>
<path fill="none" stroke="midnightblue" d="M1461.17,-211.795C1444.57,-202.173 1424.75,-190.599 1407,-180 1319.67,-127.847 1217.1,-64.4228 1170.02,-35.1864"/>
<polygon fill="midnightblue" stroke="midnightblue" points="1459.62,-214.941 1470.03,-216.92 1463.13,-208.883 1459.62,-214.941"/>
</g>
<!-- Node30 -->
<g id="node30" class="node"><title>Node30</title>
<g id="a_node30"><a xlink:href="../../d5/d79/_documentation_2_operator-_console_2_s_f_rplus_test_8h.html" target="_top" xlink:title="Documentation/Operator\l&#45;Console/SFRplusTest.h">
<polygon fill="white" stroke="black" points="1425.5,-145 1425.5,-179 1570.5,-179 1570.5,-145 1425.5,-145"/>
<text text-anchor="start" x="1433.5" y="-165.4" font-family="Helvetica,sans-Serif" font-size="12.00">Documentation/Operator</text>
<text text-anchor="middle" x="1498" y="-152.4" font-family="Helvetica,sans-Serif" font-size="12.00">&#45;Console/SFRplusTest.h</text>
</a>
</g>
</g>
<!-- Node17&#45;&gt;Node30 -->
<g id="edge34" class="edge"><title>Node17&#45;&gt;Node30</title>
<path fill="none" stroke="midnightblue" d="M1498,-206.508C1498,-197.303 1498,-187.262 1498,-179.147"/>
<polygon fill="midnightblue" stroke="midnightblue" points="1494.5,-206.765 1498,-216.765 1501.5,-206.765 1494.5,-206.765"/>
</g>
<!-- Node18&#45;&gt;Node19 -->
<g id="edge22" class="edge"><title>Node18&#45;&gt;Node19</title>
<path fill="none" stroke="midnightblue" d="M1614.31,-140.951C1589.32,-130.217 1558.94,-117.172 1535.5,-107.106"/>
<polygon fill="midnightblue" stroke="midnightblue" points="1613.03,-144.211 1623.6,-144.941 1615.8,-137.779 1613.03,-144.211"/>
</g>
<!-- Node18&#45;&gt;Node29 -->
<g id="edge32" class="edge"><title>Node18&#45;&gt;Node29</title>
<path fill="none" stroke="midnightblue" d="M1714.55,-141.375C1744.05,-130.562 1780.22,-117.305 1808.05,-107.106"/>
<polygon fill="midnightblue" stroke="midnightblue" points="1713,-138.213 1704.82,-144.941 1715.41,-144.786 1713,-138.213"/>
</g>
<!-- Node20 -->
<g id="node20" class="node"><title>Node20</title>
<g id="a_node20"><a xlink:href="../../d7/d4b/_documentation_2_operator-_console_2_app_thread_8cpp.html" target="_top" xlink:title="Documentation/Operator\l&#45;Console/AppThread.cpp">
<polygon fill="white" stroke="black" points="2136,-1 2136,-35 2284,-35 2284,-1 2136,-1"/>
<text text-anchor="start" x="2144" y="-21.4" font-family="Helvetica,sans-Serif" font-size="12.00">Documentation/Operator</text>
<text text-anchor="middle" x="2210" y="-8.4" font-family="Helvetica,sans-Serif" font-size="12.00">&#45;Console/AppThread.cpp</text>
</a>
</g>
</g>
<!-- Node19&#45;&gt;Node20 -->
<g id="edge23" class="edge"><title>Node19&#45;&gt;Node20</title>
<path fill="none" stroke="midnightblue" d="M1591.15,-71.9475C1828.64,-42.9446 1892.6,-67.3157 2126,-36 2129.24,-35.5647 2132.55,-35.0787 2135.89,-34.5539"/>
<polygon fill="midnightblue" stroke="midnightblue" points="1590.67,-68.4806 1581.18,-73.1847 1591.53,-75.4274 1590.67,-68.4806"/>
</g>
<!-- Node21 -->
<g id="node21" class="node"><title>Node21</title>
<g id="a_node21"><a xlink:href="../../de/d31/_documentation_2_operator-_console_2_critical_buf_8cpp.html" target="_top" xlink:title="Documentation/Operator\l&#45;Console/CriticalBuf.cpp">
<polygon fill="white" stroke="black" points="2302.5,-1 2302.5,-35 2447.5,-35 2447.5,-1 2302.5,-1"/>
<text text-anchor="start" x="2310.5" y="-21.4" font-family="Helvetica,sans-Serif" font-size="12.00">Documentation/Operator</text>
<text text-anchor="middle" x="2375" y="-8.4" font-family="Helvetica,sans-Serif" font-size="12.00">&#45;Console/CriticalBuf.cpp</text>
</a>
</g>
</g>
<!-- Node19&#45;&gt;Node21 -->
<g id="edge24" class="edge"><title>Node19&#45;&gt;Node21</title>
<path fill="none" stroke="midnightblue" d="M1591.39,-71.939C1902.5,-36.3554 1986.03,-75.4434 2293,-36 2296.03,-35.6109 2299.11,-35.1712 2302.22,-34.6919"/>
<polygon fill="midnightblue" stroke="midnightblue" points="1590.7,-68.4951 1581.17,-73.1248 1591.51,-75.4484 1590.7,-68.4951"/>
</g>
<!-- Node19&#45;&gt;Node22 -->
<g id="edge25" class="edge"><title>Node19&#45;&gt;Node22</title>
<path fill="none" stroke="midnightblue" d="M1404.94,-71.153C1352.38,-61.001 1285.49,-47.9615 1226,-36 1223.01,-35.3981 1219.95,-34.7806 1216.87,-34.154"/>
<polygon fill="midnightblue" stroke="midnightblue" points="1404.44,-74.6203 1414.92,-73.0789 1405.76,-67.7472 1404.44,-74.6203"/>
</g>
<!-- Node23 -->
<g id="node23" class="node"><title>Node23</title>
<g id="a_node23"><a xlink:href="../../d4/d9c/_msg_dialog_8cpp.html" target="_top" xlink:title="Documentation/Operator\l&#45;Console/MsgDialog.cpp">
<polygon fill="white" stroke="black" points="1235,-1 1235,-35 1381,-35 1381,-1 1235,-1"/>
<text text-anchor="start" x="1243" y="-21.4" font-family="Helvetica,sans-Serif" font-size="12.00">Documentation/Operator</text>
<text text-anchor="middle" x="1308" y="-8.4" font-family="Helvetica,sans-Serif" font-size="12.00">&#45;Console/MsgDialog.cpp</text>
</a>
</g>
</g>
<!-- Node19&#45;&gt;Node23 -->
<g id="edge26" class="edge"><title>Node19&#45;&gt;Node23</title>
<path fill="none" stroke="midnightblue" d="M1444.73,-69.3752C1415.38,-58.5621 1379.4,-45.3054 1351.72,-35.1057"/>
<polygon fill="midnightblue" stroke="midnightblue" points="1443.82,-72.7677 1454.41,-72.9406 1446.24,-66.1993 1443.82,-72.7677"/>
</g>
<!-- Node19&#45;&gt;Node24 -->
<g id="edge27" class="edge"><title>Node19&#45;&gt;Node24</title>
<path fill="none" stroke="midnightblue" d="M1591.14,-71.9757C1974.53,-29.7043 2076.21,-76.3338 2456,-36 2459.12,-35.6685 2462.29,-35.2996 2465.49,-34.9001"/>
<polygon fill="midnightblue" stroke="midnightblue" points="1590.72,-68.5014 1581.17,-73.0886 1591.49,-75.4583 1590.72,-68.5014"/>
</g>
<!-- Node25 -->
<g id="node25" class="node"><title>Node25</title>
<g id="a_node25"><a xlink:href="../../dd/dcb/_documentation_2_operator-_console_2_operator_console_dlg_8cpp.html" target="_top" xlink:title="Documentation/Operator\l&#45;Console/OperatorConsoleDlg.cpp">
<polygon fill="white" stroke="black" points="1399.5,-1 1399.5,-35 1596.5,-35 1596.5,-1 1399.5,-1"/>
<text text-anchor="start" x="1407.5" y="-21.4" font-family="Helvetica,sans-Serif" font-size="12.00">Documentation/Operator</text>
<text text-anchor="middle" x="1498" y="-8.4" font-family="Helvetica,sans-Serif" font-size="12.00">&#45;Console/OperatorConsoleDlg.cpp</text>
</a>
</g>
</g>
<!-- Node19&#45;&gt;Node25 -->
<g id="edge28" class="edge"><title>Node19&#45;&gt;Node25</title>
<path fill="none" stroke="midnightblue" d="M1498,-62.5079C1498,-53.3027 1498,-43.2615 1498,-35.1473"/>
<polygon fill="midnightblue" stroke="midnightblue" points="1494.5,-62.7646 1498,-72.7646 1501.5,-62.7647 1494.5,-62.7646"/>
</g>
<!-- Node26 -->
<g id="node26" class="node"><title>Node26</title>
<g id="a_node26"><a xlink:href="../../dd/d14/_documentation_2_operator-_console_2_pass_fail_8cpp.html" target="_top" xlink:title="Documentation/Operator\l&#45;Console/PassFail.cpp">
<polygon fill="white" stroke="black" points="1614.5,-1 1614.5,-35 1759.5,-35 1759.5,-1 1614.5,-1"/>
<text text-anchor="start" x="1622.5" y="-21.4" font-family="Helvetica,sans-Serif" font-size="12.00">Documentation/Operator</text>
<text text-anchor="middle" x="1687" y="-8.4" font-family="Helvetica,sans-Serif" font-size="12.00">&#45;Console/PassFail.cpp</text>
</a>
</g>
</g>
<!-- Node19&#45;&gt;Node26 -->
<g id="edge29" class="edge"><title>Node19&#45;&gt;Node26</title>
<path fill="none" stroke="midnightblue" d="M1550.99,-69.3752C1580.18,-58.5621 1615.98,-45.3054 1643.51,-35.1057"/>
<polygon fill="midnightblue" stroke="midnightblue" points="1549.52,-66.1853 1541.36,-72.9406 1551.95,-72.7495 1549.52,-66.1853"/>
</g>
<!-- Node27 -->
<g id="node27" class="node"><title>Node27</title>
<g id="a_node27"><a xlink:href="../../dd/d4b/_documentation_2_operator-_console_2_password_dialog_8cpp.html" target="_top" xlink:title="Documentation/Operator\l&#45;Console/PasswordDialog.cpp">
<polygon fill="white" stroke="black" points="1778,-1 1778,-35 1954,-35 1954,-1 1778,-1"/>
<text text-anchor="start" x="1786" y="-21.4" font-family="Helvetica,sans-Serif" font-size="12.00">Documentation/Operator</text>
<text text-anchor="middle" x="1866" y="-8.4" font-family="Helvetica,sans-Serif" font-size="12.00">&#45;Console/PasswordDialog.cpp</text>
</a>
</g>
</g>
<!-- Node19&#45;&gt;Node27 -->
<g id="edge30" class="edge"><title>Node19&#45;&gt;Node27</title>
<path fill="none" stroke="midnightblue" d="M1591.05,-71.3004C1649.68,-60.1476 1724.77,-45.8636 1781.66,-35.0422"/>
<polygon fill="midnightblue" stroke="midnightblue" points="1590.22,-67.8963 1581.05,-73.2034 1591.52,-74.773 1590.22,-67.8963"/>
</g>
<!-- Node28 -->
<g id="node28" class="node"><title>Node28</title>
<g id="a_node28"><a xlink:href="../../d3/d68/_documentation_2_operator-_console_2_setup_8cpp.html" target="_top" xlink:title="Documentation/Operator\l&#45;Console/Setup.cpp">
<polygon fill="white" stroke="black" points="1972.5,-1 1972.5,-35 2117.5,-35 2117.5,-1 1972.5,-1"/>
<text text-anchor="start" x="1980.5" y="-21.4" font-family="Helvetica,sans-Serif" font-size="12.00">Documentation/Operator</text>
<text text-anchor="middle" x="2045" y="-8.4" font-family="Helvetica,sans-Serif" font-size="12.00">&#45;Console/Setup.cpp</text>
</a>
</g>
</g>
<!-- Node19&#45;&gt;Node28 -->
<g id="edge31" class="edge"><title>Node19&#45;&gt;Node28</title>
<path fill="none" stroke="midnightblue" d="M1591.22,-71.903C1756.67,-49.3052 1801.55,-60.454 1963,-36 1966.02,-35.5428 1969.09,-35.0462 1972.2,-34.5197"/>
<polygon fill="midnightblue" stroke="midnightblue" points="1590.62,-68.4538 1581.19,-73.2942 1591.58,-75.3874 1590.62,-68.4538"/>
</g>
<!-- Node30&#45;&gt;Node19 -->
<g id="edge35" class="edge"><title>Node30&#45;&gt;Node19</title>
<path fill="none" stroke="midnightblue" d="M1498,-134.508C1498,-125.303 1498,-115.262 1498,-107.147"/>
<polygon fill="midnightblue" stroke="midnightblue" points="1494.5,-134.765 1498,-144.765 1501.5,-134.765 1494.5,-134.765"/>
</g>
<!-- Node30&#45;&gt;Node31 -->
<g id="edge36" class="edge"><title>Node30&#45;&gt;Node31</title>
<path fill="none" stroke="midnightblue" d="M1548.83,-141.234C1576.57,-130.447 1610.47,-117.261 1636.59,-107.106"/>
<polygon fill="midnightblue" stroke="midnightblue" points="1547.35,-138.054 1539.3,-144.941 1549.88,-144.578 1547.35,-138.054"/>
</g>
</g>
</svg>
