<?xml version="1.0" encoding="UTF-8" standalone="no"?>
<!DOCTYPE svg PUBLIC "-//W3C//DTD SVG 1.1//EN"
 "http://www.w3.org/Graphics/SVG/1.1/DTD/svg11.dtd">
<!-- Generated by graphviz version 2.34.0 (20130907.0111)
 -->
<!-- Title: JSON/JSONPreparse.h Pages: 1 -->
<svg width="694pt" height="494pt"
 viewBox="0.00 0.00 693.70 494.00" xmlns="http://www.w3.org/2000/svg" xmlns:xlink="http://www.w3.org/1999/xlink">
<g id="graph0" class="graph" transform="scale(1 1) rotate(0) translate(4 490)">
<title>JSON/JSONPreparse.h</title>
<polygon fill="white" stroke="white" points="-4,4 -4,-490 689.697,-490 689.697,4 -4,4"/>
<!-- Node1 -->
<g id="node1" class="node"><title>Node1</title>
<polygon fill="#bfbfbf" stroke="black" points="209.697,-464.5 209.697,-485.5 349.697,-485.5 349.697,-464.5 209.697,-464.5"/>
<text text-anchor="middle" x="279.697" y="-471.9" font-family="Helvetica,sans-Serif" font-size="12.00">JSON/JSONPreparse.h</text>
</g>
<!-- Node2 -->
<g id="node2" class="node"><title>Node2</title>
<g id="a_node2"><a xlink:href="../../d6/d82/_j_s_o_n_debug_8h.html" target="_top" xlink:title="JSONDebug.h">
<polygon fill="white" stroke="black" points="396.697,-174.5 396.697,-195.5 488.697,-195.5 488.697,-174.5 396.697,-174.5"/>
<text text-anchor="middle" x="442.697" y="-181.9" font-family="Helvetica,sans-Serif" font-size="12.00">JSONDebug.h</text>
</a>
</g>
</g>
<!-- Node1&#45;&gt;Node2 -->
<g id="edge1" class="edge"><title>Node1&#45;&gt;Node2</title>
<path fill="none" stroke="midnightblue" d="M266.694,-464.375C231.325,-436.984 138.506,-356.3 176.697,-290 218.632,-217.2 321.579,-195.209 386.407,-188.66"/>
<polygon fill="midnightblue" stroke="midnightblue" points="386.83,-192.136 396.469,-187.736 386.19,-185.165 386.83,-192.136"/>
</g>
<!-- Node10 -->
<g id="node10" class="node"><title>Node10</title>
<g id="a_node10"><a xlink:href="../../d8/dcb/_j_s_o_n_node_8h.html" target="_top" xlink:title="JSONNode.h">
<polygon fill="white" stroke="black" points="396.697,-406.5 396.697,-427.5 482.697,-427.5 482.697,-406.5 396.697,-406.5"/>
<text text-anchor="middle" x="439.697" y="-413.9" font-family="Helvetica,sans-Serif" font-size="12.00">JSONNode.h</text>
</a>
</g>
</g>
<!-- Node1&#45;&gt;Node10 -->
<g id="edge10" class="edge"><title>Node1&#45;&gt;Node10</title>
<path fill="none" stroke="midnightblue" d="M307.202,-464.373C333.577,-455.142 373.582,-441.14 402.733,-430.937"/>
<polygon fill="midnightblue" stroke="midnightblue" points="404.268,-434.108 412.551,-427.501 401.956,-427.501 404.268,-434.108"/>
</g>
<!-- Node3 -->
<g id="node3" class="node"><title>Node3</title>
<g id="a_node3"><a xlink:href="../../dd/d47/_j_s_o_n_defs_8h.html" target="_top" xlink:title="JSONDefs.h">
<polygon fill="white" stroke="black" points="368.697,-116.5 368.697,-137.5 450.697,-137.5 450.697,-116.5 368.697,-116.5"/>
<text text-anchor="middle" x="409.697" y="-123.9" font-family="Helvetica,sans-Serif" font-size="12.00">JSONDefs.h</text>
</a>
</g>
</g>
<!-- Node2&#45;&gt;Node3 -->
<g id="edge2" class="edge"><title>Node2&#45;&gt;Node3</title>
<path fill="none" stroke="midnightblue" d="M436.949,-174.246C432.453,-166.617 426.072,-155.788 420.614,-146.527"/>
<polygon fill="midnightblue" stroke="midnightblue" points="423.471,-144.481 415.379,-137.643 417.441,-148.035 423.471,-144.481"/>
</g>
<!-- Node4 -->
<g id="node4" class="node"><title>Node4</title>
<g id="a_node4"><a xlink:href="../../dc/d13/_j_s_o_n_options_8h.html" target="_top" xlink:title="..\\JSONOptions.h">
<polygon fill="white" stroke="black" points="451.197,-0.5 451.197,-21.5 558.197,-21.5 558.197,-0.5 451.197,-0.5"/>
<text text-anchor="middle" x="504.697" y="-7.9" font-family="Helvetica,sans-Serif" font-size="12.00">..\JSONOptions.h</text>
</a>
</g>
</g>
<!-- Node3&#45;&gt;Node4 -->
<g id="edge3" class="edge"><title>Node3&#45;&gt;Node4</title>
<path fill="none" stroke="midnightblue" d="M434.644,-116.359C451.091,-108.798 471.884,-96.7381 484.697,-80 495.426,-65.9842 500.411,-46.3267 502.72,-31.7498"/>
<polygon fill="midnightblue" stroke="midnightblue" points="506.199,-32.138 504.015,-21.7706 499.257,-31.2369 506.199,-32.138"/>
</g>
<!-- Node5 -->
<g id="node5" class="node"><title>Node5</title>
<g id="a_node5"><a xlink:href="../../d1/d44/_unknown___c_8h.html" target="_top" xlink:title="JSONDefs\\Unknown_C.h">
<polygon fill="white" stroke="black" points="32.6968,-58.5 32.6968,-79.5 180.697,-79.5 180.697,-58.5 32.6968,-58.5"/>
<text text-anchor="middle" x="106.697" y="-65.9" font-family="Helvetica,sans-Serif" font-size="12.00">JSONDefs\Unknown_C.h</text>
</a>
</g>
</g>
<!-- Node3&#45;&gt;Node5 -->
<g id="edge4" class="edge"><title>Node3&#45;&gt;Node5</title>
<path fill="none" stroke="midnightblue" d="M368.518,-118.389C316.894,-108.848 227.944,-92.4087 168.231,-81.3727"/>
<polygon fill="midnightblue" stroke="midnightblue" points="168.644,-77.8897 158.174,-79.5139 167.371,-84.7731 168.644,-77.8897"/>
</g>
<!-- Node6 -->
<g id="node6" class="node"><title>Node6</title>
<g id="a_node6"><a xlink:href="../../d7/d3c/_g_n_u___c_8h.html" target="_top" xlink:title="JSONDefs\\GNU_C.h">
<polygon fill="white" stroke="black" points="198.697,-58.5 198.697,-79.5 324.697,-79.5 324.697,-58.5 198.697,-58.5"/>
<text text-anchor="middle" x="261.697" y="-65.9" font-family="Helvetica,sans-Serif" font-size="12.00">JSONDefs\GNU_C.h</text>
</a>
</g>
</g>
<!-- Node3&#45;&gt;Node6 -->
<g id="edge5" class="edge"><title>Node3&#45;&gt;Node6</title>
<path fill="none" stroke="midnightblue" d="M384.255,-116.373C359.964,-107.182 323.176,-93.2624 296.243,-83.0713"/>
<polygon fill="midnightblue" stroke="midnightblue" points="297.398,-79.7666 286.807,-79.5011 294.921,-86.3136 297.398,-79.7666"/>
</g>
<!-- Node7 -->
<g id="node7" class="node"><title>Node7</title>
<g id="a_node7"><a xlink:href="../../d0/d22/_visual___c_8h.html" target="_top" xlink:title="JSONDefs\\Visual_C.h">
<polygon fill="white" stroke="black" points="343.197,-58.5 343.197,-79.5 476.197,-79.5 476.197,-58.5 343.197,-58.5"/>
<text text-anchor="middle" x="409.697" y="-65.9" font-family="Helvetica,sans-Serif" font-size="12.00">JSONDefs\Visual_C.h</text>
</a>
</g>
</g>
<!-- Node3&#45;&gt;Node7 -->
<g id="edge6" class="edge"><title>Node3&#45;&gt;Node7</title>
<path fill="none" stroke="midnightblue" d="M409.697,-116.246C409.697,-108.938 409.697,-98.6944 409.697,-89.7046"/>
<polygon fill="midnightblue" stroke="midnightblue" points="413.197,-89.6426 409.697,-79.6427 406.197,-89.6427 413.197,-89.6426"/>
</g>
<!-- Node8 -->
<g id="node8" class="node"><title>Node8</title>
<g id="a_node8"><a xlink:href="../../d8/d1d/_strings___defs_8h.html" target="_top" xlink:title="JSONDefs\\Strings_Defs.h">
<polygon fill="white" stroke="black" points="533.197,-58.5 533.197,-79.5 686.197,-79.5 686.197,-58.5 533.197,-58.5"/>
<text text-anchor="middle" x="609.697" y="-65.9" font-family="Helvetica,sans-Serif" font-size="12.00">JSONDefs\Strings_Defs.h</text>
</a>
</g>
</g>
<!-- Node3&#45;&gt;Node8 -->
<g id="edge7" class="edge"><title>Node3&#45;&gt;Node8</title>
<path fill="none" stroke="midnightblue" d="M444.078,-116.373C477.767,-106.94 529.245,-92.5265 565.859,-82.2747"/>
<polygon fill="midnightblue" stroke="midnightblue" points="567.078,-85.5679 575.764,-79.5011 565.191,-78.8271 567.078,-85.5679"/>
</g>
<!-- Node8&#45;&gt;Node4 -->
<g id="edge8" class="edge"><title>Node8&#45;&gt;Node4</title>
<path fill="none" stroke="midnightblue" d="M591.407,-58.2455C574.921,-49.4527 550.462,-36.4079 531.72,-26.4125"/>
<polygon fill="midnightblue" stroke="midnightblue" points="533.247,-23.2604 522.777,-21.6427 529.953,-29.4368 533.247,-23.2604"/>
</g>
<!-- Node9 -->
<g id="node9" class="node"><title>Node9</title>
<polygon fill="white" stroke="#bfbfbf" points="582.697,-0.5 582.697,-21.5 636.697,-21.5 636.697,-0.5 582.697,-0.5"/>
<text text-anchor="middle" x="609.697" y="-7.9" font-family="Helvetica,sans-Serif" font-size="12.00">string.h</text>
</g>
<!-- Node8&#45;&gt;Node9 -->
<g id="edge9" class="edge"><title>Node8&#45;&gt;Node9</title>
<path fill="none" stroke="midnightblue" d="M609.697,-58.2455C609.697,-50.9382 609.697,-40.6944 609.697,-31.7046"/>
<polygon fill="midnightblue" stroke="midnightblue" points="613.197,-31.6426 609.697,-21.6427 606.197,-31.6427 613.197,-31.6426"/>
</g>
<!-- Node10&#45;&gt;Node2 -->
<g id="edge11" class="edge"><title>Node10&#45;&gt;Node2</title>
<path fill="none" stroke="midnightblue" d="M469.643,-406.498C486.702,-399.371 506.629,-387.742 516.697,-370 534.294,-338.99 555.718,-341.254 493.697,-232 486.983,-220.172 476.127,-209.753 466.153,-201.834"/>
<polygon fill="midnightblue" stroke="midnightblue" points="468.195,-198.99 458.093,-195.795 463.997,-204.592 468.195,-198.99"/>
</g>
<!-- Node11 -->
<g id="node11" class="node"><title>Node11</title>
<g id="a_node11"><a xlink:href="../../dd/db0/internal_j_s_o_n_node_8h.html" target="_top" xlink:title="internalJSONNode.h">
<polygon fill="white" stroke="black" points="225.197,-348.5 225.197,-369.5 348.197,-369.5 348.197,-348.5 225.197,-348.5"/>
<text text-anchor="middle" x="286.697" y="-355.9" font-family="Helvetica,sans-Serif" font-size="12.00">internalJSONNode.h</text>
</a>
</g>
</g>
<!-- Node10&#45;&gt;Node11 -->
<g id="edge12" class="edge"><title>Node10&#45;&gt;Node11</title>
<path fill="none" stroke="midnightblue" d="M413.395,-406.373C388.284,-397.182 350.253,-383.262 322.41,-373.071"/>
<polygon fill="midnightblue" stroke="midnightblue" points="323.249,-369.652 312.655,-369.501 320.843,-376.225 323.249,-369.652"/>
</g>
<!-- Node19 -->
<g id="node19" class="node"><title>Node19</title>
<polygon fill="white" stroke="#bfbfbf" points="366.197,-348.5 366.197,-369.5 433.197,-369.5 433.197,-348.5 366.197,-348.5"/>
<text text-anchor="middle" x="399.697" y="-355.9" font-family="Helvetica,sans-Serif" font-size="12.00">stdexcept</text>
</g>
<!-- Node10&#45;&gt;Node19 -->
<g id="edge28" class="edge"><title>Node10&#45;&gt;Node19</title>
<path fill="none" stroke="midnightblue" d="M432.729,-406.246C427.166,-398.456 419.219,-387.331 412.514,-377.944"/>
<polygon fill="midnightblue" stroke="midnightblue" points="415.245,-375.746 406.584,-369.643 409.549,-379.814 415.245,-375.746"/>
</g>
<!-- Node20 -->
<g id="node20" class="node"><title>Node20</title>
<polygon fill="white" stroke="#bfbfbf" points="451.697,-348.5 451.697,-369.5 507.697,-369.5 507.697,-348.5 451.697,-348.5"/>
<text text-anchor="middle" x="479.697" y="-355.9" font-family="Helvetica,sans-Serif" font-size="12.00">cstdarg</text>
</g>
<!-- Node10&#45;&gt;Node20 -->
<g id="edge29" class="edge"><title>Node10&#45;&gt;Node20</title>
<path fill="none" stroke="midnightblue" d="M446.664,-406.246C452.228,-398.456 460.175,-387.331 466.88,-377.944"/>
<polygon fill="midnightblue" stroke="midnightblue" points="469.845,-379.814 472.809,-369.643 464.149,-375.746 469.845,-379.814"/>
</g>
<!-- Node21 -->
<g id="node21" class="node"><title>Node21</title>
<g id="a_node21"><a xlink:href="../../d5/d4b/_j_s_o_n___base64_8h.html" target="_top" xlink:title="JSON_Base64.h">
<polygon fill="white" stroke="black" points="564.197,-232.5 564.197,-253.5 669.197,-253.5 669.197,-232.5 564.197,-232.5"/>
<text text-anchor="middle" x="616.697" y="-239.9" font-family="Helvetica,sans-Serif" font-size="12.00">JSON_Base64.h</text>
</a>
</g>
</g>
<!-- Node10&#45;&gt;Node21 -->
<g id="edge30" class="edge"><title>Node10&#45;&gt;Node21</title>
<path fill="none" stroke="midnightblue" d="M479.745,-406.468C502.399,-399.437 530.038,-387.917 549.697,-370 582.367,-340.224 602.043,-290.75 610.968,-263.498"/>
<polygon fill="midnightblue" stroke="midnightblue" points="614.416,-264.198 614.05,-253.609 607.733,-262.115 614.416,-264.198"/>
</g>
<!-- Node11&#45;&gt;Node2 -->
<g id="edge13" class="edge"><title>Node11&#45;&gt;Node2</title>
<path fill="none" stroke="midnightblue" d="M341.373,-348.449C395.036,-338.521 470.073,-322.933 478.697,-312 504.155,-279.723 475.738,-230.236 456.818,-203.915"/>
<polygon fill="midnightblue" stroke="midnightblue" points="459.418,-201.548 450.625,-195.637 453.813,-205.741 459.418,-201.548"/>
</g>
<!-- Node12 -->
<g id="node12" class="node"><title>Node12</title>
<g id="a_node12"><a xlink:href="../../d5/d5d/_j_s_o_n_children_8h.html" target="_top" xlink:title="JSONChildren.h">
<polygon fill="white" stroke="black" points="186.197,-290.5 186.197,-311.5 287.197,-311.5 287.197,-290.5 186.197,-290.5"/>
<text text-anchor="middle" x="236.697" y="-297.9" font-family="Helvetica,sans-Serif" font-size="12.00">JSONChildren.h</text>
</a>
</g>
</g>
<!-- Node11&#45;&gt;Node12 -->
<g id="edge14" class="edge"><title>Node11&#45;&gt;Node12</title>
<path fill="none" stroke="midnightblue" d="M277.987,-348.246C270.89,-340.296 260.688,-328.871 252.202,-319.366"/>
<polygon fill="midnightblue" stroke="midnightblue" points="254.577,-316.771 245.306,-311.643 249.356,-321.433 254.577,-316.771"/>
</g>
<!-- Node13 -->
<g id="node13" class="node"><title>Node13</title>
<g id="a_node13"><a xlink:href="../../de/dda/_j_s_o_n_memory_8h.html" target="_top" xlink:title="JSONMemory.h">
<polygon fill="white" stroke="black" points="9.19681,-232.5 9.19681,-253.5 108.197,-253.5 108.197,-232.5 9.19681,-232.5"/>
<text text-anchor="middle" x="58.6968" y="-239.9" font-family="Helvetica,sans-Serif" font-size="12.00">JSONMemory.h</text>
</a>
</g>
</g>
<!-- Node11&#45;&gt;Node13 -->
<g id="edge21" class="edge"><title>Node11&#45;&gt;Node13</title>
<path fill="none" stroke="midnightblue" d="M261.391,-348.473C238.83,-339.732 205.083,-326.044 176.697,-312 143.208,-295.431 106.101,-273.407 82.6032,-258.976"/>
<polygon fill="midnightblue" stroke="midnightblue" points="84.3517,-255.942 74.0053,-253.661 80.6709,-261.897 84.3517,-255.942"/>
</g>
<!-- Node16 -->
<g id="node16" class="node"><title>Node16</title>
<g id="a_node16"><a xlink:href="../../d8/dc8/_j_s_o_n_globals_8h.html" target="_top" xlink:title="JSONGlobals.h">
<polygon fill="white" stroke="black" points="318.197,-232.5 318.197,-253.5 415.197,-253.5 415.197,-232.5 318.197,-232.5"/>
<text text-anchor="middle" x="366.697" y="-239.9" font-family="Helvetica,sans-Serif" font-size="12.00">JSONGlobals.h</text>
</a>
</g>
</g>
<!-- Node11&#45;&gt;Node16 -->
<g id="edge22" class="edge"><title>Node11&#45;&gt;Node16</title>
<path fill="none" stroke="midnightblue" d="M293.518,-348.28C306.92,-329.182 336.872,-286.5 354.013,-262.075"/>
<polygon fill="midnightblue" stroke="midnightblue" points="357.014,-263.891 359.893,-253.695 351.284,-259.87 357.014,-263.891"/>
</g>
<!-- Node18 -->
<g id="node18" class="node"><title>Node18</title>
<g id="a_node18"><a xlink:href="../../df/de5/_j_s_o_n_shared_string_8h.html" target="_top" xlink:title="JSONSharedString.h">
<polygon fill="white" stroke="black" points="343.697,-290.5 343.697,-311.5 469.697,-311.5 469.697,-290.5 343.697,-290.5"/>
<text text-anchor="middle" x="406.697" y="-297.9" font-family="Helvetica,sans-Serif" font-size="12.00">JSONSharedString.h</text>
</a>
</g>
</g>
<!-- Node11&#45;&gt;Node18 -->
<g id="edge25" class="edge"><title>Node11&#45;&gt;Node18</title>
<path fill="none" stroke="midnightblue" d="M307.326,-348.373C326.589,-339.384 355.545,-325.871 377.239,-315.747"/>
<polygon fill="midnightblue" stroke="midnightblue" points="378.756,-318.902 386.337,-311.501 375.795,-312.558 378.756,-318.902"/>
</g>
<!-- Node12&#45;&gt;Node2 -->
<g id="edge20" class="edge"><title>Node12&#45;&gt;Node2</title>
<path fill="none" stroke="midnightblue" d="M244.554,-290.297C256.824,-275.729 281.918,-248.189 308.697,-232 333.876,-216.778 364.782,-205.738 390.565,-198.295"/>
<polygon fill="midnightblue" stroke="midnightblue" points="391.841,-201.573 400.536,-195.52 389.964,-194.829 391.841,-201.573"/>
</g>
<!-- Node12&#45;&gt;Node13 -->
<g id="edge15" class="edge"><title>Node12&#45;&gt;Node13</title>
<path fill="none" stroke="midnightblue" d="M206.098,-290.373C176.371,-281.021 131.081,-266.773 98.5512,-256.538"/>
<polygon fill="midnightblue" stroke="midnightblue" points="99.4863,-253.164 88.8968,-253.501 97.3855,-259.841 99.4863,-253.164"/>
</g>
<!-- Node13&#45;&gt;Node2 -->
<g id="edge19" class="edge"><title>Node13&#45;&gt;Node2</title>
<path fill="none" stroke="midnightblue" d="M108.302,-234.188C113.165,-233.441 118.026,-232.701 122.697,-232 214.972,-218.159 322.35,-202.896 386.301,-193.894"/>
<polygon fill="midnightblue" stroke="midnightblue" points="387.153,-197.309 396.568,-192.451 386.178,-190.377 387.153,-197.309"/>
</g>
<!-- Node13&#45;&gt;Node4 -->
<g id="edge18" class="edge"><title>Node13&#45;&gt;Node4</title>
<path fill="none" stroke="midnightblue" d="M48.1378,-232.208C39.6959,-223.605 28.5062,-210.263 23.6968,-196 4.10029,-137.882 -17.5564,-103.387 23.6968,-58 51.2401,-27.697 316.597,-16.8591 440.966,-13.4221"/>
<polygon fill="midnightblue" stroke="midnightblue" points="441.209,-16.9169 451.112,-13.1495 441.021,-9.91946 441.209,-16.9169"/>
</g>
<!-- Node14 -->
<g id="node14" class="node"><title>Node14</title>
<polygon fill="white" stroke="#bfbfbf" points="102.697,-174.5 102.697,-195.5 152.697,-195.5 152.697,-174.5 102.697,-174.5"/>
<text text-anchor="middle" x="127.697" y="-181.9" font-family="Helvetica,sans-Serif" font-size="12.00">cstdlib</text>
</g>
<!-- Node13&#45;&gt;Node14 -->
<g id="edge16" class="edge"><title>Node13&#45;&gt;Node14</title>
<path fill="none" stroke="midnightblue" d="M70.7157,-232.246C80.9066,-223.975 95.733,-211.942 107.707,-202.223"/>
<polygon fill="midnightblue" stroke="midnightblue" points="110.257,-204.662 115.816,-195.643 105.845,-199.227 110.257,-204.662"/>
</g>
<!-- Node15 -->
<g id="node15" class="node"><title>Node15</title>
<polygon fill="white" stroke="#bfbfbf" points="33.1968,-174.5 33.1968,-195.5 84.1968,-195.5 84.1968,-174.5 33.1968,-174.5"/>
<text text-anchor="middle" x="58.6968" y="-181.9" font-family="Helvetica,sans-Serif" font-size="12.00">cstring</text>
</g>
<!-- Node13&#45;&gt;Node15 -->
<g id="edge17" class="edge"><title>Node13&#45;&gt;Node15</title>
<path fill="none" stroke="midnightblue" d="M58.6968,-232.246C58.6968,-224.938 58.6968,-214.694 58.6968,-205.705"/>
<polygon fill="midnightblue" stroke="midnightblue" points="62.1969,-205.643 58.6968,-195.643 55.1969,-205.643 62.1969,-205.643"/>
</g>
<!-- Node16&#45;&gt;Node3 -->
<g id="edge23" class="edge"><title>Node16&#45;&gt;Node3</title>
<path fill="none" stroke="midnightblue" d="M369.247,-232.162C372.821,-218.798 379.776,-194.252 387.697,-174 391.273,-164.857 395.88,-155.002 399.953,-146.768"/>
<polygon fill="midnightblue" stroke="midnightblue" points="403.157,-148.189 404.551,-137.686 396.911,-145.027 403.157,-148.189"/>
</g>
<!-- Node17 -->
<g id="node17" class="node"><title>Node17</title>
<polygon fill="white" stroke="#bfbfbf" points="542.197,-174.5 542.197,-195.5 587.197,-195.5 587.197,-174.5 542.197,-174.5"/>
<text text-anchor="middle" x="564.697" y="-181.9" font-family="Helvetica,sans-Serif" font-size="12.00">string</text>
</g>
<!-- Node16&#45;&gt;Node17 -->
<g id="edge24" class="edge"><title>Node16&#45;&gt;Node17</title>
<path fill="none" stroke="midnightblue" d="M400.734,-232.373C437.567,-221.956 495.878,-205.464 532.127,-195.212"/>
<polygon fill="midnightblue" stroke="midnightblue" points="533.505,-198.459 542.175,-192.37 531.6,-191.724 533.505,-198.459"/>
</g>
<!-- Node18&#45;&gt;Node2 -->
<g id="edge26" class="edge"><title>Node18&#45;&gt;Node2</title>
<path fill="none" stroke="midnightblue" d="M410.579,-290.211C414.187,-280.953 419.604,-266.636 423.697,-254 428.942,-237.805 434.088,-219.17 437.699,-205.508"/>
<polygon fill="midnightblue" stroke="midnightblue" points="441.104,-206.318 440.238,-195.759 434.33,-204.554 441.104,-206.318"/>
</g>
<!-- Node18&#45;&gt;Node16 -->
<g id="edge27" class="edge"><title>Node18&#45;&gt;Node16</title>
<path fill="none" stroke="midnightblue" d="M399.729,-290.246C394.166,-282.456 386.219,-271.331 379.514,-261.944"/>
<polygon fill="midnightblue" stroke="midnightblue" points="382.245,-259.746 373.584,-253.643 376.549,-263.814 382.245,-259.746"/>
</g>
<!-- Node21&#45;&gt;Node2 -->
<g id="edge31" class="edge"><title>Node21&#45;&gt;Node2</title>
<path fill="none" stroke="midnightblue" d="M586.785,-232.373C557.852,-223.061 513.836,-208.895 482.067,-198.671"/>
<polygon fill="midnightblue" stroke="midnightblue" points="482.81,-195.233 472.218,-195.501 480.665,-201.897 482.81,-195.233"/>
</g>
<!-- Node21&#45;&gt;Node17 -->
<g id="edge32" class="edge"><title>Node21&#45;&gt;Node17</title>
<path fill="none" stroke="midnightblue" d="M607.639,-232.246C600.183,-224.216 589.433,-212.639 580.555,-203.078"/>
<polygon fill="midnightblue" stroke="midnightblue" points="583.02,-200.589 573.651,-195.643 577.89,-205.352 583.02,-200.589"/>
</g>
</g>
</svg>
