<?xml version="1.0" encoding="UTF-8" standalone="no"?>
<!DOCTYPE svg PUBLIC "-//W3C//DTD SVG 1.1//EN"
 "http://www.w3.org/Graphics/SVG/1.1/DTD/svg11.dtd">
<!-- Generated by graphviz version 2.34.0 (20130907.0111)
 -->
<!-- Title: StdoutThread.h Pages: 1 -->
<svg width="827pt" height="204pt"
 viewBox="0.00 0.00 827.00 204.00" xmlns="http://www.w3.org/2000/svg" xmlns:xlink="http://www.w3.org/1999/xlink">
<g id="graph0" class="graph" transform="scale(1 1) rotate(0) translate(4 200)">
<title>StdoutThread.h</title>
<polygon fill="white" stroke="white" points="-4,4 -4,-200 823,-200 823,4 -4,4"/>
<!-- Node1 -->
<g id="node1" class="node"><title>Node1</title>
<polygon fill="#bfbfbf" stroke="black" points="592,-174.5 592,-195.5 688,-195.5 688,-174.5 592,-174.5"/>
<text text-anchor="middle" x="640" y="-181.9" font-family="Helvetica,sans-Serif" font-size="12.00">StdoutThread.h</text>
</g>
<!-- Node2 -->
<g id="node2" class="node"><title>Node2</title>
<g id="a_node2"><a xlink:href="../../db/d06/stdafx_8h.html" target="_top" xlink:title="stdafx.h">
<polygon fill="white" stroke="black" points="297,-116.5 297,-137.5 353,-137.5 353,-116.5 297,-116.5"/>
<text text-anchor="middle" x="325" y="-123.9" font-family="Helvetica,sans-Serif" font-size="12.00">stdafx.h</text>
</a>
</g>
</g>
<!-- Node1&#45;&gt;Node2 -->
<g id="edge1" class="edge"><title>Node1&#45;&gt;Node2</title>
<path fill="none" stroke="midnightblue" d="M591.815,-175.434C529.026,-164.271 420.497,-144.977 363.115,-134.776"/>
<polygon fill="midnightblue" stroke="midnightblue" points="363.477,-131.286 353.018,-132.981 362.251,-138.177 363.477,-131.286"/>
</g>
<!-- Node11 -->
<g id="node11" class="node"><title>Node11</title>
<g id="a_node11"><a xlink:href="../../d8/d50/_critical_c_string_8h.html" target="_top" xlink:title="CriticalCString.h">
<polygon fill="white" stroke="black" points="589,-116.5 589,-137.5 691,-137.5 691,-116.5 589,-116.5"/>
<text text-anchor="middle" x="640" y="-123.9" font-family="Helvetica,sans-Serif" font-size="12.00">CriticalCString.h</text>
</a>
</g>
</g>
<!-- Node1&#45;&gt;Node11 -->
<g id="edge10" class="edge"><title>Node1&#45;&gt;Node11</title>
<path fill="none" stroke="midnightblue" d="M640,-174.246C640,-166.938 640,-156.694 640,-147.705"/>
<polygon fill="midnightblue" stroke="midnightblue" points="643.5,-147.643 640,-137.643 636.5,-147.643 643.5,-147.643"/>
</g>
<!-- Node14 -->
<g id="node14" class="node"><title>Node14</title>
<g id="a_node14"><a xlink:href="../../dc/dff/_stdout_redirect_8h.html" target="_top" xlink:title="StdoutRedirect.h">
<polygon fill="white" stroke="black" points="715,-116.5 715,-137.5 819,-137.5 819,-116.5 715,-116.5"/>
<text text-anchor="middle" x="767" y="-123.9" font-family="Helvetica,sans-Serif" font-size="12.00">StdoutRedirect.h</text>
</a>
</g>
</g>
<!-- Node1&#45;&gt;Node14 -->
<g id="edge13" class="edge"><title>Node1&#45;&gt;Node14</title>
<path fill="none" stroke="midnightblue" d="M661.832,-174.373C682.31,-165.343 713.14,-151.749 736.132,-141.611"/>
<polygon fill="midnightblue" stroke="midnightblue" points="737.715,-144.738 745.453,-137.501 734.891,-138.333 737.715,-144.738"/>
</g>
<!-- Node3 -->
<g id="node3" class="node"><title>Node3</title>
<g id="a_node3"><a xlink:href="../../d9/da6/targetver_8h.html" target="_top" xlink:title="targetver.h">
<polygon fill="white" stroke="black" points="12.5,-58.5 12.5,-79.5 83.5,-79.5 83.5,-58.5 12.5,-58.5"/>
<text text-anchor="middle" x="48" y="-65.9" font-family="Helvetica,sans-Serif" font-size="12.00">targetver.h</text>
</a>
</g>
</g>
<!-- Node2&#45;&gt;Node3 -->
<g id="edge2" class="edge"><title>Node2&#45;&gt;Node3</title>
<path fill="none" stroke="midnightblue" d="M296.744,-120.614C254.809,-112.574 173.373,-96.7816 94.0133,-80.1777"/>
<polygon fill="midnightblue" stroke="midnightblue" points="94.3511,-76.6724 83.8453,-78.0433 92.913,-83.5231 94.3511,-76.6724"/>
</g>
<!-- Node5 -->
<g id="node5" class="node"><title>Node5</title>
<polygon fill="white" stroke="#bfbfbf" points="102,-58.5 102,-79.5 160,-79.5 160,-58.5 102,-58.5"/>
<text text-anchor="middle" x="131" y="-65.9" font-family="Helvetica,sans-Serif" font-size="12.00">afxwin.h</text>
</g>
<!-- Node2&#45;&gt;Node5 -->
<g id="edge4" class="edge"><title>Node2&#45;&gt;Node5</title>
<path fill="none" stroke="midnightblue" d="M296.791,-117.857C263.459,-108.236 207.799,-92.1688 170.267,-81.3348"/>
<polygon fill="midnightblue" stroke="midnightblue" points="170.774,-77.8383 160.195,-78.4276 168.833,-84.5637 170.774,-77.8383"/>
</g>
<!-- Node6 -->
<g id="node6" class="node"><title>Node6</title>
<polygon fill="white" stroke="#bfbfbf" points="178,-58.5 178,-79.5 234,-79.5 234,-58.5 178,-58.5"/>
<text text-anchor="middle" x="206" y="-65.9" font-family="Helvetica,sans-Serif" font-size="12.00">afxext.h</text>
</g>
<!-- Node2&#45;&gt;Node6 -->
<g id="edge5" class="edge"><title>Node2&#45;&gt;Node6</title>
<path fill="none" stroke="midnightblue" d="M304.543,-116.373C285.526,-107.424 256.982,-93.9917 235.502,-83.8835"/>
<polygon fill="midnightblue" stroke="midnightblue" points="236.728,-80.5923 226.19,-79.5011 233.748,-86.926 236.728,-80.5923"/>
</g>
<!-- Node7 -->
<g id="node7" class="node"><title>Node7</title>
<polygon fill="white" stroke="#bfbfbf" points="252.5,-58.5 252.5,-79.5 315.5,-79.5 315.5,-58.5 252.5,-58.5"/>
<text text-anchor="middle" x="284" y="-65.9" font-family="Helvetica,sans-Serif" font-size="12.00">afxdisp.h</text>
</g>
<!-- Node2&#45;&gt;Node7 -->
<g id="edge6" class="edge"><title>Node2&#45;&gt;Node7</title>
<path fill="none" stroke="midnightblue" d="M317.858,-116.246C312.156,-108.456 304.01,-97.3308 297.138,-87.9439"/>
<polygon fill="midnightblue" stroke="midnightblue" points="299.791,-85.6437 291.06,-79.6427 294.143,-89.7789 299.791,-85.6437"/>
</g>
<!-- Node8 -->
<g id="node8" class="node"><title>Node8</title>
<polygon fill="white" stroke="#bfbfbf" points="334,-58.5 334,-79.5 396,-79.5 396,-58.5 334,-58.5"/>
<text text-anchor="middle" x="365" y="-65.9" font-family="Helvetica,sans-Serif" font-size="12.00">afxdtctl.h</text>
</g>
<!-- Node2&#45;&gt;Node8 -->
<g id="edge7" class="edge"><title>Node2&#45;&gt;Node8</title>
<path fill="none" stroke="midnightblue" d="M331.967,-116.246C337.531,-108.456 345.478,-97.3308 352.183,-87.9439"/>
<polygon fill="midnightblue" stroke="midnightblue" points="355.148,-89.8144 358.112,-79.6427 349.452,-85.7457 355.148,-89.8144"/>
</g>
<!-- Node9 -->
<g id="node9" class="node"><title>Node9</title>
<polygon fill="white" stroke="#bfbfbf" points="414,-58.5 414,-79.5 476,-79.5 476,-58.5 414,-58.5"/>
<text text-anchor="middle" x="445" y="-65.9" font-family="Helvetica,sans-Serif" font-size="12.00">afxcmn.h</text>
</g>
<!-- Node2&#45;&gt;Node9 -->
<g id="edge8" class="edge"><title>Node2&#45;&gt;Node9</title>
<path fill="none" stroke="midnightblue" d="M345.629,-116.373C364.892,-107.384 393.849,-93.8706 415.542,-83.7471"/>
<polygon fill="midnightblue" stroke="midnightblue" points="417.059,-86.9017 424.64,-79.5011 414.098,-80.5584 417.059,-86.9017"/>
</g>
<!-- Node10 -->
<g id="node10" class="node"><title>Node10</title>
<polygon fill="white" stroke="#bfbfbf" points="494,-58.5 494,-79.5 592,-79.5 592,-58.5 494,-58.5"/>
<text text-anchor="middle" x="543" y="-65.9" font-family="Helvetica,sans-Serif" font-size="12.00">afxcontrolbars.h</text>
</g>
<!-- Node2&#45;&gt;Node10 -->
<g id="edge9" class="edge"><title>Node2&#45;&gt;Node10</title>
<path fill="none" stroke="midnightblue" d="M353.053,-118.794C389.22,-109.503 452.625,-93.2155 496.16,-82.0324"/>
<polygon fill="midnightblue" stroke="midnightblue" points="497.134,-85.3958 505.949,-79.5177 495.392,-78.6159 497.134,-85.3958"/>
</g>
<!-- Node4 -->
<g id="node4" class="node"><title>Node4</title>
<polygon fill="white" stroke="#bfbfbf" points="0,-0.5 0,-21.5 96,-21.5 96,-0.5 0,-0.5"/>
<text text-anchor="middle" x="48" y="-7.9" font-family="Helvetica,sans-Serif" font-size="12.00">SDKDDKVer.h</text>
</g>
<!-- Node3&#45;&gt;Node4 -->
<g id="edge3" class="edge"><title>Node3&#45;&gt;Node4</title>
<path fill="none" stroke="midnightblue" d="M48,-58.2455C48,-50.9382 48,-40.6944 48,-31.7046"/>
<polygon fill="midnightblue" stroke="midnightblue" points="51.5001,-31.6426 48,-21.6427 44.5001,-31.6427 51.5001,-31.6426"/>
</g>
<!-- Node12 -->
<g id="node12" class="node"><title>Node12</title>
<polygon fill="white" stroke="#bfbfbf" points="610.5,-58.5 610.5,-79.5 663.5,-79.5 663.5,-58.5 610.5,-58.5"/>
<text text-anchor="middle" x="637" y="-65.9" font-family="Helvetica,sans-Serif" font-size="12.00">afxmt.h</text>
</g>
<!-- Node11&#45;&gt;Node12 -->
<g id="edge11" class="edge"><title>Node11&#45;&gt;Node12</title>
<path fill="none" stroke="midnightblue" d="M639.477,-116.246C639.086,-108.938 638.537,-98.6944 638.056,-89.7046"/>
<polygon fill="midnightblue" stroke="midnightblue" points="641.547,-89.4411 637.517,-79.6427 634.557,-89.8156 641.547,-89.4411"/>
</g>
<!-- Node13 -->
<g id="node13" class="node"><title>Node13</title>
<polygon fill="white" stroke="#bfbfbf" points="681.5,-58.5 681.5,-79.5 726.5,-79.5 726.5,-58.5 681.5,-58.5"/>
<text text-anchor="middle" x="704" y="-65.9" font-family="Helvetica,sans-Serif" font-size="12.00">string</text>
</g>
<!-- Node11&#45;&gt;Node13 -->
<g id="edge12" class="edge"><title>Node11&#45;&gt;Node13</title>
<path fill="none" stroke="midnightblue" d="M651.148,-116.246C660.509,-108.055 674.086,-96.1749 685.135,-86.5069"/>
<polygon fill="midnightblue" stroke="midnightblue" points="687.759,-88.8618 692.98,-79.6427 683.149,-83.5937 687.759,-88.8618"/>
</g>
<!-- Node15 -->
<g id="node15" class="node"><title>Node15</title>
<polygon fill="white" stroke="#bfbfbf" points="744.5,-58.5 744.5,-79.5 795.5,-79.5 795.5,-58.5 744.5,-58.5"/>
<text text-anchor="middle" x="770" y="-65.9" font-family="Helvetica,sans-Serif" font-size="12.00">stdio.h</text>
</g>
<!-- Node14&#45;&gt;Node15 -->
<g id="edge14" class="edge"><title>Node14&#45;&gt;Node15</title>
<path fill="none" stroke="midnightblue" d="M767.523,-116.246C767.914,-108.938 768.463,-98.6944 768.944,-89.7046"/>
<polygon fill="midnightblue" stroke="midnightblue" points="772.443,-89.8156 769.483,-79.6427 765.453,-89.4411 772.443,-89.8156"/>
</g>
</g>
</svg>
