<?xml version="1.0" encoding="UTF-8" standalone="no"?>
<!DOCTYPE svg PUBLIC "-//W3C//DTD SVG 1.1//EN"
 "http://www.w3.org/Graphics/SVG/1.1/DTD/svg11.dtd">
<!-- Generated by graphviz version 2.34.0 (20130907.0111)
 -->
<!-- Title: setup_settings Pages: 1 -->
<svg width="292pt" height="284pt"
 viewBox="0.00 0.00 292.00 284.00" xmlns="http://www.w3.org/2000/svg" xmlns:xlink="http://www.w3.org/1999/xlink">
<g id="graph0" class="graph" transform="scale(1 1) rotate(0) translate(4 280)">
<title>setup_settings</title>
<polygon fill="white" stroke="white" points="-4,4 -4,-280 288,-280 288,4 -4,4"/>
<!-- Node1 -->
<g id="node1" class="node"><title>Node1</title>
<polygon fill="#bfbfbf" stroke="black" points="74,-0.5 74,-21.5 166,-21.5 166,-0.5 74,-0.5"/>
<text text-anchor="middle" x="120" y="-7.9" font-family="Helvetica,sans-Serif" font-size="12.00">setup_settings</text>
</g>
<!-- Node2 -->
<g id="node2" class="node"><title>Node2</title>
<polygon fill="white" stroke="#bfbfbf" points="-0.5,-110.5 -0.5,-131.5 100.5,-131.5 100.5,-110.5 -0.5,-110.5"/>
<text text-anchor="middle" x="50" y="-117.9" font-family="Helvetica,sans-Serif" font-size="12.00">std::vector&lt; int &gt;</text>
</g>
<!-- Node2&#45;&gt;Node1 -->
<g id="edge1" class="edge"><title>Node2&#45;&gt;Node1</title>
<path fill="none" stroke="#9a32cd" stroke-dasharray="5,2" d="M43.6219,-100.721C39.1334,-83.3056 35.8526,-57.7576 48,-40 54.1337,-31.0335 63.594,-24.938 73.6618,-20.7943"/>
<polygon fill="#9a32cd" stroke="#9a32cd" points="40.2781,-101.756 46.4456,-110.371 46.9964,-99.7905 40.2781,-101.756"/>
<text text-anchor="middle" x="110" y="-62.9" font-family="Helvetica,sans-Serif" font-size="12.00"> allowed_bits_per_pixel</text>
</g>
<!-- Node3 -->
<g id="node3" class="node"><title>Node3</title>
<g id="a_node3"><a xlink:title="STL class. ">
<polygon fill="white" stroke="#bfbfbf" points="50,-182.5 50,-203.5 146,-203.5 146,-182.5 50,-182.5"/>
<text text-anchor="middle" x="98" y="-189.9" font-family="Helvetica,sans-Serif" font-size="12.00">std::vector&lt; T &gt;</text>
</a>
</g>
</g>
<!-- Node3&#45;&gt;Node2 -->
<g id="edge2" class="edge"><title>Node3&#45;&gt;Node2</title>
<path fill="none" stroke="orange" stroke-dasharray="5,2" d="M85.5007,-173.772C76.2615,-160.298 64.0443,-142.481 56.6175,-131.651"/>
<polygon fill="orange" stroke="orange" points="82.7839,-175.999 91.3258,-182.267 88.557,-172.04 82.7839,-175.999"/>
<text text-anchor="middle" x="96.5" y="-153.9" font-family="Helvetica,sans-Serif" font-size="12.00"> &lt; int &gt;</text>
</g>
<!-- Node5 -->
<g id="node5" class="node"><title>Node5</title>
<polygon fill="white" stroke="#bfbfbf" points="125.5,-110.5 125.5,-131.5 254.5,-131.5 254.5,-110.5 125.5,-110.5"/>
<text text-anchor="middle" x="190" y="-117.9" font-family="Helvetica,sans-Serif" font-size="12.00">std::vector&lt; CString &gt;</text>
</g>
<!-- Node3&#45;&gt;Node5 -->
<g id="edge5" class="edge"><title>Node3&#45;&gt;Node5</title>
<path fill="none" stroke="orange" stroke-dasharray="5,2" d="M118.952,-176.058C136.933,-162.377 162.261,-143.106 177.316,-131.651"/>
<polygon fill="orange" stroke="orange" points="116.631,-173.426 110.792,-182.267 120.87,-178.997 116.631,-173.426"/>
<text text-anchor="middle" x="183.5" y="-153.9" font-family="Helvetica,sans-Serif" font-size="12.00"> &lt; CString &gt;</text>
</g>
<!-- Node4 -->
<g id="node4" class="node"><title>Node4</title>
<polygon fill="white" stroke="#bfbfbf" points="83.5,-254.5 83.5,-275.5 112.5,-275.5 112.5,-254.5 83.5,-254.5"/>
<text text-anchor="middle" x="98" y="-261.9" font-family="Helvetica,sans-Serif" font-size="12.00">T</text>
</g>
<!-- Node4&#45;&gt;Node3 -->
<g id="edge3" class="edge"><title>Node4&#45;&gt;Node3</title>
<path fill="none" stroke="#9a32cd" stroke-dasharray="5,2" d="M98,-244.199C98,-230.938 98,-214.065 98,-203.651"/>
<polygon fill="#9a32cd" stroke="#9a32cd" points="94.5001,-244.267 98,-254.267 101.5,-244.267 94.5001,-244.267"/>
<text text-anchor="middle" x="123.5" y="-225.9" font-family="Helvetica,sans-Serif" font-size="12.00"> elements</text>
</g>
<!-- Node5&#45;&gt;Node1 -->
<g id="edge4" class="edge"><title>Node5&#45;&gt;Node1</title>
<path fill="none" stroke="#9a32cd" stroke-dasharray="5,2" d="M190.005,-100.133C189.044,-82.6694 185.2,-57.3969 172,-40 165.864,-31.9135 156.697,-25.8939 147.762,-21.552"/>
<polygon fill="#9a32cd" stroke="#9a32cd" points="186.511,-100.421 190.289,-110.32 193.508,-100.226 186.511,-100.421"/>
<text text-anchor="middle" x="236.5" y="-82.4" font-family="Helvetica,sans-Serif" font-size="12.00"> bayer_list</text>
<text text-anchor="middle" x="236.5" y="-69.4" font-family="Helvetica,sans-Serif" font-size="12.00">device_list</text>
<text text-anchor="start" x="189" y="-56.4" font-family="Helvetica,sans-Serif" font-size="12.00">epiphan_deviceID</text>
<text text-anchor="middle" x="236.5" y="-43.4" font-family="Helvetica,sans-Serif" font-size="12.00">_list</text>
</g>
</g>
</svg>
