<?xml version="1.0" encoding="UTF-8" standalone="no"?>
<!DOCTYPE svg PUBLIC "-//W3C//DTD SVG 1.1//EN"
 "http://www.w3.org/Graphics/SVG/1.1/DTD/svg11.dtd">
<!-- Generated by graphviz version 2.34.0 (20130907.0111)
 -->
<!-- Title: Documentation/Operator&#45;Console/StdoutRedirect.h Pages: 1 -->
<svg width="1580pt" height="332pt"
 viewBox="0.00 0.00 1580.00 332.00" xmlns="http://www.w3.org/2000/svg" xmlns:xlink="http://www.w3.org/1999/xlink">
<g id="graph0" class="graph" transform="scale(1 1) rotate(0) translate(4 328)">
<title>Documentation/Operator&#45;Console/StdoutRedirect.h</title>
<polygon fill="white" stroke="white" points="-4,4 -4,-328 1576,-328 1576,4 -4,4"/>
<!-- Node1 -->
<g id="node1" class="node"><title>Node1</title>
<polygon fill="#bfbfbf" stroke="black" points="720,-289 720,-323 874,-323 874,-289 720,-289"/>
<text text-anchor="start" x="728" y="-309.4" font-family="Helvetica,sans-Serif" font-size="12.00">Documentation/Operator</text>
<text text-anchor="middle" x="797" y="-296.4" font-family="Helvetica,sans-Serif" font-size="12.00">&#45;Console/StdoutRedirect.h</text>
</g>
<!-- Node2 -->
<g id="node2" class="node"><title>Node2</title>
<g id="a_node2"><a xlink:href="../../d7/d52/_documentation_2_operator-_console_2_stderr_redirect_8h.html" target="_top" xlink:title="Documentation/Operator\l&#45;Console/StderrRedirect.h">
<polygon fill="white" stroke="black" points="560,-217 560,-251 712,-251 712,-217 560,-217"/>
<text text-anchor="start" x="568" y="-237.4" font-family="Helvetica,sans-Serif" font-size="12.00">Documentation/Operator</text>
<text text-anchor="middle" x="636" y="-224.4" font-family="Helvetica,sans-Serif" font-size="12.00">&#45;Console/StderrRedirect.h</text>
</a>
</g>
</g>
<!-- Node1&#45;&gt;Node2 -->
<g id="edge1" class="edge"><title>Node1&#45;&gt;Node2</title>
<path fill="none" stroke="midnightblue" d="M750.887,-284.951C726.199,-274.217 696.196,-261.172 673.043,-251.106"/>
<polygon fill="midnightblue" stroke="midnightblue" points="749.497,-288.163 760.063,-288.941 752.288,-281.744 749.497,-288.163"/>
</g>
<!-- Node3 -->
<g id="node3" class="node"><title>Node3</title>
<g id="a_node3"><a xlink:href="../../da/d65/_documentation_2_operator-_console_2_operator_console_8h.html" target="_top" xlink:title="Documentation/Operator\l&#45;Console/OperatorConsole.h">
<polygon fill="white" stroke="black" points="664,-73 664,-107 830,-107 830,-73 664,-73"/>
<text text-anchor="start" x="672" y="-93.4" font-family="Helvetica,sans-Serif" font-size="12.00">Documentation/Operator</text>
<text text-anchor="middle" x="747" y="-80.4" font-family="Helvetica,sans-Serif" font-size="12.00">&#45;Console/OperatorConsole.h</text>
</a>
</g>
</g>
<!-- Node1&#45;&gt;Node3 -->
<g id="edge19" class="edge"><title>Node1&#45;&gt;Node3</title>
<path fill="none" stroke="midnightblue" d="M779.533,-279.998C774.367,-271.473 769.234,-261.649 766,-252 748.918,-201.028 746.749,-136.494 746.749,-107.009"/>
<polygon fill="midnightblue" stroke="midnightblue" points="776.735,-282.121 785.063,-288.67 782.637,-278.357 776.735,-282.121"/>
</g>
<!-- Node14 -->
<g id="node14" class="node"><title>Node14</title>
<g id="a_node14"><a xlink:href="../../d7/de1/_documentation_2_operator-_console_2_stdout_thread_8h.html" target="_top" xlink:title="Documentation/Operator\l&#45;Console/StdoutThread.h">
<polygon fill="white" stroke="black" points="775,-217 775,-251 921,-251 921,-217 775,-217"/>
<text text-anchor="start" x="783" y="-237.4" font-family="Helvetica,sans-Serif" font-size="12.00">Documentation/Operator</text>
<text text-anchor="middle" x="848" y="-224.4" font-family="Helvetica,sans-Serif" font-size="12.00">&#45;Console/StdoutThread.h</text>
</a>
</g>
</g>
<!-- Node1&#45;&gt;Node14 -->
<g id="edge13" class="edge"><title>Node1&#45;&gt;Node14</title>
<path fill="none" stroke="midnightblue" d="M814.782,-280.593C821.887,-270.842 829.874,-259.879 836.236,-251.147"/>
<polygon fill="midnightblue" stroke="midnightblue" points="811.888,-278.621 808.829,-288.765 817.546,-282.743 811.888,-278.621"/>
</g>
<!-- Node18 -->
<g id="node18" class="node"><title>Node18</title>
<g id="a_node18"><a xlink:href="../../d6/d04/_documentation_2_operator-_console_2_stdout_redirect_8cpp.html" target="_top" xlink:title="Documentation/Operator\l&#45;Console/StdoutRedirect.cpp">
<polygon fill="white" stroke="black" points="939.5,-217 939.5,-251 1106.5,-251 1106.5,-217 939.5,-217"/>
<text text-anchor="start" x="947.5" y="-237.4" font-family="Helvetica,sans-Serif" font-size="12.00">Documentation/Operator</text>
<text text-anchor="middle" x="1023" y="-224.4" font-family="Helvetica,sans-Serif" font-size="12.00">&#45;Console/StdoutRedirect.cpp</text>
</a>
</g>
</g>
<!-- Node1&#45;&gt;Node18 -->
<g id="edge20" class="edge"><title>Node1&#45;&gt;Node18</title>
<path fill="none" stroke="midnightblue" d="M858.546,-285.937C893.779,-275.024 937.499,-261.483 971.001,-251.106"/>
<polygon fill="midnightblue" stroke="midnightblue" points="857.366,-282.639 848.849,-288.941 859.437,-289.325 857.366,-282.639"/>
</g>
<!-- Node2&#45;&gt;Node3 -->
<g id="edge2" class="edge"><title>Node2&#45;&gt;Node3</title>
<path fill="none" stroke="midnightblue" d="M578.73,-212.119C564.958,-204.242 551.945,-193.746 544,-180 535.993,-166.147 534.219,-156.662 544,-144 559.03,-124.542 614.66,-110.868 663.891,-102.288"/>
<polygon fill="midnightblue" stroke="midnightblue" points="577.366,-215.356 587.844,-216.924 580.631,-209.164 577.366,-215.356"/>
</g>
<!-- Node13 -->
<g id="node13" class="node"><title>Node13</title>
<g id="a_node13"><a xlink:href="../../db/d5d/_documentation_2_operator-_console_2_stderr_redirect_8cpp.html" target="_top" xlink:title="Documentation/Operator\l&#45;Console/StderrRedirect.cpp">
<polygon fill="white" stroke="black" points="553,-145 553,-179 719,-179 719,-145 553,-145"/>
<text text-anchor="start" x="561" y="-165.4" font-family="Helvetica,sans-Serif" font-size="12.00">Documentation/Operator</text>
<text text-anchor="middle" x="636" y="-152.4" font-family="Helvetica,sans-Serif" font-size="12.00">&#45;Console/StderrRedirect.cpp</text>
</a>
</g>
</g>
<!-- Node2&#45;&gt;Node13 -->
<g id="edge12" class="edge"><title>Node2&#45;&gt;Node13</title>
<path fill="none" stroke="midnightblue" d="M636,-206.508C636,-197.303 636,-187.262 636,-179.147"/>
<polygon fill="midnightblue" stroke="midnightblue" points="632.5,-206.765 636,-216.765 639.5,-206.765 632.5,-206.765"/>
</g>
<!-- Node4 -->
<g id="node4" class="node"><title>Node4</title>
<g id="a_node4"><a xlink:href="../../d7/d4b/_documentation_2_operator-_console_2_app_thread_8cpp.html" target="_top" xlink:title="Documentation/Operator\l&#45;Console/AppThread.cpp">
<polygon fill="white" stroke="black" points="0,-1 0,-35 148,-35 148,-1 0,-1"/>
<text text-anchor="start" x="8" y="-21.4" font-family="Helvetica,sans-Serif" font-size="12.00">Documentation/Operator</text>
<text text-anchor="middle" x="74" y="-8.4" font-family="Helvetica,sans-Serif" font-size="12.00">&#45;Console/AppThread.cpp</text>
</a>
</g>
</g>
<!-- Node3&#45;&gt;Node4 -->
<g id="edge3" class="edge"><title>Node3&#45;&gt;Node4</title>
<path fill="none" stroke="midnightblue" d="M653.28,-83.8432C536.58,-76.6732 331.33,-61.6004 157,-36 154.089,-35.5726 151.127,-35.1082 148.139,-34.6152"/>
<polygon fill="midnightblue" stroke="midnightblue" points="653.407,-87.3573 663.601,-84.4709 653.832,-80.3703 653.407,-87.3573"/>
</g>
<!-- Node5 -->
<g id="node5" class="node"><title>Node5</title>
<g id="a_node5"><a xlink:href="../../de/d31/_documentation_2_operator-_console_2_critical_buf_8cpp.html" target="_top" xlink:title="Documentation/Operator\l&#45;Console/CriticalBuf.cpp">
<polygon fill="white" stroke="black" points="166.5,-1 166.5,-35 311.5,-35 311.5,-1 166.5,-1"/>
<text text-anchor="start" x="174.5" y="-21.4" font-family="Helvetica,sans-Serif" font-size="12.00">Documentation/Operator</text>
<text text-anchor="middle" x="239" y="-8.4" font-family="Helvetica,sans-Serif" font-size="12.00">&#45;Console/CriticalBuf.cpp</text>
</a>
</g>
</g>
<!-- Node3&#45;&gt;Node5 -->
<g id="edge4" class="edge"><title>Node3&#45;&gt;Node5</title>
<path fill="none" stroke="midnightblue" d="M653.565,-79.6703C566.84,-70.4739 434.29,-55.0523 320,-36 317.307,-35.5511 314.568,-35.0752 311.804,-34.5787"/>
<polygon fill="midnightblue" stroke="midnightblue" points="653.335,-83.1653 663.647,-80.7332 654.069,-76.2039 653.335,-83.1653"/>
</g>
<!-- Node6 -->
<g id="node6" class="node"><title>Node6</title>
<g id="a_node6"><a xlink:href="../../da/df9/_documentation_2_operator-_console_2_image_test_8cpp.html" target="_top" xlink:title="Documentation/Operator\l&#45;Console/ImageTest.cpp">
<polygon fill="white" stroke="black" points="329.5,-1 329.5,-35 474.5,-35 474.5,-1 329.5,-1"/>
<text text-anchor="start" x="337.5" y="-21.4" font-family="Helvetica,sans-Serif" font-size="12.00">Documentation/Operator</text>
<text text-anchor="middle" x="402" y="-8.4" font-family="Helvetica,sans-Serif" font-size="12.00">&#45;Console/ImageTest.cpp</text>
</a>
</g>
</g>
<!-- Node3&#45;&gt;Node6 -->
<g id="edge5" class="edge"><title>Node3&#45;&gt;Node6</title>
<path fill="none" stroke="midnightblue" d="M657.014,-70.9947C606.205,-60.796 541.542,-47.7625 484,-36 481.009,-35.3885 477.956,-34.763 474.873,-34.1298"/>
<polygon fill="midnightblue" stroke="midnightblue" points="656.492,-74.4595 666.985,-72.9954 657.869,-67.5963 656.492,-74.4595"/>
</g>
<!-- Node7 -->
<g id="node7" class="node"><title>Node7</title>
<g id="a_node7"><a xlink:href="../../d4/d9c/_msg_dialog_8cpp.html" target="_top" xlink:title="Documentation/Operator\l&#45;Console/MsgDialog.cpp">
<polygon fill="white" stroke="black" points="493,-1 493,-35 639,-35 639,-1 493,-1"/>
<text text-anchor="start" x="501" y="-21.4" font-family="Helvetica,sans-Serif" font-size="12.00">Documentation/Operator</text>
<text text-anchor="middle" x="566" y="-8.4" font-family="Helvetica,sans-Serif" font-size="12.00">&#45;Console/MsgDialog.cpp</text>
</a>
</g>
</g>
<!-- Node3&#45;&gt;Node7 -->
<g id="edge6" class="edge"><title>Node3&#45;&gt;Node7</title>
<path fill="none" stroke="midnightblue" d="M695.891,-69.234C667.998,-58.4468 633.903,-45.261 607.645,-35.1057"/>
<polygon fill="midnightblue" stroke="midnightblue" points="694.886,-72.5979 705.475,-72.9406 697.411,-66.0691 694.886,-72.5979"/>
</g>
<!-- Node8 -->
<g id="node8" class="node"><title>Node8</title>
<g id="a_node8"><a xlink:href="../../db/db5/_documentation_2_operator-_console_2_operator_console_8cpp.html" target="_top" xlink:title="Documentation/Operator\l&#45;Console/OperatorConsole.cpp">
<polygon fill="white" stroke="black" points="657.5,-1 657.5,-35 836.5,-35 836.5,-1 657.5,-1"/>
<text text-anchor="start" x="665.5" y="-21.4" font-family="Helvetica,sans-Serif" font-size="12.00">Documentation/Operator</text>
<text text-anchor="middle" x="747" y="-8.4" font-family="Helvetica,sans-Serif" font-size="12.00">&#45;Console/OperatorConsole.cpp</text>
</a>
</g>
</g>
<!-- Node3&#45;&gt;Node8 -->
<g id="edge7" class="edge"><title>Node3&#45;&gt;Node8</title>
<path fill="none" stroke="midnightblue" d="M747,-62.5079C747,-53.3027 747,-43.2615 747,-35.1473"/>
<polygon fill="midnightblue" stroke="midnightblue" points="743.5,-62.7646 747,-72.7646 750.5,-62.7647 743.5,-62.7646"/>
</g>
<!-- Node9 -->
<g id="node9" class="node"><title>Node9</title>
<g id="a_node9"><a xlink:href="../../dd/dcb/_documentation_2_operator-_console_2_operator_console_dlg_8cpp.html" target="_top" xlink:title="Documentation/Operator\l&#45;Console/OperatorConsoleDlg.cpp">
<polygon fill="white" stroke="black" points="854.5,-1 854.5,-35 1051.5,-35 1051.5,-1 854.5,-1"/>
<text text-anchor="start" x="862.5" y="-21.4" font-family="Helvetica,sans-Serif" font-size="12.00">Documentation/Operator</text>
<text text-anchor="middle" x="953" y="-8.4" font-family="Helvetica,sans-Serif" font-size="12.00">&#45;Console/OperatorConsoleDlg.cpp</text>
</a>
</g>
</g>
<!-- Node3&#45;&gt;Node9 -->
<g id="edge8" class="edge"><title>Node3&#45;&gt;Node9</title>
<path fill="none" stroke="midnightblue" d="M803.925,-69.6567C835.895,-58.7928 875.326,-45.3941 905.603,-35.1057"/>
<polygon fill="midnightblue" stroke="midnightblue" points="802.603,-66.4092 794.261,-72.9406 804.855,-73.037 802.603,-66.4092"/>
</g>
<!-- Node10 -->
<g id="node10" class="node"><title>Node10</title>
<g id="a_node10"><a xlink:href="../../dd/d14/_documentation_2_operator-_console_2_pass_fail_8cpp.html" target="_top" xlink:title="Documentation/Operator\l&#45;Console/PassFail.cpp">
<polygon fill="white" stroke="black" points="1069.5,-1 1069.5,-35 1214.5,-35 1214.5,-1 1069.5,-1"/>
<text text-anchor="start" x="1077.5" y="-21.4" font-family="Helvetica,sans-Serif" font-size="12.00">Documentation/Operator</text>
<text text-anchor="middle" x="1142" y="-8.4" font-family="Helvetica,sans-Serif" font-size="12.00">&#45;Console/PassFail.cpp</text>
</a>
</g>
</g>
<!-- Node3&#45;&gt;Node10 -->
<g id="edge9" class="edge"><title>Node3&#45;&gt;Node10</title>
<path fill="none" stroke="midnightblue" d="M840.308,-71.7962C938.74,-54.8847 965.298,-53.5217 1060,-36 1063,-35.4445 1066.06,-34.8658 1069.15,-34.2714"/>
<polygon fill="midnightblue" stroke="midnightblue" points="839.488,-68.386 830.23,-73.5386 840.681,-75.2837 839.488,-68.386"/>
</g>
<!-- Node11 -->
<g id="node11" class="node"><title>Node11</title>
<g id="a_node11"><a xlink:href="../../dd/d4b/_documentation_2_operator-_console_2_password_dialog_8cpp.html" target="_top" xlink:title="Documentation/Operator\l&#45;Console/PasswordDialog.cpp">
<polygon fill="white" stroke="black" points="1233,-1 1233,-35 1409,-35 1409,-1 1233,-1"/>
<text text-anchor="start" x="1241" y="-21.4" font-family="Helvetica,sans-Serif" font-size="12.00">Documentation/Operator</text>
<text text-anchor="middle" x="1321" y="-8.4" font-family="Helvetica,sans-Serif" font-size="12.00">&#45;Console/PasswordDialog.cpp</text>
</a>
</g>
</g>
<!-- Node3&#45;&gt;Node11 -->
<g id="edge10" class="edge"><title>Node3&#45;&gt;Node11</title>
<path fill="none" stroke="midnightblue" d="M840.249,-71.9003C1010.52,-48.7818 1056.33,-58.2346 1223,-36 1226.25,-35.5662 1229.56,-35.1031 1232.9,-34.6175"/>
<polygon fill="midnightblue" stroke="midnightblue" points="839.62,-68.4537 830.191,-73.2839 840.574,-75.3884 839.62,-68.4537"/>
</g>
<!-- Node12 -->
<g id="node12" class="node"><title>Node12</title>
<g id="a_node12"><a xlink:href="../../d3/d68/_documentation_2_operator-_console_2_setup_8cpp.html" target="_top" xlink:title="Documentation/Operator\l&#45;Console/Setup.cpp">
<polygon fill="white" stroke="black" points="1427.5,-1 1427.5,-35 1572.5,-35 1572.5,-1 1427.5,-1"/>
<text text-anchor="start" x="1435.5" y="-21.4" font-family="Helvetica,sans-Serif" font-size="12.00">Documentation/Operator</text>
<text text-anchor="middle" x="1500" y="-8.4" font-family="Helvetica,sans-Serif" font-size="12.00">&#45;Console/Setup.cpp</text>
</a>
</g>
</g>
<!-- Node3&#45;&gt;Node12 -->
<g id="edge11" class="edge"><title>Node3&#45;&gt;Node12</title>
<path fill="none" stroke="midnightblue" d="M840.163,-71.9525C1096.65,-41.2628 1165.7,-69.8216 1418,-36 1421.03,-35.5943 1424.11,-35.1408 1427.21,-34.6501"/>
<polygon fill="midnightblue" stroke="midnightblue" points="839.68,-68.4853 830.175,-73.166 840.524,-75.4342 839.68,-68.4853"/>
</g>
<!-- Node14&#45;&gt;Node3 -->
<g id="edge17" class="edge"><title>Node14&#45;&gt;Node3</title>
<path fill="none" stroke="midnightblue" d="M826.996,-208.98C819.491,-200.07 811.133,-189.757 804,-180 786.024,-155.411 767.394,-125.289 756.516,-107.148"/>
<polygon fill="midnightblue" stroke="midnightblue" points="824.437,-211.373 833.588,-216.712 829.763,-206.831 824.437,-211.373"/>
</g>
<!-- Node15 -->
<g id="node15" class="node"><title>Node15</title>
<g id="a_node15"><a xlink:href="../../df/d03/_documentation_2_operator-_console_2_stderr_thread_8h.html" target="_top" xlink:title="Documentation/Operator\l&#45;Console/StderrThread.h">
<polygon fill="white" stroke="black" points="813.5,-145 813.5,-179 958.5,-179 958.5,-145 813.5,-145"/>
<text text-anchor="start" x="821.5" y="-165.4" font-family="Helvetica,sans-Serif" font-size="12.00">Documentation/Operator</text>
<text text-anchor="middle" x="886" y="-152.4" font-family="Helvetica,sans-Serif" font-size="12.00">&#45;Console/StderrThread.h</text>
</a>
</g>
</g>
<!-- Node14&#45;&gt;Node15 -->
<g id="edge14" class="edge"><title>Node14&#45;&gt;Node15</title>
<path fill="none" stroke="midnightblue" d="M861.732,-207.704C866.903,-198.179 872.638,-187.614 877.234,-179.147"/>
<polygon fill="midnightblue" stroke="midnightblue" points="858.508,-206.306 856.813,-216.765 864.66,-209.646 858.508,-206.306"/>
</g>
<!-- Node17 -->
<g id="node17" class="node"><title>Node17</title>
<g id="a_node17"><a xlink:href="../../db/d23/_documentation_2_operator-_console_2_stdout_thread_8cpp.html" target="_top" xlink:title="Documentation/Operator\l&#45;Console/StdoutThread.cpp">
<polygon fill="white" stroke="black" points="977,-145 977,-179 1137,-179 1137,-145 977,-145"/>
<text text-anchor="start" x="985" y="-165.4" font-family="Helvetica,sans-Serif" font-size="12.00">Documentation/Operator</text>
<text text-anchor="middle" x="1057" y="-152.4" font-family="Helvetica,sans-Serif" font-size="12.00">&#45;Console/StdoutThread.cpp</text>
</a>
</g>
</g>
<!-- Node14&#45;&gt;Node17 -->
<g id="edge18" class="edge"><title>Node14&#45;&gt;Node17</title>
<path fill="none" stroke="midnightblue" d="M905.754,-213.657C938.19,-202.793 978.195,-189.394 1008.91,-179.106"/>
<polygon fill="midnightblue" stroke="midnightblue" points="904.32,-210.446 895.949,-216.941 906.543,-217.083 904.32,-210.446"/>
</g>
<!-- Node15&#45;&gt;Node3 -->
<g id="edge15" class="edge"><title>Node15&#45;&gt;Node3</title>
<path fill="none" stroke="midnightblue" d="M845.09,-140.398C824.075,-129.815 798.836,-117.104 779.222,-107.227"/>
<polygon fill="midnightblue" stroke="midnightblue" points="843.605,-143.569 854.111,-144.941 846.753,-137.317 843.605,-143.569"/>
</g>
<!-- Node16 -->
<g id="node16" class="node"><title>Node16</title>
<g id="a_node16"><a xlink:href="../../da/d05/_documentation_2_operator-_console_2_stderr_thread_8cpp.html" target="_top" xlink:title="Documentation/Operator\l&#45;Console/StderrThread.cpp">
<polygon fill="white" stroke="black" points="848,-73 848,-107 1006,-107 1006,-73 848,-73"/>
<text text-anchor="start" x="856" y="-93.4" font-family="Helvetica,sans-Serif" font-size="12.00">Documentation/Operator</text>
<text text-anchor="middle" x="927" y="-80.4" font-family="Helvetica,sans-Serif" font-size="12.00">&#45;Console/StderrThread.cpp</text>
</a>
</g>
</g>
<!-- Node15&#45;&gt;Node16 -->
<g id="edge16" class="edge"><title>Node15&#45;&gt;Node16</title>
<path fill="none" stroke="midnightblue" d="M900.642,-136.001C906.266,-126.4 912.531,-115.703 917.542,-107.147"/>
<polygon fill="midnightblue" stroke="midnightblue" points="897.543,-134.367 895.509,-144.765 903.583,-137.905 897.543,-134.367"/>
</g>
</g>
</svg>
