<?xml version="1.0" encoding="UTF-8" standalone="no"?>
<!DOCTYPE svg PUBLIC "-//W3C//DTD SVG 1.1//EN"
 "http://www.w3.org/Graphics/SVG/1.1/DTD/svg11.dtd">
<!-- Generated by graphviz version 2.34.0 (20130907.0111)
 -->
<!-- Title: CriticalBuf.h Pages: 1 -->
<svg width="1060pt" height="262pt"
 viewBox="0.00 0.00 1060.00 262.00" xmlns="http://www.w3.org/2000/svg" xmlns:xlink="http://www.w3.org/1999/xlink">
<g id="graph0" class="graph" transform="scale(1 1) rotate(0) translate(4 258)">
<title>CriticalBuf.h</title>
<polygon fill="white" stroke="white" points="-4,4 -4,-258 1056,-258 1056,4 -4,4"/>
<!-- Node1 -->
<g id="node1" class="node"><title>Node1</title>
<polygon fill="#bfbfbf" stroke="black" points="781,-232.5 781,-253.5 861,-253.5 861,-232.5 781,-232.5"/>
<text text-anchor="middle" x="821" y="-239.9" font-family="Helvetica,sans-Serif" font-size="12.00">CriticalBuf.h</text>
</g>
<!-- Node2 -->
<g id="node2" class="node"><title>Node2</title>
<g id="a_node2"><a xlink:href="../../d3/d62/_image_acquisition_8h.html" target="_top" xlink:title="ImageAcquisition.h">
<polygon fill="white" stroke="black" points="532,-174.5 532,-195.5 648,-195.5 648,-174.5 532,-174.5"/>
<text text-anchor="middle" x="590" y="-181.9" font-family="Helvetica,sans-Serif" font-size="12.00">ImageAcquisition.h</text>
</a>
</g>
</g>
<!-- Node1&#45;&gt;Node2 -->
<g id="edge1" class="edge"><title>Node1&#45;&gt;Node2</title>
<path fill="none" stroke="midnightblue" d="M771.695,-230.047C729.178,-219.74 668.594,-205.053 629.285,-195.524"/>
<polygon fill="midnightblue" stroke="midnightblue" points="771.009,-233.482 781.552,-232.437 772.658,-226.679 771.009,-233.482"/>
</g>
<!-- Node6 -->
<g id="node6" class="node"><title>Node6</title>
<g id="a_node6"><a xlink:href="../../d6/df7/_critical_buf_8cpp.html" target="_top" xlink:title="CriticalBuf.cpp">
<polygon fill="white" stroke="black" points="959.5,-0.5 959.5,-21.5 1052.5,-21.5 1052.5,-0.5 959.5,-0.5"/>
<text text-anchor="middle" x="1006" y="-7.9" font-family="Helvetica,sans-Serif" font-size="12.00">CriticalBuf.cpp</text>
</a>
</g>
</g>
<!-- Node1&#45;&gt;Node6 -->
<g id="edge26" class="edge"><title>Node1&#45;&gt;Node6</title>
<path fill="none" stroke="midnightblue" d="M844.115,-226.635C870.638,-208.103 914.174,-174.817 943,-138 973.305,-99.2939 994.859,-43.6932 1002.72,-21.5889"/>
<polygon fill="midnightblue" stroke="midnightblue" points="842.077,-223.789 835.818,-232.338 846.042,-229.558 842.077,-223.789"/>
</g>
<!-- Node3 -->
<g id="node3" class="node"><title>Node3</title>
<g id="a_node3"><a xlink:href="../../d1/d59/_file_acq_8h.html" target="_top" xlink:title="FileAcq.h">
<polygon fill="white" stroke="black" points="109,-116.5 109,-137.5 175,-137.5 175,-116.5 109,-116.5"/>
<text text-anchor="middle" x="142" y="-123.9" font-family="Helvetica,sans-Serif" font-size="12.00">FileAcq.h</text>
</a>
</g>
</g>
<!-- Node2&#45;&gt;Node3 -->
<g id="edge2" class="edge"><title>Node2&#45;&gt;Node3</title>
<path fill="none" stroke="midnightblue" d="M521.8,-178.808C440.84,-172.061 301.935,-158.643 184,-138 181.194,-137.509 178.296,-136.943 175.395,-136.336"/>
<polygon fill="midnightblue" stroke="midnightblue" points="521.61,-182.304 531.864,-179.637 522.185,-175.328 521.61,-182.304"/>
</g>
<!-- Node4 -->
<g id="node4" class="node"><title>Node4</title>
<g id="a_node4"><a xlink:href="../../da/de6/_operator_console_8h.html" target="_top" xlink:title="OperatorConsole.h">
<polygon fill="white" stroke="black" points="511,-58.5 511,-79.5 627,-79.5 627,-58.5 511,-58.5"/>
<text text-anchor="middle" x="569" y="-65.9" font-family="Helvetica,sans-Serif" font-size="12.00">OperatorConsole.h</text>
</a>
</g>
</g>
<!-- Node2&#45;&gt;Node4 -->
<g id="edge17" class="edge"><title>Node2&#45;&gt;Node4</title>
<path fill="none" stroke="midnightblue" d="M607.551,-166.688C619.21,-152.998 631.018,-133.364 623,-116 615.617,-100.011 599.632,-87.5319 586.96,-79.6299"/>
<polygon fill="midnightblue" stroke="midnightblue" points="604.68,-164.64 600.49,-174.371 609.834,-169.377 604.68,-164.64"/>
</g>
<!-- Node15 -->
<g id="node15" class="node"><title>Node15</title>
<g id="a_node15"><a xlink:href="../../d6/d06/_file_acquisition_8h.html" target="_top" xlink:title="FileAcquisition.h">
<polygon fill="white" stroke="black" points="193.5,-116.5 193.5,-137.5 296.5,-137.5 296.5,-116.5 193.5,-116.5"/>
<text text-anchor="middle" x="245" y="-123.9" font-family="Helvetica,sans-Serif" font-size="12.00">FileAcquisition.h</text>
</a>
</g>
</g>
<!-- Node2&#45;&gt;Node15 -->
<g id="edge14" class="edge"><title>Node2&#45;&gt;Node15</title>
<path fill="none" stroke="midnightblue" d="M521.755,-173.086C464.01,-163.826 379.068,-150.15 305,-138 302.291,-137.556 299.513,-137.098 296.708,-136.635"/>
<polygon fill="midnightblue" stroke="midnightblue" points="521.426,-176.578 531.854,-174.704 522.534,-169.666 521.426,-176.578"/>
</g>
<!-- Node17 -->
<g id="node17" class="node"><title>Node17</title>
<g id="a_node17"><a xlink:href="../../db/d0a/_imatest_lib_acq_8h.html" target="_top" xlink:title="ImatestLibAcq.h">
<polygon fill="white" stroke="black" points="670.5,-116.5 670.5,-137.5 771.5,-137.5 771.5,-116.5 670.5,-116.5"/>
<text text-anchor="middle" x="721" y="-123.9" font-family="Helvetica,sans-Serif" font-size="12.00">ImatestLibAcq.h</text>
</a>
</g>
</g>
<!-- Node2&#45;&gt;Node17 -->
<g id="edge18" class="edge"><title>Node2&#45;&gt;Node17</title>
<path fill="none" stroke="midnightblue" d="M621.853,-170.383C645.678,-160.199 677.657,-146.528 698.774,-137.501"/>
<polygon fill="midnightblue" stroke="midnightblue" points="620.339,-167.224 612.52,-174.373 623.091,-173.661 620.339,-167.224"/>
</g>
<!-- Node19 -->
<g id="node19" class="node"><title>Node19</title>
<g id="a_node19"><a xlink:href="../../d8/d4d/_simple_direct_show_acq_8h.html" target="_top" xlink:title="SimpleDirectShowAcq.h">
<polygon fill="white" stroke="black" points="790,-116.5 790,-137.5 934,-137.5 934,-116.5 790,-116.5"/>
<text text-anchor="middle" x="862" y="-123.9" font-family="Helvetica,sans-Serif" font-size="12.00">SimpleDirectShowAcq.h</text>
</a>
</g>
</g>
<!-- Node2&#45;&gt;Node19 -->
<g id="edge21" class="edge"><title>Node2&#45;&gt;Node19</title>
<path fill="none" stroke="midnightblue" d="M646.479,-172.372C696.612,-162.05 768.968,-147.154 815.742,-137.524"/>
<polygon fill="midnightblue" stroke="midnightblue" points="645.538,-168.992 636.449,-174.437 646.95,-175.848 645.538,-168.992"/>
</g>
<!-- Node21 -->
<g id="node21" class="node"><title>Node21</title>
<g id="a_node21"><a xlink:href="../../d6/d0d/_image_acquisition_8cpp.html" target="_top" xlink:title="ImageAcquisition.cpp">
<polygon fill="white" stroke="black" points="314.5,-116.5 314.5,-137.5 443.5,-137.5 443.5,-116.5 314.5,-116.5"/>
<text text-anchor="middle" x="379" y="-123.9" font-family="Helvetica,sans-Serif" font-size="12.00">ImageAcquisition.cpp</text>
</a>
</g>
</g>
<!-- Node2&#45;&gt;Node21 -->
<g id="edge24" class="edge"><title>Node2&#45;&gt;Node21</title>
<path fill="none" stroke="midnightblue" d="M543.73,-171.72C504.932,-161.423 450.324,-146.93 414.799,-137.501"/>
<polygon fill="midnightblue" stroke="midnightblue" points="543.165,-175.191 553.728,-174.373 544.96,-168.425 543.165,-175.191"/>
</g>
<!-- Node22 -->
<g id="node22" class="node"><title>Node22</title>
<g id="a_node22"><a xlink:href="../../d6/d6e/_imatest_lib_acquire_image_8h.html" target="_top" xlink:title="ImatestLibAcquireImage.h">
<polygon fill="white" stroke="black" points="462,-116.5 462,-137.5 614,-137.5 614,-116.5 462,-116.5"/>
<text text-anchor="middle" x="538" y="-123.9" font-family="Helvetica,sans-Serif" font-size="12.00">ImatestLibAcquireImage.h</text>
</a>
</g>
</g>
<!-- Node2&#45;&gt;Node22 -->
<g id="edge25" class="edge"><title>Node2&#45;&gt;Node22</title>
<path fill="none" stroke="midnightblue" d="M574.018,-166.788C565.122,-157.208 554.38,-145.64 546.954,-137.643"/>
<polygon fill="midnightblue" stroke="midnightblue" points="571.573,-169.299 580.942,-174.246 576.703,-164.536 571.573,-169.299"/>
</g>
<!-- Node3&#45;&gt;Node4 -->
<g id="edge3" class="edge"><title>Node3&#45;&gt;Node4</title>
<path fill="none" stroke="midnightblue" d="M185.576,-115.88C306.55,-94.7305 437.409,-81.4408 510.97,-74.8403"/>
<polygon fill="midnightblue" stroke="midnightblue" points="184.635,-112.492 175.398,-117.683 185.855,-119.385 184.635,-112.492"/>
</g>
<!-- Node14 -->
<g id="node14" class="node"><title>Node14</title>
<g id="a_node14"><a xlink:href="../../d2/d84/_file_acq_8cpp.html" target="_top" xlink:title="FileAcq.cpp">
<polygon fill="white" stroke="black" points="96,-58.5 96,-79.5 176,-79.5 176,-58.5 96,-58.5"/>
<text text-anchor="middle" x="136" y="-65.9" font-family="Helvetica,sans-Serif" font-size="12.00">FileAcq.cpp</text>
</a>
</g>
</g>
<!-- Node3&#45;&gt;Node14 -->
<g id="edge13" class="edge"><title>Node3&#45;&gt;Node14</title>
<path fill="none" stroke="midnightblue" d="M139.874,-106.158C138.909,-97.155 137.813,-86.9199 137.033,-79.6427"/>
<polygon fill="midnightblue" stroke="midnightblue" points="136.409,-106.675 140.955,-116.246 143.37,-105.93 136.409,-106.675"/>
</g>
<!-- Node5 -->
<g id="node5" class="node"><title>Node5</title>
<g id="a_node5"><a xlink:href="../../d3/d22/_app_thread_8cpp.html" target="_top" xlink:title="AppThread.cpp">
<polygon fill="white" stroke="black" points="731,-0.5 731,-21.5 829,-21.5 829,-0.5 731,-0.5"/>
<text text-anchor="middle" x="780" y="-7.9" font-family="Helvetica,sans-Serif" font-size="12.00">AppThread.cpp</text>
</a>
</g>
</g>
<!-- Node4&#45;&gt;Node5 -->
<g id="edge4" class="edge"><title>Node4&#45;&gt;Node5</title>
<path fill="none" stroke="midnightblue" d="M615.27,-55.7199C654.068,-45.4228 708.676,-30.9296 744.201,-21.5011"/>
<polygon fill="midnightblue" stroke="midnightblue" points="614.04,-52.4251 605.272,-58.3733 615.835,-59.1909 614.04,-52.4251"/>
</g>
<!-- Node4&#45;&gt;Node6 -->
<g id="edge5" class="edge"><title>Node4&#45;&gt;Node6</title>
<path fill="none" stroke="midnightblue" d="M637.395,-59.3113C640.981,-58.8654 644.533,-58.426 648,-58 782.163,-41.5124 816.299,-41.8894 950,-22 953.028,-21.5495 956.144,-21.0615 959.282,-20.5516"/>
<polygon fill="midnightblue" stroke="midnightblue" points="636.726,-55.8674 627.237,-60.5795 637.594,-62.8135 636.726,-55.8674"/>
</g>
<!-- Node7 -->
<g id="node7" class="node"><title>Node7</title>
<g id="a_node7"><a xlink:href="../../d8/d53/_image_test_8cpp.html" target="_top" xlink:title="ImageTest.cpp">
<polygon fill="white" stroke="black" points="847,-0.5 847,-21.5 941,-21.5 941,-0.5 847,-0.5"/>
<text text-anchor="middle" x="894" y="-7.9" font-family="Helvetica,sans-Serif" font-size="12.00">ImageTest.cpp</text>
</a>
</g>
</g>
<!-- Node4&#45;&gt;Node7 -->
<g id="edge6" class="edge"><title>Node4&#45;&gt;Node7</title>
<path fill="none" stroke="midnightblue" d="M635.312,-56.7998C689.773,-47.5678 768.909,-34.0761 838,-22 840.919,-21.4899 843.922,-20.962 846.951,-20.4275"/>
<polygon fill="midnightblue" stroke="midnightblue" points="634.713,-53.3513 625.438,-58.4727 635.882,-60.253 634.713,-53.3513"/>
</g>
<!-- Node8 -->
<g id="node8" class="node"><title>Node8</title>
<g id="a_node8"><a xlink:href="../../df/d0a/main_8cpp.html" target="_top" xlink:title="main.cpp">
<polygon fill="white" stroke="black" points="-0.5,-0.5 -0.5,-21.5 64.5,-21.5 64.5,-0.5 -0.5,-0.5"/>
<text text-anchor="middle" x="32" y="-7.9" font-family="Helvetica,sans-Serif" font-size="12.00">main.cpp</text>
</a>
</g>
</g>
<!-- Node4&#45;&gt;Node8 -->
<g id="edge7" class="edge"><title>Node4&#45;&gt;Node8</title>
<path fill="none" stroke="midnightblue" d="M500.837,-64.8492C404.852,-59.6943 224.629,-47.3815 73,-22 70.2541,-21.5403 67.4199,-20.9968 64.5843,-20.4044"/>
<polygon fill="midnightblue" stroke="midnightblue" points="500.817,-68.353 510.988,-65.3845 501.186,-61.3627 500.817,-68.353"/>
</g>
<!-- Node9 -->
<g id="node9" class="node"><title>Node9</title>
<g id="a_node9"><a xlink:href="../../de/da2/_operator_console_8cpp.html" target="_top" xlink:title="OperatorConsole.cpp">
<polygon fill="white" stroke="black" points="82.5,-0.5 82.5,-21.5 211.5,-21.5 211.5,-0.5 82.5,-0.5"/>
<text text-anchor="middle" x="147" y="-7.9" font-family="Helvetica,sans-Serif" font-size="12.00">OperatorConsole.cpp</text>
</a>
</g>
</g>
<!-- Node4&#45;&gt;Node9 -->
<g id="edge8" class="edge"><title>Node4&#45;&gt;Node9</title>
<path fill="none" stroke="midnightblue" d="M500.877,-59.1253C430.523,-49.9354 317.565,-35.1122 220,-22 217.338,-21.6422 214.621,-21.2758 211.876,-20.9046"/>
<polygon fill="midnightblue" stroke="midnightblue" points="500.572,-62.6151 510.941,-60.4394 501.479,-55.674 500.572,-62.6151"/>
</g>
<!-- Node10 -->
<g id="node10" class="node"><title>Node10</title>
<g id="a_node10"><a xlink:href="../../d8/d29/_operator_console_dlg_8cpp.html" target="_top" xlink:title="OperatorConsoleDlg.cpp">
<polygon fill="white" stroke="black" points="229.5,-0.5 229.5,-21.5 376.5,-21.5 376.5,-0.5 229.5,-0.5"/>
<text text-anchor="middle" x="303" y="-7.9" font-family="Helvetica,sans-Serif" font-size="12.00">OperatorConsoleDlg.cpp</text>
</a>
</g>
</g>
<!-- Node4&#45;&gt;Node10 -->
<g id="edge9" class="edge"><title>Node4&#45;&gt;Node10</title>
<path fill="none" stroke="midnightblue" d="M513.767,-56.372C464.74,-46.0505 393.98,-31.1537 348.237,-21.5237"/>
<polygon fill="midnightblue" stroke="midnightblue" points="513.069,-59.8016 523.575,-58.4369 514.511,-52.9518 513.069,-59.8016"/>
</g>
<!-- Node11 -->
<g id="node11" class="node"><title>Node11</title>
<g id="a_node11"><a xlink:href="../../d0/d57/_pass_fail_8cpp.html" target="_top" xlink:title="PassFail.cpp">
<polygon fill="white" stroke="black" points="395,-0.5 395,-21.5 481,-21.5 481,-0.5 395,-0.5"/>
<text text-anchor="middle" x="438" y="-7.9" font-family="Helvetica,sans-Serif" font-size="12.00">PassFail.cpp</text>
</a>
</g>
</g>
<!-- Node4&#45;&gt;Node11 -->
<g id="edge10" class="edge"><title>Node4&#45;&gt;Node11</title>
<path fill="none" stroke="midnightblue" d="M537.147,-54.3833C513.322,-44.1985 481.343,-30.5284 460.226,-21.5011"/>
<polygon fill="midnightblue" stroke="midnightblue" points="535.909,-57.6608 546.48,-58.3733 538.661,-51.2242 535.909,-57.6608"/>
</g>
<!-- Node12 -->
<g id="node12" class="node"><title>Node12</title>
<g id="a_node12"><a xlink:href="../../da/d46/_password_dialog_8cpp.html" target="_top" xlink:title="PasswordDialog.cpp">
<polygon fill="white" stroke="black" points="499,-0.5 499,-21.5 625,-21.5 625,-0.5 499,-0.5"/>
<text text-anchor="middle" x="562" y="-7.9" font-family="Helvetica,sans-Serif" font-size="12.00">PasswordDialog.cpp</text>
</a>
</g>
</g>
<!-- Node4&#45;&gt;Node12 -->
<g id="edge11" class="edge"><title>Node4&#45;&gt;Node12</title>
<path fill="none" stroke="midnightblue" d="M566.52,-48.1575C565.394,-39.155 564.115,-28.9199 563.205,-21.6427"/>
<polygon fill="midnightblue" stroke="midnightblue" points="563.067,-48.7569 567.781,-58.2455 570.013,-47.8886 563.067,-48.7569"/>
</g>
<!-- Node13 -->
<g id="node13" class="node"><title>Node13</title>
<g id="a_node13"><a xlink:href="../../d5/d27/_setup_8cpp.html" target="_top" xlink:title="Setup.cpp">
<polygon fill="white" stroke="black" points="643,-0.5 643,-21.5 713,-21.5 713,-0.5 643,-0.5"/>
<text text-anchor="middle" x="678" y="-7.9" font-family="Helvetica,sans-Serif" font-size="12.00">Setup.cpp</text>
</a>
</g>
</g>
<!-- Node4&#45;&gt;Node13 -->
<g id="edge12" class="edge"><title>Node4&#45;&gt;Node13</title>
<path fill="none" stroke="midnightblue" d="M597.034,-53.5971C616.575,-43.558 642.109,-30.4393 659.231,-21.6427"/>
<polygon fill="midnightblue" stroke="midnightblue" points="595.282,-50.5625 587.986,-58.2455 598.481,-56.7889 595.282,-50.5625"/>
</g>
<!-- Node15&#45;&gt;Node4 -->
<g id="edge15" class="edge"><title>Node15&#45;&gt;Node4</title>
<path fill="none" stroke="midnightblue" d="M306.769,-115.324C366.612,-104.981 456.514,-89.442 513.965,-79.5122"/>
<polygon fill="midnightblue" stroke="midnightblue" points="305.955,-111.913 296.697,-117.065 307.147,-118.81 305.955,-111.913"/>
</g>
<!-- Node16 -->
<g id="node16" class="node"><title>Node16</title>
<g id="a_node16"><a xlink:href="../../dd/dbb/_file_acquisition_8cpp.html" target="_top" xlink:title="FileAcquisition.cpp">
<polygon fill="white" stroke="black" points="194,-58.5 194,-79.5 310,-79.5 310,-58.5 194,-58.5"/>
<text text-anchor="middle" x="252" y="-65.9" font-family="Helvetica,sans-Serif" font-size="12.00">FileAcquisition.cpp</text>
</a>
</g>
</g>
<!-- Node15&#45;&gt;Node16 -->
<g id="edge16" class="edge"><title>Node15&#45;&gt;Node16</title>
<path fill="none" stroke="midnightblue" d="M247.48,-106.158C248.606,-97.155 249.885,-86.9199 250.795,-79.6427"/>
<polygon fill="midnightblue" stroke="midnightblue" points="243.987,-105.889 246.219,-116.246 250.933,-106.757 243.987,-105.889"/>
</g>
<!-- Node17&#45;&gt;Node4 -->
<g id="edge19" class="edge"><title>Node17&#45;&gt;Node4</title>
<path fill="none" stroke="midnightblue" d="M685.141,-112.789C657.388,-102.564 619.618,-88.6488 594.789,-79.5011"/>
<polygon fill="midnightblue" stroke="midnightblue" points="684.277,-116.2 694.87,-116.373 686.697,-109.632 684.277,-116.2"/>
</g>
<!-- Node18 -->
<g id="node18" class="node"><title>Node18</title>
<g id="a_node18"><a xlink:href="../../d5/d85/_imatest_lib_acq_8cpp.html" target="_top" xlink:title="ImatestLibAcq.cpp">
<polygon fill="white" stroke="black" points="657,-58.5 657,-79.5 771,-79.5 771,-58.5 657,-58.5"/>
<text text-anchor="middle" x="714" y="-65.9" font-family="Helvetica,sans-Serif" font-size="12.00">ImatestLibAcq.cpp</text>
</a>
</g>
</g>
<!-- Node17&#45;&gt;Node18 -->
<g id="edge20" class="edge"><title>Node17&#45;&gt;Node18</title>
<path fill="none" stroke="midnightblue" d="M718.52,-106.158C717.394,-97.155 716.115,-86.9199 715.205,-79.6427"/>
<polygon fill="midnightblue" stroke="midnightblue" points="715.067,-106.757 719.781,-116.246 722.013,-105.889 715.067,-106.757"/>
</g>
<!-- Node19&#45;&gt;Node4 -->
<g id="edge22" class="edge"><title>Node19&#45;&gt;Node4</title>
<path fill="none" stroke="midnightblue" d="M801.836,-114.501C747.808,-104.175 669.425,-89.1939 618.829,-79.5237"/>
<polygon fill="midnightblue" stroke="midnightblue" points="801.485,-117.997 811.964,-116.437 802.799,-111.122 801.485,-117.997"/>
</g>
<!-- Node20 -->
<g id="node20" class="node"><title>Node20</title>
<g id="a_node20"><a xlink:href="../../de/d1e/_simple_direct_show_acq_8cpp.html" target="_top" xlink:title="SimpleDirectShowAcq.cpp">
<polygon fill="white" stroke="black" points="789,-58.5 789,-79.5 947,-79.5 947,-58.5 789,-58.5"/>
<text text-anchor="middle" x="868" y="-65.9" font-family="Helvetica,sans-Serif" font-size="12.00">SimpleDirectShowAcq.cpp</text>
</a>
</g>
</g>
<!-- Node19&#45;&gt;Node20 -->
<g id="edge23" class="edge"><title>Node19&#45;&gt;Node20</title>
<path fill="none" stroke="midnightblue" d="M864.126,-106.158C865.091,-97.155 866.187,-86.9199 866.967,-79.6427"/>
<polygon fill="midnightblue" stroke="midnightblue" points="860.63,-105.93 863.045,-116.246 867.591,-106.675 860.63,-105.93"/>
</g>
</g>
</svg>
