<?xml version="1.0" encoding="UTF-8" standalone="no"?>
<!DOCTYPE svg PUBLIC "-//W3C//DTD SVG 1.1//EN"
 "http://www.w3.org/Graphics/SVG/1.1/DTD/svg11.dtd">
<!-- Generated by graphviz version 2.34.0 (20130907.0111)
 -->
<!-- Title: jsonhelpers.cpp Pages: 1 -->
<svg width="1088pt" height="610pt"
 viewBox="0.00 0.00 1088.00 610.00" xmlns="http://www.w3.org/2000/svg" xmlns:xlink="http://www.w3.org/1999/xlink">
<g id="graph0" class="graph" transform="scale(1 1) rotate(0) translate(4 606)">
<title>jsonhelpers.cpp</title>
<polygon fill="white" stroke="white" points="-4,4 -4,-606 1084,-606 1084,4 -4,4"/>
<!-- Node1 -->
<g id="node1" class="node"><title>Node1</title>
<polygon fill="#bfbfbf" stroke="black" points="96,-580.5 96,-601.5 194,-601.5 194,-580.5 96,-580.5"/>
<text text-anchor="middle" x="145" y="-587.9" font-family="Helvetica,sans-Serif" font-size="12.00">jsonhelpers.cpp</text>
</g>
<!-- Node2 -->
<g id="node2" class="node"><title>Node2</title>
<polygon fill="white" stroke="#bfbfbf" points="0,-522.5 0,-543.5 62,-543.5 62,-522.5 0,-522.5"/>
<text text-anchor="middle" x="31" y="-529.9" font-family="Helvetica,sans-Serif" font-size="12.00">iostream</text>
</g>
<!-- Node1&#45;&gt;Node2 -->
<g id="edge1" class="edge"><title>Node1&#45;&gt;Node2</title>
<path fill="none" stroke="midnightblue" d="M125.403,-580.373C107.267,-571.464 80.0865,-558.113 59.5413,-548.02"/>
<polygon fill="midnightblue" stroke="midnightblue" points="60.8603,-544.769 50.3416,-543.501 57.7739,-551.052 60.8603,-544.769"/>
</g>
<!-- Node3 -->
<g id="node3" class="node"><title>Node3</title>
<polygon fill="white" stroke="#bfbfbf" points="80.5,-522.5 80.5,-543.5 147.5,-543.5 147.5,-522.5 80.5,-522.5"/>
<text text-anchor="middle" x="114" y="-529.9" font-family="Helvetica,sans-Serif" font-size="12.00">exception</text>
</g>
<!-- Node1&#45;&gt;Node3 -->
<g id="edge2" class="edge"><title>Node1&#45;&gt;Node3</title>
<path fill="none" stroke="midnightblue" d="M139.6,-580.246C135.377,-572.617 129.383,-561.788 124.256,-552.527"/>
<polygon fill="midnightblue" stroke="midnightblue" points="127.243,-550.696 119.338,-543.643 121.119,-554.087 127.243,-550.696"/>
</g>
<!-- Node4 -->
<g id="node4" class="node"><title>Node4</title>
<polygon fill="white" stroke="#bfbfbf" points="210.5,-174.5 210.5,-195.5 255.5,-195.5 255.5,-174.5 210.5,-174.5"/>
<text text-anchor="middle" x="233" y="-181.9" font-family="Helvetica,sans-Serif" font-size="12.00">string</text>
</g>
<!-- Node1&#45;&gt;Node4 -->
<g id="edge3" class="edge"><title>Node1&#45;&gt;Node4</title>
<path fill="none" stroke="midnightblue" d="M149.442,-580.479C158.013,-561.205 176,-515.995 176,-476 176,-476 176,-476 176,-300 176,-262.465 201.026,-224.62 217.913,-203.356"/>
<polygon fill="midnightblue" stroke="midnightblue" points="220.683,-205.498 224.343,-195.555 215.282,-201.045 220.683,-205.498"/>
</g>
<!-- Node5 -->
<g id="node5" class="node"><title>Node5</title>
<g id="a_node5"><a xlink:href="../../d1/d7d/libjson_8h.html" target="_top" xlink:title="libjson.h">
<polygon fill="white" stroke="black" points="429.5,-522.5 429.5,-543.5 488.5,-543.5 488.5,-522.5 429.5,-522.5"/>
<text text-anchor="middle" x="459" y="-529.9" font-family="Helvetica,sans-Serif" font-size="12.00">libjson.h</text>
</a>
</g>
</g>
<!-- Node1&#45;&gt;Node5 -->
<g id="edge4" class="edge"><title>Node1&#45;&gt;Node5</title>
<path fill="none" stroke="midnightblue" d="M194.063,-581.25C256.091,-570.188 361.687,-551.355 419.049,-541.125"/>
<polygon fill="midnightblue" stroke="midnightblue" points="419.946,-544.52 429.177,-539.319 418.717,-537.629 419.946,-544.52"/>
</g>
<!-- Node5&#45;&gt;Node4 -->
<g id="edge50" class="edge"><title>Node5&#45;&gt;Node4</title>
<path fill="none" stroke="midnightblue" d="M429.447,-531.512C364.285,-528.713 214,-512.062 214,-418 214,-418 214,-418 214,-300 214,-266.376 222.142,-227.923 227.766,-205.372"/>
<polygon fill="midnightblue" stroke="midnightblue" points="231.16,-206.227 230.278,-195.669 224.383,-204.472 231.16,-206.227"/>
</g>
<!-- Node6 -->
<g id="node6" class="node"><title>Node6</title>
<g id="a_node6"><a xlink:href="../../db/d7e/_j_s_o_n_2_j_s_o_n_defs_8h.html" target="_top" xlink:title="JSON\\JSONDefs.h">
<polygon fill="white" stroke="black" points="618,-116.5 618,-137.5 734,-137.5 734,-116.5 618,-116.5"/>
<text text-anchor="middle" x="676" y="-123.9" font-family="Helvetica,sans-Serif" font-size="12.00">JSON\JSONDefs.h</text>
</a>
</g>
</g>
<!-- Node5&#45;&gt;Node6 -->
<g id="edge5" class="edge"><title>Node5&#45;&gt;Node6</title>
<path fill="none" stroke="midnightblue" d="M488.534,-529.754C611.947,-519.982 1080,-478.904 1080,-418 1080,-418 1080,-418 1080,-242 1080,-173.114 859.693,-143.801 744.452,-133.179"/>
<polygon fill="midnightblue" stroke="midnightblue" points="744.587,-129.677 734.314,-132.268 743.96,-136.649 744.587,-129.677"/>
</g>
<!-- Node13 -->
<g id="node13" class="node"><title>Node13</title>
<g id="a_node13"><a xlink:href="../../d0/df5/_j_s_o_n_2_j_s_o_n_node_8h.html" target="_top" xlink:title="JSON\\JSONNode.h">
<polygon fill="white" stroke="black" points="470,-406.5 470,-427.5 590,-427.5 590,-406.5 470,-406.5"/>
<text text-anchor="middle" x="530" y="-413.9" font-family="Helvetica,sans-Serif" font-size="12.00">JSON\JSONNode.h</text>
</a>
</g>
</g>
<!-- Node5&#45;&gt;Node13 -->
<g id="edge13" class="edge"><title>Node5&#45;&gt;Node13</title>
<path fill="none" stroke="midnightblue" d="M459.991,-522.059C461.757,-508.144 466.419,-482.492 478,-464 485.397,-452.189 496.72,-441.663 506.914,-433.671"/>
<polygon fill="midnightblue" stroke="midnightblue" points="509.165,-436.358 515.1,-427.581 504.987,-430.742 509.165,-436.358"/>
</g>
<!-- Node22 -->
<g id="node22" class="node"><title>Node22</title>
<polygon fill="white" stroke="#bfbfbf" points="312.5,-348.5 312.5,-369.5 379.5,-369.5 379.5,-348.5 312.5,-348.5"/>
<text text-anchor="middle" x="346" y="-355.9" font-family="Helvetica,sans-Serif" font-size="12.00">stdexcept</text>
</g>
<!-- Node5&#45;&gt;Node22 -->
<g id="edge48" class="edge"><title>Node5&#45;&gt;Node22</title>
<path fill="none" stroke="midnightblue" d="M452.601,-522.26C434.343,-494.469 381.789,-414.475 357.979,-378.233"/>
<polygon fill="midnightblue" stroke="midnightblue" points="360.745,-376.069 352.329,-369.633 354.895,-379.913 360.745,-376.069"/>
</g>
<!-- Node24 -->
<g id="node24" class="node"><title>Node24</title>
<g id="a_node24"><a xlink:href="../../d4/d6e/_j_s_o_n_2_j_s_o_n___base64_8h.html" target="_top" xlink:title="JSON_Base64.h">
<polygon fill="white" stroke="black" points="242.5,-290.5 242.5,-311.5 347.5,-311.5 347.5,-290.5 242.5,-290.5"/>
<text text-anchor="middle" x="295" y="-297.9" font-family="Helvetica,sans-Serif" font-size="12.00">JSON_Base64.h</text>
</a>
</g>
</g>
<!-- Node5&#45;&gt;Node24 -->
<g id="edge47" class="edge"><title>Node5&#45;&gt;Node24</title>
<path fill="none" stroke="midnightblue" d="M429.419,-529.499C399.937,-525.395 355.485,-514.565 330,-486 288.409,-439.383 289.532,-359.102 292.682,-321.942"/>
<polygon fill="midnightblue" stroke="midnightblue" points="296.176,-322.176 293.679,-311.879 289.21,-321.485 296.176,-322.176"/>
</g>
<!-- Node25 -->
<g id="node25" class="node"><title>Node25</title>
<g id="a_node25"><a xlink:href="../../d0/d4d/_j_s_o_n_2_j_s_o_n_worker_8h.html" target="_top" xlink:title="JSON\\JSONWorker.h">
<polygon fill="white" stroke="black" points="487,-464.5 487,-485.5 617,-485.5 617,-464.5 487,-464.5"/>
<text text-anchor="middle" x="552" y="-471.9" font-family="Helvetica,sans-Serif" font-size="12.00">JSON\JSONWorker.h</text>
</a>
</g>
</g>
<!-- Node5&#45;&gt;Node25 -->
<g id="edge37" class="edge"><title>Node5&#45;&gt;Node25</title>
<path fill="none" stroke="midnightblue" d="M475.199,-522.246C489.602,-513.573 510.873,-500.765 527.38,-490.825"/>
<polygon fill="midnightblue" stroke="midnightblue" points="529.225,-493.8 535.986,-485.643 525.614,-487.803 529.225,-493.8"/>
</g>
<!-- Node26 -->
<g id="node26" class="node"><title>Node26</title>
<g id="a_node26"><a xlink:href="../../de/d23/_j_s_o_n_2_j_s_o_n_validator_8h.html" target="_top" xlink:title="JSON\\JSONValidator.h">
<polygon fill="white" stroke="black" points="764.5,-406.5 764.5,-427.5 903.5,-427.5 903.5,-406.5 764.5,-406.5"/>
<text text-anchor="middle" x="834" y="-413.9" font-family="Helvetica,sans-Serif" font-size="12.00">JSON\JSONValidator.h</text>
</a>
</g>
</g>
<!-- Node5&#45;&gt;Node26 -->
<g id="edge40" class="edge"><title>Node5&#45;&gt;Node26</title>
<path fill="none" stroke="midnightblue" d="M488.638,-530.717C559.082,-527.211 734.351,-515.673 784,-486 802.985,-474.653 816.965,-453.048 825.241,-437.225"/>
<polygon fill="midnightblue" stroke="midnightblue" points="828.589,-438.348 829.852,-427.829 822.305,-435.264 828.589,-438.348"/>
</g>
<!-- Node27 -->
<g id="node27" class="node"><title>Node27</title>
<g id="a_node27"><a xlink:href="../../d8/dd2/_j_s_o_n_2_j_s_o_n_stream_8h.html" target="_top" xlink:title="JSON\\JSONStream.h">
<polygon fill="white" stroke="black" points="922,-406.5 922,-427.5 1052,-427.5 1052,-406.5 922,-406.5"/>
<text text-anchor="middle" x="987" y="-413.9" font-family="Helvetica,sans-Serif" font-size="12.00">JSON\JSONStream.h</text>
</a>
</g>
</g>
<!-- Node5&#45;&gt;Node27 -->
<g id="edge42" class="edge"><title>Node5&#45;&gt;Node27</title>
<path fill="none" stroke="midnightblue" d="M488.942,-530.431C549.98,-526.717 692.845,-515.387 809,-486 862.708,-472.412 922.321,-447.502 957.13,-431.897"/>
<polygon fill="midnightblue" stroke="midnightblue" points="959.019,-434.884 966.683,-427.568 956.13,-428.508 959.019,-434.884"/>
</g>
<!-- Node28 -->
<g id="node28" class="node"><title>Node28</title>
<g id="a_node28"><a xlink:href="../../da/de9/_j_s_o_n_2_j_s_o_n_preparse_8h.html" target="_top" xlink:title="JSON\\JSONPreparse.h">
<polygon fill="white" stroke="black" points="635,-464.5 635,-485.5 775,-485.5 775,-464.5 635,-464.5"/>
<text text-anchor="middle" x="705" y="-471.9" font-family="Helvetica,sans-Serif" font-size="12.00">JSON\JSONPreparse.h</text>
</a>
</g>
</g>
<!-- Node5&#45;&gt;Node28 -->
<g id="edge44" class="edge"><title>Node5&#45;&gt;Node28</title>
<path fill="none" stroke="midnightblue" d="M488.673,-525.245C529.322,-515.992 602.958,-499.229 652.905,-487.859"/>
<polygon fill="midnightblue" stroke="midnightblue" points="653.899,-491.222 662.873,-485.59 652.345,-484.397 653.899,-491.222"/>
</g>
<!-- Node29 -->
<g id="node29" class="node"><title>Node29</title>
<polygon fill="white" stroke="#bfbfbf" points="339.5,-464.5 339.5,-485.5 392.5,-485.5 392.5,-464.5 339.5,-464.5"/>
<text text-anchor="middle" x="366" y="-471.9" font-family="Helvetica,sans-Serif" font-size="12.00">cwchar</text>
</g>
<!-- Node5&#45;&gt;Node29 -->
<g id="edge49" class="edge"><title>Node5&#45;&gt;Node29</title>
<path fill="none" stroke="midnightblue" d="M442.801,-522.246C428.398,-513.573 407.127,-500.765 390.62,-490.825"/>
<polygon fill="midnightblue" stroke="midnightblue" points="392.386,-487.803 382.014,-485.643 388.775,-493.8 392.386,-487.803"/>
</g>
<!-- Node7 -->
<g id="node7" class="node"><title>Node7</title>
<g id="a_node7"><a xlink:href="../../dc/d13/_j_s_o_n_options_8h.html" target="_top" xlink:title="..\\JSONOptions.h">
<polygon fill="white" stroke="black" points="367.5,-0.5 367.5,-21.5 474.5,-21.5 474.5,-0.5 367.5,-0.5"/>
<text text-anchor="middle" x="421" y="-7.9" font-family="Helvetica,sans-Serif" font-size="12.00">..\JSONOptions.h</text>
</a>
</g>
</g>
<!-- Node6&#45;&gt;Node7 -->
<g id="edge6" class="edge"><title>Node6&#45;&gt;Node7</title>
<path fill="none" stroke="midnightblue" d="M617.888,-121.602C556.58,-115.791 465.382,-103.429 440,-80 426.809,-67.8237 422.492,-47.3241 421.213,-32.0096"/>
<polygon fill="midnightblue" stroke="midnightblue" points="424.707,-31.7901 420.736,-21.9677 417.715,-32.1228 424.707,-31.7901"/>
</g>
<!-- Node8 -->
<g id="node8" class="node"><title>Node8</title>
<g id="a_node8"><a xlink:href="../../d9/d62/_j_s_o_n_2_j_s_o_n_defs_2_unknown___c_8h.html" target="_top" xlink:title="JSONDefs\\Unknown_C.h">
<polygon fill="white" stroke="black" points="449,-58.5 449,-79.5 597,-79.5 597,-58.5 449,-58.5"/>
<text text-anchor="middle" x="523" y="-65.9" font-family="Helvetica,sans-Serif" font-size="12.00">JSONDefs\Unknown_C.h</text>
</a>
</g>
</g>
<!-- Node6&#45;&gt;Node8 -->
<g id="edge7" class="edge"><title>Node6&#45;&gt;Node8</title>
<path fill="none" stroke="midnightblue" d="M649.698,-116.373C624.587,-107.182 586.556,-93.2624 558.713,-83.0713"/>
<polygon fill="midnightblue" stroke="midnightblue" points="559.552,-79.6516 548.958,-79.5011 557.146,-86.2251 559.552,-79.6516"/>
</g>
<!-- Node9 -->
<g id="node9" class="node"><title>Node9</title>
<g id="a_node9"><a xlink:href="../../de/dbe/_j_s_o_n_2_j_s_o_n_defs_2_g_n_u___c_8h.html" target="_top" xlink:title="JSONDefs\\GNU_C.h">
<polygon fill="white" stroke="black" points="615,-58.5 615,-79.5 741,-79.5 741,-58.5 615,-58.5"/>
<text text-anchor="middle" x="678" y="-65.9" font-family="Helvetica,sans-Serif" font-size="12.00">JSONDefs\GNU_C.h</text>
</a>
</g>
</g>
<!-- Node6&#45;&gt;Node9 -->
<g id="edge8" class="edge"><title>Node6&#45;&gt;Node9</title>
<path fill="none" stroke="midnightblue" d="M676.348,-116.246C676.609,-108.938 676.975,-98.6944 677.296,-89.7046"/>
<polygon fill="midnightblue" stroke="midnightblue" points="680.796,-89.7613 677.656,-79.6427 673.801,-89.5113 680.796,-89.7613"/>
</g>
<!-- Node10 -->
<g id="node10" class="node"><title>Node10</title>
<g id="a_node10"><a xlink:href="../../d6/d90/_j_s_o_n_2_j_s_o_n_defs_2_visual___c_8h.html" target="_top" xlink:title="JSONDefs\\Visual_C.h">
<polygon fill="white" stroke="black" points="759.5,-58.5 759.5,-79.5 892.5,-79.5 892.5,-58.5 759.5,-58.5"/>
<text text-anchor="middle" x="826" y="-65.9" font-family="Helvetica,sans-Serif" font-size="12.00">JSONDefs\Visual_C.h</text>
</a>
</g>
</g>
<!-- Node6&#45;&gt;Node10 -->
<g id="edge9" class="edge"><title>Node6&#45;&gt;Node10</title>
<path fill="none" stroke="midnightblue" d="M701.786,-116.373C726.405,-107.182 763.69,-93.2624 790.987,-83.0713"/>
<polygon fill="midnightblue" stroke="midnightblue" points="792.406,-86.2777 800.551,-79.5011 789.958,-79.7198 792.406,-86.2777"/>
</g>
<!-- Node11 -->
<g id="node11" class="node"><title>Node11</title>
<g id="a_node11"><a xlink:href="../../d7/d67/_j_s_o_n_2_j_s_o_n_defs_2_strings___defs_8h.html" target="_top" xlink:title="JSONDefs\\Strings_Defs.h">
<polygon fill="white" stroke="black" points="910.5,-58.5 910.5,-79.5 1063.5,-79.5 1063.5,-58.5 910.5,-58.5"/>
<text text-anchor="middle" x="987" y="-65.9" font-family="Helvetica,sans-Serif" font-size="12.00">JSONDefs\Strings_Defs.h</text>
</a>
</g>
</g>
<!-- Node6&#45;&gt;Node11 -->
<g id="edge10" class="edge"><title>Node6&#45;&gt;Node11</title>
<path fill="none" stroke="midnightblue" d="M729.109,-116.437C783.117,-106.712 866.79,-91.6456 924.086,-81.3285"/>
<polygon fill="midnightblue" stroke="midnightblue" points="924.888,-84.7405 934.11,-79.5237 923.648,-77.8513 924.888,-84.7405"/>
</g>
<!-- Node11&#45;&gt;Node7 -->
<g id="edge11" class="edge"><title>Node11&#45;&gt;Node7</title>
<path fill="none" stroke="midnightblue" d="M910.115,-58.9818C907.037,-58.6455 903.989,-58.317 901,-58 751.954,-42.1943 576.608,-25.9973 484.65,-17.6871"/>
<polygon fill="midnightblue" stroke="midnightblue" points="484.94,-14.1991 474.666,-16.7862 484.311,-21.1708 484.94,-14.1991"/>
</g>
<!-- Node12 -->
<g id="node12" class="node"><title>Node12</title>
<polygon fill="white" stroke="#bfbfbf" points="960,-0.5 960,-21.5 1014,-21.5 1014,-0.5 960,-0.5"/>
<text text-anchor="middle" x="987" y="-7.9" font-family="Helvetica,sans-Serif" font-size="12.00">string.h</text>
</g>
<!-- Node11&#45;&gt;Node12 -->
<g id="edge12" class="edge"><title>Node11&#45;&gt;Node12</title>
<path fill="none" stroke="midnightblue" d="M987,-58.2455C987,-50.9382 987,-40.6944 987,-31.7046"/>
<polygon fill="midnightblue" stroke="midnightblue" points="990.5,-31.6426 987,-21.6427 983.5,-31.6427 990.5,-31.6426"/>
</g>
<!-- Node14 -->
<g id="node14" class="node"><title>Node14</title>
<g id="a_node14"><a xlink:href="../../d6/dbe/_j_s_o_n_2_j_s_o_n_debug_8h.html" target="_top" xlink:title="JSONDebug.h">
<polygon fill="white" stroke="black" points="628,-174.5 628,-195.5 720,-195.5 720,-174.5 628,-174.5"/>
<text text-anchor="middle" x="674" y="-181.9" font-family="Helvetica,sans-Serif" font-size="12.00">JSONDebug.h</text>
</a>
</g>
</g>
<!-- Node13&#45;&gt;Node14 -->
<g id="edge14" class="edge"><title>Node13&#45;&gt;Node14</title>
<path fill="none" stroke="midnightblue" d="M582.731,-406.419C632.589,-394.166 704.213,-367.485 735,-312 756.174,-273.84 717.632,-227.22 692.729,-202.784"/>
<polygon fill="midnightblue" stroke="midnightblue" points="694.883,-200.004 685.216,-195.668 690.07,-205.086 694.883,-200.004"/>
</g>
<!-- Node15 -->
<g id="node15" class="node"><title>Node15</title>
<g id="a_node15"><a xlink:href="../../da/d1f/_j_s_o_n_2internal_j_s_o_n_node_8h.html" target="_top" xlink:title="internalJSONNode.h">
<polygon fill="white" stroke="black" points="510.5,-348.5 510.5,-369.5 633.5,-369.5 633.5,-348.5 510.5,-348.5"/>
<text text-anchor="middle" x="572" y="-355.9" font-family="Helvetica,sans-Serif" font-size="12.00">internalJSONNode.h</text>
</a>
</g>
</g>
<!-- Node13&#45;&gt;Node15 -->
<g id="edge16" class="edge"><title>Node13&#45;&gt;Node15</title>
<path fill="none" stroke="midnightblue" d="M537.316,-406.246C543.218,-398.376 551.674,-387.101 558.759,-377.654"/>
<polygon fill="midnightblue" stroke="midnightblue" points="561.568,-379.743 564.768,-369.643 555.968,-375.543 561.568,-379.743"/>
</g>
<!-- Node13&#45;&gt;Node22 -->
<g id="edge32" class="edge"><title>Node13&#45;&gt;Node22</title>
<path fill="none" stroke="midnightblue" d="M498.369,-406.373C467.64,-397.021 420.824,-382.773 387.198,-372.538"/>
<polygon fill="midnightblue" stroke="midnightblue" points="387.804,-369.064 377.218,-369.501 385.766,-375.761 387.804,-369.064"/>
</g>
<!-- Node23 -->
<g id="node23" class="node"><title>Node23</title>
<polygon fill="white" stroke="#bfbfbf" points="436,-348.5 436,-369.5 492,-369.5 492,-348.5 436,-348.5"/>
<text text-anchor="middle" x="464" y="-355.9" font-family="Helvetica,sans-Serif" font-size="12.00">cstdarg</text>
</g>
<!-- Node13&#45;&gt;Node23 -->
<g id="edge33" class="edge"><title>Node13&#45;&gt;Node23</title>
<path fill="none" stroke="midnightblue" d="M518.504,-406.246C508.756,-397.975 494.574,-385.942 483.12,-376.223"/>
<polygon fill="midnightblue" stroke="midnightblue" points="485.254,-373.444 475.365,-369.643 480.725,-378.781 485.254,-373.444"/>
</g>
<!-- Node13&#45;&gt;Node24 -->
<g id="edge34" class="edge"><title>Node13&#45;&gt;Node24</title>
<path fill="none" stroke="midnightblue" d="M506.803,-406.376C485.735,-397.463 453.933,-383.573 427,-370 409.228,-361.044 405.592,-357.304 388,-348 366.847,-336.813 342.605,-324.849 324.175,-315.928"/>
<polygon fill="midnightblue" stroke="midnightblue" points="325.642,-312.75 315.115,-311.56 322.603,-319.055 325.642,-312.75"/>
</g>
<!-- Node14&#45;&gt;Node6 -->
<g id="edge15" class="edge"><title>Node14&#45;&gt;Node6</title>
<path fill="none" stroke="midnightblue" d="M674.348,-174.246C674.609,-166.938 674.975,-156.694 675.296,-147.705"/>
<polygon fill="midnightblue" stroke="midnightblue" points="678.796,-147.761 675.656,-137.643 671.801,-147.511 678.796,-147.761"/>
</g>
<!-- Node15&#45;&gt;Node14 -->
<g id="edge17" class="edge"><title>Node15&#45;&gt;Node14</title>
<path fill="none" stroke="midnightblue" d="M573.448,-348.318C575.757,-334.711 581.06,-309.423 591,-290 608.482,-255.84 638.223,-222.223 656.954,-202.827"/>
<polygon fill="midnightblue" stroke="midnightblue" points="659.49,-205.239 664.007,-195.656 654.5,-200.33 659.49,-205.239"/>
</g>
<!-- Node16 -->
<g id="node16" class="node"><title>Node16</title>
<g id="a_node16"><a xlink:href="../../df/d61/_j_s_o_n_2_j_s_o_n_children_8h.html" target="_top" xlink:title="JSONChildren.h">
<polygon fill="white" stroke="black" points="442.5,-290.5 442.5,-311.5 543.5,-311.5 543.5,-290.5 442.5,-290.5"/>
<text text-anchor="middle" x="493" y="-297.9" font-family="Helvetica,sans-Serif" font-size="12.00">JSONChildren.h</text>
</a>
</g>
</g>
<!-- Node15&#45;&gt;Node16 -->
<g id="edge18" class="edge"><title>Node15&#45;&gt;Node16</title>
<path fill="none" stroke="midnightblue" d="M558.239,-348.246C546.345,-339.814 528.935,-327.473 515.091,-317.66"/>
<polygon fill="midnightblue" stroke="midnightblue" points="516.785,-314.57 506.603,-311.643 512.737,-320.281 516.785,-314.57"/>
</g>
<!-- Node17 -->
<g id="node17" class="node"><title>Node17</title>
<g id="a_node17"><a xlink:href="../../dc/d7c/_j_s_o_n_2_j_s_o_n_memory_8h.html" target="_top" xlink:title="JSONMemory.h">
<polygon fill="white" stroke="black" points="395.5,-232.5 395.5,-253.5 494.5,-253.5 494.5,-232.5 395.5,-232.5"/>
<text text-anchor="middle" x="445" y="-239.9" font-family="Helvetica,sans-Serif" font-size="12.00">JSONMemory.h</text>
</a>
</g>
</g>
<!-- Node15&#45;&gt;Node17 -->
<g id="edge25" class="edge"><title>Node15&#45;&gt;Node17</title>
<path fill="none" stroke="midnightblue" d="M524.538,-348.488C488.752,-340.24 444.015,-327.248 433,-312 422.733,-297.788 428.114,-277.621 434.614,-262.942"/>
<polygon fill="midnightblue" stroke="midnightblue" points="437.839,-264.314 439.114,-253.796 431.558,-261.223 437.839,-264.314"/>
</g>
<!-- Node20 -->
<g id="node20" class="node"><title>Node20</title>
<g id="a_node20"><a xlink:href="../../de/d55/_j_s_o_n_2_j_s_o_n_globals_8h.html" target="_top" xlink:title="JSONGlobals.h">
<polygon fill="white" stroke="black" points="280.5,-232.5 280.5,-253.5 377.5,-253.5 377.5,-232.5 280.5,-232.5"/>
<text text-anchor="middle" x="329" y="-239.9" font-family="Helvetica,sans-Serif" font-size="12.00">JSONGlobals.h</text>
</a>
</g>
</g>
<!-- Node15&#45;&gt;Node20 -->
<g id="edge26" class="edge"><title>Node15&#45;&gt;Node20</title>
<path fill="none" stroke="midnightblue" d="M528.828,-348.471C498.539,-340.865 457.612,-328.707 424,-312 395.592,-297.88 366.436,-275.631 348.049,-260.456"/>
<polygon fill="midnightblue" stroke="midnightblue" points="349.846,-257.395 339.938,-253.642 345.343,-262.755 349.846,-257.395"/>
</g>
<!-- Node21 -->
<g id="node21" class="node"><title>Node21</title>
<g id="a_node21"><a xlink:href="../../d7/d81/_j_s_o_n_2_j_s_o_n_shared_string_8h.html" target="_top" xlink:title="JSONSharedString.h">
<polygon fill="white" stroke="black" points="600,-290.5 600,-311.5 726,-311.5 726,-290.5 600,-290.5"/>
<text text-anchor="middle" x="663" y="-297.9" font-family="Helvetica,sans-Serif" font-size="12.00">JSONSharedString.h</text>
</a>
</g>
</g>
<!-- Node15&#45;&gt;Node21 -->
<g id="edge29" class="edge"><title>Node15&#45;&gt;Node21</title>
<path fill="none" stroke="midnightblue" d="M587.851,-348.246C601.813,-339.653 622.373,-327.001 638.46,-317.102"/>
<polygon fill="midnightblue" stroke="midnightblue" points="640.648,-319.865 647.331,-311.643 636.98,-313.903 640.648,-319.865"/>
</g>
<!-- Node16&#45;&gt;Node14 -->
<g id="edge24" class="edge"><title>Node16&#45;&gt;Node14</title>
<path fill="none" stroke="midnightblue" d="M504.771,-290.344C521.864,-276.548 554.817,-250.788 585,-232 604.062,-220.134 626.531,-208.538 644.124,-199.957"/>
<polygon fill="midnightblue" stroke="midnightblue" points="645.852,-203.01 653.343,-195.518 642.815,-196.703 645.852,-203.01"/>
</g>
<!-- Node16&#45;&gt;Node17 -->
<g id="edge19" class="edge"><title>Node16&#45;&gt;Node17</title>
<path fill="none" stroke="midnightblue" d="M484.639,-290.246C477.825,-282.296 468.032,-270.871 459.885,-261.366"/>
<polygon fill="midnightblue" stroke="midnightblue" points="462.431,-258.957 453.265,-253.643 457.116,-263.513 462.431,-258.957"/>
</g>
<!-- Node17&#45;&gt;Node7 -->
<g id="edge22" class="edge"><title>Node17&#45;&gt;Node7</title>
<path fill="none" stroke="midnightblue" d="M433.85,-232.329C424.933,-223.801 413.108,-210.5 408,-196 387.838,-138.764 404.647,-65.4469 414.741,-31.2147"/>
<polygon fill="midnightblue" stroke="midnightblue" points="418.121,-32.1312 417.727,-21.5437 411.433,-30.066 418.121,-32.1312"/>
</g>
<!-- Node17&#45;&gt;Node14 -->
<g id="edge23" class="edge"><title>Node17&#45;&gt;Node14</title>
<path fill="none" stroke="midnightblue" d="M484.106,-232.437C523.133,-222.893 583.196,-208.205 625.296,-197.91"/>
<polygon fill="midnightblue" stroke="midnightblue" points="626.173,-201.299 635.055,-195.524 624.51,-194.499 626.173,-201.299"/>
</g>
<!-- Node18 -->
<g id="node18" class="node"><title>Node18</title>
<polygon fill="white" stroke="#bfbfbf" points="417,-174.5 417,-195.5 467,-195.5 467,-174.5 417,-174.5"/>
<text text-anchor="middle" x="442" y="-181.9" font-family="Helvetica,sans-Serif" font-size="12.00">cstdlib</text>
</g>
<!-- Node17&#45;&gt;Node18 -->
<g id="edge20" class="edge"><title>Node17&#45;&gt;Node18</title>
<path fill="none" stroke="midnightblue" d="M444.477,-232.246C444.086,-224.938 443.537,-214.694 443.056,-205.705"/>
<polygon fill="midnightblue" stroke="midnightblue" points="446.547,-205.441 442.517,-195.643 439.557,-205.816 446.547,-205.441"/>
</g>
<!-- Node19 -->
<g id="node19" class="node"><title>Node19</title>
<polygon fill="white" stroke="#bfbfbf" points="485.5,-174.5 485.5,-195.5 536.5,-195.5 536.5,-174.5 485.5,-174.5"/>
<text text-anchor="middle" x="511" y="-181.9" font-family="Helvetica,sans-Serif" font-size="12.00">cstring</text>
</g>
<!-- Node17&#45;&gt;Node19 -->
<g id="edge21" class="edge"><title>Node17&#45;&gt;Node19</title>
<path fill="none" stroke="midnightblue" d="M456.496,-232.246C466.244,-223.975 480.426,-211.942 491.88,-202.223"/>
<polygon fill="midnightblue" stroke="midnightblue" points="494.275,-204.781 499.635,-195.643 489.746,-199.444 494.275,-204.781"/>
</g>
<!-- Node20&#45;&gt;Node4 -->
<g id="edge28" class="edge"><title>Node20&#45;&gt;Node4</title>
<path fill="none" stroke="midnightblue" d="M312.278,-232.246C297.411,-223.573 275.453,-210.765 258.414,-200.825"/>
<polygon fill="midnightblue" stroke="midnightblue" points="259.932,-197.658 249.53,-195.643 256.405,-203.705 259.932,-197.658"/>
</g>
<!-- Node20&#45;&gt;Node6 -->
<g id="edge27" class="edge"><title>Node20&#45;&gt;Node6</title>
<path fill="none" stroke="midnightblue" d="M337.084,-232.257C350.245,-217.113 377.879,-188.193 408,-174 471.52,-144.069 551.7,-133.39 607.738,-129.696"/>
<polygon fill="midnightblue" stroke="midnightblue" points="608.139,-133.178 617.911,-129.084 607.718,-126.191 608.139,-133.178"/>
</g>
<!-- Node21&#45;&gt;Node14 -->
<g id="edge30" class="edge"><title>Node21&#45;&gt;Node14</title>
<path fill="none" stroke="midnightblue" d="M663.938,-290.28C665.74,-271.603 669.719,-230.369 672.098,-205.715"/>
<polygon fill="midnightblue" stroke="midnightblue" points="675.588,-205.985 673.065,-195.695 668.62,-205.313 675.588,-205.985"/>
</g>
<!-- Node21&#45;&gt;Node20 -->
<g id="edge31" class="edge"><title>Node21&#45;&gt;Node20</title>
<path fill="none" stroke="midnightblue" d="M604.611,-290.462C550.835,-281.642 468.536,-268.053 387.847,-254.305"/>
<polygon fill="midnightblue" stroke="midnightblue" points="387.951,-250.772 377.505,-252.541 386.774,-257.673 387.951,-250.772"/>
</g>
<!-- Node24&#45;&gt;Node4 -->
<g id="edge36" class="edge"><title>Node24&#45;&gt;Node4</title>
<path fill="none" stroke="midnightblue" d="M289.714,-290.28C279.419,-271.351 256.522,-229.251 243.184,-204.725"/>
<polygon fill="midnightblue" stroke="midnightblue" points="246.125,-202.808 238.273,-195.695 239.976,-206.152 246.125,-202.808"/>
</g>
<!-- Node24&#45;&gt;Node14 -->
<g id="edge35" class="edge"><title>Node24&#45;&gt;Node14</title>
<path fill="none" stroke="midnightblue" d="M347.586,-291.678C390.17,-284.155 451.352,-271.559 503,-254 524.837,-246.576 528.725,-240.907 550,-232 578.667,-219.997 611.684,-207.828 636.437,-199.023"/>
<polygon fill="midnightblue" stroke="midnightblue" points="637.903,-202.217 646.165,-195.585 635.57,-195.617 637.903,-202.217"/>
</g>
<!-- Node25&#45;&gt;Node13 -->
<g id="edge38" class="edge"><title>Node25&#45;&gt;Node13</title>
<path fill="none" stroke="midnightblue" d="M548.168,-464.246C545.234,-456.778 541.095,-446.243 537.509,-437.114"/>
<polygon fill="midnightblue" stroke="midnightblue" points="540.702,-435.67 533.788,-427.643 534.187,-438.23 540.702,-435.67"/>
</g>
<!-- Node25&#45;&gt;Node21 -->
<g id="edge39" class="edge"><title>Node25&#45;&gt;Node21</title>
<path fill="none" stroke="midnightblue" d="M563.384,-464.362C582.689,-447.363 621.72,-410.048 642,-370 649.84,-354.518 655.398,-335.555 658.819,-321.592"/>
<polygon fill="midnightblue" stroke="midnightblue" points="662.28,-322.157 661.107,-311.627 655.458,-320.59 662.28,-322.157"/>
</g>
<!-- Node26&#45;&gt;Node14 -->
<g id="edge41" class="edge"><title>Node26&#45;&gt;Node14</title>
<path fill="none" stroke="midnightblue" d="M835.682,-406.231C840.25,-376.298 849.775,-284.69 806,-232 787.367,-209.572 757.147,-198.064 730.322,-192.166"/>
<polygon fill="midnightblue" stroke="midnightblue" points="730.728,-188.678 720.238,-190.169 729.368,-195.545 730.728,-188.678"/>
</g>
<!-- Node27&#45;&gt;Node14 -->
<g id="edge43" class="edge"><title>Node27&#45;&gt;Node14</title>
<path fill="none" stroke="midnightblue" d="M981.329,-406.318C962.979,-375.843 901.975,-281.011 826,-232 797.067,-213.335 760.19,-201.934 730.006,-195.151"/>
<polygon fill="midnightblue" stroke="midnightblue" points="730.558,-191.69 720.047,-193.024 729.095,-198.536 730.558,-191.69"/>
</g>
<!-- Node28&#45;&gt;Node13 -->
<g id="edge46" class="edge"><title>Node28&#45;&gt;Node13</title>
<path fill="none" stroke="midnightblue" d="M674.916,-464.373C645.817,-455.061 601.548,-440.895 569.597,-430.671"/>
<polygon fill="midnightblue" stroke="midnightblue" points="570.282,-427.215 559.691,-427.501 568.149,-433.882 570.282,-427.215"/>
</g>
<!-- Node28&#45;&gt;Node14 -->
<g id="edge45" class="edge"><title>Node28&#45;&gt;Node14</title>
<path fill="none" stroke="midnightblue" d="M710.227,-464.218C724.146,-437.063 760.555,-358.251 753,-290 750.093,-263.743 754.726,-253.932 740,-232 731.166,-218.844 717.198,-208.313 704.383,-200.666"/>
<polygon fill="midnightblue" stroke="midnightblue" points="705.78,-197.437 695.344,-195.61 702.363,-203.547 705.78,-197.437"/>
</g>
</g>
</svg>
