<?xml version="1.0" encoding="UTF-8" standalone="no"?>
<!DOCTYPE svg PUBLIC "-//W3C//DTD SVG 1.1//EN"
 "http://www.w3.org/Graphics/SVG/1.1/DTD/svg11.dtd">
<!-- Generated by graphviz version 2.34.0 (20130907.0111)
 -->
<!-- Title: imatest_libraryInitialize Pages: 1 -->
<svg width="316pt" height="123pt"
 viewBox="0.00 0.00 316.00 123.00" xmlns="http://www.w3.org/2000/svg" xmlns:xlink="http://www.w3.org/1999/xlink">
<g id="graph0" class="graph" transform="scale(1 1) rotate(0) translate(4 119)">
<title>imatest_libraryInitialize</title>
<polygon fill="white" stroke="white" points="-4,4 -4,-119 312,-119 312,4 -4,4"/>
<!-- Node1 -->
<g id="node1" class="node"><title>Node1</title>
<polygon fill="#bfbfbf" stroke="black" points="0,-40.5 0,-61.5 134,-61.5 134,-40.5 0,-40.5"/>
<text text-anchor="middle" x="67" y="-47.9" font-family="Helvetica,sans-Serif" font-size="12.00">imatest_libraryInitialize</text>
</g>
<!-- Node2 -->
<g id="node2" class="node"><title>Node2</title>
<g id="a_node2"><a xlink:href="../../d6/d56/imatest__library_8cpp.html#af1f12ec359ef04374b4b929b74844d53" target="_top" xlink:title="imatest_libraryInitialize\lWithHandlers">
<polygon fill="white" stroke="black" points="172,-81 172,-115 306,-115 306,-81 172,-81"/>
<text text-anchor="start" x="180" y="-101.4" font-family="Helvetica,sans-Serif" font-size="12.00">imatest_libraryInitialize</text>
<text text-anchor="middle" x="239" y="-88.4" font-family="Helvetica,sans-Serif" font-size="12.00">WithHandlers</text>
</a>
</g>
</g>
<!-- Node1&#45;&gt;Node2 -->
<g id="edge1" class="edge"><title>Node1&#45;&gt;Node2</title>
<path fill="none" stroke="midnightblue" d="M106.151,-61.5477C123.983,-66.4776 145.815,-72.5135 166.544,-78.2444"/>
<polygon fill="midnightblue" stroke="midnightblue" points="165.718,-81.6474 176.289,-80.9387 167.583,-74.9005 165.718,-81.6474"/>
</g>
<!-- Node3 -->
<g id="node3" class="node"><title>Node3</title>
<g id="a_node3"><a xlink:href="../../d6/d56/imatest__library_8cpp.html#ab25ffae1be58aaf6c617f5bd4e1d9574" target="_top" xlink:title="mclDefaultErrorHandler">
<polygon fill="white" stroke="black" points="170,-40.5 170,-61.5 308,-61.5 308,-40.5 170,-40.5"/>
<text text-anchor="middle" x="239" y="-47.9" font-family="Helvetica,sans-Serif" font-size="12.00">mclDefaultErrorHandler</text>
</a>
</g>
</g>
<!-- Node1&#45;&gt;Node3 -->
<g id="edge2" class="edge"><title>Node1&#45;&gt;Node3</title>
<path fill="none" stroke="midnightblue" d="M134.213,-51C142.498,-51 151.034,-51 159.484,-51"/>
<polygon fill="midnightblue" stroke="midnightblue" points="159.725,-54.5001 169.725,-51 159.725,-47.5001 159.725,-54.5001"/>
</g>
<!-- Node4 -->
<g id="node4" class="node"><title>Node4</title>
<g id="a_node4"><a xlink:href="../../d6/d56/imatest__library_8cpp.html#a720e404d3ffcdd06099adf6ac127be83" target="_top" xlink:title="mclDefaultPrintHandler">
<polygon fill="white" stroke="black" points="171,-0.5 171,-21.5 307,-21.5 307,-0.5 171,-0.5"/>
<text text-anchor="middle" x="239" y="-7.9" font-family="Helvetica,sans-Serif" font-size="12.00">mclDefaultPrintHandler</text>
</a>
</g>
</g>
<!-- Node1&#45;&gt;Node4 -->
<g id="edge3" class="edge"><title>Node1&#45;&gt;Node4</title>
<path fill="none" stroke="midnightblue" d="M112.665,-40.4905C134.346,-35.3892 160.584,-29.2155 183.439,-23.8378"/>
<polygon fill="midnightblue" stroke="midnightblue" points="184.405,-27.2061 193.338,-21.5087 182.802,-20.3922 184.405,-27.2061"/>
</g>
</g>
</svg>
