<?xml version="1.0" encoding="UTF-8" standalone="no"?>
<!DOCTYPE svg PUBLIC "-//W3C//DTD SVG 1.1//EN"
 "http://www.w3.org/Graphics/SVG/1.1/DTD/svg11.dtd">
<!-- Generated by graphviz version 2.34.0 (20130907.0111)
 -->
<!-- Title: imatest_libraryInitializeWithHandlers Pages: 1 -->
<svg width="660pt" height="42pt"
 viewBox="0.00 0.00 660.00 42.00" xmlns="http://www.w3.org/2000/svg" xmlns:xlink="http://www.w3.org/1999/xlink">
<g id="graph0" class="graph" transform="scale(1 1) rotate(0) translate(4 38)">
<title>imatest_libraryInitializeWithHandlers</title>
<polygon fill="white" stroke="white" points="-4,4 -4,-38 656,-38 656,4 -4,4"/>
<!-- Node1 -->
<g id="node1" class="node"><title>Node1</title>
<polygon fill="#bfbfbf" stroke="black" points="0,-0 0,-34 134,-34 134,-0 0,-0"/>
<text text-anchor="start" x="8" y="-20.4" font-family="Helvetica,sans-Serif" font-size="12.00">imatest_libraryInitialize</text>
<text text-anchor="middle" x="67" y="-7.4" font-family="Helvetica,sans-Serif" font-size="12.00">WithHandlers</text>
</g>
<!-- Node2 -->
<g id="node2" class="node"><title>Node2</title>
<g id="a_node2"><a xlink:href="../../da/d69/imatest__library_8h.html#a5e2883cbd4857cc3ccca20aadd262f91" target="_top" xlink:title="imatest_libraryInitialize">
<polygon fill="white" stroke="black" points="170,-6.5 170,-27.5 304,-27.5 304,-6.5 170,-6.5"/>
<text text-anchor="middle" x="237" y="-13.9" font-family="Helvetica,sans-Serif" font-size="12.00">imatest_libraryInitialize</text>
</a>
</g>
</g>
<!-- Node1&#45;&gt;Node2 -->
<g id="edge1" class="edge"><title>Node1&#45;&gt;Node2</title>
<path fill="none" stroke="midnightblue" d="M144.595,-17C153.013,-17 161.532,-17 169.809,-17"/>
<polygon fill="midnightblue" stroke="midnightblue" points="144.398,-13.5001 134.398,-17 144.398,-20.5001 144.398,-13.5001"/>
</g>
<!-- Node3 -->
<g id="node3" class="node"><title>Node3</title>
<g id="a_node3"><a xlink:href="../../d3/d9f/class_c_operator_console_app.html#a609b0f5874afb0cf46b76de94e0312e5" target="_top" xlink:title="Function that initializes the Imatest library. Must be called before any Imatest library functions ar...">
<polygon fill="white" stroke="black" points="340.5,-0 340.5,-34 477.5,-34 477.5,-0 340.5,-0"/>
<text text-anchor="start" x="348.5" y="-20.4" font-family="Helvetica,sans-Serif" font-size="12.00">COperatorConsoleApp</text>
<text text-anchor="middle" x="409" y="-7.4" font-family="Helvetica,sans-Serif" font-size="12.00">::InitLibs</text>
</a>
</g>
</g>
<!-- Node2&#45;&gt;Node3 -->
<g id="edge2" class="edge"><title>Node2&#45;&gt;Node3</title>
<path fill="none" stroke="midnightblue" d="M314.303,-17C322.964,-17 331.747,-17 340.287,-17"/>
<polygon fill="midnightblue" stroke="midnightblue" points="314.213,-13.5001 304.213,-17 314.213,-20.5001 314.213,-13.5001"/>
</g>
<!-- Node4 -->
<g id="node4" class="node"><title>Node4</title>
<g id="a_node4"><a xlink:href="../../d3/d9f/class_c_operator_console_app.html#a94f4b258145e77e31644beb999bf099a" target="_top" xlink:title="COperatorConsoleApp initialization. ">
<polygon fill="white" stroke="black" points="514.5,-0 514.5,-34 651.5,-34 651.5,-0 514.5,-0"/>
<text text-anchor="start" x="522.5" y="-20.4" font-family="Helvetica,sans-Serif" font-size="12.00">COperatorConsoleApp</text>
<text text-anchor="middle" x="583" y="-7.4" font-family="Helvetica,sans-Serif" font-size="12.00">::InitInstance</text>
</a>
</g>
</g>
<!-- Node3&#45;&gt;Node4 -->
<g id="edge3" class="edge"><title>Node3&#45;&gt;Node4</title>
<path fill="none" stroke="midnightblue" d="M488.134,-17C496.846,-17 505.666,-17 514.233,-17"/>
<polygon fill="midnightblue" stroke="midnightblue" points="487.979,-13.5001 477.979,-17 487.979,-20.5001 487.979,-13.5001"/>
</g>
</g>
</svg>
