<?xml version="1.0" encoding="UTF-8" standalone="no"?>
<!DOCTYPE svg PUBLIC "-//W3C//DTD SVG 1.1//EN"
 "http://www.w3.org/Graphics/SVG/1.1/DTD/svg11.dtd">
<!-- Generated by graphviz version 2.34.0 (20130907.0111)
 -->
<!-- Title: CriticalCString::Clear Pages: 1 -->
<svg width="1308pt" height="102pt"
 viewBox="0.00 0.00 1308.00 102.00" xmlns="http://www.w3.org/2000/svg" xmlns:xlink="http://www.w3.org/1999/xlink">
<g id="graph0" class="graph" transform="scale(1 1) rotate(0) translate(4 98)">
<title>CriticalCString::Clear</title>
<polygon fill="white" stroke="white" points="-4,4 -4,-98 1304,-98 1304,4 -4,4"/>
<!-- Node1 -->
<g id="node1" class="node"><title>Node1</title>
<polygon fill="#bfbfbf" stroke="black" points="0,-52.5 0,-73.5 128,-73.5 128,-52.5 0,-52.5"/>
<text text-anchor="middle" x="64" y="-59.9" font-family="Helvetica,sans-Serif" font-size="12.00">CriticalCString::Clear</text>
</g>
<!-- Node2 -->
<g id="node2" class="node"><title>Node2</title>
<g id="a_node2"><a xlink:href="../../da/d92/class_image_test.html#a3b66aa4095c338dd90f6e57e108f3038" target="_top" xlink:title="ImageTest::InitResults">
<polygon fill="white" stroke="black" points="164,-52.5 164,-73.5 294,-73.5 294,-52.5 164,-52.5"/>
<text text-anchor="middle" x="229" y="-59.9" font-family="Helvetica,sans-Serif" font-size="12.00">ImageTest::InitResults</text>
</a>
</g>
</g>
<!-- Node1&#45;&gt;Node2 -->
<g id="edge1" class="edge"><title>Node1&#45;&gt;Node2</title>
<path fill="none" stroke="midnightblue" d="M138.027,-63C146.621,-63 155.342,-63 163.802,-63"/>
<polygon fill="midnightblue" stroke="midnightblue" points="138.02,-59.5001 128.02,-63 138.02,-66.5001 138.02,-59.5001"/>
</g>
<!-- Node3 -->
<g id="node3" class="node"><title>Node3</title>
<g id="a_node3"><a xlink:href="../../da/d92/class_image_test.html#a7334d76c1cc6780f46626be5b9ff1adb" target="_top" xlink:title="Runs the test pointed to by m_imatestFunc. ">
<polygon fill="white" stroke="black" points="330,-52.5 330,-73.5 428,-73.5 428,-52.5 330,-52.5"/>
<text text-anchor="middle" x="379" y="-59.9" font-family="Helvetica,sans-Serif" font-size="12.00">ImageTest::Run</text>
</a>
</g>
</g>
<!-- Node2&#45;&gt;Node3 -->
<g id="edge2" class="edge"><title>Node2&#45;&gt;Node3</title>
<path fill="none" stroke="midnightblue" d="M304.261,-63C312.978,-63 321.691,-63 329.915,-63"/>
<polygon fill="midnightblue" stroke="midnightblue" points="304.054,-59.5001 294.054,-63 304.054,-66.5001 304.054,-59.5001"/>
</g>
<!-- Node4 -->
<g id="node4" class="node"><title>Node4</title>
<g id="a_node4"><a xlink:href="../../da/d92/class_image_test.html#accf2cfff6fe48fd19888727208dd6728" target="_top" xlink:title="ImageTest::Run">
<polygon fill="white" stroke="black" points="485,-72.5 485,-93.5 583,-93.5 583,-72.5 485,-72.5"/>
<text text-anchor="middle" x="534" y="-79.9" font-family="Helvetica,sans-Serif" font-size="12.00">ImageTest::Run</text>
</a>
</g>
</g>
<!-- Node3&#45;&gt;Node4 -->
<g id="edge3" class="edge"><title>Node3&#45;&gt;Node4</title>
<path fill="none" stroke="midnightblue" d="M438.338,-70.6259C453.716,-72.6361 470.134,-74.7822 484.905,-76.713"/>
<polygon fill="midnightblue" stroke="midnightblue" points="438.779,-67.1539 428.41,-69.3281 437.872,-74.0948 438.779,-67.1539"/>
</g>
<!-- Node5 -->
<g id="node5" class="node"><title>Node5</title>
<g id="a_node5"><a xlink:href="../../da/d92/class_image_test.html#a372478d09c06cd7ab3684840add6215e" target="_top" xlink:title="param must be a pointer to a ThreadControl object; param&#45;&gt;m_data must point to an ImageTest object ...">
<polygon fill="white" stroke="black" points="464.5,-32.5 464.5,-53.5 603.5,-53.5 603.5,-32.5 464.5,-32.5"/>
<text text-anchor="middle" x="534" y="-39.9" font-family="Helvetica,sans-Serif" font-size="12.00">ImageTest::ThreadProc</text>
</a>
</g>
</g>
<!-- Node3&#45;&gt;Node5 -->
<g id="edge4" class="edge"><title>Node3&#45;&gt;Node5</title>
<path fill="none" stroke="midnightblue" d="M438.571,-55.3437C447.052,-54.2351 455.845,-53.0857 464.499,-51.9543"/>
<polygon fill="midnightblue" stroke="midnightblue" points="437.872,-51.9052 428.41,-56.6719 438.779,-58.8461 437.872,-51.9052"/>
</g>
<!-- Node6 -->
<g id="node6" class="node"><title>Node6</title>
<g id="a_node6"><a xlink:href="../../d3/d9f/class_c_operator_console_app.html#a51ad7e6e8f370072c3e89d0d7e9e41a8" target="_top" xlink:title="COperatorConsoleApp\l::InitBlemishThread">
<polygon fill="white" stroke="black" points="640.5,-53 640.5,-87 777.5,-87 777.5,-53 640.5,-53"/>
<text text-anchor="start" x="648.5" y="-73.4" font-family="Helvetica,sans-Serif" font-size="12.00">COperatorConsoleApp</text>
<text text-anchor="middle" x="709" y="-60.4" font-family="Helvetica,sans-Serif" font-size="12.00">::InitBlemishThread</text>
</a>
</g>
</g>
<!-- Node5&#45;&gt;Node6 -->
<g id="edge5" class="edge"><title>Node5&#45;&gt;Node6</title>
<path fill="none" stroke="midnightblue" d="M612.382,-55.077C621.669,-56.5264 631.097,-57.9978 640.233,-59.4236"/>
<polygon fill="midnightblue" stroke="midnightblue" points="612.802,-51.6002 602.382,-53.5162 611.722,-58.5165 612.802,-51.6002"/>
</g>
<!-- Node12 -->
<g id="node12" class="node"><title>Node12</title>
<g id="a_node12"><a xlink:href="../../d3/d9f/class_c_operator_console_app.html#af7328d2c00abb1d4a09a65492c69b2b0" target="_top" xlink:title="COperatorConsoleApp\l::InitSFRplusThread">
<polygon fill="white" stroke="black" points="640.5,-0 640.5,-34 777.5,-34 777.5,-0 640.5,-0"/>
<text text-anchor="start" x="648.5" y="-20.4" font-family="Helvetica,sans-Serif" font-size="12.00">COperatorConsoleApp</text>
<text text-anchor="middle" x="709" y="-7.4" font-family="Helvetica,sans-Serif" font-size="12.00">::InitSFRplusThread</text>
</a>
</g>
</g>
<!-- Node5&#45;&gt;Node12 -->
<g id="edge11" class="edge"><title>Node5&#45;&gt;Node12</title>
<path fill="none" stroke="midnightblue" d="M613.852,-31.1494C622.751,-29.812 631.759,-28.4583 640.494,-27.1454"/>
<polygon fill="midnightblue" stroke="midnightblue" points="613.24,-27.702 603.871,-32.6494 614.28,-34.6243 613.24,-27.702"/>
</g>
<!-- Node7 -->
<g id="node7" class="node"><title>Node7</title>
<g id="a_node7"><a xlink:href="../../d3/d9f/class_c_operator_console_app.html#a7f0cd7b21cee2171dea973e4e6e7bb9d" target="_top" xlink:title="Init perform application&#45;specific initialization. ">
<polygon fill="white" stroke="black" points="814.5,-53 814.5,-87 951.5,-87 951.5,-53 814.5,-53"/>
<text text-anchor="start" x="822.5" y="-73.4" font-family="Helvetica,sans-Serif" font-size="12.00">COperatorConsoleApp</text>
<text text-anchor="middle" x="883" y="-60.4" font-family="Helvetica,sans-Serif" font-size="12.00">::Init</text>
</a>
</g>
</g>
<!-- Node6&#45;&gt;Node7 -->
<g id="edge6" class="edge"><title>Node6&#45;&gt;Node7</title>
<path fill="none" stroke="midnightblue" d="M788.134,-70C796.846,-70 805.666,-70 814.233,-70"/>
<polygon fill="midnightblue" stroke="midnightblue" points="787.979,-66.5001 777.979,-70 787.979,-73.5001 787.979,-66.5001"/>
</g>
<!-- Node9 -->
<g id="node9" class="node"><title>Node9</title>
<g id="a_node9"><a xlink:href="../../d3/d9f/class_c_operator_console_app.html#aede77af6cae8053d49c752fd95910728" target="_top" xlink:title="This function allows for reallocation of the various image buffers when we change the image size...">
<polygon fill="white" stroke="black" points="814.5,-0 814.5,-34 951.5,-34 951.5,-0 814.5,-0"/>
<text text-anchor="start" x="822.5" y="-20.4" font-family="Helvetica,sans-Serif" font-size="12.00">COperatorConsoleApp</text>
<text text-anchor="middle" x="883" y="-7.4" font-family="Helvetica,sans-Serif" font-size="12.00">::ReInit</text>
</a>
</g>
</g>
<!-- Node6&#45;&gt;Node9 -->
<g id="edge8" class="edge"><title>Node6&#45;&gt;Node9</title>
<path fill="none" stroke="midnightblue" d="M775.212,-49.9056C792.193,-44.6732 810.324,-39.0863 826.735,-34.0293"/>
<polygon fill="midnightblue" stroke="midnightblue" points="773.895,-46.6491 765.369,-52.9387 775.956,-53.3387 773.895,-46.6491"/>
</g>
<!-- Node8 -->
<g id="node8" class="node"><title>Node8</title>
<g id="a_node8"><a xlink:href="../../d3/d9f/class_c_operator_console_app.html#a94f4b258145e77e31644beb999bf099a" target="_top" xlink:title="COperatorConsoleApp initialization. ">
<polygon fill="white" stroke="black" points="988.5,-53 988.5,-87 1125.5,-87 1125.5,-53 988.5,-53"/>
<text text-anchor="start" x="996.5" y="-73.4" font-family="Helvetica,sans-Serif" font-size="12.00">COperatorConsoleApp</text>
<text text-anchor="middle" x="1057" y="-60.4" font-family="Helvetica,sans-Serif" font-size="12.00">::InitInstance</text>
</a>
</g>
</g>
<!-- Node7&#45;&gt;Node8 -->
<g id="edge7" class="edge"><title>Node7&#45;&gt;Node8</title>
<path fill="none" stroke="midnightblue" d="M962.134,-70C970.846,-70 979.666,-70 988.233,-70"/>
<polygon fill="midnightblue" stroke="midnightblue" points="961.979,-66.5001 951.979,-70 961.979,-73.5001 961.979,-66.5001"/>
</g>
<!-- Node10 -->
<g id="node10" class="node"><title>Node10</title>
<g id="a_node10"><a xlink:href="../../d3/d9f/class_c_operator_console_app.html#a620f8d2eed65d743bb177abcb90936e6" target="_top" xlink:title="Called after MSG_SETUP is received. ">
<polygon fill="white" stroke="black" points="988.5,-0 988.5,-34 1125.5,-34 1125.5,-0 988.5,-0"/>
<text text-anchor="start" x="996.5" y="-20.4" font-family="Helvetica,sans-Serif" font-size="12.00">COperatorConsoleApp</text>
<text text-anchor="middle" x="1057" y="-7.4" font-family="Helvetica,sans-Serif" font-size="12.00">::OnSetup</text>
</a>
</g>
</g>
<!-- Node9&#45;&gt;Node10 -->
<g id="edge9" class="edge"><title>Node9&#45;&gt;Node10</title>
<path fill="none" stroke="midnightblue" d="M962.134,-17C970.846,-17 979.666,-17 988.233,-17"/>
<polygon fill="midnightblue" stroke="midnightblue" points="961.979,-13.5001 951.979,-17 961.979,-20.5001 961.979,-13.5001"/>
</g>
<!-- Node11 -->
<g id="node11" class="node"><title>Node11</title>
<g id="a_node11"><a xlink:href="../../d3/d9f/class_c_operator_console_app.html#a7041d197c4e6549f2cb7219981b4eec1" target="_top" xlink:title="Intercepts messages of interest before Windows or MFC. ">
<polygon fill="white" stroke="black" points="1162,-0 1162,-34 1300,-34 1300,-0 1162,-0"/>
<text text-anchor="start" x="1170" y="-20.4" font-family="Helvetica,sans-Serif" font-size="12.00">COperatorConsoleApp</text>
<text text-anchor="middle" x="1231" y="-7.4" font-family="Helvetica,sans-Serif" font-size="12.00">::PreTranslateMessage</text>
</a>
</g>
</g>
<!-- Node10&#45;&gt;Node11 -->
<g id="edge10" class="edge"><title>Node10&#45;&gt;Node11</title>
<path fill="none" stroke="midnightblue" d="M1136.05,-17C1144.7,-17 1153.45,-17 1161.95,-17"/>
<polygon fill="midnightblue" stroke="midnightblue" points="1135.98,-13.5001 1125.98,-17 1135.98,-20.5001 1135.98,-13.5001"/>
</g>
<!-- Node12&#45;&gt;Node7 -->
<g id="edge12" class="edge"><title>Node12&#45;&gt;Node7</title>
<path fill="none" stroke="midnightblue" d="M775.212,-37.0944C792.193,-42.3268 810.324,-47.9137 826.735,-52.9707"/>
<polygon fill="midnightblue" stroke="midnightblue" points="775.956,-33.6613 765.369,-34.0613 773.895,-40.3509 775.956,-33.6613"/>
</g>
<!-- Node12&#45;&gt;Node9 -->
<g id="edge13" class="edge"><title>Node12&#45;&gt;Node9</title>
<path fill="none" stroke="midnightblue" d="M788.134,-17C796.846,-17 805.666,-17 814.233,-17"/>
<polygon fill="midnightblue" stroke="midnightblue" points="787.979,-13.5001 777.979,-17 787.979,-20.5001 787.979,-13.5001"/>
</g>
</g>
</svg>
