<?xml version="1.0" encoding="UTF-8" standalone="no"?>
<!DOCTYPE svg PUBLIC "-//W3C//DTD SVG 1.1//EN"
 "http://www.w3.org/Graphics/SVG/1.1/DTD/svg11.dtd">
<!-- Generated by graphviz version 2.34.0 (20130907.0111)
 -->
<!-- Title: CriticalCString::Append Pages: 1 -->
<svg width="884pt" height="196pt"
 viewBox="0.00 0.00 884.00 196.00" xmlns="http://www.w3.org/2000/svg" xmlns:xlink="http://www.w3.org/1999/xlink">
<g id="graph0" class="graph" transform="scale(1 1) rotate(0) translate(4 192)">
<title>CriticalCString::Append</title>
<polygon fill="white" stroke="white" points="-4,4 -4,-192 880,-192 880,4 -4,4"/>
<!-- Node1 -->
<g id="node1" class="node"><title>Node1</title>
<polygon fill="#bfbfbf" stroke="black" points="0,-86.5 0,-107.5 140,-107.5 140,-86.5 0,-86.5"/>
<text text-anchor="middle" x="70" y="-93.9" font-family="Helvetica,sans-Serif" font-size="12.00">CriticalCString::Append</text>
</g>
<!-- Node2 -->
<g id="node2" class="node"><title>Node2</title>
<g id="a_node2"><a xlink:href="../../da/d92/class_image_test.html#aca5fb71bfeae5b95079e97e3cb22d40a" target="_top" xlink:title="ImageTest::GetDataNode">
<polygon fill="white" stroke="black" points="187,-166.5 187,-187.5 337,-187.5 337,-166.5 187,-166.5"/>
<text text-anchor="middle" x="262" y="-173.9" font-family="Helvetica,sans-Serif" font-size="12.00">ImageTest::GetDataNode</text>
</a>
</g>
</g>
<!-- Node1&#45;&gt;Node2 -->
<g id="edge1" class="edge"><title>Node1&#45;&gt;Node2</title>
<path fill="none" stroke="midnightblue" d="M94.738,-113.219C115.395,-126.672 146.56,-145.408 176,-157 185.451,-160.721 195.777,-163.865 205.873,-166.478"/>
<polygon fill="midnightblue" stroke="midnightblue" points="96.5684,-110.234 86.2972,-107.635 92.7058,-116.072 96.5684,-110.234"/>
</g>
<!-- Node3 -->
<g id="node3" class="node"><title>Node3</title>
<g id="a_node3"><a xlink:href="../../da/d92/class_image_test.html#a45319e33d6d338270ca12a6fdc3f0efd" target="_top" xlink:title="ImageTest::GetPassFailNode">
<polygon fill="white" stroke="black" points="176.5,-126.5 176.5,-147.5 347.5,-147.5 347.5,-126.5 176.5,-126.5"/>
<text text-anchor="middle" x="262" y="-133.9" font-family="Helvetica,sans-Serif" font-size="12.00">ImageTest::GetPassFailNode</text>
</a>
</g>
</g>
<!-- Node1&#45;&gt;Node3 -->
<g id="edge2" class="edge"><title>Node1&#45;&gt;Node3</title>
<path fill="none" stroke="midnightblue" d="M130.955,-109.622C156.738,-115.05 186.527,-121.321 211.084,-126.491"/>
<polygon fill="midnightblue" stroke="midnightblue" points="131.427,-106.145 120.92,-107.51 129.985,-112.995 131.427,-106.145"/>
</g>
<!-- Node4 -->
<g id="node4" class="node"><title>Node4</title>
<g id="a_node4"><a xlink:href="../../da/d92/class_image_test.html#a3115f3892d84abcde05ab105ae4aaa8f" target="_top" xlink:title="ImageTest::GetString">
<polygon fill="white" stroke="black" points="198.5,-86.5 198.5,-107.5 325.5,-107.5 325.5,-86.5 198.5,-86.5"/>
<text text-anchor="middle" x="262" y="-93.9" font-family="Helvetica,sans-Serif" font-size="12.00">ImageTest::GetString</text>
</a>
</g>
</g>
<!-- Node1&#45;&gt;Node4 -->
<g id="edge3" class="edge"><title>Node1&#45;&gt;Node4</title>
<path fill="none" stroke="midnightblue" d="M150.495,-97C166.426,-97 182.955,-97 198.224,-97"/>
<polygon fill="midnightblue" stroke="midnightblue" points="150.132,-93.5001 140.132,-97 150.132,-100.5 150.132,-93.5001"/>
</g>
<!-- Node5 -->
<g id="node5" class="node"><title>Node5</title>
<g id="a_node5"><a xlink:href="../../da/d92/class_image_test.html#ae8c27027ba0cc33150ec423c6b7ec6ae" target="_top" xlink:title="ImageTest::ParseFailures">
<polygon fill="white" stroke="black" points="186.5,-46.5 186.5,-67.5 337.5,-67.5 337.5,-46.5 186.5,-46.5"/>
<text text-anchor="middle" x="262" y="-53.9" font-family="Helvetica,sans-Serif" font-size="12.00">ImageTest::ParseFailures</text>
</a>
</g>
</g>
<!-- Node1&#45;&gt;Node5 -->
<g id="edge4" class="edge"><title>Node1&#45;&gt;Node5</title>
<path fill="none" stroke="midnightblue" d="M130.955,-84.378C156.738,-78.9499 186.527,-72.6785 211.084,-67.5087"/>
<polygon fill="midnightblue" stroke="midnightblue" points="129.985,-81.0054 120.92,-86.4905 131.427,-87.8552 129.985,-81.0054"/>
</g>
<!-- Node6 -->
<g id="node6" class="node"><title>Node6</title>
<g id="a_node6"><a xlink:href="../../d5/d67/class_stdout_thread.html#a5527fa5fc7f110414f03e63b759bc4c3" target="_top" xlink:title="StdoutThread::ThreadProc">
<polygon fill="white" stroke="black" points="184.5,-6.5 184.5,-27.5 339.5,-27.5 339.5,-6.5 184.5,-6.5"/>
<text text-anchor="middle" x="262" y="-13.9" font-family="Helvetica,sans-Serif" font-size="12.00">StdoutThread::ThreadProc</text>
</a>
</g>
</g>
<!-- Node1&#45;&gt;Node6 -->
<g id="edge5" class="edge"><title>Node1&#45;&gt;Node6</title>
<path fill="none" stroke="midnightblue" d="M94.738,-80.7806C115.395,-67.3284 146.56,-48.5923 176,-37 185.451,-33.2786 195.777,-30.1352 205.873,-27.5221"/>
<polygon fill="midnightblue" stroke="midnightblue" points="92.7058,-77.9283 86.2972,-86.3652 96.5684,-83.7662 92.7058,-77.9283"/>
</g>
<!-- Node7 -->
<g id="node7" class="node"><title>Node7</title>
<g id="a_node7"><a xlink:href="../../d5/d67/class_stdout_thread.html#aab5207762f1d6036974b9bbd4b854a23" target="_top" xlink:title="StdoutThread::InitThread">
<polygon fill="white" stroke="black" points="384,-6.5 384,-27.5 528,-27.5 528,-6.5 384,-6.5"/>
<text text-anchor="middle" x="456" y="-13.9" font-family="Helvetica,sans-Serif" font-size="12.00">StdoutThread::InitThread</text>
</a>
</g>
</g>
<!-- Node6&#45;&gt;Node7 -->
<g id="edge6" class="edge"><title>Node6&#45;&gt;Node7</title>
<path fill="none" stroke="midnightblue" d="M350.003,-17C361.28,-17 372.725,-17 383.706,-17"/>
<polygon fill="midnightblue" stroke="midnightblue" points="349.711,-13.5001 339.711,-17 349.711,-20.5001 349.711,-13.5001"/>
</g>
<!-- Node8 -->
<g id="node8" class="node"><title>Node8</title>
<g id="a_node8"><a xlink:href="../../d3/d9f/class_c_operator_console_app.html#a3326d8200d481631ffb26bff5c621e05" target="_top" xlink:title="COperatorConsoleApp\l::InitOutput">
<polygon fill="white" stroke="black" points="564.5,-0 564.5,-34 701.5,-34 701.5,-0 564.5,-0"/>
<text text-anchor="start" x="572.5" y="-20.4" font-family="Helvetica,sans-Serif" font-size="12.00">COperatorConsoleApp</text>
<text text-anchor="middle" x="633" y="-7.4" font-family="Helvetica,sans-Serif" font-size="12.00">::InitOutput</text>
</a>
</g>
</g>
<!-- Node7&#45;&gt;Node8 -->
<g id="edge7" class="edge"><title>Node7&#45;&gt;Node8</title>
<path fill="none" stroke="midnightblue" d="M538.318,-17C547.005,-17 555.773,-17 564.278,-17"/>
<polygon fill="midnightblue" stroke="midnightblue" points="538.179,-13.5001 528.179,-17 538.179,-20.5001 538.179,-13.5001"/>
</g>
<!-- Node9 -->
<g id="node9" class="node"><title>Node9</title>
<g id="a_node9"><a xlink:href="../../d3/d9f/class_c_operator_console_app.html#a94f4b258145e77e31644beb999bf099a" target="_top" xlink:title="COperatorConsoleApp initialization. ">
<polygon fill="white" stroke="black" points="738.5,-0 738.5,-34 875.5,-34 875.5,-0 738.5,-0"/>
<text text-anchor="start" x="746.5" y="-20.4" font-family="Helvetica,sans-Serif" font-size="12.00">COperatorConsoleApp</text>
<text text-anchor="middle" x="807" y="-7.4" font-family="Helvetica,sans-Serif" font-size="12.00">::InitInstance</text>
</a>
</g>
</g>
<!-- Node8&#45;&gt;Node9 -->
<g id="edge8" class="edge"><title>Node8&#45;&gt;Node9</title>
<path fill="none" stroke="midnightblue" d="M712.134,-17C720.846,-17 729.666,-17 738.233,-17"/>
<polygon fill="midnightblue" stroke="midnightblue" points="711.979,-13.5001 701.979,-17 711.979,-20.5001 711.979,-13.5001"/>
</g>
</g>
</svg>
