<?xml version="1.0" encoding="UTF-8" standalone="no"?>
<!DOCTYPE svg PUBLIC "-//W3C//DTD SVG 1.1//EN"
 "http://www.w3.org/Graphics/SVG/1.1/DTD/svg11.dtd">
<!-- Generated by graphviz version 2.34.0 (20130907.0111)
 -->
<!-- Title: CriticalCString::Get Pages: 1 -->
<svg width="796pt" height="95pt"
 viewBox="0.00 0.00 796.00 95.00" xmlns="http://www.w3.org/2000/svg" xmlns:xlink="http://www.w3.org/1999/xlink">
<g id="graph0" class="graph" transform="scale(1 1) rotate(0) translate(4 91)">
<title>CriticalCString::Get</title>
<polygon fill="white" stroke="white" points="-4,4 -4,-91 792,-91 792,4 -4,4"/>
<!-- Node1 -->
<g id="node1" class="node"><title>Node1</title>
<polygon fill="#bfbfbf" stroke="black" points="0,-32.5 0,-53.5 118,-53.5 118,-32.5 0,-32.5"/>
<text text-anchor="middle" x="59" y="-39.9" font-family="Helvetica,sans-Serif" font-size="12.00">CriticalCString::Get</text>
</g>
<!-- Node2 -->
<g id="node2" class="node"><title>Node2</title>
<g id="a_node2"><a xlink:href="../../d5/d67/class_stdout_thread.html#a6989ce68e4bbc93a7ff7370901a808c0" target="_top" xlink:title="StdoutThread::Get">
<polygon fill="white" stroke="black" points="154,-32.5 154,-53.5 266,-53.5 266,-32.5 154,-32.5"/>
<text text-anchor="middle" x="210" y="-39.9" font-family="Helvetica,sans-Serif" font-size="12.00">StdoutThread::Get</text>
</a>
</g>
</g>
<!-- Node1&#45;&gt;Node2 -->
<g id="edge1" class="edge"><title>Node1&#45;&gt;Node2</title>
<path fill="none" stroke="midnightblue" d="M128.071,-43C136.69,-43 145.425,-43 153.809,-43"/>
<polygon fill="midnightblue" stroke="midnightblue" points="128.034,-39.5001 118.034,-43 128.034,-46.5001 128.034,-39.5001"/>
</g>
<!-- Node3 -->
<g id="node3" class="node"><title>Node3</title>
<g id="a_node3"><a xlink:href="../../d3/d9f/class_c_operator_console_app.html#a5e4a6598aa6a33636d283e29f19c76ca" target="_top" xlink:title="COperatorConsoleApp\l::GetStdoutMsg">
<polygon fill="white" stroke="black" points="302.5,-26 302.5,-60 439.5,-60 439.5,-26 302.5,-26"/>
<text text-anchor="start" x="310.5" y="-46.4" font-family="Helvetica,sans-Serif" font-size="12.00">COperatorConsoleApp</text>
<text text-anchor="middle" x="371" y="-33.4" font-family="Helvetica,sans-Serif" font-size="12.00">::GetStdoutMsg</text>
</a>
</g>
</g>
<!-- Node2&#45;&gt;Node3 -->
<g id="edge2" class="edge"><title>Node2&#45;&gt;Node3</title>
<path fill="none" stroke="midnightblue" d="M276.442,-43C284.981,-43 293.744,-43 302.319,-43"/>
<polygon fill="midnightblue" stroke="midnightblue" points="276.164,-39.5001 266.164,-43 276.164,-46.5001 276.164,-39.5001"/>
</g>
<!-- Node4 -->
<g id="node4" class="node"><title>Node4</title>
<g id="a_node4"><a xlink:href="../../d3/d9f/class_c_operator_console_app.html#a5ffde398d86b31aa60e8dbb3cd0cf8f4" target="_top" xlink:title="Called after MSG_STDERR is received. ">
<polygon fill="white" stroke="black" points="476.5,-53 476.5,-87 613.5,-87 613.5,-53 476.5,-53"/>
<text text-anchor="start" x="484.5" y="-73.4" font-family="Helvetica,sans-Serif" font-size="12.00">COperatorConsoleApp</text>
<text text-anchor="middle" x="545" y="-60.4" font-family="Helvetica,sans-Serif" font-size="12.00">::OnUpdateStderr</text>
</a>
</g>
</g>
<!-- Node3&#45;&gt;Node4 -->
<g id="edge3" class="edge"><title>Node3&#45;&gt;Node4</title>
<path fill="none" stroke="midnightblue" d="M450.134,-55.2652C458.846,-56.6328 467.666,-58.0173 476.233,-59.3622"/>
<polygon fill="midnightblue" stroke="midnightblue" points="450.401,-51.7643 439.979,-53.6711 449.315,-58.6796 450.401,-51.7643"/>
</g>
<!-- Node6 -->
<g id="node6" class="node"><title>Node6</title>
<g id="a_node6"><a xlink:href="../../d3/d9f/class_c_operator_console_app.html#a1baba590ed8125440723c012ff6a4e77" target="_top" xlink:title="Called after MSG_STDOUT is received. ">
<polygon fill="white" stroke="black" points="476.5,-0 476.5,-34 613.5,-34 613.5,-0 476.5,-0"/>
<text text-anchor="start" x="484.5" y="-20.4" font-family="Helvetica,sans-Serif" font-size="12.00">COperatorConsoleApp</text>
<text text-anchor="middle" x="545" y="-7.4" font-family="Helvetica,sans-Serif" font-size="12.00">::OnUpdateStdout</text>
</a>
</g>
</g>
<!-- Node3&#45;&gt;Node6 -->
<g id="edge5" class="edge"><title>Node3&#45;&gt;Node6</title>
<path fill="none" stroke="midnightblue" d="M450.134,-31.189C458.846,-29.8721 467.666,-28.5389 476.233,-27.2438"/>
<polygon fill="midnightblue" stroke="midnightblue" points="449.343,-27.7687 439.979,-32.7241 450.39,-34.6901 449.343,-27.7687"/>
</g>
<!-- Node5 -->
<g id="node5" class="node"><title>Node5</title>
<g id="a_node5"><a xlink:href="../../d3/d9f/class_c_operator_console_app.html#a7041d197c4e6549f2cb7219981b4eec1" target="_top" xlink:title="Intercepts messages of interest before Windows or MFC. ">
<polygon fill="white" stroke="black" points="650,-26 650,-60 788,-60 788,-26 650,-26"/>
<text text-anchor="start" x="658" y="-46.4" font-family="Helvetica,sans-Serif" font-size="12.00">COperatorConsoleApp</text>
<text text-anchor="middle" x="719" y="-33.4" font-family="Helvetica,sans-Serif" font-size="12.00">::PreTranslateMessage</text>
</a>
</g>
</g>
<!-- Node4&#45;&gt;Node5 -->
<g id="edge4" class="edge"><title>Node4&#45;&gt;Node5</title>
<path fill="none" stroke="midnightblue" d="M624.054,-57.7474C632.696,-56.3907 641.446,-55.0171 649.952,-53.682"/>
<polygon fill="midnightblue" stroke="midnightblue" points="623.315,-54.3204 613.979,-59.3289 624.401,-61.2357 623.315,-54.3204"/>
</g>
<!-- Node6&#45;&gt;Node5 -->
<g id="edge6" class="edge"><title>Node6&#45;&gt;Node5</title>
<path fill="none" stroke="midnightblue" d="M624.054,-28.7988C632.696,-30.1052 641.446,-31.4279 649.952,-32.7136"/>
<polygon fill="midnightblue" stroke="midnightblue" points="624.39,-25.3099 613.979,-27.2759 623.343,-32.2313 624.39,-25.3099"/>
</g>
</g>
</svg>
