<?xml version="1.0" encoding="UTF-8" standalone="no"?>
<!DOCTYPE svg PUBLIC "-//W3C//DTD SVG 1.1//EN"
 "http://www.w3.org/Graphics/SVG/1.1/DTD/svg11.dtd">
<!-- Generated by graphviz version 2.34.0 (20130907.0111)
 -->
<!-- Title: CriticalCString::Set Pages: 1 -->
<svg width="846pt" height="76pt"
 viewBox="0.00 0.00 846.00 76.00" xmlns="http://www.w3.org/2000/svg" xmlns:xlink="http://www.w3.org/1999/xlink">
<g id="graph0" class="graph" transform="scale(1 1) rotate(0) translate(4 72)">
<title>CriticalCString::Set</title>
<polygon fill="white" stroke="white" points="-4,4 -4,-72 842,-72 842,4 -4,4"/>
<!-- Node1 -->
<g id="node1" class="node"><title>Node1</title>
<polygon fill="#bfbfbf" stroke="black" points="0.5,-26.5 0.5,-47.5 117.5,-47.5 117.5,-26.5 0.5,-26.5"/>
<text text-anchor="middle" x="59" y="-33.9" font-family="Helvetica,sans-Serif" font-size="12.00">CriticalCString::Set</text>
</g>
<!-- Node2 -->
<g id="node2" class="node"><title>Node2</title>
<g id="a_node2"><a xlink:href="../../da/d92/class_image_test.html#ae8c27027ba0cc33150ec423c6b7ec6ae" target="_top" xlink:title="ImageTest::ParseFailures">
<polygon fill="white" stroke="black" points="156.5,-46.5 156.5,-67.5 307.5,-67.5 307.5,-46.5 156.5,-46.5"/>
<text text-anchor="middle" x="232" y="-53.9" font-family="Helvetica,sans-Serif" font-size="12.00">ImageTest::ParseFailures</text>
</a>
</g>
</g>
<!-- Node1&#45;&gt;Node2 -->
<g id="edge1" class="edge"><title>Node1&#45;&gt;Node2</title>
<path fill="none" stroke="midnightblue" d="M127.937,-44.9458C137.321,-46.0434 146.999,-47.1754 156.494,-48.2859"/>
<polygon fill="midnightblue" stroke="midnightblue" points="128.232,-41.4565 117.893,-43.7711 127.418,-48.4092 128.232,-41.4565"/>
</g>
<!-- Node3 -->
<g id="node3" class="node"><title>Node3</title>
<g id="a_node3"><a xlink:href="../../d5/d67/class_stdout_thread.html#a5527fa5fc7f110414f03e63b759bc4c3" target="_top" xlink:title="StdoutThread::ThreadProc">
<polygon fill="white" stroke="black" points="154.5,-6.5 154.5,-27.5 309.5,-27.5 309.5,-6.5 154.5,-6.5"/>
<text text-anchor="middle" x="232" y="-13.9" font-family="Helvetica,sans-Serif" font-size="12.00">StdoutThread::ThreadProc</text>
</a>
</g>
</g>
<!-- Node1&#45;&gt;Node3 -->
<g id="edge2" class="edge"><title>Node1&#45;&gt;Node3</title>
<path fill="none" stroke="midnightblue" d="M127.946,-29.0531C136.628,-28.0376 145.563,-26.9927 154.37,-25.9625"/>
<polygon fill="midnightblue" stroke="midnightblue" points="127.418,-25.5908 117.893,-30.2289 128.232,-32.5435 127.418,-25.5908"/>
</g>
<!-- Node4 -->
<g id="node4" class="node"><title>Node4</title>
<g id="a_node4"><a xlink:href="../../d5/d67/class_stdout_thread.html#aab5207762f1d6036974b9bbd4b854a23" target="_top" xlink:title="StdoutThread::InitThread">
<polygon fill="white" stroke="black" points="346,-6.5 346,-27.5 490,-27.5 490,-6.5 346,-6.5"/>
<text text-anchor="middle" x="418" y="-13.9" font-family="Helvetica,sans-Serif" font-size="12.00">StdoutThread::InitThread</text>
</a>
</g>
</g>
<!-- Node3&#45;&gt;Node4 -->
<g id="edge3" class="edge"><title>Node3&#45;&gt;Node4</title>
<path fill="none" stroke="midnightblue" d="M319.833,-17C328.504,-17 337.237,-17 345.721,-17"/>
<polygon fill="midnightblue" stroke="midnightblue" points="319.7,-13.5001 309.7,-17 319.7,-20.5001 319.7,-13.5001"/>
</g>
<!-- Node5 -->
<g id="node5" class="node"><title>Node5</title>
<g id="a_node5"><a xlink:href="../../d3/d9f/class_c_operator_console_app.html#a3326d8200d481631ffb26bff5c621e05" target="_top" xlink:title="COperatorConsoleApp\l::InitOutput">
<polygon fill="white" stroke="black" points="526.5,-0 526.5,-34 663.5,-34 663.5,-0 526.5,-0"/>
<text text-anchor="start" x="534.5" y="-20.4" font-family="Helvetica,sans-Serif" font-size="12.00">COperatorConsoleApp</text>
<text text-anchor="middle" x="595" y="-7.4" font-family="Helvetica,sans-Serif" font-size="12.00">::InitOutput</text>
</a>
</g>
</g>
<!-- Node4&#45;&gt;Node5 -->
<g id="edge4" class="edge"><title>Node4&#45;&gt;Node5</title>
<path fill="none" stroke="midnightblue" d="M500.318,-17C509.005,-17 517.773,-17 526.278,-17"/>
<polygon fill="midnightblue" stroke="midnightblue" points="500.179,-13.5001 490.179,-17 500.179,-20.5001 500.179,-13.5001"/>
</g>
<!-- Node6 -->
<g id="node6" class="node"><title>Node6</title>
<g id="a_node6"><a xlink:href="../../d3/d9f/class_c_operator_console_app.html#a94f4b258145e77e31644beb999bf099a" target="_top" xlink:title="COperatorConsoleApp initialization. ">
<polygon fill="white" stroke="black" points="700.5,-0 700.5,-34 837.5,-34 837.5,-0 700.5,-0"/>
<text text-anchor="start" x="708.5" y="-20.4" font-family="Helvetica,sans-Serif" font-size="12.00">COperatorConsoleApp</text>
<text text-anchor="middle" x="769" y="-7.4" font-family="Helvetica,sans-Serif" font-size="12.00">::InitInstance</text>
</a>
</g>
</g>
<!-- Node5&#45;&gt;Node6 -->
<g id="edge5" class="edge"><title>Node5&#45;&gt;Node6</title>
<path fill="none" stroke="midnightblue" d="M674.134,-17C682.846,-17 691.666,-17 700.233,-17"/>
<polygon fill="midnightblue" stroke="midnightblue" points="673.979,-13.5001 663.979,-17 673.979,-20.5001 673.979,-13.5001"/>
</g>
</g>
</svg>
