<?xml version="1.0" encoding="UTF-8" standalone="no"?>
<!DOCTYPE svg PUBLIC "-//W3C//DTD SVG 1.1//EN"
 "http://www.w3.org/Graphics/SVG/1.1/DTD/svg11.dtd">
<!-- Generated by graphviz version 2.34.0 (20130907.0111)
 -->
<!-- Title: mclDefaultErrorHandler Pages: 1 -->
<svg width="664pt" height="42pt"
 viewBox="0.00 0.00 664.00 42.00" xmlns="http://www.w3.org/2000/svg" xmlns:xlink="http://www.w3.org/1999/xlink">
<g id="graph0" class="graph" transform="scale(1 1) rotate(0) translate(4 38)">
<title>mclDefaultErrorHandler</title>
<polygon fill="white" stroke="white" points="-4,4 -4,-38 660,-38 660,4 -4,4"/>
<!-- Node1 -->
<g id="node1" class="node"><title>Node1</title>
<polygon fill="#bfbfbf" stroke="black" points="0,-6.5 0,-27.5 138,-27.5 138,-6.5 0,-6.5"/>
<text text-anchor="middle" x="69" y="-13.9" font-family="Helvetica,sans-Serif" font-size="12.00">mclDefaultErrorHandler</text>
</g>
<!-- Node2 -->
<g id="node2" class="node"><title>Node2</title>
<g id="a_node2"><a xlink:href="../../da/d69/imatest__library_8h.html#a5e2883cbd4857cc3ccca20aadd262f91" target="_top" xlink:title="imatest_libraryInitialize">
<polygon fill="white" stroke="black" points="174,-6.5 174,-27.5 308,-27.5 308,-6.5 174,-6.5"/>
<text text-anchor="middle" x="241" y="-13.9" font-family="Helvetica,sans-Serif" font-size="12.00">imatest_libraryInitialize</text>
</a>
</g>
</g>
<!-- Node1&#45;&gt;Node2 -->
<g id="edge1" class="edge"><title>Node1&#45;&gt;Node2</title>
<path fill="none" stroke="midnightblue" d="M148.428,-17C156.896,-17 165.451,-17 173.754,-17"/>
<polygon fill="midnightblue" stroke="midnightblue" points="148.166,-13.5001 138.166,-17 148.166,-20.5001 148.166,-13.5001"/>
</g>
<!-- Node3 -->
<g id="node3" class="node"><title>Node3</title>
<g id="a_node3"><a xlink:href="../../d3/d9f/class_c_operator_console_app.html#a609b0f5874afb0cf46b76de94e0312e5" target="_top" xlink:title="Function that initializes the Imatest library. Must be called before any Imatest library functions ar...">
<polygon fill="white" stroke="black" points="344.5,-0 344.5,-34 481.5,-34 481.5,-0 344.5,-0"/>
<text text-anchor="start" x="352.5" y="-20.4" font-family="Helvetica,sans-Serif" font-size="12.00">COperatorConsoleApp</text>
<text text-anchor="middle" x="413" y="-7.4" font-family="Helvetica,sans-Serif" font-size="12.00">::InitLibs</text>
</a>
</g>
</g>
<!-- Node2&#45;&gt;Node3 -->
<g id="edge2" class="edge"><title>Node2&#45;&gt;Node3</title>
<path fill="none" stroke="midnightblue" d="M318.303,-17C326.964,-17 335.747,-17 344.287,-17"/>
<polygon fill="midnightblue" stroke="midnightblue" points="318.213,-13.5001 308.213,-17 318.213,-20.5001 318.213,-13.5001"/>
</g>
<!-- Node4 -->
<g id="node4" class="node"><title>Node4</title>
<g id="a_node4"><a xlink:href="../../d3/d9f/class_c_operator_console_app.html#a94f4b258145e77e31644beb999bf099a" target="_top" xlink:title="COperatorConsoleApp initialization. ">
<polygon fill="white" stroke="black" points="518.5,-0 518.5,-34 655.5,-34 655.5,-0 518.5,-0"/>
<text text-anchor="start" x="526.5" y="-20.4" font-family="Helvetica,sans-Serif" font-size="12.00">COperatorConsoleApp</text>
<text text-anchor="middle" x="587" y="-7.4" font-family="Helvetica,sans-Serif" font-size="12.00">::InitInstance</text>
</a>
</g>
</g>
<!-- Node3&#45;&gt;Node4 -->
<g id="edge3" class="edge"><title>Node3&#45;&gt;Node4</title>
<path fill="none" stroke="midnightblue" d="M492.134,-17C500.846,-17 509.666,-17 518.233,-17"/>
<polygon fill="midnightblue" stroke="midnightblue" points="491.979,-13.5001 481.979,-17 491.979,-20.5001 491.979,-13.5001"/>
</g>
</g>
</svg>
