<?xml version="1.0" encoding="UTF-8" standalone="no"?>
<!DOCTYPE svg PUBLIC "-//W3C//DTD SVG 1.1//EN"
 "http://www.w3.org/Graphics/SVG/1.1/DTD/svg11.dtd">
<!-- Generated by graphviz version 2.34.0 (20130907.0111)
 -->
<!-- Title: mclDefaultPrintHandler Pages: 1 -->
<svg width="662pt" height="42pt"
 viewBox="0.00 0.00 662.00 42.00" xmlns="http://www.w3.org/2000/svg" xmlns:xlink="http://www.w3.org/1999/xlink">
<g id="graph0" class="graph" transform="scale(1 1) rotate(0) translate(4 38)">
<title>mclDefaultPrintHandler</title>
<polygon fill="white" stroke="white" points="-4,4 -4,-38 658,-38 658,4 -4,4"/>
<!-- Node1 -->
<g id="node1" class="node"><title>Node1</title>
<polygon fill="#bfbfbf" stroke="black" points="0,-6.5 0,-27.5 136,-27.5 136,-6.5 0,-6.5"/>
<text text-anchor="middle" x="68" y="-13.9" font-family="Helvetica,sans-Serif" font-size="12.00">mclDefaultPrintHandler</text>
</g>
<!-- Node2 -->
<g id="node2" class="node"><title>Node2</title>
<g id="a_node2"><a xlink:href="../../da/d69/imatest__library_8h.html#a5e2883cbd4857cc3ccca20aadd262f91" target="_top" xlink:title="imatest_libraryInitialize">
<polygon fill="white" stroke="black" points="172,-6.5 172,-27.5 306,-27.5 306,-6.5 172,-6.5"/>
<text text-anchor="middle" x="239" y="-13.9" font-family="Helvetica,sans-Serif" font-size="12.00">imatest_libraryInitialize</text>
</a>
</g>
</g>
<!-- Node1&#45;&gt;Node2 -->
<g id="edge1" class="edge"><title>Node1&#45;&gt;Node2</title>
<path fill="none" stroke="midnightblue" d="M146.509,-17C154.952,-17 163.489,-17 171.78,-17"/>
<polygon fill="midnightblue" stroke="midnightblue" points="146.279,-13.5001 136.279,-17 146.279,-20.5001 146.279,-13.5001"/>
</g>
<!-- Node3 -->
<g id="node3" class="node"><title>Node3</title>
<g id="a_node3"><a xlink:href="../../d3/d9f/class_c_operator_console_app.html#a609b0f5874afb0cf46b76de94e0312e5" target="_top" xlink:title="Function that initializes the Imatest library. Must be called before any Imatest library functions ar...">
<polygon fill="white" stroke="black" points="342.5,-0 342.5,-34 479.5,-34 479.5,-0 342.5,-0"/>
<text text-anchor="start" x="350.5" y="-20.4" font-family="Helvetica,sans-Serif" font-size="12.00">COperatorConsoleApp</text>
<text text-anchor="middle" x="411" y="-7.4" font-family="Helvetica,sans-Serif" font-size="12.00">::InitLibs</text>
</a>
</g>
</g>
<!-- Node2&#45;&gt;Node3 -->
<g id="edge2" class="edge"><title>Node2&#45;&gt;Node3</title>
<path fill="none" stroke="midnightblue" d="M316.303,-17C324.964,-17 333.747,-17 342.287,-17"/>
<polygon fill="midnightblue" stroke="midnightblue" points="316.213,-13.5001 306.213,-17 316.213,-20.5001 316.213,-13.5001"/>
</g>
<!-- Node4 -->
<g id="node4" class="node"><title>Node4</title>
<g id="a_node4"><a xlink:href="../../d3/d9f/class_c_operator_console_app.html#a94f4b258145e77e31644beb999bf099a" target="_top" xlink:title="COperatorConsoleApp initialization. ">
<polygon fill="white" stroke="black" points="516.5,-0 516.5,-34 653.5,-34 653.5,-0 516.5,-0"/>
<text text-anchor="start" x="524.5" y="-20.4" font-family="Helvetica,sans-Serif" font-size="12.00">COperatorConsoleApp</text>
<text text-anchor="middle" x="585" y="-7.4" font-family="Helvetica,sans-Serif" font-size="12.00">::InitInstance</text>
</a>
</g>
</g>
<!-- Node3&#45;&gt;Node4 -->
<g id="edge3" class="edge"><title>Node3&#45;&gt;Node4</title>
<path fill="none" stroke="midnightblue" d="M490.134,-17C498.846,-17 507.666,-17 516.233,-17"/>
<polygon fill="midnightblue" stroke="midnightblue" points="489.979,-13.5001 479.979,-17 489.979,-20.5001 489.979,-13.5001"/>
</g>
</g>
</svg>
