<?xml version="1.0" encoding="UTF-8" standalone="no"?>
<!DOCTYPE svg PUBLIC "-//W3C//DTD SVG 1.1//EN"
 "http://www.w3.org/Graphics/SVG/1.1/DTD/svg11.dtd">
<!-- Generated by graphviz version 2.34.0 (20130907.0111)
 -->
<!-- Title: inifile Pages: 1 -->
<svg width="574pt" height="201pt"
 viewBox="0.00 0.00 574.00 201.00" xmlns="http://www.w3.org/2000/svg" xmlns:xlink="http://www.w3.org/1999/xlink">
<g id="graph0" class="graph" transform="scale(1 1) rotate(0) translate(4 197)">
<title>inifile</title>
<polygon fill="white" stroke="white" points="-4,4 -4,-197 570,-197 570,4 -4,4"/>
<!-- Node1 -->
<g id="node1" class="node"><title>Node1</title>
<polygon fill="#bfbfbf" stroke="black" points="0,-85.5 0,-106.5 44,-106.5 44,-85.5 0,-85.5"/>
<text text-anchor="middle" x="22" y="-92.9" font-family="Helvetica,sans-Serif" font-size="12.00">inifile</text>
</g>
<!-- Node2 -->
<g id="node2" class="node"><title>Node2</title>
<g id="a_node2"><a xlink:href="../../d3/d9f/class_c_operator_console_app.html#a3ee628baf779a1be1e323a84fccc1d23" target="_top" xlink:title="This function reads in items for the setup dialog from imatest.ini. ">
<polygon fill="white" stroke="black" points="80.5,-159 80.5,-193 217.5,-193 217.5,-159 80.5,-159"/>
<text text-anchor="start" x="88.5" y="-179.4" font-family="Helvetica,sans-Serif" font-size="12.00">COperatorConsoleApp</text>
<text text-anchor="middle" x="149" y="-166.4" font-family="Helvetica,sans-Serif" font-size="12.00">::ReadINISettings</text>
</a>
</g>
</g>
<!-- Node1&#45;&gt;Node2 -->
<g id="edge1" class="edge"><title>Node1&#45;&gt;Node2</title>
<path fill="none" stroke="midnightblue" d="M39.1695,-114.154C49.8867,-125.349 64.7408,-139.358 80,-149 85.7986,-152.664 92.1766,-155.983 98.6315,-158.941"/>
<polygon fill="midnightblue" stroke="midnightblue" points="41.5222,-111.544 32.1502,-106.603 36.3953,-116.31 41.5222,-111.544"/>
</g>
<!-- Node4 -->
<g id="node4" class="node"><title>Node4</title>
<g id="a_node4"><a xlink:href="../../d3/d9f/class_c_operator_console_app.html#a864bc0130d261b22868920143919ceb7" target="_top" xlink:title="This function reads in the pass/fail variable values as in the pass/fail file listed in the imatest I...">
<polygon fill="white" stroke="black" points="80.5,-106 80.5,-140 217.5,-140 217.5,-106 80.5,-106"/>
<text text-anchor="start" x="88.5" y="-126.4" font-family="Helvetica,sans-Serif" font-size="12.00">COperatorConsoleApp</text>
<text text-anchor="middle" x="149" y="-113.4" font-family="Helvetica,sans-Serif" font-size="12.00">::ReadPassFail</text>
</a>
</g>
</g>
<!-- Node1&#45;&gt;Node4 -->
<g id="edge3" class="edge"><title>Node1&#45;&gt;Node4</title>
<path fill="none" stroke="midnightblue" d="M54.1695,-102.733C62.2086,-104.469 71.1805,-106.407 80.3011,-108.377"/>
<polygon fill="midnightblue" stroke="midnightblue" points="54.7181,-99.2705 44.2045,-100.58 53.2401,-106.113 54.7181,-99.2705"/>
</g>
<!-- Node5 -->
<g id="node5" class="node"><title>Node5</title>
<g id="a_node5"><a xlink:href="../../d3/d9f/class_c_operator_console_app.html#a7bcf9790237d98d6b2182623b4e500fd" target="_top" xlink:title="This function writes items for the setup dialog to imatest.ini. ">
<polygon fill="white" stroke="black" points="80.5,-53 80.5,-87 217.5,-87 217.5,-53 80.5,-53"/>
<text text-anchor="start" x="88.5" y="-73.4" font-family="Helvetica,sans-Serif" font-size="12.00">COperatorConsoleApp</text>
<text text-anchor="middle" x="149" y="-60.4" font-family="Helvetica,sans-Serif" font-size="12.00">::WriteINISettings</text>
</a>
</g>
</g>
<!-- Node1&#45;&gt;Node5 -->
<g id="edge5" class="edge"><title>Node1&#45;&gt;Node5</title>
<path fill="none" stroke="midnightblue" d="M54.1695,-89.5167C62.2086,-87.8446 71.1805,-85.9785 80.3011,-84.0814"/>
<polygon fill="midnightblue" stroke="midnightblue" points="53.2822,-86.1263 44.2045,-91.5895 54.7078,-92.9796 53.2822,-86.1263"/>
</g>
<!-- Node8 -->
<g id="node8" class="node"><title>Node8</title>
<g id="a_node8"><a xlink:href="../../d3/d9f/class_c_operator_console_app.html#aab4583fb7e725968ea95224ef0c773e7" target="_top" xlink:title="This function writes the pass/fail variables to the pass/fail file listed in the imatest INI file...">
<polygon fill="white" stroke="black" points="80.5,-0 80.5,-34 217.5,-34 217.5,-0 80.5,-0"/>
<text text-anchor="start" x="88.5" y="-20.4" font-family="Helvetica,sans-Serif" font-size="12.00">COperatorConsoleApp</text>
<text text-anchor="middle" x="149" y="-7.4" font-family="Helvetica,sans-Serif" font-size="12.00">::WritePassFail</text>
</a>
</g>
</g>
<!-- Node1&#45;&gt;Node8 -->
<g id="edge8" class="edge"><title>Node1&#45;&gt;Node8</title>
<path fill="none" stroke="midnightblue" d="M39.6196,-77.8083C50.3286,-66.8995 65.0112,-53.3714 80,-44 85.8159,-40.3637 92.2039,-37.0601 98.6638,-34.1107"/>
<polygon fill="midnightblue" stroke="midnightblue" points="36.9463,-75.54 32.5766,-85.1918 42.0115,-80.3717 36.9463,-75.54"/>
</g>
<!-- Node3 -->
<g id="node3" class="node"><title>Node3</title>
<g id="a_node3"><a xlink:href="../../d3/d9f/class_c_operator_console_app.html#a94f4b258145e77e31644beb999bf099a" target="_top" xlink:title="COperatorConsoleApp initialization. ">
<polygon fill="white" stroke="black" points="254.5,-106 254.5,-140 391.5,-140 391.5,-106 254.5,-106"/>
<text text-anchor="start" x="262.5" y="-126.4" font-family="Helvetica,sans-Serif" font-size="12.00">COperatorConsoleApp</text>
<text text-anchor="middle" x="323" y="-113.4" font-family="Helvetica,sans-Serif" font-size="12.00">::InitInstance</text>
</a>
</g>
</g>
<!-- Node2&#45;&gt;Node3 -->
<g id="edge2" class="edge"><title>Node2&#45;&gt;Node3</title>
<path fill="none" stroke="midnightblue" d="M215.212,-155.906C232.193,-150.673 250.324,-145.086 266.735,-140.029"/>
<polygon fill="midnightblue" stroke="midnightblue" points="213.895,-152.649 205.369,-158.939 215.956,-159.339 213.895,-152.649"/>
</g>
<!-- Node4&#45;&gt;Node3 -->
<g id="edge4" class="edge"><title>Node4&#45;&gt;Node3</title>
<path fill="none" stroke="midnightblue" d="M228.134,-123C236.846,-123 245.666,-123 254.233,-123"/>
<polygon fill="midnightblue" stroke="midnightblue" points="227.979,-119.5 217.979,-123 227.979,-126.5 227.979,-119.5"/>
</g>
<!-- Node6 -->
<g id="node6" class="node"><title>Node6</title>
<g id="a_node6"><a xlink:href="../../d3/d9f/class_c_operator_console_app.html#a620f8d2eed65d743bb177abcb90936e6" target="_top" xlink:title="Called after MSG_SETUP is received. ">
<polygon fill="white" stroke="black" points="254.5,-53 254.5,-87 391.5,-87 391.5,-53 254.5,-53"/>
<text text-anchor="start" x="262.5" y="-73.4" font-family="Helvetica,sans-Serif" font-size="12.00">COperatorConsoleApp</text>
<text text-anchor="middle" x="323" y="-60.4" font-family="Helvetica,sans-Serif" font-size="12.00">::OnSetup</text>
</a>
</g>
</g>
<!-- Node5&#45;&gt;Node6 -->
<g id="edge6" class="edge"><title>Node5&#45;&gt;Node6</title>
<path fill="none" stroke="midnightblue" d="M228.134,-70C236.846,-70 245.666,-70 254.233,-70"/>
<polygon fill="midnightblue" stroke="midnightblue" points="227.979,-66.5001 217.979,-70 227.979,-73.5001 227.979,-66.5001"/>
</g>
<!-- Node7 -->
<g id="node7" class="node"><title>Node7</title>
<g id="a_node7"><a xlink:href="../../d3/d9f/class_c_operator_console_app.html#a7041d197c4e6549f2cb7219981b4eec1" target="_top" xlink:title="Intercepts messages of interest before Windows or MFC. ">
<polygon fill="white" stroke="black" points="428,-26 428,-60 566,-60 566,-26 428,-26"/>
<text text-anchor="start" x="436" y="-46.4" font-family="Helvetica,sans-Serif" font-size="12.00">COperatorConsoleApp</text>
<text text-anchor="middle" x="497" y="-33.4" font-family="Helvetica,sans-Serif" font-size="12.00">::PreTranslateMessage</text>
</a>
</g>
</g>
<!-- Node6&#45;&gt;Node7 -->
<g id="edge7" class="edge"><title>Node6&#45;&gt;Node7</title>
<path fill="none" stroke="midnightblue" d="M402.054,-57.7474C410.696,-56.3907 419.446,-55.0171 427.952,-53.682"/>
<polygon fill="midnightblue" stroke="midnightblue" points="401.315,-54.3204 391.979,-59.3289 402.401,-61.2357 401.315,-54.3204"/>
</g>
<!-- Node9 -->
<g id="node9" class="node"><title>Node9</title>
<g id="a_node9"><a xlink:href="../../d3/d9f/class_c_operator_console_app.html#a04972a8a1e21b10b9bf422396ff97644" target="_top" xlink:title="Called after MSG_PASS_FAIL is received. ">
<polygon fill="white" stroke="black" points="254.5,-0 254.5,-34 391.5,-34 391.5,-0 254.5,-0"/>
<text text-anchor="start" x="262.5" y="-20.4" font-family="Helvetica,sans-Serif" font-size="12.00">COperatorConsoleApp</text>
<text text-anchor="middle" x="323" y="-7.4" font-family="Helvetica,sans-Serif" font-size="12.00">::OnPassFail</text>
</a>
</g>
</g>
<!-- Node8&#45;&gt;Node9 -->
<g id="edge9" class="edge"><title>Node8&#45;&gt;Node9</title>
<path fill="none" stroke="midnightblue" d="M228.134,-17C236.846,-17 245.666,-17 254.233,-17"/>
<polygon fill="midnightblue" stroke="midnightblue" points="227.979,-13.5001 217.979,-17 227.979,-20.5001 227.979,-13.5001"/>
</g>
<!-- Node9&#45;&gt;Node7 -->
<g id="edge10" class="edge"><title>Node9&#45;&gt;Node7</title>
<path fill="none" stroke="midnightblue" d="M402.054,-28.7988C410.696,-30.1052 419.446,-31.4279 427.952,-32.7136"/>
<polygon fill="midnightblue" stroke="midnightblue" points="402.39,-25.3099 391.979,-27.2759 401.343,-32.2313 402.39,-25.3099"/>
</g>
</g>
</svg>
