<?xml version="1.0" encoding="UTF-8" standalone="no"?>
<!DOCTYPE svg PUBLIC "-//W3C//DTD SVG 1.1//EN"
 "http://www.w3.org/Graphics/SVG/1.1/DTD/svg11.dtd">
<!-- Generated by graphviz version 2.34.0 (20130907.0111)
 -->
<!-- Title: imatest_libraryTerminate Pages: 1 -->
<svg width="502pt" height="42pt"
 viewBox="0.00 0.00 502.00 42.00" xmlns="http://www.w3.org/2000/svg" xmlns:xlink="http://www.w3.org/1999/xlink">
<g id="graph0" class="graph" transform="scale(1 1) rotate(0) translate(4 38)">
<title>imatest_libraryTerminate</title>
<polygon fill="white" stroke="white" points="-4,4 -4,-38 498,-38 498,4 -4,4"/>
<!-- Node1 -->
<g id="node1" class="node"><title>Node1</title>
<polygon fill="#bfbfbf" stroke="black" points="0,-6.5 0,-27.5 146,-27.5 146,-6.5 0,-6.5"/>
<text text-anchor="middle" x="73" y="-13.9" font-family="Helvetica,sans-Serif" font-size="12.00">imatest_libraryTerminate</text>
</g>
<!-- Node2 -->
<g id="node2" class="node"><title>Node2</title>
<g id="a_node2"><a xlink:href="../../d3/d9f/class_c_operator_console_app.html#ae77367b83a556990cfd7827dc7b73230" target="_top" xlink:title="Function that closes the Imatest library. Note that once closed, the library cannot be reinitialized...">
<polygon fill="white" stroke="black" points="182.5,-0 182.5,-34 319.5,-34 319.5,-0 182.5,-0"/>
<text text-anchor="start" x="190.5" y="-20.4" font-family="Helvetica,sans-Serif" font-size="12.00">COperatorConsoleApp</text>
<text text-anchor="middle" x="251" y="-7.4" font-family="Helvetica,sans-Serif" font-size="12.00">::CloseLibs</text>
</a>
</g>
</g>
<!-- Node1&#45;&gt;Node2 -->
<g id="edge1" class="edge"><title>Node1&#45;&gt;Node2</title>
<path fill="none" stroke="midnightblue" d="M156.262,-17C164.97,-17 173.754,-17 182.27,-17"/>
<polygon fill="midnightblue" stroke="midnightblue" points="156.094,-13.5001 146.094,-17 156.094,-20.5001 156.094,-13.5001"/>
</g>
<!-- Node3 -->
<g id="node3" class="node"><title>Node3</title>
<g id="a_node3"><a xlink:href="../../d3/d9f/class_c_operator_console_app.html#a94f4b258145e77e31644beb999bf099a" target="_top" xlink:title="COperatorConsoleApp initialization. ">
<polygon fill="white" stroke="black" points="356.5,-0 356.5,-34 493.5,-34 493.5,-0 356.5,-0"/>
<text text-anchor="start" x="364.5" y="-20.4" font-family="Helvetica,sans-Serif" font-size="12.00">COperatorConsoleApp</text>
<text text-anchor="middle" x="425" y="-7.4" font-family="Helvetica,sans-Serif" font-size="12.00">::InitInstance</text>
</a>
</g>
</g>
<!-- Node2&#45;&gt;Node3 -->
<g id="edge2" class="edge"><title>Node2&#45;&gt;Node3</title>
<path fill="none" stroke="midnightblue" d="M330.134,-17C338.846,-17 347.666,-17 356.233,-17"/>
<polygon fill="midnightblue" stroke="midnightblue" points="329.979,-13.5001 319.979,-17 329.979,-20.5001 329.979,-13.5001"/>
</g>
</g>
</svg>
