<?xml version="1.0" encoding="UTF-8" standalone="no"?>
<!DOCTYPE svg PUBLIC "-//W3C//DTD SVG 1.1//EN"
 "http://www.w3.org/Graphics/SVG/1.1/DTD/svg11.dtd">
<!-- Generated by graphviz version 2.34.0 (20130907.0111)
 -->
<!-- Title: SimpleDirectShowAcq.cpp Pages: 1 -->
<svg width="672pt" height="320pt"
 viewBox="0.00 0.00 672.00 320.00" xmlns="http://www.w3.org/2000/svg" xmlns:xlink="http://www.w3.org/1999/xlink">
<g id="graph0" class="graph" transform="scale(1 1) rotate(0) translate(4 316)">
<title>SimpleDirectShowAcq.cpp</title>
<polygon fill="white" stroke="white" points="-4,4 -4,-316 668,-316 668,4 -4,4"/>
<!-- Node1 -->
<g id="node1" class="node"><title>Node1</title>
<polygon fill="#bfbfbf" stroke="black" points="202,-290.5 202,-311.5 360,-311.5 360,-290.5 202,-290.5"/>
<text text-anchor="middle" x="281" y="-297.9" font-family="Helvetica,sans-Serif" font-size="12.00">SimpleDirectShowAcq.cpp</text>
</g>
<!-- Node2 -->
<g id="node2" class="node"><title>Node2</title>
<g id="a_node2"><a xlink:href="../../db/d06/stdafx_8h.html" target="_top" xlink:title="stdafx.h">
<polygon fill="white" stroke="black" points="264,-116.5 264,-137.5 320,-137.5 320,-116.5 264,-116.5"/>
<text text-anchor="middle" x="292" y="-123.9" font-family="Helvetica,sans-Serif" font-size="12.00">stdafx.h</text>
</a>
</g>
</g>
<!-- Node1&#45;&gt;Node2 -->
<g id="edge1" class="edge"><title>Node1&#45;&gt;Node2</title>
<path fill="none" stroke="midnightblue" d="M282.202,-290.27C284.413,-271.887 289.076,-230.773 291,-196 291.897,-179.79 292.119,-161.376 292.132,-147.802"/>
<polygon fill="midnightblue" stroke="midnightblue" points="295.632,-147.683 292.104,-137.693 288.632,-147.702 295.632,-147.683"/>
</g>
<!-- Node11 -->
<g id="node11" class="node"><title>Node11</title>
<polygon fill="white" stroke="#bfbfbf" points="338.5,-232.5 338.5,-253.5 451.5,-253.5 451.5,-232.5 338.5,-232.5"/>
<text text-anchor="middle" x="395" y="-239.9" font-family="Helvetica,sans-Serif" font-size="12.00">escapi21\escapi.h</text>
</g>
<!-- Node1&#45;&gt;Node11 -->
<g id="edge10" class="edge"><title>Node1&#45;&gt;Node11</title>
<path fill="none" stroke="midnightblue" d="M300.597,-290.373C318.733,-281.464 345.914,-268.113 366.459,-258.02"/>
<polygon fill="midnightblue" stroke="midnightblue" points="368.226,-261.052 375.658,-253.501 365.14,-254.769 368.226,-261.052"/>
</g>
<!-- Node12 -->
<g id="node12" class="node"><title>Node12</title>
<g id="a_node12"><a xlink:href="../../d8/d4d/_simple_direct_show_acq_8h.html" target="_top" xlink:title="SimpleDirectShowAcq.h">
<polygon fill="white" stroke="black" points="67,-232.5 67,-253.5 211,-253.5 211,-232.5 67,-232.5"/>
<text text-anchor="middle" x="139" y="-239.9" font-family="Helvetica,sans-Serif" font-size="12.00">SimpleDirectShowAcq.h</text>
</a>
</g>
</g>
<!-- Node1&#45;&gt;Node12 -->
<g id="edge11" class="edge"><title>Node1&#45;&gt;Node12</title>
<path fill="none" stroke="midnightblue" d="M256.589,-290.373C233.386,-281.223 198.296,-267.384 172.486,-257.206"/>
<polygon fill="midnightblue" stroke="midnightblue" points="173.679,-253.914 163.092,-253.501 171.111,-260.426 173.679,-253.914"/>
</g>
<!-- Node17 -->
<g id="node17" class="node"><title>Node17</title>
<g id="a_node17"><a xlink:href="../../da/d22/_thread_control_8h.html" target="_top" xlink:title="ThreadControl.h">
<polygon fill="white" stroke="black" points="182,-174.5 182,-195.5 282,-195.5 282,-174.5 182,-174.5"/>
<text text-anchor="middle" x="232" y="-181.9" font-family="Helvetica,sans-Serif" font-size="12.00">ThreadControl.h</text>
</a>
</g>
</g>
<!-- Node1&#45;&gt;Node17 -->
<g id="edge17" class="edge"><title>Node1&#45;&gt;Node17</title>
<path fill="none" stroke="midnightblue" d="M276.822,-290.28C268.722,-271.435 250.751,-229.624 240.189,-205.053"/>
<polygon fill="midnightblue" stroke="midnightblue" points="243.332,-203.5 236.167,-195.695 236.901,-206.264 243.332,-203.5"/>
</g>
<!-- Node3 -->
<g id="node3" class="node"><title>Node3</title>
<g id="a_node3"><a xlink:href="../../d9/da6/targetver_8h.html" target="_top" xlink:title="targetver.h">
<polygon fill="white" stroke="black" points="442.5,-58.5 442.5,-79.5 513.5,-79.5 513.5,-58.5 442.5,-58.5"/>
<text text-anchor="middle" x="478" y="-65.9" font-family="Helvetica,sans-Serif" font-size="12.00">targetver.h</text>
</a>
</g>
</g>
<!-- Node2&#45;&gt;Node3 -->
<g id="edge2" class="edge"><title>Node2&#45;&gt;Node3</title>
<path fill="none" stroke="midnightblue" d="M320.249,-117.495C351.143,-108.193 400.962,-93.1943 436.342,-82.5422"/>
<polygon fill="midnightblue" stroke="midnightblue" points="437.799,-85.7588 446.365,-79.5244 435.781,-79.056 437.799,-85.7588"/>
</g>
<!-- Node5 -->
<g id="node5" class="node"><title>Node5</title>
<polygon fill="white" stroke="#bfbfbf" points="532,-58.5 532,-79.5 590,-79.5 590,-58.5 532,-58.5"/>
<text text-anchor="middle" x="561" y="-65.9" font-family="Helvetica,sans-Serif" font-size="12.00">afxwin.h</text>
</g>
<!-- Node2&#45;&gt;Node5 -->
<g id="edge4" class="edge"><title>Node2&#45;&gt;Node5</title>
<path fill="none" stroke="midnightblue" d="M320.073,-120.888C361.724,-113.194 442.557,-97.8491 521.534,-80.0069"/>
<polygon fill="midnightblue" stroke="midnightblue" points="522.679,-83.3358 531.654,-77.7043 521.126,-76.5102 522.679,-83.3358"/>
</g>
<!-- Node6 -->
<g id="node6" class="node"><title>Node6</title>
<polygon fill="white" stroke="#bfbfbf" points="608,-58.5 608,-79.5 664,-79.5 664,-58.5 608,-58.5"/>
<text text-anchor="middle" x="636" y="-65.9" font-family="Helvetica,sans-Serif" font-size="12.00">afxext.h</text>
</g>
<!-- Node2&#45;&gt;Node6 -->
<g id="edge5" class="edge"><title>Node2&#45;&gt;Node6</title>
<path fill="none" stroke="midnightblue" d="M320.13,-122.886C372.757,-116.824 489.82,-102.231 597.722,-80.078"/>
<polygon fill="midnightblue" stroke="midnightblue" points="598.722,-83.4451 607.799,-77.9812 597.296,-76.5919 598.722,-83.4451"/>
</g>
<!-- Node7 -->
<g id="node7" class="node"><title>Node7</title>
<polygon fill="white" stroke="#bfbfbf" points="84.5,-58.5 84.5,-79.5 147.5,-79.5 147.5,-58.5 84.5,-58.5"/>
<text text-anchor="middle" x="116" y="-65.9" font-family="Helvetica,sans-Serif" font-size="12.00">afxdisp.h</text>
</g>
<!-- Node2&#45;&gt;Node7 -->
<g id="edge6" class="edge"><title>Node2&#45;&gt;Node7</title>
<path fill="none" stroke="midnightblue" d="M263.723,-117.003C234.486,-107.7 188.599,-93.0995 155.726,-82.64"/>
<polygon fill="midnightblue" stroke="midnightblue" points="156.565,-79.2342 145.974,-79.5373 154.442,-85.9047 156.565,-79.2342"/>
</g>
<!-- Node8 -->
<g id="node8" class="node"><title>Node8</title>
<polygon fill="white" stroke="#bfbfbf" points="166,-58.5 166,-79.5 228,-79.5 228,-58.5 166,-58.5"/>
<text text-anchor="middle" x="197" y="-65.9" font-family="Helvetica,sans-Serif" font-size="12.00">afxdtctl.h</text>
</g>
<!-- Node2&#45;&gt;Node8 -->
<g id="edge7" class="edge"><title>Node2&#45;&gt;Node8</title>
<path fill="none" stroke="midnightblue" d="M275.452,-116.246C260.74,-107.573 239.011,-94.7645 222.15,-84.825"/>
<polygon fill="midnightblue" stroke="midnightblue" points="223.75,-81.7057 213.358,-79.6427 220.195,-87.736 223.75,-81.7057"/>
</g>
<!-- Node9 -->
<g id="node9" class="node"><title>Node9</title>
<polygon fill="white" stroke="#bfbfbf" points="246,-58.5 246,-79.5 308,-79.5 308,-58.5 246,-58.5"/>
<text text-anchor="middle" x="277" y="-65.9" font-family="Helvetica,sans-Serif" font-size="12.00">afxcmn.h</text>
</g>
<!-- Node2&#45;&gt;Node9 -->
<g id="edge8" class="edge"><title>Node2&#45;&gt;Node9</title>
<path fill="none" stroke="midnightblue" d="M289.387,-116.246C287.408,-108.858 284.626,-98.4689 282.199,-89.4087"/>
<polygon fill="midnightblue" stroke="midnightblue" points="285.551,-88.3966 279.583,-79.6427 278.789,-90.2078 285.551,-88.3966"/>
</g>
<!-- Node10 -->
<g id="node10" class="node"><title>Node10</title>
<polygon fill="white" stroke="#bfbfbf" points="326,-58.5 326,-79.5 424,-79.5 424,-58.5 326,-58.5"/>
<text text-anchor="middle" x="375" y="-65.9" font-family="Helvetica,sans-Serif" font-size="12.00">afxcontrolbars.h</text>
</g>
<!-- Node2&#45;&gt;Node10 -->
<g id="edge9" class="edge"><title>Node2&#45;&gt;Node10</title>
<path fill="none" stroke="midnightblue" d="M306.457,-116.246C319.073,-107.734 337.594,-95.2375 352.205,-85.3801"/>
<polygon fill="midnightblue" stroke="midnightblue" points="354.376,-88.1371 360.708,-79.6427 350.461,-82.3343 354.376,-88.1371"/>
</g>
<!-- Node4 -->
<g id="node4" class="node"><title>Node4</title>
<polygon fill="white" stroke="#bfbfbf" points="430,-0.5 430,-21.5 526,-21.5 526,-0.5 430,-0.5"/>
<text text-anchor="middle" x="478" y="-7.9" font-family="Helvetica,sans-Serif" font-size="12.00">SDKDDKVer.h</text>
</g>
<!-- Node3&#45;&gt;Node4 -->
<g id="edge3" class="edge"><title>Node3&#45;&gt;Node4</title>
<path fill="none" stroke="midnightblue" d="M478,-58.2455C478,-50.9382 478,-40.6944 478,-31.7046"/>
<polygon fill="midnightblue" stroke="midnightblue" points="481.5,-31.6426 478,-21.6427 474.5,-31.6427 481.5,-31.6426"/>
</g>
<!-- Node13 -->
<g id="node13" class="node"><title>Node13</title>
<g id="a_node13"><a xlink:href="../../d3/d62/_image_acquisition_8h.html" target="_top" xlink:title="ImageAcquisition.h">
<polygon fill="white" stroke="black" points="48,-174.5 48,-195.5 164,-195.5 164,-174.5 48,-174.5"/>
<text text-anchor="middle" x="106" y="-181.9" font-family="Helvetica,sans-Serif" font-size="12.00">ImageAcquisition.h</text>
</a>
</g>
</g>
<!-- Node12&#45;&gt;Node13 -->
<g id="edge12" class="edge"><title>Node12&#45;&gt;Node13</title>
<path fill="none" stroke="midnightblue" d="M133.252,-232.246C128.756,-224.617 122.375,-213.788 116.918,-204.527"/>
<polygon fill="midnightblue" stroke="midnightblue" points="119.775,-202.481 111.682,-195.643 113.744,-206.035 119.775,-202.481"/>
</g>
<!-- Node13&#45;&gt;Node2 -->
<g id="edge13" class="edge"><title>Node13&#45;&gt;Node2</title>
<path fill="none" stroke="midnightblue" d="M137.975,-174.373C170.211,-164.668 219.963,-149.689 254.149,-139.396"/>
<polygon fill="midnightblue" stroke="midnightblue" points="255.22,-142.729 263.786,-136.494 253.202,-136.026 255.22,-142.729"/>
</g>
<!-- Node14 -->
<g id="node14" class="node"><title>Node14</title>
<g id="a_node14"><a xlink:href="../../d8/d07/_critical_buf_8h.html" target="_top" xlink:title="CriticalBuf.h">
<polygon fill="white" stroke="black" points="0,-116.5 0,-137.5 80,-137.5 80,-116.5 0,-116.5"/>
<text text-anchor="middle" x="40" y="-123.9" font-family="Helvetica,sans-Serif" font-size="12.00">CriticalBuf.h</text>
</a>
</g>
</g>
<!-- Node13&#45;&gt;Node14 -->
<g id="edge14" class="edge"><title>Node13&#45;&gt;Node14</title>
<path fill="none" stroke="midnightblue" d="M94.5037,-174.246C84.7558,-165.975 70.5741,-153.942 59.1202,-144.223"/>
<polygon fill="midnightblue" stroke="midnightblue" points="61.2541,-141.444 51.3646,-137.643 56.7253,-146.781 61.2541,-141.444"/>
</g>
<!-- Node16 -->
<g id="node16" class="node"><title>Node16</title>
<polygon fill="white" stroke="#bfbfbf" points="98.5,-116.5 98.5,-137.5 143.5,-137.5 143.5,-116.5 98.5,-116.5"/>
<text text-anchor="middle" x="121" y="-123.9" font-family="Helvetica,sans-Serif" font-size="12.00">string</text>
</g>
<!-- Node13&#45;&gt;Node16 -->
<g id="edge16" class="edge"><title>Node13&#45;&gt;Node16</title>
<path fill="none" stroke="midnightblue" d="M108.613,-174.246C110.592,-166.858 113.374,-156.469 115.801,-147.409"/>
<polygon fill="midnightblue" stroke="midnightblue" points="119.211,-148.208 118.417,-137.643 112.449,-146.397 119.211,-148.208"/>
</g>
<!-- Node15 -->
<g id="node15" class="node"><title>Node15</title>
<polygon fill="white" stroke="#bfbfbf" points="13.5,-58.5 13.5,-79.5 66.5,-79.5 66.5,-58.5 13.5,-58.5"/>
<text text-anchor="middle" x="40" y="-65.9" font-family="Helvetica,sans-Serif" font-size="12.00">afxmt.h</text>
</g>
<!-- Node14&#45;&gt;Node15 -->
<g id="edge15" class="edge"><title>Node14&#45;&gt;Node15</title>
<path fill="none" stroke="midnightblue" d="M40,-116.246C40,-108.938 40,-98.6944 40,-89.7046"/>
<polygon fill="midnightblue" stroke="midnightblue" points="43.5001,-89.6426 40,-79.6427 36.5001,-89.6427 43.5001,-89.6426"/>
</g>
<!-- Node17&#45;&gt;Node2 -->
<g id="edge18" class="edge"><title>Node17&#45;&gt;Node2</title>
<path fill="none" stroke="midnightblue" d="M242.451,-174.246C251.227,-166.055 263.955,-154.175 274.314,-144.507"/>
<polygon fill="midnightblue" stroke="midnightblue" points="276.746,-147.025 281.669,-137.643 271.97,-141.907 276.746,-147.025"/>
</g>
<!-- Node17&#45;&gt;Node15 -->
<g id="edge19" class="edge"><title>Node17&#45;&gt;Node15</title>
<path fill="none" stroke="midnightblue" d="M222.443,-174.092C208.189,-159.753 180.022,-133.069 152,-116 128.23,-101.521 99.0873,-89.7142 76.4883,-81.6884"/>
<polygon fill="midnightblue" stroke="midnightblue" points="77.5188,-78.3415 66.924,-78.3775 75.2288,-84.9563 77.5188,-78.3415"/>
</g>
</g>
</svg>
