<?xml version="1.0" encoding="UTF-8" standalone="no"?>
<!DOCTYPE svg PUBLIC "-//W3C//DTD SVG 1.1//EN"
 "http://www.w3.org/Graphics/SVG/1.1/DTD/svg11.dtd">
<!-- Generated by graphviz version 2.34.0 (20130907.0111)
 -->
<!-- Title: StdoutRedirect::Start Pages: 1 -->
<svg width="662pt" height="42pt"
 viewBox="0.00 0.00 662.00 42.00" xmlns="http://www.w3.org/2000/svg" xmlns:xlink="http://www.w3.org/1999/xlink">
<g id="graph0" class="graph" transform="scale(1 1) rotate(0) translate(4 38)">
<title>StdoutRedirect::Start</title>
<polygon fill="white" stroke="white" points="-4,4 -4,-38 658,-38 658,4 -4,4"/>
<!-- Node1 -->
<g id="node1" class="node"><title>Node1</title>
<polygon fill="#bfbfbf" stroke="black" points="0.5,-6.5 0.5,-27.5 125.5,-27.5 125.5,-6.5 0.5,-6.5"/>
<text text-anchor="middle" x="63" y="-13.9" font-family="Helvetica,sans-Serif" font-size="12.00">StdoutRedirect::Start</text>
</g>
<!-- Node2 -->
<g id="node2" class="node"><title>Node2</title>
<g id="a_node2"><a xlink:href="../../d5/d67/class_stdout_thread.html#aab5207762f1d6036974b9bbd4b854a23" target="_top" xlink:title="StdoutThread::InitThread">
<polygon fill="white" stroke="black" points="162,-6.5 162,-27.5 306,-27.5 306,-6.5 162,-6.5"/>
<text text-anchor="middle" x="234" y="-13.9" font-family="Helvetica,sans-Serif" font-size="12.00">StdoutThread::InitThread</text>
</a>
</g>
</g>
<!-- Node1&#45;&gt;Node2 -->
<g id="edge1" class="edge"><title>Node1&#45;&gt;Node2</title>
<path fill="none" stroke="midnightblue" d="M136.231,-17C144.732,-17 153.402,-17 161.887,-17"/>
<polygon fill="midnightblue" stroke="midnightblue" points="135.97,-13.5001 125.97,-17 135.97,-20.5001 135.97,-13.5001"/>
</g>
<!-- Node3 -->
<g id="node3" class="node"><title>Node3</title>
<g id="a_node3"><a xlink:href="../../d3/d9f/class_c_operator_console_app.html#a3326d8200d481631ffb26bff5c621e05" target="_top" xlink:title="COperatorConsoleApp\l::InitOutput">
<polygon fill="white" stroke="black" points="342.5,-0 342.5,-34 479.5,-34 479.5,-0 342.5,-0"/>
<text text-anchor="start" x="350.5" y="-20.4" font-family="Helvetica,sans-Serif" font-size="12.00">COperatorConsoleApp</text>
<text text-anchor="middle" x="411" y="-7.4" font-family="Helvetica,sans-Serif" font-size="12.00">::InitOutput</text>
</a>
</g>
</g>
<!-- Node2&#45;&gt;Node3 -->
<g id="edge2" class="edge"><title>Node2&#45;&gt;Node3</title>
<path fill="none" stroke="midnightblue" d="M316.318,-17C325.005,-17 333.773,-17 342.278,-17"/>
<polygon fill="midnightblue" stroke="midnightblue" points="316.179,-13.5001 306.179,-17 316.179,-20.5001 316.179,-13.5001"/>
</g>
<!-- Node4 -->
<g id="node4" class="node"><title>Node4</title>
<g id="a_node4"><a xlink:href="../../d3/d9f/class_c_operator_console_app.html#a94f4b258145e77e31644beb999bf099a" target="_top" xlink:title="COperatorConsoleApp initialization. ">
<polygon fill="white" stroke="black" points="516.5,-0 516.5,-34 653.5,-34 653.5,-0 516.5,-0"/>
<text text-anchor="start" x="524.5" y="-20.4" font-family="Helvetica,sans-Serif" font-size="12.00">COperatorConsoleApp</text>
<text text-anchor="middle" x="585" y="-7.4" font-family="Helvetica,sans-Serif" font-size="12.00">::InitInstance</text>
</a>
</g>
</g>
<!-- Node3&#45;&gt;Node4 -->
<g id="edge3" class="edge"><title>Node3&#45;&gt;Node4</title>
<path fill="none" stroke="midnightblue" d="M490.134,-17C498.846,-17 507.666,-17 516.233,-17"/>
<polygon fill="midnightblue" stroke="midnightblue" points="489.979,-13.5001 479.979,-17 489.979,-20.5001 489.979,-13.5001"/>
</g>
</g>
</svg>
