<?xml version="1.0" encoding="UTF-8" standalone="no"?>
<!DOCTYPE svg PUBLIC "-//W3C//DTD SVG 1.1//EN"
 "http://www.w3.org/Graphics/SVG/1.1/DTD/svg11.dtd">
<!-- Generated by graphviz version 2.34.0 (20130907.0111)
 -->
<!-- Title: StdoutRedirect::Close Pages: 1 -->
<svg width="638pt" height="42pt"
 viewBox="0.00 0.00 638.00 42.00" xmlns="http://www.w3.org/2000/svg" xmlns:xlink="http://www.w3.org/1999/xlink">
<g id="graph0" class="graph" transform="scale(1 1) rotate(0) translate(4 38)">
<title>StdoutRedirect::Close</title>
<polygon fill="white" stroke="white" points="-4,4 -4,-38 634,-38 634,4 -4,4"/>
<!-- Node1 -->
<g id="node1" class="node"><title>Node1</title>
<polygon fill="#bfbfbf" stroke="black" points="0.5,-6.5 0.5,-27.5 131.5,-27.5 131.5,-6.5 0.5,-6.5"/>
<text text-anchor="middle" x="66" y="-13.9" font-family="Helvetica,sans-Serif" font-size="12.00">StdoutRedirect::Close</text>
</g>
<!-- Node2 -->
<g id="node2" class="node"><title>Node2</title>
<g id="a_node2"><a xlink:href="../../d5/d67/class_stdout_thread.html#aa1e6ea9a0ab824dd75cfe81fe2686de2" target="_top" xlink:title="StdoutThread::Quit">
<polygon fill="white" stroke="black" points="168,-6.5 168,-27.5 282,-27.5 282,-6.5 168,-6.5"/>
<text text-anchor="middle" x="225" y="-13.9" font-family="Helvetica,sans-Serif" font-size="12.00">StdoutThread::Quit</text>
</a>
</g>
</g>
<!-- Node1&#45;&gt;Node2 -->
<g id="edge1" class="edge"><title>Node1&#45;&gt;Node2</title>
<path fill="none" stroke="midnightblue" d="M141.963,-17C150.697,-17 159.488,-17 167.905,-17"/>
<polygon fill="midnightblue" stroke="midnightblue" points="141.764,-13.5001 131.764,-17 141.764,-20.5001 141.764,-13.5001"/>
</g>
<!-- Node3 -->
<g id="node3" class="node"><title>Node3</title>
<g id="a_node3"><a xlink:href="../../d3/d9f/class_c_operator_console_app.html#a59dada996addd1a16a558b431bcb922e" target="_top" xlink:title="COperatorConsoleApp\l::Quit">
<polygon fill="white" stroke="black" points="318.5,-0 318.5,-34 455.5,-34 455.5,-0 318.5,-0"/>
<text text-anchor="start" x="326.5" y="-20.4" font-family="Helvetica,sans-Serif" font-size="12.00">COperatorConsoleApp</text>
<text text-anchor="middle" x="387" y="-7.4" font-family="Helvetica,sans-Serif" font-size="12.00">::Quit</text>
</a>
</g>
</g>
<!-- Node2&#45;&gt;Node3 -->
<g id="edge2" class="edge"><title>Node2&#45;&gt;Node3</title>
<path fill="none" stroke="midnightblue" d="M292.63,-17C301.115,-17 309.806,-17 318.308,-17"/>
<polygon fill="midnightblue" stroke="midnightblue" points="292.41,-13.5001 282.41,-17 292.41,-20.5001 292.41,-13.5001"/>
</g>
<!-- Node4 -->
<g id="node4" class="node"><title>Node4</title>
<g id="a_node4"><a xlink:href="../../d3/d9f/class_c_operator_console_app.html#a94f4b258145e77e31644beb999bf099a" target="_top" xlink:title="COperatorConsoleApp initialization. ">
<polygon fill="white" stroke="black" points="492.5,-0 492.5,-34 629.5,-34 629.5,-0 492.5,-0"/>
<text text-anchor="start" x="500.5" y="-20.4" font-family="Helvetica,sans-Serif" font-size="12.00">COperatorConsoleApp</text>
<text text-anchor="middle" x="561" y="-7.4" font-family="Helvetica,sans-Serif" font-size="12.00">::InitInstance</text>
</a>
</g>
</g>
<!-- Node3&#45;&gt;Node4 -->
<g id="edge3" class="edge"><title>Node3&#45;&gt;Node4</title>
<path fill="none" stroke="midnightblue" d="M466.134,-17C474.846,-17 483.666,-17 492.233,-17"/>
<polygon fill="midnightblue" stroke="midnightblue" points="465.979,-13.5001 455.979,-17 465.979,-20.5001 465.979,-13.5001"/>
</g>
</g>
</svg>
