<?xml version="1.0" encoding="UTF-8" standalone="no"?>
<!DOCTYPE svg PUBLIC "-//W3C//DTD SVG 1.1//EN"
 "http://www.w3.org/Graphics/SVG/1.1/DTD/svg11.dtd">
<!-- Generated by graphviz version 2.34.0 (20130907.0111)
 -->
<!-- Title: StdoutRedirect::GetBuffer Pages: 1 -->
<svg width="878pt" height="42pt"
 viewBox="0.00 0.00 878.00 42.00" xmlns="http://www.w3.org/2000/svg" xmlns:xlink="http://www.w3.org/1999/xlink">
<g id="graph0" class="graph" transform="scale(1 1) rotate(0) translate(4 38)">
<title>StdoutRedirect::GetBuffer</title>
<polygon fill="white" stroke="white" points="-4,4 -4,-38 874,-38 874,4 -4,4"/>
<!-- Node1 -->
<g id="node1" class="node"><title>Node1</title>
<polygon fill="#bfbfbf" stroke="black" points="0,-6.5 0,-27.5 150,-27.5 150,-6.5 0,-6.5"/>
<text text-anchor="middle" x="75" y="-13.9" font-family="Helvetica,sans-Serif" font-size="12.00">StdoutRedirect::GetBuffer</text>
</g>
<!-- Node2 -->
<g id="node2" class="node"><title>Node2</title>
<g id="a_node2"><a xlink:href="../../d5/d67/class_stdout_thread.html#a5527fa5fc7f110414f03e63b759bc4c3" target="_top" xlink:title="StdoutThread::ThreadProc">
<polygon fill="white" stroke="black" points="186.5,-6.5 186.5,-27.5 341.5,-27.5 341.5,-6.5 186.5,-6.5"/>
<text text-anchor="middle" x="264" y="-13.9" font-family="Helvetica,sans-Serif" font-size="12.00">StdoutThread::ThreadProc</text>
</a>
</g>
</g>
<!-- Node1&#45;&gt;Node2 -->
<g id="edge1" class="edge"><title>Node1&#45;&gt;Node2</title>
<path fill="none" stroke="midnightblue" d="M160.328,-17C169.034,-17 177.847,-17 186.461,-17"/>
<polygon fill="midnightblue" stroke="midnightblue" points="160.176,-13.5001 150.176,-17 160.176,-20.5001 160.176,-13.5001"/>
</g>
<!-- Node3 -->
<g id="node3" class="node"><title>Node3</title>
<g id="a_node3"><a xlink:href="../../d5/d67/class_stdout_thread.html#aab5207762f1d6036974b9bbd4b854a23" target="_top" xlink:title="StdoutThread::InitThread">
<polygon fill="white" stroke="black" points="378,-6.5 378,-27.5 522,-27.5 522,-6.5 378,-6.5"/>
<text text-anchor="middle" x="450" y="-13.9" font-family="Helvetica,sans-Serif" font-size="12.00">StdoutThread::InitThread</text>
</a>
</g>
</g>
<!-- Node2&#45;&gt;Node3 -->
<g id="edge2" class="edge"><title>Node2&#45;&gt;Node3</title>
<path fill="none" stroke="midnightblue" d="M351.833,-17C360.504,-17 369.237,-17 377.721,-17"/>
<polygon fill="midnightblue" stroke="midnightblue" points="351.7,-13.5001 341.7,-17 351.7,-20.5001 351.7,-13.5001"/>
</g>
<!-- Node4 -->
<g id="node4" class="node"><title>Node4</title>
<g id="a_node4"><a xlink:href="../../d3/d9f/class_c_operator_console_app.html#a3326d8200d481631ffb26bff5c621e05" target="_top" xlink:title="COperatorConsoleApp\l::InitOutput">
<polygon fill="white" stroke="black" points="558.5,-0 558.5,-34 695.5,-34 695.5,-0 558.5,-0"/>
<text text-anchor="start" x="566.5" y="-20.4" font-family="Helvetica,sans-Serif" font-size="12.00">COperatorConsoleApp</text>
<text text-anchor="middle" x="627" y="-7.4" font-family="Helvetica,sans-Serif" font-size="12.00">::InitOutput</text>
</a>
</g>
</g>
<!-- Node3&#45;&gt;Node4 -->
<g id="edge3" class="edge"><title>Node3&#45;&gt;Node4</title>
<path fill="none" stroke="midnightblue" d="M532.318,-17C541.005,-17 549.773,-17 558.278,-17"/>
<polygon fill="midnightblue" stroke="midnightblue" points="532.179,-13.5001 522.179,-17 532.179,-20.5001 532.179,-13.5001"/>
</g>
<!-- Node5 -->
<g id="node5" class="node"><title>Node5</title>
<g id="a_node5"><a xlink:href="../../d3/d9f/class_c_operator_console_app.html#a94f4b258145e77e31644beb999bf099a" target="_top" xlink:title="COperatorConsoleApp initialization. ">
<polygon fill="white" stroke="black" points="732.5,-0 732.5,-34 869.5,-34 869.5,-0 732.5,-0"/>
<text text-anchor="start" x="740.5" y="-20.4" font-family="Helvetica,sans-Serif" font-size="12.00">COperatorConsoleApp</text>
<text text-anchor="middle" x="801" y="-7.4" font-family="Helvetica,sans-Serif" font-size="12.00">::InitInstance</text>
</a>
</g>
</g>
<!-- Node4&#45;&gt;Node5 -->
<g id="edge4" class="edge"><title>Node4&#45;&gt;Node5</title>
<path fill="none" stroke="midnightblue" d="M706.134,-17C714.846,-17 723.666,-17 732.233,-17"/>
<polygon fill="midnightblue" stroke="midnightblue" points="705.979,-13.5001 695.979,-17 705.979,-20.5001 705.979,-13.5001"/>
</g>
</g>
</svg>
