<?xml version="1.0" encoding="UTF-8" standalone="no"?>
<!DOCTYPE svg PUBLIC "-//W3C//DTD SVG 1.1//EN"
 "http://www.w3.org/Graphics/SVG/1.1/DTD/svg11.dtd">
<!-- Generated by graphviz version 2.34.0 (20130907.0111)
 -->
<!-- Title: JSON/JSONNode_Mutex.cpp Pages: 1 -->
<svg width="836pt" height="494pt"
 viewBox="0.00 0.00 836.00 494.00" xmlns="http://www.w3.org/2000/svg" xmlns:xlink="http://www.w3.org/1999/xlink">
<g id="graph0" class="graph" transform="scale(1 1) rotate(0) translate(4 490)">
<title>JSON/JSONNode_Mutex.cpp</title>
<polygon fill="white" stroke="white" points="-4,4 -4,-490 832,-490 832,4 -4,4"/>
<!-- Node1 -->
<g id="node1" class="node"><title>Node1</title>
<polygon fill="#bfbfbf" stroke="black" points="487.5,-464.5 487.5,-485.5 658.5,-485.5 658.5,-464.5 487.5,-464.5"/>
<text text-anchor="middle" x="573" y="-471.9" font-family="Helvetica,sans-Serif" font-size="12.00">JSON/JSONNode_Mutex.cpp</text>
</g>
<!-- Node2 -->
<g id="node2" class="node"><title>Node2</title>
<g id="a_node2"><a xlink:href="../../d0/df5/_j_s_o_n_2_j_s_o_n_node_8h.html" target="_top" xlink:title="JSONNode.h">
<polygon fill="white" stroke="black" points="433,-406.5 433,-427.5 519,-427.5 519,-406.5 433,-406.5"/>
<text text-anchor="middle" x="476" y="-413.9" font-family="Helvetica,sans-Serif" font-size="12.00">JSONNode.h</text>
</a>
</g>
</g>
<!-- Node1&#45;&gt;Node2 -->
<g id="edge1" class="edge"><title>Node1&#45;&gt;Node2</title>
<path fill="none" stroke="midnightblue" d="M556.104,-464.246C541.082,-455.573 518.896,-442.765 501.679,-432.825"/>
<polygon fill="midnightblue" stroke="midnightblue" points="503.113,-429.611 492.702,-427.643 499.613,-435.674 503.113,-429.611"/>
</g>
<!-- Node16 -->
<g id="node16" class="node"><title>Node16</title>
<g id="a_node16"><a xlink:href="../../de/d55/_j_s_o_n_2_j_s_o_n_globals_8h.html" target="_top" xlink:title="JSONGlobals.h">
<polygon fill="white" stroke="black" points="543.5,-232.5 543.5,-253.5 640.5,-253.5 640.5,-232.5 543.5,-232.5"/>
<text text-anchor="middle" x="592" y="-239.9" font-family="Helvetica,sans-Serif" font-size="12.00">JSONGlobals.h</text>
</a>
</g>
</g>
<!-- Node1&#45;&gt;Node16 -->
<g id="edge32" class="edge"><title>Node1&#45;&gt;Node16</title>
<path fill="none" stroke="midnightblue" d="M573.792,-464.41C576.647,-429.851 586.445,-311.241 590.363,-263.822"/>
<polygon fill="midnightblue" stroke="midnightblue" points="593.869,-263.885 591.204,-253.631 586.893,-263.309 593.869,-263.885"/>
</g>
<!-- Node3 -->
<g id="node3" class="node"><title>Node3</title>
<g id="a_node3"><a xlink:href="../../d6/dbe/_j_s_o_n_2_j_s_o_n_debug_8h.html" target="_top" xlink:title="JSONDebug.h">
<polygon fill="white" stroke="black" points="255,-174.5 255,-195.5 347,-195.5 347,-174.5 255,-174.5"/>
<text text-anchor="middle" x="301" y="-181.9" font-family="Helvetica,sans-Serif" font-size="12.00">JSONDebug.h</text>
</a>
</g>
</g>
<!-- Node2&#45;&gt;Node3 -->
<g id="edge2" class="edge"><title>Node2&#45;&gt;Node3</title>
<path fill="none" stroke="midnightblue" d="M446.172,-406.383C428.226,-399.116 406.345,-387.379 393,-370 370.679,-340.932 388.12,-323.385 373,-290 358.005,-256.891 332.304,-223.123 316.008,-203.387"/>
<polygon fill="midnightblue" stroke="midnightblue" points="318.571,-200.996 309.457,-195.595 313.213,-205.501 318.571,-200.996"/>
</g>
<!-- Node11 -->
<g id="node11" class="node"><title>Node11</title>
<g id="a_node11"><a xlink:href="../../da/d1f/_j_s_o_n_2internal_j_s_o_n_node_8h.html" target="_top" xlink:title="internalJSONNode.h">
<polygon fill="white" stroke="black" points="185.5,-348.5 185.5,-369.5 308.5,-369.5 308.5,-348.5 185.5,-348.5"/>
<text text-anchor="middle" x="247" y="-355.9" font-family="Helvetica,sans-Serif" font-size="12.00">internalJSONNode.h</text>
</a>
</g>
</g>
<!-- Node2&#45;&gt;Node11 -->
<g id="edge11" class="edge"><title>Node2&#45;&gt;Node11</title>
<path fill="none" stroke="midnightblue" d="M436.894,-406.437C397.867,-396.893 337.804,-382.205 295.704,-371.91"/>
<polygon fill="midnightblue" stroke="midnightblue" points="296.49,-368.499 285.945,-369.524 294.827,-375.299 296.49,-368.499"/>
</g>
<!-- Node19 -->
<g id="node19" class="node"><title>Node19</title>
<polygon fill="white" stroke="#bfbfbf" points="402.5,-348.5 402.5,-369.5 469.5,-369.5 469.5,-348.5 402.5,-348.5"/>
<text text-anchor="middle" x="436" y="-355.9" font-family="Helvetica,sans-Serif" font-size="12.00">stdexcept</text>
</g>
<!-- Node2&#45;&gt;Node19 -->
<g id="edge27" class="edge"><title>Node2&#45;&gt;Node19</title>
<path fill="none" stroke="midnightblue" d="M469.033,-406.246C463.469,-398.456 455.522,-387.331 448.817,-377.944"/>
<polygon fill="midnightblue" stroke="midnightblue" points="451.548,-375.746 442.888,-369.643 445.852,-379.814 451.548,-375.746"/>
</g>
<!-- Node20 -->
<g id="node20" class="node"><title>Node20</title>
<polygon fill="white" stroke="#bfbfbf" points="488,-348.5 488,-369.5 544,-369.5 544,-348.5 488,-348.5"/>
<text text-anchor="middle" x="516" y="-355.9" font-family="Helvetica,sans-Serif" font-size="12.00">cstdarg</text>
</g>
<!-- Node2&#45;&gt;Node20 -->
<g id="edge28" class="edge"><title>Node2&#45;&gt;Node20</title>
<path fill="none" stroke="midnightblue" d="M482.967,-406.246C488.531,-398.456 496.478,-387.331 503.183,-377.944"/>
<polygon fill="midnightblue" stroke="midnightblue" points="506.148,-379.814 509.112,-369.643 500.452,-375.746 506.148,-379.814"/>
</g>
<!-- Node21 -->
<g id="node21" class="node"><title>Node21</title>
<g id="a_node21"><a xlink:href="../../d4/d6e/_j_s_o_n_2_j_s_o_n___base64_8h.html" target="_top" xlink:title="JSON_Base64.h">
<polygon fill="white" stroke="black" points="420.5,-232.5 420.5,-253.5 525.5,-253.5 525.5,-232.5 420.5,-232.5"/>
<text text-anchor="middle" x="473" y="-239.9" font-family="Helvetica,sans-Serif" font-size="12.00">JSON_Base64.h</text>
</a>
</g>
</g>
<!-- Node2&#45;&gt;Node21 -->
<g id="edge29" class="edge"><title>Node2&#45;&gt;Node21</title>
<path fill="none" stroke="midnightblue" d="M505.946,-406.498C523.005,-399.371 542.932,-387.742 553,-370 557.826,-361.496 556.149,-357.257 553,-348 540.88,-312.365 511.077,-279.405 491.468,-260.512"/>
<polygon fill="midnightblue" stroke="midnightblue" points="493.708,-257.814 484.016,-253.533 488.923,-262.923 493.708,-257.814"/>
</g>
<!-- Node4 -->
<g id="node4" class="node"><title>Node4</title>
<g id="a_node4"><a xlink:href="../../db/d7e/_j_s_o_n_2_j_s_o_n_defs_8h.html" target="_top" xlink:title="JSONDefs.h">
<polygon fill="white" stroke="black" points="402,-116.5 402,-137.5 484,-137.5 484,-116.5 402,-116.5"/>
<text text-anchor="middle" x="443" y="-123.9" font-family="Helvetica,sans-Serif" font-size="12.00">JSONDefs.h</text>
</a>
</g>
</g>
<!-- Node3&#45;&gt;Node4 -->
<g id="edge3" class="edge"><title>Node3&#45;&gt;Node4</title>
<path fill="none" stroke="midnightblue" d="M325.411,-174.373C348.614,-165.223 383.704,-151.384 409.514,-141.206"/>
<polygon fill="midnightblue" stroke="midnightblue" points="410.889,-144.426 418.908,-137.501 408.321,-137.914 410.889,-144.426"/>
</g>
<!-- Node5 -->
<g id="node5" class="node"><title>Node5</title>
<g id="a_node5"><a xlink:href="../../dc/d13/_j_s_o_n_options_8h.html" target="_top" xlink:title="..\\JSONOptions.h">
<polygon fill="white" stroke="black" points="132.5,-0.5 132.5,-21.5 239.5,-21.5 239.5,-0.5 132.5,-0.5"/>
<text text-anchor="middle" x="186" y="-7.9" font-family="Helvetica,sans-Serif" font-size="12.00">..\JSONOptions.h</text>
</a>
</g>
</g>
<!-- Node4&#45;&gt;Node5 -->
<g id="edge4" class="edge"><title>Node4&#45;&gt;Node5</title>
<path fill="none" stroke="midnightblue" d="M401.896,-123.197C341.573,-118.254 233.161,-105.954 205,-80 191.799,-67.8341 187.484,-47.333 186.208,-32.0153"/>
<polygon fill="midnightblue" stroke="midnightblue" points="189.702,-31.7942 185.733,-21.971 182.71,-32.1253 189.702,-31.7942"/>
</g>
<!-- Node6 -->
<g id="node6" class="node"><title>Node6</title>
<g id="a_node6"><a xlink:href="../../d9/d62/_j_s_o_n_2_j_s_o_n_defs_2_unknown___c_8h.html" target="_top" xlink:title="JSONDefs\\Unknown_C.h">
<polygon fill="white" stroke="black" points="214,-58.5 214,-79.5 362,-79.5 362,-58.5 214,-58.5"/>
<text text-anchor="middle" x="288" y="-65.9" font-family="Helvetica,sans-Serif" font-size="12.00">JSONDefs\Unknown_C.h</text>
</a>
</g>
</g>
<!-- Node4&#45;&gt;Node6 -->
<g id="edge5" class="edge"><title>Node4&#45;&gt;Node6</title>
<path fill="none" stroke="midnightblue" d="M416.355,-116.373C390.804,-107.142 352.049,-93.1402 323.809,-82.9375"/>
<polygon fill="midnightblue" stroke="midnightblue" points="324.892,-79.6074 314.298,-79.5011 322.513,-86.1909 324.892,-79.6074"/>
</g>
<!-- Node7 -->
<g id="node7" class="node"><title>Node7</title>
<g id="a_node7"><a xlink:href="../../de/dbe/_j_s_o_n_2_j_s_o_n_defs_2_g_n_u___c_8h.html" target="_top" xlink:title="JSONDefs\\GNU_C.h">
<polygon fill="white" stroke="black" points="380,-58.5 380,-79.5 506,-79.5 506,-58.5 380,-58.5"/>
<text text-anchor="middle" x="443" y="-65.9" font-family="Helvetica,sans-Serif" font-size="12.00">JSONDefs\GNU_C.h</text>
</a>
</g>
</g>
<!-- Node4&#45;&gt;Node7 -->
<g id="edge6" class="edge"><title>Node4&#45;&gt;Node7</title>
<path fill="none" stroke="midnightblue" d="M443,-116.246C443,-108.938 443,-98.6944 443,-89.7046"/>
<polygon fill="midnightblue" stroke="midnightblue" points="446.5,-89.6426 443,-79.6427 439.5,-89.6427 446.5,-89.6426"/>
</g>
<!-- Node8 -->
<g id="node8" class="node"><title>Node8</title>
<g id="a_node8"><a xlink:href="../../d6/d90/_j_s_o_n_2_j_s_o_n_defs_2_visual___c_8h.html" target="_top" xlink:title="JSONDefs\\Visual_C.h">
<polygon fill="white" stroke="black" points="524.5,-58.5 524.5,-79.5 657.5,-79.5 657.5,-58.5 524.5,-58.5"/>
<text text-anchor="middle" x="591" y="-65.9" font-family="Helvetica,sans-Serif" font-size="12.00">JSONDefs\Visual_C.h</text>
</a>
</g>
</g>
<!-- Node4&#45;&gt;Node8 -->
<g id="edge7" class="edge"><title>Node4&#45;&gt;Node8</title>
<path fill="none" stroke="midnightblue" d="M468.442,-116.373C492.733,-107.182 529.521,-93.2624 556.454,-83.0713"/>
<polygon fill="midnightblue" stroke="midnightblue" points="557.776,-86.3136 565.89,-79.5011 555.298,-79.7666 557.776,-86.3136"/>
</g>
<!-- Node9 -->
<g id="node9" class="node"><title>Node9</title>
<g id="a_node9"><a xlink:href="../../d7/d67/_j_s_o_n_2_j_s_o_n_defs_2_strings___defs_8h.html" target="_top" xlink:title="JSONDefs\\Strings_Defs.h">
<polygon fill="white" stroke="black" points="675.5,-58.5 675.5,-79.5 828.5,-79.5 828.5,-58.5 675.5,-58.5"/>
<text text-anchor="middle" x="752" y="-65.9" font-family="Helvetica,sans-Serif" font-size="12.00">JSONDefs\Strings_Defs.h</text>
</a>
</g>
</g>
<!-- Node4&#45;&gt;Node9 -->
<g id="edge8" class="edge"><title>Node4&#45;&gt;Node9</title>
<path fill="none" stroke="midnightblue" d="M484.033,-118.564C536.595,-109.038 628.208,-92.4347 689.477,-81.331"/>
<polygon fill="midnightblue" stroke="midnightblue" points="690.2,-84.7571 699.416,-79.5299 688.952,-77.8693 690.2,-84.7571"/>
</g>
<!-- Node9&#45;&gt;Node5 -->
<g id="edge9" class="edge"><title>Node9&#45;&gt;Node5</title>
<path fill="none" stroke="midnightblue" d="M675.115,-58.9818C672.037,-58.6455 668.989,-58.317 666,-58 516.954,-42.1943 341.608,-25.9973 249.65,-17.6871"/>
<polygon fill="midnightblue" stroke="midnightblue" points="249.94,-14.1991 239.666,-16.7862 249.311,-21.1708 249.94,-14.1991"/>
</g>
<!-- Node10 -->
<g id="node10" class="node"><title>Node10</title>
<polygon fill="white" stroke="#bfbfbf" points="725,-0.5 725,-21.5 779,-21.5 779,-0.5 725,-0.5"/>
<text text-anchor="middle" x="752" y="-7.9" font-family="Helvetica,sans-Serif" font-size="12.00">string.h</text>
</g>
<!-- Node9&#45;&gt;Node10 -->
<g id="edge10" class="edge"><title>Node9&#45;&gt;Node10</title>
<path fill="none" stroke="midnightblue" d="M752,-58.2455C752,-50.9382 752,-40.6944 752,-31.7046"/>
<polygon fill="midnightblue" stroke="midnightblue" points="755.5,-31.6426 752,-21.6427 748.5,-31.6427 755.5,-31.6426"/>
</g>
<!-- Node11&#45;&gt;Node3 -->
<g id="edge12" class="edge"><title>Node11&#45;&gt;Node3</title>
<path fill="none" stroke="midnightblue" d="M240.948,-348.239C233.502,-334.963 222.591,-310.516 229,-290 239.828,-255.335 266.713,-222.057 284.391,-202.839"/>
<polygon fill="midnightblue" stroke="midnightblue" points="287.002,-205.172 291.329,-195.501 281.915,-200.363 287.002,-205.172"/>
</g>
<!-- Node12 -->
<g id="node12" class="node"><title>Node12</title>
<g id="a_node12"><a xlink:href="../../df/d61/_j_s_o_n_2_j_s_o_n_children_8h.html" target="_top" xlink:title="JSONChildren.h">
<polygon fill="white" stroke="black" points="80.5,-290.5 80.5,-311.5 181.5,-311.5 181.5,-290.5 80.5,-290.5"/>
<text text-anchor="middle" x="131" y="-297.9" font-family="Helvetica,sans-Serif" font-size="12.00">JSONChildren.h</text>
</a>
</g>
</g>
<!-- Node11&#45;&gt;Node12 -->
<g id="edge13" class="edge"><title>Node11&#45;&gt;Node12</title>
<path fill="none" stroke="midnightblue" d="M227.059,-348.373C208.521,-339.424 180.697,-325.992 159.759,-315.883"/>
<polygon fill="midnightblue" stroke="midnightblue" points="161.208,-312.697 150.681,-311.501 158.165,-319.001 161.208,-312.697"/>
</g>
<!-- Node13 -->
<g id="node13" class="node"><title>Node13</title>
<g id="a_node13"><a xlink:href="../../dc/d7c/_j_s_o_n_2_j_s_o_n_memory_8h.html" target="_top" xlink:title="JSONMemory.h">
<polygon fill="white" stroke="black" points="44.5,-232.5 44.5,-253.5 143.5,-253.5 143.5,-232.5 44.5,-232.5"/>
<text text-anchor="middle" x="94" y="-239.9" font-family="Helvetica,sans-Serif" font-size="12.00">JSONMemory.h</text>
</a>
</g>
</g>
<!-- Node11&#45;&gt;Node13 -->
<g id="edge20" class="edge"><title>Node11&#45;&gt;Node13</title>
<path fill="none" stroke="midnightblue" d="M185.245,-349.927C140.355,-342.643 85.0911,-330.247 71,-312 59.6457,-297.297 69.3121,-276.661 79.3691,-261.987"/>
<polygon fill="midnightblue" stroke="midnightblue" points="82.3499,-263.843 85.4971,-253.727 76.728,-259.672 82.3499,-263.843"/>
</g>
<!-- Node11&#45;&gt;Node16 -->
<g id="edge21" class="edge"><title>Node11&#45;&gt;Node16</title>
<path fill="none" stroke="midnightblue" d="M275.821,-348.477C337.718,-328.024 483.394,-279.887 553.277,-256.796"/>
<polygon fill="midnightblue" stroke="midnightblue" points="554.621,-260.037 563.018,-253.577 552.425,-253.391 554.621,-260.037"/>
</g>
<!-- Node18 -->
<g id="node18" class="node"><title>Node18</title>
<g id="a_node18"><a xlink:href="../../d7/d81/_j_s_o_n_2_j_s_o_n_shared_string_8h.html" target="_top" xlink:title="JSONSharedString.h">
<polygon fill="white" stroke="black" points="238,-290.5 238,-311.5 364,-311.5 364,-290.5 238,-290.5"/>
<text text-anchor="middle" x="301" y="-297.9" font-family="Helvetica,sans-Serif" font-size="12.00">JSONSharedString.h</text>
</a>
</g>
</g>
<!-- Node11&#45;&gt;Node18 -->
<g id="edge24" class="edge"><title>Node11&#45;&gt;Node18</title>
<path fill="none" stroke="midnightblue" d="M256.406,-348.246C264.149,-340.216 275.312,-328.639 284.532,-319.078"/>
<polygon fill="midnightblue" stroke="midnightblue" points="287.28,-321.271 291.702,-311.643 282.241,-316.412 287.28,-321.271"/>
</g>
<!-- Node12&#45;&gt;Node3 -->
<g id="edge19" class="edge"><title>Node12&#45;&gt;Node3</title>
<path fill="none" stroke="midnightblue" d="M138.416,-290.034C149.563,-275.623 171.912,-248.851 196,-232 215.991,-218.015 240.913,-206.876 261.459,-199.064"/>
<polygon fill="midnightblue" stroke="midnightblue" points="262.68,-202.344 270.855,-195.604 260.262,-195.775 262.68,-202.344"/>
</g>
<!-- Node12&#45;&gt;Node13 -->
<g id="edge14" class="edge"><title>Node12&#45;&gt;Node13</title>
<path fill="none" stroke="midnightblue" d="M124.555,-290.246C119.462,-282.537 112.209,-271.56 106.048,-262.235"/>
<polygon fill="midnightblue" stroke="midnightblue" points="108.804,-260.057 100.371,-253.643 102.963,-263.915 108.804,-260.057"/>
</g>
<!-- Node13&#45;&gt;Node3 -->
<g id="edge18" class="edge"><title>Node13&#45;&gt;Node3</title>
<path fill="none" stroke="midnightblue" d="M129.585,-232.373C164.602,-222.9 218.188,-208.403 256.112,-198.143"/>
<polygon fill="midnightblue" stroke="midnightblue" points="257.141,-201.491 265.88,-195.501 255.313,-194.734 257.141,-201.491"/>
</g>
<!-- Node13&#45;&gt;Node5 -->
<g id="edge17" class="edge"><title>Node13&#45;&gt;Node5</title>
<path fill="none" stroke="midnightblue" d="M102.587,-232.402C110.167,-223.507 121.061,-209.629 128,-196 156.672,-139.685 174.585,-66.4355 182.024,-31.8012"/>
<polygon fill="midnightblue" stroke="midnightblue" points="185.533,-32.12 184.146,-21.6163 178.68,-30.6923 185.533,-32.12"/>
</g>
<!-- Node14 -->
<g id="node14" class="node"><title>Node14</title>
<polygon fill="white" stroke="#bfbfbf" points="0,-174.5 0,-195.5 50,-195.5 50,-174.5 0,-174.5"/>
<text text-anchor="middle" x="25" y="-181.9" font-family="Helvetica,sans-Serif" font-size="12.00">cstdlib</text>
</g>
<!-- Node13&#45;&gt;Node14 -->
<g id="edge15" class="edge"><title>Node13&#45;&gt;Node14</title>
<path fill="none" stroke="midnightblue" d="M81.9811,-232.246C71.7902,-223.975 56.9638,-211.942 44.9893,-202.223"/>
<polygon fill="midnightblue" stroke="midnightblue" points="46.8514,-199.227 36.8812,-195.643 42.4402,-204.662 46.8514,-199.227"/>
</g>
<!-- Node15 -->
<g id="node15" class="node"><title>Node15</title>
<polygon fill="white" stroke="#bfbfbf" points="68.5,-174.5 68.5,-195.5 119.5,-195.5 119.5,-174.5 68.5,-174.5"/>
<text text-anchor="middle" x="94" y="-181.9" font-family="Helvetica,sans-Serif" font-size="12.00">cstring</text>
</g>
<!-- Node13&#45;&gt;Node15 -->
<g id="edge16" class="edge"><title>Node13&#45;&gt;Node15</title>
<path fill="none" stroke="midnightblue" d="M94,-232.246C94,-224.938 94,-214.694 94,-205.705"/>
<polygon fill="midnightblue" stroke="midnightblue" points="97.5001,-205.643 94,-195.643 90.5001,-205.643 97.5001,-205.643"/>
</g>
<!-- Node16&#45;&gt;Node4 -->
<g id="edge22" class="edge"><title>Node16&#45;&gt;Node4</title>
<path fill="none" stroke="midnightblue" d="M586.148,-232.064C577.272,-217.69 559.18,-190.963 538,-174 520.705,-160.148 498.552,-149.119 479.99,-141.336"/>
<polygon fill="midnightblue" stroke="midnightblue" points="481.238,-138.066 470.655,-137.564 478.616,-144.556 481.238,-138.066"/>
</g>
<!-- Node17 -->
<g id="node17" class="node"><title>Node17</title>
<polygon fill="white" stroke="#bfbfbf" points="484.5,-174.5 484.5,-195.5 529.5,-195.5 529.5,-174.5 484.5,-174.5"/>
<text text-anchor="middle" x="507" y="-181.9" font-family="Helvetica,sans-Serif" font-size="12.00">string</text>
</g>
<!-- Node16&#45;&gt;Node17 -->
<g id="edge23" class="edge"><title>Node16&#45;&gt;Node17</title>
<path fill="none" stroke="midnightblue" d="M577.194,-232.246C564.274,-223.734 545.307,-211.237 530.345,-201.38"/>
<polygon fill="midnightblue" stroke="midnightblue" points="531.912,-198.222 521.636,-195.643 528.061,-204.067 531.912,-198.222"/>
</g>
<!-- Node18&#45;&gt;Node3 -->
<g id="edge25" class="edge"><title>Node18&#45;&gt;Node3</title>
<path fill="none" stroke="midnightblue" d="M301,-290.28C301,-271.603 301,-230.369 301,-205.715"/>
<polygon fill="midnightblue" stroke="midnightblue" points="304.5,-205.695 301,-195.695 297.5,-205.695 304.5,-205.695"/>
</g>
<!-- Node18&#45;&gt;Node16 -->
<g id="edge26" class="edge"><title>Node18&#45;&gt;Node16</title>
<path fill="none" stroke="midnightblue" d="M350.694,-290.437C401.325,-280.694 479.817,-265.588 533.437,-255.27"/>
<polygon fill="midnightblue" stroke="midnightblue" points="534.322,-258.664 543.48,-253.337 532.999,-251.79 534.322,-258.664"/>
</g>
<!-- Node21&#45;&gt;Node3 -->
<g id="edge30" class="edge"><title>Node21&#45;&gt;Node3</title>
<path fill="none" stroke="midnightblue" d="M443.432,-232.373C414.831,-223.061 371.321,-208.895 339.918,-198.671"/>
<polygon fill="midnightblue" stroke="midnightblue" points="340.774,-195.269 330.182,-195.501 338.607,-201.925 340.774,-195.269"/>
</g>
<!-- Node21&#45;&gt;Node17 -->
<g id="edge31" class="edge"><title>Node21&#45;&gt;Node17</title>
<path fill="none" stroke="midnightblue" d="M478.922,-232.246C483.603,-224.537 490.267,-213.56 495.929,-204.235"/>
<polygon fill="midnightblue" stroke="midnightblue" points="498.947,-206.007 501.146,-195.643 492.964,-202.374 498.947,-206.007"/>
</g>
</g>
</svg>
