<?xml version="1.0" encoding="UTF-8" standalone="no"?>
<!DOCTYPE svg PUBLIC "-//W3C//DTD SVG 1.1//EN"
 "http://www.w3.org/Graphics/SVG/1.1/DTD/svg11.dtd">
<!-- Generated by graphviz version 2.34.0 (20130907.0111)
 -->
<!-- Title: JSONNode Pages: 1 -->
<svg width="332pt" height="192pt"
 viewBox="0.00 0.00 332.00 192.00" xmlns="http://www.w3.org/2000/svg" xmlns:xlink="http://www.w3.org/1999/xlink">
<g id="graph0" class="graph" transform="scale(1 1) rotate(0) translate(4 188)">
<title>JSONNode</title>
<polygon fill="white" stroke="white" points="-4,4 -4,-188 328,-188 328,4 -4,4"/>
<!-- Node1 -->
<g id="node1" class="node"><title>Node1</title>
<polygon fill="#bfbfbf" stroke="black" points="48.5,-160.5 48.5,-181.5 125.5,-181.5 125.5,-160.5 48.5,-160.5"/>
<text text-anchor="middle" x="87" y="-167.9" font-family="Helvetica,sans-Serif" font-size="12.00">JSONNode</text>
</g>
<!-- Node1&#45;&gt;Node1 -->
<g id="edge1" class="edge"><title>Node1&#45;&gt;Node1</title>
<path fill="none" stroke="#9a32cd" stroke-dasharray="5,2" d="M135.872,-176.635C140.251,-175.456 143,-173.578 143,-171 143,-166.77 135.597,-164.423 125.735,-163.96"/>
<polygon fill="#9a32cd" stroke="#9a32cd" points="135.16,-173.2 125.735,-178.04 136.121,-180.134 135.16,-173.2"/>
<text text-anchor="middle" x="170" y="-174.4" font-family="Helvetica,sans-Serif" font-size="12.00"> operator[]</text>
<text text-anchor="middle" x="170" y="-161.4" font-family="Helvetica,sans-Serif" font-size="12.00">operator=</text>
</g>
<!-- Node4 -->
<g id="node4" class="node"><title>Node4</title>
<g id="a_node4"><a xlink:href="../../db/d49/classjson_children.html" target="_top" xlink:title="jsonChildren">
<polygon fill="white" stroke="black" points="-0.5,-79.5 -0.5,-100.5 80.5,-100.5 80.5,-79.5 -0.5,-79.5"/>
<text text-anchor="middle" x="40" y="-86.9" font-family="Helvetica,sans-Serif" font-size="12.00">jsonChildren</text>
</a>
</g>
</g>
<!-- Node1&#45;&gt;Node4 -->
<g id="edge5" class="edge"><title>Node1&#45;&gt;Node4</title>
<path fill="none" stroke="#9a32cd" stroke-dasharray="5,2" d="M75.9314,-151.395C66.4954,-135.535 53.3044,-113.363 45.8103,-100.766"/>
<polygon fill="#9a32cd" stroke="#9a32cd" points="73.116,-153.509 81.2369,-160.313 79.1318,-149.929 73.116,-153.509"/>
<text text-anchor="middle" x="85" y="-129.9" font-family="Helvetica,sans-Serif" font-size="12.00"> array</text>
</g>
<!-- Node2 -->
<g id="node2" class="node"><title>Node2</title>
<g id="a_node2"><a xlink:href="../../d1/d0b/classinternal_j_s_o_n_node.html" target="_top" xlink:title="internalJSONNode">
<polygon fill="white" stroke="black" points="61,-0.5 61,-21.5 175,-21.5 175,-0.5 61,-0.5"/>
<text text-anchor="middle" x="118" y="-7.9" font-family="Helvetica,sans-Serif" font-size="12.00">internalJSONNode</text>
</a>
</g>
</g>
<!-- Node2&#45;&gt;Node1 -->
<g id="edge2" class="edge"><title>Node2&#45;&gt;Node1</title>
<path fill="none" stroke="#9a32cd" stroke-dasharray="5,2" d="M118.287,-31.8401C118.108,-57.4498 115.91,-103.103 104,-140 101.646,-147.292 97.3961,-154.792 93.7345,-160.469"/>
<polygon fill="#9a32cd" stroke="#9a32cd" points="121.787,-31.5763 118.255,-21.5874 114.787,-31.5984 121.787,-31.5763"/>
<text text-anchor="middle" x="137.5" y="-86.9" font-family="Helvetica,sans-Serif" font-size="12.00"> internal</text>
</g>
<!-- Node3 -->
<g id="node3" class="node"><title>Node3</title>
<g id="a_node3"><a xlink:href="../../d9/df1/unioninternal_j_s_o_n_node_1_1value__union__t.html" target="_top" xlink:title="internalJSONNode::value\l_union_t">
<polygon fill="white" stroke="black" points="177.5,-73 177.5,-107 324.5,-107 324.5,-73 177.5,-73"/>
<text text-anchor="start" x="185.5" y="-93.4" font-family="Helvetica,sans-Serif" font-size="12.00">internalJSONNode::value</text>
<text text-anchor="middle" x="251" y="-80.4" font-family="Helvetica,sans-Serif" font-size="12.00">_union_t</text>
</a>
</g>
</g>
<!-- Node3&#45;&gt;Node2 -->
<g id="edge3" class="edge"><title>Node3&#45;&gt;Node2</title>
<path fill="none" stroke="#9a32cd" stroke-dasharray="5,2" d="M214.243,-67.7196C188.141,-52.6081 154.34,-33.0388 134.525,-21.5673"/>
<polygon fill="#9a32cd" stroke="#9a32cd" points="212.711,-70.8769 223.119,-72.8583 216.218,-64.8189 212.711,-70.8769"/>
<text text-anchor="middle" x="207.5" y="-43.9" font-family="Helvetica,sans-Serif" font-size="12.00"> _value</text>
</g>
<!-- Node4&#45;&gt;Node2 -->
<g id="edge4" class="edge"><title>Node4&#45;&gt;Node2</title>
<path fill="none" stroke="#9a32cd" stroke-dasharray="5,2" d="M35.0463,-69.4219C33.7556,-59.7524 34.0965,-48.3916 40,-40 45.8777,-31.6451 54.4949,-25.7708 63.8798,-21.6438"/>
<polygon fill="#9a32cd" stroke="#9a32cd" points="31.6373,-70.2273 36.9872,-79.3722 38.5078,-68.887 31.6373,-70.2273"/>
<text text-anchor="middle" x="72" y="-43.9" font-family="Helvetica,sans-Serif" font-size="12.00"> CHILDREN</text>
</g>
</g>
</svg>
