<?xml version="1.0" encoding="UTF-8" standalone="no"?>
<!DOCTYPE svg PUBLIC "-//W3C//DTD SVG 1.1//EN"
 "http://www.w3.org/Graphics/SVG/1.1/DTD/svg11.dtd">
<!-- Generated by graphviz version 2.34.0 (20130907.0111)
 -->
<!-- Title: Documentation/Operator&#45;Console/JSON/JSONAllocator.h Pages: 1 -->
<svg width="208pt" height="116pt"
 viewBox="0.00 0.00 208.00 116.00" xmlns="http://www.w3.org/2000/svg" xmlns:xlink="http://www.w3.org/1999/xlink">
<g id="graph0" class="graph" transform="scale(1 1) rotate(0) translate(4 112)">
<title>Documentation/Operator&#45;Console/JSON/JSONAllocator.h</title>
<polygon fill="white" stroke="white" points="-4,4 -4,-112 204,-112 204,4 -4,4"/>
<!-- Node1 -->
<g id="node1" class="node"><title>Node1</title>
<polygon fill="#bfbfbf" stroke="black" points="6,-73 6,-107 194,-107 194,-73 6,-73"/>
<text text-anchor="start" x="14" y="-93.4" font-family="Helvetica,sans-Serif" font-size="12.00">Documentation/Operator</text>
<text text-anchor="middle" x="100" y="-80.4" font-family="Helvetica,sans-Serif" font-size="12.00">&#45;Console/JSON/JSONAllocator.h</text>
</g>
<!-- Node2 -->
<g id="node2" class="node"><title>Node2</title>
<g id="a_node2"><a xlink:href="../../d3/d3a/_documentation_2_operator-_console_2_j_s_o_n_2_j_s_o_n_allocator_8cpp.html" target="_top" xlink:title="Documentation/Operator\l&#45;Console/JSON/JSONAllocator.cpp">
<polygon fill="white" stroke="black" points="-0.5,-1 -0.5,-35 200.5,-35 200.5,-1 -0.5,-1"/>
<text text-anchor="start" x="7.5" y="-21.4" font-family="Helvetica,sans-Serif" font-size="12.00">Documentation/Operator</text>
<text text-anchor="middle" x="100" y="-8.4" font-family="Helvetica,sans-Serif" font-size="12.00">&#45;Console/JSON/JSONAllocator.cpp</text>
</a>
</g>
</g>
<!-- Node1&#45;&gt;Node2 -->
<g id="edge1" class="edge"><title>Node1&#45;&gt;Node2</title>
<path fill="none" stroke="midnightblue" d="M100,-62.5079C100,-53.3027 100,-43.2615 100,-35.1473"/>
<polygon fill="midnightblue" stroke="midnightblue" points="96.5001,-62.7646 100,-72.7646 103.5,-62.7647 96.5001,-62.7646"/>
</g>
</g>
</svg>
