<?xml version="1.0" encoding="UTF-8" standalone="no"?>
<!DOCTYPE svg PUBLIC "-//W3C//DTD SVG 1.1//EN"
 "http://www.w3.org/Graphics/SVG/1.1/DTD/svg11.dtd">
<!-- Generated by graphviz version 2.34.0 (20130907.0111)
 -->
<!-- Title: Timer.h Pages: 1 -->
<svg width="1060pt" height="262pt"
 viewBox="0.00 0.00 1060.00 262.00" xmlns="http://www.w3.org/2000/svg" xmlns:xlink="http://www.w3.org/1999/xlink">
<g id="graph0" class="graph" transform="scale(1 1) rotate(0) translate(4 258)">
<title>Timer.h</title>
<polygon fill="white" stroke="white" points="-4,4 -4,-258 1056,-258 1056,4 -4,4"/>
<!-- Node1 -->
<g id="node1" class="node"><title>Node1</title>
<polygon fill="#bfbfbf" stroke="black" points="692,-232.5 692,-253.5 748,-253.5 748,-232.5 692,-232.5"/>
<text text-anchor="middle" x="720" y="-239.9" font-family="Helvetica,sans-Serif" font-size="12.00">Timer.h</text>
</g>
<!-- Node2 -->
<g id="node2" class="node"><title>Node2</title>
<g id="a_node2"><a xlink:href="../../d9/da7/_image_test_8h.html" target="_top" xlink:title="ImageTest.h">
<polygon fill="white" stroke="black" points="634,-174.5 634,-195.5 714,-195.5 714,-174.5 634,-174.5"/>
<text text-anchor="middle" x="674" y="-181.9" font-family="Helvetica,sans-Serif" font-size="12.00">ImageTest.h</text>
</a>
</g>
</g>
<!-- Node1&#45;&gt;Node2 -->
<g id="edge1" class="edge"><title>Node1&#45;&gt;Node2</title>
<path fill="none" stroke="midnightblue" d="M705.625,-224.5C697.803,-214.977 688.424,-203.56 681.921,-195.643"/>
<polygon fill="midnightblue" stroke="midnightblue" points="702.935,-226.74 711.987,-232.246 708.345,-222.297 702.935,-226.74"/>
</g>
<!-- Node17 -->
<g id="node17" class="node"><title>Node17</title>
<g id="a_node17"><a xlink:href="../../d8/d77/_timer_8cpp.html" target="_top" xlink:title="Timer.cpp">
<polygon fill="white" stroke="black" points="732.5,-174.5 732.5,-195.5 801.5,-195.5 801.5,-174.5 732.5,-174.5"/>
<text text-anchor="middle" x="767" y="-181.9" font-family="Helvetica,sans-Serif" font-size="12.00">Timer.cpp</text>
</a>
</g>
</g>
<!-- Node1&#45;&gt;Node17 -->
<g id="edge19" class="edge"><title>Node1&#45;&gt;Node17</title>
<path fill="none" stroke="midnightblue" d="M734.687,-224.5C742.68,-214.977 752.262,-203.56 758.907,-195.643"/>
<polygon fill="midnightblue" stroke="midnightblue" points="731.935,-222.336 728.187,-232.246 737.296,-226.836 731.935,-222.336"/>
</g>
<!-- Node3 -->
<g id="node3" class="node"><title>Node3</title>
<g id="a_node3"><a xlink:href="../../dc/d69/_blemish_test_8h.html" target="_top" xlink:title="BlemishTest.h">
<polygon fill="white" stroke="black" points="519,-116.5 519,-137.5 609,-137.5 609,-116.5 519,-116.5"/>
<text text-anchor="middle" x="564" y="-123.9" font-family="Helvetica,sans-Serif" font-size="12.00">BlemishTest.h</text>
</a>
</g>
</g>
<!-- Node2&#45;&gt;Node3 -->
<g id="edge2" class="edge"><title>Node2&#45;&gt;Node3</title>
<path fill="none" stroke="midnightblue" d="M645.709,-169.597C625.989,-159.558 600.22,-146.439 582.941,-137.643"/>
<polygon fill="midnightblue" stroke="midnightblue" points="644.34,-172.828 654.839,-174.246 647.516,-166.59 644.34,-172.828"/>
</g>
<!-- Node4 -->
<g id="node4" class="node"><title>Node4</title>
<g id="a_node4"><a xlink:href="../../da/de6/_operator_console_8h.html" target="_top" xlink:title="OperatorConsole.h">
<polygon fill="white" stroke="black" points="552,-58.5 552,-79.5 668,-79.5 668,-58.5 552,-58.5"/>
<text text-anchor="middle" x="610" y="-65.9" font-family="Helvetica,sans-Serif" font-size="12.00">OperatorConsole.h</text>
</a>
</g>
</g>
<!-- Node2&#45;&gt;Node4 -->
<g id="edge14" class="edge"><title>Node2&#45;&gt;Node4</title>
<path fill="none" stroke="midnightblue" d="M663.47,-165.243C649.692,-140.702 626.059,-98.6046 615.443,-79.695"/>
<polygon fill="midnightblue" stroke="midnightblue" points="660.596,-167.274 668.543,-174.28 666.7,-163.847 660.596,-167.274"/>
</g>
<!-- Node7 -->
<g id="node7" class="node"><title>Node7</title>
<g id="a_node7"><a xlink:href="../../d8/d53/_image_test_8cpp.html" target="_top" xlink:title="ImageTest.cpp">
<polygon fill="white" stroke="black" points="958,-0.5 958,-21.5 1052,-21.5 1052,-0.5 958,-0.5"/>
<text text-anchor="middle" x="1005" y="-7.9" font-family="Helvetica,sans-Serif" font-size="12.00">ImageTest.cpp</text>
</a>
</g>
</g>
<!-- Node2&#45;&gt;Node7 -->
<g id="edge18" class="edge"><title>Node2&#45;&gt;Node7</title>
<path fill="none" stroke="midnightblue" d="M702.72,-170.048C721.152,-161.031 745.563,-148.974 767,-138 849.818,-95.606 947.694,-42.9842 987.174,-21.6528"/>
<polygon fill="midnightblue" stroke="midnightblue" points="701.124,-166.932 693.673,-174.464 704.195,-173.223 701.124,-166.932"/>
</g>
<!-- Node15 -->
<g id="node15" class="node"><title>Node15</title>
<g id="a_node15"><a xlink:href="../../d2/d9d/_s_f_rplus_test_8h.html" target="_top" xlink:title="SFRplusTest.h">
<polygon fill="white" stroke="black" points="665.5,-116.5 665.5,-137.5 758.5,-137.5 758.5,-116.5 665.5,-116.5"/>
<text text-anchor="middle" x="712" y="-123.9" font-family="Helvetica,sans-Serif" font-size="12.00">SFRplusTest.h</text>
</a>
</g>
</g>
<!-- Node2&#45;&gt;Node15 -->
<g id="edge15" class="edge"><title>Node2&#45;&gt;Node15</title>
<path fill="none" stroke="midnightblue" d="M686.268,-165.921C692.649,-156.518 700.193,-145.4 705.457,-137.643"/>
<polygon fill="midnightblue" stroke="midnightblue" points="683.338,-164.005 680.619,-174.246 689.13,-167.936 683.338,-164.005"/>
</g>
<!-- Node3&#45;&gt;Node4 -->
<g id="edge3" class="edge"><title>Node3&#45;&gt;Node4</title>
<path fill="none" stroke="midnightblue" d="M578.375,-108.5C586.197,-98.9775 595.576,-87.5596 602.079,-79.6427"/>
<polygon fill="midnightblue" stroke="midnightblue" points="575.655,-106.297 572.013,-116.246 581.065,-110.74 575.655,-106.297"/>
</g>
<!-- Node14 -->
<g id="node14" class="node"><title>Node14</title>
<g id="a_node14"><a xlink:href="../../dd/d8a/_blemish_test_8cpp.html" target="_top" xlink:title="BlemishTest.cpp">
<polygon fill="white" stroke="black" points="430,-58.5 430,-79.5 534,-79.5 534,-58.5 430,-58.5"/>
<text text-anchor="middle" x="482" y="-65.9" font-family="Helvetica,sans-Serif" font-size="12.00">BlemishTest.cpp</text>
</a>
</g>
</g>
<!-- Node3&#45;&gt;Node14 -->
<g id="edge13" class="edge"><title>Node3&#45;&gt;Node14</title>
<path fill="none" stroke="midnightblue" d="M541.289,-110.49C526.821,-100.61 508.532,-88.1194 496.12,-79.6427"/>
<polygon fill="midnightblue" stroke="midnightblue" points="539.485,-113.496 549.717,-116.246 543.433,-107.716 539.485,-113.496"/>
</g>
<!-- Node5 -->
<g id="node5" class="node"><title>Node5</title>
<g id="a_node5"><a xlink:href="../../d3/d22/_app_thread_8cpp.html" target="_top" xlink:title="AppThread.cpp">
<polygon fill="white" stroke="black" points="842,-0.5 842,-21.5 940,-21.5 940,-0.5 842,-0.5"/>
<text text-anchor="middle" x="891" y="-7.9" font-family="Helvetica,sans-Serif" font-size="12.00">AppThread.cpp</text>
</a>
</g>
</g>
<!-- Node4&#45;&gt;Node5 -->
<g id="edge4" class="edge"><title>Node4&#45;&gt;Node5</title>
<path fill="none" stroke="midnightblue" d="M668.024,-56.4366C719.827,-46.1127 794.789,-31.1738 843.212,-21.5237"/>
<polygon fill="midnightblue" stroke="midnightblue" points="667.109,-53.0499 657.986,-58.4369 668.478,-59.9149 667.109,-53.0499"/>
</g>
<!-- Node6 -->
<g id="node6" class="node"><title>Node6</title>
<g id="a_node6"><a xlink:href="../../d6/df7/_critical_buf_8cpp.html" target="_top" xlink:title="CriticalBuf.cpp">
<polygon fill="white" stroke="black" points="-0.5,-0.5 -0.5,-21.5 92.5,-21.5 92.5,-0.5 -0.5,-0.5"/>
<text text-anchor="middle" x="46" y="-7.9" font-family="Helvetica,sans-Serif" font-size="12.00">CriticalBuf.cpp</text>
</a>
</g>
</g>
<!-- Node4&#45;&gt;Node6 -->
<g id="edge5" class="edge"><title>Node4&#45;&gt;Node6</title>
<path fill="none" stroke="midnightblue" d="M541.856,-57.941C345.474,-35.8352 293.173,-47.2339 101,-22 98.3057,-21.6462 95.5428,-21.2502 92.7586,-20.8254"/>
<polygon fill="midnightblue" stroke="midnightblue" points="541.595,-61.4337 551.927,-59.0895 542.388,-54.4788 541.595,-61.4337"/>
</g>
<!-- Node4&#45;&gt;Node7 -->
<g id="edge6" class="edge"><title>Node4&#45;&gt;Node7</title>
<path fill="none" stroke="midnightblue" d="M678.149,-57.8605C799.436,-40.9715 831.68,-40.2293 949,-22 951.928,-21.5451 954.938,-21.0595 957.972,-20.5566"/>
<polygon fill="midnightblue" stroke="midnightblue" points="677.514,-54.4152 668.096,-59.2688 678.485,-61.3475 677.514,-54.4152"/>
</g>
<!-- Node8 -->
<g id="node8" class="node"><title>Node8</title>
<g id="a_node8"><a xlink:href="../../df/d0a/main_8cpp.html" target="_top" xlink:title="main.cpp">
<polygon fill="white" stroke="black" points="110.5,-0.5 110.5,-21.5 175.5,-21.5 175.5,-0.5 110.5,-0.5"/>
<text text-anchor="middle" x="143" y="-7.9" font-family="Helvetica,sans-Serif" font-size="12.00">main.cpp</text>
</a>
</g>
</g>
<!-- Node4&#45;&gt;Node8 -->
<g id="edge7" class="edge"><title>Node4&#45;&gt;Node8</title>
<path fill="none" stroke="midnightblue" d="M541.737,-57.9039C382.112,-38.5898 338.814,-48.5092 184,-22 181.256,-21.5301 178.423,-20.9794 175.588,-20.3821"/>
<polygon fill="midnightblue" stroke="midnightblue" points="541.566,-61.4092 551.919,-59.1561 542.421,-54.4615 541.566,-61.4092"/>
</g>
<!-- Node9 -->
<g id="node9" class="node"><title>Node9</title>
<g id="a_node9"><a xlink:href="../../de/da2/_operator_console_8cpp.html" target="_top" xlink:title="OperatorConsole.cpp">
<polygon fill="white" stroke="black" points="193.5,-0.5 193.5,-21.5 322.5,-21.5 322.5,-0.5 193.5,-0.5"/>
<text text-anchor="middle" x="258" y="-7.9" font-family="Helvetica,sans-Serif" font-size="12.00">OperatorConsole.cpp</text>
</a>
</g>
</g>
<!-- Node4&#45;&gt;Node9 -->
<g id="edge8" class="edge"><title>Node4&#45;&gt;Node9</title>
<path fill="none" stroke="midnightblue" d="M541.734,-57.1395C476.789,-46.8073 380.034,-31.4145 317.98,-21.5423"/>
<polygon fill="midnightblue" stroke="midnightblue" points="541.449,-60.638 551.874,-58.7527 542.548,-53.725 541.449,-60.638"/>
</g>
<!-- Node10 -->
<g id="node10" class="node"><title>Node10</title>
<g id="a_node10"><a xlink:href="../../d8/d29/_operator_console_dlg_8cpp.html" target="_top" xlink:title="OperatorConsoleDlg.cpp">
<polygon fill="white" stroke="black" points="340.5,-0.5 340.5,-21.5 487.5,-21.5 487.5,-0.5 340.5,-0.5"/>
<text text-anchor="middle" x="414" y="-7.9" font-family="Helvetica,sans-Serif" font-size="12.00">OperatorConsoleDlg.cpp</text>
</a>
</g>
</g>
<!-- Node4&#45;&gt;Node10 -->
<g id="edge9" class="edge"><title>Node4&#45;&gt;Node10</title>
<path fill="none" stroke="midnightblue" d="M566.559,-55.5882C530.548,-45.2996 480.113,-30.8895 447.254,-21.5011"/>
<polygon fill="midnightblue" stroke="midnightblue" points="565.73,-58.9913 576.306,-58.3733 567.653,-52.2606 565.73,-58.9913"/>
</g>
<!-- Node11 -->
<g id="node11" class="node"><title>Node11</title>
<g id="a_node11"><a xlink:href="../../d0/d57/_pass_fail_8cpp.html" target="_top" xlink:title="PassFail.cpp">
<polygon fill="white" stroke="black" points="506,-0.5 506,-21.5 592,-21.5 592,-0.5 506,-0.5"/>
<text text-anchor="middle" x="549" y="-7.9" font-family="Helvetica,sans-Serif" font-size="12.00">PassFail.cpp</text>
</a>
</g>
</g>
<!-- Node4&#45;&gt;Node11 -->
<g id="edge10" class="edge"><title>Node4&#45;&gt;Node11</title>
<path fill="none" stroke="midnightblue" d="M591.875,-51.3607C581.322,-41.6727 568.389,-29.7995 559.504,-21.6427"/>
<polygon fill="midnightblue" stroke="midnightblue" points="589.641,-54.0611 599.375,-58.2455 594.375,-48.9045 589.641,-54.0611"/>
</g>
<!-- Node12 -->
<g id="node12" class="node"><title>Node12</title>
<g id="a_node12"><a xlink:href="../../da/d46/_password_dialog_8cpp.html" target="_top" xlink:title="PasswordDialog.cpp">
<polygon fill="white" stroke="black" points="610,-0.5 610,-21.5 736,-21.5 736,-0.5 610,-0.5"/>
<text text-anchor="middle" x="673" y="-7.9" font-family="Helvetica,sans-Serif" font-size="12.00">PasswordDialog.cpp</text>
</a>
</g>
</g>
<!-- Node4&#45;&gt;Node12 -->
<g id="edge11" class="edge"><title>Node4&#45;&gt;Node12</title>
<path fill="none" stroke="midnightblue" d="M628.719,-51.3607C639.618,-41.6727 652.976,-29.7995 662.152,-21.6427"/>
<polygon fill="midnightblue" stroke="midnightblue" points="626.123,-48.9859 620.974,-58.2455 630.773,-54.2178 626.123,-48.9859"/>
</g>
<!-- Node13 -->
<g id="node13" class="node"><title>Node13</title>
<g id="a_node13"><a xlink:href="../../d5/d27/_setup_8cpp.html" target="_top" xlink:title="Setup.cpp">
<polygon fill="white" stroke="black" points="754,-0.5 754,-21.5 824,-21.5 824,-0.5 754,-0.5"/>
<text text-anchor="middle" x="789" y="-7.9" font-family="Helvetica,sans-Serif" font-size="12.00">Setup.cpp</text>
</a>
</g>
</g>
<!-- Node4&#45;&gt;Node13 -->
<g id="edge12" class="edge"><title>Node4&#45;&gt;Node13</title>
<path fill="none" stroke="midnightblue" d="M650.52,-55.3235C683.347,-45.0536 728.878,-30.8093 758.63,-21.5011"/>
<polygon fill="midnightblue" stroke="midnightblue" points="649.27,-52.0471 640.771,-58.3733 651.36,-58.7278 649.27,-52.0471"/>
</g>
<!-- Node15&#45;&gt;Node4 -->
<g id="edge16" class="edge"><title>Node15&#45;&gt;Node4</title>
<path fill="none" stroke="midnightblue" d="M685.266,-111.323C667.047,-101.32 643.44,-88.3593 627.563,-79.6427"/>
<polygon fill="midnightblue" stroke="midnightblue" points="683.783,-114.501 694.233,-116.246 687.152,-108.365 683.783,-114.501"/>
</g>
<!-- Node16 -->
<g id="node16" class="node"><title>Node16</title>
<g id="a_node16"><a xlink:href="../../dc/d7a/_s_f_rplus_test_8cpp.html" target="_top" xlink:title="SFRplusTest.cpp">
<polygon fill="white" stroke="black" points="686.5,-58.5 686.5,-79.5 793.5,-79.5 793.5,-58.5 686.5,-58.5"/>
<text text-anchor="middle" x="740" y="-65.9" font-family="Helvetica,sans-Serif" font-size="12.00">SFRplusTest.cpp</text>
</a>
</g>
</g>
<!-- Node15&#45;&gt;Node16 -->
<g id="edge17" class="edge"><title>Node15&#45;&gt;Node16</title>
<path fill="none" stroke="midnightblue" d="M721.478,-107.044C726.083,-97.8331 731.42,-87.1598 735.179,-79.6427"/>
<polygon fill="midnightblue" stroke="midnightblue" points="718.219,-105.736 716.877,-116.246 724.48,-108.867 718.219,-105.736"/>
</g>
</g>
</svg>
