<?xml version="1.0" encoding="UTF-8" standalone="no"?>
<!DOCTYPE svg PUBLIC "-//W3C//DTD SVG 1.1//EN"
 "http://www.w3.org/Graphics/SVG/1.1/DTD/svg11.dtd">
<!-- Generated by graphviz version 2.34.0 (20130907.0111)
 -->
<!-- Title: FindChar Pages: 1 -->
<svg width="794pt" height="42pt"
 viewBox="0.00 0.00 794.00 42.00" xmlns="http://www.w3.org/2000/svg" xmlns:xlink="http://www.w3.org/1999/xlink">
<g id="graph0" class="graph" transform="scale(1 1) rotate(0) translate(4 38)">
<title>FindChar</title>
<polygon fill="white" stroke="white" points="-4,4 -4,-38 790,-38 790,4 -4,4"/>
<!-- Node1 -->
<g id="node1" class="node"><title>Node1</title>
<polygon fill="#bfbfbf" stroke="black" points="0.5,-6.5 0.5,-27.5 65.5,-27.5 65.5,-6.5 0.5,-6.5"/>
<text text-anchor="middle" x="33" y="-13.9" font-family="Helvetica,sans-Serif" font-size="12.00">FindChar</text>
</g>
<!-- Node2 -->
<g id="node2" class="node"><title>Node2</title>
<g id="a_node2"><a xlink:href="../../d5/d67/class_stdout_thread.html#a5527fa5fc7f110414f03e63b759bc4c3" target="_top" xlink:title="StdoutThread::ThreadProc">
<polygon fill="white" stroke="black" points="102.5,-6.5 102.5,-27.5 257.5,-27.5 257.5,-6.5 102.5,-6.5"/>
<text text-anchor="middle" x="180" y="-13.9" font-family="Helvetica,sans-Serif" font-size="12.00">StdoutThread::ThreadProc</text>
</a>
</g>
</g>
<!-- Node1&#45;&gt;Node2 -->
<g id="edge1" class="edge"><title>Node1&#45;&gt;Node2</title>
<path fill="none" stroke="midnightblue" d="M75.9856,-17C84.3224,-17 93.3177,-17 102.399,-17"/>
<polygon fill="midnightblue" stroke="midnightblue" points="75.8209,-13.5001 65.8209,-17 75.8208,-20.5001 75.8209,-13.5001"/>
</g>
<!-- Node3 -->
<g id="node3" class="node"><title>Node3</title>
<g id="a_node3"><a xlink:href="../../d5/d67/class_stdout_thread.html#aab5207762f1d6036974b9bbd4b854a23" target="_top" xlink:title="StdoutThread::InitThread">
<polygon fill="white" stroke="black" points="294,-6.5 294,-27.5 438,-27.5 438,-6.5 294,-6.5"/>
<text text-anchor="middle" x="366" y="-13.9" font-family="Helvetica,sans-Serif" font-size="12.00">StdoutThread::InitThread</text>
</a>
</g>
</g>
<!-- Node2&#45;&gt;Node3 -->
<g id="edge2" class="edge"><title>Node2&#45;&gt;Node3</title>
<path fill="none" stroke="midnightblue" d="M267.833,-17C276.504,-17 285.237,-17 293.721,-17"/>
<polygon fill="midnightblue" stroke="midnightblue" points="267.7,-13.5001 257.7,-17 267.7,-20.5001 267.7,-13.5001"/>
</g>
<!-- Node4 -->
<g id="node4" class="node"><title>Node4</title>
<g id="a_node4"><a xlink:href="../../d3/d9f/class_c_operator_console_app.html#a3326d8200d481631ffb26bff5c621e05" target="_top" xlink:title="COperatorConsoleApp\l::InitOutput">
<polygon fill="white" stroke="black" points="474.5,-0 474.5,-34 611.5,-34 611.5,-0 474.5,-0"/>
<text text-anchor="start" x="482.5" y="-20.4" font-family="Helvetica,sans-Serif" font-size="12.00">COperatorConsoleApp</text>
<text text-anchor="middle" x="543" y="-7.4" font-family="Helvetica,sans-Serif" font-size="12.00">::InitOutput</text>
</a>
</g>
</g>
<!-- Node3&#45;&gt;Node4 -->
<g id="edge3" class="edge"><title>Node3&#45;&gt;Node4</title>
<path fill="none" stroke="midnightblue" d="M448.318,-17C457.005,-17 465.773,-17 474.278,-17"/>
<polygon fill="midnightblue" stroke="midnightblue" points="448.179,-13.5001 438.179,-17 448.179,-20.5001 448.179,-13.5001"/>
</g>
<!-- Node5 -->
<g id="node5" class="node"><title>Node5</title>
<g id="a_node5"><a xlink:href="../../d3/d9f/class_c_operator_console_app.html#a94f4b258145e77e31644beb999bf099a" target="_top" xlink:title="COperatorConsoleApp initialization. ">
<polygon fill="white" stroke="black" points="648.5,-0 648.5,-34 785.5,-34 785.5,-0 648.5,-0"/>
<text text-anchor="start" x="656.5" y="-20.4" font-family="Helvetica,sans-Serif" font-size="12.00">COperatorConsoleApp</text>
<text text-anchor="middle" x="717" y="-7.4" font-family="Helvetica,sans-Serif" font-size="12.00">::InitInstance</text>
</a>
</g>
</g>
<!-- Node4&#45;&gt;Node5 -->
<g id="edge4" class="edge"><title>Node4&#45;&gt;Node5</title>
<path fill="none" stroke="midnightblue" d="M622.134,-17C630.846,-17 639.666,-17 648.233,-17"/>
<polygon fill="midnightblue" stroke="midnightblue" points="621.979,-13.5001 611.979,-17 621.979,-20.5001 621.979,-13.5001"/>
</g>
</g>
</svg>
