<?xml version="1.0" encoding="UTF-8" standalone="no"?>
<!DOCTYPE svg PUBLIC "-//W3C//DTD SVG 1.1//EN"
 "http://www.w3.org/Graphics/SVG/1.1/DTD/svg11.dtd">
<!-- Generated by graphviz version 2.34.0 (20130907.0111)
 -->
<!-- Title: Documentation/Operator&#45;Console/escapi21/escapi.cpp Pages: 1 -->
<svg width="184pt" height="102pt"
 viewBox="0.00 0.00 184.00 102.00" xmlns="http://www.w3.org/2000/svg" xmlns:xlink="http://www.w3.org/1999/xlink">
<g id="graph0" class="graph" transform="scale(1 1) rotate(0) translate(4 98)">
<title>Documentation/Operator&#45;Console/escapi21/escapi.cpp</title>
<polygon fill="white" stroke="white" points="-4,4 -4,-98 180,-98 180,4 -4,4"/>
<!-- Node1 -->
<g id="node1" class="node"><title>Node1</title>
<polygon fill="#bfbfbf" stroke="black" points="0,-59 0,-93 176,-93 176,-59 0,-59"/>
<text text-anchor="start" x="8" y="-79.4" font-family="Helvetica,sans-Serif" font-size="12.00">Documentation/Operator</text>
<text text-anchor="middle" x="88" y="-66.4" font-family="Helvetica,sans-Serif" font-size="12.00">&#45;Console/escapi21/escapi.cpp</text>
</g>
<!-- Node2 -->
<g id="node2" class="node"><title>Node2</title>
<polygon fill="white" stroke="#bfbfbf" points="10.5,-0.5 10.5,-21.5 81.5,-21.5 81.5,-0.5 10.5,-0.5"/>
<text text-anchor="middle" x="46" y="-7.9" font-family="Helvetica,sans-Serif" font-size="12.00">windows.h</text>
</g>
<!-- Node1&#45;&gt;Node2 -->
<g id="edge1" class="edge"><title>Node1&#45;&gt;Node2</title>
<path fill="none" stroke="midnightblue" d="M77.184,-58.7759C71.2778,-49.9167 63.9535,-38.9303 57.8877,-29.8315"/>
<polygon fill="midnightblue" stroke="midnightblue" points="60.7996,-27.8897 52.3404,-21.5106 54.9753,-31.7726 60.7996,-27.8897"/>
</g>
<!-- Node3 -->
<g id="node3" class="node"><title>Node3</title>
<g id="a_node3"><a xlink:href="../../dd/d9e/escapi_8h.html" target="_top" xlink:title="escapi.h">
<polygon fill="white" stroke="black" points="99.5,-0.5 99.5,-21.5 160.5,-21.5 160.5,-0.5 99.5,-0.5"/>
<text text-anchor="middle" x="130" y="-7.9" font-family="Helvetica,sans-Serif" font-size="12.00">escapi.h</text>
</a>
</g>
</g>
<!-- Node1&#45;&gt;Node3 -->
<g id="edge2" class="edge"><title>Node1&#45;&gt;Node3</title>
<path fill="none" stroke="midnightblue" d="M98.816,-58.7759C104.722,-49.9167 112.046,-38.9303 118.112,-29.8315"/>
<polygon fill="midnightblue" stroke="midnightblue" points="121.025,-31.7726 123.66,-21.5106 115.2,-27.8897 121.025,-31.7726"/>
</g>
</g>
</svg>
