<?xml version="1.0" encoding="UTF-8" standalone="no"?>
<!DOCTYPE svg PUBLIC "-//W3C//DTD SVG 1.1//EN"
 "http://www.w3.org/Graphics/SVG/1.1/DTD/svg11.dtd">
<!-- Generated by graphviz version 2.34.0 (20130907.0111)
 -->
<!-- Title: COperatorConsoleDlg Pages: 1 -->
<svg width="273pt" height="162pt"
 viewBox="0.00 0.00 273.00 162.00" xmlns="http://www.w3.org/2000/svg" xmlns:xlink="http://www.w3.org/1999/xlink">
<g id="graph0" class="graph" transform="scale(1 1) rotate(0) translate(4 158)">
<title>COperatorConsoleDlg</title>
<polygon fill="white" stroke="white" points="-4,4 -4,-158 269,-158 269,4 -4,4"/>
<!-- Node1 -->
<g id="node1" class="node"><title>Node1</title>
<polygon fill="#bfbfbf" stroke="black" points="17,-0.5 17,-21.5 151,-21.5 151,-0.5 17,-0.5"/>
<text text-anchor="middle" x="84" y="-7.9" font-family="Helvetica,sans-Serif" font-size="12.00">COperatorConsoleDlg</text>
</g>
<!-- Node2 -->
<g id="node2" class="node"><title>Node2</title>
<polygon fill="white" stroke="#bfbfbf" points="0,-72.5 0,-93.5 74,-93.5 74,-72.5 0,-72.5"/>
<text text-anchor="middle" x="37" y="-79.9" font-family="Helvetica,sans-Serif" font-size="12.00">CDialogEx</text>
</g>
<!-- Node2&#45;&gt;Node1 -->
<g id="edge1" class="edge"><title>Node2&#45;&gt;Node1</title>
<path fill="none" stroke="midnightblue" d="M43.4562,-63.3819C51.2244,-49.956 63.4324,-32.3771 72.6912,-21.6505"/>
<polygon fill="midnightblue" stroke="midnightblue" points="40.333,-61.8001 38.6902,-72.2668 46.5016,-65.1091 40.333,-61.8001"/>
</g>
<!-- Node2&#45;&gt;Node1 -->
<g id="edge2" class="edge"><title>Node2&#45;&gt;Node1</title>
<path fill="none" stroke="midnightblue" d="M54.9488,-64.1593C65.3612,-50.6412 77.1041,-32.5854 82.3495,-21.6505"/>
<polygon fill="midnightblue" stroke="midnightblue" points="51.9558,-62.2936 48.3801,-72.2668 57.3947,-66.7002 51.9558,-62.2936"/>
</g>
<!-- Node3 -->
<g id="node3" class="node"><title>Node3</title>
<g id="a_node3"><a xlink:href="../../dc/dad/class_c_static_bmp.html" target="_top" xlink:title="A class used to hold a bitmap image for display. ">
<polygon fill="white" stroke="black" points="92,-72.5 92,-93.5 172,-93.5 172,-72.5 92,-72.5"/>
<text text-anchor="middle" x="132" y="-79.9" font-family="Helvetica,sans-Serif" font-size="12.00">CStaticBmp</text>
</a>
</g>
</g>
<!-- Node3&#45;&gt;Node1 -->
<g id="edge3" class="edge"><title>Node3&#45;&gt;Node1</title>
<path fill="none" stroke="#9a32cd" stroke-dasharray="5,2" d="M119.501,-63.7718C110.261,-50.298 98.0443,-32.4813 90.6175,-21.6505"/>
<polygon fill="#9a32cd" stroke="#9a32cd" points="116.784,-65.9989 125.326,-72.2668 122.557,-62.0401 116.784,-65.9989"/>
<text text-anchor="middle" x="137.5" y="-43.9" font-family="Helvetica,sans-Serif" font-size="12.00"> c_image</text>
</g>
<!-- Node4 -->
<g id="node4" class="node"><title>Node4</title>
<polygon fill="white" stroke="#bfbfbf" points="104,-132.5 104,-153.5 160,-153.5 160,-132.5 104,-132.5"/>
<text text-anchor="middle" x="132" y="-139.9" font-family="Helvetica,sans-Serif" font-size="12.00">CStatic</text>
</g>
<!-- Node4&#45;&gt;Node3 -->
<g id="edge4" class="edge"><title>Node4&#45;&gt;Node3</title>
<path fill="none" stroke="midnightblue" d="M125.58,-122.465C124.884,-112.82 125.288,-101.608 126.793,-93.7856"/>
<polygon fill="midnightblue" stroke="midnightblue" points="122.112,-122.938 126.834,-132.422 129.057,-122.064 122.112,-122.938"/>
</g>
<!-- Node4&#45;&gt;Node3 -->
<g id="edge5" class="edge"><title>Node4&#45;&gt;Node3</title>
<path fill="none" stroke="midnightblue" d="M138.42,-122.465C139.116,-112.82 138.712,-101.608 137.207,-93.7856"/>
<polygon fill="midnightblue" stroke="midnightblue" points="134.943,-122.064 137.166,-132.422 141.888,-122.938 134.943,-122.064"/>
</g>
<!-- Node5 -->
<g id="node5" class="node"><title>Node5</title>
<g id="a_node5"><a xlink:href="../../dd/d46/class_timestamp.html" target="_top" xlink:title="A class for acquiring the current time. ">
<polygon fill="white" stroke="black" points="190.5,-72.5 190.5,-93.5 265.5,-93.5 265.5,-72.5 190.5,-72.5"/>
<text text-anchor="middle" x="228" y="-79.9" font-family="Helvetica,sans-Serif" font-size="12.00">Timestamp</text>
</a>
</g>
</g>
<!-- Node5&#45;&gt;Node1 -->
<g id="edge6" class="edge"><title>Node5&#45;&gt;Node1</title>
<path fill="none" stroke="#9a32cd" stroke-dasharray="5,2" d="M207.59,-66.1402C195.888,-57.5785 180.651,-47.2998 166,-40 151.054,-32.5536 133.653,-26.3006 118.736,-21.6059"/>
<polygon fill="#9a32cd" stroke="#9a32cd" points="205.68,-69.082 215.782,-72.2749 209.876,-63.479 205.68,-69.082"/>
<text text-anchor="middle" x="227.5" y="-43.9" font-family="Helvetica,sans-Serif" font-size="12.00"> m_timestamp</text>
</g>
</g>
</svg>
