<?xml version="1.0" encoding="UTF-8" standalone="no"?>
<!DOCTYPE svg PUBLIC "-//W3C//DTD SVG 1.1//EN"
 "http://www.w3.org/Graphics/SVG/1.1/DTD/svg11.dtd">
<!-- Generated by graphviz version 2.34.0 (20130907.0111)
 -->
<!-- Title: JSON/JSONWriter.cpp Pages: 1 -->
<svg width="814pt" height="552pt"
 viewBox="0.00 0.00 814.11 552.00" xmlns="http://www.w3.org/2000/svg" xmlns:xlink="http://www.w3.org/1999/xlink">
<g id="graph0" class="graph" transform="scale(1 1) rotate(0) translate(4 548)">
<title>JSON/JSONWriter.cpp</title>
<polygon fill="white" stroke="white" points="-4,4 -4,-548 810.106,-548 810.106,4 -4,4"/>
<!-- Node1 -->
<g id="node1" class="node"><title>Node1</title>
<polygon fill="#bfbfbf" stroke="black" points="419.5,-522.5 419.5,-543.5 556.5,-543.5 556.5,-522.5 419.5,-522.5"/>
<text text-anchor="middle" x="488" y="-529.9" font-family="Helvetica,sans-Serif" font-size="12.00">JSON/JSONWriter.cpp</text>
</g>
<!-- Node2 -->
<g id="node2" class="node"><title>Node2</title>
<g id="a_node2"><a xlink:href="../../d8/dcb/_j_s_o_n_node_8h.html" target="_top" xlink:title="JSONNode.h">
<polygon fill="white" stroke="black" points="521,-406.5 521,-427.5 607,-427.5 607,-406.5 521,-406.5"/>
<text text-anchor="middle" x="564" y="-413.9" font-family="Helvetica,sans-Serif" font-size="12.00">JSONNode.h</text>
</a>
</g>
</g>
<!-- Node1&#45;&gt;Node2 -->
<g id="edge1" class="edge"><title>Node1&#45;&gt;Node2</title>
<path fill="none" stroke="midnightblue" d="M504.26,-522.472C516.844,-514.302 533.793,-501.424 544,-486 553.645,-471.425 558.744,-452.091 561.373,-437.766"/>
<polygon fill="midnightblue" stroke="midnightblue" points="564.885,-437.961 562.99,-427.537 557.971,-436.867 564.885,-437.961"/>
</g>
<!-- Node16 -->
<g id="node16" class="node"><title>Node16</title>
<g id="a_node16"><a xlink:href="../../d8/dc8/_j_s_o_n_globals_8h.html" target="_top" xlink:title="JSONGlobals.h">
<polygon fill="white" stroke="black" points="449.5,-232.5 449.5,-253.5 546.5,-253.5 546.5,-232.5 449.5,-232.5"/>
<text text-anchor="middle" x="498" y="-239.9" font-family="Helvetica,sans-Serif" font-size="12.00">JSONGlobals.h</text>
</a>
</g>
</g>
<!-- Node1&#45;&gt;Node16 -->
<g id="edge35" class="edge"><title>Node1&#45;&gt;Node16</title>
<path fill="none" stroke="midnightblue" d="M471.126,-522.409C458.312,-514.289 441.208,-501.508 431,-486 413.747,-459.789 412,-449.38 412,-418 412,-418 412,-418 412,-358 412,-326.62 412.747,-315.525 431,-290 440.469,-276.759 455.012,-266.109 468.132,-258.405"/>
<polygon fill="midnightblue" stroke="midnightblue" points="469.854,-261.452 476.908,-253.546 466.464,-255.328 469.854,-261.452"/>
</g>
<!-- Node22 -->
<g id="node22" class="node"><title>Node22</title>
<g id="a_node22"><a xlink:href="../../d8/d46/_j_s_o_n_worker_8h.html" target="_top" xlink:title="JSONWorker.h">
<polygon fill="white" stroke="black" points="440.5,-464.5 440.5,-485.5 535.5,-485.5 535.5,-464.5 440.5,-464.5"/>
<text text-anchor="middle" x="488" y="-471.9" font-family="Helvetica,sans-Serif" font-size="12.00">JSONWorker.h</text>
</a>
</g>
</g>
<!-- Node1&#45;&gt;Node22 -->
<g id="edge32" class="edge"><title>Node1&#45;&gt;Node22</title>
<path fill="none" stroke="midnightblue" d="M488,-522.246C488,-514.938 488,-504.694 488,-495.705"/>
<polygon fill="midnightblue" stroke="midnightblue" points="491.5,-495.643 488,-485.643 484.5,-495.643 491.5,-495.643"/>
</g>
<!-- Node3 -->
<g id="node3" class="node"><title>Node3</title>
<g id="a_node3"><a xlink:href="../../d6/d82/_j_s_o_n_debug_8h.html" target="_top" xlink:title="JSONDebug.h">
<polygon fill="white" stroke="black" points="709,-174.5 709,-195.5 801,-195.5 801,-174.5 709,-174.5"/>
<text text-anchor="middle" x="755" y="-181.9" font-family="Helvetica,sans-Serif" font-size="12.00">JSONDebug.h</text>
</a>
</g>
</g>
<!-- Node2&#45;&gt;Node3 -->
<g id="edge2" class="edge"><title>Node2&#45;&gt;Node3</title>
<path fill="none" stroke="midnightblue" d="M607.276,-412.131C662.258,-406.313 752.811,-393.414 776,-370 819.351,-326.229 808.277,-290.511 789,-232 785.494,-221.359 778.476,-211.164 771.721,-203.088"/>
<polygon fill="midnightblue" stroke="midnightblue" points="774.214,-200.625 764.936,-195.509 768.999,-205.294 774.214,-200.625"/>
</g>
<!-- Node11 -->
<g id="node11" class="node"><title>Node11</title>
<g id="a_node11"><a xlink:href="../../dd/db0/internal_j_s_o_n_node_8h.html" target="_top" xlink:title="internalJSONNode.h">
<polygon fill="white" stroke="black" points="644.5,-348.5 644.5,-369.5 767.5,-369.5 767.5,-348.5 644.5,-348.5"/>
<text text-anchor="middle" x="706" y="-355.9" font-family="Helvetica,sans-Serif" font-size="12.00">internalJSONNode.h</text>
</a>
</g>
</g>
<!-- Node2&#45;&gt;Node11 -->
<g id="edge11" class="edge"><title>Node2&#45;&gt;Node11</title>
<path fill="none" stroke="midnightblue" d="M588.411,-406.373C611.614,-397.223 646.704,-383.384 672.514,-373.206"/>
<polygon fill="midnightblue" stroke="midnightblue" points="673.889,-376.426 681.908,-369.501 671.321,-369.914 673.889,-376.426"/>
</g>
<!-- Node19 -->
<g id="node19" class="node"><title>Node19</title>
<polygon fill="white" stroke="#bfbfbf" points="484.5,-348.5 484.5,-369.5 551.5,-369.5 551.5,-348.5 484.5,-348.5"/>
<text text-anchor="middle" x="518" y="-355.9" font-family="Helvetica,sans-Serif" font-size="12.00">stdexcept</text>
</g>
<!-- Node2&#45;&gt;Node19 -->
<g id="edge27" class="edge"><title>Node2&#45;&gt;Node19</title>
<path fill="none" stroke="midnightblue" d="M555.987,-406.246C549.523,-398.376 540.262,-387.101 532.502,-377.654"/>
<polygon fill="midnightblue" stroke="midnightblue" points="534.973,-375.148 525.921,-369.643 529.564,-379.592 534.973,-375.148"/>
</g>
<!-- Node20 -->
<g id="node20" class="node"><title>Node20</title>
<polygon fill="white" stroke="#bfbfbf" points="570,-348.5 570,-369.5 626,-369.5 626,-348.5 570,-348.5"/>
<text text-anchor="middle" x="598" y="-355.9" font-family="Helvetica,sans-Serif" font-size="12.00">cstdarg</text>
</g>
<!-- Node2&#45;&gt;Node20 -->
<g id="edge28" class="edge"><title>Node2&#45;&gt;Node20</title>
<path fill="none" stroke="midnightblue" d="M569.922,-406.246C574.603,-398.537 581.267,-387.56 586.929,-378.235"/>
<polygon fill="midnightblue" stroke="midnightblue" points="589.947,-380.007 592.146,-369.643 583.964,-376.374 589.947,-380.007"/>
</g>
<!-- Node21 -->
<g id="node21" class="node"><title>Node21</title>
<g id="a_node21"><a xlink:href="../../d5/d4b/_j_s_o_n___base64_8h.html" target="_top" xlink:title="JSON_Base64.h">
<polygon fill="white" stroke="black" points="326.5,-232.5 326.5,-253.5 431.5,-253.5 431.5,-232.5 326.5,-232.5"/>
<text text-anchor="middle" x="379" y="-239.9" font-family="Helvetica,sans-Serif" font-size="12.00">JSON_Base64.h</text>
</a>
</g>
</g>
<!-- Node2&#45;&gt;Node21 -->
<g id="edge29" class="edge"><title>Node2&#45;&gt;Node21</title>
<path fill="none" stroke="midnightblue" d="M538.421,-406.372C519.587,-398.471 494.049,-385.992 475,-370 437.107,-338.188 405.062,-288.861 389.359,-262.347"/>
<polygon fill="midnightblue" stroke="midnightblue" points="392.38,-260.578 384.333,-253.686 386.325,-264.092 392.38,-260.578"/>
</g>
<!-- Node4 -->
<g id="node4" class="node"><title>Node4</title>
<g id="a_node4"><a xlink:href="../../dd/d47/_j_s_o_n_defs_8h.html" target="_top" xlink:title="JSONDefs.h">
<polygon fill="white" stroke="black" points="436,-116.5 436,-137.5 518,-137.5 518,-116.5 436,-116.5"/>
<text text-anchor="middle" x="477" y="-123.9" font-family="Helvetica,sans-Serif" font-size="12.00">JSONDefs.h</text>
</a>
</g>
</g>
<!-- Node3&#45;&gt;Node4 -->
<g id="edge3" class="edge"><title>Node3&#45;&gt;Node4</title>
<path fill="none" stroke="midnightblue" d="M708.782,-174.69C658.989,-164.66 579.964,-148.741 528.287,-138.331"/>
<polygon fill="midnightblue" stroke="midnightblue" points="528.828,-134.87 518.333,-136.326 527.445,-141.732 528.828,-134.87"/>
</g>
<!-- Node5 -->
<g id="node5" class="node"><title>Node5</title>
<g id="a_node5"><a xlink:href="../../dc/d13/_j_s_o_n_options_8h.html" target="_top" xlink:title="..\\JSONOptions.h">
<polygon fill="white" stroke="black" points="423.5,-0.5 423.5,-21.5 530.5,-21.5 530.5,-0.5 423.5,-0.5"/>
<text text-anchor="middle" x="477" y="-7.9" font-family="Helvetica,sans-Serif" font-size="12.00">..\JSONOptions.h</text>
</a>
</g>
</g>
<!-- Node4&#45;&gt;Node5 -->
<g id="edge4" class="edge"><title>Node4&#45;&gt;Node5</title>
<path fill="none" stroke="midnightblue" d="M477,-116.28C477,-97.6031 477,-56.3692 477,-31.7152"/>
<polygon fill="midnightblue" stroke="midnightblue" points="480.5,-31.6949 477,-21.695 473.5,-31.695 480.5,-31.6949"/>
</g>
<!-- Node6 -->
<g id="node6" class="node"><title>Node6</title>
<g id="a_node6"><a xlink:href="../../d1/d44/_unknown___c_8h.html" target="_top" xlink:title="JSONDefs\\Unknown_C.h">
<polygon fill="white" stroke="black" points="505,-58.5 505,-79.5 653,-79.5 653,-58.5 505,-58.5"/>
<text text-anchor="middle" x="579" y="-65.9" font-family="Helvetica,sans-Serif" font-size="12.00">JSONDefs\Unknown_C.h</text>
</a>
</g>
</g>
<!-- Node4&#45;&gt;Node6 -->
<g id="edge5" class="edge"><title>Node4&#45;&gt;Node6</title>
<path fill="none" stroke="midnightblue" d="M494.767,-116.246C510.71,-107.493 534.326,-94.527 552.499,-84.5496"/>
<polygon fill="midnightblue" stroke="midnightblue" points="554.355,-87.5233 561.437,-79.6427 550.986,-81.3873 554.355,-87.5233"/>
</g>
<!-- Node7 -->
<g id="node7" class="node"><title>Node7</title>
<g id="a_node7"><a xlink:href="../../d7/d3c/_g_n_u___c_8h.html" target="_top" xlink:title="JSONDefs\\GNU_C.h">
<polygon fill="white" stroke="black" points="0,-58.5 0,-79.5 126,-79.5 126,-58.5 0,-58.5"/>
<text text-anchor="middle" x="63" y="-65.9" font-family="Helvetica,sans-Serif" font-size="12.00">JSONDefs\GNU_C.h</text>
</a>
</g>
</g>
<!-- Node4&#45;&gt;Node7 -->
<g id="edge6" class="edge"><title>Node4&#45;&gt;Node7</title>
<path fill="none" stroke="midnightblue" d="M435.93,-120.534C373.531,-112.217 250.828,-95.8116 136.213,-80.1616"/>
<polygon fill="midnightblue" stroke="midnightblue" points="136.596,-76.6815 126.214,-78.7954 135.648,-83.617 136.596,-76.6815"/>
</g>
<!-- Node8 -->
<g id="node8" class="node"><title>Node8</title>
<g id="a_node8"><a xlink:href="../../d0/d22/_visual___c_8h.html" target="_top" xlink:title="JSONDefs\\Visual_C.h">
<polygon fill="white" stroke="black" points="144.5,-58.5 144.5,-79.5 277.5,-79.5 277.5,-58.5 144.5,-58.5"/>
<text text-anchor="middle" x="211" y="-65.9" font-family="Helvetica,sans-Serif" font-size="12.00">JSONDefs\Visual_C.h</text>
</a>
</g>
</g>
<!-- Node4&#45;&gt;Node8 -->
<g id="edge7" class="edge"><title>Node4&#45;&gt;Node8</title>
<path fill="none" stroke="midnightblue" d="M435.729,-117.311C390.268,-107.741 316.927,-92.3005 266.466,-81.6771"/>
<polygon fill="midnightblue" stroke="midnightblue" points="266.886,-78.1888 256.379,-79.5536 265.444,-85.0387 266.886,-78.1888"/>
</g>
<!-- Node9 -->
<g id="node9" class="node"><title>Node9</title>
<g id="a_node9"><a xlink:href="../../d8/d1d/_strings___defs_8h.html" target="_top" xlink:title="JSONDefs\\Strings_Defs.h">
<polygon fill="white" stroke="black" points="295.5,-58.5 295.5,-79.5 448.5,-79.5 448.5,-58.5 295.5,-58.5"/>
<text text-anchor="middle" x="372" y="-65.9" font-family="Helvetica,sans-Serif" font-size="12.00">JSONDefs\Strings_Defs.h</text>
</a>
</g>
</g>
<!-- Node4&#45;&gt;Node9 -->
<g id="edge8" class="edge"><title>Node4&#45;&gt;Node9</title>
<path fill="none" stroke="midnightblue" d="M458.71,-116.246C442.224,-107.453 417.765,-94.4079 399.023,-84.4125"/>
<polygon fill="midnightblue" stroke="midnightblue" points="400.551,-81.2604 390.08,-79.6427 397.256,-87.4368 400.551,-81.2604"/>
</g>
<!-- Node9&#45;&gt;Node5 -->
<g id="edge9" class="edge"><title>Node9&#45;&gt;Node5</title>
<path fill="none" stroke="midnightblue" d="M390.29,-58.2455C406.776,-49.4527 431.235,-36.4079 449.977,-26.4125"/>
<polygon fill="midnightblue" stroke="midnightblue" points="451.744,-29.4368 458.92,-21.6427 448.449,-23.2604 451.744,-29.4368"/>
</g>
<!-- Node10 -->
<g id="node10" class="node"><title>Node10</title>
<polygon fill="white" stroke="#bfbfbf" points="345,-0.5 345,-21.5 399,-21.5 399,-0.5 345,-0.5"/>
<text text-anchor="middle" x="372" y="-7.9" font-family="Helvetica,sans-Serif" font-size="12.00">string.h</text>
</g>
<!-- Node9&#45;&gt;Node10 -->
<g id="edge10" class="edge"><title>Node9&#45;&gt;Node10</title>
<path fill="none" stroke="midnightblue" d="M372,-58.2455C372,-50.9382 372,-40.6944 372,-31.7046"/>
<polygon fill="midnightblue" stroke="midnightblue" points="375.5,-31.6426 372,-21.6427 368.5,-31.6427 375.5,-31.6426"/>
</g>
<!-- Node11&#45;&gt;Node3 -->
<g id="edge12" class="edge"><title>Node11&#45;&gt;Node3</title>
<path fill="none" stroke="midnightblue" d="M728.766,-348.4C743.46,-340.857 761.384,-328.803 770,-312 787.668,-277.542 774.001,-230.998 763.7,-205.212"/>
<polygon fill="midnightblue" stroke="midnightblue" points="766.847,-203.666 759.725,-195.822 760.4,-206.395 766.847,-203.666"/>
</g>
<!-- Node12 -->
<g id="node12" class="node"><title>Node12</title>
<g id="a_node12"><a xlink:href="../../d5/d5d/_j_s_o_n_children_8h.html" target="_top" xlink:title="JSONChildren.h">
<polygon fill="white" stroke="black" points="660.5,-290.5 660.5,-311.5 761.5,-311.5 761.5,-290.5 660.5,-290.5"/>
<text text-anchor="middle" x="711" y="-297.9" font-family="Helvetica,sans-Serif" font-size="12.00">JSONChildren.h</text>
</a>
</g>
</g>
<!-- Node11&#45;&gt;Node12 -->
<g id="edge13" class="edge"><title>Node11&#45;&gt;Node12</title>
<path fill="none" stroke="midnightblue" d="M706.871,-348.246C707.523,-340.938 708.438,-330.694 709.241,-321.705"/>
<polygon fill="midnightblue" stroke="midnightblue" points="712.736,-321.914 710.139,-311.643 705.764,-321.292 712.736,-321.914"/>
</g>
<!-- Node13 -->
<g id="node13" class="node"><title>Node13</title>
<g id="a_node13"><a xlink:href="../../de/dda/_j_s_o_n_memory_8h.html" target="_top" xlink:title="JSONMemory.h">
<polygon fill="white" stroke="black" points="582.5,-232.5 582.5,-253.5 681.5,-253.5 681.5,-232.5 582.5,-232.5"/>
<text text-anchor="middle" x="632" y="-239.9" font-family="Helvetica,sans-Serif" font-size="12.00">JSONMemory.h</text>
</a>
</g>
</g>
<!-- Node11&#45;&gt;Node13 -->
<g id="edge20" class="edge"><title>Node11&#45;&gt;Node13</title>
<path fill="none" stroke="midnightblue" d="M689.977,-348.444C677.588,-340.258 660.926,-327.372 651,-312 641.556,-297.374 636.743,-278.046 634.329,-263.736"/>
<polygon fill="midnightblue" stroke="midnightblue" points="637.748,-262.923 632.865,-253.52 630.819,-263.916 637.748,-262.923"/>
</g>
<!-- Node11&#45;&gt;Node16 -->
<g id="edge21" class="edge"><title>Node11&#45;&gt;Node16</title>
<path fill="none" stroke="midnightblue" d="M688.624,-348.477C652.147,-328.485 567.412,-282.043 524.264,-258.395"/>
<polygon fill="midnightblue" stroke="midnightblue" points="525.925,-255.314 515.473,-253.577 522.56,-261.452 525.925,-255.314"/>
</g>
<!-- Node18 -->
<g id="node18" class="node"><title>Node18</title>
<g id="a_node18"><a xlink:href="../../df/de5/_j_s_o_n_shared_string_8h.html" target="_top" xlink:title="JSONSharedString.h">
<polygon fill="white" stroke="black" points="440,-290.5 440,-311.5 566,-311.5 566,-290.5 440,-290.5"/>
<text text-anchor="middle" x="503" y="-297.9" font-family="Helvetica,sans-Serif" font-size="12.00">JSONSharedString.h</text>
</a>
</g>
</g>
<!-- Node11&#45;&gt;Node18 -->
<g id="edge24" class="edge"><title>Node11&#45;&gt;Node18</title>
<path fill="none" stroke="midnightblue" d="M671.103,-348.373C636.909,-338.94 584.659,-324.526 547.496,-314.275"/>
<polygon fill="midnightblue" stroke="midnightblue" points="548.012,-310.787 537.442,-311.501 546.151,-317.534 548.012,-310.787"/>
</g>
<!-- Node12&#45;&gt;Node3 -->
<g id="edge19" class="edge"><title>Node12&#45;&gt;Node3</title>
<path fill="none" stroke="midnightblue" d="M714.751,-290.28C722.025,-271.435 738.163,-229.624 747.646,-205.053"/>
<polygon fill="midnightblue" stroke="midnightblue" points="750.922,-206.284 751.258,-195.695 744.392,-203.764 750.922,-206.284"/>
</g>
<!-- Node12&#45;&gt;Node13 -->
<g id="edge14" class="edge"><title>Node12&#45;&gt;Node13</title>
<path fill="none" stroke="midnightblue" d="M697.239,-290.246C685.345,-281.814 667.935,-269.473 654.091,-259.66"/>
<polygon fill="midnightblue" stroke="midnightblue" points="655.785,-256.57 645.603,-253.643 651.737,-262.281 655.785,-256.57"/>
</g>
<!-- Node13&#45;&gt;Node3 -->
<g id="edge18" class="edge"><title>Node13&#45;&gt;Node3</title>
<path fill="none" stroke="midnightblue" d="M653.144,-232.373C672.889,-223.384 702.57,-209.871 724.805,-199.747"/>
<polygon fill="midnightblue" stroke="midnightblue" points="726.481,-202.83 734.131,-195.501 723.58,-196.459 726.481,-202.83"/>
</g>
<!-- Node13&#45;&gt;Node5 -->
<g id="edge17" class="edge"><title>Node13&#45;&gt;Node5</title>
<path fill="none" stroke="midnightblue" d="M640.468,-232.21C647.492,-223.404 656.958,-209.769 661,-196 678.278,-137.149 699.777,-106.321 662,-58 647.013,-38.8306 588.209,-26.5063 540.867,-19.4879"/>
<polygon fill="midnightblue" stroke="midnightblue" points="541.354,-16.022 530.959,-18.0703 540.363,-22.9514 541.354,-16.022"/>
</g>
<!-- Node14 -->
<g id="node14" class="node"><title>Node14</title>
<polygon fill="white" stroke="#bfbfbf" points="533,-174.5 533,-195.5 583,-195.5 583,-174.5 533,-174.5"/>
<text text-anchor="middle" x="558" y="-181.9" font-family="Helvetica,sans-Serif" font-size="12.00">cstdlib</text>
</g>
<!-- Node13&#45;&gt;Node14 -->
<g id="edge15" class="edge"><title>Node13&#45;&gt;Node14</title>
<path fill="none" stroke="midnightblue" d="M619.11,-232.246C608.075,-223.894 591.971,-211.708 579.065,-201.941"/>
<polygon fill="midnightblue" stroke="midnightblue" points="580.828,-198.886 570.742,-195.643 576.604,-204.468 580.828,-198.886"/>
</g>
<!-- Node15 -->
<g id="node15" class="node"><title>Node15</title>
<polygon fill="white" stroke="#bfbfbf" points="601.5,-174.5 601.5,-195.5 652.5,-195.5 652.5,-174.5 601.5,-174.5"/>
<text text-anchor="middle" x="627" y="-181.9" font-family="Helvetica,sans-Serif" font-size="12.00">cstring</text>
</g>
<!-- Node13&#45;&gt;Node15 -->
<g id="edge16" class="edge"><title>Node13&#45;&gt;Node15</title>
<path fill="none" stroke="midnightblue" d="M631.129,-232.246C630.477,-224.938 629.562,-214.694 628.759,-205.705"/>
<polygon fill="midnightblue" stroke="midnightblue" points="632.236,-205.292 627.861,-195.643 625.264,-205.914 632.236,-205.292"/>
</g>
<!-- Node16&#45;&gt;Node4 -->
<g id="edge22" class="edge"><title>Node16&#45;&gt;Node4</title>
<path fill="none" stroke="midnightblue" d="M496.21,-232.28C492.769,-213.603 485.173,-172.369 480.632,-147.715"/>
<polygon fill="midnightblue" stroke="midnightblue" points="484.04,-146.895 478.786,-137.695 477.156,-148.164 484.04,-146.895"/>
</g>
<!-- Node17 -->
<g id="node17" class="node"><title>Node17</title>
<polygon fill="white" stroke="#bfbfbf" points="392.5,-174.5 392.5,-195.5 437.5,-195.5 437.5,-174.5 392.5,-174.5"/>
<text text-anchor="middle" x="415" y="-181.9" font-family="Helvetica,sans-Serif" font-size="12.00">string</text>
</g>
<!-- Node16&#45;&gt;Node17 -->
<g id="edge23" class="edge"><title>Node16&#45;&gt;Node17</title>
<path fill="none" stroke="midnightblue" d="M483.543,-232.246C470.927,-223.734 452.406,-211.237 437.795,-201.38"/>
<polygon fill="midnightblue" stroke="midnightblue" points="439.539,-198.334 429.292,-195.643 435.624,-204.137 439.539,-198.334"/>
</g>
<!-- Node18&#45;&gt;Node3 -->
<g id="edge25" class="edge"><title>Node18&#45;&gt;Node3</title>
<path fill="none" stroke="midnightblue" d="M566.099,-293.498C604.013,-287.467 652.092,-275.936 690,-254 711.742,-241.419 730.822,-219.408 742.591,-203.841"/>
<polygon fill="midnightblue" stroke="midnightblue" points="745.579,-205.683 748.639,-195.54 739.922,-201.56 745.579,-205.683"/>
</g>
<!-- Node18&#45;&gt;Node16 -->
<g id="edge26" class="edge"><title>Node18&#45;&gt;Node16</title>
<path fill="none" stroke="midnightblue" d="M502.129,-290.246C501.477,-282.938 500.562,-272.694 499.759,-263.705"/>
<polygon fill="midnightblue" stroke="midnightblue" points="503.236,-263.292 498.861,-253.643 496.264,-263.914 503.236,-263.292"/>
</g>
<!-- Node21&#45;&gt;Node3 -->
<g id="edge30" class="edge"><title>Node21&#45;&gt;Node3</title>
<path fill="none" stroke="midnightblue" d="M431.563,-233.323C434.416,-232.871 437.243,-232.427 440,-232 530.408,-217.989 635.604,-202.864 698.662,-193.924"/>
<polygon fill="midnightblue" stroke="midnightblue" points="699.381,-197.358 708.792,-192.49 698.4,-190.427 699.381,-197.358"/>
</g>
<!-- Node21&#45;&gt;Node17 -->
<g id="edge31" class="edge"><title>Node21&#45;&gt;Node17</title>
<path fill="none" stroke="midnightblue" d="M385.271,-232.246C390.226,-224.537 397.283,-213.56 403.278,-204.235"/>
<polygon fill="midnightblue" stroke="midnightblue" points="406.338,-205.947 408.801,-195.643 400.449,-202.162 406.338,-205.947"/>
</g>
<!-- Node22&#45;&gt;Node2 -->
<g id="edge33" class="edge"><title>Node22&#45;&gt;Node2</title>
<path fill="none" stroke="midnightblue" d="M501.238,-464.246C512.681,-455.814 529.43,-443.473 542.747,-433.66"/>
<polygon fill="midnightblue" stroke="midnightblue" points="544.939,-436.392 550.914,-427.643 540.787,-430.757 544.939,-436.392"/>
</g>
<!-- Node22&#45;&gt;Node18 -->
<g id="edge34" class="edge"><title>Node22&#45;&gt;Node18</title>
<path fill="none" stroke="midnightblue" d="M484.596,-464.309C477.594,-442.901 463.184,-390.137 475,-348 477.788,-338.058 483.381,-328.134 488.841,-320.061"/>
<polygon fill="midnightblue" stroke="midnightblue" points="491.768,-321.987 494.791,-311.832 486.095,-317.885 491.768,-321.987"/>
</g>
</g>
</svg>
