<?xml version="1.0" encoding="UTF-8" standalone="no"?>
<!DOCTYPE svg PUBLIC "-//W3C//DTD SVG 1.1//EN"
 "http://www.w3.org/Graphics/SVG/1.1/DTD/svg11.dtd">
<!-- Generated by graphviz version 2.34.0 (20130907.0111)
 -->
<!-- Title: Documentation/Operator&#45;Console/ImageAcquisition.h Pages: 1 -->
<svg width="1580pt" height="260pt"
 viewBox="0.00 0.00 1580.00 260.00" xmlns="http://www.w3.org/2000/svg" xmlns:xlink="http://www.w3.org/1999/xlink">
<g id="graph0" class="graph" transform="scale(1 1) rotate(0) translate(4 256)">
<title>Documentation/Operator&#45;Console/ImageAcquisition.h</title>
<polygon fill="white" stroke="white" points="-4,4 -4,-256 1576,-256 1576,4 -4,4"/>
<!-- Node1 -->
<g id="node1" class="node"><title>Node1</title>
<polygon fill="#bfbfbf" stroke="black" points="789,-217 789,-251 955,-251 955,-217 789,-217"/>
<text text-anchor="start" x="797" y="-237.4" font-family="Helvetica,sans-Serif" font-size="12.00">Documentation/Operator</text>
<text text-anchor="middle" x="872" y="-224.4" font-family="Helvetica,sans-Serif" font-size="12.00">&#45;Console/ImageAcquisition.h</text>
</g>
<!-- Node2 -->
<g id="node2" class="node"><title>Node2</title>
<g id="a_node2"><a xlink:href="../../de/d16/_documentation_2_operator-_console_2_file_acq_8h.html" target="_top" xlink:title="Documentation/Operator\l&#45;Console/FileAcq.h">
<polygon fill="white" stroke="black" points="987.5,-145 987.5,-179 1132.5,-179 1132.5,-145 987.5,-145"/>
<text text-anchor="start" x="995.5" y="-165.4" font-family="Helvetica,sans-Serif" font-size="12.00">Documentation/Operator</text>
<text text-anchor="middle" x="1060" y="-152.4" font-family="Helvetica,sans-Serif" font-size="12.00">&#45;Console/FileAcq.h</text>
</a>
</g>
</g>
<!-- Node1&#45;&gt;Node2 -->
<g id="edge1" class="edge"><title>Node1&#45;&gt;Node2</title>
<path fill="none" stroke="midnightblue" d="M924.707,-213.375C953.748,-202.562 989.351,-189.305 1016.74,-179.106"/>
<polygon fill="midnightblue" stroke="midnightblue" points="923.281,-210.171 915.131,-216.941 925.724,-216.731 923.281,-210.171"/>
</g>
<!-- Node3 -->
<g id="node3" class="node"><title>Node3</title>
<g id="a_node3"><a xlink:href="../../da/d65/_documentation_2_operator-_console_2_operator_console_8h.html" target="_top" xlink:title="Documentation/Operator\l&#45;Console/OperatorConsole.h">
<polygon fill="white" stroke="black" points="664,-73 664,-107 830,-107 830,-73 664,-73"/>
<text text-anchor="start" x="672" y="-93.4" font-family="Helvetica,sans-Serif" font-size="12.00">Documentation/Operator</text>
<text text-anchor="middle" x="747" y="-80.4" font-family="Helvetica,sans-Serif" font-size="12.00">&#45;Console/OperatorConsole.h</text>
</a>
</g>
</g>
<!-- Node1&#45;&gt;Node3 -->
<g id="edge16" class="edge"><title>Node1&#45;&gt;Node3</title>
<path fill="none" stroke="midnightblue" d="M808.466,-212.578C792.535,-204.692 776.897,-194.077 766,-180 749.559,-158.761 746.575,-126.483 746.426,-107.193"/>
<polygon fill="midnightblue" stroke="midnightblue" points="807.3,-215.895 817.846,-216.912 810.236,-209.54 807.3,-215.895"/>
</g>
<!-- Node14 -->
<g id="node14" class="node"><title>Node14</title>
<g id="a_node14"><a xlink:href="../../d8/db2/_documentation_2_operator-_console_2_file_acquisition_8h.html" target="_top" xlink:title="Documentation/Operator\l&#45;Console/FileAcquisition.h">
<polygon fill="white" stroke="black" points="396.5,-145 396.5,-179 549.5,-179 549.5,-145 396.5,-145"/>
<text text-anchor="start" x="404.5" y="-165.4" font-family="Helvetica,sans-Serif" font-size="12.00">Documentation/Operator</text>
<text text-anchor="middle" x="473" y="-152.4" font-family="Helvetica,sans-Serif" font-size="12.00">&#45;Console/FileAcquisition.h</text>
</a>
</g>
</g>
<!-- Node1&#45;&gt;Node14 -->
<g id="edge13" class="edge"><title>Node1&#45;&gt;Node14</title>
<path fill="none" stroke="midnightblue" d="M778.674,-218.005C716.149,-207.772 632.034,-193.648 558,-180 555.336,-179.509 552.626,-179.003 549.891,-178.486"/>
<polygon fill="midnightblue" stroke="midnightblue" points="778.477,-221.519 788.91,-219.677 779.605,-214.61 778.477,-221.519"/>
</g>
<!-- Node16 -->
<g id="node16" class="node"><title>Node16</title>
<g id="a_node16"><a xlink:href="../../d6/d5e/_documentation_2_operator-_console_2_imatest_lib_acq_8h.html" target="_top" xlink:title="Documentation/Operator\l&#45;Console/ImatestLibAcq.h">
<polygon fill="white" stroke="black" points="567.5,-145 567.5,-179 718.5,-179 718.5,-145 567.5,-145"/>
<text text-anchor="start" x="575.5" y="-165.4" font-family="Helvetica,sans-Serif" font-size="12.00">Documentation/Operator</text>
<text text-anchor="middle" x="643" y="-152.4" font-family="Helvetica,sans-Serif" font-size="12.00">&#45;Console/ImatestLibAcq.h</text>
</a>
</g>
</g>
<!-- Node1&#45;&gt;Node16 -->
<g id="edge17" class="edge"><title>Node1&#45;&gt;Node16</title>
<path fill="none" stroke="midnightblue" d="M809.637,-213.937C773.936,-203.024 729.636,-189.483 695.689,-179.106"/>
<polygon fill="midnightblue" stroke="midnightblue" points="808.876,-217.364 819.463,-216.941 810.923,-210.67 808.876,-217.364"/>
</g>
<!-- Node18 -->
<g id="node18" class="node"><title>Node18</title>
<g id="a_node18"><a xlink:href="../../da/d62/_documentation_2_operator-_console_2_simple_direct_show_acq_8h.html" target="_top" xlink:title="Documentation/Operator\l&#45;Console/SimpleDirectShowAcq.h">
<polygon fill="white" stroke="black" points="775,-145 775,-179 969,-179 969,-145 775,-145"/>
<text text-anchor="start" x="783" y="-165.4" font-family="Helvetica,sans-Serif" font-size="12.00">Documentation/Operator</text>
<text text-anchor="middle" x="872" y="-152.4" font-family="Helvetica,sans-Serif" font-size="12.00">&#45;Console/SimpleDirectShowAcq.h</text>
</a>
</g>
</g>
<!-- Node1&#45;&gt;Node18 -->
<g id="edge20" class="edge"><title>Node1&#45;&gt;Node18</title>
<path fill="none" stroke="midnightblue" d="M872,-206.508C872,-197.303 872,-187.262 872,-179.147"/>
<polygon fill="midnightblue" stroke="midnightblue" points="868.5,-206.765 872,-216.765 875.5,-206.765 868.5,-206.765"/>
</g>
<!-- Node20 -->
<g id="node20" class="node"><title>Node20</title>
<g id="a_node20"><a xlink:href="../../d9/dd4/_documentation_2_operator-_console_2_image_acquisition_8cpp.html" target="_top" xlink:title="Documentation/Operator\l&#45;Console/ImageAcquisition.cpp">
<polygon fill="white" stroke="black" points="1150.5,-145 1150.5,-179 1329.5,-179 1329.5,-145 1150.5,-145"/>
<text text-anchor="start" x="1158.5" y="-165.4" font-family="Helvetica,sans-Serif" font-size="12.00">Documentation/Operator</text>
<text text-anchor="middle" x="1240" y="-152.4" font-family="Helvetica,sans-Serif" font-size="12.00">&#45;Console/ImageAcquisition.cpp</text>
</a>
</g>
</g>
<!-- Node1&#45;&gt;Node20 -->
<g id="edge23" class="edge"><title>Node1&#45;&gt;Node20</title>
<path fill="none" stroke="midnightblue" d="M965.049,-215.3C1023.68,-204.148 1098.77,-189.864 1155.66,-179.042"/>
<polygon fill="midnightblue" stroke="midnightblue" points="964.215,-211.896 955.045,-217.203 965.523,-218.773 964.215,-211.896"/>
</g>
<!-- Node21 -->
<g id="node21" class="node"><title>Node21</title>
<g id="a_node21"><a xlink:href="../../d3/d81/_documentation_2_operator-_console_2_imatest_lib_acquire_image_8h.html" target="_top" xlink:title="Documentation/Operator\l&#45;Console/ImatestLibAcquireImage.h">
<polygon fill="white" stroke="black" points="1347.5,-145 1347.5,-179 1550.5,-179 1550.5,-145 1347.5,-145"/>
<text text-anchor="start" x="1355.5" y="-165.4" font-family="Helvetica,sans-Serif" font-size="12.00">Documentation/Operator</text>
<text text-anchor="middle" x="1449" y="-152.4" font-family="Helvetica,sans-Serif" font-size="12.00">&#45;Console/ImatestLibAcquireImage.h</text>
</a>
</g>
</g>
<!-- Node1&#45;&gt;Node21 -->
<g id="edge24" class="edge"><title>Node1&#45;&gt;Node21</title>
<path fill="none" stroke="midnightblue" d="M965.103,-223.483C1059.26,-213.607 1208.93,-197.217 1338,-180 1341.09,-179.588 1344.23,-179.16 1347.4,-178.722"/>
<polygon fill="midnightblue" stroke="midnightblue" points="964.616,-220.015 955.035,-224.537 965.345,-226.977 964.616,-220.015"/>
</g>
<!-- Node2&#45;&gt;Node3 -->
<g id="edge2" class="edge"><title>Node2&#45;&gt;Node3</title>
<path fill="none" stroke="midnightblue" d="M978.164,-142.698C928.71,-131.638 866.263,-117.672 818.745,-107.045"/>
<polygon fill="midnightblue" stroke="midnightblue" points="977.669,-146.174 988.191,-144.941 979.196,-139.342 977.669,-146.174"/>
</g>
<!-- Node13 -->
<g id="node13" class="node"><title>Node13</title>
<g id="a_node13"><a xlink:href="../../de/d23/_documentation_2_operator-_console_2_file_acq_8cpp.html" target="_top" xlink:title="Documentation/Operator\l&#45;Console/FileAcq.cpp">
<polygon fill="white" stroke="black" points="1074.5,-73 1074.5,-107 1219.5,-107 1219.5,-73 1074.5,-73"/>
<text text-anchor="start" x="1082.5" y="-93.4" font-family="Helvetica,sans-Serif" font-size="12.00">Documentation/Operator</text>
<text text-anchor="middle" x="1147" y="-80.4" font-family="Helvetica,sans-Serif" font-size="12.00">&#45;Console/FileAcq.cpp</text>
</a>
</g>
</g>
<!-- Node2&#45;&gt;Node13 -->
<g id="edge12" class="edge"><title>Node2&#45;&gt;Node13</title>
<path fill="none" stroke="midnightblue" d="M1088.15,-138.352C1100.79,-128.179 1115.42,-116.408 1126.93,-107.147"/>
<polygon fill="midnightblue" stroke="midnightblue" points="1085.78,-135.769 1080.18,-144.765 1090.16,-141.223 1085.78,-135.769"/>
</g>
<!-- Node4 -->
<g id="node4" class="node"><title>Node4</title>
<g id="a_node4"><a xlink:href="../../d7/d4b/_documentation_2_operator-_console_2_app_thread_8cpp.html" target="_top" xlink:title="Documentation/Operator\l&#45;Console/AppThread.cpp">
<polygon fill="white" stroke="black" points="0,-1 0,-35 148,-35 148,-1 0,-1"/>
<text text-anchor="start" x="8" y="-21.4" font-family="Helvetica,sans-Serif" font-size="12.00">Documentation/Operator</text>
<text text-anchor="middle" x="74" y="-8.4" font-family="Helvetica,sans-Serif" font-size="12.00">&#45;Console/AppThread.cpp</text>
</a>
</g>
</g>
<!-- Node3&#45;&gt;Node4 -->
<g id="edge3" class="edge"><title>Node3&#45;&gt;Node4</title>
<path fill="none" stroke="midnightblue" d="M653.869,-71.9446C433.153,-44.4444 373.609,-65.8833 157,-36 154.086,-35.598 151.12,-35.155 148.13,-34.6799"/>
<polygon fill="midnightblue" stroke="midnightblue" points="653.46,-75.4207 663.82,-73.2038 654.339,-68.4761 653.46,-75.4207"/>
</g>
<!-- Node5 -->
<g id="node5" class="node"><title>Node5</title>
<g id="a_node5"><a xlink:href="../../de/d31/_documentation_2_operator-_console_2_critical_buf_8cpp.html" target="_top" xlink:title="Documentation/Operator\l&#45;Console/CriticalBuf.cpp">
<polygon fill="white" stroke="black" points="166.5,-1 166.5,-35 311.5,-35 311.5,-1 166.5,-1"/>
<text text-anchor="start" x="174.5" y="-21.4" font-family="Helvetica,sans-Serif" font-size="12.00">Documentation/Operator</text>
<text text-anchor="middle" x="239" y="-8.4" font-family="Helvetica,sans-Serif" font-size="12.00">&#45;Console/CriticalBuf.cpp</text>
</a>
</g>
</g>
<!-- Node3&#45;&gt;Node5 -->
<g id="edge4" class="edge"><title>Node3&#45;&gt;Node5</title>
<path fill="none" stroke="midnightblue" d="M653.845,-71.899C505.1,-50.7526 464.728,-58.9053 320,-36 317.303,-35.5732 314.561,-35.1162 311.794,-34.6357"/>
<polygon fill="midnightblue" stroke="midnightblue" points="653.405,-75.3716 663.802,-73.3349 654.404,-68.4432 653.405,-75.3716"/>
</g>
<!-- Node6 -->
<g id="node6" class="node"><title>Node6</title>
<g id="a_node6"><a xlink:href="../../da/df9/_documentation_2_operator-_console_2_image_test_8cpp.html" target="_top" xlink:title="Documentation/Operator\l&#45;Console/ImageTest.cpp">
<polygon fill="white" stroke="black" points="329.5,-1 329.5,-35 474.5,-35 474.5,-1 329.5,-1"/>
<text text-anchor="start" x="337.5" y="-21.4" font-family="Helvetica,sans-Serif" font-size="12.00">Documentation/Operator</text>
<text text-anchor="middle" x="402" y="-8.4" font-family="Helvetica,sans-Serif" font-size="12.00">&#45;Console/ImageTest.cpp</text>
</a>
</g>
</g>
<!-- Node3&#45;&gt;Node6 -->
<g id="edge5" class="edge"><title>Node3&#45;&gt;Node6</title>
<path fill="none" stroke="midnightblue" d="M657.014,-70.9947C606.205,-60.796 541.542,-47.7625 484,-36 481.009,-35.3885 477.956,-34.763 474.873,-34.1298"/>
<polygon fill="midnightblue" stroke="midnightblue" points="656.492,-74.4595 666.985,-72.9954 657.869,-67.5963 656.492,-74.4595"/>
</g>
<!-- Node7 -->
<g id="node7" class="node"><title>Node7</title>
<g id="a_node7"><a xlink:href="../../d4/d9c/_msg_dialog_8cpp.html" target="_top" xlink:title="Documentation/Operator\l&#45;Console/MsgDialog.cpp">
<polygon fill="white" stroke="black" points="493,-1 493,-35 639,-35 639,-1 493,-1"/>
<text text-anchor="start" x="501" y="-21.4" font-family="Helvetica,sans-Serif" font-size="12.00">Documentation/Operator</text>
<text text-anchor="middle" x="566" y="-8.4" font-family="Helvetica,sans-Serif" font-size="12.00">&#45;Console/MsgDialog.cpp</text>
</a>
</g>
</g>
<!-- Node3&#45;&gt;Node7 -->
<g id="edge6" class="edge"><title>Node3&#45;&gt;Node7</title>
<path fill="none" stroke="midnightblue" d="M695.891,-69.234C667.998,-58.4468 633.903,-45.261 607.645,-35.1057"/>
<polygon fill="midnightblue" stroke="midnightblue" points="694.886,-72.5979 705.475,-72.9406 697.411,-66.0691 694.886,-72.5979"/>
</g>
<!-- Node8 -->
<g id="node8" class="node"><title>Node8</title>
<g id="a_node8"><a xlink:href="../../db/db5/_documentation_2_operator-_console_2_operator_console_8cpp.html" target="_top" xlink:title="Documentation/Operator\l&#45;Console/OperatorConsole.cpp">
<polygon fill="white" stroke="black" points="657.5,-1 657.5,-35 836.5,-35 836.5,-1 657.5,-1"/>
<text text-anchor="start" x="665.5" y="-21.4" font-family="Helvetica,sans-Serif" font-size="12.00">Documentation/Operator</text>
<text text-anchor="middle" x="747" y="-8.4" font-family="Helvetica,sans-Serif" font-size="12.00">&#45;Console/OperatorConsole.cpp</text>
</a>
</g>
</g>
<!-- Node3&#45;&gt;Node8 -->
<g id="edge7" class="edge"><title>Node3&#45;&gt;Node8</title>
<path fill="none" stroke="midnightblue" d="M747,-62.5079C747,-53.3027 747,-43.2615 747,-35.1473"/>
<polygon fill="midnightblue" stroke="midnightblue" points="743.5,-62.7646 747,-72.7646 750.5,-62.7647 743.5,-62.7646"/>
</g>
<!-- Node9 -->
<g id="node9" class="node"><title>Node9</title>
<g id="a_node9"><a xlink:href="../../dd/dcb/_documentation_2_operator-_console_2_operator_console_dlg_8cpp.html" target="_top" xlink:title="Documentation/Operator\l&#45;Console/OperatorConsoleDlg.cpp">
<polygon fill="white" stroke="black" points="854.5,-1 854.5,-35 1051.5,-35 1051.5,-1 854.5,-1"/>
<text text-anchor="start" x="862.5" y="-21.4" font-family="Helvetica,sans-Serif" font-size="12.00">Documentation/Operator</text>
<text text-anchor="middle" x="953" y="-8.4" font-family="Helvetica,sans-Serif" font-size="12.00">&#45;Console/OperatorConsoleDlg.cpp</text>
</a>
</g>
</g>
<!-- Node3&#45;&gt;Node9 -->
<g id="edge8" class="edge"><title>Node3&#45;&gt;Node9</title>
<path fill="none" stroke="midnightblue" d="M803.925,-69.6567C835.895,-58.7928 875.326,-45.3941 905.603,-35.1057"/>
<polygon fill="midnightblue" stroke="midnightblue" points="802.603,-66.4092 794.261,-72.9406 804.855,-73.037 802.603,-66.4092"/>
</g>
<!-- Node10 -->
<g id="node10" class="node"><title>Node10</title>
<g id="a_node10"><a xlink:href="../../dd/d14/_documentation_2_operator-_console_2_pass_fail_8cpp.html" target="_top" xlink:title="Documentation/Operator\l&#45;Console/PassFail.cpp">
<polygon fill="white" stroke="black" points="1069.5,-1 1069.5,-35 1214.5,-35 1214.5,-1 1069.5,-1"/>
<text text-anchor="start" x="1077.5" y="-21.4" font-family="Helvetica,sans-Serif" font-size="12.00">Documentation/Operator</text>
<text text-anchor="middle" x="1142" y="-8.4" font-family="Helvetica,sans-Serif" font-size="12.00">&#45;Console/PassFail.cpp</text>
</a>
</g>
</g>
<!-- Node3&#45;&gt;Node10 -->
<g id="edge9" class="edge"><title>Node3&#45;&gt;Node10</title>
<path fill="none" stroke="midnightblue" d="M840.308,-71.7962C938.74,-54.8847 965.298,-53.5217 1060,-36 1063,-35.4445 1066.06,-34.8658 1069.15,-34.2714"/>
<polygon fill="midnightblue" stroke="midnightblue" points="839.488,-68.386 830.23,-73.5386 840.681,-75.2837 839.488,-68.386"/>
</g>
<!-- Node11 -->
<g id="node11" class="node"><title>Node11</title>
<g id="a_node11"><a xlink:href="../../dd/d4b/_documentation_2_operator-_console_2_password_dialog_8cpp.html" target="_top" xlink:title="Documentation/Operator\l&#45;Console/PasswordDialog.cpp">
<polygon fill="white" stroke="black" points="1233,-1 1233,-35 1409,-35 1409,-1 1233,-1"/>
<text text-anchor="start" x="1241" y="-21.4" font-family="Helvetica,sans-Serif" font-size="12.00">Documentation/Operator</text>
<text text-anchor="middle" x="1321" y="-8.4" font-family="Helvetica,sans-Serif" font-size="12.00">&#45;Console/PasswordDialog.cpp</text>
</a>
</g>
</g>
<!-- Node3&#45;&gt;Node11 -->
<g id="edge10" class="edge"><title>Node3&#45;&gt;Node11</title>
<path fill="none" stroke="midnightblue" d="M840.249,-71.9003C1010.52,-48.7818 1056.33,-58.2346 1223,-36 1226.25,-35.5662 1229.56,-35.1031 1232.9,-34.6175"/>
<polygon fill="midnightblue" stroke="midnightblue" points="839.62,-68.4537 830.191,-73.2839 840.574,-75.3884 839.62,-68.4537"/>
</g>
<!-- Node12 -->
<g id="node12" class="node"><title>Node12</title>
<g id="a_node12"><a xlink:href="../../d3/d68/_documentation_2_operator-_console_2_setup_8cpp.html" target="_top" xlink:title="Documentation/Operator\l&#45;Console/Setup.cpp">
<polygon fill="white" stroke="black" points="1427.5,-1 1427.5,-35 1572.5,-35 1572.5,-1 1427.5,-1"/>
<text text-anchor="start" x="1435.5" y="-21.4" font-family="Helvetica,sans-Serif" font-size="12.00">Documentation/Operator</text>
<text text-anchor="middle" x="1500" y="-8.4" font-family="Helvetica,sans-Serif" font-size="12.00">&#45;Console/Setup.cpp</text>
</a>
</g>
</g>
<!-- Node3&#45;&gt;Node12 -->
<g id="edge11" class="edge"><title>Node3&#45;&gt;Node12</title>
<path fill="none" stroke="midnightblue" d="M840.163,-71.9525C1096.65,-41.2628 1165.7,-69.8216 1418,-36 1421.03,-35.5943 1424.11,-35.1408 1427.21,-34.6501"/>
<polygon fill="midnightblue" stroke="midnightblue" points="839.68,-68.4853 830.175,-73.166 840.524,-75.4342 839.68,-68.4853"/>
</g>
<!-- Node14&#45;&gt;Node3 -->
<g id="edge14" class="edge"><title>Node14&#45;&gt;Node3</title>
<path fill="none" stroke="midnightblue" d="M545.708,-142.425C588.746,-131.43 642.731,-117.638 683.958,-107.106"/>
<polygon fill="midnightblue" stroke="midnightblue" points="544.684,-139.074 535.861,-144.941 546.416,-145.856 544.684,-139.074"/>
</g>
<!-- Node15 -->
<g id="node15" class="node"><title>Node15</title>
<g id="a_node15"><a xlink:href="../../d5/d22/_documentation_2_operator-_console_2_file_acquisition_8cpp.html" target="_top" xlink:title="Documentation/Operator\l&#45;Console/FileAcquisition.cpp">
<polygon fill="white" stroke="black" points="296.5,-73 296.5,-107 463.5,-107 463.5,-73 296.5,-73"/>
<text text-anchor="start" x="304.5" y="-93.4" font-family="Helvetica,sans-Serif" font-size="12.00">Documentation/Operator</text>
<text text-anchor="middle" x="380" y="-80.4" font-family="Helvetica,sans-Serif" font-size="12.00">&#45;Console/FileAcquisition.cpp</text>
</a>
</g>
</g>
<!-- Node14&#45;&gt;Node15 -->
<g id="edge15" class="edge"><title>Node14&#45;&gt;Node15</title>
<path fill="none" stroke="midnightblue" d="M443.297,-138.643C429.693,-128.403 413.874,-116.496 401.453,-107.147"/>
<polygon fill="midnightblue" stroke="midnightblue" points="441.336,-141.547 451.43,-144.765 445.545,-135.954 441.336,-141.547"/>
</g>
<!-- Node16&#45;&gt;Node3 -->
<g id="edge18" class="edge"><title>Node16&#45;&gt;Node3</title>
<path fill="none" stroke="midnightblue" d="M675.527,-139.107C690.85,-128.793 708.809,-116.706 722.891,-107.227"/>
<polygon fill="midnightblue" stroke="midnightblue" points="673.201,-136.453 666.86,-144.941 677.11,-142.26 673.201,-136.453"/>
</g>
<!-- Node17 -->
<g id="node17" class="node"><title>Node17</title>
<g id="a_node17"><a xlink:href="../../dc/db7/_documentation_2_operator-_console_2_imatest_lib_acq_8cpp.html" target="_top" xlink:title="Documentation/Operator\l&#45;Console/ImatestLibAcq.cpp">
<polygon fill="white" stroke="black" points="482,-73 482,-107 646,-107 646,-73 482,-73"/>
<text text-anchor="start" x="490" y="-93.4" font-family="Helvetica,sans-Serif" font-size="12.00">Documentation/Operator</text>
<text text-anchor="middle" x="564" y="-80.4" font-family="Helvetica,sans-Serif" font-size="12.00">&#45;Console/ImatestLibAcq.cpp</text>
</a>
</g>
</g>
<!-- Node16&#45;&gt;Node17 -->
<g id="edge19" class="edge"><title>Node16&#45;&gt;Node17</title>
<path fill="none" stroke="midnightblue" d="M617.112,-138.061C605.706,-127.955 592.575,-116.32 582.223,-107.147"/>
<polygon fill="midnightblue" stroke="midnightblue" points="614.872,-140.752 624.677,-144.765 619.514,-135.513 614.872,-140.752"/>
</g>
<!-- Node18&#45;&gt;Node3 -->
<g id="edge21" class="edge"><title>Node18&#45;&gt;Node3</title>
<path fill="none" stroke="midnightblue" d="M834.446,-139.97C815.702,-129.473 793.378,-116.972 775.977,-107.227"/>
<polygon fill="midnightblue" stroke="midnightblue" points="832.887,-143.108 843.322,-144.941 836.308,-137.001 832.887,-143.108"/>
</g>
<!-- Node19 -->
<g id="node19" class="node"><title>Node19</title>
<g id="a_node19"><a xlink:href="../../d2/d07/_documentation_2_operator-_console_2_simple_direct_show_acq_8cpp.html" target="_top" xlink:title="Documentation/Operator\l&#45;Console/SimpleDirectShowAcq.cpp">
<polygon fill="white" stroke="black" points="848,-73 848,-107 1056,-107 1056,-73 848,-73"/>
<text text-anchor="start" x="856" y="-93.4" font-family="Helvetica,sans-Serif" font-size="12.00">Documentation/Operator</text>
<text text-anchor="middle" x="952" y="-80.4" font-family="Helvetica,sans-Serif" font-size="12.00">&#45;Console/SimpleDirectShowAcq.cpp</text>
</a>
</g>
</g>
<!-- Node18&#45;&gt;Node19 -->
<g id="edge22" class="edge"><title>Node18&#45;&gt;Node19</title>
<path fill="none" stroke="midnightblue" d="M898.216,-138.061C909.766,-127.955 923.063,-116.32 933.546,-107.147"/>
<polygon fill="midnightblue" stroke="midnightblue" points="895.776,-135.546 890.555,-144.765 900.385,-140.814 895.776,-135.546"/>
</g>
</g>
</svg>
