<?xml version="1.0" encoding="UTF-8" standalone="no"?>
<!DOCTYPE svg PUBLIC "-//W3C//DTD SVG 1.1//EN"
 "http://www.w3.org/Graphics/SVG/1.1/DTD/svg11.dtd">
<!-- Generated by graphviz version 2.34.0 (20130907.0111)
 -->
<!-- Title: Documentation/Operator&#45;Console/Timer.h Pages: 1 -->
<svg width="1580pt" height="332pt"
 viewBox="0.00 0.00 1580.00 332.00" xmlns="http://www.w3.org/2000/svg" xmlns:xlink="http://www.w3.org/1999/xlink">
<g id="graph0" class="graph" transform="scale(1 1) rotate(0) translate(4 328)">
<title>Documentation/Operator&#45;Console/Timer.h</title>
<polygon fill="white" stroke="white" points="-4,4 -4,-328 1576,-328 1576,4 -4,4"/>
<!-- Node1 -->
<g id="node1" class="node"><title>Node1</title>
<polygon fill="#bfbfbf" stroke="black" points="998.5,-289 998.5,-323 1143.5,-323 1143.5,-289 998.5,-289"/>
<text text-anchor="start" x="1006.5" y="-309.4" font-family="Helvetica,sans-Serif" font-size="12.00">Documentation/Operator</text>
<text text-anchor="middle" x="1071" y="-296.4" font-family="Helvetica,sans-Serif" font-size="12.00">&#45;Console/Timer.h</text>
</g>
<!-- Node2 -->
<g id="node2" class="node"><title>Node2</title>
<g id="a_node2"><a xlink:href="../../d5/dd6/_documentation_2_operator-_console_2_image_test_8h.html" target="_top" xlink:title="Documentation/Operator\l&#45;Console/ImageTest.h">
<polygon fill="white" stroke="black" points="917.5,-217 917.5,-251 1062.5,-251 1062.5,-217 917.5,-217"/>
<text text-anchor="start" x="925.5" y="-237.4" font-family="Helvetica,sans-Serif" font-size="12.00">Documentation/Operator</text>
<text text-anchor="middle" x="990" y="-224.4" font-family="Helvetica,sans-Serif" font-size="12.00">&#45;Console/ImageTest.h</text>
</a>
</g>
</g>
<!-- Node1&#45;&gt;Node2 -->
<g id="edge1" class="edge"><title>Node1&#45;&gt;Node2</title>
<path fill="none" stroke="midnightblue" d="M1044.46,-282.061C1032.76,-271.955 1019.3,-260.32 1008.68,-251.147"/>
<polygon fill="midnightblue" stroke="midnightblue" points="1042.36,-284.874 1052.21,-288.765 1046.94,-279.578 1042.36,-284.874"/>
</g>
<!-- Node17 -->
<g id="node17" class="node"><title>Node17</title>
<g id="a_node17"><a xlink:href="../../d1/db9/_documentation_2_operator-_console_2_timer_8cpp.html" target="_top" xlink:title="Documentation/Operator\l&#45;Console/Timer.cpp">
<polygon fill="white" stroke="black" points="1080.5,-217 1080.5,-251 1225.5,-251 1225.5,-217 1080.5,-217"/>
<text text-anchor="start" x="1088.5" y="-237.4" font-family="Helvetica,sans-Serif" font-size="12.00">Documentation/Operator</text>
<text text-anchor="middle" x="1153" y="-224.4" font-family="Helvetica,sans-Serif" font-size="12.00">&#45;Console/Timer.cpp</text>
</a>
</g>
</g>
<!-- Node1&#45;&gt;Node17 -->
<g id="edge19" class="edge"><title>Node1&#45;&gt;Node17</title>
<path fill="none" stroke="midnightblue" d="M1097.87,-282.061C1109.71,-271.955 1123.34,-260.32 1134.08,-251.147"/>
<polygon fill="midnightblue" stroke="midnightblue" points="1095.35,-279.61 1090.02,-288.765 1099.9,-284.934 1095.35,-279.61"/>
</g>
<!-- Node3 -->
<g id="node3" class="node"><title>Node3</title>
<g id="a_node3"><a xlink:href="../../da/df8/_documentation_2_operator-_console_2_blemish_test_8h.html" target="_top" xlink:title="Documentation/Operator\l&#45;Console/BlemishTest.h">
<polygon fill="white" stroke="black" points="766.5,-145 766.5,-179 911.5,-179 911.5,-145 766.5,-145"/>
<text text-anchor="start" x="774.5" y="-165.4" font-family="Helvetica,sans-Serif" font-size="12.00">Documentation/Operator</text>
<text text-anchor="middle" x="839" y="-152.4" font-family="Helvetica,sans-Serif" font-size="12.00">&#45;Console/BlemishTest.h</text>
</a>
</g>
</g>
<!-- Node2&#45;&gt;Node3 -->
<g id="edge2" class="edge"><title>Node2&#45;&gt;Node3</title>
<path fill="none" stroke="midnightblue" d="M946.138,-212.667C923.101,-201.987 895.266,-189.084 873.742,-179.106"/>
<polygon fill="midnightblue" stroke="midnightblue" points="944.813,-215.91 955.358,-216.941 947.757,-209.559 944.813,-215.91"/>
</g>
<!-- Node4 -->
<g id="node4" class="node"><title>Node4</title>
<g id="a_node4"><a xlink:href="../../da/d65/_documentation_2_operator-_console_2_operator_console_8h.html" target="_top" xlink:title="Documentation/Operator\l&#45;Console/OperatorConsole.h">
<polygon fill="white" stroke="black" points="818,-73 818,-107 984,-107 984,-73 818,-73"/>
<text text-anchor="start" x="826" y="-93.4" font-family="Helvetica,sans-Serif" font-size="12.00">Documentation/Operator</text>
<text text-anchor="middle" x="901" y="-80.4" font-family="Helvetica,sans-Serif" font-size="12.00">&#45;Console/OperatorConsole.h</text>
</a>
</g>
</g>
<!-- Node2&#45;&gt;Node4 -->
<g id="edge14" class="edge"><title>Node2&#45;&gt;Node4</title>
<path fill="none" stroke="midnightblue" d="M974.488,-208.251C956.284,-179.206 926.621,-131.879 911.136,-107.173"/>
<polygon fill="midnightblue" stroke="midnightblue" points="971.687,-210.372 979.964,-216.987 977.618,-206.655 971.687,-210.372"/>
</g>
<!-- Node7 -->
<g id="node7" class="node"><title>Node7</title>
<g id="a_node7"><a xlink:href="../../da/df9/_documentation_2_operator-_console_2_image_test_8cpp.html" target="_top" xlink:title="Documentation/Operator\l&#45;Console/ImageTest.cpp">
<polygon fill="white" stroke="black" points="1427.5,-1 1427.5,-35 1572.5,-35 1572.5,-1 1427.5,-1"/>
<text text-anchor="start" x="1435.5" y="-21.4" font-family="Helvetica,sans-Serif" font-size="12.00">Documentation/Operator</text>
<text text-anchor="middle" x="1500" y="-8.4" font-family="Helvetica,sans-Serif" font-size="12.00">&#45;Console/ImageTest.cpp</text>
</a>
</g>
</g>
<!-- Node2&#45;&gt;Node7 -->
<g id="edge18" class="edge"><title>Node2&#45;&gt;Node7</title>
<path fill="none" stroke="midnightblue" d="M1040.06,-213.186C1064.77,-203.331 1095.01,-191.167 1122,-180 1247.56,-128.058 1395.57,-64.2675 1463.09,-35.0248"/>
<polygon fill="midnightblue" stroke="midnightblue" points="1038.52,-210.029 1030.53,-216.98 1041.11,-216.532 1038.52,-210.029"/>
</g>
<!-- Node15 -->
<g id="node15" class="node"><title>Node15</title>
<g id="a_node15"><a xlink:href="../../d5/d79/_documentation_2_operator-_console_2_s_f_rplus_test_8h.html" target="_top" xlink:title="Documentation/Operator\l&#45;Console/SFRplusTest.h">
<polygon fill="white" stroke="black" points="968.5,-145 968.5,-179 1113.5,-179 1113.5,-145 968.5,-145"/>
<text text-anchor="start" x="976.5" y="-165.4" font-family="Helvetica,sans-Serif" font-size="12.00">Documentation/Operator</text>
<text text-anchor="middle" x="1041" y="-152.4" font-family="Helvetica,sans-Serif" font-size="12.00">&#45;Console/SFRplusTest.h</text>
</a>
</g>
</g>
<!-- Node2&#45;&gt;Node15 -->
<g id="edge15" class="edge"><title>Node2&#45;&gt;Node15</title>
<path fill="none" stroke="midnightblue" d="M1007.78,-208.593C1014.89,-198.842 1022.87,-187.879 1029.24,-179.147"/>
<polygon fill="midnightblue" stroke="midnightblue" points="1004.89,-206.621 1001.83,-216.765 1010.55,-210.743 1004.89,-206.621"/>
</g>
<!-- Node3&#45;&gt;Node4 -->
<g id="edge3" class="edge"><title>Node3&#45;&gt;Node4</title>
<path fill="none" stroke="midnightblue" d="M860.095,-137.183C868.861,-127.286 878.808,-116.055 886.698,-107.147"/>
<polygon fill="midnightblue" stroke="midnightblue" points="857.39,-134.958 853.38,-144.765 862.63,-139.599 857.39,-134.958"/>
</g>
<!-- Node14 -->
<g id="node14" class="node"><title>Node14</title>
<g id="a_node14"><a xlink:href="../../dc/d58/_documentation_2_operator-_console_2_blemish_test_8cpp.html" target="_top" xlink:title="Documentation/Operator\l&#45;Console/BlemishTest.cpp">
<polygon fill="white" stroke="black" points="646,-73 646,-107 800,-107 800,-73 646,-73"/>
<text text-anchor="start" x="654" y="-93.4" font-family="Helvetica,sans-Serif" font-size="12.00">Documentation/Operator</text>
<text text-anchor="middle" x="723" y="-80.4" font-family="Helvetica,sans-Serif" font-size="12.00">&#45;Console/BlemishTest.cpp</text>
</a>
</g>
</g>
<!-- Node3&#45;&gt;Node14 -->
<g id="edge13" class="edge"><title>Node3&#45;&gt;Node14</title>
<path fill="none" stroke="midnightblue" d="M803.675,-139.683C786.379,-129.246 765.892,-116.883 749.891,-107.227"/>
<polygon fill="midnightblue" stroke="midnightblue" points="802.017,-142.771 812.387,-144.941 805.634,-136.777 802.017,-142.771"/>
</g>
<!-- Node5 -->
<g id="node5" class="node"><title>Node5</title>
<g id="a_node5"><a xlink:href="../../d7/d4b/_documentation_2_operator-_console_2_app_thread_8cpp.html" target="_top" xlink:title="Documentation/Operator\l&#45;Console/AppThread.cpp">
<polygon fill="white" stroke="black" points="1261,-1 1261,-35 1409,-35 1409,-1 1261,-1"/>
<text text-anchor="start" x="1269" y="-21.4" font-family="Helvetica,sans-Serif" font-size="12.00">Documentation/Operator</text>
<text text-anchor="middle" x="1335" y="-8.4" font-family="Helvetica,sans-Serif" font-size="12.00">&#45;Console/AppThread.cpp</text>
</a>
</g>
</g>
<!-- Node4&#45;&gt;Node5 -->
<g id="edge4" class="edge"><title>Node4&#45;&gt;Node5</title>
<path fill="none" stroke="midnightblue" d="M994.106,-71.8629C1108.97,-53.5709 1140,-54.9589 1251,-36 1254.23,-35.4489 1257.52,-34.867 1260.84,-34.2636"/>
<polygon fill="midnightblue" stroke="midnightblue" points="993.534,-68.4099 984.216,-73.4532 994.645,-75.3211 993.534,-68.4099"/>
</g>
<!-- Node6 -->
<g id="node6" class="node"><title>Node6</title>
<g id="a_node6"><a xlink:href="../../de/d31/_documentation_2_operator-_console_2_critical_buf_8cpp.html" target="_top" xlink:title="Documentation/Operator\l&#45;Console/CriticalBuf.cpp">
<polygon fill="white" stroke="black" points="-0.5,-1 -0.5,-35 144.5,-35 144.5,-1 -0.5,-1"/>
<text text-anchor="start" x="7.5" y="-21.4" font-family="Helvetica,sans-Serif" font-size="12.00">Documentation/Operator</text>
<text text-anchor="middle" x="72" y="-8.4" font-family="Helvetica,sans-Serif" font-size="12.00">&#45;Console/CriticalBuf.cpp</text>
</a>
</g>
</g>
<!-- Node4&#45;&gt;Node6 -->
<g id="edge5" class="edge"><title>Node4&#45;&gt;Node6</title>
<path fill="none" stroke="midnightblue" d="M807.86,-71.9632C517.762,-38.2462 439.856,-73.2744 154,-36 150.972,-35.6052 147.89,-35.1608 144.782,-34.6776"/>
<polygon fill="midnightblue" stroke="midnightblue" points="807.487,-75.4433 817.828,-73.1389 808.307,-68.4915 807.487,-75.4433"/>
</g>
<!-- Node4&#45;&gt;Node7 -->
<g id="edge6" class="edge"><title>Node4&#45;&gt;Node7</title>
<path fill="none" stroke="midnightblue" d="M994.143,-71.9287C1182.61,-47.2996 1233.62,-62.8236 1418,-36 1421.02,-35.5605 1424.1,-35.0786 1427.2,-34.5644"/>
<polygon fill="midnightblue" stroke="midnightblue" points="993.639,-68.4648 984.186,-73.2502 994.56,-75.404 993.639,-68.4648"/>
</g>
<!-- Node8 -->
<g id="node8" class="node"><title>Node8</title>
<g id="a_node8"><a xlink:href="../../d4/d9c/_msg_dialog_8cpp.html" target="_top" xlink:title="Documentation/Operator\l&#45;Console/MsgDialog.cpp">
<polygon fill="white" stroke="black" points="163,-1 163,-35 309,-35 309,-1 163,-1"/>
<text text-anchor="start" x="171" y="-21.4" font-family="Helvetica,sans-Serif" font-size="12.00">Documentation/Operator</text>
<text text-anchor="middle" x="236" y="-8.4" font-family="Helvetica,sans-Serif" font-size="12.00">&#45;Console/MsgDialog.cpp</text>
</a>
</g>
</g>
<!-- Node4&#45;&gt;Node8 -->
<g id="edge7" class="edge"><title>Node4&#45;&gt;Node8</title>
<path fill="none" stroke="midnightblue" d="M807.679,-71.9199C590.21,-44.7386 531.423,-65.816 318,-36 315.12,-35.5977 312.19,-35.1545 309.235,-34.6792"/>
<polygon fill="midnightblue" stroke="midnightblue" points="807.458,-75.4199 817.82,-73.2077 808.34,-68.4756 807.458,-75.4199"/>
</g>
<!-- Node9 -->
<g id="node9" class="node"><title>Node9</title>
<g id="a_node9"><a xlink:href="../../db/db5/_documentation_2_operator-_console_2_operator_console_8cpp.html" target="_top" xlink:title="Documentation/Operator\l&#45;Console/OperatorConsole.cpp">
<polygon fill="white" stroke="black" points="327.5,-1 327.5,-35 506.5,-35 506.5,-1 327.5,-1"/>
<text text-anchor="start" x="335.5" y="-21.4" font-family="Helvetica,sans-Serif" font-size="12.00">Documentation/Operator</text>
<text text-anchor="middle" x="417" y="-8.4" font-family="Helvetica,sans-Serif" font-size="12.00">&#45;Console/OperatorConsole.cpp</text>
</a>
</g>
</g>
<!-- Node4&#45;&gt;Node9 -->
<g id="edge8" class="edge"><title>Node4&#45;&gt;Node9</title>
<path fill="none" stroke="midnightblue" d="M807.805,-71.8691C677.18,-52.1747 642.047,-54.7859 515,-36 512.267,-35.5959 509.493,-35.1758 506.693,-34.7435"/>
<polygon fill="midnightblue" stroke="midnightblue" points="807.381,-75.3449 817.794,-73.3903 808.435,-68.4246 807.381,-75.3449"/>
</g>
<!-- Node10 -->
<g id="node10" class="node"><title>Node10</title>
<g id="a_node10"><a xlink:href="../../dd/dcb/_documentation_2_operator-_console_2_operator_console_dlg_8cpp.html" target="_top" xlink:title="Documentation/Operator\l&#45;Console/OperatorConsoleDlg.cpp">
<polygon fill="white" stroke="black" points="524.5,-1 524.5,-35 721.5,-35 721.5,-1 524.5,-1"/>
<text text-anchor="start" x="532.5" y="-21.4" font-family="Helvetica,sans-Serif" font-size="12.00">Documentation/Operator</text>
<text text-anchor="middle" x="623" y="-8.4" font-family="Helvetica,sans-Serif" font-size="12.00">&#45;Console/OperatorConsoleDlg.cpp</text>
</a>
</g>
</g>
<!-- Node4&#45;&gt;Node10 -->
<g id="edge9" class="edge"><title>Node4&#45;&gt;Node10</title>
<path fill="none" stroke="midnightblue" d="M827.506,-70.4944C783.795,-59.488 728.879,-45.6601 686.963,-35.1057"/>
<polygon fill="midnightblue" stroke="midnightblue" points="826.669,-73.8928 837.221,-72.9406 828.379,-67.1047 826.669,-73.8928"/>
</g>
<!-- Node11 -->
<g id="node11" class="node"><title>Node11</title>
<g id="a_node11"><a xlink:href="../../dd/d14/_documentation_2_operator-_console_2_pass_fail_8cpp.html" target="_top" xlink:title="Documentation/Operator\l&#45;Console/PassFail.cpp">
<polygon fill="white" stroke="black" points="739.5,-1 739.5,-35 884.5,-35 884.5,-1 739.5,-1"/>
<text text-anchor="start" x="747.5" y="-21.4" font-family="Helvetica,sans-Serif" font-size="12.00">Documentation/Operator</text>
<text text-anchor="middle" x="812" y="-8.4" font-family="Helvetica,sans-Serif" font-size="12.00">&#45;Console/PassFail.cpp</text>
</a>
</g>
</g>
<!-- Node4&#45;&gt;Node11 -->
<g id="edge10" class="edge"><title>Node4&#45;&gt;Node11</title>
<path fill="none" stroke="midnightblue" d="M872.205,-66.3523C859.27,-56.1788 844.305,-44.4081 832.53,-35.1473"/>
<polygon fill="midnightblue" stroke="midnightblue" points="870.334,-69.3335 880.358,-72.7646 874.662,-63.8314 870.334,-69.3335"/>
</g>
<!-- Node12 -->
<g id="node12" class="node"><title>Node12</title>
<g id="a_node12"><a xlink:href="../../dd/d4b/_documentation_2_operator-_console_2_password_dialog_8cpp.html" target="_top" xlink:title="Documentation/Operator\l&#45;Console/PasswordDialog.cpp">
<polygon fill="white" stroke="black" points="903,-1 903,-35 1079,-35 1079,-1 903,-1"/>
<text text-anchor="start" x="911" y="-21.4" font-family="Helvetica,sans-Serif" font-size="12.00">Documentation/Operator</text>
<text text-anchor="middle" x="991" y="-8.4" font-family="Helvetica,sans-Serif" font-size="12.00">&#45;Console/PasswordDialog.cpp</text>
</a>
</g>
</g>
<!-- Node4&#45;&gt;Node12 -->
<g id="edge11" class="edge"><title>Node4&#45;&gt;Node12</title>
<path fill="none" stroke="midnightblue" d="M930.118,-66.3523C943.199,-56.1788 958.332,-44.4081 970.239,-35.1473"/>
<polygon fill="midnightblue" stroke="midnightblue" points="927.619,-63.8625 921.874,-72.7646 931.916,-69.3879 927.619,-63.8625"/>
</g>
<!-- Node13 -->
<g id="node13" class="node"><title>Node13</title>
<g id="a_node13"><a xlink:href="../../d3/d68/_documentation_2_operator-_console_2_setup_8cpp.html" target="_top" xlink:title="Documentation/Operator\l&#45;Console/Setup.cpp">
<polygon fill="white" stroke="black" points="1097.5,-1 1097.5,-35 1242.5,-35 1242.5,-1 1097.5,-1"/>
<text text-anchor="start" x="1105.5" y="-21.4" font-family="Helvetica,sans-Serif" font-size="12.00">Documentation/Operator</text>
<text text-anchor="middle" x="1170" y="-8.4" font-family="Helvetica,sans-Serif" font-size="12.00">&#45;Console/Setup.cpp</text>
</a>
</g>
</g>
<!-- Node4&#45;&gt;Node13 -->
<g id="edge12" class="edge"><title>Node4&#45;&gt;Node13</title>
<path fill="none" stroke="midnightblue" d="M972.648,-70.3555C1014.86,-59.3718 1067.72,-45.6158 1108.11,-35.1057"/>
<polygon fill="midnightblue" stroke="midnightblue" points="971.51,-67.035 962.714,-72.9406 973.273,-73.8093 971.51,-67.035"/>
</g>
<!-- Node15&#45;&gt;Node4 -->
<g id="edge16" class="edge"><title>Node15&#45;&gt;Node4</title>
<path fill="none" stroke="midnightblue" d="M999.796,-140.398C978.63,-129.815 953.209,-117.104 933.454,-107.227"/>
<polygon fill="midnightblue" stroke="midnightblue" points="998.372,-143.599 1008.88,-144.941 1001.5,-137.338 998.372,-143.599"/>
</g>
<!-- Node16 -->
<g id="node16" class="node"><title>Node16</title>
<g id="a_node16"><a xlink:href="../../d6/d7f/_documentation_2_operator-_console_2_s_f_rplus_test_8cpp.html" target="_top" xlink:title="Documentation/Operator\l&#45;Console/SFRplusTest.cpp">
<polygon fill="white" stroke="black" points="1002.5,-73 1002.5,-107 1159.5,-107 1159.5,-73 1002.5,-73"/>
<text text-anchor="start" x="1010.5" y="-93.4" font-family="Helvetica,sans-Serif" font-size="12.00">Documentation/Operator</text>
<text text-anchor="middle" x="1081" y="-80.4" font-family="Helvetica,sans-Serif" font-size="12.00">&#45;Console/SFRplusTest.cpp</text>
</a>
</g>
</g>
<!-- Node15&#45;&gt;Node16 -->
<g id="edge17" class="edge"><title>Node15&#45;&gt;Node16</title>
<path fill="none" stroke="midnightblue" d="M1055.29,-136.001C1060.77,-126.4 1066.88,-115.703 1071.77,-107.147"/>
<polygon fill="midnightblue" stroke="midnightblue" points="1052.2,-134.346 1050.28,-144.765 1058.28,-137.819 1052.2,-134.346"/>
</g>
</g>
</svg>
