<?xml version="1.0" encoding="UTF-8" standalone="no"?>
<!DOCTYPE svg PUBLIC "-//W3C//DTD SVG 1.1//EN"
 "http://www.w3.org/Graphics/SVG/1.1/DTD/svg11.dtd">
<!-- Generated by graphviz version 2.34.0 (20130907.0111)
 -->
<!-- Title: Documentation/Operator&#45;Console/JSON/JSONDefs.h Pages: 1 -->
<svg width="640pt" height="160pt"
 viewBox="0.00 0.00 640.35 160.00" xmlns="http://www.w3.org/2000/svg" xmlns:xlink="http://www.w3.org/1999/xlink">
<g id="graph0" class="graph" transform="scale(1 1) rotate(0) translate(4 156)">
<title>Documentation/Operator&#45;Console/JSON/JSONDefs.h</title>
<polygon fill="white" stroke="white" points="-4,4 -4,-156 636.349,-156 636.349,4 -4,4"/>
<!-- Node1 -->
<g id="node1" class="node"><title>Node1</title>
<polygon fill="#bfbfbf" stroke="black" points="163.849,-117 163.849,-151 330.849,-151 330.849,-117 163.849,-117"/>
<text text-anchor="start" x="171.849" y="-137.4" font-family="Helvetica,sans-Serif" font-size="12.00">Documentation/Operator</text>
<text text-anchor="middle" x="247.349" y="-124.4" font-family="Helvetica,sans-Serif" font-size="12.00">&#45;Console/JSON/JSONDefs.h</text>
</g>
<!-- Node2 -->
<g id="node2" class="node"><title>Node2</title>
<g id="a_node2"><a xlink:href="../../de/d2a/_documentation_2_operator-_console_2_j_s_o_n_options_8h.html" target="_top" xlink:title="..\\JSONOptions.h">
<polygon fill="white" stroke="black" points="169.849,-0.5 169.849,-21.5 276.849,-21.5 276.849,-0.5 169.849,-0.5"/>
<text text-anchor="middle" x="223.349" y="-7.9" font-family="Helvetica,sans-Serif" font-size="12.00">..\JSONOptions.h</text>
</a>
</g>
</g>
<!-- Node1&#45;&gt;Node2 -->
<g id="edge1" class="edge"><title>Node1&#45;&gt;Node2</title>
<path fill="none" stroke="midnightblue" d="M163.68,-125.369C103.116,-117.91 28.6463,-104.068 9.34852,-80 -33.2439,-26.8794 81.8938,-14.5903 159.362,-12.1439"/>
<polygon fill="midnightblue" stroke="midnightblue" points="159.648,-15.6376 169.551,-11.8711 159.461,-8.64009 159.648,-15.6376"/>
</g>
<!-- Node3 -->
<g id="node3" class="node"><title>Node3</title>
<g id="a_node3"><a xlink:href="../../d3/d83/_documentation_2_operator-_console_2_j_s_o_n_2_j_s_o_n_defs_2_unknown___c_8h.html" target="_top" xlink:title="JSONDefs\\Unknown_C.h">
<polygon fill="white" stroke="black" points="18.3485,-58.5 18.3485,-79.5 166.349,-79.5 166.349,-58.5 18.3485,-58.5"/>
<text text-anchor="middle" x="92.3485" y="-65.9" font-family="Helvetica,sans-Serif" font-size="12.00">JSONDefs\Unknown_C.h</text>
</a>
</g>
</g>
<!-- Node1&#45;&gt;Node3 -->
<g id="edge2" class="edge"><title>Node1&#45;&gt;Node3</title>
<path fill="none" stroke="midnightblue" d="M207.834,-116.939C182.293,-106.558 149.439,-93.2044 125.307,-83.396"/>
<polygon fill="midnightblue" stroke="midnightblue" points="126.453,-80.0839 115.871,-79.5609 123.817,-86.5687 126.453,-80.0839"/>
</g>
<!-- Node4 -->
<g id="node4" class="node"><title>Node4</title>
<g id="a_node4"><a xlink:href="../../da/d53/_documentation_2_operator-_console_2_j_s_o_n_2_j_s_o_n_defs_2_g_n_u___c_8h.html" target="_top" xlink:title="JSONDefs\\GNU_C.h">
<polygon fill="white" stroke="black" points="184.349,-58.5 184.349,-79.5 310.349,-79.5 310.349,-58.5 184.349,-58.5"/>
<text text-anchor="middle" x="247.349" y="-65.9" font-family="Helvetica,sans-Serif" font-size="12.00">JSONDefs\GNU_C.h</text>
</a>
</g>
</g>
<!-- Node1&#45;&gt;Node4 -->
<g id="edge3" class="edge"><title>Node1&#45;&gt;Node4</title>
<path fill="none" stroke="midnightblue" d="M247.349,-116.776C247.349,-108.47 247.349,-98.2953 247.349,-89.5587"/>
<polygon fill="midnightblue" stroke="midnightblue" points="250.849,-89.5106 247.349,-79.5106 243.849,-89.5107 250.849,-89.5106"/>
</g>
<!-- Node5 -->
<g id="node5" class="node"><title>Node5</title>
<g id="a_node5"><a xlink:href="../../de/d63/_documentation_2_operator-_console_2_j_s_o_n_2_j_s_o_n_defs_2_visual___c_8h.html" target="_top" xlink:title="JSONDefs\\Visual_C.h">
<polygon fill="white" stroke="black" points="328.849,-58.5 328.849,-79.5 461.849,-79.5 461.849,-58.5 328.849,-58.5"/>
<text text-anchor="middle" x="395.349" y="-65.9" font-family="Helvetica,sans-Serif" font-size="12.00">JSONDefs\Visual_C.h</text>
</a>
</g>
</g>
<!-- Node1&#45;&gt;Node5 -->
<g id="edge4" class="edge"><title>Node1&#45;&gt;Node5</title>
<path fill="none" stroke="midnightblue" d="M285.078,-116.939C309.358,-106.604 340.558,-93.323 363.571,-83.527"/>
<polygon fill="midnightblue" stroke="midnightblue" points="365.058,-86.698 372.888,-79.5609 362.316,-80.2572 365.058,-86.698"/>
</g>
<!-- Node6 -->
<g id="node6" class="node"><title>Node6</title>
<g id="a_node6"><a xlink:href="../../d0/d89/_documentation_2_operator-_console_2_j_s_o_n_2_j_s_o_n_defs_2_strings___defs_8h.html" target="_top" xlink:title="JSONDefs\\Strings_Defs.h">
<polygon fill="white" stroke="black" points="479.849,-58.5 479.849,-79.5 632.849,-79.5 632.849,-58.5 479.849,-58.5"/>
<text text-anchor="middle" x="556.349" y="-65.9" font-family="Helvetica,sans-Serif" font-size="12.00">JSONDefs\Strings_Defs.h</text>
</a>
</g>
</g>
<!-- Node1&#45;&gt;Node6 -->
<g id="edge5" class="edge"><title>Node1&#45;&gt;Node6</title>
<path fill="none" stroke="midnightblue" d="M326.122,-116.939C380.208,-105.912 450.744,-91.5311 499.415,-81.6079"/>
<polygon fill="midnightblue" stroke="midnightblue" points="500.356,-84.9881 509.455,-79.5609 498.957,-78.1292 500.356,-84.9881"/>
</g>
<!-- Node6&#45;&gt;Node2 -->
<g id="edge6" class="edge"><title>Node6&#45;&gt;Node2</title>
<path fill="none" stroke="midnightblue" d="M499.482,-58.4369C440.446,-48.509 348.308,-33.0142 286.908,-22.6886"/>
<polygon fill="midnightblue" stroke="midnightblue" points="287.392,-19.221 276.95,-21.0141 286.231,-26.1241 287.392,-19.221"/>
</g>
<!-- Node7 -->
<g id="node7" class="node"><title>Node7</title>
<polygon fill="white" stroke="#bfbfbf" points="529.349,-0.5 529.349,-21.5 583.349,-21.5 583.349,-0.5 529.349,-0.5"/>
<text text-anchor="middle" x="556.349" y="-7.9" font-family="Helvetica,sans-Serif" font-size="12.00">string.h</text>
</g>
<!-- Node6&#45;&gt;Node7 -->
<g id="edge7" class="edge"><title>Node6&#45;&gt;Node7</title>
<path fill="none" stroke="midnightblue" d="M556.349,-58.2455C556.349,-50.9382 556.349,-40.6944 556.349,-31.7046"/>
<polygon fill="midnightblue" stroke="midnightblue" points="559.849,-31.6426 556.349,-21.6427 552.849,-31.6427 559.849,-31.6426"/>
</g>
</g>
</svg>
