<?xml version="1.0" encoding="UTF-8" standalone="no"?>
<!DOCTYPE svg PUBLIC "-//W3C//DTD SVG 1.1//EN"
 "http://www.w3.org/Graphics/SVG/1.1/DTD/svg11.dtd">
<!-- Generated by graphviz version 2.34.0 (20130907.0111)
 -->
<!-- Title: Config.h Pages: 1 -->
<svg width="1061pt" height="262pt"
 viewBox="0.00 0.00 1061.00 262.00" xmlns="http://www.w3.org/2000/svg" xmlns:xlink="http://www.w3.org/1999/xlink">
<g id="graph0" class="graph" transform="scale(1 1) rotate(0) translate(4 258)">
<title>Config.h</title>
<polygon fill="white" stroke="white" points="-4,4 -4,-258 1057,-258 1057,4 -4,4"/>
<!-- Node1 -->
<g id="node1" class="node"><title>Node1</title>
<polygon fill="#bfbfbf" stroke="black" points="583,-232.5 583,-253.5 643,-253.5 643,-232.5 583,-232.5"/>
<text text-anchor="middle" x="613" y="-239.9" font-family="Helvetica,sans-Serif" font-size="12.00">Config.h</text>
</g>
<!-- Node2 -->
<g id="node2" class="node"><title>Node2</title>
<g id="a_node2"><a xlink:href="../../d9/da7/_image_test_8h.html" target="_top" xlink:title="ImageTest.h">
<polygon fill="white" stroke="black" points="385,-174.5 385,-195.5 465,-195.5 465,-174.5 385,-174.5"/>
<text text-anchor="middle" x="425" y="-181.9" font-family="Helvetica,sans-Serif" font-size="12.00">ImageTest.h</text>
</a>
</g>
</g>
<!-- Node1&#45;&gt;Node2 -->
<g id="edge1" class="edge"><title>Node1&#45;&gt;Node2</title>
<path fill="none" stroke="midnightblue" d="M573.013,-230.089C538.42,-219.785 489.054,-205.08 457.018,-195.537"/>
<polygon fill="midnightblue" stroke="midnightblue" points="572.211,-233.502 582.795,-233.003 574.21,-226.793 572.211,-233.502"/>
</g>
<!-- Node4 -->
<g id="node4" class="node"><title>Node4</title>
<g id="a_node4"><a xlink:href="../../da/de6/_operator_console_8h.html" target="_top" xlink:title="OperatorConsole.h">
<polygon fill="white" stroke="black" points="402,-58.5 402,-79.5 518,-79.5 518,-58.5 402,-58.5"/>
<text text-anchor="middle" x="460" y="-65.9" font-family="Helvetica,sans-Serif" font-size="12.00">OperatorConsole.h</text>
</a>
</g>
</g>
<!-- Node1&#45;&gt;Node4 -->
<g id="edge19" class="edge"><title>Node1&#45;&gt;Node4</title>
<path fill="none" stroke="midnightblue" d="M605.891,-222.508C594.209,-191.299 570.686,-131.995 555,-116 537.936,-98.5989 512.96,-86.8626 492.9,-79.6019"/>
<polygon fill="midnightblue" stroke="midnightblue" points="602.745,-224.093 609.497,-232.258 609.311,-221.665 602.745,-224.093"/>
</g>
<!-- Node9 -->
<g id="node9" class="node"><title>Node9</title>
<g id="a_node9"><a xlink:href="../../de/da2/_operator_console_8cpp.html" target="_top" xlink:title="OperatorConsole.cpp">
<polygon fill="white" stroke="black" points="924.5,-0.5 924.5,-21.5 1053.5,-21.5 1053.5,-0.5 924.5,-0.5"/>
<text text-anchor="middle" x="989" y="-7.9" font-family="Helvetica,sans-Serif" font-size="12.00">OperatorConsole.cpp</text>
</a>
</g>
</g>
<!-- Node1&#45;&gt;Node9 -->
<g id="edge21" class="edge"><title>Node1&#45;&gt;Node9</title>
<path fill="none" stroke="midnightblue" d="M630.096,-225.132C645.323,-210.602 668.597,-189.574 691,-174 788.67,-106.103 917.745,-44.4917 967.853,-21.5204"/>
<polygon fill="midnightblue" stroke="midnightblue" points="627.275,-222.991 622.521,-232.459 632.142,-228.022 627.275,-222.991"/>
</g>
<!-- Node16 -->
<g id="node16" class="node"><title>Node16</title>
<g id="a_node16"><a xlink:href="../../dc/d7a/_s_f_rplus_test_8cpp.html" target="_top" xlink:title="SFRplusTest.cpp">
<polygon fill="white" stroke="black" points="536.5,-58.5 536.5,-79.5 643.5,-79.5 643.5,-58.5 536.5,-58.5"/>
<text text-anchor="middle" x="590" y="-65.9" font-family="Helvetica,sans-Serif" font-size="12.00">SFRplusTest.cpp</text>
</a>
</g>
</g>
<!-- Node1&#45;&gt;Node16 -->
<g id="edge22" class="edge"><title>Node1&#45;&gt;Node16</title>
<path fill="none" stroke="midnightblue" d="M610.354,-222.214C605.41,-185.239 594.939,-106.937 591.288,-79.6335"/>
<polygon fill="midnightblue" stroke="midnightblue" points="606.903,-222.812 611.698,-232.26 613.841,-221.884 606.903,-222.812"/>
</g>
<!-- Node17 -->
<g id="node17" class="node"><title>Node17</title>
<g id="a_node17"><a xlink:href="../../d7/dd3/_config_8cpp.html" target="_top" xlink:title="Config.cpp">
<polygon fill="white" stroke="black" points="700,-174.5 700,-195.5 774,-195.5 774,-174.5 700,-174.5"/>
<text text-anchor="middle" x="737" y="-181.9" font-family="Helvetica,sans-Serif" font-size="12.00">Config.cpp</text>
</a>
</g>
</g>
<!-- Node1&#45;&gt;Node17 -->
<g id="edge20" class="edge"><title>Node1&#45;&gt;Node17</title>
<path fill="none" stroke="midnightblue" d="M643.452,-228.247C665.972,-218.077 696.062,-204.488 715.962,-195.501"/>
<polygon fill="midnightblue" stroke="midnightblue" points="641.99,-225.068 634.316,-232.373 644.871,-231.447 641.99,-225.068"/>
</g>
<!-- Node3 -->
<g id="node3" class="node"><title>Node3</title>
<g id="a_node3"><a xlink:href="../../dc/d69/_blemish_test_8h.html" target="_top" xlink:title="BlemishTest.h">
<polygon fill="white" stroke="black" points="307,-116.5 307,-137.5 397,-137.5 397,-116.5 307,-116.5"/>
<text text-anchor="middle" x="352" y="-123.9" font-family="Helvetica,sans-Serif" font-size="12.00">BlemishTest.h</text>
</a>
</g>
</g>
<!-- Node2&#45;&gt;Node3 -->
<g id="edge2" class="edge"><title>Node2&#45;&gt;Node3</title>
<path fill="none" stroke="midnightblue" d="M404.049,-167.928C391.289,-158.14 375.411,-145.959 364.57,-137.643"/>
<polygon fill="midnightblue" stroke="midnightblue" points="402.22,-170.936 412.284,-174.246 406.48,-165.382 402.22,-170.936"/>
</g>
<!-- Node2&#45;&gt;Node4 -->
<g id="edge14" class="edge"><title>Node2&#45;&gt;Node4</title>
<path fill="none" stroke="midnightblue" d="M430.096,-164.524C433.752,-150.876 438.911,-132.244 444,-116 447.943,-103.413 453.022,-89.0847 456.388,-79.8115"/>
<polygon fill="midnightblue" stroke="midnightblue" points="426.695,-163.697 427.517,-174.26 433.461,-165.49 426.695,-163.697"/>
</g>
<!-- Node7 -->
<g id="node7" class="node"><title>Node7</title>
<g id="a_node7"><a xlink:href="../../d8/d53/_image_test_8cpp.html" target="_top" xlink:title="ImageTest.cpp">
<polygon fill="white" stroke="black" points="0,-0.5 0,-21.5 94,-21.5 94,-0.5 0,-0.5"/>
<text text-anchor="middle" x="47" y="-7.9" font-family="Helvetica,sans-Serif" font-size="12.00">ImageTest.cpp</text>
</a>
</g>
</g>
<!-- Node2&#45;&gt;Node7 -->
<g id="edge18" class="edge"><title>Node2&#45;&gt;Node7</title>
<path fill="none" stroke="midnightblue" d="M385.984,-171.2C360.622,-162.555 327,-150.479 298,-138 207.976,-99.2605 104.584,-43.6789 64.3128,-21.5843"/>
<polygon fill="midnightblue" stroke="midnightblue" points="385.023,-174.57 395.617,-174.455 387.263,-167.938 385.023,-174.57"/>
</g>
<!-- Node15 -->
<g id="node15" class="node"><title>Node15</title>
<g id="a_node15"><a xlink:href="../../d2/d9d/_s_f_rplus_test_8h.html" target="_top" xlink:title="SFRplusTest.h">
<polygon fill="white" stroke="black" points="453.5,-116.5 453.5,-137.5 546.5,-137.5 546.5,-116.5 453.5,-116.5"/>
<text text-anchor="middle" x="500" y="-123.9" font-family="Helvetica,sans-Serif" font-size="12.00">SFRplusTest.h</text>
</a>
</g>
</g>
<!-- Node2&#45;&gt;Node15 -->
<g id="edge15" class="edge"><title>Node2&#45;&gt;Node15</title>
<path fill="none" stroke="midnightblue" d="M446.148,-168.21C459.32,-158.374 475.84,-146.039 487.086,-137.643"/>
<polygon fill="midnightblue" stroke="midnightblue" points="443.983,-165.458 438.064,-174.246 448.171,-171.067 443.983,-165.458"/>
</g>
<!-- Node3&#45;&gt;Node4 -->
<g id="edge3" class="edge"><title>Node3&#45;&gt;Node4</title>
<path fill="none" stroke="midnightblue" d="M379.777,-111.597C399.138,-101.558 424.439,-88.4393 441.403,-79.6427"/>
<polygon fill="midnightblue" stroke="midnightblue" points="378.079,-108.535 370.812,-116.246 381.301,-114.749 378.079,-108.535"/>
</g>
<!-- Node14 -->
<g id="node14" class="node"><title>Node14</title>
<g id="a_node14"><a xlink:href="../../dd/d8a/_blemish_test_8cpp.html" target="_top" xlink:title="BlemishTest.cpp">
<polygon fill="white" stroke="black" points="280,-58.5 280,-79.5 384,-79.5 384,-58.5 280,-58.5"/>
<text text-anchor="middle" x="332" y="-65.9" font-family="Helvetica,sans-Serif" font-size="12.00">BlemishTest.cpp</text>
</a>
</g>
</g>
<!-- Node3&#45;&gt;Node14 -->
<g id="edge13" class="edge"><title>Node3&#45;&gt;Node14</title>
<path fill="none" stroke="midnightblue" d="M345.125,-106.749C341.859,-97.6064 338.1,-87.0798 335.444,-79.6427"/>
<polygon fill="midnightblue" stroke="midnightblue" points="341.857,-108.005 348.516,-116.246 348.449,-105.651 341.857,-108.005"/>
</g>
<!-- Node5 -->
<g id="node5" class="node"><title>Node5</title>
<g id="a_node5"><a xlink:href="../../d3/d22/_app_thread_8cpp.html" target="_top" xlink:title="AppThread.cpp">
<polygon fill="white" stroke="black" points="200,-0.5 200,-21.5 298,-21.5 298,-0.5 200,-0.5"/>
<text text-anchor="middle" x="249" y="-7.9" font-family="Helvetica,sans-Serif" font-size="12.00">AppThread.cpp</text>
</a>
</g>
</g>
<!-- Node4&#45;&gt;Node5 -->
<g id="edge4" class="edge"><title>Node4&#45;&gt;Node5</title>
<path fill="none" stroke="midnightblue" d="M413.73,-55.7199C374.932,-45.4228 320.324,-30.9296 284.799,-21.5011"/>
<polygon fill="midnightblue" stroke="midnightblue" points="413.165,-59.1909 423.728,-58.3733 414.96,-52.4251 413.165,-59.1909"/>
</g>
<!-- Node6 -->
<g id="node6" class="node"><title>Node6</title>
<g id="a_node6"><a xlink:href="../../d6/df7/_critical_buf_8cpp.html" target="_top" xlink:title="CriticalBuf.cpp">
<polygon fill="white" stroke="black" points="316.5,-0.5 316.5,-21.5 409.5,-21.5 409.5,-0.5 316.5,-0.5"/>
<text text-anchor="middle" x="363" y="-7.9" font-family="Helvetica,sans-Serif" font-size="12.00">CriticalBuf.cpp</text>
</a>
</g>
</g>
<!-- Node4&#45;&gt;Node6 -->
<g id="edge5" class="edge"><title>Node4&#45;&gt;Node6</title>
<path fill="none" stroke="midnightblue" d="M434.098,-53.0465C416.839,-43.0824 394.662,-30.2794 379.702,-21.6427"/>
<polygon fill="midnightblue" stroke="midnightblue" points="432.694,-56.2768 443.104,-58.2455 436.193,-50.2146 432.694,-56.2768"/>
</g>
<!-- Node4&#45;&gt;Node7 -->
<g id="edge6" class="edge"><title>Node4&#45;&gt;Node7</title>
<path fill="none" stroke="midnightblue" d="M391.627,-57.8436C262.586,-40.4506 228.157,-40.9294 103,-22 100.071,-21.5569 97.0586,-21.0804 94.0238,-20.5843"/>
<polygon fill="midnightblue" stroke="midnightblue" points="391.528,-61.3622 401.908,-59.24 392.47,-54.4259 391.528,-61.3622"/>
</g>
<!-- Node8 -->
<g id="node8" class="node"><title>Node8</title>
<g id="a_node8"><a xlink:href="../../df/d0a/main_8cpp.html" target="_top" xlink:title="main.cpp">
<polygon fill="white" stroke="black" points="427.5,-0.5 427.5,-21.5 492.5,-21.5 492.5,-0.5 427.5,-0.5"/>
<text text-anchor="middle" x="460" y="-7.9" font-family="Helvetica,sans-Serif" font-size="12.00">main.cpp</text>
</a>
</g>
</g>
<!-- Node4&#45;&gt;Node8 -->
<g id="edge7" class="edge"><title>Node4&#45;&gt;Node8</title>
<path fill="none" stroke="midnightblue" d="M460,-48.1575C460,-39.155 460,-28.9199 460,-21.6427"/>
<polygon fill="midnightblue" stroke="midnightblue" points="456.5,-48.2455 460,-58.2455 463.5,-48.2456 456.5,-48.2455"/>
</g>
<!-- Node4&#45;&gt;Node9 -->
<g id="edge8" class="edge"><title>Node4&#45;&gt;Node9</title>
<path fill="none" stroke="midnightblue" d="M528.263,-57.9057C700.655,-37.3678 746.204,-41.2273 915,-22 918.091,-21.6479 921.253,-21.2739 924.446,-20.8852"/>
<polygon fill="midnightblue" stroke="midnightblue" points="527.589,-54.4614 518.078,-59.1297 528.424,-61.4114 527.589,-54.4614"/>
</g>
<!-- Node10 -->
<g id="node10" class="node"><title>Node10</title>
<g id="a_node10"><a xlink:href="../../d8/d29/_operator_console_dlg_8cpp.html" target="_top" xlink:title="OperatorConsoleDlg.cpp">
<polygon fill="white" stroke="black" points="510.5,-0.5 510.5,-21.5 657.5,-21.5 657.5,-0.5 510.5,-0.5"/>
<text text-anchor="middle" x="584" y="-7.9" font-family="Helvetica,sans-Serif" font-size="12.00">OperatorConsoleDlg.cpp</text>
</a>
</g>
</g>
<!-- Node4&#45;&gt;Node10 -->
<g id="edge9" class="edge"><title>Node4&#45;&gt;Node10</title>
<path fill="none" stroke="midnightblue" d="M490.452,-54.2473C512.972,-44.0771 543.062,-30.4883 562.962,-21.5011"/>
<polygon fill="midnightblue" stroke="midnightblue" points="488.99,-51.0675 481.316,-58.3733 491.871,-57.4471 488.99,-51.0675"/>
</g>
<!-- Node11 -->
<g id="node11" class="node"><title>Node11</title>
<g id="a_node11"><a xlink:href="../../d0/d57/_pass_fail_8cpp.html" target="_top" xlink:title="PassFail.cpp">
<polygon fill="white" stroke="black" points="676,-0.5 676,-21.5 762,-21.5 762,-0.5 676,-0.5"/>
<text text-anchor="middle" x="719" y="-7.9" font-family="Helvetica,sans-Serif" font-size="12.00">PassFail.cpp</text>
</a>
</g>
</g>
<!-- Node4&#45;&gt;Node11 -->
<g id="edge10" class="edge"><title>Node4&#45;&gt;Node11</title>
<path fill="none" stroke="midnightblue" d="M514.14,-56.2939C562.173,-45.9085 631.419,-30.9364 675.816,-21.3372"/>
<polygon fill="midnightblue" stroke="midnightblue" points="513.264,-52.9025 504.229,-58.4369 514.743,-59.7444 513.264,-52.9025"/>
</g>
<!-- Node12 -->
<g id="node12" class="node"><title>Node12</title>
<g id="a_node12"><a xlink:href="../../da/d46/_password_dialog_8cpp.html" target="_top" xlink:title="PasswordDialog.cpp">
<polygon fill="white" stroke="black" points="780,-0.5 780,-21.5 906,-21.5 906,-0.5 780,-0.5"/>
<text text-anchor="middle" x="843" y="-7.9" font-family="Helvetica,sans-Serif" font-size="12.00">PasswordDialog.cpp</text>
</a>
</g>
</g>
<!-- Node4&#45;&gt;Node12 -->
<g id="edge11" class="edge"><title>Node4&#45;&gt;Node12</title>
<path fill="none" stroke="midnightblue" d="M528.014,-57.8542C621.5,-44.0851 718.117,-30.0596 779.738,-21.1406"/>
<polygon fill="midnightblue" stroke="midnightblue" points="527.486,-54.3943 518.103,-59.3149 528.506,-61.3195 527.486,-54.3943"/>
</g>
<!-- Node13 -->
<g id="node13" class="node"><title>Node13</title>
<g id="a_node13"><a xlink:href="../../d5/d27/_setup_8cpp.html" target="_top" xlink:title="Setup.cpp">
<polygon fill="white" stroke="black" points="112,-0.5 112,-21.5 182,-21.5 182,-0.5 112,-0.5"/>
<text text-anchor="middle" x="147" y="-7.9" font-family="Helvetica,sans-Serif" font-size="12.00">Setup.cpp</text>
</a>
</g>
</g>
<!-- Node4&#45;&gt;Node13 -->
<g id="edge12" class="edge"><title>Node4&#45;&gt;Node13</title>
<path fill="none" stroke="midnightblue" d="M391.959,-57.4089C337.464,-48.675 259.134,-35.5577 191,-22 188.08,-21.419 185.058,-20.7902 182.028,-20.1405"/>
<polygon fill="midnightblue" stroke="midnightblue" points="391.423,-60.8675 401.85,-58.9878 392.527,-53.955 391.423,-60.8675"/>
</g>
<!-- Node15&#45;&gt;Node4 -->
<g id="edge16" class="edge"><title>Node15&#45;&gt;Node4</title>
<path fill="none" stroke="midnightblue" d="M487.086,-107.921C480.37,-98.5176 472.428,-87.3997 466.888,-79.6427"/>
<polygon fill="midnightblue" stroke="midnightblue" points="484.372,-110.143 493.033,-116.246 490.068,-106.074 484.372,-110.143"/>
</g>
<!-- Node15&#45;&gt;Node16 -->
<g id="edge17" class="edge"><title>Node15&#45;&gt;Node16</title>
<path fill="none" stroke="midnightblue" d="M524.478,-110.769C540.427,-100.846 560.751,-88.1994 574.503,-79.6427"/>
<polygon fill="midnightblue" stroke="midnightblue" points="522.318,-107.991 515.677,-116.246 526.016,-113.934 522.318,-107.991"/>
</g>
</g>
</svg>
