<?xml version="1.0" encoding="UTF-8" standalone="no"?>
<!DOCTYPE svg PUBLIC "-//W3C//DTD SVG 1.1//EN"
 "http://www.w3.org/Graphics/SVG/1.1/DTD/svg11.dtd">
<!-- Generated by graphviz version 2.34.0 (20130907.0111)
 -->
<!-- Title: StdoutThread::ThreadProc Pages: 1 -->
<svg width="350pt" height="150pt"
 viewBox="0.00 0.00 350.00 150.00" xmlns="http://www.w3.org/2000/svg" xmlns:xlink="http://www.w3.org/1999/xlink">
<g id="graph0" class="graph" transform="scale(1 1) rotate(0) translate(4 146)">
<title>StdoutThread::ThreadProc</title>
<polygon fill="white" stroke="white" points="-4,4 -4,-146 346,-146 346,4 -4,4"/>
<!-- Node1 -->
<g id="node1" class="node"><title>Node1</title>
<polygon fill="#bfbfbf" stroke="black" points="0.5,-60.5 0.5,-81.5 155.5,-81.5 155.5,-60.5 0.5,-60.5"/>
<text text-anchor="middle" x="78" y="-67.9" font-family="Helvetica,sans-Serif" font-size="12.00">StdoutThread::ThreadProc</text>
</g>
<!-- Node2 -->
<g id="node2" class="node"><title>Node2</title>
<g id="a_node2"><a xlink:href="../../d6/d56/class_critical_c_string.html#a1f9bbccd2c753e413ff341e4acb40454" target="_top" xlink:title="CriticalCString::Append">
<polygon fill="white" stroke="black" points="197,-120.5 197,-141.5 337,-141.5 337,-120.5 197,-120.5"/>
<text text-anchor="middle" x="267" y="-127.9" font-family="Helvetica,sans-Serif" font-size="12.00">CriticalCString::Append</text>
</a>
</g>
</g>
<!-- Node1&#45;&gt;Node2 -->
<g id="edge1" class="edge"><title>Node1&#45;&gt;Node2</title>
<path fill="none" stroke="midnightblue" d="M107.128,-81.6295C129.869,-90.0603 162.793,-101.898 192,-111 199.415,-113.311 207.295,-115.607 215.042,-117.776"/>
<polygon fill="midnightblue" stroke="midnightblue" points="214.17,-121.166 224.74,-120.446 216.028,-114.417 214.17,-121.166"/>
</g>
<!-- Node3 -->
<g id="node3" class="node"><title>Node3</title>
<g id="a_node3"><a xlink:href="../../db/d23/_documentation_2_operator-_console_2_stdout_thread_8cpp.html#ace7ef40e0acb2373d17bd7a563643e9a" target="_top" xlink:title="FindChar">
<polygon fill="white" stroke="black" points="234.5,-80.5 234.5,-101.5 299.5,-101.5 299.5,-80.5 234.5,-80.5"/>
<text text-anchor="middle" x="267" y="-87.9" font-family="Helvetica,sans-Serif" font-size="12.00">FindChar</text>
</a>
</g>
</g>
<!-- Node1&#45;&gt;Node3 -->
<g id="edge2" class="edge"><title>Node1&#45;&gt;Node3</title>
<path fill="none" stroke="midnightblue" d="M155.6,-79.1925C178.962,-81.6912 203.781,-84.3456 223.957,-86.5035"/>
<polygon fill="midnightblue" stroke="midnightblue" points="223.737,-89.9998 234.053,-87.5832 224.482,-83.0395 223.737,-89.9998"/>
</g>
<!-- Node4 -->
<g id="node4" class="node"><title>Node4</title>
<g id="a_node4"><a xlink:href="../../d5/d52/class_stdout_redirect.html#a00cab998df19e149495fd3f1671d1bff" target="_top" xlink:title="StdoutRedirect::GetBuffer">
<polygon fill="white" stroke="black" points="192,-40.5 192,-61.5 342,-61.5 342,-40.5 192,-40.5"/>
<text text-anchor="middle" x="267" y="-47.9" font-family="Helvetica,sans-Serif" font-size="12.00">StdoutRedirect::GetBuffer</text>
</a>
</g>
</g>
<!-- Node1&#45;&gt;Node4 -->
<g id="edge3" class="edge"><title>Node1&#45;&gt;Node4</title>
<path fill="none" stroke="midnightblue" d="M155.6,-62.8075C164.227,-61.8848 173.052,-60.9409 181.769,-60.0086"/>
<polygon fill="midnightblue" stroke="midnightblue" points="182.363,-63.4652 191.934,-58.9215 181.619,-56.5049 182.363,-63.4652"/>
</g>
<!-- Node5 -->
<g id="node5" class="node"><title>Node5</title>
<g id="a_node5"><a xlink:href="../../d6/d56/class_critical_c_string.html#a708b83f5264a7240ebc66018647363e7" target="_top" xlink:title="CriticalCString::Set">
<polygon fill="white" stroke="black" points="208.5,-0.5 208.5,-21.5 325.5,-21.5 325.5,-0.5 208.5,-0.5"/>
<text text-anchor="middle" x="267" y="-7.9" font-family="Helvetica,sans-Serif" font-size="12.00">CriticalCString::Set</text>
</a>
</g>
</g>
<!-- Node1&#45;&gt;Node5 -->
<g id="edge4" class="edge"><title>Node1&#45;&gt;Node5</title>
<path fill="none" stroke="midnightblue" d="M107.128,-60.3705C129.869,-51.9397 162.793,-40.1016 192,-31 199.415,-28.6893 207.295,-26.3928 215.042,-24.224"/>
<polygon fill="midnightblue" stroke="midnightblue" points="216.028,-27.5829 224.74,-21.5538 214.17,-20.8341 216.028,-27.5829"/>
</g>
</g>
</svg>
