<?xml version="1.0" encoding="UTF-8" standalone="no"?>
<!DOCTYPE svg PUBLIC "-//W3C//DTD SVG 1.1//EN"
 "http://www.w3.org/Graphics/SVG/1.1/DTD/svg11.dtd">
<!-- Generated by graphviz version 2.34.0 (20130907.0111)
 -->
<!-- Title: StdoutThread::InitThread Pages: 1 -->
<svg width="530pt" height="170pt"
 viewBox="0.00 0.00 530.00 170.00" xmlns="http://www.w3.org/2000/svg" xmlns:xlink="http://www.w3.org/1999/xlink">
<g id="graph0" class="graph" transform="scale(1 1) rotate(0) translate(4 166)">
<title>StdoutThread::InitThread</title>
<polygon fill="white" stroke="white" points="-4,4 -4,-166 526,-166 526,4 -4,4"/>
<!-- Node1 -->
<g id="node1" class="node"><title>Node1</title>
<polygon fill="#bfbfbf" stroke="black" points="0,-100.5 0,-121.5 144,-121.5 144,-100.5 0,-100.5"/>
<text text-anchor="middle" x="72" y="-107.9" font-family="Helvetica,sans-Serif" font-size="12.00">StdoutThread::InitThread</text>
</g>
<!-- Node2 -->
<g id="node2" class="node"><title>Node2</title>
<g id="a_node2"><a xlink:href="../../d5/d52/class_stdout_redirect.html#a9dd34e73829d728660436c9d6b4d6d20" target="_top" xlink:title="StdoutRedirect::Init">
<polygon fill="white" stroke="black" points="200.5,-140.5 200.5,-161.5 315.5,-161.5 315.5,-140.5 200.5,-140.5"/>
<text text-anchor="middle" x="258" y="-147.9" font-family="Helvetica,sans-Serif" font-size="12.00">StdoutRedirect::Init</text>
</a>
</g>
</g>
<!-- Node1&#45;&gt;Node2 -->
<g id="edge1" class="edge"><title>Node1&#45;&gt;Node2</title>
<path fill="none" stroke="midnightblue" d="M121.344,-121.51C145.02,-126.657 173.719,-132.895 198.611,-138.307"/>
<polygon fill="midnightblue" stroke="midnightblue" points="198.145,-141.787 208.66,-140.491 199.632,-134.947 198.145,-141.787"/>
</g>
<!-- Node3 -->
<g id="node3" class="node"><title>Node3</title>
<g id="a_node3"><a xlink:href="../../d5/d52/class_stdout_redirect.html#a4151d5c4322285b87c3121e2f69dfc5e" target="_top" xlink:title="StdoutRedirect::Start">
<polygon fill="white" stroke="black" points="195.5,-100.5 195.5,-121.5 320.5,-121.5 320.5,-100.5 195.5,-100.5"/>
<text text-anchor="middle" x="258" y="-107.9" font-family="Helvetica,sans-Serif" font-size="12.00">StdoutRedirect::Start</text>
</a>
</g>
</g>
<!-- Node1&#45;&gt;Node3 -->
<g id="edge2" class="edge"><title>Node1&#45;&gt;Node3</title>
<path fill="none" stroke="midnightblue" d="M144.139,-111C157.597,-111 171.684,-111 185.163,-111"/>
<polygon fill="midnightblue" stroke="midnightblue" points="185.332,-114.5 195.332,-111 185.332,-107.5 185.332,-114.5"/>
</g>
<!-- Node4 -->
<g id="node4" class="node"><title>Node4</title>
<g id="a_node4"><a xlink:href="../../d5/d67/class_stdout_thread.html#a5527fa5fc7f110414f03e63b759bc4c3" target="_top" xlink:title="StdoutThread::ThreadProc">
<polygon fill="white" stroke="black" points="180.5,-60.5 180.5,-81.5 335.5,-81.5 335.5,-60.5 180.5,-60.5"/>
<text text-anchor="middle" x="258" y="-67.9" font-family="Helvetica,sans-Serif" font-size="12.00">StdoutThread::ThreadProc</text>
</a>
</g>
</g>
<!-- Node1&#45;&gt;Node4 -->
<g id="edge3" class="edge"><title>Node1&#45;&gt;Node4</title>
<path fill="none" stroke="midnightblue" d="M121.344,-100.49C145.02,-95.3434 173.719,-89.1046 198.611,-83.6933"/>
<polygon fill="midnightblue" stroke="midnightblue" points="199.632,-87.0532 208.66,-81.5087 198.145,-80.213 199.632,-87.0532"/>
</g>
<!-- Node5 -->
<g id="node5" class="node"><title>Node5</title>
<g id="a_node5"><a xlink:href="../../d6/d56/class_critical_c_string.html#a708b83f5264a7240ebc66018647363e7" target="_top" xlink:title="CriticalCString::Set">
<polygon fill="white" stroke="black" points="388.5,-120.5 388.5,-141.5 505.5,-141.5 505.5,-120.5 388.5,-120.5"/>
<text text-anchor="middle" x="447" y="-127.9" font-family="Helvetica,sans-Serif" font-size="12.00">CriticalCString::Set</text>
</a>
</g>
</g>
<!-- Node4&#45;&gt;Node5 -->
<g id="edge4" class="edge"><title>Node4&#45;&gt;Node5</title>
<path fill="none" stroke="midnightblue" d="M307.253,-81.5308C316.918,-84.1965 326.895,-87.3571 336,-91 352.994,-97.7995 355.04,-104.117 372,-111 377.827,-113.365 384.023,-115.538 390.255,-117.509"/>
<polygon fill="midnightblue" stroke="midnightblue" points="389.444,-120.92 400.028,-120.441 391.455,-114.215 389.444,-120.92"/>
</g>
<!-- Node6 -->
<g id="node6" class="node"><title>Node6</title>
<g id="a_node6"><a xlink:href="../../d5/d52/class_stdout_redirect.html#a00cab998df19e149495fd3f1671d1bff" target="_top" xlink:title="StdoutRedirect::GetBuffer">
<polygon fill="white" stroke="black" points="372,-80.5 372,-101.5 522,-101.5 522,-80.5 372,-80.5"/>
<text text-anchor="middle" x="447" y="-87.9" font-family="Helvetica,sans-Serif" font-size="12.00">StdoutRedirect::GetBuffer</text>
</a>
</g>
</g>
<!-- Node4&#45;&gt;Node6 -->
<g id="edge5" class="edge"><title>Node4&#45;&gt;Node6</title>
<path fill="none" stroke="midnightblue" d="M335.6,-79.1925C344.227,-80.1152 353.052,-81.0591 361.769,-81.9914"/>
<polygon fill="midnightblue" stroke="midnightblue" points="361.619,-85.4951 371.934,-83.0785 362.363,-78.5348 361.619,-85.4951"/>
</g>
<!-- Node7 -->
<g id="node7" class="node"><title>Node7</title>
<g id="a_node7"><a xlink:href="../../db/d23/_documentation_2_operator-_console_2_stdout_thread_8cpp.html#ace7ef40e0acb2373d17bd7a563643e9a" target="_top" xlink:title="FindChar">
<polygon fill="white" stroke="black" points="414.5,-40.5 414.5,-61.5 479.5,-61.5 479.5,-40.5 414.5,-40.5"/>
<text text-anchor="middle" x="447" y="-47.9" font-family="Helvetica,sans-Serif" font-size="12.00">FindChar</text>
</a>
</g>
</g>
<!-- Node4&#45;&gt;Node7 -->
<g id="edge6" class="edge"><title>Node4&#45;&gt;Node7</title>
<path fill="none" stroke="midnightblue" d="M335.6,-62.8075C358.962,-60.3088 383.781,-57.6544 403.957,-55.4965"/>
<polygon fill="midnightblue" stroke="midnightblue" points="404.482,-58.9605 414.053,-54.4168 403.737,-52.0002 404.482,-58.9605"/>
</g>
<!-- Node8 -->
<g id="node8" class="node"><title>Node8</title>
<g id="a_node8"><a xlink:href="../../d6/d56/class_critical_c_string.html#a1f9bbccd2c753e413ff341e4acb40454" target="_top" xlink:title="CriticalCString::Append">
<polygon fill="white" stroke="black" points="377,-0.5 377,-21.5 517,-21.5 517,-0.5 377,-0.5"/>
<text text-anchor="middle" x="447" y="-7.9" font-family="Helvetica,sans-Serif" font-size="12.00">CriticalCString::Append</text>
</a>
</g>
</g>
<!-- Node4&#45;&gt;Node8 -->
<g id="edge7" class="edge"><title>Node4&#45;&gt;Node8</title>
<path fill="none" stroke="midnightblue" d="M287.128,-60.3705C309.869,-51.9397 342.793,-40.1016 372,-31 379.415,-28.6893 387.295,-26.3928 395.042,-24.224"/>
<polygon fill="midnightblue" stroke="midnightblue" points="396.028,-27.5829 404.74,-21.5538 394.17,-20.8341 396.028,-27.5829"/>
</g>
</g>
</svg>
