<?xml version="1.0" encoding="UTF-8" standalone="no"?>
<!DOCTYPE svg PUBLIC "-//W3C//DTD SVG 1.1//EN"
 "http://www.w3.org/Graphics/SVG/1.1/DTD/svg11.dtd">
<!-- Generated by graphviz version 2.34.0 (20130907.0111)
 -->
<!-- Title: StdoutThread::Quit Pages: 1 -->
<svg width="470pt" height="42pt"
 viewBox="0.00 0.00 470.00 42.00" xmlns="http://www.w3.org/2000/svg" xmlns:xlink="http://www.w3.org/1999/xlink">
<g id="graph0" class="graph" transform="scale(1 1) rotate(0) translate(4 38)">
<title>StdoutThread::Quit</title>
<polygon fill="white" stroke="white" points="-4,4 -4,-38 466,-38 466,4 -4,4"/>
<!-- Node1 -->
<g id="node1" class="node"><title>Node1</title>
<polygon fill="#bfbfbf" stroke="black" points="0,-6.5 0,-27.5 114,-27.5 114,-6.5 0,-6.5"/>
<text text-anchor="middle" x="57" y="-13.9" font-family="Helvetica,sans-Serif" font-size="12.00">StdoutThread::Quit</text>
</g>
<!-- Node2 -->
<g id="node2" class="node"><title>Node2</title>
<g id="a_node2"><a xlink:href="../../d3/d9f/class_c_operator_console_app.html#a59dada996addd1a16a558b431bcb922e" target="_top" xlink:title="COperatorConsoleApp\l::Quit">
<polygon fill="white" stroke="black" points="150.5,-0 150.5,-34 287.5,-34 287.5,-0 150.5,-0"/>
<text text-anchor="start" x="158.5" y="-20.4" font-family="Helvetica,sans-Serif" font-size="12.00">COperatorConsoleApp</text>
<text text-anchor="middle" x="219" y="-7.4" font-family="Helvetica,sans-Serif" font-size="12.00">::Quit</text>
</a>
</g>
</g>
<!-- Node1&#45;&gt;Node2 -->
<g id="edge1" class="edge"><title>Node1&#45;&gt;Node2</title>
<path fill="none" stroke="midnightblue" d="M124.63,-17C133.115,-17 141.806,-17 150.308,-17"/>
<polygon fill="midnightblue" stroke="midnightblue" points="124.41,-13.5001 114.41,-17 124.41,-20.5001 124.41,-13.5001"/>
</g>
<!-- Node3 -->
<g id="node3" class="node"><title>Node3</title>
<g id="a_node3"><a xlink:href="../../d3/d9f/class_c_operator_console_app.html#a94f4b258145e77e31644beb999bf099a" target="_top" xlink:title="COperatorConsoleApp initialization. ">
<polygon fill="white" stroke="black" points="324.5,-0 324.5,-34 461.5,-34 461.5,-0 324.5,-0"/>
<text text-anchor="start" x="332.5" y="-20.4" font-family="Helvetica,sans-Serif" font-size="12.00">COperatorConsoleApp</text>
<text text-anchor="middle" x="393" y="-7.4" font-family="Helvetica,sans-Serif" font-size="12.00">::InitInstance</text>
</a>
</g>
</g>
<!-- Node2&#45;&gt;Node3 -->
<g id="edge2" class="edge"><title>Node2&#45;&gt;Node3</title>
<path fill="none" stroke="midnightblue" d="M298.134,-17C306.846,-17 315.666,-17 324.233,-17"/>
<polygon fill="midnightblue" stroke="midnightblue" points="297.979,-13.5001 287.979,-17 297.979,-20.5001 297.979,-13.5001"/>
</g>
</g>
</svg>
