<?xml version="1.0" encoding="UTF-8" standalone="no"?>
<!DOCTYPE svg PUBLIC "-//W3C//DTD SVG 1.1//EN"
 "http://www.w3.org/Graphics/SVG/1.1/DTD/svg11.dtd">
<!-- Generated by graphviz version 2.34.0 (20130907.0111)
 -->
<!-- Title: StdoutThread::Get Pages: 1 -->
<svg width="642pt" height="95pt"
 viewBox="0.00 0.00 642.00 95.00" xmlns="http://www.w3.org/2000/svg" xmlns:xlink="http://www.w3.org/1999/xlink">
<g id="graph0" class="graph" transform="scale(1 1) rotate(0) translate(4 91)">
<title>StdoutThread::Get</title>
<polygon fill="white" stroke="white" points="-4,4 -4,-91 638,-91 638,4 -4,4"/>
<!-- Node1 -->
<g id="node1" class="node"><title>Node1</title>
<polygon fill="#bfbfbf" stroke="black" points="0,-32.5 0,-53.5 112,-53.5 112,-32.5 0,-32.5"/>
<text text-anchor="middle" x="56" y="-39.9" font-family="Helvetica,sans-Serif" font-size="12.00">StdoutThread::Get</text>
</g>
<!-- Node2 -->
<g id="node2" class="node"><title>Node2</title>
<g id="a_node2"><a xlink:href="../../d3/d9f/class_c_operator_console_app.html#a5e4a6598aa6a33636d283e29f19c76ca" target="_top" xlink:title="COperatorConsoleApp\l::GetStdoutMsg">
<polygon fill="white" stroke="black" points="148.5,-26 148.5,-60 285.5,-60 285.5,-26 148.5,-26"/>
<text text-anchor="start" x="156.5" y="-46.4" font-family="Helvetica,sans-Serif" font-size="12.00">COperatorConsoleApp</text>
<text text-anchor="middle" x="217" y="-33.4" font-family="Helvetica,sans-Serif" font-size="12.00">::GetStdoutMsg</text>
</a>
</g>
</g>
<!-- Node1&#45;&gt;Node2 -->
<g id="edge1" class="edge"><title>Node1&#45;&gt;Node2</title>
<path fill="none" stroke="midnightblue" d="M122.442,-43C130.981,-43 139.744,-43 148.319,-43"/>
<polygon fill="midnightblue" stroke="midnightblue" points="122.164,-39.5001 112.164,-43 122.164,-46.5001 122.164,-39.5001"/>
</g>
<!-- Node3 -->
<g id="node3" class="node"><title>Node3</title>
<g id="a_node3"><a xlink:href="../../d3/d9f/class_c_operator_console_app.html#a5ffde398d86b31aa60e8dbb3cd0cf8f4" target="_top" xlink:title="Called after MSG_STDERR is received. ">
<polygon fill="white" stroke="black" points="322.5,-53 322.5,-87 459.5,-87 459.5,-53 322.5,-53"/>
<text text-anchor="start" x="330.5" y="-73.4" font-family="Helvetica,sans-Serif" font-size="12.00">COperatorConsoleApp</text>
<text text-anchor="middle" x="391" y="-60.4" font-family="Helvetica,sans-Serif" font-size="12.00">::OnUpdateStderr</text>
</a>
</g>
</g>
<!-- Node2&#45;&gt;Node3 -->
<g id="edge2" class="edge"><title>Node2&#45;&gt;Node3</title>
<path fill="none" stroke="midnightblue" d="M296.134,-55.2652C304.846,-56.6328 313.666,-58.0173 322.233,-59.3622"/>
<polygon fill="midnightblue" stroke="midnightblue" points="296.401,-51.7643 285.979,-53.6711 295.315,-58.6796 296.401,-51.7643"/>
</g>
<!-- Node5 -->
<g id="node5" class="node"><title>Node5</title>
<g id="a_node5"><a xlink:href="../../d3/d9f/class_c_operator_console_app.html#a1baba590ed8125440723c012ff6a4e77" target="_top" xlink:title="Called after MSG_STDOUT is received. ">
<polygon fill="white" stroke="black" points="322.5,-0 322.5,-34 459.5,-34 459.5,-0 322.5,-0"/>
<text text-anchor="start" x="330.5" y="-20.4" font-family="Helvetica,sans-Serif" font-size="12.00">COperatorConsoleApp</text>
<text text-anchor="middle" x="391" y="-7.4" font-family="Helvetica,sans-Serif" font-size="12.00">::OnUpdateStdout</text>
</a>
</g>
</g>
<!-- Node2&#45;&gt;Node5 -->
<g id="edge4" class="edge"><title>Node2&#45;&gt;Node5</title>
<path fill="none" stroke="midnightblue" d="M296.134,-31.189C304.846,-29.8721 313.666,-28.5389 322.233,-27.2438"/>
<polygon fill="midnightblue" stroke="midnightblue" points="295.343,-27.7687 285.979,-32.7241 296.39,-34.6901 295.343,-27.7687"/>
</g>
<!-- Node4 -->
<g id="node4" class="node"><title>Node4</title>
<g id="a_node4"><a xlink:href="../../d3/d9f/class_c_operator_console_app.html#a7041d197c4e6549f2cb7219981b4eec1" target="_top" xlink:title="Intercepts messages of interest before Windows or MFC. ">
<polygon fill="white" stroke="black" points="496,-26 496,-60 634,-60 634,-26 496,-26"/>
<text text-anchor="start" x="504" y="-46.4" font-family="Helvetica,sans-Serif" font-size="12.00">COperatorConsoleApp</text>
<text text-anchor="middle" x="565" y="-33.4" font-family="Helvetica,sans-Serif" font-size="12.00">::PreTranslateMessage</text>
</a>
</g>
</g>
<!-- Node3&#45;&gt;Node4 -->
<g id="edge3" class="edge"><title>Node3&#45;&gt;Node4</title>
<path fill="none" stroke="midnightblue" d="M470.054,-57.7474C478.696,-56.3907 487.446,-55.0171 495.952,-53.682"/>
<polygon fill="midnightblue" stroke="midnightblue" points="469.315,-54.3204 459.979,-59.3289 470.401,-61.2357 469.315,-54.3204"/>
</g>
<!-- Node5&#45;&gt;Node4 -->
<g id="edge5" class="edge"><title>Node5&#45;&gt;Node4</title>
<path fill="none" stroke="midnightblue" d="M470.054,-28.7988C478.696,-30.1052 487.446,-31.4279 495.952,-32.7136"/>
<polygon fill="midnightblue" stroke="midnightblue" points="470.39,-25.3099 459.979,-27.2759 469.343,-32.2313 470.39,-25.3099"/>
</g>
</g>
</svg>
