<?xml version="1.0" encoding="UTF-8" standalone="no"?>
<!DOCTYPE svg PUBLIC "-//W3C//DTD SVG 1.1//EN"
 "http://www.w3.org/Graphics/SVG/1.1/DTD/svg11.dtd">
<!-- Generated by graphviz version 2.34.0 (20130907.0111)
 -->
<!-- Title: StdoutThread::Quit Pages: 1 -->
<svg width="290pt" height="70pt"
 viewBox="0.00 0.00 290.00 70.00" xmlns="http://www.w3.org/2000/svg" xmlns:xlink="http://www.w3.org/1999/xlink">
<g id="graph0" class="graph" transform="scale(1 1) rotate(0) translate(4 66)">
<title>StdoutThread::Quit</title>
<polygon fill="white" stroke="white" points="-4,4 -4,-66 286,-66 286,4 -4,4"/>
<!-- Node1 -->
<g id="node1" class="node"><title>Node1</title>
<polygon fill="#bfbfbf" stroke="black" points="0,-20.5 0,-41.5 114,-41.5 114,-20.5 0,-20.5"/>
<text text-anchor="middle" x="57" y="-27.9" font-family="Helvetica,sans-Serif" font-size="12.00">StdoutThread::Quit</text>
</g>
<!-- Node2 -->
<g id="node2" class="node"><title>Node2</title>
<g id="a_node2"><a xlink:href="../../d5/d52/class_stdout_redirect.html#a16592c4b15073ca7825c04de07503eac" target="_top" xlink:title="StdoutRedirect::Close">
<polygon fill="white" stroke="black" points="150.5,-40.5 150.5,-61.5 281.5,-61.5 281.5,-40.5 150.5,-40.5"/>
<text text-anchor="middle" x="216" y="-47.9" font-family="Helvetica,sans-Serif" font-size="12.00">StdoutRedirect::Close</text>
</a>
</g>
</g>
<!-- Node1&#45;&gt;Node2 -->
<g id="edge1" class="edge"><title>Node1&#45;&gt;Node2</title>
<path fill="none" stroke="midnightblue" d="M114.237,-38.164C122.648,-39.2354 131.431,-40.3543 140.153,-41.4654"/>
<polygon fill="midnightblue" stroke="midnightblue" points="139.977,-44.9712 150.339,-42.763 140.862,-38.0273 139.977,-44.9712"/>
</g>
<!-- Node3 -->
<g id="node3" class="node"><title>Node3</title>
<g id="a_node3"><a xlink:href="../../d5/d52/class_stdout_redirect.html#a95ecf8bde26cbfb1bcdc77bf9311af57" target="_top" xlink:title="StdoutRedirect::Stop">
<polygon fill="white" stroke="black" points="153.5,-0.5 153.5,-21.5 278.5,-21.5 278.5,-0.5 153.5,-0.5"/>
<text text-anchor="middle" x="216" y="-7.9" font-family="Helvetica,sans-Serif" font-size="12.00">StdoutRedirect::Stop</text>
</a>
</g>
</g>
<!-- Node1&#45;&gt;Node3 -->
<g id="edge2" class="edge"><title>Node1&#45;&gt;Node3</title>
<path fill="none" stroke="midnightblue" d="M114.237,-23.836C123.641,-22.6381 133.509,-21.381 143.238,-20.1416"/>
<polygon fill="midnightblue" stroke="midnightblue" points="143.824,-23.5954 153.302,-18.8597 142.939,-16.6515 143.824,-23.5954"/>
</g>
</g>
</svg>
