<?xml version="1.0" encoding="UTF-8" standalone="no"?>
<!DOCTYPE svg PUBLIC "-//W3C//DTD SVG 1.1//EN"
 "http://www.w3.org/Graphics/SVG/1.1/DTD/svg11.dtd">
<!-- Generated by graphviz version 2.34.0 (20130907.0111)
 -->
<!-- Title: Documentation/Operator&#45;Console/JSON/JSONMemory.h Pages: 1 -->
<svg width="836pt" height="276pt"
 viewBox="0.00 0.00 836.00 276.00" xmlns="http://www.w3.org/2000/svg" xmlns:xlink="http://www.w3.org/1999/xlink">
<g id="graph0" class="graph" transform="scale(1 1) rotate(0) translate(4 272)">
<title>Documentation/Operator&#45;Console/JSON/JSONMemory.h</title>
<polygon fill="white" stroke="white" points="-4,4 -4,-272 832,-272 832,4 -4,4"/>
<!-- Node1 -->
<g id="node1" class="node"><title>Node1</title>
<polygon fill="#bfbfbf" stroke="black" points="29,-233 29,-267 213,-267 213,-233 29,-233"/>
<text text-anchor="start" x="37" y="-253.4" font-family="Helvetica,sans-Serif" font-size="12.00">Documentation/Operator</text>
<text text-anchor="middle" x="121" y="-240.4" font-family="Helvetica,sans-Serif" font-size="12.00">&#45;Console/JSON/JSONMemory.h</text>
</g>
<!-- Node2 -->
<g id="node2" class="node"><title>Node2</title>
<polygon fill="white" stroke="#bfbfbf" points="0,-174.5 0,-195.5 50,-195.5 50,-174.5 0,-174.5"/>
<text text-anchor="middle" x="25" y="-181.9" font-family="Helvetica,sans-Serif" font-size="12.00">cstdlib</text>
</g>
<!-- Node1&#45;&gt;Node2 -->
<g id="edge1" class="edge"><title>Node1&#45;&gt;Node2</title>
<path fill="none" stroke="midnightblue" d="M96.5268,-232.939C81.6216,-223.158 62.6953,-210.738 48.0558,-201.13"/>
<polygon fill="midnightblue" stroke="midnightblue" points="49.8497,-198.121 39.5689,-195.561 46.0091,-203.974 49.8497,-198.121"/>
</g>
<!-- Node3 -->
<g id="node3" class="node"><title>Node3</title>
<polygon fill="white" stroke="#bfbfbf" points="68.5,-174.5 68.5,-195.5 119.5,-195.5 119.5,-174.5 68.5,-174.5"/>
<text text-anchor="middle" x="94" y="-181.9" font-family="Helvetica,sans-Serif" font-size="12.00">cstring</text>
</g>
<!-- Node1&#45;&gt;Node3 -->
<g id="edge2" class="edge"><title>Node1&#45;&gt;Node3</title>
<path fill="none" stroke="midnightblue" d="M114.047,-232.776C110.408,-224.286 105.932,-213.842 102.134,-204.978"/>
<polygon fill="midnightblue" stroke="midnightblue" points="105.232,-203.323 98.076,-195.511 98.7982,-206.081 105.232,-203.323"/>
</g>
<!-- Node4 -->
<g id="node4" class="node"><title>Node4</title>
<g id="a_node4"><a xlink:href="../../de/d2a/_documentation_2_operator-_console_2_j_s_o_n_options_8h.html" target="_top" xlink:title="../JSONOptions.h">
<polygon fill="white" stroke="black" points="132.5,-0.5 132.5,-21.5 239.5,-21.5 239.5,-0.5 132.5,-0.5"/>
<text text-anchor="middle" x="186" y="-7.9" font-family="Helvetica,sans-Serif" font-size="12.00">../JSONOptions.h</text>
</a>
</g>
</g>
<!-- Node1&#45;&gt;Node4 -->
<g id="edge3" class="edge"><title>Node1&#45;&gt;Node4</title>
<path fill="none" stroke="midnightblue" d="M125.468,-232.71C137.074,-190.393 168.143,-77.1109 180.662,-31.4625"/>
<polygon fill="midnightblue" stroke="midnightblue" points="184.09,-32.1978 183.359,-21.6281 177.339,-30.3463 184.09,-32.1978"/>
</g>
<!-- Node5 -->
<g id="node5" class="node"><title>Node5</title>
<g id="a_node5"><a xlink:href="../../d5/d0f/_documentation_2_operator-_console_2_j_s_o_n_2_j_s_o_n_debug_8h.html" target="_top" xlink:title="JSONDebug.h">
<polygon fill="white" stroke="black" points="209,-174.5 209,-195.5 301,-195.5 301,-174.5 209,-174.5"/>
<text text-anchor="middle" x="255" y="-181.9" font-family="Helvetica,sans-Serif" font-size="12.00">JSONDebug.h</text>
</a>
</g>
</g>
<!-- Node1&#45;&gt;Node5 -->
<g id="edge4" class="edge"><title>Node1&#45;&gt;Node5</title>
<path fill="none" stroke="midnightblue" d="M155.161,-232.939C176.849,-222.743 204.637,-209.678 225.387,-199.922"/>
<polygon fill="midnightblue" stroke="midnightblue" points="227.104,-202.983 234.664,-195.561 224.125,-196.648 227.104,-202.983"/>
</g>
<!-- Node6 -->
<g id="node6" class="node"><title>Node6</title>
<g id="a_node6"><a xlink:href="../../da/dbf/_documentation_2_operator-_console_2_j_s_o_n_2_j_s_o_n_defs_8h.html" target="_top" xlink:title="JSONDefs.h">
<polygon fill="white" stroke="black" points="324,-116.5 324,-137.5 406,-137.5 406,-116.5 324,-116.5"/>
<text text-anchor="middle" x="365" y="-123.9" font-family="Helvetica,sans-Serif" font-size="12.00">JSONDefs.h</text>
</a>
</g>
</g>
<!-- Node5&#45;&gt;Node6 -->
<g id="edge5" class="edge"><title>Node5&#45;&gt;Node6</title>
<path fill="none" stroke="midnightblue" d="M274.161,-174.246C291.511,-165.413 317.29,-152.289 336.958,-142.276"/>
<polygon fill="midnightblue" stroke="midnightblue" points="338.735,-145.299 346.059,-137.643 335.559,-139.06 338.735,-145.299"/>
</g>
<!-- Node6&#45;&gt;Node4 -->
<g id="edge6" class="edge"><title>Node6&#45;&gt;Node4</title>
<path fill="none" stroke="midnightblue" d="M323.973,-124.957C287.887,-121.821 236.356,-111.591 205,-80 192.477,-67.3824 188.045,-47.2364 186.556,-32.1417"/>
<polygon fill="midnightblue" stroke="midnightblue" points="190.026,-31.5525 185.905,-21.7917 183.039,-31.9915 190.026,-31.5525"/>
</g>
<!-- Node7 -->
<g id="node7" class="node"><title>Node7</title>
<g id="a_node7"><a xlink:href="../../d3/d83/_documentation_2_operator-_console_2_j_s_o_n_2_j_s_o_n_defs_2_unknown___c_8h.html" target="_top" xlink:title="JSONDefs\\Unknown_C.h">
<polygon fill="white" stroke="black" points="214,-58.5 214,-79.5 362,-79.5 362,-58.5 214,-58.5"/>
<text text-anchor="middle" x="288" y="-65.9" font-family="Helvetica,sans-Serif" font-size="12.00">JSONDefs\Unknown_C.h</text>
</a>
</g>
</g>
<!-- Node6&#45;&gt;Node7 -->
<g id="edge7" class="edge"><title>Node6&#45;&gt;Node7</title>
<path fill="none" stroke="midnightblue" d="M351.588,-116.246C339.994,-107.814 323.025,-95.4729 309.532,-85.6598"/>
<polygon fill="midnightblue" stroke="midnightblue" points="311.405,-82.6938 301.259,-79.6427 307.287,-88.355 311.405,-82.6938"/>
</g>
<!-- Node8 -->
<g id="node8" class="node"><title>Node8</title>
<g id="a_node8"><a xlink:href="../../da/d53/_documentation_2_operator-_console_2_j_s_o_n_2_j_s_o_n_defs_2_g_n_u___c_8h.html" target="_top" xlink:title="JSONDefs\\GNU_C.h">
<polygon fill="white" stroke="black" points="380,-58.5 380,-79.5 506,-79.5 506,-58.5 380,-58.5"/>
<text text-anchor="middle" x="443" y="-65.9" font-family="Helvetica,sans-Serif" font-size="12.00">JSONDefs\GNU_C.h</text>
</a>
</g>
</g>
<!-- Node6&#45;&gt;Node8 -->
<g id="edge8" class="edge"><title>Node6&#45;&gt;Node8</title>
<path fill="none" stroke="midnightblue" d="M378.587,-116.246C390.33,-107.814 407.52,-95.4729 421.188,-85.6598"/>
<polygon fill="midnightblue" stroke="midnightblue" points="423.487,-88.3179 429.569,-79.6427 419.405,-82.6316 423.487,-88.3179"/>
</g>
<!-- Node9 -->
<g id="node9" class="node"><title>Node9</title>
<g id="a_node9"><a xlink:href="../../de/d63/_documentation_2_operator-_console_2_j_s_o_n_2_j_s_o_n_defs_2_visual___c_8h.html" target="_top" xlink:title="JSONDefs\\Visual_C.h">
<polygon fill="white" stroke="black" points="524.5,-58.5 524.5,-79.5 657.5,-79.5 657.5,-58.5 524.5,-58.5"/>
<text text-anchor="middle" x="591" y="-65.9" font-family="Helvetica,sans-Serif" font-size="12.00">JSONDefs\Visual_C.h</text>
</a>
</g>
</g>
<!-- Node6&#45;&gt;Node9 -->
<g id="edge9" class="edge"><title>Node6&#45;&gt;Node9</title>
<path fill="none" stroke="midnightblue" d="M403.594,-116.437C442.028,-106.913 501.136,-92.2672 542.671,-81.9753"/>
<polygon fill="midnightblue" stroke="midnightblue" points="543.701,-85.3261 552.565,-79.5237 542.017,-78.5316 543.701,-85.3261"/>
</g>
<!-- Node10 -->
<g id="node10" class="node"><title>Node10</title>
<g id="a_node10"><a xlink:href="../../d0/d89/_documentation_2_operator-_console_2_j_s_o_n_2_j_s_o_n_defs_2_strings___defs_8h.html" target="_top" xlink:title="JSONDefs\\Strings_Defs.h">
<polygon fill="white" stroke="black" points="675.5,-58.5 675.5,-79.5 828.5,-79.5 828.5,-58.5 675.5,-58.5"/>
<text text-anchor="middle" x="752" y="-65.9" font-family="Helvetica,sans-Serif" font-size="12.00">JSONDefs\Strings_Defs.h</text>
</a>
</g>
</g>
<!-- Node6&#45;&gt;Node10 -->
<g id="edge10" class="edge"><title>Node6&#45;&gt;Node10</title>
<path fill="none" stroke="midnightblue" d="M406.049,-120.06C470.223,-110.774 595.32,-92.6721 676.191,-80.9698"/>
<polygon fill="midnightblue" stroke="midnightblue" points="676.921,-84.4007 686.316,-79.5046 675.918,-77.4729 676.921,-84.4007"/>
</g>
<!-- Node10&#45;&gt;Node4 -->
<g id="edge11" class="edge"><title>Node10&#45;&gt;Node4</title>
<path fill="none" stroke="midnightblue" d="M675.115,-58.9818C672.037,-58.6455 668.989,-58.317 666,-58 516.954,-42.1943 341.608,-25.9973 249.65,-17.6871"/>
<polygon fill="midnightblue" stroke="midnightblue" points="249.94,-14.1991 239.666,-16.7862 249.311,-21.1708 249.94,-14.1991"/>
</g>
<!-- Node11 -->
<g id="node11" class="node"><title>Node11</title>
<polygon fill="white" stroke="#bfbfbf" points="725,-0.5 725,-21.5 779,-21.5 779,-0.5 725,-0.5"/>
<text text-anchor="middle" x="752" y="-7.9" font-family="Helvetica,sans-Serif" font-size="12.00">string.h</text>
</g>
<!-- Node10&#45;&gt;Node11 -->
<g id="edge12" class="edge"><title>Node10&#45;&gt;Node11</title>
<path fill="none" stroke="midnightblue" d="M752,-58.2455C752,-50.9382 752,-40.6944 752,-31.7046"/>
<polygon fill="midnightblue" stroke="midnightblue" points="755.5,-31.6426 752,-21.6427 748.5,-31.6427 755.5,-31.6426"/>
</g>
</g>
</svg>
