<?xml version="1.0" encoding="UTF-8" standalone="no"?>
<!DOCTYPE svg PUBLIC "-//W3C//DTD SVG 1.1//EN"
 "http://www.w3.org/Graphics/SVG/1.1/DTD/svg11.dtd">
<!-- Generated by graphviz version 2.34.0 (20130907.0111)
 -->
<!-- Title: minMaxEntry&lt; T &gt; Pages: 1 -->
<svg width="172pt" height="188pt"
 viewBox="0.00 0.00 172.00 188.00" xmlns="http://www.w3.org/2000/svg" xmlns:xlink="http://www.w3.org/1999/xlink">
<g id="graph0" class="graph" transform="scale(1 1) rotate(0) translate(4 184)">
<title>minMaxEntry&lt; T &gt;</title>
<polygon fill="white" stroke="white" points="-4,4 -4,-184 168,-184 168,4 -4,4"/>
<!-- Node1 -->
<g id="node1" class="node"><title>Node1</title>
<polygon fill="#bfbfbf" stroke="black" points="38,-0.5 38,-21.5 148,-21.5 148,-0.5 38,-0.5"/>
<text text-anchor="middle" x="93" y="-7.9" font-family="Helvetica,sans-Serif" font-size="12.00">minMaxEntry&lt; T &gt;</text>
</g>
<!-- Node2 -->
<g id="node2" class="node"><title>Node2</title>
<g id="a_node2"><a xlink:title="STL class. ">
<polygon fill="white" stroke="#bfbfbf" points="20.5,-84.5 20.5,-105.5 87.5,-105.5 87.5,-84.5 20.5,-84.5"/>
<text text-anchor="middle" x="54" y="-91.9" font-family="Helvetica,sans-Serif" font-size="12.00">std::string</text>
</a>
</g>
</g>
<!-- Node2&#45;&gt;Node1 -->
<g id="edge1" class="edge"><title>Node2&#45;&gt;Node1</title>
<path fill="none" stroke="#9a32cd" stroke-dasharray="5,2" d="M50.2814,-74.1497C49.2546,-63.4647 49.6308,-50.3856 55,-40 58.9892,-32.2838 66.1898,-26.157 73.2585,-21.6263"/>
<polygon fill="#9a32cd" stroke="#9a32cd" points="46.8379,-74.796 51.7087,-84.2048 53.7684,-73.8121 46.8379,-74.796"/>
<text text-anchor="middle" x="82.5" y="-49.9" font-family="Helvetica,sans-Serif" font-size="12.00"> data_type</text>
</g>
<!-- Node3 -->
<g id="node3" class="node"><title>Node3</title>
<g id="a_node3"><a xlink:title="STL class. ">
<polygon fill="white" stroke="#bfbfbf" points="-0.5,-145 -0.5,-179 108.5,-179 108.5,-145 -0.5,-145"/>
<text text-anchor="start" x="7.5" y="-165.4" font-family="Helvetica,sans-Serif" font-size="12.00">std::basic_string&lt;</text>
<text text-anchor="middle" x="54" y="-152.4" font-family="Helvetica,sans-Serif" font-size="12.00"> char &gt;</text>
</a>
</g>
</g>
<!-- Node3&#45;&gt;Node2 -->
<g id="edge2" class="edge"><title>Node3&#45;&gt;Node2</title>
<path fill="none" stroke="midnightblue" d="M54,-134.722C54,-124.452 54,-113.32 54,-105.639"/>
<polygon fill="midnightblue" stroke="midnightblue" points="50.5001,-134.933 54,-144.933 57.5001,-134.933 50.5001,-134.933"/>
</g>
<!-- Node4 -->
<g id="node4" class="node"><title>Node4</title>
<polygon fill="white" stroke="#bfbfbf" points="117.5,-84.5 117.5,-105.5 146.5,-105.5 146.5,-84.5 117.5,-84.5"/>
<text text-anchor="middle" x="132" y="-91.9" font-family="Helvetica,sans-Serif" font-size="12.00">T</text>
</g>
<!-- Node4&#45;&gt;Node1 -->
<g id="edge3" class="edge"><title>Node4&#45;&gt;Node1</title>
<path fill="none" stroke="#9a32cd" stroke-dasharray="5,2" d="M125.034,-74.8044C121.024,-64.3376 115.666,-51.258 110,-40 106.83,-33.701 102.742,-26.9348 99.3698,-21.6319"/>
<polygon fill="#9a32cd" stroke="#9a32cd" points="121.779,-76.0921 128.556,-84.236 128.336,-73.6434 121.779,-76.0921"/>
<text text-anchor="middle" x="142.5" y="-56.4" font-family="Helvetica,sans-Serif" font-size="12.00"> min_val</text>
<text text-anchor="middle" x="142.5" y="-43.4" font-family="Helvetica,sans-Serif" font-size="12.00">max_val</text>
</g>
</g>
</svg>
