<?xml version="1.0" encoding="UTF-8" standalone="no"?>
<!DOCTYPE svg PUBLIC "-//W3C//DTD SVG 1.1//EN"
 "http://www.w3.org/Graphics/SVG/1.1/DTD/svg11.dtd">
<!-- Generated by graphviz version 2.34.0 (20130907.0111)
 -->
<!-- Title: JSON/JSONDefs/Strings_Defs.h Pages: 1 -->
<svg width="196pt" height="102pt"
 viewBox="0.00 0.00 196.00 102.00" xmlns="http://www.w3.org/2000/svg" xmlns:xlink="http://www.w3.org/1999/xlink">
<g id="graph0" class="graph" transform="scale(1 1) rotate(0) translate(4 98)">
<title>JSON/JSONDefs/Strings_Defs.h</title>
<polygon fill="white" stroke="white" points="-4,4 -4,-98 192,-98 192,4 -4,4"/>
<!-- Node1 -->
<g id="node1" class="node"><title>Node1</title>
<polygon fill="#bfbfbf" stroke="black" points="35.5,-59 35.5,-93 182.5,-93 182.5,-59 35.5,-59"/>
<text text-anchor="start" x="43.5" y="-79.4" font-family="Helvetica,sans-Serif" font-size="12.00">JSON/JSONDefs/Strings</text>
<text text-anchor="middle" x="109" y="-66.4" font-family="Helvetica,sans-Serif" font-size="12.00">_Defs.h</text>
</g>
<!-- Node2 -->
<g id="node2" class="node"><title>Node2</title>
<g id="a_node2"><a xlink:href="../../dc/d13/_j_s_o_n_options_8h.html" target="_top" xlink:title="../../JSONOptions.h">
<polygon fill="white" stroke="black" points="0,-0.5 0,-21.5 116,-21.5 116,-0.5 0,-0.5"/>
<text text-anchor="middle" x="58" y="-7.9" font-family="Helvetica,sans-Serif" font-size="12.00">../../JSONOptions.h</text>
</a>
</g>
</g>
<!-- Node1&#45;&gt;Node2 -->
<g id="edge1" class="edge"><title>Node1&#45;&gt;Node2</title>
<path fill="none" stroke="midnightblue" d="M95.8662,-58.7759C88.6197,-49.8244 79.6153,-38.7012 72.2054,-29.5478"/>
<polygon fill="midnightblue" stroke="midnightblue" points="74.7115,-27.0809 65.6991,-21.5106 69.2707,-31.4853 74.7115,-27.0809"/>
</g>
<!-- Node3 -->
<g id="node3" class="node"><title>Node3</title>
<polygon fill="white" stroke="#bfbfbf" points="134,-0.5 134,-21.5 188,-21.5 188,-0.5 134,-0.5"/>
<text text-anchor="middle" x="161" y="-7.9" font-family="Helvetica,sans-Serif" font-size="12.00">string.h</text>
</g>
<!-- Node1&#45;&gt;Node3 -->
<g id="edge2" class="edge"><title>Node1&#45;&gt;Node3</title>
<path fill="none" stroke="midnightblue" d="M122.391,-58.7759C129.856,-49.7321 139.15,-38.4716 146.749,-29.2653"/>
<polygon fill="midnightblue" stroke="midnightblue" points="149.484,-31.4509 153.15,-21.5106 144.085,-26.9949 149.484,-31.4509"/>
</g>
</g>
</svg>
