<?xml version="1.0" encoding="UTF-8" standalone="no"?>
<!DOCTYPE svg PUBLIC "-//W3C//DTD SVG 1.1//EN"
 "http://www.w3.org/Graphics/SVG/1.1/DTD/svg11.dtd">
<!-- Generated by graphviz version 2.34.0 (20130907.0111)
 -->
<!-- Title: CriticalCString.cpp Pages: 1 -->
<svg width="125pt" height="146pt"
 viewBox="0.00 0.00 125.00 146.00" xmlns="http://www.w3.org/2000/svg" xmlns:xlink="http://www.w3.org/1999/xlink">
<g id="graph0" class="graph" transform="scale(1 1) rotate(0) translate(4 142)">
<title>CriticalCString.cpp</title>
<polygon fill="white" stroke="white" points="-4,4 -4,-142 121,-142 121,4 -4,4"/>
<!-- Node1 -->
<g id="node1" class="node"><title>Node1</title>
<polygon fill="#bfbfbf" stroke="black" points="1,-116.5 1,-137.5 117,-137.5 117,-116.5 1,-116.5"/>
<text text-anchor="middle" x="59" y="-123.9" font-family="Helvetica,sans-Serif" font-size="12.00">CriticalCString.cpp</text>
</g>
<!-- Node2 -->
<g id="node2" class="node"><title>Node2</title>
<g id="a_node2"><a xlink:href="../../d8/d50/_critical_c_string_8h.html" target="_top" xlink:title="CriticalCString.h">
<polygon fill="white" stroke="black" points="8,-58.5 8,-79.5 110,-79.5 110,-58.5 8,-58.5"/>
<text text-anchor="middle" x="59" y="-65.9" font-family="Helvetica,sans-Serif" font-size="12.00">CriticalCString.h</text>
</a>
</g>
</g>
<!-- Node1&#45;&gt;Node2 -->
<g id="edge1" class="edge"><title>Node1&#45;&gt;Node2</title>
<path fill="none" stroke="midnightblue" d="M59,-116.246C59,-108.938 59,-98.6944 59,-89.7046"/>
<polygon fill="midnightblue" stroke="midnightblue" points="62.5001,-89.6426 59,-79.6427 55.5001,-89.6427 62.5001,-89.6426"/>
</g>
<!-- Node3 -->
<g id="node3" class="node"><title>Node3</title>
<polygon fill="white" stroke="#bfbfbf" points="-0.5,-0.5 -0.5,-21.5 52.5,-21.5 52.5,-0.5 -0.5,-0.5"/>
<text text-anchor="middle" x="26" y="-7.9" font-family="Helvetica,sans-Serif" font-size="12.00">afxmt.h</text>
</g>
<!-- Node2&#45;&gt;Node3 -->
<g id="edge2" class="edge"><title>Node2&#45;&gt;Node3</title>
<path fill="none" stroke="midnightblue" d="M53.2518,-58.2455C48.7565,-50.617 42.3752,-39.7881 36.9175,-30.5267"/>
<polygon fill="midnightblue" stroke="midnightblue" points="39.7747,-28.4811 31.6823,-21.6427 33.7439,-32.035 39.7747,-28.4811"/>
</g>
<!-- Node4 -->
<g id="node4" class="node"><title>Node4</title>
<polygon fill="white" stroke="#bfbfbf" points="70.5,-0.5 70.5,-21.5 115.5,-21.5 115.5,-0.5 70.5,-0.5"/>
<text text-anchor="middle" x="93" y="-7.9" font-family="Helvetica,sans-Serif" font-size="12.00">string</text>
</g>
<!-- Node2&#45;&gt;Node4 -->
<g id="edge3" class="edge"><title>Node2&#45;&gt;Node4</title>
<path fill="none" stroke="midnightblue" d="M64.9223,-58.2455C69.6027,-50.5367 76.2673,-39.5598 81.9289,-30.2348"/>
<polygon fill="midnightblue" stroke="midnightblue" points="84.9475,-32.007 87.1455,-21.6427 78.9639,-28.3741 84.9475,-32.007"/>
</g>
</g>
</svg>
