<?xml version="1.0" encoding="UTF-8" standalone="no"?>
<!DOCTYPE svg PUBLIC "-//W3C//DTD SVG 1.1//EN"
 "http://www.w3.org/Graphics/SVG/1.1/DTD/svg11.dtd">
<!-- Generated by graphviz version 2.34.0 (20130907.0111)
 -->
<!-- Title: StderrRedirect.h Pages: 1 -->
<svg width="112pt" height="146pt"
 viewBox="0.00 0.00 112.00 146.00" xmlns="http://www.w3.org/2000/svg" xmlns:xlink="http://www.w3.org/1999/xlink">
<g id="graph0" class="graph" transform="scale(1 1) rotate(0) translate(4 142)">
<title>StderrRedirect.h</title>
<polygon fill="white" stroke="white" points="-4,4 -4,-142 108,-142 108,4 -4,4"/>
<!-- Node1 -->
<g id="node1" class="node"><title>Node1</title>
<polygon fill="#bfbfbf" stroke="black" points="1,-116.5 1,-137.5 103,-137.5 103,-116.5 1,-116.5"/>
<text text-anchor="middle" x="52" y="-123.9" font-family="Helvetica,sans-Serif" font-size="12.00">StderrRedirect.h</text>
</g>
<!-- Node2 -->
<g id="node2" class="node"><title>Node2</title>
<g id="a_node2"><a xlink:href="../../dc/dff/_stdout_redirect_8h.html" target="_top" xlink:title="StdoutRedirect.h">
<polygon fill="white" stroke="black" points="0,-58.5 0,-79.5 104,-79.5 104,-58.5 0,-58.5"/>
<text text-anchor="middle" x="52" y="-65.9" font-family="Helvetica,sans-Serif" font-size="12.00">StdoutRedirect.h</text>
</a>
</g>
</g>
<!-- Node1&#45;&gt;Node2 -->
<g id="edge1" class="edge"><title>Node1&#45;&gt;Node2</title>
<path fill="none" stroke="midnightblue" d="M52,-116.246C52,-108.938 52,-98.6944 52,-89.7046"/>
<polygon fill="midnightblue" stroke="midnightblue" points="55.5001,-89.6426 52,-79.6427 48.5001,-89.6427 55.5001,-89.6426"/>
</g>
<!-- Node3 -->
<g id="node3" class="node"><title>Node3</title>
<polygon fill="white" stroke="#bfbfbf" points="26.5,-0.5 26.5,-21.5 77.5,-21.5 77.5,-0.5 26.5,-0.5"/>
<text text-anchor="middle" x="52" y="-7.9" font-family="Helvetica,sans-Serif" font-size="12.00">stdio.h</text>
</g>
<!-- Node2&#45;&gt;Node3 -->
<g id="edge2" class="edge"><title>Node2&#45;&gt;Node3</title>
<path fill="none" stroke="midnightblue" d="M52,-58.2455C52,-50.9382 52,-40.6944 52,-31.7046"/>
<polygon fill="midnightblue" stroke="midnightblue" points="55.5001,-31.6426 52,-21.6427 48.5001,-31.6427 55.5001,-31.6426"/>
</g>
</g>
</svg>
