<?xml version="1.0" encoding="UTF-8" standalone="no"?>
<!DOCTYPE svg PUBLIC "-//W3C//DTD SVG 1.1//EN"
 "http://www.w3.org/Graphics/SVG/1.1/DTD/svg11.dtd">
<!-- Generated by graphviz version 2.34.0 (20130907.0111)
 -->
<!-- Title: ImageAcquisition::GetHeight Pages: 1 -->
<svg width="870pt" height="95pt"
 viewBox="0.00 0.00 870.00 95.00" xmlns="http://www.w3.org/2000/svg" xmlns:xlink="http://www.w3.org/1999/xlink">
<g id="graph0" class="graph" transform="scale(1 1) rotate(0) translate(4 91)">
<title>ImageAcquisition::GetHeight</title>
<polygon fill="white" stroke="white" points="-4,4 -4,-91 866,-91 866,4 -4,4"/>
<!-- Node1 -->
<g id="node1" class="node"><title>Node1</title>
<polygon fill="#bfbfbf" stroke="black" points="0.5,-32.5 0.5,-53.5 165.5,-53.5 165.5,-32.5 0.5,-32.5"/>
<text text-anchor="middle" x="83" y="-39.9" font-family="Helvetica,sans-Serif" font-size="12.00">ImageAcquisition::GetHeight</text>
</g>
<!-- Node2 -->
<g id="node2" class="node"><title>Node2</title>
<g id="a_node2"><a xlink:href="../../d3/d9f/class_c_operator_console_app.html#a51ad7e6e8f370072c3e89d0d7e9e41a8" target="_top" xlink:title="COperatorConsoleApp\l::InitBlemishThread">
<polygon fill="white" stroke="black" points="202.5,-53 202.5,-87 339.5,-87 339.5,-53 202.5,-53"/>
<text text-anchor="start" x="210.5" y="-73.4" font-family="Helvetica,sans-Serif" font-size="12.00">COperatorConsoleApp</text>
<text text-anchor="middle" x="271" y="-60.4" font-family="Helvetica,sans-Serif" font-size="12.00">::InitBlemishThread</text>
</a>
</g>
</g>
<!-- Node1&#45;&gt;Node2 -->
<g id="edge1" class="edge"><title>Node1&#45;&gt;Node2</title>
<path fill="none" stroke="midnightblue" d="M166.444,-54.9676C178.434,-56.7082 190.662,-58.4832 202.315,-60.1748"/>
<polygon fill="midnightblue" stroke="midnightblue" points="166.844,-51.4892 156.445,-53.5162 165.839,-58.4166 166.844,-51.4892"/>
</g>
<!-- Node8 -->
<g id="node8" class="node"><title>Node8</title>
<g id="a_node8"><a xlink:href="../../d3/d9f/class_c_operator_console_app.html#af7328d2c00abb1d4a09a65492c69b2b0" target="_top" xlink:title="COperatorConsoleApp\l::InitSFRplusThread">
<polygon fill="white" stroke="black" points="202.5,-0 202.5,-34 339.5,-34 339.5,-0 202.5,-0"/>
<text text-anchor="start" x="210.5" y="-20.4" font-family="Helvetica,sans-Serif" font-size="12.00">COperatorConsoleApp</text>
<text text-anchor="middle" x="271" y="-7.4" font-family="Helvetica,sans-Serif" font-size="12.00">::InitSFRplusThread</text>
</a>
</g>
</g>
<!-- Node1&#45;&gt;Node8 -->
<g id="edge7" class="edge"><title>Node1&#45;&gt;Node8</title>
<path fill="none" stroke="midnightblue" d="M169.262,-31.0816C180.375,-29.5283 191.635,-27.9542 202.404,-26.4489"/>
<polygon fill="midnightblue" stroke="midnightblue" points="168.536,-27.649 159.117,-32.4997 169.505,-34.5816 168.536,-27.649"/>
</g>
<!-- Node3 -->
<g id="node3" class="node"><title>Node3</title>
<g id="a_node3"><a xlink:href="../../d3/d9f/class_c_operator_console_app.html#a7f0cd7b21cee2171dea973e4e6e7bb9d" target="_top" xlink:title="Init perform application&#45;specific initialization. ">
<polygon fill="white" stroke="black" points="376.5,-53 376.5,-87 513.5,-87 513.5,-53 376.5,-53"/>
<text text-anchor="start" x="384.5" y="-73.4" font-family="Helvetica,sans-Serif" font-size="12.00">COperatorConsoleApp</text>
<text text-anchor="middle" x="445" y="-60.4" font-family="Helvetica,sans-Serif" font-size="12.00">::Init</text>
</a>
</g>
</g>
<!-- Node2&#45;&gt;Node3 -->
<g id="edge2" class="edge"><title>Node2&#45;&gt;Node3</title>
<path fill="none" stroke="midnightblue" d="M350.134,-70C358.846,-70 367.666,-70 376.233,-70"/>
<polygon fill="midnightblue" stroke="midnightblue" points="349.979,-66.5001 339.979,-70 349.979,-73.5001 349.979,-66.5001"/>
</g>
<!-- Node5 -->
<g id="node5" class="node"><title>Node5</title>
<g id="a_node5"><a xlink:href="../../d3/d9f/class_c_operator_console_app.html#aede77af6cae8053d49c752fd95910728" target="_top" xlink:title="This function allows for reallocation of the various image buffers when we change the image size...">
<polygon fill="white" stroke="black" points="376.5,-0 376.5,-34 513.5,-34 513.5,-0 376.5,-0"/>
<text text-anchor="start" x="384.5" y="-20.4" font-family="Helvetica,sans-Serif" font-size="12.00">COperatorConsoleApp</text>
<text text-anchor="middle" x="445" y="-7.4" font-family="Helvetica,sans-Serif" font-size="12.00">::ReInit</text>
</a>
</g>
</g>
<!-- Node2&#45;&gt;Node5 -->
<g id="edge4" class="edge"><title>Node2&#45;&gt;Node5</title>
<path fill="none" stroke="midnightblue" d="M337.212,-49.9056C354.193,-44.6732 372.324,-39.0863 388.735,-34.0293"/>
<polygon fill="midnightblue" stroke="midnightblue" points="335.895,-46.6491 327.369,-52.9387 337.956,-53.3387 335.895,-46.6491"/>
</g>
<!-- Node4 -->
<g id="node4" class="node"><title>Node4</title>
<g id="a_node4"><a xlink:href="../../d3/d9f/class_c_operator_console_app.html#a94f4b258145e77e31644beb999bf099a" target="_top" xlink:title="COperatorConsoleApp initialization. ">
<polygon fill="white" stroke="black" points="550.5,-53 550.5,-87 687.5,-87 687.5,-53 550.5,-53"/>
<text text-anchor="start" x="558.5" y="-73.4" font-family="Helvetica,sans-Serif" font-size="12.00">COperatorConsoleApp</text>
<text text-anchor="middle" x="619" y="-60.4" font-family="Helvetica,sans-Serif" font-size="12.00">::InitInstance</text>
</a>
</g>
</g>
<!-- Node3&#45;&gt;Node4 -->
<g id="edge3" class="edge"><title>Node3&#45;&gt;Node4</title>
<path fill="none" stroke="midnightblue" d="M524.134,-70C532.846,-70 541.666,-70 550.233,-70"/>
<polygon fill="midnightblue" stroke="midnightblue" points="523.979,-66.5001 513.979,-70 523.979,-73.5001 523.979,-66.5001"/>
</g>
<!-- Node6 -->
<g id="node6" class="node"><title>Node6</title>
<g id="a_node6"><a xlink:href="../../d3/d9f/class_c_operator_console_app.html#a620f8d2eed65d743bb177abcb90936e6" target="_top" xlink:title="Called after MSG_SETUP is received. ">
<polygon fill="white" stroke="black" points="550.5,-0 550.5,-34 687.5,-34 687.5,-0 550.5,-0"/>
<text text-anchor="start" x="558.5" y="-20.4" font-family="Helvetica,sans-Serif" font-size="12.00">COperatorConsoleApp</text>
<text text-anchor="middle" x="619" y="-7.4" font-family="Helvetica,sans-Serif" font-size="12.00">::OnSetup</text>
</a>
</g>
</g>
<!-- Node5&#45;&gt;Node6 -->
<g id="edge5" class="edge"><title>Node5&#45;&gt;Node6</title>
<path fill="none" stroke="midnightblue" d="M524.134,-17C532.846,-17 541.666,-17 550.233,-17"/>
<polygon fill="midnightblue" stroke="midnightblue" points="523.979,-13.5001 513.979,-17 523.979,-20.5001 523.979,-13.5001"/>
</g>
<!-- Node7 -->
<g id="node7" class="node"><title>Node7</title>
<g id="a_node7"><a xlink:href="../../d3/d9f/class_c_operator_console_app.html#a7041d197c4e6549f2cb7219981b4eec1" target="_top" xlink:title="Intercepts messages of interest before Windows or MFC. ">
<polygon fill="white" stroke="black" points="724,-0 724,-34 862,-34 862,-0 724,-0"/>
<text text-anchor="start" x="732" y="-20.4" font-family="Helvetica,sans-Serif" font-size="12.00">COperatorConsoleApp</text>
<text text-anchor="middle" x="793" y="-7.4" font-family="Helvetica,sans-Serif" font-size="12.00">::PreTranslateMessage</text>
</a>
</g>
</g>
<!-- Node6&#45;&gt;Node7 -->
<g id="edge6" class="edge"><title>Node6&#45;&gt;Node7</title>
<path fill="none" stroke="midnightblue" d="M698.054,-17C706.696,-17 715.446,-17 723.952,-17"/>
<polygon fill="midnightblue" stroke="midnightblue" points="697.979,-13.5001 687.979,-17 697.979,-20.5001 697.979,-13.5001"/>
</g>
<!-- Node8&#45;&gt;Node3 -->
<g id="edge8" class="edge"><title>Node8&#45;&gt;Node3</title>
<path fill="none" stroke="midnightblue" d="M337.212,-37.0944C354.193,-42.3268 372.324,-47.9137 388.735,-52.9707"/>
<polygon fill="midnightblue" stroke="midnightblue" points="337.956,-33.6613 327.369,-34.0613 335.895,-40.3509 337.956,-33.6613"/>
</g>
<!-- Node8&#45;&gt;Node5 -->
<g id="edge9" class="edge"><title>Node8&#45;&gt;Node5</title>
<path fill="none" stroke="midnightblue" d="M350.134,-17C358.846,-17 367.666,-17 376.233,-17"/>
<polygon fill="midnightblue" stroke="midnightblue" points="349.979,-13.5001 339.979,-17 349.979,-20.5001 349.979,-13.5001"/>
</g>
</g>
</svg>
