<?xml version="1.0" encoding="UTF-8" standalone="no"?>
<!DOCTYPE svg PUBLIC "-//W3C//DTD SVG 1.1//EN"
 "http://www.w3.org/Graphics/SVG/1.1/DTD/svg11.dtd">
<!-- Generated by graphviz version 2.34.0 (20130907.0111)
 -->
<!-- Title: ImageAcquisition::BytesPerFrame Pages: 1 -->
<svg width="866pt" height="95pt"
 viewBox="0.00 0.00 866.00 95.00" xmlns="http://www.w3.org/2000/svg" xmlns:xlink="http://www.w3.org/1999/xlink">
<g id="graph0" class="graph" transform="scale(1 1) rotate(0) translate(4 91)">
<title>ImageAcquisition::BytesPerFrame</title>
<polygon fill="white" stroke="white" points="-4,4 -4,-91 862,-91 862,4 -4,4"/>
<!-- Node1 -->
<g id="node1" class="node"><title>Node1</title>
<polygon fill="#bfbfbf" stroke="black" points="0.5,-26 0.5,-60 161.5,-60 161.5,-26 0.5,-26"/>
<text text-anchor="start" x="8.5" y="-46.4" font-family="Helvetica,sans-Serif" font-size="12.00">ImageAcquisition::BytesPer</text>
<text text-anchor="middle" x="81" y="-33.4" font-family="Helvetica,sans-Serif" font-size="12.00">Frame</text>
</g>
<!-- Node2 -->
<g id="node2" class="node"><title>Node2</title>
<g id="a_node2"><a xlink:href="../../d3/d9f/class_c_operator_console_app.html#aeb93b88acfe6d11d64f493f63f74bca6" target="_top" xlink:title="COperatorConsoleApp\l::AllocateImageBuf">
<polygon fill="white" stroke="black" points="198.5,-26 198.5,-60 335.5,-60 335.5,-26 198.5,-26"/>
<text text-anchor="start" x="206.5" y="-46.4" font-family="Helvetica,sans-Serif" font-size="12.00">COperatorConsoleApp</text>
<text text-anchor="middle" x="267" y="-33.4" font-family="Helvetica,sans-Serif" font-size="12.00">::AllocateImageBuf</text>
</a>
</g>
</g>
<!-- Node1&#45;&gt;Node2 -->
<g id="edge1" class="edge"><title>Node1&#45;&gt;Node2</title>
<path fill="none" stroke="midnightblue" d="M171.722,-43C180.684,-43 189.674,-43 198.353,-43"/>
<polygon fill="midnightblue" stroke="midnightblue" points="171.635,-39.5001 161.635,-43 171.635,-46.5001 171.635,-39.5001"/>
</g>
<!-- Node3 -->
<g id="node3" class="node"><title>Node3</title>
<g id="a_node3"><a xlink:href="../../d3/d9f/class_c_operator_console_app.html#a7f0cd7b21cee2171dea973e4e6e7bb9d" target="_top" xlink:title="Init perform application&#45;specific initialization. ">
<polygon fill="white" stroke="black" points="372.5,-53 372.5,-87 509.5,-87 509.5,-53 372.5,-53"/>
<text text-anchor="start" x="380.5" y="-73.4" font-family="Helvetica,sans-Serif" font-size="12.00">COperatorConsoleApp</text>
<text text-anchor="middle" x="441" y="-60.4" font-family="Helvetica,sans-Serif" font-size="12.00">::Init</text>
</a>
</g>
</g>
<!-- Node2&#45;&gt;Node3 -->
<g id="edge2" class="edge"><title>Node2&#45;&gt;Node3</title>
<path fill="none" stroke="midnightblue" d="M346.134,-55.2652C354.846,-56.6328 363.666,-58.0173 372.233,-59.3622"/>
<polygon fill="midnightblue" stroke="midnightblue" points="346.401,-51.7643 335.979,-53.6711 345.315,-58.6796 346.401,-51.7643"/>
</g>
<!-- Node5 -->
<g id="node5" class="node"><title>Node5</title>
<g id="a_node5"><a xlink:href="../../d3/d9f/class_c_operator_console_app.html#aede77af6cae8053d49c752fd95910728" target="_top" xlink:title="This function allows for reallocation of the various image buffers when we change the image size...">
<polygon fill="white" stroke="black" points="372.5,-0 372.5,-34 509.5,-34 509.5,-0 372.5,-0"/>
<text text-anchor="start" x="380.5" y="-20.4" font-family="Helvetica,sans-Serif" font-size="12.00">COperatorConsoleApp</text>
<text text-anchor="middle" x="441" y="-7.4" font-family="Helvetica,sans-Serif" font-size="12.00">::ReInit</text>
</a>
</g>
</g>
<!-- Node2&#45;&gt;Node5 -->
<g id="edge4" class="edge"><title>Node2&#45;&gt;Node5</title>
<path fill="none" stroke="midnightblue" d="M346.134,-31.189C354.846,-29.8721 363.666,-28.5389 372.233,-27.2438"/>
<polygon fill="midnightblue" stroke="midnightblue" points="345.343,-27.7687 335.979,-32.7241 346.39,-34.6901 345.343,-27.7687"/>
</g>
<!-- Node4 -->
<g id="node4" class="node"><title>Node4</title>
<g id="a_node4"><a xlink:href="../../d3/d9f/class_c_operator_console_app.html#a94f4b258145e77e31644beb999bf099a" target="_top" xlink:title="COperatorConsoleApp initialization. ">
<polygon fill="white" stroke="black" points="546.5,-53 546.5,-87 683.5,-87 683.5,-53 546.5,-53"/>
<text text-anchor="start" x="554.5" y="-73.4" font-family="Helvetica,sans-Serif" font-size="12.00">COperatorConsoleApp</text>
<text text-anchor="middle" x="615" y="-60.4" font-family="Helvetica,sans-Serif" font-size="12.00">::InitInstance</text>
</a>
</g>
</g>
<!-- Node3&#45;&gt;Node4 -->
<g id="edge3" class="edge"><title>Node3&#45;&gt;Node4</title>
<path fill="none" stroke="midnightblue" d="M520.134,-70C528.846,-70 537.666,-70 546.233,-70"/>
<polygon fill="midnightblue" stroke="midnightblue" points="519.979,-66.5001 509.979,-70 519.979,-73.5001 519.979,-66.5001"/>
</g>
<!-- Node6 -->
<g id="node6" class="node"><title>Node6</title>
<g id="a_node6"><a xlink:href="../../d3/d9f/class_c_operator_console_app.html#a620f8d2eed65d743bb177abcb90936e6" target="_top" xlink:title="Called after MSG_SETUP is received. ">
<polygon fill="white" stroke="black" points="546.5,-0 546.5,-34 683.5,-34 683.5,-0 546.5,-0"/>
<text text-anchor="start" x="554.5" y="-20.4" font-family="Helvetica,sans-Serif" font-size="12.00">COperatorConsoleApp</text>
<text text-anchor="middle" x="615" y="-7.4" font-family="Helvetica,sans-Serif" font-size="12.00">::OnSetup</text>
</a>
</g>
</g>
<!-- Node5&#45;&gt;Node6 -->
<g id="edge5" class="edge"><title>Node5&#45;&gt;Node6</title>
<path fill="none" stroke="midnightblue" d="M520.134,-17C528.846,-17 537.666,-17 546.233,-17"/>
<polygon fill="midnightblue" stroke="midnightblue" points="519.979,-13.5001 509.979,-17 519.979,-20.5001 519.979,-13.5001"/>
</g>
<!-- Node7 -->
<g id="node7" class="node"><title>Node7</title>
<g id="a_node7"><a xlink:href="../../d3/d9f/class_c_operator_console_app.html#a7041d197c4e6549f2cb7219981b4eec1" target="_top" xlink:title="Intercepts messages of interest before Windows or MFC. ">
<polygon fill="white" stroke="black" points="720,-0 720,-34 858,-34 858,-0 720,-0"/>
<text text-anchor="start" x="728" y="-20.4" font-family="Helvetica,sans-Serif" font-size="12.00">COperatorConsoleApp</text>
<text text-anchor="middle" x="789" y="-7.4" font-family="Helvetica,sans-Serif" font-size="12.00">::PreTranslateMessage</text>
</a>
</g>
</g>
<!-- Node6&#45;&gt;Node7 -->
<g id="edge6" class="edge"><title>Node6&#45;&gt;Node7</title>
<path fill="none" stroke="midnightblue" d="M694.054,-17C702.696,-17 711.446,-17 719.952,-17"/>
<polygon fill="midnightblue" stroke="midnightblue" points="693.979,-13.5001 683.979,-17 693.979,-20.5001 693.979,-13.5001"/>
</g>
</g>
</svg>
