<?xml version="1.0" encoding="UTF-8" standalone="no"?>
<!DOCTYPE svg PUBLIC "-//W3C//DTD SVG 1.1//EN"
 "http://www.w3.org/Graphics/SVG/1.1/DTD/svg11.dtd">
<!-- Generated by graphviz version 2.34.0 (20130907.0111)
 -->
<!-- Title: ImageAcquisition::GetWidth Pages: 1 -->
<svg width="866pt" height="95pt"
 viewBox="0.00 0.00 866.00 95.00" xmlns="http://www.w3.org/2000/svg" xmlns:xlink="http://www.w3.org/1999/xlink">
<g id="graph0" class="graph" transform="scale(1 1) rotate(0) translate(4 91)">
<title>ImageAcquisition::GetWidth</title>
<polygon fill="white" stroke="white" points="-4,4 -4,-91 862,-91 862,4 -4,4"/>
<!-- Node1 -->
<g id="node1" class="node"><title>Node1</title>
<polygon fill="#bfbfbf" stroke="black" points="0.5,-32.5 0.5,-53.5 161.5,-53.5 161.5,-32.5 0.5,-32.5"/>
<text text-anchor="middle" x="81" y="-39.9" font-family="Helvetica,sans-Serif" font-size="12.00">ImageAcquisition::GetWidth</text>
</g>
<!-- Node2 -->
<g id="node2" class="node"><title>Node2</title>
<g id="a_node2"><a xlink:href="../../d3/d9f/class_c_operator_console_app.html#a51ad7e6e8f370072c3e89d0d7e9e41a8" target="_top" xlink:title="COperatorConsoleApp\l::InitBlemishThread">
<polygon fill="white" stroke="black" points="198.5,-53 198.5,-87 335.5,-87 335.5,-53 198.5,-53"/>
<text text-anchor="start" x="206.5" y="-73.4" font-family="Helvetica,sans-Serif" font-size="12.00">COperatorConsoleApp</text>
<text text-anchor="middle" x="267" y="-60.4" font-family="Helvetica,sans-Serif" font-size="12.00">::InitBlemishThread</text>
</a>
</g>
</g>
<!-- Node1&#45;&gt;Node2 -->
<g id="edge1" class="edge"><title>Node1&#45;&gt;Node2</title>
<path fill="none" stroke="midnightblue" d="M163.773,-54.9994C175.36,-56.6996 187.167,-58.4321 198.444,-60.087"/>
<polygon fill="midnightblue" stroke="midnightblue" points="164.068,-51.5052 153.666,-53.5162 163.052,-58.4311 164.068,-51.5052"/>
</g>
<!-- Node8 -->
<g id="node8" class="node"><title>Node8</title>
<g id="a_node8"><a xlink:href="../../d3/d9f/class_c_operator_console_app.html#af7328d2c00abb1d4a09a65492c69b2b0" target="_top" xlink:title="COperatorConsoleApp\l::InitSFRplusThread">
<polygon fill="white" stroke="black" points="198.5,-0 198.5,-34 335.5,-34 335.5,-0 198.5,-0"/>
<text text-anchor="start" x="206.5" y="-20.4" font-family="Helvetica,sans-Serif" font-size="12.00">COperatorConsoleApp</text>
<text text-anchor="middle" x="267" y="-7.4" font-family="Helvetica,sans-Serif" font-size="12.00">::InitSFRplusThread</text>
</a>
</g>
</g>
<!-- Node1&#45;&gt;Node8 -->
<g id="edge7" class="edge"><title>Node1&#45;&gt;Node8</title>
<path fill="none" stroke="midnightblue" d="M166.462,-31.0652C177.113,-29.5601 187.901,-28.0358 198.248,-26.5737"/>
<polygon fill="midnightblue" stroke="midnightblue" points="165.721,-27.6349 156.309,-32.4997 166.701,-34.5661 165.721,-27.6349"/>
</g>
<!-- Node3 -->
<g id="node3" class="node"><title>Node3</title>
<g id="a_node3"><a xlink:href="../../d3/d9f/class_c_operator_console_app.html#a7f0cd7b21cee2171dea973e4e6e7bb9d" target="_top" xlink:title="Init perform application&#45;specific initialization. ">
<polygon fill="white" stroke="black" points="372.5,-53 372.5,-87 509.5,-87 509.5,-53 372.5,-53"/>
<text text-anchor="start" x="380.5" y="-73.4" font-family="Helvetica,sans-Serif" font-size="12.00">COperatorConsoleApp</text>
<text text-anchor="middle" x="441" y="-60.4" font-family="Helvetica,sans-Serif" font-size="12.00">::Init</text>
</a>
</g>
</g>
<!-- Node2&#45;&gt;Node3 -->
<g id="edge2" class="edge"><title>Node2&#45;&gt;Node3</title>
<path fill="none" stroke="midnightblue" d="M346.134,-70C354.846,-70 363.666,-70 372.233,-70"/>
<polygon fill="midnightblue" stroke="midnightblue" points="345.979,-66.5001 335.979,-70 345.979,-73.5001 345.979,-66.5001"/>
</g>
<!-- Node5 -->
<g id="node5" class="node"><title>Node5</title>
<g id="a_node5"><a xlink:href="../../d3/d9f/class_c_operator_console_app.html#aede77af6cae8053d49c752fd95910728" target="_top" xlink:title="This function allows for reallocation of the various image buffers when we change the image size...">
<polygon fill="white" stroke="black" points="372.5,-0 372.5,-34 509.5,-34 509.5,-0 372.5,-0"/>
<text text-anchor="start" x="380.5" y="-20.4" font-family="Helvetica,sans-Serif" font-size="12.00">COperatorConsoleApp</text>
<text text-anchor="middle" x="441" y="-7.4" font-family="Helvetica,sans-Serif" font-size="12.00">::ReInit</text>
</a>
</g>
</g>
<!-- Node2&#45;&gt;Node5 -->
<g id="edge4" class="edge"><title>Node2&#45;&gt;Node5</title>
<path fill="none" stroke="midnightblue" d="M333.212,-49.9056C350.193,-44.6732 368.324,-39.0863 384.735,-34.0293"/>
<polygon fill="midnightblue" stroke="midnightblue" points="331.895,-46.6491 323.369,-52.9387 333.956,-53.3387 331.895,-46.6491"/>
</g>
<!-- Node4 -->
<g id="node4" class="node"><title>Node4</title>
<g id="a_node4"><a xlink:href="../../d3/d9f/class_c_operator_console_app.html#a94f4b258145e77e31644beb999bf099a" target="_top" xlink:title="COperatorConsoleApp initialization. ">
<polygon fill="white" stroke="black" points="546.5,-53 546.5,-87 683.5,-87 683.5,-53 546.5,-53"/>
<text text-anchor="start" x="554.5" y="-73.4" font-family="Helvetica,sans-Serif" font-size="12.00">COperatorConsoleApp</text>
<text text-anchor="middle" x="615" y="-60.4" font-family="Helvetica,sans-Serif" font-size="12.00">::InitInstance</text>
</a>
</g>
</g>
<!-- Node3&#45;&gt;Node4 -->
<g id="edge3" class="edge"><title>Node3&#45;&gt;Node4</title>
<path fill="none" stroke="midnightblue" d="M520.134,-70C528.846,-70 537.666,-70 546.233,-70"/>
<polygon fill="midnightblue" stroke="midnightblue" points="519.979,-66.5001 509.979,-70 519.979,-73.5001 519.979,-66.5001"/>
</g>
<!-- Node6 -->
<g id="node6" class="node"><title>Node6</title>
<g id="a_node6"><a xlink:href="../../d3/d9f/class_c_operator_console_app.html#a620f8d2eed65d743bb177abcb90936e6" target="_top" xlink:title="Called after MSG_SETUP is received. ">
<polygon fill="white" stroke="black" points="546.5,-0 546.5,-34 683.5,-34 683.5,-0 546.5,-0"/>
<text text-anchor="start" x="554.5" y="-20.4" font-family="Helvetica,sans-Serif" font-size="12.00">COperatorConsoleApp</text>
<text text-anchor="middle" x="615" y="-7.4" font-family="Helvetica,sans-Serif" font-size="12.00">::OnSetup</text>
</a>
</g>
</g>
<!-- Node5&#45;&gt;Node6 -->
<g id="edge5" class="edge"><title>Node5&#45;&gt;Node6</title>
<path fill="none" stroke="midnightblue" d="M520.134,-17C528.846,-17 537.666,-17 546.233,-17"/>
<polygon fill="midnightblue" stroke="midnightblue" points="519.979,-13.5001 509.979,-17 519.979,-20.5001 519.979,-13.5001"/>
</g>
<!-- Node7 -->
<g id="node7" class="node"><title>Node7</title>
<g id="a_node7"><a xlink:href="../../d3/d9f/class_c_operator_console_app.html#a7041d197c4e6549f2cb7219981b4eec1" target="_top" xlink:title="Intercepts messages of interest before Windows or MFC. ">
<polygon fill="white" stroke="black" points="720,-0 720,-34 858,-34 858,-0 720,-0"/>
<text text-anchor="start" x="728" y="-20.4" font-family="Helvetica,sans-Serif" font-size="12.00">COperatorConsoleApp</text>
<text text-anchor="middle" x="789" y="-7.4" font-family="Helvetica,sans-Serif" font-size="12.00">::PreTranslateMessage</text>
</a>
</g>
</g>
<!-- Node6&#45;&gt;Node7 -->
<g id="edge6" class="edge"><title>Node6&#45;&gt;Node7</title>
<path fill="none" stroke="midnightblue" d="M694.054,-17C702.696,-17 711.446,-17 719.952,-17"/>
<polygon fill="midnightblue" stroke="midnightblue" points="693.979,-13.5001 683.979,-17 693.979,-20.5001 693.979,-13.5001"/>
</g>
<!-- Node8&#45;&gt;Node3 -->
<g id="edge8" class="edge"><title>Node8&#45;&gt;Node3</title>
<path fill="none" stroke="midnightblue" d="M333.212,-37.0944C350.193,-42.3268 368.324,-47.9137 384.735,-52.9707"/>
<polygon fill="midnightblue" stroke="midnightblue" points="333.956,-33.6613 323.369,-34.0613 331.895,-40.3509 333.956,-33.6613"/>
</g>
<!-- Node8&#45;&gt;Node5 -->
<g id="edge9" class="edge"><title>Node8&#45;&gt;Node5</title>
<path fill="none" stroke="midnightblue" d="M346.134,-17C354.846,-17 363.666,-17 372.233,-17"/>
<polygon fill="midnightblue" stroke="midnightblue" points="345.979,-13.5001 335.979,-17 345.979,-20.5001 345.979,-13.5001"/>
</g>
</g>
</svg>
