<?xml version="1.0" encoding="UTF-8" standalone="no"?>
<!DOCTYPE svg PUBLIC "-//W3C//DTD SVG 1.1//EN"
 "http://www.w3.org/Graphics/SVG/1.1/DTD/svg11.dtd">
<!-- Generated by graphviz version 2.34.0 (20130907.0111)
 -->
<!-- Title: ImageAcquisition::ThreadProc Pages: 1 -->
<svg width="374pt" height="83pt"
 viewBox="0.00 0.00 374.00 83.00" xmlns="http://www.w3.org/2000/svg" xmlns:xlink="http://www.w3.org/1999/xlink">
<g id="graph0" class="graph" transform="scale(1 1) rotate(0) translate(4 79)">
<title>ImageAcquisition::ThreadProc</title>
<polygon fill="white" stroke="white" points="-4,4 -4,-79 370,-79 370,4 -4,4"/>
<!-- Node1 -->
<g id="node1" class="node"><title>Node1</title>
<polygon fill="#bfbfbf" stroke="black" points="0,-23.5 0,-44.5 174,-44.5 174,-23.5 0,-23.5"/>
<text text-anchor="middle" x="87" y="-30.9" font-family="Helvetica,sans-Serif" font-size="12.00">ImageAcquisition::ThreadProc</text>
</g>
<!-- Node2 -->
<g id="node2" class="node"><title>Node2</title>
<g id="a_node2"><a xlink:href="../../d8/d29/class_image_acquisition.html#abb79a26a0c95f3fae6d5469ad936d12c" target="_top" xlink:title="capture a single image into m_buf ">
<polygon fill="white" stroke="black" points="210.5,-41 210.5,-75 365.5,-75 365.5,-41 210.5,-41"/>
<text text-anchor="start" x="218.5" y="-61.4" font-family="Helvetica,sans-Serif" font-size="12.00">ImageAcquisition::Capture</text>
<text text-anchor="middle" x="288" y="-48.4" font-family="Helvetica,sans-Serif" font-size="12.00">Frame</text>
</a>
</g>
</g>
<!-- Node1&#45;&gt;Node2 -->
<g id="edge1" class="edge"><title>Node1&#45;&gt;Node2</title>
<path fill="none" stroke="midnightblue" d="M174.127,-44.3872C182.809,-45.4343 191.63,-46.4981 200.318,-47.5459"/>
<polygon fill="midnightblue" stroke="midnightblue" points="200.093,-51.0441 210.441,-48.7667 200.932,-44.0944 200.093,-51.0441"/>
</g>
<!-- Node3 -->
<g id="node3" class="node"><title>Node3</title>
<g id="a_node3"><a xlink:href="../../d3/d1e/class_critical_buf.html#abeb31c8a1c19e03799e9a7ee4397d86b" target="_top" xlink:title="CriticalBuf::Set">
<polygon fill="white" stroke="black" points="240.5,-0.5 240.5,-21.5 335.5,-21.5 335.5,-0.5 240.5,-0.5"/>
<text text-anchor="middle" x="288" y="-7.9" font-family="Helvetica,sans-Serif" font-size="12.00">CriticalBuf::Set</text>
</a>
</g>
</g>
<!-- Node1&#45;&gt;Node3 -->
<g id="edge2" class="edge"><title>Node1&#45;&gt;Node3</title>
<path fill="none" stroke="midnightblue" d="M174.127,-24.0456C193.182,-21.8433 212.903,-19.564 230.426,-17.5387"/>
<polygon fill="midnightblue" stroke="midnightblue" points="230.936,-21.0032 240.468,-16.3781 230.132,-14.0494 230.936,-21.0032"/>
</g>
</g>
</svg>
