<?xml version="1.0" encoding="UTF-8" standalone="no"?>
<!DOCTYPE svg PUBLIC "-//W3C//DTD SVG 1.1//EN"
 "http://www.w3.org/Graphics/SVG/1.1/DTD/svg11.dtd">
<!-- Generated by graphviz version 2.34.0 (20130907.0111)
 -->
<!-- Title: ImageAcquisition::Init Pages: 1 -->
<svg width="982pt" height="174pt"
 viewBox="0.00 0.00 982.00 174.00" xmlns="http://www.w3.org/2000/svg" xmlns:xlink="http://www.w3.org/1999/xlink">
<g id="graph0" class="graph" transform="scale(1 1) rotate(0) translate(4 170)">
<title>ImageAcquisition::Init</title>
<polygon fill="white" stroke="white" points="-4,4 -4,-170 978,-170 978,4 -4,4"/>
<!-- Node1 -->
<g id="node1" class="node"><title>Node1</title>
<polygon fill="#bfbfbf" stroke="black" points="0.5,-39.5 0.5,-60.5 127.5,-60.5 127.5,-39.5 0.5,-39.5"/>
<text text-anchor="middle" x="64" y="-46.9" font-family="Helvetica,sans-Serif" font-size="12.00">ImageAcquisition::Init</text>
</g>
<!-- Node2 -->
<g id="node2" class="node"><title>Node2</title>
<g id="a_node2"><a xlink:href="../../db/def/class_file_acquisition.html#a797827242308ce8dba037e6c36ca4b30" target="_top" xlink:title="Initializes the buffers inherited from class ImageAcquisition with 2 bytes per pixel. ">
<polygon fill="white" stroke="black" points="164,-85.5 164,-106.5 278,-106.5 278,-85.5 164,-85.5"/>
<text text-anchor="middle" x="221" y="-92.9" font-family="Helvetica,sans-Serif" font-size="12.00">FileAcquisition::Init</text>
</a>
</g>
</g>
<!-- Node1&#45;&gt;Node2 -->
<g id="edge1" class="edge"><title>Node1&#45;&gt;Node2</title>
<path fill="none" stroke="midnightblue" d="M110.376,-63.4663C134.05,-70.4923 162.584,-78.9604 184.605,-85.4958"/>
<polygon fill="midnightblue" stroke="midnightblue" points="111.143,-60.0431 100.56,-60.5533 109.151,-66.7539 111.143,-60.0431"/>
</g>
<!-- Node10 -->
<g id="node10" class="node"><title>Node10</title>
<g id="a_node10"><a xlink:href="../../d3/d9f/class_c_operator_console_app.html#a74df2a3e42b3980069fa3946b67ecf79" target="_top" xlink:title="COperatorConsoleApp\l::InitCamera">
<polygon fill="white" stroke="black" points="314.5,-26 314.5,-60 451.5,-60 451.5,-26 314.5,-26"/>
<text text-anchor="start" x="322.5" y="-46.4" font-family="Helvetica,sans-Serif" font-size="12.00">COperatorConsoleApp</text>
<text text-anchor="middle" x="383" y="-33.4" font-family="Helvetica,sans-Serif" font-size="12.00">::InitCamera</text>
</a>
</g>
</g>
<!-- Node1&#45;&gt;Node10 -->
<g id="edge11" class="edge"><title>Node1&#45;&gt;Node10</title>
<path fill="none" stroke="midnightblue" d="M137.662,-48.3955C190.795,-47.2222 262.355,-45.642 314.292,-44.4951"/>
<polygon fill="midnightblue" stroke="midnightblue" points="137.549,-44.897 127.629,-48.617 137.704,-51.8953 137.549,-44.897"/>
</g>
<!-- Node11 -->
<g id="node11" class="node"><title>Node11</title>
<g id="a_node11"><a xlink:href="../../dc/d78/class_file_acq.html#afa3f029144b805b817b87dcae7fde0e6" target="_top" xlink:title="Loads a file first into the CImage object m_image, and then into m_buf inherited from class ImageAcqu...">
<polygon fill="white" stroke="black" points="175,-0.5 175,-21.5 267,-21.5 267,-0.5 175,-0.5"/>
<text text-anchor="middle" x="221" y="-7.9" font-family="Helvetica,sans-Serif" font-size="12.00">FileAcq::Open</text>
</a>
</g>
</g>
<!-- Node1&#45;&gt;Node11 -->
<g id="edge14" class="edge"><title>Node1&#45;&gt;Node11</title>
<path fill="none" stroke="midnightblue" d="M116.786,-36.97C136.691,-31.9615 159.149,-26.3108 178.021,-21.5624"/>
<polygon fill="midnightblue" stroke="midnightblue" points="115.789,-33.6117 106.945,-39.446 117.497,-40.4001 115.789,-33.6117"/>
</g>
<!-- Node3 -->
<g id="node3" class="node"><title>Node3</title>
<g id="a_node3"><a xlink:href="../../d3/d9f/class_c_operator_console_app.html#a8edea834120ba2acc0e16230ff5efb14" target="_top" xlink:title="COperatorConsoleApp\l::InitBlemishAcq">
<polygon fill="white" stroke="black" points="314.5,-79 314.5,-113 451.5,-113 451.5,-79 314.5,-79"/>
<text text-anchor="start" x="322.5" y="-99.4" font-family="Helvetica,sans-Serif" font-size="12.00">COperatorConsoleApp</text>
<text text-anchor="middle" x="383" y="-86.4" font-family="Helvetica,sans-Serif" font-size="12.00">::InitBlemishAcq</text>
</a>
</g>
</g>
<!-- Node2&#45;&gt;Node3 -->
<g id="edge2" class="edge"><title>Node2&#45;&gt;Node3</title>
<path fill="none" stroke="midnightblue" d="M288.63,-96C297.115,-96 305.806,-96 314.308,-96"/>
<polygon fill="midnightblue" stroke="midnightblue" points="288.41,-92.5001 278.41,-96 288.41,-99.5001 288.41,-92.5001"/>
</g>
<!-- Node9 -->
<g id="node9" class="node"><title>Node9</title>
<g id="a_node9"><a xlink:href="../../d3/d9f/class_c_operator_console_app.html#a7e42ecea8d8270d3b3cf9552abc00eba" target="_top" xlink:title="COperatorConsoleApp\l::InitSFRplusAcq">
<polygon fill="white" stroke="black" points="314.5,-132 314.5,-166 451.5,-166 451.5,-132 314.5,-132"/>
<text text-anchor="start" x="322.5" y="-152.4" font-family="Helvetica,sans-Serif" font-size="12.00">COperatorConsoleApp</text>
<text text-anchor="middle" x="383" y="-139.4" font-family="Helvetica,sans-Serif" font-size="12.00">::InitSFRplusAcq</text>
</a>
</g>
</g>
<!-- Node2&#45;&gt;Node9 -->
<g id="edge8" class="edge"><title>Node2&#45;&gt;Node9</title>
<path fill="none" stroke="midnightblue" d="M263.645,-109.795C284.09,-116.567 308.913,-124.79 330.536,-131.952"/>
<polygon fill="midnightblue" stroke="midnightblue" points="264.587,-106.42 253.994,-106.598 262.386,-113.065 264.587,-106.42"/>
</g>
<!-- Node4 -->
<g id="node4" class="node"><title>Node4</title>
<g id="a_node4"><a xlink:href="../../d3/d9f/class_c_operator_console_app.html#a7f0cd7b21cee2171dea973e4e6e7bb9d" target="_top" xlink:title="Init perform application&#45;specific initialization. ">
<polygon fill="white" stroke="black" points="488.5,-105 488.5,-139 625.5,-139 625.5,-105 488.5,-105"/>
<text text-anchor="start" x="496.5" y="-125.4" font-family="Helvetica,sans-Serif" font-size="12.00">COperatorConsoleApp</text>
<text text-anchor="middle" x="557" y="-112.4" font-family="Helvetica,sans-Serif" font-size="12.00">::Init</text>
</a>
</g>
</g>
<!-- Node3&#45;&gt;Node4 -->
<g id="edge3" class="edge"><title>Node3&#45;&gt;Node4</title>
<path fill="none" stroke="midnightblue" d="M462.134,-107.811C470.846,-109.128 479.666,-110.461 488.233,-111.756"/>
<polygon fill="midnightblue" stroke="midnightblue" points="462.39,-104.31 451.979,-106.276 461.343,-111.231 462.39,-104.31"/>
</g>
<!-- Node6 -->
<g id="node6" class="node"><title>Node6</title>
<g id="a_node6"><a xlink:href="../../d3/d9f/class_c_operator_console_app.html#aede77af6cae8053d49c752fd95910728" target="_top" xlink:title="This function allows for reallocation of the various image buffers when we change the image size...">
<polygon fill="white" stroke="black" points="488.5,-52 488.5,-86 625.5,-86 625.5,-52 488.5,-52"/>
<text text-anchor="start" x="496.5" y="-72.4" font-family="Helvetica,sans-Serif" font-size="12.00">COperatorConsoleApp</text>
<text text-anchor="middle" x="557" y="-59.4" font-family="Helvetica,sans-Serif" font-size="12.00">::ReInit</text>
</a>
</g>
</g>
<!-- Node3&#45;&gt;Node6 -->
<g id="edge5" class="edge"><title>Node3&#45;&gt;Node6</title>
<path fill="none" stroke="midnightblue" d="M462.134,-83.7348C470.846,-82.3672 479.666,-80.9827 488.233,-79.6378"/>
<polygon fill="midnightblue" stroke="midnightblue" points="461.315,-80.3204 451.979,-85.3289 462.401,-87.2357 461.315,-80.3204"/>
</g>
<!-- Node5 -->
<g id="node5" class="node"><title>Node5</title>
<g id="a_node5"><a xlink:href="../../d3/d9f/class_c_operator_console_app.html#a94f4b258145e77e31644beb999bf099a" target="_top" xlink:title="COperatorConsoleApp initialization. ">
<polygon fill="white" stroke="black" points="662.5,-105 662.5,-139 799.5,-139 799.5,-105 662.5,-105"/>
<text text-anchor="start" x="670.5" y="-125.4" font-family="Helvetica,sans-Serif" font-size="12.00">COperatorConsoleApp</text>
<text text-anchor="middle" x="731" y="-112.4" font-family="Helvetica,sans-Serif" font-size="12.00">::InitInstance</text>
</a>
</g>
</g>
<!-- Node4&#45;&gt;Node5 -->
<g id="edge4" class="edge"><title>Node4&#45;&gt;Node5</title>
<path fill="none" stroke="midnightblue" d="M636.134,-122C644.846,-122 653.666,-122 662.233,-122"/>
<polygon fill="midnightblue" stroke="midnightblue" points="635.979,-118.5 625.979,-122 635.979,-125.5 635.979,-118.5"/>
</g>
<!-- Node7 -->
<g id="node7" class="node"><title>Node7</title>
<g id="a_node7"><a xlink:href="../../d3/d9f/class_c_operator_console_app.html#a620f8d2eed65d743bb177abcb90936e6" target="_top" xlink:title="Called after MSG_SETUP is received. ">
<polygon fill="white" stroke="black" points="662.5,-52 662.5,-86 799.5,-86 799.5,-52 662.5,-52"/>
<text text-anchor="start" x="670.5" y="-72.4" font-family="Helvetica,sans-Serif" font-size="12.00">COperatorConsoleApp</text>
<text text-anchor="middle" x="731" y="-59.4" font-family="Helvetica,sans-Serif" font-size="12.00">::OnSetup</text>
</a>
</g>
</g>
<!-- Node6&#45;&gt;Node7 -->
<g id="edge6" class="edge"><title>Node6&#45;&gt;Node7</title>
<path fill="none" stroke="midnightblue" d="M636.134,-69C644.846,-69 653.666,-69 662.233,-69"/>
<polygon fill="midnightblue" stroke="midnightblue" points="635.979,-65.5001 625.979,-69 635.979,-72.5001 635.979,-65.5001"/>
</g>
<!-- Node8 -->
<g id="node8" class="node"><title>Node8</title>
<g id="a_node8"><a xlink:href="../../d3/d9f/class_c_operator_console_app.html#a7041d197c4e6549f2cb7219981b4eec1" target="_top" xlink:title="Intercepts messages of interest before Windows or MFC. ">
<polygon fill="white" stroke="black" points="836,-52 836,-86 974,-86 974,-52 836,-52"/>
<text text-anchor="start" x="844" y="-72.4" font-family="Helvetica,sans-Serif" font-size="12.00">COperatorConsoleApp</text>
<text text-anchor="middle" x="905" y="-59.4" font-family="Helvetica,sans-Serif" font-size="12.00">::PreTranslateMessage</text>
</a>
</g>
</g>
<!-- Node7&#45;&gt;Node8 -->
<g id="edge7" class="edge"><title>Node7&#45;&gt;Node8</title>
<path fill="none" stroke="midnightblue" d="M810.054,-69C818.696,-69 827.446,-69 835.952,-69"/>
<polygon fill="midnightblue" stroke="midnightblue" points="809.979,-65.5001 799.979,-69 809.979,-72.5001 809.979,-65.5001"/>
</g>
<!-- Node9&#45;&gt;Node4 -->
<g id="edge9" class="edge"><title>Node9&#45;&gt;Node4</title>
<path fill="none" stroke="midnightblue" d="M462.134,-136.735C470.846,-135.367 479.666,-133.983 488.233,-132.638"/>
<polygon fill="midnightblue" stroke="midnightblue" points="461.315,-133.32 451.979,-138.329 462.401,-140.236 461.315,-133.32"/>
</g>
<!-- Node9&#45;&gt;Node6 -->
<g id="edge10" class="edge"><title>Node9&#45;&gt;Node6</title>
<path fill="none" stroke="midnightblue" d="M440.669,-127.756C444.555,-125.917 448.367,-123.993 452,-122 469.304,-112.508 470.696,-105.492 488,-96 494.459,-92.4568 501.482,-89.1332 508.482,-86.1115"/>
<polygon fill="midnightblue" stroke="midnightblue" points="439.192,-124.583 431.518,-131.888 442.073,-130.963 439.192,-124.583"/>
</g>
<!-- Node10&#45;&gt;Node4 -->
<g id="edge12" class="edge"><title>Node10&#45;&gt;Node4</title>
<path fill="none" stroke="midnightblue" d="M440.426,-64.2268C444.391,-66.0767 448.285,-68.0069 452,-70 469.165,-79.2102 470.835,-85.7898 488,-95 494.604,-98.5434 501.775,-101.888 508.902,-104.936"/>
<polygon fill="midnightblue" stroke="midnightblue" points="441.656,-60.9429 431.098,-60.0638 438.803,-67.3352 441.656,-60.9429"/>
</g>
<!-- Node10&#45;&gt;Node6 -->
<g id="edge13" class="edge"><title>Node10&#45;&gt;Node6</title>
<path fill="none" stroke="midnightblue" d="M462.134,-54.811C470.846,-56.1279 479.666,-57.4611 488.233,-58.7562"/>
<polygon fill="midnightblue" stroke="midnightblue" points="462.39,-51.3099 451.979,-53.2759 461.343,-58.2313 462.39,-51.3099"/>
</g>
</g>
</svg>
