<?xml version="1.0" encoding="UTF-8" standalone="no"?>
<!DOCTYPE svg PUBLIC "-//W3C//DTD SVG 1.1//EN"
 "http://www.w3.org/Graphics/SVG/1.1/DTD/svg11.dtd">
<!-- Generated by graphviz version 2.34.0 (20130907.0111)
 -->
<!-- Title: ImageAcquisition::CaptureFrame Pages: 1 -->
<svg width="896pt" height="42pt"
 viewBox="0.00 0.00 896.00 42.00" xmlns="http://www.w3.org/2000/svg" xmlns:xlink="http://www.w3.org/1999/xlink">
<g id="graph0" class="graph" transform="scale(1 1) rotate(0) translate(4 38)">
<title>ImageAcquisition::CaptureFrame</title>
<polygon fill="white" stroke="white" points="-4,4 -4,-38 892,-38 892,4 -4,4"/>
<!-- Node1 -->
<g id="node1" class="node"><title>Node1</title>
<polygon fill="#bfbfbf" stroke="black" points="0.5,-0 0.5,-34 155.5,-34 155.5,-0 0.5,-0"/>
<text text-anchor="start" x="8.5" y="-20.4" font-family="Helvetica,sans-Serif" font-size="12.00">ImageAcquisition::Capture</text>
<text text-anchor="middle" x="78" y="-7.4" font-family="Helvetica,sans-Serif" font-size="12.00">Frame</text>
</g>
<!-- Node2 -->
<g id="node2" class="node"><title>Node2</title>
<g id="a_node2"><a xlink:href="../../d8/d29/class_image_acquisition.html#a87bc694942384075ece4dd9256215f0d" target="_top" xlink:title="ImageAcquisition::ThreadProc">
<polygon fill="white" stroke="black" points="192,-6.5 192,-27.5 366,-27.5 366,-6.5 192,-6.5"/>
<text text-anchor="middle" x="279" y="-13.9" font-family="Helvetica,sans-Serif" font-size="12.00">ImageAcquisition::ThreadProc</text>
</a>
</g>
</g>
<!-- Node1&#45;&gt;Node2 -->
<g id="edge1" class="edge"><title>Node1&#45;&gt;Node2</title>
<path fill="none" stroke="midnightblue" d="M165.723,-17C174.366,-17 183.139,-17 191.776,-17"/>
<polygon fill="midnightblue" stroke="midnightblue" points="165.654,-13.5001 155.654,-17 165.654,-20.5001 165.654,-13.5001"/>
</g>
<!-- Node3 -->
<g id="node3" class="node"><title>Node3</title>
<g id="a_node3"><a xlink:href="../../d3/d9f/class_c_operator_console_app.html#ae300ef0b301d72f897e75cdf10ff9752" target="_top" xlink:title="COperatorConsoleApp\l::InitCameraThread">
<polygon fill="white" stroke="black" points="402.5,-0 402.5,-34 539.5,-34 539.5,-0 402.5,-0"/>
<text text-anchor="start" x="410.5" y="-20.4" font-family="Helvetica,sans-Serif" font-size="12.00">COperatorConsoleApp</text>
<text text-anchor="middle" x="471" y="-7.4" font-family="Helvetica,sans-Serif" font-size="12.00">::InitCameraThread</text>
</a>
</g>
</g>
<!-- Node2&#45;&gt;Node3 -->
<g id="edge2" class="edge"><title>Node2&#45;&gt;Node3</title>
<path fill="none" stroke="midnightblue" d="M376.12,-17C385,-17 393.868,-17 402.411,-17"/>
<polygon fill="midnightblue" stroke="midnightblue" points="376.105,-13.5001 366.105,-17 376.105,-20.5001 376.105,-13.5001"/>
</g>
<!-- Node4 -->
<g id="node4" class="node"><title>Node4</title>
<g id="a_node4"><a xlink:href="../../d3/d9f/class_c_operator_console_app.html#a7f0cd7b21cee2171dea973e4e6e7bb9d" target="_top" xlink:title="Init perform application&#45;specific initialization. ">
<polygon fill="white" stroke="black" points="576.5,-0 576.5,-34 713.5,-34 713.5,-0 576.5,-0"/>
<text text-anchor="start" x="584.5" y="-20.4" font-family="Helvetica,sans-Serif" font-size="12.00">COperatorConsoleApp</text>
<text text-anchor="middle" x="645" y="-7.4" font-family="Helvetica,sans-Serif" font-size="12.00">::Init</text>
</a>
</g>
</g>
<!-- Node3&#45;&gt;Node4 -->
<g id="edge3" class="edge"><title>Node3&#45;&gt;Node4</title>
<path fill="none" stroke="midnightblue" d="M550.134,-17C558.846,-17 567.666,-17 576.233,-17"/>
<polygon fill="midnightblue" stroke="midnightblue" points="549.979,-13.5001 539.979,-17 549.979,-20.5001 549.979,-13.5001"/>
</g>
<!-- Node5 -->
<g id="node5" class="node"><title>Node5</title>
<g id="a_node5"><a xlink:href="../../d3/d9f/class_c_operator_console_app.html#a94f4b258145e77e31644beb999bf099a" target="_top" xlink:title="COperatorConsoleApp initialization. ">
<polygon fill="white" stroke="black" points="750.5,-0 750.5,-34 887.5,-34 887.5,-0 750.5,-0"/>
<text text-anchor="start" x="758.5" y="-20.4" font-family="Helvetica,sans-Serif" font-size="12.00">COperatorConsoleApp</text>
<text text-anchor="middle" x="819" y="-7.4" font-family="Helvetica,sans-Serif" font-size="12.00">::InitInstance</text>
</a>
</g>
</g>
<!-- Node4&#45;&gt;Node5 -->
<g id="edge4" class="edge"><title>Node4&#45;&gt;Node5</title>
<path fill="none" stroke="midnightblue" d="M724.134,-17C732.846,-17 741.666,-17 750.233,-17"/>
<polygon fill="midnightblue" stroke="midnightblue" points="723.979,-13.5001 713.979,-17 723.979,-20.5001 723.979,-13.5001"/>
</g>
</g>
</svg>
