<?xml version="1.0" encoding="UTF-8" standalone="no"?>
<!DOCTYPE svg PUBLIC "-//W3C//DTD SVG 1.1//EN"
 "http://www.w3.org/Graphics/SVG/1.1/DTD/svg11.dtd">
<!-- Generated by graphviz version 2.34.0 (20130907.0111)
 -->
<!-- Title: ImageAcquisition::GetInfo Pages: 1 -->
<svg width="680pt" height="95pt"
 viewBox="0.00 0.00 680.00 95.00" xmlns="http://www.w3.org/2000/svg" xmlns:xlink="http://www.w3.org/1999/xlink">
<g id="graph0" class="graph" transform="scale(1 1) rotate(0) translate(4 91)">
<title>ImageAcquisition::GetInfo</title>
<polygon fill="white" stroke="white" points="-4,4 -4,-91 676,-91 676,4 -4,4"/>
<!-- Node1 -->
<g id="node1" class="node"><title>Node1</title>
<polygon fill="#bfbfbf" stroke="black" points="0.5,-32.5 0.5,-53.5 149.5,-53.5 149.5,-32.5 0.5,-32.5"/>
<text text-anchor="middle" x="75" y="-39.9" font-family="Helvetica,sans-Serif" font-size="12.00">ImageAcquisition::GetInfo</text>
</g>
<!-- Node2 -->
<g id="node2" class="node"><title>Node2</title>
<g id="a_node2"><a xlink:href="../../d3/d9f/class_c_operator_console_app.html#a7f0cd7b21cee2171dea973e4e6e7bb9d" target="_top" xlink:title="Init perform application&#45;specific initialization. ">
<polygon fill="white" stroke="black" points="186.5,-53 186.5,-87 323.5,-87 323.5,-53 186.5,-53"/>
<text text-anchor="start" x="194.5" y="-73.4" font-family="Helvetica,sans-Serif" font-size="12.00">COperatorConsoleApp</text>
<text text-anchor="middle" x="255" y="-60.4" font-family="Helvetica,sans-Serif" font-size="12.00">::Init</text>
</a>
</g>
</g>
<!-- Node1&#45;&gt;Node2 -->
<g id="edge1" class="edge"><title>Node1&#45;&gt;Node2</title>
<path fill="none" stroke="midnightblue" d="M155.53,-55.0636C165.809,-56.6227 176.258,-58.2077 186.321,-59.7341"/>
<polygon fill="midnightblue" stroke="midnightblue" points="155.741,-51.5556 145.329,-53.5162 154.691,-58.4764 155.741,-51.5556"/>
</g>
<!-- Node4 -->
<g id="node4" class="node"><title>Node4</title>
<g id="a_node4"><a xlink:href="../../d3/d9f/class_c_operator_console_app.html#aede77af6cae8053d49c752fd95910728" target="_top" xlink:title="This function allows for reallocation of the various image buffers when we change the image size...">
<polygon fill="white" stroke="black" points="186.5,-0 186.5,-34 323.5,-34 323.5,-0 186.5,-0"/>
<text text-anchor="start" x="194.5" y="-20.4" font-family="Helvetica,sans-Serif" font-size="12.00">COperatorConsoleApp</text>
<text text-anchor="middle" x="255" y="-7.4" font-family="Helvetica,sans-Serif" font-size="12.00">::ReInit</text>
</a>
</g>
</g>
<!-- Node1&#45;&gt;Node4 -->
<g id="edge3" class="edge"><title>Node1&#45;&gt;Node4</title>
<path fill="none" stroke="midnightblue" d="M157.815,-31.0495C167.4,-29.6495 177.096,-28.2331 186.456,-26.866"/>
<polygon fill="midnightblue" stroke="midnightblue" points="157.275,-27.5911 147.886,-32.4997 158.287,-34.5176 157.275,-27.5911"/>
</g>
<!-- Node3 -->
<g id="node3" class="node"><title>Node3</title>
<g id="a_node3"><a xlink:href="../../d3/d9f/class_c_operator_console_app.html#a94f4b258145e77e31644beb999bf099a" target="_top" xlink:title="COperatorConsoleApp initialization. ">
<polygon fill="white" stroke="black" points="360.5,-53 360.5,-87 497.5,-87 497.5,-53 360.5,-53"/>
<text text-anchor="start" x="368.5" y="-73.4" font-family="Helvetica,sans-Serif" font-size="12.00">COperatorConsoleApp</text>
<text text-anchor="middle" x="429" y="-60.4" font-family="Helvetica,sans-Serif" font-size="12.00">::InitInstance</text>
</a>
</g>
</g>
<!-- Node2&#45;&gt;Node3 -->
<g id="edge2" class="edge"><title>Node2&#45;&gt;Node3</title>
<path fill="none" stroke="midnightblue" d="M334.134,-70C342.846,-70 351.666,-70 360.233,-70"/>
<polygon fill="midnightblue" stroke="midnightblue" points="333.979,-66.5001 323.979,-70 333.979,-73.5001 333.979,-66.5001"/>
</g>
<!-- Node5 -->
<g id="node5" class="node"><title>Node5</title>
<g id="a_node5"><a xlink:href="../../d3/d9f/class_c_operator_console_app.html#a620f8d2eed65d743bb177abcb90936e6" target="_top" xlink:title="Called after MSG_SETUP is received. ">
<polygon fill="white" stroke="black" points="360.5,-0 360.5,-34 497.5,-34 497.5,-0 360.5,-0"/>
<text text-anchor="start" x="368.5" y="-20.4" font-family="Helvetica,sans-Serif" font-size="12.00">COperatorConsoleApp</text>
<text text-anchor="middle" x="429" y="-7.4" font-family="Helvetica,sans-Serif" font-size="12.00">::OnSetup</text>
</a>
</g>
</g>
<!-- Node4&#45;&gt;Node5 -->
<g id="edge4" class="edge"><title>Node4&#45;&gt;Node5</title>
<path fill="none" stroke="midnightblue" d="M334.134,-17C342.846,-17 351.666,-17 360.233,-17"/>
<polygon fill="midnightblue" stroke="midnightblue" points="333.979,-13.5001 323.979,-17 333.979,-20.5001 333.979,-13.5001"/>
</g>
<!-- Node6 -->
<g id="node6" class="node"><title>Node6</title>
<g id="a_node6"><a xlink:href="../../d3/d9f/class_c_operator_console_app.html#a7041d197c4e6549f2cb7219981b4eec1" target="_top" xlink:title="Intercepts messages of interest before Windows or MFC. ">
<polygon fill="white" stroke="black" points="534,-0 534,-34 672,-34 672,-0 534,-0"/>
<text text-anchor="start" x="542" y="-20.4" font-family="Helvetica,sans-Serif" font-size="12.00">COperatorConsoleApp</text>
<text text-anchor="middle" x="603" y="-7.4" font-family="Helvetica,sans-Serif" font-size="12.00">::PreTranslateMessage</text>
</a>
</g>
</g>
<!-- Node5&#45;&gt;Node6 -->
<g id="edge5" class="edge"><title>Node5&#45;&gt;Node6</title>
<path fill="none" stroke="midnightblue" d="M508.054,-17C516.696,-17 525.446,-17 533.952,-17"/>
<polygon fill="midnightblue" stroke="midnightblue" points="507.979,-13.5001 497.979,-17 507.979,-20.5001 507.979,-13.5001"/>
</g>
</g>
</svg>
