<?xml version="1.0" encoding="UTF-8" standalone="no"?>
<!DOCTYPE svg PUBLIC "-//W3C//DTD SVG 1.1//EN"
 "http://www.w3.org/Graphics/SVG/1.1/DTD/svg11.dtd">
<!-- Generated by graphviz version 2.34.0 (20130907.0111)
 -->
<!-- Title: ImageAcquisition::GetFrame Pages: 1 -->
<svg width="522pt" height="95pt"
 viewBox="0.00 0.00 522.00 95.00" xmlns="http://www.w3.org/2000/svg" xmlns:xlink="http://www.w3.org/1999/xlink">
<g id="graph0" class="graph" transform="scale(1 1) rotate(0) translate(4 91)">
<title>ImageAcquisition::GetFrame</title>
<polygon fill="white" stroke="white" points="-4,4 -4,-91 518,-91 518,4 -4,4"/>
<!-- Node1 -->
<g id="node1" class="node"><title>Node1</title>
<polygon fill="#bfbfbf" stroke="black" points="0,-32.5 0,-53.5 166,-53.5 166,-32.5 0,-32.5"/>
<text text-anchor="middle" x="83" y="-39.9" font-family="Helvetica,sans-Serif" font-size="12.00">ImageAcquisition::GetFrame</text>
</g>
<!-- Node2 -->
<g id="node2" class="node"><title>Node2</title>
<g id="a_node2"><a xlink:href="../../d3/d9f/class_c_operator_console_app.html#a02d49d758d0b69a772df7b6ed00a013a" target="_top" xlink:title="Called after MSG_FRAME_READY is received. ">
<polygon fill="white" stroke="black" points="202.5,-53 202.5,-87 339.5,-87 339.5,-53 202.5,-53"/>
<text text-anchor="start" x="210.5" y="-73.4" font-family="Helvetica,sans-Serif" font-size="12.00">COperatorConsoleApp</text>
<text text-anchor="middle" x="271" y="-60.4" font-family="Helvetica,sans-Serif" font-size="12.00">::OnFrameReady</text>
</a>
</g>
</g>
<!-- Node1&#45;&gt;Node2 -->
<g id="edge1" class="edge"><title>Node1&#45;&gt;Node2</title>
<path fill="none" stroke="midnightblue" d="M166.444,-54.9676C178.434,-56.7082 190.662,-58.4832 202.315,-60.1748"/>
<polygon fill="midnightblue" stroke="midnightblue" points="166.844,-51.4892 156.445,-53.5162 165.839,-58.4166 166.844,-51.4892"/>
</g>
<!-- Node4 -->
<g id="node4" class="node"><title>Node4</title>
<g id="a_node4"><a xlink:href="../../d3/d9f/class_c_operator_console_app.html#a55ce42948d0ff61bbc0dc9aeb83855f7" target="_top" xlink:title="Called after MSG_RUN_TEST is received. ">
<polygon fill="white" stroke="black" points="202.5,-0 202.5,-34 339.5,-34 339.5,-0 202.5,-0"/>
<text text-anchor="start" x="210.5" y="-20.4" font-family="Helvetica,sans-Serif" font-size="12.00">COperatorConsoleApp</text>
<text text-anchor="middle" x="271" y="-7.4" font-family="Helvetica,sans-Serif" font-size="12.00">::OnRunTest</text>
</a>
</g>
</g>
<!-- Node1&#45;&gt;Node4 -->
<g id="edge3" class="edge"><title>Node1&#45;&gt;Node4</title>
<path fill="none" stroke="midnightblue" d="M169.262,-31.0816C180.375,-29.5283 191.635,-27.9542 202.404,-26.4489"/>
<polygon fill="midnightblue" stroke="midnightblue" points="168.536,-27.649 159.117,-32.4997 169.505,-34.5816 168.536,-27.649"/>
</g>
<!-- Node3 -->
<g id="node3" class="node"><title>Node3</title>
<g id="a_node3"><a xlink:href="../../d3/d9f/class_c_operator_console_app.html#a7041d197c4e6549f2cb7219981b4eec1" target="_top" xlink:title="Intercepts messages of interest before Windows or MFC. ">
<polygon fill="white" stroke="black" points="376,-26 376,-60 514,-60 514,-26 376,-26"/>
<text text-anchor="start" x="384" y="-46.4" font-family="Helvetica,sans-Serif" font-size="12.00">COperatorConsoleApp</text>
<text text-anchor="middle" x="445" y="-33.4" font-family="Helvetica,sans-Serif" font-size="12.00">::PreTranslateMessage</text>
</a>
</g>
</g>
<!-- Node2&#45;&gt;Node3 -->
<g id="edge2" class="edge"><title>Node2&#45;&gt;Node3</title>
<path fill="none" stroke="midnightblue" d="M350.054,-57.7474C358.696,-56.3907 367.446,-55.0171 375.952,-53.682"/>
<polygon fill="midnightblue" stroke="midnightblue" points="349.315,-54.3204 339.979,-59.3289 350.401,-61.2357 349.315,-54.3204"/>
</g>
<!-- Node4&#45;&gt;Node3 -->
<g id="edge4" class="edge"><title>Node4&#45;&gt;Node3</title>
<path fill="none" stroke="midnightblue" d="M350.054,-28.7988C358.696,-30.1052 367.446,-31.4279 375.952,-32.7136"/>
<polygon fill="midnightblue" stroke="midnightblue" points="350.39,-25.3099 339.979,-27.2759 349.343,-32.2313 350.39,-25.3099"/>
</g>
</g>
</svg>
