<?xml version="1.0" encoding="UTF-8" standalone="no"?>
<!DOCTYPE svg PUBLIC "-//W3C//DTD SVG 1.1//EN"
 "http://www.w3.org/Graphics/SVG/1.1/DTD/svg11.dtd">
<!-- Generated by graphviz version 2.34.0 (20130907.0111)
 -->
<!-- Title: JSON/JSONDebug.h Pages: 1 -->
<svg width="1562pt" height="610pt"
 viewBox="0.00 0.00 1562.00 610.00" xmlns="http://www.w3.org/2000/svg" xmlns:xlink="http://www.w3.org/1999/xlink">
<g id="graph0" class="graph" transform="scale(1 1) rotate(0) translate(4 606)">
<title>JSON/JSONDebug.h</title>
<polygon fill="white" stroke="white" points="-4,4 -4,-606 1558,-606 1558,4 -4,4"/>
<!-- Node1 -->
<g id="node1" class="node"><title>Node1</title>
<polygon fill="#bfbfbf" stroke="black" points="962.5,-580.5 962.5,-601.5 1089.5,-601.5 1089.5,-580.5 962.5,-580.5"/>
<text text-anchor="middle" x="1026" y="-587.9" font-family="Helvetica,sans-Serif" font-size="12.00">JSON/JSONDebug.h</text>
</g>
<!-- Node2 -->
<g id="node2" class="node"><title>Node2</title>
<g id="a_node2"><a xlink:href="../../d8/dcb/_j_s_o_n_node_8h.html" target="_top" xlink:title="JSON/JSONNode.h">
<polygon fill="white" stroke="black" points="700,-348.5 700,-369.5 820,-369.5 820,-348.5 700,-348.5"/>
<text text-anchor="middle" x="760" y="-355.9" font-family="Helvetica,sans-Serif" font-size="12.00">JSON/JSONNode.h</text>
</a>
</g>
</g>
<!-- Node1&#45;&gt;Node2 -->
<g id="edge1" class="edge"><title>Node1&#45;&gt;Node2</title>
<path fill="none" stroke="midnightblue" d="M1028.37,-570.114C1030.47,-543.15 1030.13,-494.828 1006,-464 960.701,-406.127 877.195,-380.05 820.157,-368.582"/>
<polygon fill="midnightblue" stroke="midnightblue" points="1024.87,-569.957 1027.39,-580.249 1031.84,-570.635 1024.87,-569.957"/>
</g>
<!-- Node26 -->
<g id="node26" class="node"><title>Node26</title>
<g id="a_node26"><a xlink:href="../../da/dde/_j_s_o_n_preparse_8h.html" target="_top" xlink:title="JSON/JSONPreparse.h">
<polygon fill="white" stroke="black" points="1051,-290.5 1051,-311.5 1191,-311.5 1191,-290.5 1051,-290.5"/>
<text text-anchor="middle" x="1121" y="-297.9" font-family="Helvetica,sans-Serif" font-size="12.00">JSON/JSONPreparse.h</text>
</a>
</g>
</g>
<!-- Node1&#45;&gt;Node26 -->
<g id="edge65" class="edge"><title>Node1&#45;&gt;Node26</title>
<path fill="none" stroke="midnightblue" d="M1099.95,-583.99C1167.53,-573.971 1257,-547.252 1257,-476 1257,-476 1257,-476 1257,-416 1257,-360.544 1189.76,-326.713 1149.84,-311.514"/>
<polygon fill="midnightblue" stroke="midnightblue" points="1099.16,-580.566 1089.73,-585.405 1100.12,-587.5 1099.16,-580.566"/>
</g>
<!-- Node32 -->
<g id="node32" class="node"><title>Node32</title>
<g id="a_node32"><a xlink:href="../../dd/db0/internal_j_s_o_n_node_8h.html" target="_top" xlink:title="JSON/internalJSONNode.h">
<polygon fill="white" stroke="black" points="571,-406.5 571,-427.5 729,-427.5 729,-406.5 571,-406.5"/>
<text text-anchor="middle" x="650" y="-413.9" font-family="Helvetica,sans-Serif" font-size="12.00">JSON/internalJSONNode.h</text>
</a>
</g>
</g>
<!-- Node1&#45;&gt;Node32 -->
<g id="edge39" class="edge"><title>Node1&#45;&gt;Node32</title>
<path fill="none" stroke="midnightblue" d="M951.913,-583.773C876.51,-576.523 765.419,-563.061 727,-544 693.775,-527.516 685.547,-518.119 667,-486 656.169,-467.242 652.181,-441.694 650.756,-427.867"/>
<polygon fill="midnightblue" stroke="midnightblue" points="952.019,-587.298 962.304,-584.755 952.678,-580.329 952.019,-587.298"/>
</g>
<!-- Node33 -->
<g id="node33" class="node"><title>Node33</title>
<g id="a_node33"><a xlink:href="../../de/dda/_j_s_o_n_memory_8h.html" target="_top" xlink:title="JSON/JSONMemory.h">
<polygon fill="white" stroke="black" points="736,-522.5 736,-543.5 870,-543.5 870,-522.5 736,-522.5"/>
<text text-anchor="middle" x="803" y="-529.9" font-family="Helvetica,sans-Serif" font-size="12.00">JSON/JSONMemory.h</text>
</a>
</g>
</g>
<!-- Node1&#45;&gt;Node33 -->
<g id="edge42" class="edge"><title>Node1&#45;&gt;Node33</title>
<path fill="none" stroke="midnightblue" d="M978.143,-577.982C937.111,-567.678 878.792,-553.033 840.925,-543.524"/>
<polygon fill="midnightblue" stroke="midnightblue" points="977.367,-581.396 987.918,-580.437 979.072,-574.607 977.367,-581.396"/>
</g>
<!-- Node34 -->
<g id="node34" class="node"><title>Node34</title>
<g id="a_node34"><a xlink:href="../../d5/d5d/_j_s_o_n_children_8h.html" target="_top" xlink:title="JSON/JSONChildren.h">
<polygon fill="white" stroke="black" points="862.5,-464.5 862.5,-485.5 997.5,-485.5 997.5,-464.5 862.5,-464.5"/>
<text text-anchor="middle" x="930" y="-471.9" font-family="Helvetica,sans-Serif" font-size="12.00">JSON/JSONChildren.h</text>
</a>
</g>
</g>
<!-- Node1&#45;&gt;Node34 -->
<g id="edge48" class="edge"><title>Node1&#45;&gt;Node34</title>
<path fill="none" stroke="midnightblue" d="M1011.29,-572.535C990.805,-548.206 954.371,-504.941 938.164,-485.695"/>
<polygon fill="midnightblue" stroke="midnightblue" points="1008.7,-574.886 1017.82,-580.28 1014.05,-570.377 1008.7,-574.886"/>
</g>
<!-- Node36 -->
<g id="node36" class="node"><title>Node36</title>
<g id="a_node36"><a xlink:href="../../df/de5/_j_s_o_n_shared_string_8h.html" target="_top" xlink:title="JSON/JSONSharedString.h">
<polygon fill="white" stroke="black" points="343.5,-464.5 343.5,-485.5 504.5,-485.5 504.5,-464.5 343.5,-464.5"/>
<text text-anchor="middle" x="424" y="-471.9" font-family="Helvetica,sans-Serif" font-size="12.00">JSON/JSONSharedString.h</text>
</a>
</g>
</g>
<!-- Node1&#45;&gt;Node36 -->
<g id="edge49" class="edge"><title>Node1&#45;&gt;Node36</title>
<path fill="none" stroke="midnightblue" d="M952.152,-586.734C869.59,-581.923 732.332,-570.442 617,-544 553.112,-529.353 481.066,-500.498 445.805,-485.523"/>
<polygon fill="midnightblue" stroke="midnightblue" points="952.01,-590.232 962.192,-587.302 952.406,-583.243 952.01,-590.232"/>
</g>
<!-- Node37 -->
<g id="node37" class="node"><title>Node37</title>
<g id="a_node37"><a xlink:href="../../d6/de4/_number_to_string_8h.html" target="_top" xlink:title="JSON/NumberToString.h">
<polygon fill="white" stroke="black" points="8,-406.5 8,-427.5 154,-427.5 154,-406.5 8,-406.5"/>
<text text-anchor="middle" x="81" y="-413.9" font-family="Helvetica,sans-Serif" font-size="12.00">JSON/NumberToString.h</text>
</a>
</g>
</g>
<!-- Node1&#45;&gt;Node37 -->
<g id="edge66" class="edge"><title>Node1&#45;&gt;Node37</title>
<path fill="none" stroke="midnightblue" d="M952.153,-587.065C856.09,-582.33 683.363,-570.678 538,-544 372.46,-513.619 179.772,-451.373 108.945,-427.558"/>
<polygon fill="midnightblue" stroke="midnightblue" points="952.186,-590.57 962.343,-587.555 952.523,-583.579 952.186,-590.57"/>
</g>
<!-- Node38 -->
<g id="node38" class="node"><title>Node38</title>
<g id="a_node38"><a xlink:href="../../d5/d4b/_j_s_o_n___base64_8h.html" target="_top" xlink:title="JSON/JSON_Base64.h">
<polygon fill="white" stroke="black" points="1054,-406.5 1054,-427.5 1194,-427.5 1194,-406.5 1054,-406.5"/>
<text text-anchor="middle" x="1124" y="-413.9" font-family="Helvetica,sans-Serif" font-size="12.00">JSON/JSON_Base64.h</text>
</a>
</g>
</g>
<!-- Node1&#45;&gt;Node38 -->
<g id="edge54" class="edge"><title>Node1&#45;&gt;Node38</title>
<path fill="none" stroke="midnightblue" d="M1036.73,-571.161C1057.57,-534.593 1102.82,-455.172 1118.51,-427.633"/>
<polygon fill="midnightblue" stroke="midnightblue" points="1033.46,-569.838 1031.55,-580.26 1039.54,-573.304 1033.46,-569.838"/>
</g>
<!-- Node40 -->
<g id="node40" class="node"><title>Node40</title>
<g id="a_node40"><a xlink:href="../../da/dce/_j_s_o_n_validator_8h.html" target="_top" xlink:title="JSON/JSONValidator.h">
<polygon fill="white" stroke="black" points="1395.5,-290.5 1395.5,-311.5 1534.5,-311.5 1534.5,-290.5 1395.5,-290.5"/>
<text text-anchor="middle" x="1465" y="-297.9" font-family="Helvetica,sans-Serif" font-size="12.00">JSON/JSONValidator.h</text>
</a>
</g>
</g>
<!-- Node1&#45;&gt;Node40 -->
<g id="edge58" class="edge"><title>Node1&#45;&gt;Node40</title>
<path fill="none" stroke="midnightblue" d="M1100.06,-583.287C1165.77,-576.193 1255.88,-563.33 1286,-544 1316.92,-524.157 1333,-512.739 1333,-476 1333,-476 1333,-476 1333,-416 1333,-361.193 1398.99,-326.899 1437.65,-311.509"/>
<polygon fill="midnightblue" stroke="midnightblue" points="1099.32,-579.846 1089.74,-584.376 1100.05,-586.807 1099.32,-579.846"/>
</g>
<!-- Node42 -->
<g id="node42" class="node"><title>Node42</title>
<g id="a_node42"><a xlink:href="../../d1/d39/_j_s_o_n_stream_8h.html" target="_top" xlink:title="JSON/JSONStream.h">
<polygon fill="white" stroke="black" points="1247,-290.5 1247,-311.5 1377,-311.5 1377,-290.5 1247,-290.5"/>
<text text-anchor="middle" x="1312" y="-297.9" font-family="Helvetica,sans-Serif" font-size="12.00">JSON/JSONStream.h</text>
</a>
</g>
</g>
<!-- Node1&#45;&gt;Node42 -->
<g id="edge62" class="edge"><title>Node1&#45;&gt;Node42</title>
<path fill="none" stroke="midnightblue" d="M1099.76,-589.039C1179.4,-583.632 1295,-561.123 1295,-476 1295,-476 1295,-476 1295,-416 1295,-376.979 1304.86,-331.26 1309.56,-311.687"/>
<polygon fill="midnightblue" stroke="midnightblue" points="1099.52,-585.547 1089.75,-589.643 1099.94,-592.534 1099.52,-585.547"/>
</g>
<!-- Node43 -->
<g id="node43" class="node"><title>Node43</title>
<g id="a_node43"><a xlink:href="../../d8/d1c/_j_s_o_n_debug_8cpp.html" target="_top" xlink:title="JSON/JSONDebug.cpp">
<polygon fill="white" stroke="black" points="1361,-522.5 1361,-543.5 1501,-543.5 1501,-522.5 1361,-522.5"/>
<text text-anchor="middle" x="1431" y="-529.9" font-family="Helvetica,sans-Serif" font-size="12.00">JSON/JSONDebug.cpp</text>
</a>
</g>
</g>
<!-- Node1&#45;&gt;Node43 -->
<g id="edge67" class="edge"><title>Node1&#45;&gt;Node43</title>
<path fill="none" stroke="midnightblue" d="M1100,-579.767C1174.78,-569.428 1289.38,-553.582 1362.23,-543.509"/>
<polygon fill="midnightblue" stroke="midnightblue" points="1099.15,-576.352 1089.73,-581.188 1100.11,-583.286 1099.15,-576.352"/>
</g>
<!-- Node3 -->
<g id="node3" class="node"><title>Node3</title>
<g id="a_node3"><a xlink:href="../../d1/d7d/libjson_8h.html" target="_top" xlink:title="libjson.h">
<polygon fill="white" stroke="black" points="1163.5,-232.5 1163.5,-253.5 1222.5,-253.5 1222.5,-232.5 1163.5,-232.5"/>
<text text-anchor="middle" x="1193" y="-239.9" font-family="Helvetica,sans-Serif" font-size="12.00">libjson.h</text>
</a>
</g>
</g>
<!-- Node2&#45;&gt;Node3 -->
<g id="edge2" class="edge"><title>Node2&#45;&gt;Node3</title>
<path fill="none" stroke="midnightblue" d="M780.31,-342.339C802.169,-326.366 838.586,-302.243 874,-290 992.582,-249.004 1030.78,-277.626 1154,-254 1157.02,-253.421 1160.15,-252.745 1163.27,-252.024"/>
<polygon fill="midnightblue" stroke="midnightblue" points="778.071,-339.642 772.144,-348.424 782.254,-345.255 778.071,-339.642"/>
</g>
<!-- Node21 -->
<g id="node21" class="node"><title>Node21</title>
<g id="a_node21"><a xlink:href="../../d8/d46/_j_s_o_n_worker_8h.html" target="_top" xlink:title="JSON/JSONWorker.h">
<polygon fill="white" stroke="black" points="151,-290.5 151,-311.5 281,-311.5 281,-290.5 151,-290.5"/>
<text text-anchor="middle" x="216" y="-297.9" font-family="Helvetica,sans-Serif" font-size="12.00">JSON/JSONWorker.h</text>
</a>
</g>
</g>
<!-- Node2&#45;&gt;Node21 -->
<g id="edge24" class="edge"><title>Node2&#45;&gt;Node21</title>
<path fill="none" stroke="midnightblue" d="M689.807,-351.941C597.863,-343.819 431.682,-328.501 290,-312 287.167,-311.67 284.275,-311.323 281.354,-310.964"/>
<polygon fill="midnightblue" stroke="midnightblue" points="689.56,-355.433 699.829,-352.824 690.174,-348.46 689.56,-355.433"/>
</g>
<!-- Node22 -->
<g id="node22" class="node"><title>Node22</title>
<g id="a_node22"><a xlink:href="../../dd/dde/internal_j_s_o_n_node_8cpp.html" target="_top" xlink:title="JSON/internalJSONNode.cpp">
<polygon fill="white" stroke="black" points="-0.5,-232.5 -0.5,-253.5 170.5,-253.5 170.5,-232.5 -0.5,-232.5"/>
<text text-anchor="middle" x="85" y="-239.9" font-family="Helvetica,sans-Serif" font-size="12.00">JSON/internalJSONNode.cpp</text>
</a>
</g>
</g>
<!-- Node2&#45;&gt;Node22 -->
<g id="edge33" class="edge"><title>Node2&#45;&gt;Node22</title>
<path fill="none" stroke="midnightblue" d="M689.77,-355.838C538.104,-350.73 189.731,-336.47 142,-312 116.503,-298.928 97.9665,-268.955 89.7356,-253.54"/>
<polygon fill="midnightblue" stroke="midnightblue" points="689.796,-359.341 699.907,-356.176 690.029,-352.345 689.796,-359.341"/>
</g>
<!-- Node25 -->
<g id="node25" class="node"><title>Node25</title>
<g id="a_node25"><a xlink:href="../../d8/d45/_j_s_o_n_writer_8cpp.html" target="_top" xlink:title="JSON/JSONWriter.cpp">
<polygon fill="white" stroke="black" points="549.5,-232.5 549.5,-253.5 686.5,-253.5 686.5,-232.5 549.5,-232.5"/>
<text text-anchor="middle" x="618" y="-239.9" font-family="Helvetica,sans-Serif" font-size="12.00">JSON/JSONWriter.cpp</text>
</a>
</g>
</g>
<!-- Node2&#45;&gt;Node25 -->
<g id="edge38" class="edge"><title>Node2&#45;&gt;Node25</title>
<path fill="none" stroke="midnightblue" d="M779.433,-341.565C794.041,-327.208 809.555,-306.189 797,-290 783.285,-272.315 731.365,-260.244 686.95,-252.921"/>
<polygon fill="midnightblue" stroke="midnightblue" points="777,-339.048 772.03,-348.405 781.75,-344.189 777,-339.048"/>
</g>
<!-- Node2&#45;&gt;Node26 -->
<g id="edge30" class="edge"><title>Node2&#45;&gt;Node26</title>
<path fill="none" stroke="midnightblue" d="M830.015,-347.139C896.672,-336.799 995.998,-321.391 1059.63,-311.52"/>
<polygon fill="midnightblue" stroke="midnightblue" points="829.362,-343.698 820.017,-348.69 830.435,-350.616 829.362,-343.698"/>
</g>
<!-- Node28 -->
<g id="node28" class="node"><title>Node28</title>
<g id="a_node28"><a xlink:href="../../dc/d59/_j_s_o_n_children_8cpp.html" target="_top" xlink:title="JSON/JSONChildren.cpp">
<polygon fill="white" stroke="black" points="883.5,-290.5 883.5,-311.5 1032.5,-311.5 1032.5,-290.5 883.5,-290.5"/>
<text text-anchor="middle" x="958" y="-297.9" font-family="Helvetica,sans-Serif" font-size="12.00">JSON/JSONChildren.cpp</text>
</a>
</g>
</g>
<!-- Node2&#45;&gt;Node28 -->
<g id="edge34" class="edge"><title>Node2&#45;&gt;Node28</title>
<path fill="none" stroke="midnightblue" d="M803.885,-345.588C840.262,-335.3 891.212,-320.889 924.407,-311.501"/>
<polygon fill="midnightblue" stroke="midnightblue" points="802.707,-342.284 794.037,-348.373 804.613,-349.02 802.707,-342.284"/>
</g>
<!-- Node29 -->
<g id="node29" class="node"><title>Node29</title>
<g id="a_node29"><a xlink:href="../../d8/de5/_j_s_o_n_iterators_8cpp.html" target="_top" xlink:title="JSON/JSONIterators.cpp">
<polygon fill="white" stroke="black" points="299.5,-290.5 299.5,-311.5 446.5,-311.5 446.5,-290.5 299.5,-290.5"/>
<text text-anchor="middle" x="373" y="-297.9" font-family="Helvetica,sans-Serif" font-size="12.00">JSON/JSONIterators.cpp</text>
</a>
</g>
</g>
<!-- Node2&#45;&gt;Node29 -->
<g id="edge35" class="edge"><title>Node2&#45;&gt;Node29</title>
<path fill="none" stroke="midnightblue" d="M689.702,-347.828C618.253,-337.489 508.436,-321.598 438.692,-311.506"/>
<polygon fill="midnightblue" stroke="midnightblue" points="689.558,-351.343 699.956,-349.311 690.56,-344.415 689.558,-351.343"/>
</g>
<!-- Node30 -->
<g id="node30" class="node"><title>Node30</title>
<g id="a_node30"><a xlink:href="../../d1/df2/_j_s_o_n_node_8cpp.html" target="_top" xlink:title="JSON/JSONNode.cpp">
<polygon fill="white" stroke="black" points="465,-290.5 465,-311.5 599,-311.5 599,-290.5 465,-290.5"/>
<text text-anchor="middle" x="532" y="-297.9" font-family="Helvetica,sans-Serif" font-size="12.00">JSON/JSONNode.cpp</text>
</a>
</g>
</g>
<!-- Node2&#45;&gt;Node30 -->
<g id="edge36" class="edge"><title>Node2&#45;&gt;Node30</title>
<path fill="none" stroke="midnightblue" d="M711.335,-346.047C669.37,-335.74 609.574,-321.053 570.775,-311.524"/>
<polygon fill="midnightblue" stroke="midnightblue" points="710.518,-349.451 721.064,-348.437 712.188,-342.653 710.518,-349.451"/>
</g>
<!-- Node31 -->
<g id="node31" class="node"><title>Node31</title>
<g id="a_node31"><a xlink:href="../../d7/d9f/_j_s_o_n_node___mutex_8cpp.html" target="_top" xlink:title="JSON/JSONNode_Mutex.cpp">
<polygon fill="white" stroke="black" points="617.5,-290.5 617.5,-311.5 788.5,-311.5 788.5,-290.5 617.5,-290.5"/>
<text text-anchor="middle" x="703" y="-297.9" font-family="Helvetica,sans-Serif" font-size="12.00">JSON/JSONNode_Mutex.cpp</text>
</a>
</g>
</g>
<!-- Node2&#45;&gt;Node31 -->
<g id="edge37" class="edge"><title>Node2&#45;&gt;Node31</title>
<path fill="none" stroke="midnightblue" d="M742.773,-341.075C732.966,-331.44 721.036,-319.72 712.815,-311.643"/>
<polygon fill="midnightblue" stroke="midnightblue" points="740.485,-343.734 750.071,-348.246 745.391,-338.741 740.485,-343.734"/>
</g>
<!-- Node4 -->
<g id="node4" class="node"><title>Node4</title>
<g id="a_node4"><a xlink:href="../../d9/da7/_image_test_8h.html" target="_top" xlink:title="ImageTest.h">
<polygon fill="white" stroke="black" points="977,-174.5 977,-195.5 1057,-195.5 1057,-174.5 977,-174.5"/>
<text text-anchor="middle" x="1017" y="-181.9" font-family="Helvetica,sans-Serif" font-size="12.00">ImageTest.h</text>
</a>
</g>
</g>
<!-- Node3&#45;&gt;Node4 -->
<g id="edge3" class="edge"><title>Node3&#45;&gt;Node4</title>
<path fill="none" stroke="midnightblue" d="M1153.57,-229.455C1121.32,-219.192 1076.38,-204.895 1047,-195.546"/>
<polygon fill="midnightblue" stroke="midnightblue" points="1152.55,-232.803 1163.14,-232.5 1154.68,-226.133 1152.55,-232.803"/>
</g>
<!-- Node18 -->
<g id="node18" class="node"><title>Node18</title>
<g id="a_node18"><a xlink:href="../../dc/d7a/_s_f_rplus_test_8cpp.html" target="_top" xlink:title="SFRplusTest.cpp">
<polygon fill="white" stroke="black" points="1120.5,-58.5 1120.5,-79.5 1227.5,-79.5 1227.5,-58.5 1120.5,-58.5"/>
<text text-anchor="middle" x="1174" y="-65.9" font-family="Helvetica,sans-Serif" font-size="12.00">SFRplusTest.cpp</text>
</a>
</g>
</g>
<!-- Node3&#45;&gt;Node18 -->
<g id="edge23" class="edge"><title>Node3&#45;&gt;Node18</title>
<path fill="none" stroke="midnightblue" d="M1181.74,-223.332C1177.48,-215.233 1173.14,-205.452 1171,-196 1161.37,-153.535 1168.52,-100.953 1172.19,-79.6423"/>
<polygon fill="midnightblue" stroke="midnightblue" points="1178.79,-225.239 1186.74,-232.243 1184.9,-221.81 1178.79,-225.239"/>
</g>
<!-- Node19 -->
<g id="node19" class="node"><title>Node19</title>
<g id="a_node19"><a xlink:href="../../df/d2a/libjson_8cpp.html" target="_top" xlink:title="JSON/libjson.cpp">
<polygon fill="white" stroke="black" points="1180.5,-174.5 1180.5,-195.5 1287.5,-195.5 1287.5,-174.5 1180.5,-174.5"/>
<text text-anchor="middle" x="1234" y="-181.9" font-family="Helvetica,sans-Serif" font-size="12.00">JSON/libjson.cpp</text>
</a>
</g>
</g>
<!-- Node3&#45;&gt;Node19 -->
<g id="edge21" class="edge"><title>Node3&#45;&gt;Node19</title>
<path fill="none" stroke="midnightblue" d="M1206.24,-223.921C1213.12,-214.518 1221.26,-203.4 1226.94,-195.643"/>
<polygon fill="midnightblue" stroke="midnightblue" points="1203.23,-222.109 1200.14,-232.246 1208.87,-226.244 1203.23,-222.109"/>
</g>
<!-- Node20 -->
<g id="node20" class="node"><title>Node20</title>
<g id="a_node20"><a xlink:href="../../d7/d4a/jsonhelpers_8cpp.html" target="_top" xlink:title="jsonhelpers.cpp">
<polygon fill="white" stroke="black" points="1306,-174.5 1306,-195.5 1404,-195.5 1404,-174.5 1306,-174.5"/>
<text text-anchor="middle" x="1355" y="-181.9" font-family="Helvetica,sans-Serif" font-size="12.00">jsonhelpers.cpp</text>
</a>
</g>
</g>
<!-- Node3&#45;&gt;Node20 -->
<g id="edge22" class="edge"><title>Node3&#45;&gt;Node20</title>
<path fill="none" stroke="midnightblue" d="M1230.44,-229.057C1260.09,-218.808 1300.82,-204.729 1327.51,-195.501"/>
<polygon fill="midnightblue" stroke="midnightblue" points="1229.16,-225.798 1220.85,-232.373 1231.44,-232.414 1229.16,-225.798"/>
</g>
<!-- Node5 -->
<g id="node5" class="node"><title>Node5</title>
<g id="a_node5"><a xlink:href="../../dc/d69/_blemish_test_8h.html" target="_top" xlink:title="BlemishTest.h">
<polygon fill="white" stroke="black" points="824,-116.5 824,-137.5 914,-137.5 914,-116.5 824,-116.5"/>
<text text-anchor="middle" x="869" y="-123.9" font-family="Helvetica,sans-Serif" font-size="12.00">BlemishTest.h</text>
</a>
</g>
</g>
<!-- Node4&#45;&gt;Node5 -->
<g id="edge4" class="edge"><title>Node4&#45;&gt;Node5</title>
<path fill="none" stroke="midnightblue" d="M982.085,-170.789C955.062,-160.564 918.286,-146.649 894.11,-137.501"/>
<polygon fill="midnightblue" stroke="midnightblue" points="980.966,-174.108 991.558,-174.373 983.444,-167.561 980.966,-174.108"/>
</g>
<!-- Node6 -->
<g id="node6" class="node"><title>Node6</title>
<g id="a_node6"><a xlink:href="../../da/de6/_operator_console_8h.html" target="_top" xlink:title="OperatorConsole.h">
<polygon fill="white" stroke="black" points="884,-58.5 884,-79.5 1000,-79.5 1000,-58.5 884,-58.5"/>
<text text-anchor="middle" x="942" y="-65.9" font-family="Helvetica,sans-Serif" font-size="12.00">OperatorConsole.h</text>
</a>
</g>
</g>
<!-- Node4&#45;&gt;Node6 -->
<g id="edge16" class="edge"><title>Node4&#45;&gt;Node6</title>
<path fill="none" stroke="midnightblue" d="M991.999,-168.58C981.049,-160.671 968.917,-150.142 961,-138 948.949,-119.518 944.452,-93.408 942.843,-79.5343"/>
<polygon fill="midnightblue" stroke="midnightblue" points="990.194,-171.586 1000.42,-174.343 994.146,-165.808 990.194,-171.586"/>
</g>
<!-- Node9 -->
<g id="node9" class="node"><title>Node9</title>
<g id="a_node9"><a xlink:href="../../d8/d53/_image_test_8cpp.html" target="_top" xlink:title="ImageTest.cpp">
<polygon fill="white" stroke="black" points="1303,-0.5 1303,-21.5 1397,-21.5 1397,-0.5 1303,-0.5"/>
<text text-anchor="middle" x="1350" y="-7.9" font-family="Helvetica,sans-Serif" font-size="12.00">ImageTest.cpp</text>
</a>
</g>
</g>
<!-- Node4&#45;&gt;Node9 -->
<g id="edge20" class="edge"><title>Node4&#45;&gt;Node9</title>
<path fill="none" stroke="midnightblue" d="M1039.73,-168.47C1050.48,-160.311 1062.92,-149.604 1072,-138 1096.37,-106.847 1079.6,-82.0539 1111,-58 1114.82,-55.0732 1234.33,-32.9998 1302.87,-20.5247"/>
<polygon fill="midnightblue" stroke="midnightblue" points="1037.57,-165.71 1031.56,-174.435 1041.7,-171.362 1037.57,-165.71"/>
</g>
<!-- Node17 -->
<g id="node17" class="node"><title>Node17</title>
<g id="a_node17"><a xlink:href="../../d2/d9d/_s_f_rplus_test_8h.html" target="_top" xlink:title="SFRplusTest.h">
<polygon fill="white" stroke="black" points="970.5,-116.5 970.5,-137.5 1063.5,-137.5 1063.5,-116.5 970.5,-116.5"/>
<text text-anchor="middle" x="1017" y="-123.9" font-family="Helvetica,sans-Serif" font-size="12.00">SFRplusTest.h</text>
</a>
</g>
</g>
<!-- Node4&#45;&gt;Node17 -->
<g id="edge17" class="edge"><title>Node4&#45;&gt;Node17</title>
<path fill="none" stroke="midnightblue" d="M1017,-164.158C1017,-155.155 1017,-144.92 1017,-137.643"/>
<polygon fill="midnightblue" stroke="midnightblue" points="1013.5,-164.246 1017,-174.246 1020.5,-164.246 1013.5,-164.246"/>
</g>
<!-- Node5&#45;&gt;Node6 -->
<g id="edge5" class="edge"><title>Node5&#45;&gt;Node6</title>
<path fill="none" stroke="midnightblue" d="M889.951,-109.928C902.711,-100.14 918.589,-87.9595 929.43,-79.6427"/>
<polygon fill="midnightblue" stroke="midnightblue" points="887.52,-107.382 881.716,-116.246 891.78,-112.936 887.52,-107.382"/>
</g>
<!-- Node16 -->
<g id="node16" class="node"><title>Node16</title>
<g id="a_node16"><a xlink:href="../../dd/d8a/_blemish_test_8cpp.html" target="_top" xlink:title="BlemishTest.cpp">
<polygon fill="white" stroke="black" points="762,-58.5 762,-79.5 866,-79.5 866,-58.5 762,-58.5"/>
<text text-anchor="middle" x="814" y="-65.9" font-family="Helvetica,sans-Serif" font-size="12.00">BlemishTest.cpp</text>
</a>
</g>
</g>
<!-- Node5&#45;&gt;Node16 -->
<g id="edge15" class="edge"><title>Node5&#45;&gt;Node16</title>
<path fill="none" stroke="midnightblue" d="M852.377,-109.075C842.915,-99.4402 831.403,-87.7196 823.47,-79.6427"/>
<polygon fill="midnightblue" stroke="midnightblue" points="849.916,-111.564 859.42,-116.246 854.91,-106.659 849.916,-111.564"/>
</g>
<!-- Node7 -->
<g id="node7" class="node"><title>Node7</title>
<g id="a_node7"><a xlink:href="../../d3/d22/_app_thread_8cpp.html" target="_top" xlink:title="AppThread.cpp">
<polygon fill="white" stroke="black" points="344,-0.5 344,-21.5 442,-21.5 442,-0.5 344,-0.5"/>
<text text-anchor="middle" x="393" y="-7.9" font-family="Helvetica,sans-Serif" font-size="12.00">AppThread.cpp</text>
</a>
</g>
</g>
<!-- Node6&#45;&gt;Node7 -->
<g id="edge6" class="edge"><title>Node6&#45;&gt;Node7</title>
<path fill="none" stroke="midnightblue" d="M873.966,-57.9476C685.457,-36.3638 635.376,-45.6772 451,-22 448.061,-21.6226 445.043,-21.2023 442.003,-20.7538"/>
<polygon fill="midnightblue" stroke="midnightblue" points="873.589,-61.4273 883.925,-59.1018 874.395,-54.4738 873.589,-61.4273"/>
</g>
<!-- Node8 -->
<g id="node8" class="node"><title>Node8</title>
<g id="a_node8"><a xlink:href="../../d6/df7/_critical_buf_8cpp.html" target="_top" xlink:title="CriticalBuf.cpp">
<polygon fill="white" stroke="black" points="460.5,-0.5 460.5,-21.5 553.5,-21.5 553.5,-0.5 460.5,-0.5"/>
<text text-anchor="middle" x="507" y="-7.9" font-family="Helvetica,sans-Serif" font-size="12.00">CriticalBuf.cpp</text>
</a>
</g>
</g>
<!-- Node6&#45;&gt;Node8 -->
<g id="edge7" class="edge"><title>Node6&#45;&gt;Node8</title>
<path fill="none" stroke="midnightblue" d="M873.707,-57.87C734.45,-39.7839 697.268,-42.0542 562,-22 559.312,-21.6015 556.554,-21.1705 553.773,-20.7189"/>
<polygon fill="midnightblue" stroke="midnightblue" points="873.542,-61.3784 883.912,-59.208 874.452,-54.4377 873.542,-61.3784"/>
</g>
<!-- Node6&#45;&gt;Node9 -->
<g id="edge8" class="edge"><title>Node6&#45;&gt;Node9</title>
<path fill="none" stroke="midnightblue" d="M1010.2,-60.0461C1081.21,-51.5399 1195.6,-37.2066 1294,-22 1296.93,-21.5475 1299.94,-21.0637 1302.97,-20.5622"/>
<polygon fill="midnightblue" stroke="midnightblue" points="1009.56,-56.5976 1000.05,-61.2582 1010.39,-63.5482 1009.56,-56.5976"/>
</g>
<!-- Node10 -->
<g id="node10" class="node"><title>Node10</title>
<g id="a_node10"><a xlink:href="../../df/d0a/main_8cpp.html" target="_top" xlink:title="main.cpp">
<polygon fill="white" stroke="black" points="571.5,-0.5 571.5,-21.5 636.5,-21.5 636.5,-0.5 571.5,-0.5"/>
<text text-anchor="middle" x="604" y="-7.9" font-family="Helvetica,sans-Serif" font-size="12.00">main.cpp</text>
</a>
</g>
</g>
<!-- Node6&#45;&gt;Node10 -->
<g id="edge9" class="edge"><title>Node6&#45;&gt;Node10</title>
<path fill="none" stroke="midnightblue" d="M873.68,-57.7341C793.009,-45.5625 666.961,-26.3705 645,-22 642.269,-21.4566 639.446,-20.8541 636.618,-20.2222"/>
<polygon fill="midnightblue" stroke="midnightblue" points="873.361,-61.2254 883.771,-59.2556 874.404,-54.3036 873.361,-61.2254"/>
</g>
<!-- Node11 -->
<g id="node11" class="node"><title>Node11</title>
<g id="a_node11"><a xlink:href="../../de/da2/_operator_console_8cpp.html" target="_top" xlink:title="OperatorConsole.cpp">
<polygon fill="white" stroke="black" points="654.5,-0.5 654.5,-21.5 783.5,-21.5 783.5,-0.5 654.5,-0.5"/>
<text text-anchor="middle" x="719" y="-7.9" font-family="Helvetica,sans-Serif" font-size="12.00">OperatorConsole.cpp</text>
</a>
</g>
</g>
<!-- Node6&#45;&gt;Node11 -->
<g id="edge10" class="edge"><title>Node6&#45;&gt;Node11</title>
<path fill="none" stroke="midnightblue" d="M894.143,-55.982C853.111,-45.6781 794.792,-31.0331 756.925,-21.5237"/>
<polygon fill="midnightblue" stroke="midnightblue" points="893.367,-59.3958 903.918,-58.4369 895.072,-52.6066 893.367,-59.3958"/>
</g>
<!-- Node12 -->
<g id="node12" class="node"><title>Node12</title>
<g id="a_node12"><a xlink:href="../../d8/d29/_operator_console_dlg_8cpp.html" target="_top" xlink:title="OperatorConsoleDlg.cpp">
<polygon fill="white" stroke="black" points="801.5,-0.5 801.5,-21.5 948.5,-21.5 948.5,-0.5 801.5,-0.5"/>
<text text-anchor="middle" x="875" y="-7.9" font-family="Helvetica,sans-Serif" font-size="12.00">OperatorConsoleDlg.cpp</text>
</a>
</g>
</g>
<!-- Node6&#45;&gt;Node12 -->
<g id="edge11" class="edge"><title>Node6&#45;&gt;Node12</title>
<path fill="none" stroke="midnightblue" d="M922.432,-51.645C910.78,-41.9058 896.392,-29.8795 886.537,-21.6427"/>
<polygon fill="midnightblue" stroke="midnightblue" points="920.412,-54.5179 930.329,-58.2455 924.901,-49.1469 920.412,-54.5179"/>
</g>
<!-- Node13 -->
<g id="node13" class="node"><title>Node13</title>
<g id="a_node13"><a xlink:href="../../d0/d57/_pass_fail_8cpp.html" target="_top" xlink:title="PassFail.cpp">
<polygon fill="white" stroke="black" points="967,-0.5 967,-21.5 1053,-21.5 1053,-0.5 967,-0.5"/>
<text text-anchor="middle" x="1010" y="-7.9" font-family="Helvetica,sans-Serif" font-size="12.00">PassFail.cpp</text>
</a>
</g>
</g>
<!-- Node6&#45;&gt;Node13 -->
<g id="edge12" class="edge"><title>Node6&#45;&gt;Node13</title>
<path fill="none" stroke="midnightblue" d="M961.86,-51.645C973.686,-41.9058 988.289,-29.8795 998.291,-21.6427"/>
<polygon fill="midnightblue" stroke="midnightblue" points="959.339,-49.1867 953.845,-58.2455 963.789,-54.5902 959.339,-49.1867"/>
</g>
<!-- Node14 -->
<g id="node14" class="node"><title>Node14</title>
<g id="a_node14"><a xlink:href="../../da/d46/_password_dialog_8cpp.html" target="_top" xlink:title="PasswordDialog.cpp">
<polygon fill="white" stroke="black" points="1071,-0.5 1071,-21.5 1197,-21.5 1197,-0.5 1071,-0.5"/>
<text text-anchor="middle" x="1134" y="-7.9" font-family="Helvetica,sans-Serif" font-size="12.00">PasswordDialog.cpp</text>
</a>
</g>
</g>
<!-- Node6&#45;&gt;Node14 -->
<g id="edge13" class="edge"><title>Node6&#45;&gt;Node14</title>
<path fill="none" stroke="midnightblue" d="M985.008,-55.4561C1020.25,-45.1765 1069.37,-30.8494 1101.42,-21.5011"/>
<polygon fill="midnightblue" stroke="midnightblue" points="983.626,-52.2132 975.006,-58.3733 985.586,-58.9332 983.626,-52.2132"/>
</g>
<!-- Node15 -->
<g id="node15" class="node"><title>Node15</title>
<g id="a_node15"><a xlink:href="../../d5/d27/_setup_8cpp.html" target="_top" xlink:title="Setup.cpp">
<polygon fill="white" stroke="black" points="1215,-0.5 1215,-21.5 1285,-21.5 1285,-0.5 1215,-0.5"/>
<text text-anchor="middle" x="1250" y="-7.9" font-family="Helvetica,sans-Serif" font-size="12.00">Setup.cpp</text>
</a>
</g>
</g>
<!-- Node6&#45;&gt;Node15 -->
<g id="edge14" class="edge"><title>Node6&#45;&gt;Node15</title>
<path fill="none" stroke="midnightblue" d="M1010.13,-57.1082C1063.55,-48.3328 1139.68,-35.3043 1206,-22 1208.92,-21.4145 1211.94,-20.7824 1214.97,-20.1306"/>
<polygon fill="midnightblue" stroke="midnightblue" points="1009.4,-53.6814 1000.1,-58.7508 1010.53,-60.5895 1009.4,-53.6814"/>
</g>
<!-- Node17&#45;&gt;Node6 -->
<g id="edge18" class="edge"><title>Node17&#45;&gt;Node6</title>
<path fill="none" stroke="midnightblue" d="M995.852,-110.21C982.68,-100.374 966.16,-88.0394 954.914,-79.6427"/>
<polygon fill="midnightblue" stroke="midnightblue" points="993.829,-113.067 1003.94,-116.246 998.017,-107.458 993.829,-113.067"/>
</g>
<!-- Node17&#45;&gt;Node18 -->
<g id="edge19" class="edge"><title>Node17&#45;&gt;Node18</title>
<path fill="none" stroke="midnightblue" d="M1053.66,-112.923C1082.36,-102.686 1121.6,-88.6889 1147.36,-79.5011"/>
<polygon fill="midnightblue" stroke="midnightblue" points="1052.23,-109.717 1043.99,-116.373 1054.58,-116.31 1052.23,-109.717"/>
</g>
<!-- Node21&#45;&gt;Node3 -->
<g id="edge25" class="edge"><title>Node21&#45;&gt;Node3</title>
<path fill="none" stroke="midnightblue" d="M291.306,-289.969C674.592,-257.141 777.023,-309.557 1154,-254 1157.04,-253.552 1160.19,-252.962 1163.32,-252.293"/>
<polygon fill="midnightblue" stroke="midnightblue" points="290.992,-286.483 281.333,-290.837 291.599,-293.457 290.992,-286.483"/>
</g>
<!-- Node21&#45;&gt;Node22 -->
<g id="edge26" class="edge"><title>Node21&#45;&gt;Node22</title>
<path fill="none" stroke="midnightblue" d="M184.147,-286.383C160.322,-276.199 128.343,-262.528 107.226,-253.501"/>
<polygon fill="midnightblue" stroke="midnightblue" points="182.909,-289.661 193.48,-290.373 185.661,-283.224 182.909,-289.661"/>
</g>
<!-- Node23 -->
<g id="node23" class="node"><title>Node23</title>
<g id="a_node23"><a xlink:href="../../d4/d80/_j_s_o_n_stream_8cpp.html" target="_top" xlink:title="JSON/JSONStream.cpp">
<polygon fill="white" stroke="black" points="1240.5,-232.5 1240.5,-253.5 1383.5,-253.5 1383.5,-232.5 1240.5,-232.5"/>
<text text-anchor="middle" x="1312" y="-239.9" font-family="Helvetica,sans-Serif" font-size="12.00">JSON/JSONStream.cpp</text>
</a>
</g>
</g>
<!-- Node21&#45;&gt;Node23 -->
<g id="edge27" class="edge"><title>Node21&#45;&gt;Node23</title>
<path fill="none" stroke="midnightblue" d="M291.558,-289.947C708.713,-254.473 817.189,-287.399 1231,-254 1234.11,-253.749 1237.28,-253.468 1240.48,-253.163"/>
<polygon fill="midnightblue" stroke="midnightblue" points="290.996,-286.482 281.332,-290.825 291.595,-293.457 290.996,-286.482"/>
</g>
<!-- Node24 -->
<g id="node24" class="node"><title>Node24</title>
<g id="a_node24"><a xlink:href="../../d1/d6f/_j_s_o_n_worker_8cpp.html" target="_top" xlink:title="JSON/JSONWorker.cpp">
<polygon fill="white" stroke="black" points="188.5,-232.5 188.5,-253.5 331.5,-253.5 331.5,-232.5 188.5,-232.5"/>
<text text-anchor="middle" x="260" y="-239.9" font-family="Helvetica,sans-Serif" font-size="12.00">JSON/JSONWorker.cpp</text>
</a>
</g>
</g>
<!-- Node21&#45;&gt;Node24 -->
<g id="edge28" class="edge"><title>Node21&#45;&gt;Node24</title>
<path fill="none" stroke="midnightblue" d="M229.977,-282.211C237.413,-272.747 246.266,-261.48 252.424,-253.643"/>
<polygon fill="midnightblue" stroke="midnightblue" points="227.09,-280.22 223.664,-290.246 232.595,-284.545 227.09,-280.22"/>
</g>
<!-- Node21&#45;&gt;Node25 -->
<g id="edge29" class="edge"><title>Node21&#45;&gt;Node25</title>
<path fill="none" stroke="midnightblue" d="M291.248,-289.518C365.482,-279.177 477.966,-263.507 549.696,-253.515"/>
<polygon fill="midnightblue" stroke="midnightblue" points="290.456,-286.094 281.035,-290.94 291.422,-293.027 290.456,-286.094"/>
</g>
<!-- Node26&#45;&gt;Node3 -->
<g id="edge31" class="edge"><title>Node26&#45;&gt;Node3</title>
<path fill="none" stroke="midnightblue" d="M1141.66,-283.928C1154.25,-274.14 1169.91,-261.959 1180.6,-253.643"/>
<polygon fill="midnightblue" stroke="midnightblue" points="1139.29,-281.343 1133.54,-290.246 1143.58,-286.869 1139.29,-281.343"/>
</g>
<!-- Node27 -->
<g id="node27" class="node"><title>Node27</title>
<g id="a_node27"><a xlink:href="../../d2/d18/_j_s_o_n_preparse_8cpp.html" target="_top" xlink:title="JSON/JSONPreparse.cpp">
<polygon fill="white" stroke="black" points="991,-232.5 991,-253.5 1145,-253.5 1145,-232.5 991,-232.5"/>
<text text-anchor="middle" x="1068" y="-239.9" font-family="Helvetica,sans-Serif" font-size="12.00">JSON/JSONPreparse.cpp</text>
</a>
</g>
</g>
<!-- Node26&#45;&gt;Node27 -->
<g id="edge32" class="edge"><title>Node26&#45;&gt;Node27</title>
<path fill="none" stroke="midnightblue" d="M1104.71,-282.788C1095.64,-273.208 1084.69,-261.64 1077.13,-253.643"/>
<polygon fill="midnightblue" stroke="midnightblue" points="1102.35,-285.388 1111.77,-290.246 1107.44,-280.577 1102.35,-285.388"/>
</g>
<!-- Node32&#45;&gt;Node2 -->
<g id="edge40" class="edge"><title>Node32&#45;&gt;Node2</title>
<path fill="none" stroke="midnightblue" d="M678.291,-401.597C698.011,-391.558 723.78,-378.439 741.059,-369.643"/>
<polygon fill="midnightblue" stroke="midnightblue" points="676.484,-398.59 669.161,-406.246 679.66,-404.828 676.484,-398.59"/>
</g>
<!-- Node32&#45;&gt;Node22 -->
<g id="edge41" class="edge"><title>Node32&#45;&gt;Node22</title>
<path fill="none" stroke="midnightblue" d="M560.56,-409.045C425.756,-396.889 179.112,-367.603 112,-312 94.0027,-297.089 87.9283,-268.484 85.935,-253.573"/>
<polygon fill="midnightblue" stroke="midnightblue" points="560.593,-412.562 570.863,-409.961 561.212,-405.589 560.593,-412.562"/>
</g>
<!-- Node33&#45;&gt;Node32 -->
<g id="edge46" class="edge"><title>Node33&#45;&gt;Node32</title>
<path fill="none" stroke="midnightblue" d="M750.867,-519.44C729.558,-512.326 705.791,-501.631 688,-486 669.509,-469.754 658.104,-442.239 653.055,-427.689"/>
<polygon fill="midnightblue" stroke="midnightblue" points="749.865,-522.794 760.454,-522.461 751.969,-516.117 749.865,-522.794"/>
</g>
<!-- Node33&#45;&gt;Node34 -->
<g id="edge43" class="edge"><title>Node33&#45;&gt;Node34</title>
<path fill="none" stroke="midnightblue" d="M834.189,-518.247C857.254,-508.077 888.071,-494.488 908.453,-485.501"/>
<polygon fill="midnightblue" stroke="midnightblue" points="832.57,-515.136 824.832,-522.373 835.394,-521.541 832.57,-515.136"/>
</g>
<!-- Node35 -->
<g id="node35" class="node"><title>Node35</title>
<g id="a_node35"><a xlink:href="../../d7/d70/_j_s_o_n_memory_8cpp.html" target="_top" xlink:title="JSON/JSONMemory.cpp">
<polygon fill="white" stroke="black" points="697.5,-464.5 697.5,-485.5 844.5,-485.5 844.5,-464.5 697.5,-464.5"/>
<text text-anchor="middle" x="771" y="-471.9" font-family="Helvetica,sans-Serif" font-size="12.00">JSON/JSONMemory.cpp</text>
</a>
</g>
</g>
<!-- Node33&#45;&gt;Node35 -->
<g id="edge47" class="edge"><title>Node33&#45;&gt;Node35</title>
<path fill="none" stroke="midnightblue" d="M792.336,-513.337C787.035,-504.061 780.851,-493.24 776.51,-485.643"/>
<polygon fill="midnightblue" stroke="midnightblue" points="789.426,-515.3 797.426,-522.246 795.503,-511.827 789.426,-515.3"/>
</g>
<!-- Node34&#45;&gt;Node28 -->
<g id="edge45" class="edge"><title>Node34&#45;&gt;Node28</title>
<path fill="none" stroke="midnightblue" d="M933.221,-454.214C939.24,-417.239 951.987,-338.937 956.432,-311.633"/>
<polygon fill="midnightblue" stroke="midnightblue" points="929.738,-453.827 931.586,-464.26 936.647,-454.952 929.738,-453.827"/>
</g>
<!-- Node34&#45;&gt;Node32 -->
<g id="edge44" class="edge"><title>Node34&#45;&gt;Node32</title>
<path fill="none" stroke="midnightblue" d="M872.183,-462.437C820.564,-452.113 745.869,-437.174 697.618,-427.524"/>
<polygon fill="midnightblue" stroke="midnightblue" points="871.692,-465.908 882.184,-464.437 873.065,-459.044 871.692,-465.908"/>
</g>
<!-- Node36&#45;&gt;Node21 -->
<g id="edge51" class="edge"><title>Node36&#45;&gt;Node21</title>
<path fill="none" stroke="midnightblue" d="M404.249,-457.667C361.546,-422.355 261.735,-339.819 227.65,-311.633"/>
<polygon fill="midnightblue" stroke="midnightblue" points="402.284,-460.584 412.221,-464.26 406.745,-455.19 402.284,-460.584"/>
</g>
<!-- Node36&#45;&gt;Node32 -->
<g id="edge50" class="edge"><title>Node36&#45;&gt;Node32</title>
<path fill="none" stroke="midnightblue" d="M472.501,-461.982C514.085,-451.678 573.188,-437.033 611.565,-427.524"/>
<polygon fill="midnightblue" stroke="midnightblue" points="471.459,-458.634 462.594,-464.437 473.142,-465.429 471.459,-458.634"/>
</g>
<!-- Node36&#45;&gt;Node37 -->
<g id="edge52" class="edge"><title>Node36&#45;&gt;Node37</title>
<path fill="none" stroke="midnightblue" d="M355.532,-462.822C292.233,-452.487 199.178,-437.294 139.332,-427.524"/>
<polygon fill="midnightblue" stroke="midnightblue" points="354.993,-466.28 365.426,-464.437 356.121,-459.371 354.993,-466.28"/>
</g>
<!-- Node37&#45;&gt;Node22 -->
<g id="edge53" class="edge"><title>Node37&#45;&gt;Node22</title>
<path fill="none" stroke="midnightblue" d="M76.7301,-396.51C71.9113,-371.67 65.4264,-327.456 71,-290 72.9167,-277.119 77.6962,-262.855 81.1376,-253.677"/>
<polygon fill="midnightblue" stroke="midnightblue" points="73.3348,-397.376 78.7776,-406.466 80.1914,-395.966 73.3348,-397.376"/>
</g>
<!-- Node38&#45;&gt;Node2 -->
<g id="edge55" class="edge"><title>Node38&#45;&gt;Node2</title>
<path fill="none" stroke="midnightblue" d="M1051.66,-404.871C983.837,-394.437 883.619,-379.018 820.089,-369.244"/>
<polygon fill="midnightblue" stroke="midnightblue" points="1051.42,-408.376 1061.84,-406.437 1052.49,-401.457 1051.42,-408.376"/>
</g>
<!-- Node38&#45;&gt;Node3 -->
<g id="edge56" class="edge"><title>Node38&#45;&gt;Node3</title>
<path fill="none" stroke="midnightblue" d="M1161.9,-402.073C1176.12,-394.805 1190.8,-384.362 1199,-370 1220.83,-331.777 1204.68,-275.901 1196.73,-253.656"/>
<polygon fill="midnightblue" stroke="midnightblue" points="1160.26,-398.977 1152.7,-406.401 1163.24,-405.311 1160.26,-398.977"/>
</g>
<!-- Node39 -->
<g id="node39" class="node"><title>Node39</title>
<g id="a_node39"><a xlink:href="../../de/d85/_j_s_o_n___base64_8cpp.html" target="_top" xlink:title="JSON/JSON_Base64.cpp">
<polygon fill="white" stroke="black" points="1037.5,-348.5 1037.5,-369.5 1190.5,-369.5 1190.5,-348.5 1037.5,-348.5"/>
<text text-anchor="middle" x="1114" y="-355.9" font-family="Helvetica,sans-Serif" font-size="12.00">JSON/JSON_Base64.cpp</text>
</a>
</g>
</g>
<!-- Node38&#45;&gt;Node39 -->
<g id="edge57" class="edge"><title>Node38&#45;&gt;Node39</title>
<path fill="none" stroke="midnightblue" d="M1120.46,-396.158C1118.85,-387.155 1117.02,-376.92 1115.72,-369.643"/>
<polygon fill="midnightblue" stroke="midnightblue" points="1117.05,-397.017 1122.26,-406.246 1123.95,-395.786 1117.05,-397.017"/>
</g>
<!-- Node40&#45;&gt;Node3 -->
<g id="edge59" class="edge"><title>Node40&#45;&gt;Node3</title>
<path fill="none" stroke="midnightblue" d="M1401.28,-288.6C1354.1,-279.885 1288.33,-267.165 1231,-254 1228.34,-253.389 1225.58,-252.725 1222.83,-252.04"/>
<polygon fill="midnightblue" stroke="midnightblue" points="1400.89,-292.086 1411.36,-290.452 1402.16,-285.202 1400.89,-292.086"/>
</g>
<!-- Node40&#45;&gt;Node23 -->
<g id="edge60" class="edge"><title>Node40&#45;&gt;Node23</title>
<path fill="none" stroke="midnightblue" d="M1429.27,-286.923C1401.3,-276.686 1363.06,-262.689 1337.96,-253.501"/>
<polygon fill="midnightblue" stroke="midnightblue" points="1428.1,-290.223 1438.7,-290.373 1430.51,-283.649 1428.1,-290.223"/>
</g>
<!-- Node41 -->
<g id="node41" class="node"><title>Node41</title>
<g id="a_node41"><a xlink:href="../../d2/d54/_j_s_o_n_validator_8cpp.html" target="_top" xlink:title="JSON/JSONValidator.cpp">
<polygon fill="white" stroke="black" points="1402,-232.5 1402,-253.5 1554,-253.5 1554,-232.5 1402,-232.5"/>
<text text-anchor="middle" x="1478" y="-239.9" font-family="Helvetica,sans-Serif" font-size="12.00">JSON/JSONValidator.cpp</text>
</a>
</g>
</g>
<!-- Node40&#45;&gt;Node41 -->
<g id="edge61" class="edge"><title>Node40&#45;&gt;Node41</title>
<path fill="none" stroke="midnightblue" d="M1469.54,-280.454C1471.64,-271.38 1474.05,-261 1475.76,-253.643"/>
<polygon fill="midnightblue" stroke="midnightblue" points="1466.12,-279.713 1467.26,-290.246 1472.94,-281.296 1466.12,-279.713"/>
</g>
<!-- Node42&#45;&gt;Node3 -->
<g id="edge63" class="edge"><title>Node42&#45;&gt;Node3</title>
<path fill="none" stroke="midnightblue" d="M1282.49,-286.111C1260.91,-275.956 1232.2,-262.448 1213.19,-253.501"/>
<polygon fill="midnightblue" stroke="midnightblue" points="1281,-289.282 1291.54,-290.373 1283.99,-282.948 1281,-289.282"/>
</g>
<!-- Node42&#45;&gt;Node23 -->
<g id="edge64" class="edge"><title>Node42&#45;&gt;Node23</title>
<path fill="none" stroke="midnightblue" d="M1312,-280.158C1312,-271.155 1312,-260.92 1312,-253.643"/>
<polygon fill="midnightblue" stroke="midnightblue" points="1308.5,-280.246 1312,-290.246 1315.5,-280.246 1308.5,-280.246"/>
</g>
</g>
</svg>
