<?xml version="1.0" encoding="UTF-8" standalone="no"?>
<!DOCTYPE svg PUBLIC "-//W3C//DTD SVG 1.1//EN"
 "http://www.w3.org/Graphics/SVG/1.1/DTD/svg11.dtd">
<!-- Generated by graphviz version 2.34.0 (20130907.0111)
 -->
<!-- Title: CSetup Pages: 1 -->
<svg width="82pt" height="88pt"
 viewBox="0.00 0.00 82.00 88.00" xmlns="http://www.w3.org/2000/svg" xmlns:xlink="http://www.w3.org/1999/xlink">
<g id="graph0" class="graph" transform="scale(1 1) rotate(0) translate(4 84)">
<title>CSetup</title>
<polygon fill="white" stroke="white" points="-4,4 -4,-84 78,-84 78,4 -4,4"/>
<!-- Node1 -->
<g id="node1" class="node"><title>Node1</title>
<polygon fill="#bfbfbf" stroke="black" points="9,-0.5 9,-21.5 65,-21.5 65,-0.5 9,-0.5"/>
<text text-anchor="middle" x="37" y="-7.9" font-family="Helvetica,sans-Serif" font-size="12.00">CSetup</text>
</g>
<!-- Node2 -->
<g id="node2" class="node"><title>Node2</title>
<polygon fill="white" stroke="#bfbfbf" points="0,-58.5 0,-79.5 74,-79.5 74,-58.5 0,-58.5"/>
<text text-anchor="middle" x="37" y="-65.9" font-family="Helvetica,sans-Serif" font-size="12.00">CDialogEx</text>
</g>
<!-- Node2&#45;&gt;Node1 -->
<g id="edge1" class="edge"><title>Node2&#45;&gt;Node1</title>
<path fill="none" stroke="midnightblue" d="M30.5113,-48.1575C29.919,-39.155 30.3335,-28.9199 31.7549,-21.6427"/>
<polygon fill="midnightblue" stroke="midnightblue" points="27.0561,-48.739 31.7332,-58.2455 34.0053,-47.8972 27.0561,-48.739"/>
</g>
<!-- Node2&#45;&gt;Node1 -->
<g id="edge2" class="edge"><title>Node2&#45;&gt;Node1</title>
<path fill="none" stroke="midnightblue" d="M43.4887,-48.1575C44.081,-39.155 43.6665,-28.9199 42.2451,-21.6427"/>
<polygon fill="midnightblue" stroke="midnightblue" points="39.9947,-47.8972 42.2668,-58.2455 46.9439,-48.739 39.9947,-47.8972"/>
</g>
</g>
</svg>
