<?xml version="1.0" encoding="UTF-8" standalone="no"?>
<!DOCTYPE svg PUBLIC "-//W3C//DTD SVG 1.1//EN"
 "http://www.w3.org/Graphics/SVG/1.1/DTD/svg11.dtd">
<!-- Generated by graphviz version 2.34.0 (20130907.0111)
 -->
<!-- Title: Documentation/Operator&#45;Console/StaticBmp.cpp Pages: 1 -->
<svg width="152pt" height="160pt"
 viewBox="0.00 0.00 152.00 160.00" xmlns="http://www.w3.org/2000/svg" xmlns:xlink="http://www.w3.org/1999/xlink">
<g id="graph0" class="graph" transform="scale(1 1) rotate(0) translate(4 156)">
<title>Documentation/Operator&#45;Console/StaticBmp.cpp</title>
<polygon fill="white" stroke="white" points="-4,4 -4,-156 148,-156 148,4 -4,4"/>
<!-- Node1 -->
<g id="node1" class="node"><title>Node1</title>
<polygon fill="#bfbfbf" stroke="black" points="-0.5,-117 -0.5,-151 144.5,-151 144.5,-117 -0.5,-117"/>
<text text-anchor="start" x="7.5" y="-137.4" font-family="Helvetica,sans-Serif" font-size="12.00">Documentation/Operator</text>
<text text-anchor="middle" x="72" y="-124.4" font-family="Helvetica,sans-Serif" font-size="12.00">&#45;Console/StaticBmp.cpp</text>
</g>
<!-- Node2 -->
<g id="node2" class="node"><title>Node2</title>
<g id="a_node2"><a xlink:href="../../de/d3c/_documentation_2_operator-_console_2_static_bmp_8h.html" target="_top" xlink:title="StaticBmp.h">
<polygon fill="white" stroke="black" points="32,-58.5 32,-79.5 112,-79.5 112,-58.5 32,-58.5"/>
<text text-anchor="middle" x="72" y="-65.9" font-family="Helvetica,sans-Serif" font-size="12.00">StaticBmp.h</text>
</a>
</g>
</g>
<!-- Node1&#45;&gt;Node2 -->
<g id="edge1" class="edge"><title>Node1&#45;&gt;Node2</title>
<path fill="none" stroke="midnightblue" d="M72,-116.776C72,-108.47 72,-98.2953 72,-89.5587"/>
<polygon fill="midnightblue" stroke="midnightblue" points="75.5001,-89.5106 72,-79.5106 68.5001,-89.5107 75.5001,-89.5106"/>
</g>
<!-- Node3 -->
<g id="node3" class="node"><title>Node3</title>
<polygon fill="white" stroke="#bfbfbf" points="43,-0.5 43,-21.5 101,-21.5 101,-0.5 43,-0.5"/>
<text text-anchor="middle" x="72" y="-7.9" font-family="Helvetica,sans-Serif" font-size="12.00">afxwin.h</text>
</g>
<!-- Node2&#45;&gt;Node3 -->
<g id="edge2" class="edge"><title>Node2&#45;&gt;Node3</title>
<path fill="none" stroke="midnightblue" d="M72,-58.2455C72,-50.9382 72,-40.6944 72,-31.7046"/>
<polygon fill="midnightblue" stroke="midnightblue" points="75.5001,-31.6426 72,-21.6427 68.5001,-31.6427 75.5001,-31.6426"/>
</g>
</g>
</svg>
