<?xml version="1.0" encoding="UTF-8" standalone="no"?>
<!DOCTYPE svg PUBLIC "-//W3C//DTD SVG 1.1//EN"
 "http://www.w3.org/Graphics/SVG/1.1/DTD/svg11.dtd">
<!-- Generated by graphviz version 2.34.0 (20130907.0111)
 -->
<!-- Title: Documentation/Operator&#45;Console/JSON/JSONGlobals.h Pages: 1 -->
<svg width="2028pt" height="704pt"
 viewBox="0.00 0.00 2028.00 704.00" xmlns="http://www.w3.org/2000/svg" xmlns:xlink="http://www.w3.org/1999/xlink">
<g id="graph0" class="graph" transform="scale(1 1) rotate(0) translate(4 700)">
<title>Documentation/Operator&#45;Console/JSON/JSONGlobals.h</title>
<polygon fill="white" stroke="white" points="-4,4 -4,-700 2024,-700 2024,4 -4,4"/>
<!-- Node1 -->
<g id="node1" class="node"><title>Node1</title>
<polygon fill="#bfbfbf" stroke="black" points="1302,-661 1302,-695 1484,-695 1484,-661 1302,-661"/>
<text text-anchor="start" x="1310" y="-681.4" font-family="Helvetica,sans-Serif" font-size="12.00">Documentation/Operator</text>
<text text-anchor="middle" x="1393" y="-668.4" font-family="Helvetica,sans-Serif" font-size="12.00">&#45;Console/JSON/JSONGlobals.h</text>
</g>
<!-- Node2 -->
<g id="node2" class="node"><title>Node2</title>
<g id="a_node2"><a xlink:href="../../dc/db1/_documentation_2_operator-_console_2_j_s_o_n_2internal_j_s_o_n_node_8h.html" target="_top" xlink:title="Documentation/Operator\l&#45;Console/JSON/internalJSONNode.h">
<polygon fill="white" stroke="black" points="762,-517 762,-551 970,-551 970,-517 762,-517"/>
<text text-anchor="start" x="770" y="-537.4" font-family="Helvetica,sans-Serif" font-size="12.00">Documentation/Operator</text>
<text text-anchor="middle" x="866" y="-524.4" font-family="Helvetica,sans-Serif" font-size="12.00">&#45;Console/JSON/internalJSONNode.h</text>
</a>
</g>
</g>
<!-- Node1&#45;&gt;Node2 -->
<g id="edge1" class="edge"><title>Node1&#45;&gt;Node2</title>
<path fill="none" stroke="midnightblue" d="M1323.77,-658.346C1219.5,-630.251 1023.92,-577.552 925.616,-551.063"/>
<polygon fill="midnightblue" stroke="midnightblue" points="1323,-661.765 1333.57,-660.987 1324.83,-655.006 1323,-661.765"/>
</g>
<!-- Node23 -->
<g id="node23" class="node"><title>Node23</title>
<g id="a_node23"><a xlink:href="../../d7/d97/_documentation_2_operator-_console_2_j_s_o_n_2internal_j_s_o_n_node_8cpp.html" target="_top" xlink:title="Documentation/Operator\l&#45;Console/JSON/internalJSONNode.cpp">
<polygon fill="white" stroke="black" points="232.5,-289 232.5,-323 453.5,-323 453.5,-289 232.5,-289"/>
<text text-anchor="start" x="240.5" y="-309.4" font-family="Helvetica,sans-Serif" font-size="12.00">Documentation/Operator</text>
<text text-anchor="middle" x="343" y="-296.4" font-family="Helvetica,sans-Serif" font-size="12.00">&#45;Console/JSON/internalJSONNode.cpp</text>
</a>
</g>
</g>
<!-- Node1&#45;&gt;Node23 -->
<g id="edge46" class="edge"><title>Node1&#45;&gt;Node23</title>
<path fill="none" stroke="midnightblue" d="M1291.35,-675.322C1005.78,-669.268 217,-642.791 217,-535 217,-535 217,-535 217,-461 217,-398.647 279.639,-347.663 316.586,-323.013"/>
<polygon fill="midnightblue" stroke="midnightblue" points="1291.63,-678.828 1301.7,-675.537 1291.77,-671.83 1291.63,-678.828"/>
</g>
<!-- Node26 -->
<g id="node26" class="node"><title>Node26</title>
<g id="a_node26"><a xlink:href="../../d7/dfe/_documentation_2_operator-_console_2_j_s_o_n_2_j_s_o_n_writer_8cpp.html" target="_top" xlink:title="Documentation/Operator\l&#45;Console/JSON/JSONWriter.cpp">
<polygon fill="white" stroke="black" points="1521.5,-289 1521.5,-323 1708.5,-323 1708.5,-289 1521.5,-289"/>
<text text-anchor="start" x="1529.5" y="-309.4" font-family="Helvetica,sans-Serif" font-size="12.00">Documentation/Operator</text>
<text text-anchor="middle" x="1615" y="-296.4" font-family="Helvetica,sans-Serif" font-size="12.00">&#45;Console/JSON/JSONWriter.cpp</text>
</a>
</g>
</g>
<!-- Node1&#45;&gt;Node26 -->
<g id="edge49" class="edge"><title>Node1&#45;&gt;Node26</title>
<path fill="none" stroke="midnightblue" d="M1494.19,-661.135C1611.22,-639.862 1788,-597.401 1788,-535 1788,-535 1788,-535 1788,-461 1788,-415.239 1798.05,-394.511 1768,-360 1752.59,-342.298 1730.95,-330.505 1708.79,-322.65"/>
<polygon fill="midnightblue" stroke="midnightblue" points="1493.34,-657.731 1484.12,-662.941 1494.58,-664.621 1493.34,-657.731"/>
</g>
<!-- Node32 -->
<g id="node32" class="node"><title>Node32</title>
<g id="a_node32"><a xlink:href="../../d3/d25/_documentation_2_operator-_console_2_j_s_o_n_2_j_s_o_n_node___mutex_8cpp.html" target="_top" xlink:title="Documentation/Operator\l&#45;Console/JSON/JSONNode\l_Mutex.cpp">
<polygon fill="white" stroke="black" points="1598.5,-360.5 1598.5,-407.5 1759.5,-407.5 1759.5,-360.5 1598.5,-360.5"/>
<text text-anchor="start" x="1606.5" y="-393.9" font-family="Helvetica,sans-Serif" font-size="12.00">Documentation/Operator</text>
<text text-anchor="start" x="1606.5" y="-380.9" font-family="Helvetica,sans-Serif" font-size="12.00">&#45;Console/JSON/JSONNode</text>
<text text-anchor="middle" x="1679" y="-367.9" font-family="Helvetica,sans-Serif" font-size="12.00">_Mutex.cpp</text>
</a>
</g>
</g>
<!-- Node1&#45;&gt;Node32 -->
<g id="edge48" class="edge"><title>Node1&#45;&gt;Node32</title>
<path fill="none" stroke="midnightblue" d="M1415.82,-653.7C1469.59,-598.803 1603.69,-461.891 1656.82,-407.649"/>
<polygon fill="midnightblue" stroke="midnightblue" points="1413.28,-651.292 1408.78,-660.885 1418.28,-656.19 1413.28,-651.292"/>
</g>
<!-- Node33 -->
<g id="node33" class="node"><title>Node33</title>
<g id="a_node33"><a xlink:href="../../d9/daa/_documentation_2_operator-_console_2_j_s_o_n_2_j_s_o_n_shared_string_8h.html" target="_top" xlink:title="Documentation/Operator\l&#45;Console/JSON/JSONSharedString.h">
<polygon fill="white" stroke="black" points="665.5,-589 665.5,-623 876.5,-623 876.5,-589 665.5,-589"/>
<text text-anchor="start" x="673.5" y="-609.4" font-family="Helvetica,sans-Serif" font-size="12.00">Documentation/Operator</text>
<text text-anchor="middle" x="771" y="-596.4" font-family="Helvetica,sans-Serif" font-size="12.00">&#45;Console/JSON/JSONSharedString.h</text>
</a>
</g>
</g>
<!-- Node1&#45;&gt;Node33 -->
<g id="edge41" class="edge"><title>Node1&#45;&gt;Node33</title>
<path fill="none" stroke="midnightblue" d="M1291.75,-665.605C1177.54,-652.752 992.669,-631.947 876.677,-618.893"/>
<polygon fill="midnightblue" stroke="midnightblue" points="1291.56,-669.106 1301.89,-666.746 1292.34,-662.15 1291.56,-669.106"/>
</g>
<!-- Node35 -->
<g id="node35" class="node"><title>Node35</title>
<g id="a_node35"><a xlink:href="../../d0/d4c/_documentation_2_operator-_console_2_j_s_o_n_2_j_s_o_n___base64_8cpp.html" target="_top" xlink:title="Documentation/Operator\l&#45;Console/JSON/JSON_Base64.cpp">
<polygon fill="white" stroke="black" points="1816.5,-589 1816.5,-623 2019.5,-623 2019.5,-589 1816.5,-589"/>
<text text-anchor="start" x="1824.5" y="-609.4" font-family="Helvetica,sans-Serif" font-size="12.00">Documentation/Operator</text>
<text text-anchor="middle" x="1918" y="-596.4" font-family="Helvetica,sans-Serif" font-size="12.00">&#45;Console/JSON/JSON_Base64.cpp</text>
</a>
</g>
</g>
<!-- Node1&#45;&gt;Node35 -->
<g id="edge47" class="edge"><title>Node1&#45;&gt;Node35</title>
<path fill="none" stroke="midnightblue" d="M1494.19,-664.363C1577,-653.907 1697.14,-638.476 1802,-624 1806.74,-623.346 1811.58,-622.669 1816.48,-621.978"/>
<polygon fill="midnightblue" stroke="midnightblue" points="1493.51,-660.921 1484.03,-665.645 1494.39,-667.866 1493.51,-660.921"/>
</g>
<!-- Node3 -->
<g id="node3" class="node"><title>Node3</title>
<g id="a_node3"><a xlink:href="../../d9/d7e/_documentation_2_operator-_console_2_j_s_o_n_2_j_s_o_n_node_8h.html" target="_top" xlink:title="Documentation/Operator\l&#45;Console/JSON/JSONNode.h">
<polygon fill="white" stroke="black" points="838,-445 838,-479 1008,-479 1008,-445 838,-445"/>
<text text-anchor="start" x="846" y="-465.4" font-family="Helvetica,sans-Serif" font-size="12.00">Documentation/Operator</text>
<text text-anchor="middle" x="923" y="-452.4" font-family="Helvetica,sans-Serif" font-size="12.00">&#45;Console/JSON/JSONNode.h</text>
</a>
</g>
</g>
<!-- Node2&#45;&gt;Node3 -->
<g id="edge2" class="edge"><title>Node2&#45;&gt;Node3</title>
<path fill="none" stroke="midnightblue" d="M885.634,-508.889C893.634,-499.064 902.67,-487.967 909.851,-479.147"/>
<polygon fill="midnightblue" stroke="midnightblue" points="882.82,-506.8 879.22,-516.765 888.249,-511.22 882.82,-506.8"/>
</g>
<!-- Node2&#45;&gt;Node23 -->
<g id="edge40" class="edge"><title>Node2&#45;&gt;Node23</title>
<path fill="none" stroke="midnightblue" d="M751.564,-519.458C658.12,-504.133 525.83,-472.358 427,-408 392.981,-385.847 365.659,-345.671 352.168,-323.246"/>
<polygon fill="midnightblue" stroke="midnightblue" points="751.192,-522.943 761.62,-521.069 752.299,-516.031 751.192,-522.943"/>
</g>
<!-- Node4 -->
<g id="node4" class="node"><title>Node4</title>
<g id="a_node4"><a xlink:href="../../d6/d7b/_documentation_2_operator-_console_2libjson_8h.html" target="_top" xlink:title="Documentation/Operator\l&#45;Console/libjson.h">
<polygon fill="white" stroke="black" points="896.5,-289 896.5,-323 1041.5,-323 1041.5,-289 896.5,-289"/>
<text text-anchor="start" x="904.5" y="-309.4" font-family="Helvetica,sans-Serif" font-size="12.00">Documentation/Operator</text>
<text text-anchor="middle" x="969" y="-296.4" font-family="Helvetica,sans-Serif" font-size="12.00">&#45;Console/libjson.h</text>
</a>
</g>
</g>
<!-- Node3&#45;&gt;Node4 -->
<g id="edge3" class="edge"><title>Node3&#45;&gt;Node4</title>
<path fill="none" stroke="midnightblue" d="M827.619,-449.409C776.748,-441.056 721.492,-427.731 706,-408 692.826,-391.221 692.466,-376.491 706,-360 758.034,-296.598 806.621,-340.325 887,-324 889.992,-323.392 893.045,-322.77 896.129,-322.139"/>
<polygon fill="midnightblue" stroke="midnightblue" points="827.297,-452.902 837.722,-451.014 828.395,-445.988 827.297,-452.902"/>
</g>
<!-- Node22 -->
<g id="node22" class="node"><title>Node22</title>
<g id="a_node22"><a xlink:href="../../df/d03/_documentation_2_operator-_console_2_j_s_o_n_2_j_s_o_n_worker_8h.html" target="_top" xlink:title="Documentation/Operator\l&#45;Console/JSON/JSONWorker.h">
<polygon fill="white" stroke="black" points="479,-367 479,-401 659,-401 659,-367 479,-367"/>
<text text-anchor="start" x="487" y="-387.4" font-family="Helvetica,sans-Serif" font-size="12.00">Documentation/Operator</text>
<text text-anchor="middle" x="569" y="-374.4" font-family="Helvetica,sans-Serif" font-size="12.00">&#45;Console/JSON/JSONWorker.h</text>
</a>
</g>
</g>
<!-- Node3&#45;&gt;Node22 -->
<g id="edge25" class="edge"><title>Node3&#45;&gt;Node22</title>
<path fill="none" stroke="midnightblue" d="M836.573,-442.872C788.404,-432.719 727.348,-419.77 673,-408 662.698,-405.769 651.828,-403.391 641.154,-401.043"/>
<polygon fill="midnightblue" stroke="midnightblue" points="836.142,-446.358 846.649,-444.994 837.585,-439.508 836.142,-446.358"/>
</g>
<!-- Node3&#45;&gt;Node23 -->
<g id="edge34" class="edge"><title>Node3&#45;&gt;Node23</title>
<path fill="none" stroke="midnightblue" d="M827.846,-457.734C713.767,-452.469 530.387,-439.314 470,-408 444.574,-394.815 448.877,-378.486 427,-360 410.273,-345.866 389.469,-332.711 372.75,-323.044"/>
<polygon fill="midnightblue" stroke="midnightblue" points="827.833,-461.237 837.98,-458.19 828.147,-454.244 827.833,-461.237"/>
</g>
<!-- Node3&#45;&gt;Node26 -->
<g id="edge39" class="edge"><title>Node3&#45;&gt;Node26</title>
<path fill="none" stroke="midnightblue" d="M1018.25,-457.559C1182.46,-450.95 1505.59,-434.72 1550,-408 1566.62,-398.002 1593.4,-349.215 1606.81,-323.282"/>
<polygon fill="midnightblue" stroke="midnightblue" points="1018,-454.066 1008.15,-457.962 1018.28,-461.061 1018,-454.066"/>
</g>
<!-- Node27 -->
<g id="node27" class="node"><title>Node27</title>
<g id="a_node27"><a xlink:href="../../d6/de0/_documentation_2_operator-_console_2_j_s_o_n_2_j_s_o_n_preparse_8h.html" target="_top" xlink:title="Documentation/Operator\l&#45;Console/JSON/JSONPreparse.h">
<polygon fill="white" stroke="black" points="1350.5,-367 1350.5,-401 1541.5,-401 1541.5,-367 1350.5,-367"/>
<text text-anchor="start" x="1358.5" y="-387.4" font-family="Helvetica,sans-Serif" font-size="12.00">Documentation/Operator</text>
<text text-anchor="middle" x="1446" y="-374.4" font-family="Helvetica,sans-Serif" font-size="12.00">&#45;Console/JSON/JSONPreparse.h</text>
</a>
</g>
</g>
<!-- Node3&#45;&gt;Node27 -->
<g id="edge31" class="edge"><title>Node3&#45;&gt;Node27</title>
<path fill="none" stroke="midnightblue" d="M1018.34,-451.37C1103.3,-442.204 1230.86,-427.006 1341,-408 1352.68,-405.985 1365.02,-403.554 1376.98,-401.038"/>
<polygon fill="midnightblue" stroke="midnightblue" points="1017.76,-447.911 1008.19,-452.458 1018.51,-454.872 1017.76,-447.911"/>
</g>
<!-- Node29 -->
<g id="node29" class="node"><title>Node29</title>
<g id="a_node29"><a xlink:href="../../df/d4e/_documentation_2_operator-_console_2_j_s_o_n_2_j_s_o_n_children_8cpp.html" target="_top" xlink:title="Documentation/Operator\l&#45;Console/JSON/JSONChildren.cpp">
<polygon fill="white" stroke="black" points="715.5,-367 715.5,-401 914.5,-401 914.5,-367 715.5,-367"/>
<text text-anchor="start" x="723.5" y="-387.4" font-family="Helvetica,sans-Serif" font-size="12.00">Documentation/Operator</text>
<text text-anchor="middle" x="815" y="-374.4" font-family="Helvetica,sans-Serif" font-size="12.00">&#45;Console/JSON/JSONChildren.cpp</text>
</a>
</g>
</g>
<!-- Node3&#45;&gt;Node29 -->
<g id="edge35" class="edge"><title>Node3&#45;&gt;Node29</title>
<path fill="none" stroke="midnightblue" d="M891.503,-438.835C874.335,-426.754 853.471,-412.072 837.871,-401.094"/>
<polygon fill="midnightblue" stroke="midnightblue" points="889.904,-441.99 900.096,-444.882 893.932,-436.265 889.904,-441.99"/>
</g>
<!-- Node30 -->
<g id="node30" class="node"><title>Node30</title>
<g id="a_node30"><a xlink:href="../../de/dfb/_documentation_2_operator-_console_2_j_s_o_n_2_j_s_o_n_iterators_8cpp.html" target="_top" xlink:title="Documentation/Operator\l&#45;Console/JSON/JSONIterators.cpp">
<polygon fill="white" stroke="black" points="932.5,-367 932.5,-401 1129.5,-401 1129.5,-367 932.5,-367"/>
<text text-anchor="start" x="940.5" y="-387.4" font-family="Helvetica,sans-Serif" font-size="12.00">Documentation/Operator</text>
<text text-anchor="middle" x="1031" y="-374.4" font-family="Helvetica,sans-Serif" font-size="12.00">&#45;Console/JSON/JSONIterators.cpp</text>
</a>
</g>
</g>
<!-- Node3&#45;&gt;Node30 -->
<g id="edge36" class="edge"><title>Node3&#45;&gt;Node30</title>
<path fill="none" stroke="midnightblue" d="M954.497,-438.835C971.665,-426.754 992.529,-412.072 1008.13,-401.094"/>
<polygon fill="midnightblue" stroke="midnightblue" points="952.068,-436.265 945.904,-444.882 956.096,-441.99 952.068,-436.265"/>
</g>
<!-- Node31 -->
<g id="node31" class="node"><title>Node31</title>
<g id="a_node31"><a xlink:href="../../db/d8a/_documentation_2_operator-_console_2_j_s_o_n_2_j_s_o_n_node_8cpp.html" target="_top" xlink:title="Documentation/Operator\l&#45;Console/JSON/JSONNode.cpp">
<polygon fill="white" stroke="black" points="1148,-367 1148,-401 1332,-401 1332,-367 1148,-367"/>
<text text-anchor="start" x="1156" y="-387.4" font-family="Helvetica,sans-Serif" font-size="12.00">Documentation/Operator</text>
<text text-anchor="middle" x="1240" y="-374.4" font-family="Helvetica,sans-Serif" font-size="12.00">&#45;Console/JSON/JSONNode.cpp</text>
</a>
</g>
</g>
<!-- Node3&#45;&gt;Node31 -->
<g id="edge37" class="edge"><title>Node3&#45;&gt;Node31</title>
<path fill="none" stroke="midnightblue" d="M999.867,-442.571C1052.86,-429.867 1122.59,-413.149 1173.25,-401.003"/>
<polygon fill="midnightblue" stroke="midnightblue" points="998.749,-439.24 989.84,-444.975 1000.38,-446.047 998.749,-439.24"/>
</g>
<!-- Node3&#45;&gt;Node32 -->
<g id="edge38" class="edge"><title>Node3&#45;&gt;Node32</title>
<path fill="none" stroke="midnightblue" d="M1018.26,-458.071C1147.23,-453.035 1384.22,-439.988 1584,-408 1588.69,-407.249 1593.49,-406.387 1598.33,-405.447"/>
<polygon fill="midnightblue" stroke="midnightblue" points="1017.89,-454.583 1008.03,-458.462 1018.15,-461.577 1017.89,-454.583"/>
</g>
<!-- Node5 -->
<g id="node5" class="node"><title>Node5</title>
<g id="a_node5"><a xlink:href="../../d5/dd6/_documentation_2_operator-_console_2_image_test_8h.html" target="_top" xlink:title="Documentation/Operator\l&#45;Console/ImageTest.h">
<polygon fill="white" stroke="black" points="641.5,-217 641.5,-251 786.5,-251 786.5,-217 641.5,-217"/>
<text text-anchor="start" x="649.5" y="-237.4" font-family="Helvetica,sans-Serif" font-size="12.00">Documentation/Operator</text>
<text text-anchor="middle" x="714" y="-224.4" font-family="Helvetica,sans-Serif" font-size="12.00">&#45;Console/ImageTest.h</text>
</a>
</g>
</g>
<!-- Node4&#45;&gt;Node5 -->
<g id="edge4" class="edge"><title>Node4&#45;&gt;Node5</title>
<path fill="none" stroke="midnightblue" d="M900.827,-286.286C860.857,-275.314 810.877,-261.594 772.671,-251.106"/>
<polygon fill="midnightblue" stroke="midnightblue" points="899.928,-289.668 910.498,-288.941 901.781,-282.918 899.928,-289.668"/>
</g>
<!-- Node19 -->
<g id="node19" class="node"><title>Node19</title>
<g id="a_node19"><a xlink:href="../../d6/d7f/_documentation_2_operator-_console_2_s_f_rplus_test_8cpp.html" target="_top" xlink:title="Documentation/Operator\l&#45;Console/SFRplusTest.cpp">
<polygon fill="white" stroke="black" points="837.5,-73 837.5,-107 994.5,-107 994.5,-73 837.5,-73"/>
<text text-anchor="start" x="845.5" y="-93.4" font-family="Helvetica,sans-Serif" font-size="12.00">Documentation/Operator</text>
<text text-anchor="middle" x="916" y="-80.4" font-family="Helvetica,sans-Serif" font-size="12.00">&#45;Console/SFRplusTest.cpp</text>
</a>
</g>
</g>
<!-- Node4&#45;&gt;Node19 -->
<g id="edge24" class="edge"><title>Node4&#45;&gt;Node19</title>
<path fill="none" stroke="midnightblue" d="M949.991,-280.477C944.262,-271.903 938.557,-261.93 935,-252 916.874,-201.391 915.219,-136.678 915.547,-107.079"/>
<polygon fill="midnightblue" stroke="midnightblue" points="947.263,-282.682 955.881,-288.844 952.987,-278.653 947.263,-282.682"/>
</g>
<!-- Node20 -->
<g id="node20" class="node"><title>Node20</title>
<g id="a_node20"><a xlink:href="../../d5/d65/_documentation_2_operator-_console_2_j_s_o_n_2libjson_8cpp.html" target="_top" xlink:title="Documentation/Operator\l&#45;Console/JSON/libjson.cpp">
<polygon fill="white" stroke="black" points="944.5,-217 944.5,-251 1101.5,-251 1101.5,-217 944.5,-217"/>
<text text-anchor="start" x="952.5" y="-237.4" font-family="Helvetica,sans-Serif" font-size="12.00">Documentation/Operator</text>
<text text-anchor="middle" x="1023" y="-224.4" font-family="Helvetica,sans-Serif" font-size="12.00">&#45;Console/JSON/libjson.cpp</text>
</a>
</g>
</g>
<!-- Node4&#45;&gt;Node20 -->
<g id="edge22" class="edge"><title>Node4&#45;&gt;Node20</title>
<path fill="none" stroke="midnightblue" d="M987.828,-280.593C995.351,-270.842 1003.81,-259.879 1010.54,-251.147"/>
<polygon fill="midnightblue" stroke="midnightblue" points="984.861,-278.709 981.524,-288.765 990.404,-282.985 984.861,-278.709"/>
</g>
<!-- Node21 -->
<g id="node21" class="node"><title>Node21</title>
<g id="a_node21"><a xlink:href="../../d0/d59/_documentation_2_operator-_console_2jsonhelpers_8cpp.html" target="_top" xlink:title="Documentation/Operator\l&#45;Console/jsonhelpers.cpp">
<polygon fill="white" stroke="black" points="1119.5,-217 1119.5,-251 1268.5,-251 1268.5,-217 1119.5,-217"/>
<text text-anchor="start" x="1127.5" y="-237.4" font-family="Helvetica,sans-Serif" font-size="12.00">Documentation/Operator</text>
<text text-anchor="middle" x="1194" y="-224.4" font-family="Helvetica,sans-Serif" font-size="12.00">&#45;Console/jsonhelpers.cpp</text>
</a>
</g>
</g>
<!-- Node4&#45;&gt;Node21 -->
<g id="edge23" class="edge"><title>Node4&#45;&gt;Node21</title>
<path fill="none" stroke="midnightblue" d="M1030.27,-285.937C1065.35,-275.024 1108.88,-261.483 1142.23,-251.106"/>
<polygon fill="midnightblue" stroke="midnightblue" points="1029.13,-282.628 1020.62,-288.941 1031.21,-289.312 1029.13,-282.628"/>
</g>
<!-- Node6 -->
<g id="node6" class="node"><title>Node6</title>
<g id="a_node6"><a xlink:href="../../da/df8/_documentation_2_operator-_console_2_blemish_test_8h.html" target="_top" xlink:title="Documentation/Operator\l&#45;Console/BlemishTest.h">
<polygon fill="white" stroke="black" points="540.5,-145 540.5,-179 685.5,-179 685.5,-145 540.5,-145"/>
<text text-anchor="start" x="548.5" y="-165.4" font-family="Helvetica,sans-Serif" font-size="12.00">Documentation/Operator</text>
<text text-anchor="middle" x="613" y="-152.4" font-family="Helvetica,sans-Serif" font-size="12.00">&#45;Console/BlemishTest.h</text>
</a>
</g>
</g>
<!-- Node5&#45;&gt;Node6 -->
<g id="edge5" class="edge"><title>Node5&#45;&gt;Node6</title>
<path fill="none" stroke="midnightblue" d="M682.411,-211.107C667.531,-200.793 650.09,-188.706 636.413,-179.227"/>
<polygon fill="midnightblue" stroke="midnightblue" points="680.616,-214.121 690.829,-216.941 684.603,-208.368 680.616,-214.121"/>
</g>
<!-- Node7 -->
<g id="node7" class="node"><title>Node7</title>
<g id="a_node7"><a xlink:href="../../da/d65/_documentation_2_operator-_console_2_operator_console_8h.html" target="_top" xlink:title="Documentation/Operator\l&#45;Console/OperatorConsole.h">
<polygon fill="white" stroke="black" points="653,-73 653,-107 819,-107 819,-73 653,-73"/>
<text text-anchor="start" x="661" y="-93.4" font-family="Helvetica,sans-Serif" font-size="12.00">Documentation/Operator</text>
<text text-anchor="middle" x="736" y="-80.4" font-family="Helvetica,sans-Serif" font-size="12.00">&#45;Console/OperatorConsole.h</text>
</a>
</g>
</g>
<!-- Node5&#45;&gt;Node7 -->
<g id="edge17" class="edge"><title>Node5&#45;&gt;Node7</title>
<path fill="none" stroke="midnightblue" d="M718.071,-206.726C722.587,-177.574 729.733,-131.451 733.494,-107.173"/>
<polygon fill="midnightblue" stroke="midnightblue" points="714.553,-206.569 716.481,-216.987 721.471,-207.641 714.553,-206.569"/>
</g>
<!-- Node10 -->
<g id="node10" class="node"><title>Node10</title>
<g id="a_node10"><a xlink:href="../../da/df9/_documentation_2_operator-_console_2_image_test_8cpp.html" target="_top" xlink:title="Documentation/Operator\l&#45;Console/ImageTest.cpp">
<polygon fill="white" stroke="black" points="-0.5,-1 -0.5,-35 144.5,-35 144.5,-1 -0.5,-1"/>
<text text-anchor="start" x="7.5" y="-21.4" font-family="Helvetica,sans-Serif" font-size="12.00">Documentation/Operator</text>
<text text-anchor="middle" x="72" y="-8.4" font-family="Helvetica,sans-Serif" font-size="12.00">&#45;Console/ImageTest.cpp</text>
</a>
</g>
</g>
<!-- Node5&#45;&gt;Node10 -->
<g id="edge21" class="edge"><title>Node5&#45;&gt;Node10</title>
<path fill="none" stroke="midnightblue" d="M645.669,-214.182C611.154,-204.431 568.705,-192.063 531,-180 376.772,-130.66 196.069,-64.9066 115.08,-35.0096"/>
<polygon fill="midnightblue" stroke="midnightblue" points="645.072,-217.65 655.646,-216.99 646.969,-210.912 645.072,-217.65"/>
</g>
<!-- Node18 -->
<g id="node18" class="node"><title>Node18</title>
<g id="a_node18"><a xlink:href="../../d5/d79/_documentation_2_operator-_console_2_s_f_rplus_test_8h.html" target="_top" xlink:title="Documentation/Operator\l&#45;Console/SFRplusTest.h">
<polygon fill="white" stroke="black" points="742.5,-145 742.5,-179 887.5,-179 887.5,-145 742.5,-145"/>
<text text-anchor="start" x="750.5" y="-165.4" font-family="Helvetica,sans-Serif" font-size="12.00">Documentation/Operator</text>
<text text-anchor="middle" x="815" y="-152.4" font-family="Helvetica,sans-Serif" font-size="12.00">&#45;Console/SFRplusTest.h</text>
</a>
</g>
</g>
<!-- Node5&#45;&gt;Node18 -->
<g id="edge18" class="edge"><title>Node5&#45;&gt;Node18</title>
<path fill="none" stroke="midnightblue" d="M745.589,-211.107C760.469,-200.793 777.91,-188.706 791.587,-179.227"/>
<polygon fill="midnightblue" stroke="midnightblue" points="743.397,-208.368 737.171,-216.941 747.384,-214.121 743.397,-208.368"/>
</g>
<!-- Node6&#45;&gt;Node7 -->
<g id="edge6" class="edge"><title>Node6&#45;&gt;Node7</title>
<path fill="none" stroke="midnightblue" d="M649.953,-139.97C668.397,-129.473 690.364,-116.972 707.487,-107.227"/>
<polygon fill="midnightblue" stroke="midnightblue" points="648.179,-136.952 641.219,-144.941 651.641,-143.036 648.179,-136.952"/>
</g>
<!-- Node17 -->
<g id="node17" class="node"><title>Node17</title>
<g id="a_node17"><a xlink:href="../../dc/d58/_documentation_2_operator-_console_2_blemish_test_8cpp.html" target="_top" xlink:title="Documentation/Operator\l&#45;Console/BlemishTest.cpp">
<polygon fill="white" stroke="black" points="481,-73 481,-107 635,-107 635,-73 481,-73"/>
<text text-anchor="start" x="489" y="-93.4" font-family="Helvetica,sans-Serif" font-size="12.00">Documentation/Operator</text>
<text text-anchor="middle" x="558" y="-80.4" font-family="Helvetica,sans-Serif" font-size="12.00">&#45;Console/BlemishTest.cpp</text>
</a>
</g>
</g>
<!-- Node6&#45;&gt;Node17 -->
<g id="edge16" class="edge"><title>Node6&#45;&gt;Node17</title>
<path fill="none" stroke="midnightblue" d="M594.055,-136.889C586.336,-127.064 577.617,-115.967 570.687,-107.147"/>
<polygon fill="midnightblue" stroke="midnightblue" points="591.313,-139.064 600.244,-144.765 596.818,-134.739 591.313,-139.064"/>
</g>
<!-- Node8 -->
<g id="node8" class="node"><title>Node8</title>
<g id="a_node8"><a xlink:href="../../d7/d4b/_documentation_2_operator-_console_2_app_thread_8cpp.html" target="_top" xlink:title="Documentation/Operator\l&#45;Console/AppThread.cpp">
<polygon fill="white" stroke="black" points="1096,-1 1096,-35 1244,-35 1244,-1 1096,-1"/>
<text text-anchor="start" x="1104" y="-21.4" font-family="Helvetica,sans-Serif" font-size="12.00">Documentation/Operator</text>
<text text-anchor="middle" x="1170" y="-8.4" font-family="Helvetica,sans-Serif" font-size="12.00">&#45;Console/AppThread.cpp</text>
</a>
</g>
</g>
<!-- Node7&#45;&gt;Node8 -->
<g id="edge7" class="edge"><title>Node7&#45;&gt;Node8</title>
<path fill="none" stroke="midnightblue" d="M829.106,-71.8629C943.968,-53.5709 974.996,-54.9589 1086,-36 1089.23,-35.4489 1092.52,-34.867 1095.84,-34.2636"/>
<polygon fill="midnightblue" stroke="midnightblue" points="828.534,-68.4099 819.216,-73.4532 829.645,-75.3211 828.534,-68.4099"/>
</g>
<!-- Node9 -->
<g id="node9" class="node"><title>Node9</title>
<g id="a_node9"><a xlink:href="../../de/d31/_documentation_2_operator-_console_2_critical_buf_8cpp.html" target="_top" xlink:title="Documentation/Operator\l&#45;Console/CriticalBuf.cpp">
<polygon fill="white" stroke="black" points="1262.5,-1 1262.5,-35 1407.5,-35 1407.5,-1 1262.5,-1"/>
<text text-anchor="start" x="1270.5" y="-21.4" font-family="Helvetica,sans-Serif" font-size="12.00">Documentation/Operator</text>
<text text-anchor="middle" x="1335" y="-8.4" font-family="Helvetica,sans-Serif" font-size="12.00">&#45;Console/CriticalBuf.cpp</text>
</a>
</g>
</g>
<!-- Node7&#45;&gt;Node9 -->
<g id="edge8" class="edge"><title>Node7&#45;&gt;Node9</title>
<path fill="none" stroke="midnightblue" d="M829.143,-71.9287C1017.61,-47.2996 1068.62,-62.8236 1253,-36 1256.02,-35.5605 1259.1,-35.0786 1262.2,-34.5644"/>
<polygon fill="midnightblue" stroke="midnightblue" points="828.639,-68.4648 819.186,-73.2502 829.56,-75.404 828.639,-68.4648"/>
</g>
<!-- Node7&#45;&gt;Node10 -->
<g id="edge9" class="edge"><title>Node7&#45;&gt;Node10</title>
<path fill="none" stroke="midnightblue" d="M642.679,-71.92C425.209,-44.7466 366.387,-66.0777 153,-36 150.297,-35.619 147.548,-35.2008 144.777,-34.7532"/>
<polygon fill="midnightblue" stroke="midnightblue" points="642.458,-75.4201 652.82,-73.2077 643.34,-68.4758 642.458,-75.4201"/>
</g>
<!-- Node11 -->
<g id="node11" class="node"><title>Node11</title>
<g id="a_node11"><a xlink:href="../../d4/d9c/_msg_dialog_8cpp.html" target="_top" xlink:title="Documentation/Operator\l&#45;Console/MsgDialog.cpp">
<polygon fill="white" stroke="black" points="1426,-1 1426,-35 1572,-35 1572,-1 1426,-1"/>
<text text-anchor="start" x="1434" y="-21.4" font-family="Helvetica,sans-Serif" font-size="12.00">Documentation/Operator</text>
<text text-anchor="middle" x="1499" y="-8.4" font-family="Helvetica,sans-Serif" font-size="12.00">&#45;Console/MsgDialog.cpp</text>
</a>
</g>
</g>
<!-- Node7&#45;&gt;Node11 -->
<g id="edge10" class="edge"><title>Node7&#45;&gt;Node11</title>
<path fill="none" stroke="midnightblue" d="M829.313,-71.9355C1089.65,-40.9101 1159.74,-69.9169 1416,-36 1419.21,-35.5754 1422.48,-35.0983 1425.77,-34.5807"/>
<polygon fill="midnightblue" stroke="midnightblue" points="828.682,-68.4863 819.175,-73.1624 829.523,-75.4356 828.682,-68.4863"/>
</g>
<!-- Node12 -->
<g id="node12" class="node"><title>Node12</title>
<g id="a_node12"><a xlink:href="../../db/db5/_documentation_2_operator-_console_2_operator_console_8cpp.html" target="_top" xlink:title="Documentation/Operator\l&#45;Console/OperatorConsole.cpp">
<polygon fill="white" stroke="black" points="162.5,-1 162.5,-35 341.5,-35 341.5,-1 162.5,-1"/>
<text text-anchor="start" x="170.5" y="-21.4" font-family="Helvetica,sans-Serif" font-size="12.00">Documentation/Operator</text>
<text text-anchor="middle" x="252" y="-8.4" font-family="Helvetica,sans-Serif" font-size="12.00">&#45;Console/OperatorConsole.cpp</text>
</a>
</g>
</g>
<!-- Node7&#45;&gt;Node12 -->
<g id="edge11" class="edge"><title>Node7&#45;&gt;Node12</title>
<path fill="none" stroke="midnightblue" d="M642.805,-71.8691C512.18,-52.1747 477.047,-54.7859 350,-36 347.267,-35.5959 344.493,-35.1758 341.693,-34.7435"/>
<polygon fill="midnightblue" stroke="midnightblue" points="642.381,-75.3449 652.794,-73.3903 643.435,-68.4246 642.381,-75.3449"/>
</g>
<!-- Node13 -->
<g id="node13" class="node"><title>Node13</title>
<g id="a_node13"><a xlink:href="../../dd/dcb/_documentation_2_operator-_console_2_operator_console_dlg_8cpp.html" target="_top" xlink:title="Documentation/Operator\l&#45;Console/OperatorConsoleDlg.cpp">
<polygon fill="white" stroke="black" points="359.5,-1 359.5,-35 556.5,-35 556.5,-1 359.5,-1"/>
<text text-anchor="start" x="367.5" y="-21.4" font-family="Helvetica,sans-Serif" font-size="12.00">Documentation/Operator</text>
<text text-anchor="middle" x="458" y="-8.4" font-family="Helvetica,sans-Serif" font-size="12.00">&#45;Console/OperatorConsoleDlg.cpp</text>
</a>
</g>
</g>
<!-- Node7&#45;&gt;Node13 -->
<g id="edge12" class="edge"><title>Node7&#45;&gt;Node13</title>
<path fill="none" stroke="midnightblue" d="M662.506,-70.4944C618.795,-59.488 563.879,-45.6601 521.963,-35.1057"/>
<polygon fill="midnightblue" stroke="midnightblue" points="661.669,-73.8928 672.221,-72.9406 663.379,-67.1047 661.669,-73.8928"/>
</g>
<!-- Node14 -->
<g id="node14" class="node"><title>Node14</title>
<g id="a_node14"><a xlink:href="../../dd/d14/_documentation_2_operator-_console_2_pass_fail_8cpp.html" target="_top" xlink:title="Documentation/Operator\l&#45;Console/PassFail.cpp">
<polygon fill="white" stroke="black" points="574.5,-1 574.5,-35 719.5,-35 719.5,-1 574.5,-1"/>
<text text-anchor="start" x="582.5" y="-21.4" font-family="Helvetica,sans-Serif" font-size="12.00">Documentation/Operator</text>
<text text-anchor="middle" x="647" y="-8.4" font-family="Helvetica,sans-Serif" font-size="12.00">&#45;Console/PassFail.cpp</text>
</a>
</g>
</g>
<!-- Node7&#45;&gt;Node14 -->
<g id="edge13" class="edge"><title>Node7&#45;&gt;Node14</title>
<path fill="none" stroke="midnightblue" d="M707.205,-66.3523C694.27,-56.1788 679.305,-44.4081 667.53,-35.1473"/>
<polygon fill="midnightblue" stroke="midnightblue" points="705.334,-69.3335 715.358,-72.7646 709.662,-63.8314 705.334,-69.3335"/>
</g>
<!-- Node15 -->
<g id="node15" class="node"><title>Node15</title>
<g id="a_node15"><a xlink:href="../../dd/d4b/_documentation_2_operator-_console_2_password_dialog_8cpp.html" target="_top" xlink:title="Documentation/Operator\l&#45;Console/PasswordDialog.cpp">
<polygon fill="white" stroke="black" points="738,-1 738,-35 914,-35 914,-1 738,-1"/>
<text text-anchor="start" x="746" y="-21.4" font-family="Helvetica,sans-Serif" font-size="12.00">Documentation/Operator</text>
<text text-anchor="middle" x="826" y="-8.4" font-family="Helvetica,sans-Serif" font-size="12.00">&#45;Console/PasswordDialog.cpp</text>
</a>
</g>
</g>
<!-- Node7&#45;&gt;Node15 -->
<g id="edge14" class="edge"><title>Node7&#45;&gt;Node15</title>
<path fill="none" stroke="midnightblue" d="M765.118,-66.3523C778.199,-56.1788 793.332,-44.4081 805.239,-35.1473"/>
<polygon fill="midnightblue" stroke="midnightblue" points="762.619,-63.8625 756.874,-72.7646 766.916,-69.3879 762.619,-63.8625"/>
</g>
<!-- Node16 -->
<g id="node16" class="node"><title>Node16</title>
<g id="a_node16"><a xlink:href="../../d3/d68/_documentation_2_operator-_console_2_setup_8cpp.html" target="_top" xlink:title="Documentation/Operator\l&#45;Console/Setup.cpp">
<polygon fill="white" stroke="black" points="932.5,-1 932.5,-35 1077.5,-35 1077.5,-1 932.5,-1"/>
<text text-anchor="start" x="940.5" y="-21.4" font-family="Helvetica,sans-Serif" font-size="12.00">Documentation/Operator</text>
<text text-anchor="middle" x="1005" y="-8.4" font-family="Helvetica,sans-Serif" font-size="12.00">&#45;Console/Setup.cpp</text>
</a>
</g>
</g>
<!-- Node7&#45;&gt;Node16 -->
<g id="edge15" class="edge"><title>Node7&#45;&gt;Node16</title>
<path fill="none" stroke="midnightblue" d="M807.648,-70.3555C849.857,-59.3718 902.719,-45.6158 943.108,-35.1057"/>
<polygon fill="midnightblue" stroke="midnightblue" points="806.51,-67.035 797.714,-72.9406 808.273,-73.8093 806.51,-67.035"/>
</g>
<!-- Node18&#45;&gt;Node7 -->
<g id="edge19" class="edge"><title>Node18&#45;&gt;Node7</title>
<path fill="none" stroke="midnightblue" d="M789.112,-138.061C777.706,-127.955 764.575,-116.32 754.223,-107.147"/>
<polygon fill="midnightblue" stroke="midnightblue" points="786.872,-140.752 796.677,-144.765 791.514,-135.513 786.872,-140.752"/>
</g>
<!-- Node18&#45;&gt;Node19 -->
<g id="edge20" class="edge"><title>Node18&#45;&gt;Node19</title>
<path fill="none" stroke="midnightblue" d="M846.589,-139.107C861.469,-128.793 878.91,-116.706 892.587,-107.227"/>
<polygon fill="midnightblue" stroke="midnightblue" points="844.397,-136.368 838.171,-144.941 848.384,-142.121 844.397,-136.368"/>
</g>
<!-- Node22&#45;&gt;Node4 -->
<g id="edge26" class="edge"><title>Node22&#45;&gt;Node4</title>
<path fill="none" stroke="midnightblue" d="M648.967,-364.884C657.073,-363.177 665.193,-361.519 673,-360 767.672,-341.581 792.208,-341.793 887,-324 890.001,-323.437 893.061,-322.852 896.151,-322.252"/>
<polygon fill="midnightblue" stroke="midnightblue" points="648.158,-361.478 639.107,-366.985 649.616,-368.324 648.158,-361.478"/>
</g>
<!-- Node22&#45;&gt;Node23 -->
<g id="edge27" class="edge"><title>Node22&#45;&gt;Node23</title>
<path fill="none" stroke="midnightblue" d="M511.588,-363.693C474.153,-351.105 425.879,-334.871 390.587,-323.003"/>
<polygon fill="midnightblue" stroke="midnightblue" points="510.753,-367.105 521.347,-366.975 512.985,-360.47 510.753,-367.105"/>
</g>
<!-- Node24 -->
<g id="node24" class="node"><title>Node24</title>
<g id="a_node24"><a xlink:href="../../d5/de0/_documentation_2_operator-_console_2_j_s_o_n_2_j_s_o_n_stream_8cpp.html" target="_top" xlink:title="Documentation/Operator\l&#45;Console/JSON/JSONStream.cpp">
<polygon fill="white" stroke="black" points="472,-289 472,-323 666,-323 666,-289 472,-289"/>
<text text-anchor="start" x="480" y="-309.4" font-family="Helvetica,sans-Serif" font-size="12.00">Documentation/Operator</text>
<text text-anchor="middle" x="569" y="-296.4" font-family="Helvetica,sans-Serif" font-size="12.00">&#45;Console/JSON/JSONStream.cpp</text>
</a>
</g>
</g>
<!-- Node22&#45;&gt;Node24 -->
<g id="edge28" class="edge"><title>Node22&#45;&gt;Node24</title>
<path fill="none" stroke="midnightblue" d="M569,-356.759C569,-345.566 569,-332.864 569,-323.094"/>
<polygon fill="midnightblue" stroke="midnightblue" points="565.5,-356.882 569,-366.882 572.5,-356.882 565.5,-356.882"/>
</g>
<!-- Node25 -->
<g id="node25" class="node"><title>Node25</title>
<g id="a_node25"><a xlink:href="../../db/d60/_documentation_2_operator-_console_2_j_s_o_n_2_j_s_o_n_worker_8cpp.html" target="_top" xlink:title="Documentation/Operator\l&#45;Console/JSON/JSONWorker.cpp">
<polygon fill="white" stroke="black" points="684,-289 684,-323 878,-323 878,-289 684,-289"/>
<text text-anchor="start" x="692" y="-309.4" font-family="Helvetica,sans-Serif" font-size="12.00">Documentation/Operator</text>
<text text-anchor="middle" x="781" y="-296.4" font-family="Helvetica,sans-Serif" font-size="12.00">&#45;Console/JSON/JSONWorker.cpp</text>
</a>
</g>
</g>
<!-- Node22&#45;&gt;Node25 -->
<g id="edge29" class="edge"><title>Node22&#45;&gt;Node25</title>
<path fill="none" stroke="midnightblue" d="M623.304,-363.533C658.356,-350.967 703.396,-334.82 736.36,-323.003"/>
<polygon fill="midnightblue" stroke="midnightblue" points="621.933,-360.306 613.701,-366.975 624.295,-366.895 621.933,-360.306"/>
</g>
<!-- Node22&#45;&gt;Node26 -->
<g id="edge30" class="edge"><title>Node22&#45;&gt;Node26</title>
<path fill="none" stroke="midnightblue" d="M664.664,-365.416C678.496,-363.317 692.587,-361.42 706,-360 1062.59,-322.246 1155.36,-361.262 1512,-324 1515.06,-323.68 1518.18,-323.327 1521.32,-322.948"/>
<polygon fill="midnightblue" stroke="midnightblue" points="663.993,-361.978 654.651,-366.975 665.07,-368.894 663.993,-361.978"/>
</g>
<!-- Node27&#45;&gt;Node4 -->
<g id="edge32" class="edge"><title>Node27&#45;&gt;Node4</title>
<path fill="none" stroke="midnightblue" d="M1366.39,-364.913C1357.84,-363.164 1349.25,-361.489 1341,-360 1237.48,-341.314 1116.78,-325.14 1041.61,-315.728"/>
<polygon fill="midnightblue" stroke="midnightblue" points="1365.89,-368.384 1376.39,-366.994 1367.32,-361.531 1365.89,-368.384"/>
</g>
<!-- Node28 -->
<g id="node28" class="node"><title>Node28</title>
<g id="a_node28"><a xlink:href="../../d1/d1c/_documentation_2_operator-_console_2_j_s_o_n_2_j_s_o_n_preparse_8cpp.html" target="_top" xlink:title="Documentation/Operator\l&#45;Console/JSON/JSONPreparse.cpp">
<polygon fill="white" stroke="black" points="1299,-289 1299,-323 1503,-323 1503,-289 1299,-289"/>
<text text-anchor="start" x="1307" y="-309.4" font-family="Helvetica,sans-Serif" font-size="12.00">Documentation/Operator</text>
<text text-anchor="middle" x="1401" y="-296.4" font-family="Helvetica,sans-Serif" font-size="12.00">&#45;Console/JSON/JSONPreparse.cpp</text>
</a>
</g>
</g>
<!-- Node27&#45;&gt;Node28 -->
<g id="edge33" class="edge"><title>Node27&#45;&gt;Node28</title>
<path fill="none" stroke="midnightblue" d="M1431.28,-358.136C1424.46,-346.619 1416.55,-333.266 1410.53,-323.094"/>
<polygon fill="midnightblue" stroke="midnightblue" points="1428.35,-360.061 1436.46,-366.882 1434.37,-356.494 1428.35,-360.061"/>
</g>
<!-- Node33&#45;&gt;Node2 -->
<g id="edge42" class="edge"><title>Node33&#45;&gt;Node2</title>
<path fill="none" stroke="midnightblue" d="M801.342,-582.643C815.238,-572.403 831.398,-560.496 844.086,-551.147"/>
<polygon fill="midnightblue" stroke="midnightblue" points="799.008,-580.015 793.034,-588.765 803.16,-585.65 799.008,-580.015"/>
</g>
<!-- Node33&#45;&gt;Node22 -->
<g id="edge43" class="edge"><title>Node33&#45;&gt;Node22</title>
<path fill="none" stroke="midnightblue" d="M749.242,-581.303C707.934,-536.315 619.137,-439.605 583.875,-401.201"/>
<polygon fill="midnightblue" stroke="midnightblue" points="746.805,-583.824 756.146,-588.823 751.961,-579.09 746.805,-583.824"/>
</g>
<!-- Node34 -->
<g id="node34" class="node"><title>Node34</title>
<g id="a_node34"><a xlink:href="../../d2/d55/_documentation_2_operator-_console_2_j_s_o_n_2_number_to_string_8h.html" target="_top" xlink:title="Documentation/Operator\l&#45;Console/JSON/NumberToString.h">
<polygon fill="white" stroke="black" points="245,-445 245,-479 441,-479 441,-445 245,-445"/>
<text text-anchor="start" x="253" y="-465.4" font-family="Helvetica,sans-Serif" font-size="12.00">Documentation/Operator</text>
<text text-anchor="middle" x="343" y="-452.4" font-family="Helvetica,sans-Serif" font-size="12.00">&#45;Console/JSON/NumberToString.h</text>
</a>
</g>
</g>
<!-- Node33&#45;&gt;Node34 -->
<g id="edge44" class="edge"><title>Node33&#45;&gt;Node34</title>
<path fill="none" stroke="midnightblue" d="M713.232,-585.834C628.176,-557.615 470.772,-505.392 391.417,-479.063"/>
<polygon fill="midnightblue" stroke="midnightblue" points="712.142,-589.16 722.735,-588.987 714.346,-582.516 712.142,-589.16"/>
</g>
<!-- Node34&#45;&gt;Node23 -->
<g id="edge45" class="edge"><title>Node34&#45;&gt;Node23</title>
<path fill="none" stroke="midnightblue" d="M343,-434.462C343,-402.553 343,-349.987 343,-323.436"/>
<polygon fill="midnightblue" stroke="midnightblue" points="339.5,-434.81 343,-444.81 346.5,-434.81 339.5,-434.81"/>
</g>
</g>
</svg>
