<?xml version="1.0" encoding="UTF-8" standalone="no"?>
<!DOCTYPE svg PUBLIC "-//W3C//DTD SVG 1.1//EN"
 "http://www.w3.org/Graphics/SVG/1.1/DTD/svg11.dtd">
<!-- Generated by graphviz version 2.34.0 (20130907.0111)
 -->
<!-- Title: COperatorConsoleDlg::UpdateQuadrants Pages: 1 -->
<svg width="670pt" height="95pt"
 viewBox="0.00 0.00 670.00 95.00" xmlns="http://www.w3.org/2000/svg" xmlns:xlink="http://www.w3.org/1999/xlink">
<g id="graph0" class="graph" transform="scale(1 1) rotate(0) translate(4 91)">
<title>COperatorConsoleDlg::UpdateQuadrants</title>
<polygon fill="white" stroke="white" points="-4,4 -4,-91 666,-91 666,4 -4,4"/>
<!-- Node1 -->
<g id="node1" class="node"><title>Node1</title>
<polygon fill="#bfbfbf" stroke="black" points="0,-26 0,-60 134,-60 134,-26 0,-26"/>
<text text-anchor="start" x="8" y="-46.4" font-family="Helvetica,sans-Serif" font-size="12.00">COperatorConsoleDlg</text>
<text text-anchor="middle" x="67" y="-33.4" font-family="Helvetica,sans-Serif" font-size="12.00">::UpdateQuadrants</text>
</g>
<!-- Node2 -->
<g id="node2" class="node"><title>Node2</title>
<g id="a_node2"><a xlink:href="../../dd/dd1/class_c_operator_console_dlg.html#a06e65f3bdd1f81a84cb640294857b551" target="_top" xlink:title="COperatorConsoleDlg\l::OnBnClickedStart">
<polygon fill="white" stroke="black" points="175,-53 175,-87 309,-87 309,-53 175,-53"/>
<text text-anchor="start" x="183" y="-73.4" font-family="Helvetica,sans-Serif" font-size="12.00">COperatorConsoleDlg</text>
<text text-anchor="middle" x="242" y="-60.4" font-family="Helvetica,sans-Serif" font-size="12.00">::OnBnClickedStart</text>
</a>
</g>
</g>
<!-- Node1&#45;&gt;Node2 -->
<g id="edge1" class="edge"><title>Node1&#45;&gt;Node2</title>
<path fill="none" stroke="midnightblue" d="M144.429,-54.9283C154.55,-56.5078 164.857,-58.1164 174.786,-59.666"/>
<polygon fill="midnightblue" stroke="midnightblue" points="144.812,-51.4457 134.392,-53.3617 143.732,-58.3619 144.812,-51.4457"/>
</g>
<!-- Node3 -->
<g id="node3" class="node"><title>Node3</title>
<g id="a_node3"><a xlink:href="../../d3/d9f/class_c_operator_console_app.html#afcaa58d4a5fb9c7cff5e35ae64e1420c" target="_top" xlink:title="COperatorConsoleApp\l::UpdateResultsSFRplus">
<polygon fill="white" stroke="black" points="170,-0 170,-34 314,-34 314,-0 170,-0"/>
<text text-anchor="start" x="178" y="-20.4" font-family="Helvetica,sans-Serif" font-size="12.00">COperatorConsoleApp</text>
<text text-anchor="middle" x="242" y="-7.4" font-family="Helvetica,sans-Serif" font-size="12.00">::UpdateResultsSFRplus</text>
</a>
</g>
</g>
<!-- Node1&#45;&gt;Node3 -->
<g id="edge2" class="edge"><title>Node1&#45;&gt;Node3</title>
<path fill="none" stroke="midnightblue" d="M144.302,-31.5327C152.813,-30.2535 161.458,-28.9543 169.901,-27.6854"/>
<polygon fill="midnightblue" stroke="midnightblue" points="143.76,-28.0747 134.392,-33.0221 144.801,-34.9969 143.76,-28.0747"/>
</g>
<!-- Node4 -->
<g id="node4" class="node"><title>Node4</title>
<g id="a_node4"><a xlink:href="../../d3/d9f/class_c_operator_console_app.html#a58fa1716c660b80c55845b79505ff4d6" target="_top" xlink:title="Called after MSG_SFRPLUS_DONE is received. ">
<polygon fill="white" stroke="black" points="350.5,-0 350.5,-34 487.5,-34 487.5,-0 350.5,-0"/>
<text text-anchor="start" x="358.5" y="-20.4" font-family="Helvetica,sans-Serif" font-size="12.00">COperatorConsoleApp</text>
<text text-anchor="middle" x="419" y="-7.4" font-family="Helvetica,sans-Serif" font-size="12.00">::OnSFRplusDone</text>
</a>
</g>
</g>
<!-- Node3&#45;&gt;Node4 -->
<g id="edge3" class="edge"><title>Node3&#45;&gt;Node4</title>
<path fill="none" stroke="midnightblue" d="M324.318,-17C333.005,-17 341.773,-17 350.278,-17"/>
<polygon fill="midnightblue" stroke="midnightblue" points="324.179,-13.5001 314.179,-17 324.179,-20.5001 324.179,-13.5001"/>
</g>
<!-- Node5 -->
<g id="node5" class="node"><title>Node5</title>
<g id="a_node5"><a xlink:href="../../d3/d9f/class_c_operator_console_app.html#a7041d197c4e6549f2cb7219981b4eec1" target="_top" xlink:title="Intercepts messages of interest before Windows or MFC. ">
<polygon fill="white" stroke="black" points="524,-0 524,-34 662,-34 662,-0 524,-0"/>
<text text-anchor="start" x="532" y="-20.4" font-family="Helvetica,sans-Serif" font-size="12.00">COperatorConsoleApp</text>
<text text-anchor="middle" x="593" y="-7.4" font-family="Helvetica,sans-Serif" font-size="12.00">::PreTranslateMessage</text>
</a>
</g>
</g>
<!-- Node4&#45;&gt;Node5 -->
<g id="edge4" class="edge"><title>Node4&#45;&gt;Node5</title>
<path fill="none" stroke="midnightblue" d="M498.054,-17C506.696,-17 515.446,-17 523.952,-17"/>
<polygon fill="midnightblue" stroke="midnightblue" points="497.979,-13.5001 487.979,-17 497.979,-20.5001 497.979,-13.5001"/>
</g>
</g>
</svg>
