<?xml version="1.0" encoding="UTF-8" standalone="no"?>
<!DOCTYPE svg PUBLIC "-//W3C//DTD SVG 1.1//EN"
 "http://www.w3.org/Graphics/SVG/1.1/DTD/svg11.dtd">
<!-- Generated by graphviz version 2.34.0 (20130907.0111)
 -->
<!-- Title: COperatorConsoleDlg::PostParentMessage Pages: 1 -->
<svg width="344pt" height="360pt"
 viewBox="0.00 0.00 344.00 360.00" xmlns="http://www.w3.org/2000/svg" xmlns:xlink="http://www.w3.org/1999/xlink">
<g id="graph0" class="graph" transform="scale(1 1) rotate(0) translate(4 356)">
<title>COperatorConsoleDlg::PostParentMessage</title>
<polygon fill="white" stroke="white" points="-4,4 -4,-356 340,-356 340,4 -4,4"/>
<!-- Node1 -->
<g id="node1" class="node"><title>Node1</title>
<polygon fill="#bfbfbf" stroke="black" points="0,-159 0,-193 134,-193 134,-159 0,-159"/>
<text text-anchor="start" x="8" y="-179.4" font-family="Helvetica,sans-Serif" font-size="12.00">COperatorConsoleDlg</text>
<text text-anchor="middle" x="67" y="-166.4" font-family="Helvetica,sans-Serif" font-size="12.00">::PostParentMessage</text>
</g>
<!-- Node2 -->
<g id="node2" class="node"><title>Node2</title>
<g id="a_node2"><a xlink:href="../../dd/dd1/class_c_operator_console_dlg.html#ae6399ed7580603b8ed446d7a9f75261d" target="_top" xlink:title="COperatorConsoleDlg\l::OnBnClickedRadioBlemish">
<polygon fill="white" stroke="black" points="170.5,-318 170.5,-352 335.5,-352 335.5,-318 170.5,-318"/>
<text text-anchor="start" x="178.5" y="-338.4" font-family="Helvetica,sans-Serif" font-size="12.00">COperatorConsoleDlg</text>
<text text-anchor="middle" x="253" y="-325.4" font-family="Helvetica,sans-Serif" font-size="12.00">::OnBnClickedRadioBlemish</text>
</a>
</g>
</g>
<!-- Node1&#45;&gt;Node2 -->
<g id="edge1" class="edge"><title>Node1&#45;&gt;Node2</title>
<path fill="none" stroke="midnightblue" d="M81.8391,-202.198C98.8221,-231.933 130.313,-279.936 170,-308 175.384,-311.808 181.34,-315.104 187.512,-317.952"/>
<polygon fill="midnightblue" stroke="midnightblue" points="84.7687,-200.265 76.8429,-193.235 78.6543,-203.673 84.7687,-200.265"/>
</g>
<!-- Node3 -->
<g id="node3" class="node"><title>Node3</title>
<g id="a_node3"><a xlink:href="../../dd/dd1/class_c_operator_console_dlg.html#ab40731589fb00011221425e72fdda457" target="_top" xlink:title="COperatorConsoleDlg\l::OnBnClickedRadioSfr">
<polygon fill="white" stroke="black" points="184,-265 184,-299 322,-299 322,-265 184,-265"/>
<text text-anchor="start" x="192" y="-285.4" font-family="Helvetica,sans-Serif" font-size="12.00">COperatorConsoleDlg</text>
<text text-anchor="middle" x="253" y="-272.4" font-family="Helvetica,sans-Serif" font-size="12.00">::OnBnClickedRadioSfr</text>
</a>
</g>
</g>
<!-- Node1&#45;&gt;Node3 -->
<g id="edge2" class="edge"><title>Node1&#45;&gt;Node3</title>
<path fill="none" stroke="midnightblue" d="M93.7994,-200.025C113.451,-217.276 141.839,-240.032 170,-255 176.882,-258.658 184.352,-261.944 191.886,-264.858"/>
<polygon fill="midnightblue" stroke="midnightblue" points="95.9897,-197.289 86.1977,-193.243 91.3296,-202.512 95.9897,-197.289"/>
</g>
<!-- Node4 -->
<g id="node4" class="node"><title>Node4</title>
<g id="a_node4"><a xlink:href="../../dd/dd1/class_c_operator_console_dlg.html#a44fbf05e3794267d701d7fee17130316" target="_top" xlink:title="COperatorConsoleDlg\l::OnBnClickedSetupButton">
<polygon fill="white" stroke="black" points="175.5,-212 175.5,-246 330.5,-246 330.5,-212 175.5,-212"/>
<text text-anchor="start" x="183.5" y="-232.4" font-family="Helvetica,sans-Serif" font-size="12.00">COperatorConsoleDlg</text>
<text text-anchor="middle" x="253" y="-219.4" font-family="Helvetica,sans-Serif" font-size="12.00">::OnBnClickedSetupButton</text>
</a>
</g>
</g>
<!-- Node1&#45;&gt;Node4 -->
<g id="edge3" class="edge"><title>Node1&#45;&gt;Node4</title>
<path fill="none" stroke="midnightblue" d="M136.998,-195.875C155.383,-201.17 175.077,-206.843 192.879,-211.971"/>
<polygon fill="midnightblue" stroke="midnightblue" points="137.81,-192.466 127.232,-193.061 135.872,-199.192 137.81,-192.466"/>
</g>
<!-- Node5 -->
<g id="node5" class="node"><title>Node5</title>
<g id="a_node5"><a xlink:href="../../dd/dd1/class_c_operator_console_dlg.html#a5208e78010e26e6d6365837f20b73d5d" target="_top" xlink:title="COperatorConsoleDlg\l::OnBnClickedShowjson">
<polygon fill="white" stroke="black" points="182,-159 182,-193 324,-193 324,-159 182,-159"/>
<text text-anchor="start" x="190" y="-179.4" font-family="Helvetica,sans-Serif" font-size="12.00">COperatorConsoleDlg</text>
<text text-anchor="middle" x="253" y="-166.4" font-family="Helvetica,sans-Serif" font-size="12.00">::OnBnClickedShowjson</text>
</a>
</g>
</g>
<!-- Node1&#45;&gt;Node5 -->
<g id="edge4" class="edge"><title>Node1&#45;&gt;Node5</title>
<path fill="none" stroke="midnightblue" d="M144.442,-176C156.804,-176 169.553,-176 181.76,-176"/>
<polygon fill="midnightblue" stroke="midnightblue" points="144.168,-172.5 134.168,-176 144.168,-179.5 144.168,-172.5"/>
</g>
<!-- Node6 -->
<g id="node6" class="node"><title>Node6</title>
<g id="a_node6"><a xlink:href="../../dd/dd1/class_c_operator_console_dlg.html#a06e65f3bdd1f81a84cb640294857b551" target="_top" xlink:title="COperatorConsoleDlg\l::OnBnClickedStart">
<polygon fill="white" stroke="black" points="186,-106 186,-140 320,-140 320,-106 186,-106"/>
<text text-anchor="start" x="194" y="-126.4" font-family="Helvetica,sans-Serif" font-size="12.00">COperatorConsoleDlg</text>
<text text-anchor="middle" x="253" y="-113.4" font-family="Helvetica,sans-Serif" font-size="12.00">::OnBnClickedStart</text>
</a>
</g>
</g>
<!-- Node1&#45;&gt;Node6 -->
<g id="edge5" class="edge"><title>Node1&#45;&gt;Node6</title>
<path fill="none" stroke="midnightblue" d="M136.998,-156.125C155.383,-150.83 175.077,-145.157 192.879,-140.029"/>
<polygon fill="midnightblue" stroke="midnightblue" points="135.872,-152.808 127.232,-158.939 137.81,-159.534 135.872,-152.808"/>
</g>
<!-- Node7 -->
<g id="node7" class="node"><title>Node7</title>
<g id="a_node7"><a xlink:href="../../dd/dd1/class_c_operator_console_dlg.html#adedefafc419a2848159a3ab24e1b2b93" target="_top" xlink:title="COperatorConsoleDlg\l::OnBnClickedStop">
<polygon fill="white" stroke="black" points="186,-53 186,-87 320,-87 320,-53 186,-53"/>
<text text-anchor="start" x="194" y="-73.4" font-family="Helvetica,sans-Serif" font-size="12.00">COperatorConsoleDlg</text>
<text text-anchor="middle" x="253" y="-60.4" font-family="Helvetica,sans-Serif" font-size="12.00">::OnBnClickedStop</text>
</a>
</g>
</g>
<!-- Node1&#45;&gt;Node7 -->
<g id="edge6" class="edge"><title>Node1&#45;&gt;Node7</title>
<path fill="none" stroke="midnightblue" d="M93.7994,-151.975C113.451,-134.724 141.839,-111.968 170,-97 176.882,-93.3421 184.352,-90.0562 191.886,-87.1421"/>
<polygon fill="midnightblue" stroke="midnightblue" points="91.3296,-149.488 86.1977,-158.757 95.9897,-154.711 91.3296,-149.488"/>
</g>
<!-- Node8 -->
<g id="node8" class="node"><title>Node8</title>
<g id="a_node8"><a xlink:href="../../dd/dd1/class_c_operator_console_dlg.html#ac6cc9ecf017ab55d8068284ac9493121" target="_top" xlink:title="COperatorConsoleDlg\l::OnClickedPassFail">
<polygon fill="white" stroke="black" points="186,-0 186,-34 320,-34 320,-0 186,-0"/>
<text text-anchor="start" x="194" y="-20.4" font-family="Helvetica,sans-Serif" font-size="12.00">COperatorConsoleDlg</text>
<text text-anchor="middle" x="253" y="-7.4" font-family="Helvetica,sans-Serif" font-size="12.00">::OnClickedPassFail</text>
</a>
</g>
</g>
<!-- Node1&#45;&gt;Node8 -->
<g id="edge7" class="edge"><title>Node1&#45;&gt;Node8</title>
<path fill="none" stroke="midnightblue" d="M81.8391,-149.802C98.8221,-120.067 130.313,-72.0643 170,-44 175.384,-40.1924 181.34,-36.8961 187.512,-34.0478"/>
<polygon fill="midnightblue" stroke="midnightblue" points="78.6543,-148.327 76.8429,-158.765 84.7687,-151.735 78.6543,-148.327"/>
</g>
</g>
</svg>
