<?xml version="1.0" encoding="UTF-8" standalone="no"?>
<!DOCTYPE svg PUBLIC "-//W3C//DTD SVG 1.1//EN"
 "http://www.w3.org/Graphics/SVG/1.1/DTD/svg11.dtd">
<!-- Generated by graphviz version 2.34.0 (20130907.0111)
 -->
<!-- Title: COperatorConsoleDlg::OnBnClickedSetupButton Pages: 1 -->
<svg width="334pt" height="42pt"
 viewBox="0.00 0.00 334.00 42.00" xmlns="http://www.w3.org/2000/svg" xmlns:xlink="http://www.w3.org/1999/xlink">
<g id="graph0" class="graph" transform="scale(1 1) rotate(0) translate(4 38)">
<title>COperatorConsoleDlg::OnBnClickedSetupButton</title>
<polygon fill="white" stroke="white" points="-4,4 -4,-38 330,-38 330,4 -4,4"/>
<!-- Node1 -->
<g id="node1" class="node"><title>Node1</title>
<polygon fill="#bfbfbf" stroke="black" points="0.5,-0 0.5,-34 155.5,-34 155.5,-0 0.5,-0"/>
<text text-anchor="start" x="8.5" y="-20.4" font-family="Helvetica,sans-Serif" font-size="12.00">COperatorConsoleDlg</text>
<text text-anchor="middle" x="78" y="-7.4" font-family="Helvetica,sans-Serif" font-size="12.00">::OnBnClickedSetupButton</text>
</g>
<!-- Node2 -->
<g id="node2" class="node"><title>Node2</title>
<g id="a_node2"><a xlink:href="../../dd/dd1/class_c_operator_console_dlg.html#a5b4930e365a3a0ee50490231a1c7f3bd" target="_top" xlink:title="COperatorConsoleDlg\l::PostParentMessage">
<polygon fill="white" stroke="black" points="192,-0 192,-34 326,-34 326,-0 192,-0"/>
<text text-anchor="start" x="200" y="-20.4" font-family="Helvetica,sans-Serif" font-size="12.00">COperatorConsoleDlg</text>
<text text-anchor="middle" x="259" y="-7.4" font-family="Helvetica,sans-Serif" font-size="12.00">::PostParentMessage</text>
</a>
</g>
</g>
<!-- Node1&#45;&gt;Node2 -->
<g id="edge1" class="edge"><title>Node1&#45;&gt;Node2</title>
<path fill="none" stroke="midnightblue" d="M155.691,-17C164.353,-17 173.178,-17 181.833,-17"/>
<polygon fill="midnightblue" stroke="midnightblue" points="181.895,-20.5001 191.895,-17 181.895,-13.5001 181.895,-20.5001"/>
</g>
</g>
</svg>
