<?xml version="1.0" encoding="UTF-8" standalone="no"?>
<!DOCTYPE svg PUBLIC "-//W3C//DTD SVG 1.1//EN"
 "http://www.w3.org/Graphics/SVG/1.1/DTD/svg11.dtd">
<!-- Generated by graphviz version 2.34.0 (20130907.0111)
 -->
<!-- Title: COperatorConsoleDlg::Quit Pages: 1 -->
<svg width="312pt" height="148pt"
 viewBox="0.00 0.00 312.00 148.00" xmlns="http://www.w3.org/2000/svg" xmlns:xlink="http://www.w3.org/1999/xlink">
<g id="graph0" class="graph" transform="scale(1 1) rotate(0) translate(4 144)">
<title>COperatorConsoleDlg::Quit</title>
<polygon fill="white" stroke="white" points="-4,4 -4,-144 308,-144 308,4 -4,4"/>
<!-- Node1 -->
<g id="node1" class="node"><title>Node1</title>
<polygon fill="#bfbfbf" stroke="black" points="0,-53 0,-87 134,-87 134,-53 0,-53"/>
<text text-anchor="start" x="8" y="-73.4" font-family="Helvetica,sans-Serif" font-size="12.00">COperatorConsoleDlg</text>
<text text-anchor="middle" x="67" y="-60.4" font-family="Helvetica,sans-Serif" font-size="12.00">::Quit</text>
</g>
<!-- Node2 -->
<g id="node2" class="node"><title>Node2</title>
<g id="a_node2"><a xlink:href="../../dd/dd1/class_c_operator_console_dlg.html#a8f15c08fd802f33daa4a4f5d400d6695" target="_top" xlink:title="COperatorConsoleDlg\l::OnCancel">
<polygon fill="white" stroke="black" points="170,-106 170,-140 304,-140 304,-106 170,-106"/>
<text text-anchor="start" x="178" y="-126.4" font-family="Helvetica,sans-Serif" font-size="12.00">COperatorConsoleDlg</text>
<text text-anchor="middle" x="237" y="-113.4" font-family="Helvetica,sans-Serif" font-size="12.00">::OnCancel</text>
</a>
</g>
</g>
<!-- Node1&#45;&gt;Node2 -->
<g id="edge1" class="edge"><title>Node1&#45;&gt;Node2</title>
<path fill="none" stroke="midnightblue" d="M131.695,-90.0944C148.281,-95.3268 165.991,-100.914 182.02,-105.971"/>
<polygon fill="midnightblue" stroke="midnightblue" points="132.671,-86.7321 122.081,-87.0613 130.565,-93.4078 132.671,-86.7321"/>
</g>
<!-- Node3 -->
<g id="node3" class="node"><title>Node3</title>
<g id="a_node3"><a xlink:href="../../dd/dd1/class_c_operator_console_dlg.html#a8cdc85a4ec6e97ee92b8b4a376bbd6e8" target="_top" xlink:title="COperatorConsoleDlg\l::OnClose">
<polygon fill="white" stroke="black" points="170,-53 170,-87 304,-87 304,-53 170,-53"/>
<text text-anchor="start" x="178" y="-73.4" font-family="Helvetica,sans-Serif" font-size="12.00">COperatorConsoleDlg</text>
<text text-anchor="middle" x="237" y="-60.4" font-family="Helvetica,sans-Serif" font-size="12.00">::OnClose</text>
</a>
</g>
</g>
<!-- Node1&#45;&gt;Node3 -->
<g id="edge2" class="edge"><title>Node1&#45;&gt;Node3</title>
<path fill="none" stroke="midnightblue" d="M144.595,-70C153.013,-70 161.532,-70 169.809,-70"/>
<polygon fill="midnightblue" stroke="midnightblue" points="144.398,-66.5001 134.398,-70 144.398,-73.5001 144.398,-66.5001"/>
</g>
<!-- Node4 -->
<g id="node4" class="node"><title>Node4</title>
<g id="a_node4"><a xlink:href="../../dd/dd1/class_c_operator_console_dlg.html#a256348135cc06bebf3b8f285036332a0" target="_top" xlink:title="COperatorConsoleDlg\l::OnOK">
<polygon fill="white" stroke="black" points="170,-0 170,-34 304,-34 304,-0 170,-0"/>
<text text-anchor="start" x="178" y="-20.4" font-family="Helvetica,sans-Serif" font-size="12.00">COperatorConsoleDlg</text>
<text text-anchor="middle" x="237" y="-7.4" font-family="Helvetica,sans-Serif" font-size="12.00">::OnOK</text>
</a>
</g>
</g>
<!-- Node1&#45;&gt;Node4 -->
<g id="edge3" class="edge"><title>Node1&#45;&gt;Node4</title>
<path fill="none" stroke="midnightblue" d="M131.695,-49.9056C148.281,-44.6732 165.991,-39.0863 182.02,-34.0293"/>
<polygon fill="midnightblue" stroke="midnightblue" points="130.565,-46.5922 122.081,-52.9387 132.671,-53.2679 130.565,-46.5922"/>
</g>
</g>
</svg>
