<?xml version="1.0" encoding="UTF-8" standalone="no"?>
<!DOCTYPE svg PUBLIC "-//W3C//DTD SVG 1.1//EN"
 "http://www.w3.org/Graphics/SVG/1.1/DTD/svg11.dtd">
<!-- Generated by graphviz version 2.34.0 (20130907.0111)
 -->
<!-- Title: COperatorConsoleDlg::QsoShow Pages: 1 -->
<svg width="344pt" height="95pt"
 viewBox="0.00 0.00 344.00 95.00" xmlns="http://www.w3.org/2000/svg" xmlns:xlink="http://www.w3.org/1999/xlink">
<g id="graph0" class="graph" transform="scale(1 1) rotate(0) translate(4 91)">
<title>COperatorConsoleDlg::QsoShow</title>
<polygon fill="white" stroke="white" points="-4,4 -4,-91 340,-91 340,4 -4,4"/>
<!-- Node1 -->
<g id="node1" class="node"><title>Node1</title>
<polygon fill="#bfbfbf" stroke="black" points="0,-26 0,-60 134,-60 134,-26 0,-26"/>
<text text-anchor="start" x="8" y="-46.4" font-family="Helvetica,sans-Serif" font-size="12.00">COperatorConsoleDlg</text>
<text text-anchor="middle" x="67" y="-33.4" font-family="Helvetica,sans-Serif" font-size="12.00">::QsoShow</text>
</g>
<!-- Node2 -->
<g id="node2" class="node"><title>Node2</title>
<g id="a_node2"><a xlink:href="../../dd/dd1/class_c_operator_console_dlg.html#ae6399ed7580603b8ed446d7a9f75261d" target="_top" xlink:title="COperatorConsoleDlg\l::OnBnClickedRadioBlemish">
<polygon fill="white" stroke="black" points="170.5,-53 170.5,-87 335.5,-87 335.5,-53 170.5,-53"/>
<text text-anchor="start" x="178.5" y="-73.4" font-family="Helvetica,sans-Serif" font-size="12.00">COperatorConsoleDlg</text>
<text text-anchor="middle" x="253" y="-60.4" font-family="Helvetica,sans-Serif" font-size="12.00">::OnBnClickedRadioBlemish</text>
</a>
</g>
</g>
<!-- Node1&#45;&gt;Node2 -->
<g id="edge1" class="edge"><title>Node1&#45;&gt;Node2</title>
<path fill="none" stroke="midnightblue" d="M144.204,-54.1822C152.845,-55.4501 161.677,-56.7461 170.384,-58.0237"/>
<polygon fill="midnightblue" stroke="midnightblue" points="144.57,-50.6985 134.168,-52.7095 143.554,-57.6243 144.57,-50.6985"/>
</g>
<!-- Node3 -->
<g id="node3" class="node"><title>Node3</title>
<g id="a_node3"><a xlink:href="../../dd/dd1/class_c_operator_console_dlg.html#ab40731589fb00011221425e72fdda457" target="_top" xlink:title="COperatorConsoleDlg\l::OnBnClickedRadioSfr">
<polygon fill="white" stroke="black" points="184,-0 184,-34 322,-34 322,-0 184,-0"/>
<text text-anchor="start" x="192" y="-20.4" font-family="Helvetica,sans-Serif" font-size="12.00">COperatorConsoleDlg</text>
<text text-anchor="middle" x="253" y="-7.4" font-family="Helvetica,sans-Serif" font-size="12.00">::OnBnClickedRadioSfr</text>
</a>
</g>
</g>
<!-- Node1&#45;&gt;Node3 -->
<g id="edge2" class="edge"><title>Node1&#45;&gt;Node3</title>
<path fill="none" stroke="midnightblue" d="M144.15,-32.2397C157.342,-30.3756 170.982,-28.4482 183.941,-26.617"/>
<polygon fill="midnightblue" stroke="midnightblue" points="143.58,-28.7853 134.168,-33.6501 144.56,-35.7165 143.58,-28.7853"/>
</g>
</g>
</svg>
