<?xml version="1.0" encoding="UTF-8" standalone="no"?>
<!DOCTYPE svg PUBLIC "-//W3C//DTD SVG 1.1//EN"
 "http://www.w3.org/Graphics/SVG/1.1/DTD/svg11.dtd">
<!-- Generated by graphviz version 2.34.0 (20130907.0111)
 -->
<!-- Title: COperatorConsoleDlg::OnBnClickedRadioSfr Pages: 1 -->
<svg width="316pt" height="95pt"
 viewBox="0.00 0.00 316.00 95.00" xmlns="http://www.w3.org/2000/svg" xmlns:xlink="http://www.w3.org/1999/xlink">
<g id="graph0" class="graph" transform="scale(1 1) rotate(0) translate(4 91)">
<title>COperatorConsoleDlg::OnBnClickedRadioSfr</title>
<polygon fill="white" stroke="white" points="-4,4 -4,-91 312,-91 312,4 -4,4"/>
<!-- Node1 -->
<g id="node1" class="node"><title>Node1</title>
<polygon fill="#bfbfbf" stroke="black" points="0,-26 0,-60 138,-60 138,-26 0,-26"/>
<text text-anchor="start" x="8" y="-46.4" font-family="Helvetica,sans-Serif" font-size="12.00">COperatorConsoleDlg</text>
<text text-anchor="middle" x="69" y="-33.4" font-family="Helvetica,sans-Serif" font-size="12.00">::OnBnClickedRadioSfr</text>
</g>
<!-- Node2 -->
<g id="node2" class="node"><title>Node2</title>
<g id="a_node2"><a xlink:href="../../dd/dd1/class_c_operator_console_dlg.html#a5b4930e365a3a0ee50490231a1c7f3bd" target="_top" xlink:title="COperatorConsoleDlg\l::PostParentMessage">
<polygon fill="white" stroke="black" points="174,-53 174,-87 308,-87 308,-53 174,-53"/>
<text text-anchor="start" x="182" y="-73.4" font-family="Helvetica,sans-Serif" font-size="12.00">COperatorConsoleDlg</text>
<text text-anchor="middle" x="241" y="-60.4" font-family="Helvetica,sans-Serif" font-size="12.00">::PostParentMessage</text>
</a>
</g>
</g>
<!-- Node1&#45;&gt;Node2 -->
<g id="edge1" class="edge"><title>Node1&#45;&gt;Node2</title>
<path fill="none" stroke="midnightblue" d="M138.166,-53.8264C146.598,-55.1656 155.26,-56.5413 163.803,-57.898"/>
<polygon fill="midnightblue" stroke="midnightblue" points="163.329,-61.3667 173.754,-59.4786 164.427,-54.4533 163.329,-61.3667"/>
</g>
<!-- Node3 -->
<g id="node3" class="node"><title>Node3</title>
<g id="a_node3"><a xlink:href="../../dd/dd1/class_c_operator_console_dlg.html#a327716043ad2a57099457290877af840" target="_top" xlink:title="COperatorConsoleDlg\l::QsoShow">
<polygon fill="white" stroke="black" points="174,-0 174,-34 308,-34 308,-0 174,-0"/>
<text text-anchor="start" x="182" y="-20.4" font-family="Helvetica,sans-Serif" font-size="12.00">COperatorConsoleDlg</text>
<text text-anchor="middle" x="241" y="-7.4" font-family="Helvetica,sans-Serif" font-size="12.00">::QsoShow</text>
</a>
</g>
</g>
<!-- Node1&#45;&gt;Node3 -->
<g id="edge2" class="edge"><title>Node1&#45;&gt;Node3</title>
<path fill="none" stroke="midnightblue" d="M138.166,-32.5746C146.598,-31.285 155.26,-29.9602 163.803,-28.6537"/>
<polygon fill="midnightblue" stroke="midnightblue" points="164.399,-32.1034 173.754,-27.1317 163.34,-25.1838 164.399,-32.1034"/>
</g>
</g>
</svg>
