<?xml version="1.0" encoding="UTF-8" standalone="no"?>
<!DOCTYPE svg PUBLIC "-//W3C//DTD SVG 1.1//EN"
 "http://www.w3.org/Graphics/SVG/1.1/DTD/svg11.dtd">
<!-- Generated by graphviz version 2.34.0 (20130907.0111)
 -->
<!-- Title: COperatorConsoleDlg::OnInitDialog Pages: 1 -->
<svg width="700pt" height="163pt"
 viewBox="0.00 0.00 700.00 163.00" xmlns="http://www.w3.org/2000/svg" xmlns:xlink="http://www.w3.org/1999/xlink">
<g id="graph0" class="graph" transform="scale(1 1) rotate(0) translate(4 159)">
<title>COperatorConsoleDlg::OnInitDialog</title>
<polygon fill="white" stroke="white" points="-4,4 -4,-159 696,-159 696,4 -4,4"/>
<!-- Node1 -->
<g id="node1" class="node"><title>Node1</title>
<polygon fill="#bfbfbf" stroke="black" points="0,-54 0,-88 134,-88 134,-54 0,-54"/>
<text text-anchor="start" x="8" y="-74.4" font-family="Helvetica,sans-Serif" font-size="12.00">COperatorConsoleDlg</text>
<text text-anchor="middle" x="67" y="-61.4" font-family="Helvetica,sans-Serif" font-size="12.00">::OnInitDialog</text>
</g>
<!-- Node2 -->
<g id="node2" class="node"><title>Node2</title>
<g id="a_node2"><a xlink:href="../../df/d14/class_resize_dlg.html#af2c9f4bac99e8845c6b5167bd25068eb" target="_top" xlink:title="Resizes an object within a parent window but does not allow the object to shrink vertically. ">
<polygon fill="white" stroke="black" points="170.5,-60.5 170.5,-81.5 283.5,-81.5 283.5,-60.5 170.5,-60.5"/>
<text text-anchor="middle" x="227" y="-67.9" font-family="Helvetica,sans-Serif" font-size="12.00">ResizeDlg::Resize</text>
</a>
</g>
</g>
<!-- Node1&#45;&gt;Node2 -->
<g id="edge1" class="edge"><title>Node1&#45;&gt;Node2</title>
<path fill="none" stroke="midnightblue" d="M134.091,-71C142.721,-71 151.563,-71 160.189,-71"/>
<polygon fill="midnightblue" stroke="midnightblue" points="160.191,-74.5001 170.191,-71 160.191,-67.5001 160.191,-74.5001"/>
</g>
<!-- Node3 -->
<g id="node3" class="node"><title>Node3</title>
<g id="a_node3"><a xlink:href="../../df/d14/class_resize_dlg.html#abe2cd6505a36ea159640b6b35cf81bbc" target="_top" xlink:title="Calculates the differences in window height and width between the current and new sizes...">
<polygon fill="white" stroke="black" points="322,-121 322,-155 492,-155 492,-121 322,-121"/>
<text text-anchor="start" x="330" y="-141.4" font-family="Helvetica,sans-Serif" font-size="12.00">ResizeDlg::GetImageWindow</text>
<text text-anchor="middle" x="407" y="-128.4" font-family="Helvetica,sans-Serif" font-size="12.00">Delta</text>
</a>
</g>
</g>
<!-- Node2&#45;&gt;Node3 -->
<g id="edge2" class="edge"><title>Node2&#45;&gt;Node3</title>
<path fill="none" stroke="midnightblue" d="M250.412,-81.5388C268.875,-90.0269 295.85,-101.988 320,-111 326.206,-113.316 332.711,-115.604 339.246,-117.81"/>
<polygon fill="midnightblue" stroke="midnightblue" points="338.218,-121.157 348.811,-120.978 340.419,-114.512 338.218,-121.157"/>
</g>
<!-- Node5 -->
<g id="node5" class="node"><title>Node5</title>
<g id="a_node5"><a xlink:href="../../df/d14/class_resize_dlg.html#ad862978f7d388156953bcad1ee8fb7d0" target="_top" xlink:title="Changes the window size. ">
<polygon fill="white" stroke="black" points="320.5,-80.5 320.5,-101.5 493.5,-101.5 493.5,-80.5 320.5,-80.5"/>
<text text-anchor="middle" x="407" y="-87.9" font-family="Helvetica,sans-Serif" font-size="12.00">ResizeDlg::OffsetWindowSize</text>
</a>
</g>
</g>
<!-- Node2&#45;&gt;Node5 -->
<g id="edge4" class="edge"><title>Node2&#45;&gt;Node5</title>
<path fill="none" stroke="midnightblue" d="M283.832,-77.2733C292.277,-78.2221 301.187,-79.2232 310.19,-80.2348"/>
<polygon fill="midnightblue" stroke="midnightblue" points="310.046,-83.7406 320.375,-81.3792 310.828,-76.7844 310.046,-83.7406"/>
</g>
<!-- Node6 -->
<g id="node6" class="node"><title>Node6</title>
<g id="a_node6"><a xlink:href="../../df/d14/class_resize_dlg.html#ac488d477589ed7bf19d53c0a2f14b02a" target="_top" xlink:title="A function that centers an object with respect to the parent with the option to select only vertical ...">
<polygon fill="white" stroke="black" points="330,-40.5 330,-61.5 484,-61.5 484,-40.5 330,-40.5"/>
<text text-anchor="middle" x="407" y="-47.9" font-family="Helvetica,sans-Serif" font-size="12.00">ResizeDlg::CenterWindow</text>
</a>
</g>
</g>
<!-- Node2&#45;&gt;Node6 -->
<g id="edge6" class="edge"><title>Node2&#45;&gt;Node6</title>
<path fill="none" stroke="midnightblue" d="M283.832,-64.7267C295.222,-63.4469 307.459,-62.0721 319.629,-60.7046"/>
<polygon fill="midnightblue" stroke="midnightblue" points="320.27,-64.1546 329.817,-59.5599 319.489,-57.1984 320.27,-64.1546"/>
</g>
<!-- Node7 -->
<g id="node7" class="node"><title>Node7</title>
<g id="a_node7"><a xlink:href="../../df/d14/class_resize_dlg.html#ac1be0074b5ee381220d10b01f54e3c58" target="_top" xlink:title="ResizeDlg::OffsetChildPos">
<polygon fill="white" stroke="black" points="329.5,-0.5 329.5,-21.5 484.5,-21.5 484.5,-0.5 329.5,-0.5"/>
<text text-anchor="middle" x="407" y="-7.9" font-family="Helvetica,sans-Serif" font-size="12.00">ResizeDlg::OffsetChildPos</text>
</a>
</g>
</g>
<!-- Node2&#45;&gt;Node7 -->
<g id="edge7" class="edge"><title>Node2&#45;&gt;Node7</title>
<path fill="none" stroke="midnightblue" d="M249.133,-60.4991C267.509,-51.6888 295.03,-39.2556 320,-31 327.657,-28.4685 335.799,-26.1327 343.903,-24.0193"/>
<polygon fill="midnightblue" stroke="midnightblue" points="344.886,-27.3812 353.734,-21.5534 343.183,-20.5915 344.886,-27.3812"/>
</g>
<!-- Node4 -->
<g id="node4" class="node"><title>Node4</title>
<g id="a_node4"><a xlink:href="../../df/d14/class_resize_dlg.html#a39f24d6991e0289185f55fe79220b7ae" target="_top" xlink:title="A function that acquires either the window or client size. ">
<polygon fill="white" stroke="black" points="530.5,-103.5 530.5,-124.5 691.5,-124.5 691.5,-103.5 530.5,-103.5"/>
<text text-anchor="middle" x="611" y="-110.9" font-family="Helvetica,sans-Serif" font-size="12.00">ResizeDlg::GetWindowSize</text>
</a>
</g>
</g>
<!-- Node3&#45;&gt;Node4 -->
<g id="edge3" class="edge"><title>Node3&#45;&gt;Node4</title>
<path fill="none" stroke="midnightblue" d="M492.203,-127.996C501.505,-126.891 511.002,-125.762 520.367,-124.649"/>
<polygon fill="midnightblue" stroke="midnightblue" points="520.944,-128.106 530.462,-123.45 520.118,-121.154 520.944,-128.106"/>
</g>
<!-- Node5&#45;&gt;Node4 -->
<g id="edge5" class="edge"><title>Node5&#45;&gt;Node4</title>
<path fill="none" stroke="midnightblue" d="M493.666,-100.754C502.495,-101.759 511.483,-102.783 520.353,-103.793"/>
<polygon fill="midnightblue" stroke="midnightblue" points="519.971,-107.272 530.302,-104.926 520.763,-100.317 519.971,-107.272"/>
</g>
</g>
</svg>
