<?xml version="1.0" encoding="UTF-8" standalone="no"?>
<!DOCTYPE svg PUBLIC "-//W3C//DTD SVG 1.1//EN"
 "http://www.w3.org/Graphics/SVG/1.1/DTD/svg11.dtd">
<!-- Generated by graphviz version 2.34.0 (20130907.0111)
 -->
<!-- Title: COperatorConsoleDlg::QsoMove Pages: 1 -->
<svg width="340pt" height="83pt"
 viewBox="0.00 0.00 340.00 83.00" xmlns="http://www.w3.org/2000/svg" xmlns:xlink="http://www.w3.org/1999/xlink">
<g id="graph0" class="graph" transform="scale(1 1) rotate(0) translate(4 79)">
<title>COperatorConsoleDlg::QsoMove</title>
<polygon fill="white" stroke="white" points="-4,4 -4,-79 336,-79 336,4 -4,4"/>
<!-- Node1 -->
<g id="node1" class="node"><title>Node1</title>
<polygon fill="#bfbfbf" stroke="black" points="0,-17 0,-51 134,-51 134,-17 0,-17"/>
<text text-anchor="start" x="8" y="-37.4" font-family="Helvetica,sans-Serif" font-size="12.00">COperatorConsoleDlg</text>
<text text-anchor="middle" x="67" y="-24.4" font-family="Helvetica,sans-Serif" font-size="12.00">::QsoMove</text>
</g>
<!-- Node2 -->
<g id="node2" class="node"><title>Node2</title>
<g id="a_node2"><a xlink:href="../../dd/dd1/class_c_operator_console_dlg.html#a5259b5a3edff8df084f64268a125d135" target="_top" xlink:title="move &#39;wnd&#39; so its center is at the screen coordinate (centerX, centerY) ">
<polygon fill="white" stroke="black" points="184,-41 184,-75 318,-75 318,-41 184,-41"/>
<text text-anchor="start" x="192" y="-61.4" font-family="Helvetica,sans-Serif" font-size="12.00">COperatorConsoleDlg</text>
<text text-anchor="middle" x="251" y="-48.4" font-family="Helvetica,sans-Serif" font-size="12.00">::CenterWindow</text>
</a>
</g>
</g>
<!-- Node1&#45;&gt;Node2 -->
<g id="edge1" class="edge"><title>Node1&#45;&gt;Node2</title>
<path fill="none" stroke="midnightblue" d="M134.221,-42.7324C147.099,-44.4306 160.693,-46.2233 173.861,-47.9597"/>
<polygon fill="midnightblue" stroke="midnightblue" points="173.457,-51.4366 183.828,-49.2741 174.372,-44.4966 173.457,-51.4366"/>
</g>
<!-- Node3 -->
<g id="node3" class="node"><title>Node3</title>
<g id="a_node3"><a xlink:href="../../df/d14/class_resize_dlg.html#a39f24d6991e0289185f55fe79220b7ae" target="_top" xlink:title="A function that acquires either the window or client size. ">
<polygon fill="white" stroke="black" points="170.5,-0.5 170.5,-21.5 331.5,-21.5 331.5,-0.5 170.5,-0.5"/>
<text text-anchor="middle" x="251" y="-7.9" font-family="Helvetica,sans-Serif" font-size="12.00">ResizeDlg::GetWindowSize</text>
</a>
</g>
</g>
<!-- Node1&#45;&gt;Node3 -->
<g id="edge2" class="edge"><title>Node1&#45;&gt;Node3</title>
<path fill="none" stroke="midnightblue" d="M134.221,-25.6314C142.622,-24.5697 151.328,-23.4695 160.021,-22.3709"/>
<polygon fill="midnightblue" stroke="midnightblue" points="160.72,-25.8106 170.202,-21.0843 159.842,-18.8658 160.72,-25.8106"/>
</g>
</g>
</svg>
