<?xml version="1.0" encoding="UTF-8" standalone="no"?>
<!DOCTYPE svg PUBLIC "-//W3C//DTD SVG 1.1//EN"
 "http://www.w3.org/Graphics/SVG/1.1/DTD/svg11.dtd">
<!-- Generated by graphviz version 2.34.0 (20130907.0111)
 -->
<!-- Title: COperatorConsoleDlg::LogMessage Pages: 1 -->
<svg width="844pt" height="192pt"
 viewBox="0.00 0.00 844.00 192.00" xmlns="http://www.w3.org/2000/svg" xmlns:xlink="http://www.w3.org/1999/xlink">
<g id="graph0" class="graph" transform="scale(1 1) rotate(0) translate(4 188)">
<title>COperatorConsoleDlg::LogMessage</title>
<polygon fill="white" stroke="white" points="-4,4 -4,-188 840,-188 840,4 -4,4"/>
<!-- Node1 -->
<g id="node1" class="node"><title>Node1</title>
<polygon fill="#bfbfbf" stroke="black" points="0,-77 0,-111 134,-111 134,-77 0,-77"/>
<text text-anchor="start" x="8" y="-97.4" font-family="Helvetica,sans-Serif" font-size="12.00">COperatorConsoleDlg</text>
<text text-anchor="middle" x="67" y="-84.4" font-family="Helvetica,sans-Serif" font-size="12.00">::LogMessage</text>
</g>
<!-- Node2 -->
<g id="node2" class="node"><title>Node2</title>
<g id="a_node2"><a xlink:href="../../d3/d9f/class_c_operator_console_app.html#a5e4a6598aa6a33636d283e29f19c76ca" target="_top" xlink:title="COperatorConsoleApp\l::GetStdoutMsg">
<polygon fill="white" stroke="black" points="347.5,-106 347.5,-140 484.5,-140 484.5,-106 347.5,-106"/>
<text text-anchor="start" x="355.5" y="-126.4" font-family="Helvetica,sans-Serif" font-size="12.00">COperatorConsoleApp</text>
<text text-anchor="middle" x="416" y="-113.4" font-family="Helvetica,sans-Serif" font-size="12.00">::GetStdoutMsg</text>
</a>
</g>
</g>
<!-- Node1&#45;&gt;Node2 -->
<g id="edge1" class="edge"><title>Node1&#45;&gt;Node2</title>
<path fill="none" stroke="midnightblue" d="M144.372,-100.383C205.052,-105.454 289.118,-112.48 347.386,-117.349"/>
<polygon fill="midnightblue" stroke="midnightblue" points="144.342,-96.868 134.085,-99.5229 143.759,-103.844 144.342,-96.868"/>
</g>
<!-- Node6 -->
<g id="node6" class="node"><title>Node6</title>
<g id="a_node6"><a xlink:href="../../d3/d9f/class_c_operator_console_app.html#a61fec0ac8bc8938749e977686e37e0dc" target="_top" xlink:title="COperatorConsoleApp\l::UpdateResults">
<polygon fill="white" stroke="black" points="170.5,-53 170.5,-87 307.5,-87 307.5,-53 170.5,-53"/>
<text text-anchor="start" x="178.5" y="-73.4" font-family="Helvetica,sans-Serif" font-size="12.00">COperatorConsoleApp</text>
<text text-anchor="middle" x="239" y="-60.4" font-family="Helvetica,sans-Serif" font-size="12.00">::UpdateResults</text>
</a>
</g>
</g>
<!-- Node1&#45;&gt;Node6 -->
<g id="edge6" class="edge"><title>Node1&#45;&gt;Node6</title>
<path fill="none" stroke="midnightblue" d="M144.303,-83.2278C152.964,-82.0051 161.747,-80.7651 170.287,-79.5595"/>
<polygon fill="midnightblue" stroke="midnightblue" points="143.626,-79.7886 134.213,-84.6523 144.604,-86.7199 143.626,-79.7886"/>
</g>
<!-- Node3 -->
<g id="node3" class="node"><title>Node3</title>
<g id="a_node3"><a xlink:href="../../d3/d9f/class_c_operator_console_app.html#a5ffde398d86b31aa60e8dbb3cd0cf8f4" target="_top" xlink:title="Called after MSG_STDERR is received. ">
<polygon fill="white" stroke="black" points="524.5,-150 524.5,-184 661.5,-184 661.5,-150 524.5,-150"/>
<text text-anchor="start" x="532.5" y="-170.4" font-family="Helvetica,sans-Serif" font-size="12.00">COperatorConsoleApp</text>
<text text-anchor="middle" x="593" y="-157.4" font-family="Helvetica,sans-Serif" font-size="12.00">::OnUpdateStderr</text>
</a>
</g>
</g>
<!-- Node2&#45;&gt;Node3 -->
<g id="edge2" class="edge"><title>Node2&#45;&gt;Node3</title>
<path fill="none" stroke="midnightblue" d="M494.494,-142.484C504.406,-144.976 514.491,-147.512 524.232,-149.961"/>
<polygon fill="midnightblue" stroke="midnightblue" points="495.211,-139.056 484.66,-140.012 493.504,-145.844 495.211,-139.056"/>
</g>
<!-- Node5 -->
<g id="node5" class="node"><title>Node5</title>
<g id="a_node5"><a xlink:href="../../d3/d9f/class_c_operator_console_app.html#a1baba590ed8125440723c012ff6a4e77" target="_top" xlink:title="Called after MSG_STDOUT is received. ">
<polygon fill="white" stroke="black" points="524.5,-97 524.5,-131 661.5,-131 661.5,-97 524.5,-97"/>
<text text-anchor="start" x="532.5" y="-117.4" font-family="Helvetica,sans-Serif" font-size="12.00">COperatorConsoleApp</text>
<text text-anchor="middle" x="593" y="-104.4" font-family="Helvetica,sans-Serif" font-size="12.00">::OnUpdateStdout</text>
</a>
</g>
</g>
<!-- Node2&#45;&gt;Node5 -->
<g id="edge4" class="edge"><title>Node2&#45;&gt;Node5</title>
<path fill="none" stroke="midnightblue" d="M494.804,-118.999C504.616,-118.494 514.592,-117.981 524.232,-117.485"/>
<polygon fill="midnightblue" stroke="midnightblue" points="494.467,-115.511 484.66,-119.52 494.826,-122.502 494.467,-115.511"/>
</g>
<!-- Node4 -->
<g id="node4" class="node"><title>Node4</title>
<g id="a_node4"><a xlink:href="../../d3/d9f/class_c_operator_console_app.html#a7041d197c4e6549f2cb7219981b4eec1" target="_top" xlink:title="Intercepts messages of interest before Windows or MFC. ">
<polygon fill="white" stroke="black" points="698,-74 698,-108 836,-108 836,-74 698,-74"/>
<text text-anchor="start" x="706" y="-94.4" font-family="Helvetica,sans-Serif" font-size="12.00">COperatorConsoleApp</text>
<text text-anchor="middle" x="767" y="-81.4" font-family="Helvetica,sans-Serif" font-size="12.00">::PreTranslateMessage</text>
</a>
</g>
</g>
<!-- Node3&#45;&gt;Node4 -->
<g id="edge3" class="edge"><title>Node3&#45;&gt;Node4</title>
<path fill="none" stroke="midnightblue" d="M647.502,-146.122C652.42,-144.092 657.313,-142.032 662,-140 685.256,-129.916 711.033,-117.778 731.106,-108.105"/>
<polygon fill="midnightblue" stroke="midnightblue" points="646,-142.954 638.061,-149.97 648.642,-149.436 646,-142.954"/>
</g>
<!-- Node5&#45;&gt;Node4 -->
<g id="edge5" class="edge"><title>Node5&#45;&gt;Node4</title>
<path fill="none" stroke="midnightblue" d="M672.054,-103.563C680.696,-102.407 689.446,-101.237 697.952,-100.099"/>
<polygon fill="midnightblue" stroke="midnightblue" points="671.427,-100.115 661.979,-104.91 672.355,-107.053 671.427,-100.115"/>
</g>
<!-- Node7 -->
<g id="node7" class="node"><title>Node7</title>
<g id="a_node7"><a xlink:href="../../d3/d9f/class_c_operator_console_app.html#aeed50eef07f7d6350dffd5730793908c" target="_top" xlink:title="Called after MSG_BLEMISH_DONE is received. ">
<polygon fill="white" stroke="black" points="347.5,-53 347.5,-87 484.5,-87 484.5,-53 347.5,-53"/>
<text text-anchor="start" x="355.5" y="-73.4" font-family="Helvetica,sans-Serif" font-size="12.00">COperatorConsoleApp</text>
<text text-anchor="middle" x="416" y="-60.4" font-family="Helvetica,sans-Serif" font-size="12.00">::OnBlemishDone</text>
</a>
</g>
</g>
<!-- Node6&#45;&gt;Node7 -->
<g id="edge7" class="edge"><title>Node6&#45;&gt;Node7</title>
<path fill="none" stroke="midnightblue" d="M317.804,-70C327.616,-70 337.592,-70 347.232,-70"/>
<polygon fill="midnightblue" stroke="midnightblue" points="317.66,-66.5001 307.66,-70 317.66,-73.5001 317.66,-66.5001"/>
</g>
<!-- Node8 -->
<g id="node8" class="node"><title>Node8</title>
<g id="a_node8"><a xlink:href="../../d3/d9f/class_c_operator_console_app.html#afcaa58d4a5fb9c7cff5e35ae64e1420c" target="_top" xlink:title="COperatorConsoleApp\l::UpdateResultsSFRplus">
<polygon fill="white" stroke="black" points="344,-0 344,-34 488,-34 488,-0 344,-0"/>
<text text-anchor="start" x="352" y="-20.4" font-family="Helvetica,sans-Serif" font-size="12.00">COperatorConsoleApp</text>
<text text-anchor="middle" x="416" y="-7.4" font-family="Helvetica,sans-Serif" font-size="12.00">::UpdateResultsSFRplus</text>
</a>
</g>
</g>
<!-- Node6&#45;&gt;Node8 -->
<g id="edge9" class="edge"><title>Node6&#45;&gt;Node8</title>
<path fill="none" stroke="midnightblue" d="M306.349,-49.9056C323.626,-44.6732 342.073,-39.0863 358.771,-34.0293"/>
<polygon fill="midnightblue" stroke="midnightblue" points="304.891,-46.6904 296.334,-52.9387 306.92,-53.3899 304.891,-46.6904"/>
</g>
<!-- Node7&#45;&gt;Node4 -->
<g id="edge8" class="edge"><title>Node7&#45;&gt;Node4</title>
<path fill="none" stroke="midnightblue" d="M495.034,-74.6955C555.93,-78.3597 639.68,-83.3991 697.889,-86.9016"/>
<polygon fill="midnightblue" stroke="midnightblue" points="494.897,-71.181 484.705,-74.0739 494.476,-78.1683 494.897,-71.181"/>
</g>
<!-- Node9 -->
<g id="node9" class="node"><title>Node9</title>
<g id="a_node9"><a xlink:href="../../d3/d9f/class_c_operator_console_app.html#a58fa1716c660b80c55845b79505ff4d6" target="_top" xlink:title="Called after MSG_SFRPLUS_DONE is received. ">
<polygon fill="white" stroke="black" points="524.5,-2 524.5,-36 661.5,-36 661.5,-2 524.5,-2"/>
<text text-anchor="start" x="532.5" y="-22.4" font-family="Helvetica,sans-Serif" font-size="12.00">COperatorConsoleApp</text>
<text text-anchor="middle" x="593" y="-9.4" font-family="Helvetica,sans-Serif" font-size="12.00">::OnSFRplusDone</text>
</a>
</g>
</g>
<!-- Node8&#45;&gt;Node9 -->
<g id="edge10" class="edge"><title>Node8&#45;&gt;Node9</title>
<path fill="none" stroke="midnightblue" d="M498.318,-17.9294C507.005,-18.0286 515.773,-18.1288 524.278,-18.226"/>
<polygon fill="midnightblue" stroke="midnightblue" points="498.219,-14.4281 488.179,-17.8135 498.139,-21.4276 498.219,-14.4281"/>
</g>
<!-- Node9&#45;&gt;Node4 -->
<g id="edge11" class="edge"><title>Node9&#45;&gt;Node4</title>
<path fill="none" stroke="midnightblue" d="M644.009,-39.9339C669.817,-50.7374 700.901,-63.7495 725.233,-73.9349"/>
<polygon fill="midnightblue" stroke="midnightblue" points="645.338,-36.6959 634.762,-36.063 642.635,-43.153 645.338,-36.6959"/>
</g>
</g>
</svg>
