<?xml version="1.0" encoding="UTF-8" standalone="no"?>
<!DOCTYPE svg PUBLIC "-//W3C//DTD SVG 1.1//EN"
 "http://www.w3.org/Graphics/SVG/1.1/DTD/svg11.dtd">
<!-- Generated by graphviz version 2.34.0 (20130907.0111)
 -->
<!-- Title: COperatorConsoleDlg::UpdateSummary Pages: 1 -->
<svg width="844pt" height="95pt"
 viewBox="0.00 0.00 844.00 95.00" xmlns="http://www.w3.org/2000/svg" xmlns:xlink="http://www.w3.org/1999/xlink">
<g id="graph0" class="graph" transform="scale(1 1) rotate(0) translate(4 91)">
<title>COperatorConsoleDlg::UpdateSummary</title>
<polygon fill="white" stroke="white" points="-4,4 -4,-91 840,-91 840,4 -4,4"/>
<!-- Node1 -->
<g id="node1" class="node"><title>Node1</title>
<polygon fill="#bfbfbf" stroke="black" points="0,-27 0,-61 134,-61 134,-27 0,-27"/>
<text text-anchor="start" x="8" y="-47.4" font-family="Helvetica,sans-Serif" font-size="12.00">COperatorConsoleDlg</text>
<text text-anchor="middle" x="67" y="-34.4" font-family="Helvetica,sans-Serif" font-size="12.00">::UpdateSummary</text>
</g>
<!-- Node2 -->
<g id="node2" class="node"><title>Node2</title>
<g id="a_node2"><a xlink:href="../../d3/d9f/class_c_operator_console_app.html#a61fec0ac8bc8938749e977686e37e0dc" target="_top" xlink:title="COperatorConsoleApp\l::UpdateResults">
<polygon fill="white" stroke="black" points="170.5,-27 170.5,-61 307.5,-61 307.5,-27 170.5,-27"/>
<text text-anchor="start" x="178.5" y="-47.4" font-family="Helvetica,sans-Serif" font-size="12.00">COperatorConsoleApp</text>
<text text-anchor="middle" x="239" y="-34.4" font-family="Helvetica,sans-Serif" font-size="12.00">::UpdateResults</text>
</a>
</g>
</g>
<!-- Node1&#45;&gt;Node2 -->
<g id="edge1" class="edge"><title>Node1&#45;&gt;Node2</title>
<path fill="none" stroke="midnightblue" d="M144.303,-44C152.964,-44 161.747,-44 170.287,-44"/>
<polygon fill="midnightblue" stroke="midnightblue" points="144.213,-40.5001 134.213,-44 144.213,-47.5001 144.213,-40.5001"/>
</g>
<!-- Node3 -->
<g id="node3" class="node"><title>Node3</title>
<g id="a_node3"><a xlink:href="../../d3/d9f/class_c_operator_console_app.html#aeed50eef07f7d6350dffd5730793908c" target="_top" xlink:title="Called after MSG_BLEMISH_DONE is received. ">
<polygon fill="white" stroke="black" points="524.5,-53 524.5,-87 661.5,-87 661.5,-53 524.5,-53"/>
<text text-anchor="start" x="532.5" y="-73.4" font-family="Helvetica,sans-Serif" font-size="12.00">COperatorConsoleApp</text>
<text text-anchor="middle" x="593" y="-60.4" font-family="Helvetica,sans-Serif" font-size="12.00">::OnBlemishDone</text>
</a>
</g>
</g>
<!-- Node2&#45;&gt;Node3 -->
<g id="edge2" class="edge"><title>Node2&#45;&gt;Node3</title>
<path fill="none" stroke="midnightblue" d="M317.968,-49.759C379.808,-54.3267 465.357,-60.6457 524.339,-65.0023"/>
<polygon fill="midnightblue" stroke="midnightblue" points="318.1,-46.2593 307.869,-49.0131 317.584,-53.2403 318.1,-46.2593"/>
</g>
<!-- Node5 -->
<g id="node5" class="node"><title>Node5</title>
<g id="a_node5"><a xlink:href="../../d3/d9f/class_c_operator_console_app.html#afcaa58d4a5fb9c7cff5e35ae64e1420c" target="_top" xlink:title="COperatorConsoleApp\l::UpdateResultsSFRplus">
<polygon fill="white" stroke="black" points="344,-3 344,-37 488,-37 488,-3 344,-3"/>
<text text-anchor="start" x="352" y="-23.4" font-family="Helvetica,sans-Serif" font-size="12.00">COperatorConsoleApp</text>
<text text-anchor="middle" x="416" y="-10.4" font-family="Helvetica,sans-Serif" font-size="12.00">::UpdateResultsSFRplus</text>
</a>
</g>
</g>
<!-- Node2&#45;&gt;Node5 -->
<g id="edge4" class="edge"><title>Node2&#45;&gt;Node5</title>
<path fill="none" stroke="midnightblue" d="M317.742,-33.3382C326.399,-32.151 335.185,-30.9461 343.755,-29.7708"/>
<polygon fill="midnightblue" stroke="midnightblue" points="317.091,-29.8946 307.66,-34.721 318.042,-36.8297 317.091,-29.8946"/>
</g>
<!-- Node4 -->
<g id="node4" class="node"><title>Node4</title>
<g id="a_node4"><a xlink:href="../../d3/d9f/class_c_operator_console_app.html#a7041d197c4e6549f2cb7219981b4eec1" target="_top" xlink:title="Intercepts messages of interest before Windows or MFC. ">
<polygon fill="white" stroke="black" points="698,-26 698,-60 836,-60 836,-26 698,-26"/>
<text text-anchor="start" x="706" y="-46.4" font-family="Helvetica,sans-Serif" font-size="12.00">COperatorConsoleApp</text>
<text text-anchor="middle" x="767" y="-33.4" font-family="Helvetica,sans-Serif" font-size="12.00">::PreTranslateMessage</text>
</a>
</g>
</g>
<!-- Node3&#45;&gt;Node4 -->
<g id="edge3" class="edge"><title>Node3&#45;&gt;Node4</title>
<path fill="none" stroke="midnightblue" d="M672.054,-57.7474C680.696,-56.3907 689.446,-55.0171 697.952,-53.682"/>
<polygon fill="midnightblue" stroke="midnightblue" points="671.315,-54.3204 661.979,-59.3289 672.401,-61.2357 671.315,-54.3204"/>
</g>
<!-- Node6 -->
<g id="node6" class="node"><title>Node6</title>
<g id="a_node6"><a xlink:href="../../d3/d9f/class_c_operator_console_app.html#a58fa1716c660b80c55845b79505ff4d6" target="_top" xlink:title="Called after MSG_SFRPLUS_DONE is received. ">
<polygon fill="white" stroke="black" points="524.5,-0 524.5,-34 661.5,-34 661.5,-0 524.5,-0"/>
<text text-anchor="start" x="532.5" y="-20.4" font-family="Helvetica,sans-Serif" font-size="12.00">COperatorConsoleApp</text>
<text text-anchor="middle" x="593" y="-7.4" font-family="Helvetica,sans-Serif" font-size="12.00">::OnSFRplusDone</text>
</a>
</g>
</g>
<!-- Node5&#45;&gt;Node6 -->
<g id="edge5" class="edge"><title>Node5&#45;&gt;Node6</title>
<path fill="none" stroke="midnightblue" d="M498.318,-18.606C507.005,-18.4571 515.773,-18.3068 524.278,-18.161"/>
<polygon fill="midnightblue" stroke="midnightblue" points="498.118,-15.1088 488.179,-18.7798 498.238,-22.1078 498.118,-15.1088"/>
</g>
<!-- Node6&#45;&gt;Node4 -->
<g id="edge6" class="edge"><title>Node6&#45;&gt;Node4</title>
<path fill="none" stroke="midnightblue" d="M672.054,-28.7988C680.696,-30.1052 689.446,-31.4279 697.952,-32.7136"/>
<polygon fill="midnightblue" stroke="midnightblue" points="672.39,-25.3099 661.979,-27.2759 671.343,-32.2313 672.39,-25.3099"/>
</g>
</g>
</svg>
