<?xml version="1.0" encoding="UTF-8" standalone="no"?>
<!DOCTYPE svg PUBLIC "-//W3C//DTD SVG 1.1//EN"
 "http://www.w3.org/Graphics/SVG/1.1/DTD/svg11.dtd">
<!-- Generated by graphviz version 2.34.0 (20130907.0111)
 -->
<!-- Title: COperatorConsoleDlg::OnBnClickedStart Pages: 1 -->
<svg width="482pt" height="201pt"
 viewBox="0.00 0.00 482.00 201.00" xmlns="http://www.w3.org/2000/svg" xmlns:xlink="http://www.w3.org/1999/xlink">
<g id="graph0" class="graph" transform="scale(1 1) rotate(0) translate(4 197)">
<title>COperatorConsoleDlg::OnBnClickedStart</title>
<polygon fill="white" stroke="white" points="-4,4 -4,-197 478,-197 478,4 -4,4"/>
<!-- Node1 -->
<g id="node1" class="node"><title>Node1</title>
<polygon fill="#bfbfbf" stroke="black" points="0,-79 0,-113 134,-113 134,-79 0,-79"/>
<text text-anchor="start" x="8" y="-99.4" font-family="Helvetica,sans-Serif" font-size="12.00">COperatorConsoleDlg</text>
<text text-anchor="middle" x="67" y="-86.4" font-family="Helvetica,sans-Serif" font-size="12.00">::OnBnClickedStart</text>
</g>
<!-- Node2 -->
<g id="node2" class="node"><title>Node2</title>
<g id="a_node2"><a xlink:href="../../dd/dd1/class_c_operator_console_dlg.html#a5b4930e365a3a0ee50490231a1c7f3bd" target="_top" xlink:title="COperatorConsoleDlg\l::PostParentMessage">
<polygon fill="white" stroke="black" points="170,-159 170,-193 304,-193 304,-159 170,-159"/>
<text text-anchor="start" x="178" y="-179.4" font-family="Helvetica,sans-Serif" font-size="12.00">COperatorConsoleDlg</text>
<text text-anchor="middle" x="237" y="-166.4" font-family="Helvetica,sans-Serif" font-size="12.00">::PostParentMessage</text>
</a>
</g>
</g>
<!-- Node1&#45;&gt;Node2 -->
<g id="edge1" class="edge"><title>Node1&#45;&gt;Node2</title>
<path fill="none" stroke="midnightblue" d="M99.334,-113.222C119.326,-123.975 145.916,-137.845 170,-149 174.335,-151.008 178.864,-153.024 183.428,-155.001"/>
<polygon fill="midnightblue" stroke="midnightblue" points="182.226,-158.293 192.798,-158.986 184.966,-151.851 182.226,-158.293"/>
</g>
<!-- Node3 -->
<g id="node3" class="node"><title>Node3</title>
<g id="a_node3"><a xlink:href="../../dd/dd1/class_c_operator_console_dlg.html#a97e4afb686fa8055a81928767b8f3f67" target="_top" xlink:title="COperatorConsoleDlg\l::ShowStartStop">
<polygon fill="white" stroke="black" points="170,-106 170,-140 304,-140 304,-106 170,-106"/>
<text text-anchor="start" x="178" y="-126.4" font-family="Helvetica,sans-Serif" font-size="12.00">COperatorConsoleDlg</text>
<text text-anchor="middle" x="237" y="-113.4" font-family="Helvetica,sans-Serif" font-size="12.00">::ShowStartStop</text>
</a>
</g>
</g>
<!-- Node1&#45;&gt;Node3 -->
<g id="edge2" class="edge"><title>Node1&#45;&gt;Node3</title>
<path fill="none" stroke="midnightblue" d="M134.398,-106.671C142.77,-108.017 151.386,-109.401 159.894,-110.769"/>
<polygon fill="midnightblue" stroke="midnightblue" points="159.38,-114.231 169.809,-112.362 160.491,-107.32 159.38,-114.231"/>
</g>
<!-- Node4 -->
<g id="node4" class="node"><title>Node4</title>
<g id="a_node4"><a xlink:href="../../dd/dd1/class_c_operator_console_dlg.html#ac6388b6097a94350ecf4abf7e166f9a6" target="_top" xlink:title="COperatorConsoleDlg\l::UpdateQuadrants">
<polygon fill="white" stroke="black" points="170,-53 170,-87 304,-87 304,-53 170,-53"/>
<text text-anchor="start" x="178" y="-73.4" font-family="Helvetica,sans-Serif" font-size="12.00">COperatorConsoleDlg</text>
<text text-anchor="middle" x="237" y="-60.4" font-family="Helvetica,sans-Serif" font-size="12.00">::UpdateQuadrants</text>
</a>
</g>
</g>
<!-- Node1&#45;&gt;Node4 -->
<g id="edge3" class="edge"><title>Node1&#45;&gt;Node4</title>
<path fill="none" stroke="midnightblue" d="M134.398,-85.7241C142.77,-84.4284 151.386,-83.095 159.894,-81.7784"/>
<polygon fill="midnightblue" stroke="midnightblue" points="160.462,-85.2321 169.809,-80.2438 159.392,-78.3145 160.462,-85.2321"/>
</g>
<!-- Node6 -->
<g id="node6" class="node"><title>Node6</title>
<g id="a_node6"><a xlink:href="../../dd/dd1/class_c_operator_console_dlg.html#a8951b07d9665d1994a9ba7d6896fb816" target="_top" xlink:title="COperatorConsoleDlg\l::UpdateStatus">
<polygon fill="white" stroke="black" points="170,-0 170,-34 304,-34 304,-0 170,-0"/>
<text text-anchor="start" x="178" y="-20.4" font-family="Helvetica,sans-Serif" font-size="12.00">COperatorConsoleDlg</text>
<text text-anchor="middle" x="237" y="-7.4" font-family="Helvetica,sans-Serif" font-size="12.00">::UpdateStatus</text>
</a>
</g>
</g>
<!-- Node1&#45;&gt;Node6 -->
<g id="edge5" class="edge"><title>Node1&#45;&gt;Node6</title>
<path fill="none" stroke="midnightblue" d="M99.8231,-78.915C119.777,-68.4184 146.15,-54.9349 170,-44 174.343,-42.0087 178.877,-40.0042 183.445,-38.0356"/>
<polygon fill="midnightblue" stroke="midnightblue" points="184.979,-41.1869 192.82,-34.0613 182.247,-34.7421 184.979,-41.1869"/>
</g>
<!-- Node5 -->
<g id="node5" class="node"><title>Node5</title>
<g id="a_node5"><a xlink:href="../../dd/dd1/class_c_operator_console_dlg.html#a3dc3be61b2ebac3cd120e8542b3952c3" target="_top" xlink:title="COperatorConsoleDlg\l::UpdateQuadrant">
<polygon fill="white" stroke="black" points="340,-53 340,-87 474,-87 474,-53 340,-53"/>
<text text-anchor="start" x="348" y="-73.4" font-family="Helvetica,sans-Serif" font-size="12.00">COperatorConsoleDlg</text>
<text text-anchor="middle" x="407" y="-60.4" font-family="Helvetica,sans-Serif" font-size="12.00">::UpdateQuadrant</text>
</a>
</g>
</g>
<!-- Node4&#45;&gt;Node5 -->
<g id="edge4" class="edge"><title>Node4&#45;&gt;Node5</title>
<path fill="none" stroke="midnightblue" d="M304.398,-70C312.679,-70 321.199,-70 329.616,-70"/>
<polygon fill="midnightblue" stroke="midnightblue" points="329.809,-73.5001 339.809,-70 329.809,-66.5001 329.809,-73.5001"/>
</g>
</g>
</svg>
