<?xml version="1.0" encoding="UTF-8" standalone="no"?>
<!DOCTYPE svg PUBLIC "-//W3C//DTD SVG 1.1//EN"
 "http://www.w3.org/Graphics/SVG/1.1/DTD/svg11.dtd">
<!-- Generated by graphviz version 2.34.0 (20130907.0111)
 -->
<!-- Title: COperatorConsoleDlg::OnBnClickedShowjson Pages: 1 -->
<svg width="320pt" height="42pt"
 viewBox="0.00 0.00 320.00 42.00" xmlns="http://www.w3.org/2000/svg" xmlns:xlink="http://www.w3.org/1999/xlink">
<g id="graph0" class="graph" transform="scale(1 1) rotate(0) translate(4 38)">
<title>COperatorConsoleDlg::OnBnClickedShowjson</title>
<polygon fill="white" stroke="white" points="-4,4 -4,-38 316,-38 316,4 -4,4"/>
<!-- Node1 -->
<g id="node1" class="node"><title>Node1</title>
<polygon fill="#bfbfbf" stroke="black" points="0,-0 0,-34 142,-34 142,-0 0,-0"/>
<text text-anchor="start" x="8" y="-20.4" font-family="Helvetica,sans-Serif" font-size="12.00">COperatorConsoleDlg</text>
<text text-anchor="middle" x="71" y="-7.4" font-family="Helvetica,sans-Serif" font-size="12.00">::OnBnClickedShowjson</text>
</g>
<!-- Node2 -->
<g id="node2" class="node"><title>Node2</title>
<g id="a_node2"><a xlink:href="../../dd/dd1/class_c_operator_console_dlg.html#a5b4930e365a3a0ee50490231a1c7f3bd" target="_top" xlink:title="COperatorConsoleDlg\l::PostParentMessage">
<polygon fill="white" stroke="black" points="178,-0 178,-34 312,-34 312,-0 178,-0"/>
<text text-anchor="start" x="186" y="-20.4" font-family="Helvetica,sans-Serif" font-size="12.00">COperatorConsoleDlg</text>
<text text-anchor="middle" x="245" y="-7.4" font-family="Helvetica,sans-Serif" font-size="12.00">::PostParentMessage</text>
</a>
</g>
</g>
<!-- Node1&#45;&gt;Node2 -->
<g id="edge1" class="edge"><title>Node1&#45;&gt;Node2</title>
<path fill="none" stroke="midnightblue" d="M142.455,-17C150.766,-17 159.277,-17 167.663,-17"/>
<polygon fill="midnightblue" stroke="midnightblue" points="167.81,-20.5001 177.81,-17 167.81,-13.5001 167.81,-20.5001"/>
</g>
</g>
</svg>
