<?xml version="1.0" encoding="UTF-8" standalone="no"?>
<!DOCTYPE svg PUBLIC "-//W3C//DTD SVG 1.1//EN"
 "http://www.w3.org/Graphics/SVG/1.1/DTD/svg11.dtd">
<!-- Generated by graphviz version 2.34.0 (20130907.0111)
 -->
<!-- Title: COperatorConsoleDlg::ReInitDialog Pages: 1 -->
<svg width="728pt" height="301pt"
 viewBox="0.00 0.00 728.00 300.93" xmlns="http://www.w3.org/2000/svg" xmlns:xlink="http://www.w3.org/1999/xlink">
<g id="graph0" class="graph" transform="scale(1 1) rotate(0) translate(4 296.932)">
<title>COperatorConsoleDlg::ReInitDialog</title>
<polygon fill="white" stroke="white" points="-4,4 -4,-296.932 724,-296.932 724,4 -4,4"/>
<!-- Node1 -->
<g id="node1" class="node"><title>Node1</title>
<polygon fill="#bfbfbf" stroke="black" points="0,-94 0,-128 134,-128 134,-94 0,-94"/>
<text text-anchor="start" x="8" y="-114.4" font-family="Helvetica,sans-Serif" font-size="12.00">COperatorConsoleDlg</text>
<text text-anchor="middle" x="67" y="-101.4" font-family="Helvetica,sans-Serif" font-size="12.00">::ReInitDialog</text>
</g>
<!-- Node2 -->
<g id="node2" class="node"><title>Node2</title>
<g id="a_node2"><a xlink:href="../../df/d14/class_resize_dlg.html#abbc1b69a8e4b0ef7b28bda23385a6697" target="_top" xlink:title="Resizes an object within a parent window that allows the object to shrink vertically, but not below a minimum size. ">
<polygon fill="white" stroke="black" points="170,-188 170,-222 312,-222 312,-188 170,-188"/>
<text text-anchor="start" x="178" y="-208.4" font-family="Helvetica,sans-Serif" font-size="12.00">ResizeDlg::Bidirectional</text>
<text text-anchor="middle" x="241" y="-195.4" font-family="Helvetica,sans-Serif" font-size="12.00">Resize</text>
</a>
</g>
</g>
<!-- Node1&#45;&gt;Node2 -->
<g id="edge1" class="edge"><title>Node1&#45;&gt;Node2</title>
<path fill="none" stroke="midnightblue" d="M91.0408,-128.189C111.17,-142.695 141.544,-163.378 170,-178 173.952,-180.031 178.093,-181.999 182.303,-183.887"/>
<polygon fill="midnightblue" stroke="midnightblue" points="181.015,-187.143 191.584,-187.881 183.782,-180.713 181.015,-187.143"/>
</g>
<!-- Node8 -->
<g id="node8" class="node"><title>Node8</title>
<g id="a_node8"><a xlink:href="../../dc/dad/class_c_static_bmp.html#ad7cc3a6242ed127721a559ac4f9dbf99" target="_top" xlink:title="CStaticBmp::Init">
<polygon fill="white" stroke="black" points="190.5,-147.5 190.5,-168.5 291.5,-168.5 291.5,-147.5 190.5,-147.5"/>
<text text-anchor="middle" x="241" y="-154.9" font-family="Helvetica,sans-Serif" font-size="12.00">CStaticBmp::Init</text>
</a>
</g>
</g>
<!-- Node1&#45;&gt;Node8 -->
<g id="edge9" class="edge"><title>Node1&#45;&gt;Node8</title>
<path fill="none" stroke="midnightblue" d="M130.583,-128.101C150.693,-133.596 172.653,-139.597 191.587,-144.771"/>
<polygon fill="midnightblue" stroke="midnightblue" points="190.905,-148.213 201.474,-147.473 192.751,-141.46 190.905,-148.213"/>
</g>
<!-- Node9 -->
<g id="node9" class="node"><title>Node9</title>
<g id="a_node9"><a xlink:href="../../dd/dd1/class_c_operator_console_dlg.html#ae1eb7b114c7d3a43fe4b3e73117a197d" target="_top" xlink:title="COperatorConsoleDlg\l::MoveFPS">
<polygon fill="white" stroke="black" points="174,-94 174,-128 308,-128 308,-94 174,-94"/>
<text text-anchor="start" x="182" y="-114.4" font-family="Helvetica,sans-Serif" font-size="12.00">COperatorConsoleDlg</text>
<text text-anchor="middle" x="241" y="-101.4" font-family="Helvetica,sans-Serif" font-size="12.00">::MoveFPS</text>
</a>
</g>
</g>
<!-- Node1&#45;&gt;Node9 -->
<g id="edge10" class="edge"><title>Node1&#45;&gt;Node9</title>
<path fill="none" stroke="midnightblue" d="M134.008,-111C143.711,-111 153.773,-111 163.663,-111"/>
<polygon fill="midnightblue" stroke="midnightblue" points="163.885,-114.5 173.885,-111 163.885,-107.5 163.885,-114.5"/>
</g>
<!-- Node10 -->
<g id="node10" class="node"><title>Node10</title>
<g id="a_node10"><a xlink:href="../../dd/dd1/class_c_operator_console_dlg.html#a2eeb3b1e858acfd13c7a15bf9b3806ee" target="_top" xlink:title="COperatorConsoleDlg\l::QsoMove">
<polygon fill="white" stroke="black" points="174,-41 174,-75 308,-75 308,-41 174,-41"/>
<text text-anchor="start" x="182" y="-61.4" font-family="Helvetica,sans-Serif" font-size="12.00">COperatorConsoleDlg</text>
<text text-anchor="middle" x="241" y="-48.4" font-family="Helvetica,sans-Serif" font-size="12.00">::QsoMove</text>
</a>
</g>
</g>
<!-- Node1&#45;&gt;Node10 -->
<g id="edge11" class="edge"><title>Node1&#45;&gt;Node10</title>
<path fill="none" stroke="midnightblue" d="M123.369,-93.9387C139.787,-88.8795 157.919,-83.2923 174.895,-78.0613"/>
<polygon fill="midnightblue" stroke="midnightblue" points="176.209,-81.3189 184.735,-75.0293 174.148,-74.6293 176.209,-81.3189"/>
</g>
<!-- Node12 -->
<g id="node12" class="node"><title>Node12</title>
<g id="a_node12"><a xlink:href="../../dc/dad/class_c_static_bmp.html#a00d2d71cabb44468cacd464307d749d4" target="_top" xlink:title="CStaticBmp::Update">
<polygon fill="white" stroke="black" points="178.5,-0.5 178.5,-21.5 303.5,-21.5 303.5,-0.5 178.5,-0.5"/>
<text text-anchor="middle" x="241" y="-7.9" font-family="Helvetica,sans-Serif" font-size="12.00">CStaticBmp::Update</text>
</a>
</g>
</g>
<!-- Node1&#45;&gt;Node12 -->
<g id="edge14" class="edge"><title>Node1&#45;&gt;Node12</title>
<path fill="none" stroke="midnightblue" d="M85.313,-93.9281C104.508,-75.8864 137.122,-47.7714 170,-31 174.345,-28.7835 178.971,-26.7807 183.695,-24.9776"/>
<polygon fill="midnightblue" stroke="midnightblue" points="185.188,-28.1629 193.468,-21.5525 182.873,-21.5569 185.188,-28.1629"/>
</g>
<!-- Node3 -->
<g id="node3" class="node"><title>Node3</title>
<g id="a_node3"><a xlink:href="../../df/d14/class_resize_dlg.html#a39f24d6991e0289185f55fe79220b7ae" target="_top" xlink:title="A function that acquires either the window or client size. ">
<polygon fill="white" stroke="black" points="558.5,-217.5 558.5,-238.5 719.5,-238.5 719.5,-217.5 558.5,-217.5"/>
<text text-anchor="middle" x="639" y="-224.9" font-family="Helvetica,sans-Serif" font-size="12.00">ResizeDlg::GetWindowSize</text>
</a>
</g>
</g>
<!-- Node2&#45;&gt;Node3 -->
<g id="edge2" class="edge"><title>Node2&#45;&gt;Node3</title>
<path fill="none" stroke="midnightblue" d="M259.673,-222.291C279.347,-240.218 313.008,-267.117 348,-278 421.844,-300.968 446.262,-293.628 522,-278 553.948,-271.408 587.933,-255.595 610.802,-243.503"/>
<polygon fill="midnightblue" stroke="midnightblue" points="612.756,-246.425 619.884,-238.586 609.424,-240.269 612.756,-246.425"/>
</g>
<!-- Node4 -->
<g id="node4" class="node"><title>Node4</title>
<g id="a_node4"><a xlink:href="../../df/d14/class_resize_dlg.html#abe2cd6505a36ea159640b6b35cf81bbc" target="_top" xlink:title="Calculates the differences in window height and width between the current and new sizes...">
<polygon fill="white" stroke="black" points="350,-235 350,-269 520,-269 520,-235 350,-235"/>
<text text-anchor="start" x="358" y="-255.4" font-family="Helvetica,sans-Serif" font-size="12.00">ResizeDlg::GetImageWindow</text>
<text text-anchor="middle" x="435" y="-242.4" font-family="Helvetica,sans-Serif" font-size="12.00">Delta</text>
</a>
</g>
</g>
<!-- Node2&#45;&gt;Node4 -->
<g id="edge3" class="edge"><title>Node2&#45;&gt;Node4</title>
<path fill="none" stroke="midnightblue" d="M311.588,-222.035C325.539,-225.45 340.298,-229.062 354.554,-232.552"/>
<polygon fill="midnightblue" stroke="midnightblue" points="353.782,-235.967 364.327,-234.945 355.446,-229.167 353.782,-235.967"/>
</g>
<!-- Node5 -->
<g id="node5" class="node"><title>Node5</title>
<g id="a_node5"><a xlink:href="../../df/d14/class_resize_dlg.html#ad862978f7d388156953bcad1ee8fb7d0" target="_top" xlink:title="Changes the window size. ">
<polygon fill="white" stroke="black" points="348.5,-194.5 348.5,-215.5 521.5,-215.5 521.5,-194.5 348.5,-194.5"/>
<text text-anchor="middle" x="435" y="-201.9" font-family="Helvetica,sans-Serif" font-size="12.00">ResizeDlg::OffsetWindowSize</text>
</a>
</g>
</g>
<!-- Node2&#45;&gt;Node5 -->
<g id="edge5" class="edge"><title>Node2&#45;&gt;Node5</title>
<path fill="none" stroke="midnightblue" d="M312.131,-205C320.601,-205 329.361,-205 338.119,-205"/>
<polygon fill="midnightblue" stroke="midnightblue" points="338.383,-208.5 348.383,-205 338.383,-201.5 338.383,-208.5"/>
</g>
<!-- Node6 -->
<g id="node6" class="node"><title>Node6</title>
<g id="a_node6"><a xlink:href="../../df/d14/class_resize_dlg.html#ac488d477589ed7bf19d53c0a2f14b02a" target="_top" xlink:title="A function that centers an object with respect to the parent with the option to select only vertical ...">
<polygon fill="white" stroke="black" points="358,-154.5 358,-175.5 512,-175.5 512,-154.5 358,-154.5"/>
<text text-anchor="middle" x="435" y="-161.9" font-family="Helvetica,sans-Serif" font-size="12.00">ResizeDlg::CenterWindow</text>
</a>
</g>
</g>
<!-- Node2&#45;&gt;Node6 -->
<g id="edge7" class="edge"><title>Node2&#45;&gt;Node6</title>
<path fill="none" stroke="midnightblue" d="M312.131,-190.389C332.292,-186.189 354.097,-181.647 373.613,-177.581"/>
<polygon fill="midnightblue" stroke="midnightblue" points="374.514,-180.968 383.59,-175.502 373.086,-174.115 374.514,-180.968"/>
</g>
<!-- Node7 -->
<g id="node7" class="node"><title>Node7</title>
<g id="a_node7"><a xlink:href="../../df/d14/class_resize_dlg.html#ac1be0074b5ee381220d10b01f54e3c58" target="_top" xlink:title="ResizeDlg::OffsetChildPos">
<polygon fill="white" stroke="black" points="357.5,-114.5 357.5,-135.5 512.5,-135.5 512.5,-114.5 357.5,-114.5"/>
<text text-anchor="middle" x="435" y="-121.9" font-family="Helvetica,sans-Serif" font-size="12.00">ResizeDlg::OffsetChildPos</text>
</a>
</g>
</g>
<!-- Node2&#45;&gt;Node7 -->
<g id="edge8" class="edge"><title>Node2&#45;&gt;Node7</title>
<path fill="none" stroke="midnightblue" d="M293.174,-187.855C299.695,-184.927 306.133,-181.638 312,-178 330.447,-166.562 328.8,-155.123 348,-145 352.267,-142.75 356.785,-140.751 361.426,-138.975"/>
<polygon fill="midnightblue" stroke="midnightblue" points="362.781,-142.21 371.089,-135.635 360.494,-135.595 362.781,-142.21"/>
</g>
<!-- Node4&#45;&gt;Node3 -->
<g id="edge4" class="edge"><title>Node4&#45;&gt;Node3</title>
<path fill="none" stroke="midnightblue" d="M520.203,-241.996C529.505,-240.891 539.002,-239.762 548.367,-238.649"/>
<polygon fill="midnightblue" stroke="midnightblue" points="548.944,-242.106 558.462,-237.45 548.118,-235.154 548.944,-242.106"/>
</g>
<!-- Node5&#45;&gt;Node3 -->
<g id="edge6" class="edge"><title>Node5&#45;&gt;Node3</title>
<path fill="none" stroke="midnightblue" d="M521.666,-214.754C530.495,-215.759 539.483,-216.783 548.353,-217.793"/>
<polygon fill="midnightblue" stroke="midnightblue" points="547.971,-221.272 558.302,-218.926 548.763,-214.317 547.971,-221.272"/>
</g>
<!-- Node10&#45;&gt;Node3 -->
<g id="edge13" class="edge"><title>Node10&#45;&gt;Node3</title>
<path fill="none" stroke="midnightblue" d="M308.107,-64.1968C378.894,-71.6873 485.912,-85.7281 522,-105 568.757,-129.969 607.271,-180.917 625.904,-208.767"/>
<polygon fill="midnightblue" stroke="midnightblue" points="623.048,-210.795 631.444,-217.256 628.91,-206.969 623.048,-210.795"/>
</g>
<!-- Node11 -->
<g id="node11" class="node"><title>Node11</title>
<g id="a_node11"><a xlink:href="../../dd/dd1/class_c_operator_console_dlg.html#a5259b5a3edff8df084f64268a125d135" target="_top" xlink:title="move &#39;wnd&#39; so its center is at the screen coordinate (centerX, centerY) ">
<polygon fill="white" stroke="black" points="368,-23 368,-57 502,-57 502,-23 368,-23"/>
<text text-anchor="start" x="376" y="-43.4" font-family="Helvetica,sans-Serif" font-size="12.00">COperatorConsoleDlg</text>
<text text-anchor="middle" x="435" y="-30.4" font-family="Helvetica,sans-Serif" font-size="12.00">::CenterWindow</text>
</a>
</g>
</g>
<!-- Node10&#45;&gt;Node11 -->
<g id="edge12" class="edge"><title>Node10&#45;&gt;Node11</title>
<path fill="none" stroke="midnightblue" d="M308.076,-51.8054C324.065,-50.3064 341.286,-48.692 357.703,-47.1529"/>
<polygon fill="midnightblue" stroke="midnightblue" points="358.173,-50.6242 367.803,-46.206 357.52,-43.6548 358.173,-50.6242"/>
</g>
</g>
</svg>
