<?xml version="1.0" encoding="UTF-8" standalone="no"?>
<!DOCTYPE svg PUBLIC "-//W3C//DTD SVG 1.1//EN"
 "http://www.w3.org/Graphics/SVG/1.1/DTD/svg11.dtd">
<!-- Generated by graphviz version 2.34.0 (20130907.0111)
 -->
<!-- Title: COperatorConsoleDlg::CenterWindow Pages: 1 -->
<svg width="482pt" height="42pt"
 viewBox="0.00 0.00 482.00 42.00" xmlns="http://www.w3.org/2000/svg" xmlns:xlink="http://www.w3.org/1999/xlink">
<g id="graph0" class="graph" transform="scale(1 1) rotate(0) translate(4 38)">
<title>COperatorConsoleDlg::CenterWindow</title>
<polygon fill="white" stroke="white" points="-4,4 -4,-38 478,-38 478,4 -4,4"/>
<!-- Node1 -->
<g id="node1" class="node"><title>Node1</title>
<polygon fill="#bfbfbf" stroke="black" points="0,-0 0,-34 134,-34 134,-0 0,-0"/>
<text text-anchor="start" x="8" y="-20.4" font-family="Helvetica,sans-Serif" font-size="12.00">COperatorConsoleDlg</text>
<text text-anchor="middle" x="67" y="-7.4" font-family="Helvetica,sans-Serif" font-size="12.00">::CenterWindow</text>
</g>
<!-- Node2 -->
<g id="node2" class="node"><title>Node2</title>
<g id="a_node2"><a xlink:href="../../dd/dd1/class_c_operator_console_dlg.html#a2eeb3b1e858acfd13c7a15bf9b3806ee" target="_top" xlink:title="COperatorConsoleDlg\l::QsoMove">
<polygon fill="white" stroke="black" points="170,-0 170,-34 304,-34 304,-0 170,-0"/>
<text text-anchor="start" x="178" y="-20.4" font-family="Helvetica,sans-Serif" font-size="12.00">COperatorConsoleDlg</text>
<text text-anchor="middle" x="237" y="-7.4" font-family="Helvetica,sans-Serif" font-size="12.00">::QsoMove</text>
</a>
</g>
</g>
<!-- Node1&#45;&gt;Node2 -->
<g id="edge1" class="edge"><title>Node1&#45;&gt;Node2</title>
<path fill="none" stroke="midnightblue" d="M144.595,-17C153.013,-17 161.532,-17 169.809,-17"/>
<polygon fill="midnightblue" stroke="midnightblue" points="144.398,-13.5001 134.398,-17 144.398,-20.5001 144.398,-13.5001"/>
</g>
<!-- Node3 -->
<g id="node3" class="node"><title>Node3</title>
<g id="a_node3"><a xlink:href="../../dd/dd1/class_c_operator_console_dlg.html#add79ed364a2fd29eb4dd69f831bd0119" target="_top" xlink:title="Allows the display to be resized after the user changes the image size. ">
<polygon fill="white" stroke="black" points="340,-0 340,-34 474,-34 474,-0 340,-0"/>
<text text-anchor="start" x="348" y="-20.4" font-family="Helvetica,sans-Serif" font-size="12.00">COperatorConsoleDlg</text>
<text text-anchor="middle" x="407" y="-7.4" font-family="Helvetica,sans-Serif" font-size="12.00">::ReInitDialog</text>
</a>
</g>
</g>
<!-- Node2&#45;&gt;Node3 -->
<g id="edge2" class="edge"><title>Node2&#45;&gt;Node3</title>
<path fill="none" stroke="midnightblue" d="M314.595,-17C323.013,-17 331.532,-17 339.809,-17"/>
<polygon fill="midnightblue" stroke="midnightblue" points="314.398,-13.5001 304.398,-17 314.398,-20.5001 314.398,-13.5001"/>
</g>
</g>
</svg>
