<?xml version="1.0" encoding="UTF-8" standalone="no"?>
<!DOCTYPE svg PUBLIC "-//W3C//DTD SVG 1.1//EN"
 "http://www.w3.org/Graphics/SVG/1.1/DTD/svg11.dtd">
<!-- Generated by graphviz version 2.34.0 (20130907.0111)
 -->
<!-- Title: COperatorConsoleDlg::OnCtlColor Pages: 1 -->
<svg width="312pt" height="42pt"
 viewBox="0.00 0.00 312.00 42.00" xmlns="http://www.w3.org/2000/svg" xmlns:xlink="http://www.w3.org/1999/xlink">
<g id="graph0" class="graph" transform="scale(1 1) rotate(0) translate(4 38)">
<title>COperatorConsoleDlg::OnCtlColor</title>
<polygon fill="white" stroke="white" points="-4,4 -4,-38 308,-38 308,4 -4,4"/>
<!-- Node1 -->
<g id="node1" class="node"><title>Node1</title>
<polygon fill="#bfbfbf" stroke="black" points="0,-0 0,-34 134,-34 134,-0 0,-0"/>
<text text-anchor="start" x="8" y="-20.4" font-family="Helvetica,sans-Serif" font-size="12.00">COperatorConsoleDlg</text>
<text text-anchor="middle" x="67" y="-7.4" font-family="Helvetica,sans-Serif" font-size="12.00">::OnCtlColor</text>
</g>
<!-- Node2 -->
<g id="node2" class="node"><title>Node2</title>
<g id="a_node2"><a xlink:href="../../dd/dd1/class_c_operator_console_dlg.html#aebc1ddb75f2043047a4168bdb80f64e4" target="_top" xlink:title="COperatorConsoleDlg\l::QsoSet">
<polygon fill="white" stroke="black" points="170,-0 170,-34 304,-34 304,-0 170,-0"/>
<text text-anchor="start" x="178" y="-20.4" font-family="Helvetica,sans-Serif" font-size="12.00">COperatorConsoleDlg</text>
<text text-anchor="middle" x="237" y="-7.4" font-family="Helvetica,sans-Serif" font-size="12.00">::QsoSet</text>
</a>
</g>
</g>
<!-- Node1&#45;&gt;Node2 -->
<g id="edge1" class="edge"><title>Node1&#45;&gt;Node2</title>
<path fill="none" stroke="midnightblue" d="M134.398,-17C142.679,-17 151.199,-17 159.616,-17"/>
<polygon fill="midnightblue" stroke="midnightblue" points="159.809,-20.5001 169.809,-17 159.809,-13.5001 159.809,-20.5001"/>
</g>
</g>
</svg>
