<?xml version="1.0" encoding="UTF-8" standalone="no"?>
<!DOCTYPE svg PUBLIC "-//W3C//DTD SVG 1.1//EN"
 "http://www.w3.org/Graphics/SVG/1.1/DTD/svg11.dtd">
<!-- Generated by graphviz version 2.34.0 (20130907.0111)
 -->
<!-- Title: COperatorConsoleDlg::ShowStartStop Pages: 1 -->
<svg width="312pt" height="95pt"
 viewBox="0.00 0.00 312.00 95.00" xmlns="http://www.w3.org/2000/svg" xmlns:xlink="http://www.w3.org/1999/xlink">
<g id="graph0" class="graph" transform="scale(1 1) rotate(0) translate(4 91)">
<title>COperatorConsoleDlg::ShowStartStop</title>
<polygon fill="white" stroke="white" points="-4,4 -4,-91 308,-91 308,4 -4,4"/>
<!-- Node1 -->
<g id="node1" class="node"><title>Node1</title>
<polygon fill="#bfbfbf" stroke="black" points="0,-26 0,-60 134,-60 134,-26 0,-26"/>
<text text-anchor="start" x="8" y="-46.4" font-family="Helvetica,sans-Serif" font-size="12.00">COperatorConsoleDlg</text>
<text text-anchor="middle" x="67" y="-33.4" font-family="Helvetica,sans-Serif" font-size="12.00">::ShowStartStop</text>
</g>
<!-- Node2 -->
<g id="node2" class="node"><title>Node2</title>
<g id="a_node2"><a xlink:href="../../dd/dd1/class_c_operator_console_dlg.html#a06e65f3bdd1f81a84cb640294857b551" target="_top" xlink:title="COperatorConsoleDlg\l::OnBnClickedStart">
<polygon fill="white" stroke="black" points="170,-53 170,-87 304,-87 304,-53 170,-53"/>
<text text-anchor="start" x="178" y="-73.4" font-family="Helvetica,sans-Serif" font-size="12.00">COperatorConsoleDlg</text>
<text text-anchor="middle" x="237" y="-60.4" font-family="Helvetica,sans-Serif" font-size="12.00">::OnBnClickedStart</text>
</a>
</g>
</g>
<!-- Node1&#45;&gt;Node2 -->
<g id="edge1" class="edge"><title>Node1&#45;&gt;Node2</title>
<path fill="none" stroke="midnightblue" d="M144.317,-55.2652C152.826,-56.6328 161.441,-58.0173 169.809,-59.3622"/>
<polygon fill="midnightblue" stroke="midnightblue" points="144.827,-51.8023 134.398,-53.6711 143.716,-58.7136 144.827,-51.8023"/>
</g>
<!-- Node3 -->
<g id="node3" class="node"><title>Node3</title>
<g id="a_node3"><a xlink:href="../../dd/dd1/class_c_operator_console_dlg.html#adedefafc419a2848159a3ab24e1b2b93" target="_top" xlink:title="COperatorConsoleDlg\l::OnBnClickedStop">
<polygon fill="white" stroke="black" points="170,-0 170,-34 304,-34 304,-0 170,-0"/>
<text text-anchor="start" x="178" y="-20.4" font-family="Helvetica,sans-Serif" font-size="12.00">COperatorConsoleDlg</text>
<text text-anchor="middle" x="237" y="-7.4" font-family="Helvetica,sans-Serif" font-size="12.00">::OnBnClickedStop</text>
</a>
</g>
</g>
<!-- Node1&#45;&gt;Node3 -->
<g id="edge2" class="edge"><title>Node1&#45;&gt;Node3</title>
<path fill="none" stroke="midnightblue" d="M144.317,-31.189C152.826,-29.8721 161.441,-28.5389 169.809,-27.2438"/>
<polygon fill="midnightblue" stroke="midnightblue" points="143.745,-27.7358 134.398,-32.7241 144.816,-34.6534 143.745,-27.7358"/>
</g>
</g>
</svg>
