<?xml version="1.0" encoding="UTF-8" standalone="no"?>
<!DOCTYPE svg PUBLIC "-//W3C//DTD SVG 1.1//EN"
 "http://www.w3.org/Graphics/SVG/1.1/DTD/svg11.dtd">
<!-- Generated by graphviz version 2.34.0 (20130907.0111)
 -->
<!-- Title: COperatorConsoleDlg::UpdateQuadrant Pages: 1 -->
<svg width="840pt" height="95pt"
 viewBox="0.00 0.00 840.00 95.00" xmlns="http://www.w3.org/2000/svg" xmlns:xlink="http://www.w3.org/1999/xlink">
<g id="graph0" class="graph" transform="scale(1 1) rotate(0) translate(4 91)">
<title>COperatorConsoleDlg::UpdateQuadrant</title>
<polygon fill="white" stroke="white" points="-4,4 -4,-91 836,-91 836,4 -4,4"/>
<!-- Node1 -->
<g id="node1" class="node"><title>Node1</title>
<polygon fill="#bfbfbf" stroke="black" points="0,-26 0,-60 134,-60 134,-26 0,-26"/>
<text text-anchor="start" x="8" y="-46.4" font-family="Helvetica,sans-Serif" font-size="12.00">COperatorConsoleDlg</text>
<text text-anchor="middle" x="67" y="-33.4" font-family="Helvetica,sans-Serif" font-size="12.00">::UpdateQuadrant</text>
</g>
<!-- Node2 -->
<g id="node2" class="node"><title>Node2</title>
<g id="a_node2"><a xlink:href="../../dd/dd1/class_c_operator_console_dlg.html#ac6388b6097a94350ecf4abf7e166f9a6" target="_top" xlink:title="COperatorConsoleDlg\l::UpdateQuadrants">
<polygon fill="white" stroke="black" points="170,-26 170,-60 304,-60 304,-26 170,-26"/>
<text text-anchor="start" x="178" y="-46.4" font-family="Helvetica,sans-Serif" font-size="12.00">COperatorConsoleDlg</text>
<text text-anchor="middle" x="237" y="-33.4" font-family="Helvetica,sans-Serif" font-size="12.00">::UpdateQuadrants</text>
</a>
</g>
</g>
<!-- Node1&#45;&gt;Node2 -->
<g id="edge1" class="edge"><title>Node1&#45;&gt;Node2</title>
<path fill="none" stroke="midnightblue" d="M144.595,-43C153.013,-43 161.532,-43 169.809,-43"/>
<polygon fill="midnightblue" stroke="midnightblue" points="144.398,-39.5001 134.398,-43 144.398,-46.5001 144.398,-39.5001"/>
</g>
<!-- Node3 -->
<g id="node3" class="node"><title>Node3</title>
<g id="a_node3"><a xlink:href="../../d3/d9f/class_c_operator_console_app.html#afcaa58d4a5fb9c7cff5e35ae64e1420c" target="_top" xlink:title="COperatorConsoleApp\l::UpdateResultsSFRplus">
<polygon fill="white" stroke="black" points="340,-53 340,-87 484,-87 484,-53 340,-53"/>
<text text-anchor="start" x="348" y="-73.4" font-family="Helvetica,sans-Serif" font-size="12.00">COperatorConsoleApp</text>
<text text-anchor="middle" x="412" y="-60.4" font-family="Helvetica,sans-Serif" font-size="12.00">::UpdateResultsSFRplus</text>
</a>
</g>
</g>
<!-- Node2&#45;&gt;Node3 -->
<g id="edge2" class="edge"><title>Node2&#45;&gt;Node3</title>
<path fill="none" stroke="midnightblue" d="M314.302,-54.9084C322.813,-56.2367 331.458,-57.586 339.901,-58.9036"/>
<polygon fill="midnightblue" stroke="midnightblue" points="314.812,-51.4457 304.392,-53.3617 313.732,-58.3619 314.812,-51.4457"/>
</g>
<!-- Node6 -->
<g id="node6" class="node"><title>Node6</title>
<g id="a_node6"><a xlink:href="../../dd/dd1/class_c_operator_console_dlg.html#a06e65f3bdd1f81a84cb640294857b551" target="_top" xlink:title="COperatorConsoleDlg\l::OnBnClickedStart">
<polygon fill="white" stroke="black" points="345,-0 345,-34 479,-34 479,-0 345,-0"/>
<text text-anchor="start" x="353" y="-20.4" font-family="Helvetica,sans-Serif" font-size="12.00">COperatorConsoleDlg</text>
<text text-anchor="middle" x="412" y="-7.4" font-family="Helvetica,sans-Serif" font-size="12.00">::OnBnClickedStart</text>
</a>
</g>
</g>
<!-- Node2&#45;&gt;Node6 -->
<g id="edge5" class="edge"><title>Node2&#45;&gt;Node6</title>
<path fill="none" stroke="midnightblue" d="M314.429,-31.5135C324.55,-29.9925 334.857,-28.4435 344.786,-26.9512"/>
<polygon fill="midnightblue" stroke="midnightblue" points="313.76,-28.0747 304.392,-33.0221 314.801,-34.9969 313.76,-28.0747"/>
</g>
<!-- Node4 -->
<g id="node4" class="node"><title>Node4</title>
<g id="a_node4"><a xlink:href="../../d3/d9f/class_c_operator_console_app.html#a58fa1716c660b80c55845b79505ff4d6" target="_top" xlink:title="Called after MSG_SFRPLUS_DONE is received. ">
<polygon fill="white" stroke="black" points="520.5,-53 520.5,-87 657.5,-87 657.5,-53 520.5,-53"/>
<text text-anchor="start" x="528.5" y="-73.4" font-family="Helvetica,sans-Serif" font-size="12.00">COperatorConsoleApp</text>
<text text-anchor="middle" x="589" y="-60.4" font-family="Helvetica,sans-Serif" font-size="12.00">::OnSFRplusDone</text>
</a>
</g>
</g>
<!-- Node3&#45;&gt;Node4 -->
<g id="edge3" class="edge"><title>Node3&#45;&gt;Node4</title>
<path fill="none" stroke="midnightblue" d="M494.318,-70C503.005,-70 511.773,-70 520.278,-70"/>
<polygon fill="midnightblue" stroke="midnightblue" points="494.179,-66.5001 484.179,-70 494.179,-73.5001 494.179,-66.5001"/>
</g>
<!-- Node5 -->
<g id="node5" class="node"><title>Node5</title>
<g id="a_node5"><a xlink:href="../../d3/d9f/class_c_operator_console_app.html#a7041d197c4e6549f2cb7219981b4eec1" target="_top" xlink:title="Intercepts messages of interest before Windows or MFC. ">
<polygon fill="white" stroke="black" points="694,-53 694,-87 832,-87 832,-53 694,-53"/>
<text text-anchor="start" x="702" y="-73.4" font-family="Helvetica,sans-Serif" font-size="12.00">COperatorConsoleApp</text>
<text text-anchor="middle" x="763" y="-60.4" font-family="Helvetica,sans-Serif" font-size="12.00">::PreTranslateMessage</text>
</a>
</g>
</g>
<!-- Node4&#45;&gt;Node5 -->
<g id="edge4" class="edge"><title>Node4&#45;&gt;Node5</title>
<path fill="none" stroke="midnightblue" d="M668.054,-70C676.696,-70 685.446,-70 693.952,-70"/>
<polygon fill="midnightblue" stroke="midnightblue" points="667.979,-66.5001 657.979,-70 667.979,-73.5001 667.979,-66.5001"/>
</g>
</g>
</svg>
