<?xml version="1.0" encoding="UTF-8" standalone="no"?>
<!DOCTYPE svg PUBLIC "-//W3C//DTD SVG 1.1//EN"
 "http://www.w3.org/Graphics/SVG/1.1/DTD/svg11.dtd">
<!-- Generated by graphviz version 2.34.0 (20130907.0111)
 -->
<!-- Title: COperatorConsoleDlg::OnBnClickedRadioBlemish Pages: 1 -->
<svg width="344pt" height="95pt"
 viewBox="0.00 0.00 344.00 95.00" xmlns="http://www.w3.org/2000/svg" xmlns:xlink="http://www.w3.org/1999/xlink">
<g id="graph0" class="graph" transform="scale(1 1) rotate(0) translate(4 91)">
<title>COperatorConsoleDlg::OnBnClickedRadioBlemish</title>
<polygon fill="white" stroke="white" points="-4,4 -4,-91 340,-91 340,4 -4,4"/>
<!-- Node1 -->
<g id="node1" class="node"><title>Node1</title>
<polygon fill="#bfbfbf" stroke="black" points="0.5,-26 0.5,-60 165.5,-60 165.5,-26 0.5,-26"/>
<text text-anchor="start" x="8.5" y="-46.4" font-family="Helvetica,sans-Serif" font-size="12.00">COperatorConsoleDlg</text>
<text text-anchor="middle" x="83" y="-33.4" font-family="Helvetica,sans-Serif" font-size="12.00">::OnBnClickedRadioBlemish</text>
</g>
<!-- Node2 -->
<g id="node2" class="node"><title>Node2</title>
<g id="a_node2"><a xlink:href="../../dd/dd1/class_c_operator_console_dlg.html#a5b4930e365a3a0ee50490231a1c7f3bd" target="_top" xlink:title="COperatorConsoleDlg\l::PostParentMessage">
<polygon fill="white" stroke="black" points="202,-53 202,-87 336,-87 336,-53 202,-53"/>
<text text-anchor="start" x="210" y="-73.4" font-family="Helvetica,sans-Serif" font-size="12.00">COperatorConsoleDlg</text>
<text text-anchor="middle" x="269" y="-60.4" font-family="Helvetica,sans-Serif" font-size="12.00">::PostParentMessage</text>
</a>
</g>
</g>
<!-- Node1&#45;&gt;Node2 -->
<g id="edge1" class="edge"><title>Node1&#45;&gt;Node2</title>
<path fill="none" stroke="midnightblue" d="M165.509,-54.9605C174.214,-56.2379 183.046,-57.534 191.689,-58.8021"/>
<polygon fill="midnightblue" stroke="midnightblue" points="191.325,-62.2862 201.727,-60.2752 192.341,-55.3603 191.325,-62.2862"/>
</g>
<!-- Node3 -->
<g id="node3" class="node"><title>Node3</title>
<g id="a_node3"><a xlink:href="../../dd/dd1/class_c_operator_console_dlg.html#a327716043ad2a57099457290877af840" target="_top" xlink:title="COperatorConsoleDlg\l::QsoShow">
<polygon fill="white" stroke="black" points="202,-0 202,-34 336,-34 336,-0 202,-0"/>
<text text-anchor="start" x="210" y="-20.4" font-family="Helvetica,sans-Serif" font-size="12.00">COperatorConsoleDlg</text>
<text text-anchor="middle" x="269" y="-7.4" font-family="Helvetica,sans-Serif" font-size="12.00">::QsoShow</text>
</a>
</g>
</g>
<!-- Node1&#45;&gt;Node3 -->
<g id="edge2" class="edge"><title>Node1&#45;&gt;Node3</title>
<path fill="none" stroke="midnightblue" d="M165.509,-31.4825C174.214,-30.2524 183.046,-29.0043 191.689,-27.7831"/>
<polygon fill="midnightblue" stroke="midnightblue" points="192.315,-31.2294 201.727,-26.3646 191.336,-24.2983 192.315,-31.2294"/>
</g>
</g>
</svg>
