<?xml version="1.0" encoding="UTF-8" standalone="no"?>
<!DOCTYPE svg PUBLIC "-//W3C//DTD SVG 1.1//EN"
 "http://www.w3.org/Graphics/SVG/1.1/DTD/svg11.dtd">
<!-- Generated by graphviz version 2.34.0 (20130907.0111)
 -->
<!-- Title: AppThread::Quit Pages: 1 -->
<svg width="450pt" height="148pt"
 viewBox="0.00 0.00 450.00 148.00" xmlns="http://www.w3.org/2000/svg" xmlns:xlink="http://www.w3.org/1999/xlink">
<g id="graph0" class="graph" transform="scale(1 1) rotate(0) translate(4 144)">
<title>AppThread::Quit</title>
<polygon fill="white" stroke="white" points="-4,4 -4,-144 446,-144 446,4 -4,4"/>
<!-- Node1 -->
<g id="node1" class="node"><title>Node1</title>
<polygon fill="#bfbfbf" stroke="black" points="0,-59.5 0,-80.5 102,-80.5 102,-59.5 0,-59.5"/>
<text text-anchor="middle" x="51" y="-66.9" font-family="Helvetica,sans-Serif" font-size="12.00">AppThread::Quit</text>
</g>
<!-- Node2 -->
<g id="node2" class="node"><title>Node2</title>
<g id="a_node2"><a xlink:href="../../dd/dd1/class_c_operator_console_dlg.html#a0411316846287e8a9d8716fb11f9a0ec" target="_top" xlink:title="COperatorConsoleDlg\l::Quit">
<polygon fill="white" stroke="black" points="138,-53 138,-87 272,-87 272,-53 138,-53"/>
<text text-anchor="start" x="146" y="-73.4" font-family="Helvetica,sans-Serif" font-size="12.00">COperatorConsoleDlg</text>
<text text-anchor="middle" x="205" y="-60.4" font-family="Helvetica,sans-Serif" font-size="12.00">::Quit</text>
</a>
</g>
</g>
<!-- Node1&#45;&gt;Node2 -->
<g id="edge1" class="edge"><title>Node1&#45;&gt;Node2</title>
<path fill="none" stroke="midnightblue" d="M112.282,-70C120.687,-70 129.36,-70 137.866,-70"/>
<polygon fill="midnightblue" stroke="midnightblue" points="112.192,-66.5001 102.192,-70 112.192,-73.5001 112.192,-66.5001"/>
</g>
<!-- Node3 -->
<g id="node3" class="node"><title>Node3</title>
<g id="a_node3"><a xlink:href="../../dd/dd1/class_c_operator_console_dlg.html#a256348135cc06bebf3b8f285036332a0" target="_top" xlink:title="COperatorConsoleDlg\l::OnOK">
<polygon fill="white" stroke="black" points="308,-106 308,-140 442,-140 442,-106 308,-106"/>
<text text-anchor="start" x="316" y="-126.4" font-family="Helvetica,sans-Serif" font-size="12.00">COperatorConsoleDlg</text>
<text text-anchor="middle" x="375" y="-113.4" font-family="Helvetica,sans-Serif" font-size="12.00">::OnOK</text>
</a>
</g>
</g>
<!-- Node2&#45;&gt;Node3 -->
<g id="edge2" class="edge"><title>Node2&#45;&gt;Node3</title>
<path fill="none" stroke="midnightblue" d="M269.695,-90.0944C286.281,-95.3268 303.991,-100.914 320.02,-105.971"/>
<polygon fill="midnightblue" stroke="midnightblue" points="270.671,-86.7321 260.081,-87.0613 268.565,-93.4078 270.671,-86.7321"/>
</g>
<!-- Node4 -->
<g id="node4" class="node"><title>Node4</title>
<g id="a_node4"><a xlink:href="../../dd/dd1/class_c_operator_console_dlg.html#a8f15c08fd802f33daa4a4f5d400d6695" target="_top" xlink:title="COperatorConsoleDlg\l::OnCancel">
<polygon fill="white" stroke="black" points="308,-53 308,-87 442,-87 442,-53 308,-53"/>
<text text-anchor="start" x="316" y="-73.4" font-family="Helvetica,sans-Serif" font-size="12.00">COperatorConsoleDlg</text>
<text text-anchor="middle" x="375" y="-60.4" font-family="Helvetica,sans-Serif" font-size="12.00">::OnCancel</text>
</a>
</g>
</g>
<!-- Node2&#45;&gt;Node4 -->
<g id="edge3" class="edge"><title>Node2&#45;&gt;Node4</title>
<path fill="none" stroke="midnightblue" d="M282.595,-70C291.013,-70 299.532,-70 307.809,-70"/>
<polygon fill="midnightblue" stroke="midnightblue" points="282.398,-66.5001 272.398,-70 282.398,-73.5001 282.398,-66.5001"/>
</g>
<!-- Node5 -->
<g id="node5" class="node"><title>Node5</title>
<g id="a_node5"><a xlink:href="../../dd/dd1/class_c_operator_console_dlg.html#a8cdc85a4ec6e97ee92b8b4a376bbd6e8" target="_top" xlink:title="COperatorConsoleDlg\l::OnClose">
<polygon fill="white" stroke="black" points="308,-0 308,-34 442,-34 442,-0 308,-0"/>
<text text-anchor="start" x="316" y="-20.4" font-family="Helvetica,sans-Serif" font-size="12.00">COperatorConsoleDlg</text>
<text text-anchor="middle" x="375" y="-7.4" font-family="Helvetica,sans-Serif" font-size="12.00">::OnClose</text>
</a>
</g>
</g>
<!-- Node2&#45;&gt;Node5 -->
<g id="edge4" class="edge"><title>Node2&#45;&gt;Node5</title>
<path fill="none" stroke="midnightblue" d="M269.695,-49.9056C286.281,-44.6732 303.991,-39.0863 320.02,-34.0293"/>
<polygon fill="midnightblue" stroke="midnightblue" points="268.565,-46.5922 260.081,-52.9387 270.671,-53.2679 268.565,-46.5922"/>
</g>
</g>
</svg>
