<?xml version="1.0" encoding="UTF-8" standalone="no"?>
<!DOCTYPE svg PUBLIC "-//W3C//DTD SVG 1.1//EN"
 "http://www.w3.org/Graphics/SVG/1.1/DTD/svg11.dtd">
<!-- Generated by graphviz version 2.34.0 (20130907.0111)
 -->
<!-- Title: Documentation/Operator&#45;Console/CriticalCString.h Pages: 1 -->
<svg width="160pt" height="102pt"
 viewBox="0.00 0.00 160.00 102.00" xmlns="http://www.w3.org/2000/svg" xmlns:xlink="http://www.w3.org/1999/xlink">
<g id="graph0" class="graph" transform="scale(1 1) rotate(0) translate(4 98)">
<title>Documentation/Operator&#45;Console/CriticalCString.h</title>
<polygon fill="white" stroke="white" points="-4,4 -4,-98 156,-98 156,4 -4,4"/>
<!-- Node1 -->
<g id="node1" class="node"><title>Node1</title>
<polygon fill="#bfbfbf" stroke="black" points="0,-59 0,-93 152,-93 152,-59 0,-59"/>
<text text-anchor="start" x="8" y="-79.4" font-family="Helvetica,sans-Serif" font-size="12.00">Documentation/Operator</text>
<text text-anchor="middle" x="76" y="-66.4" font-family="Helvetica,sans-Serif" font-size="12.00">&#45;Console/CriticalCString.h</text>
</g>
<!-- Node2 -->
<g id="node2" class="node"><title>Node2</title>
<polygon fill="white" stroke="#bfbfbf" points="16.5,-0.5 16.5,-21.5 69.5,-21.5 69.5,-0.5 16.5,-0.5"/>
<text text-anchor="middle" x="43" y="-7.9" font-family="Helvetica,sans-Serif" font-size="12.00">afxmt.h</text>
</g>
<!-- Node1&#45;&gt;Node2 -->
<g id="edge1" class="edge"><title>Node1&#45;&gt;Node2</title>
<path fill="none" stroke="midnightblue" d="M67.5017,-58.7759C62.9578,-50.1012 57.3456,-39.3871 52.6395,-30.4026"/>
<polygon fill="midnightblue" stroke="midnightblue" points="55.7223,-28.7449 47.9818,-21.5106 49.5215,-31.993 55.7223,-28.7449"/>
</g>
<!-- Node3 -->
<g id="node3" class="node"><title>Node3</title>
<polygon fill="white" stroke="#bfbfbf" points="87.5,-0.5 87.5,-21.5 132.5,-21.5 132.5,-0.5 87.5,-0.5"/>
<text text-anchor="middle" x="110" y="-7.9" font-family="Helvetica,sans-Serif" font-size="12.00">string</text>
</g>
<!-- Node1&#45;&gt;Node3 -->
<g id="edge2" class="edge"><title>Node1&#45;&gt;Node3</title>
<path fill="none" stroke="midnightblue" d="M84.7558,-58.7759C89.4374,-50.1012 95.2196,-39.3871 100.068,-30.4026"/>
<polygon fill="midnightblue" stroke="midnightblue" points="103.198,-31.9731 104.867,-21.5106 97.0378,-28.6486 103.198,-31.9731"/>
</g>
</g>
</svg>
