<?xml version="1.0" encoding="UTF-8" standalone="no"?>
<!DOCTYPE svg PUBLIC "-//W3C//DTD SVG 1.1//EN"
 "http://www.w3.org/Graphics/SVG/1.1/DTD/svg11.dtd">
<!-- Generated by graphviz version 2.34.0 (20130907.0111)
 -->
<!-- Title: CriticalCString.h Pages: 1 -->
<svg width="1061pt" height="262pt"
 viewBox="0.00 0.00 1061.00 262.00" xmlns="http://www.w3.org/2000/svg" xmlns:xlink="http://www.w3.org/1999/xlink">
<g id="graph0" class="graph" transform="scale(1 1) rotate(0) translate(4 258)">
<title>CriticalCString.h</title>
<polygon fill="white" stroke="white" points="-4,4 -4,-258 1057,-258 1057,4 -4,4"/>
<!-- Node1 -->
<g id="node1" class="node"><title>Node1</title>
<polygon fill="#bfbfbf" stroke="black" points="511,-232.5 511,-253.5 613,-253.5 613,-232.5 511,-232.5"/>
<text text-anchor="middle" x="562" y="-239.9" font-family="Helvetica,sans-Serif" font-size="12.00">CriticalCString.h</text>
</g>
<!-- Node2 -->
<g id="node2" class="node"><title>Node2</title>
<g id="a_node2"><a xlink:href="../../d9/da7/_image_test_8h.html" target="_top" xlink:title="ImageTest.h">
<polygon fill="white" stroke="black" points="370,-174.5 370,-195.5 450,-195.5 450,-174.5 370,-174.5"/>
<text text-anchor="middle" x="410" y="-181.9" font-family="Helvetica,sans-Serif" font-size="12.00">ImageTest.h</text>
</a>
</g>
</g>
<!-- Node1&#45;&gt;Node2 -->
<g id="edge1" class="edge"><title>Node1&#45;&gt;Node2</title>
<path fill="none" stroke="midnightblue" d="M526.141,-228.789C498.388,-218.564 460.618,-204.649 435.789,-195.501"/>
<polygon fill="midnightblue" stroke="midnightblue" points="525.277,-232.2 535.87,-232.373 527.697,-225.632 525.277,-232.2"/>
</g>
<!-- Node17 -->
<g id="node17" class="node"><title>Node17</title>
<g id="a_node17"><a xlink:href="../../d2/d5d/_stdout_thread_8h.html" target="_top" xlink:title="StdoutThread.h">
<polygon fill="white" stroke="black" points="514,-174.5 514,-195.5 610,-195.5 610,-174.5 514,-174.5"/>
<text text-anchor="middle" x="562" y="-181.9" font-family="Helvetica,sans-Serif" font-size="12.00">StdoutThread.h</text>
</a>
</g>
</g>
<!-- Node1&#45;&gt;Node17 -->
<g id="edge19" class="edge"><title>Node1&#45;&gt;Node17</title>
<path fill="none" stroke="midnightblue" d="M562,-222.158C562,-213.155 562,-202.92 562,-195.643"/>
<polygon fill="midnightblue" stroke="midnightblue" points="558.5,-222.246 562,-232.246 565.5,-222.246 558.5,-222.246"/>
</g>
<!-- Node21 -->
<g id="node21" class="node"><title>Node21</title>
<g id="a_node21"><a xlink:href="../../d1/d45/_critical_c_string_8cpp.html" target="_top" xlink:title="CriticalCString.cpp">
<polygon fill="white" stroke="black" points="628,-174.5 628,-195.5 744,-195.5 744,-174.5 628,-174.5"/>
<text text-anchor="middle" x="686" y="-181.9" font-family="Helvetica,sans-Serif" font-size="12.00">CriticalCString.cpp</text>
</a>
</g>
</g>
<!-- Node1&#45;&gt;Node21 -->
<g id="edge25" class="edge"><title>Node1&#45;&gt;Node21</title>
<path fill="none" stroke="midnightblue" d="M592.452,-228.247C614.972,-218.077 645.062,-204.488 664.962,-195.501"/>
<polygon fill="midnightblue" stroke="midnightblue" points="590.99,-225.068 583.316,-232.373 593.871,-231.447 590.99,-225.068"/>
</g>
<!-- Node3 -->
<g id="node3" class="node"><title>Node3</title>
<g id="a_node3"><a xlink:href="../../dc/d69/_blemish_test_8h.html" target="_top" xlink:title="BlemishTest.h">
<polygon fill="white" stroke="black" points="365,-116.5 365,-137.5 455,-137.5 455,-116.5 365,-116.5"/>
<text text-anchor="middle" x="410" y="-123.9" font-family="Helvetica,sans-Serif" font-size="12.00">BlemishTest.h</text>
</a>
</g>
</g>
<!-- Node2&#45;&gt;Node3 -->
<g id="edge2" class="edge"><title>Node2&#45;&gt;Node3</title>
<path fill="none" stroke="midnightblue" d="M410,-164.158C410,-155.155 410,-144.92 410,-137.643"/>
<polygon fill="midnightblue" stroke="midnightblue" points="406.5,-164.246 410,-174.246 413.5,-164.246 406.5,-164.246"/>
</g>
<!-- Node4 -->
<g id="node4" class="node"><title>Node4</title>
<g id="a_node4"><a xlink:href="../../da/de6/_operator_console_8h.html" target="_top" xlink:title="OperatorConsole.h">
<polygon fill="white" stroke="black" points="472,-58.5 472,-79.5 588,-79.5 588,-58.5 472,-58.5"/>
<text text-anchor="middle" x="530" y="-65.9" font-family="Helvetica,sans-Serif" font-size="12.00">OperatorConsole.h</text>
</a>
</g>
</g>
<!-- Node2&#45;&gt;Node4 -->
<g id="edge14" class="edge"><title>Node2&#45;&gt;Node4</title>
<path fill="none" stroke="midnightblue" d="M429.607,-168.06C440.03,-159.399 452.938,-148.366 464,-138 485.368,-117.976 508.93,-92.9224 521.304,-79.5145"/>
<polygon fill="midnightblue" stroke="midnightblue" points="427.356,-165.38 421.865,-174.44 431.808,-170.782 427.356,-165.38"/>
</g>
<!-- Node7 -->
<g id="node7" class="node"><title>Node7</title>
<g id="a_node7"><a xlink:href="../../d8/d53/_image_test_8cpp.html" target="_top" xlink:title="ImageTest.cpp">
<polygon fill="white" stroke="black" points="0,-0.5 0,-21.5 94,-21.5 94,-0.5 0,-0.5"/>
<text text-anchor="middle" x="47" y="-7.9" font-family="Helvetica,sans-Serif" font-size="12.00">ImageTest.cpp</text>
</a>
</g>
</g>
<!-- Node2&#45;&gt;Node7 -->
<g id="edge18" class="edge"><title>Node2&#45;&gt;Node7</title>
<path fill="none" stroke="midnightblue" d="M359.878,-174.218C326.223,-166.667 281.372,-154.675 244,-138 168.737,-104.419 88.9628,-44.8665 59.1573,-21.6476"/>
<polygon fill="midnightblue" stroke="midnightblue" points="359.426,-177.701 369.943,-176.419 360.921,-170.863 359.426,-177.701"/>
</g>
<!-- Node15 -->
<g id="node15" class="node"><title>Node15</title>
<g id="a_node15"><a xlink:href="../../d2/d9d/_s_f_rplus_test_8h.html" target="_top" xlink:title="SFRplusTest.h">
<polygon fill="white" stroke="black" points="253.5,-116.5 253.5,-137.5 346.5,-137.5 346.5,-116.5 253.5,-116.5"/>
<text text-anchor="middle" x="300" y="-123.9" font-family="Helvetica,sans-Serif" font-size="12.00">SFRplusTest.h</text>
</a>
</g>
</g>
<!-- Node2&#45;&gt;Node15 -->
<g id="edge15" class="edge"><title>Node2&#45;&gt;Node15</title>
<path fill="none" stroke="midnightblue" d="M381.709,-169.597C361.989,-159.558 336.22,-146.439 318.941,-137.643"/>
<polygon fill="midnightblue" stroke="midnightblue" points="380.34,-172.828 390.839,-174.246 383.516,-166.59 380.34,-172.828"/>
</g>
<!-- Node3&#45;&gt;Node4 -->
<g id="edge3" class="edge"><title>Node3&#45;&gt;Node4</title>
<path fill="none" stroke="midnightblue" d="M439.762,-112.111C461.523,-101.956 490.468,-88.4482 509.64,-79.5011"/>
<polygon fill="midnightblue" stroke="midnightblue" points="438.21,-108.973 430.629,-116.373 441.171,-115.316 438.21,-108.973"/>
</g>
<!-- Node14 -->
<g id="node14" class="node"><title>Node14</title>
<g id="a_node14"><a xlink:href="../../dd/d8a/_blemish_test_8cpp.html" target="_top" xlink:title="BlemishTest.cpp">
<polygon fill="white" stroke="black" points="350,-58.5 350,-79.5 454,-79.5 454,-58.5 350,-58.5"/>
<text text-anchor="middle" x="402" y="-65.9" font-family="Helvetica,sans-Serif" font-size="12.00">BlemishTest.cpp</text>
</a>
</g>
</g>
<!-- Node3&#45;&gt;Node14 -->
<g id="edge13" class="edge"><title>Node3&#45;&gt;Node14</title>
<path fill="none" stroke="midnightblue" d="M407.165,-106.158C405.879,-97.155 404.417,-86.9199 403.378,-79.6427"/>
<polygon fill="midnightblue" stroke="midnightblue" points="403.727,-106.841 408.607,-116.246 410.657,-105.851 403.727,-106.841"/>
</g>
<!-- Node5 -->
<g id="node5" class="node"><title>Node5</title>
<g id="a_node5"><a xlink:href="../../d3/d22/_app_thread_8cpp.html" target="_top" xlink:title="AppThread.cpp">
<polygon fill="white" stroke="black" points="761,-0.5 761,-21.5 859,-21.5 859,-0.5 761,-0.5"/>
<text text-anchor="middle" x="810" y="-7.9" font-family="Helvetica,sans-Serif" font-size="12.00">AppThread.cpp</text>
</a>
</g>
</g>
<!-- Node4&#45;&gt;Node5 -->
<g id="edge4" class="edge"><title>Node4&#45;&gt;Node5</title>
<path fill="none" stroke="midnightblue" d="M587.817,-56.4366C639.436,-46.1127 714.131,-31.1738 762.382,-21.5237"/>
<polygon fill="midnightblue" stroke="midnightblue" points="586.935,-53.0436 577.816,-58.4369 588.308,-59.9077 586.935,-53.0436"/>
</g>
<!-- Node6 -->
<g id="node6" class="node"><title>Node6</title>
<g id="a_node6"><a xlink:href="../../d6/df7/_critical_buf_8cpp.html" target="_top" xlink:title="CriticalBuf.cpp">
<polygon fill="white" stroke="black" points="877.5,-0.5 877.5,-21.5 970.5,-21.5 970.5,-0.5 877.5,-0.5"/>
<text text-anchor="middle" x="924" y="-7.9" font-family="Helvetica,sans-Serif" font-size="12.00">CriticalBuf.cpp</text>
</a>
</g>
</g>
<!-- Node4&#45;&gt;Node6 -->
<g id="edge5" class="edge"><title>Node4&#45;&gt;Node6</title>
<path fill="none" stroke="midnightblue" d="M598.328,-59.5452C666.687,-50.8879 774.793,-36.6581 868,-22 871.024,-21.5244 874.137,-21.0173 877.273,-20.4934"/>
<polygon fill="midnightblue" stroke="midnightblue" points="597.604,-56.1086 588.122,-60.8337 598.481,-63.0535 597.604,-56.1086"/>
</g>
<!-- Node4&#45;&gt;Node7 -->
<g id="edge6" class="edge"><title>Node4&#45;&gt;Node7</title>
<path fill="none" stroke="midnightblue" d="M461.712,-57.895C301.697,-38.361 258.999,-43.6956 103,-22 100.065,-21.5919 97.0496,-21.1421 94.0119,-20.666"/>
<polygon fill="midnightblue" stroke="midnightblue" points="461.565,-61.4034 471.919,-59.1551 462.423,-54.4562 461.565,-61.4034"/>
</g>
<!-- Node8 -->
<g id="node8" class="node"><title>Node8</title>
<g id="a_node8"><a xlink:href="../../df/d0a/main_8cpp.html" target="_top" xlink:title="main.cpp">
<polygon fill="white" stroke="black" points="988.5,-0.5 988.5,-21.5 1053.5,-21.5 1053.5,-0.5 988.5,-0.5"/>
<text text-anchor="middle" x="1021" y="-7.9" font-family="Helvetica,sans-Serif" font-size="12.00">main.cpp</text>
</a>
</g>
</g>
<!-- Node4&#45;&gt;Node8 -->
<g id="edge7" class="edge"><title>Node4&#45;&gt;Node8</title>
<path fill="none" stroke="midnightblue" d="M598.329,-62.111C705.34,-52.6997 907.619,-34.1002 979,-22 981.956,-21.4989 985.014,-20.9103 988.069,-20.2737"/>
<polygon fill="midnightblue" stroke="midnightblue" points="597.934,-58.6321 588.278,-62.9925 598.546,-65.6053 597.934,-58.6321"/>
</g>
<!-- Node9 -->
<g id="node9" class="node"><title>Node9</title>
<g id="a_node9"><a xlink:href="../../de/da2/_operator_console_8cpp.html" target="_top" xlink:title="OperatorConsole.cpp">
<polygon fill="white" stroke="black" points="112.5,-0.5 112.5,-21.5 241.5,-21.5 241.5,-0.5 112.5,-0.5"/>
<text text-anchor="middle" x="177" y="-7.9" font-family="Helvetica,sans-Serif" font-size="12.00">OperatorConsole.cpp</text>
</a>
</g>
</g>
<!-- Node4&#45;&gt;Node9 -->
<g id="edge8" class="edge"><title>Node4&#45;&gt;Node9</title>
<path fill="none" stroke="midnightblue" d="M461.54,-57.1395C396.41,-46.8073 299.38,-31.4145 237.15,-21.5423"/>
<polygon fill="midnightblue" stroke="midnightblue" points="461.284,-60.6426 471.709,-58.7527 462.381,-53.7291 461.284,-60.6426"/>
</g>
<!-- Node10 -->
<g id="node10" class="node"><title>Node10</title>
<g id="a_node10"><a xlink:href="../../d8/d29/_operator_console_dlg_8cpp.html" target="_top" xlink:title="OperatorConsoleDlg.cpp">
<polygon fill="white" stroke="black" points="259.5,-0.5 259.5,-21.5 406.5,-21.5 406.5,-0.5 259.5,-0.5"/>
<text text-anchor="middle" x="333" y="-7.9" font-family="Helvetica,sans-Serif" font-size="12.00">OperatorConsoleDlg.cpp</text>
</a>
</g>
</g>
<!-- Node4&#45;&gt;Node10 -->
<g id="edge9" class="edge"><title>Node4&#45;&gt;Node10</title>
<path fill="none" stroke="midnightblue" d="M486.337,-55.5882C450.143,-45.2996 399.451,-30.8895 366.424,-21.5011"/>
<polygon fill="midnightblue" stroke="midnightblue" points="485.559,-59.0055 496.134,-58.3733 487.473,-52.2723 485.559,-59.0055"/>
</g>
<!-- Node11 -->
<g id="node11" class="node"><title>Node11</title>
<g id="a_node11"><a xlink:href="../../d0/d57/_pass_fail_8cpp.html" target="_top" xlink:title="PassFail.cpp">
<polygon fill="white" stroke="black" points="425,-0.5 425,-21.5 511,-21.5 511,-0.5 425,-0.5"/>
<text text-anchor="middle" x="468" y="-7.9" font-family="Helvetica,sans-Serif" font-size="12.00">PassFail.cpp</text>
</a>
</g>
</g>
<!-- Node4&#45;&gt;Node11 -->
<g id="edge10" class="edge"><title>Node4&#45;&gt;Node11</title>
<path fill="none" stroke="midnightblue" d="M511.578,-51.3607C500.852,-41.6727 487.707,-29.7995 478.676,-21.6427"/>
<polygon fill="midnightblue" stroke="midnightblue" points="509.433,-54.14 519.2,-58.2455 514.125,-48.9453 509.433,-54.14"/>
</g>
<!-- Node12 -->
<g id="node12" class="node"><title>Node12</title>
<g id="a_node12"><a xlink:href="../../da/d46/_password_dialog_8cpp.html" target="_top" xlink:title="PasswordDialog.cpp">
<polygon fill="white" stroke="black" points="529,-0.5 529,-21.5 655,-21.5 655,-0.5 529,-0.5"/>
<text text-anchor="middle" x="592" y="-7.9" font-family="Helvetica,sans-Serif" font-size="12.00">PasswordDialog.cpp</text>
</a>
</g>
</g>
<!-- Node4&#45;&gt;Node12 -->
<g id="edge11" class="edge"><title>Node4&#45;&gt;Node12</title>
<path fill="none" stroke="midnightblue" d="M548.422,-51.3607C559.148,-41.6727 572.293,-29.7995 581.324,-21.6427"/>
<polygon fill="midnightblue" stroke="midnightblue" points="545.875,-48.9453 540.8,-58.2455 550.567,-54.14 545.875,-48.9453"/>
</g>
<!-- Node13 -->
<g id="node13" class="node"><title>Node13</title>
<g id="a_node13"><a xlink:href="../../d5/d27/_setup_8cpp.html" target="_top" xlink:title="Setup.cpp">
<polygon fill="white" stroke="black" points="673,-0.5 673,-21.5 743,-21.5 743,-0.5 673,-0.5"/>
<text text-anchor="middle" x="708" y="-7.9" font-family="Helvetica,sans-Serif" font-size="12.00">Setup.cpp</text>
</a>
</g>
</g>
<!-- Node4&#45;&gt;Node13 -->
<g id="edge12" class="edge"><title>Node4&#45;&gt;Node13</title>
<path fill="none" stroke="midnightblue" d="M570.293,-55.3235C602.937,-45.0536 648.213,-30.8093 677.8,-21.5011"/>
<polygon fill="midnightblue" stroke="midnightblue" points="569.088,-52.0335 560.599,-58.3733 571.189,-58.7108 569.088,-52.0335"/>
</g>
<!-- Node15&#45;&gt;Node4 -->
<g id="edge16" class="edge"><title>Node15&#45;&gt;Node4</title>
<path fill="none" stroke="midnightblue" d="M349.091,-114.047C391.425,-103.74 451.746,-89.0532 490.885,-79.5237"/>
<polygon fill="midnightblue" stroke="midnightblue" points="348.165,-110.67 339.277,-116.437 349.821,-117.472 348.165,-110.67"/>
</g>
<!-- Node16 -->
<g id="node16" class="node"><title>Node16</title>
<g id="a_node16"><a xlink:href="../../dc/d7a/_s_f_rplus_test_8cpp.html" target="_top" xlink:title="SFRplusTest.cpp">
<polygon fill="white" stroke="black" points="224.5,-58.5 224.5,-79.5 331.5,-79.5 331.5,-58.5 224.5,-58.5"/>
<text text-anchor="middle" x="278" y="-65.9" font-family="Helvetica,sans-Serif" font-size="12.00">SFRplusTest.cpp</text>
</a>
</g>
</g>
<!-- Node15&#45;&gt;Node16 -->
<g id="edge17" class="edge"><title>Node15&#45;&gt;Node16</title>
<path fill="none" stroke="midnightblue" d="M292.437,-106.749C288.845,-97.6064 284.71,-87.0798 281.788,-79.6427"/>
<polygon fill="midnightblue" stroke="midnightblue" points="289.254,-108.218 296.168,-116.246 295.769,-105.658 289.254,-108.218"/>
</g>
<!-- Node17&#45;&gt;Node4 -->
<g id="edge23" class="edge"><title>Node17&#45;&gt;Node4</title>
<path fill="none" stroke="midnightblue" d="M551.57,-165.47C547.376,-157.278 542.864,-147.391 540,-138 533.873,-117.912 531.444,-93.3046 530.524,-79.8865"/>
<polygon fill="midnightblue" stroke="midnightblue" points="548.587,-167.313 556.396,-174.473 554.756,-164.006 548.587,-167.313"/>
</g>
<!-- Node18 -->
<g id="node18" class="node"><title>Node18</title>
<g id="a_node18"><a xlink:href="../../d5/dd3/_stderr_thread_8h.html" target="_top" xlink:title="StderrThread.h">
<polygon fill="white" stroke="black" points="677.5,-116.5 677.5,-137.5 772.5,-137.5 772.5,-116.5 677.5,-116.5"/>
<text text-anchor="middle" x="725" y="-123.9" font-family="Helvetica,sans-Serif" font-size="12.00">StderrThread.h</text>
</a>
</g>
</g>
<!-- Node17&#45;&gt;Node18 -->
<g id="edge20" class="edge"><title>Node17&#45;&gt;Node18</title>
<path fill="none" stroke="midnightblue" d="M599.673,-171.057C629.504,-160.808 670.485,-146.729 697.345,-137.501"/>
<polygon fill="midnightblue" stroke="midnightblue" points="598.341,-167.814 590.021,-174.373 600.615,-174.434 598.341,-167.814"/>
</g>
<!-- Node20 -->
<g id="node20" class="node"><title>Node20</title>
<g id="a_node20"><a xlink:href="../../d5/df2/_stdout_thread_8cpp.html" target="_top" xlink:title="StdoutThread.cpp">
<polygon fill="white" stroke="black" points="549,-116.5 549,-137.5 659,-137.5 659,-116.5 549,-116.5"/>
<text text-anchor="middle" x="604" y="-123.9" font-family="Helvetica,sans-Serif" font-size="12.00">StdoutThread.cpp</text>
</a>
</g>
</g>
<!-- Node17&#45;&gt;Node20 -->
<g id="edge24" class="edge"><title>Node17&#45;&gt;Node20</title>
<path fill="none" stroke="midnightblue" d="M575.342,-166.211C582.44,-156.747 590.89,-145.48 596.768,-137.643"/>
<polygon fill="midnightblue" stroke="midnightblue" points="572.516,-164.146 569.316,-174.246 578.116,-168.346 572.516,-164.146"/>
</g>
<!-- Node18&#45;&gt;Node4 -->
<g id="edge21" class="edge"><title>Node18&#45;&gt;Node4</title>
<path fill="none" stroke="midnightblue" d="M681.78,-113.588C645.954,-103.3 595.776,-88.8895 563.084,-79.5011"/>
<polygon fill="midnightblue" stroke="midnightblue" points="680.901,-116.977 691.478,-116.373 682.833,-110.249 680.901,-116.977"/>
</g>
<!-- Node19 -->
<g id="node19" class="node"><title>Node19</title>
<g id="a_node19"><a xlink:href="../../d2/de6/_stderr_thread_8cpp.html" target="_top" xlink:title="StderrThread.cpp">
<polygon fill="white" stroke="black" points="671,-58.5 671,-79.5 779,-79.5 779,-58.5 671,-58.5"/>
<text text-anchor="middle" x="725" y="-65.9" font-family="Helvetica,sans-Serif" font-size="12.00">StderrThread.cpp</text>
</a>
</g>
</g>
<!-- Node18&#45;&gt;Node19 -->
<g id="edge22" class="edge"><title>Node18&#45;&gt;Node19</title>
<path fill="none" stroke="midnightblue" d="M725,-106.158C725,-97.155 725,-86.9199 725,-79.6427"/>
<polygon fill="midnightblue" stroke="midnightblue" points="721.5,-106.246 725,-116.246 728.5,-106.246 721.5,-106.246"/>
</g>
</g>
</svg>
