<?xml version="1.0" encoding="UTF-8" standalone="no"?>
<!DOCTYPE svg PUBLIC "-//W3C//DTD SVG 1.1//EN"
 "http://www.w3.org/Graphics/SVG/1.1/DTD/svg11.dtd">
<!-- Generated by graphviz version 2.34.0 (20130907.0111)
 -->
<!-- Title: JSON/JSONSharedString.h Pages: 1 -->
<svg width="1797pt" height="494pt"
 viewBox="0.00 0.00 1797.00 494.00" xmlns="http://www.w3.org/2000/svg" xmlns:xlink="http://www.w3.org/1999/xlink">
<g id="graph0" class="graph" transform="scale(1 1) rotate(0) translate(4 490)">
<title>JSON/JSONSharedString.h</title>
<polygon fill="white" stroke="white" points="-4,4 -4,-490 1793,-490 1793,4 -4,4"/>
<!-- Node1 -->
<g id="node1" class="node"><title>Node1</title>
<polygon fill="#bfbfbf" stroke="black" points="1534.5,-464.5 1534.5,-485.5 1695.5,-485.5 1695.5,-464.5 1534.5,-464.5"/>
<text text-anchor="middle" x="1615" y="-471.9" font-family="Helvetica,sans-Serif" font-size="12.00">JSON/JSONSharedString.h</text>
</g>
<!-- Node2 -->
<g id="node2" class="node"><title>Node2</title>
<g id="a_node2"><a xlink:href="../../dd/db0/internal_j_s_o_n_node_8h.html" target="_top" xlink:title="JSON/internalJSONNode.h">
<polygon fill="white" stroke="black" points="1429,-406.5 1429,-427.5 1587,-427.5 1587,-406.5 1429,-406.5"/>
<text text-anchor="middle" x="1508" y="-413.9" font-family="Helvetica,sans-Serif" font-size="12.00">JSON/internalJSONNode.h</text>
</a>
</g>
</g>
<!-- Node1&#45;&gt;Node2 -->
<g id="edge1" class="edge"><title>Node1&#45;&gt;Node2</title>
<path fill="none" stroke="midnightblue" d="M1587.48,-459.597C1568.3,-449.558 1543.23,-436.439 1526.42,-427.643"/>
<polygon fill="midnightblue" stroke="midnightblue" points="1585.88,-462.709 1596.36,-464.246 1589.13,-456.508 1585.88,-462.709"/>
</g>
<!-- Node22 -->
<g id="node22" class="node"><title>Node22</title>
<g id="a_node22"><a xlink:href="../../d8/d46/_j_s_o_n_worker_8h.html" target="_top" xlink:title="JSON/JSONWorker.h">
<polygon fill="white" stroke="black" points="1381,-290.5 1381,-311.5 1511,-311.5 1511,-290.5 1381,-290.5"/>
<text text-anchor="middle" x="1446" y="-297.9" font-family="Helvetica,sans-Serif" font-size="12.00">JSON/JSONWorker.h</text>
</a>
</g>
</g>
<!-- Node1&#45;&gt;Node22 -->
<g id="edge41" class="edge"><title>Node1&#45;&gt;Node22</title>
<path fill="none" stroke="midnightblue" d="M1613.06,-454.002C1610.84,-439.561 1606.09,-420.185 1596,-406 1562.74,-359.269 1501.53,-326.63 1468.52,-311.516"/>
<polygon fill="midnightblue" stroke="midnightblue" points="1609.64,-454.845 1614.35,-464.332 1616.58,-453.974 1609.64,-454.845"/>
</g>
<!-- Node33 -->
<g id="node33" class="node"><title>Node33</title>
<g id="a_node33"><a xlink:href="../../d6/de4/_number_to_string_8h.html" target="_top" xlink:title="JSON/NumberToString.h">
<polygon fill="white" stroke="black" points="1643,-348.5 1643,-369.5 1789,-369.5 1789,-348.5 1643,-348.5"/>
<text text-anchor="middle" x="1716" y="-355.9" font-family="Helvetica,sans-Serif" font-size="12.00">JSON/NumberToString.h</text>
</a>
</g>
</g>
<!-- Node1&#45;&gt;Node33 -->
<g id="edge42" class="edge"><title>Node1&#45;&gt;Node33</title>
<path fill="none" stroke="midnightblue" d="M1630.47,-456.535C1652.03,-432.206 1690.36,-388.941 1707.41,-369.695"/>
<polygon fill="midnightblue" stroke="midnightblue" points="1627.62,-454.474 1623.61,-464.28 1632.86,-459.116 1627.62,-454.474"/>
</g>
<!-- Node3 -->
<g id="node3" class="node"><title>Node3</title>
<g id="a_node3"><a xlink:href="../../d8/dcb/_j_s_o_n_node_8h.html" target="_top" xlink:title="JSON/JSONNode.h">
<polygon fill="white" stroke="black" points="966,-348.5 966,-369.5 1086,-369.5 1086,-348.5 966,-348.5"/>
<text text-anchor="middle" x="1026" y="-355.9" font-family="Helvetica,sans-Serif" font-size="12.00">JSON/JSONNode.h</text>
</a>
</g>
</g>
<!-- Node2&#45;&gt;Node3 -->
<g id="edge2" class="edge"><title>Node2&#45;&gt;Node3</title>
<path fill="none" stroke="midnightblue" d="M1418.87,-405.645C1321.94,-394.383 1169.69,-376.694 1086.03,-366.975"/>
<polygon fill="midnightblue" stroke="midnightblue" points="1418.61,-409.138 1428.95,-406.815 1419.42,-402.185 1418.61,-409.138"/>
</g>
<!-- Node23 -->
<g id="node23" class="node"><title>Node23</title>
<g id="a_node23"><a xlink:href="../../dd/dde/internal_j_s_o_n_node_8cpp.html" target="_top" xlink:title="JSON/internalJSONNode.cpp">
<polygon fill="white" stroke="black" points="1513.5,-232.5 1513.5,-253.5 1684.5,-253.5 1684.5,-232.5 1513.5,-232.5"/>
<text text-anchor="middle" x="1599" y="-239.9" font-family="Helvetica,sans-Serif" font-size="12.00">JSON/internalJSONNode.cpp</text>
</a>
</g>
</g>
<!-- Node2&#45;&gt;Node23 -->
<g id="edge40" class="edge"><title>Node2&#45;&gt;Node23</title>
<path fill="none" stroke="midnightblue" d="M1517.97,-397.161C1537.31,-360.593 1579.33,-281.172 1593.9,-253.633"/>
<polygon fill="midnightblue" stroke="midnightblue" points="1514.74,-395.784 1513.15,-406.26 1520.92,-399.057 1514.74,-395.784"/>
</g>
<!-- Node4 -->
<g id="node4" class="node"><title>Node4</title>
<g id="a_node4"><a xlink:href="../../d1/d7d/libjson_8h.html" target="_top" xlink:title="libjson.h">
<polygon fill="white" stroke="black" points="624.5,-232.5 624.5,-253.5 683.5,-253.5 683.5,-232.5 624.5,-232.5"/>
<text text-anchor="middle" x="654" y="-239.9" font-family="Helvetica,sans-Serif" font-size="12.00">libjson.h</text>
</a>
</g>
</g>
<!-- Node3&#45;&gt;Node4 -->
<g id="edge3" class="edge"><title>Node3&#45;&gt;Node4</title>
<path fill="none" stroke="midnightblue" d="M955.443,-355.912C869.506,-352.098 730.637,-341.447 689,-312 669.053,-297.893 659.699,-268.936 656.015,-253.764"/>
<polygon fill="midnightblue" stroke="midnightblue" points="955.511,-359.418 965.65,-356.344 955.807,-352.424 955.511,-359.418"/>
</g>
<!-- Node3&#45;&gt;Node22 -->
<g id="edge25" class="edge"><title>Node3&#45;&gt;Node22</title>
<path fill="none" stroke="midnightblue" d="M1096.56,-348.592C1175.89,-338.014 1303.67,-320.978 1380.75,-310.699"/>
<polygon fill="midnightblue" stroke="midnightblue" points="1095.63,-345.186 1086.18,-349.977 1096.55,-352.124 1095.63,-345.186"/>
</g>
<!-- Node3&#45;&gt;Node23 -->
<g id="edge34" class="edge"><title>Node3&#45;&gt;Node23</title>
<path fill="none" stroke="midnightblue" d="M1096.59,-356.681C1214.41,-353.611 1445.55,-343.634 1520,-312 1550.98,-298.837 1578.65,-268.905 1591.46,-253.52"/>
<polygon fill="midnightblue" stroke="midnightblue" points="1096.15,-353.191 1086.24,-356.941 1096.33,-360.189 1096.15,-353.191"/>
</g>
<!-- Node26 -->
<g id="node26" class="node"><title>Node26</title>
<g id="a_node26"><a xlink:href="../../d8/d45/_j_s_o_n_writer_8cpp.html" target="_top" xlink:title="JSON/JSONWriter.cpp">
<polygon fill="white" stroke="black" points="880.5,-232.5 880.5,-253.5 1017.5,-253.5 1017.5,-232.5 880.5,-232.5"/>
<text text-anchor="middle" x="949" y="-239.9" font-family="Helvetica,sans-Serif" font-size="12.00">JSON/JSONWriter.cpp</text>
</a>
</g>
</g>
<!-- Node3&#45;&gt;Node26 -->
<g id="edge39" class="edge"><title>Node3&#45;&gt;Node26</title>
<path fill="none" stroke="midnightblue" d="M955.936,-358.51C869.484,-357.47 729.861,-349.775 697,-312 690.583,-304.623 690.738,-297.509 697,-290 719.965,-262.463 813.981,-251.366 880.429,-246.923"/>
<polygon fill="midnightblue" stroke="midnightblue" points="955.913,-362.01 965.945,-358.604 955.978,-355.01 955.913,-362.01"/>
</g>
<!-- Node27 -->
<g id="node27" class="node"><title>Node27</title>
<g id="a_node27"><a xlink:href="../../da/dde/_j_s_o_n_preparse_8h.html" target="_top" xlink:title="JSON/JSONPreparse.h">
<polygon fill="white" stroke="black" points="472,-290.5 472,-311.5 612,-311.5 612,-290.5 472,-290.5"/>
<text text-anchor="middle" x="542" y="-297.9" font-family="Helvetica,sans-Serif" font-size="12.00">JSON/JSONPreparse.h</text>
</a>
</g>
</g>
<!-- Node3&#45;&gt;Node27 -->
<g id="edge31" class="edge"><title>Node3&#45;&gt;Node27</title>
<path fill="none" stroke="midnightblue" d="M955.733,-350.005C875.844,-340.896 741.518,-325.518 626,-312 621.478,-311.471 616.82,-310.923 612.124,-310.369"/>
<polygon fill="midnightblue" stroke="midnightblue" points="955.348,-353.484 965.68,-351.139 956.14,-346.529 955.348,-353.484"/>
</g>
<!-- Node29 -->
<g id="node29" class="node"><title>Node29</title>
<g id="a_node29"><a xlink:href="../../dc/d59/_j_s_o_n_children_8cpp.html" target="_top" xlink:title="JSON/JSONChildren.cpp">
<polygon fill="white" stroke="black" points="706.5,-290.5 706.5,-311.5 855.5,-311.5 855.5,-290.5 706.5,-290.5"/>
<text text-anchor="middle" x="781" y="-297.9" font-family="Helvetica,sans-Serif" font-size="12.00">JSON/JSONChildren.cpp</text>
</a>
</g>
</g>
<!-- Node3&#45;&gt;Node29 -->
<g id="edge35" class="edge"><title>Node3&#45;&gt;Node29</title>
<path fill="none" stroke="midnightblue" d="M974.277,-346.178C929.155,-335.864 864.534,-321.093 822.666,-311.524"/>
<polygon fill="midnightblue" stroke="midnightblue" points="973.633,-349.621 984.161,-348.437 975.193,-342.797 973.633,-349.621"/>
</g>
<!-- Node30 -->
<g id="node30" class="node"><title>Node30</title>
<g id="a_node30"><a xlink:href="../../d8/de5/_j_s_o_n_iterators_8cpp.html" target="_top" xlink:title="JSON/JSONIterators.cpp">
<polygon fill="white" stroke="black" points="873.5,-290.5 873.5,-311.5 1020.5,-311.5 1020.5,-290.5 873.5,-290.5"/>
<text text-anchor="middle" x="947" y="-297.9" font-family="Helvetica,sans-Serif" font-size="12.00">JSON/JSONIterators.cpp</text>
</a>
</g>
</g>
<!-- Node3&#45;&gt;Node30 -->
<g id="edge36" class="edge"><title>Node3&#45;&gt;Node30</title>
<path fill="none" stroke="midnightblue" d="M1003.72,-342.21C989.849,-332.374 972.449,-320.039 960.603,-311.643"/>
<polygon fill="midnightblue" stroke="midnightblue" points="1002.06,-345.318 1012.24,-348.246 1006.11,-339.607 1002.06,-345.318"/>
</g>
<!-- Node31 -->
<g id="node31" class="node"><title>Node31</title>
<g id="a_node31"><a xlink:href="../../d1/df2/_j_s_o_n_node_8cpp.html" target="_top" xlink:title="JSON/JSONNode.cpp">
<polygon fill="white" stroke="black" points="1039,-290.5 1039,-311.5 1173,-311.5 1173,-290.5 1039,-290.5"/>
<text text-anchor="middle" x="1106" y="-297.9" font-family="Helvetica,sans-Serif" font-size="12.00">JSON/JSONNode.cpp</text>
</a>
</g>
</g>
<!-- Node3&#45;&gt;Node31 -->
<g id="edge37" class="edge"><title>Node3&#45;&gt;Node31</title>
<path fill="none" stroke="midnightblue" d="M1048.16,-342.49C1062.27,-332.61 1080.12,-320.119 1092.22,-311.643"/>
<polygon fill="midnightblue" stroke="midnightblue" points="1046.12,-339.644 1039.93,-348.246 1050.13,-345.378 1046.12,-339.644"/>
</g>
<!-- Node32 -->
<g id="node32" class="node"><title>Node32</title>
<g id="a_node32"><a xlink:href="../../d7/d9f/_j_s_o_n_node___mutex_8cpp.html" target="_top" xlink:title="JSON/JSONNode_Mutex.cpp">
<polygon fill="white" stroke="black" points="1191.5,-290.5 1191.5,-311.5 1362.5,-311.5 1362.5,-290.5 1191.5,-290.5"/>
<text text-anchor="middle" x="1277" y="-297.9" font-family="Helvetica,sans-Serif" font-size="12.00">JSON/JSONNode_Mutex.cpp</text>
</a>
</g>
</g>
<!-- Node3&#45;&gt;Node32 -->
<g id="edge38" class="edge"><title>Node3&#45;&gt;Node32</title>
<path fill="none" stroke="midnightblue" d="M1078.7,-346.242C1124.94,-335.926 1191.33,-321.113 1234.31,-311.524"/>
<polygon fill="midnightblue" stroke="midnightblue" points="1077.86,-342.843 1068.86,-348.437 1079.39,-349.675 1077.86,-342.843"/>
</g>
<!-- Node5 -->
<g id="node5" class="node"><title>Node5</title>
<g id="a_node5"><a xlink:href="../../d9/da7/_image_test_8h.html" target="_top" xlink:title="ImageTest.h">
<polygon fill="white" stroke="black" points="423,-174.5 423,-195.5 503,-195.5 503,-174.5 423,-174.5"/>
<text text-anchor="middle" x="463" y="-181.9" font-family="Helvetica,sans-Serif" font-size="12.00">ImageTest.h</text>
</a>
</g>
</g>
<!-- Node4&#45;&gt;Node5 -->
<g id="edge4" class="edge"><title>Node4&#45;&gt;Node5</title>
<path fill="none" stroke="midnightblue" d="M614.221,-230.337C579.031,-220.02 528.318,-205.151 495.509,-195.531"/>
<polygon fill="midnightblue" stroke="midnightblue" points="613.575,-233.795 624.156,-233.25 615.545,-227.078 613.575,-233.795"/>
</g>
<!-- Node19 -->
<g id="node19" class="node"><title>Node19</title>
<g id="a_node19"><a xlink:href="../../dc/d7a/_s_f_rplus_test_8cpp.html" target="_top" xlink:title="SFRplusTest.cpp">
<polygon fill="white" stroke="black" points="559.5,-58.5 559.5,-79.5 666.5,-79.5 666.5,-58.5 559.5,-58.5"/>
<text text-anchor="middle" x="613" y="-65.9" font-family="Helvetica,sans-Serif" font-size="12.00">SFRplusTest.cpp</text>
</a>
</g>
</g>
<!-- Node4&#45;&gt;Node19 -->
<g id="edge24" class="edge"><title>Node4&#45;&gt;Node19</title>
<path fill="none" stroke="midnightblue" d="M643.587,-223.465C639.395,-215.272 634.882,-205.386 632,-196 619.079,-153.915 614.765,-101.122 613.485,-79.6989"/>
<polygon fill="midnightblue" stroke="midnightblue" points="640.602,-225.305 648.407,-232.47 646.773,-222.002 640.602,-225.305"/>
</g>
<!-- Node20 -->
<g id="node20" class="node"><title>Node20</title>
<g id="a_node20"><a xlink:href="../../df/d2a/libjson_8cpp.html" target="_top" xlink:title="JSON/libjson.cpp">
<polygon fill="white" stroke="black" points="641.5,-174.5 641.5,-195.5 748.5,-195.5 748.5,-174.5 641.5,-174.5"/>
<text text-anchor="middle" x="695" y="-181.9" font-family="Helvetica,sans-Serif" font-size="12.00">JSON/libjson.cpp</text>
</a>
</g>
</g>
<!-- Node4&#45;&gt;Node20 -->
<g id="edge22" class="edge"><title>Node4&#45;&gt;Node20</title>
<path fill="none" stroke="midnightblue" d="M667.236,-223.921C674.121,-214.518 682.261,-203.4 687.94,-195.643"/>
<polygon fill="midnightblue" stroke="midnightblue" points="664.225,-222.109 661.142,-232.246 669.873,-226.244 664.225,-222.109"/>
</g>
<!-- Node21 -->
<g id="node21" class="node"><title>Node21</title>
<g id="a_node21"><a xlink:href="../../d7/d4a/jsonhelpers_8cpp.html" target="_top" xlink:title="jsonhelpers.cpp">
<polygon fill="white" stroke="black" points="767,-174.5 767,-195.5 865,-195.5 865,-174.5 767,-174.5"/>
<text text-anchor="middle" x="816" y="-181.9" font-family="Helvetica,sans-Serif" font-size="12.00">jsonhelpers.cpp</text>
</a>
</g>
</g>
<!-- Node4&#45;&gt;Node21 -->
<g id="edge23" class="edge"><title>Node4&#45;&gt;Node21</title>
<path fill="none" stroke="midnightblue" d="M691.442,-229.057C721.09,-218.808 761.82,-204.729 788.515,-195.501"/>
<polygon fill="midnightblue" stroke="midnightblue" points="690.157,-225.798 681.849,-232.373 692.444,-232.414 690.157,-225.798"/>
</g>
<!-- Node6 -->
<g id="node6" class="node"><title>Node6</title>
<g id="a_node6"><a xlink:href="../../dc/d69/_blemish_test_8h.html" target="_top" xlink:title="BlemishTest.h">
<polygon fill="white" stroke="black" points="345,-116.5 345,-137.5 435,-137.5 435,-116.5 345,-116.5"/>
<text text-anchor="middle" x="390" y="-123.9" font-family="Helvetica,sans-Serif" font-size="12.00">BlemishTest.h</text>
</a>
</g>
</g>
<!-- Node5&#45;&gt;Node6 -->
<g id="edge5" class="edge"><title>Node5&#45;&gt;Node6</title>
<path fill="none" stroke="midnightblue" d="M442.049,-167.928C429.289,-158.14 413.411,-145.959 402.57,-137.643"/>
<polygon fill="midnightblue" stroke="midnightblue" points="440.22,-170.936 450.284,-174.246 444.48,-165.382 440.22,-170.936"/>
</g>
<!-- Node7 -->
<g id="node7" class="node"><title>Node7</title>
<g id="a_node7"><a xlink:href="../../da/de6/_operator_console_8h.html" target="_top" xlink:title="OperatorConsole.h">
<polygon fill="white" stroke="black" points="425,-58.5 425,-79.5 541,-79.5 541,-58.5 425,-58.5"/>
<text text-anchor="middle" x="483" y="-65.9" font-family="Helvetica,sans-Serif" font-size="12.00">OperatorConsole.h</text>
</a>
</g>
</g>
<!-- Node5&#45;&gt;Node7 -->
<g id="edge17" class="edge"><title>Node5&#45;&gt;Node7</title>
<path fill="none" stroke="midnightblue" d="M466.465,-164.252C470.792,-139.584 478.026,-98.3525 481.299,-79.695"/>
<polygon fill="midnightblue" stroke="midnightblue" points="462.986,-163.826 464.705,-174.28 469.881,-165.036 462.986,-163.826"/>
</g>
<!-- Node10 -->
<g id="node10" class="node"><title>Node10</title>
<g id="a_node10"><a xlink:href="../../d8/d53/_image_test_8cpp.html" target="_top" xlink:title="ImageTest.cpp">
<polygon fill="white" stroke="black" points="0,-0.5 0,-21.5 94,-21.5 94,-0.5 0,-0.5"/>
<text text-anchor="middle" x="47" y="-7.9" font-family="Helvetica,sans-Serif" font-size="12.00">ImageTest.cpp</text>
</a>
</g>
</g>
<!-- Node5&#45;&gt;Node10 -->
<g id="edge21" class="edge"><title>Node5&#45;&gt;Node10</title>
<path fill="none" stroke="midnightblue" d="M425.44,-171.101C400.035,-162.204 365.808,-149.882 336,-138 234.312,-97.4643 115.12,-43.3613 67.8393,-21.631"/>
<polygon fill="midnightblue" stroke="midnightblue" points="424.466,-174.468 435.061,-174.454 426.77,-167.858 424.466,-174.468"/>
</g>
<!-- Node18 -->
<g id="node18" class="node"><title>Node18</title>
<g id="a_node18"><a xlink:href="../../d2/d9d/_s_f_rplus_test_8h.html" target="_top" xlink:title="SFRplusTest.h">
<polygon fill="white" stroke="black" points="491.5,-116.5 491.5,-137.5 584.5,-137.5 584.5,-116.5 491.5,-116.5"/>
<text text-anchor="middle" x="538" y="-123.9" font-family="Helvetica,sans-Serif" font-size="12.00">SFRplusTest.h</text>
</a>
</g>
</g>
<!-- Node5&#45;&gt;Node18 -->
<g id="edge18" class="edge"><title>Node5&#45;&gt;Node18</title>
<path fill="none" stroke="midnightblue" d="M484.148,-168.21C497.32,-158.374 513.84,-146.039 525.086,-137.643"/>
<polygon fill="midnightblue" stroke="midnightblue" points="481.983,-165.458 476.064,-174.246 486.171,-171.067 481.983,-165.458"/>
</g>
<!-- Node6&#45;&gt;Node7 -->
<g id="edge6" class="edge"><title>Node6&#45;&gt;Node7</title>
<path fill="none" stroke="midnightblue" d="M414.834,-111.046C431.381,-101.082 452.643,-88.2794 466.986,-79.6427"/>
<polygon fill="midnightblue" stroke="midnightblue" points="412.961,-108.089 406.199,-116.246 416.572,-114.085 412.961,-108.089"/>
</g>
<!-- Node17 -->
<g id="node17" class="node"><title>Node17</title>
<g id="a_node17"><a xlink:href="../../dd/d8a/_blemish_test_8cpp.html" target="_top" xlink:title="BlemishTest.cpp">
<polygon fill="white" stroke="black" points="303,-58.5 303,-79.5 407,-79.5 407,-58.5 303,-58.5"/>
<text text-anchor="middle" x="355" y="-65.9" font-family="Helvetica,sans-Serif" font-size="12.00">BlemishTest.cpp</text>
</a>
</g>
</g>
<!-- Node6&#45;&gt;Node17 -->
<g id="edge16" class="edge"><title>Node6&#45;&gt;Node17</title>
<path fill="none" stroke="midnightblue" d="M378.518,-107.63C372.68,-98.2887 365.825,-87.3197 361.027,-79.6427"/>
<polygon fill="midnightblue" stroke="midnightblue" points="375.635,-109.621 383.903,-116.246 381.571,-105.911 375.635,-109.621"/>
</g>
<!-- Node8 -->
<g id="node8" class="node"><title>Node8</title>
<g id="a_node8"><a xlink:href="../../d3/d22/_app_thread_8cpp.html" target="_top" xlink:title="AppThread.cpp">
<polygon fill="white" stroke="black" points="844,-0.5 844,-21.5 942,-21.5 942,-0.5 844,-0.5"/>
<text text-anchor="middle" x="893" y="-7.9" font-family="Helvetica,sans-Serif" font-size="12.00">AppThread.cpp</text>
</a>
</g>
</g>
<!-- Node7&#45;&gt;Node8 -->
<g id="edge7" class="edge"><title>Node7&#45;&gt;Node8</title>
<path fill="none" stroke="midnightblue" d="M551.209,-57.8614C678.177,-40.5771 711.932,-40.3724 835,-22 837.931,-21.5625 840.942,-21.0958 843.977,-20.6121"/>
<polygon fill="midnightblue" stroke="midnightblue" points="550.525,-54.4223 541.093,-59.2477 551.476,-61.3575 550.525,-54.4223"/>
</g>
<!-- Node9 -->
<g id="node9" class="node"><title>Node9</title>
<g id="a_node9"><a xlink:href="../../d6/df7/_critical_buf_8cpp.html" target="_top" xlink:title="CriticalBuf.cpp">
<polygon fill="white" stroke="black" points="960.5,-0.5 960.5,-21.5 1053.5,-21.5 1053.5,-0.5 960.5,-0.5"/>
<text text-anchor="middle" x="1007" y="-7.9" font-family="Helvetica,sans-Serif" font-size="12.00">CriticalBuf.cpp</text>
</a>
</g>
</g>
<!-- Node7&#45;&gt;Node9 -->
<g id="edge8" class="edge"><title>Node7&#45;&gt;Node9</title>
<path fill="none" stroke="midnightblue" d="M551.054,-57.9387C729.381,-37.0968 776.848,-45.3214 951,-22 954.034,-21.5936 957.155,-21.1391 960.297,-20.6539"/>
<polygon fill="midnightblue" stroke="midnightblue" points="550.596,-54.4684 541.077,-59.119 551.419,-61.4199 550.596,-54.4684"/>
</g>
<!-- Node7&#45;&gt;Node10 -->
<g id="edge9" class="edge"><title>Node7&#45;&gt;Node10</title>
<path fill="none" stroke="midnightblue" d="M414.707,-57.8697C275.451,-39.7739 238.299,-41.8415 103,-22 100.069,-21.5701 97.0551,-21.1036 94.0192,-20.6151"/>
<polygon fill="midnightblue" stroke="midnightblue" points="414.542,-61.378 424.912,-59.208 415.452,-54.4374 414.542,-61.378"/>
</g>
<!-- Node11 -->
<g id="node11" class="node"><title>Node11</title>
<g id="a_node11"><a xlink:href="../../df/d0a/main_8cpp.html" target="_top" xlink:title="main.cpp">
<polygon fill="white" stroke="black" points="112.5,-0.5 112.5,-21.5 177.5,-21.5 177.5,-0.5 112.5,-0.5"/>
<text text-anchor="middle" x="145" y="-7.9" font-family="Helvetica,sans-Serif" font-size="12.00">main.cpp</text>
</a>
</g>
</g>
<!-- Node7&#45;&gt;Node11 -->
<g id="edge10" class="edge"><title>Node7&#45;&gt;Node11</title>
<path fill="none" stroke="midnightblue" d="M414.68,-57.7341C334.009,-45.5625 207.961,-26.3705 186,-22 183.269,-21.4566 180.446,-20.8541 177.618,-20.2222"/>
<polygon fill="midnightblue" stroke="midnightblue" points="414.361,-61.2254 424.771,-59.2556 415.404,-54.3036 414.361,-61.2254"/>
</g>
<!-- Node12 -->
<g id="node12" class="node"><title>Node12</title>
<g id="a_node12"><a xlink:href="../../de/da2/_operator_console_8cpp.html" target="_top" xlink:title="OperatorConsole.cpp">
<polygon fill="white" stroke="black" points="195.5,-0.5 195.5,-21.5 324.5,-21.5 324.5,-0.5 195.5,-0.5"/>
<text text-anchor="middle" x="260" y="-7.9" font-family="Helvetica,sans-Serif" font-size="12.00">OperatorConsole.cpp</text>
</a>
</g>
</g>
<!-- Node7&#45;&gt;Node12 -->
<g id="edge11" class="edge"><title>Node7&#45;&gt;Node12</title>
<path fill="none" stroke="midnightblue" d="M435.143,-55.982C394.111,-45.6781 335.792,-31.0331 297.925,-21.5237"/>
<polygon fill="midnightblue" stroke="midnightblue" points="434.367,-59.3958 444.918,-58.4369 436.072,-52.6066 434.367,-59.3958"/>
</g>
<!-- Node13 -->
<g id="node13" class="node"><title>Node13</title>
<g id="a_node13"><a xlink:href="../../d8/d29/_operator_console_dlg_8cpp.html" target="_top" xlink:title="OperatorConsoleDlg.cpp">
<polygon fill="white" stroke="black" points="342.5,-0.5 342.5,-21.5 489.5,-21.5 489.5,-0.5 342.5,-0.5"/>
<text text-anchor="middle" x="416" y="-7.9" font-family="Helvetica,sans-Serif" font-size="12.00">OperatorConsoleDlg.cpp</text>
</a>
</g>
</g>
<!-- Node7&#45;&gt;Node13 -->
<g id="edge12" class="edge"><title>Node7&#45;&gt;Node13</title>
<path fill="none" stroke="midnightblue" d="M463.432,-51.645C451.78,-41.9058 437.392,-29.8795 427.537,-21.6427"/>
<polygon fill="midnightblue" stroke="midnightblue" points="461.412,-54.5179 471.329,-58.2455 465.901,-49.1469 461.412,-54.5179"/>
</g>
<!-- Node14 -->
<g id="node14" class="node"><title>Node14</title>
<g id="a_node14"><a xlink:href="../../d0/d57/_pass_fail_8cpp.html" target="_top" xlink:title="PassFail.cpp">
<polygon fill="white" stroke="black" points="508,-0.5 508,-21.5 594,-21.5 594,-0.5 508,-0.5"/>
<text text-anchor="middle" x="551" y="-7.9" font-family="Helvetica,sans-Serif" font-size="12.00">PassFail.cpp</text>
</a>
</g>
</g>
<!-- Node7&#45;&gt;Node14 -->
<g id="edge13" class="edge"><title>Node7&#45;&gt;Node14</title>
<path fill="none" stroke="midnightblue" d="M502.86,-51.645C514.686,-41.9058 529.289,-29.8795 539.291,-21.6427"/>
<polygon fill="midnightblue" stroke="midnightblue" points="500.339,-49.1867 494.845,-58.2455 504.789,-54.5902 500.339,-49.1867"/>
</g>
<!-- Node15 -->
<g id="node15" class="node"><title>Node15</title>
<g id="a_node15"><a xlink:href="../../da/d46/_password_dialog_8cpp.html" target="_top" xlink:title="PasswordDialog.cpp">
<polygon fill="white" stroke="black" points="612,-0.5 612,-21.5 738,-21.5 738,-0.5 612,-0.5"/>
<text text-anchor="middle" x="675" y="-7.9" font-family="Helvetica,sans-Serif" font-size="12.00">PasswordDialog.cpp</text>
</a>
</g>
</g>
<!-- Node7&#45;&gt;Node15 -->
<g id="edge14" class="edge"><title>Node7&#45;&gt;Node15</title>
<path fill="none" stroke="midnightblue" d="M526.008,-55.4561C561.252,-45.1765 610.374,-30.8494 642.425,-21.5011"/>
<polygon fill="midnightblue" stroke="midnightblue" points="524.626,-52.2132 516.006,-58.3733 526.586,-58.9332 524.626,-52.2132"/>
</g>
<!-- Node16 -->
<g id="node16" class="node"><title>Node16</title>
<g id="a_node16"><a xlink:href="../../d5/d27/_setup_8cpp.html" target="_top" xlink:title="Setup.cpp">
<polygon fill="white" stroke="black" points="756,-0.5 756,-21.5 826,-21.5 826,-0.5 756,-0.5"/>
<text text-anchor="middle" x="791" y="-7.9" font-family="Helvetica,sans-Serif" font-size="12.00">Setup.cpp</text>
</a>
</g>
</g>
<!-- Node7&#45;&gt;Node16 -->
<g id="edge15" class="edge"><title>Node7&#45;&gt;Node16</title>
<path fill="none" stroke="midnightblue" d="M551.133,-57.1082C604.549,-48.3328 680.685,-35.3043 747,-22 749.919,-21.4145 752.94,-20.7824 755.97,-20.1306"/>
<polygon fill="midnightblue" stroke="midnightblue" points="550.401,-53.6814 541.097,-58.7508 551.532,-60.5895 550.401,-53.6814"/>
</g>
<!-- Node18&#45;&gt;Node7 -->
<g id="edge19" class="edge"><title>Node18&#45;&gt;Node7</title>
<path fill="none" stroke="midnightblue" d="M521.377,-109.075C511.915,-99.4402 500.403,-87.7196 492.47,-79.6427"/>
<polygon fill="midnightblue" stroke="midnightblue" points="518.916,-111.564 528.42,-116.246 523.91,-106.659 518.916,-111.564"/>
</g>
<!-- Node18&#45;&gt;Node19 -->
<g id="edge20" class="edge"><title>Node18&#45;&gt;Node19</title>
<path fill="none" stroke="midnightblue" d="M559.148,-110.21C572.32,-100.374 588.84,-88.0394 600.086,-79.6427"/>
<polygon fill="midnightblue" stroke="midnightblue" points="556.983,-107.458 551.064,-116.246 561.171,-113.067 556.983,-107.458"/>
</g>
<!-- Node22&#45;&gt;Node4 -->
<g id="edge26" class="edge"><title>Node22&#45;&gt;Node4</title>
<path fill="none" stroke="midnightblue" d="M1371.31,-290.03C1371.2,-290.02 1371.1,-290.01 1371,-290 1105.05,-263.769 782.048,-249.225 683.769,-245.178"/>
<polygon fill="midnightblue" stroke="midnightblue" points="1370.68,-293.483 1380.99,-291.055 1371.41,-286.522 1370.68,-293.483"/>
</g>
<!-- Node22&#45;&gt;Node23 -->
<g id="edge27" class="edge"><title>Node22&#45;&gt;Node23</title>
<path fill="none" stroke="midnightblue" d="M1481.73,-286.923C1509.7,-276.686 1547.94,-262.689 1573.04,-253.501"/>
<polygon fill="midnightblue" stroke="midnightblue" points="1480.49,-283.649 1472.3,-290.373 1482.9,-290.223 1480.49,-283.649"/>
</g>
<!-- Node24 -->
<g id="node24" class="node"><title>Node24</title>
<g id="a_node24"><a xlink:href="../../d4/d80/_j_s_o_n_stream_8cpp.html" target="_top" xlink:title="JSON/JSONStream.cpp">
<polygon fill="white" stroke="black" points="1191.5,-232.5 1191.5,-253.5 1334.5,-253.5 1334.5,-232.5 1191.5,-232.5"/>
<text text-anchor="middle" x="1263" y="-239.9" font-family="Helvetica,sans-Serif" font-size="12.00">JSON/JSONStream.cpp</text>
</a>
</g>
</g>
<!-- Node22&#45;&gt;Node24 -->
<g id="edge28" class="edge"><title>Node22&#45;&gt;Node24</title>
<path fill="none" stroke="midnightblue" d="M1404.58,-287.324C1371.01,-277.054 1324.47,-262.809 1294.05,-253.501"/>
<polygon fill="midnightblue" stroke="midnightblue" points="1403.95,-290.794 1414.54,-290.373 1406,-284.1 1403.95,-290.794"/>
</g>
<!-- Node25 -->
<g id="node25" class="node"><title>Node25</title>
<g id="a_node25"><a xlink:href="../../d1/d6f/_j_s_o_n_worker_8cpp.html" target="_top" xlink:title="JSON/JSONWorker.cpp">
<polygon fill="white" stroke="black" points="1352.5,-232.5 1352.5,-253.5 1495.5,-253.5 1495.5,-232.5 1352.5,-232.5"/>
<text text-anchor="middle" x="1424" y="-239.9" font-family="Helvetica,sans-Serif" font-size="12.00">JSON/JSONWorker.cpp</text>
</a>
</g>
</g>
<!-- Node22&#45;&gt;Node25 -->
<g id="edge29" class="edge"><title>Node22&#45;&gt;Node25</title>
<path fill="none" stroke="midnightblue" d="M1438.44,-280.749C1434.85,-271.606 1430.71,-261.08 1427.79,-253.643"/>
<polygon fill="midnightblue" stroke="midnightblue" points="1435.25,-282.218 1442.17,-290.246 1441.77,-279.658 1435.25,-282.218"/>
</g>
<!-- Node22&#45;&gt;Node26 -->
<g id="edge30" class="edge"><title>Node22&#45;&gt;Node26</title>
<path fill="none" stroke="midnightblue" d="M1371.31,-290.037C1371.2,-290.025 1371.1,-290.012 1371,-290 1246.62,-274.932 1101.34,-259.591 1017.77,-250.984"/>
<polygon fill="midnightblue" stroke="midnightblue" points="1370.62,-293.478 1380.97,-291.232 1371.47,-286.531 1370.62,-293.478"/>
</g>
<!-- Node27&#45;&gt;Node4 -->
<g id="edge32" class="edge"><title>Node27&#45;&gt;Node4</title>
<path fill="none" stroke="midnightblue" d="M570.326,-285.837C590.572,-275.714 617.264,-262.368 634.998,-253.501"/>
<polygon fill="midnightblue" stroke="midnightblue" points="568.633,-282.771 561.253,-290.373 571.763,-289.032 568.633,-282.771"/>
</g>
<!-- Node28 -->
<g id="node28" class="node"><title>Node28</title>
<g id="a_node28"><a xlink:href="../../d2/d18/_j_s_o_n_preparse_8cpp.html" target="_top" xlink:title="JSON/JSONPreparse.cpp">
<polygon fill="white" stroke="black" points="452,-232.5 452,-253.5 606,-253.5 606,-232.5 452,-232.5"/>
<text text-anchor="middle" x="529" y="-239.9" font-family="Helvetica,sans-Serif" font-size="12.00">JSON/JSONPreparse.cpp</text>
</a>
</g>
</g>
<!-- Node27&#45;&gt;Node28 -->
<g id="edge33" class="edge"><title>Node27&#45;&gt;Node28</title>
<path fill="none" stroke="midnightblue" d="M537.463,-280.454C535.356,-271.38 532.946,-261 531.238,-253.643"/>
<polygon fill="midnightblue" stroke="midnightblue" points="534.065,-281.296 539.736,-290.246 540.884,-279.713 534.065,-281.296"/>
</g>
<!-- Node33&#45;&gt;Node23 -->
<g id="edge43" class="edge"><title>Node33&#45;&gt;Node23</title>
<path fill="none" stroke="midnightblue" d="M1698.73,-341.168C1673.88,-316.964 1628.87,-273.109 1608.95,-253.695"/>
<polygon fill="midnightblue" stroke="midnightblue" points="1696.42,-343.809 1706.02,-348.28 1701.3,-338.795 1696.42,-343.809"/>
</g>
</g>
</svg>
