<?xml version="1.0" encoding="UTF-8" standalone="no"?>
<!DOCTYPE svg PUBLIC "-//W3C//DTD SVG 1.1//EN"
 "http://www.w3.org/Graphics/SVG/1.1/DTD/svg11.dtd">
<!-- Generated by graphviz version 2.34.0 (20130907.0111)
 -->
<!-- Title: chars64 Pages: 1 -->
<svg width="454pt" height="150pt"
 viewBox="0.00 0.00 454.00 150.00" xmlns="http://www.w3.org/2000/svg" xmlns:xlink="http://www.w3.org/1999/xlink">
<g id="graph0" class="graph" transform="scale(1 1) rotate(0) translate(4 146)">
<title>chars64</title>
<polygon fill="white" stroke="white" points="-4,4 -4,-146 450,-146 450,4 -4,4"/>
<!-- Node1 -->
<g id="node1" class="node"><title>Node1</title>
<polygon fill="#bfbfbf" stroke="black" points="0.5,-60.5 0.5,-81.5 59.5,-81.5 59.5,-60.5 0.5,-60.5"/>
<text text-anchor="middle" x="30" y="-67.9" font-family="Helvetica,sans-Serif" font-size="12.00">chars64</text>
</g>
<!-- Node2 -->
<g id="node2" class="node"><title>Node2</title>
<g id="a_node2"><a xlink:href="../../dc/d0a/class_j_s_o_n_base64.html#a566563ff3817aafca958b61fa6808c98" target="_top" xlink:title="JSONBase64::json_decode64">
<polygon fill="white" stroke="black" points="96,-80.5 96,-101.5 272,-101.5 272,-80.5 96,-80.5"/>
<text text-anchor="middle" x="184" y="-87.9" font-family="Helvetica,sans-Serif" font-size="12.00">JSONBase64::json_decode64</text>
</a>
</g>
</g>
<!-- Node1&#45;&gt;Node2 -->
<g id="edge1" class="edge"><title>Node1&#45;&gt;Node2</title>
<path fill="none" stroke="midnightblue" d="M69.7552,-76.0994C79.9664,-77.4429 91.3692,-78.9433 102.898,-80.4603"/>
<polygon fill="midnightblue" stroke="midnightblue" points="69.9612,-72.5964 59.59,-74.7618 69.048,-79.5366 69.9612,-72.5964"/>
</g>
<!-- Node5 -->
<g id="node5" class="node"><title>Node5</title>
<g id="a_node5"><a xlink:href="../../dc/d0a/class_j_s_o_n_base64.html#a5c29b5d5de4239569e0f8c80bf04b0b3" target="_top" xlink:title="JSONBase64::json_encode64">
<polygon fill="white" stroke="black" points="96,-40.5 96,-61.5 272,-61.5 272,-40.5 96,-40.5"/>
<text text-anchor="middle" x="184" y="-47.9" font-family="Helvetica,sans-Serif" font-size="12.00">JSONBase64::json_encode64</text>
</a>
</g>
</g>
<!-- Node1&#45;&gt;Node5 -->
<g id="edge4" class="edge"><title>Node1&#45;&gt;Node5</title>
<path fill="none" stroke="midnightblue" d="M69.7552,-65.9006C79.9664,-64.5571 91.3692,-63.0567 102.898,-61.5397"/>
<polygon fill="midnightblue" stroke="midnightblue" points="69.048,-62.4634 59.59,-67.2382 69.9612,-69.4036 69.048,-62.4634"/>
</g>
<!-- Node3 -->
<g id="node3" class="node"><title>Node3</title>
<g id="a_node3"><a xlink:href="../../d6/dc7/class_j_s_o_n_node.html#aef64df34be4901e4bf7ef7d20146a8c5" target="_top" xlink:title="JSONNode::as_binary">
<polygon fill="white" stroke="black" points="310,-120.5 310,-141.5 444,-141.5 444,-120.5 310,-120.5"/>
<text text-anchor="middle" x="377" y="-127.9" font-family="Helvetica,sans-Serif" font-size="12.00">JSONNode::as_binary</text>
</a>
</g>
</g>
<!-- Node2&#45;&gt;Node3 -->
<g id="edge2" class="edge"><title>Node2&#45;&gt;Node3</title>
<path fill="none" stroke="midnightblue" d="M245.27,-103.622C271.189,-109.05 301.135,-115.321 325.821,-120.491"/>
<polygon fill="midnightblue" stroke="midnightblue" points="245.688,-100.134 235.183,-101.51 244.253,-106.985 245.688,-100.134"/>
</g>
<!-- Node4 -->
<g id="node4" class="node"><title>Node4</title>
<g id="a_node4"><a xlink:href="../../d0/d9e/namespacelibjson.html#a299db1223a2bd5cc157edcebe8a25a68" target="_top" xlink:title="libjson::decode64">
<polygon fill="white" stroke="black" points="322.5,-80.5 322.5,-101.5 431.5,-101.5 431.5,-80.5 322.5,-80.5"/>
<text text-anchor="middle" x="377" y="-87.9" font-family="Helvetica,sans-Serif" font-size="12.00">libjson::decode64</text>
</a>
</g>
</g>
<!-- Node2&#45;&gt;Node4 -->
<g id="edge3" class="edge"><title>Node2&#45;&gt;Node4</title>
<path fill="none" stroke="midnightblue" d="M282.172,-91C295.993,-91 309.768,-91 322.337,-91"/>
<polygon fill="midnightblue" stroke="midnightblue" points="282.116,-87.5001 272.116,-91 282.116,-94.5001 282.116,-87.5001"/>
</g>
<!-- Node6 -->
<g id="node6" class="node"><title>Node6</title>
<g id="a_node6"><a xlink:href="../../d6/dc7/class_j_s_o_n_node.html#adfdf8be9584560f1985957129e4fec88" target="_top" xlink:title="JSONNode::set_binary">
<polygon fill="white" stroke="black" points="308.5,-40.5 308.5,-61.5 445.5,-61.5 445.5,-40.5 308.5,-40.5"/>
<text text-anchor="middle" x="377" y="-47.9" font-family="Helvetica,sans-Serif" font-size="12.00">JSONNode::set_binary</text>
</a>
</g>
</g>
<!-- Node5&#45;&gt;Node6 -->
<g id="edge5" class="edge"><title>Node5&#45;&gt;Node6</title>
<path fill="none" stroke="midnightblue" d="M282.149,-51C291.042,-51 299.916,-51 308.463,-51"/>
<polygon fill="midnightblue" stroke="midnightblue" points="282.116,-47.5001 272.116,-51 282.116,-54.5001 282.116,-47.5001"/>
</g>
<!-- Node7 -->
<g id="node7" class="node"><title>Node7</title>
<g id="a_node7"><a xlink:href="../../d0/d9e/namespacelibjson.html#a2639c3f4c65bfd7b631702b270111aea" target="_top" xlink:title="libjson::encode64">
<polygon fill="white" stroke="black" points="323,-0.5 323,-21.5 431,-21.5 431,-0.5 323,-0.5"/>
<text text-anchor="middle" x="377" y="-7.9" font-family="Helvetica,sans-Serif" font-size="12.00">libjson::encode64</text>
</a>
</g>
</g>
<!-- Node5&#45;&gt;Node7 -->
<g id="edge6" class="edge"><title>Node5&#45;&gt;Node7</title>
<path fill="none" stroke="midnightblue" d="M245.27,-38.378C271.189,-32.9499 301.135,-26.6785 325.821,-21.5087"/>
<polygon fill="midnightblue" stroke="midnightblue" points="244.253,-35.0149 235.183,-40.4905 245.688,-41.8663 244.253,-35.0149"/>
</g>
</g>
</svg>
