<?xml version="1.0" encoding="UTF-8" standalone="no"?>
<!DOCTYPE svg PUBLIC "-//W3C//DTD SVG 1.1//EN"
 "http://www.w3.org/Graphics/SVG/1.1/DTD/svg11.dtd">
<!-- Generated by graphviz version 2.34.0 (20130907.0111)
 -->
<!-- Title: toBinary Pages: 1 -->
<svg width="450pt" height="70pt"
 viewBox="0.00 0.00 450.00 70.00" xmlns="http://www.w3.org/2000/svg" xmlns:xlink="http://www.w3.org/1999/xlink">
<g id="graph0" class="graph" transform="scale(1 1) rotate(0) translate(4 66)">
<title>toBinary</title>
<polygon fill="white" stroke="white" points="-4,4 -4,-66 446,-66 446,4 -4,4"/>
<!-- Node1 -->
<g id="node1" class="node"><title>Node1</title>
<polygon fill="#bfbfbf" stroke="black" points="0.5,-20.5 0.5,-41.5 59.5,-41.5 59.5,-20.5 0.5,-20.5"/>
<text text-anchor="middle" x="30" y="-27.9" font-family="Helvetica,sans-Serif" font-size="12.00">toBinary</text>
</g>
<!-- Node2 -->
<g id="node2" class="node"><title>Node2</title>
<g id="a_node2"><a xlink:href="../../dc/d0a/class_j_s_o_n_base64.html#a566563ff3817aafca958b61fa6808c98" target="_top" xlink:title="JSONBase64::json_decode64">
<polygon fill="white" stroke="black" points="96,-20.5 96,-41.5 272,-41.5 272,-20.5 96,-20.5"/>
<text text-anchor="middle" x="184" y="-27.9" font-family="Helvetica,sans-Serif" font-size="12.00">JSONBase64::json_decode64</text>
</a>
</g>
</g>
<!-- Node1&#45;&gt;Node2 -->
<g id="edge1" class="edge"><title>Node1&#45;&gt;Node2</title>
<path fill="none" stroke="midnightblue" d="M69.7819,-31C77.8984,-31 86.7669,-31 95.8526,-31"/>
<polygon fill="midnightblue" stroke="midnightblue" points="69.5901,-27.5001 59.59,-31 69.59,-34.5001 69.5901,-27.5001"/>
</g>
<!-- Node3 -->
<g id="node3" class="node"><title>Node3</title>
<g id="a_node3"><a xlink:href="../../d6/dc7/class_j_s_o_n_node.html#aef64df34be4901e4bf7ef7d20146a8c5" target="_top" xlink:title="JSONNode::as_binary">
<polygon fill="white" stroke="black" points="308,-40.5 308,-61.5 442,-61.5 442,-40.5 308,-40.5"/>
<text text-anchor="middle" x="375" y="-47.9" font-family="Helvetica,sans-Serif" font-size="12.00">JSONNode::as_binary</text>
</a>
</g>
</g>
<!-- Node2&#45;&gt;Node3 -->
<g id="edge2" class="edge"><title>Node2&#45;&gt;Node3</title>
<path fill="none" stroke="midnightblue" d="M282.189,-41.2846C290.845,-42.2005 299.47,-43.1132 307.775,-43.992"/>
<polygon fill="midnightblue" stroke="midnightblue" points="282.345,-37.7816 272.032,-40.2097 281.608,-44.7427 282.345,-37.7816"/>
</g>
<!-- Node4 -->
<g id="node4" class="node"><title>Node4</title>
<g id="a_node4"><a xlink:href="../../d0/d9e/namespacelibjson.html#a299db1223a2bd5cc157edcebe8a25a68" target="_top" xlink:title="libjson::decode64">
<polygon fill="white" stroke="black" points="320.5,-0.5 320.5,-21.5 429.5,-21.5 429.5,-0.5 320.5,-0.5"/>
<text text-anchor="middle" x="375" y="-7.9" font-family="Helvetica,sans-Serif" font-size="12.00">libjson::decode64</text>
</a>
</g>
</g>
<!-- Node2&#45;&gt;Node4 -->
<g id="edge3" class="edge"><title>Node2&#45;&gt;Node4</title>
<path fill="none" stroke="midnightblue" d="M282.089,-20.726C295.246,-19.3338 308.335,-17.9487 320.337,-16.6786"/>
<polygon fill="midnightblue" stroke="midnightblue" points="281.608,-17.2573 272.032,-21.7903 282.345,-24.2184 281.608,-17.2573"/>
</g>
</g>
</svg>
