<?xml version="1.0" encoding="UTF-8" standalone="no"?>
<!DOCTYPE svg PUBLIC "-//W3C//DTD SVG 1.1//EN"
 "http://www.w3.org/Graphics/SVG/1.1/DTD/svg11.dtd">
<!-- Generated by graphviz version 2.34.0 (20130907.0111)
 -->
<!-- Title: Documentation/Operator&#45;Console/StaticBmp.h Pages: 1 -->
<svg width="455pt" height="188pt"
 viewBox="0.00 0.00 455.00 188.00" xmlns="http://www.w3.org/2000/svg" xmlns:xlink="http://www.w3.org/1999/xlink">
<g id="graph0" class="graph" transform="scale(1 1) rotate(0) translate(4 184)">
<title>Documentation/Operator&#45;Console/StaticBmp.h</title>
<polygon fill="white" stroke="white" points="-4,4 -4,-184 451,-184 451,4 -4,4"/>
<!-- Node1 -->
<g id="node1" class="node"><title>Node1</title>
<polygon fill="#bfbfbf" stroke="black" points="210.5,-145 210.5,-179 355.5,-179 355.5,-145 210.5,-145"/>
<text text-anchor="start" x="218.5" y="-165.4" font-family="Helvetica,sans-Serif" font-size="12.00">Documentation/Operator</text>
<text text-anchor="middle" x="283" y="-152.4" font-family="Helvetica,sans-Serif" font-size="12.00">&#45;Console/StaticBmp.h</text>
</g>
<!-- Node2 -->
<g id="node2" class="node"><title>Node2</title>
<g id="a_node2"><a xlink:href="../../d4/dde/_documentation_2_operator-_console_2_operator_console_dlg_8h.html" target="_top" xlink:title="Documentation/Operator\l&#45;Console/OperatorConsoleDlg.h">
<polygon fill="white" stroke="black" points="100,-73 100,-107 284,-107 284,-73 100,-73"/>
<text text-anchor="start" x="108" y="-93.4" font-family="Helvetica,sans-Serif" font-size="12.00">Documentation/Operator</text>
<text text-anchor="middle" x="192" y="-80.4" font-family="Helvetica,sans-Serif" font-size="12.00">&#45;Console/OperatorConsoleDlg.h</text>
</a>
</g>
</g>
<!-- Node1&#45;&gt;Node2 -->
<g id="edge1" class="edge"><title>Node1&#45;&gt;Node2</title>
<path fill="none" stroke="midnightblue" d="M253.935,-138.643C240.624,-128.403 225.145,-116.496 212.991,-107.147"/>
<polygon fill="midnightblue" stroke="midnightblue" points="251.834,-141.442 261.894,-144.765 256.102,-135.893 251.834,-141.442"/>
</g>
<!-- Node5 -->
<g id="node5" class="node"><title>Node5</title>
<g id="a_node5"><a xlink:href="../../da/db5/_documentation_2_operator-_console_2_static_bmp_8cpp.html" target="_top" xlink:title="Documentation/Operator\l&#45;Console/StaticBmp.cpp">
<polygon fill="white" stroke="black" points="302.5,-73 302.5,-107 447.5,-107 447.5,-73 302.5,-73"/>
<text text-anchor="start" x="310.5" y="-93.4" font-family="Helvetica,sans-Serif" font-size="12.00">Documentation/Operator</text>
<text text-anchor="middle" x="375" y="-80.4" font-family="Helvetica,sans-Serif" font-size="12.00">&#45;Console/StaticBmp.cpp</text>
</a>
</g>
</g>
<!-- Node1&#45;&gt;Node5 -->
<g id="edge4" class="edge"><title>Node1&#45;&gt;Node5</title>
<path fill="none" stroke="midnightblue" d="M312.384,-138.643C325.841,-128.403 341.491,-116.496 353.778,-107.147"/>
<polygon fill="midnightblue" stroke="midnightblue" points="310.177,-135.924 304.338,-144.765 314.416,-141.495 310.177,-135.924"/>
</g>
<!-- Node3 -->
<g id="node3" class="node"><title>Node3</title>
<g id="a_node3"><a xlink:href="../../db/db5/_documentation_2_operator-_console_2_operator_console_8cpp.html" target="_top" xlink:title="Documentation/Operator\l&#45;Console/OperatorConsole.cpp">
<polygon fill="white" stroke="black" points="-0.5,-1 -0.5,-35 178.5,-35 178.5,-1 -0.5,-1"/>
<text text-anchor="start" x="7.5" y="-21.4" font-family="Helvetica,sans-Serif" font-size="12.00">Documentation/Operator</text>
<text text-anchor="middle" x="89" y="-8.4" font-family="Helvetica,sans-Serif" font-size="12.00">&#45;Console/OperatorConsole.cpp</text>
</a>
</g>
</g>
<!-- Node2&#45;&gt;Node3 -->
<g id="edge2" class="edge"><title>Node2&#45;&gt;Node3</title>
<path fill="none" stroke="midnightblue" d="M159.785,-67.1066C144.61,-56.7935 126.824,-44.7058 112.877,-35.2271"/>
<polygon fill="midnightblue" stroke="midnightblue" points="158.132,-70.2144 168.37,-72.9406 162.066,-64.4249 158.132,-70.2144"/>
</g>
<!-- Node4 -->
<g id="node4" class="node"><title>Node4</title>
<g id="a_node4"><a xlink:href="../../dd/dcb/_documentation_2_operator-_console_2_operator_console_dlg_8cpp.html" target="_top" xlink:title="Documentation/Operator\l&#45;Console/OperatorConsoleDlg.cpp">
<polygon fill="white" stroke="black" points="196.5,-1 196.5,-35 393.5,-35 393.5,-1 196.5,-1"/>
<text text-anchor="start" x="204.5" y="-21.4" font-family="Helvetica,sans-Serif" font-size="12.00">Documentation/Operator</text>
<text text-anchor="middle" x="295" y="-8.4" font-family="Helvetica,sans-Serif" font-size="12.00">&#45;Console/OperatorConsoleDlg.cpp</text>
</a>
</g>
</g>
<!-- Node2&#45;&gt;Node4 -->
<g id="edge3" class="edge"><title>Node2&#45;&gt;Node4</title>
<path fill="none" stroke="midnightblue" d="M224.215,-67.1066C239.39,-56.7935 257.176,-44.7058 271.123,-35.2271"/>
<polygon fill="midnightblue" stroke="midnightblue" points="221.934,-64.4249 215.63,-72.9406 225.868,-70.2144 221.934,-64.4249"/>
</g>
</g>
</svg>
