<?xml version="1.0" encoding="UTF-8" standalone="no"?>
<!DOCTYPE svg PUBLIC "-//W3C//DTD SVG 1.1//EN"
 "http://www.w3.org/Graphics/SVG/1.1/DTD/svg11.dtd">
<!-- Generated by graphviz version 2.34.0 (20130907.0111)
 -->
<!-- Title: StdoutRedirect Pages: 1 -->
<svg width="205pt" height="146pt"
 viewBox="0.00 0.00 205.00 146.00" xmlns="http://www.w3.org/2000/svg" xmlns:xlink="http://www.w3.org/1999/xlink">
<g id="graph0" class="graph" transform="scale(1 1) rotate(0) translate(4 142)">
<title>StdoutRedirect</title>
<polygon fill="white" stroke="white" points="-4,4 -4,-142 201,-142 201,4 -4,4"/>
<!-- Node1 -->
<g id="node1" class="node"><title>Node1</title>
<polygon fill="#bfbfbf" stroke="black" points="52.5,-116.5 52.5,-137.5 147.5,-137.5 147.5,-116.5 52.5,-116.5"/>
<text text-anchor="middle" x="100" y="-123.9" font-family="Helvetica,sans-Serif" font-size="12.00">StdoutRedirect</text>
</g>
<!-- Node2 -->
<g id="node2" class="node"><title>Node2</title>
<g id="a_node2"><a xlink:href="../../da/de2/class_stderr_redirect.html" target="_top" xlink:title="Defines functions for redirecting stderr through a buffered pipe. ">
<polygon fill="white" stroke="black" points="-0.5,-58.5 -0.5,-79.5 92.5,-79.5 92.5,-58.5 -0.5,-58.5"/>
<text text-anchor="middle" x="46" y="-65.9" font-family="Helvetica,sans-Serif" font-size="12.00">StderrRedirect</text>
</a>
</g>
</g>
<!-- Node1&#45;&gt;Node2 -->
<g id="edge1" class="edge"><title>Node1&#45;&gt;Node2</title>
<path fill="none" stroke="midnightblue" d="M77.7252,-109.361C67.4465,-99.6727 56.3256,-87.7995 50.0532,-79.6427"/>
<polygon fill="midnightblue" stroke="midnightblue" points="75.5656,-112.127 85.3271,-116.246 80.2646,-106.938 75.5656,-112.127"/>
</g>
<!-- Node1&#45;&gt;Node2 -->
<g id="edge2" class="edge"><title>Node1&#45;&gt;Node2</title>
<path fill="none" stroke="midnightblue" d="M89.4345,-108.5C81.0886,-98.9775 69.7239,-87.5596 60.5434,-79.6427"/>
<polygon fill="midnightblue" stroke="midnightblue" points="86.7818,-110.785 95.8608,-116.246 92.1689,-106.315 86.7818,-110.785"/>
</g>
<!-- Node3 -->
<g id="node3" class="node"><title>Node3</title>
<g id="a_node3"><a xlink:href="../../d5/d67/class_stdout_thread.html" target="_top" xlink:title="Defines a thread class for capturing stdout. ">
<polygon fill="white" stroke="black" points="110.5,-58.5 110.5,-79.5 197.5,-79.5 197.5,-58.5 110.5,-58.5"/>
<text text-anchor="middle" x="154" y="-65.9" font-family="Helvetica,sans-Serif" font-size="12.00">StdoutThread</text>
</a>
</g>
</g>
<!-- Node1&#45;&gt;Node3 -->
<g id="edge3" class="edge"><title>Node1&#45;&gt;Node3</title>
<path fill="none" stroke="midnightblue" d="M110.566,-108.5C118.911,-98.9775 130.276,-87.5596 139.457,-79.6427"/>
<polygon fill="midnightblue" stroke="midnightblue" points="107.831,-106.315 104.139,-116.246 113.218,-110.785 107.831,-106.315"/>
</g>
<!-- Node1&#45;&gt;Node3 -->
<g id="edge6" class="edge"><title>Node1&#45;&gt;Node3</title>
<path fill="none" stroke="midnightblue" d="M122.275,-109.361C132.554,-99.6727 143.674,-87.7995 149.947,-79.6427"/>
<polygon fill="midnightblue" stroke="midnightblue" points="119.735,-106.938 114.673,-116.246 124.434,-112.127 119.735,-106.938"/>
</g>
<!-- Node4 -->
<g id="node4" class="node"><title>Node4</title>
<g id="a_node4"><a xlink:href="../../df/d44/class_stderr_thread.html" target="_top" xlink:title="Defines a thread class for capturing stderr. ">
<polygon fill="white" stroke="black" points="111,-0.5 111,-21.5 197,-21.5 197,-0.5 111,-0.5"/>
<text text-anchor="middle" x="154" y="-7.9" font-family="Helvetica,sans-Serif" font-size="12.00">StderrThread</text>
</a>
</g>
</g>
<!-- Node3&#45;&gt;Node4 -->
<g id="edge4" class="edge"><title>Node3&#45;&gt;Node4</title>
<path fill="none" stroke="midnightblue" d="M147.511,-48.1575C146.919,-39.155 147.334,-28.9199 148.755,-21.6427"/>
<polygon fill="midnightblue" stroke="midnightblue" points="144.056,-48.739 148.733,-58.2455 151.005,-47.8972 144.056,-48.739"/>
</g>
<!-- Node3&#45;&gt;Node4 -->
<g id="edge5" class="edge"><title>Node3&#45;&gt;Node4</title>
<path fill="none" stroke="midnightblue" d="M160.489,-48.1575C161.081,-39.155 160.666,-28.9199 159.245,-21.6427"/>
<polygon fill="midnightblue" stroke="midnightblue" points="156.995,-47.8972 159.267,-58.2455 163.944,-48.739 156.995,-47.8972"/>
</g>
</g>
</svg>
