<?xml version="1.0" encoding="UTF-8" standalone="no"?>
<!DOCTYPE svg PUBLIC "-//W3C//DTD SVG 1.1//EN"
 "http://www.w3.org/Graphics/SVG/1.1/DTD/svg11.dtd">
<!-- Generated by graphviz version 2.34.0 (20130907.0111)
 -->
<!-- Title: Documentation/Operator&#45;Console/JSON/NumberToString.h Pages: 1 -->
<svg width="228pt" height="116pt"
 viewBox="0.00 0.00 228.00 116.00" xmlns="http://www.w3.org/2000/svg" xmlns:xlink="http://www.w3.org/1999/xlink">
<g id="graph0" class="graph" transform="scale(1 1) rotate(0) translate(4 112)">
<title>Documentation/Operator&#45;Console/JSON/NumberToString.h</title>
<polygon fill="white" stroke="white" points="-4,4 -4,-112 224,-112 224,4 -4,4"/>
<!-- Node1 -->
<g id="node1" class="node"><title>Node1</title>
<polygon fill="#bfbfbf" stroke="black" points="12,-73 12,-107 208,-107 208,-73 12,-73"/>
<text text-anchor="start" x="20" y="-93.4" font-family="Helvetica,sans-Serif" font-size="12.00">Documentation/Operator</text>
<text text-anchor="middle" x="110" y="-80.4" font-family="Helvetica,sans-Serif" font-size="12.00">&#45;Console/JSON/NumberToString.h</text>
</g>
<!-- Node2 -->
<g id="node2" class="node"><title>Node2</title>
<g id="a_node2"><a xlink:href="../../d7/d97/_documentation_2_operator-_console_2_j_s_o_n_2internal_j_s_o_n_node_8cpp.html" target="_top" xlink:title="Documentation/Operator\l&#45;Console/JSON/internalJSONNode.cpp">
<polygon fill="white" stroke="black" points="-0.5,-1 -0.5,-35 220.5,-35 220.5,-1 -0.5,-1"/>
<text text-anchor="start" x="7.5" y="-21.4" font-family="Helvetica,sans-Serif" font-size="12.00">Documentation/Operator</text>
<text text-anchor="middle" x="110" y="-8.4" font-family="Helvetica,sans-Serif" font-size="12.00">&#45;Console/JSON/internalJSONNode.cpp</text>
</a>
</g>
</g>
<!-- Node1&#45;&gt;Node2 -->
<g id="edge1" class="edge"><title>Node1&#45;&gt;Node2</title>
<path fill="none" stroke="midnightblue" d="M110,-62.5079C110,-53.3027 110,-43.2615 110,-35.1473"/>
<polygon fill="midnightblue" stroke="midnightblue" points="106.5,-62.7646 110,-72.7646 113.5,-62.7647 106.5,-62.7646"/>
</g>
</g>
</svg>
