<?xml version="1.0" encoding="UTF-8" standalone="no"?>
<!DOCTYPE svg PUBLIC "-//W3C//DTD SVG 1.1//EN"
 "http://www.w3.org/Graphics/SVG/1.1/DTD/svg11.dtd">
<!-- Generated by graphviz version 2.34.0 (20130907.0111)
 -->
<!-- Title: Resize Pages: 1 -->
<svg width="374pt" height="110pt"
 viewBox="0.00 0.00 374.00 110.00" xmlns="http://www.w3.org/2000/svg" xmlns:xlink="http://www.w3.org/1999/xlink">
<g id="graph0" class="graph" transform="scale(1 1) rotate(0) translate(4 106)">
<title>Resize</title>
<polygon fill="white" stroke="white" points="-4,4 -4,-106 370,-106 370,4 -4,4"/>
<!-- Node1 -->
<g id="node1" class="node"><title>Node1</title>
<polygon fill="#bfbfbf" stroke="black" points="0.5,-40.5 0.5,-61.5 53.5,-61.5 53.5,-40.5 0.5,-40.5"/>
<text text-anchor="middle" x="27" y="-47.9" font-family="Helvetica,sans-Serif" font-size="12.00">Resize</text>
</g>
<!-- Node2 -->
<g id="node2" class="node"><title>Node2</title>
<g id="a_node2"><a xlink:href="../../db/daf/foo_8cpp.html#ad4ec5fe53df1969abab35d2b991c294d" target="_top" xlink:title="GetImageWindowDelta">
<polygon fill="white" stroke="black" points="90.5,-80.5 90.5,-101.5 227.5,-101.5 227.5,-80.5 90.5,-80.5"/>
<text text-anchor="middle" x="159" y="-87.9" font-family="Helvetica,sans-Serif" font-size="12.00">GetImageWindowDelta</text>
</a>
</g>
</g>
<!-- Node1&#45;&gt;Node2 -->
<g id="edge1" class="edge"><title>Node1&#45;&gt;Node2</title>
<path fill="none" stroke="midnightblue" d="M53.593,-59.4208C64.7534,-63.0501 78.003,-67.3014 90,-71 97.0336,-73.1684 104.493,-75.4153 111.794,-77.5857"/>
<polygon fill="midnightblue" stroke="midnightblue" points="111.017,-81.0055 121.599,-80.4833 113.001,-74.2925 111.017,-81.0055"/>
</g>
<!-- Node3 -->
<g id="node3" class="node"><title>Node3</title>
<g id="a_node3"><a xlink:href="../../db/daf/foo_8cpp.html#a034a7f5e17252d886a01e8f3b4f83da4" target="_top" xlink:title="OffsetChildPos">
<polygon fill="white" stroke="black" points="111.5,-40.5 111.5,-61.5 206.5,-61.5 206.5,-40.5 111.5,-40.5"/>
<text text-anchor="middle" x="159" y="-47.9" font-family="Helvetica,sans-Serif" font-size="12.00">OffsetChildPos</text>
</a>
</g>
</g>
<!-- Node1&#45;&gt;Node3 -->
<g id="edge2" class="edge"><title>Node1&#45;&gt;Node3</title>
<path fill="none" stroke="midnightblue" d="M53.6838,-51C67.2875,-51 84.5715,-51 101.139,-51"/>
<polygon fill="midnightblue" stroke="midnightblue" points="101.322,-54.5001 111.322,-51 101.322,-47.5001 101.322,-54.5001"/>
</g>
<!-- Node4 -->
<g id="node4" class="node"><title>Node4</title>
<g id="a_node4"><a xlink:href="../../db/daf/foo_8cpp.html#ab7187d17e6e6b1829a274e2a73cb3a12" target="_top" xlink:title="OffsetWindowSize">
<polygon fill="white" stroke="black" points="102.5,-0.5 102.5,-21.5 215.5,-21.5 215.5,-0.5 102.5,-0.5"/>
<text text-anchor="middle" x="159" y="-7.9" font-family="Helvetica,sans-Serif" font-size="12.00">OffsetWindowSize</text>
</a>
</g>
</g>
<!-- Node1&#45;&gt;Node4 -->
<g id="edge3" class="edge"><title>Node1&#45;&gt;Node4</title>
<path fill="none" stroke="midnightblue" d="M53.593,-42.5792C64.7534,-38.9499 78.003,-34.6986 90,-31 97.0336,-28.8316 104.493,-26.5847 111.794,-24.4143"/>
<polygon fill="midnightblue" stroke="midnightblue" points="113.001,-27.7075 121.599,-21.5167 111.017,-20.9945 113.001,-27.7075"/>
</g>
<!-- Node5 -->
<g id="node5" class="node"><title>Node5</title>
<g id="a_node5"><a xlink:href="../../db/daf/foo_8cpp.html#a66c26e1db0c3367b9d07858a12820394" target="_top" xlink:title="GetWindowSize">
<polygon fill="white" stroke="black" points="264.5,-0.5 264.5,-21.5 365.5,-21.5 365.5,-0.5 264.5,-0.5"/>
<text text-anchor="middle" x="315" y="-7.9" font-family="Helvetica,sans-Serif" font-size="12.00">GetWindowSize</text>
</a>
</g>
</g>
<!-- Node4&#45;&gt;Node5 -->
<g id="edge4" class="edge"><title>Node4&#45;&gt;Node5</title>
<path fill="none" stroke="midnightblue" d="M215.598,-11C228.174,-11 241.578,-11 254.316,-11"/>
<polygon fill="midnightblue" stroke="midnightblue" points="254.359,-14.5001 264.359,-11 254.359,-7.5001 254.359,-14.5001"/>
</g>
</g>
</svg>
