<?xml version="1.0" encoding="UTF-8" standalone="no"?>
<!DOCTYPE svg PUBLIC "-//W3C//DTD SVG 1.1//EN"
 "http://www.w3.org/Graphics/SVG/1.1/DTD/svg11.dtd">
<!-- Generated by graphviz version 2.34.0 (20130907.0111)
 -->
<!-- Title: GetWindowSize Pages: 1 -->
<svg width="374pt" height="70pt"
 viewBox="0.00 0.00 374.00 70.00" xmlns="http://www.w3.org/2000/svg" xmlns:xlink="http://www.w3.org/1999/xlink">
<g id="graph0" class="graph" transform="scale(1 1) rotate(0) translate(4 66)">
<title>GetWindowSize</title>
<polygon fill="white" stroke="white" points="-4,4 -4,-66 370,-66 370,4 -4,4"/>
<!-- Node1 -->
<g id="node1" class="node"><title>Node1</title>
<polygon fill="#bfbfbf" stroke="black" points="0.5,-20.5 0.5,-41.5 101.5,-41.5 101.5,-20.5 0.5,-20.5"/>
<text text-anchor="middle" x="51" y="-27.9" font-family="Helvetica,sans-Serif" font-size="12.00">GetWindowSize</text>
</g>
<!-- Node2 -->
<g id="node2" class="node"><title>Node2</title>
<g id="a_node2"><a xlink:href="../../db/daf/foo_8cpp.html#a1978d39d55672650509d3d1863821afd" target="_top" xlink:title="GetImageWindowDelta">
<polygon fill="white" stroke="black" points="138.5,-40.5 138.5,-61.5 275.5,-61.5 275.5,-40.5 138.5,-40.5"/>
<text text-anchor="middle" x="207" y="-47.9" font-family="Helvetica,sans-Serif" font-size="12.00">GetImageWindowDelta</text>
</a>
</g>
</g>
<!-- Node1&#45;&gt;Node2 -->
<g id="edge1" class="edge"><title>Node1&#45;&gt;Node2</title>
<path fill="none" stroke="midnightblue" d="M111.643,-38.7458C120.367,-39.8789 129.405,-41.0526 138.277,-42.2047"/>
<polygon fill="midnightblue" stroke="midnightblue" points="111.942,-35.2553 101.574,-37.4382 111.04,-42.197 111.942,-35.2553"/>
</g>
<!-- Node3 -->
<g id="node3" class="node"><title>Node3</title>
<g id="a_node3"><a xlink:href="../../db/daf/foo_8cpp.html#ab7187d17e6e6b1829a274e2a73cb3a12" target="_top" xlink:title="OffsetWindowSize">
<polygon fill="white" stroke="black" points="150.5,-0.5 150.5,-21.5 263.5,-21.5 263.5,-0.5 150.5,-0.5"/>
<text text-anchor="middle" x="207" y="-7.9" font-family="Helvetica,sans-Serif" font-size="12.00">OffsetWindowSize</text>
</a>
</g>
</g>
<!-- Node1&#45;&gt;Node3 -->
<g id="edge2" class="edge"><title>Node1&#45;&gt;Node3</title>
<path fill="none" stroke="midnightblue" d="M111.624,-23.2567C124.369,-21.6014 137.785,-19.859 150.374,-18.2242"/>
<polygon fill="midnightblue" stroke="midnightblue" points="111.04,-19.803 101.574,-24.5618 111.942,-26.7447 111.04,-19.803"/>
</g>
<!-- Node4 -->
<g id="node4" class="node"><title>Node4</title>
<g id="a_node4"><a xlink:href="../../db/daf/foo_8cpp.html#ae6aee89d81dddff07f1154e4e18afa3c" target="_top" xlink:title="Resize">
<polygon fill="white" stroke="black" points="312.5,-0.5 312.5,-21.5 365.5,-21.5 365.5,-0.5 312.5,-0.5"/>
<text text-anchor="middle" x="339" y="-7.9" font-family="Helvetica,sans-Serif" font-size="12.00">Resize</text>
</a>
</g>
</g>
<!-- Node3&#45;&gt;Node4 -->
<g id="edge3" class="edge"><title>Node3&#45;&gt;Node4</title>
<path fill="none" stroke="midnightblue" d="M273.522,-11C287.314,-11 301.074,-11 312.32,-11"/>
<polygon fill="midnightblue" stroke="midnightblue" points="273.509,-7.5001 263.509,-11 273.509,-14.5001 273.509,-7.5001"/>
</g>
</g>
</svg>
