<?xml version="1.0" encoding="UTF-8" standalone="no"?>
<!DOCTYPE svg PUBLIC "-//W3C//DTD SVG 1.1//EN"
 "http://www.w3.org/Graphics/SVG/1.1/DTD/svg11.dtd">
<!-- Generated by graphviz version 2.34.0 (20130907.0111)
 -->
<!-- Title: Documentation/Operator&#45;Console/stdafx.h Pages: 1 -->
<svg width="600pt" height="160pt"
 viewBox="0.00 0.00 600.00 160.00" xmlns="http://www.w3.org/2000/svg" xmlns:xlink="http://www.w3.org/1999/xlink">
<g id="graph0" class="graph" transform="scale(1 1) rotate(0) translate(4 156)">
<title>Documentation/Operator&#45;Console/stdafx.h</title>
<polygon fill="white" stroke="white" points="-4,4 -4,-156 596,-156 596,4 -4,4"/>
<!-- Node1 -->
<g id="node1" class="node"><title>Node1</title>
<polygon fill="#bfbfbf" stroke="black" points="211.5,-117 211.5,-151 356.5,-151 356.5,-117 211.5,-117"/>
<text text-anchor="start" x="219.5" y="-137.4" font-family="Helvetica,sans-Serif" font-size="12.00">Documentation/Operator</text>
<text text-anchor="middle" x="284" y="-124.4" font-family="Helvetica,sans-Serif" font-size="12.00">&#45;Console/stdafx.h</text>
</g>
<!-- Node2 -->
<g id="node2" class="node"><title>Node2</title>
<g id="a_node2"><a xlink:href="../../da/d3f/_documentation_2_operator-_console_2targetver_8h.html" target="_top" xlink:title="targetver.h">
<polygon fill="white" stroke="black" points="12.5,-58.5 12.5,-79.5 83.5,-79.5 83.5,-58.5 12.5,-58.5"/>
<text text-anchor="middle" x="48" y="-65.9" font-family="Helvetica,sans-Serif" font-size="12.00">targetver.h</text>
</a>
</g>
</g>
<!-- Node1&#45;&gt;Node2 -->
<g id="edge1" class="edge"><title>Node1&#45;&gt;Node2</title>
<path fill="none" stroke="midnightblue" d="M223.837,-116.939C183.392,-106.143 130.905,-92.1313 93.8382,-82.2365"/>
<polygon fill="midnightblue" stroke="midnightblue" points="94.3797,-78.7585 83.8153,-79.5609 92.5742,-85.5217 94.3797,-78.7585"/>
</g>
<!-- Node4 -->
<g id="node4" class="node"><title>Node4</title>
<polygon fill="white" stroke="#bfbfbf" points="102,-58.5 102,-79.5 160,-79.5 160,-58.5 102,-58.5"/>
<text text-anchor="middle" x="131" y="-65.9" font-family="Helvetica,sans-Serif" font-size="12.00">afxwin.h</text>
</g>
<!-- Node1&#45;&gt;Node4 -->
<g id="edge3" class="edge"><title>Node1&#45;&gt;Node4</title>
<path fill="none" stroke="midnightblue" d="M244.996,-116.939C219.784,-106.558 187.354,-93.2044 163.533,-83.396"/>
<polygon fill="midnightblue" stroke="midnightblue" points="164.799,-80.132 154.219,-79.5609 162.133,-86.6048 164.799,-80.132"/>
</g>
<!-- Node5 -->
<g id="node5" class="node"><title>Node5</title>
<polygon fill="white" stroke="#bfbfbf" points="178,-58.5 178,-79.5 234,-79.5 234,-58.5 178,-58.5"/>
<text text-anchor="middle" x="206" y="-65.9" font-family="Helvetica,sans-Serif" font-size="12.00">afxext.h</text>
</g>
<!-- Node1&#45;&gt;Node5 -->
<g id="edge4" class="edge"><title>Node1&#45;&gt;Node5</title>
<path fill="none" stroke="midnightblue" d="M263.913,-116.776C252.145,-107.271 237.345,-95.3168 225.652,-85.8728"/>
<polygon fill="midnightblue" stroke="midnightblue" points="227.754,-83.0712 217.775,-79.5106 223.355,-88.5168 227.754,-83.0712"/>
</g>
<!-- Node6 -->
<g id="node6" class="node"><title>Node6</title>
<polygon fill="white" stroke="#bfbfbf" points="252.5,-58.5 252.5,-79.5 315.5,-79.5 315.5,-58.5 252.5,-58.5"/>
<text text-anchor="middle" x="284" y="-65.9" font-family="Helvetica,sans-Serif" font-size="12.00">afxdisp.h</text>
</g>
<!-- Node1&#45;&gt;Node6 -->
<g id="edge5" class="edge"><title>Node1&#45;&gt;Node6</title>
<path fill="none" stroke="midnightblue" d="M284,-116.776C284,-108.47 284,-98.2953 284,-89.5587"/>
<polygon fill="midnightblue" stroke="midnightblue" points="287.5,-89.5106 284,-79.5106 280.5,-89.5107 287.5,-89.5106"/>
</g>
<!-- Node7 -->
<g id="node7" class="node"><title>Node7</title>
<polygon fill="white" stroke="#bfbfbf" points="334,-58.5 334,-79.5 396,-79.5 396,-58.5 334,-58.5"/>
<text text-anchor="middle" x="365" y="-65.9" font-family="Helvetica,sans-Serif" font-size="12.00">afxdtctl.h</text>
</g>
<!-- Node1&#45;&gt;Node7 -->
<g id="edge6" class="edge"><title>Node1&#45;&gt;Node7</title>
<path fill="none" stroke="midnightblue" d="M304.86,-116.776C317.081,-107.271 332.45,-95.3168 344.592,-85.8728"/>
<polygon fill="midnightblue" stroke="midnightblue" points="347.027,-88.4128 352.772,-79.5106 342.73,-82.8873 347.027,-88.4128"/>
</g>
<!-- Node8 -->
<g id="node8" class="node"><title>Node8</title>
<polygon fill="white" stroke="#bfbfbf" points="414,-58.5 414,-79.5 476,-79.5 476,-58.5 414,-58.5"/>
<text text-anchor="middle" x="445" y="-65.9" font-family="Helvetica,sans-Serif" font-size="12.00">afxcmn.h</text>
</g>
<!-- Node1&#45;&gt;Node8 -->
<g id="edge7" class="edge"><title>Node1&#45;&gt;Node8</title>
<path fill="none" stroke="midnightblue" d="M325.044,-116.939C351.692,-106.512 386.003,-93.0856 411.099,-83.2655"/>
<polygon fill="midnightblue" stroke="midnightblue" points="412.53,-86.4643 420.567,-79.5609 409.979,-79.9456 412.53,-86.4643"/>
</g>
<!-- Node9 -->
<g id="node9" class="node"><title>Node9</title>
<polygon fill="white" stroke="#bfbfbf" points="494,-58.5 494,-79.5 592,-79.5 592,-58.5 494,-58.5"/>
<text text-anchor="middle" x="543" y="-65.9" font-family="Helvetica,sans-Serif" font-size="12.00">afxcontrolbars.h</text>
</g>
<!-- Node1&#45;&gt;Node9 -->
<g id="edge8" class="edge"><title>Node1&#45;&gt;Node9</title>
<path fill="none" stroke="midnightblue" d="M350.027,-116.939C394.792,-106.051 453.001,-91.8916 493.734,-81.9837"/>
<polygon fill="midnightblue" stroke="midnightblue" points="494.805,-85.3253 503.694,-79.5609 493.15,-78.5236 494.805,-85.3253"/>
</g>
<!-- Node3 -->
<g id="node3" class="node"><title>Node3</title>
<polygon fill="white" stroke="#bfbfbf" points="0,-0.5 0,-21.5 96,-21.5 96,-0.5 0,-0.5"/>
<text text-anchor="middle" x="48" y="-7.9" font-family="Helvetica,sans-Serif" font-size="12.00">SDKDDKVer.h</text>
</g>
<!-- Node2&#45;&gt;Node3 -->
<g id="edge2" class="edge"><title>Node2&#45;&gt;Node3</title>
<path fill="none" stroke="midnightblue" d="M48,-58.2455C48,-50.9382 48,-40.6944 48,-31.7046"/>
<polygon fill="midnightblue" stroke="midnightblue" points="51.5001,-31.6426 48,-21.6427 44.5001,-31.6427 51.5001,-31.6426"/>
</g>
</g>
</svg>
