<?xml version="1.0" encoding="UTF-8" standalone="no"?>
<!DOCTYPE svg PUBLIC "-//W3C//DTD SVG 1.1//EN"
 "http://www.w3.org/Graphics/SVG/1.1/DTD/svg11.dtd">
<!-- Generated by graphviz version 2.34.0 (20130907.0111)
 -->
<!-- Title: JSONNode::write Pages: 1 -->
<svg width="486pt" height="70pt"
 viewBox="0.00 0.00 486.00 70.00" xmlns="http://www.w3.org/2000/svg" xmlns:xlink="http://www.w3.org/1999/xlink">
<g id="graph0" class="graph" transform="scale(1 1) rotate(0) translate(4 66)">
<title>JSONNode::write</title>
<polygon fill="white" stroke="white" points="-4,4 -4,-66 482,-66 482,4 -4,4"/>
<!-- Node1 -->
<g id="node1" class="node"><title>Node1</title>
<polygon fill="#bfbfbf" stroke="black" points="0.5,-20.5 0.5,-41.5 107.5,-41.5 107.5,-20.5 0.5,-20.5"/>
<text text-anchor="middle" x="54" y="-27.9" font-family="Helvetica,sans-Serif" font-size="12.00">JSONNode::write</text>
</g>
<!-- Node2 -->
<g id="node2" class="node"><title>Node2</title>
<g id="a_node2"><a xlink:href="../../d1/d0b/classinternal_j_s_o_n_node.html#a924514c9b1dbec1f779d8294371c0033" target="_top" xlink:title="internalJSONNode::type">
<polygon fill="white" stroke="black" points="147,-40.5 147,-61.5 289,-61.5 289,-40.5 147,-40.5"/>
<text text-anchor="middle" x="218" y="-47.9" font-family="Helvetica,sans-Serif" font-size="12.00">internalJSONNode::type</text>
</a>
</g>
</g>
<!-- Node1&#45;&gt;Node2 -->
<g id="edge1" class="edge"><title>Node1&#45;&gt;Node2</title>
<path fill="none" stroke="midnightblue" d="M107.597,-37.4934C117.02,-38.6568 127.031,-39.8928 137.021,-41.1261"/>
<polygon fill="midnightblue" stroke="midnightblue" points="136.629,-44.6041 146.982,-42.3558 137.486,-37.6569 136.629,-44.6041"/>
</g>
<!-- Node3 -->
<g id="node3" class="node"><title>Node3</title>
<g id="a_node3"><a xlink:href="../../d1/d0b/classinternal_j_s_o_n_node.html#a55bfed9408d7ce2b07097b3e1faa54b6" target="_top" xlink:title="internalJSONNode::Write">
<polygon fill="white" stroke="black" points="144,-0.5 144,-21.5 292,-21.5 292,-0.5 144,-0.5"/>
<text text-anchor="middle" x="218" y="-7.9" font-family="Helvetica,sans-Serif" font-size="12.00">internalJSONNode::Write</text>
</a>
</g>
</g>
<!-- Node1&#45;&gt;Node3 -->
<g id="edge2" class="edge"><title>Node1&#45;&gt;Node3</title>
<path fill="none" stroke="midnightblue" d="M107.597,-24.5066C115.988,-23.4707 124.844,-22.3773 133.737,-21.2794"/>
<polygon fill="midnightblue" stroke="midnightblue" points="134.274,-24.7398 143.769,-20.0408 133.416,-17.7925 134.274,-24.7398"/>
</g>
<!-- Node4 -->
<g id="node4" class="node"><title>Node4</title>
<g id="a_node4"><a xlink:href="../../d7/d6f/class_j_s_o_n_worker.html#aa7703e99bb89e65aac3c61222c311c88" target="_top" xlink:title="JSONWorker::UnfixString">
<polygon fill="white" stroke="black" points="328.5,-0.5 328.5,-21.5 477.5,-21.5 477.5,-0.5 328.5,-0.5"/>
<text text-anchor="middle" x="403" y="-7.9" font-family="Helvetica,sans-Serif" font-size="12.00">JSONWorker::UnfixString</text>
</a>
</g>
</g>
<!-- Node3&#45;&gt;Node4 -->
<g id="edge3" class="edge"><title>Node3&#45;&gt;Node4</title>
<path fill="none" stroke="midnightblue" d="M292.115,-11C300.702,-11 309.514,-11 318.232,-11"/>
<polygon fill="midnightblue" stroke="midnightblue" points="318.403,-14.5001 328.403,-11 318.403,-7.5001 318.403,-14.5001"/>
</g>
</g>
</svg>
