<?xml version="1.0" encoding="UTF-8" standalone="no"?>
<!DOCTYPE svg PUBLIC "-//W3C//DTD SVG 1.1//EN"
 "http://www.w3.org/Graphics/SVG/1.1/DTD/svg11.dtd">
<!-- Generated by graphviz version 2.34.0 (20130907.0111)
 -->
<!-- Title: JSONNode::rbegin Pages: 1 -->
<svg width="1352pt" height="134pt"
 viewBox="0.00 0.00 1352.00 134.00" xmlns="http://www.w3.org/2000/svg" xmlns:xlink="http://www.w3.org/1999/xlink">
<g id="graph0" class="graph" transform="scale(1 1) rotate(0) translate(4 130)">
<title>JSONNode::rbegin</title>
<polygon fill="white" stroke="white" points="-4,4 -4,-130 1348,-130 1348,4 -4,4"/>
<!-- Node1 -->
<g id="node1" class="node"><title>Node1</title>
<polygon fill="#bfbfbf" stroke="black" points="0,-65.5 0,-86.5 116,-86.5 116,-65.5 0,-65.5"/>
<text text-anchor="middle" x="58" y="-72.9" font-family="Helvetica,sans-Serif" font-size="12.00">JSONNode::rbegin</text>
</g>
<!-- Node2 -->
<g id="node2" class="node"><title>Node2</title>
<g id="a_node2"><a xlink:href="../../d6/dc7/class_j_s_o_n_node.html#a2a5f8dc6c2b02508e70084a97436611f" target="_top" xlink:title="JSONNode::end">
<polygon fill="white" stroke="black" points="194,-104.5 194,-125.5 296,-125.5 296,-104.5 194,-104.5"/>
<text text-anchor="middle" x="245" y="-111.9" font-family="Helvetica,sans-Serif" font-size="12.00">JSONNode::end</text>
</a>
</g>
</g>
<!-- Node1&#45;&gt;Node2 -->
<g id="edge1" class="edge"><title>Node1&#45;&gt;Node2</title>
<path fill="none" stroke="midnightblue" d="M109.064,-86.554C132.2,-91.4314 159.859,-97.2621 184.095,-102.371"/>
<polygon fill="midnightblue" stroke="midnightblue" points="183.389,-105.799 193.896,-104.438 184.833,-98.95 183.389,-105.799"/>
</g>
<!-- Node3 -->
<g id="node3" class="node"><title>Node3</title>
<g id="a_node3"><a xlink:href="../../d6/dc7/class_j_s_o_n_node.html#a8edf73e69435ea34f5ffde8c9ccad7c6" target="_top" xlink:title="JSONNode::type">
<polygon fill="white" stroke="black" points="415,-85.5 415,-106.5 519,-106.5 519,-85.5 415,-85.5"/>
<text text-anchor="middle" x="467" y="-92.9" font-family="Helvetica,sans-Serif" font-size="12.00">JSONNode::type</text>
</a>
</g>
</g>
<!-- Node1&#45;&gt;Node3 -->
<g id="edge10" class="edge"><title>Node1&#45;&gt;Node3</title>
<path fill="none" stroke="midnightblue" d="M116.02,-78.802C192.127,-82.5419 326.383,-89.1392 404.633,-92.9844"/>
<polygon fill="midnightblue" stroke="midnightblue" points="404.664,-96.4901 414.824,-93.4852 405.008,-89.4985 404.664,-96.4901"/>
</g>
<!-- Node4 -->
<g id="node4" class="node"><title>Node4</title>
<g id="a_node4"><a xlink:href="../../d6/dc7/class_j_s_o_n_node.html#a40fb037e147141fa07f90fe419e3a7a2" target="_top" xlink:title="JSONNode::makeUniqueInternal">
<polygon fill="white" stroke="black" points="152.5,-26.5 152.5,-47.5 337.5,-47.5 337.5,-26.5 152.5,-26.5"/>
<text text-anchor="middle" x="245" y="-33.9" font-family="Helvetica,sans-Serif" font-size="12.00">JSONNode::makeUniqueInternal</text>
</a>
</g>
</g>
<!-- Node1&#45;&gt;Node4 -->
<g id="edge3" class="edge"><title>Node1&#45;&gt;Node4</title>
<path fill="none" stroke="midnightblue" d="M109.064,-65.446C132.2,-60.5686 159.859,-54.7379 184.095,-49.6287"/>
<polygon fill="midnightblue" stroke="midnightblue" points="184.833,-53.05 193.896,-47.5624 183.389,-46.2005 184.833,-53.05"/>
</g>
<!-- Node2&#45;&gt;Node3 -->
<g id="edge2" class="edge"><title>Node2&#45;&gt;Node3</title>
<path fill="none" stroke="midnightblue" d="M296.197,-110.665C328.377,-107.886 370.367,-104.259 404.54,-101.308"/>
<polygon fill="midnightblue" stroke="midnightblue" points="405.213,-104.763 414.875,-100.415 404.611,-97.7888 405.213,-104.763"/>
</g>
<!-- Node5 -->
<g id="node5" class="node"><title>Node5</title>
<g id="a_node5"><a xlink:href="../../d1/d0b/classinternal_j_s_o_n_node.html#a72b82897da17766d09a3e4ea4a743cf1" target="_top" xlink:title="internalJSONNode::makeUnique">
<polygon fill="white" stroke="black" points="374,-26.5 374,-47.5 560,-47.5 560,-26.5 374,-26.5"/>
<text text-anchor="middle" x="467" y="-33.9" font-family="Helvetica,sans-Serif" font-size="12.00">internalJSONNode::makeUnique</text>
</a>
</g>
</g>
<!-- Node4&#45;&gt;Node5 -->
<g id="edge4" class="edge"><title>Node4&#45;&gt;Node5</title>
<path fill="none" stroke="midnightblue" d="M337.707,-37C346.266,-37 354.977,-37 363.624,-37"/>
<polygon fill="midnightblue" stroke="midnightblue" points="363.734,-40.5001 373.734,-37 363.734,-33.5001 363.734,-40.5001"/>
</g>
<!-- Node6 -->
<g id="node6" class="node"><title>Node6</title>
<g id="a_node6"><a xlink:href="../../d1/d0b/classinternal_j_s_o_n_node.html#a1d79eee0bbd754c13edac1498e3a7a3d" target="_top" xlink:title="internalJSONNode::decRef">
<polygon fill="white" stroke="black" points="606,-46.5 606,-67.5 764,-67.5 764,-46.5 606,-46.5"/>
<text text-anchor="middle" x="685" y="-53.9" font-family="Helvetica,sans-Serif" font-size="12.00">internalJSONNode::decRef</text>
</a>
</g>
</g>
<!-- Node5&#45;&gt;Node6 -->
<g id="edge5" class="edge"><title>Node5&#45;&gt;Node6</title>
<path fill="none" stroke="midnightblue" d="M560.23,-45.5398C571.936,-46.6237 583.896,-47.7311 595.541,-48.8094"/>
<polygon fill="midnightblue" stroke="midnightblue" points="595.4,-52.3112 605.68,-49.7482 596.046,-45.341 595.4,-52.3112"/>
</g>
<!-- Node7 -->
<g id="node7" class="node"><title>Node7</title>
<g id="a_node7"><a xlink:href="../../d1/d0b/classinternal_j_s_o_n_node.html#a5656ff403a9a79fce1812aacee620fdd" target="_top" xlink:title="internalJSONNode::newInternal">
<polygon fill="white" stroke="black" points="596,-6.5 596,-27.5 774,-27.5 774,-6.5 596,-6.5"/>
<text text-anchor="middle" x="685" y="-13.9" font-family="Helvetica,sans-Serif" font-size="12.00">internalJSONNode::newInternal</text>
</a>
</g>
</g>
<!-- Node5&#45;&gt;Node7 -->
<g id="edge6" class="edge"><title>Node5&#45;&gt;Node7</title>
<path fill="none" stroke="midnightblue" d="M560.23,-28.4602C568.719,-27.6742 577.34,-26.8759 585.879,-26.0853"/>
<polygon fill="midnightblue" stroke="midnightblue" points="586.217,-29.5691 595.851,-25.1619 585.571,-22.5989 586.217,-29.5691"/>
</g>
<!-- Node8 -->
<g id="node8" class="node"><title>Node8</title>
<g id="a_node8"><a xlink:href="../../d1/d0b/classinternal_j_s_o_n_node.html#afb952c1e0ebf1928ecccd9a205baa0db" target="_top" xlink:title="internalJSONNode::internal\lJSONNode">
<polygon fill="white" stroke="black" points="810,-0 810,-34 968,-34 968,-0 810,-0"/>
<text text-anchor="start" x="818" y="-20.4" font-family="Helvetica,sans-Serif" font-size="12.00">internalJSONNode::internal</text>
<text text-anchor="middle" x="889" y="-7.4" font-family="Helvetica,sans-Serif" font-size="12.00">JSONNode</text>
</a>
</g>
</g>
<!-- Node7&#45;&gt;Node8 -->
<g id="edge7" class="edge"><title>Node7&#45;&gt;Node8</title>
<path fill="none" stroke="midnightblue" d="M774.013,-17C782.478,-17 791.067,-17 799.537,-17"/>
<polygon fill="midnightblue" stroke="midnightblue" points="799.793,-20.5001 809.793,-17 799.793,-13.5001 799.793,-20.5001"/>
</g>
<!-- Node9 -->
<g id="node9" class="node"><title>Node9</title>
<g id="a_node9"><a xlink:href="../../db/d49/classjson_children.html#ac71d832f3f81306fcb13e6f581f4431a" target="_top" xlink:title="jsonChildren::newChildren">
<polygon fill="white" stroke="black" points="1004,-6.5 1004,-27.5 1156,-27.5 1156,-6.5 1004,-6.5"/>
<text text-anchor="middle" x="1080" y="-13.9" font-family="Helvetica,sans-Serif" font-size="12.00">jsonChildren::newChildren</text>
</a>
</g>
</g>
<!-- Node8&#45;&gt;Node9 -->
<g id="edge8" class="edge"><title>Node8&#45;&gt;Node9</title>
<path fill="none" stroke="midnightblue" d="M968.238,-17C976.613,-17 985.163,-17 993.616,-17"/>
<polygon fill="midnightblue" stroke="midnightblue" points="993.859,-20.5001 1003.86,-17 993.859,-13.5001 993.859,-20.5001"/>
</g>
<!-- Node10 -->
<g id="node10" class="node"><title>Node10</title>
<g id="a_node10"><a xlink:href="../../db/d49/classjson_children.html#aa31b15a1d697846a9c2a8a710b2ba6f1" target="_top" xlink:title="jsonChildren::jsonChildren">
<polygon fill="white" stroke="black" points="1192,-6.5 1192,-27.5 1344,-27.5 1344,-6.5 1192,-6.5"/>
<text text-anchor="middle" x="1268" y="-13.9" font-family="Helvetica,sans-Serif" font-size="12.00">jsonChildren::jsonChildren</text>
</a>
</g>
</g>
<!-- Node9&#45;&gt;Node10 -->
<g id="edge9" class="edge"><title>Node9&#45;&gt;Node10</title>
<path fill="none" stroke="midnightblue" d="M1156.12,-17C1164.6,-17 1173.28,-17 1181.87,-17"/>
<polygon fill="midnightblue" stroke="midnightblue" points="1181.9,-20.5001 1191.9,-17 1181.9,-13.5001 1181.9,-20.5001"/>
</g>
</g>
</svg>
