<?xml version="1.0" encoding="UTF-8" standalone="no"?>
<!DOCTYPE svg PUBLIC "-//W3C//DTD SVG 1.1//EN"
 "http://www.w3.org/Graphics/SVG/1.1/DTD/svg11.dtd">
<!-- Generated by graphviz version 2.34.0 (20130907.0111)
 -->
<!-- Title: JSONNode::push_back Pages: 1 -->
<svg width="882pt" height="30pt"
 viewBox="0.00 0.00 882.00 30.00" xmlns="http://www.w3.org/2000/svg" xmlns:xlink="http://www.w3.org/1999/xlink">
<g id="graph0" class="graph" transform="scale(1 1) rotate(0) translate(4 26)">
<title>JSONNode::push_back</title>
<polygon fill="white" stroke="white" points="-4,4 -4,-26 878,-26 878,4 -4,4"/>
<!-- Node1 -->
<g id="node1" class="node"><title>Node1</title>
<polygon fill="#bfbfbf" stroke="black" points="0,-0.5 0,-21.5 140,-21.5 140,-0.5 0,-0.5"/>
<text text-anchor="middle" x="70" y="-7.9" font-family="Helvetica,sans-Serif" font-size="12.00">JSONNode::push_back</text>
</g>
<!-- Node2 -->
<g id="node2" class="node"><title>Node2</title>
<g id="a_node2"><a xlink:href="../../d1/d0b/classinternal_j_s_o_n_node.html#a52054310b770dc15cf10e34e32713f19" target="_top" xlink:title="internalJSONNode::push_back">
<polygon fill="white" stroke="black" points="176.5,-0.5 176.5,-21.5 353.5,-21.5 353.5,-0.5 176.5,-0.5"/>
<text text-anchor="middle" x="265" y="-7.9" font-family="Helvetica,sans-Serif" font-size="12.00">internalJSONNode::push_back</text>
</a>
</g>
</g>
<!-- Node1&#45;&gt;Node2 -->
<g id="edge1" class="edge"><title>Node1&#45;&gt;Node2</title>
<path fill="none" stroke="midnightblue" d="M140.132,-11C148.698,-11 157.578,-11 166.469,-11"/>
<polygon fill="midnightblue" stroke="midnightblue" points="166.497,-14.5001 176.497,-11 166.497,-7.5001 166.497,-14.5001"/>
</g>
<!-- Node3 -->
<g id="node3" class="node"><title>Node3</title>
<g id="a_node3"><a xlink:href="../../d6/dc7/class_j_s_o_n_node.html#a2435b57e1586f3c7c7d915b3490a4e1c" target="_top" xlink:title="JSONNode::newJSONNode">
<polygon fill="white" stroke="black" points="390,-0.5 390,-21.5 554,-21.5 554,-0.5 390,-0.5"/>
<text text-anchor="middle" x="472" y="-7.9" font-family="Helvetica,sans-Serif" font-size="12.00">JSONNode::newJSONNode</text>
</a>
</g>
</g>
<!-- Node2&#45;&gt;Node3 -->
<g id="edge2" class="edge"><title>Node2&#45;&gt;Node3</title>
<path fill="none" stroke="midnightblue" d="M353.533,-11C362.215,-11 371.044,-11 379.762,-11"/>
<polygon fill="midnightblue" stroke="midnightblue" points="379.931,-14.5001 389.931,-11 379.931,-7.5001 379.931,-14.5001"/>
</g>
<!-- Node4 -->
<g id="node4" class="node"><title>Node4</title>
<g id="a_node4"><a xlink:href="../../db/d8a/_documentation_2_operator-_console_2_j_s_o_n_2_j_s_o_n_node_8cpp.html#a459ea7a97e80c19dfc813f2712b9dd73" target="_top" xlink:title="_newJSONNode">
<polygon fill="white" stroke="black" points="590,-0.5 590,-21.5 694,-21.5 694,-0.5 590,-0.5"/>
<text text-anchor="middle" x="642" y="-7.9" font-family="Helvetica,sans-Serif" font-size="12.00">_newJSONNode</text>
</a>
</g>
</g>
<!-- Node3&#45;&gt;Node4 -->
<g id="edge3" class="edge"><title>Node3&#45;&gt;Node4</title>
<path fill="none" stroke="midnightblue" d="M554.047,-11C562.543,-11 571.079,-11 579.307,-11"/>
<polygon fill="midnightblue" stroke="midnightblue" points="579.539,-14.5001 589.539,-11 579.539,-7.5001 579.539,-14.5001"/>
</g>
<!-- Node5 -->
<g id="node5" class="node"><title>Node5</title>
<g id="a_node5"><a xlink:href="../../d6/dc7/class_j_s_o_n_node.html#aba2db3c5af33c64e0cdccd33d18adc59" target="_top" xlink:title="JSONNode::JSONNode">
<polygon fill="white" stroke="black" points="730.5,-0.5 730.5,-21.5 873.5,-21.5 873.5,-0.5 730.5,-0.5"/>
<text text-anchor="middle" x="802" y="-7.9" font-family="Helvetica,sans-Serif" font-size="12.00">JSONNode::JSONNode</text>
</a>
</g>
</g>
<!-- Node4&#45;&gt;Node5 -->
<g id="edge4" class="edge"><title>Node4&#45;&gt;Node5</title>
<path fill="none" stroke="midnightblue" d="M694.298,-11C702.678,-11 711.534,-11 720.417,-11"/>
<polygon fill="midnightblue" stroke="midnightblue" points="720.433,-14.5001 730.433,-11 720.433,-7.5001 720.433,-14.5001"/>
</g>
</g>
</svg>
