<?xml version="1.0" encoding="UTF-8" standalone="no"?>
<!DOCTYPE svg PUBLIC "-//W3C//DTD SVG 1.1//EN"
 "http://www.w3.org/Graphics/SVG/1.1/DTD/svg11.dtd">
<!-- Generated by graphviz version 2.34.0 (20130907.0111)
 -->
<!-- Title: JSONNode::~JSONNode Pages: 1 -->
<svg width="932pt" height="103pt"
 viewBox="0.00 0.00 932.00 103.00" xmlns="http://www.w3.org/2000/svg" xmlns:xlink="http://www.w3.org/1999/xlink">
<g id="graph0" class="graph" transform="scale(1 1) rotate(0) translate(4 99)">
<title>JSONNode::~JSONNode</title>
<polygon fill="white" stroke="white" points="-4,4 -4,-99 928,-99 928,4 -4,4"/>
<!-- Node1 -->
<g id="node1" class="node"><title>Node1</title>
<polygon fill="#bfbfbf" stroke="black" points="0.5,-29.5 0.5,-50.5 149.5,-50.5 149.5,-29.5 0.5,-29.5"/>
<text text-anchor="middle" x="75" y="-36.9" font-family="Helvetica,sans-Serif" font-size="12.00">JSONNode::~JSONNode</text>
</g>
<!-- Node2 -->
<g id="node2" class="node"><title>Node2</title>
<g id="a_node2"><a xlink:href="../../d6/dc7/class_j_s_o_n_node.html#a4820d966e35e8512e8de4d646960e149" target="_top" xlink:title="JSONNode::deleteJSONNode">
<polygon fill="white" stroke="black" points="186.5,-29.5 186.5,-50.5 361.5,-50.5 361.5,-29.5 186.5,-29.5"/>
<text text-anchor="middle" x="274" y="-36.9" font-family="Helvetica,sans-Serif" font-size="12.00">JSONNode::deleteJSONNode</text>
</a>
</g>
</g>
<!-- Node1&#45;&gt;Node2 -->
<g id="edge1" class="edge"><title>Node1&#45;&gt;Node2</title>
<path fill="none" stroke="midnightblue" d="M159.793,-40C168.522,-40 177.408,-40 186.169,-40"/>
<polygon fill="midnightblue" stroke="midnightblue" points="159.636,-36.5001 149.636,-40 159.636,-43.5001 159.636,-36.5001"/>
</g>
<!-- Node3 -->
<g id="node3" class="node"><title>Node3</title>
<g id="a_node3"><a xlink:href="../../db/d49/classjson_children.html#a2ed8d882781d9681d3971df0008508b3" target="_top" xlink:title="jsonChildren::deleteAll">
<polygon fill="white" stroke="black" points="398,-53.5 398,-74.5 530,-74.5 530,-53.5 398,-53.5"/>
<text text-anchor="middle" x="464" y="-60.9" font-family="Helvetica,sans-Serif" font-size="12.00">jsonChildren::deleteAll</text>
</a>
</g>
</g>
<!-- Node2&#45;&gt;Node3 -->
<g id="edge2" class="edge"><title>Node2&#45;&gt;Node3</title>
<path fill="none" stroke="midnightblue" d="M367.639,-51.8263C377.844,-53.1291 388.071,-54.4346 397.837,-55.6813"/>
<polygon fill="midnightblue" stroke="midnightblue" points="367.822,-48.3213 357.46,-50.5267 366.936,-55.265 367.822,-48.3213"/>
</g>
<!-- Node7 -->
<g id="node7" class="node"><title>Node7</title>
<g id="a_node7"><a xlink:href="../../d6/dd3/structauto__delete.html#a5cbc6e3213b5b47b849dac80d2ea17b9" target="_top" xlink:title="auto_delete::~auto\l_delete">
<polygon fill="white" stroke="black" points="407.5,-0 407.5,-34 520.5,-34 520.5,-0 407.5,-0"/>
<text text-anchor="start" x="415.5" y="-20.4" font-family="Helvetica,sans-Serif" font-size="12.00">auto_delete::~auto</text>
<text text-anchor="middle" x="464" y="-7.4" font-family="Helvetica,sans-Serif" font-size="12.00">_delete</text>
</a>
</g>
</g>
<!-- Node2&#45;&gt;Node7 -->
<g id="edge6" class="edge"><title>Node2&#45;&gt;Node7</title>
<path fill="none" stroke="midnightblue" d="M371.019,-28.253C383.491,-26.7271 395.917,-25.207 407.416,-23.8002"/>
<polygon fill="midnightblue" stroke="midnightblue" points="370.523,-24.7875 361.022,-29.476 371.373,-31.7357 370.523,-24.7875"/>
</g>
<!-- Node4 -->
<g id="node4" class="node"><title>Node4</title>
<g id="a_node4"><a xlink:href="../../db/d49/classjson_children.html#ae5b065bc0e3bf8dc7c3f130c900a1e32" target="_top" xlink:title="jsonChildren::clear">
<polygon fill="white" stroke="black" points="588.5,-73.5 588.5,-94.5 701.5,-94.5 701.5,-73.5 588.5,-73.5"/>
<text text-anchor="middle" x="645" y="-80.9" font-family="Helvetica,sans-Serif" font-size="12.00">jsonChildren::clear</text>
</a>
</g>
</g>
<!-- Node3&#45;&gt;Node4 -->
<g id="edge3" class="edge"><title>Node3&#45;&gt;Node4</title>
<path fill="none" stroke="midnightblue" d="M540.097,-72.3907C556.269,-74.1977 573.087,-76.0767 588.361,-77.7833"/>
<polygon fill="midnightblue" stroke="midnightblue" points="540.456,-68.9092 530.129,-71.277 539.679,-75.8659 540.456,-68.9092"/>
</g>
<!-- Node5 -->
<g id="node5" class="node"><title>Node5</title>
<g id="a_node5"><a xlink:href="../../db/d49/classjson_children.html#a4e802eba4a1fe4736655ea44944b3662" target="_top" xlink:title="jsonChildren::~jsonChildren">
<polygon fill="white" stroke="black" points="566,-33.5 566,-54.5 724,-54.5 724,-33.5 566,-33.5"/>
<text text-anchor="middle" x="645" y="-40.9" font-family="Helvetica,sans-Serif" font-size="12.00">jsonChildren::~jsonChildren</text>
</a>
</g>
</g>
<!-- Node3&#45;&gt;Node5 -->
<g id="edge4" class="edge"><title>Node3&#45;&gt;Node5</title>
<path fill="none" stroke="midnightblue" d="M540.312,-55.5852C548.748,-54.6427 557.355,-53.681 565.826,-52.7346"/>
<polygon fill="midnightblue" stroke="midnightblue" points="539.679,-52.1341 530.129,-56.723 540.456,-59.0908 539.679,-52.1341"/>
</g>
<!-- Node6 -->
<g id="node6" class="node"><title>Node6</title>
<g id="a_node6"><a xlink:href="../../db/d49/classjson_children.html#a412672e4426b6889baa22a6b7f1e4422" target="_top" xlink:title="jsonChildren::deleteChildren">
<polygon fill="white" stroke="black" points="760.5,-33.5 760.5,-54.5 923.5,-54.5 923.5,-33.5 760.5,-33.5"/>
<text text-anchor="middle" x="842" y="-40.9" font-family="Helvetica,sans-Serif" font-size="12.00">jsonChildren::deleteChildren</text>
</a>
</g>
</g>
<!-- Node5&#45;&gt;Node6 -->
<g id="edge5" class="edge"><title>Node5&#45;&gt;Node6</title>
<path fill="none" stroke="midnightblue" d="M734.281,-44C742.929,-44 751.675,-44 760.243,-44"/>
<polygon fill="midnightblue" stroke="midnightblue" points="734.19,-40.5001 724.19,-44 734.19,-47.5001 734.19,-40.5001"/>
</g>
</g>
</svg>
