<?xml version="1.0" encoding="UTF-8" standalone="no"?>
<!DOCTYPE svg PUBLIC "-//W3C//DTD SVG 1.1//EN"
 "http://www.w3.org/Graphics/SVG/1.1/DTD/svg11.dtd">
<!-- Generated by graphviz version 2.34.0 (20130907.0111)
 -->
<!-- Title: JSONNode::clear_name Pages: 1 -->
<svg width="708pt" height="188pt"
 viewBox="0.00 0.00 708.00 188.00" xmlns="http://www.w3.org/2000/svg" xmlns:xlink="http://www.w3.org/1999/xlink">
<g id="graph0" class="graph" transform="scale(1 1) rotate(0) translate(4 184)">
<title>JSONNode::clear_name</title>
<polygon fill="white" stroke="white" points="-4,4 -4,-184 704,-184 704,4 -4,4"/>
<!-- Node1 -->
<g id="node1" class="node"><title>Node1</title>
<polygon fill="#bfbfbf" stroke="black" points="0,-80.5 0,-101.5 144,-101.5 144,-80.5 0,-80.5"/>
<text text-anchor="middle" x="72" y="-87.9" font-family="Helvetica,sans-Serif" font-size="12.00">JSONNode::clear_name</text>
</g>
<!-- Node2 -->
<g id="node2" class="node"><title>Node2</title>
<g id="a_node2"><a xlink:href="../../d6/dc7/class_j_s_o_n_node.html#ac30e692c490e07e072ebfc7158904706" target="_top" xlink:title="JSONNode::as_array">
<polygon fill="white" stroke="black" points="180,-80.5 180,-101.5 308,-101.5 308,-80.5 180,-80.5"/>
<text text-anchor="middle" x="244" y="-87.9" font-family="Helvetica,sans-Serif" font-size="12.00">JSONNode::as_array</text>
</a>
</g>
</g>
<!-- Node1&#45;&gt;Node2 -->
<g id="edge1" class="edge"><title>Node1&#45;&gt;Node2</title>
<path fill="none" stroke="midnightblue" d="M154.157,-91C162.753,-91 171.402,-91 179.751,-91"/>
<polygon fill="midnightblue" stroke="midnightblue" points="154.11,-87.5001 144.11,-91 154.11,-94.5001 154.11,-87.5001"/>
</g>
<!-- Node3 -->
<g id="node3" class="node"><title>Node3</title>
<g id="a_node3"><a xlink:href="../../d3/d71/jsonhelpers_8h.html#a0c2d0c196f0e8025cfc01c009dd24fad" target="_top" xlink:title="getIntFromArray">
<polygon fill="white" stroke="black" points="375,-158.5 375,-179.5 475,-179.5 475,-158.5 375,-158.5"/>
<text text-anchor="middle" x="425" y="-165.9" font-family="Helvetica,sans-Serif" font-size="12.00">getIntFromArray</text>
</a>
</g>
</g>
<!-- Node2&#45;&gt;Node3 -->
<g id="edge2" class="edge"><title>Node2&#45;&gt;Node3</title>
<path fill="none" stroke="midnightblue" d="M271.042,-106.693C290.632,-118.061 318.392,-133.257 344,-144 357.15,-149.516 371.956,-154.473 385.222,-158.49"/>
<polygon fill="midnightblue" stroke="midnightblue" points="272.786,-103.658 262.39,-101.613 269.241,-109.694 272.786,-103.658"/>
</g>
<!-- Node4 -->
<g id="node4" class="node"><title>Node4</title>
<g id="a_node4"><a xlink:href="../../d8/de1/class_blemish_test.html#ad9071bb6332b7fc91a6e7c7ef109cba2" target="_top" xlink:title="Parses the JSON output of an sfrPlus test to determine the pass/fail status of the various metrics...">
<polygon fill="white" stroke="black" points="542.5,-138.5 542.5,-159.5 699.5,-159.5 699.5,-138.5 542.5,-138.5"/>
<text text-anchor="middle" x="621" y="-145.9" font-family="Helvetica,sans-Serif" font-size="12.00">BlemishTest::ParseResults</text>
</a>
</g>
</g>
<!-- Node2&#45;&gt;Node4 -->
<g id="edge7" class="edge"><title>Node2&#45;&gt;Node4</title>
<path fill="none" stroke="midnightblue" d="M303.883,-103.525C317.056,-106.151 330.982,-108.791 344,-111 410.762,-122.328 487.047,-132.631 542.473,-139.642"/>
<polygon fill="midnightblue" stroke="midnightblue" points="304.478,-100.074 293.984,-101.526 303.093,-106.936 304.478,-100.074"/>
</g>
<!-- Node5 -->
<g id="node5" class="node"><title>Node5</title>
<g id="a_node5"><a xlink:href="../../da/d92/class_image_test.html#a3115f3892d84abcde05ab105ae4aaa8f" target="_top" xlink:title="ImageTest::GetString">
<polygon fill="white" stroke="black" points="361.5,-80.5 361.5,-101.5 488.5,-101.5 488.5,-80.5 361.5,-80.5"/>
<text text-anchor="middle" x="425" y="-87.9" font-family="Helvetica,sans-Serif" font-size="12.00">ImageTest::GetString</text>
</a>
</g>
</g>
<!-- Node2&#45;&gt;Node5 -->
<g id="edge4" class="edge"><title>Node2&#45;&gt;Node5</title>
<path fill="none" stroke="midnightblue" d="M318.397,-91C332.693,-91 347.556,-91 361.461,-91"/>
<polygon fill="midnightblue" stroke="midnightblue" points="318.109,-87.5001 308.109,-91 318.109,-94.5001 318.109,-87.5001"/>
</g>
<!-- Node6 -->
<g id="node6" class="node"><title>Node6</title>
<g id="a_node6"><a xlink:href="../../da/d92/class_image_test.html#ae8c27027ba0cc33150ec423c6b7ec6ae" target="_top" xlink:title="ImageTest::ParseFailures">
<polygon fill="white" stroke="black" points="349.5,-40.5 349.5,-61.5 500.5,-61.5 500.5,-40.5 349.5,-40.5"/>
<text text-anchor="middle" x="425" y="-47.9" font-family="Helvetica,sans-Serif" font-size="12.00">ImageTest::ParseFailures</text>
</a>
</g>
</g>
<!-- Node2&#45;&gt;Node6 -->
<g id="edge5" class="edge"><title>Node2&#45;&gt;Node6</title>
<path fill="none" stroke="midnightblue" d="M301.806,-78.3059C326.023,-72.8944 353.941,-66.6557 376.974,-61.5087"/>
<polygon fill="midnightblue" stroke="midnightblue" points="301.026,-74.8938 292.03,-80.4905 302.553,-81.7253 301.026,-74.8938"/>
</g>
<!-- Node7 -->
<g id="node7" class="node"><title>Node7</title>
<g id="a_node7"><a xlink:href="../../dd/d12/class_s_f_rplus_test.html#a900f5edde4636d8b6f8f802ff866a15d" target="_top" xlink:title="Determines the pass/fail result for each quadrant. ">
<polygon fill="white" stroke="black" points="344.5,-0.5 344.5,-21.5 505.5,-21.5 505.5,-0.5 344.5,-0.5"/>
<text text-anchor="middle" x="425" y="-7.9" font-family="Helvetica,sans-Serif" font-size="12.00">SFRplusTest::ParseOverlay</text>
</a>
</g>
</g>
<!-- Node2&#45;&gt;Node7 -->
<g id="edge6" class="edge"><title>Node2&#45;&gt;Node7</title>
<path fill="none" stroke="midnightblue" d="M267.543,-74.6301C286.958,-61.2101 316.17,-42.6003 344,-31 352.854,-27.3096 362.553,-24.181 372.048,-21.5729"/>
<polygon fill="midnightblue" stroke="midnightblue" points="265.52,-71.7734 259.351,-80.387 269.545,-77.5005 265.52,-71.7734"/>
</g>
<!-- Node3&#45;&gt;Node4 -->
<g id="edge3" class="edge"><title>Node3&#45;&gt;Node4</title>
<path fill="none" stroke="midnightblue" d="M485.233,-162.893C503.189,-161.042 523.191,-158.98 542.173,-157.023"/>
<polygon fill="midnightblue" stroke="midnightblue" points="484.794,-159.42 475.205,-163.927 485.511,-166.383 484.794,-159.42"/>
</g>
</g>
</svg>
