<?xml version="1.0" encoding="UTF-8" standalone="no"?>
<!DOCTYPE svg PUBLIC "-//W3C//DTD SVG 1.1//EN"
 "http://www.w3.org/Graphics/SVG/1.1/DTD/svg11.dtd">
<!-- Generated by graphviz version 2.34.0 (20130907.0111)
 -->
<!-- Title: JSONNode::write_formatted Pages: 1 -->
<svg width="542pt" height="70pt"
 viewBox="0.00 0.00 542.00 70.00" xmlns="http://www.w3.org/2000/svg" xmlns:xlink="http://www.w3.org/1999/xlink">
<g id="graph0" class="graph" transform="scale(1 1) rotate(0) translate(4 66)">
<title>JSONNode::write_formatted</title>
<polygon fill="white" stroke="white" points="-4,4 -4,-66 538,-66 538,4 -4,4"/>
<!-- Node1 -->
<g id="node1" class="node"><title>Node1</title>
<polygon fill="#bfbfbf" stroke="black" points="0,-20.5 0,-41.5 164,-41.5 164,-20.5 0,-20.5"/>
<text text-anchor="middle" x="82" y="-27.9" font-family="Helvetica,sans-Serif" font-size="12.00">JSONNode::write_formatted</text>
</g>
<!-- Node2 -->
<g id="node2" class="node"><title>Node2</title>
<g id="a_node2"><a xlink:href="../../d1/d0b/classinternal_j_s_o_n_node.html#a924514c9b1dbec1f779d8294371c0033" target="_top" xlink:title="internalJSONNode::type">
<polygon fill="white" stroke="black" points="203,-40.5 203,-61.5 345,-61.5 345,-40.5 203,-40.5"/>
<text text-anchor="middle" x="274" y="-47.9" font-family="Helvetica,sans-Serif" font-size="12.00">internalJSONNode::type</text>
</a>
</g>
</g>
<!-- Node1&#45;&gt;Node2 -->
<g id="edge1" class="edge"><title>Node1&#45;&gt;Node2</title>
<path fill="none" stroke="midnightblue" d="M164.128,-39.5398C173.609,-40.5378 183.279,-41.5557 192.748,-42.5524"/>
<polygon fill="midnightblue" stroke="midnightblue" points="192.614,-46.0576 202.926,-43.6238 193.347,-39.0961 192.614,-46.0576"/>
</g>
<!-- Node3 -->
<g id="node3" class="node"><title>Node3</title>
<g id="a_node3"><a xlink:href="../../d1/d0b/classinternal_j_s_o_n_node.html#a55bfed9408d7ce2b07097b3e1faa54b6" target="_top" xlink:title="internalJSONNode::Write">
<polygon fill="white" stroke="black" points="200,-0.5 200,-21.5 348,-21.5 348,-0.5 200,-0.5"/>
<text text-anchor="middle" x="274" y="-7.9" font-family="Helvetica,sans-Serif" font-size="12.00">internalJSONNode::Write</text>
</a>
</g>
</g>
<!-- Node1&#45;&gt;Node3 -->
<g id="edge2" class="edge"><title>Node1&#45;&gt;Node3</title>
<path fill="none" stroke="midnightblue" d="M164.128,-22.4602C172.683,-21.5597 181.39,-20.6431 189.966,-19.7404"/>
<polygon fill="midnightblue" stroke="midnightblue" points="190.376,-23.2167 199.955,-18.6889 189.644,-16.2551 190.376,-23.2167"/>
</g>
<!-- Node4 -->
<g id="node4" class="node"><title>Node4</title>
<g id="a_node4"><a xlink:href="../../d7/d6f/class_j_s_o_n_worker.html#aa7703e99bb89e65aac3c61222c311c88" target="_top" xlink:title="JSONWorker::UnfixString">
<polygon fill="white" stroke="black" points="384.5,-0.5 384.5,-21.5 533.5,-21.5 533.5,-0.5 384.5,-0.5"/>
<text text-anchor="middle" x="459" y="-7.9" font-family="Helvetica,sans-Serif" font-size="12.00">JSONWorker::UnfixString</text>
</a>
</g>
</g>
<!-- Node3&#45;&gt;Node4 -->
<g id="edge3" class="edge"><title>Node3&#45;&gt;Node4</title>
<path fill="none" stroke="midnightblue" d="M348.115,-11C356.702,-11 365.514,-11 374.232,-11"/>
<polygon fill="midnightblue" stroke="midnightblue" points="374.403,-14.5001 384.403,-11 374.403,-7.5001 374.403,-14.5001"/>
</g>
</g>
</svg>
