<?xml version="1.0" encoding="UTF-8" standalone="no"?>
<!DOCTYPE svg PUBLIC "-//W3C//DTD SVG 1.1//EN"
 "http://www.w3.org/Graphics/SVG/1.1/DTD/svg11.dtd">
<!-- Generated by graphviz version 2.34.0 (20130907.0111)
 -->
<!-- Title: JSONNode::as_binary Pages: 1 -->
<svg width="450pt" height="110pt"
 viewBox="0.00 0.00 450.00 110.00" xmlns="http://www.w3.org/2000/svg" xmlns:xlink="http://www.w3.org/1999/xlink">
<g id="graph0" class="graph" transform="scale(1 1) rotate(0) translate(4 106)">
<title>JSONNode::as_binary</title>
<polygon fill="white" stroke="white" points="-4,4 -4,-106 446,-106 446,4 -4,4"/>
<!-- Node1 -->
<g id="node1" class="node"><title>Node1</title>
<polygon fill="#bfbfbf" stroke="black" points="0,-40.5 0,-61.5 134,-61.5 134,-40.5 0,-40.5"/>
<text text-anchor="middle" x="67" y="-47.9" font-family="Helvetica,sans-Serif" font-size="12.00">JSONNode::as_binary</text>
</g>
<!-- Node2 -->
<g id="node2" class="node"><title>Node2</title>
<g id="a_node2"><a xlink:href="../../d6/dc7/class_j_s_o_n_node.html#a4a01d91b084d86b6074e32fa07694c06" target="_top" xlink:title="JSONNode::as_string">
<polygon fill="white" stroke="black" points="192.5,-80.5 192.5,-101.5 323.5,-101.5 323.5,-80.5 192.5,-80.5"/>
<text text-anchor="middle" x="258" y="-87.9" font-family="Helvetica,sans-Serif" font-size="12.00">JSONNode::as_string</text>
</a>
</g>
</g>
<!-- Node1&#45;&gt;Node2 -->
<g id="edge1" class="edge"><title>Node1&#45;&gt;Node2</title>
<path fill="none" stroke="midnightblue" d="M117.658,-61.5095C142.085,-66.6795 171.718,-72.9508 197.365,-78.3788"/>
<polygon fill="midnightblue" stroke="midnightblue" points="196.838,-81.8448 207.346,-80.4913 198.288,-74.9965 196.838,-81.8448"/>
</g>
<!-- Node3 -->
<g id="node3" class="node"><title>Node3</title>
<g id="a_node3"><a xlink:href="../../dc/d0a/class_j_s_o_n_base64.html#a566563ff3817aafca958b61fa6808c98" target="_top" xlink:title="JSONBase64::json_decode64">
<polygon fill="white" stroke="black" points="170,-40.5 170,-61.5 346,-61.5 346,-40.5 170,-40.5"/>
<text text-anchor="middle" x="258" y="-47.9" font-family="Helvetica,sans-Serif" font-size="12.00">JSONBase64::json_decode64</text>
</a>
</g>
</g>
<!-- Node1&#45;&gt;Node3 -->
<g id="edge2" class="edge"><title>Node1&#45;&gt;Node3</title>
<path fill="none" stroke="midnightblue" d="M134.103,-51C142.366,-51 150.949,-51 159.564,-51"/>
<polygon fill="midnightblue" stroke="midnightblue" points="159.675,-54.5001 169.675,-51 159.675,-47.5001 159.675,-54.5001"/>
</g>
<!-- Node6 -->
<g id="node6" class="node"><title>Node6</title>
<g id="a_node6"><a xlink:href="../../d6/dc7/class_j_s_o_n_node.html#a8edf73e69435ea34f5ffde8c9ccad7c6" target="_top" xlink:title="JSONNode::type">
<polygon fill="white" stroke="black" points="206,-0.5 206,-21.5 310,-21.5 310,-0.5 206,-0.5"/>
<text text-anchor="middle" x="258" y="-7.9" font-family="Helvetica,sans-Serif" font-size="12.00">JSONNode::type</text>
</a>
</g>
</g>
<!-- Node1&#45;&gt;Node6 -->
<g id="edge5" class="edge"><title>Node1&#45;&gt;Node6</title>
<path fill="none" stroke="midnightblue" d="M117.658,-40.4905C142.085,-35.3205 171.718,-29.0492 197.365,-23.6212"/>
<polygon fill="midnightblue" stroke="midnightblue" points="198.288,-27.0035 207.346,-21.5087 196.838,-20.1552 198.288,-27.0035"/>
</g>
<!-- Node4 -->
<g id="node4" class="node"><title>Node4</title>
<g id="a_node4"><a xlink:href="../../d0/d4c/_documentation_2_operator-_console_2_j_s_o_n_2_j_s_o_n___base64_8cpp.html#a020e9fb20635ef0dfa3f79151f7f975a" target="_top" xlink:title="chars64">
<polygon fill="white" stroke="black" points="382.5,-60.5 382.5,-81.5 441.5,-81.5 441.5,-60.5 382.5,-60.5"/>
<text text-anchor="middle" x="412" y="-67.9" font-family="Helvetica,sans-Serif" font-size="12.00">chars64</text>
</a>
</g>
</g>
<!-- Node3&#45;&gt;Node4 -->
<g id="edge3" class="edge"><title>Node3&#45;&gt;Node4</title>
<path fill="none" stroke="midnightblue" d="M339.006,-61.5271C350.578,-63.0497 362.026,-64.556 372.272,-65.9042"/>
<polygon fill="midnightblue" stroke="midnightblue" points="372.099,-69.4115 382.47,-67.246 373.012,-62.4713 372.099,-69.4115"/>
</g>
<!-- Node5 -->
<g id="node5" class="node"><title>Node5</title>
<g id="a_node5"><a xlink:href="../../d0/d4c/_documentation_2_operator-_console_2_j_s_o_n_2_j_s_o_n___base64_8cpp.html#a012abc0ac749c52f392dba045de16b77" target="_top" xlink:title="toBinary">
<polygon fill="white" stroke="black" points="382.5,-20.5 382.5,-41.5 441.5,-41.5 441.5,-20.5 382.5,-20.5"/>
<text text-anchor="middle" x="412" y="-27.9" font-family="Helvetica,sans-Serif" font-size="12.00">toBinary</text>
</a>
</g>
</g>
<!-- Node3&#45;&gt;Node5 -->
<g id="edge4" class="edge"><title>Node3&#45;&gt;Node5</title>
<path fill="none" stroke="midnightblue" d="M339.006,-40.4729C350.578,-38.9503 362.026,-37.444 372.272,-36.0958"/>
<polygon fill="midnightblue" stroke="midnightblue" points="373.012,-39.5287 382.47,-34.754 372.099,-32.5885 373.012,-39.5287"/>
</g>
</g>
</svg>
