<?xml version="1.0" encoding="UTF-8" standalone="no"?>
<!DOCTYPE svg PUBLIC "-//W3C//DTD SVG 1.1//EN"
 "http://www.w3.org/Graphics/SVG/1.1/DTD/svg11.dtd">
<!-- Generated by graphviz version 2.34.0 (20130907.0111)
 -->
<!-- Title: JSONNode::end Pages: 1 -->
<svg width="262pt" height="70pt"
 viewBox="0.00 0.00 262.00 70.00" xmlns="http://www.w3.org/2000/svg" xmlns:xlink="http://www.w3.org/1999/xlink">
<g id="graph0" class="graph" transform="scale(1 1) rotate(0) translate(4 66)">
<title>JSONNode::end</title>
<polygon fill="white" stroke="white" points="-4,4 -4,-66 258,-66 258,4 -4,4"/>
<!-- Node1 -->
<g id="node1" class="node"><title>Node1</title>
<polygon fill="#bfbfbf" stroke="black" points="0,-20.5 0,-41.5 102,-41.5 102,-20.5 0,-20.5"/>
<text text-anchor="middle" x="51" y="-27.9" font-family="Helvetica,sans-Serif" font-size="12.00">JSONNode::end</text>
</g>
<!-- Node2 -->
<g id="node2" class="node"><title>Node2</title>
<g id="a_node2"><a xlink:href="../../d6/dc7/class_j_s_o_n_node.html#a2bc88d73d62cb8da471fc1500e67a400" target="_top" xlink:title="JSONNode::end">
<polygon fill="white" stroke="black" points="145,-40.5 145,-61.5 247,-61.5 247,-40.5 145,-40.5"/>
<text text-anchor="middle" x="196" y="-47.9" font-family="Helvetica,sans-Serif" font-size="12.00">JSONNode::end</text>
</a>
</g>
</g>
<!-- Node1&#45;&gt;Node2 -->
<g id="edge1" class="edge"><title>Node1&#45;&gt;Node2</title>
<path fill="none" stroke="midnightblue" d="M111.92,-39.3804C122.853,-40.9095 134.157,-42.4904 144.772,-43.9751"/>
<polygon fill="midnightblue" stroke="midnightblue" points="112.403,-35.914 102.014,-37.995 111.433,-42.8465 112.403,-35.914"/>
</g>
<!-- Node3 -->
<g id="node3" class="node"><title>Node3</title>
<g id="a_node3"><a xlink:href="../../d6/dc7/class_j_s_o_n_node.html#ac5d94b35ff3338939a0d8ab16cd0afd9" target="_top" xlink:title="JSONNode::rbegin">
<polygon fill="white" stroke="black" points="138,-0.5 138,-21.5 254,-21.5 254,-0.5 138,-0.5"/>
<text text-anchor="middle" x="196" y="-7.9" font-family="Helvetica,sans-Serif" font-size="12.00">JSONNode::rbegin</text>
</a>
</g>
</g>
<!-- Node1&#45;&gt;Node3 -->
<g id="edge2" class="edge"><title>Node1&#45;&gt;Node3</title>
<path fill="none" stroke="midnightblue" d="M111.967,-22.613C120.56,-21.4112 129.382,-20.1774 137.918,-18.9836"/>
<polygon fill="midnightblue" stroke="midnightblue" points="111.433,-19.1535 102.014,-24.005 112.403,-26.086 111.433,-19.1535"/>
</g>
</g>
</svg>
