<?xml version="1.0" encoding="UTF-8" standalone="no"?>
<!DOCTYPE svg PUBLIC "-//W3C//DTD SVG 1.1//EN"
 "http://www.w3.org/Graphics/SVG/1.1/DTD/svg11.dtd">
<!-- Generated by graphviz version 2.34.0 (20130907.0111)
 -->
<!-- Title: JSONNode::write_formatted Pages: 1 -->
<svg width="1338pt" height="102pt"
 viewBox="0.00 0.00 1338.00 102.00" xmlns="http://www.w3.org/2000/svg" xmlns:xlink="http://www.w3.org/1999/xlink">
<g id="graph0" class="graph" transform="scale(1 1) rotate(0) translate(4 98)">
<title>JSONNode::write_formatted</title>
<polygon fill="white" stroke="white" points="-4,4 -4,-98 1334,-98 1334,4 -4,4"/>
<!-- Node1 -->
<g id="node1" class="node"><title>Node1</title>
<polygon fill="#bfbfbf" stroke="black" points="0,-52.5 0,-73.5 164,-73.5 164,-52.5 0,-52.5"/>
<text text-anchor="middle" x="82" y="-59.9" font-family="Helvetica,sans-Serif" font-size="12.00">JSONNode::write_formatted</text>
</g>
<!-- Node2 -->
<g id="node2" class="node"><title>Node2</title>
<g id="a_node2"><a xlink:href="../../d3/d71/jsonhelpers_8h.html#a3a69c2987d346d326aeffb52183db0f4" target="_top" xlink:title="prepareTestSettings">
<polygon fill="white" stroke="black" points="200.5,-52.5 200.5,-73.5 323.5,-73.5 323.5,-52.5 200.5,-52.5"/>
<text text-anchor="middle" x="262" y="-59.9" font-family="Helvetica,sans-Serif" font-size="12.00">prepareTestSettings</text>
</a>
</g>
</g>
<!-- Node1&#45;&gt;Node2 -->
<g id="edge1" class="edge"><title>Node1&#45;&gt;Node2</title>
<path fill="none" stroke="midnightblue" d="M174.216,-63C183.104,-63 191.963,-63 200.437,-63"/>
<polygon fill="midnightblue" stroke="midnightblue" points="174.187,-59.5001 164.187,-63 174.187,-66.5001 174.187,-59.5001"/>
</g>
<!-- Node3 -->
<g id="node3" class="node"><title>Node3</title>
<g id="a_node3"><a xlink:href="../../da/d92/class_image_test.html#a7334d76c1cc6780f46626be5b9ff1adb" target="_top" xlink:title="Runs the test pointed to by m_imatestFunc. ">
<polygon fill="white" stroke="black" points="360,-52.5 360,-73.5 458,-73.5 458,-52.5 360,-52.5"/>
<text text-anchor="middle" x="409" y="-59.9" font-family="Helvetica,sans-Serif" font-size="12.00">ImageTest::Run</text>
</a>
</g>
</g>
<!-- Node2&#45;&gt;Node3 -->
<g id="edge2" class="edge"><title>Node2&#45;&gt;Node3</title>
<path fill="none" stroke="midnightblue" d="M333.657,-63C342.557,-63 351.494,-63 359.931,-63"/>
<polygon fill="midnightblue" stroke="midnightblue" points="333.653,-59.5001 323.653,-63 333.653,-66.5001 333.653,-59.5001"/>
</g>
<!-- Node4 -->
<g id="node4" class="node"><title>Node4</title>
<g id="a_node4"><a xlink:href="../../da/d92/class_image_test.html#accf2cfff6fe48fd19888727208dd6728" target="_top" xlink:title="ImageTest::Run">
<polygon fill="white" stroke="black" points="515,-72.5 515,-93.5 613,-93.5 613,-72.5 515,-72.5"/>
<text text-anchor="middle" x="564" y="-79.9" font-family="Helvetica,sans-Serif" font-size="12.00">ImageTest::Run</text>
</a>
</g>
</g>
<!-- Node3&#45;&gt;Node4 -->
<g id="edge3" class="edge"><title>Node3&#45;&gt;Node4</title>
<path fill="none" stroke="midnightblue" d="M468.338,-70.6259C483.716,-72.6361 500.134,-74.7822 514.905,-76.713"/>
<polygon fill="midnightblue" stroke="midnightblue" points="468.779,-67.1539 458.41,-69.3281 467.872,-74.0948 468.779,-67.1539"/>
</g>
<!-- Node5 -->
<g id="node5" class="node"><title>Node5</title>
<g id="a_node5"><a xlink:href="../../da/d92/class_image_test.html#a372478d09c06cd7ab3684840add6215e" target="_top" xlink:title="param must be a pointer to a ThreadControl object; param&#45;&gt;m_data must point to an ImageTest object ...">
<polygon fill="white" stroke="black" points="494.5,-32.5 494.5,-53.5 633.5,-53.5 633.5,-32.5 494.5,-32.5"/>
<text text-anchor="middle" x="564" y="-39.9" font-family="Helvetica,sans-Serif" font-size="12.00">ImageTest::ThreadProc</text>
</a>
</g>
</g>
<!-- Node3&#45;&gt;Node5 -->
<g id="edge4" class="edge"><title>Node3&#45;&gt;Node5</title>
<path fill="none" stroke="midnightblue" d="M468.571,-55.3437C477.052,-54.2351 485.845,-53.0857 494.499,-51.9543"/>
<polygon fill="midnightblue" stroke="midnightblue" points="467.872,-51.9052 458.41,-56.6719 468.779,-58.8461 467.872,-51.9052"/>
</g>
<!-- Node6 -->
<g id="node6" class="node"><title>Node6</title>
<g id="a_node6"><a xlink:href="../../d3/d9f/class_c_operator_console_app.html#a51ad7e6e8f370072c3e89d0d7e9e41a8" target="_top" xlink:title="COperatorConsoleApp\l::InitBlemishThread">
<polygon fill="white" stroke="black" points="670.5,-53 670.5,-87 807.5,-87 807.5,-53 670.5,-53"/>
<text text-anchor="start" x="678.5" y="-73.4" font-family="Helvetica,sans-Serif" font-size="12.00">COperatorConsoleApp</text>
<text text-anchor="middle" x="739" y="-60.4" font-family="Helvetica,sans-Serif" font-size="12.00">::InitBlemishThread</text>
</a>
</g>
</g>
<!-- Node5&#45;&gt;Node6 -->
<g id="edge5" class="edge"><title>Node5&#45;&gt;Node6</title>
<path fill="none" stroke="midnightblue" d="M642.382,-55.077C651.669,-56.5264 661.097,-57.9978 670.233,-59.4236"/>
<polygon fill="midnightblue" stroke="midnightblue" points="642.802,-51.6002 632.382,-53.5162 641.722,-58.5165 642.802,-51.6002"/>
</g>
<!-- Node12 -->
<g id="node12" class="node"><title>Node12</title>
<g id="a_node12"><a xlink:href="../../d3/d9f/class_c_operator_console_app.html#af7328d2c00abb1d4a09a65492c69b2b0" target="_top" xlink:title="COperatorConsoleApp\l::InitSFRplusThread">
<polygon fill="white" stroke="black" points="670.5,-0 670.5,-34 807.5,-34 807.5,-0 670.5,-0"/>
<text text-anchor="start" x="678.5" y="-20.4" font-family="Helvetica,sans-Serif" font-size="12.00">COperatorConsoleApp</text>
<text text-anchor="middle" x="739" y="-7.4" font-family="Helvetica,sans-Serif" font-size="12.00">::InitSFRplusThread</text>
</a>
</g>
</g>
<!-- Node5&#45;&gt;Node12 -->
<g id="edge11" class="edge"><title>Node5&#45;&gt;Node12</title>
<path fill="none" stroke="midnightblue" d="M643.852,-31.1494C652.751,-29.812 661.759,-28.4583 670.494,-27.1454"/>
<polygon fill="midnightblue" stroke="midnightblue" points="643.24,-27.702 633.871,-32.6494 644.28,-34.6243 643.24,-27.702"/>
</g>
<!-- Node7 -->
<g id="node7" class="node"><title>Node7</title>
<g id="a_node7"><a xlink:href="../../d3/d9f/class_c_operator_console_app.html#a7f0cd7b21cee2171dea973e4e6e7bb9d" target="_top" xlink:title="Init perform application&#45;specific initialization. ">
<polygon fill="white" stroke="black" points="844.5,-53 844.5,-87 981.5,-87 981.5,-53 844.5,-53"/>
<text text-anchor="start" x="852.5" y="-73.4" font-family="Helvetica,sans-Serif" font-size="12.00">COperatorConsoleApp</text>
<text text-anchor="middle" x="913" y="-60.4" font-family="Helvetica,sans-Serif" font-size="12.00">::Init</text>
</a>
</g>
</g>
<!-- Node6&#45;&gt;Node7 -->
<g id="edge6" class="edge"><title>Node6&#45;&gt;Node7</title>
<path fill="none" stroke="midnightblue" d="M818.134,-70C826.846,-70 835.666,-70 844.233,-70"/>
<polygon fill="midnightblue" stroke="midnightblue" points="817.979,-66.5001 807.979,-70 817.979,-73.5001 817.979,-66.5001"/>
</g>
<!-- Node9 -->
<g id="node9" class="node"><title>Node9</title>
<g id="a_node9"><a xlink:href="../../d3/d9f/class_c_operator_console_app.html#aede77af6cae8053d49c752fd95910728" target="_top" xlink:title="This function allows for reallocation of the various image buffers when we change the image size...">
<polygon fill="white" stroke="black" points="844.5,-0 844.5,-34 981.5,-34 981.5,-0 844.5,-0"/>
<text text-anchor="start" x="852.5" y="-20.4" font-family="Helvetica,sans-Serif" font-size="12.00">COperatorConsoleApp</text>
<text text-anchor="middle" x="913" y="-7.4" font-family="Helvetica,sans-Serif" font-size="12.00">::ReInit</text>
</a>
</g>
</g>
<!-- Node6&#45;&gt;Node9 -->
<g id="edge8" class="edge"><title>Node6&#45;&gt;Node9</title>
<path fill="none" stroke="midnightblue" d="M805.212,-49.9056C822.193,-44.6732 840.324,-39.0863 856.735,-34.0293"/>
<polygon fill="midnightblue" stroke="midnightblue" points="803.895,-46.6491 795.369,-52.9387 805.956,-53.3387 803.895,-46.6491"/>
</g>
<!-- Node8 -->
<g id="node8" class="node"><title>Node8</title>
<g id="a_node8"><a xlink:href="../../d3/d9f/class_c_operator_console_app.html#a94f4b258145e77e31644beb999bf099a" target="_top" xlink:title="COperatorConsoleApp initialization. ">
<polygon fill="white" stroke="black" points="1018.5,-53 1018.5,-87 1155.5,-87 1155.5,-53 1018.5,-53"/>
<text text-anchor="start" x="1026.5" y="-73.4" font-family="Helvetica,sans-Serif" font-size="12.00">COperatorConsoleApp</text>
<text text-anchor="middle" x="1087" y="-60.4" font-family="Helvetica,sans-Serif" font-size="12.00">::InitInstance</text>
</a>
</g>
</g>
<!-- Node7&#45;&gt;Node8 -->
<g id="edge7" class="edge"><title>Node7&#45;&gt;Node8</title>
<path fill="none" stroke="midnightblue" d="M992.134,-70C1000.85,-70 1009.67,-70 1018.23,-70"/>
<polygon fill="midnightblue" stroke="midnightblue" points="991.979,-66.5001 981.979,-70 991.979,-73.5001 991.979,-66.5001"/>
</g>
<!-- Node10 -->
<g id="node10" class="node"><title>Node10</title>
<g id="a_node10"><a xlink:href="../../d3/d9f/class_c_operator_console_app.html#a620f8d2eed65d743bb177abcb90936e6" target="_top" xlink:title="Called after MSG_SETUP is received. ">
<polygon fill="white" stroke="black" points="1018.5,-0 1018.5,-34 1155.5,-34 1155.5,-0 1018.5,-0"/>
<text text-anchor="start" x="1026.5" y="-20.4" font-family="Helvetica,sans-Serif" font-size="12.00">COperatorConsoleApp</text>
<text text-anchor="middle" x="1087" y="-7.4" font-family="Helvetica,sans-Serif" font-size="12.00">::OnSetup</text>
</a>
</g>
</g>
<!-- Node9&#45;&gt;Node10 -->
<g id="edge9" class="edge"><title>Node9&#45;&gt;Node10</title>
<path fill="none" stroke="midnightblue" d="M992.134,-17C1000.85,-17 1009.67,-17 1018.23,-17"/>
<polygon fill="midnightblue" stroke="midnightblue" points="991.979,-13.5001 981.979,-17 991.979,-20.5001 991.979,-13.5001"/>
</g>
<!-- Node11 -->
<g id="node11" class="node"><title>Node11</title>
<g id="a_node11"><a xlink:href="../../d3/d9f/class_c_operator_console_app.html#a7041d197c4e6549f2cb7219981b4eec1" target="_top" xlink:title="Intercepts messages of interest before Windows or MFC. ">
<polygon fill="white" stroke="black" points="1192,-0 1192,-34 1330,-34 1330,-0 1192,-0"/>
<text text-anchor="start" x="1200" y="-20.4" font-family="Helvetica,sans-Serif" font-size="12.00">COperatorConsoleApp</text>
<text text-anchor="middle" x="1261" y="-7.4" font-family="Helvetica,sans-Serif" font-size="12.00">::PreTranslateMessage</text>
</a>
</g>
</g>
<!-- Node10&#45;&gt;Node11 -->
<g id="edge10" class="edge"><title>Node10&#45;&gt;Node11</title>
<path fill="none" stroke="midnightblue" d="M1166.05,-17C1174.7,-17 1183.45,-17 1191.95,-17"/>
<polygon fill="midnightblue" stroke="midnightblue" points="1165.98,-13.5001 1155.98,-17 1165.98,-20.5001 1165.98,-13.5001"/>
</g>
<!-- Node12&#45;&gt;Node7 -->
<g id="edge12" class="edge"><title>Node12&#45;&gt;Node7</title>
<path fill="none" stroke="midnightblue" d="M805.212,-37.0944C822.193,-42.3268 840.324,-47.9137 856.735,-52.9707"/>
<polygon fill="midnightblue" stroke="midnightblue" points="805.956,-33.6613 795.369,-34.0613 803.895,-40.3509 805.956,-33.6613"/>
</g>
<!-- Node12&#45;&gt;Node9 -->
<g id="edge13" class="edge"><title>Node12&#45;&gt;Node9</title>
<path fill="none" stroke="midnightblue" d="M818.134,-17C826.846,-17 835.666,-17 844.233,-17"/>
<polygon fill="midnightblue" stroke="midnightblue" points="817.979,-13.5001 807.979,-17 817.979,-20.5001 817.979,-13.5001"/>
</g>
</g>
</svg>
