<?xml version="1.0" encoding="UTF-8" standalone="no"?>
<!DOCTYPE svg PUBLIC "-//W3C//DTD SVG 1.1//EN"
 "http://www.w3.org/Graphics/SVG/1.1/DTD/svg11.dtd">
<!-- Generated by graphviz version 2.34.0 (20130907.0111)
 -->
<!-- Title: JSONNode::as_bool Pages: 1 -->
<svg width="328pt" height="70pt"
 viewBox="0.00 0.00 328.00 70.00" xmlns="http://www.w3.org/2000/svg" xmlns:xlink="http://www.w3.org/1999/xlink">
<g id="graph0" class="graph" transform="scale(1 1) rotate(0) translate(4 66)">
<title>JSONNode::as_bool</title>
<polygon fill="white" stroke="white" points="-4,4 -4,-66 324,-66 324,4 -4,4"/>
<!-- Node1 -->
<g id="node1" class="node"><title>Node1</title>
<polygon fill="#bfbfbf" stroke="black" points="0.5,-20.5 0.5,-41.5 125.5,-41.5 125.5,-20.5 0.5,-20.5"/>
<text text-anchor="middle" x="63" y="-27.9" font-family="Helvetica,sans-Serif" font-size="12.00">JSONNode::as_bool</text>
</g>
<!-- Node2 -->
<g id="node2" class="node"><title>Node2</title>
<g id="a_node2"><a xlink:href="../../da/d92/class_image_test.html#ae8c27027ba0cc33150ec423c6b7ec6ae" target="_top" xlink:title="ImageTest::ParseFailures">
<polygon fill="white" stroke="black" points="165.5,-40.5 165.5,-61.5 316.5,-61.5 316.5,-40.5 165.5,-40.5"/>
<text text-anchor="middle" x="241" y="-47.9" font-family="Helvetica,sans-Serif" font-size="12.00">ImageTest::ParseFailures</text>
</a>
</g>
</g>
<!-- Node1&#45;&gt;Node2 -->
<g id="edge1" class="edge"><title>Node1&#45;&gt;Node2</title>
<path fill="none" stroke="midnightblue" d="M135.668,-39.1441C145.49,-40.2602 155.592,-41.4082 165.464,-42.53"/>
<polygon fill="midnightblue" stroke="midnightblue" points="135.888,-35.6466 125.556,-37.995 135.097,-42.6018 135.888,-35.6466"/>
</g>
<!-- Node3 -->
<g id="node3" class="node"><title>Node3</title>
<g id="a_node3"><a xlink:href="../../d8/de1/class_blemish_test.html#ad9071bb6332b7fc91a6e7c7ef109cba2" target="_top" xlink:title="Parses the JSON output of an sfrPlus test to determine the pass/fail status of the various metrics...">
<polygon fill="white" stroke="black" points="162.5,-0.5 162.5,-21.5 319.5,-21.5 319.5,-0.5 162.5,-0.5"/>
<text text-anchor="middle" x="241" y="-7.9" font-family="Helvetica,sans-Serif" font-size="12.00">BlemishTest::ParseResults</text>
</a>
</g>
</g>
<!-- Node1&#45;&gt;Node3 -->
<g id="edge2" class="edge"><title>Node1&#45;&gt;Node3</title>
<path fill="none" stroke="midnightblue" d="M135.74,-22.8478C144.521,-21.8499 153.525,-20.8267 162.388,-19.8196"/>
<polygon fill="midnightblue" stroke="midnightblue" points="135.097,-19.3982 125.556,-24.005 135.888,-26.3534 135.097,-19.3982"/>
</g>
</g>
</svg>
