<?xml version="1.0" encoding="UTF-8" standalone="no"?>
<!DOCTYPE svg PUBLIC "-//W3C//DTD SVG 1.1//EN"
 "http://www.w3.org/Graphics/SVG/1.1/DTD/svg11.dtd">
<!-- Generated by graphviz version 2.34.0 (20130907.0111)
 -->
<!-- Title: JSONNode::duplicate Pages: 1 -->
<svg width="694pt" height="188pt"
 viewBox="0.00 0.00 694.00 188.00" xmlns="http://www.w3.org/2000/svg" xmlns:xlink="http://www.w3.org/1999/xlink">
<g id="graph0" class="graph" transform="scale(1 1) rotate(0) translate(4 184)">
<title>JSONNode::duplicate</title>
<polygon fill="white" stroke="white" points="-4,4 -4,-184 690,-184 690,4 -4,4"/>
<!-- Node1 -->
<g id="node1" class="node"><title>Node1</title>
<polygon fill="#bfbfbf" stroke="black" points="0,-60.5 0,-81.5 130,-81.5 130,-60.5 0,-60.5"/>
<text text-anchor="middle" x="65" y="-67.9" font-family="Helvetica,sans-Serif" font-size="12.00">JSONNode::duplicate</text>
</g>
<!-- Node2 -->
<g id="node2" class="node"><title>Node2</title>
<g id="a_node2"><a xlink:href="../../d6/dc7/class_j_s_o_n_node.html#ac30e692c490e07e072ebfc7158904706" target="_top" xlink:title="JSONNode::as_array">
<polygon fill="white" stroke="black" points="166,-80.5 166,-101.5 294,-101.5 294,-80.5 166,-80.5"/>
<text text-anchor="middle" x="230" y="-87.9" font-family="Helvetica,sans-Serif" font-size="12.00">JSONNode::as_array</text>
</a>
</g>
</g>
<!-- Node1&#45;&gt;Node2 -->
<g id="edge1" class="edge"><title>Node1&#45;&gt;Node2</title>
<path fill="none" stroke="midnightblue" d="M140.351,-80.1228C148.869,-81.168 157.493,-82.2261 165.845,-83.2509"/>
<polygon fill="midnightblue" stroke="midnightblue" points="140.774,-76.6485 130.422,-78.9045 139.921,-83.5964 140.774,-76.6485"/>
</g>
<!-- Node8 -->
<g id="node8" class="node"><title>Node8</title>
<g id="a_node8"><a xlink:href="../../d6/dc7/class_j_s_o_n_node.html#ad89a85d2b307990217b391df647fd6f5" target="_top" xlink:title="JSONNode::as_node">
<polygon fill="white" stroke="black" points="166,-40.5 166,-61.5 294,-61.5 294,-40.5 166,-40.5"/>
<text text-anchor="middle" x="230" y="-47.9" font-family="Helvetica,sans-Serif" font-size="12.00">JSONNode::as_node</text>
</a>
</g>
</g>
<!-- Node1&#45;&gt;Node8 -->
<g id="edge8" class="edge"><title>Node1&#45;&gt;Node8</title>
<path fill="none" stroke="midnightblue" d="M140.351,-61.8772C148.869,-60.832 157.493,-59.7739 165.845,-58.7491"/>
<polygon fill="midnightblue" stroke="midnightblue" points="139.921,-58.4036 130.422,-63.0955 140.774,-65.3515 139.921,-58.4036"/>
</g>
<!-- Node3 -->
<g id="node3" class="node"><title>Node3</title>
<g id="a_node3"><a xlink:href="../../d3/d71/jsonhelpers_8h.html#a0c2d0c196f0e8025cfc01c009dd24fad" target="_top" xlink:title="getIntFromArray">
<polygon fill="white" stroke="black" points="361,-158.5 361,-179.5 461,-179.5 461,-158.5 361,-158.5"/>
<text text-anchor="middle" x="411" y="-165.9" font-family="Helvetica,sans-Serif" font-size="12.00">getIntFromArray</text>
</a>
</g>
</g>
<!-- Node2&#45;&gt;Node3 -->
<g id="edge2" class="edge"><title>Node2&#45;&gt;Node3</title>
<path fill="none" stroke="midnightblue" d="M257.042,-106.693C276.632,-118.061 304.392,-133.257 330,-144 343.15,-149.516 357.956,-154.473 371.222,-158.49"/>
<polygon fill="midnightblue" stroke="midnightblue" points="258.786,-103.658 248.39,-101.613 255.241,-109.694 258.786,-103.658"/>
</g>
<!-- Node4 -->
<g id="node4" class="node"><title>Node4</title>
<g id="a_node4"><a xlink:href="../../d8/de1/class_blemish_test.html#ad9071bb6332b7fc91a6e7c7ef109cba2" target="_top" xlink:title="Parses the JSON output of an sfrPlus test to determine the pass/fail status of the various metrics...">
<polygon fill="white" stroke="black" points="528.5,-138.5 528.5,-159.5 685.5,-159.5 685.5,-138.5 528.5,-138.5"/>
<text text-anchor="middle" x="607" y="-145.9" font-family="Helvetica,sans-Serif" font-size="12.00">BlemishTest::ParseResults</text>
</a>
</g>
</g>
<!-- Node2&#45;&gt;Node4 -->
<g id="edge7" class="edge"><title>Node2&#45;&gt;Node4</title>
<path fill="none" stroke="midnightblue" d="M289.883,-103.525C303.056,-106.151 316.982,-108.791 330,-111 396.762,-122.328 473.047,-132.631 528.473,-139.642"/>
<polygon fill="midnightblue" stroke="midnightblue" points="290.478,-100.074 279.984,-101.526 289.093,-106.936 290.478,-100.074"/>
</g>
<!-- Node5 -->
<g id="node5" class="node"><title>Node5</title>
<g id="a_node5"><a xlink:href="../../da/d92/class_image_test.html#a3115f3892d84abcde05ab105ae4aaa8f" target="_top" xlink:title="ImageTest::GetString">
<polygon fill="white" stroke="black" points="347.5,-80.5 347.5,-101.5 474.5,-101.5 474.5,-80.5 347.5,-80.5"/>
<text text-anchor="middle" x="411" y="-87.9" font-family="Helvetica,sans-Serif" font-size="12.00">ImageTest::GetString</text>
</a>
</g>
</g>
<!-- Node2&#45;&gt;Node5 -->
<g id="edge4" class="edge"><title>Node2&#45;&gt;Node5</title>
<path fill="none" stroke="midnightblue" d="M304.397,-91C318.693,-91 333.556,-91 347.461,-91"/>
<polygon fill="midnightblue" stroke="midnightblue" points="304.109,-87.5001 294.109,-91 304.109,-94.5001 304.109,-87.5001"/>
</g>
<!-- Node6 -->
<g id="node6" class="node"><title>Node6</title>
<g id="a_node6"><a xlink:href="../../da/d92/class_image_test.html#ae8c27027ba0cc33150ec423c6b7ec6ae" target="_top" xlink:title="ImageTest::ParseFailures">
<polygon fill="white" stroke="black" points="335.5,-40.5 335.5,-61.5 486.5,-61.5 486.5,-40.5 335.5,-40.5"/>
<text text-anchor="middle" x="411" y="-47.9" font-family="Helvetica,sans-Serif" font-size="12.00">ImageTest::ParseFailures</text>
</a>
</g>
</g>
<!-- Node2&#45;&gt;Node6 -->
<g id="edge5" class="edge"><title>Node2&#45;&gt;Node6</title>
<path fill="none" stroke="midnightblue" d="M287.806,-78.3059C312.023,-72.8944 339.941,-66.6557 362.974,-61.5087"/>
<polygon fill="midnightblue" stroke="midnightblue" points="287.026,-74.8938 278.03,-80.4905 288.553,-81.7253 287.026,-74.8938"/>
</g>
<!-- Node7 -->
<g id="node7" class="node"><title>Node7</title>
<g id="a_node7"><a xlink:href="../../dd/d12/class_s_f_rplus_test.html#a900f5edde4636d8b6f8f802ff866a15d" target="_top" xlink:title="Determines the pass/fail result for each quadrant. ">
<polygon fill="white" stroke="black" points="330.5,-0.5 330.5,-21.5 491.5,-21.5 491.5,-0.5 330.5,-0.5"/>
<text text-anchor="middle" x="411" y="-7.9" font-family="Helvetica,sans-Serif" font-size="12.00">SFRplusTest::ParseOverlay</text>
</a>
</g>
</g>
<!-- Node2&#45;&gt;Node7 -->
<g id="edge6" class="edge"><title>Node2&#45;&gt;Node7</title>
<path fill="none" stroke="midnightblue" d="M284.074,-76.4921C287.531,-74.8406 290.875,-73.0152 294,-71 314.101,-58.0392 309.504,-43.3272 330,-31 336.38,-27.1631 343.468,-24.0597 350.715,-21.5502"/>
<polygon fill="midnightblue" stroke="midnightblue" points="282.564,-73.3313 274.733,-80.4682 285.305,-79.7721 282.564,-73.3313"/>
</g>
<!-- Node3&#45;&gt;Node4 -->
<g id="edge3" class="edge"><title>Node3&#45;&gt;Node4</title>
<path fill="none" stroke="midnightblue" d="M471.233,-162.893C489.189,-161.042 509.191,-158.98 528.173,-157.023"/>
<polygon fill="midnightblue" stroke="midnightblue" points="470.794,-159.42 461.205,-163.927 471.511,-166.383 470.794,-159.42"/>
</g>
</g>
</svg>
