<?xml version="1.0" encoding="UTF-8" standalone="no"?>
<!DOCTYPE svg PUBLIC "-//W3C//DTD SVG 1.1//EN"
 "http://www.w3.org/Graphics/SVG/1.1/DTD/svg11.dtd">
<!-- Generated by graphviz version 2.34.0 (20130907.0111)
 -->
<!-- Title: JSONNode::reserve Pages: 1 -->
<svg width="496pt" height="30pt"
 viewBox="0.00 0.00 496.00 30.00" xmlns="http://www.w3.org/2000/svg" xmlns:xlink="http://www.w3.org/1999/xlink">
<g id="graph0" class="graph" transform="scale(1 1) rotate(0) translate(4 26)">
<title>JSONNode::reserve</title>
<polygon fill="white" stroke="white" points="-4,4 -4,-26 492,-26 492,4 -4,4"/>
<!-- Node1 -->
<g id="node1" class="node"><title>Node1</title>
<polygon fill="#bfbfbf" stroke="black" points="0,-0.5 0,-21.5 122,-21.5 122,-0.5 0,-0.5"/>
<text text-anchor="middle" x="61" y="-7.9" font-family="Helvetica,sans-Serif" font-size="12.00">JSONNode::reserve</text>
</g>
<!-- Node2 -->
<g id="node2" class="node"><title>Node2</title>
<g id="a_node2"><a xlink:href="../../d1/d0b/classinternal_j_s_o_n_node.html#a3f0049ba61147f7892466f127cb6c49c" target="_top" xlink:title="internalJSONNode::reserve">
<polygon fill="white" stroke="black" points="158.5,-0.5 158.5,-21.5 317.5,-21.5 317.5,-0.5 158.5,-0.5"/>
<text text-anchor="middle" x="238" y="-7.9" font-family="Helvetica,sans-Serif" font-size="12.00">internalJSONNode::reserve</text>
</a>
</g>
</g>
<!-- Node1&#45;&gt;Node2 -->
<g id="edge1" class="edge"><title>Node1&#45;&gt;Node2</title>
<path fill="none" stroke="midnightblue" d="M122.225,-11C130.702,-11 139.558,-11 148.428,-11"/>
<polygon fill="midnightblue" stroke="midnightblue" points="148.43,-14.5001 158.43,-11 148.43,-7.5001 148.43,-14.5001"/>
</g>
<!-- Node3 -->
<g id="node3" class="node"><title>Node3</title>
<g id="a_node3"><a xlink:href="../../db/d49/classjson_children.html#aab670a44dc4a28303af62d5d38f06920" target="_top" xlink:title="jsonChildren::reserve2">
<polygon fill="white" stroke="black" points="354.5,-0.5 354.5,-21.5 487.5,-21.5 487.5,-0.5 354.5,-0.5"/>
<text text-anchor="middle" x="421" y="-7.9" font-family="Helvetica,sans-Serif" font-size="12.00">jsonChildren::reserve2</text>
</a>
</g>
</g>
<!-- Node2&#45;&gt;Node3 -->
<g id="edge2" class="edge"><title>Node2&#45;&gt;Node3</title>
<path fill="none" stroke="midnightblue" d="M317.6,-11C326.445,-11 335.445,-11 344.254,-11"/>
<polygon fill="midnightblue" stroke="midnightblue" points="344.485,-14.5001 354.485,-11 344.485,-7.5001 344.485,-14.5001"/>
</g>
</g>
</svg>
