<?xml version="1.0" encoding="UTF-8" standalone="no"?>
<!DOCTYPE svg PUBLIC "-//W3C//DTD SVG 1.1//EN"
 "http://www.w3.org/Graphics/SVG/1.1/DTD/svg11.dtd">
<!-- Generated by graphviz version 2.34.0 (20130907.0111)
 -->
<!-- Title: JSONNode::rbegin Pages: 1 -->
<svg width="402pt" height="50pt"
 viewBox="0.00 0.00 402.00 50.00" xmlns="http://www.w3.org/2000/svg" xmlns:xlink="http://www.w3.org/1999/xlink">
<g id="graph0" class="graph" transform="scale(1 1) rotate(0) translate(4 46)">
<title>JSONNode::rbegin</title>
<polygon fill="white" stroke="white" points="-4,4 -4,-46 398,-46 398,4 -4,4"/>
<!-- Node1 -->
<g id="node1" class="node"><title>Node1</title>
<polygon fill="#bfbfbf" stroke="black" points="0,-0.5 0,-21.5 116,-21.5 116,-0.5 0,-0.5"/>
<text text-anchor="middle" x="58" y="-7.9" font-family="Helvetica,sans-Serif" font-size="12.00">JSONNode::rbegin</text>
</g>
<!-- Node2 -->
<g id="node2" class="node"><title>Node2</title>
<g id="a_node2"><a xlink:href="../../d6/dc7/class_j_s_o_n_node.html#a2a5f8dc6c2b02508e70084a97436611f" target="_top" xlink:title="JSONNode::end">
<polygon fill="white" stroke="black" points="152,-20.5 152,-41.5 254,-41.5 254,-20.5 152,-20.5"/>
<text text-anchor="middle" x="203" y="-27.9" font-family="Helvetica,sans-Serif" font-size="12.00">JSONNode::end</text>
</a>
</g>
</g>
<!-- Node1&#45;&gt;Node2 -->
<g id="edge1" class="edge"><title>Node1&#45;&gt;Node2</title>
<path fill="none" stroke="midnightblue" d="M116.34,-19.0195C124.626,-20.1784 133.176,-21.3743 141.522,-22.5415"/>
<polygon fill="midnightblue" stroke="midnightblue" points="141.179,-26.0276 151.568,-23.9466 142.149,-19.0951 141.179,-26.0276"/>
</g>
<!-- Node3 -->
<g id="node3" class="node"><title>Node3</title>
<g id="a_node3"><a xlink:href="../../d6/dc7/class_j_s_o_n_node.html#a8edf73e69435ea34f5ffde8c9ccad7c6" target="_top" xlink:title="JSONNode::type">
<polygon fill="white" stroke="black" points="290,-0.5 290,-21.5 394,-21.5 394,-0.5 290,-0.5"/>
<text text-anchor="middle" x="342" y="-7.9" font-family="Helvetica,sans-Serif" font-size="12.00">JSONNode::type</text>
</a>
</g>
</g>
<!-- Node1&#45;&gt;Node3 -->
<g id="edge3" class="edge"><title>Node1&#45;&gt;Node3</title>
<path fill="none" stroke="midnightblue" d="M116.067,-11C163.547,-11 230.99,-11 279.628,-11"/>
<polygon fill="midnightblue" stroke="midnightblue" points="279.707,-14.5001 289.707,-11 279.707,-7.5001 279.707,-14.5001"/>
</g>
<!-- Node2&#45;&gt;Node3 -->
<g id="edge2" class="edge"><title>Node2&#45;&gt;Node3</title>
<path fill="none" stroke="midnightblue" d="M254.236,-23.6663C262.579,-22.4483 271.312,-21.1734 279.889,-19.9214"/>
<polygon fill="midnightblue" stroke="midnightblue" points="280.463,-23.3747 289.852,-18.4668 279.452,-16.4481 280.463,-23.3747"/>
</g>
</g>
</svg>
