<?xml version="1.0" encoding="UTF-8" standalone="no"?>
<!DOCTYPE svg PUBLIC "-//W3C//DTD SVG 1.1//EN"
 "http://www.w3.org/Graphics/SVG/1.1/DTD/svg11.dtd">
<!-- Generated by graphviz version 2.34.0 (20130907.0111)
 -->
<!-- Title: JSONNode::rend Pages: 1 -->
<svg width="1342pt" height="134pt"
 viewBox="0.00 0.00 1342.00 134.00" xmlns="http://www.w3.org/2000/svg" xmlns:xlink="http://www.w3.org/1999/xlink">
<g id="graph0" class="graph" transform="scale(1 1) rotate(0) translate(4 130)">
<title>JSONNode::rend</title>
<polygon fill="white" stroke="white" points="-4,4 -4,-130 1338,-130 1338,4 -4,4"/>
<!-- Node1 -->
<g id="node1" class="node"><title>Node1</title>
<polygon fill="#bfbfbf" stroke="black" points="0,-65.5 0,-86.5 106,-86.5 106,-65.5 0,-65.5"/>
<text text-anchor="middle" x="53" y="-72.9" font-family="Helvetica,sans-Serif" font-size="12.00">JSONNode::rend</text>
</g>
<!-- Node2 -->
<g id="node2" class="node"><title>Node2</title>
<g id="a_node2"><a xlink:href="../../d6/dc7/class_j_s_o_n_node.html#af62ca04ab8ca3ab879d1bb26a52780dd" target="_top" xlink:title="JSONNode::begin">
<polygon fill="white" stroke="black" points="179,-104.5 179,-125.5 291,-125.5 291,-104.5 179,-104.5"/>
<text text-anchor="middle" x="235" y="-111.9" font-family="Helvetica,sans-Serif" font-size="12.00">JSONNode::begin</text>
</a>
</g>
</g>
<!-- Node1&#45;&gt;Node2 -->
<g id="edge1" class="edge"><title>Node1&#45;&gt;Node2</title>
<path fill="none" stroke="midnightblue" d="M102.711,-86.554C125.122,-91.4097 151.894,-97.2103 175.399,-102.303"/>
<polygon fill="midnightblue" stroke="midnightblue" points="174.736,-105.741 185.25,-104.438 176.218,-98.8994 174.736,-105.741"/>
</g>
<!-- Node3 -->
<g id="node3" class="node"><title>Node3</title>
<g id="a_node3"><a xlink:href="../../d6/dc7/class_j_s_o_n_node.html#a8edf73e69435ea34f5ffde8c9ccad7c6" target="_top" xlink:title="JSONNode::type">
<polygon fill="white" stroke="black" points="405,-85.5 405,-106.5 509,-106.5 509,-85.5 405,-85.5"/>
<text text-anchor="middle" x="457" y="-92.9" font-family="Helvetica,sans-Serif" font-size="12.00">JSONNode::type</text>
</a>
</g>
</g>
<!-- Node1&#45;&gt;Node3 -->
<g id="edge10" class="edge"><title>Node1&#45;&gt;Node3</title>
<path fill="none" stroke="midnightblue" d="M106.142,-78.5941C180.251,-82.2811 315.78,-89.0239 394.634,-92.947"/>
<polygon fill="midnightblue" stroke="midnightblue" points="394.74,-96.4565 404.902,-93.4578 395.088,-89.4651 394.74,-96.4565"/>
</g>
<!-- Node4 -->
<g id="node4" class="node"><title>Node4</title>
<g id="a_node4"><a xlink:href="../../d6/dc7/class_j_s_o_n_node.html#a40fb037e147141fa07f90fe419e3a7a2" target="_top" xlink:title="JSONNode::makeUniqueInternal">
<polygon fill="white" stroke="black" points="142.5,-26.5 142.5,-47.5 327.5,-47.5 327.5,-26.5 142.5,-26.5"/>
<text text-anchor="middle" x="235" y="-33.9" font-family="Helvetica,sans-Serif" font-size="12.00">JSONNode::makeUniqueInternal</text>
</a>
</g>
</g>
<!-- Node1&#45;&gt;Node4 -->
<g id="edge3" class="edge"><title>Node1&#45;&gt;Node4</title>
<path fill="none" stroke="midnightblue" d="M102.711,-65.446C125.122,-60.5903 151.894,-54.7897 175.399,-49.6969"/>
<polygon fill="midnightblue" stroke="midnightblue" points="176.218,-53.1006 185.25,-47.5624 174.736,-46.2594 176.218,-53.1006"/>
</g>
<!-- Node2&#45;&gt;Node3 -->
<g id="edge2" class="edge"><title>Node2&#45;&gt;Node3</title>
<path fill="none" stroke="midnightblue" d="M291.231,-110.23C322.701,-107.512 362.199,-104.101 394.634,-101.3"/>
<polygon fill="midnightblue" stroke="midnightblue" points="395.236,-104.761 404.898,-100.413 394.634,-97.7869 395.236,-104.761"/>
</g>
<!-- Node5 -->
<g id="node5" class="node"><title>Node5</title>
<g id="a_node5"><a xlink:href="../../d1/d0b/classinternal_j_s_o_n_node.html#a72b82897da17766d09a3e4ea4a743cf1" target="_top" xlink:title="internalJSONNode::makeUnique">
<polygon fill="white" stroke="black" points="364,-26.5 364,-47.5 550,-47.5 550,-26.5 364,-26.5"/>
<text text-anchor="middle" x="457" y="-33.9" font-family="Helvetica,sans-Serif" font-size="12.00">internalJSONNode::makeUnique</text>
</a>
</g>
</g>
<!-- Node4&#45;&gt;Node5 -->
<g id="edge4" class="edge"><title>Node4&#45;&gt;Node5</title>
<path fill="none" stroke="midnightblue" d="M327.707,-37C336.266,-37 344.977,-37 353.624,-37"/>
<polygon fill="midnightblue" stroke="midnightblue" points="353.734,-40.5001 363.734,-37 353.734,-33.5001 353.734,-40.5001"/>
</g>
<!-- Node6 -->
<g id="node6" class="node"><title>Node6</title>
<g id="a_node6"><a xlink:href="../../d1/d0b/classinternal_j_s_o_n_node.html#a1d79eee0bbd754c13edac1498e3a7a3d" target="_top" xlink:title="internalJSONNode::decRef">
<polygon fill="white" stroke="black" points="596,-46.5 596,-67.5 754,-67.5 754,-46.5 596,-46.5"/>
<text text-anchor="middle" x="675" y="-53.9" font-family="Helvetica,sans-Serif" font-size="12.00">internalJSONNode::decRef</text>
</a>
</g>
</g>
<!-- Node5&#45;&gt;Node6 -->
<g id="edge5" class="edge"><title>Node5&#45;&gt;Node6</title>
<path fill="none" stroke="midnightblue" d="M550.23,-45.5398C561.936,-46.6237 573.896,-47.7311 585.541,-48.8094"/>
<polygon fill="midnightblue" stroke="midnightblue" points="585.4,-52.3112 595.68,-49.7482 586.046,-45.341 585.4,-52.3112"/>
</g>
<!-- Node7 -->
<g id="node7" class="node"><title>Node7</title>
<g id="a_node7"><a xlink:href="../../d1/d0b/classinternal_j_s_o_n_node.html#a5656ff403a9a79fce1812aacee620fdd" target="_top" xlink:title="internalJSONNode::newInternal">
<polygon fill="white" stroke="black" points="586,-6.5 586,-27.5 764,-27.5 764,-6.5 586,-6.5"/>
<text text-anchor="middle" x="675" y="-13.9" font-family="Helvetica,sans-Serif" font-size="12.00">internalJSONNode::newInternal</text>
</a>
</g>
</g>
<!-- Node5&#45;&gt;Node7 -->
<g id="edge6" class="edge"><title>Node5&#45;&gt;Node7</title>
<path fill="none" stroke="midnightblue" d="M550.23,-28.4602C558.719,-27.6742 567.34,-26.8759 575.879,-26.0853"/>
<polygon fill="midnightblue" stroke="midnightblue" points="576.217,-29.5691 585.851,-25.1619 575.571,-22.5989 576.217,-29.5691"/>
</g>
<!-- Node8 -->
<g id="node8" class="node"><title>Node8</title>
<g id="a_node8"><a xlink:href="../../d1/d0b/classinternal_j_s_o_n_node.html#afb952c1e0ebf1928ecccd9a205baa0db" target="_top" xlink:title="internalJSONNode::internal\lJSONNode">
<polygon fill="white" stroke="black" points="800,-0 800,-34 958,-34 958,-0 800,-0"/>
<text text-anchor="start" x="808" y="-20.4" font-family="Helvetica,sans-Serif" font-size="12.00">internalJSONNode::internal</text>
<text text-anchor="middle" x="879" y="-7.4" font-family="Helvetica,sans-Serif" font-size="12.00">JSONNode</text>
</a>
</g>
</g>
<!-- Node7&#45;&gt;Node8 -->
<g id="edge7" class="edge"><title>Node7&#45;&gt;Node8</title>
<path fill="none" stroke="midnightblue" d="M764.013,-17C772.478,-17 781.067,-17 789.537,-17"/>
<polygon fill="midnightblue" stroke="midnightblue" points="789.793,-20.5001 799.793,-17 789.793,-13.5001 789.793,-20.5001"/>
</g>
<!-- Node9 -->
<g id="node9" class="node"><title>Node9</title>
<g id="a_node9"><a xlink:href="../../db/d49/classjson_children.html#ac71d832f3f81306fcb13e6f581f4431a" target="_top" xlink:title="jsonChildren::newChildren">
<polygon fill="white" stroke="black" points="994,-6.5 994,-27.5 1146,-27.5 1146,-6.5 994,-6.5"/>
<text text-anchor="middle" x="1070" y="-13.9" font-family="Helvetica,sans-Serif" font-size="12.00">jsonChildren::newChildren</text>
</a>
</g>
</g>
<!-- Node8&#45;&gt;Node9 -->
<g id="edge8" class="edge"><title>Node8&#45;&gt;Node9</title>
<path fill="none" stroke="midnightblue" d="M958.238,-17C966.613,-17 975.163,-17 983.616,-17"/>
<polygon fill="midnightblue" stroke="midnightblue" points="983.859,-20.5001 993.859,-17 983.859,-13.5001 983.859,-20.5001"/>
</g>
<!-- Node10 -->
<g id="node10" class="node"><title>Node10</title>
<g id="a_node10"><a xlink:href="../../db/d49/classjson_children.html#aa31b15a1d697846a9c2a8a710b2ba6f1" target="_top" xlink:title="jsonChildren::jsonChildren">
<polygon fill="white" stroke="black" points="1182,-6.5 1182,-27.5 1334,-27.5 1334,-6.5 1182,-6.5"/>
<text text-anchor="middle" x="1258" y="-13.9" font-family="Helvetica,sans-Serif" font-size="12.00">jsonChildren::jsonChildren</text>
</a>
</g>
</g>
<!-- Node9&#45;&gt;Node10 -->
<g id="edge9" class="edge"><title>Node9&#45;&gt;Node10</title>
<path fill="none" stroke="midnightblue" d="M1146.12,-17C1154.6,-17 1163.28,-17 1171.87,-17"/>
<polygon fill="midnightblue" stroke="midnightblue" points="1171.9,-20.5001 1181.9,-17 1171.9,-13.5001 1171.9,-20.5001"/>
</g>
</g>
</svg>
