<?xml version="1.0" encoding="UTF-8" standalone="no"?>
<!DOCTYPE svg PUBLIC "-//W3C//DTD SVG 1.1//EN"
 "http://www.w3.org/Graphics/SVG/1.1/DTD/svg11.dtd">
<!-- Generated by graphviz version 2.34.0 (20130907.0111)
 -->
<!-- Title: JSONNode::push_back Pages: 1 -->
<svg width="1314pt" height="102pt"
 viewBox="0.00 0.00 1314.00 102.00" xmlns="http://www.w3.org/2000/svg" xmlns:xlink="http://www.w3.org/1999/xlink">
<g id="graph0" class="graph" transform="scale(1 1) rotate(0) translate(4 98)">
<title>JSONNode::push_back</title>
<polygon fill="white" stroke="white" points="-4,4 -4,-98 1310,-98 1310,4 -4,4"/>
<!-- Node1 -->
<g id="node1" class="node"><title>Node1</title>
<polygon fill="#bfbfbf" stroke="black" points="0,-52.5 0,-73.5 140,-73.5 140,-52.5 0,-52.5"/>
<text text-anchor="middle" x="70" y="-59.9" font-family="Helvetica,sans-Serif" font-size="12.00">JSONNode::push_back</text>
</g>
<!-- Node2 -->
<g id="node2" class="node"><title>Node2</title>
<g id="a_node2"><a xlink:href="../../d3/d71/jsonhelpers_8h.html#a3a69c2987d346d326aeffb52183db0f4" target="_top" xlink:title="prepareTestSettings">
<polygon fill="white" stroke="black" points="176.5,-52.5 176.5,-73.5 299.5,-73.5 299.5,-52.5 176.5,-52.5"/>
<text text-anchor="middle" x="238" y="-59.9" font-family="Helvetica,sans-Serif" font-size="12.00">prepareTestSettings</text>
</a>
</g>
</g>
<!-- Node1&#45;&gt;Node2 -->
<g id="edge1" class="edge"><title>Node1&#45;&gt;Node2</title>
<path fill="none" stroke="midnightblue" d="M150.55,-63C159.204,-63 167.908,-63 176.285,-63"/>
<polygon fill="midnightblue" stroke="midnightblue" points="150.437,-59.5001 140.437,-63 150.437,-66.5001 150.437,-59.5001"/>
</g>
<!-- Node3 -->
<g id="node3" class="node"><title>Node3</title>
<g id="a_node3"><a xlink:href="../../da/d92/class_image_test.html#a7334d76c1cc6780f46626be5b9ff1adb" target="_top" xlink:title="Runs the test pointed to by m_imatestFunc. ">
<polygon fill="white" stroke="black" points="336,-52.5 336,-73.5 434,-73.5 434,-52.5 336,-52.5"/>
<text text-anchor="middle" x="385" y="-59.9" font-family="Helvetica,sans-Serif" font-size="12.00">ImageTest::Run</text>
</a>
</g>
</g>
<!-- Node2&#45;&gt;Node3 -->
<g id="edge2" class="edge"><title>Node2&#45;&gt;Node3</title>
<path fill="none" stroke="midnightblue" d="M309.657,-63C318.557,-63 327.494,-63 335.931,-63"/>
<polygon fill="midnightblue" stroke="midnightblue" points="309.653,-59.5001 299.653,-63 309.653,-66.5001 309.653,-59.5001"/>
</g>
<!-- Node4 -->
<g id="node4" class="node"><title>Node4</title>
<g id="a_node4"><a xlink:href="../../da/d92/class_image_test.html#accf2cfff6fe48fd19888727208dd6728" target="_top" xlink:title="ImageTest::Run">
<polygon fill="white" stroke="black" points="491,-72.5 491,-93.5 589,-93.5 589,-72.5 491,-72.5"/>
<text text-anchor="middle" x="540" y="-79.9" font-family="Helvetica,sans-Serif" font-size="12.00">ImageTest::Run</text>
</a>
</g>
</g>
<!-- Node3&#45;&gt;Node4 -->
<g id="edge3" class="edge"><title>Node3&#45;&gt;Node4</title>
<path fill="none" stroke="midnightblue" d="M444.338,-70.6259C459.716,-72.6361 476.134,-74.7822 490.905,-76.713"/>
<polygon fill="midnightblue" stroke="midnightblue" points="444.779,-67.1539 434.41,-69.3281 443.872,-74.0948 444.779,-67.1539"/>
</g>
<!-- Node5 -->
<g id="node5" class="node"><title>Node5</title>
<g id="a_node5"><a xlink:href="../../da/d92/class_image_test.html#a372478d09c06cd7ab3684840add6215e" target="_top" xlink:title="param must be a pointer to a ThreadControl object; param&#45;&gt;m_data must point to an ImageTest object ...">
<polygon fill="white" stroke="black" points="470.5,-32.5 470.5,-53.5 609.5,-53.5 609.5,-32.5 470.5,-32.5"/>
<text text-anchor="middle" x="540" y="-39.9" font-family="Helvetica,sans-Serif" font-size="12.00">ImageTest::ThreadProc</text>
</a>
</g>
</g>
<!-- Node3&#45;&gt;Node5 -->
<g id="edge4" class="edge"><title>Node3&#45;&gt;Node5</title>
<path fill="none" stroke="midnightblue" d="M444.571,-55.3437C453.052,-54.2351 461.845,-53.0857 470.499,-51.9543"/>
<polygon fill="midnightblue" stroke="midnightblue" points="443.872,-51.9052 434.41,-56.6719 444.779,-58.8461 443.872,-51.9052"/>
</g>
<!-- Node6 -->
<g id="node6" class="node"><title>Node6</title>
<g id="a_node6"><a xlink:href="../../d3/d9f/class_c_operator_console_app.html#a51ad7e6e8f370072c3e89d0d7e9e41a8" target="_top" xlink:title="COperatorConsoleApp\l::InitBlemishThread">
<polygon fill="white" stroke="black" points="646.5,-53 646.5,-87 783.5,-87 783.5,-53 646.5,-53"/>
<text text-anchor="start" x="654.5" y="-73.4" font-family="Helvetica,sans-Serif" font-size="12.00">COperatorConsoleApp</text>
<text text-anchor="middle" x="715" y="-60.4" font-family="Helvetica,sans-Serif" font-size="12.00">::InitBlemishThread</text>
</a>
</g>
</g>
<!-- Node5&#45;&gt;Node6 -->
<g id="edge5" class="edge"><title>Node5&#45;&gt;Node6</title>
<path fill="none" stroke="midnightblue" d="M618.382,-55.077C627.669,-56.5264 637.097,-57.9978 646.233,-59.4236"/>
<polygon fill="midnightblue" stroke="midnightblue" points="618.802,-51.6002 608.382,-53.5162 617.722,-58.5165 618.802,-51.6002"/>
</g>
<!-- Node12 -->
<g id="node12" class="node"><title>Node12</title>
<g id="a_node12"><a xlink:href="../../d3/d9f/class_c_operator_console_app.html#af7328d2c00abb1d4a09a65492c69b2b0" target="_top" xlink:title="COperatorConsoleApp\l::InitSFRplusThread">
<polygon fill="white" stroke="black" points="646.5,-0 646.5,-34 783.5,-34 783.5,-0 646.5,-0"/>
<text text-anchor="start" x="654.5" y="-20.4" font-family="Helvetica,sans-Serif" font-size="12.00">COperatorConsoleApp</text>
<text text-anchor="middle" x="715" y="-7.4" font-family="Helvetica,sans-Serif" font-size="12.00">::InitSFRplusThread</text>
</a>
</g>
</g>
<!-- Node5&#45;&gt;Node12 -->
<g id="edge11" class="edge"><title>Node5&#45;&gt;Node12</title>
<path fill="none" stroke="midnightblue" d="M619.852,-31.1494C628.751,-29.812 637.759,-28.4583 646.494,-27.1454"/>
<polygon fill="midnightblue" stroke="midnightblue" points="619.24,-27.702 609.871,-32.6494 620.28,-34.6243 619.24,-27.702"/>
</g>
<!-- Node7 -->
<g id="node7" class="node"><title>Node7</title>
<g id="a_node7"><a xlink:href="../../d3/d9f/class_c_operator_console_app.html#a7f0cd7b21cee2171dea973e4e6e7bb9d" target="_top" xlink:title="Init perform application&#45;specific initialization. ">
<polygon fill="white" stroke="black" points="820.5,-53 820.5,-87 957.5,-87 957.5,-53 820.5,-53"/>
<text text-anchor="start" x="828.5" y="-73.4" font-family="Helvetica,sans-Serif" font-size="12.00">COperatorConsoleApp</text>
<text text-anchor="middle" x="889" y="-60.4" font-family="Helvetica,sans-Serif" font-size="12.00">::Init</text>
</a>
</g>
</g>
<!-- Node6&#45;&gt;Node7 -->
<g id="edge6" class="edge"><title>Node6&#45;&gt;Node7</title>
<path fill="none" stroke="midnightblue" d="M794.134,-70C802.846,-70 811.666,-70 820.233,-70"/>
<polygon fill="midnightblue" stroke="midnightblue" points="793.979,-66.5001 783.979,-70 793.979,-73.5001 793.979,-66.5001"/>
</g>
<!-- Node9 -->
<g id="node9" class="node"><title>Node9</title>
<g id="a_node9"><a xlink:href="../../d3/d9f/class_c_operator_console_app.html#aede77af6cae8053d49c752fd95910728" target="_top" xlink:title="This function allows for reallocation of the various image buffers when we change the image size...">
<polygon fill="white" stroke="black" points="820.5,-0 820.5,-34 957.5,-34 957.5,-0 820.5,-0"/>
<text text-anchor="start" x="828.5" y="-20.4" font-family="Helvetica,sans-Serif" font-size="12.00">COperatorConsoleApp</text>
<text text-anchor="middle" x="889" y="-7.4" font-family="Helvetica,sans-Serif" font-size="12.00">::ReInit</text>
</a>
</g>
</g>
<!-- Node6&#45;&gt;Node9 -->
<g id="edge8" class="edge"><title>Node6&#45;&gt;Node9</title>
<path fill="none" stroke="midnightblue" d="M781.212,-49.9056C798.193,-44.6732 816.324,-39.0863 832.735,-34.0293"/>
<polygon fill="midnightblue" stroke="midnightblue" points="779.895,-46.6491 771.369,-52.9387 781.956,-53.3387 779.895,-46.6491"/>
</g>
<!-- Node8 -->
<g id="node8" class="node"><title>Node8</title>
<g id="a_node8"><a xlink:href="../../d3/d9f/class_c_operator_console_app.html#a94f4b258145e77e31644beb999bf099a" target="_top" xlink:title="COperatorConsoleApp initialization. ">
<polygon fill="white" stroke="black" points="994.5,-53 994.5,-87 1131.5,-87 1131.5,-53 994.5,-53"/>
<text text-anchor="start" x="1002.5" y="-73.4" font-family="Helvetica,sans-Serif" font-size="12.00">COperatorConsoleApp</text>
<text text-anchor="middle" x="1063" y="-60.4" font-family="Helvetica,sans-Serif" font-size="12.00">::InitInstance</text>
</a>
</g>
</g>
<!-- Node7&#45;&gt;Node8 -->
<g id="edge7" class="edge"><title>Node7&#45;&gt;Node8</title>
<path fill="none" stroke="midnightblue" d="M968.134,-70C976.846,-70 985.666,-70 994.233,-70"/>
<polygon fill="midnightblue" stroke="midnightblue" points="967.979,-66.5001 957.979,-70 967.979,-73.5001 967.979,-66.5001"/>
</g>
<!-- Node10 -->
<g id="node10" class="node"><title>Node10</title>
<g id="a_node10"><a xlink:href="../../d3/d9f/class_c_operator_console_app.html#a620f8d2eed65d743bb177abcb90936e6" target="_top" xlink:title="Called after MSG_SETUP is received. ">
<polygon fill="white" stroke="black" points="994.5,-0 994.5,-34 1131.5,-34 1131.5,-0 994.5,-0"/>
<text text-anchor="start" x="1002.5" y="-20.4" font-family="Helvetica,sans-Serif" font-size="12.00">COperatorConsoleApp</text>
<text text-anchor="middle" x="1063" y="-7.4" font-family="Helvetica,sans-Serif" font-size="12.00">::OnSetup</text>
</a>
</g>
</g>
<!-- Node9&#45;&gt;Node10 -->
<g id="edge9" class="edge"><title>Node9&#45;&gt;Node10</title>
<path fill="none" stroke="midnightblue" d="M968.134,-17C976.846,-17 985.666,-17 994.233,-17"/>
<polygon fill="midnightblue" stroke="midnightblue" points="967.979,-13.5001 957.979,-17 967.979,-20.5001 967.979,-13.5001"/>
</g>
<!-- Node11 -->
<g id="node11" class="node"><title>Node11</title>
<g id="a_node11"><a xlink:href="../../d3/d9f/class_c_operator_console_app.html#a7041d197c4e6549f2cb7219981b4eec1" target="_top" xlink:title="Intercepts messages of interest before Windows or MFC. ">
<polygon fill="white" stroke="black" points="1168,-0 1168,-34 1306,-34 1306,-0 1168,-0"/>
<text text-anchor="start" x="1176" y="-20.4" font-family="Helvetica,sans-Serif" font-size="12.00">COperatorConsoleApp</text>
<text text-anchor="middle" x="1237" y="-7.4" font-family="Helvetica,sans-Serif" font-size="12.00">::PreTranslateMessage</text>
</a>
</g>
</g>
<!-- Node10&#45;&gt;Node11 -->
<g id="edge10" class="edge"><title>Node10&#45;&gt;Node11</title>
<path fill="none" stroke="midnightblue" d="M1142.05,-17C1150.7,-17 1159.45,-17 1167.95,-17"/>
<polygon fill="midnightblue" stroke="midnightblue" points="1141.98,-13.5001 1131.98,-17 1141.98,-20.5001 1141.98,-13.5001"/>
</g>
<!-- Node12&#45;&gt;Node7 -->
<g id="edge12" class="edge"><title>Node12&#45;&gt;Node7</title>
<path fill="none" stroke="midnightblue" d="M781.212,-37.0944C798.193,-42.3268 816.324,-47.9137 832.735,-52.9707"/>
<polygon fill="midnightblue" stroke="midnightblue" points="781.956,-33.6613 771.369,-34.0613 779.895,-40.3509 781.956,-33.6613"/>
</g>
<!-- Node12&#45;&gt;Node9 -->
<g id="edge13" class="edge"><title>Node12&#45;&gt;Node9</title>
<path fill="none" stroke="midnightblue" d="M794.134,-17C802.846,-17 811.666,-17 820.233,-17"/>
<polygon fill="midnightblue" stroke="midnightblue" points="793.979,-13.5001 783.979,-17 793.979,-20.5001 793.979,-13.5001"/>
</g>
</g>
</svg>
