<?xml version="1.0" encoding="UTF-8" standalone="no"?>
<!DOCTYPE svg PUBLIC "-//W3C//DTD SVG 1.1//EN"
 "http://www.w3.org/Graphics/SVG/1.1/DTD/svg11.dtd">
<!-- Generated by graphviz version 2.34.0 (20130907.0111)
 -->
<!-- Title: JSONNode::clear Pages: 1 -->
<svg width="1344pt" height="96pt"
 viewBox="0.00 0.00 1344.00 96.00" xmlns="http://www.w3.org/2000/svg" xmlns:xlink="http://www.w3.org/1999/xlink">
<g id="graph0" class="graph" transform="scale(1 1) rotate(0) translate(4 92)">
<title>JSONNode::clear</title>
<polygon fill="white" stroke="white" points="-4,4 -4,-92 1340,-92 1340,4 -4,4"/>
<!-- Node1 -->
<g id="node1" class="node"><title>Node1</title>
<polygon fill="#bfbfbf" stroke="black" points="0,-46.5 0,-67.5 108,-67.5 108,-46.5 0,-46.5"/>
<text text-anchor="middle" x="54" y="-53.9" font-family="Helvetica,sans-Serif" font-size="12.00">JSONNode::clear</text>
</g>
<!-- Node2 -->
<g id="node2" class="node"><title>Node2</title>
<g id="a_node2"><a xlink:href="../../d6/dc7/class_j_s_o_n_node.html#a6de0b6f4b77ae1327fedd727e2b83b47" target="_top" xlink:title="JSONNode::empty">
<polygon fill="white" stroke="black" points="180,-66.5 180,-87.5 294,-87.5 294,-66.5 180,-66.5"/>
<text text-anchor="middle" x="237" y="-73.9" font-family="Helvetica,sans-Serif" font-size="12.00">JSONNode::empty</text>
</a>
</g>
</g>
<!-- Node1&#45;&gt;Node2 -->
<g id="edge1" class="edge"><title>Node1&#45;&gt;Node2</title>
<path fill="none" stroke="midnightblue" d="M108.327,-62.8925C127.596,-65.0216 149.586,-67.4514 169.823,-69.6876"/>
<polygon fill="midnightblue" stroke="midnightblue" points="169.584,-73.1825 179.908,-70.802 170.353,-66.2248 169.584,-73.1825"/>
</g>
<!-- Node3 -->
<g id="node3" class="node"><title>Node3</title>
<g id="a_node3"><a xlink:href="../../d6/dc7/class_j_s_o_n_node.html#a40fb037e147141fa07f90fe419e3a7a2" target="_top" xlink:title="JSONNode::makeUniqueInternal">
<polygon fill="white" stroke="black" points="144.5,-26.5 144.5,-47.5 329.5,-47.5 329.5,-26.5 144.5,-26.5"/>
<text text-anchor="middle" x="237" y="-33.9" font-family="Helvetica,sans-Serif" font-size="12.00">JSONNode::makeUniqueInternal</text>
</a>
</g>
</g>
<!-- Node1&#45;&gt;Node3 -->
<g id="edge2" class="edge"><title>Node1&#45;&gt;Node3</title>
<path fill="none" stroke="midnightblue" d="M108.327,-51.1075C116.585,-50.195 125.344,-49.2272 134.249,-48.2432"/>
<polygon fill="midnightblue" stroke="midnightblue" points="134.793,-51.7045 144.348,-47.1273 134.024,-44.7468 134.793,-51.7045"/>
</g>
<!-- Node4 -->
<g id="node4" class="node"><title>Node4</title>
<g id="a_node4"><a xlink:href="../../d1/d0b/classinternal_j_s_o_n_node.html#a72b82897da17766d09a3e4ea4a743cf1" target="_top" xlink:title="internalJSONNode::makeUnique">
<polygon fill="white" stroke="black" points="366,-26.5 366,-47.5 552,-47.5 552,-26.5 366,-26.5"/>
<text text-anchor="middle" x="459" y="-33.9" font-family="Helvetica,sans-Serif" font-size="12.00">internalJSONNode::makeUnique</text>
</a>
</g>
</g>
<!-- Node3&#45;&gt;Node4 -->
<g id="edge3" class="edge"><title>Node3&#45;&gt;Node4</title>
<path fill="none" stroke="midnightblue" d="M329.707,-37C338.266,-37 346.977,-37 355.624,-37"/>
<polygon fill="midnightblue" stroke="midnightblue" points="355.734,-40.5001 365.734,-37 355.734,-33.5001 355.734,-40.5001"/>
</g>
<!-- Node5 -->
<g id="node5" class="node"><title>Node5</title>
<g id="a_node5"><a xlink:href="../../d1/d0b/classinternal_j_s_o_n_node.html#a1d79eee0bbd754c13edac1498e3a7a3d" target="_top" xlink:title="internalJSONNode::decRef">
<polygon fill="white" stroke="black" points="598,-46.5 598,-67.5 756,-67.5 756,-46.5 598,-46.5"/>
<text text-anchor="middle" x="677" y="-53.9" font-family="Helvetica,sans-Serif" font-size="12.00">internalJSONNode::decRef</text>
</a>
</g>
</g>
<!-- Node4&#45;&gt;Node5 -->
<g id="edge4" class="edge"><title>Node4&#45;&gt;Node5</title>
<path fill="none" stroke="midnightblue" d="M552.23,-45.5398C563.936,-46.6237 575.896,-47.7311 587.541,-48.8094"/>
<polygon fill="midnightblue" stroke="midnightblue" points="587.4,-52.3112 597.68,-49.7482 588.046,-45.341 587.4,-52.3112"/>
</g>
<!-- Node6 -->
<g id="node6" class="node"><title>Node6</title>
<g id="a_node6"><a xlink:href="../../d1/d0b/classinternal_j_s_o_n_node.html#a5656ff403a9a79fce1812aacee620fdd" target="_top" xlink:title="internalJSONNode::newInternal">
<polygon fill="white" stroke="black" points="588,-6.5 588,-27.5 766,-27.5 766,-6.5 588,-6.5"/>
<text text-anchor="middle" x="677" y="-13.9" font-family="Helvetica,sans-Serif" font-size="12.00">internalJSONNode::newInternal</text>
</a>
</g>
</g>
<!-- Node4&#45;&gt;Node6 -->
<g id="edge5" class="edge"><title>Node4&#45;&gt;Node6</title>
<path fill="none" stroke="midnightblue" d="M552.23,-28.4602C560.719,-27.6742 569.34,-26.8759 577.879,-26.0853"/>
<polygon fill="midnightblue" stroke="midnightblue" points="578.217,-29.5691 587.851,-25.1619 577.571,-22.5989 578.217,-29.5691"/>
</g>
<!-- Node7 -->
<g id="node7" class="node"><title>Node7</title>
<g id="a_node7"><a xlink:href="../../d1/d0b/classinternal_j_s_o_n_node.html#afb952c1e0ebf1928ecccd9a205baa0db" target="_top" xlink:title="internalJSONNode::internal\lJSONNode">
<polygon fill="white" stroke="black" points="802,-0 802,-34 960,-34 960,-0 802,-0"/>
<text text-anchor="start" x="810" y="-20.4" font-family="Helvetica,sans-Serif" font-size="12.00">internalJSONNode::internal</text>
<text text-anchor="middle" x="881" y="-7.4" font-family="Helvetica,sans-Serif" font-size="12.00">JSONNode</text>
</a>
</g>
</g>
<!-- Node6&#45;&gt;Node7 -->
<g id="edge6" class="edge"><title>Node6&#45;&gt;Node7</title>
<path fill="none" stroke="midnightblue" d="M766.013,-17C774.478,-17 783.067,-17 791.537,-17"/>
<polygon fill="midnightblue" stroke="midnightblue" points="791.793,-20.5001 801.793,-17 791.793,-13.5001 791.793,-20.5001"/>
</g>
<!-- Node8 -->
<g id="node8" class="node"><title>Node8</title>
<g id="a_node8"><a xlink:href="../../db/d49/classjson_children.html#ac71d832f3f81306fcb13e6f581f4431a" target="_top" xlink:title="jsonChildren::newChildren">
<polygon fill="white" stroke="black" points="996,-6.5 996,-27.5 1148,-27.5 1148,-6.5 996,-6.5"/>
<text text-anchor="middle" x="1072" y="-13.9" font-family="Helvetica,sans-Serif" font-size="12.00">jsonChildren::newChildren</text>
</a>
</g>
</g>
<!-- Node7&#45;&gt;Node8 -->
<g id="edge7" class="edge"><title>Node7&#45;&gt;Node8</title>
<path fill="none" stroke="midnightblue" d="M960.238,-17C968.613,-17 977.163,-17 985.616,-17"/>
<polygon fill="midnightblue" stroke="midnightblue" points="985.859,-20.5001 995.859,-17 985.859,-13.5001 985.859,-20.5001"/>
</g>
<!-- Node9 -->
<g id="node9" class="node"><title>Node9</title>
<g id="a_node9"><a xlink:href="../../db/d49/classjson_children.html#aa31b15a1d697846a9c2a8a710b2ba6f1" target="_top" xlink:title="jsonChildren::jsonChildren">
<polygon fill="white" stroke="black" points="1184,-6.5 1184,-27.5 1336,-27.5 1336,-6.5 1184,-6.5"/>
<text text-anchor="middle" x="1260" y="-13.9" font-family="Helvetica,sans-Serif" font-size="12.00">jsonChildren::jsonChildren</text>
</a>
</g>
</g>
<!-- Node8&#45;&gt;Node9 -->
<g id="edge8" class="edge"><title>Node8&#45;&gt;Node9</title>
<path fill="none" stroke="midnightblue" d="M1148.12,-17C1156.6,-17 1165.28,-17 1173.87,-17"/>
<polygon fill="midnightblue" stroke="midnightblue" points="1173.9,-20.5001 1183.9,-17 1173.9,-13.5001 1173.9,-20.5001"/>
</g>
</g>
</svg>
