<?xml version="1.0" encoding="UTF-8" standalone="no"?>
<!DOCTYPE svg PUBLIC "-//W3C//DTD SVG 1.1//EN"
 "http://www.w3.org/Graphics/SVG/1.1/DTD/svg11.dtd">
<!-- Generated by graphviz version 2.34.0 (20130907.0111)
 -->
<!-- Title: JSONNode::as_node Pages: 1 -->
<svg width="1544pt" height="130pt"
 viewBox="0.00 0.00 1544.00 130.00" xmlns="http://www.w3.org/2000/svg" xmlns:xlink="http://www.w3.org/1999/xlink">
<g id="graph0" class="graph" transform="scale(1 1) rotate(0) translate(4 126)">
<title>JSONNode::as_node</title>
<polygon fill="white" stroke="white" points="-4,4 -4,-126 1540,-126 1540,4 -4,4"/>
<!-- Node1 -->
<g id="node1" class="node"><title>Node1</title>
<polygon fill="#bfbfbf" stroke="black" points="0,-40.5 0,-61.5 128,-61.5 128,-40.5 0,-40.5"/>
<text text-anchor="middle" x="64" y="-47.9" font-family="Helvetica,sans-Serif" font-size="12.00">JSONNode::as_node</text>
</g>
<!-- Node2 -->
<g id="node2" class="node"><title>Node2</title>
<g id="a_node2"><a xlink:href="../../d6/dc7/class_j_s_o_n_node.html#ae61d84dcd82f1261ef3bb219229e468f" target="_top" xlink:title="JSONNode::duplicate">
<polygon fill="white" stroke="black" points="171,-80.5 171,-101.5 301,-101.5 301,-80.5 171,-80.5"/>
<text text-anchor="middle" x="236" y="-87.9" font-family="Helvetica,sans-Serif" font-size="12.00">JSONNode::duplicate</text>
</a>
</g>
</g>
<!-- Node1&#45;&gt;Node2 -->
<g id="edge1" class="edge"><title>Node1&#45;&gt;Node2</title>
<path fill="none" stroke="midnightblue" d="M109.665,-61.5095C131.346,-66.6108 157.584,-72.7845 180.439,-78.1622"/>
<polygon fill="midnightblue" stroke="midnightblue" points="179.802,-81.6078 190.338,-80.4913 181.405,-74.7939 179.802,-81.6078"/>
</g>
<!-- Node10 -->
<g id="node10" class="node"><title>Node10</title>
<g id="a_node10"><a xlink:href="../../d6/dc7/class_j_s_o_n_node.html#aba2db3c5af33c64e0cdccd33d18adc59" target="_top" xlink:title="JSONNode::JSONNode">
<polygon fill="white" stroke="black" points="164.5,-40.5 164.5,-61.5 307.5,-61.5 307.5,-40.5 164.5,-40.5"/>
<text text-anchor="middle" x="236" y="-47.9" font-family="Helvetica,sans-Serif" font-size="12.00">JSONNode::JSONNode</text>
</a>
</g>
</g>
<!-- Node1&#45;&gt;Node10 -->
<g id="edge9" class="edge"><title>Node1&#45;&gt;Node10</title>
<path fill="none" stroke="midnightblue" d="M128.302,-51C136.715,-51 145.433,-51 154.093,-51"/>
<polygon fill="midnightblue" stroke="midnightblue" points="154.213,-54.5001 164.213,-51 154.213,-47.5001 154.213,-54.5001"/>
</g>
<!-- Node11 -->
<g id="node11" class="node"><title>Node11</title>
<g id="a_node11"><a xlink:href="../../d6/dc7/class_j_s_o_n_node.html#a8edf73e69435ea34f5ffde8c9ccad7c6" target="_top" xlink:title="JSONNode::type">
<polygon fill="white" stroke="black" points="184,-0.5 184,-21.5 288,-21.5 288,-0.5 184,-0.5"/>
<text text-anchor="middle" x="236" y="-7.9" font-family="Helvetica,sans-Serif" font-size="12.00">JSONNode::type</text>
</a>
</g>
</g>
<!-- Node1&#45;&gt;Node11 -->
<g id="edge10" class="edge"><title>Node1&#45;&gt;Node11</title>
<path fill="none" stroke="midnightblue" d="M109.665,-40.4905C131.346,-35.3892 157.584,-29.2155 180.439,-23.8378"/>
<polygon fill="midnightblue" stroke="midnightblue" points="181.405,-27.2061 190.338,-21.5087 179.802,-20.3922 181.405,-27.2061"/>
</g>
<!-- Node3 -->
<g id="node3" class="node"><title>Node3</title>
<g id="a_node3"><a xlink:href="../../d6/dc7/class_j_s_o_n_node.html#a40fb037e147141fa07f90fe419e3a7a2" target="_top" xlink:title="JSONNode::makeUniqueInternal">
<polygon fill="white" stroke="black" points="344.5,-80.5 344.5,-101.5 529.5,-101.5 529.5,-80.5 344.5,-80.5"/>
<text text-anchor="middle" x="437" y="-87.9" font-family="Helvetica,sans-Serif" font-size="12.00">JSONNode::makeUniqueInternal</text>
</a>
</g>
</g>
<!-- Node2&#45;&gt;Node3 -->
<g id="edge2" class="edge"><title>Node2&#45;&gt;Node3</title>
<path fill="none" stroke="midnightblue" d="M301.06,-91C311.586,-91 322.721,-91 333.899,-91"/>
<polygon fill="midnightblue" stroke="midnightblue" points="334.161,-94.5001 344.161,-91 334.161,-87.5001 334.161,-94.5001"/>
</g>
<!-- Node4 -->
<g id="node4" class="node"><title>Node4</title>
<g id="a_node4"><a xlink:href="../../d1/d0b/classinternal_j_s_o_n_node.html#a72b82897da17766d09a3e4ea4a743cf1" target="_top" xlink:title="internalJSONNode::makeUnique">
<polygon fill="white" stroke="black" points="566,-80.5 566,-101.5 752,-101.5 752,-80.5 566,-80.5"/>
<text text-anchor="middle" x="659" y="-87.9" font-family="Helvetica,sans-Serif" font-size="12.00">internalJSONNode::makeUnique</text>
</a>
</g>
</g>
<!-- Node3&#45;&gt;Node4 -->
<g id="edge3" class="edge"><title>Node3&#45;&gt;Node4</title>
<path fill="none" stroke="midnightblue" d="M529.707,-91C538.266,-91 546.977,-91 555.624,-91"/>
<polygon fill="midnightblue" stroke="midnightblue" points="555.734,-94.5001 565.734,-91 555.734,-87.5001 555.734,-94.5001"/>
</g>
<!-- Node5 -->
<g id="node5" class="node"><title>Node5</title>
<g id="a_node5"><a xlink:href="../../d1/d0b/classinternal_j_s_o_n_node.html#a1d79eee0bbd754c13edac1498e3a7a3d" target="_top" xlink:title="internalJSONNode::decRef">
<polygon fill="white" stroke="black" points="798,-100.5 798,-121.5 956,-121.5 956,-100.5 798,-100.5"/>
<text text-anchor="middle" x="877" y="-107.9" font-family="Helvetica,sans-Serif" font-size="12.00">internalJSONNode::decRef</text>
</a>
</g>
</g>
<!-- Node4&#45;&gt;Node5 -->
<g id="edge4" class="edge"><title>Node4&#45;&gt;Node5</title>
<path fill="none" stroke="midnightblue" d="M752.23,-99.5398C763.936,-100.624 775.896,-101.731 787.541,-102.809"/>
<polygon fill="midnightblue" stroke="midnightblue" points="787.4,-106.311 797.68,-103.748 788.046,-99.341 787.4,-106.311"/>
</g>
<!-- Node6 -->
<g id="node6" class="node"><title>Node6</title>
<g id="a_node6"><a xlink:href="../../d1/d0b/classinternal_j_s_o_n_node.html#a5656ff403a9a79fce1812aacee620fdd" target="_top" xlink:title="internalJSONNode::newInternal">
<polygon fill="white" stroke="black" points="788,-60.5 788,-81.5 966,-81.5 966,-60.5 788,-60.5"/>
<text text-anchor="middle" x="877" y="-67.9" font-family="Helvetica,sans-Serif" font-size="12.00">internalJSONNode::newInternal</text>
</a>
</g>
</g>
<!-- Node4&#45;&gt;Node6 -->
<g id="edge5" class="edge"><title>Node4&#45;&gt;Node6</title>
<path fill="none" stroke="midnightblue" d="M752.23,-82.4602C760.719,-81.6742 769.34,-80.8759 777.879,-80.0853"/>
<polygon fill="midnightblue" stroke="midnightblue" points="778.217,-83.5691 787.851,-79.1619 777.571,-76.5989 778.217,-83.5691"/>
</g>
<!-- Node7 -->
<g id="node7" class="node"><title>Node7</title>
<g id="a_node7"><a xlink:href="../../d1/d0b/classinternal_j_s_o_n_node.html#afb952c1e0ebf1928ecccd9a205baa0db" target="_top" xlink:title="internalJSONNode::internal\lJSONNode">
<polygon fill="white" stroke="black" points="1002,-54 1002,-88 1160,-88 1160,-54 1002,-54"/>
<text text-anchor="start" x="1010" y="-74.4" font-family="Helvetica,sans-Serif" font-size="12.00">internalJSONNode::internal</text>
<text text-anchor="middle" x="1081" y="-61.4" font-family="Helvetica,sans-Serif" font-size="12.00">JSONNode</text>
</a>
</g>
</g>
<!-- Node6&#45;&gt;Node7 -->
<g id="edge6" class="edge"><title>Node6&#45;&gt;Node7</title>
<path fill="none" stroke="midnightblue" d="M966.013,-71C974.478,-71 983.067,-71 991.537,-71"/>
<polygon fill="midnightblue" stroke="midnightblue" points="991.793,-74.5001 1001.79,-71 991.793,-67.5001 991.793,-74.5001"/>
</g>
<!-- Node8 -->
<g id="node8" class="node"><title>Node8</title>
<g id="a_node8"><a xlink:href="../../db/d49/classjson_children.html#ac71d832f3f81306fcb13e6f581f4431a" target="_top" xlink:title="jsonChildren::newChildren">
<polygon fill="white" stroke="black" points="1196,-60.5 1196,-81.5 1348,-81.5 1348,-60.5 1196,-60.5"/>
<text text-anchor="middle" x="1272" y="-67.9" font-family="Helvetica,sans-Serif" font-size="12.00">jsonChildren::newChildren</text>
</a>
</g>
</g>
<!-- Node7&#45;&gt;Node8 -->
<g id="edge7" class="edge"><title>Node7&#45;&gt;Node8</title>
<path fill="none" stroke="midnightblue" d="M1160.24,-71C1168.61,-71 1177.16,-71 1185.62,-71"/>
<polygon fill="midnightblue" stroke="midnightblue" points="1185.86,-74.5001 1195.86,-71 1185.86,-67.5001 1185.86,-74.5001"/>
</g>
<!-- Node9 -->
<g id="node9" class="node"><title>Node9</title>
<g id="a_node9"><a xlink:href="../../db/d49/classjson_children.html#aa31b15a1d697846a9c2a8a710b2ba6f1" target="_top" xlink:title="jsonChildren::jsonChildren">
<polygon fill="white" stroke="black" points="1384,-60.5 1384,-81.5 1536,-81.5 1536,-60.5 1384,-60.5"/>
<text text-anchor="middle" x="1460" y="-67.9" font-family="Helvetica,sans-Serif" font-size="12.00">jsonChildren::jsonChildren</text>
</a>
</g>
</g>
<!-- Node8&#45;&gt;Node9 -->
<g id="edge8" class="edge"><title>Node8&#45;&gt;Node9</title>
<path fill="none" stroke="midnightblue" d="M1348.12,-71C1356.6,-71 1365.28,-71 1373.87,-71"/>
<polygon fill="midnightblue" stroke="midnightblue" points="1373.9,-74.5001 1383.9,-71 1373.9,-67.5001 1373.9,-74.5001"/>
</g>
</g>
</svg>
