<?xml version="1.0" encoding="UTF-8" standalone="no"?>
<!DOCTYPE svg PUBLIC "-//W3C//DTD SVG 1.1//EN"
 "http://www.w3.org/Graphics/SVG/1.1/DTD/svg11.dtd">
<!-- Generated by graphviz version 2.34.0 (20130907.0111)
 -->
<!-- Title: JSONNode::set_binary Pages: 1 -->
<svg width="454pt" height="30pt"
 viewBox="0.00 0.00 454.00 30.00" xmlns="http://www.w3.org/2000/svg" xmlns:xlink="http://www.w3.org/1999/xlink">
<g id="graph0" class="graph" transform="scale(1 1) rotate(0) translate(4 26)">
<title>JSONNode::set_binary</title>
<polygon fill="white" stroke="white" points="-4,4 -4,-26 450,-26 450,4 -4,4"/>
<!-- Node1 -->
<g id="node1" class="node"><title>Node1</title>
<polygon fill="#bfbfbf" stroke="black" points="0.5,-0.5 0.5,-21.5 137.5,-21.5 137.5,-0.5 0.5,-0.5"/>
<text text-anchor="middle" x="69" y="-7.9" font-family="Helvetica,sans-Serif" font-size="12.00">JSONNode::set_binary</text>
</g>
<!-- Node2 -->
<g id="node2" class="node"><title>Node2</title>
<g id="a_node2"><a xlink:href="../../dc/d0a/class_j_s_o_n_base64.html#a5c29b5d5de4239569e0f8c80bf04b0b3" target="_top" xlink:title="JSONBase64::json_encode64">
<polygon fill="white" stroke="black" points="174,-0.5 174,-21.5 350,-21.5 350,-0.5 174,-0.5"/>
<text text-anchor="middle" x="262" y="-7.9" font-family="Helvetica,sans-Serif" font-size="12.00">JSONBase64::json_encode64</text>
</a>
</g>
</g>
<!-- Node1&#45;&gt;Node2 -->
<g id="edge1" class="edge"><title>Node1&#45;&gt;Node2</title>
<path fill="none" stroke="midnightblue" d="M137.608,-11C146.016,-11 154.739,-11 163.485,-11"/>
<polygon fill="midnightblue" stroke="midnightblue" points="163.745,-14.5001 173.745,-11 163.745,-7.5001 163.745,-14.5001"/>
</g>
<!-- Node3 -->
<g id="node3" class="node"><title>Node3</title>
<g id="a_node3"><a xlink:href="../../d0/d4c/_documentation_2_operator-_console_2_j_s_o_n_2_j_s_o_n___base64_8cpp.html#a020e9fb20635ef0dfa3f79151f7f975a" target="_top" xlink:title="chars64">
<polygon fill="white" stroke="black" points="386.5,-0.5 386.5,-21.5 445.5,-21.5 445.5,-0.5 386.5,-0.5"/>
<text text-anchor="middle" x="416" y="-7.9" font-family="Helvetica,sans-Serif" font-size="12.00">chars64</text>
</a>
</g>
</g>
<!-- Node2&#45;&gt;Node3 -->
<g id="edge2" class="edge"><title>Node2&#45;&gt;Node3</title>
<path fill="none" stroke="midnightblue" d="M350.097,-11C359.137,-11 367.963,-11 376.048,-11"/>
<polygon fill="midnightblue" stroke="midnightblue" points="376.206,-14.5001 386.206,-11 376.206,-7.5001 376.206,-14.5001"/>
</g>
</g>
</svg>
