<?xml version="1.0" encoding="UTF-8" standalone="no"?>
<!DOCTYPE svg PUBLIC "-//W3C//DTD SVG 1.1//EN"
 "http://www.w3.org/Graphics/SVG/1.1/DTD/svg11.dtd">
<!-- Generated by graphviz version 2.34.0 (20130907.0111)
 -->
<!-- Title: JSONNode::as_array Pages: 1 -->
<svg width="1544pt" height="150pt"
 viewBox="0.00 0.00 1544.00 150.00" xmlns="http://www.w3.org/2000/svg" xmlns:xlink="http://www.w3.org/1999/xlink">
<g id="graph0" class="graph" transform="scale(1 1) rotate(0) translate(4 146)">
<title>JSONNode::as_array</title>
<polygon fill="white" stroke="white" points="-4,4 -4,-146 1540,-146 1540,4 -4,4"/>
<!-- Node1 -->
<g id="node1" class="node"><title>Node1</title>
<polygon fill="#bfbfbf" stroke="black" points="0,-60.5 0,-81.5 128,-81.5 128,-60.5 0,-60.5"/>
<text text-anchor="middle" x="64" y="-67.9" font-family="Helvetica,sans-Serif" font-size="12.00">JSONNode::as_array</text>
</g>
<!-- Node2 -->
<g id="node2" class="node"><title>Node2</title>
<g id="a_node2"><a xlink:href="../../d6/dc7/class_j_s_o_n_node.html#a25976f906aad4da22a065353f1ef5f63" target="_top" xlink:title="JSONNode::clear_name">
<polygon fill="white" stroke="black" points="164,-120.5 164,-141.5 308,-141.5 308,-120.5 164,-120.5"/>
<text text-anchor="middle" x="236" y="-127.9" font-family="Helvetica,sans-Serif" font-size="12.00">JSONNode::clear_name</text>
</a>
</g>
</g>
<!-- Node1&#45;&gt;Node2 -->
<g id="edge1" class="edge"><title>Node1&#45;&gt;Node2</title>
<path fill="none" stroke="midnightblue" d="M89.1311,-81.6138C109.006,-90.1455 138.039,-102.128 164,-111 170.595,-113.254 177.595,-115.453 184.529,-117.519"/>
<polygon fill="midnightblue" stroke="midnightblue" points="184.007,-121.012 194.587,-120.442 185.961,-114.29 184.007,-121.012"/>
</g>
<!-- Node10 -->
<g id="node10" class="node"><title>Node10</title>
<g id="a_node10"><a xlink:href="../../d6/dc7/class_j_s_o_n_node.html#ae61d84dcd82f1261ef3bb219229e468f" target="_top" xlink:title="JSONNode::duplicate">
<polygon fill="white" stroke="black" points="171,-80.5 171,-101.5 301,-101.5 301,-80.5 171,-80.5"/>
<text text-anchor="middle" x="236" y="-87.9" font-family="Helvetica,sans-Serif" font-size="12.00">JSONNode::duplicate</text>
</a>
</g>
</g>
<!-- Node1&#45;&gt;Node10 -->
<g id="edge9" class="edge"><title>Node1&#45;&gt;Node10</title>
<path fill="none" stroke="midnightblue" d="M128.302,-78.4473C138.818,-79.6845 149.809,-80.9775 160.57,-82.2436"/>
<polygon fill="midnightblue" stroke="midnightblue" points="160.454,-85.754 170.795,-83.4464 161.272,-78.8019 160.454,-85.754"/>
</g>
<!-- Node11 -->
<g id="node11" class="node"><title>Node11</title>
<g id="a_node11"><a xlink:href="../../d6/dc7/class_j_s_o_n_node.html#aba2db3c5af33c64e0cdccd33d18adc59" target="_top" xlink:title="JSONNode::JSONNode">
<polygon fill="white" stroke="black" points="164.5,-40.5 164.5,-61.5 307.5,-61.5 307.5,-40.5 164.5,-40.5"/>
<text text-anchor="middle" x="236" y="-47.9" font-family="Helvetica,sans-Serif" font-size="12.00">JSONNode::JSONNode</text>
</a>
</g>
</g>
<!-- Node1&#45;&gt;Node11 -->
<g id="edge11" class="edge"><title>Node1&#45;&gt;Node11</title>
<path fill="none" stroke="midnightblue" d="M128.302,-63.5527C136.715,-62.5629 145.433,-61.5373 154.093,-60.5184"/>
<polygon fill="midnightblue" stroke="midnightblue" points="154.69,-63.9725 164.213,-59.3279 153.872,-57.0204 154.69,-63.9725"/>
</g>
<!-- Node12 -->
<g id="node12" class="node"><title>Node12</title>
<g id="a_node12"><a xlink:href="../../d6/dc7/class_j_s_o_n_node.html#a8edf73e69435ea34f5ffde8c9ccad7c6" target="_top" xlink:title="JSONNode::type">
<polygon fill="white" stroke="black" points="184,-0.5 184,-21.5 288,-21.5 288,-0.5 184,-0.5"/>
<text text-anchor="middle" x="236" y="-7.9" font-family="Helvetica,sans-Serif" font-size="12.00">JSONNode::type</text>
</a>
</g>
</g>
<!-- Node1&#45;&gt;Node12 -->
<g id="edge12" class="edge"><title>Node1&#45;&gt;Node12</title>
<path fill="none" stroke="midnightblue" d="M89.1311,-60.3862C109.006,-51.8545 138.039,-39.8715 164,-31 170.595,-28.7464 177.595,-26.5471 184.529,-24.4809"/>
<polygon fill="midnightblue" stroke="midnightblue" points="185.961,-27.7096 194.587,-21.558 184.007,-20.9877 185.961,-27.7096"/>
</g>
<!-- Node3 -->
<g id="node3" class="node"><title>Node3</title>
<g id="a_node3"><a xlink:href="../../d6/dc7/class_j_s_o_n_node.html#a40fb037e147141fa07f90fe419e3a7a2" target="_top" xlink:title="JSONNode::makeUniqueInternal">
<polygon fill="white" stroke="black" points="344.5,-100.5 344.5,-121.5 529.5,-121.5 529.5,-100.5 344.5,-100.5"/>
<text text-anchor="middle" x="437" y="-107.9" font-family="Helvetica,sans-Serif" font-size="12.00">JSONNode::makeUniqueInternal</text>
</a>
</g>
</g>
<!-- Node2&#45;&gt;Node3 -->
<g id="edge2" class="edge"><title>Node2&#45;&gt;Node3</title>
<path fill="none" stroke="midnightblue" d="M308.001,-123.864C316.516,-123.008 325.336,-122.122 334.18,-121.233"/>
<polygon fill="midnightblue" stroke="midnightblue" points="334.561,-124.713 344.161,-120.23 333.861,-117.748 334.561,-124.713"/>
</g>
<!-- Node4 -->
<g id="node4" class="node"><title>Node4</title>
<g id="a_node4"><a xlink:href="../../d1/d0b/classinternal_j_s_o_n_node.html#a72b82897da17766d09a3e4ea4a743cf1" target="_top" xlink:title="internalJSONNode::makeUnique">
<polygon fill="white" stroke="black" points="566,-100.5 566,-121.5 752,-121.5 752,-100.5 566,-100.5"/>
<text text-anchor="middle" x="659" y="-107.9" font-family="Helvetica,sans-Serif" font-size="12.00">internalJSONNode::makeUnique</text>
</a>
</g>
</g>
<!-- Node3&#45;&gt;Node4 -->
<g id="edge3" class="edge"><title>Node3&#45;&gt;Node4</title>
<path fill="none" stroke="midnightblue" d="M529.707,-111C538.266,-111 546.977,-111 555.624,-111"/>
<polygon fill="midnightblue" stroke="midnightblue" points="555.734,-114.5 565.734,-111 555.734,-107.5 555.734,-114.5"/>
</g>
<!-- Node5 -->
<g id="node5" class="node"><title>Node5</title>
<g id="a_node5"><a xlink:href="../../d1/d0b/classinternal_j_s_o_n_node.html#a1d79eee0bbd754c13edac1498e3a7a3d" target="_top" xlink:title="internalJSONNode::decRef">
<polygon fill="white" stroke="black" points="798,-120.5 798,-141.5 956,-141.5 956,-120.5 798,-120.5"/>
<text text-anchor="middle" x="877" y="-127.9" font-family="Helvetica,sans-Serif" font-size="12.00">internalJSONNode::decRef</text>
</a>
</g>
</g>
<!-- Node4&#45;&gt;Node5 -->
<g id="edge4" class="edge"><title>Node4&#45;&gt;Node5</title>
<path fill="none" stroke="midnightblue" d="M752.23,-119.54C763.936,-120.624 775.896,-121.731 787.541,-122.809"/>
<polygon fill="midnightblue" stroke="midnightblue" points="787.4,-126.311 797.68,-123.748 788.046,-119.341 787.4,-126.311"/>
</g>
<!-- Node6 -->
<g id="node6" class="node"><title>Node6</title>
<g id="a_node6"><a xlink:href="../../d1/d0b/classinternal_j_s_o_n_node.html#a5656ff403a9a79fce1812aacee620fdd" target="_top" xlink:title="internalJSONNode::newInternal">
<polygon fill="white" stroke="black" points="788,-80.5 788,-101.5 966,-101.5 966,-80.5 788,-80.5"/>
<text text-anchor="middle" x="877" y="-87.9" font-family="Helvetica,sans-Serif" font-size="12.00">internalJSONNode::newInternal</text>
</a>
</g>
</g>
<!-- Node4&#45;&gt;Node6 -->
<g id="edge5" class="edge"><title>Node4&#45;&gt;Node6</title>
<path fill="none" stroke="midnightblue" d="M752.23,-102.46C760.719,-101.674 769.34,-100.876 777.879,-100.085"/>
<polygon fill="midnightblue" stroke="midnightblue" points="778.217,-103.569 787.851,-99.1619 777.571,-96.5989 778.217,-103.569"/>
</g>
<!-- Node7 -->
<g id="node7" class="node"><title>Node7</title>
<g id="a_node7"><a xlink:href="../../d1/d0b/classinternal_j_s_o_n_node.html#afb952c1e0ebf1928ecccd9a205baa0db" target="_top" xlink:title="internalJSONNode::internal\lJSONNode">
<polygon fill="white" stroke="black" points="1002,-74 1002,-108 1160,-108 1160,-74 1002,-74"/>
<text text-anchor="start" x="1010" y="-94.4" font-family="Helvetica,sans-Serif" font-size="12.00">internalJSONNode::internal</text>
<text text-anchor="middle" x="1081" y="-81.4" font-family="Helvetica,sans-Serif" font-size="12.00">JSONNode</text>
</a>
</g>
</g>
<!-- Node6&#45;&gt;Node7 -->
<g id="edge6" class="edge"><title>Node6&#45;&gt;Node7</title>
<path fill="none" stroke="midnightblue" d="M966.013,-91C974.478,-91 983.067,-91 991.537,-91"/>
<polygon fill="midnightblue" stroke="midnightblue" points="991.793,-94.5001 1001.79,-91 991.793,-87.5001 991.793,-94.5001"/>
</g>
<!-- Node8 -->
<g id="node8" class="node"><title>Node8</title>
<g id="a_node8"><a xlink:href="../../db/d49/classjson_children.html#ac71d832f3f81306fcb13e6f581f4431a" target="_top" xlink:title="jsonChildren::newChildren">
<polygon fill="white" stroke="black" points="1196,-80.5 1196,-101.5 1348,-101.5 1348,-80.5 1196,-80.5"/>
<text text-anchor="middle" x="1272" y="-87.9" font-family="Helvetica,sans-Serif" font-size="12.00">jsonChildren::newChildren</text>
</a>
</g>
</g>
<!-- Node7&#45;&gt;Node8 -->
<g id="edge7" class="edge"><title>Node7&#45;&gt;Node8</title>
<path fill="none" stroke="midnightblue" d="M1160.24,-91C1168.61,-91 1177.16,-91 1185.62,-91"/>
<polygon fill="midnightblue" stroke="midnightblue" points="1185.86,-94.5001 1195.86,-91 1185.86,-87.5001 1185.86,-94.5001"/>
</g>
<!-- Node9 -->
<g id="node9" class="node"><title>Node9</title>
<g id="a_node9"><a xlink:href="../../db/d49/classjson_children.html#aa31b15a1d697846a9c2a8a710b2ba6f1" target="_top" xlink:title="jsonChildren::jsonChildren">
<polygon fill="white" stroke="black" points="1384,-80.5 1384,-101.5 1536,-101.5 1536,-80.5 1384,-80.5"/>
<text text-anchor="middle" x="1460" y="-87.9" font-family="Helvetica,sans-Serif" font-size="12.00">jsonChildren::jsonChildren</text>
</a>
</g>
</g>
<!-- Node8&#45;&gt;Node9 -->
<g id="edge8" class="edge"><title>Node8&#45;&gt;Node9</title>
<path fill="none" stroke="midnightblue" d="M1348.12,-91C1356.6,-91 1365.28,-91 1373.87,-91"/>
<polygon fill="midnightblue" stroke="midnightblue" points="1373.9,-94.5001 1383.9,-91 1373.9,-87.5001 1373.9,-94.5001"/>
</g>
<!-- Node10&#45;&gt;Node3 -->
<g id="edge10" class="edge"><title>Node10&#45;&gt;Node3</title>
<path fill="none" stroke="midnightblue" d="M301.06,-97.4382C311.586,-98.4961 322.721,-99.6152 333.899,-100.739"/>
<polygon fill="midnightblue" stroke="midnightblue" points="333.861,-104.252 344.161,-101.77 334.561,-97.2874 333.861,-104.252"/>
</g>
</g>
</svg>
