<?xml version="1.0" encoding="UTF-8" standalone="no"?>
<!DOCTYPE svg PUBLIC "-//W3C//DTD SVG 1.1//EN"
 "http://www.w3.org/Graphics/SVG/1.1/DTD/svg11.dtd">
<!-- Generated by graphviz version 2.34.0 (20130907.0111)
 -->
<!-- Title: JSONNode::begin Pages: 1 -->
<svg width="1348pt" height="134pt"
 viewBox="0.00 0.00 1348.00 134.00" xmlns="http://www.w3.org/2000/svg" xmlns:xlink="http://www.w3.org/1999/xlink">
<g id="graph0" class="graph" transform="scale(1 1) rotate(0) translate(4 130)">
<title>JSONNode::begin</title>
<polygon fill="white" stroke="white" points="-4,4 -4,-130 1344,-130 1344,4 -4,4"/>
<!-- Node1 -->
<g id="node1" class="node"><title>Node1</title>
<polygon fill="#bfbfbf" stroke="black" points="0,-65.5 0,-86.5 112,-86.5 112,-65.5 0,-65.5"/>
<text text-anchor="middle" x="56" y="-72.9" font-family="Helvetica,sans-Serif" font-size="12.00">JSONNode::begin</text>
</g>
<!-- Node2 -->
<g id="node2" class="node"><title>Node2</title>
<g id="a_node2"><a xlink:href="../../d6/dc7/class_j_s_o_n_node.html#af62ca04ab8ca3ab879d1bb26a52780dd" target="_top" xlink:title="JSONNode::begin">
<polygon fill="white" stroke="black" points="185,-104.5 185,-125.5 297,-125.5 297,-104.5 185,-104.5"/>
<text text-anchor="middle" x="241" y="-111.9" font-family="Helvetica,sans-Serif" font-size="12.00">JSONNode::begin</text>
</a>
</g>
</g>
<!-- Node1&#45;&gt;Node2 -->
<g id="edge1" class="edge"><title>Node1&#45;&gt;Node2</title>
<path fill="none" stroke="midnightblue" d="M106.522,-86.554C129.307,-91.4097 156.525,-97.2103 180.422,-102.303"/>
<polygon fill="midnightblue" stroke="midnightblue" points="179.928,-105.776 190.438,-104.438 181.387,-98.9301 179.928,-105.776"/>
</g>
<!-- Node3 -->
<g id="node3" class="node"><title>Node3</title>
<g id="a_node3"><a xlink:href="../../d6/dc7/class_j_s_o_n_node.html#a8edf73e69435ea34f5ffde8c9ccad7c6" target="_top" xlink:title="JSONNode::type">
<polygon fill="white" stroke="black" points="411,-85.5 411,-106.5 515,-106.5 515,-85.5 411,-85.5"/>
<text text-anchor="middle" x="463" y="-92.9" font-family="Helvetica,sans-Serif" font-size="12.00">JSONNode::type</text>
</a>
</g>
</g>
<!-- Node1&#45;&gt;Node3 -->
<g id="edge10" class="edge"><title>Node1&#45;&gt;Node3</title>
<path fill="none" stroke="midnightblue" d="M112.042,-78.7181C187.384,-82.4387 322.208,-89.0967 400.694,-92.9726"/>
<polygon fill="midnightblue" stroke="midnightblue" points="400.754,-96.4797 410.915,-93.4773 401.1,-89.4882 400.754,-96.4797"/>
</g>
<!-- Node4 -->
<g id="node4" class="node"><title>Node4</title>
<g id="a_node4"><a xlink:href="../../d6/dc7/class_j_s_o_n_node.html#a40fb037e147141fa07f90fe419e3a7a2" target="_top" xlink:title="JSONNode::makeUniqueInternal">
<polygon fill="white" stroke="black" points="148.5,-26.5 148.5,-47.5 333.5,-47.5 333.5,-26.5 148.5,-26.5"/>
<text text-anchor="middle" x="241" y="-33.9" font-family="Helvetica,sans-Serif" font-size="12.00">JSONNode::makeUniqueInternal</text>
</a>
</g>
</g>
<!-- Node1&#45;&gt;Node4 -->
<g id="edge3" class="edge"><title>Node1&#45;&gt;Node4</title>
<path fill="none" stroke="midnightblue" d="M106.522,-65.446C129.307,-60.5903 156.525,-54.7897 180.422,-49.6969"/>
<polygon fill="midnightblue" stroke="midnightblue" points="181.387,-53.0699 190.438,-47.5624 179.928,-46.2237 181.387,-53.0699"/>
</g>
<!-- Node2&#45;&gt;Node3 -->
<g id="edge2" class="edge"><title>Node2&#45;&gt;Node3</title>
<path fill="none" stroke="midnightblue" d="M297.231,-110.23C328.701,-107.512 368.199,-104.101 400.634,-101.3"/>
<polygon fill="midnightblue" stroke="midnightblue" points="401.236,-104.761 410.898,-100.413 400.634,-97.7869 401.236,-104.761"/>
</g>
<!-- Node5 -->
<g id="node5" class="node"><title>Node5</title>
<g id="a_node5"><a xlink:href="../../d1/d0b/classinternal_j_s_o_n_node.html#a72b82897da17766d09a3e4ea4a743cf1" target="_top" xlink:title="internalJSONNode::makeUnique">
<polygon fill="white" stroke="black" points="370,-26.5 370,-47.5 556,-47.5 556,-26.5 370,-26.5"/>
<text text-anchor="middle" x="463" y="-33.9" font-family="Helvetica,sans-Serif" font-size="12.00">internalJSONNode::makeUnique</text>
</a>
</g>
</g>
<!-- Node4&#45;&gt;Node5 -->
<g id="edge4" class="edge"><title>Node4&#45;&gt;Node5</title>
<path fill="none" stroke="midnightblue" d="M333.707,-37C342.266,-37 350.977,-37 359.624,-37"/>
<polygon fill="midnightblue" stroke="midnightblue" points="359.734,-40.5001 369.734,-37 359.734,-33.5001 359.734,-40.5001"/>
</g>
<!-- Node6 -->
<g id="node6" class="node"><title>Node6</title>
<g id="a_node6"><a xlink:href="../../d1/d0b/classinternal_j_s_o_n_node.html#a1d79eee0bbd754c13edac1498e3a7a3d" target="_top" xlink:title="internalJSONNode::decRef">
<polygon fill="white" stroke="black" points="602,-46.5 602,-67.5 760,-67.5 760,-46.5 602,-46.5"/>
<text text-anchor="middle" x="681" y="-53.9" font-family="Helvetica,sans-Serif" font-size="12.00">internalJSONNode::decRef</text>
</a>
</g>
</g>
<!-- Node5&#45;&gt;Node6 -->
<g id="edge5" class="edge"><title>Node5&#45;&gt;Node6</title>
<path fill="none" stroke="midnightblue" d="M556.23,-45.5398C567.936,-46.6237 579.896,-47.7311 591.541,-48.8094"/>
<polygon fill="midnightblue" stroke="midnightblue" points="591.4,-52.3112 601.68,-49.7482 592.046,-45.341 591.4,-52.3112"/>
</g>
<!-- Node7 -->
<g id="node7" class="node"><title>Node7</title>
<g id="a_node7"><a xlink:href="../../d1/d0b/classinternal_j_s_o_n_node.html#a5656ff403a9a79fce1812aacee620fdd" target="_top" xlink:title="internalJSONNode::newInternal">
<polygon fill="white" stroke="black" points="592,-6.5 592,-27.5 770,-27.5 770,-6.5 592,-6.5"/>
<text text-anchor="middle" x="681" y="-13.9" font-family="Helvetica,sans-Serif" font-size="12.00">internalJSONNode::newInternal</text>
</a>
</g>
</g>
<!-- Node5&#45;&gt;Node7 -->
<g id="edge6" class="edge"><title>Node5&#45;&gt;Node7</title>
<path fill="none" stroke="midnightblue" d="M556.23,-28.4602C564.719,-27.6742 573.34,-26.8759 581.879,-26.0853"/>
<polygon fill="midnightblue" stroke="midnightblue" points="582.217,-29.5691 591.851,-25.1619 581.571,-22.5989 582.217,-29.5691"/>
</g>
<!-- Node8 -->
<g id="node8" class="node"><title>Node8</title>
<g id="a_node8"><a xlink:href="../../d1/d0b/classinternal_j_s_o_n_node.html#afb952c1e0ebf1928ecccd9a205baa0db" target="_top" xlink:title="internalJSONNode::internal\lJSONNode">
<polygon fill="white" stroke="black" points="806,-0 806,-34 964,-34 964,-0 806,-0"/>
<text text-anchor="start" x="814" y="-20.4" font-family="Helvetica,sans-Serif" font-size="12.00">internalJSONNode::internal</text>
<text text-anchor="middle" x="885" y="-7.4" font-family="Helvetica,sans-Serif" font-size="12.00">JSONNode</text>
</a>
</g>
</g>
<!-- Node7&#45;&gt;Node8 -->
<g id="edge7" class="edge"><title>Node7&#45;&gt;Node8</title>
<path fill="none" stroke="midnightblue" d="M770.013,-17C778.478,-17 787.067,-17 795.537,-17"/>
<polygon fill="midnightblue" stroke="midnightblue" points="795.793,-20.5001 805.793,-17 795.793,-13.5001 795.793,-20.5001"/>
</g>
<!-- Node9 -->
<g id="node9" class="node"><title>Node9</title>
<g id="a_node9"><a xlink:href="../../db/d49/classjson_children.html#ac71d832f3f81306fcb13e6f581f4431a" target="_top" xlink:title="jsonChildren::newChildren">
<polygon fill="white" stroke="black" points="1000,-6.5 1000,-27.5 1152,-27.5 1152,-6.5 1000,-6.5"/>
<text text-anchor="middle" x="1076" y="-13.9" font-family="Helvetica,sans-Serif" font-size="12.00">jsonChildren::newChildren</text>
</a>
</g>
</g>
<!-- Node8&#45;&gt;Node9 -->
<g id="edge8" class="edge"><title>Node8&#45;&gt;Node9</title>
<path fill="none" stroke="midnightblue" d="M964.238,-17C972.613,-17 981.163,-17 989.616,-17"/>
<polygon fill="midnightblue" stroke="midnightblue" points="989.859,-20.5001 999.859,-17 989.859,-13.5001 989.859,-20.5001"/>
</g>
<!-- Node10 -->
<g id="node10" class="node"><title>Node10</title>
<g id="a_node10"><a xlink:href="../../db/d49/classjson_children.html#aa31b15a1d697846a9c2a8a710b2ba6f1" target="_top" xlink:title="jsonChildren::jsonChildren">
<polygon fill="white" stroke="black" points="1188,-6.5 1188,-27.5 1340,-27.5 1340,-6.5 1188,-6.5"/>
<text text-anchor="middle" x="1264" y="-13.9" font-family="Helvetica,sans-Serif" font-size="12.00">jsonChildren::jsonChildren</text>
</a>
</g>
</g>
<!-- Node9&#45;&gt;Node10 -->
<g id="edge9" class="edge"><title>Node9&#45;&gt;Node10</title>
<path fill="none" stroke="midnightblue" d="M1152.12,-17C1160.6,-17 1169.28,-17 1177.87,-17"/>
<polygon fill="midnightblue" stroke="midnightblue" points="1177.9,-20.5001 1187.9,-17 1177.9,-13.5001 1177.9,-20.5001"/>
</g>
</g>
</svg>
