<?xml version="1.0" encoding="UTF-8" standalone="no"?>
<!DOCTYPE svg PUBLIC "-//W3C//DTD SVG 1.1//EN"
 "http://www.w3.org/Graphics/SVG/1.1/DTD/svg11.dtd">
<!-- Generated by graphviz version 2.34.0 (20130907.0111)
 -->
<!-- Title: JSONNode::newJSONNode Pages: 1 -->
<svg width="1728pt" height="136pt"
 viewBox="0.00 0.00 1728.00 136.00" xmlns="http://www.w3.org/2000/svg" xmlns:xlink="http://www.w3.org/1999/xlink">
<g id="graph0" class="graph" transform="scale(1 1) rotate(0) translate(4 132)">
<title>JSONNode::newJSONNode</title>
<polygon fill="white" stroke="white" points="-4,4 -4,-132 1724,-132 1724,4 -4,4"/>
<!-- Node1 -->
<g id="node1" class="node"><title>Node1</title>
<polygon fill="#bfbfbf" stroke="black" points="0,-53.5 0,-74.5 164,-74.5 164,-53.5 0,-53.5"/>
<text text-anchor="middle" x="82" y="-60.9" font-family="Helvetica,sans-Serif" font-size="12.00">JSONNode::newJSONNode</text>
</g>
<!-- Node2 -->
<g id="node2" class="node"><title>Node2</title>
<g id="a_node2"><a xlink:href="../../d1/d0b/classinternal_j_s_o_n_node.html#a8757ff69826db8035ea7031fa6c3815a" target="_top" xlink:title="internalJSONNode::internal\lJSONNode">
<polygon fill="white" stroke="black" points="210,-94 210,-128 368,-128 368,-94 210,-94"/>
<text text-anchor="start" x="218" y="-114.4" font-family="Helvetica,sans-Serif" font-size="12.00">internalJSONNode::internal</text>
<text text-anchor="middle" x="289" y="-101.4" font-family="Helvetica,sans-Serif" font-size="12.00">JSONNode</text>
</a>
</g>
</g>
<!-- Node1&#45;&gt;Node2 -->
<g id="edge1" class="edge"><title>Node1&#45;&gt;Node2</title>
<path fill="none" stroke="midnightblue" d="M138.941,-76.8254C161.953,-82.1015 188.942,-88.2891 213.584,-93.9387"/>
<polygon fill="midnightblue" stroke="midnightblue" points="139.535,-73.371 129.006,-74.5477 137.971,-80.194 139.535,-73.371"/>
</g>
<!-- Node3 -->
<g id="node3" class="node"><title>Node3</title>
<g id="a_node3"><a xlink:href="../../d1/d0b/classinternal_j_s_o_n_node.html#a52054310b770dc15cf10e34e32713f19" target="_top" xlink:title="internalJSONNode::push_back">
<polygon fill="white" stroke="black" points="200.5,-53.5 200.5,-74.5 377.5,-74.5 377.5,-53.5 200.5,-53.5"/>
<text text-anchor="middle" x="289" y="-60.9" font-family="Helvetica,sans-Serif" font-size="12.00">internalJSONNode::push_back</text>
</a>
</g>
</g>
<!-- Node1&#45;&gt;Node3 -->
<g id="edge2" class="edge"><title>Node1&#45;&gt;Node3</title>
<path fill="none" stroke="midnightblue" d="M174.207,-64C182.94,-64 191.784,-64 200.481,-64"/>
<polygon fill="midnightblue" stroke="midnightblue" points="174.021,-60.5001 164.021,-64 174.021,-67.5001 174.021,-60.5001"/>
</g>
<!-- Node16 -->
<g id="node16" class="node"><title>Node16</title>
<g id="a_node16"><a xlink:href="../../d1/d0b/classinternal_j_s_o_n_node.html#a70aeebf2403905cc309f743e8c7b8539" target="_top" xlink:title="internalJSONNode::push\l_front">
<polygon fill="white" stroke="black" points="216.5,-0 216.5,-34 361.5,-34 361.5,-0 216.5,-0"/>
<text text-anchor="start" x="224.5" y="-20.4" font-family="Helvetica,sans-Serif" font-size="12.00">internalJSONNode::push</text>
<text text-anchor="middle" x="289" y="-7.4" font-family="Helvetica,sans-Serif" font-size="12.00">_front</text>
</a>
</g>
</g>
<!-- Node1&#45;&gt;Node16 -->
<g id="edge17" class="edge"><title>Node1&#45;&gt;Node16</title>
<path fill="none" stroke="midnightblue" d="M138.96,-51.1702C162.845,-45.6941 191.01,-39.2367 216.389,-33.4182"/>
<polygon fill="midnightblue" stroke="midnightblue" points="137.971,-47.806 129.006,-53.4523 139.535,-54.629 137.971,-47.806"/>
</g>
<!-- Node4 -->
<g id="node4" class="node"><title>Node4</title>
<g id="a_node4"><a xlink:href="../../d6/dc7/class_j_s_o_n_node.html#a5200c65f827a99897b00681aa3b35671" target="_top" xlink:title="JSONNode::push_back">
<polygon fill="white" stroke="black" points="414,-53.5 414,-74.5 554,-74.5 554,-53.5 414,-53.5"/>
<text text-anchor="middle" x="484" y="-60.9" font-family="Helvetica,sans-Serif" font-size="12.00">JSONNode::push_back</text>
</a>
</g>
</g>
<!-- Node3&#45;&gt;Node4 -->
<g id="edge3" class="edge"><title>Node3&#45;&gt;Node4</title>
<path fill="none" stroke="midnightblue" d="M388.024,-64C396.787,-64 405.533,-64 413.973,-64"/>
<polygon fill="midnightblue" stroke="midnightblue" points="387.747,-60.5001 377.747,-64 387.747,-67.5001 387.747,-60.5001"/>
</g>
<!-- Node5 -->
<g id="node5" class="node"><title>Node5</title>
<g id="a_node5"><a xlink:href="../../d3/d71/jsonhelpers_8h.html#a3a69c2987d346d326aeffb52183db0f4" target="_top" xlink:title="prepareTestSettings">
<polygon fill="white" stroke="black" points="590.5,-53.5 590.5,-74.5 713.5,-74.5 713.5,-53.5 590.5,-53.5"/>
<text text-anchor="middle" x="652" y="-60.9" font-family="Helvetica,sans-Serif" font-size="12.00">prepareTestSettings</text>
</a>
</g>
</g>
<!-- Node4&#45;&gt;Node5 -->
<g id="edge4" class="edge"><title>Node4&#45;&gt;Node5</title>
<path fill="none" stroke="midnightblue" d="M564.55,-64C573.204,-64 581.908,-64 590.285,-64"/>
<polygon fill="midnightblue" stroke="midnightblue" points="564.437,-60.5001 554.437,-64 564.437,-67.5001 564.437,-60.5001"/>
</g>
<!-- Node6 -->
<g id="node6" class="node"><title>Node6</title>
<g id="a_node6"><a xlink:href="../../da/d92/class_image_test.html#a7334d76c1cc6780f46626be5b9ff1adb" target="_top" xlink:title="Runs the test pointed to by m_imatestFunc. ">
<polygon fill="white" stroke="black" points="750,-53.5 750,-74.5 848,-74.5 848,-53.5 750,-53.5"/>
<text text-anchor="middle" x="799" y="-60.9" font-family="Helvetica,sans-Serif" font-size="12.00">ImageTest::Run</text>
</a>
</g>
</g>
<!-- Node5&#45;&gt;Node6 -->
<g id="edge5" class="edge"><title>Node5&#45;&gt;Node6</title>
<path fill="none" stroke="midnightblue" d="M723.657,-64C732.557,-64 741.494,-64 749.931,-64"/>
<polygon fill="midnightblue" stroke="midnightblue" points="723.653,-60.5001 713.653,-64 723.653,-67.5001 723.653,-60.5001"/>
</g>
<!-- Node7 -->
<g id="node7" class="node"><title>Node7</title>
<g id="a_node7"><a xlink:href="../../da/d92/class_image_test.html#accf2cfff6fe48fd19888727208dd6728" target="_top" xlink:title="ImageTest::Run">
<polygon fill="white" stroke="black" points="905,-73.5 905,-94.5 1003,-94.5 1003,-73.5 905,-73.5"/>
<text text-anchor="middle" x="954" y="-80.9" font-family="Helvetica,sans-Serif" font-size="12.00">ImageTest::Run</text>
</a>
</g>
</g>
<!-- Node6&#45;&gt;Node7 -->
<g id="edge6" class="edge"><title>Node6&#45;&gt;Node7</title>
<path fill="none" stroke="midnightblue" d="M858.338,-71.6259C873.716,-73.6361 890.134,-75.7822 904.905,-77.713"/>
<polygon fill="midnightblue" stroke="midnightblue" points="858.779,-68.1539 848.41,-70.3281 857.872,-75.0948 858.779,-68.1539"/>
</g>
<!-- Node8 -->
<g id="node8" class="node"><title>Node8</title>
<g id="a_node8"><a xlink:href="../../da/d92/class_image_test.html#a372478d09c06cd7ab3684840add6215e" target="_top" xlink:title="param must be a pointer to a ThreadControl object; param&#45;&gt;m_data must point to an ImageTest object ...">
<polygon fill="white" stroke="black" points="884.5,-33.5 884.5,-54.5 1023.5,-54.5 1023.5,-33.5 884.5,-33.5"/>
<text text-anchor="middle" x="954" y="-40.9" font-family="Helvetica,sans-Serif" font-size="12.00">ImageTest::ThreadProc</text>
</a>
</g>
</g>
<!-- Node6&#45;&gt;Node8 -->
<g id="edge7" class="edge"><title>Node6&#45;&gt;Node8</title>
<path fill="none" stroke="midnightblue" d="M858.571,-56.3437C867.052,-55.2351 875.845,-54.0857 884.499,-52.9543"/>
<polygon fill="midnightblue" stroke="midnightblue" points="857.872,-52.9052 848.41,-57.6719 858.779,-59.8461 857.872,-52.9052"/>
</g>
<!-- Node9 -->
<g id="node9" class="node"><title>Node9</title>
<g id="a_node9"><a xlink:href="../../d3/d9f/class_c_operator_console_app.html#a51ad7e6e8f370072c3e89d0d7e9e41a8" target="_top" xlink:title="COperatorConsoleApp\l::InitBlemishThread">
<polygon fill="white" stroke="black" points="1060.5,-54 1060.5,-88 1197.5,-88 1197.5,-54 1060.5,-54"/>
<text text-anchor="start" x="1068.5" y="-74.4" font-family="Helvetica,sans-Serif" font-size="12.00">COperatorConsoleApp</text>
<text text-anchor="middle" x="1129" y="-61.4" font-family="Helvetica,sans-Serif" font-size="12.00">::InitBlemishThread</text>
</a>
</g>
</g>
<!-- Node8&#45;&gt;Node9 -->
<g id="edge8" class="edge"><title>Node8&#45;&gt;Node9</title>
<path fill="none" stroke="midnightblue" d="M1032.38,-56.077C1041.67,-57.5264 1051.1,-58.9978 1060.23,-60.4236"/>
<polygon fill="midnightblue" stroke="midnightblue" points="1032.8,-52.6002 1022.38,-54.5162 1031.72,-59.5165 1032.8,-52.6002"/>
</g>
<!-- Node15 -->
<g id="node15" class="node"><title>Node15</title>
<g id="a_node15"><a xlink:href="../../d3/d9f/class_c_operator_console_app.html#af7328d2c00abb1d4a09a65492c69b2b0" target="_top" xlink:title="COperatorConsoleApp\l::InitSFRplusThread">
<polygon fill="white" stroke="black" points="1060.5,-1 1060.5,-35 1197.5,-35 1197.5,-1 1060.5,-1"/>
<text text-anchor="start" x="1068.5" y="-21.4" font-family="Helvetica,sans-Serif" font-size="12.00">COperatorConsoleApp</text>
<text text-anchor="middle" x="1129" y="-8.4" font-family="Helvetica,sans-Serif" font-size="12.00">::InitSFRplusThread</text>
</a>
</g>
</g>
<!-- Node8&#45;&gt;Node15 -->
<g id="edge14" class="edge"><title>Node8&#45;&gt;Node15</title>
<path fill="none" stroke="midnightblue" d="M1033.85,-32.1494C1042.75,-30.812 1051.76,-29.4583 1060.49,-28.1454"/>
<polygon fill="midnightblue" stroke="midnightblue" points="1033.24,-28.702 1023.87,-33.6494 1034.28,-35.6243 1033.24,-28.702"/>
</g>
<!-- Node10 -->
<g id="node10" class="node"><title>Node10</title>
<g id="a_node10"><a xlink:href="../../d3/d9f/class_c_operator_console_app.html#a7f0cd7b21cee2171dea973e4e6e7bb9d" target="_top" xlink:title="Init perform application&#45;specific initialization. ">
<polygon fill="white" stroke="black" points="1234.5,-54 1234.5,-88 1371.5,-88 1371.5,-54 1234.5,-54"/>
<text text-anchor="start" x="1242.5" y="-74.4" font-family="Helvetica,sans-Serif" font-size="12.00">COperatorConsoleApp</text>
<text text-anchor="middle" x="1303" y="-61.4" font-family="Helvetica,sans-Serif" font-size="12.00">::Init</text>
</a>
</g>
</g>
<!-- Node9&#45;&gt;Node10 -->
<g id="edge9" class="edge"><title>Node9&#45;&gt;Node10</title>
<path fill="none" stroke="midnightblue" d="M1208.13,-71C1216.85,-71 1225.67,-71 1234.23,-71"/>
<polygon fill="midnightblue" stroke="midnightblue" points="1207.98,-67.5001 1197.98,-71 1207.98,-74.5001 1207.98,-67.5001"/>
</g>
<!-- Node12 -->
<g id="node12" class="node"><title>Node12</title>
<g id="a_node12"><a xlink:href="../../d3/d9f/class_c_operator_console_app.html#aede77af6cae8053d49c752fd95910728" target="_top" xlink:title="This function allows for reallocation of the various image buffers when we change the image size...">
<polygon fill="white" stroke="black" points="1234.5,-1 1234.5,-35 1371.5,-35 1371.5,-1 1234.5,-1"/>
<text text-anchor="start" x="1242.5" y="-21.4" font-family="Helvetica,sans-Serif" font-size="12.00">COperatorConsoleApp</text>
<text text-anchor="middle" x="1303" y="-8.4" font-family="Helvetica,sans-Serif" font-size="12.00">::ReInit</text>
</a>
</g>
</g>
<!-- Node9&#45;&gt;Node12 -->
<g id="edge11" class="edge"><title>Node9&#45;&gt;Node12</title>
<path fill="none" stroke="midnightblue" d="M1195.21,-50.9056C1212.19,-45.6732 1230.32,-40.0863 1246.74,-35.0293"/>
<polygon fill="midnightblue" stroke="midnightblue" points="1193.89,-47.6491 1185.37,-53.9387 1195.96,-54.3387 1193.89,-47.6491"/>
</g>
<!-- Node11 -->
<g id="node11" class="node"><title>Node11</title>
<g id="a_node11"><a xlink:href="../../d3/d9f/class_c_operator_console_app.html#a94f4b258145e77e31644beb999bf099a" target="_top" xlink:title="COperatorConsoleApp initialization. ">
<polygon fill="white" stroke="black" points="1408.5,-54 1408.5,-88 1545.5,-88 1545.5,-54 1408.5,-54"/>
<text text-anchor="start" x="1416.5" y="-74.4" font-family="Helvetica,sans-Serif" font-size="12.00">COperatorConsoleApp</text>
<text text-anchor="middle" x="1477" y="-61.4" font-family="Helvetica,sans-Serif" font-size="12.00">::InitInstance</text>
</a>
</g>
</g>
<!-- Node10&#45;&gt;Node11 -->
<g id="edge10" class="edge"><title>Node10&#45;&gt;Node11</title>
<path fill="none" stroke="midnightblue" d="M1382.13,-71C1390.85,-71 1399.67,-71 1408.23,-71"/>
<polygon fill="midnightblue" stroke="midnightblue" points="1381.98,-67.5001 1371.98,-71 1381.98,-74.5001 1381.98,-67.5001"/>
</g>
<!-- Node13 -->
<g id="node13" class="node"><title>Node13</title>
<g id="a_node13"><a xlink:href="../../d3/d9f/class_c_operator_console_app.html#a620f8d2eed65d743bb177abcb90936e6" target="_top" xlink:title="Called after MSG_SETUP is received. ">
<polygon fill="white" stroke="black" points="1408.5,-1 1408.5,-35 1545.5,-35 1545.5,-1 1408.5,-1"/>
<text text-anchor="start" x="1416.5" y="-21.4" font-family="Helvetica,sans-Serif" font-size="12.00">COperatorConsoleApp</text>
<text text-anchor="middle" x="1477" y="-8.4" font-family="Helvetica,sans-Serif" font-size="12.00">::OnSetup</text>
</a>
</g>
</g>
<!-- Node12&#45;&gt;Node13 -->
<g id="edge12" class="edge"><title>Node12&#45;&gt;Node13</title>
<path fill="none" stroke="midnightblue" d="M1382.13,-18C1390.85,-18 1399.67,-18 1408.23,-18"/>
<polygon fill="midnightblue" stroke="midnightblue" points="1381.98,-14.5001 1371.98,-18 1381.98,-21.5001 1381.98,-14.5001"/>
</g>
<!-- Node14 -->
<g id="node14" class="node"><title>Node14</title>
<g id="a_node14"><a xlink:href="../../d3/d9f/class_c_operator_console_app.html#a7041d197c4e6549f2cb7219981b4eec1" target="_top" xlink:title="Intercepts messages of interest before Windows or MFC. ">
<polygon fill="white" stroke="black" points="1582,-1 1582,-35 1720,-35 1720,-1 1582,-1"/>
<text text-anchor="start" x="1590" y="-21.4" font-family="Helvetica,sans-Serif" font-size="12.00">COperatorConsoleApp</text>
<text text-anchor="middle" x="1651" y="-8.4" font-family="Helvetica,sans-Serif" font-size="12.00">::PreTranslateMessage</text>
</a>
</g>
</g>
<!-- Node13&#45;&gt;Node14 -->
<g id="edge13" class="edge"><title>Node13&#45;&gt;Node14</title>
<path fill="none" stroke="midnightblue" d="M1556.05,-18C1564.7,-18 1573.45,-18 1581.95,-18"/>
<polygon fill="midnightblue" stroke="midnightblue" points="1555.98,-14.5001 1545.98,-18 1555.98,-21.5001 1555.98,-14.5001"/>
</g>
<!-- Node15&#45;&gt;Node10 -->
<g id="edge15" class="edge"><title>Node15&#45;&gt;Node10</title>
<path fill="none" stroke="midnightblue" d="M1195.21,-38.0944C1212.19,-43.3268 1230.32,-48.9137 1246.74,-53.9707"/>
<polygon fill="midnightblue" stroke="midnightblue" points="1195.96,-34.6613 1185.37,-35.0613 1193.89,-41.3509 1195.96,-34.6613"/>
</g>
<!-- Node15&#45;&gt;Node12 -->
<g id="edge16" class="edge"><title>Node15&#45;&gt;Node12</title>
<path fill="none" stroke="midnightblue" d="M1208.13,-18C1216.85,-18 1225.67,-18 1234.23,-18"/>
<polygon fill="midnightblue" stroke="midnightblue" points="1207.98,-14.5001 1197.98,-18 1207.98,-21.5001 1207.98,-14.5001"/>
</g>
</g>
</svg>
