<?xml version="1.0" encoding="UTF-8" standalone="no"?>
<!DOCTYPE svg PUBLIC "-//W3C//DTD SVG 1.1//EN"
 "http://www.w3.org/Graphics/SVG/1.1/DTD/svg11.dtd">
<!-- Generated by graphviz version 2.34.0 (20130907.0111)
 -->
<!-- Title: JSONNode::end Pages: 1 -->
<svg width="1338pt" height="134pt"
 viewBox="0.00 0.00 1338.00 134.00" xmlns="http://www.w3.org/2000/svg" xmlns:xlink="http://www.w3.org/1999/xlink">
<g id="graph0" class="graph" transform="scale(1 1) rotate(0) translate(4 130)">
<title>JSONNode::end</title>
<polygon fill="white" stroke="white" points="-4,4 -4,-130 1334,-130 1334,4 -4,4"/>
<!-- Node1 -->
<g id="node1" class="node"><title>Node1</title>
<polygon fill="#bfbfbf" stroke="black" points="0,-65.5 0,-86.5 102,-86.5 102,-65.5 0,-65.5"/>
<text text-anchor="middle" x="51" y="-72.9" font-family="Helvetica,sans-Serif" font-size="12.00">JSONNode::end</text>
</g>
<!-- Node2 -->
<g id="node2" class="node"><title>Node2</title>
<g id="a_node2"><a xlink:href="../../d6/dc7/class_j_s_o_n_node.html#a2a5f8dc6c2b02508e70084a97436611f" target="_top" xlink:title="JSONNode::end">
<polygon fill="white" stroke="black" points="180,-104.5 180,-125.5 282,-125.5 282,-104.5 180,-104.5"/>
<text text-anchor="middle" x="231" y="-111.9" font-family="Helvetica,sans-Serif" font-size="12.00">JSONNode::end</text>
</a>
</g>
</g>
<!-- Node1&#45;&gt;Node2 -->
<g id="edge1" class="edge"><title>Node1&#45;&gt;Node2</title>
<path fill="none" stroke="midnightblue" d="M100.169,-86.554C122.233,-91.388 148.57,-97.1586 171.739,-102.235"/>
<polygon fill="midnightblue" stroke="midnightblue" points="171.275,-105.716 181.792,-104.438 172.773,-98.8784 171.275,-105.716"/>
</g>
<!-- Node3 -->
<g id="node3" class="node"><title>Node3</title>
<g id="a_node3"><a xlink:href="../../d6/dc7/class_j_s_o_n_node.html#a8edf73e69435ea34f5ffde8c9ccad7c6" target="_top" xlink:title="JSONNode::type">
<polygon fill="white" stroke="black" points="401,-85.5 401,-106.5 505,-106.5 505,-85.5 401,-85.5"/>
<text text-anchor="middle" x="453" y="-92.9" font-family="Helvetica,sans-Serif" font-size="12.00">JSONNode::type</text>
</a>
</g>
</g>
<!-- Node1&#45;&gt;Node3 -->
<g id="edge10" class="edge"><title>Node1&#45;&gt;Node3</title>
<path fill="none" stroke="midnightblue" d="M102.255,-78.5128C175.451,-82.1726 311.259,-88.963 390.383,-92.9192"/>
<polygon fill="midnightblue" stroke="midnightblue" points="390.525,-96.4305 400.687,-93.4344 390.875,-89.4393 390.525,-96.4305"/>
</g>
<!-- Node4 -->
<g id="node4" class="node"><title>Node4</title>
<g id="a_node4"><a xlink:href="../../d6/dc7/class_j_s_o_n_node.html#a40fb037e147141fa07f90fe419e3a7a2" target="_top" xlink:title="JSONNode::makeUniqueInternal">
<polygon fill="white" stroke="black" points="138.5,-26.5 138.5,-47.5 323.5,-47.5 323.5,-26.5 138.5,-26.5"/>
<text text-anchor="middle" x="231" y="-33.9" font-family="Helvetica,sans-Serif" font-size="12.00">JSONNode::makeUniqueInternal</text>
</a>
</g>
</g>
<!-- Node1&#45;&gt;Node4 -->
<g id="edge3" class="edge"><title>Node1&#45;&gt;Node4</title>
<path fill="none" stroke="midnightblue" d="M100.169,-65.446C122.233,-60.612 148.57,-54.8414 171.739,-49.7651"/>
<polygon fill="midnightblue" stroke="midnightblue" points="172.773,-53.1216 181.792,-47.5624 171.275,-46.2838 172.773,-53.1216"/>
</g>
<!-- Node2&#45;&gt;Node3 -->
<g id="edge2" class="edge"><title>Node2&#45;&gt;Node3</title>
<path fill="none" stroke="midnightblue" d="M282.197,-110.665C314.377,-107.886 356.367,-104.259 390.54,-101.308"/>
<polygon fill="midnightblue" stroke="midnightblue" points="391.213,-104.763 400.875,-100.415 390.611,-97.7888 391.213,-104.763"/>
</g>
<!-- Node5 -->
<g id="node5" class="node"><title>Node5</title>
<g id="a_node5"><a xlink:href="../../d1/d0b/classinternal_j_s_o_n_node.html#a72b82897da17766d09a3e4ea4a743cf1" target="_top" xlink:title="internalJSONNode::makeUnique">
<polygon fill="white" stroke="black" points="360,-26.5 360,-47.5 546,-47.5 546,-26.5 360,-26.5"/>
<text text-anchor="middle" x="453" y="-33.9" font-family="Helvetica,sans-Serif" font-size="12.00">internalJSONNode::makeUnique</text>
</a>
</g>
</g>
<!-- Node4&#45;&gt;Node5 -->
<g id="edge4" class="edge"><title>Node4&#45;&gt;Node5</title>
<path fill="none" stroke="midnightblue" d="M323.707,-37C332.266,-37 340.977,-37 349.624,-37"/>
<polygon fill="midnightblue" stroke="midnightblue" points="349.734,-40.5001 359.734,-37 349.734,-33.5001 349.734,-40.5001"/>
</g>
<!-- Node6 -->
<g id="node6" class="node"><title>Node6</title>
<g id="a_node6"><a xlink:href="../../d1/d0b/classinternal_j_s_o_n_node.html#a1d79eee0bbd754c13edac1498e3a7a3d" target="_top" xlink:title="internalJSONNode::decRef">
<polygon fill="white" stroke="black" points="592,-46.5 592,-67.5 750,-67.5 750,-46.5 592,-46.5"/>
<text text-anchor="middle" x="671" y="-53.9" font-family="Helvetica,sans-Serif" font-size="12.00">internalJSONNode::decRef</text>
</a>
</g>
</g>
<!-- Node5&#45;&gt;Node6 -->
<g id="edge5" class="edge"><title>Node5&#45;&gt;Node6</title>
<path fill="none" stroke="midnightblue" d="M546.23,-45.5398C557.936,-46.6237 569.896,-47.7311 581.541,-48.8094"/>
<polygon fill="midnightblue" stroke="midnightblue" points="581.4,-52.3112 591.68,-49.7482 582.046,-45.341 581.4,-52.3112"/>
</g>
<!-- Node7 -->
<g id="node7" class="node"><title>Node7</title>
<g id="a_node7"><a xlink:href="../../d1/d0b/classinternal_j_s_o_n_node.html#a5656ff403a9a79fce1812aacee620fdd" target="_top" xlink:title="internalJSONNode::newInternal">
<polygon fill="white" stroke="black" points="582,-6.5 582,-27.5 760,-27.5 760,-6.5 582,-6.5"/>
<text text-anchor="middle" x="671" y="-13.9" font-family="Helvetica,sans-Serif" font-size="12.00">internalJSONNode::newInternal</text>
</a>
</g>
</g>
<!-- Node5&#45;&gt;Node7 -->
<g id="edge6" class="edge"><title>Node5&#45;&gt;Node7</title>
<path fill="none" stroke="midnightblue" d="M546.23,-28.4602C554.719,-27.6742 563.34,-26.8759 571.879,-26.0853"/>
<polygon fill="midnightblue" stroke="midnightblue" points="572.217,-29.5691 581.851,-25.1619 571.571,-22.5989 572.217,-29.5691"/>
</g>
<!-- Node8 -->
<g id="node8" class="node"><title>Node8</title>
<g id="a_node8"><a xlink:href="../../d1/d0b/classinternal_j_s_o_n_node.html#afb952c1e0ebf1928ecccd9a205baa0db" target="_top" xlink:title="internalJSONNode::internal\lJSONNode">
<polygon fill="white" stroke="black" points="796,-0 796,-34 954,-34 954,-0 796,-0"/>
<text text-anchor="start" x="804" y="-20.4" font-family="Helvetica,sans-Serif" font-size="12.00">internalJSONNode::internal</text>
<text text-anchor="middle" x="875" y="-7.4" font-family="Helvetica,sans-Serif" font-size="12.00">JSONNode</text>
</a>
</g>
</g>
<!-- Node7&#45;&gt;Node8 -->
<g id="edge7" class="edge"><title>Node7&#45;&gt;Node8</title>
<path fill="none" stroke="midnightblue" d="M760.013,-17C768.478,-17 777.067,-17 785.537,-17"/>
<polygon fill="midnightblue" stroke="midnightblue" points="785.793,-20.5001 795.793,-17 785.793,-13.5001 785.793,-20.5001"/>
</g>
<!-- Node9 -->
<g id="node9" class="node"><title>Node9</title>
<g id="a_node9"><a xlink:href="../../db/d49/classjson_children.html#ac71d832f3f81306fcb13e6f581f4431a" target="_top" xlink:title="jsonChildren::newChildren">
<polygon fill="white" stroke="black" points="990,-6.5 990,-27.5 1142,-27.5 1142,-6.5 990,-6.5"/>
<text text-anchor="middle" x="1066" y="-13.9" font-family="Helvetica,sans-Serif" font-size="12.00">jsonChildren::newChildren</text>
</a>
</g>
</g>
<!-- Node8&#45;&gt;Node9 -->
<g id="edge8" class="edge"><title>Node8&#45;&gt;Node9</title>
<path fill="none" stroke="midnightblue" d="M954.238,-17C962.613,-17 971.163,-17 979.616,-17"/>
<polygon fill="midnightblue" stroke="midnightblue" points="979.859,-20.5001 989.859,-17 979.859,-13.5001 979.859,-20.5001"/>
</g>
<!-- Node10 -->
<g id="node10" class="node"><title>Node10</title>
<g id="a_node10"><a xlink:href="../../db/d49/classjson_children.html#aa31b15a1d697846a9c2a8a710b2ba6f1" target="_top" xlink:title="jsonChildren::jsonChildren">
<polygon fill="white" stroke="black" points="1178,-6.5 1178,-27.5 1330,-27.5 1330,-6.5 1178,-6.5"/>
<text text-anchor="middle" x="1254" y="-13.9" font-family="Helvetica,sans-Serif" font-size="12.00">jsonChildren::jsonChildren</text>
</a>
</g>
</g>
<!-- Node9&#45;&gt;Node10 -->
<g id="edge9" class="edge"><title>Node9&#45;&gt;Node10</title>
<path fill="none" stroke="midnightblue" d="M1142.12,-17C1150.6,-17 1159.28,-17 1167.87,-17"/>
<polygon fill="midnightblue" stroke="midnightblue" points="1167.9,-20.5001 1177.9,-17 1167.9,-13.5001 1167.9,-20.5001"/>
</g>
</g>
</svg>
