<?xml version="1.0" encoding="UTF-8" standalone="no"?>
<!DOCTYPE svg PUBLIC "-//W3C//DTD SVG 1.1//EN"
 "http://www.w3.org/Graphics/SVG/1.1/DTD/svg11.dtd">
<!-- Generated by graphviz version 2.34.0 (20130907.0111)
 -->
<!-- Title: JSONNode::as_array Pages: 1 -->
<svg width="528pt" height="188pt"
 viewBox="0.00 0.00 528.00 188.00" xmlns="http://www.w3.org/2000/svg" xmlns:xlink="http://www.w3.org/1999/xlink">
<g id="graph0" class="graph" transform="scale(1 1) rotate(0) translate(4 184)">
<title>JSONNode::as_array</title>
<polygon fill="white" stroke="white" points="-4,4 -4,-184 524,-184 524,4 -4,4"/>
<!-- Node1 -->
<g id="node1" class="node"><title>Node1</title>
<polygon fill="#bfbfbf" stroke="black" points="0,-80.5 0,-101.5 128,-101.5 128,-80.5 0,-80.5"/>
<text text-anchor="middle" x="64" y="-87.9" font-family="Helvetica,sans-Serif" font-size="12.00">JSONNode::as_array</text>
</g>
<!-- Node2 -->
<g id="node2" class="node"><title>Node2</title>
<g id="a_node2"><a xlink:href="../../d3/d71/jsonhelpers_8h.html#a0c2d0c196f0e8025cfc01c009dd24fad" target="_top" xlink:title="getIntFromArray">
<polygon fill="white" stroke="black" points="195,-158.5 195,-179.5 295,-179.5 295,-158.5 195,-158.5"/>
<text text-anchor="middle" x="245" y="-165.9" font-family="Helvetica,sans-Serif" font-size="12.00">getIntFromArray</text>
</a>
</g>
</g>
<!-- Node1&#45;&gt;Node2 -->
<g id="edge1" class="edge"><title>Node1&#45;&gt;Node2</title>
<path fill="none" stroke="midnightblue" d="M91.0419,-106.693C110.632,-118.061 138.392,-133.257 164,-144 177.15,-149.516 191.956,-154.473 205.222,-158.49"/>
<polygon fill="midnightblue" stroke="midnightblue" points="92.7859,-103.658 82.3903,-101.613 89.2413,-109.694 92.7859,-103.658"/>
</g>
<!-- Node3 -->
<g id="node3" class="node"><title>Node3</title>
<g id="a_node3"><a xlink:href="../../d8/de1/class_blemish_test.html#ad9071bb6332b7fc91a6e7c7ef109cba2" target="_top" xlink:title="Parses the JSON output of an sfrPlus test to determine the pass/fail status of the various metrics...">
<polygon fill="white" stroke="black" points="362.5,-138.5 362.5,-159.5 519.5,-159.5 519.5,-138.5 362.5,-138.5"/>
<text text-anchor="middle" x="441" y="-145.9" font-family="Helvetica,sans-Serif" font-size="12.00">BlemishTest::ParseResults</text>
</a>
</g>
</g>
<!-- Node1&#45;&gt;Node3 -->
<g id="edge6" class="edge"><title>Node1&#45;&gt;Node3</title>
<path fill="none" stroke="midnightblue" d="M123.883,-103.525C137.056,-106.151 150.982,-108.791 164,-111 230.762,-122.328 307.047,-132.631 362.473,-139.642"/>
<polygon fill="midnightblue" stroke="midnightblue" points="124.478,-100.074 113.984,-101.526 123.093,-106.936 124.478,-100.074"/>
</g>
<!-- Node4 -->
<g id="node4" class="node"><title>Node4</title>
<g id="a_node4"><a xlink:href="../../da/d92/class_image_test.html#a3115f3892d84abcde05ab105ae4aaa8f" target="_top" xlink:title="ImageTest::GetString">
<polygon fill="white" stroke="black" points="181.5,-80.5 181.5,-101.5 308.5,-101.5 308.5,-80.5 181.5,-80.5"/>
<text text-anchor="middle" x="245" y="-87.9" font-family="Helvetica,sans-Serif" font-size="12.00">ImageTest::GetString</text>
</a>
</g>
</g>
<!-- Node1&#45;&gt;Node4 -->
<g id="edge3" class="edge"><title>Node1&#45;&gt;Node4</title>
<path fill="none" stroke="midnightblue" d="M138.397,-91C152.693,-91 167.556,-91 181.461,-91"/>
<polygon fill="midnightblue" stroke="midnightblue" points="138.109,-87.5001 128.109,-91 138.109,-94.5001 138.109,-87.5001"/>
</g>
<!-- Node5 -->
<g id="node5" class="node"><title>Node5</title>
<g id="a_node5"><a xlink:href="../../da/d92/class_image_test.html#ae8c27027ba0cc33150ec423c6b7ec6ae" target="_top" xlink:title="ImageTest::ParseFailures">
<polygon fill="white" stroke="black" points="169.5,-40.5 169.5,-61.5 320.5,-61.5 320.5,-40.5 169.5,-40.5"/>
<text text-anchor="middle" x="245" y="-47.9" font-family="Helvetica,sans-Serif" font-size="12.00">ImageTest::ParseFailures</text>
</a>
</g>
</g>
<!-- Node1&#45;&gt;Node5 -->
<g id="edge4" class="edge"><title>Node1&#45;&gt;Node5</title>
<path fill="none" stroke="midnightblue" d="M121.806,-78.3059C146.023,-72.8944 173.941,-66.6557 196.974,-61.5087"/>
<polygon fill="midnightblue" stroke="midnightblue" points="121.026,-74.8938 112.03,-80.4905 122.553,-81.7253 121.026,-74.8938"/>
</g>
<!-- Node6 -->
<g id="node6" class="node"><title>Node6</title>
<g id="a_node6"><a xlink:href="../../dd/d12/class_s_f_rplus_test.html#a900f5edde4636d8b6f8f802ff866a15d" target="_top" xlink:title="Determines the pass/fail result for each quadrant. ">
<polygon fill="white" stroke="black" points="164.5,-0.5 164.5,-21.5 325.5,-21.5 325.5,-0.5 164.5,-0.5"/>
<text text-anchor="middle" x="245" y="-7.9" font-family="Helvetica,sans-Serif" font-size="12.00">SFRplusTest::ParseOverlay</text>
</a>
</g>
</g>
<!-- Node1&#45;&gt;Node6 -->
<g id="edge5" class="edge"><title>Node1&#45;&gt;Node6</title>
<path fill="none" stroke="midnightblue" d="M87.5427,-74.6301C106.958,-61.2101 136.17,-42.6003 164,-31 172.854,-27.3096 182.553,-24.181 192.048,-21.5729"/>
<polygon fill="midnightblue" stroke="midnightblue" points="85.5204,-71.7734 79.3514,-80.387 89.5454,-77.5005 85.5204,-71.7734"/>
</g>
<!-- Node2&#45;&gt;Node3 -->
<g id="edge2" class="edge"><title>Node2&#45;&gt;Node3</title>
<path fill="none" stroke="midnightblue" d="M305.233,-162.893C323.189,-161.042 343.191,-158.98 362.173,-157.023"/>
<polygon fill="midnightblue" stroke="midnightblue" points="304.794,-159.42 295.205,-163.927 305.511,-166.383 304.794,-159.42"/>
</g>
</g>
</svg>
