<?xml version="1.0" encoding="UTF-8" standalone="no"?>
<!DOCTYPE svg PUBLIC "-//W3C//DTD SVG 1.1//EN"
 "http://www.w3.org/Graphics/SVG/1.1/DTD/svg11.dtd">
<!-- Generated by graphviz version 2.34.0 (20130907.0111)
 -->
<!-- Title: JSONNode::deleteJSONNode Pages: 1 -->
<svg width="776pt" height="83pt"
 viewBox="0.00 0.00 776.00 83.00" xmlns="http://www.w3.org/2000/svg" xmlns:xlink="http://www.w3.org/1999/xlink">
<g id="graph0" class="graph" transform="scale(1 1) rotate(0) translate(4 79)">
<title>JSONNode::deleteJSONNode</title>
<polygon fill="white" stroke="white" points="-4,4 -4,-79 772,-79 772,4 -4,4"/>
<!-- Node1 -->
<g id="node1" class="node"><title>Node1</title>
<polygon fill="#bfbfbf" stroke="black" points="0.5,-23.5 0.5,-44.5 175.5,-44.5 175.5,-23.5 0.5,-23.5"/>
<text text-anchor="middle" x="88" y="-30.9" font-family="Helvetica,sans-Serif" font-size="12.00">JSONNode::deleteJSONNode</text>
</g>
<!-- Node2 -->
<g id="node2" class="node"><title>Node2</title>
<g id="a_node2"><a xlink:href="../../d6/dc7/class_j_s_o_n_node.html#ab7fcb8d880ff067c76ba5d90ea26cc02" target="_top" xlink:title="JSONNode::~JSONNode">
<polygon fill="white" stroke="black" points="212.5,-23.5 212.5,-44.5 361.5,-44.5 361.5,-23.5 212.5,-23.5"/>
<text text-anchor="middle" x="287" y="-30.9" font-family="Helvetica,sans-Serif" font-size="12.00">JSONNode::~JSONNode</text>
</a>
</g>
</g>
<!-- Node1&#45;&gt;Node2 -->
<g id="edge1" class="edge"><title>Node1&#45;&gt;Node2</title>
<path fill="none" stroke="midnightblue" d="M175.694,-34C184.449,-34 193.33,-34 202.055,-34"/>
<polygon fill="midnightblue" stroke="midnightblue" points="202.21,-37.5001 212.21,-34 202.21,-30.5001 202.21,-37.5001"/>
</g>
<!-- Node3 -->
<g id="node3" class="node"><title>Node3</title>
<g id="a_node3"><a xlink:href="../../d6/dc7/class_j_s_o_n_node.html#ac68ad8233da336a15052bad5edf087a6" target="_top" xlink:title="JSONNode::decRef">
<polygon fill="white" stroke="black" points="398,-23.5 398,-44.5 518,-44.5 518,-23.5 398,-23.5"/>
<text text-anchor="middle" x="458" y="-30.9" font-family="Helvetica,sans-Serif" font-size="12.00">JSONNode::decRef</text>
</a>
</g>
</g>
<!-- Node2&#45;&gt;Node3 -->
<g id="edge2" class="edge"><title>Node2&#45;&gt;Node3</title>
<path fill="none" stroke="midnightblue" d="M361.634,-34C370.329,-34 379.18,-34 387.81,-34"/>
<polygon fill="midnightblue" stroke="midnightblue" points="387.818,-37.5001 397.818,-34 387.818,-30.5001 387.818,-37.5001"/>
</g>
<!-- Node4 -->
<g id="node4" class="node"><title>Node4</title>
<g id="a_node4"><a xlink:href="../../d1/d0b/classinternal_j_s_o_n_node.html#a9c6fdbfa2a691417e78b53330c1ceced" target="_top" xlink:title="internalJSONNode::delete\lInternal">
<polygon fill="white" stroke="black" points="585,-41 585,-75 737,-75 737,-41 585,-41"/>
<text text-anchor="start" x="593" y="-61.4" font-family="Helvetica,sans-Serif" font-size="12.00">internalJSONNode::delete</text>
<text text-anchor="middle" x="661" y="-48.4" font-family="Helvetica,sans-Serif" font-size="12.00">Internal</text>
</a>
</g>
</g>
<!-- Node3&#45;&gt;Node4 -->
<g id="edge3" class="edge"><title>Node3&#45;&gt;Node4</title>
<path fill="none" stroke="midnightblue" d="M518.219,-41.071C535.888,-43.1807 555.617,-45.5364 574.609,-47.8041"/>
<polygon fill="midnightblue" stroke="midnightblue" points="574.417,-51.306 584.762,-49.0164 575.247,-44.3553 574.417,-51.306"/>
</g>
<!-- Node5 -->
<g id="node5" class="node"><title>Node5</title>
<g id="a_node5"><a xlink:href="../../d1/d0b/classinternal_j_s_o_n_node.html#aeb2be9601ca22ac3abb8917c95aa251a" target="_top" xlink:title="internalJSONNode::hasNoReferences">
<polygon fill="white" stroke="black" points="554,-0.5 554,-21.5 768,-21.5 768,-0.5 554,-0.5"/>
<text text-anchor="middle" x="661" y="-7.9" font-family="Helvetica,sans-Serif" font-size="12.00">internalJSONNode::hasNoReferences</text>
</a>
</g>
</g>
<!-- Node3&#45;&gt;Node5 -->
<g id="edge4" class="edge"><title>Node3&#45;&gt;Node5</title>
<path fill="none" stroke="midnightblue" d="M518.219,-27.2236C530.799,-25.7842 544.423,-24.2252 558.083,-22.6622"/>
<polygon fill="midnightblue" stroke="midnightblue" points="558.483,-26.1393 568.02,-21.525 557.687,-19.1847 558.483,-26.1393"/>
</g>
</g>
</svg>
