<?xml version="1.0" encoding="UTF-8" standalone="no"?>
<!DOCTYPE svg PUBLIC "-//W3C//DTD SVG 1.1//EN"
 "http://www.w3.org/Graphics/SVG/1.1/DTD/svg11.dtd">
<!-- Generated by graphviz version 2.34.0 (20130907.0111)
 -->
<!-- Title: JSONNode::makeUniqueInternal Pages: 1 -->
<svg width="1200pt" height="76pt"
 viewBox="0.00 0.00 1200.00 76.00" xmlns="http://www.w3.org/2000/svg" xmlns:xlink="http://www.w3.org/1999/xlink">
<g id="graph0" class="graph" transform="scale(1 1) rotate(0) translate(4 72)">
<title>JSONNode::makeUniqueInternal</title>
<polygon fill="white" stroke="white" points="-4,4 -4,-72 1196,-72 1196,4 -4,4"/>
<!-- Node1 -->
<g id="node1" class="node"><title>Node1</title>
<polygon fill="#bfbfbf" stroke="black" points="0.5,-26.5 0.5,-47.5 185.5,-47.5 185.5,-26.5 0.5,-26.5"/>
<text text-anchor="middle" x="93" y="-33.9" font-family="Helvetica,sans-Serif" font-size="12.00">JSONNode::makeUniqueInternal</text>
</g>
<!-- Node2 -->
<g id="node2" class="node"><title>Node2</title>
<g id="a_node2"><a xlink:href="../../d1/d0b/classinternal_j_s_o_n_node.html#a72b82897da17766d09a3e4ea4a743cf1" target="_top" xlink:title="internalJSONNode::makeUnique">
<polygon fill="white" stroke="black" points="222,-26.5 222,-47.5 408,-47.5 408,-26.5 222,-26.5"/>
<text text-anchor="middle" x="315" y="-33.9" font-family="Helvetica,sans-Serif" font-size="12.00">internalJSONNode::makeUnique</text>
</a>
</g>
</g>
<!-- Node1&#45;&gt;Node2 -->
<g id="edge1" class="edge"><title>Node1&#45;&gt;Node2</title>
<path fill="none" stroke="midnightblue" d="M185.707,-37C194.266,-37 202.977,-37 211.624,-37"/>
<polygon fill="midnightblue" stroke="midnightblue" points="211.734,-40.5001 221.734,-37 211.734,-33.5001 211.734,-40.5001"/>
</g>
<!-- Node3 -->
<g id="node3" class="node"><title>Node3</title>
<g id="a_node3"><a xlink:href="../../d1/d0b/classinternal_j_s_o_n_node.html#a1d79eee0bbd754c13edac1498e3a7a3d" target="_top" xlink:title="internalJSONNode::decRef">
<polygon fill="white" stroke="black" points="454,-46.5 454,-67.5 612,-67.5 612,-46.5 454,-46.5"/>
<text text-anchor="middle" x="533" y="-53.9" font-family="Helvetica,sans-Serif" font-size="12.00">internalJSONNode::decRef</text>
</a>
</g>
</g>
<!-- Node2&#45;&gt;Node3 -->
<g id="edge2" class="edge"><title>Node2&#45;&gt;Node3</title>
<path fill="none" stroke="midnightblue" d="M408.23,-45.5398C419.936,-46.6237 431.896,-47.7311 443.541,-48.8094"/>
<polygon fill="midnightblue" stroke="midnightblue" points="443.4,-52.3112 453.68,-49.7482 444.046,-45.341 443.4,-52.3112"/>
</g>
<!-- Node4 -->
<g id="node4" class="node"><title>Node4</title>
<g id="a_node4"><a xlink:href="../../d1/d0b/classinternal_j_s_o_n_node.html#a5656ff403a9a79fce1812aacee620fdd" target="_top" xlink:title="internalJSONNode::newInternal">
<polygon fill="white" stroke="black" points="444,-6.5 444,-27.5 622,-27.5 622,-6.5 444,-6.5"/>
<text text-anchor="middle" x="533" y="-13.9" font-family="Helvetica,sans-Serif" font-size="12.00">internalJSONNode::newInternal</text>
</a>
</g>
</g>
<!-- Node2&#45;&gt;Node4 -->
<g id="edge3" class="edge"><title>Node2&#45;&gt;Node4</title>
<path fill="none" stroke="midnightblue" d="M408.23,-28.4602C416.719,-27.6742 425.34,-26.8759 433.879,-26.0853"/>
<polygon fill="midnightblue" stroke="midnightblue" points="434.217,-29.5691 443.851,-25.1619 433.571,-22.5989 434.217,-29.5691"/>
</g>
<!-- Node5 -->
<g id="node5" class="node"><title>Node5</title>
<g id="a_node5"><a xlink:href="../../d1/d0b/classinternal_j_s_o_n_node.html#afb952c1e0ebf1928ecccd9a205baa0db" target="_top" xlink:title="internalJSONNode::internal\lJSONNode">
<polygon fill="white" stroke="black" points="658,-0 658,-34 816,-34 816,-0 658,-0"/>
<text text-anchor="start" x="666" y="-20.4" font-family="Helvetica,sans-Serif" font-size="12.00">internalJSONNode::internal</text>
<text text-anchor="middle" x="737" y="-7.4" font-family="Helvetica,sans-Serif" font-size="12.00">JSONNode</text>
</a>
</g>
</g>
<!-- Node4&#45;&gt;Node5 -->
<g id="edge4" class="edge"><title>Node4&#45;&gt;Node5</title>
<path fill="none" stroke="midnightblue" d="M622.013,-17C630.478,-17 639.067,-17 647.537,-17"/>
<polygon fill="midnightblue" stroke="midnightblue" points="647.793,-20.5001 657.793,-17 647.793,-13.5001 647.793,-20.5001"/>
</g>
<!-- Node6 -->
<g id="node6" class="node"><title>Node6</title>
<g id="a_node6"><a xlink:href="../../db/d49/classjson_children.html#ac71d832f3f81306fcb13e6f581f4431a" target="_top" xlink:title="jsonChildren::newChildren">
<polygon fill="white" stroke="black" points="852,-6.5 852,-27.5 1004,-27.5 1004,-6.5 852,-6.5"/>
<text text-anchor="middle" x="928" y="-13.9" font-family="Helvetica,sans-Serif" font-size="12.00">jsonChildren::newChildren</text>
</a>
</g>
</g>
<!-- Node5&#45;&gt;Node6 -->
<g id="edge5" class="edge"><title>Node5&#45;&gt;Node6</title>
<path fill="none" stroke="midnightblue" d="M816.238,-17C824.613,-17 833.163,-17 841.616,-17"/>
<polygon fill="midnightblue" stroke="midnightblue" points="841.859,-20.5001 851.859,-17 841.859,-13.5001 841.859,-20.5001"/>
</g>
<!-- Node7 -->
<g id="node7" class="node"><title>Node7</title>
<g id="a_node7"><a xlink:href="../../db/d49/classjson_children.html#aa31b15a1d697846a9c2a8a710b2ba6f1" target="_top" xlink:title="jsonChildren::jsonChildren">
<polygon fill="white" stroke="black" points="1040,-6.5 1040,-27.5 1192,-27.5 1192,-6.5 1040,-6.5"/>
<text text-anchor="middle" x="1116" y="-13.9" font-family="Helvetica,sans-Serif" font-size="12.00">jsonChildren::jsonChildren</text>
</a>
</g>
</g>
<!-- Node6&#45;&gt;Node7 -->
<g id="edge6" class="edge"><title>Node6&#45;&gt;Node7</title>
<path fill="none" stroke="midnightblue" d="M1004.12,-17C1012.6,-17 1021.28,-17 1029.87,-17"/>
<polygon fill="midnightblue" stroke="midnightblue" points="1029.9,-20.5001 1039.9,-17 1029.9,-13.5001 1029.9,-20.5001"/>
</g>
</g>
</svg>
