<?xml version="1.0" encoding="UTF-8" standalone="no"?>
<!DOCTYPE svg PUBLIC "-//W3C//DTD SVG 1.1//EN"
 "http://www.w3.org/Graphics/SVG/1.1/DTD/svg11.dtd">
<!-- Generated by graphviz version 2.34.0 (20130907.0111)
 -->
<!-- Title: JSONNode::JSONNode Pages: 1 -->
<svg width="2108pt" height="316pt"
 viewBox="0.00 0.00 2108.00 316.00" xmlns="http://www.w3.org/2000/svg" xmlns:xlink="http://www.w3.org/1999/xlink">
<g id="graph0" class="graph" transform="scale(1 1) rotate(0) translate(4 312)">
<title>JSONNode::JSONNode</title>
<polygon fill="white" stroke="white" points="-4,4 -4,-312 2104,-312 2104,4 -4,4"/>
<!-- Node1 -->
<g id="node1" class="node"><title>Node1</title>
<polygon fill="#bfbfbf" stroke="black" points="0.5,-93.5 0.5,-114.5 143.5,-114.5 143.5,-93.5 0.5,-93.5"/>
<text text-anchor="middle" x="72" y="-100.9" font-family="Helvetica,sans-Serif" font-size="12.00">JSONNode::JSONNode</text>
</g>
<!-- Node2 -->
<g id="node2" class="node"><title>Node2</title>
<g id="a_node2"><a xlink:href="../../db/d8a/_documentation_2_operator-_console_2_j_s_o_n_2_j_s_o_n_node_8cpp.html#a459ea7a97e80c19dfc813f2712b9dd73" target="_top" xlink:title="_newJSONNode">
<polygon fill="white" stroke="black" points="210,-193.5 210,-214.5 314,-214.5 314,-193.5 210,-193.5"/>
<text text-anchor="middle" x="262" y="-200.9" font-family="Helvetica,sans-Serif" font-size="12.00">_newJSONNode</text>
</a>
</g>
</g>
<!-- Node1&#45;&gt;Node2 -->
<g id="edge1" class="edge"><title>Node1&#45;&gt;Node2</title>
<path fill="none" stroke="midnightblue" d="M100.285,-119.82C121.779,-132.156 152.589,-149.559 180,-164 199.704,-174.38 222.471,-185.552 238.84,-193.444"/>
<polygon fill="midnightblue" stroke="midnightblue" points="101.808,-116.658 91.3956,-114.702 98.3158,-122.725 101.808,-116.658"/>
</g>
<!-- Node19 -->
<g id="node19" class="node"><title>Node19</title>
<g id="a_node19"><a xlink:href="../../d6/dc7/class_j_s_o_n_node.html#ac30e692c490e07e072ebfc7158904706" target="_top" xlink:title="JSONNode::as_array">
<polygon fill="white" stroke="black" points="198,-133.5 198,-154.5 326,-154.5 326,-133.5 198,-133.5"/>
<text text-anchor="middle" x="262" y="-140.9" font-family="Helvetica,sans-Serif" font-size="12.00">JSONNode::as_array</text>
</a>
</g>
</g>
<!-- Node1&#45;&gt;Node19 -->
<g id="edge20" class="edge"><title>Node1&#45;&gt;Node19</title>
<path fill="none" stroke="midnightblue" d="M132.324,-116.622C157.836,-122.05 187.311,-128.321 211.609,-133.491"/>
<polygon fill="midnightblue" stroke="midnightblue" points="132.904,-113.167 122.395,-114.51 131.447,-120.014 132.904,-113.167"/>
</g>
<!-- Node25 -->
<g id="node25" class="node"><title>Node25</title>
<g id="a_node25"><a xlink:href="../../d6/dc7/class_j_s_o_n_node.html#ad89a85d2b307990217b391df647fd6f5" target="_top" xlink:title="JSONNode::as_node">
<polygon fill="white" stroke="black" points="198,-93.5 198,-114.5 326,-114.5 326,-93.5 198,-93.5"/>
<text text-anchor="middle" x="262" y="-100.9" font-family="Helvetica,sans-Serif" font-size="12.00">JSONNode::as_node</text>
</a>
</g>
</g>
<!-- Node1&#45;&gt;Node25 -->
<g id="edge27" class="edge"><title>Node1&#45;&gt;Node25</title>
<path fill="none" stroke="midnightblue" d="M153.669,-104C168.432,-104 183.642,-104 197.803,-104"/>
<polygon fill="midnightblue" stroke="midnightblue" points="153.539,-100.5 143.539,-104 153.539,-107.5 153.539,-100.5"/>
</g>
<!-- Node26 -->
<g id="node26" class="node"><title>Node26</title>
<g id="a_node26"><a xlink:href="../../d6/dc7/class_j_s_o_n_node.html#a450b80d527cb44567dec31779a763f53" target="_top" xlink:title="JSONNode::newJSONNode">
<polygon fill="white" stroke="black" points="180,-53.5 180,-74.5 344,-74.5 344,-53.5 180,-53.5"/>
<text text-anchor="middle" x="262" y="-60.9" font-family="Helvetica,sans-Serif" font-size="12.00">JSONNode::newJSONNode</text>
</a>
</g>
</g>
<!-- Node1&#45;&gt;Node26 -->
<g id="edge28" class="edge"><title>Node1&#45;&gt;Node26</title>
<path fill="none" stroke="midnightblue" d="M132.324,-91.378C157.836,-85.9499 187.311,-79.6785 211.609,-74.5087"/>
<polygon fill="midnightblue" stroke="midnightblue" points="131.447,-87.9859 122.395,-93.4905 132.904,-94.8327 131.447,-87.9859"/>
</g>
<!-- Node27 -->
<g id="node27" class="node"><title>Node27</title>
<g id="a_node27"><a xlink:href="../../d6/dc7/class_j_s_o_n_node.html#ad04d68cef4a59ee68f01742213bd5567" target="_top" xlink:title="JSONNode::newJSONNode\l_Shallow">
<polygon fill="white" stroke="black" points="180,-0 180,-34 344,-34 344,-0 180,-0"/>
<text text-anchor="start" x="188" y="-20.4" font-family="Helvetica,sans-Serif" font-size="12.00">JSONNode::newJSONNode</text>
<text text-anchor="middle" x="262" y="-7.4" font-family="Helvetica,sans-Serif" font-size="12.00">_Shallow</text>
</a>
</g>
</g>
<!-- Node1&#45;&gt;Node27 -->
<g id="edge29" class="edge"><title>Node1&#45;&gt;Node27</title>
<path fill="none" stroke="midnightblue" d="M98.2603,-88.0323C119.51,-75.0447 150.987,-56.8317 180,-44 187.998,-40.4626 196.612,-37.1216 205.133,-34.0743"/>
<polygon fill="midnightblue" stroke="midnightblue" points="96.207,-85.1867 89.5394,-93.4204 99.8863,-91.1418 96.207,-85.1867"/>
</g>
<!-- Node3 -->
<g id="node3" class="node"><title>Node3</title>
<g id="a_node3"><a xlink:href="../../d6/dc7/class_j_s_o_n_node.html#a2435b57e1586f3c7c7d915b3490a4e1c" target="_top" xlink:title="JSONNode::newJSONNode">
<polygon fill="white" stroke="black" points="380,-233.5 380,-254.5 544,-254.5 544,-233.5 380,-233.5"/>
<text text-anchor="middle" x="462" y="-240.9" font-family="Helvetica,sans-Serif" font-size="12.00">JSONNode::newJSONNode</text>
</a>
</g>
</g>
<!-- Node2&#45;&gt;Node3 -->
<g id="edge2" class="edge"><title>Node2&#45;&gt;Node3</title>
<path fill="none" stroke="midnightblue" d="M324.396,-216.403C351.495,-221.878 383.008,-228.244 408.934,-233.482"/>
<polygon fill="midnightblue" stroke="midnightblue" points="324.742,-212.903 314.247,-214.353 323.356,-219.764 324.742,-212.903"/>
</g>
<!-- Node4 -->
<g id="node4" class="node"><title>Node4</title>
<g id="a_node4"><a xlink:href="../../d1/d0b/classinternal_j_s_o_n_node.html#a8757ff69826db8035ea7031fa6c3815a" target="_top" xlink:title="internalJSONNode::internal\lJSONNode">
<polygon fill="white" stroke="black" points="590,-274 590,-308 748,-308 748,-274 590,-274"/>
<text text-anchor="start" x="598" y="-294.4" font-family="Helvetica,sans-Serif" font-size="12.00">internalJSONNode::internal</text>
<text text-anchor="middle" x="669" y="-281.4" font-family="Helvetica,sans-Serif" font-size="12.00">JSONNode</text>
</a>
</g>
</g>
<!-- Node3&#45;&gt;Node4 -->
<g id="edge3" class="edge"><title>Node3&#45;&gt;Node4</title>
<path fill="none" stroke="midnightblue" d="M518.941,-256.825C541.953,-262.101 568.942,-268.289 593.584,-273.939"/>
<polygon fill="midnightblue" stroke="midnightblue" points="519.535,-253.371 509.006,-254.548 517.971,-260.194 519.535,-253.371"/>
</g>
<!-- Node5 -->
<g id="node5" class="node"><title>Node5</title>
<g id="a_node5"><a xlink:href="../../d1/d0b/classinternal_j_s_o_n_node.html#a52054310b770dc15cf10e34e32713f19" target="_top" xlink:title="internalJSONNode::push_back">
<polygon fill="white" stroke="black" points="580.5,-233.5 580.5,-254.5 757.5,-254.5 757.5,-233.5 580.5,-233.5"/>
<text text-anchor="middle" x="669" y="-240.9" font-family="Helvetica,sans-Serif" font-size="12.00">internalJSONNode::push_back</text>
</a>
</g>
</g>
<!-- Node3&#45;&gt;Node5 -->
<g id="edge4" class="edge"><title>Node3&#45;&gt;Node5</title>
<path fill="none" stroke="midnightblue" d="M554.207,-244C562.94,-244 571.784,-244 580.481,-244"/>
<polygon fill="midnightblue" stroke="midnightblue" points="554.021,-240.5 544.021,-244 554.021,-247.5 554.021,-240.5"/>
</g>
<!-- Node18 -->
<g id="node18" class="node"><title>Node18</title>
<g id="a_node18"><a xlink:href="../../d1/d0b/classinternal_j_s_o_n_node.html#a70aeebf2403905cc309f743e8c7b8539" target="_top" xlink:title="internalJSONNode::push\l_front">
<polygon fill="white" stroke="black" points="596.5,-180 596.5,-214 741.5,-214 741.5,-180 596.5,-180"/>
<text text-anchor="start" x="604.5" y="-200.4" font-family="Helvetica,sans-Serif" font-size="12.00">internalJSONNode::push</text>
<text text-anchor="middle" x="669" y="-187.4" font-family="Helvetica,sans-Serif" font-size="12.00">_front</text>
</a>
</g>
</g>
<!-- Node3&#45;&gt;Node18 -->
<g id="edge19" class="edge"><title>Node3&#45;&gt;Node18</title>
<path fill="none" stroke="midnightblue" d="M518.96,-231.17C542.845,-225.694 571.01,-219.237 596.389,-213.418"/>
<polygon fill="midnightblue" stroke="midnightblue" points="517.971,-227.806 509.006,-233.452 519.535,-234.629 517.971,-227.806"/>
</g>
<!-- Node6 -->
<g id="node6" class="node"><title>Node6</title>
<g id="a_node6"><a xlink:href="../../d6/dc7/class_j_s_o_n_node.html#a5200c65f827a99897b00681aa3b35671" target="_top" xlink:title="JSONNode::push_back">
<polygon fill="white" stroke="black" points="794,-233.5 794,-254.5 934,-254.5 934,-233.5 794,-233.5"/>
<text text-anchor="middle" x="864" y="-240.9" font-family="Helvetica,sans-Serif" font-size="12.00">JSONNode::push_back</text>
</a>
</g>
</g>
<!-- Node5&#45;&gt;Node6 -->
<g id="edge5" class="edge"><title>Node5&#45;&gt;Node6</title>
<path fill="none" stroke="midnightblue" d="M768.024,-244C776.787,-244 785.533,-244 793.973,-244"/>
<polygon fill="midnightblue" stroke="midnightblue" points="767.747,-240.5 757.747,-244 767.747,-247.5 767.747,-240.5"/>
</g>
<!-- Node7 -->
<g id="node7" class="node"><title>Node7</title>
<g id="a_node7"><a xlink:href="../../d3/d71/jsonhelpers_8h.html#a3a69c2987d346d326aeffb52183db0f4" target="_top" xlink:title="prepareTestSettings">
<polygon fill="white" stroke="black" points="970.5,-233.5 970.5,-254.5 1093.5,-254.5 1093.5,-233.5 970.5,-233.5"/>
<text text-anchor="middle" x="1032" y="-240.9" font-family="Helvetica,sans-Serif" font-size="12.00">prepareTestSettings</text>
</a>
</g>
</g>
<!-- Node6&#45;&gt;Node7 -->
<g id="edge6" class="edge"><title>Node6&#45;&gt;Node7</title>
<path fill="none" stroke="midnightblue" d="M944.55,-244C953.204,-244 961.908,-244 970.285,-244"/>
<polygon fill="midnightblue" stroke="midnightblue" points="944.437,-240.5 934.437,-244 944.437,-247.5 944.437,-240.5"/>
</g>
<!-- Node8 -->
<g id="node8" class="node"><title>Node8</title>
<g id="a_node8"><a xlink:href="../../da/d92/class_image_test.html#a7334d76c1cc6780f46626be5b9ff1adb" target="_top" xlink:title="Runs the test pointed to by m_imatestFunc. ">
<polygon fill="white" stroke="black" points="1130,-233.5 1130,-254.5 1228,-254.5 1228,-233.5 1130,-233.5"/>
<text text-anchor="middle" x="1179" y="-240.9" font-family="Helvetica,sans-Serif" font-size="12.00">ImageTest::Run</text>
</a>
</g>
</g>
<!-- Node7&#45;&gt;Node8 -->
<g id="edge7" class="edge"><title>Node7&#45;&gt;Node8</title>
<path fill="none" stroke="midnightblue" d="M1103.66,-244C1112.56,-244 1121.49,-244 1129.93,-244"/>
<polygon fill="midnightblue" stroke="midnightblue" points="1103.65,-240.5 1093.65,-244 1103.65,-247.5 1103.65,-240.5"/>
</g>
<!-- Node9 -->
<g id="node9" class="node"><title>Node9</title>
<g id="a_node9"><a xlink:href="../../da/d92/class_image_test.html#accf2cfff6fe48fd19888727208dd6728" target="_top" xlink:title="ImageTest::Run">
<polygon fill="white" stroke="black" points="1285,-253.5 1285,-274.5 1383,-274.5 1383,-253.5 1285,-253.5"/>
<text text-anchor="middle" x="1334" y="-260.9" font-family="Helvetica,sans-Serif" font-size="12.00">ImageTest::Run</text>
</a>
</g>
</g>
<!-- Node8&#45;&gt;Node9 -->
<g id="edge8" class="edge"><title>Node8&#45;&gt;Node9</title>
<path fill="none" stroke="midnightblue" d="M1238.34,-251.626C1253.72,-253.636 1270.13,-255.782 1284.9,-257.713"/>
<polygon fill="midnightblue" stroke="midnightblue" points="1238.78,-248.154 1228.41,-250.328 1237.87,-255.095 1238.78,-248.154"/>
</g>
<!-- Node10 -->
<g id="node10" class="node"><title>Node10</title>
<g id="a_node10"><a xlink:href="../../da/d92/class_image_test.html#a372478d09c06cd7ab3684840add6215e" target="_top" xlink:title="param must be a pointer to a ThreadControl object; param&#45;&gt;m_data must point to an ImageTest object ...">
<polygon fill="white" stroke="black" points="1264.5,-213.5 1264.5,-234.5 1403.5,-234.5 1403.5,-213.5 1264.5,-213.5"/>
<text text-anchor="middle" x="1334" y="-220.9" font-family="Helvetica,sans-Serif" font-size="12.00">ImageTest::ThreadProc</text>
</a>
</g>
</g>
<!-- Node8&#45;&gt;Node10 -->
<g id="edge9" class="edge"><title>Node8&#45;&gt;Node10</title>
<path fill="none" stroke="midnightblue" d="M1238.57,-236.344C1247.05,-235.235 1255.84,-234.086 1264.5,-232.954"/>
<polygon fill="midnightblue" stroke="midnightblue" points="1237.87,-232.905 1228.41,-237.672 1238.78,-239.846 1237.87,-232.905"/>
</g>
<!-- Node11 -->
<g id="node11" class="node"><title>Node11</title>
<g id="a_node11"><a xlink:href="../../d3/d9f/class_c_operator_console_app.html#a51ad7e6e8f370072c3e89d0d7e9e41a8" target="_top" xlink:title="COperatorConsoleApp\l::InitBlemishThread">
<polygon fill="white" stroke="black" points="1440.5,-234 1440.5,-268 1577.5,-268 1577.5,-234 1440.5,-234"/>
<text text-anchor="start" x="1448.5" y="-254.4" font-family="Helvetica,sans-Serif" font-size="12.00">COperatorConsoleApp</text>
<text text-anchor="middle" x="1509" y="-241.4" font-family="Helvetica,sans-Serif" font-size="12.00">::InitBlemishThread</text>
</a>
</g>
</g>
<!-- Node10&#45;&gt;Node11 -->
<g id="edge10" class="edge"><title>Node10&#45;&gt;Node11</title>
<path fill="none" stroke="midnightblue" d="M1412.38,-236.077C1421.67,-237.526 1431.1,-238.998 1440.23,-240.424"/>
<polygon fill="midnightblue" stroke="midnightblue" points="1412.8,-232.6 1402.38,-234.516 1411.72,-239.516 1412.8,-232.6"/>
</g>
<!-- Node17 -->
<g id="node17" class="node"><title>Node17</title>
<g id="a_node17"><a xlink:href="../../d3/d9f/class_c_operator_console_app.html#af7328d2c00abb1d4a09a65492c69b2b0" target="_top" xlink:title="COperatorConsoleApp\l::InitSFRplusThread">
<polygon fill="white" stroke="black" points="1440.5,-181 1440.5,-215 1577.5,-215 1577.5,-181 1440.5,-181"/>
<text text-anchor="start" x="1448.5" y="-201.4" font-family="Helvetica,sans-Serif" font-size="12.00">COperatorConsoleApp</text>
<text text-anchor="middle" x="1509" y="-188.4" font-family="Helvetica,sans-Serif" font-size="12.00">::InitSFRplusThread</text>
</a>
</g>
</g>
<!-- Node10&#45;&gt;Node17 -->
<g id="edge16" class="edge"><title>Node10&#45;&gt;Node17</title>
<path fill="none" stroke="midnightblue" d="M1413.85,-212.149C1422.75,-210.812 1431.76,-209.458 1440.49,-208.145"/>
<polygon fill="midnightblue" stroke="midnightblue" points="1413.24,-208.702 1403.87,-213.649 1414.28,-215.624 1413.24,-208.702"/>
</g>
<!-- Node12 -->
<g id="node12" class="node"><title>Node12</title>
<g id="a_node12"><a xlink:href="../../d3/d9f/class_c_operator_console_app.html#a7f0cd7b21cee2171dea973e4e6e7bb9d" target="_top" xlink:title="Init perform application&#45;specific initialization. ">
<polygon fill="white" stroke="black" points="1614.5,-234 1614.5,-268 1751.5,-268 1751.5,-234 1614.5,-234"/>
<text text-anchor="start" x="1622.5" y="-254.4" font-family="Helvetica,sans-Serif" font-size="12.00">COperatorConsoleApp</text>
<text text-anchor="middle" x="1683" y="-241.4" font-family="Helvetica,sans-Serif" font-size="12.00">::Init</text>
</a>
</g>
</g>
<!-- Node11&#45;&gt;Node12 -->
<g id="edge11" class="edge"><title>Node11&#45;&gt;Node12</title>
<path fill="none" stroke="midnightblue" d="M1588.13,-251C1596.85,-251 1605.67,-251 1614.23,-251"/>
<polygon fill="midnightblue" stroke="midnightblue" points="1587.98,-247.5 1577.98,-251 1587.98,-254.5 1587.98,-247.5"/>
</g>
<!-- Node14 -->
<g id="node14" class="node"><title>Node14</title>
<g id="a_node14"><a xlink:href="../../d3/d9f/class_c_operator_console_app.html#aede77af6cae8053d49c752fd95910728" target="_top" xlink:title="This function allows for reallocation of the various image buffers when we change the image size...">
<polygon fill="white" stroke="black" points="1614.5,-181 1614.5,-215 1751.5,-215 1751.5,-181 1614.5,-181"/>
<text text-anchor="start" x="1622.5" y="-201.4" font-family="Helvetica,sans-Serif" font-size="12.00">COperatorConsoleApp</text>
<text text-anchor="middle" x="1683" y="-188.4" font-family="Helvetica,sans-Serif" font-size="12.00">::ReInit</text>
</a>
</g>
</g>
<!-- Node11&#45;&gt;Node14 -->
<g id="edge13" class="edge"><title>Node11&#45;&gt;Node14</title>
<path fill="none" stroke="midnightblue" d="M1575.21,-230.906C1592.19,-225.673 1610.32,-220.086 1626.74,-215.029"/>
<polygon fill="midnightblue" stroke="midnightblue" points="1573.89,-227.649 1565.37,-233.939 1575.96,-234.339 1573.89,-227.649"/>
</g>
<!-- Node13 -->
<g id="node13" class="node"><title>Node13</title>
<g id="a_node13"><a xlink:href="../../d3/d9f/class_c_operator_console_app.html#a94f4b258145e77e31644beb999bf099a" target="_top" xlink:title="COperatorConsoleApp initialization. ">
<polygon fill="white" stroke="black" points="1788.5,-234 1788.5,-268 1925.5,-268 1925.5,-234 1788.5,-234"/>
<text text-anchor="start" x="1796.5" y="-254.4" font-family="Helvetica,sans-Serif" font-size="12.00">COperatorConsoleApp</text>
<text text-anchor="middle" x="1857" y="-241.4" font-family="Helvetica,sans-Serif" font-size="12.00">::InitInstance</text>
</a>
</g>
</g>
<!-- Node12&#45;&gt;Node13 -->
<g id="edge12" class="edge"><title>Node12&#45;&gt;Node13</title>
<path fill="none" stroke="midnightblue" d="M1762.13,-251C1770.85,-251 1779.67,-251 1788.23,-251"/>
<polygon fill="midnightblue" stroke="midnightblue" points="1761.98,-247.5 1751.98,-251 1761.98,-254.5 1761.98,-247.5"/>
</g>
<!-- Node15 -->
<g id="node15" class="node"><title>Node15</title>
<g id="a_node15"><a xlink:href="../../d3/d9f/class_c_operator_console_app.html#a620f8d2eed65d743bb177abcb90936e6" target="_top" xlink:title="Called after MSG_SETUP is received. ">
<polygon fill="white" stroke="black" points="1788.5,-181 1788.5,-215 1925.5,-215 1925.5,-181 1788.5,-181"/>
<text text-anchor="start" x="1796.5" y="-201.4" font-family="Helvetica,sans-Serif" font-size="12.00">COperatorConsoleApp</text>
<text text-anchor="middle" x="1857" y="-188.4" font-family="Helvetica,sans-Serif" font-size="12.00">::OnSetup</text>
</a>
</g>
</g>
<!-- Node14&#45;&gt;Node15 -->
<g id="edge14" class="edge"><title>Node14&#45;&gt;Node15</title>
<path fill="none" stroke="midnightblue" d="M1762.13,-198C1770.85,-198 1779.67,-198 1788.23,-198"/>
<polygon fill="midnightblue" stroke="midnightblue" points="1761.98,-194.5 1751.98,-198 1761.98,-201.5 1761.98,-194.5"/>
</g>
<!-- Node16 -->
<g id="node16" class="node"><title>Node16</title>
<g id="a_node16"><a xlink:href="../../d3/d9f/class_c_operator_console_app.html#a7041d197c4e6549f2cb7219981b4eec1" target="_top" xlink:title="Intercepts messages of interest before Windows or MFC. ">
<polygon fill="white" stroke="black" points="1962,-181 1962,-215 2100,-215 2100,-181 1962,-181"/>
<text text-anchor="start" x="1970" y="-201.4" font-family="Helvetica,sans-Serif" font-size="12.00">COperatorConsoleApp</text>
<text text-anchor="middle" x="2031" y="-188.4" font-family="Helvetica,sans-Serif" font-size="12.00">::PreTranslateMessage</text>
</a>
</g>
</g>
<!-- Node15&#45;&gt;Node16 -->
<g id="edge15" class="edge"><title>Node15&#45;&gt;Node16</title>
<path fill="none" stroke="midnightblue" d="M1936.05,-198C1944.7,-198 1953.45,-198 1961.95,-198"/>
<polygon fill="midnightblue" stroke="midnightblue" points="1935.98,-194.5 1925.98,-198 1935.98,-201.5 1935.98,-194.5"/>
</g>
<!-- Node17&#45;&gt;Node12 -->
<g id="edge17" class="edge"><title>Node17&#45;&gt;Node12</title>
<path fill="none" stroke="midnightblue" d="M1575.21,-218.094C1592.19,-223.327 1610.32,-228.914 1626.74,-233.971"/>
<polygon fill="midnightblue" stroke="midnightblue" points="1575.96,-214.661 1565.37,-215.061 1573.89,-221.351 1575.96,-214.661"/>
</g>
<!-- Node17&#45;&gt;Node14 -->
<g id="edge18" class="edge"><title>Node17&#45;&gt;Node14</title>
<path fill="none" stroke="midnightblue" d="M1588.13,-198C1596.85,-198 1605.67,-198 1614.23,-198"/>
<polygon fill="midnightblue" stroke="midnightblue" points="1587.98,-194.5 1577.98,-198 1587.98,-201.5 1587.98,-194.5"/>
</g>
<!-- Node20 -->
<g id="node20" class="node"><title>Node20</title>
<g id="a_node20"><a xlink:href="../../d8/de1/class_blemish_test.html#ad9071bb6332b7fc91a6e7c7ef109cba2" target="_top" xlink:title="Parses the JSON output of an sfrPlus test to determine the pass/fail status of the various metrics...">
<polygon fill="white" stroke="black" points="590.5,-55.5 590.5,-76.5 747.5,-76.5 747.5,-55.5 590.5,-55.5"/>
<text text-anchor="middle" x="669" y="-62.9" font-family="Helvetica,sans-Serif" font-size="12.00">BlemishTest::ParseResults</text>
</a>
</g>
</g>
<!-- Node19&#45;&gt;Node20 -->
<g id="edge21" class="edge"><title>Node19&#45;&gt;Node20</title>
<path fill="none" stroke="midnightblue" d="M324.42,-130.673C331.108,-128.68 337.751,-126.457 344,-124 361.034,-117.303 362.621,-109.743 380,-104 448.957,-81.214 531.462,-72.0388 590.456,-68.3719"/>
<polygon fill="midnightblue" stroke="midnightblue" points="323.307,-127.35 314.629,-133.429 325.204,-134.089 323.307,-127.35"/>
</g>
<!-- Node21 -->
<g id="node21" class="node"><title>Node21</title>
<g id="a_node21"><a xlink:href="../../da/d92/class_image_test.html#a3115f3892d84abcde05ab105ae4aaa8f" target="_top" xlink:title="ImageTest::GetString">
<polygon fill="white" stroke="black" points="398.5,-193.5 398.5,-214.5 525.5,-214.5 525.5,-193.5 398.5,-193.5"/>
<text text-anchor="middle" x="462" y="-200.9" font-family="Helvetica,sans-Serif" font-size="12.00">ImageTest::GetString</text>
</a>
</g>
</g>
<!-- Node19&#45;&gt;Node21 -->
<g id="edge22" class="edge"><title>Node19&#45;&gt;Node21</title>
<path fill="none" stroke="midnightblue" d="M301.239,-158.017C323.965,-166.111 353.447,-176.199 380,-184 391.396,-187.348 403.802,-190.603 415.402,-193.481"/>
<polygon fill="midnightblue" stroke="midnightblue" points="302.219,-154.651 291.625,-154.569 299.856,-161.24 302.219,-154.651"/>
</g>
<!-- Node22 -->
<g id="node22" class="node"><title>Node22</title>
<g id="a_node22"><a xlink:href="../../da/d92/class_image_test.html#ae8c27027ba0cc33150ec423c6b7ec6ae" target="_top" xlink:title="ImageTest::ParseFailures">
<polygon fill="white" stroke="black" points="386.5,-153.5 386.5,-174.5 537.5,-174.5 537.5,-153.5 386.5,-153.5"/>
<text text-anchor="middle" x="462" y="-160.9" font-family="Helvetica,sans-Serif" font-size="12.00">ImageTest::ParseFailures</text>
</a>
</g>
</g>
<!-- Node19&#45;&gt;Node22 -->
<g id="edge23" class="edge"><title>Node19&#45;&gt;Node22</title>
<path fill="none" stroke="midnightblue" d="M336.22,-151.396C352.562,-153.047 369.911,-154.799 386.311,-156.456"/>
<polygon fill="midnightblue" stroke="midnightblue" points="336.494,-147.906 326.193,-150.383 335.79,-154.87 336.494,-147.906"/>
</g>
<!-- Node23 -->
<g id="node23" class="node"><title>Node23</title>
<g id="a_node23"><a xlink:href="../../d3/d71/jsonhelpers_8h.html#a0c2d0c196f0e8025cfc01c009dd24fad" target="_top" xlink:title="getIntFromArray">
<polygon fill="white" stroke="black" points="412,-35.5 412,-56.5 512,-56.5 512,-35.5 412,-35.5"/>
<text text-anchor="middle" x="462" y="-42.9" font-family="Helvetica,sans-Serif" font-size="12.00">getIntFromArray</text>
</a>
</g>
</g>
<!-- Node19&#45;&gt;Node23 -->
<g id="edge24" class="edge"><title>Node19&#45;&gt;Node23</title>
<path fill="none" stroke="midnightblue" d="M335.361,-129.185C338.369,-127.626 341.266,-125.903 344,-124 367.371,-107.731 357.105,-87.9312 380,-71 389.348,-64.0871 400.64,-59.0599 411.786,-55.4131"/>
<polygon fill="midnightblue" stroke="midnightblue" points="333.727,-126.083 326.054,-133.39 336.609,-132.462 333.727,-126.083"/>
</g>
<!-- Node24 -->
<g id="node24" class="node"><title>Node24</title>
<g id="a_node24"><a xlink:href="../../dd/d12/class_s_f_rplus_test.html#a900f5edde4636d8b6f8f802ff866a15d" target="_top" xlink:title="Determines the pass/fail result for each quadrant. ">
<polygon fill="white" stroke="black" points="381.5,-113.5 381.5,-134.5 542.5,-134.5 542.5,-113.5 381.5,-113.5"/>
<text text-anchor="middle" x="462" y="-120.9" font-family="Helvetica,sans-Serif" font-size="12.00">SFRplusTest::ParseOverlay</text>
</a>
</g>
</g>
<!-- Node19&#45;&gt;Node24 -->
<g id="edge26" class="edge"><title>Node19&#45;&gt;Node24</title>
<path fill="none" stroke="midnightblue" d="M336.226,-136.603C350.931,-135.118 366.452,-133.55 381.363,-132.044"/>
<polygon fill="midnightblue" stroke="midnightblue" points="335.79,-133.13 326.193,-137.617 336.494,-140.094 335.79,-133.13"/>
</g>
<!-- Node23&#45;&gt;Node20 -->
<g id="edge25" class="edge"><title>Node23&#45;&gt;Node20</title>
<path fill="none" stroke="midnightblue" d="M522.283,-51.7837C543.562,-53.8597 567.882,-56.2324 590.478,-58.4369"/>
<polygon fill="midnightblue" stroke="midnightblue" points="522.395,-48.2781 512.103,-50.7905 521.715,-55.245 522.395,-48.2781"/>
</g>
</g>
</svg>
