<?xml version="1.0" encoding="UTF-8" standalone="no"?>
<!DOCTYPE svg PUBLIC "-//W3C//DTD SVG 1.1//EN"
 "http://www.w3.org/Graphics/SVG/1.1/DTD/svg11.dtd">
<!-- Generated by graphviz version 2.34.0 (20130907.0111)
 -->
<!-- Title: JSONNode::decRef Pages: 1 -->
<svg width="1088pt" height="103pt"
 viewBox="0.00 0.00 1088.00 103.00" xmlns="http://www.w3.org/2000/svg" xmlns:xlink="http://www.w3.org/1999/xlink">
<g id="graph0" class="graph" transform="scale(1 1) rotate(0) translate(4 99)">
<title>JSONNode::decRef</title>
<polygon fill="white" stroke="white" points="-4,4 -4,-99 1084,-99 1084,4 -4,4"/>
<!-- Node1 -->
<g id="node1" class="node"><title>Node1</title>
<polygon fill="#bfbfbf" stroke="black" points="0,-29.5 0,-50.5 120,-50.5 120,-29.5 0,-29.5"/>
<text text-anchor="middle" x="60" y="-36.9" font-family="Helvetica,sans-Serif" font-size="12.00">JSONNode::decRef</text>
</g>
<!-- Node2 -->
<g id="node2" class="node"><title>Node2</title>
<g id="a_node2"><a xlink:href="../../d6/dc7/class_j_s_o_n_node.html#ab7fcb8d880ff067c76ba5d90ea26cc02" target="_top" xlink:title="JSONNode::~JSONNode">
<polygon fill="white" stroke="black" points="156.5,-29.5 156.5,-50.5 305.5,-50.5 305.5,-29.5 156.5,-29.5"/>
<text text-anchor="middle" x="231" y="-36.9" font-family="Helvetica,sans-Serif" font-size="12.00">JSONNode::~JSONNode</text>
</a>
</g>
</g>
<!-- Node1&#45;&gt;Node2 -->
<g id="edge1" class="edge"><title>Node1&#45;&gt;Node2</title>
<path fill="none" stroke="midnightblue" d="M130.134,-40C138.781,-40 147.65,-40 156.362,-40"/>
<polygon fill="midnightblue" stroke="midnightblue" points="130.108,-36.5001 120.108,-40 130.108,-43.5001 130.108,-36.5001"/>
</g>
<!-- Node3 -->
<g id="node3" class="node"><title>Node3</title>
<g id="a_node3"><a xlink:href="../../d6/dc7/class_j_s_o_n_node.html#a4820d966e35e8512e8de4d646960e149" target="_top" xlink:title="JSONNode::deleteJSONNode">
<polygon fill="white" stroke="black" points="342.5,-29.5 342.5,-50.5 517.5,-50.5 517.5,-29.5 342.5,-29.5"/>
<text text-anchor="middle" x="430" y="-36.9" font-family="Helvetica,sans-Serif" font-size="12.00">JSONNode::deleteJSONNode</text>
</a>
</g>
</g>
<!-- Node2&#45;&gt;Node3 -->
<g id="edge2" class="edge"><title>Node2&#45;&gt;Node3</title>
<path fill="none" stroke="midnightblue" d="M315.793,-40C324.522,-40 333.408,-40 342.169,-40"/>
<polygon fill="midnightblue" stroke="midnightblue" points="315.636,-36.5001 305.636,-40 315.636,-43.5001 315.636,-36.5001"/>
</g>
<!-- Node4 -->
<g id="node4" class="node"><title>Node4</title>
<g id="a_node4"><a xlink:href="../../db/d49/classjson_children.html#a2ed8d882781d9681d3971df0008508b3" target="_top" xlink:title="jsonChildren::deleteAll">
<polygon fill="white" stroke="black" points="554,-53.5 554,-74.5 686,-74.5 686,-53.5 554,-53.5"/>
<text text-anchor="middle" x="620" y="-60.9" font-family="Helvetica,sans-Serif" font-size="12.00">jsonChildren::deleteAll</text>
</a>
</g>
</g>
<!-- Node3&#45;&gt;Node4 -->
<g id="edge3" class="edge"><title>Node3&#45;&gt;Node4</title>
<path fill="none" stroke="midnightblue" d="M523.639,-51.8263C533.844,-53.1291 544.071,-54.4346 553.837,-55.6813"/>
<polygon fill="midnightblue" stroke="midnightblue" points="523.822,-48.3213 513.46,-50.5267 522.936,-55.265 523.822,-48.3213"/>
</g>
<!-- Node8 -->
<g id="node8" class="node"><title>Node8</title>
<g id="a_node8"><a xlink:href="../../d6/dd3/structauto__delete.html#a5cbc6e3213b5b47b849dac80d2ea17b9" target="_top" xlink:title="auto_delete::~auto\l_delete">
<polygon fill="white" stroke="black" points="563.5,-0 563.5,-34 676.5,-34 676.5,-0 563.5,-0"/>
<text text-anchor="start" x="571.5" y="-20.4" font-family="Helvetica,sans-Serif" font-size="12.00">auto_delete::~auto</text>
<text text-anchor="middle" x="620" y="-7.4" font-family="Helvetica,sans-Serif" font-size="12.00">_delete</text>
</a>
</g>
</g>
<!-- Node3&#45;&gt;Node8 -->
<g id="edge7" class="edge"><title>Node3&#45;&gt;Node8</title>
<path fill="none" stroke="midnightblue" d="M527.019,-28.253C539.491,-26.7271 551.917,-25.207 563.416,-23.8002"/>
<polygon fill="midnightblue" stroke="midnightblue" points="526.523,-24.7875 517.022,-29.476 527.373,-31.7357 526.523,-24.7875"/>
</g>
<!-- Node5 -->
<g id="node5" class="node"><title>Node5</title>
<g id="a_node5"><a xlink:href="../../db/d49/classjson_children.html#ae5b065bc0e3bf8dc7c3f130c900a1e32" target="_top" xlink:title="jsonChildren::clear">
<polygon fill="white" stroke="black" points="744.5,-73.5 744.5,-94.5 857.5,-94.5 857.5,-73.5 744.5,-73.5"/>
<text text-anchor="middle" x="801" y="-80.9" font-family="Helvetica,sans-Serif" font-size="12.00">jsonChildren::clear</text>
</a>
</g>
</g>
<!-- Node4&#45;&gt;Node5 -->
<g id="edge4" class="edge"><title>Node4&#45;&gt;Node5</title>
<path fill="none" stroke="midnightblue" d="M696.097,-72.3907C712.269,-74.1977 729.087,-76.0767 744.361,-77.7833"/>
<polygon fill="midnightblue" stroke="midnightblue" points="696.456,-68.9092 686.129,-71.277 695.679,-75.8659 696.456,-68.9092"/>
</g>
<!-- Node6 -->
<g id="node6" class="node"><title>Node6</title>
<g id="a_node6"><a xlink:href="../../db/d49/classjson_children.html#a4e802eba4a1fe4736655ea44944b3662" target="_top" xlink:title="jsonChildren::~jsonChildren">
<polygon fill="white" stroke="black" points="722,-33.5 722,-54.5 880,-54.5 880,-33.5 722,-33.5"/>
<text text-anchor="middle" x="801" y="-40.9" font-family="Helvetica,sans-Serif" font-size="12.00">jsonChildren::~jsonChildren</text>
</a>
</g>
</g>
<!-- Node4&#45;&gt;Node6 -->
<g id="edge5" class="edge"><title>Node4&#45;&gt;Node6</title>
<path fill="none" stroke="midnightblue" d="M696.312,-55.5852C704.748,-54.6427 713.355,-53.681 721.826,-52.7346"/>
<polygon fill="midnightblue" stroke="midnightblue" points="695.679,-52.1341 686.129,-56.723 696.456,-59.0908 695.679,-52.1341"/>
</g>
<!-- Node7 -->
<g id="node7" class="node"><title>Node7</title>
<g id="a_node7"><a xlink:href="../../db/d49/classjson_children.html#a412672e4426b6889baa22a6b7f1e4422" target="_top" xlink:title="jsonChildren::deleteChildren">
<polygon fill="white" stroke="black" points="916.5,-33.5 916.5,-54.5 1079.5,-54.5 1079.5,-33.5 916.5,-33.5"/>
<text text-anchor="middle" x="998" y="-40.9" font-family="Helvetica,sans-Serif" font-size="12.00">jsonChildren::deleteChildren</text>
</a>
</g>
</g>
<!-- Node6&#45;&gt;Node7 -->
<g id="edge6" class="edge"><title>Node6&#45;&gt;Node7</title>
<path fill="none" stroke="midnightblue" d="M890.281,-44C898.929,-44 907.675,-44 916.243,-44"/>
<polygon fill="midnightblue" stroke="midnightblue" points="890.19,-40.5001 880.19,-44 890.19,-47.5001 890.19,-40.5001"/>
</g>
</g>
</svg>
