<?xml version="1.0" encoding="UTF-8" standalone="no"?>
<!DOCTYPE svg PUBLIC "-//W3C//DTD SVG 1.1//EN"
 "http://www.w3.org/Graphics/SVG/1.1/DTD/svg11.dtd">
<!-- Generated by graphviz version 2.34.0 (20130907.0111)
 -->
<!-- Title: JSONNode::duplicate Pages: 1 -->
<svg width="1366pt" height="76pt"
 viewBox="0.00 0.00 1366.00 76.00" xmlns="http://www.w3.org/2000/svg" xmlns:xlink="http://www.w3.org/1999/xlink">
<g id="graph0" class="graph" transform="scale(1 1) rotate(0) translate(4 72)">
<title>JSONNode::duplicate</title>
<polygon fill="white" stroke="white" points="-4,4 -4,-72 1362,-72 1362,4 -4,4"/>
<!-- Node1 -->
<g id="node1" class="node"><title>Node1</title>
<polygon fill="#bfbfbf" stroke="black" points="0,-26.5 0,-47.5 130,-47.5 130,-26.5 0,-26.5"/>
<text text-anchor="middle" x="65" y="-33.9" font-family="Helvetica,sans-Serif" font-size="12.00">JSONNode::duplicate</text>
</g>
<!-- Node2 -->
<g id="node2" class="node"><title>Node2</title>
<g id="a_node2"><a xlink:href="../../d6/dc7/class_j_s_o_n_node.html#a40fb037e147141fa07f90fe419e3a7a2" target="_top" xlink:title="JSONNode::makeUniqueInternal">
<polygon fill="white" stroke="black" points="166.5,-26.5 166.5,-47.5 351.5,-47.5 351.5,-26.5 166.5,-26.5"/>
<text text-anchor="middle" x="259" y="-33.9" font-family="Helvetica,sans-Serif" font-size="12.00">JSONNode::makeUniqueInternal</text>
</a>
</g>
</g>
<!-- Node1&#45;&gt;Node2 -->
<g id="edge1" class="edge"><title>Node1&#45;&gt;Node2</title>
<path fill="none" stroke="midnightblue" d="M130.2,-37C138.506,-37 147.169,-37 155.901,-37"/>
<polygon fill="midnightblue" stroke="midnightblue" points="156.164,-40.5001 166.164,-37 156.164,-33.5001 156.164,-40.5001"/>
</g>
<!-- Node3 -->
<g id="node3" class="node"><title>Node3</title>
<g id="a_node3"><a xlink:href="../../d1/d0b/classinternal_j_s_o_n_node.html#a72b82897da17766d09a3e4ea4a743cf1" target="_top" xlink:title="internalJSONNode::makeUnique">
<polygon fill="white" stroke="black" points="388,-26.5 388,-47.5 574,-47.5 574,-26.5 388,-26.5"/>
<text text-anchor="middle" x="481" y="-33.9" font-family="Helvetica,sans-Serif" font-size="12.00">internalJSONNode::makeUnique</text>
</a>
</g>
</g>
<!-- Node2&#45;&gt;Node3 -->
<g id="edge2" class="edge"><title>Node2&#45;&gt;Node3</title>
<path fill="none" stroke="midnightblue" d="M351.707,-37C360.266,-37 368.977,-37 377.624,-37"/>
<polygon fill="midnightblue" stroke="midnightblue" points="377.734,-40.5001 387.734,-37 377.734,-33.5001 377.734,-40.5001"/>
</g>
<!-- Node4 -->
<g id="node4" class="node"><title>Node4</title>
<g id="a_node4"><a xlink:href="../../d1/d0b/classinternal_j_s_o_n_node.html#a1d79eee0bbd754c13edac1498e3a7a3d" target="_top" xlink:title="internalJSONNode::decRef">
<polygon fill="white" stroke="black" points="620,-46.5 620,-67.5 778,-67.5 778,-46.5 620,-46.5"/>
<text text-anchor="middle" x="699" y="-53.9" font-family="Helvetica,sans-Serif" font-size="12.00">internalJSONNode::decRef</text>
</a>
</g>
</g>
<!-- Node3&#45;&gt;Node4 -->
<g id="edge3" class="edge"><title>Node3&#45;&gt;Node4</title>
<path fill="none" stroke="midnightblue" d="M574.23,-45.5398C585.936,-46.6237 597.896,-47.7311 609.541,-48.8094"/>
<polygon fill="midnightblue" stroke="midnightblue" points="609.4,-52.3112 619.68,-49.7482 610.046,-45.341 609.4,-52.3112"/>
</g>
<!-- Node5 -->
<g id="node5" class="node"><title>Node5</title>
<g id="a_node5"><a xlink:href="../../d1/d0b/classinternal_j_s_o_n_node.html#a5656ff403a9a79fce1812aacee620fdd" target="_top" xlink:title="internalJSONNode::newInternal">
<polygon fill="white" stroke="black" points="610,-6.5 610,-27.5 788,-27.5 788,-6.5 610,-6.5"/>
<text text-anchor="middle" x="699" y="-13.9" font-family="Helvetica,sans-Serif" font-size="12.00">internalJSONNode::newInternal</text>
</a>
</g>
</g>
<!-- Node3&#45;&gt;Node5 -->
<g id="edge4" class="edge"><title>Node3&#45;&gt;Node5</title>
<path fill="none" stroke="midnightblue" d="M574.23,-28.4602C582.719,-27.6742 591.34,-26.8759 599.879,-26.0853"/>
<polygon fill="midnightblue" stroke="midnightblue" points="600.217,-29.5691 609.851,-25.1619 599.571,-22.5989 600.217,-29.5691"/>
</g>
<!-- Node6 -->
<g id="node6" class="node"><title>Node6</title>
<g id="a_node6"><a xlink:href="../../d1/d0b/classinternal_j_s_o_n_node.html#afb952c1e0ebf1928ecccd9a205baa0db" target="_top" xlink:title="internalJSONNode::internal\lJSONNode">
<polygon fill="white" stroke="black" points="824,-0 824,-34 982,-34 982,-0 824,-0"/>
<text text-anchor="start" x="832" y="-20.4" font-family="Helvetica,sans-Serif" font-size="12.00">internalJSONNode::internal</text>
<text text-anchor="middle" x="903" y="-7.4" font-family="Helvetica,sans-Serif" font-size="12.00">JSONNode</text>
</a>
</g>
</g>
<!-- Node5&#45;&gt;Node6 -->
<g id="edge5" class="edge"><title>Node5&#45;&gt;Node6</title>
<path fill="none" stroke="midnightblue" d="M788.013,-17C796.478,-17 805.067,-17 813.537,-17"/>
<polygon fill="midnightblue" stroke="midnightblue" points="813.793,-20.5001 823.793,-17 813.793,-13.5001 813.793,-20.5001"/>
</g>
<!-- Node7 -->
<g id="node7" class="node"><title>Node7</title>
<g id="a_node7"><a xlink:href="../../db/d49/classjson_children.html#ac71d832f3f81306fcb13e6f581f4431a" target="_top" xlink:title="jsonChildren::newChildren">
<polygon fill="white" stroke="black" points="1018,-6.5 1018,-27.5 1170,-27.5 1170,-6.5 1018,-6.5"/>
<text text-anchor="middle" x="1094" y="-13.9" font-family="Helvetica,sans-Serif" font-size="12.00">jsonChildren::newChildren</text>
</a>
</g>
</g>
<!-- Node6&#45;&gt;Node7 -->
<g id="edge6" class="edge"><title>Node6&#45;&gt;Node7</title>
<path fill="none" stroke="midnightblue" d="M982.238,-17C990.613,-17 999.163,-17 1007.62,-17"/>
<polygon fill="midnightblue" stroke="midnightblue" points="1007.86,-20.5001 1017.86,-17 1007.86,-13.5001 1007.86,-20.5001"/>
</g>
<!-- Node8 -->
<g id="node8" class="node"><title>Node8</title>
<g id="a_node8"><a xlink:href="../../db/d49/classjson_children.html#aa31b15a1d697846a9c2a8a710b2ba6f1" target="_top" xlink:title="jsonChildren::jsonChildren">
<polygon fill="white" stroke="black" points="1206,-6.5 1206,-27.5 1358,-27.5 1358,-6.5 1206,-6.5"/>
<text text-anchor="middle" x="1282" y="-13.9" font-family="Helvetica,sans-Serif" font-size="12.00">jsonChildren::jsonChildren</text>
</a>
</g>
</g>
<!-- Node7&#45;&gt;Node8 -->
<g id="edge7" class="edge"><title>Node7&#45;&gt;Node8</title>
<path fill="none" stroke="midnightblue" d="M1170.12,-17C1178.6,-17 1187.28,-17 1195.87,-17"/>
<polygon fill="midnightblue" stroke="midnightblue" points="1195.9,-20.5001 1205.9,-17 1195.9,-13.5001 1195.9,-20.5001"/>
</g>
</g>
</svg>
