<?xml version="1.0" encoding="UTF-8" standalone="no"?>
<!DOCTYPE svg PUBLIC "-//W3C//DTD SVG 1.1//EN"
 "http://www.w3.org/Graphics/SVG/1.1/DTD/svg11.dtd">
<!-- Generated by graphviz version 2.34.0 (20130907.0111)
 -->
<!-- Title: JSONNode::begin Pages: 1 -->
<svg width="268pt" height="70pt"
 viewBox="0.00 0.00 268.00 70.00" xmlns="http://www.w3.org/2000/svg" xmlns:xlink="http://www.w3.org/1999/xlink">
<g id="graph0" class="graph" transform="scale(1 1) rotate(0) translate(4 66)">
<title>JSONNode::begin</title>
<polygon fill="white" stroke="white" points="-4,4 -4,-66 264,-66 264,4 -4,4"/>
<!-- Node1 -->
<g id="node1" class="node"><title>Node1</title>
<polygon fill="#bfbfbf" stroke="black" points="0,-20.5 0,-41.5 112,-41.5 112,-20.5 0,-20.5"/>
<text text-anchor="middle" x="56" y="-27.9" font-family="Helvetica,sans-Serif" font-size="12.00">JSONNode::begin</text>
</g>
<!-- Node2 -->
<g id="node2" class="node"><title>Node2</title>
<g id="a_node2"><a xlink:href="../../d6/dc7/class_j_s_o_n_node.html#aeb5f2c8d831bcf4604cd669ba0e78f42" target="_top" xlink:title="JSONNode::begin">
<polygon fill="white" stroke="black" points="148,-40.5 148,-61.5 260,-61.5 260,-40.5 148,-40.5"/>
<text text-anchor="middle" x="204" y="-47.9" font-family="Helvetica,sans-Serif" font-size="12.00">JSONNode::begin</text>
</a>
</g>
</g>
<!-- Node1&#45;&gt;Node2 -->
<g id="edge1" class="edge"><title>Node1&#45;&gt;Node2</title>
<path fill="none" stroke="midnightblue" d="M122.131,-39.9221C130.676,-41.0926 139.366,-42.283 147.726,-43.4282"/>
<polygon fill="midnightblue" stroke="midnightblue" points="122.579,-36.4508 112.196,-38.5611 121.629,-43.386 122.579,-36.4508"/>
</g>
<!-- Node3 -->
<g id="node3" class="node"><title>Node3</title>
<g id="a_node3"><a xlink:href="../../d6/dc7/class_j_s_o_n_node.html#a5d629aec2605dd6a7314f3ce5361080d" target="_top" xlink:title="JSONNode::rend">
<polygon fill="white" stroke="black" points="151,-0.5 151,-21.5 257,-21.5 257,-0.5 151,-0.5"/>
<text text-anchor="middle" x="204" y="-7.9" font-family="Helvetica,sans-Serif" font-size="12.00">JSONNode::rend</text>
</a>
</g>
</g>
<!-- Node1&#45;&gt;Node3 -->
<g id="edge2" class="edge"><title>Node1&#45;&gt;Node3</title>
<path fill="none" stroke="midnightblue" d="M122.364,-22.0461C131.824,-20.7501 141.458,-19.4304 150.619,-18.1754"/>
<polygon fill="midnightblue" stroke="midnightblue" points="121.629,-18.614 112.196,-23.4389 122.579,-25.5492 121.629,-18.614"/>
</g>
</g>
</svg>
