<?xml version="1.0" encoding="UTF-8" standalone="no"?>
<!DOCTYPE svg PUBLIC "-//W3C//DTD SVG 1.1//EN"
 "http://www.w3.org/Graphics/SVG/1.1/DTD/svg11.dtd">
<!-- Generated by graphviz version 2.34.0 (20130907.0111)
 -->
<!-- Title: JSONNode::~JSONNode Pages: 1 -->
<svg width="564pt" height="83pt"
 viewBox="0.00 0.00 564.00 83.00" xmlns="http://www.w3.org/2000/svg" xmlns:xlink="http://www.w3.org/1999/xlink">
<g id="graph0" class="graph" transform="scale(1 1) rotate(0) translate(4 79)">
<title>JSONNode::~JSONNode</title>
<polygon fill="white" stroke="white" points="-4,4 -4,-79 560,-79 560,4 -4,4"/>
<!-- Node1 -->
<g id="node1" class="node"><title>Node1</title>
<polygon fill="#bfbfbf" stroke="black" points="0.5,-29.5 0.5,-50.5 149.5,-50.5 149.5,-29.5 0.5,-29.5"/>
<text text-anchor="middle" x="75" y="-36.9" font-family="Helvetica,sans-Serif" font-size="12.00">JSONNode::~JSONNode</text>
</g>
<!-- Node2 -->
<g id="node2" class="node"><title>Node2</title>
<g id="a_node2"><a xlink:href="../../d6/dc7/class_j_s_o_n_node.html#ac68ad8233da336a15052bad5edf087a6" target="_top" xlink:title="JSONNode::decRef">
<polygon fill="white" stroke="black" points="186,-29.5 186,-50.5 306,-50.5 306,-29.5 186,-29.5"/>
<text text-anchor="middle" x="246" y="-36.9" font-family="Helvetica,sans-Serif" font-size="12.00">JSONNode::decRef</text>
</a>
</g>
</g>
<!-- Node1&#45;&gt;Node2 -->
<g id="edge1" class="edge"><title>Node1&#45;&gt;Node2</title>
<path fill="none" stroke="midnightblue" d="M149.634,-40C158.329,-40 167.18,-40 175.81,-40"/>
<polygon fill="midnightblue" stroke="midnightblue" points="175.818,-43.5001 185.818,-40 175.818,-36.5001 175.818,-43.5001"/>
</g>
<!-- Node3 -->
<g id="node3" class="node"><title>Node3</title>
<g id="a_node3"><a xlink:href="../../d1/d0b/classinternal_j_s_o_n_node.html#aeb2be9601ca22ac3abb8917c95aa251a" target="_top" xlink:title="internalJSONNode::hasNoReferences">
<polygon fill="white" stroke="black" points="342,-53.5 342,-74.5 556,-74.5 556,-53.5 342,-53.5"/>
<text text-anchor="middle" x="449" y="-60.9" font-family="Helvetica,sans-Serif" font-size="12.00">internalJSONNode::hasNoReferences</text>
</a>
</g>
</g>
<!-- Node2&#45;&gt;Node3 -->
<g id="edge2" class="edge"><title>Node2&#45;&gt;Node3</title>
<path fill="none" stroke="midnightblue" d="M306.219,-47.071C319.862,-48.7 334.733,-50.4756 349.545,-52.2442"/>
<polygon fill="midnightblue" stroke="midnightblue" points="349.43,-55.7552 359.774,-53.4656 350.26,-48.8046 349.43,-55.7552"/>
</g>
<!-- Node4 -->
<g id="node4" class="node"><title>Node4</title>
<g id="a_node4"><a xlink:href="../../d1/d0b/classinternal_j_s_o_n_node.html#a9c6fdbfa2a691417e78b53330c1ceced" target="_top" xlink:title="internalJSONNode::delete\lInternal">
<polygon fill="white" stroke="black" points="373,-0 373,-34 525,-34 525,-0 373,-0"/>
<text text-anchor="start" x="381" y="-20.4" font-family="Helvetica,sans-Serif" font-size="12.00">internalJSONNode::delete</text>
<text text-anchor="middle" x="449" y="-7.4" font-family="Helvetica,sans-Serif" font-size="12.00">Internal</text>
</a>
</g>
</g>
<!-- Node2&#45;&gt;Node4 -->
<g id="edge3" class="edge"><title>Node2&#45;&gt;Node4</title>
<path fill="none" stroke="midnightblue" d="M306.219,-33.2236C323.888,-31.2019 343.617,-28.9443 362.609,-26.7711"/>
<polygon fill="midnightblue" stroke="midnightblue" points="363.225,-30.2236 372.762,-25.6093 362.429,-23.269 363.225,-30.2236"/>
</g>
</g>
</svg>
