<?xml version="1.0" encoding="UTF-8" standalone="no"?>
<!DOCTYPE svg PUBLIC "-//W3C//DTD SVG 1.1//EN"
 "http://www.w3.org/Graphics/SVG/1.1/DTD/svg11.dtd">
<!-- Generated by graphviz version 2.34.0 (20130907.0111)
 -->
<!-- Title: JSONNode::clear_name Pages: 1 -->
<svg width="1380pt" height="76pt"
 viewBox="0.00 0.00 1380.00 76.00" xmlns="http://www.w3.org/2000/svg" xmlns:xlink="http://www.w3.org/1999/xlink">
<g id="graph0" class="graph" transform="scale(1 1) rotate(0) translate(4 72)">
<title>JSONNode::clear_name</title>
<polygon fill="white" stroke="white" points="-4,4 -4,-72 1376,-72 1376,4 -4,4"/>
<!-- Node1 -->
<g id="node1" class="node"><title>Node1</title>
<polygon fill="#bfbfbf" stroke="black" points="0,-26.5 0,-47.5 144,-47.5 144,-26.5 0,-26.5"/>
<text text-anchor="middle" x="72" y="-33.9" font-family="Helvetica,sans-Serif" font-size="12.00">JSONNode::clear_name</text>
</g>
<!-- Node2 -->
<g id="node2" class="node"><title>Node2</title>
<g id="a_node2"><a xlink:href="../../d6/dc7/class_j_s_o_n_node.html#a40fb037e147141fa07f90fe419e3a7a2" target="_top" xlink:title="JSONNode::makeUniqueInternal">
<polygon fill="white" stroke="black" points="180.5,-26.5 180.5,-47.5 365.5,-47.5 365.5,-26.5 180.5,-26.5"/>
<text text-anchor="middle" x="273" y="-33.9" font-family="Helvetica,sans-Serif" font-size="12.00">JSONNode::makeUniqueInternal</text>
</a>
</g>
</g>
<!-- Node1&#45;&gt;Node2 -->
<g id="edge1" class="edge"><title>Node1&#45;&gt;Node2</title>
<path fill="none" stroke="midnightblue" d="M144.001,-37C152.425,-37 161.146,-37 169.895,-37"/>
<polygon fill="midnightblue" stroke="midnightblue" points="170.161,-40.5001 180.161,-37 170.161,-33.5001 170.161,-40.5001"/>
</g>
<!-- Node3 -->
<g id="node3" class="node"><title>Node3</title>
<g id="a_node3"><a xlink:href="../../d1/d0b/classinternal_j_s_o_n_node.html#a72b82897da17766d09a3e4ea4a743cf1" target="_top" xlink:title="internalJSONNode::makeUnique">
<polygon fill="white" stroke="black" points="402,-26.5 402,-47.5 588,-47.5 588,-26.5 402,-26.5"/>
<text text-anchor="middle" x="495" y="-33.9" font-family="Helvetica,sans-Serif" font-size="12.00">internalJSONNode::makeUnique</text>
</a>
</g>
</g>
<!-- Node2&#45;&gt;Node3 -->
<g id="edge2" class="edge"><title>Node2&#45;&gt;Node3</title>
<path fill="none" stroke="midnightblue" d="M365.707,-37C374.266,-37 382.977,-37 391.624,-37"/>
<polygon fill="midnightblue" stroke="midnightblue" points="391.734,-40.5001 401.734,-37 391.734,-33.5001 391.734,-40.5001"/>
</g>
<!-- Node4 -->
<g id="node4" class="node"><title>Node4</title>
<g id="a_node4"><a xlink:href="../../d1/d0b/classinternal_j_s_o_n_node.html#a1d79eee0bbd754c13edac1498e3a7a3d" target="_top" xlink:title="internalJSONNode::decRef">
<polygon fill="white" stroke="black" points="634,-46.5 634,-67.5 792,-67.5 792,-46.5 634,-46.5"/>
<text text-anchor="middle" x="713" y="-53.9" font-family="Helvetica,sans-Serif" font-size="12.00">internalJSONNode::decRef</text>
</a>
</g>
</g>
<!-- Node3&#45;&gt;Node4 -->
<g id="edge3" class="edge"><title>Node3&#45;&gt;Node4</title>
<path fill="none" stroke="midnightblue" d="M588.23,-45.5398C599.936,-46.6237 611.896,-47.7311 623.541,-48.8094"/>
<polygon fill="midnightblue" stroke="midnightblue" points="623.4,-52.3112 633.68,-49.7482 624.046,-45.341 623.4,-52.3112"/>
</g>
<!-- Node5 -->
<g id="node5" class="node"><title>Node5</title>
<g id="a_node5"><a xlink:href="../../d1/d0b/classinternal_j_s_o_n_node.html#a5656ff403a9a79fce1812aacee620fdd" target="_top" xlink:title="internalJSONNode::newInternal">
<polygon fill="white" stroke="black" points="624,-6.5 624,-27.5 802,-27.5 802,-6.5 624,-6.5"/>
<text text-anchor="middle" x="713" y="-13.9" font-family="Helvetica,sans-Serif" font-size="12.00">internalJSONNode::newInternal</text>
</a>
</g>
</g>
<!-- Node3&#45;&gt;Node5 -->
<g id="edge4" class="edge"><title>Node3&#45;&gt;Node5</title>
<path fill="none" stroke="midnightblue" d="M588.23,-28.4602C596.719,-27.6742 605.34,-26.8759 613.879,-26.0853"/>
<polygon fill="midnightblue" stroke="midnightblue" points="614.217,-29.5691 623.851,-25.1619 613.571,-22.5989 614.217,-29.5691"/>
</g>
<!-- Node6 -->
<g id="node6" class="node"><title>Node6</title>
<g id="a_node6"><a xlink:href="../../d1/d0b/classinternal_j_s_o_n_node.html#afb952c1e0ebf1928ecccd9a205baa0db" target="_top" xlink:title="internalJSONNode::internal\lJSONNode">
<polygon fill="white" stroke="black" points="838,-0 838,-34 996,-34 996,-0 838,-0"/>
<text text-anchor="start" x="846" y="-20.4" font-family="Helvetica,sans-Serif" font-size="12.00">internalJSONNode::internal</text>
<text text-anchor="middle" x="917" y="-7.4" font-family="Helvetica,sans-Serif" font-size="12.00">JSONNode</text>
</a>
</g>
</g>
<!-- Node5&#45;&gt;Node6 -->
<g id="edge5" class="edge"><title>Node5&#45;&gt;Node6</title>
<path fill="none" stroke="midnightblue" d="M802.013,-17C810.478,-17 819.067,-17 827.537,-17"/>
<polygon fill="midnightblue" stroke="midnightblue" points="827.793,-20.5001 837.793,-17 827.793,-13.5001 827.793,-20.5001"/>
</g>
<!-- Node7 -->
<g id="node7" class="node"><title>Node7</title>
<g id="a_node7"><a xlink:href="../../db/d49/classjson_children.html#ac71d832f3f81306fcb13e6f581f4431a" target="_top" xlink:title="jsonChildren::newChildren">
<polygon fill="white" stroke="black" points="1032,-6.5 1032,-27.5 1184,-27.5 1184,-6.5 1032,-6.5"/>
<text text-anchor="middle" x="1108" y="-13.9" font-family="Helvetica,sans-Serif" font-size="12.00">jsonChildren::newChildren</text>
</a>
</g>
</g>
<!-- Node6&#45;&gt;Node7 -->
<g id="edge6" class="edge"><title>Node6&#45;&gt;Node7</title>
<path fill="none" stroke="midnightblue" d="M996.238,-17C1004.61,-17 1013.16,-17 1021.62,-17"/>
<polygon fill="midnightblue" stroke="midnightblue" points="1021.86,-20.5001 1031.86,-17 1021.86,-13.5001 1021.86,-20.5001"/>
</g>
<!-- Node8 -->
<g id="node8" class="node"><title>Node8</title>
<g id="a_node8"><a xlink:href="../../db/d49/classjson_children.html#aa31b15a1d697846a9c2a8a710b2ba6f1" target="_top" xlink:title="jsonChildren::jsonChildren">
<polygon fill="white" stroke="black" points="1220,-6.5 1220,-27.5 1372,-27.5 1372,-6.5 1220,-6.5"/>
<text text-anchor="middle" x="1296" y="-13.9" font-family="Helvetica,sans-Serif" font-size="12.00">jsonChildren::jsonChildren</text>
</a>
</g>
</g>
<!-- Node7&#45;&gt;Node8 -->
<g id="edge7" class="edge"><title>Node7&#45;&gt;Node8</title>
<path fill="none" stroke="midnightblue" d="M1184.12,-17C1192.6,-17 1201.28,-17 1209.87,-17"/>
<polygon fill="midnightblue" stroke="midnightblue" points="1209.9,-20.5001 1219.9,-17 1209.9,-13.5001 1209.9,-20.5001"/>
</g>
</g>
</svg>
