<?xml version="1.0" encoding="UTF-8" standalone="no"?>
<!DOCTYPE svg PUBLIC "-//W3C//DTD SVG 1.1//EN"
 "http://www.w3.org/Graphics/SVG/1.1/DTD/svg11.dtd">
<!-- Generated by graphviz version 2.34.0 (20130907.0111)
 -->
<!-- Title: JSONNode::type Pages: 1 -->
<svg width="674pt" height="348pt"
 viewBox="0.00 0.00 674.00 348.00" xmlns="http://www.w3.org/2000/svg" xmlns:xlink="http://www.w3.org/1999/xlink">
<g id="graph0" class="graph" transform="scale(1 1) rotate(0) translate(4 344)">
<title>JSONNode::type</title>
<polygon fill="white" stroke="white" points="-4,4 -4,-344 670,-344 670,4 -4,4"/>
<!-- Node1 -->
<g id="node1" class="node"><title>Node1</title>
<polygon fill="#bfbfbf" stroke="black" points="0,-120.5 0,-141.5 104,-141.5 104,-120.5 0,-120.5"/>
<text text-anchor="middle" x="52" y="-127.9" font-family="Helvetica,sans-Serif" font-size="12.00">JSONNode::type</text>
</g>
<!-- Node2 -->
<g id="node2" class="node"><title>Node2</title>
<g id="a_node2"><a xlink:href="../../d6/dc7/class_j_s_o_n_node.html#ac30e692c490e07e072ebfc7158904706" target="_top" xlink:title="JSONNode::as_array">
<polygon fill="white" stroke="black" points="143,-240.5 143,-261.5 271,-261.5 271,-240.5 143,-240.5"/>
<text text-anchor="middle" x="207" y="-247.9" font-family="Helvetica,sans-Serif" font-size="12.00">JSONNode::as_array</text>
</a>
</g>
</g>
<!-- Node1&#45;&gt;Node2 -->
<g id="edge1" class="edge"><title>Node1&#45;&gt;Node2</title>
<path fill="none" stroke="midnightblue" d="M64.8373,-150.224C79.6913,-172.781 107.232,-209.787 140,-231 145.829,-234.774 152.405,-237.864 159.09,-240.387"/>
<polygon fill="midnightblue" stroke="midnightblue" points="67.7826,-148.333 59.4397,-141.803 61.8892,-152.111 67.7826,-148.333"/>
</g>
<!-- Node8 -->
<g id="node8" class="node"><title>Node8</title>
<g id="a_node8"><a xlink:href="../../d6/dc7/class_j_s_o_n_node.html#aef64df34be4901e4bf7ef7d20146a8c5" target="_top" xlink:title="JSONNode::as_binary">
<polygon fill="white" stroke="black" points="140,-200.5 140,-221.5 274,-221.5 274,-200.5 140,-200.5"/>
<text text-anchor="middle" x="207" y="-207.9" font-family="Helvetica,sans-Serif" font-size="12.00">JSONNode::as_binary</text>
</a>
</g>
</g>
<!-- Node1&#45;&gt;Node8 -->
<g id="edge8" class="edge"><title>Node1&#45;&gt;Node8</title>
<path fill="none" stroke="midnightblue" d="M73.8547,-148.146C90.8037,-161.377 115.79,-179.335 140,-191 147.55,-194.638 155.906,-197.782 164.063,-200.429"/>
<polygon fill="midnightblue" stroke="midnightblue" points="75.7758,-145.202 65.7708,-141.716 71.4183,-150.68 75.7758,-145.202"/>
</g>
<!-- Node9 -->
<g id="node9" class="node"><title>Node9</title>
<g id="a_node9"><a xlink:href="../../d6/dc7/class_j_s_o_n_node.html#ad89a85d2b307990217b391df647fd6f5" target="_top" xlink:title="JSONNode::as_node">
<polygon fill="white" stroke="black" points="143,-160.5 143,-181.5 271,-181.5 271,-160.5 143,-160.5"/>
<text text-anchor="middle" x="207" y="-167.9" font-family="Helvetica,sans-Serif" font-size="12.00">JSONNode::as_node</text>
</a>
</g>
</g>
<!-- Node1&#45;&gt;Node9 -->
<g id="edge9" class="edge"><title>Node1&#45;&gt;Node9</title>
<path fill="none" stroke="midnightblue" d="M102.94,-144.056C123.312,-149.382 146.555,-155.459 165.804,-160.491"/>
<polygon fill="midnightblue" stroke="midnightblue" points="103.759,-140.653 93.1989,-141.51 101.988,-147.425 103.759,-140.653"/>
</g>
<!-- Node10 -->
<g id="node10" class="node"><title>Node10</title>
<g id="a_node10"><a xlink:href="../../d6/dc7/class_j_s_o_n_node.html#aeb5f2c8d831bcf4604cd669ba0e78f42" target="_top" xlink:title="JSONNode::begin">
<polygon fill="white" stroke="black" points="151,-120.5 151,-141.5 263,-141.5 263,-120.5 151,-120.5"/>
<text text-anchor="middle" x="207" y="-127.9" font-family="Helvetica,sans-Serif" font-size="12.00">JSONNode::begin</text>
</a>
</g>
</g>
<!-- Node1&#45;&gt;Node10 -->
<g id="edge10" class="edge"><title>Node1&#45;&gt;Node10</title>
<path fill="none" stroke="midnightblue" d="M114.712,-131C126.659,-131 139.106,-131 150.828,-131"/>
<polygon fill="midnightblue" stroke="midnightblue" points="114.372,-127.5 104.372,-131 114.372,-134.5 114.372,-127.5"/>
</g>
<!-- Node11 -->
<g id="node11" class="node"><title>Node11</title>
<g id="a_node11"><a xlink:href="../../d6/dc7/class_j_s_o_n_node.html#a2bc88d73d62cb8da471fc1500e67a400" target="_top" xlink:title="JSONNode::end">
<polygon fill="white" stroke="black" points="156,-80.5 156,-101.5 258,-101.5 258,-80.5 156,-80.5"/>
<text text-anchor="middle" x="207" y="-87.9" font-family="Helvetica,sans-Serif" font-size="12.00">JSONNode::end</text>
</a>
</g>
</g>
<!-- Node1&#45;&gt;Node11 -->
<g id="edge11" class="edge"><title>Node1&#45;&gt;Node11</title>
<path fill="none" stroke="midnightblue" d="M102.94,-117.944C123.312,-112.618 146.555,-106.541 165.804,-101.509"/>
<polygon fill="midnightblue" stroke="midnightblue" points="101.988,-114.575 93.1989,-120.49 103.759,-121.347 101.988,-114.575"/>
</g>
<!-- Node12 -->
<g id="node12" class="node"><title>Node12</title>
<g id="a_node12"><a xlink:href="../../d6/dc7/class_j_s_o_n_node.html#ac5d94b35ff3338939a0d8ab16cd0afd9" target="_top" xlink:title="JSONNode::rbegin">
<polygon fill="white" stroke="black" points="149,-40.5 149,-61.5 265,-61.5 265,-40.5 149,-40.5"/>
<text text-anchor="middle" x="207" y="-47.9" font-family="Helvetica,sans-Serif" font-size="12.00">JSONNode::rbegin</text>
</a>
</g>
</g>
<!-- Node1&#45;&gt;Node12 -->
<g id="edge12" class="edge"><title>Node1&#45;&gt;Node12</title>
<path fill="none" stroke="midnightblue" d="M73.8547,-113.854C90.8037,-100.623 115.79,-82.6648 140,-71 147.55,-67.3622 155.906,-64.2184 164.063,-61.5705"/>
<polygon fill="midnightblue" stroke="midnightblue" points="71.4183,-111.32 65.7708,-120.284 75.7758,-116.798 71.4183,-111.32"/>
</g>
<!-- Node13 -->
<g id="node13" class="node"><title>Node13</title>
<g id="a_node13"><a xlink:href="../../d6/dc7/class_j_s_o_n_node.html#a5d629aec2605dd6a7314f3ce5361080d" target="_top" xlink:title="JSONNode::rend">
<polygon fill="white" stroke="black" points="154,-0.5 154,-21.5 260,-21.5 260,-0.5 154,-0.5"/>
<text text-anchor="middle" x="207" y="-7.9" font-family="Helvetica,sans-Serif" font-size="12.00">JSONNode::rend</text>
</a>
</g>
</g>
<!-- Node1&#45;&gt;Node13 -->
<g id="edge13" class="edge"><title>Node1&#45;&gt;Node13</title>
<path fill="none" stroke="midnightblue" d="M64.8373,-111.776C79.6913,-89.2194 107.232,-52.2127 140,-31 145.829,-27.2263 152.405,-24.1359 159.09,-21.6129"/>
<polygon fill="midnightblue" stroke="midnightblue" points="61.8892,-109.889 59.4397,-120.197 67.7826,-113.667 61.8892,-109.889"/>
</g>
<!-- Node3 -->
<g id="node3" class="node"><title>Node3</title>
<g id="a_node3"><a xlink:href="../../d3/d71/jsonhelpers_8h.html#a0c2d0c196f0e8025cfc01c009dd24fad" target="_top" xlink:title="getIntFromArray">
<polygon fill="white" stroke="black" points="341,-318.5 341,-339.5 441,-339.5 441,-318.5 341,-318.5"/>
<text text-anchor="middle" x="391" y="-325.9" font-family="Helvetica,sans-Serif" font-size="12.00">getIntFromArray</text>
</a>
</g>
</g>
<!-- Node2&#45;&gt;Node3 -->
<g id="edge2" class="edge"><title>Node2&#45;&gt;Node3</title>
<path fill="none" stroke="midnightblue" d="M234.892,-266.638C255.106,-277.979 283.72,-293.165 310,-304 323.184,-309.435 337.997,-314.373 351.261,-318.397"/>
<polygon fill="midnightblue" stroke="midnightblue" points="236.388,-263.463 225.963,-261.572 232.933,-269.551 236.388,-263.463"/>
</g>
<!-- Node4 -->
<g id="node4" class="node"><title>Node4</title>
<g id="a_node4"><a xlink:href="../../d8/de1/class_blemish_test.html#ad9071bb6332b7fc91a6e7c7ef109cba2" target="_top" xlink:title="Parses the JSON output of an sfrPlus test to determine the pass/fail status of the various metrics...">
<polygon fill="white" stroke="black" points="508.5,-298.5 508.5,-319.5 665.5,-319.5 665.5,-298.5 508.5,-298.5"/>
<text text-anchor="middle" x="587" y="-305.9" font-family="Helvetica,sans-Serif" font-size="12.00">BlemishTest::ParseResults</text>
</a>
</g>
</g>
<!-- Node2&#45;&gt;Node4 -->
<g id="edge7" class="edge"><title>Node2&#45;&gt;Node4</title>
<path fill="none" stroke="midnightblue" d="M268.896,-263.528C282.403,-266.142 296.667,-268.777 310,-271 376.794,-282.137 453.076,-292.458 508.492,-299.524"/>
<polygon fill="midnightblue" stroke="midnightblue" points="269.228,-260.026 258.742,-261.539 267.882,-266.896 269.228,-260.026"/>
</g>
<!-- Node5 -->
<g id="node5" class="node"><title>Node5</title>
<g id="a_node5"><a xlink:href="../../da/d92/class_image_test.html#a3115f3892d84abcde05ab105ae4aaa8f" target="_top" xlink:title="ImageTest::GetString">
<polygon fill="white" stroke="black" points="327.5,-240.5 327.5,-261.5 454.5,-261.5 454.5,-240.5 327.5,-240.5"/>
<text text-anchor="middle" x="391" y="-247.9" font-family="Helvetica,sans-Serif" font-size="12.00">ImageTest::GetString</text>
</a>
</g>
</g>
<!-- Node2&#45;&gt;Node5 -->
<g id="edge4" class="edge"><title>Node2&#45;&gt;Node5</title>
<path fill="none" stroke="midnightblue" d="M281.517,-251C296.687,-251 312.531,-251 327.275,-251"/>
<polygon fill="midnightblue" stroke="midnightblue" points="281.144,-247.5 271.144,-251 281.144,-254.5 281.144,-247.5"/>
</g>
<!-- Node6 -->
<g id="node6" class="node"><title>Node6</title>
<g id="a_node6"><a xlink:href="../../da/d92/class_image_test.html#ae8c27027ba0cc33150ec423c6b7ec6ae" target="_top" xlink:title="ImageTest::ParseFailures">
<polygon fill="white" stroke="black" points="315.5,-200.5 315.5,-221.5 466.5,-221.5 466.5,-200.5 315.5,-200.5"/>
<text text-anchor="middle" x="391" y="-207.9" font-family="Helvetica,sans-Serif" font-size="12.00">ImageTest::ParseFailures</text>
</a>
</g>
</g>
<!-- Node2&#45;&gt;Node6 -->
<g id="edge5" class="edge"><title>Node2&#45;&gt;Node6</title>
<path fill="none" stroke="midnightblue" d="M265.758,-238.306C290.38,-232.894 318.767,-226.656 342.185,-221.509"/>
<polygon fill="midnightblue" stroke="midnightblue" points="264.834,-234.925 255.818,-240.49 266.337,-241.762 264.834,-234.925"/>
</g>
<!-- Node7 -->
<g id="node7" class="node"><title>Node7</title>
<g id="a_node7"><a xlink:href="../../dd/d12/class_s_f_rplus_test.html#a900f5edde4636d8b6f8f802ff866a15d" target="_top" xlink:title="Determines the pass/fail result for each quadrant. ">
<polygon fill="white" stroke="black" points="310.5,-160.5 310.5,-181.5 471.5,-181.5 471.5,-160.5 310.5,-160.5"/>
<text text-anchor="middle" x="391" y="-167.9" font-family="Helvetica,sans-Serif" font-size="12.00">SFRplusTest::ParseOverlay</text>
</a>
</g>
</g>
<!-- Node2&#45;&gt;Node7 -->
<g id="edge6" class="edge"><title>Node2&#45;&gt;Node7</title>
<path fill="none" stroke="midnightblue" d="M263.957,-236.476C267.452,-234.833 270.833,-233.013 274,-231 294.186,-218.172 289.504,-203.327 310,-191 316.38,-187.163 323.468,-184.06 330.715,-181.55"/>
<polygon fill="midnightblue" stroke="midnightblue" points="262.382,-233.341 254.507,-240.428 265.083,-239.799 262.382,-233.341"/>
</g>
<!-- Node3&#45;&gt;Node4 -->
<g id="edge3" class="edge"><title>Node3&#45;&gt;Node4</title>
<path fill="none" stroke="midnightblue" d="M451.233,-322.893C469.189,-321.042 489.191,-318.98 508.173,-317.023"/>
<polygon fill="midnightblue" stroke="midnightblue" points="450.794,-319.42 441.205,-323.927 451.511,-326.383 450.794,-319.42"/>
</g>
</g>
</svg>
