<?xml version="1.0" encoding="UTF-8" standalone="no"?>
<!DOCTYPE svg PUBLIC "-//W3C//DTD SVG 1.1//EN"
 "http://www.w3.org/Graphics/SVG/1.1/DTD/svg11.dtd">
<!-- Generated by graphviz version 2.34.0 (20130907.0111)
 -->
<!-- Title: JSONNode::nullify Pages: 1 -->
<svg width="1346pt" height="130pt"
 viewBox="0.00 0.00 1346.00 130.00" xmlns="http://www.w3.org/2000/svg" xmlns:xlink="http://www.w3.org/1999/xlink">
<g id="graph0" class="graph" transform="scale(1 1) rotate(0) translate(4 126)">
<title>JSONNode::nullify</title>
<polygon fill="white" stroke="white" points="-4,4 -4,-126 1342,-126 1342,4 -4,4"/>
<!-- Node1 -->
<g id="node1" class="node"><title>Node1</title>
<polygon fill="#bfbfbf" stroke="black" points="0,-60.5 0,-81.5 110,-81.5 110,-60.5 0,-60.5"/>
<text text-anchor="middle" x="55" y="-67.9" font-family="Helvetica,sans-Serif" font-size="12.00">JSONNode::nullify</text>
</g>
<!-- Node2 -->
<g id="node2" class="node"><title>Node2</title>
<g id="a_node2"><a xlink:href="../../d6/dc7/class_j_s_o_n_node.html#a40fb037e147141fa07f90fe419e3a7a2" target="_top" xlink:title="JSONNode::makeUniqueInternal">
<polygon fill="white" stroke="black" points="146.5,-80.5 146.5,-101.5 331.5,-101.5 331.5,-80.5 146.5,-80.5"/>
<text text-anchor="middle" x="239" y="-87.9" font-family="Helvetica,sans-Serif" font-size="12.00">JSONNode::makeUniqueInternal</text>
</a>
</g>
</g>
<!-- Node1&#45;&gt;Node2 -->
<g id="edge1" class="edge"><title>Node1&#45;&gt;Node2</title>
<path fill="none" stroke="midnightblue" d="M110.113,-76.9465C118.412,-77.8584 127.202,-78.8244 136.135,-79.806"/>
<polygon fill="midnightblue" stroke="midnightblue" points="135.939,-83.3055 146.262,-80.9189 136.704,-76.3474 135.939,-83.3055"/>
</g>
<!-- Node9 -->
<g id="node9" class="node"><title>Node9</title>
<g id="a_node9"><a xlink:href="../../d1/d0b/classinternal_j_s_o_n_node.html#a9a3f9f79800b6141150dde72a55c0060" target="_top" xlink:title="internalJSONNode::Nullify">
<polygon fill="white" stroke="black" points="164,-40.5 164,-61.5 314,-61.5 314,-40.5 164,-40.5"/>
<text text-anchor="middle" x="239" y="-47.9" font-family="Helvetica,sans-Serif" font-size="12.00">internalJSONNode::Nullify</text>
</a>
</g>
</g>
<!-- Node1&#45;&gt;Node9 -->
<g id="edge8" class="edge"><title>Node1&#45;&gt;Node9</title>
<path fill="none" stroke="midnightblue" d="M110.113,-65.0535C123.82,-63.5472 138.871,-61.8933 153.684,-60.2655"/>
<polygon fill="midnightblue" stroke="midnightblue" points="154.325,-63.7163 163.882,-59.1448 153.56,-56.7581 154.325,-63.7163"/>
</g>
<!-- Node3 -->
<g id="node3" class="node"><title>Node3</title>
<g id="a_node3"><a xlink:href="../../d1/d0b/classinternal_j_s_o_n_node.html#a72b82897da17766d09a3e4ea4a743cf1" target="_top" xlink:title="internalJSONNode::makeUnique">
<polygon fill="white" stroke="black" points="368,-80.5 368,-101.5 554,-101.5 554,-80.5 368,-80.5"/>
<text text-anchor="middle" x="461" y="-87.9" font-family="Helvetica,sans-Serif" font-size="12.00">internalJSONNode::makeUnique</text>
</a>
</g>
</g>
<!-- Node2&#45;&gt;Node3 -->
<g id="edge2" class="edge"><title>Node2&#45;&gt;Node3</title>
<path fill="none" stroke="midnightblue" d="M331.707,-91C340.266,-91 348.977,-91 357.624,-91"/>
<polygon fill="midnightblue" stroke="midnightblue" points="357.734,-94.5001 367.734,-91 357.734,-87.5001 357.734,-94.5001"/>
</g>
<!-- Node4 -->
<g id="node4" class="node"><title>Node4</title>
<g id="a_node4"><a xlink:href="../../d1/d0b/classinternal_j_s_o_n_node.html#a1d79eee0bbd754c13edac1498e3a7a3d" target="_top" xlink:title="internalJSONNode::decRef">
<polygon fill="white" stroke="black" points="600,-100.5 600,-121.5 758,-121.5 758,-100.5 600,-100.5"/>
<text text-anchor="middle" x="679" y="-107.9" font-family="Helvetica,sans-Serif" font-size="12.00">internalJSONNode::decRef</text>
</a>
</g>
</g>
<!-- Node3&#45;&gt;Node4 -->
<g id="edge3" class="edge"><title>Node3&#45;&gt;Node4</title>
<path fill="none" stroke="midnightblue" d="M554.23,-99.5398C565.936,-100.624 577.896,-101.731 589.541,-102.809"/>
<polygon fill="midnightblue" stroke="midnightblue" points="589.4,-106.311 599.68,-103.748 590.046,-99.341 589.4,-106.311"/>
</g>
<!-- Node5 -->
<g id="node5" class="node"><title>Node5</title>
<g id="a_node5"><a xlink:href="../../d1/d0b/classinternal_j_s_o_n_node.html#a5656ff403a9a79fce1812aacee620fdd" target="_top" xlink:title="internalJSONNode::newInternal">
<polygon fill="white" stroke="black" points="590,-60.5 590,-81.5 768,-81.5 768,-60.5 590,-60.5"/>
<text text-anchor="middle" x="679" y="-67.9" font-family="Helvetica,sans-Serif" font-size="12.00">internalJSONNode::newInternal</text>
</a>
</g>
</g>
<!-- Node3&#45;&gt;Node5 -->
<g id="edge4" class="edge"><title>Node3&#45;&gt;Node5</title>
<path fill="none" stroke="midnightblue" d="M554.23,-82.4602C562.719,-81.6742 571.34,-80.8759 579.879,-80.0853"/>
<polygon fill="midnightblue" stroke="midnightblue" points="580.217,-83.5691 589.851,-79.1619 579.571,-76.5989 580.217,-83.5691"/>
</g>
<!-- Node6 -->
<g id="node6" class="node"><title>Node6</title>
<g id="a_node6"><a xlink:href="../../d1/d0b/classinternal_j_s_o_n_node.html#afb952c1e0ebf1928ecccd9a205baa0db" target="_top" xlink:title="internalJSONNode::internal\lJSONNode">
<polygon fill="white" stroke="black" points="804,-54 804,-88 962,-88 962,-54 804,-54"/>
<text text-anchor="start" x="812" y="-74.4" font-family="Helvetica,sans-Serif" font-size="12.00">internalJSONNode::internal</text>
<text text-anchor="middle" x="883" y="-61.4" font-family="Helvetica,sans-Serif" font-size="12.00">JSONNode</text>
</a>
</g>
</g>
<!-- Node5&#45;&gt;Node6 -->
<g id="edge5" class="edge"><title>Node5&#45;&gt;Node6</title>
<path fill="none" stroke="midnightblue" d="M768.013,-71C776.478,-71 785.067,-71 793.537,-71"/>
<polygon fill="midnightblue" stroke="midnightblue" points="793.793,-74.5001 803.793,-71 793.793,-67.5001 793.793,-74.5001"/>
</g>
<!-- Node7 -->
<g id="node7" class="node"><title>Node7</title>
<g id="a_node7"><a xlink:href="../../db/d49/classjson_children.html#ac71d832f3f81306fcb13e6f581f4431a" target="_top" xlink:title="jsonChildren::newChildren">
<polygon fill="white" stroke="black" points="998,-60.5 998,-81.5 1150,-81.5 1150,-60.5 998,-60.5"/>
<text text-anchor="middle" x="1074" y="-67.9" font-family="Helvetica,sans-Serif" font-size="12.00">jsonChildren::newChildren</text>
</a>
</g>
</g>
<!-- Node6&#45;&gt;Node7 -->
<g id="edge6" class="edge"><title>Node6&#45;&gt;Node7</title>
<path fill="none" stroke="midnightblue" d="M962.238,-71C970.613,-71 979.163,-71 987.616,-71"/>
<polygon fill="midnightblue" stroke="midnightblue" points="987.859,-74.5001 997.859,-71 987.859,-67.5001 987.859,-74.5001"/>
</g>
<!-- Node8 -->
<g id="node8" class="node"><title>Node8</title>
<g id="a_node8"><a xlink:href="../../db/d49/classjson_children.html#aa31b15a1d697846a9c2a8a710b2ba6f1" target="_top" xlink:title="jsonChildren::jsonChildren">
<polygon fill="white" stroke="black" points="1186,-60.5 1186,-81.5 1338,-81.5 1338,-60.5 1186,-60.5"/>
<text text-anchor="middle" x="1262" y="-67.9" font-family="Helvetica,sans-Serif" font-size="12.00">jsonChildren::jsonChildren</text>
</a>
</g>
</g>
<!-- Node7&#45;&gt;Node8 -->
<g id="edge7" class="edge"><title>Node7&#45;&gt;Node8</title>
<path fill="none" stroke="midnightblue" d="M1150.12,-71C1158.6,-71 1167.28,-71 1175.87,-71"/>
<polygon fill="midnightblue" stroke="midnightblue" points="1175.9,-74.5001 1185.9,-71 1175.9,-67.5001 1175.9,-74.5001"/>
</g>
<!-- Node10 -->
<g id="node10" class="node"><title>Node10</title>
<g id="a_node10"><a xlink:href="../../d1/da6/_documentation_2_operator-_console_2_j_s_o_n_2_j_s_o_n_memory_8h.html#a8f88e025f043e8c423c6ddc3c887600b" target="_top" xlink:title="clearString">
<polygon fill="white" stroke="black" points="424.5,-40.5 424.5,-61.5 497.5,-61.5 497.5,-40.5 424.5,-40.5"/>
<text text-anchor="middle" x="461" y="-47.9" font-family="Helvetica,sans-Serif" font-size="12.00">clearString</text>
</a>
</g>
</g>
<!-- Node9&#45;&gt;Node10 -->
<g id="edge9" class="edge"><title>Node9&#45;&gt;Node10</title>
<path fill="none" stroke="midnightblue" d="M314.175,-51C347.283,-51 385.251,-51 414.144,-51"/>
<polygon fill="midnightblue" stroke="midnightblue" points="414.352,-54.5001 424.352,-51 414.352,-47.5001 414.352,-54.5001"/>
</g>
<!-- Node11 -->
<g id="node11" class="node"><title>Node11</title>
<g id="a_node11"><a xlink:href="../../d1/d0b/classinternal_j_s_o_n_node.html#a5f943a59b0e0e3a4e88f34dfeee6a922" target="_top" xlink:title="internalJSONNode::SetFetched">
<polygon fill="white" stroke="black" points="370.5,-0.5 370.5,-21.5 551.5,-21.5 551.5,-0.5 370.5,-0.5"/>
<text text-anchor="middle" x="461" y="-7.9" font-family="Helvetica,sans-Serif" font-size="12.00">internalJSONNode::SetFetched</text>
</a>
</g>
</g>
<!-- Node9&#45;&gt;Node11 -->
<g id="edge10" class="edge"><title>Node9&#45;&gt;Node11</title>
<path fill="none" stroke="midnightblue" d="M297.802,-40.4905C326.74,-35.229 361.952,-28.8268 392.164,-23.3338"/>
<polygon fill="midnightblue" stroke="midnightblue" points="392.99,-26.7412 402.202,-21.5087 391.737,-19.8541 392.99,-26.7412"/>
</g>
</g>
</svg>
