<?xml version="1.0" encoding="UTF-8" standalone="no"?>
<!DOCTYPE svg PUBLIC "-//W3C//DTD SVG 1.1//EN"
 "http://www.w3.org/Graphics/SVG/1.1/DTD/svg11.dtd">
<!-- Generated by graphviz version 2.34.0 (20130907.0111)
 -->
<!-- Title: JSONNode::decRef Pages: 1 -->
<svg width="378pt" height="83pt"
 viewBox="0.00 0.00 378.00 83.00" xmlns="http://www.w3.org/2000/svg" xmlns:xlink="http://www.w3.org/1999/xlink">
<g id="graph0" class="graph" transform="scale(1 1) rotate(0) translate(4 79)">
<title>JSONNode::decRef</title>
<polygon fill="white" stroke="white" points="-4,4 -4,-79 374,-79 374,4 -4,4"/>
<!-- Node1 -->
<g id="node1" class="node"><title>Node1</title>
<polygon fill="#bfbfbf" stroke="black" points="0,-23.5 0,-44.5 120,-44.5 120,-23.5 0,-23.5"/>
<text text-anchor="middle" x="60" y="-30.9" font-family="Helvetica,sans-Serif" font-size="12.00">JSONNode::decRef</text>
</g>
<!-- Node2 -->
<g id="node2" class="node"><title>Node2</title>
<g id="a_node2"><a xlink:href="../../d1/d0b/classinternal_j_s_o_n_node.html#a9c6fdbfa2a691417e78b53330c1ceced" target="_top" xlink:title="internalJSONNode::delete\lInternal">
<polygon fill="white" stroke="black" points="187,-41 187,-75 339,-75 339,-41 187,-41"/>
<text text-anchor="start" x="195" y="-61.4" font-family="Helvetica,sans-Serif" font-size="12.00">internalJSONNode::delete</text>
<text text-anchor="middle" x="263" y="-48.4" font-family="Helvetica,sans-Serif" font-size="12.00">Internal</text>
</a>
</g>
</g>
<!-- Node1&#45;&gt;Node2 -->
<g id="edge1" class="edge"><title>Node1&#45;&gt;Node2</title>
<path fill="none" stroke="midnightblue" d="M120.219,-41.071C137.888,-43.1807 157.617,-45.5364 176.609,-47.8041"/>
<polygon fill="midnightblue" stroke="midnightblue" points="176.417,-51.306 186.762,-49.0164 177.247,-44.3553 176.417,-51.306"/>
</g>
<!-- Node3 -->
<g id="node3" class="node"><title>Node3</title>
<g id="a_node3"><a xlink:href="../../d1/d0b/classinternal_j_s_o_n_node.html#aeb2be9601ca22ac3abb8917c95aa251a" target="_top" xlink:title="internalJSONNode::hasNoReferences">
<polygon fill="white" stroke="black" points="156,-0.5 156,-21.5 370,-21.5 370,-0.5 156,-0.5"/>
<text text-anchor="middle" x="263" y="-7.9" font-family="Helvetica,sans-Serif" font-size="12.00">internalJSONNode::hasNoReferences</text>
</a>
</g>
</g>
<!-- Node1&#45;&gt;Node3 -->
<g id="edge2" class="edge"><title>Node1&#45;&gt;Node3</title>
<path fill="none" stroke="midnightblue" d="M120.219,-27.2236C132.799,-25.7842 146.423,-24.2252 160.083,-22.6622"/>
<polygon fill="midnightblue" stroke="midnightblue" points="160.483,-26.1393 170.02,-21.525 159.687,-19.1847 160.483,-26.1393"/>
</g>
</g>
</svg>
