<?xml version="1.0" encoding="UTF-8" standalone="no"?>
<!DOCTYPE svg PUBLIC "-//W3C//DTD SVG 1.1//EN"
 "http://www.w3.org/Graphics/SVG/1.1/DTD/svg11.dtd">
<!-- Generated by graphviz version 2.34.0 (20130907.0111)
 -->
<!-- Title: JSONNode::rend Pages: 1 -->
<svg width="402pt" height="50pt"
 viewBox="0.00 0.00 402.00 50.00" xmlns="http://www.w3.org/2000/svg" xmlns:xlink="http://www.w3.org/1999/xlink">
<g id="graph0" class="graph" transform="scale(1 1) rotate(0) translate(4 46)">
<title>JSONNode::rend</title>
<polygon fill="white" stroke="white" points="-4,4 -4,-46 398,-46 398,4 -4,4"/>
<!-- Node1 -->
<g id="node1" class="node"><title>Node1</title>
<polygon fill="#bfbfbf" stroke="black" points="0,-0.5 0,-21.5 106,-21.5 106,-0.5 0,-0.5"/>
<text text-anchor="middle" x="53" y="-7.9" font-family="Helvetica,sans-Serif" font-size="12.00">JSONNode::rend</text>
</g>
<!-- Node2 -->
<g id="node2" class="node"><title>Node2</title>
<g id="a_node2"><a xlink:href="../../d6/dc7/class_j_s_o_n_node.html#af62ca04ab8ca3ab879d1bb26a52780dd" target="_top" xlink:title="JSONNode::begin">
<polygon fill="white" stroke="black" points="142,-20.5 142,-41.5 254,-41.5 254,-20.5 142,-20.5"/>
<text text-anchor="middle" x="198" y="-27.9" font-family="Helvetica,sans-Serif" font-size="12.00">JSONNode::begin</text>
</a>
</g>
</g>
<!-- Node1&#45;&gt;Node2 -->
<g id="edge1" class="edge"><title>Node1&#45;&gt;Node2</title>
<path fill="none" stroke="midnightblue" d="M106.031,-18.277C114.411,-19.4491 123.177,-20.6751 131.819,-21.8838"/>
<polygon fill="midnightblue" stroke="midnightblue" points="131.489,-25.3716 141.877,-23.2905 132.458,-18.439 131.489,-25.3716"/>
</g>
<!-- Node3 -->
<g id="node3" class="node"><title>Node3</title>
<g id="a_node3"><a xlink:href="../../d6/dc7/class_j_s_o_n_node.html#a8edf73e69435ea34f5ffde8c9ccad7c6" target="_top" xlink:title="JSONNode::type">
<polygon fill="white" stroke="black" points="290,-0.5 290,-21.5 394,-21.5 394,-0.5 290,-0.5"/>
<text text-anchor="middle" x="342" y="-7.9" font-family="Helvetica,sans-Serif" font-size="12.00">JSONNode::type</text>
</a>
</g>
</g>
<!-- Node1&#45;&gt;Node3 -->
<g id="edge3" class="edge"><title>Node1&#45;&gt;Node3</title>
<path fill="none" stroke="midnightblue" d="M106.307,-11C155.114,-11 227.954,-11 279.52,-11"/>
<polygon fill="midnightblue" stroke="midnightblue" points="279.536,-14.5001 289.536,-11 279.536,-7.5001 279.536,-14.5001"/>
</g>
<!-- Node2&#45;&gt;Node3 -->
<g id="edge2" class="edge"><title>Node2&#45;&gt;Node3</title>
<path fill="none" stroke="midnightblue" d="M254.308,-23.2102C262.612,-22.0406 271.218,-20.8285 279.64,-19.6423"/>
<polygon fill="midnightblue" stroke="midnightblue" points="280.374,-23.0735 289.788,-18.213 279.398,-16.1419 280.374,-23.0735"/>
</g>
</g>
</svg>
