<?xml version="1.0" encoding="UTF-8" standalone="no"?>
<!DOCTYPE svg PUBLIC "-//W3C//DTD SVG 1.1//EN"
 "http://www.w3.org/Graphics/SVG/1.1/DTD/svg11.dtd">
<!-- Generated by graphviz version 2.34.0 (20130907.0111)
 -->
<!-- Title: JSONNode::deleteJSONNode Pages: 1 -->
<svg width="746pt" height="103pt"
 viewBox="0.00 0.00 746.00 103.00" xmlns="http://www.w3.org/2000/svg" xmlns:xlink="http://www.w3.org/1999/xlink">
<g id="graph0" class="graph" transform="scale(1 1) rotate(0) translate(4 99)">
<title>JSONNode::deleteJSONNode</title>
<polygon fill="white" stroke="white" points="-4,4 -4,-99 742,-99 742,4 -4,4"/>
<!-- Node1 -->
<g id="node1" class="node"><title>Node1</title>
<polygon fill="#bfbfbf" stroke="black" points="0.5,-29.5 0.5,-50.5 175.5,-50.5 175.5,-29.5 0.5,-29.5"/>
<text text-anchor="middle" x="88" y="-36.9" font-family="Helvetica,sans-Serif" font-size="12.00">JSONNode::deleteJSONNode</text>
</g>
<!-- Node2 -->
<g id="node2" class="node"><title>Node2</title>
<g id="a_node2"><a xlink:href="../../db/d49/classjson_children.html#a2ed8d882781d9681d3971df0008508b3" target="_top" xlink:title="jsonChildren::deleteAll">
<polygon fill="white" stroke="black" points="212,-53.5 212,-74.5 344,-74.5 344,-53.5 212,-53.5"/>
<text text-anchor="middle" x="278" y="-60.9" font-family="Helvetica,sans-Serif" font-size="12.00">jsonChildren::deleteAll</text>
</a>
</g>
</g>
<!-- Node1&#45;&gt;Node2 -->
<g id="edge1" class="edge"><title>Node1&#45;&gt;Node2</title>
<path fill="none" stroke="midnightblue" d="M181.639,-51.8263C191.844,-53.1291 202.071,-54.4346 211.837,-55.6813"/>
<polygon fill="midnightblue" stroke="midnightblue" points="181.822,-48.3213 171.46,-50.5267 180.936,-55.265 181.822,-48.3213"/>
</g>
<!-- Node6 -->
<g id="node6" class="node"><title>Node6</title>
<g id="a_node6"><a xlink:href="../../d6/dd3/structauto__delete.html#a5cbc6e3213b5b47b849dac80d2ea17b9" target="_top" xlink:title="auto_delete::~auto\l_delete">
<polygon fill="white" stroke="black" points="221.5,-0 221.5,-34 334.5,-34 334.5,-0 221.5,-0"/>
<text text-anchor="start" x="229.5" y="-20.4" font-family="Helvetica,sans-Serif" font-size="12.00">auto_delete::~auto</text>
<text text-anchor="middle" x="278" y="-7.4" font-family="Helvetica,sans-Serif" font-size="12.00">_delete</text>
</a>
</g>
</g>
<!-- Node1&#45;&gt;Node6 -->
<g id="edge5" class="edge"><title>Node1&#45;&gt;Node6</title>
<path fill="none" stroke="midnightblue" d="M185.019,-28.253C197.491,-26.7271 209.917,-25.207 221.416,-23.8002"/>
<polygon fill="midnightblue" stroke="midnightblue" points="184.523,-24.7875 175.022,-29.476 185.373,-31.7357 184.523,-24.7875"/>
</g>
<!-- Node3 -->
<g id="node3" class="node"><title>Node3</title>
<g id="a_node3"><a xlink:href="../../db/d49/classjson_children.html#ae5b065bc0e3bf8dc7c3f130c900a1e32" target="_top" xlink:title="jsonChildren::clear">
<polygon fill="white" stroke="black" points="402.5,-73.5 402.5,-94.5 515.5,-94.5 515.5,-73.5 402.5,-73.5"/>
<text text-anchor="middle" x="459" y="-80.9" font-family="Helvetica,sans-Serif" font-size="12.00">jsonChildren::clear</text>
</a>
</g>
</g>
<!-- Node2&#45;&gt;Node3 -->
<g id="edge2" class="edge"><title>Node2&#45;&gt;Node3</title>
<path fill="none" stroke="midnightblue" d="M354.097,-72.3907C370.269,-74.1977 387.087,-76.0767 402.361,-77.7833"/>
<polygon fill="midnightblue" stroke="midnightblue" points="354.456,-68.9092 344.129,-71.277 353.679,-75.8659 354.456,-68.9092"/>
</g>
<!-- Node4 -->
<g id="node4" class="node"><title>Node4</title>
<g id="a_node4"><a xlink:href="../../db/d49/classjson_children.html#a4e802eba4a1fe4736655ea44944b3662" target="_top" xlink:title="jsonChildren::~jsonChildren">
<polygon fill="white" stroke="black" points="380,-33.5 380,-54.5 538,-54.5 538,-33.5 380,-33.5"/>
<text text-anchor="middle" x="459" y="-40.9" font-family="Helvetica,sans-Serif" font-size="12.00">jsonChildren::~jsonChildren</text>
</a>
</g>
</g>
<!-- Node2&#45;&gt;Node4 -->
<g id="edge3" class="edge"><title>Node2&#45;&gt;Node4</title>
<path fill="none" stroke="midnightblue" d="M354.312,-55.5852C362.748,-54.6427 371.355,-53.681 379.826,-52.7346"/>
<polygon fill="midnightblue" stroke="midnightblue" points="353.679,-52.1341 344.129,-56.723 354.456,-59.0908 353.679,-52.1341"/>
</g>
<!-- Node5 -->
<g id="node5" class="node"><title>Node5</title>
<g id="a_node5"><a xlink:href="../../db/d49/classjson_children.html#a412672e4426b6889baa22a6b7f1e4422" target="_top" xlink:title="jsonChildren::deleteChildren">
<polygon fill="white" stroke="black" points="574.5,-33.5 574.5,-54.5 737.5,-54.5 737.5,-33.5 574.5,-33.5"/>
<text text-anchor="middle" x="656" y="-40.9" font-family="Helvetica,sans-Serif" font-size="12.00">jsonChildren::deleteChildren</text>
</a>
</g>
</g>
<!-- Node4&#45;&gt;Node5 -->
<g id="edge4" class="edge"><title>Node4&#45;&gt;Node5</title>
<path fill="none" stroke="midnightblue" d="M548.281,-44C556.929,-44 565.675,-44 574.243,-44"/>
<polygon fill="midnightblue" stroke="midnightblue" points="548.19,-40.5001 538.19,-44 548.19,-47.5001 548.19,-40.5001"/>
</g>
</g>
</svg>
