<?xml version="1.0" encoding="UTF-8" standalone="no"?>
<!DOCTYPE svg PUBLIC "-//W3C//DTD SVG 1.1//EN"
 "http://www.w3.org/Graphics/SVG/1.1/DTD/svg11.dtd">
<!-- Generated by graphviz version 2.34.0 (20130907.0111)
 -->
<!-- Title: JSONNode::as_string Pages: 1 -->
<svg width="310pt" height="70pt"
 viewBox="0.00 0.00 310.00 70.00" xmlns="http://www.w3.org/2000/svg" xmlns:xlink="http://www.w3.org/1999/xlink">
<g id="graph0" class="graph" transform="scale(1 1) rotate(0) translate(4 66)">
<title>JSONNode::as_string</title>
<polygon fill="white" stroke="white" points="-4,4 -4,-66 306,-66 306,4 -4,4"/>
<!-- Node1 -->
<g id="node1" class="node"><title>Node1</title>
<polygon fill="#bfbfbf" stroke="black" points="0.5,-20.5 0.5,-41.5 131.5,-41.5 131.5,-20.5 0.5,-20.5"/>
<text text-anchor="middle" x="66" y="-27.9" font-family="Helvetica,sans-Serif" font-size="12.00">JSONNode::as_string</text>
</g>
<!-- Node2 -->
<g id="node2" class="node"><title>Node2</title>
<g id="a_node2"><a xlink:href="../../d6/dc7/class_j_s_o_n_node.html#aef64df34be4901e4bf7ef7d20146a8c5" target="_top" xlink:title="JSONNode::as_binary">
<polygon fill="white" stroke="black" points="168,-40.5 168,-61.5 302,-61.5 302,-40.5 168,-40.5"/>
<text text-anchor="middle" x="235" y="-47.9" font-family="Helvetica,sans-Serif" font-size="12.00">JSONNode::as_binary</text>
</a>
</g>
</g>
<!-- Node1&#45;&gt;Node2 -->
<g id="edge1" class="edge"><title>Node1&#45;&gt;Node2</title>
<path fill="none" stroke="midnightblue" d="M141.74,-39.9509C150.477,-40.9972 159.343,-42.0591 167.95,-43.0899"/>
<polygon fill="midnightblue" stroke="midnightblue" points="141.912,-36.4465 131.567,-38.7325 141.079,-43.3969 141.912,-36.4465"/>
</g>
<!-- Node3 -->
<g id="node3" class="node"><title>Node3</title>
<g id="a_node3"><a xlink:href="../../da/d92/class_image_test.html#a3115f3892d84abcde05ab105ae4aaa8f" target="_top" xlink:title="ImageTest::GetString">
<polygon fill="white" stroke="black" points="171.5,-0.5 171.5,-21.5 298.5,-21.5 298.5,-0.5 171.5,-0.5"/>
<text text-anchor="middle" x="235" y="-7.9" font-family="Helvetica,sans-Serif" font-size="12.00">ImageTest::GetString</text>
</a>
</g>
</g>
<!-- Node1&#45;&gt;Node3 -->
<g id="edge2" class="edge"><title>Node1&#45;&gt;Node3</title>
<path fill="none" stroke="midnightblue" d="M141.753,-22.0475C151.608,-20.8673 161.627,-19.6674 171.253,-18.5146"/>
<polygon fill="midnightblue" stroke="midnightblue" points="141.079,-18.6031 131.567,-23.2675 141.912,-25.5535 141.079,-18.6031"/>
</g>
</g>
</svg>
