<?xml version="1.0" encoding="UTF-8" standalone="no"?>
<!DOCTYPE svg PUBLIC "-//W3C//DTD SVG 1.1//EN"
 "http://www.w3.org/Graphics/SVG/1.1/DTD/svg11.dtd">
<!-- Generated by graphviz version 2.34.0 (20130907.0111)
 -->
<!-- Title: JSONNode::as_float Pages: 1 -->
<svg width="454pt" height="50pt"
 viewBox="0.00 0.00 454.00 50.00" xmlns="http://www.w3.org/2000/svg" xmlns:xlink="http://www.w3.org/1999/xlink">
<g id="graph0" class="graph" transform="scale(1 1) rotate(0) translate(4 46)">
<title>JSONNode::as_float</title>
<polygon fill="white" stroke="white" points="-4,4 -4,-46 450,-46 450,4 -4,4"/>
<!-- Node1 -->
<g id="node1" class="node"><title>Node1</title>
<polygon fill="#bfbfbf" stroke="black" points="0,-0.5 0,-21.5 124,-21.5 124,-0.5 0,-0.5"/>
<text text-anchor="middle" x="62" y="-7.9" font-family="Helvetica,sans-Serif" font-size="12.00">JSONNode::as_float</text>
</g>
<!-- Node2 -->
<g id="node2" class="node"><title>Node2</title>
<g id="a_node2"><a xlink:href="../../d3/d71/jsonhelpers_8h.html#a2045ec96a8ba4c3f3353a7d72c8772fe" target="_top" xlink:title="getFloatArray">
<polygon fill="white" stroke="black" points="160.5,-20.5 160.5,-41.5 247.5,-41.5 247.5,-20.5 160.5,-20.5"/>
<text text-anchor="middle" x="204" y="-27.9" font-family="Helvetica,sans-Serif" font-size="12.00">getFloatArray</text>
</a>
</g>
</g>
<!-- Node1&#45;&gt;Node2 -->
<g id="edge1" class="edge"><title>Node1&#45;&gt;Node2</title>
<path fill="none" stroke="midnightblue" d="M134.338,-21.1911C143.15,-22.45 151.934,-23.7048 160.13,-24.8758"/>
<polygon fill="midnightblue" stroke="midnightblue" points="134.801,-17.7218 124.406,-19.7723 133.811,-24.6514 134.801,-17.7218"/>
</g>
<!-- Node3 -->
<g id="node3" class="node"><title>Node3</title>
<g id="a_node3"><a xlink:href="../../dd/d12/class_s_f_rplus_test.html#a900f5edde4636d8b6f8f802ff866a15d" target="_top" xlink:title="Determines the pass/fail result for each quadrant. ">
<polygon fill="white" stroke="black" points="284.5,-0.5 284.5,-21.5 445.5,-21.5 445.5,-0.5 284.5,-0.5"/>
<text text-anchor="middle" x="365" y="-7.9" font-family="Helvetica,sans-Serif" font-size="12.00">SFRplusTest::ParseOverlay</text>
</a>
</g>
</g>
<!-- Node1&#45;&gt;Node3 -->
<g id="edge3" class="edge"><title>Node1&#45;&gt;Node3</title>
<path fill="none" stroke="midnightblue" d="M134.543,-11C179.559,-11 237.723,-11 284.226,-11"/>
<polygon fill="midnightblue" stroke="midnightblue" points="134.275,-7.5001 124.275,-11 134.275,-14.5001 134.275,-7.5001"/>
</g>
<!-- Node2&#45;&gt;Node3 -->
<g id="edge2" class="edge"><title>Node2&#45;&gt;Node3</title>
<path fill="none" stroke="midnightblue" d="M257.796,-24.359C266.363,-23.2814 275.398,-22.1449 284.434,-21.0082"/>
<polygon fill="midnightblue" stroke="midnightblue" points="257.094,-20.9196 247.609,-25.6404 257.968,-27.8649 257.094,-20.9196"/>
</g>
</g>
</svg>
