<?xml version="1.0" encoding="UTF-8" standalone="no"?>
<!DOCTYPE svg PUBLIC "-//W3C//DTD SVG 1.1//EN"
 "http://www.w3.org/Graphics/SVG/1.1/DTD/svg11.dtd">
<!-- Generated by graphviz version 2.34.0 (20130907.0111)
 -->
<!-- Title: JSONNode::makeUniqueInternal Pages: 1 -->
<svg width="930pt" height="310pt"
 viewBox="0.00 0.00 930.00 310.00" xmlns="http://www.w3.org/2000/svg" xmlns:xlink="http://www.w3.org/1999/xlink">
<g id="graph0" class="graph" transform="scale(1 1) rotate(0) translate(4 306)">
<title>JSONNode::makeUniqueInternal</title>
<polygon fill="white" stroke="white" points="-4,4 -4,-306 926,-306 926,4 -4,4"/>
<!-- Node1 -->
<g id="node1" class="node"><title>Node1</title>
<polygon fill="#bfbfbf" stroke="black" points="0.5,-140.5 0.5,-161.5 185.5,-161.5 185.5,-140.5 0.5,-140.5"/>
<text text-anchor="middle" x="93" y="-147.9" font-family="Helvetica,sans-Serif" font-size="12.00">JSONNode::makeUniqueInternal</text>
</g>
<!-- Node2 -->
<g id="node2" class="node"><title>Node2</title>
<g id="a_node2"><a xlink:href="../../d6/dc7/class_j_s_o_n_node.html#aeb5f2c8d831bcf4604cd669ba0e78f42" target="_top" xlink:title="JSONNode::begin">
<polygon fill="white" stroke="black" points="238,-280.5 238,-301.5 350,-301.5 350,-280.5 238,-280.5"/>
<text text-anchor="middle" x="294" y="-287.9" font-family="Helvetica,sans-Serif" font-size="12.00">JSONNode::begin</text>
</a>
</g>
</g>
<!-- Node1&#45;&gt;Node2 -->
<g id="edge1" class="edge"><title>Node1&#45;&gt;Node2</title>
<path fill="none" stroke="midnightblue" d="M108.965,-169.858C130.959,-196.322 174.573,-244.23 222,-271 228.691,-274.777 236.146,-277.882 243.639,-280.423"/>
<polygon fill="midnightblue" stroke="midnightblue" points="111.395,-167.3 102.36,-161.767 105.972,-171.727 111.395,-167.3"/>
</g>
<!-- Node3 -->
<g id="node3" class="node"><title>Node3</title>
<g id="a_node3"><a xlink:href="../../d6/dc7/class_j_s_o_n_node.html#a334ff9a1fd0166c1f0cc11a4e3829a20" target="_top" xlink:title="JSONNode::clear">
<polygon fill="white" stroke="black" points="240,-240.5 240,-261.5 348,-261.5 348,-240.5 240,-240.5"/>
<text text-anchor="middle" x="294" y="-247.9" font-family="Helvetica,sans-Serif" font-size="12.00">JSONNode::clear</text>
</a>
</g>
</g>
<!-- Node1&#45;&gt;Node3 -->
<g id="edge2" class="edge"><title>Node1&#45;&gt;Node3</title>
<path fill="none" stroke="midnightblue" d="M116.139,-167.583C140.834,-185.408 182.515,-213.529 222,-231 230.198,-234.627 239.221,-237.766 248.005,-240.413"/>
<polygon fill="midnightblue" stroke="midnightblue" points="117.984,-164.596 107.845,-161.521 113.853,-170.247 117.984,-164.596"/>
</g>
<!-- Node4 -->
<g id="node4" class="node"><title>Node4</title>
<g id="a_node4"><a xlink:href="../../d6/dc7/class_j_s_o_n_node.html#a25976f906aad4da22a065353f1ef5f63" target="_top" xlink:title="JSONNode::clear_name">
<polygon fill="white" stroke="black" points="222,-200.5 222,-221.5 366,-221.5 366,-200.5 222,-200.5"/>
<text text-anchor="middle" x="294" y="-207.9" font-family="Helvetica,sans-Serif" font-size="12.00">JSONNode::clear_name</text>
</a>
</g>
</g>
<!-- Node1&#45;&gt;Node4 -->
<g id="edge3" class="edge"><title>Node1&#45;&gt;Node4</title>
<path fill="none" stroke="midnightblue" d="M136.644,-164.658C161.492,-172.533 193.459,-182.523 222,-191 232.557,-194.136 244.034,-197.422 254.621,-200.403"/>
<polygon fill="midnightblue" stroke="midnightblue" points="137.397,-161.225 126.806,-161.533 135.277,-167.896 137.397,-161.225"/>
</g>
<!-- Node11 -->
<g id="node11" class="node"><title>Node11</title>
<g id="a_node11"><a xlink:href="../../d6/dc7/class_j_s_o_n_node.html#ae61d84dcd82f1261ef3bb219229e468f" target="_top" xlink:title="JSONNode::duplicate">
<polygon fill="white" stroke="black" points="229,-160.5 229,-181.5 359,-181.5 359,-160.5 229,-160.5"/>
<text text-anchor="middle" x="294" y="-167.9" font-family="Helvetica,sans-Serif" font-size="12.00">JSONNode::duplicate</text>
</a>
</g>
</g>
<!-- Node1&#45;&gt;Node11 -->
<g id="edge11" class="edge"><title>Node1&#45;&gt;Node11</title>
<path fill="none" stroke="midnightblue" d="M195.914,-161.243C207.111,-162.368 218.266,-163.489 228.814,-164.549"/>
<polygon fill="midnightblue" stroke="midnightblue" points="195.937,-157.727 185.637,-160.21 195.237,-164.692 195.937,-157.727"/>
</g>
<!-- Node13 -->
<g id="node13" class="node"><title>Node13</title>
<g id="a_node13"><a xlink:href="../../d6/dc7/class_j_s_o_n_node.html#a2bc88d73d62cb8da471fc1500e67a400" target="_top" xlink:title="JSONNode::end">
<polygon fill="white" stroke="black" points="243,-120.5 243,-141.5 345,-141.5 345,-120.5 243,-120.5"/>
<text text-anchor="middle" x="294" y="-127.9" font-family="Helvetica,sans-Serif" font-size="12.00">JSONNode::end</text>
</a>
</g>
</g>
<!-- Node1&#45;&gt;Node13 -->
<g id="edge14" class="edge"><title>Node1&#45;&gt;Node13</title>
<path fill="none" stroke="midnightblue" d="M195.809,-140.768C212.154,-139.125 228.416,-137.491 242.83,-136.042"/>
<polygon fill="midnightblue" stroke="midnightblue" points="195.237,-137.308 185.637,-141.79 195.937,-144.273 195.237,-137.308"/>
</g>
<!-- Node14 -->
<g id="node14" class="node"><title>Node14</title>
<g id="a_node14"><a xlink:href="../../d6/dc7/class_j_s_o_n_node.html#aabc5878c658fe47378a9f2294d5b1663" target="_top" xlink:title="JSONNode::nullify">
<polygon fill="white" stroke="black" points="239,-80.5 239,-101.5 349,-101.5 349,-80.5 239,-80.5"/>
<text text-anchor="middle" x="294" y="-87.9" font-family="Helvetica,sans-Serif" font-size="12.00">JSONNode::nullify</text>
</a>
</g>
</g>
<!-- Node1&#45;&gt;Node14 -->
<g id="edge15" class="edge"><title>Node1&#45;&gt;Node14</title>
<path fill="none" stroke="midnightblue" d="M136.644,-137.342C161.492,-129.467 193.459,-119.477 222,-111 232.557,-107.864 244.034,-104.578 254.621,-101.597"/>
<polygon fill="midnightblue" stroke="midnightblue" points="135.277,-134.104 126.806,-140.467 137.397,-140.775 135.277,-134.104"/>
</g>
<!-- Node15 -->
<g id="node15" class="node"><title>Node15</title>
<g id="a_node15"><a xlink:href="../../d6/dc7/class_j_s_o_n_node.html#ac5d94b35ff3338939a0d8ab16cd0afd9" target="_top" xlink:title="JSONNode::rbegin">
<polygon fill="white" stroke="black" points="236,-40.5 236,-61.5 352,-61.5 352,-40.5 236,-40.5"/>
<text text-anchor="middle" x="294" y="-47.9" font-family="Helvetica,sans-Serif" font-size="12.00">JSONNode::rbegin</text>
</a>
</g>
</g>
<!-- Node1&#45;&gt;Node15 -->
<g id="edge16" class="edge"><title>Node1&#45;&gt;Node15</title>
<path fill="none" stroke="midnightblue" d="M116.139,-134.417C140.834,-116.592 182.515,-88.4715 222,-71 230.198,-67.3727 239.221,-64.2337 248.005,-61.5872"/>
<polygon fill="midnightblue" stroke="midnightblue" points="113.853,-131.753 107.845,-140.479 117.984,-137.404 113.853,-131.753"/>
</g>
<!-- Node16 -->
<g id="node16" class="node"><title>Node16</title>
<g id="a_node16"><a xlink:href="../../d6/dc7/class_j_s_o_n_node.html#a5d629aec2605dd6a7314f3ce5361080d" target="_top" xlink:title="JSONNode::rend">
<polygon fill="white" stroke="black" points="241,-0.5 241,-21.5 347,-21.5 347,-0.5 241,-0.5"/>
<text text-anchor="middle" x="294" y="-7.9" font-family="Helvetica,sans-Serif" font-size="12.00">JSONNode::rend</text>
</a>
</g>
</g>
<!-- Node1&#45;&gt;Node16 -->
<g id="edge17" class="edge"><title>Node1&#45;&gt;Node16</title>
<path fill="none" stroke="midnightblue" d="M108.965,-132.142C130.959,-105.678 174.573,-57.7698 222,-31 228.691,-27.2231 236.146,-24.118 243.639,-21.5773"/>
<polygon fill="midnightblue" stroke="midnightblue" points="105.972,-130.273 102.36,-140.233 111.395,-134.7 105.972,-130.273"/>
</g>
<!-- Node5 -->
<g id="node5" class="node"><title>Node5</title>
<g id="a_node5"><a xlink:href="../../d6/dc7/class_j_s_o_n_node.html#ac30e692c490e07e072ebfc7158904706" target="_top" xlink:title="JSONNode::as_array">
<polygon fill="white" stroke="black" points="402,-200.5 402,-221.5 530,-221.5 530,-200.5 402,-200.5"/>
<text text-anchor="middle" x="466" y="-207.9" font-family="Helvetica,sans-Serif" font-size="12.00">JSONNode::as_array</text>
</a>
</g>
</g>
<!-- Node4&#45;&gt;Node5 -->
<g id="edge4" class="edge"><title>Node4&#45;&gt;Node5</title>
<path fill="none" stroke="midnightblue" d="M376.157,-211C384.753,-211 393.402,-211 401.751,-211"/>
<polygon fill="midnightblue" stroke="midnightblue" points="376.11,-207.5 366.11,-211 376.11,-214.5 376.11,-207.5"/>
</g>
<!-- Node6 -->
<g id="node6" class="node"><title>Node6</title>
<g id="a_node6"><a xlink:href="../../d3/d71/jsonhelpers_8h.html#a0c2d0c196f0e8025cfc01c009dd24fad" target="_top" xlink:title="getIntFromArray">
<polygon fill="white" stroke="black" points="597,-278.5 597,-299.5 697,-299.5 697,-278.5 597,-278.5"/>
<text text-anchor="middle" x="647" y="-285.9" font-family="Helvetica,sans-Serif" font-size="12.00">getIntFromArray</text>
</a>
</g>
</g>
<!-- Node5&#45;&gt;Node6 -->
<g id="edge5" class="edge"><title>Node5&#45;&gt;Node6</title>
<path fill="none" stroke="midnightblue" d="M493.042,-226.693C512.632,-238.061 540.392,-253.257 566,-264 579.15,-269.516 593.956,-274.473 607.222,-278.49"/>
<polygon fill="midnightblue" stroke="midnightblue" points="494.786,-223.658 484.39,-221.613 491.241,-229.694 494.786,-223.658"/>
</g>
<!-- Node7 -->
<g id="node7" class="node"><title>Node7</title>
<g id="a_node7"><a xlink:href="../../d8/de1/class_blemish_test.html#ad9071bb6332b7fc91a6e7c7ef109cba2" target="_top" xlink:title="Parses the JSON output of an sfrPlus test to determine the pass/fail status of the various metrics...">
<polygon fill="white" stroke="black" points="764.5,-258.5 764.5,-279.5 921.5,-279.5 921.5,-258.5 764.5,-258.5"/>
<text text-anchor="middle" x="843" y="-265.9" font-family="Helvetica,sans-Serif" font-size="12.00">BlemishTest::ParseResults</text>
</a>
</g>
</g>
<!-- Node5&#45;&gt;Node7 -->
<g id="edge10" class="edge"><title>Node5&#45;&gt;Node7</title>
<path fill="none" stroke="midnightblue" d="M525.883,-223.525C539.056,-226.151 552.982,-228.791 566,-231 632.762,-242.328 709.047,-252.631 764.473,-259.642"/>
<polygon fill="midnightblue" stroke="midnightblue" points="526.478,-220.074 515.984,-221.526 525.093,-226.936 526.478,-220.074"/>
</g>
<!-- Node8 -->
<g id="node8" class="node"><title>Node8</title>
<g id="a_node8"><a xlink:href="../../da/d92/class_image_test.html#a3115f3892d84abcde05ab105ae4aaa8f" target="_top" xlink:title="ImageTest::GetString">
<polygon fill="white" stroke="black" points="583.5,-200.5 583.5,-221.5 710.5,-221.5 710.5,-200.5 583.5,-200.5"/>
<text text-anchor="middle" x="647" y="-207.9" font-family="Helvetica,sans-Serif" font-size="12.00">ImageTest::GetString</text>
</a>
</g>
</g>
<!-- Node5&#45;&gt;Node8 -->
<g id="edge7" class="edge"><title>Node5&#45;&gt;Node8</title>
<path fill="none" stroke="midnightblue" d="M540.397,-211C554.693,-211 569.556,-211 583.461,-211"/>
<polygon fill="midnightblue" stroke="midnightblue" points="540.109,-207.5 530.109,-211 540.109,-214.5 540.109,-207.5"/>
</g>
<!-- Node9 -->
<g id="node9" class="node"><title>Node9</title>
<g id="a_node9"><a xlink:href="../../da/d92/class_image_test.html#ae8c27027ba0cc33150ec423c6b7ec6ae" target="_top" xlink:title="ImageTest::ParseFailures">
<polygon fill="white" stroke="black" points="571.5,-160.5 571.5,-181.5 722.5,-181.5 722.5,-160.5 571.5,-160.5"/>
<text text-anchor="middle" x="647" y="-167.9" font-family="Helvetica,sans-Serif" font-size="12.00">ImageTest::ParseFailures</text>
</a>
</g>
</g>
<!-- Node5&#45;&gt;Node9 -->
<g id="edge8" class="edge"><title>Node5&#45;&gt;Node9</title>
<path fill="none" stroke="midnightblue" d="M523.806,-198.306C548.023,-192.894 575.941,-186.656 598.974,-181.509"/>
<polygon fill="midnightblue" stroke="midnightblue" points="523.026,-194.894 514.03,-200.49 524.553,-201.725 523.026,-194.894"/>
</g>
<!-- Node10 -->
<g id="node10" class="node"><title>Node10</title>
<g id="a_node10"><a xlink:href="../../dd/d12/class_s_f_rplus_test.html#a900f5edde4636d8b6f8f802ff866a15d" target="_top" xlink:title="Determines the pass/fail result for each quadrant. ">
<polygon fill="white" stroke="black" points="566.5,-120.5 566.5,-141.5 727.5,-141.5 727.5,-120.5 566.5,-120.5"/>
<text text-anchor="middle" x="647" y="-127.9" font-family="Helvetica,sans-Serif" font-size="12.00">SFRplusTest::ParseOverlay</text>
</a>
</g>
</g>
<!-- Node5&#45;&gt;Node10 -->
<g id="edge9" class="edge"><title>Node5&#45;&gt;Node10</title>
<path fill="none" stroke="midnightblue" d="M520.074,-196.492C523.531,-194.841 526.875,-193.015 530,-191 550.101,-178.039 545.504,-163.327 566,-151 572.38,-147.163 579.468,-144.06 586.715,-141.55"/>
<polygon fill="midnightblue" stroke="midnightblue" points="518.564,-193.331 510.733,-200.468 521.305,-199.772 518.564,-193.331"/>
</g>
<!-- Node6&#45;&gt;Node7 -->
<g id="edge6" class="edge"><title>Node6&#45;&gt;Node7</title>
<path fill="none" stroke="midnightblue" d="M707.233,-282.893C725.189,-281.042 745.191,-278.98 764.173,-277.023"/>
<polygon fill="midnightblue" stroke="midnightblue" points="706.794,-279.42 697.205,-283.927 707.511,-286.383 706.794,-279.42"/>
</g>
<!-- Node11&#45;&gt;Node5 -->
<g id="edge12" class="edge"><title>Node11&#45;&gt;Node5</title>
<path fill="none" stroke="midnightblue" d="M349.564,-183.839C372.42,-189.216 398.658,-195.39 420.338,-200.491"/>
<polygon fill="midnightblue" stroke="midnightblue" points="350.201,-180.393 339.665,-181.51 348.598,-187.207 350.201,-180.393"/>
</g>
<!-- Node12 -->
<g id="node12" class="node"><title>Node12</title>
<g id="a_node12"><a xlink:href="../../d6/dc7/class_j_s_o_n_node.html#ad89a85d2b307990217b391df647fd6f5" target="_top" xlink:title="JSONNode::as_node">
<polygon fill="white" stroke="black" points="402,-160.5 402,-181.5 530,-181.5 530,-160.5 402,-160.5"/>
<text text-anchor="middle" x="466" y="-167.9" font-family="Helvetica,sans-Serif" font-size="12.00">JSONNode::as_node</text>
</a>
</g>
</g>
<!-- Node11&#45;&gt;Node12 -->
<g id="edge13" class="edge"><title>Node11&#45;&gt;Node12</title>
<path fill="none" stroke="midnightblue" d="M369.496,-171C380.26,-171 391.251,-171 401.766,-171"/>
<polygon fill="midnightblue" stroke="midnightblue" points="369.27,-167.5 359.27,-171 369.27,-174.5 369.27,-167.5"/>
</g>
</g>
</svg>
