<?xml version="1.0" encoding="UTF-8" standalone="no"?>
<!DOCTYPE svg PUBLIC "-//W3C//DTD SVG 1.1//EN"
 "http://www.w3.org/Graphics/SVG/1.1/DTD/svg11.dtd">
<!-- Generated by graphviz version 2.34.0 (20130907.0111)
 -->
<!-- Title: JSONNode::as_int Pages: 1 -->
<svg width="452pt" height="70pt"
 viewBox="0.00 0.00 452.00 70.00" xmlns="http://www.w3.org/2000/svg" xmlns:xlink="http://www.w3.org/1999/xlink">
<g id="graph0" class="graph" transform="scale(1 1) rotate(0) translate(4 66)">
<title>JSONNode::as_int</title>
<polygon fill="white" stroke="white" points="-4,4 -4,-66 448,-66 448,4 -4,4"/>
<!-- Node1 -->
<g id="node1" class="node"><title>Node1</title>
<polygon fill="#bfbfbf" stroke="black" points="0,-20.5 0,-41.5 114,-41.5 114,-20.5 0,-20.5"/>
<text text-anchor="middle" x="57" y="-27.9" font-family="Helvetica,sans-Serif" font-size="12.00">JSONNode::as_int</text>
</g>
<!-- Node2 -->
<g id="node2" class="node"><title>Node2</title>
<g id="a_node2"><a xlink:href="../../d3/d71/jsonhelpers_8h.html#a0c2d0c196f0e8025cfc01c009dd24fad" target="_top" xlink:title="getIntFromArray">
<polygon fill="white" stroke="black" points="150,-40.5 150,-61.5 250,-61.5 250,-40.5 150,-40.5"/>
<text text-anchor="middle" x="200" y="-47.9" font-family="Helvetica,sans-Serif" font-size="12.00">getIntFromArray</text>
</a>
</g>
</g>
<!-- Node1&#45;&gt;Node2 -->
<g id="edge1" class="edge"><title>Node1&#45;&gt;Node2</title>
<path fill="none" stroke="midnightblue" d="M124.213,-40.392C132.862,-41.6187 141.596,-42.8576 149.894,-44.0346"/>
<polygon fill="midnightblue" stroke="midnightblue" points="124.525,-36.9011 114.132,-38.962 123.541,-43.8318 124.525,-36.9011"/>
</g>
<!-- Node4 -->
<g id="node4" class="node"><title>Node4</title>
<g id="a_node4"><a xlink:href="../../d3/d71/jsonhelpers_8h.html#a08ab5ac1196736bebfbeee4bb85da346" target="_top" xlink:title="sumArrayInt">
<polygon fill="white" stroke="black" points="161.5,-0.5 161.5,-21.5 238.5,-21.5 238.5,-0.5 161.5,-0.5"/>
<text text-anchor="middle" x="200" y="-7.9" font-family="Helvetica,sans-Serif" font-size="12.00">sumArrayInt</text>
</a>
</g>
</g>
<!-- Node1&#45;&gt;Node4 -->
<g id="edge3" class="edge"><title>Node1&#45;&gt;Node4</title>
<path fill="none" stroke="midnightblue" d="M124.246,-21.6034C136.947,-19.8019 149.832,-17.9742 161.245,-16.3553"/>
<polygon fill="midnightblue" stroke="midnightblue" points="123.541,-18.1682 114.132,-23.038 124.525,-25.0989 123.541,-18.1682"/>
</g>
<!-- Node3 -->
<g id="node3" class="node"><title>Node3</title>
<g id="a_node3"><a xlink:href="../../d8/de1/class_blemish_test.html#ad9071bb6332b7fc91a6e7c7ef109cba2" target="_top" xlink:title="Parses the JSON output of an sfrPlus test to determine the pass/fail status of the various metrics...">
<polygon fill="white" stroke="black" points="286.5,-20.5 286.5,-41.5 443.5,-41.5 443.5,-20.5 286.5,-20.5"/>
<text text-anchor="middle" x="365" y="-27.9" font-family="Helvetica,sans-Serif" font-size="12.00">BlemishTest::ParseResults</text>
</a>
</g>
</g>
<!-- Node2&#45;&gt;Node3 -->
<g id="edge2" class="edge"><title>Node2&#45;&gt;Node3</title>
<path fill="none" stroke="midnightblue" d="M260.401,-43.7115C268.803,-42.6807 277.543,-41.6082 286.227,-40.5427"/>
<polygon fill="midnightblue" stroke="midnightblue" points="259.847,-40.2532 250.348,-44.9451 260.7,-47.2011 259.847,-40.2532"/>
</g>
<!-- Node4&#45;&gt;Node3 -->
<g id="edge4" class="edge"><title>Node4&#45;&gt;Node3</title>
<path fill="none" stroke="midnightblue" d="M248.813,-16.8666C260.569,-18.3091 273.461,-19.8909 286.23,-21.4576"/>
<polygon fill="midnightblue" stroke="midnightblue" points="249.157,-13.3827 238.805,-15.6387 248.304,-20.3306 249.157,-13.3827"/>
</g>
</g>
</svg>
