<?xml version="1.0" encoding="UTF-8" standalone="no"?>
<!DOCTYPE svg PUBLIC "-//W3C//DTD SVG 1.1//EN"
 "http://www.w3.org/Graphics/SVG/1.1/DTD/svg11.dtd">
<!-- Generated by graphviz version 2.34.0 (20130907.0111)
 -->
<!-- Title: ThreadControl::Init Pages: 1 -->
<svg width="816pt" height="148pt"
 viewBox="0.00 0.00 816.00 148.00" xmlns="http://www.w3.org/2000/svg" xmlns:xlink="http://www.w3.org/1999/xlink">
<g id="graph0" class="graph" transform="scale(1 1) rotate(0) translate(4 144)">
<title>ThreadControl::Init</title>
<polygon fill="white" stroke="white" points="-4,4 -4,-144 812,-144 812,4 -4,4"/>
<!-- Node1 -->
<g id="node1" class="node"><title>Node1</title>
<polygon fill="#bfbfbf" stroke="black" points="0.5,-59.5 0.5,-80.5 111.5,-80.5 111.5,-59.5 0.5,-59.5"/>
<text text-anchor="middle" x="56" y="-66.9" font-family="Helvetica,sans-Serif" font-size="12.00">ThreadControl::Init</text>
</g>
<!-- Node2 -->
<g id="node2" class="node"><title>Node2</title>
<g id="a_node2"><a xlink:href="../../d3/d9f/class_c_operator_console_app.html#a51ad7e6e8f370072c3e89d0d7e9e41a8" target="_top" xlink:title="COperatorConsoleApp\l::InitBlemishThread">
<polygon fill="white" stroke="black" points="148.5,-0 148.5,-34 285.5,-34 285.5,-0 148.5,-0"/>
<text text-anchor="start" x="156.5" y="-20.4" font-family="Helvetica,sans-Serif" font-size="12.00">COperatorConsoleApp</text>
<text text-anchor="middle" x="217" y="-7.4" font-family="Helvetica,sans-Serif" font-size="12.00">::InitBlemishThread</text>
</a>
</g>
</g>
<!-- Node1&#45;&gt;Node2 -->
<g id="edge1" class="edge"><title>Node1&#45;&gt;Node2</title>
<path fill="none" stroke="midnightblue" d="M98.3852,-56.2049C118.702,-49.4326 143.37,-41.21 164.857,-34.0476"/>
<polygon fill="midnightblue" stroke="midnightblue" points="97.1739,-52.9193 88.7939,-59.402 99.3875,-59.5601 97.1739,-52.9193"/>
</g>
<!-- Node8 -->
<g id="node8" class="node"><title>Node8</title>
<g id="a_node8"><a xlink:href="../../d3/d9f/class_c_operator_console_app.html#ae300ef0b301d72f897e75cdf10ff9752" target="_top" xlink:title="COperatorConsoleApp\l::InitCameraThread">
<polygon fill="white" stroke="black" points="148.5,-106 148.5,-140 285.5,-140 285.5,-106 148.5,-106"/>
<text text-anchor="start" x="156.5" y="-126.4" font-family="Helvetica,sans-Serif" font-size="12.00">COperatorConsoleApp</text>
<text text-anchor="middle" x="217" y="-113.4" font-family="Helvetica,sans-Serif" font-size="12.00">::InitCameraThread</text>
</a>
</g>
</g>
<!-- Node1&#45;&gt;Node8 -->
<g id="edge7" class="edge"><title>Node1&#45;&gt;Node8</title>
<path fill="none" stroke="midnightblue" d="M98.3852,-83.7951C118.702,-90.5674 143.37,-98.79 164.857,-105.952"/>
<polygon fill="midnightblue" stroke="midnightblue" points="99.3875,-80.4399 88.7939,-80.598 97.1739,-87.0807 99.3875,-80.4399"/>
</g>
<!-- Node9 -->
<g id="node9" class="node"><title>Node9</title>
<g id="a_node9"><a xlink:href="../../d3/d9f/class_c_operator_console_app.html#af7328d2c00abb1d4a09a65492c69b2b0" target="_top" xlink:title="COperatorConsoleApp\l::InitSFRplusThread">
<polygon fill="white" stroke="black" points="148.5,-53 148.5,-87 285.5,-87 285.5,-53 148.5,-53"/>
<text text-anchor="start" x="156.5" y="-73.4" font-family="Helvetica,sans-Serif" font-size="12.00">COperatorConsoleApp</text>
<text text-anchor="middle" x="217" y="-60.4" font-family="Helvetica,sans-Serif" font-size="12.00">::InitSFRplusThread</text>
</a>
</g>
</g>
<!-- Node1&#45;&gt;Node9 -->
<g id="edge9" class="edge"><title>Node1&#45;&gt;Node9</title>
<path fill="none" stroke="midnightblue" d="M121.813,-70C130.529,-70 139.489,-70 148.254,-70"/>
<polygon fill="midnightblue" stroke="midnightblue" points="121.719,-66.5001 111.719,-70 121.719,-73.5001 121.719,-66.5001"/>
</g>
<!-- Node3 -->
<g id="node3" class="node"><title>Node3</title>
<g id="a_node3"><a xlink:href="../../d3/d9f/class_c_operator_console_app.html#a7f0cd7b21cee2171dea973e4e6e7bb9d" target="_top" xlink:title="Init perform application&#45;specific initialization. ">
<polygon fill="white" stroke="black" points="322.5,-53 322.5,-87 459.5,-87 459.5,-53 322.5,-53"/>
<text text-anchor="start" x="330.5" y="-73.4" font-family="Helvetica,sans-Serif" font-size="12.00">COperatorConsoleApp</text>
<text text-anchor="middle" x="391" y="-60.4" font-family="Helvetica,sans-Serif" font-size="12.00">::Init</text>
</a>
</g>
</g>
<!-- Node2&#45;&gt;Node3 -->
<g id="edge2" class="edge"><title>Node2&#45;&gt;Node3</title>
<path fill="none" stroke="midnightblue" d="M283.212,-37.0944C300.193,-42.3268 318.324,-47.9137 334.735,-52.9707"/>
<polygon fill="midnightblue" stroke="midnightblue" points="283.956,-33.6613 273.369,-34.0613 281.895,-40.3509 283.956,-33.6613"/>
</g>
<!-- Node5 -->
<g id="node5" class="node"><title>Node5</title>
<g id="a_node5"><a xlink:href="../../d3/d9f/class_c_operator_console_app.html#aede77af6cae8053d49c752fd95910728" target="_top" xlink:title="This function allows for reallocation of the various image buffers when we change the image size...">
<polygon fill="white" stroke="black" points="322.5,-0 322.5,-34 459.5,-34 459.5,-0 322.5,-0"/>
<text text-anchor="start" x="330.5" y="-20.4" font-family="Helvetica,sans-Serif" font-size="12.00">COperatorConsoleApp</text>
<text text-anchor="middle" x="391" y="-7.4" font-family="Helvetica,sans-Serif" font-size="12.00">::ReInit</text>
</a>
</g>
</g>
<!-- Node2&#45;&gt;Node5 -->
<g id="edge4" class="edge"><title>Node2&#45;&gt;Node5</title>
<path fill="none" stroke="midnightblue" d="M296.134,-17C304.846,-17 313.666,-17 322.233,-17"/>
<polygon fill="midnightblue" stroke="midnightblue" points="295.979,-13.5001 285.979,-17 295.979,-20.5001 295.979,-13.5001"/>
</g>
<!-- Node4 -->
<g id="node4" class="node"><title>Node4</title>
<g id="a_node4"><a xlink:href="../../d3/d9f/class_c_operator_console_app.html#a94f4b258145e77e31644beb999bf099a" target="_top" xlink:title="COperatorConsoleApp initialization. ">
<polygon fill="white" stroke="black" points="496.5,-53 496.5,-87 633.5,-87 633.5,-53 496.5,-53"/>
<text text-anchor="start" x="504.5" y="-73.4" font-family="Helvetica,sans-Serif" font-size="12.00">COperatorConsoleApp</text>
<text text-anchor="middle" x="565" y="-60.4" font-family="Helvetica,sans-Serif" font-size="12.00">::InitInstance</text>
</a>
</g>
</g>
<!-- Node3&#45;&gt;Node4 -->
<g id="edge3" class="edge"><title>Node3&#45;&gt;Node4</title>
<path fill="none" stroke="midnightblue" d="M470.134,-70C478.846,-70 487.666,-70 496.233,-70"/>
<polygon fill="midnightblue" stroke="midnightblue" points="469.979,-66.5001 459.979,-70 469.979,-73.5001 469.979,-66.5001"/>
</g>
<!-- Node6 -->
<g id="node6" class="node"><title>Node6</title>
<g id="a_node6"><a xlink:href="../../d3/d9f/class_c_operator_console_app.html#a620f8d2eed65d743bb177abcb90936e6" target="_top" xlink:title="Called after MSG_SETUP is received. ">
<polygon fill="white" stroke="black" points="496.5,-0 496.5,-34 633.5,-34 633.5,-0 496.5,-0"/>
<text text-anchor="start" x="504.5" y="-20.4" font-family="Helvetica,sans-Serif" font-size="12.00">COperatorConsoleApp</text>
<text text-anchor="middle" x="565" y="-7.4" font-family="Helvetica,sans-Serif" font-size="12.00">::OnSetup</text>
</a>
</g>
</g>
<!-- Node5&#45;&gt;Node6 -->
<g id="edge5" class="edge"><title>Node5&#45;&gt;Node6</title>
<path fill="none" stroke="midnightblue" d="M470.134,-17C478.846,-17 487.666,-17 496.233,-17"/>
<polygon fill="midnightblue" stroke="midnightblue" points="469.979,-13.5001 459.979,-17 469.979,-20.5001 469.979,-13.5001"/>
</g>
<!-- Node7 -->
<g id="node7" class="node"><title>Node7</title>
<g id="a_node7"><a xlink:href="../../d3/d9f/class_c_operator_console_app.html#a7041d197c4e6549f2cb7219981b4eec1" target="_top" xlink:title="Intercepts messages of interest before Windows or MFC. ">
<polygon fill="white" stroke="black" points="670,-0 670,-34 808,-34 808,-0 670,-0"/>
<text text-anchor="start" x="678" y="-20.4" font-family="Helvetica,sans-Serif" font-size="12.00">COperatorConsoleApp</text>
<text text-anchor="middle" x="739" y="-7.4" font-family="Helvetica,sans-Serif" font-size="12.00">::PreTranslateMessage</text>
</a>
</g>
</g>
<!-- Node6&#45;&gt;Node7 -->
<g id="edge6" class="edge"><title>Node6&#45;&gt;Node7</title>
<path fill="none" stroke="midnightblue" d="M644.054,-17C652.696,-17 661.446,-17 669.952,-17"/>
<polygon fill="midnightblue" stroke="midnightblue" points="643.979,-13.5001 633.979,-17 643.979,-20.5001 643.979,-13.5001"/>
</g>
<!-- Node8&#45;&gt;Node3 -->
<g id="edge8" class="edge"><title>Node8&#45;&gt;Node3</title>
<path fill="none" stroke="midnightblue" d="M283.212,-102.906C300.193,-97.6732 318.324,-92.0863 334.735,-87.0293"/>
<polygon fill="midnightblue" stroke="midnightblue" points="281.895,-99.6491 273.369,-105.939 283.956,-106.339 281.895,-99.6491"/>
</g>
<!-- Node9&#45;&gt;Node3 -->
<g id="edge10" class="edge"><title>Node9&#45;&gt;Node3</title>
<path fill="none" stroke="midnightblue" d="M296.134,-70C304.846,-70 313.666,-70 322.233,-70"/>
<polygon fill="midnightblue" stroke="midnightblue" points="295.979,-66.5001 285.979,-70 295.979,-73.5001 295.979,-66.5001"/>
</g>
<!-- Node9&#45;&gt;Node5 -->
<g id="edge11" class="edge"><title>Node9&#45;&gt;Node5</title>
<path fill="none" stroke="midnightblue" d="M283.212,-49.9056C300.193,-44.6732 318.324,-39.0863 334.735,-34.0293"/>
<polygon fill="midnightblue" stroke="midnightblue" points="281.895,-46.6491 273.369,-52.9387 283.956,-53.3387 281.895,-46.6491"/>
</g>
</g>
</svg>
