<?xml version="1.0" encoding="UTF-8" standalone="no"?>
<!DOCTYPE svg PUBLIC "-//W3C//DTD SVG 1.1//EN"
 "http://www.w3.org/Graphics/SVG/1.1/DTD/svg11.dtd">
<!-- Generated by graphviz version 2.34.0 (20130907.0111)
 -->
<!-- Title: ThreadControl::InitThread Pages: 1 -->
<svg width="1000pt" height="148pt"
 viewBox="0.00 0.00 1000.00 148.00" xmlns="http://www.w3.org/2000/svg" xmlns:xlink="http://www.w3.org/1999/xlink">
<g id="graph0" class="graph" transform="scale(1 1) rotate(0) translate(4 144)">
<title>ThreadControl::InitThread</title>
<polygon fill="white" stroke="white" points="-4,4 -4,-144 996,-144 996,4 -4,4"/>
<!-- Node1 -->
<g id="node1" class="node"><title>Node1</title>
<polygon fill="#bfbfbf" stroke="black" points="0,-59.5 0,-80.5 148,-80.5 148,-59.5 0,-59.5"/>
<text text-anchor="middle" x="74" y="-66.9" font-family="Helvetica,sans-Serif" font-size="12.00">ThreadControl::InitThread</text>
</g>
<!-- Node2 -->
<g id="node2" class="node"><title>Node2</title>
<g id="a_node2"><a xlink:href="../../d7/da0/class_thread_control.html#a5054f2ad6297cc65b4cb9146437f48b0" target="_top" xlink:title="ThreadControl::Init">
<polygon fill="white" stroke="black" points="184.5,-59.5 184.5,-80.5 295.5,-80.5 295.5,-59.5 184.5,-59.5"/>
<text text-anchor="middle" x="240" y="-66.9" font-family="Helvetica,sans-Serif" font-size="12.00">ThreadControl::Init</text>
</a>
</g>
</g>
<!-- Node1&#45;&gt;Node2 -->
<g id="edge1" class="edge"><title>Node1&#45;&gt;Node2</title>
<path fill="none" stroke="midnightblue" d="M158.62,-70C167.367,-70 176.088,-70 184.387,-70"/>
<polygon fill="midnightblue" stroke="midnightblue" points="158.366,-66.5001 148.366,-70 158.366,-73.5001 158.366,-66.5001"/>
</g>
<!-- Node3 -->
<g id="node3" class="node"><title>Node3</title>
<g id="a_node3"><a xlink:href="../../d3/d9f/class_c_operator_console_app.html#a51ad7e6e8f370072c3e89d0d7e9e41a8" target="_top" xlink:title="COperatorConsoleApp\l::InitBlemishThread">
<polygon fill="white" stroke="black" points="332.5,-0 332.5,-34 469.5,-34 469.5,-0 332.5,-0"/>
<text text-anchor="start" x="340.5" y="-20.4" font-family="Helvetica,sans-Serif" font-size="12.00">COperatorConsoleApp</text>
<text text-anchor="middle" x="401" y="-7.4" font-family="Helvetica,sans-Serif" font-size="12.00">::InitBlemishThread</text>
</a>
</g>
</g>
<!-- Node2&#45;&gt;Node3 -->
<g id="edge2" class="edge"><title>Node2&#45;&gt;Node3</title>
<path fill="none" stroke="midnightblue" d="M282.385,-56.2049C302.702,-49.4326 327.37,-41.21 348.857,-34.0476"/>
<polygon fill="midnightblue" stroke="midnightblue" points="281.174,-52.9193 272.794,-59.402 283.388,-59.5601 281.174,-52.9193"/>
</g>
<!-- Node9 -->
<g id="node9" class="node"><title>Node9</title>
<g id="a_node9"><a xlink:href="../../d3/d9f/class_c_operator_console_app.html#ae300ef0b301d72f897e75cdf10ff9752" target="_top" xlink:title="COperatorConsoleApp\l::InitCameraThread">
<polygon fill="white" stroke="black" points="332.5,-106 332.5,-140 469.5,-140 469.5,-106 332.5,-106"/>
<text text-anchor="start" x="340.5" y="-126.4" font-family="Helvetica,sans-Serif" font-size="12.00">COperatorConsoleApp</text>
<text text-anchor="middle" x="401" y="-113.4" font-family="Helvetica,sans-Serif" font-size="12.00">::InitCameraThread</text>
</a>
</g>
</g>
<!-- Node2&#45;&gt;Node9 -->
<g id="edge8" class="edge"><title>Node2&#45;&gt;Node9</title>
<path fill="none" stroke="midnightblue" d="M282.385,-83.7951C302.702,-90.5674 327.37,-98.79 348.857,-105.952"/>
<polygon fill="midnightblue" stroke="midnightblue" points="283.388,-80.4399 272.794,-80.598 281.174,-87.0807 283.388,-80.4399"/>
</g>
<!-- Node10 -->
<g id="node10" class="node"><title>Node10</title>
<g id="a_node10"><a xlink:href="../../d3/d9f/class_c_operator_console_app.html#af7328d2c00abb1d4a09a65492c69b2b0" target="_top" xlink:title="COperatorConsoleApp\l::InitSFRplusThread">
<polygon fill="white" stroke="black" points="332.5,-53 332.5,-87 469.5,-87 469.5,-53 332.5,-53"/>
<text text-anchor="start" x="340.5" y="-73.4" font-family="Helvetica,sans-Serif" font-size="12.00">COperatorConsoleApp</text>
<text text-anchor="middle" x="401" y="-60.4" font-family="Helvetica,sans-Serif" font-size="12.00">::InitSFRplusThread</text>
</a>
</g>
</g>
<!-- Node2&#45;&gt;Node10 -->
<g id="edge10" class="edge"><title>Node2&#45;&gt;Node10</title>
<path fill="none" stroke="midnightblue" d="M305.813,-70C314.529,-70 323.489,-70 332.254,-70"/>
<polygon fill="midnightblue" stroke="midnightblue" points="305.719,-66.5001 295.719,-70 305.719,-73.5001 305.719,-66.5001"/>
</g>
<!-- Node4 -->
<g id="node4" class="node"><title>Node4</title>
<g id="a_node4"><a xlink:href="../../d3/d9f/class_c_operator_console_app.html#a7f0cd7b21cee2171dea973e4e6e7bb9d" target="_top" xlink:title="Init perform application&#45;specific initialization. ">
<polygon fill="white" stroke="black" points="506.5,-53 506.5,-87 643.5,-87 643.5,-53 506.5,-53"/>
<text text-anchor="start" x="514.5" y="-73.4" font-family="Helvetica,sans-Serif" font-size="12.00">COperatorConsoleApp</text>
<text text-anchor="middle" x="575" y="-60.4" font-family="Helvetica,sans-Serif" font-size="12.00">::Init</text>
</a>
</g>
</g>
<!-- Node3&#45;&gt;Node4 -->
<g id="edge3" class="edge"><title>Node3&#45;&gt;Node4</title>
<path fill="none" stroke="midnightblue" d="M467.212,-37.0944C484.193,-42.3268 502.324,-47.9137 518.735,-52.9707"/>
<polygon fill="midnightblue" stroke="midnightblue" points="467.956,-33.6613 457.369,-34.0613 465.895,-40.3509 467.956,-33.6613"/>
</g>
<!-- Node6 -->
<g id="node6" class="node"><title>Node6</title>
<g id="a_node6"><a xlink:href="../../d3/d9f/class_c_operator_console_app.html#aede77af6cae8053d49c752fd95910728" target="_top" xlink:title="This function allows for reallocation of the various image buffers when we change the image size...">
<polygon fill="white" stroke="black" points="506.5,-0 506.5,-34 643.5,-34 643.5,-0 506.5,-0"/>
<text text-anchor="start" x="514.5" y="-20.4" font-family="Helvetica,sans-Serif" font-size="12.00">COperatorConsoleApp</text>
<text text-anchor="middle" x="575" y="-7.4" font-family="Helvetica,sans-Serif" font-size="12.00">::ReInit</text>
</a>
</g>
</g>
<!-- Node3&#45;&gt;Node6 -->
<g id="edge5" class="edge"><title>Node3&#45;&gt;Node6</title>
<path fill="none" stroke="midnightblue" d="M480.134,-17C488.846,-17 497.666,-17 506.233,-17"/>
<polygon fill="midnightblue" stroke="midnightblue" points="479.979,-13.5001 469.979,-17 479.979,-20.5001 479.979,-13.5001"/>
</g>
<!-- Node5 -->
<g id="node5" class="node"><title>Node5</title>
<g id="a_node5"><a xlink:href="../../d3/d9f/class_c_operator_console_app.html#a94f4b258145e77e31644beb999bf099a" target="_top" xlink:title="COperatorConsoleApp initialization. ">
<polygon fill="white" stroke="black" points="680.5,-53 680.5,-87 817.5,-87 817.5,-53 680.5,-53"/>
<text text-anchor="start" x="688.5" y="-73.4" font-family="Helvetica,sans-Serif" font-size="12.00">COperatorConsoleApp</text>
<text text-anchor="middle" x="749" y="-60.4" font-family="Helvetica,sans-Serif" font-size="12.00">::InitInstance</text>
</a>
</g>
</g>
<!-- Node4&#45;&gt;Node5 -->
<g id="edge4" class="edge"><title>Node4&#45;&gt;Node5</title>
<path fill="none" stroke="midnightblue" d="M654.134,-70C662.846,-70 671.666,-70 680.233,-70"/>
<polygon fill="midnightblue" stroke="midnightblue" points="653.979,-66.5001 643.979,-70 653.979,-73.5001 653.979,-66.5001"/>
</g>
<!-- Node7 -->
<g id="node7" class="node"><title>Node7</title>
<g id="a_node7"><a xlink:href="../../d3/d9f/class_c_operator_console_app.html#a620f8d2eed65d743bb177abcb90936e6" target="_top" xlink:title="Called after MSG_SETUP is received. ">
<polygon fill="white" stroke="black" points="680.5,-0 680.5,-34 817.5,-34 817.5,-0 680.5,-0"/>
<text text-anchor="start" x="688.5" y="-20.4" font-family="Helvetica,sans-Serif" font-size="12.00">COperatorConsoleApp</text>
<text text-anchor="middle" x="749" y="-7.4" font-family="Helvetica,sans-Serif" font-size="12.00">::OnSetup</text>
</a>
</g>
</g>
<!-- Node6&#45;&gt;Node7 -->
<g id="edge6" class="edge"><title>Node6&#45;&gt;Node7</title>
<path fill="none" stroke="midnightblue" d="M654.134,-17C662.846,-17 671.666,-17 680.233,-17"/>
<polygon fill="midnightblue" stroke="midnightblue" points="653.979,-13.5001 643.979,-17 653.979,-20.5001 653.979,-13.5001"/>
</g>
<!-- Node8 -->
<g id="node8" class="node"><title>Node8</title>
<g id="a_node8"><a xlink:href="../../d3/d9f/class_c_operator_console_app.html#a7041d197c4e6549f2cb7219981b4eec1" target="_top" xlink:title="Intercepts messages of interest before Windows or MFC. ">
<polygon fill="white" stroke="black" points="854,-0 854,-34 992,-34 992,-0 854,-0"/>
<text text-anchor="start" x="862" y="-20.4" font-family="Helvetica,sans-Serif" font-size="12.00">COperatorConsoleApp</text>
<text text-anchor="middle" x="923" y="-7.4" font-family="Helvetica,sans-Serif" font-size="12.00">::PreTranslateMessage</text>
</a>
</g>
</g>
<!-- Node7&#45;&gt;Node8 -->
<g id="edge7" class="edge"><title>Node7&#45;&gt;Node8</title>
<path fill="none" stroke="midnightblue" d="M828.054,-17C836.696,-17 845.446,-17 853.952,-17"/>
<polygon fill="midnightblue" stroke="midnightblue" points="827.979,-13.5001 817.979,-17 827.979,-20.5001 827.979,-13.5001"/>
</g>
<!-- Node9&#45;&gt;Node4 -->
<g id="edge9" class="edge"><title>Node9&#45;&gt;Node4</title>
<path fill="none" stroke="midnightblue" d="M467.212,-102.906C484.193,-97.6732 502.324,-92.0863 518.735,-87.0293"/>
<polygon fill="midnightblue" stroke="midnightblue" points="465.895,-99.6491 457.369,-105.939 467.956,-106.339 465.895,-99.6491"/>
</g>
<!-- Node10&#45;&gt;Node4 -->
<g id="edge11" class="edge"><title>Node10&#45;&gt;Node4</title>
<path fill="none" stroke="midnightblue" d="M480.134,-70C488.846,-70 497.666,-70 506.233,-70"/>
<polygon fill="midnightblue" stroke="midnightblue" points="479.979,-66.5001 469.979,-70 479.979,-73.5001 479.979,-66.5001"/>
</g>
<!-- Node10&#45;&gt;Node6 -->
<g id="edge12" class="edge"><title>Node10&#45;&gt;Node6</title>
<path fill="none" stroke="midnightblue" d="M467.212,-49.9056C484.193,-44.6732 502.324,-39.0863 518.735,-34.0293"/>
<polygon fill="midnightblue" stroke="midnightblue" points="465.895,-46.6491 457.369,-52.9387 467.956,-53.3387 465.895,-46.6491"/>
</g>
</g>
</svg>
