<?xml version="1.0" encoding="UTF-8" standalone="no"?>
<!DOCTYPE svg PUBLIC "-//W3C//DTD SVG 1.1//EN"
 "http://www.w3.org/Graphics/SVG/1.1/DTD/svg11.dtd">
<!-- Generated by graphviz version 2.34.0 (20130907.0111)
 -->
<!-- Title: ThreadControl::Run Pages: 1 -->
<svg width="474pt" height="95pt"
 viewBox="0.00 0.00 474.00 95.00" xmlns="http://www.w3.org/2000/svg" xmlns:xlink="http://www.w3.org/1999/xlink">
<g id="graph0" class="graph" transform="scale(1 1) rotate(0) translate(4 91)">
<title>ThreadControl::Run</title>
<polygon fill="white" stroke="white" points="-4,4 -4,-91 470,-91 470,4 -4,4"/>
<!-- Node1 -->
<g id="node1" class="node"><title>Node1</title>
<polygon fill="#bfbfbf" stroke="black" points="0.5,-32.5 0.5,-53.5 117.5,-53.5 117.5,-32.5 0.5,-32.5"/>
<text text-anchor="middle" x="59" y="-39.9" font-family="Helvetica,sans-Serif" font-size="12.00">ThreadControl::Run</text>
</g>
<!-- Node2 -->
<g id="node2" class="node"><title>Node2</title>
<g id="a_node2"><a xlink:href="../../d3/d9f/class_c_operator_console_app.html#a02d49d758d0b69a772df7b6ed00a013a" target="_top" xlink:title="Called after MSG_FRAME_READY is received. ">
<polygon fill="white" stroke="black" points="154.5,-53 154.5,-87 291.5,-87 291.5,-53 154.5,-53"/>
<text text-anchor="start" x="162.5" y="-73.4" font-family="Helvetica,sans-Serif" font-size="12.00">COperatorConsoleApp</text>
<text text-anchor="middle" x="223" y="-60.4" font-family="Helvetica,sans-Serif" font-size="12.00">::OnFrameReady</text>
</a>
</g>
</g>
<!-- Node1&#45;&gt;Node2 -->
<g id="edge1" class="edge"><title>Node1&#45;&gt;Node2</title>
<path fill="none" stroke="midnightblue" d="M127.487,-54.2478C136.374,-55.7289 145.484,-57.2473 154.373,-58.7289"/>
<polygon fill="midnightblue" stroke="midnightblue" points="128.011,-50.7869 117.571,-52.5952 126.86,-57.6917 128.011,-50.7869"/>
</g>
<!-- Node4 -->
<g id="node4" class="node"><title>Node4</title>
<g id="a_node4"><a xlink:href="../../d3/d9f/class_c_operator_console_app.html#a55ce42948d0ff61bbc0dc9aeb83855f7" target="_top" xlink:title="Called after MSG_RUN_TEST is received. ">
<polygon fill="white" stroke="black" points="154.5,-0 154.5,-34 291.5,-34 291.5,-0 154.5,-0"/>
<text text-anchor="start" x="162.5" y="-20.4" font-family="Helvetica,sans-Serif" font-size="12.00">COperatorConsoleApp</text>
<text text-anchor="middle" x="223" y="-7.4" font-family="Helvetica,sans-Serif" font-size="12.00">::OnRunTest</text>
</a>
</g>
</g>
<!-- Node1&#45;&gt;Node4 -->
<g id="edge3" class="edge"><title>Node1&#45;&gt;Node4</title>
<path fill="none" stroke="midnightblue" d="M127.487,-32.1688C136.374,-30.7425 145.484,-29.2803 154.373,-27.8536"/>
<polygon fill="midnightblue" stroke="midnightblue" points="126.89,-28.7196 117.571,-33.7602 128,-35.6312 126.89,-28.7196"/>
</g>
<!-- Node3 -->
<g id="node3" class="node"><title>Node3</title>
<g id="a_node3"><a xlink:href="../../d3/d9f/class_c_operator_console_app.html#a7041d197c4e6549f2cb7219981b4eec1" target="_top" xlink:title="Intercepts messages of interest before Windows or MFC. ">
<polygon fill="white" stroke="black" points="328,-26 328,-60 466,-60 466,-26 328,-26"/>
<text text-anchor="start" x="336" y="-46.4" font-family="Helvetica,sans-Serif" font-size="12.00">COperatorConsoleApp</text>
<text text-anchor="middle" x="397" y="-33.4" font-family="Helvetica,sans-Serif" font-size="12.00">::PreTranslateMessage</text>
</a>
</g>
</g>
<!-- Node2&#45;&gt;Node3 -->
<g id="edge2" class="edge"><title>Node2&#45;&gt;Node3</title>
<path fill="none" stroke="midnightblue" d="M302.054,-57.7474C310.696,-56.3907 319.446,-55.0171 327.952,-53.682"/>
<polygon fill="midnightblue" stroke="midnightblue" points="301.315,-54.3204 291.979,-59.3289 302.401,-61.2357 301.315,-54.3204"/>
</g>
<!-- Node4&#45;&gt;Node3 -->
<g id="edge4" class="edge"><title>Node4&#45;&gt;Node3</title>
<path fill="none" stroke="midnightblue" d="M302.054,-28.7988C310.696,-30.1052 319.446,-31.4279 327.952,-32.7136"/>
<polygon fill="midnightblue" stroke="midnightblue" points="302.39,-25.3099 291.979,-27.2759 301.343,-32.2313 302.39,-25.3099"/>
</g>
</g>
</svg>
