<?xml version="1.0" encoding="UTF-8" standalone="no"?>
<!DOCTYPE svg PUBLIC "-//W3C//DTD SVG 1.1//EN"
 "http://www.w3.org/Graphics/SVG/1.1/DTD/svg11.dtd">
<!-- Generated by graphviz version 2.34.0 (20130907.0111)
 -->
<!-- Title: ThreadControl::Quit Pages: 1 -->
<svg width="648pt" height="95pt"
 viewBox="0.00 0.00 648.00 95.00" xmlns="http://www.w3.org/2000/svg" xmlns:xlink="http://www.w3.org/1999/xlink">
<g id="graph0" class="graph" transform="scale(1 1) rotate(0) translate(4 91)">
<title>ThreadControl::Quit</title>
<polygon fill="white" stroke="white" points="-4,4 -4,-91 644,-91 644,4 -4,4"/>
<!-- Node1 -->
<g id="node1" class="node"><title>Node1</title>
<polygon fill="#bfbfbf" stroke="black" points="0,-32.5 0,-53.5 118,-53.5 118,-32.5 0,-32.5"/>
<text text-anchor="middle" x="59" y="-39.9" font-family="Helvetica,sans-Serif" font-size="12.00">ThreadControl::Quit</text>
</g>
<!-- Node2 -->
<g id="node2" class="node"><title>Node2</title>
<g id="a_node2"><a xlink:href="../../d3/d9f/class_c_operator_console_app.html#a59dada996addd1a16a558b431bcb922e" target="_top" xlink:title="COperatorConsoleApp\l::Quit">
<polygon fill="white" stroke="black" points="154.5,-53 154.5,-87 291.5,-87 291.5,-53 154.5,-53"/>
<text text-anchor="start" x="162.5" y="-73.4" font-family="Helvetica,sans-Serif" font-size="12.00">COperatorConsoleApp</text>
<text text-anchor="middle" x="223" y="-60.4" font-family="Helvetica,sans-Serif" font-size="12.00">::Quit</text>
</a>
</g>
</g>
<!-- Node1&#45;&gt;Node2 -->
<g id="edge1" class="edge"><title>Node1&#45;&gt;Node2</title>
<path fill="none" stroke="midnightblue" d="M128.13,-54.355C136.836,-55.806 145.746,-57.291 154.443,-58.7405"/>
<polygon fill="midnightblue" stroke="midnightblue" points="128.468,-50.863 118.028,-52.6714 127.317,-57.7678 128.468,-50.863"/>
</g>
<!-- Node4 -->
<g id="node4" class="node"><title>Node4</title>
<g id="a_node4"><a xlink:href="../../d3/d9f/class_c_operator_console_app.html#aede77af6cae8053d49c752fd95910728" target="_top" xlink:title="This function allows for reallocation of the various image buffers when we change the image size...">
<polygon fill="white" stroke="black" points="154.5,-0 154.5,-34 291.5,-34 291.5,-0 154.5,-0"/>
<text text-anchor="start" x="162.5" y="-20.4" font-family="Helvetica,sans-Serif" font-size="12.00">COperatorConsoleApp</text>
<text text-anchor="middle" x="223" y="-7.4" font-family="Helvetica,sans-Serif" font-size="12.00">::ReInit</text>
</a>
</g>
</g>
<!-- Node1&#45;&gt;Node4 -->
<g id="edge3" class="edge"><title>Node1&#45;&gt;Node4</title>
<path fill="none" stroke="midnightblue" d="M128.13,-32.0656C136.836,-30.6683 145.746,-29.2383 154.443,-27.8425"/>
<polygon fill="midnightblue" stroke="midnightblue" points="127.347,-28.6463 118.028,-33.6868 128.456,-35.5579 127.347,-28.6463"/>
</g>
<!-- Node3 -->
<g id="node3" class="node"><title>Node3</title>
<g id="a_node3"><a xlink:href="../../d3/d9f/class_c_operator_console_app.html#a94f4b258145e77e31644beb999bf099a" target="_top" xlink:title="COperatorConsoleApp initialization. ">
<polygon fill="white" stroke="black" points="328.5,-53 328.5,-87 465.5,-87 465.5,-53 328.5,-53"/>
<text text-anchor="start" x="336.5" y="-73.4" font-family="Helvetica,sans-Serif" font-size="12.00">COperatorConsoleApp</text>
<text text-anchor="middle" x="397" y="-60.4" font-family="Helvetica,sans-Serif" font-size="12.00">::InitInstance</text>
</a>
</g>
</g>
<!-- Node2&#45;&gt;Node3 -->
<g id="edge2" class="edge"><title>Node2&#45;&gt;Node3</title>
<path fill="none" stroke="midnightblue" d="M302.134,-70C310.846,-70 319.666,-70 328.233,-70"/>
<polygon fill="midnightblue" stroke="midnightblue" points="301.979,-66.5001 291.979,-70 301.979,-73.5001 301.979,-66.5001"/>
</g>
<!-- Node5 -->
<g id="node5" class="node"><title>Node5</title>
<g id="a_node5"><a xlink:href="../../d3/d9f/class_c_operator_console_app.html#a620f8d2eed65d743bb177abcb90936e6" target="_top" xlink:title="Called after MSG_SETUP is received. ">
<polygon fill="white" stroke="black" points="328.5,-0 328.5,-34 465.5,-34 465.5,-0 328.5,-0"/>
<text text-anchor="start" x="336.5" y="-20.4" font-family="Helvetica,sans-Serif" font-size="12.00">COperatorConsoleApp</text>
<text text-anchor="middle" x="397" y="-7.4" font-family="Helvetica,sans-Serif" font-size="12.00">::OnSetup</text>
</a>
</g>
</g>
<!-- Node4&#45;&gt;Node5 -->
<g id="edge4" class="edge"><title>Node4&#45;&gt;Node5</title>
<path fill="none" stroke="midnightblue" d="M302.134,-17C310.846,-17 319.666,-17 328.233,-17"/>
<polygon fill="midnightblue" stroke="midnightblue" points="301.979,-13.5001 291.979,-17 301.979,-20.5001 301.979,-13.5001"/>
</g>
<!-- Node6 -->
<g id="node6" class="node"><title>Node6</title>
<g id="a_node6"><a xlink:href="../../d3/d9f/class_c_operator_console_app.html#a7041d197c4e6549f2cb7219981b4eec1" target="_top" xlink:title="Intercepts messages of interest before Windows or MFC. ">
<polygon fill="white" stroke="black" points="502,-0 502,-34 640,-34 640,-0 502,-0"/>
<text text-anchor="start" x="510" y="-20.4" font-family="Helvetica,sans-Serif" font-size="12.00">COperatorConsoleApp</text>
<text text-anchor="middle" x="571" y="-7.4" font-family="Helvetica,sans-Serif" font-size="12.00">::PreTranslateMessage</text>
</a>
</g>
</g>
<!-- Node5&#45;&gt;Node6 -->
<g id="edge5" class="edge"><title>Node5&#45;&gt;Node6</title>
<path fill="none" stroke="midnightblue" d="M476.054,-17C484.696,-17 493.446,-17 501.952,-17"/>
<polygon fill="midnightblue" stroke="midnightblue" points="475.979,-13.5001 465.979,-17 475.979,-20.5001 475.979,-13.5001"/>
</g>
</g>
</svg>
