<?xml version="1.0" encoding="UTF-8" standalone="no"?>
<!DOCTYPE svg PUBLIC "-//W3C//DTD SVG 1.1//EN"
 "http://www.w3.org/Graphics/SVG/1.1/DTD/svg11.dtd">
<!-- Generated by graphviz version 2.34.0 (20130907.0111)
 -->
<!-- Title: OperatorConsole.h Pages: 1 -->
<svg width="2010pt" height="378pt"
 viewBox="0.00 0.00 2010.00 378.00" xmlns="http://www.w3.org/2000/svg" xmlns:xlink="http://www.w3.org/1999/xlink">
<g id="graph0" class="graph" transform="scale(1 1) rotate(0) translate(4 374)">
<title>OperatorConsole.h</title>
<polygon fill="white" stroke="white" points="-4,4 -4,-374 2006,-374 2006,4 -4,4"/>
<!-- Node1 -->
<g id="node1" class="node"><title>Node1</title>
<polygon fill="#bfbfbf" stroke="black" points="1183,-348.5 1183,-369.5 1299,-369.5 1299,-348.5 1183,-348.5"/>
<text text-anchor="middle" x="1241" y="-355.9" font-family="Helvetica,sans-Serif" font-size="12.00">OperatorConsole.h</text>
</g>
<!-- Node2 -->
<g id="node2" class="node"><title>Node2</title>
<g id="a_node2"><a xlink:href="../../db/d06/stdafx_8h.html" target="_top" xlink:title="stdafx.h">
<polygon fill="white" stroke="black" points="1335,-116.5 1335,-137.5 1391,-137.5 1391,-116.5 1335,-116.5"/>
<text text-anchor="middle" x="1363" y="-123.9" font-family="Helvetica,sans-Serif" font-size="12.00">stdafx.h</text>
</a>
</g>
</g>
<!-- Node1&#45;&gt;Node2 -->
<g id="edge1" class="edge"><title>Node1&#45;&gt;Node2</title>
<path fill="none" stroke="midnightblue" d="M1287.23,-348.455C1307.89,-341.761 1330.56,-330.557 1344,-312 1380.04,-262.246 1372.83,-184.106 1366.88,-147.786"/>
<polygon fill="midnightblue" stroke="midnightblue" points="1370.25,-146.779 1365.05,-137.552 1363.36,-148.012 1370.25,-146.779"/>
</g>
<!-- Node11 -->
<g id="node11" class="node"><title>Node11</title>
<g id="a_node11"><a xlink:href="../../d8/d01/resource_8h.html" target="_top" xlink:title="resource.h">
<polygon fill="white" stroke="black" points="1517.5,-174.5 1517.5,-195.5 1588.5,-195.5 1588.5,-174.5 1517.5,-174.5"/>
<text text-anchor="middle" x="1553" y="-181.9" font-family="Helvetica,sans-Serif" font-size="12.00">resource.h</text>
</a>
</g>
</g>
<!-- Node1&#45;&gt;Node11 -->
<g id="edge10" class="edge"><title>Node1&#45;&gt;Node11</title>
<path fill="none" stroke="midnightblue" d="M1299.05,-355.075C1368.95,-350.399 1480.89,-338.858 1512,-312 1543.22,-285.047 1550.82,-234.042 1552.57,-205.897"/>
<polygon fill="midnightblue" stroke="midnightblue" points="1556.08,-205.829 1553.01,-195.688 1549.08,-205.529 1556.08,-205.829"/>
</g>
<!-- Node12 -->
<g id="node12" class="node"><title>Node12</title>
<polygon fill="white" stroke="#bfbfbf" points="650.5,-116.5 650.5,-137.5 695.5,-137.5 695.5,-116.5 650.5,-116.5"/>
<text text-anchor="middle" x="673" y="-123.9" font-family="Helvetica,sans-Serif" font-size="12.00">string</text>
</g>
<!-- Node1&#45;&gt;Node12 -->
<g id="edge11" class="edge"><title>Node1&#45;&gt;Node12</title>
<path fill="none" stroke="midnightblue" d="M1182.9,-356.977C997.379,-353.432 429.794,-340.305 403,-312 396.278,-304.899 397.261,-297.916 403,-290 433.192,-248.352 467.179,-277.379 513,-254 552.119,-234.04 558.466,-223.13 593,-196 614.727,-178.931 638.772,-158.235 654.772,-144.192"/>
<polygon fill="midnightblue" stroke="midnightblue" points="657.166,-146.748 662.351,-137.509 652.536,-141.498 657.166,-146.748"/>
</g>
<!-- Node13 -->
<g id="node13" class="node"><title>Node13</title>
<polygon fill="white" stroke="#bfbfbf" points="412,-290.5 412,-311.5 474,-311.5 474,-290.5 412,-290.5"/>
<text text-anchor="middle" x="443" y="-297.9" font-family="Helvetica,sans-Serif" font-size="12.00">iostream</text>
</g>
<!-- Node1&#45;&gt;Node13 -->
<g id="edge12" class="edge"><title>Node1&#45;&gt;Node13</title>
<path fill="none" stroke="midnightblue" d="M1182.6,-358.109C1056.55,-357.557 749.576,-351.976 484.534,-311.973"/>
<polygon fill="midnightblue" stroke="midnightblue" points="484.746,-308.465 474.332,-310.413 483.688,-315.385 484.746,-308.465"/>
</g>
<!-- Node14 -->
<g id="node14" class="node"><title>Node14</title>
<polygon fill="white" stroke="#bfbfbf" points="492.5,-290.5 492.5,-311.5 551.5,-311.5 551.5,-290.5 492.5,-290.5"/>
<text text-anchor="middle" x="522" y="-297.9" font-family="Helvetica,sans-Serif" font-size="12.00">sstream</text>
</g>
<!-- Node1&#45;&gt;Node14 -->
<g id="edge13" class="edge"><title>Node1&#45;&gt;Node14</title>
<path fill="none" stroke="midnightblue" d="M1182.83,-357.648C1066.49,-356.17 796.883,-348.853 561.8,-311.826"/>
<polygon fill="midnightblue" stroke="midnightblue" points="562.119,-308.332 551.692,-310.212 561.015,-315.245 562.119,-308.332"/>
</g>
<!-- Node15 -->
<g id="node15" class="node"><title>Node15</title>
<g id="a_node15"><a xlink:href="../../dc/d69/_blemish_test_8h.html" target="_top" xlink:title="BlemishTest.h">
<polygon fill="white" stroke="black" points="570,-290.5 570,-311.5 660,-311.5 660,-290.5 570,-290.5"/>
<text text-anchor="middle" x="615" y="-297.9" font-family="Helvetica,sans-Serif" font-size="12.00">BlemishTest.h</text>
</a>
</g>
</g>
<!-- Node1&#45;&gt;Node15 -->
<g id="edge14" class="edge"><title>Node1&#45;&gt;Node15</title>
<path fill="none" stroke="midnightblue" d="M1182.74,-355.298C1080.84,-350.138 863.503,-337.207 670.092,-312.021"/>
<polygon fill="midnightblue" stroke="midnightblue" points="670.397,-308.531 660.026,-310.696 669.484,-315.471 670.397,-308.531"/>
</g>
<!-- Node16 -->
<g id="node16" class="node"><title>Node16</title>
<g id="a_node16"><a xlink:href="../../d9/da7/_image_test_8h.html" target="_top" xlink:title="ImageTest.h">
<polygon fill="white" stroke="black" points="424,-232.5 424,-253.5 504,-253.5 504,-232.5 424,-232.5"/>
<text text-anchor="middle" x="464" y="-239.9" font-family="Helvetica,sans-Serif" font-size="12.00">ImageTest.h</text>
</a>
</g>
</g>
<!-- Node1&#45;&gt;Node16 -->
<g id="edge50" class="edge"><title>Node1&#45;&gt;Node16</title>
<path fill="none" stroke="midnightblue" d="M1182.96,-357.105C992.628,-353.888 397.991,-341.508 370,-312 348.615,-289.456 387.141,-269.389 421.136,-257"/>
<polygon fill="midnightblue" stroke="midnightblue" points="422.717,-260.155 431.009,-253.56 420.414,-253.545 422.717,-260.155"/>
</g>
<!-- Node18 -->
<g id="node18" class="node"><title>Node18</title>
<g id="a_node18"><a xlink:href="../../d4/d71/_config_8h.html" target="_top" xlink:title="Config.h">
<polygon fill="white" stroke="black" points="4,-174.5 4,-195.5 64,-195.5 64,-174.5 4,-174.5"/>
<text text-anchor="middle" x="34" y="-181.9" font-family="Helvetica,sans-Serif" font-size="12.00">Config.h</text>
</a>
</g>
</g>
<!-- Node1&#45;&gt;Node18 -->
<g id="edge40" class="edge"><title>Node1&#45;&gt;Node18</title>
<path fill="none" stroke="midnightblue" d="M1182.95,-357.357C1012.87,-355.097 517.83,-345.721 360,-312 244.687,-287.363 116.588,-227.523 61.5634,-200.123"/>
<polygon fill="midnightblue" stroke="midnightblue" points="62.9684,-196.912 52.4611,-195.553 59.8276,-203.168 62.9684,-196.912"/>
</g>
<!-- Node24 -->
<g id="node24" class="node"><title>Node24</title>
<g id="a_node24"><a xlink:href="../../da/d22/_thread_control_8h.html" target="_top" xlink:title="ThreadControl.h">
<polygon fill="white" stroke="black" points="981,-174.5 981,-195.5 1081,-195.5 1081,-174.5 981,-174.5"/>
<text text-anchor="middle" x="1031" y="-181.9" font-family="Helvetica,sans-Serif" font-size="12.00">ThreadControl.h</text>
</a>
</g>
</g>
<!-- Node1&#45;&gt;Node24 -->
<g id="edge77" class="edge"><title>Node1&#45;&gt;Node24</title>
<path fill="none" stroke="midnightblue" d="M1182.68,-357.799C1103.68,-356.145 968.913,-347.96 938,-312 905.322,-273.987 967.954,-225.371 1005.56,-201.144"/>
<polygon fill="midnightblue" stroke="midnightblue" points="1007.9,-203.809 1014.51,-195.531 1004.18,-197.88 1007.9,-203.809"/>
</g>
<!-- Node31 -->
<g id="node31" class="node"><title>Node31</title>
<g id="a_node31"><a xlink:href="../../d1/d59/_file_acq_8h.html" target="_top" xlink:title="FileAcq.h">
<polygon fill="white" stroke="black" points="1269,-290.5 1269,-311.5 1335,-311.5 1335,-290.5 1269,-290.5"/>
<text text-anchor="middle" x="1302" y="-297.9" font-family="Helvetica,sans-Serif" font-size="12.00">FileAcq.h</text>
</a>
</g>
</g>
<!-- Node1&#45;&gt;Node31 -->
<g id="edge41" class="edge"><title>Node1&#45;&gt;Node31</title>
<path fill="none" stroke="midnightblue" d="M1251.63,-348.246C1260.55,-340.055 1273.49,-328.175 1284.02,-318.507"/>
<polygon fill="midnightblue" stroke="midnightblue" points="1286.5,-320.984 1291.5,-311.643 1281.76,-315.827 1286.5,-320.984"/>
</g>
<!-- Node32 -->
<g id="node32" class="node"><title>Node32</title>
<g id="a_node32"><a xlink:href="../../d3/d62/_image_acquisition_8h.html" target="_top" xlink:title="imageacquisition.h">
<polygon fill="white" stroke="black" points="1083.5,-232.5 1083.5,-253.5 1198.5,-253.5 1198.5,-232.5 1083.5,-232.5"/>
<text text-anchor="middle" x="1141" y="-239.9" font-family="Helvetica,sans-Serif" font-size="12.00">imageacquisition.h</text>
</a>
</g>
</g>
<!-- Node1&#45;&gt;Node32 -->
<g id="edge49" class="edge"><title>Node1&#45;&gt;Node32</title>
<path fill="none" stroke="midnightblue" d="M1240.56,-348.175C1239.46,-333.94 1235.59,-307.384 1222,-290 1210.87,-275.755 1194.01,-265.179 1178.55,-257.784"/>
<polygon fill="midnightblue" stroke="midnightblue" points="1179.73,-254.476 1169.17,-253.586 1176.87,-260.866 1179.73,-254.476"/>
</g>
<!-- Node34 -->
<g id="node34" class="node"><title>Node34</title>
<g id="a_node34"><a xlink:href="../../d6/d06/_file_acquisition_8h.html" target="_top" xlink:title="FileAcquisition.h">
<polygon fill="white" stroke="black" points="947.5,-290.5 947.5,-311.5 1050.5,-311.5 1050.5,-290.5 947.5,-290.5"/>
<text text-anchor="middle" x="999" y="-297.9" font-family="Helvetica,sans-Serif" font-size="12.00">FileAcquisition.h</text>
</a>
</g>
</g>
<!-- Node1&#45;&gt;Node34 -->
<g id="edge47" class="edge"><title>Node1&#45;&gt;Node34</title>
<path fill="none" stroke="midnightblue" d="M1199.67,-348.437C1158.26,-338.853 1094.42,-324.081 1049.91,-313.78"/>
<polygon fill="midnightblue" stroke="midnightblue" points="1050.69,-310.368 1040.16,-311.524 1049.11,-317.188 1050.69,-310.368"/>
</g>
<!-- Node35 -->
<g id="node35" class="node"><title>Node35</title>
<g id="a_node35"><a xlink:href="../../db/d0a/_imatest_lib_acq_8h.html" target="_top" xlink:title="ImatestLibAcq.h">
<polygon fill="white" stroke="black" points="789.5,-290.5 789.5,-311.5 890.5,-311.5 890.5,-290.5 789.5,-290.5"/>
<text text-anchor="middle" x="840" y="-297.9" font-family="Helvetica,sans-Serif" font-size="12.00">ImatestLibAcq.h</text>
</a>
</g>
</g>
<!-- Node1&#45;&gt;Node35 -->
<g id="edge51" class="edge"><title>Node1&#45;&gt;Node35</title>
<path fill="none" stroke="midnightblue" d="M1182.99,-350.355C1115.98,-341.456 1002.45,-326.166 905,-312 903.697,-311.811 902.38,-311.618 901.052,-311.423"/>
<polygon fill="midnightblue" stroke="midnightblue" points="901.136,-307.897 890.73,-309.888 900.106,-314.821 901.136,-307.897"/>
</g>
<!-- Node36 -->
<g id="node36" class="node"><title>Node36</title>
<g id="a_node36"><a xlink:href="../../dc/d44/_modeless_dialog_thread_8h.html" target="_top" xlink:title="ModelessDialogThread.h">
<polygon fill="white" stroke="black" points="1581,-290.5 1581,-311.5 1729,-311.5 1729,-290.5 1581,-290.5"/>
<text text-anchor="middle" x="1655" y="-297.9" font-family="Helvetica,sans-Serif" font-size="12.00">ModelessDialogThread.h</text>
</a>
</g>
</g>
<!-- Node1&#45;&gt;Node36 -->
<g id="edge54" class="edge"><title>Node1&#45;&gt;Node36</title>
<path fill="none" stroke="midnightblue" d="M1299,-350.154C1370.81,-340.441 1493.52,-323.843 1574.44,-312.897"/>
<polygon fill="midnightblue" stroke="midnightblue" points="1575.15,-316.333 1584.59,-311.524 1574.21,-309.397 1575.15,-316.333"/>
</g>
<!-- Node37 -->
<g id="node37" class="node"><title>Node37</title>
<g id="a_node37"><a xlink:href="../../dc/d1b/_text_dlg_8h.html" target="_top" xlink:title="TextDlg.h">
<polygon fill="white" stroke="black" points="1621.5,-232.5 1621.5,-253.5 1686.5,-253.5 1686.5,-232.5 1621.5,-232.5"/>
<text text-anchor="middle" x="1654" y="-239.9" font-family="Helvetica,sans-Serif" font-size="12.00">TextDlg.h</text>
</a>
</g>
</g>
<!-- Node1&#45;&gt;Node37 -->
<g id="edge76" class="edge"><title>Node1&#45;&gt;Node37</title>
<path fill="none" stroke="midnightblue" d="M1299.15,-356.923C1424.03,-354.008 1708.92,-343.897 1738,-312 1757.65,-290.45 1722.48,-270.003 1691.81,-257.262"/>
<polygon fill="midnightblue" stroke="midnightblue" points="1693.09,-254.004 1682.5,-253.563 1690.5,-260.509 1693.09,-254.004"/>
</g>
<!-- Node38 -->
<g id="node38" class="node"><title>Node38</title>
<g id="a_node38"><a xlink:href="../../d2/d9d/_s_f_rplus_test_8h.html" target="_top" xlink:title="SFRplusTest.h">
<polygon fill="white" stroke="black" points="678.5,-290.5 678.5,-311.5 771.5,-311.5 771.5,-290.5 678.5,-290.5"/>
<text text-anchor="middle" x="725" y="-297.9" font-family="Helvetica,sans-Serif" font-size="12.00">SFRplusTest.h</text>
</a>
</g>
</g>
<!-- Node1&#45;&gt;Node38 -->
<g id="edge59" class="edge"><title>Node1&#45;&gt;Node38</title>
<path fill="none" stroke="midnightblue" d="M1182.96,-353.715C1097.36,-347.062 932.005,-332.946 782.076,-312.207"/>
<polygon fill="midnightblue" stroke="midnightblue" points="782.155,-308.684 771.766,-310.767 781.186,-315.617 782.155,-308.684"/>
</g>
<!-- Node40 -->
<g id="node40" class="node"><title>Node40</title>
<g id="a_node40"><a xlink:href="../../d8/d4d/_simple_direct_show_acq_8h.html" target="_top" xlink:title="SimpleDirectShowAcq.h">
<polygon fill="white" stroke="black" points="1069,-290.5 1069,-311.5 1213,-311.5 1213,-290.5 1069,-290.5"/>
<text text-anchor="middle" x="1141" y="-297.9" font-family="Helvetica,sans-Serif" font-size="12.00">SimpleDirectShowAcq.h</text>
</a>
</g>
</g>
<!-- Node1&#45;&gt;Node40 -->
<g id="edge64" class="edge"><title>Node1&#45;&gt;Node40</title>
<path fill="none" stroke="midnightblue" d="M1223.58,-348.246C1207.95,-339.493 1184.8,-326.527 1166.98,-316.55"/>
<polygon fill="midnightblue" stroke="midnightblue" points="1168.65,-313.475 1158.22,-311.643 1165.23,-319.583 1168.65,-313.475"/>
</g>
<!-- Node41 -->
<g id="node41" class="node"><title>Node41</title>
<g id="a_node41"><a xlink:href="../../de/d38/_stderr_redirect_8h.html" target="_top" xlink:title="StderrRedirect.h">
<polygon fill="white" stroke="black" points="1899,-232.5 1899,-253.5 2001,-253.5 2001,-232.5 1899,-232.5"/>
<text text-anchor="middle" x="1950" y="-239.9" font-family="Helvetica,sans-Serif" font-size="12.00">StderrRedirect.h</text>
</a>
</g>
</g>
<!-- Node1&#45;&gt;Node41 -->
<g id="edge66" class="edge"><title>Node1&#45;&gt;Node41</title>
<path fill="none" stroke="midnightblue" d="M1299.13,-356.233C1447.59,-351.383 1832.76,-336.569 1885,-312 1907.98,-301.193 1927.02,-278.429 1938.43,-262.219"/>
<polygon fill="midnightblue" stroke="midnightblue" points="1941.57,-263.825 1944.24,-253.572 1935.76,-259.921 1941.57,-263.825"/>
</g>
<!-- Node42 -->
<g id="node42" class="node"><title>Node42</title>
<g id="a_node42"><a xlink:href="../../dc/dff/_stdout_redirect_8h.html" target="_top" xlink:title="StdoutRedirect.h">
<polygon fill="white" stroke="black" points="1898,-174.5 1898,-195.5 2002,-195.5 2002,-174.5 1898,-174.5"/>
<text text-anchor="middle" x="1950" y="-181.9" font-family="Helvetica,sans-Serif" font-size="12.00">StdoutRedirect.h</text>
</a>
</g>
</g>
<!-- Node1&#45;&gt;Node42 -->
<g id="edge74" class="edge"><title>Node1&#45;&gt;Node42</title>
<path fill="none" stroke="midnightblue" d="M1299.13,-357.699C1422.88,-356.333 1708.33,-349.122 1797,-312 1847.29,-290.946 1847.68,-266.378 1890,-232 1902.66,-221.712 1917.18,-210.568 1928.76,-201.826"/>
<polygon fill="midnightblue" stroke="midnightblue" points="1931.07,-204.468 1936.96,-195.663 1926.86,-198.871 1931.07,-204.468"/>
</g>
<!-- Node44 -->
<g id="node44" class="node"><title>Node44</title>
<g id="a_node44"><a xlink:href="../../d5/dd3/_stderr_thread_8h.html" target="_top" xlink:title="StderrThread.h">
<polygon fill="white" stroke="black" points="1391.5,-290.5 1391.5,-311.5 1486.5,-311.5 1486.5,-290.5 1391.5,-290.5"/>
<text text-anchor="middle" x="1439" y="-297.9" font-family="Helvetica,sans-Serif" font-size="12.00">StderrThread.h</text>
</a>
</g>
</g>
<!-- Node1&#45;&gt;Node44 -->
<g id="edge69" class="edge"><title>Node1&#45;&gt;Node44</title>
<path fill="none" stroke="midnightblue" d="M1275.04,-348.373C1308.39,-338.94 1359.35,-324.526 1395.6,-314.275"/>
<polygon fill="midnightblue" stroke="midnightblue" points="1396.74,-317.591 1405.41,-311.501 1394.83,-310.855 1396.74,-317.591"/>
</g>
<!-- Node45 -->
<g id="node45" class="node"><title>Node45</title>
<g id="a_node45"><a xlink:href="../../d2/d5d/_stdout_thread_8h.html" target="_top" xlink:title="StdoutThread.h">
<polygon fill="white" stroke="black" points="1391,-232.5 1391,-253.5 1487,-253.5 1487,-232.5 1391,-232.5"/>
<text text-anchor="middle" x="1439" y="-239.9" font-family="Helvetica,sans-Serif" font-size="12.00">StdoutThread.h</text>
</a>
</g>
</g>
<!-- Node1&#45;&gt;Node45 -->
<g id="edge75" class="edge"><title>Node1&#45;&gt;Node45</title>
<path fill="none" stroke="midnightblue" d="M1299.17,-355.83C1366.28,-351.96 1470.55,-341.28 1495,-312 1510.1,-293.923 1486.77,-272.987 1465.78,-259.174"/>
<polygon fill="midnightblue" stroke="midnightblue" points="1467.38,-256.048 1457.04,-253.719 1463.67,-261.985 1467.38,-256.048"/>
</g>
<!-- Node46 -->
<g id="node46" class="node"><title>Node46</title>
<g id="a_node46"><a xlink:href="../../d0/d9f/setup__settings_8h.html" target="_top" xlink:title="setup_settings.h">
<polygon fill="white" stroke="black" points="1778.5,-174.5 1778.5,-195.5 1879.5,-195.5 1879.5,-174.5 1778.5,-174.5"/>
<text text-anchor="middle" x="1829" y="-181.9" font-family="Helvetica,sans-Serif" font-size="12.00">setup_settings.h</text>
</a>
</g>
</g>
<!-- Node1&#45;&gt;Node46 -->
<g id="edge78" class="edge"><title>Node1&#45;&gt;Node46</title>
<path fill="none" stroke="midnightblue" d="M1299.35,-356.271C1429.5,-351.946 1735.12,-339.011 1773,-312 1808.27,-286.849 1821.66,-234.288 1826.48,-205.641"/>
<polygon fill="midnightblue" stroke="midnightblue" points="1829.96,-206.025 1827.98,-195.618 1823.04,-204.991 1829.96,-206.025"/>
</g>
<!-- Node49 -->
<g id="node49" class="node"><title>Node49</title>
<g id="a_node49"><a xlink:href="../../da/ded/_pass_fail_settings_8h.html" target="_top" xlink:title="PassFailSettings.h">
<polygon fill="white" stroke="black" points="1645.5,-174.5 1645.5,-195.5 1760.5,-195.5 1760.5,-174.5 1645.5,-174.5"/>
<text text-anchor="middle" x="1703" y="-181.9" font-family="Helvetica,sans-Serif" font-size="12.00">PassFailSettings.h</text>
</a>
</g>
</g>
<!-- Node1&#45;&gt;Node49 -->
<g id="edge82" class="edge"><title>Node1&#45;&gt;Node49</title>
<path fill="none" stroke="midnightblue" d="M1299.09,-357.106C1426.95,-354.536 1723.79,-345.038 1754,-312 1783.15,-280.117 1744.53,-229.402 1720.16,-203.092"/>
<polygon fill="midnightblue" stroke="midnightblue" points="1722.59,-200.565 1713.14,-195.758 1717.53,-205.403 1722.59,-200.565"/>
</g>
<!-- Node3 -->
<g id="node3" class="node"><title>Node3</title>
<g id="a_node3"><a xlink:href="../../d9/da6/targetver_8h.html" target="_top" xlink:title="targetver.h">
<polygon fill="white" stroke="black" points="1250.5,-58.5 1250.5,-79.5 1321.5,-79.5 1321.5,-58.5 1250.5,-58.5"/>
<text text-anchor="middle" x="1286" y="-65.9" font-family="Helvetica,sans-Serif" font-size="12.00">targetver.h</text>
</a>
</g>
</g>
<!-- Node2&#45;&gt;Node3 -->
<g id="edge2" class="edge"><title>Node2&#45;&gt;Node3</title>
<path fill="none" stroke="midnightblue" d="M1349.59,-116.246C1337.99,-107.814 1321.03,-95.4729 1307.53,-85.6598"/>
<polygon fill="midnightblue" stroke="midnightblue" points="1309.4,-82.6938 1299.26,-79.6427 1305.29,-88.355 1309.4,-82.6938"/>
</g>
<!-- Node5 -->
<g id="node5" class="node"><title>Node5</title>
<polygon fill="white" stroke="#bfbfbf" points="1580,-58.5 1580,-79.5 1638,-79.5 1638,-58.5 1580,-58.5"/>
<text text-anchor="middle" x="1609" y="-65.9" font-family="Helvetica,sans-Serif" font-size="12.00">afxwin.h</text>
</g>
<!-- Node2&#45;&gt;Node5 -->
<g id="edge4" class="edge"><title>Node2&#45;&gt;Node5</title>
<path fill="none" stroke="midnightblue" d="M1391.07,-119.781C1430.43,-111.038 1504.22,-94.5511 1567,-80 1567.89,-79.7927 1568.8,-79.5823 1569.71,-79.3696"/>
<polygon fill="midnightblue" stroke="midnightblue" points="1570.7,-82.7323 1579.64,-77.0384 1569.1,-75.9177 1570.7,-82.7323"/>
</g>
<!-- Node6 -->
<g id="node6" class="node"><title>Node6</title>
<polygon fill="white" stroke="#bfbfbf" points="1340,-58.5 1340,-79.5 1396,-79.5 1396,-58.5 1340,-58.5"/>
<text text-anchor="middle" x="1368" y="-65.9" font-family="Helvetica,sans-Serif" font-size="12.00">afxext.h</text>
</g>
<!-- Node2&#45;&gt;Node6 -->
<g id="edge5" class="edge"><title>Node2&#45;&gt;Node6</title>
<path fill="none" stroke="midnightblue" d="M1363.87,-116.246C1364.52,-108.938 1365.44,-98.6944 1366.24,-89.7046"/>
<polygon fill="midnightblue" stroke="midnightblue" points="1369.74,-89.9143 1367.14,-79.6427 1362.76,-89.2918 1369.74,-89.9143"/>
</g>
<!-- Node7 -->
<g id="node7" class="node"><title>Node7</title>
<polygon fill="white" stroke="#bfbfbf" points="1414.5,-58.5 1414.5,-79.5 1477.5,-79.5 1477.5,-58.5 1414.5,-58.5"/>
<text text-anchor="middle" x="1446" y="-65.9" font-family="Helvetica,sans-Serif" font-size="12.00">afxdisp.h</text>
</g>
<!-- Node2&#45;&gt;Node7 -->
<g id="edge6" class="edge"><title>Node2&#45;&gt;Node7</title>
<path fill="none" stroke="midnightblue" d="M1377.46,-116.246C1390.07,-107.734 1408.59,-95.2375 1423.2,-85.3801"/>
<polygon fill="midnightblue" stroke="midnightblue" points="1425.38,-88.1371 1431.71,-79.6427 1421.46,-82.3343 1425.38,-88.1371"/>
</g>
<!-- Node8 -->
<g id="node8" class="node"><title>Node8</title>
<polygon fill="white" stroke="#bfbfbf" points="1496,-58.5 1496,-79.5 1558,-79.5 1558,-58.5 1496,-58.5"/>
<text text-anchor="middle" x="1527" y="-65.9" font-family="Helvetica,sans-Serif" font-size="12.00">afxdtctl.h</text>
</g>
<!-- Node2&#45;&gt;Node8 -->
<g id="edge7" class="edge"><title>Node2&#45;&gt;Node8</title>
<path fill="none" stroke="midnightblue" d="M1391.19,-116.373C1418.35,-107.102 1459.59,-93.0178 1489.5,-82.804"/>
<polygon fill="midnightblue" stroke="midnightblue" points="1490.84,-86.0449 1499.18,-79.5011 1488.58,-79.4204 1490.84,-86.0449"/>
</g>
<!-- Node9 -->
<g id="node9" class="node"><title>Node9</title>
<polygon fill="white" stroke="#bfbfbf" points="1054,-58.5 1054,-79.5 1116,-79.5 1116,-58.5 1054,-58.5"/>
<text text-anchor="middle" x="1085" y="-65.9" font-family="Helvetica,sans-Serif" font-size="12.00">afxcmn.h</text>
</g>
<!-- Node2&#45;&gt;Node9 -->
<g id="edge8" class="edge"><title>Node2&#45;&gt;Node9</title>
<path fill="none" stroke="midnightblue" d="M1334.69,-121.039C1291.74,-113.403 1207.33,-97.9661 1126.27,-80.1994"/>
<polygon fill="midnightblue" stroke="midnightblue" points="1126.92,-76.7596 1116.4,-78.0216 1125.42,-83.595 1126.92,-76.7596"/>
</g>
<!-- Node10 -->
<g id="node10" class="node"><title>Node10</title>
<polygon fill="white" stroke="#bfbfbf" points="1134,-58.5 1134,-79.5 1232,-79.5 1232,-58.5 1134,-58.5"/>
<text text-anchor="middle" x="1183" y="-65.9" font-family="Helvetica,sans-Serif" font-size="12.00">afxcontrolbars.h</text>
</g>
<!-- Node2&#45;&gt;Node10 -->
<g id="edge9" class="edge"><title>Node2&#45;&gt;Node10</title>
<path fill="none" stroke="midnightblue" d="M1334.88,-117.25C1304.91,-107.927 1257.2,-93.0843 1223.26,-82.5241"/>
<polygon fill="midnightblue" stroke="midnightblue" points="1224.22,-79.1601 1213.64,-79.5314 1222.15,-85.8441 1224.22,-79.1601"/>
</g>
<!-- Node4 -->
<g id="node4" class="node"><title>Node4</title>
<polygon fill="white" stroke="#bfbfbf" points="1238,-0.5 1238,-21.5 1334,-21.5 1334,-0.5 1238,-0.5"/>
<text text-anchor="middle" x="1286" y="-7.9" font-family="Helvetica,sans-Serif" font-size="12.00">SDKDDKVer.h</text>
</g>
<!-- Node3&#45;&gt;Node4 -->
<g id="edge3" class="edge"><title>Node3&#45;&gt;Node4</title>
<path fill="none" stroke="midnightblue" d="M1286,-58.2455C1286,-50.9382 1286,-40.6944 1286,-31.7046"/>
<polygon fill="midnightblue" stroke="midnightblue" points="1289.5,-31.6426 1286,-21.6427 1282.5,-31.6427 1289.5,-31.6426"/>
</g>
<!-- Node15&#45;&gt;Node12 -->
<g id="edge15" class="edge"><title>Node15&#45;&gt;Node12</title>
<path fill="none" stroke="midnightblue" d="M618.285,-290.26C627.576,-262.706 654.173,-183.833 666.537,-147.168"/>
<polygon fill="midnightblue" stroke="midnightblue" points="669.873,-148.228 669.752,-137.633 663.24,-145.991 669.873,-148.228"/>
</g>
<!-- Node15&#45;&gt;Node16 -->
<g id="edge16" class="edge"><title>Node15&#45;&gt;Node16</title>
<path fill="none" stroke="midnightblue" d="M589.042,-290.373C564.259,-281.182 526.725,-267.262 499.246,-257.071"/>
<polygon fill="midnightblue" stroke="midnightblue" points="500.212,-253.697 489.619,-253.501 497.778,-260.26 500.212,-253.697"/>
</g>
<!-- Node15&#45;&gt;Node24 -->
<g id="edge39" class="edge"><title>Node15&#45;&gt;Node24</title>
<path fill="none" stroke="midnightblue" d="M624.949,-290.417C641.376,-275.221 675.864,-245.899 711,-232 816.911,-190.105 854.217,-212.477 970.783,-196.092"/>
<polygon fill="midnightblue" stroke="midnightblue" points="971.422,-199.536 980.805,-194.616 970.402,-192.61 971.422,-199.536"/>
</g>
<!-- Node16&#45;&gt;Node12 -->
<g id="edge17" class="edge"><title>Node16&#45;&gt;Node12</title>
<path fill="none" stroke="midnightblue" d="M485.018,-232.463C504.445,-223.498 533.998,-209.477 559,-196 590.736,-178.893 626.258,-157.299 649.086,-143.092"/>
<polygon fill="midnightblue" stroke="midnightblue" points="651.133,-145.94 657.756,-137.671 647.422,-140.005 651.133,-145.94"/>
</g>
<!-- Node17 -->
<g id="node17" class="node"><title>Node17</title>
<polygon fill="white" stroke="#bfbfbf" points="496,-174.5 496,-195.5 550,-195.5 550,-174.5 496,-174.5"/>
<text text-anchor="middle" x="523" y="-181.9" font-family="Helvetica,sans-Serif" font-size="12.00">string.h</text>
</g>
<!-- Node16&#45;&gt;Node17 -->
<g id="edge18" class="edge"><title>Node16&#45;&gt;Node17</title>
<path fill="none" stroke="midnightblue" d="M474.277,-232.246C482.822,-224.135 495.178,-212.408 505.309,-202.792"/>
<polygon fill="midnightblue" stroke="midnightblue" points="507.997,-205.066 512.841,-195.643 503.178,-199.988 507.997,-205.066"/>
</g>
<!-- Node16&#45;&gt;Node18 -->
<g id="edge19" class="edge"><title>Node16&#45;&gt;Node18</title>
<path fill="none" stroke="midnightblue" d="M423.769,-239.055C354.332,-233.585 207.402,-220.312 74.1236,-196"/>
<polygon fill="midnightblue" stroke="midnightblue" points="74.6146,-192.532 64.1447,-194.154 73.3412,-199.415 74.6146,-192.532"/>
</g>
<!-- Node19 -->
<g id="node19" class="node"><title>Node19</title>
<g id="a_node19"><a xlink:href="../../d8/d50/_critical_c_string_8h.html" target="_top" xlink:title="CriticalCString.h">
<polygon fill="white" stroke="black" points="759,-174.5 759,-195.5 861,-195.5 861,-174.5 759,-174.5"/>
<text text-anchor="middle" x="810" y="-181.9" font-family="Helvetica,sans-Serif" font-size="12.00">CriticalCString.h</text>
</a>
</g>
</g>
<!-- Node16&#45;&gt;Node19 -->
<g id="edge20" class="edge"><title>Node16&#45;&gt;Node19</title>
<path fill="none" stroke="midnightblue" d="M504.029,-235.521C564.133,-225.793 678.16,-207.338 748.764,-195.911"/>
<polygon fill="midnightblue" stroke="midnightblue" points="749.542,-199.331 758.855,-194.278 748.424,-192.421 749.542,-199.331"/>
</g>
<!-- Node21 -->
<g id="node21" class="node"><title>Node21</title>
<g id="a_node21"><a xlink:href="../../da/d69/imatest__library_8h.html" target="_top" xlink:title="imatest_library.h">
<polygon fill="white" stroke="black" points="82,-174.5 82,-195.5 184,-195.5 184,-174.5 82,-174.5"/>
<text text-anchor="middle" x="133" y="-181.9" font-family="Helvetica,sans-Serif" font-size="12.00">imatest_library.h</text>
</a>
</g>
</g>
<!-- Node16&#45;&gt;Node21 -->
<g id="edge23" class="edge"><title>Node16&#45;&gt;Node21</title>
<path fill="none" stroke="midnightblue" d="M423.744,-235.189C366.469,-225.499 261,-207.656 194.066,-196.331"/>
<polygon fill="midnightblue" stroke="midnightblue" points="194.518,-192.858 184.074,-194.641 193.35,-199.76 194.518,-192.858"/>
</g>
<!-- Node16&#45;&gt;Node24 -->
<g id="edge26" class="edge"><title>Node16&#45;&gt;Node24</title>
<path fill="none" stroke="midnightblue" d="M504.287,-239.419C588.779,-233.776 790.875,-219.076 970.656,-196.089"/>
<polygon fill="midnightblue" stroke="midnightblue" points="971.358,-199.527 980.828,-194.776 970.462,-192.585 971.358,-199.527"/>
</g>
<!-- Node25 -->
<g id="node25" class="node"><title>Node25</title>
<g id="a_node25"><a xlink:href="../../d5/d29/_timer_8h.html" target="_top" xlink:title="Timer.h">
<polygon fill="white" stroke="red" points="202,-174.5 202,-195.5 258,-195.5 258,-174.5 202,-174.5"/>
<text text-anchor="middle" x="230" y="-181.9" font-family="Helvetica,sans-Serif" font-size="12.00">Timer.h</text>
</a>
</g>
</g>
<!-- Node16&#45;&gt;Node25 -->
<g id="edge29" class="edge"><title>Node16&#45;&gt;Node25</title>
<path fill="none" stroke="midnightblue" d="M423.908,-233.065C386.135,-224.552 327.72,-211.144 268.202,-196.246"/>
<polygon fill="midnightblue" stroke="midnightblue" points="268.807,-192.789 258.255,-193.744 267.1,-199.578 268.807,-192.789"/>
</g>
<!-- Node27 -->
<g id="node27" class="node"><title>Node27</title>
<g id="a_node27"><a xlink:href="../../df/d96/_timestamp_8h.html" target="_top" xlink:title="Timestamp.h">
<polygon fill="white" stroke="black" points="879,-174.5 879,-195.5 963,-195.5 963,-174.5 879,-174.5"/>
<text text-anchor="middle" x="921" y="-181.9" font-family="Helvetica,sans-Serif" font-size="12.00">Timestamp.h</text>
</a>
</g>
</g>
<!-- Node16&#45;&gt;Node27 -->
<g id="edge31" class="edge"><title>Node16&#45;&gt;Node27</title>
<path fill="none" stroke="midnightblue" d="M504.194,-238.532C575.545,-232.139 729.2,-217.314 868.725,-196.097"/>
<polygon fill="midnightblue" stroke="midnightblue" points="869.393,-199.535 878.745,-194.558 868.33,-192.617 869.393,-199.535"/>
</g>
<!-- Node28 -->
<g id="node28" class="node"><title>Node28</title>
<g id="a_node28"><a xlink:href="../../d1/d7d/libjson_8h.html" target="_top" xlink:title="libjson.h">
<polygon fill="white" stroke="red" points="418.5,-174.5 418.5,-195.5 477.5,-195.5 477.5,-174.5 418.5,-174.5"/>
<text text-anchor="middle" x="448" y="-181.9" font-family="Helvetica,sans-Serif" font-size="12.00">libjson.h</text>
</a>
</g>
</g>
<!-- Node16&#45;&gt;Node28 -->
<g id="edge33" class="edge"><title>Node16&#45;&gt;Node28</title>
<path fill="none" stroke="midnightblue" d="M461.213,-232.246C459.102,-224.858 456.134,-214.469 453.545,-205.409"/>
<polygon fill="midnightblue" stroke="midnightblue" points="456.868,-204.296 450.755,-195.643 450.137,-206.219 456.868,-204.296"/>
</g>
<!-- Node29 -->
<g id="node29" class="node"><title>Node29</title>
<g id="a_node29"><a xlink:href="../../db/d7e/_j_s_o_n_2_j_s_o_n_defs_8h.html" target="_top" xlink:title="JSON\\JSONDefs.h">
<polygon fill="white" stroke="red" points="332,-116.5 332,-137.5 448,-137.5 448,-116.5 332,-116.5"/>
<text text-anchor="middle" x="390" y="-123.9" font-family="Helvetica,sans-Serif" font-size="12.00">JSON\JSONDefs.h</text>
</a>
</g>
</g>
<!-- Node16&#45;&gt;Node29 -->
<g id="edge38" class="edge"><title>Node16&#45;&gt;Node29</title>
<path fill="none" stroke="midnightblue" d="M447.977,-232.444C435.588,-224.258 418.926,-211.372 409,-196 399.556,-181.374 394.743,-162.046 392.329,-147.736"/>
<polygon fill="midnightblue" stroke="midnightblue" points="395.748,-146.923 390.865,-137.52 388.819,-147.916 395.748,-146.923"/>
</g>
<!-- Node30 -->
<g id="node30" class="node"><title>Node30</title>
<g id="a_node30"><a xlink:href="../../d3/d71/jsonhelpers_8h.html" target="_top" xlink:title="jsonhelpers.h">
<polygon fill="white" stroke="black" points="276.5,-174.5 276.5,-195.5 361.5,-195.5 361.5,-174.5 276.5,-174.5"/>
<text text-anchor="middle" x="319" y="-181.9" font-family="Helvetica,sans-Serif" font-size="12.00">jsonhelpers.h</text>
</a>
</g>
</g>
<!-- Node16&#45;&gt;Node30 -->
<g id="edge36" class="edge"><title>Node16&#45;&gt;Node30</title>
<path fill="none" stroke="midnightblue" d="M439.074,-232.373C415.38,-223.223 379.549,-209.384 353.193,-199.206"/>
<polygon fill="midnightblue" stroke="midnightblue" points="354.191,-195.839 343.601,-195.501 351.669,-202.369 354.191,-195.839"/>
</g>
<!-- Node19&#45;&gt;Node12 -->
<g id="edge22" class="edge"><title>Node19&#45;&gt;Node12</title>
<path fill="none" stroke="midnightblue" d="M786.449,-174.373C764.026,-165.208 730.098,-151.339 705.185,-141.156"/>
<polygon fill="midnightblue" stroke="midnightblue" points="706.369,-137.859 695.789,-137.315 703.721,-144.339 706.369,-137.859"/>
</g>
<!-- Node20 -->
<g id="node20" class="node"><title>Node20</title>
<polygon fill="white" stroke="#bfbfbf" points="1004.5,-116.5 1004.5,-137.5 1057.5,-137.5 1057.5,-116.5 1004.5,-116.5"/>
<text text-anchor="middle" x="1031" y="-123.9" font-family="Helvetica,sans-Serif" font-size="12.00">afxmt.h</text>
</g>
<!-- Node19&#45;&gt;Node20 -->
<g id="edge21" class="edge"><title>Node19&#45;&gt;Node20</title>
<path fill="none" stroke="midnightblue" d="M847.74,-174.437C888.768,-164.041 953.886,-147.54 994.443,-137.263"/>
<polygon fill="midnightblue" stroke="midnightblue" points="995.362,-140.641 1004.2,-134.792 993.642,-133.856 995.362,-140.641"/>
</g>
<!-- Node22 -->
<g id="node22" class="node"><title>Node22</title>
<polygon fill="white" stroke="#bfbfbf" points="0,-116.5 0,-137.5 70,-137.5 70,-116.5 0,-116.5"/>
<text text-anchor="middle" x="35" y="-123.9" font-family="Helvetica,sans-Serif" font-size="12.00">mclmcrrt.h</text>
</g>
<!-- Node21&#45;&gt;Node22 -->
<g id="edge24" class="edge"><title>Node21&#45;&gt;Node22</title>
<path fill="none" stroke="midnightblue" d="M115.93,-174.246C100.753,-165.573 78.3379,-152.765 60.9437,-142.825"/>
<polygon fill="midnightblue" stroke="midnightblue" points="62.2936,-139.565 51.8747,-137.643 58.8206,-145.643 62.2936,-139.565"/>
</g>
<!-- Node23 -->
<g id="node23" class="node"><title>Node23</title>
<polygon fill="white" stroke="#bfbfbf" points="88,-116.5 88,-137.5 178,-137.5 178,-116.5 88,-116.5"/>
<text text-anchor="middle" x="133" y="-123.9" font-family="Helvetica,sans-Serif" font-size="12.00">mclcppclass.h</text>
</g>
<!-- Node21&#45;&gt;Node23 -->
<g id="edge25" class="edge"><title>Node21&#45;&gt;Node23</title>
<path fill="none" stroke="midnightblue" d="M133,-174.246C133,-166.938 133,-156.694 133,-147.705"/>
<polygon fill="midnightblue" stroke="midnightblue" points="136.5,-147.643 133,-137.643 129.5,-147.643 136.5,-147.643"/>
</g>
<!-- Node24&#45;&gt;Node2 -->
<g id="edge27" class="edge"><title>Node24&#45;&gt;Node2</title>
<path fill="none" stroke="midnightblue" d="M1081.21,-175.486C1084.19,-174.983 1087.13,-174.485 1090,-174 1173.75,-159.847 1271.97,-143.313 1324.77,-134.431"/>
<polygon fill="midnightblue" stroke="midnightblue" points="1325.42,-137.869 1334.7,-132.759 1324.26,-130.966 1325.42,-137.869"/>
</g>
<!-- Node24&#45;&gt;Node20 -->
<g id="edge28" class="edge"><title>Node24&#45;&gt;Node20</title>
<path fill="none" stroke="midnightblue" d="M1031,-174.246C1031,-166.938 1031,-156.694 1031,-147.705"/>
<polygon fill="midnightblue" stroke="midnightblue" points="1034.5,-147.643 1031,-137.643 1027.5,-147.643 1034.5,-147.643"/>
</g>
<!-- Node26 -->
<g id="node26" class="node"><title>Node26</title>
<polygon fill="white" stroke="#bfbfbf" points="196,-116.5 196,-137.5 270,-137.5 270,-116.5 196,-116.5"/>
<text text-anchor="middle" x="233" y="-123.9" font-family="Helvetica,sans-Serif" font-size="12.00">sys/types.h</text>
</g>
<!-- Node25&#45;&gt;Node26 -->
<g id="edge30" class="edge"><title>Node25&#45;&gt;Node26</title>
<path fill="none" stroke="midnightblue" d="M230.523,-174.246C230.914,-166.938 231.463,-156.694 231.944,-147.705"/>
<polygon fill="midnightblue" stroke="midnightblue" points="235.443,-147.816 232.483,-137.643 228.453,-147.441 235.443,-147.816"/>
</g>
<!-- Node27&#45;&gt;Node2 -->
<g id="edge32" class="edge"><title>Node27&#45;&gt;Node2</title>
<path fill="none" stroke="midnightblue" d="M963.257,-175.456C966.211,-174.938 969.147,-174.447 972,-174 1100.78,-153.829 1254.68,-138.183 1324.8,-131.514"/>
<polygon fill="midnightblue" stroke="midnightblue" points="1325.3,-134.983 1334.93,-130.559 1324.64,-128.014 1325.3,-134.983"/>
</g>
<!-- Node28&#45;&gt;Node12 -->
<g id="edge35" class="edge"><title>Node28&#45;&gt;Node12</title>
<path fill="none" stroke="midnightblue" d="M477.804,-176.33C480.908,-175.539 484.018,-174.751 487,-174 540.81,-160.448 603.471,-145.025 640.599,-135.924"/>
<polygon fill="midnightblue" stroke="midnightblue" points="641.485,-139.311 650.365,-133.532 639.82,-132.512 641.485,-139.311"/>
</g>
<!-- Node28&#45;&gt;Node29 -->
<g id="edge34" class="edge"><title>Node28&#45;&gt;Node29</title>
<path fill="none" stroke="midnightblue" d="M437.897,-174.246C429.497,-166.135 417.351,-154.408 407.392,-144.792"/>
<polygon fill="midnightblue" stroke="midnightblue" points="409.612,-142.071 399.987,-137.643 404.75,-147.107 409.612,-142.071"/>
</g>
<!-- Node30&#45;&gt;Node29 -->
<g id="edge37" class="edge"><title>Node30&#45;&gt;Node29</title>
<path fill="none" stroke="midnightblue" d="M331.367,-174.246C341.955,-165.894 357.406,-153.708 369.789,-143.941"/>
<polygon fill="midnightblue" stroke="midnightblue" points="372.09,-146.584 377.774,-137.643 367.755,-141.087 372.09,-146.584"/>
</g>
<!-- Node31&#45;&gt;Node2 -->
<g id="edge42" class="edge"><title>Node31&#45;&gt;Node2</title>
<path fill="none" stroke="midnightblue" d="M1305.45,-290.26C1315.23,-262.706 1343.2,-183.833 1356.2,-147.168"/>
<polygon fill="midnightblue" stroke="midnightblue" points="1359.54,-148.228 1359.58,-137.633 1352.94,-145.888 1359.54,-148.228"/>
</g>
<!-- Node31&#45;&gt;Node32 -->
<g id="edge43" class="edge"><title>Node31&#45;&gt;Node32</title>
<path fill="none" stroke="midnightblue" d="M1274.32,-290.373C1247.67,-281.102 1207.18,-267.018 1177.81,-256.804"/>
<polygon fill="midnightblue" stroke="midnightblue" points="1178.91,-253.481 1168.32,-253.501 1176.61,-260.092 1178.91,-253.481"/>
</g>
<!-- Node32&#45;&gt;Node2 -->
<g id="edge44" class="edge"><title>Node32&#45;&gt;Node2</title>
<path fill="none" stroke="midnightblue" d="M1159.55,-232.477C1198.56,-212.443 1289.3,-165.848 1335.26,-142.246"/>
<polygon fill="midnightblue" stroke="midnightblue" points="1337.05,-145.258 1344.35,-137.577 1333.86,-139.031 1337.05,-145.258"/>
</g>
<!-- Node33 -->
<g id="node33" class="node"><title>Node33</title>
<g id="a_node33"><a xlink:href="../../d8/d07/_critical_buf_8h.html" target="_top" xlink:title="CriticalBuf.h">
<polygon fill="white" stroke="black" points="1099,-174.5 1099,-195.5 1179,-195.5 1179,-174.5 1099,-174.5"/>
<text text-anchor="middle" x="1139" y="-181.9" font-family="Helvetica,sans-Serif" font-size="12.00">CriticalBuf.h</text>
</a>
</g>
</g>
<!-- Node32&#45;&gt;Node33 -->
<g id="edge45" class="edge"><title>Node32&#45;&gt;Node33</title>
<path fill="none" stroke="midnightblue" d="M1140.65,-232.246C1140.39,-224.938 1140.02,-214.694 1139.7,-205.705"/>
<polygon fill="midnightblue" stroke="midnightblue" points="1143.2,-205.511 1139.34,-195.643 1136.2,-205.761 1143.2,-205.511"/>
</g>
<!-- Node33&#45;&gt;Node20 -->
<g id="edge46" class="edge"><title>Node33&#45;&gt;Node20</title>
<path fill="none" stroke="midnightblue" d="M1120.19,-174.246C1103.15,-165.413 1077.84,-152.289 1058.53,-142.276"/>
<polygon fill="midnightblue" stroke="midnightblue" points="1060.09,-139.139 1049.6,-137.643 1056.86,-145.353 1060.09,-139.139"/>
</g>
<!-- Node34&#45;&gt;Node32 -->
<g id="edge48" class="edge"><title>Node34&#45;&gt;Node32</title>
<path fill="none" stroke="midnightblue" d="M1023.41,-290.373C1046.61,-281.223 1081.7,-267.384 1107.51,-257.206"/>
<polygon fill="midnightblue" stroke="midnightblue" points="1108.89,-260.426 1116.91,-253.501 1106.32,-253.914 1108.89,-260.426"/>
</g>
<!-- Node35&#45;&gt;Node12 -->
<g id="edge53" class="edge"><title>Node35&#45;&gt;Node12</title>
<path fill="none" stroke="midnightblue" d="M830.543,-290.26C803.216,-262.114 723.9,-180.424 689.376,-144.866"/>
<polygon fill="midnightblue" stroke="midnightblue" points="691.831,-142.37 682.353,-137.633 686.808,-147.246 691.831,-142.37"/>
</g>
<!-- Node35&#45;&gt;Node32 -->
<g id="edge52" class="edge"><title>Node35&#45;&gt;Node32</title>
<path fill="none" stroke="midnightblue" d="M890.72,-290.564C942.849,-280.865 1024.05,-265.759 1079.73,-255.399"/>
<polygon fill="midnightblue" stroke="midnightblue" points="1080.63,-258.792 1089.82,-253.522 1079.35,-251.91 1080.63,-258.792"/>
</g>
<!-- Node36&#45;&gt;Node11 -->
<g id="edge55" class="edge"><title>Node36&#45;&gt;Node11</title>
<path fill="none" stroke="midnightblue" d="M1645.94,-290.174C1637.4,-280.89 1624.27,-266.555 1613,-254 1597.67,-236.923 1580.35,-217.249 1568.27,-203.471"/>
<polygon fill="midnightblue" stroke="midnightblue" points="1570.71,-200.948 1561.49,-195.73 1565.45,-205.559 1570.71,-200.948"/>
</g>
<!-- Node36&#45;&gt;Node37 -->
<g id="edge56" class="edge"><title>Node36&#45;&gt;Node37</title>
<path fill="none" stroke="midnightblue" d="M1654.83,-290.246C1654.7,-282.938 1654.51,-272.694 1654.35,-263.705"/>
<polygon fill="midnightblue" stroke="midnightblue" points="1657.85,-263.579 1654.17,-253.643 1650.85,-263.704 1657.85,-263.579"/>
</g>
<!-- Node37&#45;&gt;Node5 -->
<g id="edge57" class="edge"><title>Node37&#45;&gt;Node5</title>
<path fill="none" stroke="midnightblue" d="M1649.96,-232.259C1646.24,-223.036 1640.75,-208.741 1637,-196 1626.08,-158.904 1617.16,-114.565 1612.5,-89.6046"/>
<polygon fill="midnightblue" stroke="midnightblue" points="1615.91,-88.8031 1610.67,-79.5958 1609.03,-90.0623 1615.91,-88.8031"/>
</g>
<!-- Node37&#45;&gt;Node11 -->
<g id="edge58" class="edge"><title>Node37&#45;&gt;Node11</title>
<path fill="none" stroke="midnightblue" d="M1636.41,-232.246C1620.62,-223.493 1597.24,-210.527 1579.24,-200.55"/>
<polygon fill="midnightblue" stroke="midnightblue" points="1580.83,-197.431 1570.39,-195.643 1577.44,-203.553 1580.83,-197.431"/>
</g>
<!-- Node38&#45;&gt;Node12 -->
<g id="edge60" class="edge"><title>Node38&#45;&gt;Node12</title>
<path fill="none" stroke="midnightblue" d="M722.097,-290.487C719.261,-281.187 714.824,-266.623 711,-254 699.574,-216.285 686.295,-172.196 678.847,-147.441"/>
<polygon fill="midnightblue" stroke="midnightblue" points="682.18,-146.373 675.948,-137.805 675.477,-148.389 682.18,-146.373"/>
</g>
<!-- Node38&#45;&gt;Node16 -->
<g id="edge61" class="edge"><title>Node38&#45;&gt;Node16</title>
<path fill="none" stroke="midnightblue" d="M680.429,-290.437C634.214,-280.521 562.116,-265.052 513.992,-254.726"/>
<polygon fill="midnightblue" stroke="midnightblue" points="514.616,-251.281 504.105,-252.605 513.148,-258.125 514.616,-251.281"/>
</g>
<!-- Node38&#45;&gt;Node24 -->
<g id="edge62" class="edge"><title>Node38&#45;&gt;Node24</title>
<path fill="none" stroke="midnightblue" d="M750.009,-290.451C784.743,-277.213 849.572,-252.587 905,-232 935.257,-220.762 969.685,-208.209 994.898,-199.059"/>
<polygon fill="midnightblue" stroke="midnightblue" points="996.213,-202.305 1004.42,-195.606 993.826,-195.725 996.213,-202.305"/>
</g>
<!-- Node39 -->
<g id="node39" class="node"><title>Node39</title>
<g id="a_node39"><a xlink:href="../../d6/d2b/qso_8h.html" target="_top" xlink:title="qso.h">
<polygon fill="white" stroke="black" points="720.5,-232.5 720.5,-253.5 765.5,-253.5 765.5,-232.5 720.5,-232.5"/>
<text text-anchor="middle" x="743" y="-239.9" font-family="Helvetica,sans-Serif" font-size="12.00">qso.h</text>
</a>
</g>
</g>
<!-- Node38&#45;&gt;Node39 -->
<g id="edge63" class="edge"><title>Node38&#45;&gt;Node39</title>
<path fill="none" stroke="midnightblue" d="M728.135,-290.246C730.51,-282.858 733.849,-272.469 736.761,-263.409"/>
<polygon fill="midnightblue" stroke="midnightblue" points="740.173,-264.234 739.901,-253.643 733.508,-262.092 740.173,-264.234"/>
</g>
<!-- Node40&#45;&gt;Node32 -->
<g id="edge65" class="edge"><title>Node40&#45;&gt;Node32</title>
<path fill="none" stroke="midnightblue" d="M1141,-290.246C1141,-282.938 1141,-272.694 1141,-263.705"/>
<polygon fill="midnightblue" stroke="midnightblue" points="1144.5,-263.643 1141,-253.643 1137.5,-263.643 1144.5,-263.643"/>
</g>
<!-- Node41&#45;&gt;Node42 -->
<g id="edge67" class="edge"><title>Node41&#45;&gt;Node42</title>
<path fill="none" stroke="midnightblue" d="M1950,-232.246C1950,-224.938 1950,-214.694 1950,-205.705"/>
<polygon fill="midnightblue" stroke="midnightblue" points="1953.5,-205.643 1950,-195.643 1946.5,-205.643 1953.5,-205.643"/>
</g>
<!-- Node43 -->
<g id="node43" class="node"><title>Node43</title>
<polygon fill="white" stroke="#bfbfbf" points="1924.5,-116.5 1924.5,-137.5 1975.5,-137.5 1975.5,-116.5 1924.5,-116.5"/>
<text text-anchor="middle" x="1950" y="-123.9" font-family="Helvetica,sans-Serif" font-size="12.00">stdio.h</text>
</g>
<!-- Node42&#45;&gt;Node43 -->
<g id="edge68" class="edge"><title>Node42&#45;&gt;Node43</title>
<path fill="none" stroke="midnightblue" d="M1950,-174.246C1950,-166.938 1950,-156.694 1950,-147.705"/>
<polygon fill="midnightblue" stroke="midnightblue" points="1953.5,-147.643 1950,-137.643 1946.5,-147.643 1953.5,-147.643"/>
</g>
<!-- Node44&#45;&gt;Node45 -->
<g id="edge70" class="edge"><title>Node44&#45;&gt;Node45</title>
<path fill="none" stroke="midnightblue" d="M1439,-290.246C1439,-282.938 1439,-272.694 1439,-263.705"/>
<polygon fill="midnightblue" stroke="midnightblue" points="1442.5,-263.643 1439,-253.643 1435.5,-263.643 1442.5,-263.643"/>
</g>
<!-- Node45&#45;&gt;Node2 -->
<g id="edge71" class="edge"><title>Node45&#45;&gt;Node2</title>
<path fill="none" stroke="midnightblue" d="M1432.52,-232.28C1419.79,-213.182 1391.33,-170.5 1375.05,-146.075"/>
<polygon fill="midnightblue" stroke="midnightblue" points="1377.92,-144.074 1369.46,-137.695 1372.1,-147.957 1377.92,-144.074"/>
</g>
<!-- Node45&#45;&gt;Node19 -->
<g id="edge72" class="edge"><title>Node45&#45;&gt;Node19</title>
<path fill="none" stroke="midnightblue" d="M1390.9,-239.487C1294.36,-234.145 1069.91,-220.226 871.068,-196.038"/>
<polygon fill="midnightblue" stroke="midnightblue" points="871.372,-192.55 861.02,-194.805 870.519,-199.497 871.372,-192.55"/>
</g>
<!-- Node45&#45;&gt;Node42 -->
<g id="edge73" class="edge"><title>Node45&#45;&gt;Node42</title>
<path fill="none" stroke="midnightblue" d="M1487.28,-237.976C1569.65,-230.905 1742.53,-215.167 1888,-196 1888.1,-195.987 1888.2,-195.973 1888.3,-195.96"/>
<polygon fill="midnightblue" stroke="midnightblue" points="1888.51,-199.464 1897.94,-194.621 1887.55,-192.531 1888.51,-199.464"/>
</g>
<!-- Node46&#45;&gt;Node2 -->
<g id="edge79" class="edge"><title>Node46&#45;&gt;Node2</title>
<path fill="none" stroke="midnightblue" d="M1778.29,-175.357C1775.15,-174.881 1772.03,-174.424 1769,-174 1634.08,-155.126 1473.09,-138.681 1401.08,-131.644"/>
<polygon fill="midnightblue" stroke="midnightblue" points="1401.41,-128.159 1391.12,-130.674 1400.73,-135.126 1401.41,-128.159"/>
</g>
<!-- Node47 -->
<g id="node47" class="node"><title>Node47</title>
<polygon fill="white" stroke="#bfbfbf" points="1804.5,-116.5 1804.5,-137.5 1857.5,-137.5 1857.5,-116.5 1804.5,-116.5"/>
<text text-anchor="middle" x="1831" y="-123.9" font-family="Helvetica,sans-Serif" font-size="12.00">afxstr.h</text>
</g>
<!-- Node46&#45;&gt;Node47 -->
<g id="edge80" class="edge"><title>Node46&#45;&gt;Node47</title>
<path fill="none" stroke="midnightblue" d="M1829.35,-174.246C1829.61,-166.938 1829.98,-156.694 1830.3,-147.705"/>
<polygon fill="midnightblue" stroke="midnightblue" points="1833.8,-147.761 1830.66,-137.643 1826.8,-147.511 1833.8,-147.761"/>
</g>
<!-- Node48 -->
<g id="node48" class="node"><title>Node48</title>
<polygon fill="white" stroke="#bfbfbf" points="1738,-116.5 1738,-137.5 1786,-137.5 1786,-116.5 1738,-116.5"/>
<text text-anchor="middle" x="1762" y="-123.9" font-family="Helvetica,sans-Serif" font-size="12.00">vector</text>
</g>
<!-- Node46&#45;&gt;Node48 -->
<g id="edge81" class="edge"><title>Node46&#45;&gt;Node48</title>
<path fill="none" stroke="midnightblue" d="M1817.33,-174.246C1807.43,-165.975 1793.04,-153.942 1781.41,-144.223"/>
<polygon fill="midnightblue" stroke="midnightblue" points="1783.45,-141.37 1773.54,-137.643 1778.97,-146.741 1783.45,-141.37"/>
</g>
<!-- Node49&#45;&gt;Node2 -->
<g id="edge83" class="edge"><title>Node49&#45;&gt;Node2</title>
<path fill="none" stroke="midnightblue" d="M1645.32,-174.5C1575.8,-163.049 1460.9,-144.125 1401.39,-134.323"/>
<polygon fill="midnightblue" stroke="midnightblue" points="1401.73,-130.832 1391.29,-132.66 1400.59,-137.739 1401.73,-130.832"/>
</g>
<!-- Node49&#45;&gt;Node12 -->
<g id="edge86" class="edge"><title>Node49&#45;&gt;Node12</title>
<path fill="none" stroke="midnightblue" d="M1645.27,-178.086C1629.62,-176.61 1612.67,-175.129 1597,-174 1248.63,-148.908 825.372,-133.253 705.831,-129.108"/>
<polygon fill="midnightblue" stroke="midnightblue" points="705.65,-125.599 695.535,-128.753 705.409,-132.595 705.65,-125.599"/>
</g>
<!-- Node49&#45;&gt;Node48 -->
<g id="edge85" class="edge"><title>Node49&#45;&gt;Node48</title>
<path fill="none" stroke="midnightblue" d="M1713.28,-174.246C1721.82,-166.135 1734.18,-154.408 1744.31,-144.792"/>
<polygon fill="midnightblue" stroke="midnightblue" points="1747,-147.066 1751.84,-137.643 1742.18,-141.988 1747,-147.066"/>
</g>
<!-- Node50 -->
<g id="node50" class="node"><title>Node50</title>
<polygon fill="white" stroke="#bfbfbf" points="1680,-116.5 1680,-137.5 1720,-137.5 1720,-116.5 1680,-116.5"/>
<text text-anchor="middle" x="1700" y="-123.9" font-family="Helvetica,sans-Serif" font-size="12.00">map</text>
</g>
<!-- Node49&#45;&gt;Node50 -->
<g id="edge84" class="edge"><title>Node49&#45;&gt;Node50</title>
<path fill="none" stroke="midnightblue" d="M1702.48,-174.246C1702.09,-166.938 1701.54,-156.694 1701.06,-147.705"/>
<polygon fill="midnightblue" stroke="midnightblue" points="1704.55,-147.441 1700.52,-137.643 1697.56,-147.816 1704.55,-147.441"/>
</g>
</g>
</svg>
