<?xml version="1.0" encoding="UTF-8" standalone="no"?>
<!DOCTYPE svg PUBLIC "-//W3C//DTD SVG 1.1//EN"
 "http://www.w3.org/Graphics/SVG/1.1/DTD/svg11.dtd">
<!-- Generated by graphviz version 2.34.0 (20130907.0111)
 -->
<!-- Title: entry&lt; T &gt; Pages: 1 -->
<svg width="324pt" height="102pt"
 viewBox="0.00 0.00 324.00 102.00" xmlns="http://www.w3.org/2000/svg" xmlns:xlink="http://www.w3.org/1999/xlink">
<g id="graph0" class="graph" transform="scale(1 1) rotate(0) translate(4 98)">
<title>entry&lt; T &gt;</title>
<polygon fill="white" stroke="white" points="-4,4 -4,-98 320,-98 320,4 -4,4"/>
<!-- Node1 -->
<g id="node1" class="node"><title>Node1</title>
<polygon fill="#bfbfbf" stroke="black" points="115,-72.5 115,-93.5 183,-93.5 183,-72.5 115,-72.5"/>
<text text-anchor="middle" x="149" y="-79.9" font-family="Helvetica,sans-Serif" font-size="12.00">entry&lt; T &gt;</text>
</g>
<!-- Node2 -->
<g id="node2" class="node"><title>Node2</title>
<g id="a_node2"><a xlink:href="../../d3/d96/structentry.html" target="_top" xlink:title="entry\&lt; long \&gt;">
<polygon fill="white" stroke="black" points="-0.5,-0.5 -0.5,-21.5 82.5,-21.5 82.5,-0.5 -0.5,-0.5"/>
<text text-anchor="middle" x="41" y="-7.9" font-family="Helvetica,sans-Serif" font-size="12.00">entry&lt; long &gt;</text>
</a>
</g>
</g>
<!-- Node1&#45;&gt;Node2 -->
<g id="edge1" class="edge"><title>Node1&#45;&gt;Node2</title>
<path fill="none" stroke="orange" stroke-dasharray="5,2" d="M122.21,-67.3299C114.918,-63.1649 107.081,-58.5277 100,-54 83.6868,-43.5692 65.6496,-30.4891 53.8661,-21.7218"/>
<polygon fill="orange" stroke="orange" points="120.625,-70.4542 131.056,-72.3092 124.059,-64.3541 120.625,-70.4542"/>
<text text-anchor="middle" x="122.5" y="-43.9" font-family="Helvetica,sans-Serif" font-size="12.00"> &lt; long &gt;</text>
</g>
<!-- Node3 -->
<g id="node3" class="node"><title>Node3</title>
<g id="a_node3"><a xlink:href="../../d3/d96/structentry.html" target="_top" xlink:title="entry\&lt; double \&gt;">
<polygon fill="white" stroke="black" points="101,-0.5 101,-21.5 197,-21.5 197,-0.5 101,-0.5"/>
<text text-anchor="middle" x="149" y="-7.9" font-family="Helvetica,sans-Serif" font-size="12.00">entry&lt; double &gt;</text>
</a>
</g>
</g>
<!-- Node1&#45;&gt;Node3 -->
<g id="edge2" class="edge"><title>Node1&#45;&gt;Node3</title>
<path fill="none" stroke="orange" stroke-dasharray="5,2" d="M149,-62.1985C149,-48.9378 149,-32.0647 149,-21.6505"/>
<polygon fill="orange" stroke="orange" points="145.5,-62.2668 149,-72.2668 152.5,-62.2668 145.5,-62.2668"/>
<text text-anchor="middle" x="178" y="-43.9" font-family="Helvetica,sans-Serif" font-size="12.00"> &lt; double &gt;</text>
</g>
<!-- Node4 -->
<g id="node4" class="node"><title>Node4</title>
<g id="a_node4"><a xlink:href="../../d3/d96/structentry.html" target="_top" xlink:title="entry\&lt; CString \&gt;">
<polygon fill="white" stroke="black" points="215.5,-0.5 215.5,-21.5 316.5,-21.5 316.5,-0.5 215.5,-0.5"/>
<text text-anchor="middle" x="266" y="-7.9" font-family="Helvetica,sans-Serif" font-size="12.00">entry&lt; CString &gt;</text>
</a>
</g>
</g>
<!-- Node1&#45;&gt;Node4 -->
<g id="edge3" class="edge"><title>Node1&#45;&gt;Node4</title>
<path fill="none" stroke="orange" stroke-dasharray="5,2" d="M182.903,-68.3657C192.228,-64.1692 202.194,-59.2569 211,-54 227.093,-44.3931 243.996,-30.8984 254.746,-21.8216"/>
<polygon fill="orange" stroke="orange" points="181.263,-65.2624 173.492,-72.4643 184.058,-71.6801 181.263,-65.2624"/>
<text text-anchor="middle" x="263.5" y="-43.9" font-family="Helvetica,sans-Serif" font-size="12.00"> &lt; CString &gt;</text>
</g>
</g>
</svg>
