<?xml version="1.0" encoding="UTF-8" standalone="no"?>
<!DOCTYPE svg PUBLIC "-//W3C//DTD SVG 1.1//EN"
 "http://www.w3.org/Graphics/SVG/1.1/DTD/svg11.dtd">
<!-- Generated by graphviz version 2.34.0 (20130907.0111)
 -->
<!-- Title: StdoutThread Pages: 1 -->
<svg width="218pt" height="162pt"
 viewBox="0.00 0.00 218.00 162.00" xmlns="http://www.w3.org/2000/svg" xmlns:xlink="http://www.w3.org/1999/xlink">
<g id="graph0" class="graph" transform="scale(1 1) rotate(0) translate(4 158)">
<title>StdoutThread</title>
<polygon fill="white" stroke="white" points="-4,4 -4,-158 214,-158 214,4 -4,4"/>
<!-- Node1 -->
<g id="node1" class="node"><title>Node1</title>
<polygon fill="#bfbfbf" stroke="black" points="3.5,-0.5 3.5,-21.5 90.5,-21.5 90.5,-0.5 3.5,-0.5"/>
<text text-anchor="middle" x="47" y="-7.9" font-family="Helvetica,sans-Serif" font-size="12.00">StdoutThread</text>
</g>
<!-- Node2 -->
<g id="node2" class="node"><title>Node2</title>
<g id="a_node2"><a xlink:href="../../d5/d52/class_stdout_redirect.html" target="_top" xlink:title="Defines functions for redirecting stdout through a buffered pipe. ">
<polygon fill="white" stroke="black" points="-0.5,-72.5 -0.5,-93.5 94.5,-93.5 94.5,-72.5 -0.5,-72.5"/>
<text text-anchor="middle" x="47" y="-79.9" font-family="Helvetica,sans-Serif" font-size="12.00">StdoutRedirect</text>
</a>
</g>
</g>
<!-- Node2&#45;&gt;Node1 -->
<g id="edge1" class="edge"><title>Node2&#45;&gt;Node1</title>
<path fill="none" stroke="midnightblue" d="M40.8508,-62.1985C39.7341,-48.9378 40.1741,-32.0647 42.1708,-21.6505"/>
<polygon fill="midnightblue" stroke="midnightblue" points="37.3993,-62.7993 42.155,-72.2668 44.3413,-61.9 37.3993,-62.7993"/>
</g>
<!-- Node2&#45;&gt;Node1 -->
<g id="edge2" class="edge"><title>Node2&#45;&gt;Node1</title>
<path fill="none" stroke="midnightblue" d="M53.1492,-62.1985C54.2659,-48.9378 53.8259,-32.0647 51.8292,-21.6505"/>
<polygon fill="midnightblue" stroke="midnightblue" points="49.6587,-61.9 51.845,-72.2668 56.6007,-62.7993 49.6587,-61.9"/>
</g>
<!-- Node3 -->
<g id="node3" class="node"><title>Node3</title>
<g id="a_node3"><a xlink:href="../../d6/d56/class_critical_c_string.html" target="_top" xlink:title="A null&#45;terminated string class for which all access is controlled by critical sections. ">
<polygon fill="white" stroke="black" points="112.5,-72.5 112.5,-93.5 205.5,-93.5 205.5,-72.5 112.5,-72.5"/>
<text text-anchor="middle" x="159" y="-79.9" font-family="Helvetica,sans-Serif" font-size="12.00">CriticalCString</text>
</a>
</g>
</g>
<!-- Node3&#45;&gt;Node1 -->
<g id="edge3" class="edge"><title>Node3&#45;&gt;Node1</title>
<path fill="none" stroke="#9a32cd" stroke-dasharray="5,2" d="M134.678,-66.7989C112.729,-53.0803 81.103,-33.3144 62.4409,-21.6505"/>
<polygon fill="#9a32cd" stroke="#9a32cd" points="133.092,-69.9348 143.427,-72.2668 136.802,-63.9988 133.092,-69.9348"/>
<text text-anchor="middle" x="129.5" y="-43.9" font-family="Helvetica,sans-Serif" font-size="12.00"> m_str</text>
</g>
<!-- Node4 -->
<g id="node4" class="node"><title>Node4</title>
<polygon fill="white" stroke="#bfbfbf" points="108,-132.5 108,-153.5 210,-153.5 210,-132.5 108,-132.5"/>
<text text-anchor="middle" x="159" y="-139.9" font-family="Helvetica,sans-Serif" font-size="12.00">CCriticalSection</text>
</g>
<!-- Node4&#45;&gt;Node3 -->
<g id="edge4" class="edge"><title>Node4&#45;&gt;Node3</title>
<path fill="none" stroke="midnightblue" d="M152.58,-122.465C151.884,-112.82 152.288,-101.608 153.793,-93.7856"/>
<polygon fill="midnightblue" stroke="midnightblue" points="149.112,-122.938 153.834,-132.422 156.057,-122.064 149.112,-122.938"/>
</g>
<!-- Node4&#45;&gt;Node3 -->
<g id="edge5" class="edge"><title>Node4&#45;&gt;Node3</title>
<path fill="none" stroke="midnightblue" d="M165.42,-122.465C166.116,-112.82 165.712,-101.608 164.207,-93.7856"/>
<polygon fill="midnightblue" stroke="midnightblue" points="161.943,-122.064 164.166,-132.422 168.888,-122.938 161.943,-122.064"/>
</g>
</g>
</svg>
