<?xml version="1.0" encoding="UTF-8" standalone="no"?>
<!DOCTYPE svg PUBLIC "-//W3C//DTD SVG 1.1//EN"
 "http://www.w3.org/Graphics/SVG/1.1/DTD/svg11.dtd">
<!-- Generated by graphviz version 2.34.0 (20130907.0111)
 -->
<!-- Title: Documentation/Operator&#45;Console/JSON/JSONDefs/Strings_Defs.h Pages: 1 -->
<svg width="196pt" height="114pt"
 viewBox="0.00 0.00 196.00 114.00" xmlns="http://www.w3.org/2000/svg" xmlns:xlink="http://www.w3.org/1999/xlink">
<g id="graph0" class="graph" transform="scale(1 1) rotate(0) translate(4 110)">
<title>Documentation/Operator&#45;Console/JSON/JSONDefs/Strings_Defs.h</title>
<polygon fill="white" stroke="white" points="-4,4 -4,-110 192,-110 192,4 -4,4"/>
<!-- Node1 -->
<g id="node1" class="node"><title>Node1</title>
<polygon fill="#bfbfbf" stroke="black" points="30,-58.5 30,-105.5 188,-105.5 188,-58.5 30,-58.5"/>
<text text-anchor="start" x="38" y="-91.9" font-family="Helvetica,sans-Serif" font-size="12.00">Documentation/Operator</text>
<text text-anchor="start" x="38" y="-78.9" font-family="Helvetica,sans-Serif" font-size="12.00">&#45;Console/JSON/JSONDefs</text>
<text text-anchor="middle" x="109" y="-65.9" font-family="Helvetica,sans-Serif" font-size="12.00">/Strings_Defs.h</text>
</g>
<!-- Node2 -->
<g id="node2" class="node"><title>Node2</title>
<g id="a_node2"><a xlink:href="../../de/d2a/_documentation_2_operator-_console_2_j_s_o_n_options_8h.html" target="_top" xlink:title="../../JSONOptions.h">
<polygon fill="white" stroke="black" points="0,-0.5 0,-21.5 116,-21.5 116,-0.5 0,-0.5"/>
<text text-anchor="middle" x="58" y="-7.9" font-family="Helvetica,sans-Serif" font-size="12.00">../../JSONOptions.h</text>
</a>
</g>
</g>
<!-- Node1&#45;&gt;Node2 -->
<g id="edge1" class="edge"><title>Node1&#45;&gt;Node2</title>
<path fill="none" stroke="midnightblue" d="M92.3007,-58.4068C85.4875,-49.189 77.7189,-38.6785 71.2998,-29.9938"/>
<polygon fill="midnightblue" stroke="midnightblue" points="73.9541,-27.6965 65.1955,-21.7351 68.3248,-31.8573 73.9541,-27.6965"/>
</g>
<!-- Node3 -->
<g id="node3" class="node"><title>Node3</title>
<polygon fill="white" stroke="#bfbfbf" points="134,-0.5 134,-21.5 188,-21.5 188,-0.5 134,-0.5"/>
<text text-anchor="middle" x="161" y="-7.9" font-family="Helvetica,sans-Serif" font-size="12.00">string.h</text>
</g>
<!-- Node1&#45;&gt;Node3 -->
<g id="edge2" class="edge"><title>Node1&#45;&gt;Node3</title>
<path fill="none" stroke="midnightblue" d="M126.027,-58.4068C132.974,-49.189 140.894,-38.6785 147.439,-29.9938"/>
<polygon fill="midnightblue" stroke="midnightblue" points="150.44,-31.8277 153.663,-21.7351 144.85,-27.6147 150.44,-31.8277"/>
</g>
</g>
</svg>
