<?xml version="1.0" encoding="UTF-8" standalone="no"?>
<!DOCTYPE svg PUBLIC "-//W3C//DTD SVG 1.1//EN"
 "http://www.w3.org/Graphics/SVG/1.1/DTD/svg11.dtd">
<!-- Generated by graphviz version 2.34.0 (20130907.0111)
 -->
<!-- Title: JSON/NumberToString.h Pages: 1 -->
<svg width="641pt" height="320pt"
 viewBox="0.00 0.00 640.65 320.00" xmlns="http://www.w3.org/2000/svg" xmlns:xlink="http://www.w3.org/1999/xlink">
<g id="graph0" class="graph" transform="scale(1 1) rotate(0) translate(4 316)">
<title>JSON/NumberToString.h</title>
<polygon fill="white" stroke="white" points="-4,4 -4,-316 636.654,-316 636.654,4 -4,4"/>
<!-- Node1 -->
<g id="node1" class="node"><title>Node1</title>
<polygon fill="#bfbfbf" stroke="black" points="203.654,-290.5 203.654,-311.5 349.654,-311.5 349.654,-290.5 203.654,-290.5"/>
<text text-anchor="middle" x="276.654" y="-297.9" font-family="Helvetica,sans-Serif" font-size="12.00">JSON/NumberToString.h</text>
</g>
<!-- Node2 -->
<g id="node2" class="node"><title>Node2</title>
<polygon fill="white" stroke="#bfbfbf" points="159.654,-232.5 159.654,-253.5 203.654,-253.5 203.654,-232.5 159.654,-232.5"/>
<text text-anchor="middle" x="181.654" y="-239.9" font-family="Helvetica,sans-Serif" font-size="12.00">limits</text>
</g>
<!-- Node1&#45;&gt;Node2 -->
<g id="edge1" class="edge"><title>Node1&#45;&gt;Node2</title>
<path fill="none" stroke="midnightblue" d="M260.107,-290.246C245.394,-281.573 223.666,-268.765 206.804,-258.825"/>
<polygon fill="midnightblue" stroke="midnightblue" points="208.405,-255.706 198.012,-253.643 204.85,-261.736 208.405,-255.706"/>
</g>
<!-- Node3 -->
<g id="node3" class="node"><title>Node3</title>
<g id="a_node3"><a xlink:href="../../d6/dbe/_j_s_o_n_2_j_s_o_n_debug_8h.html" target="_top" xlink:title="JSONDebug.h">
<polygon fill="white" stroke="black" points="185.654,-174.5 185.654,-195.5 277.654,-195.5 277.654,-174.5 185.654,-174.5"/>
<text text-anchor="middle" x="231.654" y="-181.9" font-family="Helvetica,sans-Serif" font-size="12.00">JSONDebug.h</text>
</a>
</g>
</g>
<!-- Node1&#45;&gt;Node3 -->
<g id="edge2" class="edge"><title>Node1&#45;&gt;Node3</title>
<path fill="none" stroke="midnightblue" d="M270.363,-290.477C264.595,-281.407 256.141,-267.217 250.654,-254 244.128,-238.278 239.091,-219.602 235.848,-205.804"/>
<polygon fill="midnightblue" stroke="midnightblue" points="239.239,-204.928 233.638,-195.934 232.408,-206.457 239.239,-204.928"/>
</g>
<!-- Node11 -->
<g id="node11" class="node"><title>Node11</title>
<g id="a_node11"><a xlink:href="../../d7/d81/_j_s_o_n_2_j_s_o_n_shared_string_8h.html" target="_top" xlink:title="JSONSharedString.h">
<polygon fill="white" stroke="black" points="259.654,-232.5 259.654,-253.5 385.654,-253.5 385.654,-232.5 259.654,-232.5"/>
<text text-anchor="middle" x="322.654" y="-239.9" font-family="Helvetica,sans-Serif" font-size="12.00">JSONSharedString.h</text>
</a>
</g>
</g>
<!-- Node1&#45;&gt;Node11 -->
<g id="edge11" class="edge"><title>Node1&#45;&gt;Node11</title>
<path fill="none" stroke="midnightblue" d="M284.667,-290.246C291.131,-282.376 300.393,-271.101 308.153,-261.654"/>
<polygon fill="midnightblue" stroke="midnightblue" points="311.091,-263.592 314.734,-253.643 305.682,-259.148 311.091,-263.592"/>
</g>
<!-- Node14 -->
<g id="node14" class="node"><title>Node14</title>
<polygon fill="white" stroke="#bfbfbf" points="403.654,-232.5 403.654,-253.5 451.654,-253.5 451.654,-232.5 403.654,-232.5"/>
<text text-anchor="middle" x="427.654" y="-239.9" font-family="Helvetica,sans-Serif" font-size="12.00">cstdio</text>
</g>
<!-- Node1&#45;&gt;Node14 -->
<g id="edge16" class="edge"><title>Node1&#45;&gt;Node14</title>
<path fill="none" stroke="midnightblue" d="M302.612,-290.373C327.846,-281.015 366.298,-266.755 393.897,-256.519"/>
<polygon fill="midnightblue" stroke="midnightblue" points="395.371,-259.706 403.53,-252.947 392.937,-253.143 395.371,-259.706"/>
</g>
<!-- Node4 -->
<g id="node4" class="node"><title>Node4</title>
<g id="a_node4"><a xlink:href="../../db/d7e/_j_s_o_n_2_j_s_o_n_defs_8h.html" target="_top" xlink:title="JSONDefs.h">
<polygon fill="white" stroke="black" points="206.654,-116.5 206.654,-137.5 288.654,-137.5 288.654,-116.5 206.654,-116.5"/>
<text text-anchor="middle" x="247.654" y="-123.9" font-family="Helvetica,sans-Serif" font-size="12.00">JSONDefs.h</text>
</a>
</g>
</g>
<!-- Node3&#45;&gt;Node4 -->
<g id="edge3" class="edge"><title>Node3&#45;&gt;Node4</title>
<path fill="none" stroke="midnightblue" d="M234.441,-174.246C236.552,-166.858 239.52,-156.469 242.109,-147.409"/>
<polygon fill="midnightblue" stroke="midnightblue" points="245.517,-148.219 244.899,-137.643 238.787,-146.296 245.517,-148.219"/>
</g>
<!-- Node5 -->
<g id="node5" class="node"><title>Node5</title>
<g id="a_node5"><a xlink:href="../../dc/d13/_j_s_o_n_options_8h.html" target="_top" xlink:title="..\\JSONOptions.h">
<polygon fill="white" stroke="black" points="171.154,-0.5 171.154,-21.5 278.154,-21.5 278.154,-0.5 171.154,-0.5"/>
<text text-anchor="middle" x="224.654" y="-7.9" font-family="Helvetica,sans-Serif" font-size="12.00">..\JSONOptions.h</text>
</a>
</g>
</g>
<!-- Node4&#45;&gt;Node5 -->
<g id="edge4" class="edge"><title>Node4&#45;&gt;Node5</title>
<path fill="none" stroke="midnightblue" d="M206.612,-124.157C145.251,-120.444 34.1636,-109.7 9.65436,-80 -33.9858,-27.1175 82.7116,-14.7657 160.789,-12.2389"/>
<polygon fill="midnightblue" stroke="midnightblue" points="161.154,-15.7302 171.054,-11.9552 160.961,-8.73287 161.154,-15.7302"/>
</g>
<!-- Node6 -->
<g id="node6" class="node"><title>Node6</title>
<g id="a_node6"><a xlink:href="../../d9/d62/_j_s_o_n_2_j_s_o_n_defs_2_unknown___c_8h.html" target="_top" xlink:title="JSONDefs\\Unknown_C.h">
<polygon fill="white" stroke="black" points="18.6544,-58.5 18.6544,-79.5 166.654,-79.5 166.654,-58.5 18.6544,-58.5"/>
<text text-anchor="middle" x="92.6544" y="-65.9" font-family="Helvetica,sans-Serif" font-size="12.00">JSONDefs\Unknown_C.h</text>
</a>
</g>
</g>
<!-- Node4&#45;&gt;Node6 -->
<g id="edge5" class="edge"><title>Node4&#45;&gt;Node6</title>
<path fill="none" stroke="midnightblue" d="M221.009,-116.373C195.458,-107.142 156.703,-93.1402 128.463,-82.9375"/>
<polygon fill="midnightblue" stroke="midnightblue" points="129.546,-79.6074 118.952,-79.5011 127.168,-86.1909 129.546,-79.6074"/>
</g>
<!-- Node7 -->
<g id="node7" class="node"><title>Node7</title>
<g id="a_node7"><a xlink:href="../../de/dbe/_j_s_o_n_2_j_s_o_n_defs_2_g_n_u___c_8h.html" target="_top" xlink:title="JSONDefs\\GNU_C.h">
<polygon fill="white" stroke="black" points="184.654,-58.5 184.654,-79.5 310.654,-79.5 310.654,-58.5 184.654,-58.5"/>
<text text-anchor="middle" x="247.654" y="-65.9" font-family="Helvetica,sans-Serif" font-size="12.00">JSONDefs\GNU_C.h</text>
</a>
</g>
</g>
<!-- Node4&#45;&gt;Node7 -->
<g id="edge6" class="edge"><title>Node4&#45;&gt;Node7</title>
<path fill="none" stroke="midnightblue" d="M247.654,-116.246C247.654,-108.938 247.654,-98.6944 247.654,-89.7046"/>
<polygon fill="midnightblue" stroke="midnightblue" points="251.154,-89.6426 247.654,-79.6427 244.154,-89.6427 251.154,-89.6426"/>
</g>
<!-- Node8 -->
<g id="node8" class="node"><title>Node8</title>
<g id="a_node8"><a xlink:href="../../d6/d90/_j_s_o_n_2_j_s_o_n_defs_2_visual___c_8h.html" target="_top" xlink:title="JSONDefs\\Visual_C.h">
<polygon fill="white" stroke="black" points="329.154,-58.5 329.154,-79.5 462.154,-79.5 462.154,-58.5 329.154,-58.5"/>
<text text-anchor="middle" x="395.654" y="-65.9" font-family="Helvetica,sans-Serif" font-size="12.00">JSONDefs\Visual_C.h</text>
</a>
</g>
</g>
<!-- Node4&#45;&gt;Node8 -->
<g id="edge7" class="edge"><title>Node4&#45;&gt;Node8</title>
<path fill="none" stroke="midnightblue" d="M273.096,-116.373C297.387,-107.182 334.175,-93.2624 361.109,-83.0713"/>
<polygon fill="midnightblue" stroke="midnightblue" points="362.43,-86.3136 370.544,-79.5011 359.953,-79.7666 362.43,-86.3136"/>
</g>
<!-- Node9 -->
<g id="node9" class="node"><title>Node9</title>
<g id="a_node9"><a xlink:href="../../d7/d67/_j_s_o_n_2_j_s_o_n_defs_2_strings___defs_8h.html" target="_top" xlink:title="JSONDefs\\Strings_Defs.h">
<polygon fill="white" stroke="black" points="480.154,-58.5 480.154,-79.5 633.154,-79.5 633.154,-58.5 480.154,-58.5"/>
<text text-anchor="middle" x="556.654" y="-65.9" font-family="Helvetica,sans-Serif" font-size="12.00">JSONDefs\Strings_Defs.h</text>
</a>
</g>
</g>
<!-- Node4&#45;&gt;Node9 -->
<g id="edge8" class="edge"><title>Node4&#45;&gt;Node9</title>
<path fill="none" stroke="midnightblue" d="M288.687,-118.564C341.25,-109.038 432.863,-92.4347 494.131,-81.331"/>
<polygon fill="midnightblue" stroke="midnightblue" points="494.854,-84.7571 504.07,-79.5299 493.606,-77.8693 494.854,-84.7571"/>
</g>
<!-- Node9&#45;&gt;Node5 -->
<g id="edge9" class="edge"><title>Node9&#45;&gt;Node5</title>
<path fill="none" stroke="midnightblue" d="M499.959,-58.4369C441.188,-48.5238 349.512,-33.0604 288.297,-22.7348"/>
<polygon fill="midnightblue" stroke="midnightblue" points="288.81,-19.2721 278.367,-21.06 287.646,-26.1746 288.81,-19.2721"/>
</g>
<!-- Node10 -->
<g id="node10" class="node"><title>Node10</title>
<polygon fill="white" stroke="#bfbfbf" points="529.654,-0.5 529.654,-21.5 583.654,-21.5 583.654,-0.5 529.654,-0.5"/>
<text text-anchor="middle" x="556.654" y="-7.9" font-family="Helvetica,sans-Serif" font-size="12.00">string.h</text>
</g>
<!-- Node9&#45;&gt;Node10 -->
<g id="edge10" class="edge"><title>Node9&#45;&gt;Node10</title>
<path fill="none" stroke="midnightblue" d="M556.654,-58.2455C556.654,-50.9382 556.654,-40.6944 556.654,-31.7046"/>
<polygon fill="midnightblue" stroke="midnightblue" points="560.154,-31.6426 556.654,-21.6427 553.154,-31.6427 560.154,-31.6426"/>
</g>
<!-- Node11&#45;&gt;Node3 -->
<g id="edge12" class="edge"><title>Node11&#45;&gt;Node3</title>
<path fill="none" stroke="midnightblue" d="M306.803,-232.246C292.841,-223.653 272.282,-211.001 256.195,-201.102"/>
<polygon fill="midnightblue" stroke="midnightblue" points="257.675,-197.903 247.324,-195.643 254.006,-203.865 257.675,-197.903"/>
</g>
<!-- Node12 -->
<g id="node12" class="node"><title>Node12</title>
<g id="a_node12"><a xlink:href="../../de/d55/_j_s_o_n_2_j_s_o_n_globals_8h.html" target="_top" xlink:title="JSONGlobals.h">
<polygon fill="white" stroke="black" points="296.154,-174.5 296.154,-195.5 393.154,-195.5 393.154,-174.5 296.154,-174.5"/>
<text text-anchor="middle" x="344.654" y="-181.9" font-family="Helvetica,sans-Serif" font-size="12.00">JSONGlobals.h</text>
</a>
</g>
</g>
<!-- Node11&#45;&gt;Node12 -->
<g id="edge13" class="edge"><title>Node11&#45;&gt;Node12</title>
<path fill="none" stroke="midnightblue" d="M326.486,-232.246C329.42,-224.778 333.559,-214.243 337.145,-205.114"/>
<polygon fill="midnightblue" stroke="midnightblue" points="340.467,-206.23 340.866,-195.643 333.952,-203.67 340.467,-206.23"/>
</g>
<!-- Node12&#45;&gt;Node4 -->
<g id="edge14" class="edge"><title>Node12&#45;&gt;Node4</title>
<path fill="none" stroke="midnightblue" d="M327.758,-174.246C312.736,-165.573 290.55,-152.765 273.333,-142.825"/>
<polygon fill="midnightblue" stroke="midnightblue" points="274.767,-139.611 264.357,-137.643 271.267,-145.674 274.767,-139.611"/>
</g>
<!-- Node13 -->
<g id="node13" class="node"><title>Node13</title>
<polygon fill="white" stroke="#bfbfbf" points="322.154,-116.5 322.154,-137.5 367.154,-137.5 367.154,-116.5 322.154,-116.5"/>
<text text-anchor="middle" x="344.654" y="-123.9" font-family="Helvetica,sans-Serif" font-size="12.00">string</text>
</g>
<!-- Node12&#45;&gt;Node13 -->
<g id="edge15" class="edge"><title>Node12&#45;&gt;Node13</title>
<path fill="none" stroke="midnightblue" d="M344.654,-174.246C344.654,-166.938 344.654,-156.694 344.654,-147.705"/>
<polygon fill="midnightblue" stroke="midnightblue" points="348.154,-147.643 344.654,-137.643 341.154,-147.643 348.154,-147.643"/>
</g>
</g>
</svg>
