<?xml version="1.0" encoding="UTF-8" standalone="no"?>
<!DOCTYPE svg PUBLIC "-//W3C//DTD SVG 1.1//EN"
 "http://www.w3.org/Graphics/SVG/1.1/DTD/svg11.dtd">
<!-- Generated by graphviz version 2.34.0 (20130907.0111)
 -->
<!-- Title: json_shared_string Pages: 1 -->
<svg width="130pt" height="128pt"
 viewBox="0.00 0.00 130.00 128.00" xmlns="http://www.w3.org/2000/svg" xmlns:xlink="http://www.w3.org/1999/xlink">
<g id="graph0" class="graph" transform="scale(1 1) rotate(0) translate(4 124)">
<title>json_shared_string</title>
<polygon fill="white" stroke="white" points="-4,4 -4,-124 126,-124 126,4 -4,4"/>
<!-- Node1 -->
<g id="node1" class="node"><title>Node1</title>
<polygon fill="#bfbfbf" stroke="black" points="3,-0.5 3,-21.5 119,-21.5 119,-0.5 3,-0.5"/>
<text text-anchor="middle" x="61" y="-7.9" font-family="Helvetica,sans-Serif" font-size="12.00">json_shared_string</text>
</g>
<!-- Node2 -->
<g id="node2" class="node"><title>Node2</title>
<g id="a_node2"><a xlink:href="../../d4/dc8/structjson__shared__string_1_1json__shared__string__internal.html" target="_top" xlink:title="json_shared_string\l::json_shared_string\l_internal">
<polygon fill="white" stroke="black" points="0,-72.5 0,-119.5 122,-119.5 122,-72.5 0,-72.5"/>
<text text-anchor="start" x="8" y="-105.9" font-family="Helvetica,sans-Serif" font-size="12.00">json_shared_string</text>
<text text-anchor="start" x="8" y="-92.9" font-family="Helvetica,sans-Serif" font-size="12.00">::json_shared_string</text>
<text text-anchor="middle" x="61" y="-79.9" font-family="Helvetica,sans-Serif" font-size="12.00">_internal</text>
</a>
</g>
</g>
<!-- Node2&#45;&gt;Node1 -->
<g id="edge1" class="edge"><title>Node2&#45;&gt;Node1</title>
<path fill="none" stroke="#9a32cd" stroke-dasharray="5,2" d="M61,-62.1743C61,-47.7398 61,-31.8397 61,-21.8882"/>
<polygon fill="#9a32cd" stroke="#9a32cd" points="57.5001,-62.3199 61,-72.3199 64.5001,-62.3199 57.5001,-62.3199"/>
<text text-anchor="middle" x="72.5" y="-43.9" font-family="Helvetica,sans-Serif" font-size="12.00"> _str</text>
</g>
</g>
</svg>
