<?xml version="1.0" encoding="UTF-8" standalone="no"?>
<!DOCTYPE svg PUBLIC "-//W3C//DTD SVG 1.1//EN"
 "http://www.w3.org/Graphics/SVG/1.1/DTD/svg11.dtd">
<!-- Generated by graphviz version 2.34.0 (20130907.0111)
 -->
<!-- Title: Documentation/Operator&#45;Console/Config.h Pages: 1 -->
<svg width="1580pt" height="332pt"
 viewBox="0.00 0.00 1580.00 332.00" xmlns="http://www.w3.org/2000/svg" xmlns:xlink="http://www.w3.org/1999/xlink">
<g id="graph0" class="graph" transform="scale(1 1) rotate(0) translate(4 328)">
<title>Documentation/Operator&#45;Console/Config.h</title>
<polygon fill="white" stroke="white" points="-4,4 -4,-328 1576,-328 1576,4 -4,4"/>
<!-- Node1 -->
<g id="node1" class="node"><title>Node1</title>
<polygon fill="#bfbfbf" stroke="black" points="866.5,-289 866.5,-323 1011.5,-323 1011.5,-289 866.5,-289"/>
<text text-anchor="start" x="874.5" y="-309.4" font-family="Helvetica,sans-Serif" font-size="12.00">Documentation/Operator</text>
<text text-anchor="middle" x="939" y="-296.4" font-family="Helvetica,sans-Serif" font-size="12.00">&#45;Console/Config.h</text>
</g>
<!-- Node2 -->
<g id="node2" class="node"><title>Node2</title>
<g id="a_node2"><a xlink:href="../../d5/dd6/_documentation_2_operator-_console_2_image_test_8h.html" target="_top" xlink:title="Documentation/Operator\l&#45;Console/ImageTest.h">
<polygon fill="white" stroke="black" points="626.5,-217 626.5,-251 771.5,-251 771.5,-217 626.5,-217"/>
<text text-anchor="start" x="634.5" y="-237.4" font-family="Helvetica,sans-Serif" font-size="12.00">Documentation/Operator</text>
<text text-anchor="middle" x="699" y="-224.4" font-family="Helvetica,sans-Serif" font-size="12.00">&#45;Console/ImageTest.h</text>
</a>
</g>
</g>
<!-- Node1&#45;&gt;Node2 -->
<g id="edge1" class="edge"><title>Node1&#45;&gt;Node2</title>
<path fill="none" stroke="midnightblue" d="M874.121,-286.077C836.622,-275.14 789.95,-261.527 754.22,-251.106"/>
<polygon fill="midnightblue" stroke="midnightblue" points="873.359,-289.501 883.939,-288.941 875.319,-282.781 873.359,-289.501"/>
</g>
<!-- Node4 -->
<g id="node4" class="node"><title>Node4</title>
<g id="a_node4"><a xlink:href="../../da/d65/_documentation_2_operator-_console_2_operator_console_8h.html" target="_top" xlink:title="Documentation/Operator\l&#45;Console/OperatorConsole.h">
<polygon fill="white" stroke="black" points="646,-73 646,-107 812,-107 812,-73 646,-73"/>
<text text-anchor="start" x="654" y="-93.4" font-family="Helvetica,sans-Serif" font-size="12.00">Documentation/Operator</text>
<text text-anchor="middle" x="729" y="-80.4" font-family="Helvetica,sans-Serif" font-size="12.00">&#45;Console/OperatorConsole.h</text>
</a>
</g>
</g>
<!-- Node1&#45;&gt;Node4 -->
<g id="edge19" class="edge"><title>Node1&#45;&gt;Node4</title>
<path fill="none" stroke="midnightblue" d="M930.998,-279.034C917.552,-236.046 890.924,-153.823 881,-144 862.329,-125.52 836.876,-113.465 812.139,-105.609"/>
<polygon fill="midnightblue" stroke="midnightblue" points="927.725,-280.297 934.038,-288.805 934.409,-278.217 927.725,-280.297"/>
</g>
<!-- Node9 -->
<g id="node9" class="node"><title>Node9</title>
<g id="a_node9"><a xlink:href="../../db/db5/_documentation_2_operator-_console_2_operator_console_8cpp.html" target="_top" xlink:title="Documentation/Operator\l&#45;Console/OperatorConsole.cpp">
<polygon fill="white" stroke="black" points="1393.5,-1 1393.5,-35 1572.5,-35 1572.5,-1 1393.5,-1"/>
<text text-anchor="start" x="1401.5" y="-21.4" font-family="Helvetica,sans-Serif" font-size="12.00">Documentation/Operator</text>
<text text-anchor="middle" x="1483" y="-8.4" font-family="Helvetica,sans-Serif" font-size="12.00">&#45;Console/OperatorConsole.cpp</text>
</a>
</g>
</g>
<!-- Node1&#45;&gt;Node9 -->
<g id="edge21" class="edge"><title>Node1&#45;&gt;Node9</title>
<path fill="none" stroke="midnightblue" d="M960.304,-281.254C978.66,-261.836 1006.61,-234.636 1035,-216 1168,-128.687 1346.12,-63.7059 1432.2,-35.1012"/>
<polygon fill="midnightblue" stroke="midnightblue" points="957.538,-279.09 953.288,-288.795 962.662,-283.858 957.538,-279.09"/>
</g>
<!-- Node16 -->
<g id="node16" class="node"><title>Node16</title>
<g id="a_node16"><a xlink:href="../../d6/d7f/_documentation_2_operator-_console_2_s_f_rplus_test_8cpp.html" target="_top" xlink:title="Documentation/Operator\l&#45;Console/SFRplusTest.cpp">
<polygon fill="white" stroke="black" points="830.5,-73 830.5,-107 987.5,-107 987.5,-73 830.5,-73"/>
<text text-anchor="start" x="838.5" y="-93.4" font-family="Helvetica,sans-Serif" font-size="12.00">Documentation/Operator</text>
<text text-anchor="middle" x="909" y="-80.4" font-family="Helvetica,sans-Serif" font-size="12.00">&#45;Console/SFRplusTest.cpp</text>
</a>
</g>
</g>
<!-- Node1&#45;&gt;Node16 -->
<g id="edge22" class="edge"><title>Node1&#45;&gt;Node16</title>
<path fill="none" stroke="midnightblue" d="M935.33,-278.82C929.055,-234.059 916.443,-144.09 911.281,-107.271"/>
<polygon fill="midnightblue" stroke="midnightblue" points="931.891,-279.498 936.745,-288.915 938.823,-278.526 931.891,-279.498"/>
</g>
<!-- Node17 -->
<g id="node17" class="node"><title>Node17</title>
<g id="a_node17"><a xlink:href="../../db/d60/_documentation_2_operator-_console_2_config_8cpp.html" target="_top" xlink:title="Documentation/Operator\l&#45;Console/Config.cpp">
<polygon fill="white" stroke="black" points="1044.5,-217 1044.5,-251 1189.5,-251 1189.5,-217 1044.5,-217"/>
<text text-anchor="start" x="1052.5" y="-237.4" font-family="Helvetica,sans-Serif" font-size="12.00">Documentation/Operator</text>
<text text-anchor="middle" x="1117" y="-224.4" font-family="Helvetica,sans-Serif" font-size="12.00">&#45;Console/Config.cpp</text>
</a>
</g>
</g>
<!-- Node1&#45;&gt;Node17 -->
<g id="edge20" class="edge"><title>Node1&#45;&gt;Node17</title>
<path fill="none" stroke="midnightblue" d="M989.262,-285.234C1016.69,-274.447 1050.22,-261.261 1076.05,-251.106"/>
<polygon fill="midnightblue" stroke="midnightblue" points="987.862,-282.024 979.837,-288.941 990.424,-288.538 987.862,-282.024"/>
</g>
<!-- Node3 -->
<g id="node3" class="node"><title>Node3</title>
<g id="a_node3"><a xlink:href="../../da/df8/_documentation_2_operator-_console_2_blemish_test_8h.html" target="_top" xlink:title="Documentation/Operator\l&#45;Console/BlemishTest.h">
<polygon fill="white" stroke="black" points="525.5,-145 525.5,-179 670.5,-179 670.5,-145 525.5,-145"/>
<text text-anchor="start" x="533.5" y="-165.4" font-family="Helvetica,sans-Serif" font-size="12.00">Documentation/Operator</text>
<text text-anchor="middle" x="598" y="-152.4" font-family="Helvetica,sans-Serif" font-size="12.00">&#45;Console/BlemishTest.h</text>
</a>
</g>
</g>
<!-- Node2&#45;&gt;Node3 -->
<g id="edge2" class="edge"><title>Node2&#45;&gt;Node3</title>
<path fill="none" stroke="midnightblue" d="M667.411,-211.107C652.531,-200.793 635.09,-188.706 621.413,-179.227"/>
<polygon fill="midnightblue" stroke="midnightblue" points="665.616,-214.121 675.829,-216.941 669.603,-208.368 665.616,-214.121"/>
</g>
<!-- Node2&#45;&gt;Node4 -->
<g id="edge14" class="edge"><title>Node2&#45;&gt;Node4</title>
<path fill="none" stroke="midnightblue" d="M704.47,-207.11C710.624,-177.98 720.431,-131.558 725.583,-107.173"/>
<polygon fill="midnightblue" stroke="midnightblue" points="701.026,-206.479 702.383,-216.987 707.875,-207.926 701.026,-206.479"/>
</g>
<!-- Node7 -->
<g id="node7" class="node"><title>Node7</title>
<g id="a_node7"><a xlink:href="../../da/df9/_documentation_2_operator-_console_2_image_test_8cpp.html" target="_top" xlink:title="Documentation/Operator\l&#45;Console/ImageTest.cpp">
<polygon fill="white" stroke="black" points="-0.5,-1 -0.5,-35 144.5,-35 144.5,-1 -0.5,-1"/>
<text text-anchor="start" x="7.5" y="-21.4" font-family="Helvetica,sans-Serif" font-size="12.00">Documentation/Operator</text>
<text text-anchor="middle" x="72" y="-8.4" font-family="Helvetica,sans-Serif" font-size="12.00">&#45;Console/ImageTest.cpp</text>
</a>
</g>
</g>
<!-- Node2&#45;&gt;Node7 -->
<g id="edge18" class="edge"><title>Node2&#45;&gt;Node7</title>
<path fill="none" stroke="midnightblue" d="M629.826,-214.129C595.441,-204.453 553.355,-192.167 516,-180 366.311,-131.243 191.405,-65.0589 113.308,-35.0143"/>
<polygon fill="midnightblue" stroke="midnightblue" points="629.198,-217.587 639.771,-216.915 631.086,-210.847 629.198,-217.587"/>
</g>
<!-- Node15 -->
<g id="node15" class="node"><title>Node15</title>
<g id="a_node15"><a xlink:href="../../d5/d79/_documentation_2_operator-_console_2_s_f_rplus_test_8h.html" target="_top" xlink:title="Documentation/Operator\l&#45;Console/SFRplusTest.h">
<polygon fill="white" stroke="black" points="727.5,-145 727.5,-179 872.5,-179 872.5,-145 727.5,-145"/>
<text text-anchor="start" x="735.5" y="-165.4" font-family="Helvetica,sans-Serif" font-size="12.00">Documentation/Operator</text>
<text text-anchor="middle" x="800" y="-152.4" font-family="Helvetica,sans-Serif" font-size="12.00">&#45;Console/SFRplusTest.h</text>
</a>
</g>
</g>
<!-- Node2&#45;&gt;Node15 -->
<g id="edge15" class="edge"><title>Node2&#45;&gt;Node15</title>
<path fill="none" stroke="midnightblue" d="M730.589,-211.107C745.469,-200.793 762.91,-188.706 776.587,-179.227"/>
<polygon fill="midnightblue" stroke="midnightblue" points="728.397,-208.368 722.171,-216.941 732.384,-214.121 728.397,-208.368"/>
</g>
<!-- Node3&#45;&gt;Node4 -->
<g id="edge3" class="edge"><title>Node3&#45;&gt;Node4</title>
<path fill="none" stroke="midnightblue" d="M637.089,-140.113C656.787,-129.587 680.313,-117.016 698.632,-107.227"/>
<polygon fill="midnightblue" stroke="midnightblue" points="635.224,-137.141 628.054,-144.941 638.523,-143.315 635.224,-137.141"/>
</g>
<!-- Node14 -->
<g id="node14" class="node"><title>Node14</title>
<g id="a_node14"><a xlink:href="../../dc/d58/_documentation_2_operator-_console_2_blemish_test_8cpp.html" target="_top" xlink:title="Documentation/Operator\l&#45;Console/BlemishTest.cpp">
<polygon fill="white" stroke="black" points="474,-73 474,-107 628,-107 628,-73 474,-73"/>
<text text-anchor="start" x="482" y="-93.4" font-family="Helvetica,sans-Serif" font-size="12.00">Documentation/Operator</text>
<text text-anchor="middle" x="551" y="-80.4" font-family="Helvetica,sans-Serif" font-size="12.00">&#45;Console/BlemishTest.cpp</text>
</a>
</g>
</g>
<!-- Node3&#45;&gt;Node14 -->
<g id="edge13" class="edge"><title>Node3&#45;&gt;Node14</title>
<path fill="none" stroke="midnightblue" d="M581.414,-136.298C574.917,-126.621 567.645,-115.791 561.842,-107.147"/>
<polygon fill="midnightblue" stroke="midnightblue" points="578.619,-138.413 587.099,-144.765 584.431,-134.511 578.619,-138.413"/>
</g>
<!-- Node5 -->
<g id="node5" class="node"><title>Node5</title>
<g id="a_node5"><a xlink:href="../../d7/d4b/_documentation_2_operator-_console_2_app_thread_8cpp.html" target="_top" xlink:title="Documentation/Operator\l&#45;Console/AppThread.cpp">
<polygon fill="white" stroke="black" points="326,-1 326,-35 474,-35 474,-1 326,-1"/>
<text text-anchor="start" x="334" y="-21.4" font-family="Helvetica,sans-Serif" font-size="12.00">Documentation/Operator</text>
<text text-anchor="middle" x="400" y="-8.4" font-family="Helvetica,sans-Serif" font-size="12.00">&#45;Console/AppThread.cpp</text>
</a>
</g>
</g>
<!-- Node4&#45;&gt;Node5 -->
<g id="edge4" class="edge"><title>Node4&#45;&gt;Node5</title>
<path fill="none" stroke="midnightblue" d="M643.56,-70.8213C591.092,-59.658 524.547,-45.4993 474.277,-34.8036"/>
<polygon fill="midnightblue" stroke="midnightblue" points="643.011,-74.2828 653.521,-72.9406 644.468,-67.4361 643.011,-74.2828"/>
</g>
<!-- Node6 -->
<g id="node6" class="node"><title>Node6</title>
<g id="a_node6"><a xlink:href="../../de/d31/_documentation_2_operator-_console_2_critical_buf_8cpp.html" target="_top" xlink:title="Documentation/Operator\l&#45;Console/CriticalBuf.cpp">
<polygon fill="white" stroke="black" points="492.5,-1 492.5,-35 637.5,-35 637.5,-1 492.5,-1"/>
<text text-anchor="start" x="500.5" y="-21.4" font-family="Helvetica,sans-Serif" font-size="12.00">Documentation/Operator</text>
<text text-anchor="middle" x="565" y="-8.4" font-family="Helvetica,sans-Serif" font-size="12.00">&#45;Console/CriticalBuf.cpp</text>
</a>
</g>
</g>
<!-- Node4&#45;&gt;Node6 -->
<g id="edge5" class="edge"><title>Node4&#45;&gt;Node6</title>
<path fill="none" stroke="midnightblue" d="M682.028,-68.9508C656.879,-58.2168 626.318,-45.1723 602.733,-35.1057"/>
<polygon fill="midnightblue" stroke="midnightblue" points="680.804,-72.2339 691.375,-72.9406 683.552,-65.7958 680.804,-72.2339"/>
</g>
<!-- Node4&#45;&gt;Node7 -->
<g id="edge6" class="edge"><title>Node4&#45;&gt;Node7</title>
<path fill="none" stroke="midnightblue" d="M635.817,-71.9361C421.326,-45.0116 363.345,-65.7621 153,-36 150.297,-35.6175 147.549,-35.1982 144.777,-34.7495"/>
<polygon fill="midnightblue" stroke="midnightblue" points="635.457,-75.4183 645.819,-73.2117 636.342,-68.4746 635.457,-75.4183"/>
</g>
<!-- Node8 -->
<g id="node8" class="node"><title>Node8</title>
<g id="a_node8"><a xlink:href="../../d4/d9c/_msg_dialog_8cpp.html" target="_top" xlink:title="Documentation/Operator\l&#45;Console/MsgDialog.cpp">
<polygon fill="white" stroke="black" points="656,-1 656,-35 802,-35 802,-1 656,-1"/>
<text text-anchor="start" x="664" y="-21.4" font-family="Helvetica,sans-Serif" font-size="12.00">Documentation/Operator</text>
<text text-anchor="middle" x="729" y="-8.4" font-family="Helvetica,sans-Serif" font-size="12.00">&#45;Console/MsgDialog.cpp</text>
</a>
</g>
</g>
<!-- Node4&#45;&gt;Node8 -->
<g id="edge7" class="edge"><title>Node4&#45;&gt;Node8</title>
<path fill="none" stroke="midnightblue" d="M729,-62.5079C729,-53.3027 729,-43.2615 729,-35.1473"/>
<polygon fill="midnightblue" stroke="midnightblue" points="725.5,-62.7646 729,-72.7646 732.5,-62.7647 725.5,-62.7646"/>
</g>
<!-- Node4&#45;&gt;Node9 -->
<g id="edge8" class="edge"><title>Node4&#45;&gt;Node9</title>
<path fill="none" stroke="midnightblue" d="M822.267,-71.9357C1071.58,-41.7916 1138.26,-64.8726 1384,-36 1387.12,-35.6337 1390.29,-35.2349 1393.48,-34.8099"/>
<polygon fill="midnightblue" stroke="midnightblue" points="821.676,-68.4819 812.176,-73.1726 822.528,-75.4299 821.676,-68.4819"/>
</g>
<!-- Node10 -->
<g id="node10" class="node"><title>Node10</title>
<g id="a_node10"><a xlink:href="../../dd/dcb/_documentation_2_operator-_console_2_operator_console_dlg_8cpp.html" target="_top" xlink:title="Documentation/Operator\l&#45;Console/OperatorConsoleDlg.cpp">
<polygon fill="white" stroke="black" points="820.5,-1 820.5,-35 1017.5,-35 1017.5,-1 820.5,-1"/>
<text text-anchor="start" x="828.5" y="-21.4" font-family="Helvetica,sans-Serif" font-size="12.00">Documentation/Operator</text>
<text text-anchor="middle" x="919" y="-8.4" font-family="Helvetica,sans-Serif" font-size="12.00">&#45;Console/OperatorConsoleDlg.cpp</text>
</a>
</g>
</g>
<!-- Node4&#45;&gt;Node10 -->
<g id="edge9" class="edge"><title>Node4&#45;&gt;Node10</title>
<path fill="none" stroke="midnightblue" d="M782.267,-69.3752C811.617,-58.5621 847.6,-45.3054 875.284,-35.1057"/>
<polygon fill="midnightblue" stroke="midnightblue" points="780.763,-66.1993 772.59,-72.9406 783.183,-72.7677 780.763,-66.1993"/>
</g>
<!-- Node11 -->
<g id="node11" class="node"><title>Node11</title>
<g id="a_node11"><a xlink:href="../../dd/d14/_documentation_2_operator-_console_2_pass_fail_8cpp.html" target="_top" xlink:title="Documentation/Operator\l&#45;Console/PassFail.cpp">
<polygon fill="white" stroke="black" points="1035.5,-1 1035.5,-35 1180.5,-35 1180.5,-1 1035.5,-1"/>
<text text-anchor="start" x="1043.5" y="-21.4" font-family="Helvetica,sans-Serif" font-size="12.00">Documentation/Operator</text>
<text text-anchor="middle" x="1108" y="-8.4" font-family="Helvetica,sans-Serif" font-size="12.00">&#45;Console/PassFail.cpp</text>
</a>
</g>
</g>
<!-- Node4&#45;&gt;Node11 -->
<g id="edge10" class="edge"><title>Node4&#45;&gt;Node11</title>
<path fill="none" stroke="midnightblue" d="M822.209,-71.7942C913.698,-55.427 938.25,-52.7969 1026,-36 1029,-35.426 1032.06,-34.8318 1035.15,-34.2245"/>
<polygon fill="midnightblue" stroke="midnightblue" points="821.463,-68.3722 812.239,-73.5847 822.7,-75.262 821.463,-68.3722"/>
</g>
<!-- Node12 -->
<g id="node12" class="node"><title>Node12</title>
<g id="a_node12"><a xlink:href="../../dd/d4b/_documentation_2_operator-_console_2_password_dialog_8cpp.html" target="_top" xlink:title="Documentation/Operator\l&#45;Console/PasswordDialog.cpp">
<polygon fill="white" stroke="black" points="1199,-1 1199,-35 1375,-35 1375,-1 1199,-1"/>
<text text-anchor="start" x="1207" y="-21.4" font-family="Helvetica,sans-Serif" font-size="12.00">Documentation/Operator</text>
<text text-anchor="middle" x="1287" y="-8.4" font-family="Helvetica,sans-Serif" font-size="12.00">&#45;Console/PasswordDialog.cpp</text>
</a>
</g>
</g>
<!-- Node4&#45;&gt;Node12 -->
<g id="edge11" class="edge"><title>Node4&#45;&gt;Node12</title>
<path fill="none" stroke="midnightblue" d="M822.098,-71.9157C985.429,-49.3888 1029.33,-57.6283 1189,-36 1192.25,-35.5596 1195.56,-35.0909 1198.9,-34.6006"/>
<polygon fill="midnightblue" stroke="midnightblue" points="821.613,-68.4494 812.193,-73.2991 822.581,-75.3821 821.613,-68.4494"/>
</g>
<!-- Node13 -->
<g id="node13" class="node"><title>Node13</title>
<g id="a_node13"><a xlink:href="../../d3/d68/_documentation_2_operator-_console_2_setup_8cpp.html" target="_top" xlink:title="Documentation/Operator\l&#45;Console/Setup.cpp">
<polygon fill="white" stroke="black" points="162.5,-1 162.5,-35 307.5,-35 307.5,-1 162.5,-1"/>
<text text-anchor="start" x="170.5" y="-21.4" font-family="Helvetica,sans-Serif" font-size="12.00">Documentation/Operator</text>
<text text-anchor="middle" x="235" y="-8.4" font-family="Helvetica,sans-Serif" font-size="12.00">&#45;Console/Setup.cpp</text>
</a>
</g>
</g>
<!-- Node4&#45;&gt;Node13 -->
<g id="edge12" class="edge"><title>Node4&#45;&gt;Node13</title>
<path fill="none" stroke="midnightblue" d="M635.836,-71.8908C493.713,-51.3087 455.157,-58.0442 317,-36 313.985,-35.5189 310.913,-35.0024 307.813,-34.4594"/>
<polygon fill="midnightblue" stroke="midnightblue" points="635.397,-75.3638 645.799,-73.3535 636.414,-68.438 635.397,-75.3638"/>
</g>
<!-- Node15&#45;&gt;Node4 -->
<g id="edge16" class="edge"><title>Node15&#45;&gt;Node4</title>
<path fill="none" stroke="midnightblue" d="M776.14,-137.476C766.03,-127.508 754.503,-116.144 745.378,-107.147"/>
<polygon fill="midnightblue" stroke="midnightblue" points="773.954,-140.236 783.533,-144.765 778.869,-135.252 773.954,-140.236"/>
</g>
<!-- Node15&#45;&gt;Node16 -->
<g id="edge17" class="edge"><title>Node15&#45;&gt;Node16</title>
<path fill="none" stroke="midnightblue" d="M833.642,-139.395C849.798,-129.02 868.834,-116.794 883.732,-107.227"/>
<polygon fill="midnightblue" stroke="midnightblue" points="831.53,-136.592 825.007,-144.941 835.312,-142.482 831.53,-136.592"/>
</g>
</g>
</svg>
