<?xml version="1.0" encoding="UTF-8" standalone="no"?>
<!DOCTYPE svg PUBLIC "-//W3C//DTD SVG 1.1//EN"
 "http://www.w3.org/Graphics/SVG/1.1/DTD/svg11.dtd">
<!-- Generated by graphviz version 2.34.0 (20130907.0111)
 -->
<!-- Title: StdoutThread Pages: 1 -->
<svg width="102pt" height="146pt"
 viewBox="0.00 0.00 102.00 146.00" xmlns="http://www.w3.org/2000/svg" xmlns:xlink="http://www.w3.org/1999/xlink">
<g id="graph0" class="graph" transform="scale(1 1) rotate(0) translate(4 142)">
<title>StdoutThread</title>
<polygon fill="white" stroke="white" points="-4,4 -4,-142 98,-142 98,4 -4,4"/>
<!-- Node1 -->
<g id="node1" class="node"><title>Node1</title>
<polygon fill="#bfbfbf" stroke="black" points="3.5,-58.5 3.5,-79.5 90.5,-79.5 90.5,-58.5 3.5,-58.5"/>
<text text-anchor="middle" x="47" y="-65.9" font-family="Helvetica,sans-Serif" font-size="12.00">StdoutThread</text>
</g>
<!-- Node3 -->
<g id="node3" class="node"><title>Node3</title>
<g id="a_node3"><a xlink:href="../../df/d44/class_stderr_thread.html" target="_top" xlink:title="Defines a thread class for capturing stderr. ">
<polygon fill="white" stroke="black" points="4,-0.5 4,-21.5 90,-21.5 90,-0.5 4,-0.5"/>
<text text-anchor="middle" x="47" y="-7.9" font-family="Helvetica,sans-Serif" font-size="12.00">StderrThread</text>
</a>
</g>
</g>
<!-- Node1&#45;&gt;Node3 -->
<g id="edge3" class="edge"><title>Node1&#45;&gt;Node3</title>
<path fill="none" stroke="midnightblue" d="M40.5113,-48.1575C39.919,-39.155 40.3335,-28.9199 41.7549,-21.6427"/>
<polygon fill="midnightblue" stroke="midnightblue" points="37.0561,-48.739 41.7332,-58.2455 44.0053,-47.8972 37.0561,-48.739"/>
</g>
<!-- Node1&#45;&gt;Node3 -->
<g id="edge4" class="edge"><title>Node1&#45;&gt;Node3</title>
<path fill="none" stroke="midnightblue" d="M53.4887,-48.1575C54.081,-39.155 53.6665,-28.9199 52.2451,-21.6427"/>
<polygon fill="midnightblue" stroke="midnightblue" points="49.9947,-47.8972 52.2668,-58.2455 56.9439,-48.739 49.9947,-47.8972"/>
</g>
<!-- Node2 -->
<g id="node2" class="node"><title>Node2</title>
<g id="a_node2"><a xlink:href="../../d5/d52/class_stdout_redirect.html" target="_top" xlink:title="Defines functions for redirecting stdout through a buffered pipe. ">
<polygon fill="white" stroke="black" points="-0.5,-116.5 -0.5,-137.5 94.5,-137.5 94.5,-116.5 -0.5,-116.5"/>
<text text-anchor="middle" x="47" y="-123.9" font-family="Helvetica,sans-Serif" font-size="12.00">StdoutRedirect</text>
</a>
</g>
</g>
<!-- Node2&#45;&gt;Node1 -->
<g id="edge1" class="edge"><title>Node2&#45;&gt;Node1</title>
<path fill="none" stroke="midnightblue" d="M40.5113,-106.158C39.919,-97.155 40.3335,-86.9199 41.7549,-79.6427"/>
<polygon fill="midnightblue" stroke="midnightblue" points="37.0561,-106.739 41.7332,-116.246 44.0053,-105.897 37.0561,-106.739"/>
</g>
<!-- Node2&#45;&gt;Node1 -->
<g id="edge2" class="edge"><title>Node2&#45;&gt;Node1</title>
<path fill="none" stroke="midnightblue" d="M53.4887,-106.158C54.081,-97.155 53.6665,-86.9199 52.2451,-79.6427"/>
<polygon fill="midnightblue" stroke="midnightblue" points="49.9947,-105.897 52.2668,-116.246 56.9439,-106.739 49.9947,-105.897"/>
</g>
</g>
</svg>
