<?xml version="1.0" encoding="UTF-8" standalone="no"?>
<!DOCTYPE svg PUBLIC "-//W3C//DTD SVG 1.1//EN"
 "http://www.w3.org/Graphics/SVG/1.1/DTD/svg11.dtd">
<!-- Generated by graphviz version 2.34.0 (20130907.0111)
 -->
<!-- Title: internalJSONNode Pages: 1 -->
<svg width="231pt" height="264pt"
 viewBox="0.00 0.00 231.00 264.00" xmlns="http://www.w3.org/2000/svg" xmlns:xlink="http://www.w3.org/1999/xlink">
<g id="graph0" class="graph" transform="scale(1 1) rotate(0) translate(4 260)">
<title>internalJSONNode</title>
<polygon fill="white" stroke="white" points="-4,4 -4,-260 227,-260 227,4 -4,4"/>
<!-- Node1 -->
<g id="node1" class="node"><title>Node1</title>
<polygon fill="#bfbfbf" stroke="black" points="91,-148.5 91,-169.5 205,-169.5 205,-148.5 91,-148.5"/>
<text text-anchor="middle" x="148" y="-155.9" font-family="Helvetica,sans-Serif" font-size="12.00">internalJSONNode</text>
</g>
<!-- Node4 -->
<g id="node4" class="node"><title>Node4</title>
<g id="a_node4"><a xlink:href="../../d6/dc7/class_j_s_o_n_node.html" target="_top" xlink:title="JSONNode">
<polygon fill="white" stroke="black" points="-0.5,-74.5 -0.5,-95.5 76.5,-95.5 76.5,-74.5 -0.5,-74.5"/>
<text text-anchor="middle" x="38" y="-81.9" font-family="Helvetica,sans-Serif" font-size="12.00">JSONNode</text>
</a>
</g>
</g>
<!-- Node1&#45;&gt;Node4 -->
<g id="edge5" class="edge"><title>Node1&#45;&gt;Node4</title>
<path fill="none" stroke="#9a32cd" stroke-dasharray="5,2" d="M124.794,-142.81C102.993,-128.541 71.0411,-107.627 52.6,-95.5564"/>
<polygon fill="#9a32cd" stroke="#9a32cd" points="122.881,-145.742 133.165,-148.29 126.715,-139.885 122.881,-145.742"/>
<text text-anchor="middle" x="123.5" y="-119.9" font-family="Helvetica,sans-Serif" font-size="12.00"> internal</text>
</g>
<!-- Node2 -->
<g id="node2" class="node"><title>Node2</title>
<g id="a_node2"><a xlink:href="../../d9/df1/unioninternal_j_s_o_n_node_1_1value__union__t.html" target="_top" xlink:title="internalJSONNode::value\l_union_t">
<polygon fill="white" stroke="black" points="74.5,-221 74.5,-255 221.5,-255 221.5,-221 74.5,-221"/>
<text text-anchor="start" x="82.5" y="-241.4" font-family="Helvetica,sans-Serif" font-size="12.00">internalJSONNode::value</text>
<text text-anchor="middle" x="148" y="-228.4" font-family="Helvetica,sans-Serif" font-size="12.00">_union_t</text>
</a>
</g>
</g>
<!-- Node2&#45;&gt;Node1 -->
<g id="edge1" class="edge"><title>Node2&#45;&gt;Node1</title>
<path fill="none" stroke="#9a32cd" stroke-dasharray="5,2" d="M148,-210.442C148,-196.265 148,-179.69 148,-169.519"/>
<polygon fill="#9a32cd" stroke="#9a32cd" points="144.5,-210.67 148,-220.67 151.5,-210.67 144.5,-210.67"/>
<text text-anchor="middle" x="166.5" y="-191.9" font-family="Helvetica,sans-Serif" font-size="12.00"> _value</text>
</g>
<!-- Node3 -->
<g id="node3" class="node"><title>Node3</title>
<g id="a_node3"><a xlink:href="../../db/d49/classjson_children.html" target="_top" xlink:title="jsonChildren">
<polygon fill="white" stroke="black" points="96.5,-0.5 96.5,-21.5 177.5,-21.5 177.5,-0.5 96.5,-0.5"/>
<text text-anchor="middle" x="137" y="-7.9" font-family="Helvetica,sans-Serif" font-size="12.00">jsonChildren</text>
</a>
</g>
</g>
<!-- Node3&#45;&gt;Node1 -->
<g id="edge2" class="edge"><title>Node3&#45;&gt;Node1</title>
<path fill="none" stroke="#9a32cd" stroke-dasharray="5,2" d="M145.088,-31.0154C149.579,-42.6212 154.711,-57.8932 157,-72 161.473,-99.5619 154.695,-132.472 150.654,-148.409"/>
<polygon fill="#9a32cd" stroke="#9a32cd" points="148.242,-29.4797 141.242,-21.5262 141.754,-32.1087 148.242,-29.4797"/>
<text text-anchor="middle" x="191" y="-81.9" font-family="Helvetica,sans-Serif" font-size="12.00"> CHILDREN</text>
</g>
<!-- Node4&#45;&gt;Node3 -->
<g id="edge3" class="edge"><title>Node4&#45;&gt;Node3</title>
<path fill="none" stroke="#9a32cd" stroke-dasharray="5,2" d="M59.6753,-68.2361C79.2714,-53.9844 107.484,-33.466 123.86,-21.5564"/>
<polygon fill="#9a32cd" stroke="#9a32cd" points="57.3803,-65.5774 51.3516,-74.2898 61.4976,-71.2386 57.3803,-65.5774"/>
<text text-anchor="middle" x="112" y="-43.9" font-family="Helvetica,sans-Serif" font-size="12.00"> array</text>
</g>
<!-- Node4&#45;&gt;Node4 -->
<g id="edge4" class="edge"><title>Node4&#45;&gt;Node4</title>
<path fill="none" stroke="#9a32cd" stroke-dasharray="5,2" d="M86.8716,-90.6352C91.2509,-89.4563 94,-87.5779 94,-85 94,-80.7695 86.5967,-78.4229 76.7352,-77.9602"/>
<polygon fill="#9a32cd" stroke="#9a32cd" points="86.1601,-87.2002 76.7352,-92.0398 87.121,-94.134 86.1601,-87.2002"/>
<text text-anchor="middle" x="121" y="-88.4" font-family="Helvetica,sans-Serif" font-size="12.00"> operator[]</text>
<text text-anchor="middle" x="121" y="-75.4" font-family="Helvetica,sans-Serif" font-size="12.00">operator=</text>
</g>
</g>
</svg>
