<?xml version="1.0" encoding="UTF-8" standalone="no"?>
<!DOCTYPE svg PUBLIC "-//W3C//DTD SVG 1.1//EN"
 "http://www.w3.org/Graphics/SVG/1.1/DTD/svg11.dtd">
<!-- Generated by graphviz version 2.34.0 (20130907.0111)
 -->
<!-- Title: JSONSingleton::get_singleton Pages: 1 -->
<svg width="284pt" height="70pt"
 viewBox="0.00 0.00 284.00 70.00" xmlns="http://www.w3.org/2000/svg" xmlns:xlink="http://www.w3.org/1999/xlink">
<g id="graph0" class="graph" transform="scale(1 1) rotate(0) translate(4 66)">
<title>JSONSingleton::get_singleton</title>
<polygon fill="white" stroke="white" points="-4,4 -4,-66 280,-66 280,4 -4,4"/>
<!-- Node1 -->
<g id="node1" class="node"><title>Node1</title>
<polygon fill="#bfbfbf" stroke="black" points="0.5,-14 0.5,-48 119.5,-48 119.5,-14 0.5,-14"/>
<text text-anchor="start" x="8.5" y="-34.4" font-family="Helvetica,sans-Serif" font-size="12.00">JSONSingleton::get</text>
<text text-anchor="middle" x="60" y="-21.4" font-family="Helvetica,sans-Serif" font-size="12.00">_singleton</text>
</g>
<!-- Node2 -->
<g id="node2" class="node"><title>Node2</title>
<g id="a_node2"><a xlink:href="../../d6/d12/class_j_s_o_n_singleton.html#af0bc39193d2f0b4757454673ef644b26" target="_top" xlink:title="JSONSingleton::get">
<polygon fill="white" stroke="black" points="156.5,-40.5 156.5,-61.5 275.5,-61.5 275.5,-40.5 156.5,-40.5"/>
<text text-anchor="middle" x="216" y="-47.9" font-family="Helvetica,sans-Serif" font-size="12.00">JSONSingleton::get</text>
</a>
</g>
</g>
<!-- Node1&#45;&gt;Node2 -->
<g id="edge1" class="edge"><title>Node1&#45;&gt;Node2</title>
<path fill="none" stroke="midnightblue" d="M129.607,-39.91C138.497,-41.0645 147.538,-42.2387 156.248,-43.3699"/>
<polygon fill="midnightblue" stroke="midnightblue" points="130.028,-36.4353 119.66,-38.6182 129.126,-43.377 130.028,-36.4353"/>
</g>
<!-- Node3 -->
<g id="node3" class="node"><title>Node3</title>
<g id="a_node3"><a xlink:href="../../d6/d12/class_j_s_o_n_singleton.html#a1f4ff6e6828c6901fa176661c767260f" target="_top" xlink:title="JSONSingleton::set">
<polygon fill="white" stroke="black" points="156.5,-0.5 156.5,-21.5 275.5,-21.5 275.5,-0.5 156.5,-0.5"/>
<text text-anchor="middle" x="216" y="-7.9" font-family="Helvetica,sans-Serif" font-size="12.00">JSONSingleton::set</text>
</a>
</g>
</g>
<!-- Node1&#45;&gt;Node3 -->
<g id="edge2" class="edge"><title>Node1&#45;&gt;Node3</title>
<path fill="none" stroke="midnightblue" d="M129.607,-22.09C138.497,-20.9355 147.538,-19.7613 156.248,-18.6301"/>
<polygon fill="midnightblue" stroke="midnightblue" points="129.126,-18.623 119.66,-23.3818 130.028,-25.5647 129.126,-18.623"/>
</g>
</g>
</svg>
