<?xml version="1.0" encoding="UTF-8" standalone="no"?>
<!DOCTYPE svg PUBLIC "-//W3C//DTD SVG 1.1//EN"
 "http://www.w3.org/Graphics/SVG/1.1/DTD/svg11.dtd">
<!-- Generated by graphviz version 2.34.0 (20130907.0111)
 -->
<!-- Title: COperatorConsoleApp Pages: 1 -->
<svg width="144pt" height="88pt"
 viewBox="0.00 0.00 144.00 88.00" xmlns="http://www.w3.org/2000/svg" xmlns:xlink="http://www.w3.org/1999/xlink">
<g id="graph0" class="graph" transform="scale(1 1) rotate(0) translate(4 84)">
<title>COperatorConsoleApp</title>
<polygon fill="white" stroke="white" points="-4,4 -4,-84 140,-84 140,4 -4,4"/>
<!-- Node1 -->
<g id="node1" class="node"><title>Node1</title>
<polygon fill="#bfbfbf" stroke="black" points="-0.5,-0.5 -0.5,-21.5 136.5,-21.5 136.5,-0.5 -0.5,-0.5"/>
<text text-anchor="middle" x="68" y="-7.9" font-family="Helvetica,sans-Serif" font-size="12.00">COperatorConsoleApp</text>
</g>
<!-- Node2 -->
<g id="node2" class="node"><title>Node2</title>
<polygon fill="white" stroke="#bfbfbf" points="34,-58.5 34,-79.5 102,-79.5 102,-58.5 34,-58.5"/>
<text text-anchor="middle" x="68" y="-65.9" font-family="Helvetica,sans-Serif" font-size="12.00">CWinApp</text>
</g>
<!-- Node2&#45;&gt;Node1 -->
<g id="edge1" class="edge"><title>Node2&#45;&gt;Node1</title>
<path fill="none" stroke="midnightblue" d="M61.5113,-48.1575C60.919,-39.155 61.3335,-28.9199 62.7549,-21.6427"/>
<polygon fill="midnightblue" stroke="midnightblue" points="58.0561,-48.739 62.7332,-58.2455 65.0053,-47.8972 58.0561,-48.739"/>
</g>
<!-- Node2&#45;&gt;Node1 -->
<g id="edge2" class="edge"><title>Node2&#45;&gt;Node1</title>
<path fill="none" stroke="midnightblue" d="M74.4887,-48.1575C75.081,-39.155 74.6665,-28.9199 73.2451,-21.6427"/>
<polygon fill="midnightblue" stroke="midnightblue" points="70.9947,-47.8972 73.2668,-58.2455 77.9439,-48.739 70.9947,-47.8972"/>
</g>
</g>
</svg>
