<?xml version="1.0" encoding="UTF-8" standalone="no"?>
<!DOCTYPE svg PUBLIC "-//W3C//DTD SVG 1.1//EN"
 "http://www.w3.org/Graphics/SVG/1.1/DTD/svg11.dtd">
<!-- Generated by graphviz version 2.34.0 (20130907.0111)
 -->
<!-- Title: Documentation/Operator&#45;Console/setup_settings.h Pages: 1 -->
<svg width="1579pt" height="188pt"
 viewBox="0.00 0.00 1579.00 188.00" xmlns="http://www.w3.org/2000/svg" xmlns:xlink="http://www.w3.org/1999/xlink">
<g id="graph0" class="graph" transform="scale(1 1) rotate(0) translate(4 184)">
<title>Documentation/Operator&#45;Console/setup_settings.h</title>
<polygon fill="white" stroke="white" points="-4,4 -4,-184 1575,-184 1575,4 -4,4"/>
<!-- Node1 -->
<g id="node1" class="node"><title>Node1</title>
<polygon fill="#bfbfbf" stroke="black" points="937,-145 937,-179 1089,-179 1089,-145 937,-145"/>
<text text-anchor="start" x="945" y="-165.4" font-family="Helvetica,sans-Serif" font-size="12.00">Documentation/Operator</text>
<text text-anchor="middle" x="1013" y="-152.4" font-family="Helvetica,sans-Serif" font-size="12.00">&#45;Console/setup_settings.h</text>
</g>
<!-- Node2 -->
<g id="node2" class="node"><title>Node2</title>
<g id="a_node2"><a xlink:href="../../da/d65/_documentation_2_operator-_console_2_operator_console_8h.html" target="_top" xlink:title="Documentation/Operator\l&#45;Console/OperatorConsole.h">
<polygon fill="white" stroke="black" points="759,-73 759,-107 925,-107 925,-73 759,-73"/>
<text text-anchor="start" x="767" y="-93.4" font-family="Helvetica,sans-Serif" font-size="12.00">Documentation/Operator</text>
<text text-anchor="middle" x="842" y="-80.4" font-family="Helvetica,sans-Serif" font-size="12.00">&#45;Console/OperatorConsole.h</text>
</a>
</g>
</g>
<!-- Node1&#45;&gt;Node2 -->
<g id="edge1" class="edge"><title>Node1&#45;&gt;Node2</title>
<path fill="none" stroke="midnightblue" d="M964.369,-141.093C938.082,-130.332 906.044,-117.217 881.344,-107.106"/>
<polygon fill="midnightblue" stroke="midnightblue" points="963.189,-144.391 973.769,-144.941 965.841,-137.913 963.189,-144.391"/>
</g>
<!-- Node12 -->
<g id="node12" class="node"><title>Node12</title>
<g id="a_node12"><a xlink:href="../../db/d98/_documentation_2_operator-_console_2_setup_8h.html" target="_top" xlink:title="Documentation/Operator\l&#45;Console/Setup.h">
<polygon fill="white" stroke="black" points="1134.5,-73 1134.5,-107 1279.5,-107 1279.5,-73 1134.5,-73"/>
<text text-anchor="start" x="1142.5" y="-93.4" font-family="Helvetica,sans-Serif" font-size="12.00">Documentation/Operator</text>
<text text-anchor="middle" x="1207" y="-80.4" font-family="Helvetica,sans-Serif" font-size="12.00">&#45;Console/Setup.h</text>
</a>
</g>
</g>
<!-- Node1&#45;&gt;Node12 -->
<g id="edge11" class="edge"><title>Node1&#45;&gt;Node12</title>
<path fill="none" stroke="midnightblue" d="M1067,-141.516C1097.04,-130.677 1133.97,-117.35 1162.36,-107.106"/>
<polygon fill="midnightblue" stroke="midnightblue" points="1065.73,-138.254 1057.51,-144.941 1068.1,-144.839 1065.73,-138.254"/>
</g>
<!-- Node3 -->
<g id="node3" class="node"><title>Node3</title>
<g id="a_node3"><a xlink:href="../../d7/d4b/_documentation_2_operator-_console_2_app_thread_8cpp.html" target="_top" xlink:title="Documentation/Operator\l&#45;Console/AppThread.cpp">
<polygon fill="white" stroke="black" points="522,-1 522,-35 670,-35 670,-1 522,-1"/>
<text text-anchor="start" x="530" y="-21.4" font-family="Helvetica,sans-Serif" font-size="12.00">Documentation/Operator</text>
<text text-anchor="middle" x="596" y="-8.4" font-family="Helvetica,sans-Serif" font-size="12.00">&#45;Console/AppThread.cpp</text>
</a>
</g>
</g>
<!-- Node2&#45;&gt;Node3 -->
<g id="edge2" class="edge"><title>Node2&#45;&gt;Node3</title>
<path fill="none" stroke="midnightblue" d="M775.499,-70.0768C737.063,-59.1399 689.224,-45.5271 652.6,-35.1057"/>
<polygon fill="midnightblue" stroke="midnightblue" points="774.987,-73.57 785.563,-72.9406 776.902,-66.8373 774.987,-73.57"/>
</g>
<!-- Node4 -->
<g id="node4" class="node"><title>Node4</title>
<g id="a_node4"><a xlink:href="../../de/d31/_documentation_2_operator-_console_2_critical_buf_8cpp.html" target="_top" xlink:title="Documentation/Operator\l&#45;Console/CriticalBuf.cpp">
<polygon fill="white" stroke="black" points="688.5,-1 688.5,-35 833.5,-35 833.5,-1 688.5,-1"/>
<text text-anchor="start" x="696.5" y="-21.4" font-family="Helvetica,sans-Serif" font-size="12.00">Documentation/Operator</text>
<text text-anchor="middle" x="761" y="-8.4" font-family="Helvetica,sans-Serif" font-size="12.00">&#45;Console/CriticalBuf.cpp</text>
</a>
</g>
</g>
<!-- Node2&#45;&gt;Node4 -->
<g id="edge3" class="edge"><title>Node2&#45;&gt;Node4</title>
<path fill="none" stroke="midnightblue" d="M815.457,-66.0612C803.762,-55.9549 790.299,-44.3199 779.685,-35.1473"/>
<polygon fill="midnightblue" stroke="midnightblue" points="813.359,-68.8741 823.213,-72.7646 817.936,-63.5778 813.359,-68.8741"/>
</g>
<!-- Node5 -->
<g id="node5" class="node"><title>Node5</title>
<g id="a_node5"><a xlink:href="../../da/df9/_documentation_2_operator-_console_2_image_test_8cpp.html" target="_top" xlink:title="Documentation/Operator\l&#45;Console/ImageTest.cpp">
<polygon fill="white" stroke="black" points="851.5,-1 851.5,-35 996.5,-35 996.5,-1 851.5,-1"/>
<text text-anchor="start" x="859.5" y="-21.4" font-family="Helvetica,sans-Serif" font-size="12.00">Documentation/Operator</text>
<text text-anchor="middle" x="924" y="-8.4" font-family="Helvetica,sans-Serif" font-size="12.00">&#45;Console/ImageTest.cpp</text>
</a>
</g>
</g>
<!-- Node2&#45;&gt;Node5 -->
<g id="edge4" class="edge"><title>Node2&#45;&gt;Node5</title>
<path fill="none" stroke="midnightblue" d="M868.871,-66.0612C880.71,-55.9549 894.34,-44.3199 905.085,-35.1473"/>
<polygon fill="midnightblue" stroke="midnightblue" points="866.352,-63.61 861.019,-72.7646 870.897,-68.934 866.352,-63.61"/>
</g>
<!-- Node6 -->
<g id="node6" class="node"><title>Node6</title>
<g id="a_node6"><a xlink:href="../../d4/d9c/_msg_dialog_8cpp.html" target="_top" xlink:title="Documentation/Operator\l&#45;Console/MsgDialog.cpp">
<polygon fill="white" stroke="black" points="0,-1 0,-35 146,-35 146,-1 0,-1"/>
<text text-anchor="start" x="8" y="-21.4" font-family="Helvetica,sans-Serif" font-size="12.00">Documentation/Operator</text>
<text text-anchor="middle" x="73" y="-8.4" font-family="Helvetica,sans-Serif" font-size="12.00">&#45;Console/MsgDialog.cpp</text>
</a>
</g>
</g>
<!-- Node2&#45;&gt;Node6 -->
<g id="edge5" class="edge"><title>Node2&#45;&gt;Node6</title>
<path fill="none" stroke="midnightblue" d="M748.766,-85.5768C616.261,-79.8572 366.103,-65.9014 155,-36 152.121,-35.5922 149.191,-35.1444 146.236,-34.6652"/>
<polygon fill="midnightblue" stroke="midnightblue" points="748.74,-89.0787 758.88,-86.0071 749.038,-82.0851 748.74,-89.0787"/>
</g>
<!-- Node7 -->
<g id="node7" class="node"><title>Node7</title>
<g id="a_node7"><a xlink:href="../../db/db5/_documentation_2_operator-_console_2_operator_console_8cpp.html" target="_top" xlink:title="Documentation/Operator\l&#45;Console/OperatorConsole.cpp">
<polygon fill="white" stroke="black" points="1014.5,-1 1014.5,-35 1193.5,-35 1193.5,-1 1014.5,-1"/>
<text text-anchor="start" x="1022.5" y="-21.4" font-family="Helvetica,sans-Serif" font-size="12.00">Documentation/Operator</text>
<text text-anchor="middle" x="1104" y="-8.4" font-family="Helvetica,sans-Serif" font-size="12.00">&#45;Console/OperatorConsole.cpp</text>
</a>
</g>
</g>
<!-- Node2&#45;&gt;Node7 -->
<g id="edge6" class="edge"><title>Node2&#45;&gt;Node7</title>
<path fill="none" stroke="midnightblue" d="M911.784,-70.3555C952.894,-59.3718 1004.38,-45.6158 1043.72,-35.1057"/>
<polygon fill="midnightblue" stroke="midnightblue" points="910.866,-66.9779 902.108,-72.9406 912.673,-73.7407 910.866,-66.9779"/>
</g>
<!-- Node8 -->
<g id="node8" class="node"><title>Node8</title>
<g id="a_node8"><a xlink:href="../../dd/dcb/_documentation_2_operator-_console_2_operator_console_dlg_8cpp.html" target="_top" xlink:title="Documentation/Operator\l&#45;Console/OperatorConsoleDlg.cpp">
<polygon fill="white" stroke="black" points="1211.5,-1 1211.5,-35 1408.5,-35 1408.5,-1 1211.5,-1"/>
<text text-anchor="start" x="1219.5" y="-21.4" font-family="Helvetica,sans-Serif" font-size="12.00">Documentation/Operator</text>
<text text-anchor="middle" x="1310" y="-8.4" font-family="Helvetica,sans-Serif" font-size="12.00">&#45;Console/OperatorConsoleDlg.cpp</text>
</a>
</g>
</g>
<!-- Node2&#45;&gt;Node8 -->
<g id="edge7" class="edge"><title>Node2&#45;&gt;Node8</title>
<path fill="none" stroke="midnightblue" d="M935.377,-75.513C1008.07,-64.9503 1111.48,-49.7865 1202,-36 1205.1,-35.5284 1208.24,-35.047 1211.42,-34.559"/>
<polygon fill="midnightblue" stroke="midnightblue" points="934.721,-72.0714 925.328,-76.9723 935.727,-78.9988 934.721,-72.0714"/>
</g>
<!-- Node9 -->
<g id="node9" class="node"><title>Node9</title>
<g id="a_node9"><a xlink:href="../../dd/d14/_documentation_2_operator-_console_2_pass_fail_8cpp.html" target="_top" xlink:title="Documentation/Operator\l&#45;Console/PassFail.cpp">
<polygon fill="white" stroke="black" points="164.5,-1 164.5,-35 309.5,-35 309.5,-1 164.5,-1"/>
<text text-anchor="start" x="172.5" y="-21.4" font-family="Helvetica,sans-Serif" font-size="12.00">Documentation/Operator</text>
<text text-anchor="middle" x="237" y="-8.4" font-family="Helvetica,sans-Serif" font-size="12.00">&#45;Console/PassFail.cpp</text>
</a>
</g>
</g>
<!-- Node2&#45;&gt;Node9 -->
<g id="edge8" class="edge"><title>Node2&#45;&gt;Node9</title>
<path fill="none" stroke="midnightblue" d="M748.538,-82.4599C643.62,-74.4385 468.492,-59.0077 319,-36 315.982,-35.5356 312.908,-35.0329 309.807,-34.5015"/>
<polygon fill="midnightblue" stroke="midnightblue" points="748.546,-85.9705 758.782,-83.2366 749.075,-78.9906 748.546,-85.9705"/>
</g>
<!-- Node10 -->
<g id="node10" class="node"><title>Node10</title>
<g id="a_node10"><a xlink:href="../../dd/d4b/_documentation_2_operator-_console_2_password_dialog_8cpp.html" target="_top" xlink:title="Documentation/Operator\l&#45;Console/PasswordDialog.cpp">
<polygon fill="white" stroke="black" points="328,-1 328,-35 504,-35 504,-1 328,-1"/>
<text text-anchor="start" x="336" y="-21.4" font-family="Helvetica,sans-Serif" font-size="12.00">Documentation/Operator</text>
<text text-anchor="middle" x="416" y="-8.4" font-family="Helvetica,sans-Serif" font-size="12.00">&#45;Console/PasswordDialog.cpp</text>
</a>
</g>
</g>
<!-- Node2&#45;&gt;Node10 -->
<g id="edge9" class="edge"><title>Node2&#45;&gt;Node10</title>
<path fill="none" stroke="midnightblue" d="M748.84,-74.3427C682.933,-63.8877 592.502,-49.3697 513,-36 510.049,-35.5038 507.049,-34.996 504.019,-34.4805"/>
<polygon fill="midnightblue" stroke="midnightblue" points="748.366,-77.8113 758.791,-75.92 749.462,-70.8976 748.366,-77.8113"/>
</g>
<!-- Node11 -->
<g id="node11" class="node"><title>Node11</title>
<g id="a_node11"><a xlink:href="../../d3/d68/_documentation_2_operator-_console_2_setup_8cpp.html" target="_top" xlink:title="Documentation/Operator\l&#45;Console/Setup.cpp">
<polygon fill="white" stroke="black" points="1426.5,-1 1426.5,-35 1571.5,-35 1571.5,-1 1426.5,-1"/>
<text text-anchor="start" x="1434.5" y="-21.4" font-family="Helvetica,sans-Serif" font-size="12.00">Documentation/Operator</text>
<text text-anchor="middle" x="1499" y="-8.4" font-family="Helvetica,sans-Serif" font-size="12.00">&#45;Console/Setup.cpp</text>
</a>
</g>
</g>
<!-- Node2&#45;&gt;Node11 -->
<g id="edge10" class="edge"><title>Node2&#45;&gt;Node11</title>
<path fill="none" stroke="midnightblue" d="M935.286,-83.639C1049.35,-76.3393 1248.09,-61.2121 1417,-36 1420.02,-35.5493 1423.1,-35.0581 1426.2,-34.5361"/>
<polygon fill="midnightblue" stroke="midnightblue" points="934.952,-80.1531 925.193,-84.2786 935.395,-87.139 934.952,-80.1531"/>
</g>
<!-- Node12&#45;&gt;Node7 -->
<g id="edge12" class="edge"><title>Node12&#45;&gt;Node7</title>
<path fill="none" stroke="midnightblue" d="M1174.79,-67.1066C1159.61,-56.7935 1141.82,-44.7058 1127.88,-35.2271"/>
<polygon fill="midnightblue" stroke="midnightblue" points="1173.13,-70.2144 1183.37,-72.9406 1177.07,-64.4249 1173.13,-70.2144"/>
</g>
<!-- Node12&#45;&gt;Node8 -->
<g id="edge13" class="edge"><title>Node12&#45;&gt;Node8</title>
<path fill="none" stroke="midnightblue" d="M1239.21,-67.1066C1254.39,-56.7935 1272.18,-44.7058 1286.12,-35.2271"/>
<polygon fill="midnightblue" stroke="midnightblue" points="1236.93,-64.4249 1230.63,-72.9406 1240.87,-70.2144 1236.93,-64.4249"/>
</g>
<!-- Node12&#45;&gt;Node11 -->
<g id="edge14" class="edge"><title>Node12&#45;&gt;Node11</title>
<path fill="none" stroke="midnightblue" d="M1283.92,-70.5594C1329.97,-59.5214 1387.92,-45.628 1432.07,-35.0452"/>
<polygon fill="midnightblue" stroke="midnightblue" points="1282.9,-67.2057 1273.99,-72.9406 1284.53,-74.0129 1282.9,-67.2057"/>
</g>
</g>
</svg>
