<?xml version="1.0" encoding="UTF-8" standalone="no"?>
<!DOCTYPE svg PUBLIC "-//W3C//DTD SVG 1.1//EN"
 "http://www.w3.org/Graphics/SVG/1.1/DTD/svg11.dtd">
<!-- Generated by graphviz version 2.34.0 (20130907.0111)
 -->
<!-- Title: OtherPassFail Pages: 1 -->
<svg width="303pt" height="414pt"
 viewBox="0.00 0.00 303.00 414.00" xmlns="http://www.w3.org/2000/svg" xmlns:xlink="http://www.w3.org/1999/xlink">
<g id="graph0" class="graph" transform="scale(1 1) rotate(0) translate(4 410)">
<title>OtherPassFail</title>
<polygon fill="white" stroke="white" points="-4,4 -4,-410 299,-410 299,4 -4,4"/>
<!-- Node1 -->
<g id="node1" class="node"><title>Node1</title>
<polygon fill="#bfbfbf" stroke="black" points="54,-0.5 54,-21.5 146,-21.5 146,-0.5 54,-0.5"/>
<text text-anchor="middle" x="100" y="-7.9" font-family="Helvetica,sans-Serif" font-size="12.00">OtherPassFail</text>
</g>
<!-- Node2 -->
<g id="node2" class="node"><title>Node2</title>
<polygon fill="white" stroke="#bfbfbf" points="48,-73 48,-107 152,-107 152,-73 48,-73"/>
<text text-anchor="start" x="56" y="-93.4" font-family="Helvetica,sans-Serif" font-size="12.00">std::vector&lt; entry</text>
<text text-anchor="middle" x="100" y="-80.4" font-family="Helvetica,sans-Serif" font-size="12.00">&lt; CString &gt; &gt;</text>
</g>
<!-- Node2&#45;&gt;Node1 -->
<g id="edge1" class="edge"><title>Node2&#45;&gt;Node1</title>
<path fill="none" stroke="#9a32cd" stroke-dasharray="5,2" d="M100,-62.442C100,-48.2647 100,-31.6895 100,-21.5189"/>
<polygon fill="#9a32cd" stroke="#9a32cd" points="96.5001,-62.6702 100,-72.6703 103.5,-62.6703 96.5001,-62.6702"/>
<text text-anchor="middle" x="122" y="-43.9" font-family="Helvetica,sans-Serif" font-size="12.00"> ent_vec</text>
</g>
<!-- Node3 -->
<g id="node3" class="node"><title>Node3</title>
<g id="a_node3"><a xlink:href="../../d3/d96/structentry.html" target="_top" xlink:title="entry\&lt; CString \&gt;">
<polygon fill="white" stroke="black" points="173.5,-158.5 173.5,-179.5 274.5,-179.5 274.5,-158.5 173.5,-158.5"/>
<text text-anchor="middle" x="224" y="-165.9" font-family="Helvetica,sans-Serif" font-size="12.00">entry&lt; CString &gt;</text>
</a>
</g>
</g>
<!-- Node3&#45;&gt;Node2 -->
<g id="edge2" class="edge"><title>Node3&#45;&gt;Node2</title>
<path fill="none" stroke="#9a32cd" stroke-dasharray="5,2" d="M199.813,-152.981C178.592,-139.803 147.808,-120.687 126.05,-107.176"/>
<polygon fill="#9a32cd" stroke="#9a32cd" points="198.204,-156.102 208.546,-158.404 201.897,-150.155 198.204,-156.102"/>
<text text-anchor="middle" x="202.5" y="-129.9" font-family="Helvetica,sans-Serif" font-size="12.00"> elements</text>
</g>
<!-- Node4 -->
<g id="node4" class="node"><title>Node4</title>
<g id="a_node4"><a xlink:title="STL class. ">
<polygon fill="white" stroke="#bfbfbf" points="177.5,-310.5 177.5,-331.5 244.5,-331.5 244.5,-310.5 177.5,-310.5"/>
<text text-anchor="middle" x="211" y="-317.9" font-family="Helvetica,sans-Serif" font-size="12.00">std::string</text>
</a>
</g>
</g>
<!-- Node4&#45;&gt;Node3 -->
<g id="edge3" class="edge"><title>Node4&#45;&gt;Node3</title>
<path fill="none" stroke="#9a32cd" stroke-dasharray="5,2" d="M226.967,-302.108C229.031,-298.929 230.831,-295.507 232,-292 245.211,-252.366 237.795,-239.374 232,-198 231.13,-191.792 229.226,-185.028 227.494,-179.704"/>
<polygon fill="#9a32cd" stroke="#9a32cd" points="224.012,-300.212 220.751,-310.293 229.587,-304.446 224.012,-300.212"/>
<text text-anchor="middle" x="267.5" y="-245.9" font-family="Helvetica,sans-Serif" font-size="12.00"> data_type</text>
</g>
<!-- Node6 -->
<g id="node6" class="node"><title>Node6</title>
<g id="a_node6"><a xlink:href="../../d3/d96/structentry.html" target="_top" xlink:title="A templated struct that contains all information for a single, scalar pass/fail variable. ">
<polygon fill="white" stroke="black" points="134,-238.5 134,-259.5 202,-259.5 202,-238.5 134,-238.5"/>
<text text-anchor="middle" x="168" y="-245.9" font-family="Helvetica,sans-Serif" font-size="12.00">entry&lt; T &gt;</text>
</a>
</g>
</g>
<!-- Node4&#45;&gt;Node6 -->
<g id="edge6" class="edge"><title>Node4&#45;&gt;Node6</title>
<path fill="none" stroke="#9a32cd" stroke-dasharray="5,2" d="M187.035,-303.828C183.207,-300.321 179.643,-296.344 177,-292 170.954,-282.061 168.935,-268.639 168.28,-259.67"/>
<polygon fill="#9a32cd" stroke="#9a32cd" points="185.083,-306.752 195.054,-310.334 189.493,-301.316 185.083,-306.752"/>
<text text-anchor="middle" x="204.5" y="-281.9" font-family="Helvetica,sans-Serif" font-size="12.00"> data_type</text>
</g>
<!-- Node5 -->
<g id="node5" class="node"><title>Node5</title>
<g id="a_node5"><a xlink:title="STL class. ">
<polygon fill="white" stroke="#bfbfbf" points="156.5,-371 156.5,-405 265.5,-405 265.5,-371 156.5,-371"/>
<text text-anchor="start" x="164.5" y="-391.4" font-family="Helvetica,sans-Serif" font-size="12.00">std::basic_string&lt;</text>
<text text-anchor="middle" x="211" y="-378.4" font-family="Helvetica,sans-Serif" font-size="12.00"> char &gt;</text>
</a>
</g>
</g>
<!-- Node5&#45;&gt;Node4 -->
<g id="edge4" class="edge"><title>Node5&#45;&gt;Node4</title>
<path fill="none" stroke="midnightblue" d="M211,-360.722C211,-350.452 211,-339.32 211,-331.639"/>
<polygon fill="midnightblue" stroke="midnightblue" points="207.5,-360.933 211,-370.933 214.5,-360.933 207.5,-360.933"/>
</g>
<!-- Node6&#45;&gt;Node3 -->
<g id="edge5" class="edge"><title>Node6&#45;&gt;Node3</title>
<path fill="none" stroke="orange" stroke-dasharray="5,2" d="M163.876,-228.282C162.895,-218.483 163.438,-206.872 169,-198 174.179,-189.739 182.626,-183.813 191.363,-179.605"/>
<polygon fill="orange" stroke="orange" points="160.445,-228.993 165.445,-238.334 167.361,-227.913 160.445,-228.993"/>
<text text-anchor="middle" x="200.5" y="-205.9" font-family="Helvetica,sans-Serif" font-size="12.00"> &lt; CString &gt;</text>
</g>
<!-- Node7 -->
<g id="node7" class="node"><title>Node7</title>
<polygon fill="white" stroke="#bfbfbf" points="64.5,-310.5 64.5,-331.5 93.5,-331.5 93.5,-310.5 64.5,-310.5"/>
<text text-anchor="middle" x="79" y="-317.9" font-family="Helvetica,sans-Serif" font-size="12.00">T</text>
</g>
<!-- Node7&#45;&gt;Node6 -->
<g id="edge7" class="edge"><title>Node7&#45;&gt;Node6</title>
<path fill="none" stroke="#9a32cd" stroke-dasharray="5,2" d="M99.2688,-304.058C116.664,-290.377 141.165,-271.106 155.73,-259.651"/>
<polygon fill="#9a32cd" stroke="#9a32cd" points="97.0715,-301.334 91.3751,-310.267 101.399,-306.836 97.0715,-301.334"/>
<text text-anchor="middle" x="147.5" y="-281.9" font-family="Helvetica,sans-Serif" font-size="12.00"> value</text>
</g>
<!-- Node8 -->
<g id="node8" class="node"><title>Node8</title>
<g id="a_node8"><a xlink:title="STL class. ">
<polygon fill="white" stroke="#bfbfbf" points="0,-198.5 0,-219.5 96,-219.5 96,-198.5 0,-198.5"/>
<text text-anchor="middle" x="48" y="-205.9" font-family="Helvetica,sans-Serif" font-size="12.00">std::vector&lt; T &gt;</text>
</a>
</g>
</g>
<!-- Node7&#45;&gt;Node8 -->
<g id="edge9" class="edge"><title>Node7&#45;&gt;Node8</title>
<path fill="none" stroke="#9a32cd" stroke-dasharray="5,2" d="M65.9371,-302.039C64.0407,-298.815 62.2952,-295.397 61,-292 51.5509,-267.219 48.9691,-235.699 48.2642,-219.93"/>
<polygon fill="#9a32cd" stroke="#9a32cd" points="63.0261,-303.982 71.4323,-310.431 68.8824,-300.148 63.0261,-303.982"/>
<text text-anchor="middle" x="86.5" y="-281.9" font-family="Helvetica,sans-Serif" font-size="12.00"> elements</text>
</g>
<!-- Node8&#45;&gt;Node2 -->
<g id="edge8" class="edge"><title>Node8&#45;&gt;Node2</title>
<path fill="none" stroke="orange" stroke-dasharray="5,2" d="M49.7127,-188.491C50.9896,-179.043 53.1984,-167.677 57,-158 64.3787,-139.218 77.3271,-120.067 87.0923,-107.077"/>
<polygon fill="orange" stroke="orange" points="46.2281,-188.16 48.6023,-198.485 53.1853,-188.933 46.2281,-188.16"/>
<text text-anchor="middle" x="110.5" y="-165.9" font-family="Helvetica,sans-Serif" font-size="12.00"> &lt; entry&lt; CString &gt; &gt;</text>
</g>
</g>
</svg>
