<?xml version="1.0" encoding="UTF-8" standalone="no"?>
<!DOCTYPE svg PUBLIC "-//W3C//DTD SVG 1.1//EN"
 "http://www.w3.org/Graphics/SVG/1.1/DTD/svg11.dtd">
<!-- Generated by graphviz version 2.34.0 (20130907.0111)
 -->
<!-- Title: writeMinMaxEntValueString Pages: 1 -->
<svg width="690pt" height="42pt"
 viewBox="0.00 0.00 690.00 42.00" xmlns="http://www.w3.org/2000/svg" xmlns:xlink="http://www.w3.org/1999/xlink">
<g id="graph0" class="graph" transform="scale(1 1) rotate(0) translate(4 38)">
<title>writeMinMaxEntValueString</title>
<polygon fill="white" stroke="white" points="-4,4 -4,-38 686,-38 686,4 -4,4"/>
<!-- Node1 -->
<g id="node1" class="node"><title>Node1</title>
<polygon fill="#bfbfbf" stroke="black" points="0,-6.5 0,-27.5 160,-27.5 160,-6.5 0,-6.5"/>
<text text-anchor="middle" x="80" y="-13.9" font-family="Helvetica,sans-Serif" font-size="12.00">writeMinMaxEntValueString</text>
</g>
<!-- Node2 -->
<g id="node2" class="node"><title>Node2</title>
<g id="a_node2"><a xlink:href="../../d3/d9f/class_c_operator_console_app.html#aab4583fb7e725968ea95224ef0c773e7" target="_top" xlink:title="This function writes the pass/fail variables to the pass/fail file listed in the imatest INI file...">
<polygon fill="white" stroke="black" points="196.5,-0 196.5,-34 333.5,-34 333.5,-0 196.5,-0"/>
<text text-anchor="start" x="204.5" y="-20.4" font-family="Helvetica,sans-Serif" font-size="12.00">COperatorConsoleApp</text>
<text text-anchor="middle" x="265" y="-7.4" font-family="Helvetica,sans-Serif" font-size="12.00">::WritePassFail</text>
</a>
</g>
</g>
<!-- Node1&#45;&gt;Node2 -->
<g id="edge1" class="edge"><title>Node1&#45;&gt;Node2</title>
<path fill="none" stroke="midnightblue" d="M170.44,-17C179.187,-17 187.96,-17 196.437,-17"/>
<polygon fill="midnightblue" stroke="midnightblue" points="170.202,-13.5001 160.202,-17 170.202,-20.5001 170.202,-13.5001"/>
</g>
<!-- Node3 -->
<g id="node3" class="node"><title>Node3</title>
<g id="a_node3"><a xlink:href="../../d3/d9f/class_c_operator_console_app.html#a04972a8a1e21b10b9bf422396ff97644" target="_top" xlink:title="Called after MSG_PASS_FAIL is received. ">
<polygon fill="white" stroke="black" points="370.5,-0 370.5,-34 507.5,-34 507.5,-0 370.5,-0"/>
<text text-anchor="start" x="378.5" y="-20.4" font-family="Helvetica,sans-Serif" font-size="12.00">COperatorConsoleApp</text>
<text text-anchor="middle" x="439" y="-7.4" font-family="Helvetica,sans-Serif" font-size="12.00">::OnPassFail</text>
</a>
</g>
</g>
<!-- Node2&#45;&gt;Node3 -->
<g id="edge2" class="edge"><title>Node2&#45;&gt;Node3</title>
<path fill="none" stroke="midnightblue" d="M344.134,-17C352.846,-17 361.666,-17 370.233,-17"/>
<polygon fill="midnightblue" stroke="midnightblue" points="343.979,-13.5001 333.979,-17 343.979,-20.5001 343.979,-13.5001"/>
</g>
<!-- Node4 -->
<g id="node4" class="node"><title>Node4</title>
<g id="a_node4"><a xlink:href="../../d3/d9f/class_c_operator_console_app.html#a7041d197c4e6549f2cb7219981b4eec1" target="_top" xlink:title="Intercepts messages of interest before Windows or MFC. ">
<polygon fill="white" stroke="black" points="544,-0 544,-34 682,-34 682,-0 544,-0"/>
<text text-anchor="start" x="552" y="-20.4" font-family="Helvetica,sans-Serif" font-size="12.00">COperatorConsoleApp</text>
<text text-anchor="middle" x="613" y="-7.4" font-family="Helvetica,sans-Serif" font-size="12.00">::PreTranslateMessage</text>
</a>
</g>
</g>
<!-- Node3&#45;&gt;Node4 -->
<g id="edge3" class="edge"><title>Node3&#45;&gt;Node4</title>
<path fill="none" stroke="midnightblue" d="M518.054,-17C526.696,-17 535.446,-17 543.952,-17"/>
<polygon fill="midnightblue" stroke="midnightblue" points="517.979,-13.5001 507.979,-17 517.979,-20.5001 517.979,-13.5001"/>
</g>
</g>
</svg>
