<?xml version="1.0" encoding="UTF-8" standalone="no"?>
<!DOCTYPE svg PUBLIC "-//W3C//DTD SVG 1.1//EN"
 "http://www.w3.org/Graphics/SVG/1.1/DTD/svg11.dtd">
<!-- Generated by graphviz version 2.34.0 (20130907.0111)
 -->
<!-- Title: writeVecEntValueString Pages: 1 -->
<svg width="670pt" height="42pt"
 viewBox="0.00 0.00 670.00 42.00" xmlns="http://www.w3.org/2000/svg" xmlns:xlink="http://www.w3.org/1999/xlink">
<g id="graph0" class="graph" transform="scale(1 1) rotate(0) translate(4 38)">
<title>writeVecEntValueString</title>
<polygon fill="white" stroke="white" points="-4,4 -4,-38 666,-38 666,4 -4,4"/>
<!-- Node1 -->
<g id="node1" class="node"><title>Node1</title>
<polygon fill="#bfbfbf" stroke="black" points="0,-6.5 0,-27.5 140,-27.5 140,-6.5 0,-6.5"/>
<text text-anchor="middle" x="70" y="-13.9" font-family="Helvetica,sans-Serif" font-size="12.00">writeVecEntValueString</text>
</g>
<!-- Node2 -->
<g id="node2" class="node"><title>Node2</title>
<g id="a_node2"><a xlink:href="../../d3/d9f/class_c_operator_console_app.html#aab4583fb7e725968ea95224ef0c773e7" target="_top" xlink:title="This function writes the pass/fail variables to the pass/fail file listed in the imatest INI file...">
<polygon fill="white" stroke="black" points="176.5,-0 176.5,-34 313.5,-34 313.5,-0 176.5,-0"/>
<text text-anchor="start" x="184.5" y="-20.4" font-family="Helvetica,sans-Serif" font-size="12.00">COperatorConsoleApp</text>
<text text-anchor="middle" x="245" y="-7.4" font-family="Helvetica,sans-Serif" font-size="12.00">::WritePassFail</text>
</a>
</g>
</g>
<!-- Node1&#45;&gt;Node2 -->
<g id="edge1" class="edge"><title>Node1&#45;&gt;Node2</title>
<path fill="none" stroke="midnightblue" d="M150.448,-17C159.088,-17 167.823,-17 176.305,-17"/>
<polygon fill="midnightblue" stroke="midnightblue" points="150.369,-13.5001 140.369,-17 150.369,-20.5001 150.369,-13.5001"/>
</g>
<!-- Node3 -->
<g id="node3" class="node"><title>Node3</title>
<g id="a_node3"><a xlink:href="../../d3/d9f/class_c_operator_console_app.html#a04972a8a1e21b10b9bf422396ff97644" target="_top" xlink:title="Called after MSG_PASS_FAIL is received. ">
<polygon fill="white" stroke="black" points="350.5,-0 350.5,-34 487.5,-34 487.5,-0 350.5,-0"/>
<text text-anchor="start" x="358.5" y="-20.4" font-family="Helvetica,sans-Serif" font-size="12.00">COperatorConsoleApp</text>
<text text-anchor="middle" x="419" y="-7.4" font-family="Helvetica,sans-Serif" font-size="12.00">::OnPassFail</text>
</a>
</g>
</g>
<!-- Node2&#45;&gt;Node3 -->
<g id="edge2" class="edge"><title>Node2&#45;&gt;Node3</title>
<path fill="none" stroke="midnightblue" d="M324.134,-17C332.846,-17 341.666,-17 350.233,-17"/>
<polygon fill="midnightblue" stroke="midnightblue" points="323.979,-13.5001 313.979,-17 323.979,-20.5001 323.979,-13.5001"/>
</g>
<!-- Node4 -->
<g id="node4" class="node"><title>Node4</title>
<g id="a_node4"><a xlink:href="../../d3/d9f/class_c_operator_console_app.html#a7041d197c4e6549f2cb7219981b4eec1" target="_top" xlink:title="Intercepts messages of interest before Windows or MFC. ">
<polygon fill="white" stroke="black" points="524,-0 524,-34 662,-34 662,-0 524,-0"/>
<text text-anchor="start" x="532" y="-20.4" font-family="Helvetica,sans-Serif" font-size="12.00">COperatorConsoleApp</text>
<text text-anchor="middle" x="593" y="-7.4" font-family="Helvetica,sans-Serif" font-size="12.00">::PreTranslateMessage</text>
</a>
</g>
</g>
<!-- Node3&#45;&gt;Node4 -->
<g id="edge3" class="edge"><title>Node3&#45;&gt;Node4</title>
<path fill="none" stroke="midnightblue" d="M498.054,-17C506.696,-17 515.446,-17 523.952,-17"/>
<polygon fill="midnightblue" stroke="midnightblue" points="497.979,-13.5001 487.979,-17 497.979,-20.5001 497.979,-13.5001"/>
</g>
</g>
</svg>
