<?xml version="1.0" encoding="UTF-8" standalone="no"?>
<!DOCTYPE svg PUBLIC "-//W3C//DTD SVG 1.1//EN"
 "http://www.w3.org/Graphics/SVG/1.1/DTD/svg11.dtd">
<!-- Generated by graphviz version 2.34.0 (20130907.0111)
 -->
<!-- Title: ImageAcquisition Pages: 1 -->
<svg width="114pt" height="162pt"
 viewBox="0.00 0.00 114.00 162.00" xmlns="http://www.w3.org/2000/svg" xmlns:xlink="http://www.w3.org/1999/xlink">
<g id="graph0" class="graph" transform="scale(1 1) rotate(0) translate(4 158)">
<title>ImageAcquisition</title>
<polygon fill="white" stroke="white" points="-4,4 -4,-158 110,-158 110,4 -4,4"/>
<!-- Node1 -->
<g id="node1" class="node"><title>Node1</title>
<polygon fill="#bfbfbf" stroke="black" points="-0.5,-0.5 -0.5,-21.5 106.5,-21.5 106.5,-0.5 -0.5,-0.5"/>
<text text-anchor="middle" x="53" y="-7.9" font-family="Helvetica,sans-Serif" font-size="12.00">ImageAcquisition</text>
</g>
<!-- Node2 -->
<g id="node2" class="node"><title>Node2</title>
<g id="a_node2"><a xlink:href="../../d3/d1e/class_critical_buf.html" target="_top" xlink:title="a buffer class where all access (read or write) to the buffer is protected by critical sections ...">
<polygon fill="white" stroke="black" points="17.5,-72.5 17.5,-93.5 88.5,-93.5 88.5,-72.5 17.5,-72.5"/>
<text text-anchor="middle" x="53" y="-79.9" font-family="Helvetica,sans-Serif" font-size="12.00">CriticalBuf</text>
</a>
</g>
</g>
<!-- Node2&#45;&gt;Node1 -->
<g id="edge1" class="edge"><title>Node2&#45;&gt;Node1</title>
<path fill="none" stroke="#9a32cd" stroke-dasharray="5,2" d="M53,-62.1985C53,-48.9378 53,-32.0647 53,-21.6505"/>
<polygon fill="#9a32cd" stroke="#9a32cd" points="49.5001,-62.2668 53,-72.2668 56.5001,-62.2668 49.5001,-62.2668"/>
<text text-anchor="middle" x="78" y="-43.9" font-family="Helvetica,sans-Serif" font-size="12.00"> m_frame</text>
</g>
<!-- Node3 -->
<g id="node3" class="node"><title>Node3</title>
<polygon fill="white" stroke="#bfbfbf" points="2,-132.5 2,-153.5 104,-153.5 104,-132.5 2,-132.5"/>
<text text-anchor="middle" x="53" y="-139.9" font-family="Helvetica,sans-Serif" font-size="12.00">CCriticalSection</text>
</g>
<!-- Node3&#45;&gt;Node2 -->
<g id="edge2" class="edge"><title>Node3&#45;&gt;Node2</title>
<path fill="none" stroke="midnightblue" d="M46.5802,-122.465C45.8842,-112.82 46.2885,-101.608 47.7932,-93.7856"/>
<polygon fill="midnightblue" stroke="midnightblue" points="43.1121,-122.938 47.8337,-132.422 50.0573,-122.064 43.1121,-122.938"/>
</g>
<!-- Node3&#45;&gt;Node2 -->
<g id="edge3" class="edge"><title>Node3&#45;&gt;Node2</title>
<path fill="none" stroke="midnightblue" d="M59.4198,-122.465C60.1158,-112.82 59.7115,-101.608 58.2068,-93.7856"/>
<polygon fill="midnightblue" stroke="midnightblue" points="55.9427,-122.064 58.1663,-132.422 62.8879,-122.938 55.9427,-122.064"/>
</g>
</g>
</svg>
