<?xml version="1.0" encoding="UTF-8" standalone="no"?>
<!DOCTYPE svg PUBLIC "-//W3C//DTD SVG 1.1//EN"
 "http://www.w3.org/Graphics/SVG/1.1/DTD/svg11.dtd">
<!-- Generated by graphviz version 2.34.0 (20130907.0111)
 -->
<!-- Title: JSON/JSONMemory.h Pages: 1 -->
<svg width="1326pt" height="552pt"
 viewBox="0.00 0.00 1326.00 552.00" xmlns="http://www.w3.org/2000/svg" xmlns:xlink="http://www.w3.org/1999/xlink">
<g id="graph0" class="graph" transform="scale(1 1) rotate(0) translate(4 548)">
<title>JSON/JSONMemory.h</title>
<polygon fill="white" stroke="white" points="-4,4 -4,-548 1322,-548 1322,4 -4,4"/>
<!-- Node1 -->
<g id="node1" class="node"><title>Node1</title>
<polygon fill="#bfbfbf" stroke="black" points="643,-522.5 643,-543.5 777,-543.5 777,-522.5 643,-522.5"/>
<text text-anchor="middle" x="710" y="-529.9" font-family="Helvetica,sans-Serif" font-size="12.00">JSON/JSONMemory.h</text>
</g>
<!-- Node2 -->
<g id="node2" class="node"><title>Node2</title>
<g id="a_node2"><a xlink:href="../../d5/d5d/_j_s_o_n_children_8h.html" target="_top" xlink:title="JSON/JSONChildren.h">
<polygon fill="white" stroke="black" points="642.5,-464.5 642.5,-485.5 777.5,-485.5 777.5,-464.5 642.5,-464.5"/>
<text text-anchor="middle" x="710" y="-471.9" font-family="Helvetica,sans-Serif" font-size="12.00">JSON/JSONChildren.h</text>
</a>
</g>
</g>
<!-- Node1&#45;&gt;Node2 -->
<g id="edge1" class="edge"><title>Node1&#45;&gt;Node2</title>
<path fill="none" stroke="midnightblue" d="M710,-512.158C710,-503.155 710,-492.92 710,-485.643"/>
<polygon fill="midnightblue" stroke="midnightblue" points="706.5,-512.246 710,-522.246 713.5,-512.246 706.5,-512.246"/>
</g>
<!-- Node3 -->
<g id="node3" class="node"><title>Node3</title>
<g id="a_node3"><a xlink:href="../../dd/db0/internal_j_s_o_n_node_8h.html" target="_top" xlink:title="JSON/internalJSONNode.h">
<polygon fill="white" stroke="black" points="535,-406.5 535,-427.5 693,-427.5 693,-406.5 535,-406.5"/>
<text text-anchor="middle" x="614" y="-413.9" font-family="Helvetica,sans-Serif" font-size="12.00">JSON/internalJSONNode.h</text>
</a>
</g>
</g>
<!-- Node1&#45;&gt;Node3 -->
<g id="edge43" class="edge"><title>Node1&#45;&gt;Node3</title>
<path fill="none" stroke="midnightblue" d="M674.52,-517.942C659.759,-510.468 643.624,-499.906 633,-486 619.606,-468.467 615.654,-441.972 614.488,-427.785"/>
<polygon fill="midnightblue" stroke="midnightblue" points="673.414,-521.291 683.949,-522.411 676.412,-514.965 673.414,-521.291"/>
</g>
<!-- Node34 -->
<g id="node34" class="node"><title>Node34</title>
<g id="a_node34"><a xlink:href="../../d7/d70/_j_s_o_n_memory_8cpp.html" target="_top" xlink:title="JSON/JSONMemory.cpp">
<polygon fill="white" stroke="black" points="795.5,-464.5 795.5,-485.5 942.5,-485.5 942.5,-464.5 795.5,-464.5"/>
<text text-anchor="middle" x="869" y="-471.9" font-family="Helvetica,sans-Serif" font-size="12.00">JSON/JSONMemory.cpp</text>
</a>
</g>
</g>
<!-- Node1&#45;&gt;Node34 -->
<g id="edge44" class="edge"><title>Node1&#45;&gt;Node34</title>
<path fill="none" stroke="midnightblue" d="M747.129,-518.923C776.195,-508.686 815.937,-494.689 842.024,-485.501"/>
<polygon fill="midnightblue" stroke="midnightblue" points="745.602,-515.75 737.333,-522.373 747.928,-522.352 745.602,-515.75"/>
</g>
<!-- Node2&#45;&gt;Node3 -->
<g id="edge2" class="edge"><title>Node2&#45;&gt;Node3</title>
<path fill="none" stroke="midnightblue" d="M684.365,-459.046C667.284,-449.082 645.336,-436.279 630.53,-427.643"/>
<polygon fill="midnightblue" stroke="midnightblue" points="682.877,-462.23 693.278,-464.246 686.404,-456.184 682.877,-462.23"/>
</g>
<!-- Node30 -->
<g id="node30" class="node"><title>Node30</title>
<g id="a_node30"><a xlink:href="../../dc/d59/_j_s_o_n_children_8cpp.html" target="_top" xlink:title="JSON/JSONChildren.cpp">
<polygon fill="white" stroke="black" points="1085.5,-290.5 1085.5,-311.5 1234.5,-311.5 1234.5,-290.5 1085.5,-290.5"/>
<text text-anchor="middle" x="1160" y="-297.9" font-family="Helvetica,sans-Serif" font-size="12.00">JSON/JSONChildren.cpp</text>
</a>
</g>
</g>
<!-- Node2&#45;&gt;Node30 -->
<g id="edge42" class="edge"><title>Node2&#45;&gt;Node30</title>
<path fill="none" stroke="midnightblue" d="M744.605,-460.773C831.852,-427.425 1059.24,-340.512 1135.02,-311.548"/>
<polygon fill="midnightblue" stroke="midnightblue" points="743.25,-457.544 735.158,-464.384 745.749,-464.083 743.25,-457.544"/>
</g>
<!-- Node4 -->
<g id="node4" class="node"><title>Node4</title>
<g id="a_node4"><a xlink:href="../../d8/dcb/_j_s_o_n_node_8h.html" target="_top" xlink:title="JSON/JSONNode.h">
<polygon fill="white" stroke="black" points="554,-348.5 554,-369.5 674,-369.5 674,-348.5 554,-348.5"/>
<text text-anchor="middle" x="614" y="-355.9" font-family="Helvetica,sans-Serif" font-size="12.00">JSON/JSONNode.h</text>
</a>
</g>
</g>
<!-- Node3&#45;&gt;Node4 -->
<g id="edge3" class="edge"><title>Node3&#45;&gt;Node4</title>
<path fill="none" stroke="midnightblue" d="M614,-396.158C614,-387.155 614,-376.92 614,-369.643"/>
<polygon fill="midnightblue" stroke="midnightblue" points="610.5,-396.246 614,-406.246 617.5,-396.246 610.5,-396.246"/>
</g>
<!-- Node24 -->
<g id="node24" class="node"><title>Node24</title>
<g id="a_node24"><a xlink:href="../../dd/dde/internal_j_s_o_n_node_8cpp.html" target="_top" xlink:title="JSON/internalJSONNode.cpp">
<polygon fill="white" stroke="black" points="-0.5,-232.5 -0.5,-253.5 170.5,-253.5 170.5,-232.5 -0.5,-232.5"/>
<text text-anchor="middle" x="85" y="-239.9" font-family="Helvetica,sans-Serif" font-size="12.00">JSON/internalJSONNode.cpp</text>
</a>
</g>
</g>
<!-- Node3&#45;&gt;Node24 -->
<g id="edge41" class="edge"><title>Node3&#45;&gt;Node24</title>
<path fill="none" stroke="midnightblue" d="M524.825,-413.551C424.637,-407.094 260.431,-385.084 141,-312 116.997,-297.312 98.5688,-268.609 90.1014,-253.626"/>
<polygon fill="midnightblue" stroke="midnightblue" points="524.723,-417.051 534.916,-414.162 525.147,-410.064 524.723,-417.051"/>
</g>
<!-- Node5 -->
<g id="node5" class="node"><title>Node5</title>
<g id="a_node5"><a xlink:href="../../d1/d7d/libjson_8h.html" target="_top" xlink:title="libjson.h">
<polygon fill="white" stroke="black" points="855.5,-232.5 855.5,-253.5 914.5,-253.5 914.5,-232.5 855.5,-232.5"/>
<text text-anchor="middle" x="885" y="-239.9" font-family="Helvetica,sans-Serif" font-size="12.00">libjson.h</text>
</a>
</g>
</g>
<!-- Node4&#45;&gt;Node5 -->
<g id="edge4" class="edge"><title>Node4&#45;&gt;Node5</title>
<path fill="none" stroke="midnightblue" d="M684.247,-355.232C753.749,-350.904 853.357,-339.889 879,-312 893.599,-296.122 890.473,-268.451 887.445,-253.781"/>
<polygon fill="midnightblue" stroke="midnightblue" points="684,-351.74 674.224,-355.823 684.412,-358.728 684,-351.74"/>
</g>
<!-- Node23 -->
<g id="node23" class="node"><title>Node23</title>
<g id="a_node23"><a xlink:href="../../d8/d46/_j_s_o_n_worker_8h.html" target="_top" xlink:title="JSON/JSONWorker.h">
<polygon fill="white" stroke="black" points="195,-290.5 195,-311.5 325,-311.5 325,-290.5 195,-290.5"/>
<text text-anchor="middle" x="260" y="-297.9" font-family="Helvetica,sans-Serif" font-size="12.00">JSON/JSONWorker.h</text>
</a>
</g>
</g>
<!-- Node4&#45;&gt;Node23 -->
<g id="edge26" class="edge"><title>Node4&#45;&gt;Node23</title>
<path fill="none" stroke="midnightblue" d="M543.746,-346.886C478.46,-336.559 382.246,-321.338 320.346,-311.546"/>
<polygon fill="midnightblue" stroke="midnightblue" points="543.525,-350.395 553.949,-348.5 544.618,-343.481 543.525,-350.395"/>
</g>
<!-- Node4&#45;&gt;Node24 -->
<g id="edge35" class="edge"><title>Node4&#45;&gt;Node24</title>
<path fill="none" stroke="midnightblue" d="M543.717,-354.551C439.642,-348.752 249.953,-335.331 186,-312 149.262,-298.597 112.877,-269.054 95.5197,-253.698"/>
<polygon fill="midnightblue" stroke="midnightblue" points="543.645,-358.052 553.822,-355.105 544.028,-351.063 543.645,-358.052"/>
</g>
<!-- Node27 -->
<g id="node27" class="node"><title>Node27</title>
<g id="a_node27"><a xlink:href="../../d8/d45/_j_s_o_n_writer_8cpp.html" target="_top" xlink:title="JSON/JSONWriter.cpp">
<polygon fill="white" stroke="black" points="510.5,-232.5 510.5,-253.5 647.5,-253.5 647.5,-232.5 510.5,-232.5"/>
<text text-anchor="middle" x="579" y="-239.9" font-family="Helvetica,sans-Serif" font-size="12.00">JSON/JSONWriter.cpp</text>
</a>
</g>
</g>
<!-- Node4&#45;&gt;Node27 -->
<g id="edge40" class="edge"><title>Node4&#45;&gt;Node27</title>
<path fill="none" stroke="midnightblue" d="M543.999,-354.361C480.465,-349.42 393.518,-337.993 372,-312 365.765,-304.468 365.882,-297.627 372,-290 381.272,-278.442 460.755,-263.227 518.469,-253.527"/>
<polygon fill="midnightblue" stroke="midnightblue" points="543.751,-357.852 553.982,-355.1 544.267,-350.872 543.751,-357.852"/>
</g>
<!-- Node28 -->
<g id="node28" class="node"><title>Node28</title>
<g id="a_node28"><a xlink:href="../../da/dde/_j_s_o_n_preparse_8h.html" target="_top" xlink:title="JSON/JSONPreparse.h">
<polygon fill="white" stroke="black" points="927,-290.5 927,-311.5 1067,-311.5 1067,-290.5 927,-290.5"/>
<text text-anchor="middle" x="997" y="-297.9" font-family="Helvetica,sans-Serif" font-size="12.00">JSON/JSONPreparse.h</text>
</a>
</g>
</g>
<!-- Node4&#45;&gt;Node28 -->
<g id="edge32" class="edge"><title>Node4&#45;&gt;Node28</title>
<path fill="none" stroke="midnightblue" d="M684.419,-347.704C755.14,-337.363 863.216,-321.561 931.964,-311.509"/>
<polygon fill="midnightblue" stroke="midnightblue" points="683.653,-344.278 674.265,-349.188 684.666,-351.205 683.653,-344.278"/>
</g>
<!-- Node4&#45;&gt;Node30 -->
<g id="edge36" class="edge"><title>Node4&#45;&gt;Node30</title>
<path fill="none" stroke="midnightblue" d="M684.363,-351.419C774.977,-342.846 937.315,-327.158 1076,-312 1079.07,-311.665 1082.19,-311.318 1085.35,-310.962"/>
<polygon fill="midnightblue" stroke="midnightblue" points="683.837,-347.953 674.211,-352.378 684.496,-354.922 683.837,-347.953"/>
</g>
<!-- Node31 -->
<g id="node31" class="node"><title>Node31</title>
<g id="a_node31"><a xlink:href="../../d8/de5/_j_s_o_n_iterators_8cpp.html" target="_top" xlink:title="JSON/JSONIterators.cpp">
<polygon fill="white" stroke="black" points="381.5,-290.5 381.5,-311.5 528.5,-311.5 528.5,-290.5 381.5,-290.5"/>
<text text-anchor="middle" x="455" y="-297.9" font-family="Helvetica,sans-Serif" font-size="12.00">JSON/JSONIterators.cpp</text>
</a>
</g>
</g>
<!-- Node4&#45;&gt;Node31 -->
<g id="edge37" class="edge"><title>Node4&#45;&gt;Node31</title>
<path fill="none" stroke="midnightblue" d="M576.871,-344.923C547.805,-334.686 508.063,-320.689 481.976,-311.501"/>
<polygon fill="midnightblue" stroke="midnightblue" points="576.072,-348.352 586.667,-348.373 578.398,-341.75 576.072,-348.352"/>
</g>
<!-- Node32 -->
<g id="node32" class="node"><title>Node32</title>
<g id="a_node32"><a xlink:href="../../d1/df2/_j_s_o_n_node_8cpp.html" target="_top" xlink:title="JSON/JSONNode.cpp">
<polygon fill="white" stroke="black" points="547,-290.5 547,-311.5 681,-311.5 681,-290.5 547,-290.5"/>
<text text-anchor="middle" x="614" y="-297.9" font-family="Helvetica,sans-Serif" font-size="12.00">JSON/JSONNode.cpp</text>
</a>
</g>
</g>
<!-- Node4&#45;&gt;Node32 -->
<g id="edge38" class="edge"><title>Node4&#45;&gt;Node32</title>
<path fill="none" stroke="midnightblue" d="M614,-338.158C614,-329.155 614,-318.92 614,-311.643"/>
<polygon fill="midnightblue" stroke="midnightblue" points="610.5,-338.246 614,-348.246 617.5,-338.246 610.5,-338.246"/>
</g>
<!-- Node33 -->
<g id="node33" class="node"><title>Node33</title>
<g id="a_node33"><a xlink:href="../../d7/d9f/_j_s_o_n_node___mutex_8cpp.html" target="_top" xlink:title="JSON/JSONNode_Mutex.cpp">
<polygon fill="white" stroke="black" points="699.5,-290.5 699.5,-311.5 870.5,-311.5 870.5,-290.5 699.5,-290.5"/>
<text text-anchor="middle" x="785" y="-297.9" font-family="Helvetica,sans-Serif" font-size="12.00">JSON/JSONNode_Mutex.cpp</text>
</a>
</g>
</g>
<!-- Node4&#45;&gt;Node33 -->
<g id="edge39" class="edge"><title>Node4&#45;&gt;Node33</title>
<path fill="none" stroke="midnightblue" d="M653.115,-345.19C684.443,-334.931 727.687,-320.769 755.988,-311.501"/>
<polygon fill="midnightblue" stroke="midnightblue" points="651.81,-341.935 643.396,-348.373 653.989,-348.587 651.81,-341.935"/>
</g>
<!-- Node6 -->
<g id="node6" class="node"><title>Node6</title>
<g id="a_node6"><a xlink:href="../../d9/da7/_image_test_8h.html" target="_top" xlink:title="ImageTest.h">
<polygon fill="white" stroke="black" points="654,-174.5 654,-195.5 734,-195.5 734,-174.5 654,-174.5"/>
<text text-anchor="middle" x="694" y="-181.9" font-family="Helvetica,sans-Serif" font-size="12.00">ImageTest.h</text>
</a>
</g>
</g>
<!-- Node5&#45;&gt;Node6 -->
<g id="edge5" class="edge"><title>Node5&#45;&gt;Node6</title>
<path fill="none" stroke="midnightblue" d="M845.221,-230.337C810.031,-220.02 759.318,-205.151 726.509,-195.531"/>
<polygon fill="midnightblue" stroke="midnightblue" points="844.575,-233.795 855.156,-233.25 846.545,-227.078 844.575,-233.795"/>
</g>
<!-- Node20 -->
<g id="node20" class="node"><title>Node20</title>
<g id="a_node20"><a xlink:href="../../dc/d7a/_s_f_rplus_test_8cpp.html" target="_top" xlink:title="SFRplusTest.cpp">
<polygon fill="white" stroke="black" points="790.5,-58.5 790.5,-79.5 897.5,-79.5 897.5,-58.5 790.5,-58.5"/>
<text text-anchor="middle" x="844" y="-65.9" font-family="Helvetica,sans-Serif" font-size="12.00">SFRplusTest.cpp</text>
</a>
</g>
</g>
<!-- Node5&#45;&gt;Node20 -->
<g id="edge25" class="edge"><title>Node5&#45;&gt;Node20</title>
<path fill="none" stroke="midnightblue" d="M874.587,-223.465C870.395,-215.272 865.882,-205.386 863,-196 850.079,-153.915 845.765,-101.122 844.485,-79.6989"/>
<polygon fill="midnightblue" stroke="midnightblue" points="871.602,-225.305 879.407,-232.47 877.773,-222.002 871.602,-225.305"/>
</g>
<!-- Node21 -->
<g id="node21" class="node"><title>Node21</title>
<g id="a_node21"><a xlink:href="../../df/d2a/libjson_8cpp.html" target="_top" xlink:title="JSON/libjson.cpp">
<polygon fill="white" stroke="black" points="872.5,-174.5 872.5,-195.5 979.5,-195.5 979.5,-174.5 872.5,-174.5"/>
<text text-anchor="middle" x="926" y="-181.9" font-family="Helvetica,sans-Serif" font-size="12.00">JSON/libjson.cpp</text>
</a>
</g>
</g>
<!-- Node5&#45;&gt;Node21 -->
<g id="edge23" class="edge"><title>Node5&#45;&gt;Node21</title>
<path fill="none" stroke="midnightblue" d="M898.236,-223.921C905.121,-214.518 913.261,-203.4 918.94,-195.643"/>
<polygon fill="midnightblue" stroke="midnightblue" points="895.225,-222.109 892.142,-232.246 900.873,-226.244 895.225,-222.109"/>
</g>
<!-- Node22 -->
<g id="node22" class="node"><title>Node22</title>
<g id="a_node22"><a xlink:href="../../d7/d4a/jsonhelpers_8cpp.html" target="_top" xlink:title="jsonhelpers.cpp">
<polygon fill="white" stroke="black" points="998,-174.5 998,-195.5 1096,-195.5 1096,-174.5 998,-174.5"/>
<text text-anchor="middle" x="1047" y="-181.9" font-family="Helvetica,sans-Serif" font-size="12.00">jsonhelpers.cpp</text>
</a>
</g>
</g>
<!-- Node5&#45;&gt;Node22 -->
<g id="edge24" class="edge"><title>Node5&#45;&gt;Node22</title>
<path fill="none" stroke="midnightblue" d="M922.442,-229.057C952.09,-218.808 992.82,-204.729 1019.51,-195.501"/>
<polygon fill="midnightblue" stroke="midnightblue" points="921.157,-225.798 912.849,-232.373 923.444,-232.414 921.157,-225.798"/>
</g>
<!-- Node7 -->
<g id="node7" class="node"><title>Node7</title>
<g id="a_node7"><a xlink:href="../../dc/d69/_blemish_test_8h.html" target="_top" xlink:title="BlemishTest.h">
<polygon fill="white" stroke="black" points="576,-116.5 576,-137.5 666,-137.5 666,-116.5 576,-116.5"/>
<text text-anchor="middle" x="621" y="-123.9" font-family="Helvetica,sans-Serif" font-size="12.00">BlemishTest.h</text>
</a>
</g>
</g>
<!-- Node6&#45;&gt;Node7 -->
<g id="edge6" class="edge"><title>Node6&#45;&gt;Node7</title>
<path fill="none" stroke="midnightblue" d="M673.049,-167.928C660.289,-158.14 644.411,-145.959 633.57,-137.643"/>
<polygon fill="midnightblue" stroke="midnightblue" points="671.22,-170.936 681.284,-174.246 675.48,-165.382 671.22,-170.936"/>
</g>
<!-- Node8 -->
<g id="node8" class="node"><title>Node8</title>
<g id="a_node8"><a xlink:href="../../da/de6/_operator_console_8h.html" target="_top" xlink:title="OperatorConsole.h">
<polygon fill="white" stroke="black" points="656,-58.5 656,-79.5 772,-79.5 772,-58.5 656,-58.5"/>
<text text-anchor="middle" x="714" y="-65.9" font-family="Helvetica,sans-Serif" font-size="12.00">OperatorConsole.h</text>
</a>
</g>
</g>
<!-- Node6&#45;&gt;Node8 -->
<g id="edge18" class="edge"><title>Node6&#45;&gt;Node8</title>
<path fill="none" stroke="midnightblue" d="M697.465,-164.252C701.792,-139.584 709.026,-98.3525 712.299,-79.695"/>
<polygon fill="midnightblue" stroke="midnightblue" points="693.986,-163.826 695.705,-174.28 700.881,-165.036 693.986,-163.826"/>
</g>
<!-- Node11 -->
<g id="node11" class="node"><title>Node11</title>
<g id="a_node11"><a xlink:href="../../d8/d53/_image_test_8cpp.html" target="_top" xlink:title="ImageTest.cpp">
<polygon fill="white" stroke="black" points="265,-0.5 265,-21.5 359,-21.5 359,-0.5 265,-0.5"/>
<text text-anchor="middle" x="312" y="-7.9" font-family="Helvetica,sans-Serif" font-size="12.00">ImageTest.cpp</text>
</a>
</g>
</g>
<!-- Node6&#45;&gt;Node11 -->
<g id="edge22" class="edge"><title>Node6&#45;&gt;Node11</title>
<path fill="none" stroke="midnightblue" d="M655.259,-171.224C629.879,-162.547 596.134,-150.428 567,-138 475.705,-99.0544 370.572,-43.5903 329.611,-21.5557"/>
<polygon fill="midnightblue" stroke="midnightblue" points="654.3,-174.594 664.894,-174.49 656.547,-167.964 654.3,-174.594"/>
</g>
<!-- Node19 -->
<g id="node19" class="node"><title>Node19</title>
<g id="a_node19"><a xlink:href="../../d2/d9d/_s_f_rplus_test_8h.html" target="_top" xlink:title="SFRplusTest.h">
<polygon fill="white" stroke="black" points="722.5,-116.5 722.5,-137.5 815.5,-137.5 815.5,-116.5 722.5,-116.5"/>
<text text-anchor="middle" x="769" y="-123.9" font-family="Helvetica,sans-Serif" font-size="12.00">SFRplusTest.h</text>
</a>
</g>
</g>
<!-- Node6&#45;&gt;Node19 -->
<g id="edge19" class="edge"><title>Node6&#45;&gt;Node19</title>
<path fill="none" stroke="midnightblue" d="M715.148,-168.21C728.32,-158.374 744.84,-146.039 756.086,-137.643"/>
<polygon fill="midnightblue" stroke="midnightblue" points="712.983,-165.458 707.064,-174.246 717.171,-171.067 712.983,-165.458"/>
</g>
<!-- Node7&#45;&gt;Node8 -->
<g id="edge7" class="edge"><title>Node7&#45;&gt;Node8</title>
<path fill="none" stroke="midnightblue" d="M645.834,-111.046C662.381,-101.082 683.643,-88.2794 697.986,-79.6427"/>
<polygon fill="midnightblue" stroke="midnightblue" points="643.961,-108.089 637.199,-116.246 647.572,-114.085 643.961,-108.089"/>
</g>
<!-- Node18 -->
<g id="node18" class="node"><title>Node18</title>
<g id="a_node18"><a xlink:href="../../dd/d8a/_blemish_test_8cpp.html" target="_top" xlink:title="BlemishTest.cpp">
<polygon fill="white" stroke="black" points="534,-58.5 534,-79.5 638,-79.5 638,-58.5 534,-58.5"/>
<text text-anchor="middle" x="586" y="-65.9" font-family="Helvetica,sans-Serif" font-size="12.00">BlemishTest.cpp</text>
</a>
</g>
</g>
<!-- Node7&#45;&gt;Node18 -->
<g id="edge17" class="edge"><title>Node7&#45;&gt;Node18</title>
<path fill="none" stroke="midnightblue" d="M609.518,-107.63C603.68,-98.2887 596.825,-87.3197 592.027,-79.6427"/>
<polygon fill="midnightblue" stroke="midnightblue" points="606.635,-109.621 614.903,-116.246 612.571,-105.911 606.635,-109.621"/>
</g>
<!-- Node9 -->
<g id="node9" class="node"><title>Node9</title>
<g id="a_node9"><a xlink:href="../../d3/d22/_app_thread_8cpp.html" target="_top" xlink:title="AppThread.cpp">
<polygon fill="white" stroke="black" points="1220,-0.5 1220,-21.5 1318,-21.5 1318,-0.5 1220,-0.5"/>
<text text-anchor="middle" x="1269" y="-7.9" font-family="Helvetica,sans-Serif" font-size="12.00">AppThread.cpp</text>
</a>
</g>
</g>
<!-- Node8&#45;&gt;Node9 -->
<g id="edge8" class="edge"><title>Node8&#45;&gt;Node9</title>
<path fill="none" stroke="midnightblue" d="M782.168,-57.9341C973.22,-36.1814 1024.02,-45.8999 1211,-22 1213.94,-21.6243 1216.96,-21.2054 1220,-20.7579"/>
<polygon fill="midnightblue" stroke="midnightblue" points="781.608,-54.4754 772.074,-59.0976 782.409,-61.4294 781.608,-54.4754"/>
</g>
<!-- Node10 -->
<g id="node10" class="node"><title>Node10</title>
<g id="a_node10"><a xlink:href="../../d6/df7/_critical_buf_8cpp.html" target="_top" xlink:title="CriticalBuf.cpp">
<polygon fill="white" stroke="black" points="377.5,-0.5 377.5,-21.5 470.5,-21.5 470.5,-0.5 377.5,-0.5"/>
<text text-anchor="middle" x="424" y="-7.9" font-family="Helvetica,sans-Serif" font-size="12.00">CriticalBuf.cpp</text>
</a>
</g>
</g>
<!-- Node8&#45;&gt;Node10 -->
<g id="edge9" class="edge"><title>Node8&#45;&gt;Node10</title>
<path fill="none" stroke="midnightblue" d="M654.634,-56.5362C600.292,-46.0426 520.944,-30.7202 470.918,-21.06"/>
<polygon fill="midnightblue" stroke="midnightblue" points="653.994,-59.9773 664.477,-58.4369 655.322,-53.1043 653.994,-59.9773"/>
</g>
<!-- Node8&#45;&gt;Node11 -->
<g id="edge10" class="edge"><title>Node8&#45;&gt;Node11</title>
<path fill="none" stroke="midnightblue" d="M645.987,-57.8846C521.501,-40.7699 488.439,-40.5126 368,-22 365.072,-21.5499 362.06,-21.0679 359.026,-20.5678"/>
<polygon fill="midnightblue" stroke="midnightblue" points="645.52,-61.3533 655.906,-59.2572 646.48,-54.4193 645.52,-61.3533"/>
</g>
<!-- Node12 -->
<g id="node12" class="node"><title>Node12</title>
<g id="a_node12"><a xlink:href="../../df/d0a/main_8cpp.html" target="_top" xlink:title="main.cpp">
<polygon fill="white" stroke="black" points="488.5,-0.5 488.5,-21.5 553.5,-21.5 553.5,-0.5 488.5,-0.5"/>
<text text-anchor="middle" x="521" y="-7.9" font-family="Helvetica,sans-Serif" font-size="12.00">main.cpp</text>
</a>
</g>
</g>
<!-- Node8&#45;&gt;Node12 -->
<g id="edge11" class="edge"><title>Node8&#45;&gt;Node12</title>
<path fill="none" stroke="midnightblue" d="M670.768,-55.4561C635.34,-45.1765 585.963,-30.8494 553.745,-21.5011"/>
<polygon fill="midnightblue" stroke="midnightblue" points="670.243,-58.9479 680.822,-58.3733 672.194,-52.2252 670.243,-58.9479"/>
</g>
<!-- Node13 -->
<g id="node13" class="node"><title>Node13</title>
<g id="a_node13"><a xlink:href="../../de/da2/_operator_console_8cpp.html" target="_top" xlink:title="OperatorConsole.cpp">
<polygon fill="white" stroke="black" points="571.5,-0.5 571.5,-21.5 700.5,-21.5 700.5,-0.5 571.5,-0.5"/>
<text text-anchor="middle" x="636" y="-7.9" font-family="Helvetica,sans-Serif" font-size="12.00">OperatorConsole.cpp</text>
</a>
</g>
</g>
<!-- Node8&#45;&gt;Node13 -->
<g id="edge12" class="edge"><title>Node8&#45;&gt;Node13</title>
<path fill="none" stroke="midnightblue" d="M692.006,-52.2097C678.307,-42.3743 661.126,-30.0394 649.431,-21.6427"/>
<polygon fill="midnightblue" stroke="midnightblue" points="690.249,-55.2566 700.413,-58.2455 694.331,-49.5703 690.249,-55.2566"/>
</g>
<!-- Node14 -->
<g id="node14" class="node"><title>Node14</title>
<g id="a_node14"><a xlink:href="../../d8/d29/_operator_console_dlg_8cpp.html" target="_top" xlink:title="OperatorConsoleDlg.cpp">
<polygon fill="white" stroke="black" points="718.5,-0.5 718.5,-21.5 865.5,-21.5 865.5,-0.5 718.5,-0.5"/>
<text text-anchor="middle" x="792" y="-7.9" font-family="Helvetica,sans-Serif" font-size="12.00">OperatorConsoleDlg.cpp</text>
</a>
</g>
</g>
<!-- Node8&#45;&gt;Node14 -->
<g id="edge13" class="edge"><title>Node8&#45;&gt;Node14</title>
<path fill="none" stroke="midnightblue" d="M735.994,-52.2097C749.693,-42.3743 766.874,-30.0394 778.569,-21.6427"/>
<polygon fill="midnightblue" stroke="midnightblue" points="733.669,-49.5703 727.587,-58.2455 737.751,-55.2566 733.669,-49.5703"/>
</g>
<!-- Node15 -->
<g id="node15" class="node"><title>Node15</title>
<g id="a_node15"><a xlink:href="../../d0/d57/_pass_fail_8cpp.html" target="_top" xlink:title="PassFail.cpp">
<polygon fill="white" stroke="black" points="884,-0.5 884,-21.5 970,-21.5 970,-0.5 884,-0.5"/>
<text text-anchor="middle" x="927" y="-7.9" font-family="Helvetica,sans-Serif" font-size="12.00">PassFail.cpp</text>
</a>
</g>
</g>
<!-- Node8&#45;&gt;Node15 -->
<g id="edge14" class="edge"><title>Node8&#45;&gt;Node15</title>
<path fill="none" stroke="midnightblue" d="M760.458,-55.7856C799.639,-45.4845 854.924,-30.9497 890.862,-21.5011"/>
<polygon fill="midnightblue" stroke="midnightblue" points="759.397,-52.4455 750.616,-58.3733 761.177,-59.2155 759.397,-52.4455"/>
</g>
<!-- Node16 -->
<g id="node16" class="node"><title>Node16</title>
<g id="a_node16"><a xlink:href="../../da/d46/_password_dialog_8cpp.html" target="_top" xlink:title="PasswordDialog.cpp">
<polygon fill="white" stroke="black" points="988,-0.5 988,-21.5 1114,-21.5 1114,-0.5 988,-0.5"/>
<text text-anchor="middle" x="1051" y="-7.9" font-family="Helvetica,sans-Serif" font-size="12.00">PasswordDialog.cpp</text>
</a>
</g>
</g>
<!-- Node8&#45;&gt;Node16 -->
<g id="edge15" class="edge"><title>Node8&#45;&gt;Node16</title>
<path fill="none" stroke="midnightblue" d="M781.655,-56.7577C843.838,-46.4245 935.01,-31.2743 993.688,-21.5237"/>
<polygon fill="midnightblue" stroke="midnightblue" points="780.84,-53.3449 771.549,-58.4369 781.988,-60.2502 780.84,-53.3449"/>
</g>
<!-- Node17 -->
<g id="node17" class="node"><title>Node17</title>
<g id="a_node17"><a xlink:href="../../d5/d27/_setup_8cpp.html" target="_top" xlink:title="Setup.cpp">
<polygon fill="white" stroke="black" points="1132,-0.5 1132,-21.5 1202,-21.5 1202,-0.5 1132,-0.5"/>
<text text-anchor="middle" x="1167" y="-7.9" font-family="Helvetica,sans-Serif" font-size="12.00">Setup.cpp</text>
</a>
</g>
</g>
<!-- Node8&#45;&gt;Node17 -->
<g id="edge16" class="edge"><title>Node8&#45;&gt;Node17</title>
<path fill="none" stroke="midnightblue" d="M782.265,-57.8942C934.371,-39.0543 975.455,-46.4435 1123,-22 1125.78,-21.5391 1128.65,-21.01 1131.53,-20.4411"/>
<polygon fill="midnightblue" stroke="midnightblue" points="781.569,-54.4541 772.083,-59.1737 782.442,-61.3995 781.569,-54.4541"/>
</g>
<!-- Node19&#45;&gt;Node8 -->
<g id="edge20" class="edge"><title>Node19&#45;&gt;Node8</title>
<path fill="none" stroke="midnightblue" d="M752.377,-109.075C742.915,-99.4402 731.403,-87.7196 723.47,-79.6427"/>
<polygon fill="midnightblue" stroke="midnightblue" points="749.916,-111.564 759.42,-116.246 754.91,-106.659 749.916,-111.564"/>
</g>
<!-- Node19&#45;&gt;Node20 -->
<g id="edge21" class="edge"><title>Node19&#45;&gt;Node20</title>
<path fill="none" stroke="midnightblue" d="M790.148,-110.21C803.32,-100.374 819.84,-88.0394 831.086,-79.6427"/>
<polygon fill="midnightblue" stroke="midnightblue" points="787.983,-107.458 782.064,-116.246 792.171,-113.067 787.983,-107.458"/>
</g>
<!-- Node23&#45;&gt;Node5 -->
<g id="edge27" class="edge"><title>Node23&#45;&gt;Node5</title>
<path fill="none" stroke="midnightblue" d="M335.2,-293.262C473.341,-280.885 761.898,-255.03 855.205,-246.67"/>
<polygon fill="midnightblue" stroke="midnightblue" points="334.765,-289.787 325.117,-294.165 335.39,-296.759 334.765,-289.787"/>
</g>
<!-- Node23&#45;&gt;Node24 -->
<g id="edge28" class="edge"><title>Node23&#45;&gt;Node24</title>
<path fill="none" stroke="midnightblue" d="M220.386,-287.324C188.292,-277.054 143.779,-262.809 114.691,-253.501"/>
<polygon fill="midnightblue" stroke="midnightblue" points="219.325,-290.659 229.916,-290.373 221.459,-283.992 219.325,-290.659"/>
</g>
<!-- Node25 -->
<g id="node25" class="node"><title>Node25</title>
<g id="a_node25"><a xlink:href="../../d4/d80/_j_s_o_n_stream_8cpp.html" target="_top" xlink:title="JSON/JSONStream.cpp">
<polygon fill="white" stroke="black" points="349.5,-232.5 349.5,-253.5 492.5,-253.5 492.5,-232.5 349.5,-232.5"/>
<text text-anchor="middle" x="421" y="-239.9" font-family="Helvetica,sans-Serif" font-size="12.00">JSON/JSONStream.cpp</text>
</a>
</g>
</g>
<!-- Node23&#45;&gt;Node25 -->
<g id="edge29" class="edge"><title>Node23&#45;&gt;Node25</title>
<path fill="none" stroke="midnightblue" d="M297.211,-287.057C326.676,-276.808 367.154,-262.729 393.684,-253.501"/>
<polygon fill="midnightblue" stroke="midnightblue" points="295.972,-283.782 287.677,-290.373 298.272,-290.394 295.972,-283.782"/>
</g>
<!-- Node26 -->
<g id="node26" class="node"><title>Node26</title>
<g id="a_node26"><a xlink:href="../../d1/d6f/_j_s_o_n_worker_8cpp.html" target="_top" xlink:title="JSON/JSONWorker.cpp">
<polygon fill="white" stroke="black" points="188.5,-232.5 188.5,-253.5 331.5,-253.5 331.5,-232.5 188.5,-232.5"/>
<text text-anchor="middle" x="260" y="-239.9" font-family="Helvetica,sans-Serif" font-size="12.00">JSON/JSONWorker.cpp</text>
</a>
</g>
</g>
<!-- Node23&#45;&gt;Node26 -->
<g id="edge30" class="edge"><title>Node23&#45;&gt;Node26</title>
<path fill="none" stroke="midnightblue" d="M260,-280.158C260,-271.155 260,-260.92 260,-253.643"/>
<polygon fill="midnightblue" stroke="midnightblue" points="256.5,-280.246 260,-290.246 263.5,-280.246 256.5,-280.246"/>
</g>
<!-- Node23&#45;&gt;Node27 -->
<g id="edge31" class="edge"><title>Node23&#45;&gt;Node27</title>
<path fill="none" stroke="midnightblue" d="M324.405,-288.694C383.259,-278.362 469.32,-263.254 524.749,-253.524"/>
<polygon fill="midnightblue" stroke="midnightblue" points="323.72,-285.26 314.476,-290.437 324.93,-292.155 323.72,-285.26"/>
</g>
<!-- Node28&#45;&gt;Node5 -->
<g id="edge33" class="edge"><title>Node28&#45;&gt;Node5</title>
<path fill="none" stroke="midnightblue" d="M968.674,-285.837C948.428,-275.714 921.736,-262.368 904.002,-253.501"/>
<polygon fill="midnightblue" stroke="midnightblue" points="967.237,-289.032 977.747,-290.373 970.367,-282.771 967.237,-289.032"/>
</g>
<!-- Node29 -->
<g id="node29" class="node"><title>Node29</title>
<g id="a_node29"><a xlink:href="../../d2/d18/_j_s_o_n_preparse_8cpp.html" target="_top" xlink:title="JSON/JSONPreparse.cpp">
<polygon fill="white" stroke="black" points="933,-232.5 933,-253.5 1087,-253.5 1087,-232.5 933,-232.5"/>
<text text-anchor="middle" x="1010" y="-239.9" font-family="Helvetica,sans-Serif" font-size="12.00">JSON/JSONPreparse.cpp</text>
</a>
</g>
</g>
<!-- Node28&#45;&gt;Node29 -->
<g id="edge34" class="edge"><title>Node28&#45;&gt;Node29</title>
<path fill="none" stroke="midnightblue" d="M1001.54,-280.454C1003.64,-271.38 1006.05,-261 1007.76,-253.643"/>
<polygon fill="midnightblue" stroke="midnightblue" points="998.116,-279.713 999.264,-290.246 1004.94,-281.296 998.116,-279.713"/>
</g>
</g>
</svg>
