<?xml version="1.0" encoding="UTF-8" standalone="no"?>
<!DOCTYPE svg PUBLIC "-//W3C//DTD SVG 1.1//EN"
 "http://www.w3.org/Graphics/SVG/1.1/DTD/svg11.dtd">
<!-- Generated by graphviz version 2.34.0 (20130907.0111)
 -->
<!-- Title: Timer.h Pages: 1 -->
<svg width="175pt" height="88pt"
 viewBox="0.00 0.00 175.00 88.00" xmlns="http://www.w3.org/2000/svg" xmlns:xlink="http://www.w3.org/1999/xlink">
<g id="graph0" class="graph" transform="scale(1 1) rotate(0) translate(4 84)">
<title>Timer.h</title>
<polygon fill="white" stroke="white" points="-4,4 -4,-84 171,-84 171,4 -4,4"/>
<!-- Node1 -->
<g id="node1" class="node"><title>Node1</title>
<polygon fill="#bfbfbf" stroke="black" points="55,-58.5 55,-79.5 111,-79.5 111,-58.5 55,-58.5"/>
<text text-anchor="middle" x="83" y="-65.9" font-family="Helvetica,sans-Serif" font-size="12.00">Timer.h</text>
</g>
<!-- Node2 -->
<g id="node2" class="node"><title>Node2</title>
<polygon fill="white" stroke="#bfbfbf" points="0,-0.5 0,-21.5 74,-21.5 74,-0.5 0,-0.5"/>
<text text-anchor="middle" x="37" y="-7.9" font-family="Helvetica,sans-Serif" font-size="12.00">sys/types.h</text>
</g>
<!-- Node1&#45;&gt;Node2 -->
<g id="edge1" class="edge"><title>Node1&#45;&gt;Node2</title>
<path fill="none" stroke="midnightblue" d="M74.9874,-58.2455C68.5232,-50.3761 59.2615,-39.101 51.5017,-29.6542"/>
<polygon fill="midnightblue" stroke="midnightblue" points="53.9727,-27.1484 44.9208,-21.6427 48.5636,-31.5916 53.9727,-27.1484"/>
</g>
<!-- Node3 -->
<g id="node3" class="node"><title>Node3</title>
<polygon fill="white" stroke="#bfbfbf" points="92.5,-0.5 92.5,-21.5 167.5,-21.5 167.5,-0.5 92.5,-0.5"/>
<text text-anchor="middle" x="130" y="-7.9" font-family="Helvetica,sans-Serif" font-size="12.00">sys/timeb.h</text>
</g>
<!-- Node1&#45;&gt;Node3 -->
<g id="edge2" class="edge"><title>Node1&#45;&gt;Node3</title>
<path fill="none" stroke="midnightblue" d="M91.1868,-58.2455C97.8589,-50.2958 107.448,-38.8706 115.425,-29.3656"/>
<polygon fill="midnightblue" stroke="midnightblue" points="118.159,-31.5525 121.907,-21.6427 112.797,-27.0524 118.159,-31.5525"/>
</g>
</g>
</svg>
