<?xml version="1.0" encoding="UTF-8" standalone="no"?>
<!DOCTYPE svg PUBLIC "-//W3C//DTD SVG 1.1//EN"
 "http://www.w3.org/Graphics/SVG/1.1/DTD/svg11.dtd">
<!-- Generated by graphviz version 2.34.0 (20130907.0111)
 -->
<!-- Title: Documentation/Operator&#45;Console/Timestamp.h Pages: 1 -->
<svg width="1580pt" height="332pt"
 viewBox="0.00 0.00 1580.00 332.00" xmlns="http://www.w3.org/2000/svg" xmlns:xlink="http://www.w3.org/1999/xlink">
<g id="graph0" class="graph" transform="scale(1 1) rotate(0) translate(4 328)">
<title>Documentation/Operator&#45;Console/Timestamp.h</title>
<polygon fill="white" stroke="white" points="-4,4 -4,-328 1576,-328 1576,4 -4,4"/>
<!-- Node1 -->
<g id="node1" class="node"><title>Node1</title>
<polygon fill="#bfbfbf" stroke="black" points="1045.5,-289 1045.5,-323 1190.5,-323 1190.5,-289 1045.5,-289"/>
<text text-anchor="start" x="1053.5" y="-309.4" font-family="Helvetica,sans-Serif" font-size="12.00">Documentation/Operator</text>
<text text-anchor="middle" x="1118" y="-296.4" font-family="Helvetica,sans-Serif" font-size="12.00">&#45;Console/Timestamp.h</text>
</g>
<!-- Node2 -->
<g id="node2" class="node"><title>Node2</title>
<g id="a_node2"><a xlink:href="../../d5/dd6/_documentation_2_operator-_console_2_image_test_8h.html" target="_top" xlink:title="Documentation/Operator\l&#45;Console/ImageTest.h">
<polygon fill="white" stroke="black" points="685.5,-217 685.5,-251 830.5,-251 830.5,-217 685.5,-217"/>
<text text-anchor="start" x="693.5" y="-237.4" font-family="Helvetica,sans-Serif" font-size="12.00">Documentation/Operator</text>
<text text-anchor="middle" x="758" y="-224.4" font-family="Helvetica,sans-Serif" font-size="12.00">&#45;Console/ImageTest.h</text>
</a>
</g>
</g>
<!-- Node1&#45;&gt;Node2 -->
<g id="edge1" class="edge"><title>Node1&#45;&gt;Node2</title>
<path fill="none" stroke="midnightblue" d="M1035.05,-288.871C973.324,-276.869 889.878,-260.643 830.743,-249.144"/>
<polygon fill="midnightblue" stroke="midnightblue" points="1034.66,-292.361 1045.15,-290.834 1036,-285.49 1034.66,-292.361"/>
</g>
<!-- Node17 -->
<g id="node17" class="node"><title>Node17</title>
<g id="a_node17"><a xlink:href="../../d4/dde/_documentation_2_operator-_console_2_operator_console_dlg_8h.html" target="_top" xlink:title="Documentation/Operator\l&#45;Console/OperatorConsoleDlg.h">
<polygon fill="white" stroke="black" points="1185,-73 1185,-107 1369,-107 1369,-73 1185,-73"/>
<text text-anchor="start" x="1193" y="-93.4" font-family="Helvetica,sans-Serif" font-size="12.00">Documentation/Operator</text>
<text text-anchor="middle" x="1277" y="-80.4" font-family="Helvetica,sans-Serif" font-size="12.00">&#45;Console/OperatorConsoleDlg.h</text>
</a>
</g>
</g>
<!-- Node1&#45;&gt;Node17 -->
<g id="edge19" class="edge"><title>Node1&#45;&gt;Node17</title>
<path fill="none" stroke="midnightblue" d="M1119.31,-278.696C1121.22,-260.107 1125.86,-235.188 1137,-216 1165.06,-167.676 1218.36,-127.999 1250.48,-107.071"/>
<polygon fill="midnightblue" stroke="midnightblue" points="1115.81,-278.562 1118.47,-288.817 1122.78,-279.141 1115.81,-278.562"/>
</g>
<!-- Node18 -->
<g id="node18" class="node"><title>Node18</title>
<g id="a_node18"><a xlink:href="../../da/db1/_documentation_2_operator-_console_2_timestamp_8cpp.html" target="_top" xlink:title="Documentation/Operator\l&#45;Console/Timestamp.cpp">
<polygon fill="white" stroke="black" points="1146,-217 1146,-251 1294,-251 1294,-217 1146,-217"/>
<text text-anchor="start" x="1154" y="-237.4" font-family="Helvetica,sans-Serif" font-size="12.00">Documentation/Operator</text>
<text text-anchor="middle" x="1220" y="-224.4" font-family="Helvetica,sans-Serif" font-size="12.00">&#45;Console/Timestamp.cpp</text>
</a>
</g>
</g>
<!-- Node1&#45;&gt;Node18 -->
<g id="edge22" class="edge"><title>Node1&#45;&gt;Node18</title>
<path fill="none" stroke="midnightblue" d="M1149.9,-283.107C1164.93,-272.793 1182.54,-260.706 1196.35,-251.227"/>
<polygon fill="midnightblue" stroke="midnightblue" points="1147.67,-280.396 1141.4,-288.941 1151.63,-286.168 1147.67,-280.396"/>
</g>
<!-- Node3 -->
<g id="node3" class="node"><title>Node3</title>
<g id="a_node3"><a xlink:href="../../da/df8/_documentation_2_operator-_console_2_blemish_test_8h.html" target="_top" xlink:title="Documentation/Operator\l&#45;Console/BlemishTest.h">
<polygon fill="white" stroke="black" points="584.5,-145 584.5,-179 729.5,-179 729.5,-145 584.5,-145"/>
<text text-anchor="start" x="592.5" y="-165.4" font-family="Helvetica,sans-Serif" font-size="12.00">Documentation/Operator</text>
<text text-anchor="middle" x="657" y="-152.4" font-family="Helvetica,sans-Serif" font-size="12.00">&#45;Console/BlemishTest.h</text>
</a>
</g>
</g>
<!-- Node2&#45;&gt;Node3 -->
<g id="edge2" class="edge"><title>Node2&#45;&gt;Node3</title>
<path fill="none" stroke="midnightblue" d="M726.411,-211.107C711.531,-200.793 694.09,-188.706 680.413,-179.227"/>
<polygon fill="midnightblue" stroke="midnightblue" points="724.616,-214.121 734.829,-216.941 728.603,-208.368 724.616,-214.121"/>
</g>
<!-- Node4 -->
<g id="node4" class="node"><title>Node4</title>
<g id="a_node4"><a xlink:href="../../da/d65/_documentation_2_operator-_console_2_operator_console_8h.html" target="_top" xlink:title="Documentation/Operator\l&#45;Console/OperatorConsole.h">
<polygon fill="white" stroke="black" points="675,-73 675,-107 841,-107 841,-73 675,-73"/>
<text text-anchor="start" x="683" y="-93.4" font-family="Helvetica,sans-Serif" font-size="12.00">Documentation/Operator</text>
<text text-anchor="middle" x="758" y="-80.4" font-family="Helvetica,sans-Serif" font-size="12.00">&#45;Console/OperatorConsole.h</text>
</a>
</g>
</g>
<!-- Node2&#45;&gt;Node4 -->
<g id="edge14" class="edge"><title>Node2&#45;&gt;Node4</title>
<path fill="none" stroke="midnightblue" d="M758,-206.726C758,-177.574 758,-131.451 758,-107.173"/>
<polygon fill="midnightblue" stroke="midnightblue" points="754.5,-206.987 758,-216.987 761.5,-206.987 754.5,-206.987"/>
</g>
<!-- Node7 -->
<g id="node7" class="node"><title>Node7</title>
<g id="a_node7"><a xlink:href="../../da/df9/_documentation_2_operator-_console_2_image_test_8cpp.html" target="_top" xlink:title="Documentation/Operator\l&#45;Console/ImageTest.cpp">
<polygon fill="white" stroke="black" points="-0.5,-1 -0.5,-35 144.5,-35 144.5,-1 -0.5,-1"/>
<text text-anchor="start" x="7.5" y="-21.4" font-family="Helvetica,sans-Serif" font-size="12.00">Documentation/Operator</text>
<text text-anchor="middle" x="72" y="-8.4" font-family="Helvetica,sans-Serif" font-size="12.00">&#45;Console/ImageTest.cpp</text>
</a>
</g>
</g>
<!-- Node2&#45;&gt;Node7 -->
<g id="edge18" class="edge"><title>Node2&#45;&gt;Node7</title>
<path fill="none" stroke="midnightblue" d="M690.984,-214.075C656.296,-204.157 613.3,-191.673 575,-180 407.698,-129.009 210.45,-64.6195 120.768,-35.1085"/>
<polygon fill="midnightblue" stroke="midnightblue" points="690.425,-217.555 701.002,-216.934 692.346,-210.824 690.425,-217.555"/>
</g>
<!-- Node15 -->
<g id="node15" class="node"><title>Node15</title>
<g id="a_node15"><a xlink:href="../../d5/d79/_documentation_2_operator-_console_2_s_f_rplus_test_8h.html" target="_top" xlink:title="Documentation/Operator\l&#45;Console/SFRplusTest.h">
<polygon fill="white" stroke="black" points="786.5,-145 786.5,-179 931.5,-179 931.5,-145 786.5,-145"/>
<text text-anchor="start" x="794.5" y="-165.4" font-family="Helvetica,sans-Serif" font-size="12.00">Documentation/Operator</text>
<text text-anchor="middle" x="859" y="-152.4" font-family="Helvetica,sans-Serif" font-size="12.00">&#45;Console/SFRplusTest.h</text>
</a>
</g>
</g>
<!-- Node2&#45;&gt;Node15 -->
<g id="edge15" class="edge"><title>Node2&#45;&gt;Node15</title>
<path fill="none" stroke="midnightblue" d="M789.589,-211.107C804.469,-200.793 821.91,-188.706 835.587,-179.227"/>
<polygon fill="midnightblue" stroke="midnightblue" points="787.397,-208.368 781.171,-216.941 791.384,-214.121 787.397,-208.368"/>
</g>
<!-- Node3&#45;&gt;Node4 -->
<g id="edge3" class="edge"><title>Node3&#45;&gt;Node4</title>
<path fill="none" stroke="midnightblue" d="M688.589,-139.107C703.469,-128.793 720.91,-116.706 734.587,-107.227"/>
<polygon fill="midnightblue" stroke="midnightblue" points="686.397,-136.368 680.171,-144.941 690.384,-142.121 686.397,-136.368"/>
</g>
<!-- Node14 -->
<g id="node14" class="node"><title>Node14</title>
<g id="a_node14"><a xlink:href="../../dc/d58/_documentation_2_operator-_console_2_blemish_test_8cpp.html" target="_top" xlink:title="Documentation/Operator\l&#45;Console/BlemishTest.cpp">
<polygon fill="white" stroke="black" points="503,-73 503,-107 657,-107 657,-73 503,-73"/>
<text text-anchor="start" x="511" y="-93.4" font-family="Helvetica,sans-Serif" font-size="12.00">Documentation/Operator</text>
<text text-anchor="middle" x="580" y="-80.4" font-family="Helvetica,sans-Serif" font-size="12.00">&#45;Console/BlemishTest.cpp</text>
</a>
</g>
</g>
<!-- Node3&#45;&gt;Node14 -->
<g id="edge13" class="edge"><title>Node3&#45;&gt;Node14</title>
<path fill="none" stroke="midnightblue" d="M631.446,-137.769C620.404,-127.731 607.755,-116.232 597.762,-107.147"/>
<polygon fill="midnightblue" stroke="midnightblue" points="629.387,-140.628 639.141,-144.765 634.096,-135.448 629.387,-140.628"/>
</g>
<!-- Node5 -->
<g id="node5" class="node"><title>Node5</title>
<g id="a_node5"><a xlink:href="../../d7/d4b/_documentation_2_operator-_console_2_app_thread_8cpp.html" target="_top" xlink:title="Documentation/Operator\l&#45;Console/AppThread.cpp">
<polygon fill="white" stroke="black" points="684,-1 684,-35 832,-35 832,-1 684,-1"/>
<text text-anchor="start" x="692" y="-21.4" font-family="Helvetica,sans-Serif" font-size="12.00">Documentation/Operator</text>
<text text-anchor="middle" x="758" y="-8.4" font-family="Helvetica,sans-Serif" font-size="12.00">&#45;Console/AppThread.cpp</text>
</a>
</g>
</g>
<!-- Node4&#45;&gt;Node5 -->
<g id="edge4" class="edge"><title>Node4&#45;&gt;Node5</title>
<path fill="none" stroke="midnightblue" d="M758,-62.5079C758,-53.3027 758,-43.2615 758,-35.1473"/>
<polygon fill="midnightblue" stroke="midnightblue" points="754.5,-62.7646 758,-72.7646 761.5,-62.7647 754.5,-62.7646"/>
</g>
<!-- Node6 -->
<g id="node6" class="node"><title>Node6</title>
<g id="a_node6"><a xlink:href="../../de/d31/_documentation_2_operator-_console_2_critical_buf_8cpp.html" target="_top" xlink:title="Documentation/Operator\l&#45;Console/CriticalBuf.cpp">
<polygon fill="white" stroke="black" points="850.5,-1 850.5,-35 995.5,-35 995.5,-1 850.5,-1"/>
<text text-anchor="start" x="858.5" y="-21.4" font-family="Helvetica,sans-Serif" font-size="12.00">Documentation/Operator</text>
<text text-anchor="middle" x="923" y="-8.4" font-family="Helvetica,sans-Serif" font-size="12.00">&#45;Console/CriticalBuf.cpp</text>
</a>
</g>
</g>
<!-- Node4&#45;&gt;Node6 -->
<g id="edge5" class="edge"><title>Node4&#45;&gt;Node6</title>
<path fill="none" stroke="midnightblue" d="M805.259,-68.9508C830.561,-58.2168 861.308,-45.1723 885.036,-35.1057"/>
<polygon fill="midnightblue" stroke="midnightblue" points="803.693,-65.813 795.854,-72.9406 806.427,-72.2571 803.693,-65.813"/>
</g>
<!-- Node4&#45;&gt;Node7 -->
<g id="edge6" class="edge"><title>Node4&#45;&gt;Node7</title>
<path fill="none" stroke="midnightblue" d="M664.581,-71.9119C437.472,-43.8904 376.057,-67.085 153,-36 150.296,-35.6232 147.547,-35.2086 144.775,-34.7641"/>
<polygon fill="midnightblue" stroke="midnightblue" points="664.463,-75.4244 674.821,-73.1959 665.334,-68.4788 664.463,-75.4244"/>
</g>
<!-- Node8 -->
<g id="node8" class="node"><title>Node8</title>
<g id="a_node8"><a xlink:href="../../d4/d9c/_msg_dialog_8cpp.html" target="_top" xlink:title="Documentation/Operator\l&#45;Console/MsgDialog.cpp">
<polygon fill="white" stroke="black" points="1014,-1 1014,-35 1160,-35 1160,-1 1014,-1"/>
<text text-anchor="start" x="1022" y="-21.4" font-family="Helvetica,sans-Serif" font-size="12.00">Documentation/Operator</text>
<text text-anchor="middle" x="1087" y="-8.4" font-family="Helvetica,sans-Serif" font-size="12.00">&#45;Console/MsgDialog.cpp</text>
</a>
</g>
</g>
<!-- Node4&#45;&gt;Node8 -->
<g id="edge7" class="edge"><title>Node4&#45;&gt;Node8</title>
<path fill="none" stroke="midnightblue" d="M843.512,-70.806C896.362,-59.5612 963.476,-45.2817 1013.85,-34.5633"/>
<polygon fill="midnightblue" stroke="midnightblue" points="842.532,-67.4361 833.479,-72.9406 843.989,-74.2828 842.532,-67.4361"/>
</g>
<!-- Node9 -->
<g id="node9" class="node"><title>Node9</title>
<g id="a_node9"><a xlink:href="../../db/db5/_documentation_2_operator-_console_2_operator_console_8cpp.html" target="_top" xlink:title="Documentation/Operator\l&#45;Console/OperatorConsole.cpp">
<polygon fill="white" stroke="black" points="1393.5,-1 1393.5,-35 1572.5,-35 1572.5,-1 1393.5,-1"/>
<text text-anchor="start" x="1401.5" y="-21.4" font-family="Helvetica,sans-Serif" font-size="12.00">Documentation/Operator</text>
<text text-anchor="middle" x="1483" y="-8.4" font-family="Helvetica,sans-Serif" font-size="12.00">&#45;Console/OperatorConsole.cpp</text>
</a>
</g>
</g>
<!-- Node4&#45;&gt;Node9 -->
<g id="edge8" class="edge"><title>Node4&#45;&gt;Node9</title>
<path fill="none" stroke="midnightblue" d="M851.118,-71.9497C1087.74,-42.9267 1151.03,-63.7808 1384,-36 1387.12,-35.6283 1390.29,-35.2249 1393.48,-34.7959"/>
<polygon fill="midnightblue" stroke="midnightblue" points="850.669,-68.4784 841.178,-73.1856 851.533,-75.425 850.669,-68.4784"/>
</g>
<!-- Node10 -->
<g id="node10" class="node"><title>Node10</title>
<g id="a_node10"><a xlink:href="../../dd/dcb/_documentation_2_operator-_console_2_operator_console_dlg_8cpp.html" target="_top" xlink:title="Documentation/Operator\l&#45;Console/OperatorConsoleDlg.cpp">
<polygon fill="white" stroke="black" points="1178.5,-1 1178.5,-35 1375.5,-35 1375.5,-1 1178.5,-1"/>
<text text-anchor="start" x="1186.5" y="-21.4" font-family="Helvetica,sans-Serif" font-size="12.00">Documentation/Operator</text>
<text text-anchor="middle" x="1277" y="-8.4" font-family="Helvetica,sans-Serif" font-size="12.00">&#45;Console/OperatorConsoleDlg.cpp</text>
</a>
</g>
</g>
<!-- Node4&#45;&gt;Node10 -->
<g id="edge9" class="edge"><title>Node4&#45;&gt;Node10</title>
<path fill="none" stroke="midnightblue" d="M851.134,-71.8895C992.819,-51.1956 1030.78,-54.6683 1169,-36 1172.1,-35.5808 1175.26,-35.145 1178.44,-34.6965"/>
<polygon fill="midnightblue" stroke="midnightblue" points="850.583,-68.4329 841.201,-73.3548 851.605,-75.3579 850.583,-68.4329"/>
</g>
<!-- Node11 -->
<g id="node11" class="node"><title>Node11</title>
<g id="a_node11"><a xlink:href="../../dd/d14/_documentation_2_operator-_console_2_pass_fail_8cpp.html" target="_top" xlink:title="Documentation/Operator\l&#45;Console/PassFail.cpp">
<polygon fill="white" stroke="black" points="162.5,-1 162.5,-35 307.5,-35 307.5,-1 162.5,-1"/>
<text text-anchor="start" x="170.5" y="-21.4" font-family="Helvetica,sans-Serif" font-size="12.00">Documentation/Operator</text>
<text text-anchor="middle" x="235" y="-8.4" font-family="Helvetica,sans-Serif" font-size="12.00">&#45;Console/PassFail.cpp</text>
</a>
</g>
</g>
<!-- Node4&#45;&gt;Node11 -->
<g id="edge10" class="edge"><title>Node4&#45;&gt;Node11</title>
<path fill="none" stroke="midnightblue" d="M664.456,-71.8498C509.857,-50.231 467.787,-59.3456 317,-36 313.983,-35.5329 310.909,-35.028 307.808,-34.4947"/>
<polygon fill="midnightblue" stroke="midnightblue" points="664.412,-75.3785 674.804,-73.3189 665.396,-68.448 664.412,-75.3785"/>
</g>
<!-- Node12 -->
<g id="node12" class="node"><title>Node12</title>
<g id="a_node12"><a xlink:href="../../dd/d4b/_documentation_2_operator-_console_2_password_dialog_8cpp.html" target="_top" xlink:title="Documentation/Operator\l&#45;Console/PasswordDialog.cpp">
<polygon fill="white" stroke="black" points="326,-1 326,-35 502,-35 502,-1 326,-1"/>
<text text-anchor="start" x="334" y="-21.4" font-family="Helvetica,sans-Serif" font-size="12.00">Documentation/Operator</text>
<text text-anchor="middle" x="414" y="-8.4" font-family="Helvetica,sans-Serif" font-size="12.00">&#45;Console/PasswordDialog.cpp</text>
</a>
</g>
</g>
<!-- Node4&#45;&gt;Node12 -->
<g id="edge11" class="edge"><title>Node4&#45;&gt;Node12</title>
<path fill="none" stroke="midnightblue" d="M669.079,-70.9056C614.567,-59.813 545.403,-45.7389 492.851,-35.0452"/>
<polygon fill="midnightblue" stroke="midnightblue" points="668.582,-74.3762 679.079,-72.9406 669.978,-67.5168 668.582,-74.3762"/>
</g>
<!-- Node13 -->
<g id="node13" class="node"><title>Node13</title>
<g id="a_node13"><a xlink:href="../../d3/d68/_documentation_2_operator-_console_2_setup_8cpp.html" target="_top" xlink:title="Documentation/Operator\l&#45;Console/Setup.cpp">
<polygon fill="white" stroke="black" points="520.5,-1 520.5,-35 665.5,-35 665.5,-1 520.5,-1"/>
<text text-anchor="start" x="528.5" y="-21.4" font-family="Helvetica,sans-Serif" font-size="12.00">Documentation/Operator</text>
<text text-anchor="middle" x="593" y="-8.4" font-family="Helvetica,sans-Serif" font-size="12.00">&#45;Console/Setup.cpp</text>
</a>
</g>
</g>
<!-- Node4&#45;&gt;Node13 -->
<g id="edge12" class="edge"><title>Node4&#45;&gt;Node13</title>
<path fill="none" stroke="midnightblue" d="M710.741,-68.9508C685.439,-58.2168 654.692,-45.1723 630.964,-35.1057"/>
<polygon fill="midnightblue" stroke="midnightblue" points="709.573,-72.2571 720.146,-72.9406 712.307,-65.813 709.573,-72.2571"/>
</g>
<!-- Node15&#45;&gt;Node4 -->
<g id="edge16" class="edge"><title>Node15&#45;&gt;Node4</title>
<path fill="none" stroke="midnightblue" d="M827.411,-139.107C812.531,-128.793 795.09,-116.706 781.413,-107.227"/>
<polygon fill="midnightblue" stroke="midnightblue" points="825.616,-142.121 835.829,-144.941 829.603,-136.368 825.616,-142.121"/>
</g>
<!-- Node16 -->
<g id="node16" class="node"><title>Node16</title>
<g id="a_node16"><a xlink:href="../../d6/d7f/_documentation_2_operator-_console_2_s_f_rplus_test_8cpp.html" target="_top" xlink:title="Documentation/Operator\l&#45;Console/SFRplusTest.cpp">
<polygon fill="white" stroke="black" points="859.5,-73 859.5,-107 1016.5,-107 1016.5,-73 859.5,-73"/>
<text text-anchor="start" x="867.5" y="-93.4" font-family="Helvetica,sans-Serif" font-size="12.00">Documentation/Operator</text>
<text text-anchor="middle" x="938" y="-80.4" font-family="Helvetica,sans-Serif" font-size="12.00">&#45;Console/SFRplusTest.cpp</text>
</a>
</g>
</g>
<!-- Node15&#45;&gt;Node16 -->
<g id="edge17" class="edge"><title>Node15&#45;&gt;Node16</title>
<path fill="none" stroke="midnightblue" d="M884.888,-138.061C896.294,-127.955 909.425,-116.32 919.777,-107.147"/>
<polygon fill="midnightblue" stroke="midnightblue" points="882.486,-135.513 877.323,-144.765 887.128,-140.752 882.486,-135.513"/>
</g>
<!-- Node17&#45;&gt;Node9 -->
<g id="edge20" class="edge"><title>Node17&#45;&gt;Node9</title>
<path fill="none" stroke="midnightblue" d="M1333.92,-69.6567C1365.9,-58.7928 1405.33,-45.3941 1435.6,-35.1057"/>
<polygon fill="midnightblue" stroke="midnightblue" points="1332.6,-66.4092 1324.26,-72.9406 1334.85,-73.037 1332.6,-66.4092"/>
</g>
<!-- Node17&#45;&gt;Node10 -->
<g id="edge21" class="edge"><title>Node17&#45;&gt;Node10</title>
<path fill="none" stroke="midnightblue" d="M1277,-62.5079C1277,-53.3027 1277,-43.2615 1277,-35.1473"/>
<polygon fill="midnightblue" stroke="midnightblue" points="1273.5,-62.7646 1277,-72.7646 1280.5,-62.7647 1273.5,-62.7646"/>
</g>
</g>
</svg>
