<?xml version="1.0" encoding="UTF-8" standalone="no"?>
<!DOCTYPE svg PUBLIC "-//W3C//DTD SVG 1.1//EN"
 "http://www.w3.org/Graphics/SVG/1.1/DTD/svg11.dtd">
<!-- Generated by graphviz version 2.34.0 (20130907.0111)
 -->
<!-- Title: StderrThread Pages: 1 -->
<svg width="218pt" height="222pt"
 viewBox="0.00 0.00 218.00 222.00" xmlns="http://www.w3.org/2000/svg" xmlns:xlink="http://www.w3.org/1999/xlink">
<g id="graph0" class="graph" transform="scale(1 1) rotate(0) translate(4 218)">
<title>StderrThread</title>
<polygon fill="white" stroke="white" points="-4,4 -4,-218 214,-218 214,4 -4,4"/>
<!-- Node1 -->
<g id="node1" class="node"><title>Node1</title>
<polygon fill="#bfbfbf" stroke="black" points="4,-0.5 4,-21.5 90,-21.5 90,-0.5 4,-0.5"/>
<text text-anchor="middle" x="47" y="-7.9" font-family="Helvetica,sans-Serif" font-size="12.00">StderrThread</text>
</g>
<!-- Node2 -->
<g id="node2" class="node"><title>Node2</title>
<g id="a_node2"><a xlink:href="../../d5/d67/class_stdout_thread.html" target="_top" xlink:title="Defines a thread class for capturing stdout. ">
<polygon fill="white" stroke="black" points="3.5,-60.5 3.5,-81.5 90.5,-81.5 90.5,-60.5 3.5,-60.5"/>
<text text-anchor="middle" x="47" y="-67.9" font-family="Helvetica,sans-Serif" font-size="12.00">StdoutThread</text>
</a>
</g>
</g>
<!-- Node2&#45;&gt;Node1 -->
<g id="edge1" class="edge"><title>Node2&#45;&gt;Node1</title>
<path fill="none" stroke="midnightblue" d="M40.5802,-50.4646C39.8842,-40.8204 40.2885,-29.6076 41.7932,-21.7856"/>
<polygon fill="midnightblue" stroke="midnightblue" points="37.1121,-50.9379 41.8337,-60.4225 44.0573,-50.0636 37.1121,-50.9379"/>
</g>
<!-- Node2&#45;&gt;Node1 -->
<g id="edge7" class="edge"><title>Node2&#45;&gt;Node1</title>
<path fill="none" stroke="midnightblue" d="M53.4198,-50.4646C54.1158,-40.8204 53.7115,-29.6076 52.2068,-21.7856"/>
<polygon fill="midnightblue" stroke="midnightblue" points="49.9427,-50.0636 52.1663,-60.4225 56.8879,-50.9379 49.9427,-50.0636"/>
</g>
<!-- Node3 -->
<g id="node3" class="node"><title>Node3</title>
<g id="a_node3"><a xlink:href="../../d5/d52/class_stdout_redirect.html" target="_top" xlink:title="Defines functions for redirecting stdout through a buffered pipe. ">
<polygon fill="white" stroke="black" points="-0.5,-132.5 -0.5,-153.5 94.5,-153.5 94.5,-132.5 -0.5,-132.5"/>
<text text-anchor="middle" x="47" y="-139.9" font-family="Helvetica,sans-Serif" font-size="12.00">StdoutRedirect</text>
</a>
</g>
</g>
<!-- Node3&#45;&gt;Node2 -->
<g id="edge2" class="edge"><title>Node3&#45;&gt;Node2</title>
<path fill="none" stroke="midnightblue" d="M40.8508,-122.199C39.7341,-108.938 40.1741,-92.0647 42.1708,-81.6505"/>
<polygon fill="midnightblue" stroke="midnightblue" points="37.3993,-122.799 42.155,-132.267 44.3413,-121.9 37.3993,-122.799"/>
</g>
<!-- Node3&#45;&gt;Node2 -->
<g id="edge3" class="edge"><title>Node3&#45;&gt;Node2</title>
<path fill="none" stroke="midnightblue" d="M53.1492,-122.199C54.2659,-108.938 53.8259,-92.0647 51.8292,-81.6505"/>
<polygon fill="midnightblue" stroke="midnightblue" points="49.6587,-121.9 51.845,-132.267 56.6007,-122.799 49.6587,-121.9"/>
</g>
<!-- Node4 -->
<g id="node4" class="node"><title>Node4</title>
<g id="a_node4"><a xlink:href="../../d6/d56/class_critical_c_string.html" target="_top" xlink:title="A null&#45;terminated string class for which all access is controlled by critical sections. ">
<polygon fill="white" stroke="black" points="112.5,-132.5 112.5,-153.5 205.5,-153.5 205.5,-132.5 112.5,-132.5"/>
<text text-anchor="middle" x="159" y="-139.9" font-family="Helvetica,sans-Serif" font-size="12.00">CriticalCString</text>
</a>
</g>
</g>
<!-- Node4&#45;&gt;Node2 -->
<g id="edge4" class="edge"><title>Node4&#45;&gt;Node2</title>
<path fill="none" stroke="#9a32cd" stroke-dasharray="5,2" d="M134.678,-126.799C112.729,-113.08 81.103,-93.3144 62.4409,-81.6505"/>
<polygon fill="#9a32cd" stroke="#9a32cd" points="133.092,-129.935 143.427,-132.267 136.802,-123.999 133.092,-129.935"/>
<text text-anchor="middle" x="129.5" y="-103.9" font-family="Helvetica,sans-Serif" font-size="12.00"> m_str</text>
</g>
<!-- Node5 -->
<g id="node5" class="node"><title>Node5</title>
<polygon fill="white" stroke="#bfbfbf" points="108,-192.5 108,-213.5 210,-213.5 210,-192.5 108,-192.5"/>
<text text-anchor="middle" x="159" y="-199.9" font-family="Helvetica,sans-Serif" font-size="12.00">CCriticalSection</text>
</g>
<!-- Node5&#45;&gt;Node4 -->
<g id="edge5" class="edge"><title>Node5&#45;&gt;Node4</title>
<path fill="none" stroke="midnightblue" d="M152.58,-182.465C151.884,-172.82 152.288,-161.608 153.793,-153.786"/>
<polygon fill="midnightblue" stroke="midnightblue" points="149.112,-182.938 153.834,-192.422 156.057,-182.064 149.112,-182.938"/>
</g>
<!-- Node5&#45;&gt;Node4 -->
<g id="edge6" class="edge"><title>Node5&#45;&gt;Node4</title>
<path fill="none" stroke="midnightblue" d="M165.42,-182.465C166.116,-172.82 165.712,-161.608 164.207,-153.786"/>
<polygon fill="midnightblue" stroke="midnightblue" points="161.943,-182.064 164.166,-192.422 168.888,-182.938 161.943,-182.064"/>
</g>
</g>
</svg>
