<?xml version="1.0" encoding="UTF-8" standalone="no"?>
<!DOCTYPE svg PUBLIC "-//W3C//DTD SVG 1.1//EN"
 "http://www.w3.org/Graphics/SVG/1.1/DTD/svg11.dtd">
<!-- Generated by graphviz version 2.34.0 (20130907.0111)
 -->
<!-- Title: entry&lt; T &gt; Pages: 1 -->
<svg width="156pt" height="176pt"
 viewBox="0.00 0.00 156.00 176.00" xmlns="http://www.w3.org/2000/svg" xmlns:xlink="http://www.w3.org/1999/xlink">
<g id="graph0" class="graph" transform="scale(1 1) rotate(0) translate(4 172)">
<title>entry&lt; T &gt;</title>
<polygon fill="white" stroke="white" points="-4,4 -4,-172 152,-172 152,4 -4,4"/>
<!-- Node1 -->
<g id="node1" class="node"><title>Node1</title>
<polygon fill="#bfbfbf" stroke="black" points="59,-0.5 59,-21.5 127,-21.5 127,-0.5 59,-0.5"/>
<text text-anchor="middle" x="93" y="-7.9" font-family="Helvetica,sans-Serif" font-size="12.00">entry&lt; T &gt;</text>
</g>
<!-- Node2 -->
<g id="node2" class="node"><title>Node2</title>
<g id="a_node2"><a xlink:title="STL class. ">
<polygon fill="white" stroke="#bfbfbf" points="20.5,-72.5 20.5,-93.5 87.5,-93.5 87.5,-72.5 20.5,-72.5"/>
<text text-anchor="middle" x="54" y="-79.9" font-family="Helvetica,sans-Serif" font-size="12.00">std::string</text>
</a>
</g>
</g>
<!-- Node2&#45;&gt;Node1 -->
<g id="edge1" class="edge"><title>Node2&#45;&gt;Node1</title>
<path fill="none" stroke="#9a32cd" stroke-dasharray="5,2" d="M50.9329,-62.1934C50.6835,-54.8584 51.5123,-46.7027 55,-40 59.0096,-32.2943 66.2137,-26.1694 73.2795,-21.6372"/>
<polygon fill="#9a32cd" stroke="#9a32cd" points="47.4746,-62.7907 51.9343,-72.4012 54.4411,-62.1072 47.4746,-62.7907"/>
<text text-anchor="middle" x="82.5" y="-43.9" font-family="Helvetica,sans-Serif" font-size="12.00"> data_type</text>
</g>
<!-- Node3 -->
<g id="node3" class="node"><title>Node3</title>
<g id="a_node3"><a xlink:title="STL class. ">
<polygon fill="white" stroke="#bfbfbf" points="-0.5,-133 -0.5,-167 108.5,-167 108.5,-133 -0.5,-133"/>
<text text-anchor="start" x="7.5" y="-153.4" font-family="Helvetica,sans-Serif" font-size="12.00">std::basic_string&lt;</text>
<text text-anchor="middle" x="54" y="-140.4" font-family="Helvetica,sans-Serif" font-size="12.00"> char &gt;</text>
</a>
</g>
</g>
<!-- Node3&#45;&gt;Node2 -->
<g id="edge2" class="edge"><title>Node3&#45;&gt;Node2</title>
<path fill="none" stroke="midnightblue" d="M54,-122.722C54,-112.452 54,-101.32 54,-93.6391"/>
<polygon fill="midnightblue" stroke="midnightblue" points="50.5001,-122.933 54,-132.933 57.5001,-122.933 50.5001,-122.933"/>
</g>
<!-- Node4 -->
<g id="node4" class="node"><title>Node4</title>
<polygon fill="white" stroke="#bfbfbf" points="117.5,-72.5 117.5,-93.5 146.5,-93.5 146.5,-72.5 117.5,-72.5"/>
<text text-anchor="middle" x="132" y="-79.9" font-family="Helvetica,sans-Serif" font-size="12.00">T</text>
</g>
<!-- Node4&#45;&gt;Node1 -->
<g id="edge3" class="edge"><title>Node4&#45;&gt;Node1</title>
<path fill="none" stroke="#9a32cd" stroke-dasharray="5,2" d="M122.449,-63.1513C118.672,-55.8636 114.23,-47.49 110,-40 106.476,-33.7607 102.303,-26.8802 98.9733,-21.5012"/>
<polygon fill="#9a32cd" stroke="#9a32cd" points="119.427,-64.929 127.104,-72.2311 125.656,-61.7356 119.427,-64.929"/>
<text text-anchor="middle" x="132.5" y="-43.9" font-family="Helvetica,sans-Serif" font-size="12.00"> value</text>
</g>
</g>
</svg>
