<?xml version="1.0" encoding="UTF-8" standalone="no"?>
<!DOCTYPE svg PUBLIC "-//W3C//DTD SVG 1.1//EN"
 "http://www.w3.org/Graphics/SVG/1.1/DTD/svg11.dtd">
<!-- Generated by graphviz version 2.34.0 (20130907.0111)
 -->
<!-- Title: JSON/JSONValidator.h Pages: 1 -->
<svg width="1061pt" height="320pt"
 viewBox="0.00 0.00 1061.00 320.00" xmlns="http://www.w3.org/2000/svg" xmlns:xlink="http://www.w3.org/1999/xlink">
<g id="graph0" class="graph" transform="scale(1 1) rotate(0) translate(4 316)">
<title>JSON/JSONValidator.h</title>
<polygon fill="white" stroke="white" points="-4,4 -4,-316 1057,-316 1057,4 -4,4"/>
<!-- Node1 -->
<g id="node1" class="node"><title>Node1</title>
<polygon fill="#bfbfbf" stroke="black" points="669.5,-290.5 669.5,-311.5 808.5,-311.5 808.5,-290.5 669.5,-290.5"/>
<text text-anchor="middle" x="739" y="-297.9" font-family="Helvetica,sans-Serif" font-size="12.00">JSON/JSONValidator.h</text>
</g>
<!-- Node2 -->
<g id="node2" class="node"><title>Node2</title>
<g id="a_node2"><a xlink:href="../../d1/d7d/libjson_8h.html" target="_top" xlink:title="libjson.h">
<polygon fill="white" stroke="black" points="590.5,-232.5 590.5,-253.5 649.5,-253.5 649.5,-232.5 590.5,-232.5"/>
<text text-anchor="middle" x="620" y="-239.9" font-family="Helvetica,sans-Serif" font-size="12.00">libjson.h</text>
</a>
</g>
</g>
<!-- Node1&#45;&gt;Node2 -->
<g id="edge1" class="edge"><title>Node1&#45;&gt;Node2</title>
<path fill="none" stroke="midnightblue" d="M709.486,-286.111C687.906,-275.956 659.202,-262.448 640.19,-253.501"/>
<polygon fill="midnightblue" stroke="midnightblue" points="708.005,-289.282 718.543,-290.373 710.985,-282.948 708.005,-289.282"/>
</g>
<!-- Node20 -->
<g id="node20" class="node"><title>Node20</title>
<g id="a_node20"><a xlink:href="../../d4/d80/_j_s_o_n_stream_8cpp.html" target="_top" xlink:title="JSON/JSONStream.cpp">
<polygon fill="white" stroke="black" points="667.5,-232.5 667.5,-253.5 810.5,-253.5 810.5,-232.5 667.5,-232.5"/>
<text text-anchor="middle" x="739" y="-239.9" font-family="Helvetica,sans-Serif" font-size="12.00">JSON/JSONStream.cpp</text>
</a>
</g>
</g>
<!-- Node1&#45;&gt;Node20 -->
<g id="edge23" class="edge"><title>Node1&#45;&gt;Node20</title>
<path fill="none" stroke="midnightblue" d="M739,-280.158C739,-271.155 739,-260.92 739,-253.643"/>
<polygon fill="midnightblue" stroke="midnightblue" points="735.5,-280.246 739,-290.246 742.5,-280.246 735.5,-280.246"/>
</g>
<!-- Node21 -->
<g id="node21" class="node"><title>Node21</title>
<g id="a_node21"><a xlink:href="../../d2/d54/_j_s_o_n_validator_8cpp.html" target="_top" xlink:title="JSON/JSONValidator.cpp">
<polygon fill="white" stroke="black" points="829,-232.5 829,-253.5 981,-253.5 981,-232.5 829,-232.5"/>
<text text-anchor="middle" x="905" y="-239.9" font-family="Helvetica,sans-Serif" font-size="12.00">JSON/JSONValidator.cpp</text>
</a>
</g>
</g>
<!-- Node1&#45;&gt;Node21 -->
<g id="edge24" class="edge"><title>Node1&#45;&gt;Node21</title>
<path fill="none" stroke="midnightblue" d="M777.367,-287.057C807.747,-276.808 849.482,-262.729 876.836,-253.501"/>
<polygon fill="midnightblue" stroke="midnightblue" points="775.893,-283.86 767.536,-290.373 778.131,-290.493 775.893,-283.86"/>
</g>
<!-- Node3 -->
<g id="node3" class="node"><title>Node3</title>
<g id="a_node3"><a xlink:href="../../d9/da7/_image_test_8h.html" target="_top" xlink:title="ImageTest.h">
<polygon fill="white" stroke="black" points="389,-174.5 389,-195.5 469,-195.5 469,-174.5 389,-174.5"/>
<text text-anchor="middle" x="429" y="-181.9" font-family="Helvetica,sans-Serif" font-size="12.00">ImageTest.h</text>
</a>
</g>
</g>
<!-- Node2&#45;&gt;Node3 -->
<g id="edge2" class="edge"><title>Node2&#45;&gt;Node3</title>
<path fill="none" stroke="midnightblue" d="M580.221,-230.337C545.031,-220.02 494.318,-205.151 461.509,-195.531"/>
<polygon fill="midnightblue" stroke="midnightblue" points="579.575,-233.795 590.156,-233.25 581.545,-227.078 579.575,-233.795"/>
</g>
<!-- Node17 -->
<g id="node17" class="node"><title>Node17</title>
<g id="a_node17"><a xlink:href="../../dc/d7a/_s_f_rplus_test_8cpp.html" target="_top" xlink:title="SFRplusTest.cpp">
<polygon fill="white" stroke="black" points="525.5,-58.5 525.5,-79.5 632.5,-79.5 632.5,-58.5 525.5,-58.5"/>
<text text-anchor="middle" x="579" y="-65.9" font-family="Helvetica,sans-Serif" font-size="12.00">SFRplusTest.cpp</text>
</a>
</g>
</g>
<!-- Node2&#45;&gt;Node17 -->
<g id="edge22" class="edge"><title>Node2&#45;&gt;Node17</title>
<path fill="none" stroke="midnightblue" d="M609.587,-223.465C605.395,-215.272 600.882,-205.386 598,-196 585.079,-153.915 580.765,-101.122 579.485,-79.6989"/>
<polygon fill="midnightblue" stroke="midnightblue" points="606.602,-225.305 614.407,-232.47 612.773,-222.002 606.602,-225.305"/>
</g>
<!-- Node18 -->
<g id="node18" class="node"><title>Node18</title>
<g id="a_node18"><a xlink:href="../../df/d2a/libjson_8cpp.html" target="_top" xlink:title="JSON/libjson.cpp">
<polygon fill="white" stroke="black" points="607.5,-174.5 607.5,-195.5 714.5,-195.5 714.5,-174.5 607.5,-174.5"/>
<text text-anchor="middle" x="661" y="-181.9" font-family="Helvetica,sans-Serif" font-size="12.00">JSON/libjson.cpp</text>
</a>
</g>
</g>
<!-- Node2&#45;&gt;Node18 -->
<g id="edge20" class="edge"><title>Node2&#45;&gt;Node18</title>
<path fill="none" stroke="midnightblue" d="M633.236,-223.921C640.121,-214.518 648.261,-203.4 653.94,-195.643"/>
<polygon fill="midnightblue" stroke="midnightblue" points="630.225,-222.109 627.142,-232.246 635.873,-226.244 630.225,-222.109"/>
</g>
<!-- Node19 -->
<g id="node19" class="node"><title>Node19</title>
<g id="a_node19"><a xlink:href="../../d7/d4a/jsonhelpers_8cpp.html" target="_top" xlink:title="jsonhelpers.cpp">
<polygon fill="white" stroke="black" points="733,-174.5 733,-195.5 831,-195.5 831,-174.5 733,-174.5"/>
<text text-anchor="middle" x="782" y="-181.9" font-family="Helvetica,sans-Serif" font-size="12.00">jsonhelpers.cpp</text>
</a>
</g>
</g>
<!-- Node2&#45;&gt;Node19 -->
<g id="edge21" class="edge"><title>Node2&#45;&gt;Node19</title>
<path fill="none" stroke="midnightblue" d="M657.442,-229.057C687.09,-218.808 727.82,-204.729 754.515,-195.501"/>
<polygon fill="midnightblue" stroke="midnightblue" points="656.157,-225.798 647.849,-232.373 658.444,-232.414 656.157,-225.798"/>
</g>
<!-- Node4 -->
<g id="node4" class="node"><title>Node4</title>
<g id="a_node4"><a xlink:href="../../dc/d69/_blemish_test_8h.html" target="_top" xlink:title="BlemishTest.h">
<polygon fill="white" stroke="black" points="311,-116.5 311,-137.5 401,-137.5 401,-116.5 311,-116.5"/>
<text text-anchor="middle" x="356" y="-123.9" font-family="Helvetica,sans-Serif" font-size="12.00">BlemishTest.h</text>
</a>
</g>
</g>
<!-- Node3&#45;&gt;Node4 -->
<g id="edge3" class="edge"><title>Node3&#45;&gt;Node4</title>
<path fill="none" stroke="midnightblue" d="M408.049,-167.928C395.289,-158.14 379.411,-145.959 368.57,-137.643"/>
<polygon fill="midnightblue" stroke="midnightblue" points="406.22,-170.936 416.284,-174.246 410.48,-165.382 406.22,-170.936"/>
</g>
<!-- Node5 -->
<g id="node5" class="node"><title>Node5</title>
<g id="a_node5"><a xlink:href="../../da/de6/_operator_console_8h.html" target="_top" xlink:title="OperatorConsole.h">
<polygon fill="white" stroke="black" points="391,-58.5 391,-79.5 507,-79.5 507,-58.5 391,-58.5"/>
<text text-anchor="middle" x="449" y="-65.9" font-family="Helvetica,sans-Serif" font-size="12.00">OperatorConsole.h</text>
</a>
</g>
</g>
<!-- Node3&#45;&gt;Node5 -->
<g id="edge15" class="edge"><title>Node3&#45;&gt;Node5</title>
<path fill="none" stroke="midnightblue" d="M432.465,-164.252C436.792,-139.584 444.026,-98.3525 447.299,-79.695"/>
<polygon fill="midnightblue" stroke="midnightblue" points="428.986,-163.826 430.705,-174.28 435.881,-165.036 428.986,-163.826"/>
</g>
<!-- Node8 -->
<g id="node8" class="node"><title>Node8</title>
<g id="a_node8"><a xlink:href="../../d8/d53/_image_test_8cpp.html" target="_top" xlink:title="ImageTest.cpp">
<polygon fill="white" stroke="black" points="0,-0.5 0,-21.5 94,-21.5 94,-0.5 0,-0.5"/>
<text text-anchor="middle" x="47" y="-7.9" font-family="Helvetica,sans-Serif" font-size="12.00">ImageTest.cpp</text>
</a>
</g>
</g>
<!-- Node3&#45;&gt;Node8 -->
<g id="edge19" class="edge"><title>Node3&#45;&gt;Node8</title>
<path fill="none" stroke="midnightblue" d="M390.259,-171.224C364.879,-162.547 331.134,-150.428 302,-138 210.705,-99.0544 105.572,-43.5903 64.6113,-21.5557"/>
<polygon fill="midnightblue" stroke="midnightblue" points="389.3,-174.594 399.894,-174.49 391.547,-167.964 389.3,-174.594"/>
</g>
<!-- Node16 -->
<g id="node16" class="node"><title>Node16</title>
<g id="a_node16"><a xlink:href="../../d2/d9d/_s_f_rplus_test_8h.html" target="_top" xlink:title="SFRplusTest.h">
<polygon fill="white" stroke="black" points="457.5,-116.5 457.5,-137.5 550.5,-137.5 550.5,-116.5 457.5,-116.5"/>
<text text-anchor="middle" x="504" y="-123.9" font-family="Helvetica,sans-Serif" font-size="12.00">SFRplusTest.h</text>
</a>
</g>
</g>
<!-- Node3&#45;&gt;Node16 -->
<g id="edge16" class="edge"><title>Node3&#45;&gt;Node16</title>
<path fill="none" stroke="midnightblue" d="M450.148,-168.21C463.32,-158.374 479.84,-146.039 491.086,-137.643"/>
<polygon fill="midnightblue" stroke="midnightblue" points="447.983,-165.458 442.064,-174.246 452.171,-171.067 447.983,-165.458"/>
</g>
<!-- Node4&#45;&gt;Node5 -->
<g id="edge4" class="edge"><title>Node4&#45;&gt;Node5</title>
<path fill="none" stroke="midnightblue" d="M380.834,-111.046C397.381,-101.082 418.643,-88.2794 432.986,-79.6427"/>
<polygon fill="midnightblue" stroke="midnightblue" points="378.961,-108.089 372.199,-116.246 382.572,-114.085 378.961,-108.089"/>
</g>
<!-- Node15 -->
<g id="node15" class="node"><title>Node15</title>
<g id="a_node15"><a xlink:href="../../dd/d8a/_blemish_test_8cpp.html" target="_top" xlink:title="BlemishTest.cpp">
<polygon fill="white" stroke="black" points="269,-58.5 269,-79.5 373,-79.5 373,-58.5 269,-58.5"/>
<text text-anchor="middle" x="321" y="-65.9" font-family="Helvetica,sans-Serif" font-size="12.00">BlemishTest.cpp</text>
</a>
</g>
</g>
<!-- Node4&#45;&gt;Node15 -->
<g id="edge14" class="edge"><title>Node4&#45;&gt;Node15</title>
<path fill="none" stroke="midnightblue" d="M344.518,-107.63C338.68,-98.2887 331.825,-87.3197 327.027,-79.6427"/>
<polygon fill="midnightblue" stroke="midnightblue" points="341.635,-109.621 349.903,-116.246 347.571,-105.911 341.635,-109.621"/>
</g>
<!-- Node6 -->
<g id="node6" class="node"><title>Node6</title>
<g id="a_node6"><a xlink:href="../../d3/d22/_app_thread_8cpp.html" target="_top" xlink:title="AppThread.cpp">
<polygon fill="white" stroke="black" points="955,-0.5 955,-21.5 1053,-21.5 1053,-0.5 955,-0.5"/>
<text text-anchor="middle" x="1004" y="-7.9" font-family="Helvetica,sans-Serif" font-size="12.00">AppThread.cpp</text>
</a>
</g>
</g>
<!-- Node5&#45;&gt;Node6 -->
<g id="edge5" class="edge"><title>Node5&#45;&gt;Node6</title>
<path fill="none" stroke="midnightblue" d="M517.168,-57.9341C708.22,-36.1814 759.019,-45.8999 946,-22 948.939,-21.6243 951.957,-21.2054 954.998,-20.7579"/>
<polygon fill="midnightblue" stroke="midnightblue" points="516.608,-54.4754 507.074,-59.0976 517.409,-61.4294 516.608,-54.4754"/>
</g>
<!-- Node7 -->
<g id="node7" class="node"><title>Node7</title>
<g id="a_node7"><a xlink:href="../../d6/df7/_critical_buf_8cpp.html" target="_top" xlink:title="CriticalBuf.cpp">
<polygon fill="white" stroke="black" points="112.5,-0.5 112.5,-21.5 205.5,-21.5 205.5,-0.5 112.5,-0.5"/>
<text text-anchor="middle" x="159" y="-7.9" font-family="Helvetica,sans-Serif" font-size="12.00">CriticalBuf.cpp</text>
</a>
</g>
</g>
<!-- Node5&#45;&gt;Node7 -->
<g id="edge6" class="edge"><title>Node5&#45;&gt;Node7</title>
<path fill="none" stroke="midnightblue" d="M389.634,-56.5362C335.292,-46.0426 255.944,-30.7202 205.918,-21.06"/>
<polygon fill="midnightblue" stroke="midnightblue" points="388.994,-59.9773 399.477,-58.4369 390.322,-53.1043 388.994,-59.9773"/>
</g>
<!-- Node5&#45;&gt;Node8 -->
<g id="edge7" class="edge"><title>Node5&#45;&gt;Node8</title>
<path fill="none" stroke="midnightblue" d="M380.987,-57.8846C256.501,-40.7699 223.439,-40.5126 103,-22 100.072,-21.5499 97.0605,-21.0679 94.0263,-20.5678"/>
<polygon fill="midnightblue" stroke="midnightblue" points="380.52,-61.3533 390.906,-59.2572 381.48,-54.4193 380.52,-61.3533"/>
</g>
<!-- Node9 -->
<g id="node9" class="node"><title>Node9</title>
<g id="a_node9"><a xlink:href="../../df/d0a/main_8cpp.html" target="_top" xlink:title="main.cpp">
<polygon fill="white" stroke="black" points="223.5,-0.5 223.5,-21.5 288.5,-21.5 288.5,-0.5 223.5,-0.5"/>
<text text-anchor="middle" x="256" y="-7.9" font-family="Helvetica,sans-Serif" font-size="12.00">main.cpp</text>
</a>
</g>
</g>
<!-- Node5&#45;&gt;Node9 -->
<g id="edge8" class="edge"><title>Node5&#45;&gt;Node9</title>
<path fill="none" stroke="midnightblue" d="M405.768,-55.4561C370.34,-45.1765 320.963,-30.8494 288.745,-21.5011"/>
<polygon fill="midnightblue" stroke="midnightblue" points="405.243,-58.9479 415.822,-58.3733 407.194,-52.2252 405.243,-58.9479"/>
</g>
<!-- Node10 -->
<g id="node10" class="node"><title>Node10</title>
<g id="a_node10"><a xlink:href="../../de/da2/_operator_console_8cpp.html" target="_top" xlink:title="OperatorConsole.cpp">
<polygon fill="white" stroke="black" points="306.5,-0.5 306.5,-21.5 435.5,-21.5 435.5,-0.5 306.5,-0.5"/>
<text text-anchor="middle" x="371" y="-7.9" font-family="Helvetica,sans-Serif" font-size="12.00">OperatorConsole.cpp</text>
</a>
</g>
</g>
<!-- Node5&#45;&gt;Node10 -->
<g id="edge9" class="edge"><title>Node5&#45;&gt;Node10</title>
<path fill="none" stroke="midnightblue" d="M427.006,-52.2097C413.307,-42.3743 396.126,-30.0394 384.431,-21.6427"/>
<polygon fill="midnightblue" stroke="midnightblue" points="425.249,-55.2566 435.413,-58.2455 429.331,-49.5703 425.249,-55.2566"/>
</g>
<!-- Node11 -->
<g id="node11" class="node"><title>Node11</title>
<g id="a_node11"><a xlink:href="../../d8/d29/_operator_console_dlg_8cpp.html" target="_top" xlink:title="OperatorConsoleDlg.cpp">
<polygon fill="white" stroke="black" points="453.5,-0.5 453.5,-21.5 600.5,-21.5 600.5,-0.5 453.5,-0.5"/>
<text text-anchor="middle" x="527" y="-7.9" font-family="Helvetica,sans-Serif" font-size="12.00">OperatorConsoleDlg.cpp</text>
</a>
</g>
</g>
<!-- Node5&#45;&gt;Node11 -->
<g id="edge10" class="edge"><title>Node5&#45;&gt;Node11</title>
<path fill="none" stroke="midnightblue" d="M470.994,-52.2097C484.693,-42.3743 501.874,-30.0394 513.569,-21.6427"/>
<polygon fill="midnightblue" stroke="midnightblue" points="468.669,-49.5703 462.587,-58.2455 472.751,-55.2566 468.669,-49.5703"/>
</g>
<!-- Node12 -->
<g id="node12" class="node"><title>Node12</title>
<g id="a_node12"><a xlink:href="../../d0/d57/_pass_fail_8cpp.html" target="_top" xlink:title="PassFail.cpp">
<polygon fill="white" stroke="black" points="619,-0.5 619,-21.5 705,-21.5 705,-0.5 619,-0.5"/>
<text text-anchor="middle" x="662" y="-7.9" font-family="Helvetica,sans-Serif" font-size="12.00">PassFail.cpp</text>
</a>
</g>
</g>
<!-- Node5&#45;&gt;Node12 -->
<g id="edge11" class="edge"><title>Node5&#45;&gt;Node12</title>
<path fill="none" stroke="midnightblue" d="M495.458,-55.7856C534.639,-45.4845 589.924,-30.9497 625.862,-21.5011"/>
<polygon fill="midnightblue" stroke="midnightblue" points="494.397,-52.4455 485.616,-58.3733 496.177,-59.2155 494.397,-52.4455"/>
</g>
<!-- Node13 -->
<g id="node13" class="node"><title>Node13</title>
<g id="a_node13"><a xlink:href="../../da/d46/_password_dialog_8cpp.html" target="_top" xlink:title="PasswordDialog.cpp">
<polygon fill="white" stroke="black" points="723,-0.5 723,-21.5 849,-21.5 849,-0.5 723,-0.5"/>
<text text-anchor="middle" x="786" y="-7.9" font-family="Helvetica,sans-Serif" font-size="12.00">PasswordDialog.cpp</text>
</a>
</g>
</g>
<!-- Node5&#45;&gt;Node13 -->
<g id="edge12" class="edge"><title>Node5&#45;&gt;Node13</title>
<path fill="none" stroke="midnightblue" d="M516.655,-56.7577C578.838,-46.4245 670.01,-31.2743 728.688,-21.5237"/>
<polygon fill="midnightblue" stroke="midnightblue" points="515.84,-53.3449 506.549,-58.4369 516.988,-60.2502 515.84,-53.3449"/>
</g>
<!-- Node14 -->
<g id="node14" class="node"><title>Node14</title>
<g id="a_node14"><a xlink:href="../../d5/d27/_setup_8cpp.html" target="_top" xlink:title="Setup.cpp">
<polygon fill="white" stroke="black" points="867,-0.5 867,-21.5 937,-21.5 937,-0.5 867,-0.5"/>
<text text-anchor="middle" x="902" y="-7.9" font-family="Helvetica,sans-Serif" font-size="12.00">Setup.cpp</text>
</a>
</g>
</g>
<!-- Node5&#45;&gt;Node14 -->
<g id="edge13" class="edge"><title>Node5&#45;&gt;Node14</title>
<path fill="none" stroke="midnightblue" d="M517.265,-57.8942C669.371,-39.0543 710.455,-46.4435 858,-22 860.782,-21.5391 863.652,-21.01 866.53,-20.4411"/>
<polygon fill="midnightblue" stroke="midnightblue" points="516.569,-54.4541 507.083,-59.1737 517.442,-61.3995 516.569,-54.4541"/>
</g>
<!-- Node16&#45;&gt;Node5 -->
<g id="edge17" class="edge"><title>Node16&#45;&gt;Node5</title>
<path fill="none" stroke="midnightblue" d="M487.377,-109.075C477.915,-99.4402 466.403,-87.7196 458.47,-79.6427"/>
<polygon fill="midnightblue" stroke="midnightblue" points="484.916,-111.564 494.42,-116.246 489.91,-106.659 484.916,-111.564"/>
</g>
<!-- Node16&#45;&gt;Node17 -->
<g id="edge18" class="edge"><title>Node16&#45;&gt;Node17</title>
<path fill="none" stroke="midnightblue" d="M525.148,-110.21C538.32,-100.374 554.84,-88.0394 566.086,-79.6427"/>
<polygon fill="midnightblue" stroke="midnightblue" points="522.983,-107.458 517.064,-116.246 527.171,-113.067 522.983,-107.458"/>
</g>
</g>
</svg>
