<?xml version="1.0" encoding="UTF-8" standalone="no"?>
<!DOCTYPE svg PUBLIC "-//W3C//DTD SVG 1.1//EN"
 "http://www.w3.org/Graphics/SVG/1.1/DTD/svg11.dtd">
<!-- Generated by graphviz version 2.34.0 (20130907.0111)
 -->
<!-- Title: Documentation/Operator&#45;Console/jsonhelpers.h Pages: 1 -->
<svg width="1580pt" height="332pt"
 viewBox="0.00 0.00 1580.00 332.00" xmlns="http://www.w3.org/2000/svg" xmlns:xlink="http://www.w3.org/1999/xlink">
<g id="graph0" class="graph" transform="scale(1 1) rotate(0) translate(4 328)">
<title>Documentation/Operator&#45;Console/jsonhelpers.h</title>
<polygon fill="white" stroke="white" points="-4,4 -4,-328 1576,-328 1576,4 -4,4"/>
<!-- Node1 -->
<g id="node1" class="node"><title>Node1</title>
<polygon fill="#bfbfbf" stroke="black" points="689.5,-289 689.5,-323 834.5,-323 834.5,-289 689.5,-289"/>
<text text-anchor="start" x="697.5" y="-309.4" font-family="Helvetica,sans-Serif" font-size="12.00">Documentation/Operator</text>
<text text-anchor="middle" x="762" y="-296.4" font-family="Helvetica,sans-Serif" font-size="12.00">&#45;Console/jsonhelpers.h</text>
</g>
<!-- Node2 -->
<g id="node2" class="node"><title>Node2</title>
<g id="a_node2"><a xlink:href="../../d5/dd6/_documentation_2_operator-_console_2_image_test_8h.html" target="_top" xlink:title="Documentation/Operator\l&#45;Console/ImageTest.h">
<polygon fill="white" stroke="black" points="588.5,-217 588.5,-251 733.5,-251 733.5,-217 588.5,-217"/>
<text text-anchor="start" x="596.5" y="-237.4" font-family="Helvetica,sans-Serif" font-size="12.00">Documentation/Operator</text>
<text text-anchor="middle" x="661" y="-224.4" font-family="Helvetica,sans-Serif" font-size="12.00">&#45;Console/ImageTest.h</text>
</a>
</g>
</g>
<!-- Node1&#45;&gt;Node2 -->
<g id="edge1" class="edge"><title>Node1&#45;&gt;Node2</title>
<path fill="none" stroke="midnightblue" d="M730.411,-283.107C715.531,-272.793 698.09,-260.706 684.413,-251.227"/>
<polygon fill="midnightblue" stroke="midnightblue" points="728.616,-286.121 738.829,-288.941 732.603,-280.368 728.616,-286.121"/>
</g>
<!-- Node16 -->
<g id="node16" class="node"><title>Node16</title>
<g id="a_node16"><a xlink:href="../../d6/d7f/_documentation_2_operator-_console_2_s_f_rplus_test_8cpp.html" target="_top" xlink:title="Documentation/Operator\l&#45;Console/SFRplusTest.cpp">
<polygon fill="white" stroke="black" points="784.5,-73 784.5,-107 941.5,-107 941.5,-73 784.5,-73"/>
<text text-anchor="start" x="792.5" y="-93.4" font-family="Helvetica,sans-Serif" font-size="12.00">Documentation/Operator</text>
<text text-anchor="middle" x="863" y="-80.4" font-family="Helvetica,sans-Serif" font-size="12.00">&#45;Console/SFRplusTest.cpp</text>
</a>
</g>
</g>
<!-- Node1&#45;&gt;Node16 -->
<g id="edge19" class="edge"><title>Node1&#45;&gt;Node16</title>
<path fill="none" stroke="midnightblue" d="M781.444,-280.781C799.907,-256.615 827.131,-217.743 843,-180 853.189,-155.766 858.574,-125.538 861.1,-107.28"/>
<polygon fill="midnightblue" stroke="midnightblue" points="778.674,-278.642 775.312,-288.69 784.206,-282.932 778.674,-278.642"/>
</g>
<!-- Node3 -->
<g id="node3" class="node"><title>Node3</title>
<g id="a_node3"><a xlink:href="../../da/df8/_documentation_2_operator-_console_2_blemish_test_8h.html" target="_top" xlink:title="Documentation/Operator\l&#45;Console/BlemishTest.h">
<polygon fill="white" stroke="black" points="487.5,-145 487.5,-179 632.5,-179 632.5,-145 487.5,-145"/>
<text text-anchor="start" x="495.5" y="-165.4" font-family="Helvetica,sans-Serif" font-size="12.00">Documentation/Operator</text>
<text text-anchor="middle" x="560" y="-152.4" font-family="Helvetica,sans-Serif" font-size="12.00">&#45;Console/BlemishTest.h</text>
</a>
</g>
</g>
<!-- Node2&#45;&gt;Node3 -->
<g id="edge2" class="edge"><title>Node2&#45;&gt;Node3</title>
<path fill="none" stroke="midnightblue" d="M629.411,-211.107C614.531,-200.793 597.09,-188.706 583.413,-179.227"/>
<polygon fill="midnightblue" stroke="midnightblue" points="627.616,-214.121 637.829,-216.941 631.603,-208.368 627.616,-214.121"/>
</g>
<!-- Node4 -->
<g id="node4" class="node"><title>Node4</title>
<g id="a_node4"><a xlink:href="../../da/d65/_documentation_2_operator-_console_2_operator_console_8h.html" target="_top" xlink:title="Documentation/Operator\l&#45;Console/OperatorConsole.h">
<polygon fill="white" stroke="black" points="600,-73 600,-107 766,-107 766,-73 600,-73"/>
<text text-anchor="start" x="608" y="-93.4" font-family="Helvetica,sans-Serif" font-size="12.00">Documentation/Operator</text>
<text text-anchor="middle" x="683" y="-80.4" font-family="Helvetica,sans-Serif" font-size="12.00">&#45;Console/OperatorConsole.h</text>
</a>
</g>
</g>
<!-- Node2&#45;&gt;Node4 -->
<g id="edge14" class="edge"><title>Node2&#45;&gt;Node4</title>
<path fill="none" stroke="midnightblue" d="M665.071,-206.726C669.587,-177.574 676.733,-131.451 680.494,-107.173"/>
<polygon fill="midnightblue" stroke="midnightblue" points="661.553,-206.569 663.481,-216.987 668.471,-207.641 661.553,-206.569"/>
</g>
<!-- Node7 -->
<g id="node7" class="node"><title>Node7</title>
<g id="a_node7"><a xlink:href="../../da/df9/_documentation_2_operator-_console_2_image_test_8cpp.html" target="_top" xlink:title="Documentation/Operator\l&#45;Console/ImageTest.cpp">
<polygon fill="white" stroke="black" points="-0.5,-1 -0.5,-35 144.5,-35 144.5,-1 -0.5,-1"/>
<text text-anchor="start" x="7.5" y="-21.4" font-family="Helvetica,sans-Serif" font-size="12.00">Documentation/Operator</text>
<text text-anchor="middle" x="72" y="-8.4" font-family="Helvetica,sans-Serif" font-size="12.00">&#45;Console/ImageTest.cpp</text>
</a>
</g>
</g>
<!-- Node2&#45;&gt;Node7 -->
<g id="edge18" class="edge"><title>Node2&#45;&gt;Node7</title>
<path fill="none" stroke="midnightblue" d="M590.079,-214.163C555.954,-204.668 514.601,-192.525 478,-180 339.898,-132.74 179.922,-65.5199 109.057,-35.0801"/>
<polygon fill="midnightblue" stroke="midnightblue" points="589.39,-217.604 599.961,-216.896 591.256,-210.858 589.39,-217.604"/>
</g>
<!-- Node15 -->
<g id="node15" class="node"><title>Node15</title>
<g id="a_node15"><a xlink:href="../../d5/d79/_documentation_2_operator-_console_2_s_f_rplus_test_8h.html" target="_top" xlink:title="Documentation/Operator\l&#45;Console/SFRplusTest.h">
<polygon fill="white" stroke="black" points="689.5,-145 689.5,-179 834.5,-179 834.5,-145 689.5,-145"/>
<text text-anchor="start" x="697.5" y="-165.4" font-family="Helvetica,sans-Serif" font-size="12.00">Documentation/Operator</text>
<text text-anchor="middle" x="762" y="-152.4" font-family="Helvetica,sans-Serif" font-size="12.00">&#45;Console/SFRplusTest.h</text>
</a>
</g>
</g>
<!-- Node2&#45;&gt;Node15 -->
<g id="edge15" class="edge"><title>Node2&#45;&gt;Node15</title>
<path fill="none" stroke="midnightblue" d="M692.589,-211.107C707.469,-200.793 724.91,-188.706 738.587,-179.227"/>
<polygon fill="midnightblue" stroke="midnightblue" points="690.397,-208.368 684.171,-216.941 694.384,-214.121 690.397,-208.368"/>
</g>
<!-- Node3&#45;&gt;Node4 -->
<g id="edge3" class="edge"><title>Node3&#45;&gt;Node4</title>
<path fill="none" stroke="midnightblue" d="M596.953,-139.97C615.397,-129.473 637.364,-116.972 654.487,-107.227"/>
<polygon fill="midnightblue" stroke="midnightblue" points="595.179,-136.952 588.219,-144.941 598.641,-143.036 595.179,-136.952"/>
</g>
<!-- Node14 -->
<g id="node14" class="node"><title>Node14</title>
<g id="a_node14"><a xlink:href="../../dc/d58/_documentation_2_operator-_console_2_blemish_test_8cpp.html" target="_top" xlink:title="Documentation/Operator\l&#45;Console/BlemishTest.cpp">
<polygon fill="white" stroke="black" points="428,-73 428,-107 582,-107 582,-73 428,-73"/>
<text text-anchor="start" x="436" y="-93.4" font-family="Helvetica,sans-Serif" font-size="12.00">Documentation/Operator</text>
<text text-anchor="middle" x="505" y="-80.4" font-family="Helvetica,sans-Serif" font-size="12.00">&#45;Console/BlemishTest.cpp</text>
</a>
</g>
</g>
<!-- Node3&#45;&gt;Node14 -->
<g id="edge13" class="edge"><title>Node3&#45;&gt;Node14</title>
<path fill="none" stroke="midnightblue" d="M541.055,-136.889C533.336,-127.064 524.617,-115.967 517.687,-107.147"/>
<polygon fill="midnightblue" stroke="midnightblue" points="538.313,-139.064 547.244,-144.765 543.818,-134.739 538.313,-139.064"/>
</g>
<!-- Node5 -->
<g id="node5" class="node"><title>Node5</title>
<g id="a_node5"><a xlink:href="../../d7/d4b/_documentation_2_operator-_console_2_app_thread_8cpp.html" target="_top" xlink:title="Documentation/Operator\l&#45;Console/AppThread.cpp">
<polygon fill="white" stroke="black" points="1424,-1 1424,-35 1572,-35 1572,-1 1424,-1"/>
<text text-anchor="start" x="1432" y="-21.4" font-family="Helvetica,sans-Serif" font-size="12.00">Documentation/Operator</text>
<text text-anchor="middle" x="1498" y="-8.4" font-family="Helvetica,sans-Serif" font-size="12.00">&#45;Console/AppThread.cpp</text>
</a>
</g>
</g>
<!-- Node4&#45;&gt;Node5 -->
<g id="edge4" class="edge"><title>Node4&#45;&gt;Node5</title>
<path fill="none" stroke="midnightblue" d="M776.323,-71.94C1059.2,-38.8813 1135.18,-71.8796 1414,-36 1417.25,-35.5822 1420.56,-35.1107 1423.89,-34.5977"/>
<polygon fill="midnightblue" stroke="midnightblue" points="775.691,-68.4904 766.173,-73.1441 776.515,-75.4417 775.691,-68.4904"/>
</g>
<!-- Node6 -->
<g id="node6" class="node"><title>Node6</title>
<g id="a_node6"><a xlink:href="../../de/d31/_documentation_2_operator-_console_2_critical_buf_8cpp.html" target="_top" xlink:title="Documentation/Operator\l&#45;Console/CriticalBuf.cpp">
<polygon fill="white" stroke="black" points="162.5,-1 162.5,-35 307.5,-35 307.5,-1 162.5,-1"/>
<text text-anchor="start" x="170.5" y="-21.4" font-family="Helvetica,sans-Serif" font-size="12.00">Documentation/Operator</text>
<text text-anchor="middle" x="235" y="-8.4" font-family="Helvetica,sans-Serif" font-size="12.00">&#45;Console/CriticalBuf.cpp</text>
</a>
</g>
</g>
<!-- Node4&#45;&gt;Node6 -->
<g id="edge5" class="edge"><title>Node4&#45;&gt;Node6</title>
<path fill="none" stroke="midnightblue" d="M589.699,-71.8443C467.953,-53.01 434.912,-55.9406 317,-36 313.99,-35.4909 310.921,-34.9509 307.825,-34.3886"/>
<polygon fill="midnightblue" stroke="midnightblue" points="589.368,-75.335 599.789,-73.4232 590.45,-68.4192 589.368,-75.335"/>
</g>
<!-- Node4&#45;&gt;Node7 -->
<g id="edge6" class="edge"><title>Node4&#45;&gt;Node7</title>
<path fill="none" stroke="midnightblue" d="M589.857,-71.9319C395.65,-46.803 343.08,-63.6479 153,-36 150.298,-35.607 147.552,-35.1788 144.781,-34.7226"/>
<polygon fill="midnightblue" stroke="midnightblue" points="589.444,-75.4076 599.815,-73.2408 590.357,-68.4673 589.444,-75.4076"/>
</g>
<!-- Node8 -->
<g id="node8" class="node"><title>Node8</title>
<g id="a_node8"><a xlink:href="../../d4/d9c/_msg_dialog_8cpp.html" target="_top" xlink:title="Documentation/Operator\l&#45;Console/MsgDialog.cpp">
<polygon fill="white" stroke="black" points="326,-1 326,-35 472,-35 472,-1 326,-1"/>
<text text-anchor="start" x="334" y="-21.4" font-family="Helvetica,sans-Serif" font-size="12.00">Documentation/Operator</text>
<text text-anchor="middle" x="399" y="-8.4" font-family="Helvetica,sans-Serif" font-size="12.00">&#45;Console/MsgDialog.cpp</text>
</a>
</g>
</g>
<!-- Node4&#45;&gt;Node8 -->
<g id="edge7" class="edge"><title>Node4&#45;&gt;Node8</title>
<path fill="none" stroke="midnightblue" d="M607.92,-70.4944C563.265,-59.488 507.164,-45.6601 464.343,-35.1057"/>
<polygon fill="midnightblue" stroke="midnightblue" points="607.298,-73.9456 617.845,-72.9406 608.973,-67.149 607.298,-73.9456"/>
</g>
<!-- Node9 -->
<g id="node9" class="node"><title>Node9</title>
<g id="a_node9"><a xlink:href="../../db/db5/_documentation_2_operator-_console_2_operator_console_8cpp.html" target="_top" xlink:title="Documentation/Operator\l&#45;Console/OperatorConsole.cpp">
<polygon fill="white" stroke="black" points="490.5,-1 490.5,-35 669.5,-35 669.5,-1 490.5,-1"/>
<text text-anchor="start" x="498.5" y="-21.4" font-family="Helvetica,sans-Serif" font-size="12.00">Documentation/Operator</text>
<text text-anchor="middle" x="580" y="-8.4" font-family="Helvetica,sans-Serif" font-size="12.00">&#45;Console/OperatorConsole.cpp</text>
</a>
</g>
</g>
<!-- Node4&#45;&gt;Node9 -->
<g id="edge8" class="edge"><title>Node4&#45;&gt;Node9</title>
<path fill="none" stroke="midnightblue" d="M650.785,-67.1066C635.61,-56.7935 617.824,-44.7058 603.877,-35.2271"/>
<polygon fill="midnightblue" stroke="midnightblue" points="649.132,-70.2144 659.37,-72.9406 653.066,-64.4249 649.132,-70.2144"/>
</g>
<!-- Node10 -->
<g id="node10" class="node"><title>Node10</title>
<g id="a_node10"><a xlink:href="../../dd/dcb/_documentation_2_operator-_console_2_operator_console_dlg_8cpp.html" target="_top" xlink:title="Documentation/Operator\l&#45;Console/OperatorConsoleDlg.cpp">
<polygon fill="white" stroke="black" points="687.5,-1 687.5,-35 884.5,-35 884.5,-1 687.5,-1"/>
<text text-anchor="start" x="695.5" y="-21.4" font-family="Helvetica,sans-Serif" font-size="12.00">Documentation/Operator</text>
<text text-anchor="middle" x="786" y="-8.4" font-family="Helvetica,sans-Serif" font-size="12.00">&#45;Console/OperatorConsoleDlg.cpp</text>
</a>
</g>
</g>
<!-- Node4&#45;&gt;Node10 -->
<g id="edge9" class="edge"><title>Node4&#45;&gt;Node10</title>
<path fill="none" stroke="midnightblue" d="M715.215,-67.1066C730.39,-56.7935 748.176,-44.7058 762.123,-35.2271"/>
<polygon fill="midnightblue" stroke="midnightblue" points="712.934,-64.4249 706.63,-72.9406 716.868,-70.2144 712.934,-64.4249"/>
</g>
<!-- Node11 -->
<g id="node11" class="node"><title>Node11</title>
<g id="a_node11"><a xlink:href="../../dd/d14/_documentation_2_operator-_console_2_pass_fail_8cpp.html" target="_top" xlink:title="Documentation/Operator\l&#45;Console/PassFail.cpp">
<polygon fill="white" stroke="black" points="902.5,-1 902.5,-35 1047.5,-35 1047.5,-1 902.5,-1"/>
<text text-anchor="start" x="910.5" y="-21.4" font-family="Helvetica,sans-Serif" font-size="12.00">Documentation/Operator</text>
<text text-anchor="middle" x="975" y="-8.4" font-family="Helvetica,sans-Serif" font-size="12.00">&#45;Console/PassFail.cpp</text>
</a>
</g>
</g>
<!-- Node4&#45;&gt;Node11 -->
<g id="edge10" class="edge"><title>Node4&#45;&gt;Node11</title>
<path fill="none" stroke="midnightblue" d="M759.924,-70.5594C805.968,-59.5214 863.923,-45.628 908.069,-35.0452"/>
<polygon fill="midnightblue" stroke="midnightblue" points="758.899,-67.2057 749.991,-72.9406 760.531,-74.0129 758.899,-67.2057"/>
</g>
<!-- Node12 -->
<g id="node12" class="node"><title>Node12</title>
<g id="a_node12"><a xlink:href="../../dd/d4b/_documentation_2_operator-_console_2_password_dialog_8cpp.html" target="_top" xlink:title="Documentation/Operator\l&#45;Console/PasswordDialog.cpp">
<polygon fill="white" stroke="black" points="1066,-1 1066,-35 1242,-35 1242,-1 1066,-1"/>
<text text-anchor="start" x="1074" y="-21.4" font-family="Helvetica,sans-Serif" font-size="12.00">Documentation/Operator</text>
<text text-anchor="middle" x="1154" y="-8.4" font-family="Helvetica,sans-Serif" font-size="12.00">&#45;Console/PasswordDialog.cpp</text>
</a>
</g>
</g>
<!-- Node4&#45;&gt;Node12 -->
<g id="edge11" class="edge"><title>Node4&#45;&gt;Node12</title>
<path fill="none" stroke="midnightblue" d="M776.162,-71.8663C901.088,-52.652 934.658,-54.2882 1056,-36 1059.24,-35.511 1062.55,-35.001 1065.88,-34.4757"/>
<polygon fill="midnightblue" stroke="midnightblue" points="775.554,-68.4187 766.209,-73.4112 776.628,-75.3359 775.554,-68.4187"/>
</g>
<!-- Node13 -->
<g id="node13" class="node"><title>Node13</title>
<g id="a_node13"><a xlink:href="../../d3/d68/_documentation_2_operator-_console_2_setup_8cpp.html" target="_top" xlink:title="Documentation/Operator\l&#45;Console/Setup.cpp">
<polygon fill="white" stroke="black" points="1260.5,-1 1260.5,-35 1405.5,-35 1405.5,-1 1260.5,-1"/>
<text text-anchor="start" x="1268.5" y="-21.4" font-family="Helvetica,sans-Serif" font-size="12.00">Documentation/Operator</text>
<text text-anchor="middle" x="1333" y="-8.4" font-family="Helvetica,sans-Serif" font-size="12.00">&#45;Console/Setup.cpp</text>
</a>
</g>
</g>
<!-- Node4&#45;&gt;Node13 -->
<g id="edge12" class="edge"><title>Node4&#45;&gt;Node13</title>
<path fill="none" stroke="midnightblue" d="M776.339,-71.9148C987.167,-45.3265 1044.2,-65.1333 1251,-36 1254.02,-35.5741 1257.1,-35.1037 1260.21,-34.5989"/>
<polygon fill="midnightblue" stroke="midnightblue" points="775.656,-68.4736 766.182,-73.2163 776.545,-75.4168 775.656,-68.4736"/>
</g>
<!-- Node15&#45;&gt;Node4 -->
<g id="edge16" class="edge"><title>Node15&#45;&gt;Node4</title>
<path fill="none" stroke="midnightblue" d="M736.112,-138.061C724.706,-127.955 711.575,-116.32 701.223,-107.147"/>
<polygon fill="midnightblue" stroke="midnightblue" points="733.872,-140.752 743.677,-144.765 738.514,-135.513 733.872,-140.752"/>
</g>
<!-- Node15&#45;&gt;Node16 -->
<g id="edge17" class="edge"><title>Node15&#45;&gt;Node16</title>
<path fill="none" stroke="midnightblue" d="M793.589,-139.107C808.469,-128.793 825.91,-116.706 839.587,-107.227"/>
<polygon fill="midnightblue" stroke="midnightblue" points="791.397,-136.368 785.171,-144.941 795.384,-142.121 791.397,-136.368"/>
</g>
</g>
</svg>
