<?xml version="1.0" encoding="UTF-8" standalone="no"?>
<!DOCTYPE svg PUBLIC "-//W3C//DTD SVG 1.1//EN"
 "http://www.w3.org/Graphics/SVG/1.1/DTD/svg11.dtd">
<!-- Generated by graphviz version 2.34.0 (20130907.0111)
 -->
<!-- Title: ResizeDlg.h Pages: 1 -->
<svg width="265pt" height="88pt"
 viewBox="0.00 0.00 265.00 88.00" xmlns="http://www.w3.org/2000/svg" xmlns:xlink="http://www.w3.org/1999/xlink">
<g id="graph0" class="graph" transform="scale(1 1) rotate(0) translate(4 84)">
<title>ResizeDlg.h</title>
<polygon fill="white" stroke="white" points="-4,4 -4,-84 261,-84 261,4 -4,4"/>
<!-- Node1 -->
<g id="node1" class="node"><title>Node1</title>
<polygon fill="#bfbfbf" stroke="black" points="102,-58.5 102,-79.5 182,-79.5 182,-58.5 102,-58.5"/>
<text text-anchor="middle" x="142" y="-65.9" font-family="Helvetica,sans-Serif" font-size="12.00">ResizeDlg.h</text>
</g>
<!-- Node2 -->
<g id="node2" class="node"><title>Node2</title>
<g id="a_node2"><a xlink:href="../../d8/d29/_operator_console_dlg_8cpp.html" target="_top" xlink:title="OperatorConsoleDlg.cpp">
<polygon fill="white" stroke="black" points="-0.5,-0.5 -0.5,-21.5 146.5,-21.5 146.5,-0.5 -0.5,-0.5"/>
<text text-anchor="middle" x="73" y="-7.9" font-family="Helvetica,sans-Serif" font-size="12.00">OperatorConsoleDlg.cpp</text>
</a>
</g>
</g>
<!-- Node1&#45;&gt;Node2 -->
<g id="edge1" class="edge"><title>Node1&#45;&gt;Node2</title>
<path fill="none" stroke="midnightblue" d="M122.197,-51.928C110.136,-42.1397 95.1286,-29.9595 84.8812,-21.6427"/>
<polygon fill="midnightblue" stroke="midnightblue" points="120.011,-54.6614 129.981,-58.2455 124.422,-49.2262 120.011,-54.6614"/>
</g>
<!-- Node3 -->
<g id="node3" class="node"><title>Node3</title>
<g id="a_node3"><a xlink:href="../../d7/d0e/_resize_dlg_8cpp.html" target="_top" xlink:title="ResizeDlg.cpp">
<polygon fill="white" stroke="black" points="164.5,-0.5 164.5,-21.5 257.5,-21.5 257.5,-0.5 164.5,-0.5"/>
<text text-anchor="middle" x="211" y="-7.9" font-family="Helvetica,sans-Serif" font-size="12.00">ResizeDlg.cpp</text>
</a>
</g>
</g>
<!-- Node1&#45;&gt;Node3 -->
<g id="edge2" class="edge"><title>Node1&#45;&gt;Node3</title>
<path fill="none" stroke="midnightblue" d="M161.803,-51.928C173.864,-42.1397 188.871,-29.9595 199.119,-21.6427"/>
<polygon fill="midnightblue" stroke="midnightblue" points="159.578,-49.2262 154.019,-58.2455 163.989,-54.6614 159.578,-49.2262"/>
</g>
</g>
</svg>
