<?xml version="1.0" encoding="UTF-8" standalone="no"?>
<!DOCTYPE svg PUBLIC "-//W3C//DTD SVG 1.1//EN"
 "http://www.w3.org/Graphics/SVG/1.1/DTD/svg11.dtd">
<!-- Generated by graphviz version 2.34.0 (20130907.0111)
 -->
<!-- Title: Timer::Elapsed Pages: 1 -->
<svg width="1090pt" height="95pt"
 viewBox="0.00 0.00 1090.00 95.00" xmlns="http://www.w3.org/2000/svg" xmlns:xlink="http://www.w3.org/1999/xlink">
<g id="graph0" class="graph" transform="scale(1 1) rotate(0) translate(4 91)">
<title>Timer::Elapsed</title>
<polygon fill="white" stroke="white" points="-4,4 -4,-91 1086,-91 1086,4 -4,4"/>
<!-- Node1 -->
<g id="node1" class="node"><title>Node1</title>
<polygon fill="#bfbfbf" stroke="black" points="0,-32.5 0,-53.5 96,-53.5 96,-32.5 0,-32.5"/>
<text text-anchor="middle" x="48" y="-39.9" font-family="Helvetica,sans-Serif" font-size="12.00">Timer::Elapsed</text>
</g>
<!-- Node2 -->
<g id="node2" class="node"><title>Node2</title>
<g id="a_node2"><a xlink:href="../../d8/d08/class_timer.html#a6379e797f968aaee6ac3bb12dc6b81c5" target="_top" xlink:title="Timer::Stop">
<polygon fill="white" stroke="black" points="132.5,-32.5 132.5,-53.5 209.5,-53.5 209.5,-32.5 132.5,-32.5"/>
<text text-anchor="middle" x="171" y="-39.9" font-family="Helvetica,sans-Serif" font-size="12.00">Timer::Stop</text>
</a>
</g>
</g>
<!-- Node1&#45;&gt;Node2 -->
<g id="edge1" class="edge"><title>Node1&#45;&gt;Node2</title>
<path fill="none" stroke="midnightblue" d="M106.336,-43C115.103,-43 123.96,-43 132.166,-43"/>
<polygon fill="midnightblue" stroke="midnightblue" points="106.128,-39.5001 96.1282,-43 106.128,-46.5001 106.128,-39.5001"/>
</g>
<!-- Node3 -->
<g id="node3" class="node"><title>Node3</title>
<g id="a_node3"><a xlink:href="../../da/d92/class_image_test.html#a372478d09c06cd7ab3684840add6215e" target="_top" xlink:title="param must be a pointer to a ThreadControl object; param&#45;&gt;m_data must point to an ImageTest object ...">
<polygon fill="white" stroke="black" points="246.5,-32.5 246.5,-53.5 385.5,-53.5 385.5,-32.5 246.5,-32.5"/>
<text text-anchor="middle" x="316" y="-39.9" font-family="Helvetica,sans-Serif" font-size="12.00">ImageTest::ThreadProc</text>
</a>
</g>
</g>
<!-- Node2&#45;&gt;Node3 -->
<g id="edge2" class="edge"><title>Node2&#45;&gt;Node3</title>
<path fill="none" stroke="midnightblue" d="M219.735,-43C228.309,-43 237.397,-43 246.422,-43"/>
<polygon fill="midnightblue" stroke="midnightblue" points="219.572,-39.5001 209.572,-43 219.572,-46.5001 219.572,-39.5001"/>
</g>
<!-- Node4 -->
<g id="node4" class="node"><title>Node4</title>
<g id="a_node4"><a xlink:href="../../d3/d9f/class_c_operator_console_app.html#a51ad7e6e8f370072c3e89d0d7e9e41a8" target="_top" xlink:title="COperatorConsoleApp\l::InitBlemishThread">
<polygon fill="white" stroke="black" points="422.5,-53 422.5,-87 559.5,-87 559.5,-53 422.5,-53"/>
<text text-anchor="start" x="430.5" y="-73.4" font-family="Helvetica,sans-Serif" font-size="12.00">COperatorConsoleApp</text>
<text text-anchor="middle" x="491" y="-60.4" font-family="Helvetica,sans-Serif" font-size="12.00">::InitBlemishThread</text>
</a>
</g>
</g>
<!-- Node3&#45;&gt;Node4 -->
<g id="edge3" class="edge"><title>Node3&#45;&gt;Node4</title>
<path fill="none" stroke="midnightblue" d="M394.382,-55.077C403.669,-56.5264 413.097,-57.9978 422.233,-59.4236"/>
<polygon fill="midnightblue" stroke="midnightblue" points="394.802,-51.6002 384.382,-53.5162 393.722,-58.5165 394.802,-51.6002"/>
</g>
<!-- Node10 -->
<g id="node10" class="node"><title>Node10</title>
<g id="a_node10"><a xlink:href="../../d3/d9f/class_c_operator_console_app.html#af7328d2c00abb1d4a09a65492c69b2b0" target="_top" xlink:title="COperatorConsoleApp\l::InitSFRplusThread">
<polygon fill="white" stroke="black" points="422.5,-0 422.5,-34 559.5,-34 559.5,-0 422.5,-0"/>
<text text-anchor="start" x="430.5" y="-20.4" font-family="Helvetica,sans-Serif" font-size="12.00">COperatorConsoleApp</text>
<text text-anchor="middle" x="491" y="-7.4" font-family="Helvetica,sans-Serif" font-size="12.00">::InitSFRplusThread</text>
</a>
</g>
</g>
<!-- Node3&#45;&gt;Node10 -->
<g id="edge9" class="edge"><title>Node3&#45;&gt;Node10</title>
<path fill="none" stroke="midnightblue" d="M395.852,-31.1494C404.751,-29.812 413.759,-28.4583 422.494,-27.1454"/>
<polygon fill="midnightblue" stroke="midnightblue" points="395.24,-27.702 385.871,-32.6494 396.28,-34.6243 395.24,-27.702"/>
</g>
<!-- Node5 -->
<g id="node5" class="node"><title>Node5</title>
<g id="a_node5"><a xlink:href="../../d3/d9f/class_c_operator_console_app.html#a7f0cd7b21cee2171dea973e4e6e7bb9d" target="_top" xlink:title="Init perform application&#45;specific initialization. ">
<polygon fill="white" stroke="black" points="596.5,-53 596.5,-87 733.5,-87 733.5,-53 596.5,-53"/>
<text text-anchor="start" x="604.5" y="-73.4" font-family="Helvetica,sans-Serif" font-size="12.00">COperatorConsoleApp</text>
<text text-anchor="middle" x="665" y="-60.4" font-family="Helvetica,sans-Serif" font-size="12.00">::Init</text>
</a>
</g>
</g>
<!-- Node4&#45;&gt;Node5 -->
<g id="edge4" class="edge"><title>Node4&#45;&gt;Node5</title>
<path fill="none" stroke="midnightblue" d="M570.134,-70C578.846,-70 587.666,-70 596.233,-70"/>
<polygon fill="midnightblue" stroke="midnightblue" points="569.979,-66.5001 559.979,-70 569.979,-73.5001 569.979,-66.5001"/>
</g>
<!-- Node7 -->
<g id="node7" class="node"><title>Node7</title>
<g id="a_node7"><a xlink:href="../../d3/d9f/class_c_operator_console_app.html#aede77af6cae8053d49c752fd95910728" target="_top" xlink:title="This function allows for reallocation of the various image buffers when we change the image size...">
<polygon fill="white" stroke="black" points="596.5,-0 596.5,-34 733.5,-34 733.5,-0 596.5,-0"/>
<text text-anchor="start" x="604.5" y="-20.4" font-family="Helvetica,sans-Serif" font-size="12.00">COperatorConsoleApp</text>
<text text-anchor="middle" x="665" y="-7.4" font-family="Helvetica,sans-Serif" font-size="12.00">::ReInit</text>
</a>
</g>
</g>
<!-- Node4&#45;&gt;Node7 -->
<g id="edge6" class="edge"><title>Node4&#45;&gt;Node7</title>
<path fill="none" stroke="midnightblue" d="M557.212,-49.9056C574.193,-44.6732 592.324,-39.0863 608.735,-34.0293"/>
<polygon fill="midnightblue" stroke="midnightblue" points="555.895,-46.6491 547.369,-52.9387 557.956,-53.3387 555.895,-46.6491"/>
</g>
<!-- Node6 -->
<g id="node6" class="node"><title>Node6</title>
<g id="a_node6"><a xlink:href="../../d3/d9f/class_c_operator_console_app.html#a94f4b258145e77e31644beb999bf099a" target="_top" xlink:title="COperatorConsoleApp initialization. ">
<polygon fill="white" stroke="black" points="770.5,-53 770.5,-87 907.5,-87 907.5,-53 770.5,-53"/>
<text text-anchor="start" x="778.5" y="-73.4" font-family="Helvetica,sans-Serif" font-size="12.00">COperatorConsoleApp</text>
<text text-anchor="middle" x="839" y="-60.4" font-family="Helvetica,sans-Serif" font-size="12.00">::InitInstance</text>
</a>
</g>
</g>
<!-- Node5&#45;&gt;Node6 -->
<g id="edge5" class="edge"><title>Node5&#45;&gt;Node6</title>
<path fill="none" stroke="midnightblue" d="M744.134,-70C752.846,-70 761.666,-70 770.233,-70"/>
<polygon fill="midnightblue" stroke="midnightblue" points="743.979,-66.5001 733.979,-70 743.979,-73.5001 743.979,-66.5001"/>
</g>
<!-- Node8 -->
<g id="node8" class="node"><title>Node8</title>
<g id="a_node8"><a xlink:href="../../d3/d9f/class_c_operator_console_app.html#a620f8d2eed65d743bb177abcb90936e6" target="_top" xlink:title="Called after MSG_SETUP is received. ">
<polygon fill="white" stroke="black" points="770.5,-0 770.5,-34 907.5,-34 907.5,-0 770.5,-0"/>
<text text-anchor="start" x="778.5" y="-20.4" font-family="Helvetica,sans-Serif" font-size="12.00">COperatorConsoleApp</text>
<text text-anchor="middle" x="839" y="-7.4" font-family="Helvetica,sans-Serif" font-size="12.00">::OnSetup</text>
</a>
</g>
</g>
<!-- Node7&#45;&gt;Node8 -->
<g id="edge7" class="edge"><title>Node7&#45;&gt;Node8</title>
<path fill="none" stroke="midnightblue" d="M744.134,-17C752.846,-17 761.666,-17 770.233,-17"/>
<polygon fill="midnightblue" stroke="midnightblue" points="743.979,-13.5001 733.979,-17 743.979,-20.5001 743.979,-13.5001"/>
</g>
<!-- Node9 -->
<g id="node9" class="node"><title>Node9</title>
<g id="a_node9"><a xlink:href="../../d3/d9f/class_c_operator_console_app.html#a7041d197c4e6549f2cb7219981b4eec1" target="_top" xlink:title="Intercepts messages of interest before Windows or MFC. ">
<polygon fill="white" stroke="black" points="944,-0 944,-34 1082,-34 1082,-0 944,-0"/>
<text text-anchor="start" x="952" y="-20.4" font-family="Helvetica,sans-Serif" font-size="12.00">COperatorConsoleApp</text>
<text text-anchor="middle" x="1013" y="-7.4" font-family="Helvetica,sans-Serif" font-size="12.00">::PreTranslateMessage</text>
</a>
</g>
</g>
<!-- Node8&#45;&gt;Node9 -->
<g id="edge8" class="edge"><title>Node8&#45;&gt;Node9</title>
<path fill="none" stroke="midnightblue" d="M918.054,-17C926.696,-17 935.446,-17 943.952,-17"/>
<polygon fill="midnightblue" stroke="midnightblue" points="917.979,-13.5001 907.979,-17 917.979,-20.5001 917.979,-13.5001"/>
</g>
<!-- Node10&#45;&gt;Node5 -->
<g id="edge10" class="edge"><title>Node10&#45;&gt;Node5</title>
<path fill="none" stroke="midnightblue" d="M557.212,-37.0944C574.193,-42.3268 592.324,-47.9137 608.735,-52.9707"/>
<polygon fill="midnightblue" stroke="midnightblue" points="557.956,-33.6613 547.369,-34.0613 555.895,-40.3509 557.956,-33.6613"/>
</g>
<!-- Node10&#45;&gt;Node7 -->
<g id="edge11" class="edge"><title>Node10&#45;&gt;Node7</title>
<path fill="none" stroke="midnightblue" d="M570.134,-17C578.846,-17 587.666,-17 596.233,-17"/>
<polygon fill="midnightblue" stroke="midnightblue" points="569.979,-13.5001 559.979,-17 569.979,-20.5001 569.979,-13.5001"/>
</g>
</g>
</svg>
