<?xml version="1.0" encoding="UTF-8" standalone="no"?>
<!DOCTYPE svg PUBLIC "-//W3C//DTD SVG 1.1//EN"
 "http://www.w3.org/Graphics/SVG/1.1/DTD/svg11.dtd">
<!-- Generated by graphviz version 2.34.0 (20130907.0111)
 -->
<!-- Title: Timer::Get Pages: 1 -->
<svg width="952pt" height="95pt"
 viewBox="0.00 0.00 952.00 95.00" xmlns="http://www.w3.org/2000/svg" xmlns:xlink="http://www.w3.org/1999/xlink">
<g id="graph0" class="graph" transform="scale(1 1) rotate(0) translate(4 91)">
<title>Timer::Get</title>
<polygon fill="white" stroke="white" points="-4,4 -4,-91 948,-91 948,4 -4,4"/>
<!-- Node1 -->
<g id="node1" class="node"><title>Node1</title>
<polygon fill="#bfbfbf" stroke="black" points="0.5,-32.5 0.5,-53.5 71.5,-53.5 71.5,-32.5 0.5,-32.5"/>
<text text-anchor="middle" x="36" y="-39.9" font-family="Helvetica,sans-Serif" font-size="12.00">Timer::Get</text>
</g>
<!-- Node2 -->
<g id="node2" class="node"><title>Node2</title>
<g id="a_node2"><a xlink:href="../../da/d92/class_image_test.html#a372478d09c06cd7ab3684840add6215e" target="_top" xlink:title="param must be a pointer to a ThreadControl object; param&#45;&gt;m_data must point to an ImageTest object ...">
<polygon fill="white" stroke="black" points="108.5,-32.5 108.5,-53.5 247.5,-53.5 247.5,-32.5 108.5,-32.5"/>
<text text-anchor="middle" x="178" y="-39.9" font-family="Helvetica,sans-Serif" font-size="12.00">ImageTest::ThreadProc</text>
</a>
</g>
</g>
<!-- Node1&#45;&gt;Node2 -->
<g id="edge1" class="edge"><title>Node1&#45;&gt;Node2</title>
<path fill="none" stroke="midnightblue" d="M81.6654,-43C90.1802,-43 99.2731,-43 108.336,-43"/>
<polygon fill="midnightblue" stroke="midnightblue" points="81.6068,-39.5001 71.6068,-43 81.6067,-46.5001 81.6068,-39.5001"/>
</g>
<!-- Node3 -->
<g id="node3" class="node"><title>Node3</title>
<g id="a_node3"><a xlink:href="../../d3/d9f/class_c_operator_console_app.html#a51ad7e6e8f370072c3e89d0d7e9e41a8" target="_top" xlink:title="COperatorConsoleApp\l::InitBlemishThread">
<polygon fill="white" stroke="black" points="284.5,-53 284.5,-87 421.5,-87 421.5,-53 284.5,-53"/>
<text text-anchor="start" x="292.5" y="-73.4" font-family="Helvetica,sans-Serif" font-size="12.00">COperatorConsoleApp</text>
<text text-anchor="middle" x="353" y="-60.4" font-family="Helvetica,sans-Serif" font-size="12.00">::InitBlemishThread</text>
</a>
</g>
</g>
<!-- Node2&#45;&gt;Node3 -->
<g id="edge2" class="edge"><title>Node2&#45;&gt;Node3</title>
<path fill="none" stroke="midnightblue" d="M256.382,-55.077C265.669,-56.5264 275.097,-57.9978 284.233,-59.4236"/>
<polygon fill="midnightblue" stroke="midnightblue" points="256.802,-51.6002 246.382,-53.5162 255.722,-58.5165 256.802,-51.6002"/>
</g>
<!-- Node9 -->
<g id="node9" class="node"><title>Node9</title>
<g id="a_node9"><a xlink:href="../../d3/d9f/class_c_operator_console_app.html#af7328d2c00abb1d4a09a65492c69b2b0" target="_top" xlink:title="COperatorConsoleApp\l::InitSFRplusThread">
<polygon fill="white" stroke="black" points="284.5,-0 284.5,-34 421.5,-34 421.5,-0 284.5,-0"/>
<text text-anchor="start" x="292.5" y="-20.4" font-family="Helvetica,sans-Serif" font-size="12.00">COperatorConsoleApp</text>
<text text-anchor="middle" x="353" y="-7.4" font-family="Helvetica,sans-Serif" font-size="12.00">::InitSFRplusThread</text>
</a>
</g>
</g>
<!-- Node2&#45;&gt;Node9 -->
<g id="edge8" class="edge"><title>Node2&#45;&gt;Node9</title>
<path fill="none" stroke="midnightblue" d="M257.852,-31.1494C266.751,-29.812 275.759,-28.4583 284.494,-27.1454"/>
<polygon fill="midnightblue" stroke="midnightblue" points="257.24,-27.702 247.871,-32.6494 258.28,-34.6243 257.24,-27.702"/>
</g>
<!-- Node4 -->
<g id="node4" class="node"><title>Node4</title>
<g id="a_node4"><a xlink:href="../../d3/d9f/class_c_operator_console_app.html#a7f0cd7b21cee2171dea973e4e6e7bb9d" target="_top" xlink:title="Init perform application&#45;specific initialization. ">
<polygon fill="white" stroke="black" points="458.5,-53 458.5,-87 595.5,-87 595.5,-53 458.5,-53"/>
<text text-anchor="start" x="466.5" y="-73.4" font-family="Helvetica,sans-Serif" font-size="12.00">COperatorConsoleApp</text>
<text text-anchor="middle" x="527" y="-60.4" font-family="Helvetica,sans-Serif" font-size="12.00">::Init</text>
</a>
</g>
</g>
<!-- Node3&#45;&gt;Node4 -->
<g id="edge3" class="edge"><title>Node3&#45;&gt;Node4</title>
<path fill="none" stroke="midnightblue" d="M432.134,-70C440.846,-70 449.666,-70 458.233,-70"/>
<polygon fill="midnightblue" stroke="midnightblue" points="431.979,-66.5001 421.979,-70 431.979,-73.5001 431.979,-66.5001"/>
</g>
<!-- Node6 -->
<g id="node6" class="node"><title>Node6</title>
<g id="a_node6"><a xlink:href="../../d3/d9f/class_c_operator_console_app.html#aede77af6cae8053d49c752fd95910728" target="_top" xlink:title="This function allows for reallocation of the various image buffers when we change the image size...">
<polygon fill="white" stroke="black" points="458.5,-0 458.5,-34 595.5,-34 595.5,-0 458.5,-0"/>
<text text-anchor="start" x="466.5" y="-20.4" font-family="Helvetica,sans-Serif" font-size="12.00">COperatorConsoleApp</text>
<text text-anchor="middle" x="527" y="-7.4" font-family="Helvetica,sans-Serif" font-size="12.00">::ReInit</text>
</a>
</g>
</g>
<!-- Node3&#45;&gt;Node6 -->
<g id="edge5" class="edge"><title>Node3&#45;&gt;Node6</title>
<path fill="none" stroke="midnightblue" d="M419.212,-49.9056C436.193,-44.6732 454.324,-39.0863 470.735,-34.0293"/>
<polygon fill="midnightblue" stroke="midnightblue" points="417.895,-46.6491 409.369,-52.9387 419.956,-53.3387 417.895,-46.6491"/>
</g>
<!-- Node5 -->
<g id="node5" class="node"><title>Node5</title>
<g id="a_node5"><a xlink:href="../../d3/d9f/class_c_operator_console_app.html#a94f4b258145e77e31644beb999bf099a" target="_top" xlink:title="COperatorConsoleApp initialization. ">
<polygon fill="white" stroke="black" points="632.5,-53 632.5,-87 769.5,-87 769.5,-53 632.5,-53"/>
<text text-anchor="start" x="640.5" y="-73.4" font-family="Helvetica,sans-Serif" font-size="12.00">COperatorConsoleApp</text>
<text text-anchor="middle" x="701" y="-60.4" font-family="Helvetica,sans-Serif" font-size="12.00">::InitInstance</text>
</a>
</g>
</g>
<!-- Node4&#45;&gt;Node5 -->
<g id="edge4" class="edge"><title>Node4&#45;&gt;Node5</title>
<path fill="none" stroke="midnightblue" d="M606.134,-70C614.846,-70 623.666,-70 632.233,-70"/>
<polygon fill="midnightblue" stroke="midnightblue" points="605.979,-66.5001 595.979,-70 605.979,-73.5001 605.979,-66.5001"/>
</g>
<!-- Node7 -->
<g id="node7" class="node"><title>Node7</title>
<g id="a_node7"><a xlink:href="../../d3/d9f/class_c_operator_console_app.html#a620f8d2eed65d743bb177abcb90936e6" target="_top" xlink:title="Called after MSG_SETUP is received. ">
<polygon fill="white" stroke="black" points="632.5,-0 632.5,-34 769.5,-34 769.5,-0 632.5,-0"/>
<text text-anchor="start" x="640.5" y="-20.4" font-family="Helvetica,sans-Serif" font-size="12.00">COperatorConsoleApp</text>
<text text-anchor="middle" x="701" y="-7.4" font-family="Helvetica,sans-Serif" font-size="12.00">::OnSetup</text>
</a>
</g>
</g>
<!-- Node6&#45;&gt;Node7 -->
<g id="edge6" class="edge"><title>Node6&#45;&gt;Node7</title>
<path fill="none" stroke="midnightblue" d="M606.134,-17C614.846,-17 623.666,-17 632.233,-17"/>
<polygon fill="midnightblue" stroke="midnightblue" points="605.979,-13.5001 595.979,-17 605.979,-20.5001 605.979,-13.5001"/>
</g>
<!-- Node8 -->
<g id="node8" class="node"><title>Node8</title>
<g id="a_node8"><a xlink:href="../../d3/d9f/class_c_operator_console_app.html#a7041d197c4e6549f2cb7219981b4eec1" target="_top" xlink:title="Intercepts messages of interest before Windows or MFC. ">
<polygon fill="white" stroke="black" points="806,-0 806,-34 944,-34 944,-0 806,-0"/>
<text text-anchor="start" x="814" y="-20.4" font-family="Helvetica,sans-Serif" font-size="12.00">COperatorConsoleApp</text>
<text text-anchor="middle" x="875" y="-7.4" font-family="Helvetica,sans-Serif" font-size="12.00">::PreTranslateMessage</text>
</a>
</g>
</g>
<!-- Node7&#45;&gt;Node8 -->
<g id="edge7" class="edge"><title>Node7&#45;&gt;Node8</title>
<path fill="none" stroke="midnightblue" d="M780.054,-17C788.696,-17 797.446,-17 805.952,-17"/>
<polygon fill="midnightblue" stroke="midnightblue" points="779.979,-13.5001 769.979,-17 779.979,-20.5001 779.979,-13.5001"/>
</g>
<!-- Node9&#45;&gt;Node4 -->
<g id="edge9" class="edge"><title>Node9&#45;&gt;Node4</title>
<path fill="none" stroke="midnightblue" d="M419.212,-37.0944C436.193,-42.3268 454.324,-47.9137 470.735,-52.9707"/>
<polygon fill="midnightblue" stroke="midnightblue" points="419.956,-33.6613 409.369,-34.0613 417.895,-40.3509 419.956,-33.6613"/>
</g>
<!-- Node9&#45;&gt;Node6 -->
<g id="edge10" class="edge"><title>Node9&#45;&gt;Node6</title>
<path fill="none" stroke="midnightblue" d="M432.134,-17C440.846,-17 449.666,-17 458.233,-17"/>
<polygon fill="midnightblue" stroke="midnightblue" points="431.979,-13.5001 421.979,-17 431.979,-20.5001 431.979,-13.5001"/>
</g>
</g>
</svg>
