<?xml version="1.0" encoding="UTF-8" standalone="no"?>
<!DOCTYPE svg PUBLIC "-//W3C//DTD SVG 1.1//EN"
 "http://www.w3.org/Graphics/SVG/1.1/DTD/svg11.dtd">
<!-- Generated by graphviz version 2.34.0 (20130907.0111)
 -->
<!-- Title: prepareTestSettings Pages: 1 -->
<svg width="1066pt" height="150pt"
 viewBox="0.00 0.00 1066.00 150.00" xmlns="http://www.w3.org/2000/svg" xmlns:xlink="http://www.w3.org/1999/xlink">
<g id="graph0" class="graph" transform="scale(1 1) rotate(0) translate(4 146)">
<title>prepareTestSettings</title>
<polygon fill="white" stroke="white" points="-4,4 -4,-146 1062,-146 1062,4 -4,4"/>
<!-- Node1 -->
<g id="node1" class="node"><title>Node1</title>
<polygon fill="#bfbfbf" stroke="black" points="0.5,-80.5 0.5,-101.5 123.5,-101.5 123.5,-80.5 0.5,-80.5"/>
<text text-anchor="middle" x="62" y="-87.9" font-family="Helvetica,sans-Serif" font-size="12.00">prepareTestSettings</text>
</g>
<!-- Node2 -->
<g id="node2" class="node"><title>Node2</title>
<g id="a_node2"><a xlink:href="../../d6/dc7/class_j_s_o_n_node.html#a5200c65f827a99897b00681aa3b35671" target="_top" xlink:title="JSONNode::push_back">
<polygon fill="white" stroke="black" points="172,-120.5 172,-141.5 312,-141.5 312,-120.5 172,-120.5"/>
<text text-anchor="middle" x="242" y="-127.9" font-family="Helvetica,sans-Serif" font-size="12.00">JSONNode::push_back</text>
</a>
</g>
</g>
<!-- Node1&#45;&gt;Node2 -->
<g id="edge1" class="edge"><title>Node1&#45;&gt;Node2</title>
<path fill="none" stroke="midnightblue" d="M109.767,-101.51C132.57,-106.634 160.188,-112.84 184.194,-118.235"/>
<polygon fill="midnightblue" stroke="midnightblue" points="183.712,-121.714 194.236,-120.491 185.247,-114.884 183.712,-121.714"/>
</g>
<!-- Node7 -->
<g id="node7" class="node"><title>Node7</title>
<g id="a_node7"><a xlink:href="../../d6/dc7/class_j_s_o_n_node.html#aba2f5954c1f37c61829346aed5de0271" target="_top" xlink:title="JSONNode::set_name">
<polygon fill="white" stroke="black" points="175,-80.5 175,-101.5 309,-101.5 309,-80.5 175,-80.5"/>
<text text-anchor="middle" x="242" y="-87.9" font-family="Helvetica,sans-Serif" font-size="12.00">JSONNode::set_name</text>
</a>
</g>
</g>
<!-- Node1&#45;&gt;Node7 -->
<g id="edge6" class="edge"><title>Node1&#45;&gt;Node7</title>
<path fill="none" stroke="midnightblue" d="M123.76,-91C136.841,-91 150.831,-91 164.426,-91"/>
<polygon fill="midnightblue" stroke="midnightblue" points="164.724,-94.5001 174.724,-91 164.724,-87.5001 164.724,-94.5001"/>
</g>
<!-- Node9 -->
<g id="node9" class="node"><title>Node9</title>
<g id="a_node9"><a xlink:href="../../d6/dc7/class_j_s_o_n_node.html#a5b2d8892d68aa1d9ed2b051424081f74" target="_top" xlink:title="JSONNode::write_formatted">
<polygon fill="white" stroke="black" points="160,-40.5 160,-61.5 324,-61.5 324,-40.5 160,-40.5"/>
<text text-anchor="middle" x="242" y="-47.9" font-family="Helvetica,sans-Serif" font-size="12.00">JSONNode::write_formatted</text>
</a>
</g>
</g>
<!-- Node1&#45;&gt;Node9 -->
<g id="edge8" class="edge"><title>Node1&#45;&gt;Node9</title>
<path fill="none" stroke="midnightblue" d="M109.767,-80.4905C132.57,-75.3663 160.188,-69.1601 184.194,-63.7655"/>
<polygon fill="midnightblue" stroke="midnightblue" points="185.247,-67.1161 194.236,-61.5087 183.712,-60.2865 185.247,-67.1161"/>
</g>
<!-- Node3 -->
<g id="node3" class="node"><title>Node3</title>
<g id="a_node3"><a xlink:href="../../d1/d0b/classinternal_j_s_o_n_node.html#a52054310b770dc15cf10e34e32713f19" target="_top" xlink:title="internalJSONNode::push_back">
<polygon fill="white" stroke="black" points="360.5,-120.5 360.5,-141.5 537.5,-141.5 537.5,-120.5 360.5,-120.5"/>
<text text-anchor="middle" x="449" y="-127.9" font-family="Helvetica,sans-Serif" font-size="12.00">internalJSONNode::push_back</text>
</a>
</g>
</g>
<!-- Node2&#45;&gt;Node3 -->
<g id="edge2" class="edge"><title>Node2&#45;&gt;Node3</title>
<path fill="none" stroke="midnightblue" d="M312.118,-131C324.316,-131 337.223,-131 350.035,-131"/>
<polygon fill="midnightblue" stroke="midnightblue" points="350.275,-134.5 360.275,-131 350.275,-127.5 350.275,-134.5"/>
</g>
<!-- Node4 -->
<g id="node4" class="node"><title>Node4</title>
<g id="a_node4"><a xlink:href="../../d6/dc7/class_j_s_o_n_node.html#a2435b57e1586f3c7c7d915b3490a4e1c" target="_top" xlink:title="JSONNode::newJSONNode">
<polygon fill="white" stroke="black" points="574,-120.5 574,-141.5 738,-141.5 738,-120.5 574,-120.5"/>
<text text-anchor="middle" x="656" y="-127.9" font-family="Helvetica,sans-Serif" font-size="12.00">JSONNode::newJSONNode</text>
</a>
</g>
</g>
<!-- Node3&#45;&gt;Node4 -->
<g id="edge3" class="edge"><title>Node3&#45;&gt;Node4</title>
<path fill="none" stroke="midnightblue" d="M537.533,-131C546.215,-131 555.044,-131 563.762,-131"/>
<polygon fill="midnightblue" stroke="midnightblue" points="563.931,-134.5 573.931,-131 563.931,-127.5 563.931,-134.5"/>
</g>
<!-- Node5 -->
<g id="node5" class="node"><title>Node5</title>
<g id="a_node5"><a xlink:href="../../db/d8a/_documentation_2_operator-_console_2_j_s_o_n_2_j_s_o_n_node_8cpp.html#a459ea7a97e80c19dfc813f2712b9dd73" target="_top" xlink:title="_newJSONNode">
<polygon fill="white" stroke="black" points="774,-120.5 774,-141.5 878,-141.5 878,-120.5 774,-120.5"/>
<text text-anchor="middle" x="826" y="-127.9" font-family="Helvetica,sans-Serif" font-size="12.00">_newJSONNode</text>
</a>
</g>
</g>
<!-- Node4&#45;&gt;Node5 -->
<g id="edge4" class="edge"><title>Node4&#45;&gt;Node5</title>
<path fill="none" stroke="midnightblue" d="M738.047,-131C746.543,-131 755.079,-131 763.307,-131"/>
<polygon fill="midnightblue" stroke="midnightblue" points="763.539,-134.5 773.539,-131 763.539,-127.5 763.539,-134.5"/>
</g>
<!-- Node6 -->
<g id="node6" class="node"><title>Node6</title>
<g id="a_node6"><a xlink:href="../../d6/dc7/class_j_s_o_n_node.html#aba2db3c5af33c64e0cdccd33d18adc59" target="_top" xlink:title="JSONNode::JSONNode">
<polygon fill="white" stroke="black" points="914.5,-120.5 914.5,-141.5 1057.5,-141.5 1057.5,-120.5 914.5,-120.5"/>
<text text-anchor="middle" x="986" y="-127.9" font-family="Helvetica,sans-Serif" font-size="12.00">JSONNode::JSONNode</text>
</a>
</g>
</g>
<!-- Node5&#45;&gt;Node6 -->
<g id="edge5" class="edge"><title>Node5&#45;&gt;Node6</title>
<path fill="none" stroke="midnightblue" d="M878.298,-131C886.678,-131 895.534,-131 904.417,-131"/>
<polygon fill="midnightblue" stroke="midnightblue" points="904.433,-134.5 914.433,-131 904.433,-127.5 904.433,-134.5"/>
</g>
<!-- Node8 -->
<g id="node8" class="node"><title>Node8</title>
<g id="a_node8"><a xlink:href="../../d1/d0b/classinternal_j_s_o_n_node.html#ac57d64ee746982b115fc94b99754a108" target="_top" xlink:title="internalJSONNode::setname">
<polygon fill="white" stroke="black" points="366.5,-80.5 366.5,-101.5 531.5,-101.5 531.5,-80.5 366.5,-80.5"/>
<text text-anchor="middle" x="449" y="-87.9" font-family="Helvetica,sans-Serif" font-size="12.00">internalJSONNode::setname</text>
</a>
</g>
</g>
<!-- Node7&#45;&gt;Node8 -->
<g id="edge7" class="edge"><title>Node7&#45;&gt;Node8</title>
<path fill="none" stroke="midnightblue" d="M309.275,-91C324.148,-91 340.19,-91 355.902,-91"/>
<polygon fill="midnightblue" stroke="midnightblue" points="356.164,-94.5001 366.164,-91 356.164,-87.5001 356.164,-94.5001"/>
</g>
<!-- Node10 -->
<g id="node10" class="node"><title>Node10</title>
<g id="a_node10"><a xlink:href="../../d1/d0b/classinternal_j_s_o_n_node.html#a924514c9b1dbec1f779d8294371c0033" target="_top" xlink:title="internalJSONNode::type">
<polygon fill="white" stroke="black" points="378,-40.5 378,-61.5 520,-61.5 520,-40.5 378,-40.5"/>
<text text-anchor="middle" x="449" y="-47.9" font-family="Helvetica,sans-Serif" font-size="12.00">internalJSONNode::type</text>
</a>
</g>
</g>
<!-- Node9&#45;&gt;Node10 -->
<g id="edge9" class="edge"><title>Node9&#45;&gt;Node10</title>
<path fill="none" stroke="midnightblue" d="M324.021,-51C338.341,-51 353.245,-51 367.549,-51"/>
<polygon fill="midnightblue" stroke="midnightblue" points="367.84,-54.5001 377.84,-51 367.84,-47.5001 367.84,-54.5001"/>
</g>
<!-- Node11 -->
<g id="node11" class="node"><title>Node11</title>
<g id="a_node11"><a xlink:href="../../d1/d0b/classinternal_j_s_o_n_node.html#a55bfed9408d7ce2b07097b3e1faa54b6" target="_top" xlink:title="internalJSONNode::Write">
<polygon fill="white" stroke="black" points="375,-0.5 375,-21.5 523,-21.5 523,-0.5 375,-0.5"/>
<text text-anchor="middle" x="449" y="-7.9" font-family="Helvetica,sans-Serif" font-size="12.00">internalJSONNode::Write</text>
</a>
</g>
</g>
<!-- Node9&#45;&gt;Node11 -->
<g id="edge10" class="edge"><title>Node9&#45;&gt;Node11</title>
<path fill="none" stroke="midnightblue" d="M296.861,-40.4905C323.592,-35.2748 356.067,-28.9381 384.054,-23.4773"/>
<polygon fill="midnightblue" stroke="midnightblue" points="384.998,-26.8591 394.143,-21.5087 383.658,-19.9887 384.998,-26.8591"/>
</g>
<!-- Node12 -->
<g id="node12" class="node"><title>Node12</title>
<g id="a_node12"><a xlink:href="../../d7/d6f/class_j_s_o_n_worker.html#aa7703e99bb89e65aac3c61222c311c88" target="_top" xlink:title="JSONWorker::UnfixString">
<polygon fill="white" stroke="black" points="581.5,-0.5 581.5,-21.5 730.5,-21.5 730.5,-0.5 581.5,-0.5"/>
<text text-anchor="middle" x="656" y="-7.9" font-family="Helvetica,sans-Serif" font-size="12.00">JSONWorker::UnfixString</text>
</a>
</g>
</g>
<!-- Node11&#45;&gt;Node12 -->
<g id="edge11" class="edge"><title>Node11&#45;&gt;Node12</title>
<path fill="none" stroke="midnightblue" d="M523.141,-11C538.611,-11 555.054,-11 570.892,-11"/>
<polygon fill="midnightblue" stroke="midnightblue" points="571.196,-14.5001 581.196,-11 571.196,-7.5001 571.196,-14.5001"/>
</g>
</g>
</svg>
