<?xml version="1.0" encoding="UTF-8" standalone="no"?>
<!DOCTYPE svg PUBLIC "-//W3C//DTD SVG 1.1//EN"
 "http://www.w3.org/Graphics/SVG/1.1/DTD/svg11.dtd">
<!-- Generated by graphviz version 2.34.0 (20130907.0111)
 -->
<!-- Title: Documentation/Operator&#45;Console/ModelessDialogThread.cpp Pages: 1 -->
<svg width="687pt" height="218pt"
 viewBox="0.00 0.00 687.00 218.00" xmlns="http://www.w3.org/2000/svg" xmlns:xlink="http://www.w3.org/1999/xlink">
<g id="graph0" class="graph" transform="scale(1 1) rotate(0) translate(4 214)">
<title>Documentation/Operator&#45;Console/ModelessDialogThread.cpp</title>
<polygon fill="white" stroke="white" points="-4,4 -4,-214 683,-214 683,4 -4,4"/>
<!-- Node1 -->
<g id="node1" class="node"><title>Node1</title>
<polygon fill="#bfbfbf" stroke="black" points="359,-175 359,-209 571,-209 571,-175 359,-175"/>
<text text-anchor="start" x="367" y="-195.4" font-family="Helvetica,sans-Serif" font-size="12.00">Documentation/Operator</text>
<text text-anchor="middle" x="465" y="-182.4" font-family="Helvetica,sans-Serif" font-size="12.00">&#45;Console/ModelessDialogThread.cpp</text>
</g>
<!-- Node2 -->
<g id="node2" class="node"><title>Node2</title>
<g id="a_node2"><a xlink:href="../../d9/d2e/_documentation_2_operator-_console_2stdafx_8h.html" target="_top" xlink:title="stdafx.h">
<polygon fill="white" stroke="black" points="258,-116.5 258,-137.5 314,-137.5 314,-116.5 258,-116.5"/>
<text text-anchor="middle" x="286" y="-123.9" font-family="Helvetica,sans-Serif" font-size="12.00">stdafx.h</text>
</a>
</g>
</g>
<!-- Node1&#45;&gt;Node2 -->
<g id="edge1" class="edge"><title>Node1&#45;&gt;Node2</title>
<path fill="none" stroke="midnightblue" d="M419.368,-174.939C389.478,-164.42 350.917,-150.848 322.952,-141.006"/>
<polygon fill="midnightblue" stroke="midnightblue" points="323.76,-137.579 313.165,-137.561 321.436,-144.182 323.76,-137.579"/>
</g>
<!-- Node11 -->
<g id="node11" class="node"><title>Node11</title>
<g id="a_node11"><a xlink:href="../../db/d8e/_documentation_2_operator-_console_2_modeless_dialog_thread_8h.html" target="_top" xlink:title="ModelessDialogThread.h">
<polygon fill="white" stroke="black" points="531,-116.5 531,-137.5 679,-137.5 679,-116.5 531,-116.5"/>
<text text-anchor="middle" x="605" y="-123.9" font-family="Helvetica,sans-Serif" font-size="12.00">ModelessDialogThread.h</text>
</a>
</g>
</g>
<!-- Node1&#45;&gt;Node11 -->
<g id="edge10" class="edge"><title>Node1&#45;&gt;Node11</title>
<path fill="none" stroke="midnightblue" d="M500.69,-174.939C523.452,-164.697 552.645,-151.56 574.355,-141.79"/>
<polygon fill="midnightblue" stroke="midnightblue" points="576.071,-144.856 583.754,-137.561 573.198,-138.473 576.071,-144.856"/>
</g>
<!-- Node3 -->
<g id="node3" class="node"><title>Node3</title>
<g id="a_node3"><a xlink:href="../../da/d3f/_documentation_2_operator-_console_2targetver_8h.html" target="_top" xlink:title="targetver.h">
<polygon fill="white" stroke="black" points="12.5,-58.5 12.5,-79.5 83.5,-79.5 83.5,-58.5 12.5,-58.5"/>
<text text-anchor="middle" x="48" y="-65.9" font-family="Helvetica,sans-Serif" font-size="12.00">targetver.h</text>
</a>
</g>
</g>
<!-- Node2&#45;&gt;Node3 -->
<g id="edge2" class="edge"><title>Node2&#45;&gt;Node3</title>
<path fill="none" stroke="midnightblue" d="M257.764,-119.356C217.184,-109.808 141.937,-92.1029 93.4638,-80.6974"/>
<polygon fill="midnightblue" stroke="midnightblue" points="94.0844,-77.2479 83.5486,-78.3644 92.4811,-84.0618 94.0844,-77.2479"/>
</g>
<!-- Node5 -->
<g id="node5" class="node"><title>Node5</title>
<polygon fill="white" stroke="#bfbfbf" points="334,-0.5 334,-21.5 392,-21.5 392,-0.5 334,-0.5"/>
<text text-anchor="middle" x="363" y="-7.9" font-family="Helvetica,sans-Serif" font-size="12.00">afxwin.h</text>
</g>
<!-- Node2&#45;&gt;Node5 -->
<g id="edge4" class="edge"><title>Node2&#45;&gt;Node5</title>
<path fill="none" stroke="midnightblue" d="M257.598,-123.8C203.603,-118.559 94.6347,-102.284 131,-58 154.907,-28.8874 263.724,-17.8762 323.454,-13.974"/>
<polygon fill="midnightblue" stroke="midnightblue" points="323.887,-17.4541 333.653,-13.3457 323.457,-10.4673 323.887,-17.4541"/>
</g>
<!-- Node6 -->
<g id="node6" class="node"><title>Node6</title>
<polygon fill="white" stroke="#bfbfbf" points="140,-58.5 140,-79.5 196,-79.5 196,-58.5 140,-58.5"/>
<text text-anchor="middle" x="168" y="-65.9" font-family="Helvetica,sans-Serif" font-size="12.00">afxext.h</text>
</g>
<!-- Node2&#45;&gt;Node6 -->
<g id="edge5" class="edge"><title>Node2&#45;&gt;Node6</title>
<path fill="none" stroke="midnightblue" d="M265.715,-116.373C246.858,-107.424 218.554,-93.9917 197.255,-83.8835"/>
<polygon fill="midnightblue" stroke="midnightblue" points="198.555,-80.6266 188.02,-79.5011 195.554,-86.9506 198.555,-80.6266"/>
</g>
<!-- Node7 -->
<g id="node7" class="node"><title>Node7</title>
<polygon fill="white" stroke="#bfbfbf" points="214.5,-58.5 214.5,-79.5 277.5,-79.5 277.5,-58.5 214.5,-58.5"/>
<text text-anchor="middle" x="246" y="-65.9" font-family="Helvetica,sans-Serif" font-size="12.00">afxdisp.h</text>
</g>
<!-- Node2&#45;&gt;Node7 -->
<g id="edge6" class="edge"><title>Node2&#45;&gt;Node7</title>
<path fill="none" stroke="midnightblue" d="M279.033,-116.246C273.469,-108.456 265.522,-97.3308 258.817,-87.9439"/>
<polygon fill="midnightblue" stroke="midnightblue" points="261.548,-85.7457 252.888,-79.6427 255.852,-89.8144 261.548,-85.7457"/>
</g>
<!-- Node8 -->
<g id="node8" class="node"><title>Node8</title>
<polygon fill="white" stroke="#bfbfbf" points="296,-58.5 296,-79.5 358,-79.5 358,-58.5 296,-58.5"/>
<text text-anchor="middle" x="327" y="-65.9" font-family="Helvetica,sans-Serif" font-size="12.00">afxdtctl.h</text>
</g>
<!-- Node2&#45;&gt;Node8 -->
<g id="edge7" class="edge"><title>Node2&#45;&gt;Node8</title>
<path fill="none" stroke="midnightblue" d="M293.142,-116.246C298.844,-108.456 306.99,-97.3308 313.862,-87.9439"/>
<polygon fill="midnightblue" stroke="midnightblue" points="316.857,-89.7789 319.94,-79.6427 311.209,-85.6437 316.857,-89.7789"/>
</g>
<!-- Node9 -->
<g id="node9" class="node"><title>Node9</title>
<polygon fill="white" stroke="#bfbfbf" points="376,-58.5 376,-79.5 438,-79.5 438,-58.5 376,-58.5"/>
<text text-anchor="middle" x="407" y="-65.9" font-family="Helvetica,sans-Serif" font-size="12.00">afxcmn.h</text>
</g>
<!-- Node2&#45;&gt;Node9 -->
<g id="edge8" class="edge"><title>Node2&#45;&gt;Node9</title>
<path fill="none" stroke="midnightblue" d="M306.801,-116.373C326.224,-107.384 355.422,-93.8706 377.296,-83.7471"/>
<polygon fill="midnightblue" stroke="midnightblue" points="378.866,-86.8776 386.471,-79.5011 375.926,-80.5249 378.866,-86.8776"/>
</g>
<!-- Node10 -->
<g id="node10" class="node"><title>Node10</title>
<polygon fill="white" stroke="#bfbfbf" points="456,-58.5 456,-79.5 554,-79.5 554,-58.5 456,-58.5"/>
<text text-anchor="middle" x="505" y="-65.9" font-family="Helvetica,sans-Serif" font-size="12.00">afxcontrolbars.h</text>
</g>
<!-- Node2&#45;&gt;Node10 -->
<g id="edge9" class="edge"><title>Node2&#45;&gt;Node10</title>
<path fill="none" stroke="midnightblue" d="M314.182,-118.794C350.515,-109.503 414.211,-93.2155 457.945,-82.0324"/>
<polygon fill="midnightblue" stroke="midnightblue" points="458.958,-85.3861 467.779,-79.5177 457.224,-78.6043 458.958,-85.3861"/>
</g>
<!-- Node4 -->
<g id="node4" class="node"><title>Node4</title>
<polygon fill="white" stroke="#bfbfbf" points="0,-0.5 0,-21.5 96,-21.5 96,-0.5 0,-0.5"/>
<text text-anchor="middle" x="48" y="-7.9" font-family="Helvetica,sans-Serif" font-size="12.00">SDKDDKVer.h</text>
</g>
<!-- Node3&#45;&gt;Node4 -->
<g id="edge3" class="edge"><title>Node3&#45;&gt;Node4</title>
<path fill="none" stroke="midnightblue" d="M48,-58.2455C48,-50.9382 48,-40.6944 48,-31.7046"/>
<polygon fill="midnightblue" stroke="midnightblue" points="51.5001,-31.6426 48,-21.6427 44.5001,-31.6427 51.5001,-31.6426"/>
</g>
<!-- Node12 -->
<g id="node12" class="node"><title>Node12</title>
<g id="a_node12"><a xlink:href="../../d9/de8/_documentation_2_operator-_console_2resource_8h.html" target="_top" xlink:title="resource.h">
<polygon fill="white" stroke="black" points="599.5,-0.5 599.5,-21.5 670.5,-21.5 670.5,-0.5 599.5,-0.5"/>
<text text-anchor="middle" x="635" y="-7.9" font-family="Helvetica,sans-Serif" font-size="12.00">resource.h</text>
</a>
</g>
</g>
<!-- Node11&#45;&gt;Node12 -->
<g id="edge11" class="edge"><title>Node11&#45;&gt;Node12</title>
<path fill="none" stroke="midnightblue" d="M617.725,-116.247C627.541,-107.858 640.363,-94.7955 646,-80 652.039,-64.1483 648.009,-44.9866 643.214,-31.0494"/>
<polygon fill="midnightblue" stroke="midnightblue" points="646.415,-29.6228 639.552,-21.5513 639.884,-32.141 646.415,-29.6228"/>
</g>
<!-- Node13 -->
<g id="node13" class="node"><title>Node13</title>
<g id="a_node13"><a xlink:href="../../df/d07/_documentation_2_operator-_console_2_text_dlg_8h.html" target="_top" xlink:title="TextDlg.h">
<polygon fill="white" stroke="black" points="572.5,-58.5 572.5,-79.5 637.5,-79.5 637.5,-58.5 572.5,-58.5"/>
<text text-anchor="middle" x="605" y="-65.9" font-family="Helvetica,sans-Serif" font-size="12.00">TextDlg.h</text>
</a>
</g>
</g>
<!-- Node11&#45;&gt;Node13 -->
<g id="edge12" class="edge"><title>Node11&#45;&gt;Node13</title>
<path fill="none" stroke="midnightblue" d="M605,-116.246C605,-108.938 605,-98.6944 605,-89.7046"/>
<polygon fill="midnightblue" stroke="midnightblue" points="608.5,-89.6426 605,-79.6427 601.5,-89.6427 608.5,-89.6426"/>
</g>
<!-- Node13&#45;&gt;Node5 -->
<g id="edge13" class="edge"><title>Node13&#45;&gt;Node5</title>
<path fill="none" stroke="midnightblue" d="M572.447,-60.2231C569.255,-59.4686 566.065,-58.7174 563,-58 507.152,-44.929 442.453,-30.1065 402.121,-20.9044"/>
<polygon fill="midnightblue" stroke="midnightblue" points="402.692,-17.4448 392.164,-18.6339 401.135,-24.2696 402.692,-17.4448"/>
</g>
<!-- Node13&#45;&gt;Node12 -->
<g id="edge14" class="edge"><title>Node13&#45;&gt;Node12</title>
<path fill="none" stroke="midnightblue" d="M610.226,-58.2455C614.312,-50.617 620.113,-39.7881 625.075,-30.5267"/>
<polygon fill="midnightblue" stroke="midnightblue" points="628.197,-32.1103 629.834,-21.6427 622.027,-28.8047 628.197,-32.1103"/>
</g>
</g>
</svg>
