<?xml version="1.0" encoding="UTF-8" standalone="no"?>
<!DOCTYPE svg PUBLIC "-//W3C//DTD SVG 1.1//EN"
 "http://www.w3.org/Graphics/SVG/1.1/DTD/svg11.dtd">
<!-- Generated by graphviz version 2.34.0 (20130907.0111)
 -->
<!-- Title: FileAcq::Open Pages: 1 -->
<svg width="392pt" height="30pt"
 viewBox="0.00 0.00 392.00 30.00" xmlns="http://www.w3.org/2000/svg" xmlns:xlink="http://www.w3.org/1999/xlink">
<g id="graph0" class="graph" transform="scale(1 1) rotate(0) translate(4 26)">
<title>FileAcq::Open</title>
<polygon fill="white" stroke="white" points="-4,4 -4,-26 388,-26 388,4 -4,4"/>
<!-- Node1 -->
<g id="node1" class="node"><title>Node1</title>
<polygon fill="#bfbfbf" stroke="black" points="0,-0.5 0,-21.5 92,-21.5 92,-0.5 0,-0.5"/>
<text text-anchor="middle" x="46" y="-7.9" font-family="Helvetica,sans-Serif" font-size="12.00">FileAcq::Open</text>
</g>
<!-- Node2 -->
<g id="node2" class="node"><title>Node2</title>
<g id="a_node2"><a xlink:href="../../d8/d29/class_image_acquisition.html#a09e47283e2ae3e6c352b8842bde2332a" target="_top" xlink:title="may be overridden, but be sure to call parent function also ">
<polygon fill="white" stroke="black" points="128.5,-0.5 128.5,-21.5 255.5,-21.5 255.5,-0.5 128.5,-0.5"/>
<text text-anchor="middle" x="192" y="-7.9" font-family="Helvetica,sans-Serif" font-size="12.00">ImageAcquisition::Init</text>
</a>
</g>
</g>
<!-- Node1&#45;&gt;Node2 -->
<g id="edge1" class="edge"><title>Node1&#45;&gt;Node2</title>
<path fill="none" stroke="midnightblue" d="M92.1674,-11C100.497,-11 109.387,-11 118.29,-11"/>
<polygon fill="midnightblue" stroke="midnightblue" points="118.32,-14.5001 128.32,-11 118.32,-7.5001 118.32,-14.5001"/>
</g>
<!-- Node3 -->
<g id="node3" class="node"><title>Node3</title>
<g id="a_node3"><a xlink:href="../../d3/d1e/class_critical_buf.html#af55d2c476f545955912617611c18cbee" target="_top" xlink:title="CriticalBuf::Init">
<polygon fill="white" stroke="black" points="292.5,-0.5 292.5,-21.5 383.5,-21.5 383.5,-0.5 292.5,-0.5"/>
<text text-anchor="middle" x="338" y="-7.9" font-family="Helvetica,sans-Serif" font-size="12.00">CriticalBuf::Init</text>
</a>
</g>
</g>
<!-- Node2&#45;&gt;Node3 -->
<g id="edge2" class="edge"><title>Node2&#45;&gt;Node3</title>
<path fill="none" stroke="midnightblue" d="M255.742,-11C264.471,-11 273.384,-11 281.958,-11"/>
<polygon fill="midnightblue" stroke="midnightblue" points="282.211,-14.5001 292.211,-11 282.211,-7.5001 282.211,-14.5001"/>
</g>
</g>
</svg>
