<?xml version="1.0" encoding="UTF-8" standalone="no"?>
<!DOCTYPE svg PUBLIC "-//W3C//DTD SVG 1.1//EN"
 "http://www.w3.org/Graphics/SVG/1.1/DTD/svg11.dtd">
<!-- Generated by graphviz version 2.34.0 (20130907.0111)
 -->
<!-- Title: JSON/JSONStream.cpp Pages: 1 -->
<svg width="838pt" height="552pt"
 viewBox="0.00 0.00 838.00 552.00" xmlns="http://www.w3.org/2000/svg" xmlns:xlink="http://www.w3.org/1999/xlink">
<g id="graph0" class="graph" transform="scale(1 1) rotate(0) translate(4 548)">
<title>JSON/JSONStream.cpp</title>
<polygon fill="white" stroke="white" points="-4,4 -4,-548 834,-548 834,4 -4,4"/>
<!-- Node1 -->
<g id="node1" class="node"><title>Node1</title>
<polygon fill="#bfbfbf" stroke="black" points="403.5,-522.5 403.5,-543.5 546.5,-543.5 546.5,-522.5 403.5,-522.5"/>
<text text-anchor="middle" x="475" y="-529.9" font-family="Helvetica,sans-Serif" font-size="12.00">JSON/JSONStream.cpp</text>
</g>
<!-- Node2 -->
<g id="node2" class="node"><title>Node2</title>
<g id="a_node2"><a xlink:href="../../d8/dd2/_j_s_o_n_2_j_s_o_n_stream_8h.html" target="_top" xlink:title="JSONStream.h">
<polygon fill="white" stroke="black" points="429.5,-406.5 429.5,-427.5 524.5,-427.5 524.5,-406.5 429.5,-406.5"/>
<text text-anchor="middle" x="477" y="-413.9" font-family="Helvetica,sans-Serif" font-size="12.00">JSONStream.h</text>
</a>
</g>
</g>
<!-- Node1&#45;&gt;Node2 -->
<g id="edge1" class="edge"><title>Node1&#45;&gt;Node2</title>
<path fill="none" stroke="midnightblue" d="M475.171,-522.28C475.498,-503.603 476.222,-462.369 476.654,-437.715"/>
<polygon fill="midnightblue" stroke="midnightblue" points="480.154,-437.755 476.83,-427.695 473.155,-437.632 480.154,-437.755"/>
</g>
<!-- Node11 -->
<g id="node11" class="node"><title>Node11</title>
<g id="a_node11"><a xlink:href="../../d0/d4d/_j_s_o_n_2_j_s_o_n_worker_8h.html" target="_top" xlink:title="JSONWorker.h">
<polygon fill="white" stroke="black" points="235.5,-464.5 235.5,-485.5 330.5,-485.5 330.5,-464.5 235.5,-464.5"/>
<text text-anchor="middle" x="283" y="-471.9" font-family="Helvetica,sans-Serif" font-size="12.00">JSONWorker.h</text>
</a>
</g>
</g>
<!-- Node1&#45;&gt;Node11 -->
<g id="edge11" class="edge"><title>Node1&#45;&gt;Node11</title>
<path fill="none" stroke="midnightblue" d="M441.994,-522.373C409.791,-512.981 360.656,-498.65 325.536,-488.406"/>
<polygon fill="midnightblue" stroke="midnightblue" points="326.155,-484.941 315.575,-485.501 324.195,-491.661 326.155,-484.941"/>
</g>
<!-- Node24 -->
<g id="node24" class="node"><title>Node24</title>
<g id="a_node24"><a xlink:href="../../de/d23/_j_s_o_n_2_j_s_o_n_validator_8h.html" target="_top" xlink:title="JSONValidator.h">
<polygon fill="white" stroke="black" points="503,-464.5 503,-485.5 607,-485.5 607,-464.5 503,-464.5"/>
<text text-anchor="middle" x="555" y="-471.9" font-family="Helvetica,sans-Serif" font-size="12.00">JSONValidator.h</text>
</a>
</g>
</g>
<!-- Node1&#45;&gt;Node24 -->
<g id="edge36" class="edge"><title>Node1&#45;&gt;Node24</title>
<path fill="none" stroke="midnightblue" d="M488.935,-522.246C501.095,-513.734 518.946,-501.237 533.028,-491.38"/>
<polygon fill="midnightblue" stroke="midnightblue" points="535.04,-494.245 541.225,-485.643 531.025,-488.51 535.04,-494.245"/>
</g>
<!-- Node3 -->
<g id="node3" class="node"><title>Node3</title>
<g id="a_node3"><a xlink:href="../../d6/dbe/_j_s_o_n_2_j_s_o_n_debug_8h.html" target="_top" xlink:title="JSONDebug.h">
<polygon fill="white" stroke="black" points="376,-174.5 376,-195.5 468,-195.5 468,-174.5 376,-174.5"/>
<text text-anchor="middle" x="422" y="-181.9" font-family="Helvetica,sans-Serif" font-size="12.00">JSONDebug.h</text>
</a>
</g>
</g>
<!-- Node2&#45;&gt;Node3 -->
<g id="edge2" class="edge"><title>Node2&#45;&gt;Node3</title>
<path fill="none" stroke="midnightblue" d="M481.305,-406.453C493.491,-377.895 525.315,-291.441 493,-232 485.362,-217.951 471.379,-207.532 457.829,-200.196"/>
<polygon fill="midnightblue" stroke="midnightblue" points="459.113,-196.925 448.601,-195.603 455.994,-203.192 459.113,-196.925"/>
</g>
<!-- Node4 -->
<g id="node4" class="node"><title>Node4</title>
<g id="a_node4"><a xlink:href="../../db/d7e/_j_s_o_n_2_j_s_o_n_defs_8h.html" target="_top" xlink:title="JSONDefs.h">
<polygon fill="white" stroke="black" points="381,-116.5 381,-137.5 463,-137.5 463,-116.5 381,-116.5"/>
<text text-anchor="middle" x="422" y="-123.9" font-family="Helvetica,sans-Serif" font-size="12.00">JSONDefs.h</text>
</a>
</g>
</g>
<!-- Node3&#45;&gt;Node4 -->
<g id="edge3" class="edge"><title>Node3&#45;&gt;Node4</title>
<path fill="none" stroke="midnightblue" d="M422,-174.246C422,-166.938 422,-156.694 422,-147.705"/>
<polygon fill="midnightblue" stroke="midnightblue" points="425.5,-147.643 422,-137.643 418.5,-147.643 425.5,-147.643"/>
</g>
<!-- Node5 -->
<g id="node5" class="node"><title>Node5</title>
<g id="a_node5"><a xlink:href="../../dc/d13/_j_s_o_n_options_8h.html" target="_top" xlink:title="..\\JSONOptions.h">
<polygon fill="white" stroke="black" points="594.5,-0.5 594.5,-21.5 701.5,-21.5 701.5,-0.5 594.5,-0.5"/>
<text text-anchor="middle" x="648" y="-7.9" font-family="Helvetica,sans-Serif" font-size="12.00">..\JSONOptions.h</text>
</a>
</g>
</g>
<!-- Node4&#45;&gt;Node5 -->
<g id="edge4" class="edge"><title>Node4&#45;&gt;Node5</title>
<path fill="none" stroke="midnightblue" d="M463.333,-121.733C516.419,-115.436 604.521,-101.971 628,-80 641.159,-67.6863 645.808,-47.2066 647.376,-31.9341"/>
<polygon fill="midnightblue" stroke="midnightblue" points="650.87,-32.138 648.052,-21.9249 643.886,-31.6665 650.87,-32.138"/>
</g>
<!-- Node6 -->
<g id="node6" class="node"><title>Node6</title>
<g id="a_node6"><a xlink:href="../../d9/d62/_j_s_o_n_2_j_s_o_n_defs_2_unknown___c_8h.html" target="_top" xlink:title="JSONDefs\\Unknown_C.h">
<polygon fill="white" stroke="black" points="176,-58.5 176,-79.5 324,-79.5 324,-58.5 176,-58.5"/>
<text text-anchor="middle" x="250" y="-65.9" font-family="Helvetica,sans-Serif" font-size="12.00">JSONDefs\Unknown_C.h</text>
</a>
</g>
</g>
<!-- Node4&#45;&gt;Node6 -->
<g id="edge5" class="edge"><title>Node4&#45;&gt;Node6</title>
<path fill="none" stroke="midnightblue" d="M392.432,-116.373C363.831,-107.061 320.321,-92.8953 288.918,-82.671"/>
<polygon fill="midnightblue" stroke="midnightblue" points="289.774,-79.269 279.182,-79.5011 287.607,-85.9251 289.774,-79.269"/>
</g>
<!-- Node7 -->
<g id="node7" class="node"><title>Node7</title>
<g id="a_node7"><a xlink:href="../../de/dbe/_j_s_o_n_2_j_s_o_n_defs_2_g_n_u___c_8h.html" target="_top" xlink:title="JSONDefs\\GNU_C.h">
<polygon fill="white" stroke="black" points="342,-58.5 342,-79.5 468,-79.5 468,-58.5 342,-58.5"/>
<text text-anchor="middle" x="405" y="-65.9" font-family="Helvetica,sans-Serif" font-size="12.00">JSONDefs\GNU_C.h</text>
</a>
</g>
</g>
<!-- Node4&#45;&gt;Node7 -->
<g id="edge6" class="edge"><title>Node4&#45;&gt;Node7</title>
<path fill="none" stroke="midnightblue" d="M419.039,-116.246C416.796,-108.858 413.642,-98.4689 410.892,-89.4087"/>
<polygon fill="midnightblue" stroke="midnightblue" points="414.181,-88.1948 407.927,-79.6427 407.483,-90.2282 414.181,-88.1948"/>
</g>
<!-- Node8 -->
<g id="node8" class="node"><title>Node8</title>
<g id="a_node8"><a xlink:href="../../d6/d90/_j_s_o_n_2_j_s_o_n_defs_2_visual___c_8h.html" target="_top" xlink:title="JSONDefs\\Visual_C.h">
<polygon fill="white" stroke="black" points="486.5,-58.5 486.5,-79.5 619.5,-79.5 619.5,-58.5 486.5,-58.5"/>
<text text-anchor="middle" x="553" y="-65.9" font-family="Helvetica,sans-Serif" font-size="12.00">JSONDefs\Visual_C.h</text>
</a>
</g>
</g>
<!-- Node4&#45;&gt;Node8 -->
<g id="edge7" class="edge"><title>Node4&#45;&gt;Node8</title>
<path fill="none" stroke="midnightblue" d="M444.52,-116.373C465.737,-107.303 497.728,-93.6279 521.477,-83.4755"/>
<polygon fill="midnightblue" stroke="midnightblue" points="522.955,-86.6502 530.774,-79.5011 520.203,-80.2136 522.955,-86.6502"/>
</g>
<!-- Node9 -->
<g id="node9" class="node"><title>Node9</title>
<g id="a_node9"><a xlink:href="../../d7/d67/_j_s_o_n_2_j_s_o_n_defs_2_strings___defs_8h.html" target="_top" xlink:title="JSONDefs\\Strings_Defs.h">
<polygon fill="white" stroke="black" points="676.5,-58.5 676.5,-79.5 829.5,-79.5 829.5,-58.5 676.5,-58.5"/>
<text text-anchor="middle" x="753" y="-65.9" font-family="Helvetica,sans-Serif" font-size="12.00">JSONDefs\Strings_Defs.h</text>
</a>
</g>
</g>
<!-- Node4&#45;&gt;Node9 -->
<g id="edge8" class="edge"><title>Node4&#45;&gt;Node9</title>
<path fill="none" stroke="midnightblue" d="M463.252,-119.021C519.298,-109.539 620.142,-92.4775 686.831,-81.1947"/>
<polygon fill="midnightblue" stroke="midnightblue" points="687.545,-84.6238 696.821,-79.5046 686.377,-77.7219 687.545,-84.6238"/>
</g>
<!-- Node9&#45;&gt;Node5 -->
<g id="edge9" class="edge"><title>Node9&#45;&gt;Node5</title>
<path fill="none" stroke="midnightblue" d="M734.71,-58.2455C718.224,-49.4527 693.765,-36.4079 675.023,-26.4125"/>
<polygon fill="midnightblue" stroke="midnightblue" points="676.551,-23.2604 666.08,-21.6427 673.256,-29.4368 676.551,-23.2604"/>
</g>
<!-- Node10 -->
<g id="node10" class="node"><title>Node10</title>
<polygon fill="white" stroke="#bfbfbf" points="726,-0.5 726,-21.5 780,-21.5 780,-0.5 726,-0.5"/>
<text text-anchor="middle" x="753" y="-7.9" font-family="Helvetica,sans-Serif" font-size="12.00">string.h</text>
</g>
<!-- Node9&#45;&gt;Node10 -->
<g id="edge10" class="edge"><title>Node9&#45;&gt;Node10</title>
<path fill="none" stroke="midnightblue" d="M753,-58.2455C753,-50.9382 753,-40.6944 753,-31.7046"/>
<polygon fill="midnightblue" stroke="midnightblue" points="756.5,-31.6426 753,-21.6427 749.5,-31.6427 756.5,-31.6426"/>
</g>
<!-- Node12 -->
<g id="node12" class="node"><title>Node12</title>
<g id="a_node12"><a xlink:href="../../d0/df5/_j_s_o_n_2_j_s_o_n_node_8h.html" target="_top" xlink:title="JSONNode.h">
<polygon fill="white" stroke="black" points="240,-406.5 240,-427.5 326,-427.5 326,-406.5 240,-406.5"/>
<text text-anchor="middle" x="283" y="-413.9" font-family="Helvetica,sans-Serif" font-size="12.00">JSONNode.h</text>
</a>
</g>
</g>
<!-- Node11&#45;&gt;Node12 -->
<g id="edge12" class="edge"><title>Node11&#45;&gt;Node12</title>
<path fill="none" stroke="midnightblue" d="M283,-464.246C283,-456.938 283,-446.694 283,-437.705"/>
<polygon fill="midnightblue" stroke="midnightblue" points="286.5,-437.643 283,-427.643 279.5,-437.643 286.5,-437.643"/>
</g>
<!-- Node20 -->
<g id="node20" class="node"><title>Node20</title>
<g id="a_node20"><a xlink:href="../../d7/d81/_j_s_o_n_2_j_s_o_n_shared_string_8h.html" target="_top" xlink:title="JSONSharedString.h">
<polygon fill="white" stroke="black" points="129,-290.5 129,-311.5 255,-311.5 255,-290.5 129,-290.5"/>
<text text-anchor="middle" x="192" y="-297.9" font-family="Helvetica,sans-Serif" font-size="12.00">JSONSharedString.h</text>
</a>
</g>
</g>
<!-- Node11&#45;&gt;Node20 -->
<g id="edge35" class="edge"><title>Node11&#45;&gt;Node20</title>
<path fill="none" stroke="midnightblue" d="M257.543,-464.459C223.11,-449.998 163.114,-418.918 138,-370 127.777,-350.087 147.58,-330.397 166.016,-317.371"/>
<polygon fill="midnightblue" stroke="midnightblue" points="168.152,-320.154 174.548,-311.709 164.281,-314.322 168.152,-320.154"/>
</g>
<!-- Node12&#45;&gt;Node3 -->
<g id="edge13" class="edge"><title>Node12&#45;&gt;Node3</title>
<path fill="none" stroke="midnightblue" d="M326.246,-415.652C361.983,-412.855 411.072,-402.732 438,-370 477.09,-322.485 465.138,-291.374 449,-232 446.282,-222.001 440.783,-211.956 435.452,-203.814"/>
<polygon fill="midnightblue" stroke="midnightblue" points="438.261,-201.724 429.662,-195.535 432.524,-205.735 438.261,-201.724"/>
</g>
<!-- Node13 -->
<g id="node13" class="node"><title>Node13</title>
<g id="a_node13"><a xlink:href="../../da/d1f/_j_s_o_n_2internal_j_s_o_n_node_8h.html" target="_top" xlink:title="internalJSONNode.h">
<polygon fill="white" stroke="black" points="221.5,-348.5 221.5,-369.5 344.5,-369.5 344.5,-348.5 221.5,-348.5"/>
<text text-anchor="middle" x="283" y="-355.9" font-family="Helvetica,sans-Serif" font-size="12.00">internalJSONNode.h</text>
</a>
</g>
</g>
<!-- Node12&#45;&gt;Node13 -->
<g id="edge14" class="edge"><title>Node12&#45;&gt;Node13</title>
<path fill="none" stroke="midnightblue" d="M283,-406.246C283,-398.938 283,-388.694 283,-379.705"/>
<polygon fill="midnightblue" stroke="midnightblue" points="286.5,-379.643 283,-369.643 279.5,-379.643 286.5,-379.643"/>
</g>
<!-- Node21 -->
<g id="node21" class="node"><title>Node21</title>
<polygon fill="white" stroke="#bfbfbf" points="362.5,-348.5 362.5,-369.5 429.5,-369.5 429.5,-348.5 362.5,-348.5"/>
<text text-anchor="middle" x="396" y="-355.9" font-family="Helvetica,sans-Serif" font-size="12.00">stdexcept</text>
</g>
<!-- Node12&#45;&gt;Node21 -->
<g id="edge30" class="edge"><title>Node12&#45;&gt;Node21</title>
<path fill="none" stroke="midnightblue" d="M302.425,-406.373C320.402,-397.464 347.344,-384.113 367.709,-374.02"/>
<polygon fill="midnightblue" stroke="midnightblue" points="369.422,-377.078 376.828,-369.501 366.314,-370.806 369.422,-377.078"/>
</g>
<!-- Node22 -->
<g id="node22" class="node"><title>Node22</title>
<polygon fill="white" stroke="#bfbfbf" points="147,-348.5 147,-369.5 203,-369.5 203,-348.5 147,-348.5"/>
<text text-anchor="middle" x="175" y="-355.9" font-family="Helvetica,sans-Serif" font-size="12.00">cstdarg</text>
</g>
<!-- Node12&#45;&gt;Node22 -->
<g id="edge31" class="edge"><title>Node12&#45;&gt;Node22</title>
<path fill="none" stroke="midnightblue" d="M264.188,-406.246C247.153,-397.413 221.842,-384.289 202.532,-374.276"/>
<polygon fill="midnightblue" stroke="midnightblue" points="204.085,-371.139 193.597,-369.643 200.863,-377.353 204.085,-371.139"/>
</g>
<!-- Node23 -->
<g id="node23" class="node"><title>Node23</title>
<g id="a_node23"><a xlink:href="../../d4/d6e/_j_s_o_n_2_j_s_o_n___base64_8h.html" target="_top" xlink:title="JSON_Base64.h">
<polygon fill="white" stroke="black" points="-0.5,-232.5 -0.5,-253.5 104.5,-253.5 104.5,-232.5 -0.5,-232.5"/>
<text text-anchor="middle" x="52" y="-239.9" font-family="Helvetica,sans-Serif" font-size="12.00">JSON_Base64.h</text>
</a>
</g>
</g>
<!-- Node12&#45;&gt;Node23 -->
<g id="edge32" class="edge"><title>Node12&#45;&gt;Node23</title>
<path fill="none" stroke="midnightblue" d="M239.922,-410.01C209.122,-404.005 167.985,-392.304 138,-370 99.7483,-341.547 72.7703,-290.812 60.1239,-263.197"/>
<polygon fill="midnightblue" stroke="midnightblue" points="63.2311,-261.569 55.9851,-253.84 56.8294,-264.401 63.2311,-261.569"/>
</g>
<!-- Node13&#45;&gt;Node3 -->
<g id="edge15" class="edge"><title>Node13&#45;&gt;Node3</title>
<path fill="none" stroke="midnightblue" d="M330.093,-348.418C365.606,-340.13 410.013,-327.117 421,-312 443.834,-280.583 435.478,-232.142 428.21,-205.399"/>
<polygon fill="midnightblue" stroke="midnightblue" points="431.532,-204.289 425.353,-195.682 424.817,-206.264 431.532,-204.289"/>
</g>
<!-- Node14 -->
<g id="node14" class="node"><title>Node14</title>
<g id="a_node14"><a xlink:href="../../df/d61/_j_s_o_n_2_j_s_o_n_children_8h.html" target="_top" xlink:title="JSONChildren.h">
<polygon fill="white" stroke="black" points="311.5,-290.5 311.5,-311.5 412.5,-311.5 412.5,-290.5 311.5,-290.5"/>
<text text-anchor="middle" x="362" y="-297.9" font-family="Helvetica,sans-Serif" font-size="12.00">JSONChildren.h</text>
</a>
</g>
</g>
<!-- Node13&#45;&gt;Node14 -->
<g id="edge16" class="edge"><title>Node13&#45;&gt;Node14</title>
<path fill="none" stroke="midnightblue" d="M296.761,-348.246C308.655,-339.814 326.065,-327.473 339.909,-317.66"/>
<polygon fill="midnightblue" stroke="midnightblue" points="342.263,-320.281 348.397,-311.643 338.215,-314.57 342.263,-320.281"/>
</g>
<!-- Node15 -->
<g id="node15" class="node"><title>Node15</title>
<g id="a_node15"><a xlink:href="../../dc/d7c/_j_s_o_n_2_j_s_o_n_memory_8h.html" target="_top" xlink:title="JSONMemory.h">
<polygon fill="white" stroke="black" points="237.5,-232.5 237.5,-253.5 336.5,-253.5 336.5,-232.5 237.5,-232.5"/>
<text text-anchor="middle" x="287" y="-239.9" font-family="Helvetica,sans-Serif" font-size="12.00">JSONMemory.h</text>
</a>
</g>
</g>
<!-- Node13&#45;&gt;Node15 -->
<g id="edge23" class="edge"><title>Node13&#45;&gt;Node15</title>
<path fill="none" stroke="midnightblue" d="M283.341,-348.28C283.996,-329.603 285.443,-288.369 286.308,-263.715"/>
<polygon fill="midnightblue" stroke="midnightblue" points="289.807,-263.812 286.66,-253.695 282.811,-263.566 289.807,-263.812"/>
</g>
<!-- Node18 -->
<g id="node18" class="node"><title>Node18</title>
<g id="a_node18"><a xlink:href="../../de/d55/_j_s_o_n_2_j_s_o_n_globals_8h.html" target="_top" xlink:title="JSONGlobals.h">
<polygon fill="white" stroke="black" points="122.5,-232.5 122.5,-253.5 219.5,-253.5 219.5,-232.5 122.5,-232.5"/>
<text text-anchor="middle" x="171" y="-239.9" font-family="Helvetica,sans-Serif" font-size="12.00">JSONGlobals.h</text>
</a>
</g>
</g>
<!-- Node13&#45;&gt;Node18 -->
<g id="edge24" class="edge"><title>Node13&#45;&gt;Node18</title>
<path fill="none" stroke="midnightblue" d="M221.447,-348.499C180.687,-340.805 132.51,-328.529 120,-312 106.408,-294.041 127.15,-273.326 146.119,-259.524"/>
<polygon fill="midnightblue" stroke="midnightblue" points="148.324,-262.255 154.579,-253.704 144.357,-256.488 148.324,-262.255"/>
</g>
<!-- Node13&#45;&gt;Node20 -->
<g id="edge27" class="edge"><title>Node13&#45;&gt;Node20</title>
<path fill="none" stroke="midnightblue" d="M267.149,-348.246C253.187,-339.653 232.627,-327.001 216.54,-317.102"/>
<polygon fill="midnightblue" stroke="midnightblue" points="218.02,-313.903 207.669,-311.643 214.352,-319.865 218.02,-313.903"/>
</g>
<!-- Node14&#45;&gt;Node3 -->
<g id="edge22" class="edge"><title>Node14&#45;&gt;Node3</title>
<path fill="none" stroke="midnightblue" d="M367.116,-290.28C377.079,-271.351 399.236,-229.251 412.145,-204.725"/>
<polygon fill="midnightblue" stroke="midnightblue" points="415.337,-206.174 416.897,-195.695 409.143,-202.914 415.337,-206.174"/>
</g>
<!-- Node14&#45;&gt;Node15 -->
<g id="edge17" class="edge"><title>Node14&#45;&gt;Node15</title>
<path fill="none" stroke="midnightblue" d="M348.936,-290.246C337.644,-281.814 321.116,-269.473 307.973,-259.66"/>
<polygon fill="midnightblue" stroke="midnightblue" points="310.021,-256.821 299.914,-253.643 305.833,-262.43 310.021,-256.821"/>
</g>
<!-- Node15&#45;&gt;Node3 -->
<g id="edge21" class="edge"><title>Node15&#45;&gt;Node3</title>
<path fill="none" stroke="midnightblue" d="M310.207,-232.373C332.17,-223.263 365.333,-209.506 389.84,-199.34"/>
<polygon fill="midnightblue" stroke="midnightblue" points="391.2,-202.566 399.096,-195.501 388.518,-196.1 391.2,-202.566"/>
</g>
<!-- Node15&#45;&gt;Node5 -->
<g id="edge20" class="edge"><title>Node15&#45;&gt;Node5</title>
<path fill="none" stroke="midnightblue" d="M272.163,-232.462C229.492,-203.933 112.875,-117.548 167,-58 194.543,-27.697 459.9,-16.8591 584.269,-13.4221"/>
<polygon fill="midnightblue" stroke="midnightblue" points="584.513,-16.9169 594.415,-13.1495 584.324,-9.91946 584.513,-16.9169"/>
</g>
<!-- Node16 -->
<g id="node16" class="node"><title>Node16</title>
<polygon fill="white" stroke="#bfbfbf" points="306,-174.5 306,-195.5 356,-195.5 356,-174.5 306,-174.5"/>
<text text-anchor="middle" x="331" y="-181.9" font-family="Helvetica,sans-Serif" font-size="12.00">cstdlib</text>
</g>
<!-- Node15&#45;&gt;Node16 -->
<g id="edge18" class="edge"><title>Node15&#45;&gt;Node16</title>
<path fill="none" stroke="midnightblue" d="M294.664,-232.246C300.847,-224.376 309.706,-213.101 317.129,-203.654"/>
<polygon fill="midnightblue" stroke="midnightblue" points="319.997,-205.668 323.424,-195.643 314.493,-201.343 319.997,-205.668"/>
</g>
<!-- Node17 -->
<g id="node17" class="node"><title>Node17</title>
<polygon fill="white" stroke="#bfbfbf" points="236.5,-174.5 236.5,-195.5 287.5,-195.5 287.5,-174.5 236.5,-174.5"/>
<text text-anchor="middle" x="262" y="-181.9" font-family="Helvetica,sans-Serif" font-size="12.00">cstring</text>
</g>
<!-- Node15&#45;&gt;Node17 -->
<g id="edge19" class="edge"><title>Node15&#45;&gt;Node17</title>
<path fill="none" stroke="midnightblue" d="M282.645,-232.246C279.276,-224.697 274.507,-214.016 270.402,-204.82"/>
<polygon fill="midnightblue" stroke="midnightblue" points="273.577,-203.347 266.305,-195.643 267.185,-206.201 273.577,-203.347"/>
</g>
<!-- Node18&#45;&gt;Node4 -->
<g id="edge25" class="edge"><title>Node18&#45;&gt;Node4</title>
<path fill="none" stroke="midnightblue" d="M176.128,-232.418C184.632,-217.494 203.11,-188.87 227,-174 270.693,-146.803 329.019,-135.678 370.468,-131.132"/>
<polygon fill="midnightblue" stroke="midnightblue" points="371.023,-134.594 380.623,-130.112 370.323,-127.629 371.023,-134.594"/>
</g>
<!-- Node19 -->
<g id="node19" class="node"><title>Node19</title>
<polygon fill="white" stroke="#bfbfbf" points="53.5,-174.5 53.5,-195.5 98.5,-195.5 98.5,-174.5 53.5,-174.5"/>
<text text-anchor="middle" x="76" y="-181.9" font-family="Helvetica,sans-Serif" font-size="12.00">string</text>
</g>
<!-- Node18&#45;&gt;Node19 -->
<g id="edge26" class="edge"><title>Node18&#45;&gt;Node19</title>
<path fill="none" stroke="midnightblue" d="M154.452,-232.246C139.74,-223.573 118.011,-210.765 101.15,-200.825"/>
<polygon fill="midnightblue" stroke="midnightblue" points="102.75,-197.706 92.3581,-195.643 99.1954,-203.736 102.75,-197.706"/>
</g>
<!-- Node20&#45;&gt;Node3 -->
<g id="edge28" class="edge"><title>Node20&#45;&gt;Node3</title>
<path fill="none" stroke="midnightblue" d="M243.1,-290.444C273.928,-283.298 313.248,-271.666 345,-254 368.932,-240.684 391.859,-218.876 406.376,-203.554"/>
<polygon fill="midnightblue" stroke="midnightblue" points="409.318,-205.527 413.528,-195.805 404.174,-200.779 409.318,-205.527"/>
</g>
<!-- Node20&#45;&gt;Node18 -->
<g id="edge29" class="edge"><title>Node20&#45;&gt;Node18</title>
<path fill="none" stroke="midnightblue" d="M188.342,-290.246C185.542,-282.778 181.591,-272.243 178.168,-263.114"/>
<polygon fill="midnightblue" stroke="midnightblue" points="181.404,-261.777 174.616,-253.643 174.85,-264.235 181.404,-261.777"/>
</g>
<!-- Node23&#45;&gt;Node3 -->
<g id="edge33" class="edge"><title>Node23&#45;&gt;Node3</title>
<path fill="none" stroke="midnightblue" d="M104.562,-233.313C107.415,-232.863 110.242,-232.423 113,-232 224.829,-214.848 253.268,-213.777 365,-196 365.335,-195.947 365.671,-195.893 366.008,-195.839"/>
<polygon fill="midnightblue" stroke="midnightblue" points="366.677,-199.276 375.979,-194.203 365.544,-192.369 366.677,-199.276"/>
</g>
<!-- Node23&#45;&gt;Node19 -->
<g id="edge34" class="edge"><title>Node23&#45;&gt;Node19</title>
<path fill="none" stroke="midnightblue" d="M56.1805,-232.246C59.381,-224.778 63.896,-214.243 67.8084,-205.114"/>
<polygon fill="midnightblue" stroke="midnightblue" points="71.1452,-206.213 71.8674,-195.643 64.7112,-203.455 71.1452,-206.213"/>
</g>
<!-- Node24&#45;&gt;Node3 -->
<g id="edge37" class="edge"><title>Node24&#45;&gt;Node3</title>
<path fill="none" stroke="midnightblue" d="M555,-464.24C555,-444.537 555,-398.594 555,-360 555,-360 555,-360 555,-300 555,-249.395 498.809,-216.412 459.474,-199.523"/>
<polygon fill="midnightblue" stroke="midnightblue" points="460.461,-196.144 449.881,-195.575 457.796,-202.617 460.461,-196.144"/>
</g>
</g>
</svg>
