<?xml version="1.0" encoding="UTF-8" standalone="no"?>
<!DOCTYPE svg PUBLIC "-//W3C//DTD SVG 1.1//EN"
 "http://www.w3.org/Graphics/SVG/1.1/DTD/svg11.dtd">
<!-- Generated by graphviz version 2.34.0 (20130907.0111)
 -->
<!-- Title: ImageAcquisition.cpp Pages: 1 -->
<svg width="671pt" height="262pt"
 viewBox="0.00 0.00 671.00 262.00" xmlns="http://www.w3.org/2000/svg" xmlns:xlink="http://www.w3.org/1999/xlink">
<g id="graph0" class="graph" transform="scale(1 1) rotate(0) translate(4 258)">
<title>ImageAcquisition.cpp</title>
<polygon fill="white" stroke="white" points="-4,4 -4,-258 667,-258 667,4 -4,4"/>
<!-- Node1 -->
<g id="node1" class="node"><title>Node1</title>
<polygon fill="#bfbfbf" stroke="black" points="378.5,-232.5 378.5,-253.5 507.5,-253.5 507.5,-232.5 378.5,-232.5"/>
<text text-anchor="middle" x="443" y="-239.9" font-family="Helvetica,sans-Serif" font-size="12.00">ImageAcquisition.cpp</text>
</g>
<!-- Node2 -->
<g id="node2" class="node"><title>Node2</title>
<g id="a_node2"><a xlink:href="../../db/d06/stdafx_8h.html" target="_top" xlink:title="stdafx.h">
<polygon fill="white" stroke="black" points="337,-116.5 337,-137.5 393,-137.5 393,-116.5 337,-116.5"/>
<text text-anchor="middle" x="365" y="-123.9" font-family="Helvetica,sans-Serif" font-size="12.00">stdafx.h</text>
</a>
</g>
</g>
<!-- Node1&#45;&gt;Node2 -->
<g id="edge1" class="edge"><title>Node1&#45;&gt;Node2</title>
<path fill="none" stroke="midnightblue" d="M425.257,-232.378C412.022,-224.324 394.486,-211.644 384,-196 374.306,-181.539 369.52,-162.192 367.18,-147.833"/>
<polygon fill="midnightblue" stroke="midnightblue" points="370.601,-147.01 365.781,-137.575 363.665,-147.957 370.601,-147.01"/>
</g>
<!-- Node11 -->
<g id="node11" class="node"><title>Node11</title>
<g id="a_node11"><a xlink:href="../../d3/d62/_image_acquisition_8h.html" target="_top" xlink:title="ImageAcquisition.h">
<polygon fill="white" stroke="black" points="511,-174.5 511,-195.5 627,-195.5 627,-174.5 511,-174.5"/>
<text text-anchor="middle" x="569" y="-181.9" font-family="Helvetica,sans-Serif" font-size="12.00">ImageAcquisition.h</text>
</a>
</g>
</g>
<!-- Node1&#45;&gt;Node11 -->
<g id="edge10" class="edge"><title>Node1&#45;&gt;Node11</title>
<path fill="none" stroke="midnightblue" d="M464.66,-232.373C484.977,-223.343 515.564,-209.749 538.375,-199.611"/>
<polygon fill="midnightblue" stroke="midnightblue" points="539.906,-202.761 547.622,-195.501 537.063,-196.364 539.906,-202.761"/>
</g>
<!-- Node14 -->
<g id="node14" class="node"><title>Node14</title>
<g id="a_node14"><a xlink:href="../../da/d22/_thread_control_8h.html" target="_top" xlink:title="ThreadControl.h">
<polygon fill="white" stroke="black" points="393,-174.5 393,-195.5 493,-195.5 493,-174.5 393,-174.5"/>
<text text-anchor="middle" x="443" y="-181.9" font-family="Helvetica,sans-Serif" font-size="12.00">ThreadControl.h</text>
</a>
</g>
</g>
<!-- Node1&#45;&gt;Node14 -->
<g id="edge14" class="edge"><title>Node1&#45;&gt;Node14</title>
<path fill="none" stroke="midnightblue" d="M443,-232.246C443,-224.938 443,-214.694 443,-205.705"/>
<polygon fill="midnightblue" stroke="midnightblue" points="446.5,-205.643 443,-195.643 439.5,-205.643 446.5,-205.643"/>
</g>
<!-- Node3 -->
<g id="node3" class="node"><title>Node3</title>
<g id="a_node3"><a xlink:href="../../d9/da6/targetver_8h.html" target="_top" xlink:title="targetver.h">
<polygon fill="white" stroke="black" points="12.5,-58.5 12.5,-79.5 83.5,-79.5 83.5,-58.5 12.5,-58.5"/>
<text text-anchor="middle" x="48" y="-65.9" font-family="Helvetica,sans-Serif" font-size="12.00">targetver.h</text>
</a>
</g>
</g>
<!-- Node2&#45;&gt;Node3 -->
<g id="edge2" class="edge"><title>Node2&#45;&gt;Node3</title>
<path fill="none" stroke="midnightblue" d="M336.721,-121.706C288.888,-114.337 188.753,-98.4591 93.8772,-80.0937"/>
<polygon fill="midnightblue" stroke="midnightblue" points="94.3117,-76.6126 83.8268,-78.1348 92.9725,-83.4833 94.3117,-76.6126"/>
</g>
<!-- Node5 -->
<g id="node5" class="node"><title>Node5</title>
<polygon fill="white" stroke="#bfbfbf" points="102,-58.5 102,-79.5 160,-79.5 160,-58.5 102,-58.5"/>
<text text-anchor="middle" x="131" y="-65.9" font-family="Helvetica,sans-Serif" font-size="12.00">afxwin.h</text>
</g>
<!-- Node2&#45;&gt;Node5 -->
<g id="edge4" class="edge"><title>Node2&#45;&gt;Node5</title>
<path fill="none" stroke="midnightblue" d="M336.705,-119.61C300.414,-111.359 235.288,-96.3712 170.067,-80.2197"/>
<polygon fill="midnightblue" stroke="midnightblue" points="170.575,-76.7395 160.026,-77.7239 168.886,-83.5328 170.575,-76.7395"/>
</g>
<!-- Node6 -->
<g id="node6" class="node"><title>Node6</title>
<polygon fill="white" stroke="#bfbfbf" points="178,-58.5 178,-79.5 234,-79.5 234,-58.5 178,-58.5"/>
<text text-anchor="middle" x="206" y="-65.9" font-family="Helvetica,sans-Serif" font-size="12.00">afxext.h</text>
</g>
<!-- Node2&#45;&gt;Node6 -->
<g id="edge5" class="edge"><title>Node2&#45;&gt;Node6</title>
<path fill="none" stroke="midnightblue" d="M337.667,-116.373C311.457,-107.142 271.702,-93.1402 242.733,-82.9375"/>
<polygon fill="midnightblue" stroke="midnightblue" points="243.571,-79.5219 232.976,-79.5011 241.246,-86.1244 243.571,-79.5219"/>
</g>
<!-- Node7 -->
<g id="node7" class="node"><title>Node7</title>
<polygon fill="white" stroke="#bfbfbf" points="252.5,-58.5 252.5,-79.5 315.5,-79.5 315.5,-58.5 252.5,-58.5"/>
<text text-anchor="middle" x="284" y="-65.9" font-family="Helvetica,sans-Serif" font-size="12.00">afxdisp.h</text>
</g>
<!-- Node2&#45;&gt;Node7 -->
<g id="edge6" class="edge"><title>Node2&#45;&gt;Node7</title>
<path fill="none" stroke="midnightblue" d="M350.891,-116.246C338.579,-107.734 320.504,-95.2375 306.246,-85.3801"/>
<polygon fill="midnightblue" stroke="midnightblue" points="308.163,-82.4506 297.947,-79.6427 304.183,-88.2085 308.163,-82.4506"/>
</g>
<!-- Node8 -->
<g id="node8" class="node"><title>Node8</title>
<polygon fill="white" stroke="#bfbfbf" points="334,-58.5 334,-79.5 396,-79.5 396,-58.5 334,-58.5"/>
<text text-anchor="middle" x="365" y="-65.9" font-family="Helvetica,sans-Serif" font-size="12.00">afxdtctl.h</text>
</g>
<!-- Node2&#45;&gt;Node8 -->
<g id="edge7" class="edge"><title>Node2&#45;&gt;Node8</title>
<path fill="none" stroke="midnightblue" d="M365,-116.246C365,-108.938 365,-98.6944 365,-89.7046"/>
<polygon fill="midnightblue" stroke="midnightblue" points="368.5,-89.6426 365,-79.6427 361.5,-89.6427 368.5,-89.6426"/>
</g>
<!-- Node9 -->
<g id="node9" class="node"><title>Node9</title>
<polygon fill="white" stroke="#bfbfbf" points="414,-58.5 414,-79.5 476,-79.5 476,-58.5 414,-58.5"/>
<text text-anchor="middle" x="445" y="-65.9" font-family="Helvetica,sans-Serif" font-size="12.00">afxcmn.h</text>
</g>
<!-- Node2&#45;&gt;Node9 -->
<g id="edge8" class="edge"><title>Node2&#45;&gt;Node9</title>
<path fill="none" stroke="midnightblue" d="M378.935,-116.246C391.095,-107.734 408.946,-95.2375 423.028,-85.3801"/>
<polygon fill="midnightblue" stroke="midnightblue" points="425.04,-88.2447 431.225,-79.6427 421.025,-82.51 425.04,-88.2447"/>
</g>
<!-- Node10 -->
<g id="node10" class="node"><title>Node10</title>
<polygon fill="white" stroke="#bfbfbf" points="494,-58.5 494,-79.5 592,-79.5 592,-58.5 494,-58.5"/>
<text text-anchor="middle" x="543" y="-65.9" font-family="Helvetica,sans-Serif" font-size="12.00">afxcontrolbars.h</text>
</g>
<!-- Node2&#45;&gt;Node10 -->
<g id="edge9" class="edge"><title>Node2&#45;&gt;Node10</title>
<path fill="none" stroke="midnightblue" d="M393.205,-117.127C422.699,-107.847 469.258,-93.1998 502.64,-82.6977"/>
<polygon fill="midnightblue" stroke="midnightblue" points="504.054,-85.9218 512.543,-79.582 501.954,-79.2444 504.054,-85.9218"/>
</g>
<!-- Node4 -->
<g id="node4" class="node"><title>Node4</title>
<polygon fill="white" stroke="#bfbfbf" points="0,-0.5 0,-21.5 96,-21.5 96,-0.5 0,-0.5"/>
<text text-anchor="middle" x="48" y="-7.9" font-family="Helvetica,sans-Serif" font-size="12.00">SDKDDKVer.h</text>
</g>
<!-- Node3&#45;&gt;Node4 -->
<g id="edge3" class="edge"><title>Node3&#45;&gt;Node4</title>
<path fill="none" stroke="midnightblue" d="M48,-58.2455C48,-50.9382 48,-40.6944 48,-31.7046"/>
<polygon fill="midnightblue" stroke="midnightblue" points="51.5001,-31.6426 48,-21.6427 44.5001,-31.6427 51.5001,-31.6426"/>
</g>
<!-- Node11&#45;&gt;Node2 -->
<g id="edge11" class="edge"><title>Node11&#45;&gt;Node2</title>
<path fill="none" stroke="midnightblue" d="M533.931,-174.373C497.486,-164.369 440.63,-148.761 403.099,-138.459"/>
<polygon fill="midnightblue" stroke="midnightblue" points="403.629,-134.975 393.059,-135.703 401.776,-141.725 403.629,-134.975"/>
</g>
<!-- Node12 -->
<g id="node12" class="node"><title>Node12</title>
<g id="a_node12"><a xlink:href="../../d8/d07/_critical_buf_8h.html" target="_top" xlink:title="CriticalBuf.h">
<polygon fill="white" stroke="black" points="563,-116.5 563,-137.5 643,-137.5 643,-116.5 563,-116.5"/>
<text text-anchor="middle" x="603" y="-123.9" font-family="Helvetica,sans-Serif" font-size="12.00">CriticalBuf.h</text>
</a>
</g>
</g>
<!-- Node11&#45;&gt;Node12 -->
<g id="edge12" class="edge"><title>Node11&#45;&gt;Node12</title>
<path fill="none" stroke="midnightblue" d="M574.922,-174.246C579.603,-166.537 586.267,-155.56 591.929,-146.235"/>
<polygon fill="midnightblue" stroke="midnightblue" points="594.947,-148.007 597.146,-137.643 588.964,-144.374 594.947,-148.007"/>
</g>
<!-- Node13 -->
<g id="node13" class="node"><title>Node13</title>
<polygon fill="white" stroke="#bfbfbf" points="610.5,-58.5 610.5,-79.5 663.5,-79.5 663.5,-58.5 610.5,-58.5"/>
<text text-anchor="middle" x="637" y="-65.9" font-family="Helvetica,sans-Serif" font-size="12.00">afxmt.h</text>
</g>
<!-- Node12&#45;&gt;Node13 -->
<g id="edge13" class="edge"><title>Node12&#45;&gt;Node13</title>
<path fill="none" stroke="midnightblue" d="M608.922,-116.246C613.603,-108.537 620.267,-97.5598 625.929,-88.2348"/>
<polygon fill="midnightblue" stroke="midnightblue" points="628.947,-90.007 631.146,-79.6427 622.964,-86.3741 628.947,-90.007"/>
</g>
<!-- Node14&#45;&gt;Node2 -->
<g id="edge15" class="edge"><title>Node14&#45;&gt;Node2</title>
<path fill="none" stroke="midnightblue" d="M429.413,-174.246C417.67,-165.814 400.48,-153.473 386.812,-143.66"/>
<polygon fill="midnightblue" stroke="midnightblue" points="388.595,-140.632 378.431,-137.643 384.513,-146.318 388.595,-140.632"/>
</g>
<!-- Node14&#45;&gt;Node13 -->
<g id="edge16" class="edge"><title>Node14&#45;&gt;Node13</title>
<path fill="none" stroke="midnightblue" d="M458.315,-174.326C479.609,-160.942 519.444,-136.148 554,-116 572.56,-105.179 593.748,-93.4458 610.072,-84.5379"/>
<polygon fill="midnightblue" stroke="midnightblue" points="611.951,-87.5001 619.063,-79.6477 608.606,-81.3506 611.951,-87.5001"/>
</g>
</g>
</svg>
