<?xml version="1.0" encoding="UTF-8" standalone="no"?>
<!DOCTYPE svg PUBLIC "-//W3C//DTD SVG 1.1//EN"
 "http://www.w3.org/Graphics/SVG/1.1/DTD/svg11.dtd">
<!-- Generated by graphviz version 2.34.0 (20130907.0111)
 -->
<!-- Title: ImageAcquisition.cpp Pages: 1 -->
<svg width="709pt" height="262pt"
 viewBox="0.00 0.00 709.00 262.00" xmlns="http://www.w3.org/2000/svg" xmlns:xlink="http://www.w3.org/1999/xlink">
<g id="graph0" class="graph" transform="scale(1 1) rotate(0) translate(4 258)">
<title>ImageAcquisition.cpp</title>
<polygon fill="white" stroke="white" points="-4,4 -4,-258 705,-258 705,4 -4,4"/>
<!-- Node1 -->
<g id="node1" class="node"><title>Node1</title>
<polygon fill="#bfbfbf" stroke="black" points="406.5,-232.5 406.5,-253.5 535.5,-253.5 535.5,-232.5 406.5,-232.5"/>
<text text-anchor="middle" x="471" y="-239.9" font-family="Helvetica,sans-Serif" font-size="12.00">ImageAcquisition.cpp</text>
</g>
<!-- Node2 -->
<g id="node2" class="node"><title>Node2</title>
<g id="a_node2"><a xlink:href="../../db/d06/stdafx_8h.html" target="_top" xlink:title="stdafx.h">
<polygon fill="white" stroke="black" points="365,-116.5 365,-137.5 421,-137.5 421,-116.5 365,-116.5"/>
<text text-anchor="middle" x="393" y="-123.9" font-family="Helvetica,sans-Serif" font-size="12.00">stdafx.h</text>
</a>
</g>
</g>
<!-- Node1&#45;&gt;Node2 -->
<g id="edge1" class="edge"><title>Node1&#45;&gt;Node2</title>
<path fill="none" stroke="midnightblue" d="M453.257,-232.378C440.022,-224.324 422.486,-211.644 412,-196 402.306,-181.539 397.52,-162.192 395.18,-147.833"/>
<polygon fill="midnightblue" stroke="midnightblue" points="398.601,-147.01 393.781,-137.575 391.665,-147.957 398.601,-147.01"/>
</g>
<!-- Node11 -->
<g id="node11" class="node"><title>Node11</title>
<g id="a_node11"><a xlink:href="../../d3/d62/_image_acquisition_8h.html" target="_top" xlink:title="ImageAcquisition.h">
<polygon fill="white" stroke="black" points="539,-174.5 539,-195.5 655,-195.5 655,-174.5 539,-174.5"/>
<text text-anchor="middle" x="597" y="-181.9" font-family="Helvetica,sans-Serif" font-size="12.00">ImageAcquisition.h</text>
</a>
</g>
</g>
<!-- Node1&#45;&gt;Node11 -->
<g id="edge10" class="edge"><title>Node1&#45;&gt;Node11</title>
<path fill="none" stroke="midnightblue" d="M492.66,-232.373C512.977,-223.343 543.564,-209.749 566.375,-199.611"/>
<polygon fill="midnightblue" stroke="midnightblue" points="567.906,-202.761 575.622,-195.501 565.063,-196.364 567.906,-202.761"/>
</g>
<!-- Node15 -->
<g id="node15" class="node"><title>Node15</title>
<g id="a_node15"><a xlink:href="../../da/d22/_thread_control_8h.html" target="_top" xlink:title="ThreadControl.h">
<polygon fill="white" stroke="black" points="421,-174.5 421,-195.5 521,-195.5 521,-174.5 421,-174.5"/>
<text text-anchor="middle" x="471" y="-181.9" font-family="Helvetica,sans-Serif" font-size="12.00">ThreadControl.h</text>
</a>
</g>
</g>
<!-- Node1&#45;&gt;Node15 -->
<g id="edge15" class="edge"><title>Node1&#45;&gt;Node15</title>
<path fill="none" stroke="midnightblue" d="M471,-232.246C471,-224.938 471,-214.694 471,-205.705"/>
<polygon fill="midnightblue" stroke="midnightblue" points="474.5,-205.643 471,-195.643 467.5,-205.643 474.5,-205.643"/>
</g>
<!-- Node3 -->
<g id="node3" class="node"><title>Node3</title>
<g id="a_node3"><a xlink:href="../../d9/da6/targetver_8h.html" target="_top" xlink:title="targetver.h">
<polygon fill="white" stroke="black" points="357.5,-58.5 357.5,-79.5 428.5,-79.5 428.5,-58.5 357.5,-58.5"/>
<text text-anchor="middle" x="393" y="-65.9" font-family="Helvetica,sans-Serif" font-size="12.00">targetver.h</text>
</a>
</g>
</g>
<!-- Node2&#45;&gt;Node3 -->
<g id="edge2" class="edge"><title>Node2&#45;&gt;Node3</title>
<path fill="none" stroke="midnightblue" d="M393,-116.246C393,-108.938 393,-98.6944 393,-89.7046"/>
<polygon fill="midnightblue" stroke="midnightblue" points="396.5,-89.6426 393,-79.6427 389.5,-89.6427 396.5,-89.6426"/>
</g>
<!-- Node5 -->
<g id="node5" class="node"><title>Node5</title>
<polygon fill="white" stroke="#bfbfbf" points="447,-58.5 447,-79.5 505,-79.5 505,-58.5 447,-58.5"/>
<text text-anchor="middle" x="476" y="-65.9" font-family="Helvetica,sans-Serif" font-size="12.00">afxwin.h</text>
</g>
<!-- Node2&#45;&gt;Node5 -->
<g id="edge4" class="edge"><title>Node2&#45;&gt;Node5</title>
<path fill="none" stroke="midnightblue" d="M407.457,-116.246C420.073,-107.734 438.594,-95.2375 453.205,-85.3801"/>
<polygon fill="midnightblue" stroke="midnightblue" points="455.376,-88.1371 461.708,-79.6427 451.461,-82.3343 455.376,-88.1371"/>
</g>
<!-- Node6 -->
<g id="node6" class="node"><title>Node6</title>
<polygon fill="white" stroke="#bfbfbf" points="523,-58.5 523,-79.5 579,-79.5 579,-58.5 523,-58.5"/>
<text text-anchor="middle" x="551" y="-65.9" font-family="Helvetica,sans-Serif" font-size="12.00">afxext.h</text>
</g>
<!-- Node2&#45;&gt;Node6 -->
<g id="edge5" class="edge"><title>Node2&#45;&gt;Node6</title>
<path fill="none" stroke="midnightblue" d="M420.161,-116.373C446.207,-107.142 485.712,-93.1402 514.498,-82.9375"/>
<polygon fill="midnightblue" stroke="midnightblue" points="515.937,-86.1408 524.193,-79.5011 513.599,-79.5429 515.937,-86.1408"/>
</g>
<!-- Node7 -->
<g id="node7" class="node"><title>Node7</title>
<polygon fill="white" stroke="#bfbfbf" points="-0.5,-58.5 -0.5,-79.5 62.5,-79.5 62.5,-58.5 -0.5,-58.5"/>
<text text-anchor="middle" x="31" y="-65.9" font-family="Helvetica,sans-Serif" font-size="12.00">afxdisp.h</text>
</g>
<!-- Node2&#45;&gt;Node7 -->
<g id="edge6" class="edge"><title>Node2&#45;&gt;Node7</title>
<path fill="none" stroke="midnightblue" d="M364.939,-122.906C310.538,-116.71 186.786,-101.65 72.669,-79.97"/>
<polygon fill="midnightblue" stroke="midnightblue" points="73.1983,-76.5077 62.7174,-78.0575 71.8772,-83.3819 73.1983,-76.5077"/>
</g>
<!-- Node8 -->
<g id="node8" class="node"><title>Node8</title>
<polygon fill="white" stroke="#bfbfbf" points="81,-58.5 81,-79.5 143,-79.5 143,-58.5 81,-58.5"/>
<text text-anchor="middle" x="112" y="-65.9" font-family="Helvetica,sans-Serif" font-size="12.00">afxdtctl.h</text>
</g>
<!-- Node2&#45;&gt;Node8 -->
<g id="edge7" class="edge"><title>Node2&#45;&gt;Node8</title>
<path fill="none" stroke="midnightblue" d="M364.696,-121.131C321.319,-113.555 235.582,-98.1257 153.404,-80.2236"/>
<polygon fill="midnightblue" stroke="midnightblue" points="153.921,-76.7538 143.403,-78.0285 152.421,-83.5911 153.921,-76.7538"/>
</g>
<!-- Node9 -->
<g id="node9" class="node"><title>Node9</title>
<polygon fill="white" stroke="#bfbfbf" points="161,-58.5 161,-79.5 223,-79.5 223,-58.5 161,-58.5"/>
<text text-anchor="middle" x="192" y="-65.9" font-family="Helvetica,sans-Serif" font-size="12.00">afxcmn.h</text>
</g>
<!-- Node2&#45;&gt;Node9 -->
<g id="edge8" class="edge"><title>Node2&#45;&gt;Node9</title>
<path fill="none" stroke="midnightblue" d="M364.628,-118.095C330.284,-108.527 272.187,-92.3407 232.981,-81.4177"/>
<polygon fill="midnightblue" stroke="midnightblue" points="233.773,-78.005 223.2,-78.6926 231.894,-84.7481 233.773,-78.005"/>
</g>
<!-- Node10 -->
<g id="node10" class="node"><title>Node10</title>
<polygon fill="white" stroke="#bfbfbf" points="241,-58.5 241,-79.5 339,-79.5 339,-58.5 241,-58.5"/>
<text text-anchor="middle" x="290" y="-65.9" font-family="Helvetica,sans-Serif" font-size="12.00">afxcontrolbars.h</text>
</g>
<!-- Node2&#45;&gt;Node10 -->
<g id="edge9" class="edge"><title>Node2&#45;&gt;Node10</title>
<path fill="none" stroke="midnightblue" d="M375.059,-116.246C358.96,-107.493 335.112,-94.527 316.761,-84.5496"/>
<polygon fill="midnightblue" stroke="midnightblue" points="318.193,-81.3444 307.736,-79.6427 314.849,-87.4942 318.193,-81.3444"/>
</g>
<!-- Node4 -->
<g id="node4" class="node"><title>Node4</title>
<polygon fill="white" stroke="#bfbfbf" points="345,-0.5 345,-21.5 441,-21.5 441,-0.5 345,-0.5"/>
<text text-anchor="middle" x="393" y="-7.9" font-family="Helvetica,sans-Serif" font-size="12.00">SDKDDKVer.h</text>
</g>
<!-- Node3&#45;&gt;Node4 -->
<g id="edge3" class="edge"><title>Node3&#45;&gt;Node4</title>
<path fill="none" stroke="midnightblue" d="M393,-58.2455C393,-50.9382 393,-40.6944 393,-31.7046"/>
<polygon fill="midnightblue" stroke="midnightblue" points="396.5,-31.6426 393,-21.6427 389.5,-31.6427 396.5,-31.6426"/>
</g>
<!-- Node11&#45;&gt;Node2 -->
<g id="edge11" class="edge"><title>Node11&#45;&gt;Node2</title>
<path fill="none" stroke="midnightblue" d="M561.931,-174.373C525.486,-164.369 468.63,-148.761 431.099,-138.459"/>
<polygon fill="midnightblue" stroke="midnightblue" points="431.629,-134.975 421.059,-135.703 429.776,-141.725 431.629,-134.975"/>
</g>
<!-- Node12 -->
<g id="node12" class="node"><title>Node12</title>
<g id="a_node12"><a xlink:href="../../d8/d07/_critical_buf_8h.html" target="_top" xlink:title="CriticalBuf.h">
<polygon fill="white" stroke="black" points="557,-116.5 557,-137.5 637,-137.5 637,-116.5 557,-116.5"/>
<text text-anchor="middle" x="597" y="-123.9" font-family="Helvetica,sans-Serif" font-size="12.00">CriticalBuf.h</text>
</a>
</g>
</g>
<!-- Node11&#45;&gt;Node12 -->
<g id="edge12" class="edge"><title>Node11&#45;&gt;Node12</title>
<path fill="none" stroke="midnightblue" d="M597,-174.246C597,-166.938 597,-156.694 597,-147.705"/>
<polygon fill="midnightblue" stroke="midnightblue" points="600.5,-147.643 597,-137.643 593.5,-147.643 600.5,-147.643"/>
</g>
<!-- Node14 -->
<g id="node14" class="node"><title>Node14</title>
<polygon fill="white" stroke="#bfbfbf" points="655.5,-116.5 655.5,-137.5 700.5,-137.5 700.5,-116.5 655.5,-116.5"/>
<text text-anchor="middle" x="678" y="-123.9" font-family="Helvetica,sans-Serif" font-size="12.00">string</text>
</g>
<!-- Node11&#45;&gt;Node14 -->
<g id="edge14" class="edge"><title>Node11&#45;&gt;Node14</title>
<path fill="none" stroke="midnightblue" d="M611.109,-174.246C623.421,-165.734 641.496,-153.237 655.754,-143.38"/>
<polygon fill="midnightblue" stroke="midnightblue" points="657.817,-146.208 664.053,-137.643 653.837,-140.451 657.817,-146.208"/>
</g>
<!-- Node13 -->
<g id="node13" class="node"><title>Node13</title>
<polygon fill="white" stroke="#bfbfbf" points="597.5,-58.5 597.5,-79.5 650.5,-79.5 650.5,-58.5 597.5,-58.5"/>
<text text-anchor="middle" x="624" y="-65.9" font-family="Helvetica,sans-Serif" font-size="12.00">afxmt.h</text>
</g>
<!-- Node12&#45;&gt;Node13 -->
<g id="edge13" class="edge"><title>Node12&#45;&gt;Node13</title>
<path fill="none" stroke="midnightblue" d="M601.703,-116.246C605.342,-108.697 610.492,-98.0158 614.926,-88.8197"/>
<polygon fill="midnightblue" stroke="midnightblue" points="618.16,-90.1704 619.351,-79.6427 611.855,-87.1303 618.16,-90.1704"/>
</g>
<!-- Node15&#45;&gt;Node2 -->
<g id="edge16" class="edge"><title>Node15&#45;&gt;Node2</title>
<path fill="none" stroke="midnightblue" d="M457.413,-174.246C445.67,-165.814 428.48,-153.473 414.812,-143.66"/>
<polygon fill="midnightblue" stroke="midnightblue" points="416.595,-140.632 406.431,-137.643 412.513,-146.318 416.595,-140.632"/>
</g>
<!-- Node15&#45;&gt;Node13 -->
<g id="edge17" class="edge"><title>Node15&#45;&gt;Node13</title>
<path fill="none" stroke="midnightblue" d="M480.965,-174.145C495.186,-160.332 522.421,-134.801 548,-116 563.746,-104.427 582.522,-93.0412 597.472,-84.4927"/>
<polygon fill="midnightblue" stroke="midnightblue" points="599.231,-87.5189 606.225,-79.5603 595.795,-81.4206 599.231,-87.5189"/>
</g>
</g>
</svg>
