<?xml version="1.0" encoding="UTF-8" standalone="no"?>
<!DOCTYPE svg PUBLIC "-//W3C//DTD SVG 1.1//EN"
 "http://www.w3.org/Graphics/SVG/1.1/DTD/svg11.dtd">
<!-- Generated by graphviz version 2.34.0 (20130907.0111)
 -->
<!-- Title: JSONNode::reverse_iterator Pages: 1 -->
<svg width="515pt" height="192pt"
 viewBox="0.00 0.00 515.00 192.00" xmlns="http://www.w3.org/2000/svg" xmlns:xlink="http://www.w3.org/1999/xlink">
<g id="graph0" class="graph" transform="scale(1 1) rotate(0) translate(4 188)">
<title>JSONNode::reverse_iterator</title>
<polygon fill="white" stroke="white" points="-4,4 -4,-188 511,-188 511,4 -4,4"/>
<!-- Node1 -->
<g id="node1" class="node"><title>Node1</title>
<polygon fill="#bfbfbf" stroke="black" points="-0.5,-79.5 -0.5,-100.5 164.5,-100.5 164.5,-79.5 -0.5,-79.5"/>
<text text-anchor="middle" x="82" y="-86.9" font-family="Helvetica,sans-Serif" font-size="12.00">JSONNode::reverse_iterator</text>
</g>
<!-- Node2 -->
<g id="node2" class="node"><title>Node2</title>
<g id="a_node2"><a xlink:href="../../d6/dc7/class_j_s_o_n_node.html" target="_top" xlink:title="JSONNode">
<polygon fill="white" stroke="black" points="184.5,-160.5 184.5,-181.5 261.5,-181.5 261.5,-160.5 184.5,-160.5"/>
<text text-anchor="middle" x="223" y="-167.9" font-family="Helvetica,sans-Serif" font-size="12.00">JSONNode</text>
</a>
</g>
</g>
<!-- Node2&#45;&gt;Node1 -->
<g id="edge1" class="edge"><title>Node2&#45;&gt;Node1</title>
<path fill="none" stroke="#9a32cd" stroke-dasharray="5,2" d="M196.997,-155.431C168.453,-139.438 123.451,-114.224 99.0682,-100.563"/>
<polygon fill="#9a32cd" stroke="#9a32cd" points="195.557,-158.636 205.992,-160.471 198.979,-152.529 195.557,-158.636"/>
<text text-anchor="middle" x="175" y="-129.9" font-family="Helvetica,sans-Serif" font-size="12.00"> it</text>
</g>
<!-- Node2&#45;&gt;Node2 -->
<g id="edge2" class="edge"><title>Node2&#45;&gt;Node2</title>
<path fill="none" stroke="#9a32cd" stroke-dasharray="5,2" d="M271.872,-176.635C276.251,-175.456 279,-173.578 279,-171 279,-166.77 271.597,-164.423 261.735,-163.96"/>
<polygon fill="#9a32cd" stroke="#9a32cd" points="271.16,-173.2 261.735,-178.04 272.121,-180.134 271.16,-173.2"/>
<text text-anchor="middle" x="306" y="-174.4" font-family="Helvetica,sans-Serif" font-size="12.00"> operator[]</text>
<text text-anchor="middle" x="306" y="-161.4" font-family="Helvetica,sans-Serif" font-size="12.00">operator=</text>
</g>
<!-- Node5 -->
<g id="node5" class="node"><title>Node5</title>
<g id="a_node5"><a xlink:href="../../db/d49/classjson_children.html" target="_top" xlink:title="jsonChildren">
<polygon fill="white" stroke="black" points="182.5,-79.5 182.5,-100.5 263.5,-100.5 263.5,-79.5 182.5,-79.5"/>
<text text-anchor="middle" x="223" y="-86.9" font-family="Helvetica,sans-Serif" font-size="12.00">jsonChildren</text>
</a>
</g>
</g>
<!-- Node2&#45;&gt;Node5 -->
<g id="edge6" class="edge"><title>Node2&#45;&gt;Node5</title>
<path fill="none" stroke="#9a32cd" stroke-dasharray="5,2" d="M223,-150.034C223,-134.287 223,-113.006 223,-100.766"/>
<polygon fill="#9a32cd" stroke="#9a32cd" points="219.5,-150.313 223,-160.313 226.5,-150.313 219.5,-150.313"/>
<text text-anchor="middle" x="238" y="-129.9" font-family="Helvetica,sans-Serif" font-size="12.00"> array</text>
</g>
<!-- Node3 -->
<g id="node3" class="node"><title>Node3</title>
<g id="a_node3"><a xlink:href="../../d1/d0b/classinternal_j_s_o_n_node.html" target="_top" xlink:title="internalJSONNode">
<polygon fill="white" stroke="black" points="244,-0.5 244,-21.5 358,-21.5 358,-0.5 244,-0.5"/>
<text text-anchor="middle" x="301" y="-7.9" font-family="Helvetica,sans-Serif" font-size="12.00">internalJSONNode</text>
</a>
</g>
</g>
<!-- Node3&#45;&gt;Node2 -->
<g id="edge3" class="edge"><title>Node3&#45;&gt;Node2</title>
<path fill="none" stroke="#9a32cd" stroke-dasharray="5,2" d="M298.121,-31.6495C293.395,-58.4046 281.906,-106.763 257,-140 251.241,-147.686 243.249,-154.859 236.461,-160.263"/>
<polygon fill="#9a32cd" stroke="#9a32cd" points="301.603,-32.0447 299.752,-21.6128 294.693,-30.9219 301.603,-32.0447"/>
<text text-anchor="middle" x="308.5" y="-86.9" font-family="Helvetica,sans-Serif" font-size="12.00"> internal</text>
</g>
<!-- Node4 -->
<g id="node4" class="node"><title>Node4</title>
<g id="a_node4"><a xlink:href="../../d9/df1/unioninternal_j_s_o_n_node_1_1value__union__t.html" target="_top" xlink:title="internalJSONNode::value\l_union_t">
<polygon fill="white" stroke="black" points="360.5,-73 360.5,-107 507.5,-107 507.5,-73 360.5,-73"/>
<text text-anchor="start" x="368.5" y="-93.4" font-family="Helvetica,sans-Serif" font-size="12.00">internalJSONNode::value</text>
<text text-anchor="middle" x="434" y="-80.4" font-family="Helvetica,sans-Serif" font-size="12.00">_union_t</text>
</a>
</g>
</g>
<!-- Node4&#45;&gt;Node3 -->
<g id="edge4" class="edge"><title>Node4&#45;&gt;Node3</title>
<path fill="none" stroke="#9a32cd" stroke-dasharray="5,2" d="M397.243,-67.7196C371.141,-52.6081 337.34,-33.0388 317.525,-21.5673"/>
<polygon fill="#9a32cd" stroke="#9a32cd" points="395.711,-70.8769 406.119,-72.8583 399.218,-64.8189 395.711,-70.8769"/>
<text text-anchor="middle" x="389.5" y="-43.9" font-family="Helvetica,sans-Serif" font-size="12.00"> _value</text>
</g>
<!-- Node5&#45;&gt;Node3 -->
<g id="edge5" class="edge"><title>Node5&#45;&gt;Node3</title>
<path fill="none" stroke="#9a32cd" stroke-dasharray="5,2" d="M218.046,-69.4219C216.756,-59.7524 217.096,-48.3916 223,-40 228.878,-31.6451 237.495,-25.7708 246.88,-21.6438"/>
<polygon fill="#9a32cd" stroke="#9a32cd" points="214.637,-70.2273 219.987,-79.3722 221.508,-68.887 214.637,-70.2273"/>
<text text-anchor="middle" x="255" y="-43.9" font-family="Helvetica,sans-Serif" font-size="12.00"> CHILDREN</text>
</g>
</g>
</svg>
