<?xml version="1.0" encoding="UTF-8" standalone="no"?>
<!DOCTYPE svg PUBLIC "-//W3C//DTD SVG 1.1//EN"
 "http://www.w3.org/Graphics/SVG/1.1/DTD/svg11.dtd">
<!-- Generated by graphviz version 2.34.0 (20130907.0111)
 -->
<!-- Title: makeIndent Pages: 1 -->
<svg width="322pt" height="70pt"
 viewBox="0.00 0.00 322.00 70.00" xmlns="http://www.w3.org/2000/svg" xmlns:xlink="http://www.w3.org/1999/xlink">
<g id="graph0" class="graph" transform="scale(1 1) rotate(0) translate(4 66)">
<title>makeIndent</title>
<polygon fill="white" stroke="white" points="-4,4 -4,-66 318,-66 318,4 -4,4"/>
<!-- Node1 -->
<g id="node1" class="node"><title>Node1</title>
<polygon fill="#bfbfbf" stroke="black" points="0.5,-20.5 0.5,-41.5 77.5,-41.5 77.5,-20.5 0.5,-20.5"/>
<text text-anchor="middle" x="39" y="-27.9" font-family="Helvetica,sans-Serif" font-size="12.00">makeIndent</text>
</g>
<!-- Node2 -->
<g id="node2" class="node"><title>Node2</title>
<g id="a_node2"><a xlink:href="../../d1/d0b/classinternal_j_s_o_n_node.html#ab2a5d1bf268c71641b8a058ca5809d62" target="_top" xlink:title="internalJSONNode::WriteChildren">
<polygon fill="white" stroke="black" points="118.5,-40.5 118.5,-61.5 309.5,-61.5 309.5,-40.5 118.5,-40.5"/>
<text text-anchor="middle" x="214" y="-47.9" font-family="Helvetica,sans-Serif" font-size="12.00">internalJSONNode::WriteChildren</text>
</a>
</g>
</g>
<!-- Node1&#45;&gt;Node2 -->
<g id="edge1" class="edge"><title>Node1&#45;&gt;Node2</title>
<path fill="none" stroke="midnightblue" d="M87.5121,-36.4927C98.2707,-37.7365 110.047,-39.0979 121.938,-40.4726"/>
<polygon fill="midnightblue" stroke="midnightblue" points="87.8742,-33.0114 77.5384,-35.3397 87.0703,-39.9651 87.8742,-33.0114"/>
</g>
<!-- Node3 -->
<g id="node3" class="node"><title>Node3</title>
<g id="a_node3"><a xlink:href="../../d1/d0b/classinternal_j_s_o_n_node.html#a787b387dcbfd8cbce2c98c8011bd4f39" target="_top" xlink:title="internalJSONNode::WriteComment">
<polygon fill="white" stroke="black" points="114.5,-0.5 114.5,-21.5 313.5,-21.5 313.5,-0.5 114.5,-0.5"/>
<text text-anchor="middle" x="214" y="-7.9" font-family="Helvetica,sans-Serif" font-size="12.00">internalJSONNode::WriteComment</text>
</a>
</g>
</g>
<!-- Node1&#45;&gt;Node3 -->
<g id="edge2" class="edge"><title>Node1&#45;&gt;Node3</title>
<path fill="none" stroke="midnightblue" d="M87.5121,-25.5073C98.2707,-24.2635 110.047,-22.9021 121.938,-21.5274"/>
<polygon fill="midnightblue" stroke="midnightblue" points="87.0703,-22.0349 77.5384,-26.6603 87.8742,-28.9886 87.0703,-22.0349"/>
</g>
</g>
</svg>
