<?xml version="1.0" encoding="UTF-8" standalone="no"?>
<!DOCTYPE svg PUBLIC "-//W3C//DTD SVG 1.1//EN"
 "http://www.w3.org/Graphics/SVG/1.1/DTD/svg11.dtd">
<!-- Generated by graphviz version 2.34.0 (20130907.0111)
 -->
<!-- Title: Documentation/Operator&#45;Console/JSON/internalJSONNode.h Pages: 1 -->
<svg width="1905pt" height="560pt"
 viewBox="0.00 0.00 1905.00 560.00" xmlns="http://www.w3.org/2000/svg" xmlns:xlink="http://www.w3.org/1999/xlink">
<g id="graph0" class="graph" transform="scale(1 1) rotate(0) translate(4 556)">
<title>Documentation/Operator&#45;Console/JSON/internalJSONNode.h</title>
<polygon fill="white" stroke="white" points="-4,4 -4,-556 1901,-556 1901,4 -4,4"/>
<!-- Node1 -->
<g id="node1" class="node"><title>Node1</title>
<polygon fill="#bfbfbf" stroke="black" points="311,-517 311,-551 519,-551 519,-517 311,-517"/>
<text text-anchor="start" x="319" y="-537.4" font-family="Helvetica,sans-Serif" font-size="12.00">Documentation/Operator</text>
<text text-anchor="middle" x="415" y="-524.4" font-family="Helvetica,sans-Serif" font-size="12.00">&#45;Console/JSON/internalJSONNode.h</text>
</g>
<!-- Node2 -->
<g id="node2" class="node"><title>Node2</title>
<g id="a_node2"><a xlink:href="../../d9/d7e/_documentation_2_operator-_console_2_j_s_o_n_2_j_s_o_n_node_8h.html" target="_top" xlink:title="Documentation/Operator\l&#45;Console/JSON/JSONNode.h">
<polygon fill="white" stroke="black" points="673,-445 673,-479 843,-479 843,-445 673,-445"/>
<text text-anchor="start" x="681" y="-465.4" font-family="Helvetica,sans-Serif" font-size="12.00">Documentation/Operator</text>
<text text-anchor="middle" x="758" y="-452.4" font-family="Helvetica,sans-Serif" font-size="12.00">&#45;Console/JSON/JSONNode.h</text>
</a>
</g>
</g>
<!-- Node1&#45;&gt;Node2 -->
<g id="edge1" class="edge"><title>Node1&#45;&gt;Node2</title>
<path fill="none" stroke="midnightblue" d="M503.663,-514.906C558.016,-503.813 626.979,-489.739 679.379,-479.045"/>
<polygon fill="midnightblue" stroke="midnightblue" points="502.789,-511.512 493.691,-516.941 504.189,-518.37 502.789,-511.512"/>
</g>
<!-- Node22 -->
<g id="node22" class="node"><title>Node22</title>
<g id="a_node22"><a xlink:href="../../d7/d97/_documentation_2_operator-_console_2_j_s_o_n_2internal_j_s_o_n_node_8cpp.html" target="_top" xlink:title="Documentation/Operator\l&#45;Console/JSON/internalJSONNode.cpp">
<polygon fill="white" stroke="black" points="-0.5,-289 -0.5,-323 220.5,-323 220.5,-289 -0.5,-289"/>
<text text-anchor="start" x="7.5" y="-309.4" font-family="Helvetica,sans-Serif" font-size="12.00">Documentation/Operator</text>
<text text-anchor="middle" x="110" y="-296.4" font-family="Helvetica,sans-Serif" font-size="12.00">&#45;Console/JSON/internalJSONNode.cpp</text>
</a>
</g>
</g>
<!-- Node1&#45;&gt;Node22 -->
<g id="edge39" class="edge"><title>Node1&#45;&gt;Node22</title>
<path fill="none" stroke="midnightblue" d="M300.78,-519.041C231.31,-504.007 147.789,-472.794 104,-408 86.7875,-382.531 95.9115,-344.686 103.409,-323.286"/>
<polygon fill="midnightblue" stroke="midnightblue" points="300.419,-522.54 310.921,-521.144 301.84,-515.686 300.419,-522.54"/>
</g>
<!-- Node3 -->
<g id="node3" class="node"><title>Node3</title>
<g id="a_node3"><a xlink:href="../../d6/d7b/_documentation_2_operator-_console_2libjson_8h.html" target="_top" xlink:title="Documentation/Operator\l&#45;Console/libjson.h">
<polygon fill="white" stroke="black" points="1202.5,-289 1202.5,-323 1347.5,-323 1347.5,-289 1202.5,-289"/>
<text text-anchor="start" x="1210.5" y="-309.4" font-family="Helvetica,sans-Serif" font-size="12.00">Documentation/Operator</text>
<text text-anchor="middle" x="1275" y="-296.4" font-family="Helvetica,sans-Serif" font-size="12.00">&#45;Console/libjson.h</text>
</a>
</g>
</g>
<!-- Node2&#45;&gt;Node3 -->
<g id="edge2" class="edge"><title>Node2&#45;&gt;Node3</title>
<path fill="none" stroke="midnightblue" d="M853.446,-454.906C954.886,-447.294 1107.85,-432.24 1161,-408 1166.71,-405.394 1226.74,-351.021 1257.31,-323.158"/>
<polygon fill="midnightblue" stroke="midnightblue" points="852.899,-451.437 843.183,-455.664 853.414,-458.418 852.899,-451.437"/>
</g>
<!-- Node21 -->
<g id="node21" class="node"><title>Node21</title>
<g id="a_node21"><a xlink:href="../../df/d03/_documentation_2_operator-_console_2_j_s_o_n_2_j_s_o_n_worker_8h.html" target="_top" xlink:title="Documentation/Operator\l&#45;Console/JSON/JSONWorker.h">
<polygon fill="white" stroke="black" points="953,-367 953,-401 1133,-401 1133,-367 953,-367"/>
<text text-anchor="start" x="961" y="-387.4" font-family="Helvetica,sans-Serif" font-size="12.00">Documentation/Operator</text>
<text text-anchor="middle" x="1043" y="-374.4" font-family="Helvetica,sans-Serif" font-size="12.00">&#45;Console/JSON/JSONWorker.h</text>
</a>
</g>
</g>
<!-- Node2&#45;&gt;Node21 -->
<g id="edge24" class="edge"><title>Node2&#45;&gt;Node21</title>
<path fill="none" stroke="midnightblue" d="M828.001,-442.333C875.53,-429.659 937.727,-413.073 982.989,-401.003"/>
<polygon fill="midnightblue" stroke="midnightblue" points="826.853,-439.017 818.093,-444.975 828.657,-445.78 826.853,-439.017"/>
</g>
<!-- Node2&#45;&gt;Node22 -->
<g id="edge33" class="edge"><title>Node2&#45;&gt;Node22</title>
<path fill="none" stroke="midnightblue" d="M662.536,-459.221C496.32,-455.217 167.689,-442.935 129,-408 105.296,-386.596 105.451,-345.744 107.689,-323.106"/>
<polygon fill="midnightblue" stroke="midnightblue" points="662.679,-462.726 672.759,-459.462 662.844,-455.728 662.679,-462.726"/>
</g>
<!-- Node25 -->
<g id="node25" class="node"><title>Node25</title>
<g id="a_node25"><a xlink:href="../../d7/dfe/_documentation_2_operator-_console_2_j_s_o_n_2_j_s_o_n_writer_8cpp.html" target="_top" xlink:title="Documentation/Operator\l&#45;Console/JSON/JSONWriter.cpp">
<polygon fill="white" stroke="black" points="997.5,-289 997.5,-323 1184.5,-323 1184.5,-289 997.5,-289"/>
<text text-anchor="start" x="1005.5" y="-309.4" font-family="Helvetica,sans-Serif" font-size="12.00">Documentation/Operator</text>
<text text-anchor="middle" x="1091" y="-296.4" font-family="Helvetica,sans-Serif" font-size="12.00">&#45;Console/JSON/JSONWriter.cpp</text>
</a>
</g>
</g>
<!-- Node2&#45;&gt;Node25 -->
<g id="edge38" class="edge"><title>Node2&#45;&gt;Node25</title>
<path fill="none" stroke="midnightblue" d="M853.318,-461.57C954.65,-459.9 1105.29,-450.123 1142,-408 1156.02,-391.917 1149.97,-379.787 1142,-360 1136.08,-345.313 1123.93,-332.42 1112.97,-323.028"/>
<polygon fill="midnightblue" stroke="midnightblue" points="853.008,-458.074 843.059,-461.714 853.107,-465.073 853.008,-458.074"/>
</g>
<!-- Node26 -->
<g id="node26" class="node"><title>Node26</title>
<g id="a_node26"><a xlink:href="../../d6/de0/_documentation_2_operator-_console_2_j_s_o_n_2_j_s_o_n_preparse_8h.html" target="_top" xlink:title="Documentation/Operator\l&#45;Console/JSON/JSONPreparse.h">
<polygon fill="white" stroke="black" points="1227.5,-367 1227.5,-401 1418.5,-401 1418.5,-367 1227.5,-367"/>
<text text-anchor="start" x="1235.5" y="-387.4" font-family="Helvetica,sans-Serif" font-size="12.00">Documentation/Operator</text>
<text text-anchor="middle" x="1323" y="-374.4" font-family="Helvetica,sans-Serif" font-size="12.00">&#45;Console/JSON/JSONPreparse.h</text>
</a>
</g>
</g>
<!-- Node2&#45;&gt;Node26 -->
<g id="edge30" class="edge"><title>Node2&#45;&gt;Node26</title>
<path fill="none" stroke="midnightblue" d="M853.173,-452.435C945.467,-443.535 1089.29,-428.096 1213,-408 1225.32,-405.998 1238.36,-403.559 1250.99,-401.028"/>
<polygon fill="midnightblue" stroke="midnightblue" points="852.635,-448.97 843.014,-453.408 853.302,-455.938 852.635,-448.97"/>
</g>
<!-- Node28 -->
<g id="node28" class="node"><title>Node28</title>
<g id="a_node28"><a xlink:href="../../df/d4e/_documentation_2_operator-_console_2_j_s_o_n_2_j_s_o_n_children_8cpp.html" target="_top" xlink:title="Documentation/Operator\l&#45;Console/JSON/JSONChildren.cpp">
<polygon fill="white" stroke="black" points="138.5,-367 138.5,-401 337.5,-401 337.5,-367 138.5,-367"/>
<text text-anchor="start" x="146.5" y="-387.4" font-family="Helvetica,sans-Serif" font-size="12.00">Documentation/Operator</text>
<text text-anchor="middle" x="238" y="-374.4" font-family="Helvetica,sans-Serif" font-size="12.00">&#45;Console/JSON/JSONChildren.cpp</text>
</a>
</g>
</g>
<!-- Node2&#45;&gt;Node28 -->
<g id="edge34" class="edge"><title>Node2&#45;&gt;Node28</title>
<path fill="none" stroke="midnightblue" d="M662.873,-451.001C579.156,-441.668 454.107,-426.433 346,-408 334.094,-405.97 321.508,-403.546 309.297,-401.045"/>
<polygon fill="midnightblue" stroke="midnightblue" points="662.549,-454.486 672.874,-452.109 663.32,-447.529 662.549,-454.486"/>
</g>
<!-- Node29 -->
<g id="node29" class="node"><title>Node29</title>
<g id="a_node29"><a xlink:href="../../de/dfb/_documentation_2_operator-_console_2_j_s_o_n_2_j_s_o_n_iterators_8cpp.html" target="_top" xlink:title="Documentation/Operator\l&#45;Console/JSON/JSONIterators.cpp">
<polygon fill="white" stroke="black" points="355.5,-367 355.5,-401 552.5,-401 552.5,-367 355.5,-367"/>
<text text-anchor="start" x="363.5" y="-387.4" font-family="Helvetica,sans-Serif" font-size="12.00">Documentation/Operator</text>
<text text-anchor="middle" x="454" y="-374.4" font-family="Helvetica,sans-Serif" font-size="12.00">&#45;Console/JSON/JSONIterators.cpp</text>
</a>
</g>
</g>
<!-- Node2&#45;&gt;Node29 -->
<g id="edge35" class="edge"><title>Node2&#45;&gt;Node29</title>
<path fill="none" stroke="midnightblue" d="M683.968,-442.492C633.19,-429.797 566.493,-413.123 518.011,-401.003"/>
<polygon fill="midnightblue" stroke="midnightblue" points="683.351,-445.945 693.901,-444.975 685.048,-439.154 683.351,-445.945"/>
</g>
<!-- Node30 -->
<g id="node30" class="node"><title>Node30</title>
<g id="a_node30"><a xlink:href="../../db/d8a/_documentation_2_operator-_console_2_j_s_o_n_2_j_s_o_n_node_8cpp.html" target="_top" xlink:title="Documentation/Operator\l&#45;Console/JSON/JSONNode.cpp">
<polygon fill="white" stroke="black" points="571,-367 571,-401 755,-401 755,-367 571,-367"/>
<text text-anchor="start" x="579" y="-387.4" font-family="Helvetica,sans-Serif" font-size="12.00">Documentation/Operator</text>
<text text-anchor="middle" x="663" y="-374.4" font-family="Helvetica,sans-Serif" font-size="12.00">&#45;Console/JSON/JSONNode.cpp</text>
</a>
</g>
</g>
<!-- Node2&#45;&gt;Node30 -->
<g id="edge36" class="edge"><title>Node2&#45;&gt;Node30</title>
<path fill="none" stroke="midnightblue" d="M729.877,-438.502C714.856,-426.485 696.714,-411.971 683.118,-401.094"/>
<polygon fill="midnightblue" stroke="midnightblue" points="727.858,-441.368 737.853,-444.882 732.231,-435.902 727.858,-441.368"/>
</g>
<!-- Node31 -->
<g id="node31" class="node"><title>Node31</title>
<g id="a_node31"><a xlink:href="../../d3/d25/_documentation_2_operator-_console_2_j_s_o_n_2_j_s_o_n_node___mutex_8cpp.html" target="_top" xlink:title="Documentation/Operator\l&#45;Console/JSON/JSONNode\l_Mutex.cpp">
<polygon fill="white" stroke="black" points="773.5,-360.5 773.5,-407.5 934.5,-407.5 934.5,-360.5 773.5,-360.5"/>
<text text-anchor="start" x="781.5" y="-393.9" font-family="Helvetica,sans-Serif" font-size="12.00">Documentation/Operator</text>
<text text-anchor="start" x="781.5" y="-380.9" font-family="Helvetica,sans-Serif" font-size="12.00">&#45;Console/JSON/JSONNode</text>
<text text-anchor="middle" x="854" y="-367.9" font-family="Helvetica,sans-Serif" font-size="12.00">_Mutex.cpp</text>
</a>
</g>
</g>
<!-- Node2&#45;&gt;Node31 -->
<g id="edge37" class="edge"><title>Node2&#45;&gt;Node31</title>
<path fill="none" stroke="midnightblue" d="M786.464,-438.466C798.716,-428.766 813.016,-417.446 825.294,-407.725"/>
<polygon fill="midnightblue" stroke="midnightblue" points="784.027,-435.931 778.359,-444.882 788.372,-441.419 784.027,-435.931"/>
</g>
<!-- Node4 -->
<g id="node4" class="node"><title>Node4</title>
<g id="a_node4"><a xlink:href="../../d5/dd6/_documentation_2_operator-_console_2_image_test_8h.html" target="_top" xlink:title="Documentation/Operator\l&#45;Console/ImageTest.h">
<polygon fill="white" stroke="black" points="947.5,-217 947.5,-251 1092.5,-251 1092.5,-217 947.5,-217"/>
<text text-anchor="start" x="955.5" y="-237.4" font-family="Helvetica,sans-Serif" font-size="12.00">Documentation/Operator</text>
<text text-anchor="middle" x="1020" y="-224.4" font-family="Helvetica,sans-Serif" font-size="12.00">&#45;Console/ImageTest.h</text>
</a>
</g>
</g>
<!-- Node3&#45;&gt;Node4 -->
<g id="edge3" class="edge"><title>Node3&#45;&gt;Node4</title>
<path fill="none" stroke="midnightblue" d="M1206.83,-286.286C1166.86,-275.314 1116.88,-261.594 1078.67,-251.106"/>
<polygon fill="midnightblue" stroke="midnightblue" points="1205.93,-289.668 1216.5,-288.941 1207.78,-282.918 1205.93,-289.668"/>
</g>
<!-- Node18 -->
<g id="node18" class="node"><title>Node18</title>
<g id="a_node18"><a xlink:href="../../d6/d7f/_documentation_2_operator-_console_2_s_f_rplus_test_8cpp.html" target="_top" xlink:title="Documentation/Operator\l&#45;Console/SFRplusTest.cpp">
<polygon fill="white" stroke="black" points="1143.5,-73 1143.5,-107 1300.5,-107 1300.5,-73 1143.5,-73"/>
<text text-anchor="start" x="1151.5" y="-93.4" font-family="Helvetica,sans-Serif" font-size="12.00">Documentation/Operator</text>
<text text-anchor="middle" x="1222" y="-80.4" font-family="Helvetica,sans-Serif" font-size="12.00">&#45;Console/SFRplusTest.cpp</text>
</a>
</g>
</g>
<!-- Node3&#45;&gt;Node18 -->
<g id="edge23" class="edge"><title>Node3&#45;&gt;Node18</title>
<path fill="none" stroke="midnightblue" d="M1255.99,-280.477C1250.26,-271.903 1244.56,-261.93 1241,-252 1222.87,-201.391 1221.22,-136.678 1221.55,-107.079"/>
<polygon fill="midnightblue" stroke="midnightblue" points="1253.26,-282.682 1261.88,-288.844 1258.99,-278.653 1253.26,-282.682"/>
</g>
<!-- Node19 -->
<g id="node19" class="node"><title>Node19</title>
<g id="a_node19"><a xlink:href="../../d5/d65/_documentation_2_operator-_console_2_j_s_o_n_2libjson_8cpp.html" target="_top" xlink:title="Documentation/Operator\l&#45;Console/JSON/libjson.cpp">
<polygon fill="white" stroke="black" points="1250.5,-217 1250.5,-251 1407.5,-251 1407.5,-217 1250.5,-217"/>
<text text-anchor="start" x="1258.5" y="-237.4" font-family="Helvetica,sans-Serif" font-size="12.00">Documentation/Operator</text>
<text text-anchor="middle" x="1329" y="-224.4" font-family="Helvetica,sans-Serif" font-size="12.00">&#45;Console/JSON/libjson.cpp</text>
</a>
</g>
</g>
<!-- Node3&#45;&gt;Node19 -->
<g id="edge21" class="edge"><title>Node3&#45;&gt;Node19</title>
<path fill="none" stroke="midnightblue" d="M1293.83,-280.593C1301.35,-270.842 1309.81,-259.879 1316.54,-251.147"/>
<polygon fill="midnightblue" stroke="midnightblue" points="1290.86,-278.709 1287.52,-288.765 1296.4,-282.985 1290.86,-278.709"/>
</g>
<!-- Node20 -->
<g id="node20" class="node"><title>Node20</title>
<g id="a_node20"><a xlink:href="../../d0/d59/_documentation_2_operator-_console_2jsonhelpers_8cpp.html" target="_top" xlink:title="Documentation/Operator\l&#45;Console/jsonhelpers.cpp">
<polygon fill="white" stroke="black" points="1425.5,-217 1425.5,-251 1574.5,-251 1574.5,-217 1425.5,-217"/>
<text text-anchor="start" x="1433.5" y="-237.4" font-family="Helvetica,sans-Serif" font-size="12.00">Documentation/Operator</text>
<text text-anchor="middle" x="1500" y="-224.4" font-family="Helvetica,sans-Serif" font-size="12.00">&#45;Console/jsonhelpers.cpp</text>
</a>
</g>
</g>
<!-- Node3&#45;&gt;Node20 -->
<g id="edge22" class="edge"><title>Node3&#45;&gt;Node20</title>
<path fill="none" stroke="midnightblue" d="M1336.27,-285.937C1371.35,-275.024 1414.88,-261.483 1448.23,-251.106"/>
<polygon fill="midnightblue" stroke="midnightblue" points="1335.13,-282.628 1326.62,-288.941 1337.21,-289.312 1335.13,-282.628"/>
</g>
<!-- Node5 -->
<g id="node5" class="node"><title>Node5</title>
<g id="a_node5"><a xlink:href="../../da/df8/_documentation_2_operator-_console_2_blemish_test_8h.html" target="_top" xlink:title="Documentation/Operator\l&#45;Console/BlemishTest.h">
<polygon fill="white" stroke="black" points="846.5,-145 846.5,-179 991.5,-179 991.5,-145 846.5,-145"/>
<text text-anchor="start" x="854.5" y="-165.4" font-family="Helvetica,sans-Serif" font-size="12.00">Documentation/Operator</text>
<text text-anchor="middle" x="919" y="-152.4" font-family="Helvetica,sans-Serif" font-size="12.00">&#45;Console/BlemishTest.h</text>
</a>
</g>
</g>
<!-- Node4&#45;&gt;Node5 -->
<g id="edge4" class="edge"><title>Node4&#45;&gt;Node5</title>
<path fill="none" stroke="midnightblue" d="M988.411,-211.107C973.531,-200.793 956.09,-188.706 942.413,-179.227"/>
<polygon fill="midnightblue" stroke="midnightblue" points="986.616,-214.121 996.829,-216.941 990.603,-208.368 986.616,-214.121"/>
</g>
<!-- Node6 -->
<g id="node6" class="node"><title>Node6</title>
<g id="a_node6"><a xlink:href="../../da/d65/_documentation_2_operator-_console_2_operator_console_8h.html" target="_top" xlink:title="Documentation/Operator\l&#45;Console/OperatorConsole.h">
<polygon fill="white" stroke="black" points="959,-73 959,-107 1125,-107 1125,-73 959,-73"/>
<text text-anchor="start" x="967" y="-93.4" font-family="Helvetica,sans-Serif" font-size="12.00">Documentation/Operator</text>
<text text-anchor="middle" x="1042" y="-80.4" font-family="Helvetica,sans-Serif" font-size="12.00">&#45;Console/OperatorConsole.h</text>
</a>
</g>
</g>
<!-- Node4&#45;&gt;Node6 -->
<g id="edge16" class="edge"><title>Node4&#45;&gt;Node6</title>
<path fill="none" stroke="midnightblue" d="M1024.07,-206.726C1028.59,-177.574 1035.73,-131.451 1039.49,-107.173"/>
<polygon fill="midnightblue" stroke="midnightblue" points="1020.55,-206.569 1022.48,-216.987 1027.47,-207.641 1020.55,-206.569"/>
</g>
<!-- Node9 -->
<g id="node9" class="node"><title>Node9</title>
<g id="a_node9"><a xlink:href="../../da/df9/_documentation_2_operator-_console_2_image_test_8cpp.html" target="_top" xlink:title="Documentation/Operator\l&#45;Console/ImageTest.cpp">
<polygon fill="white" stroke="black" points="324.5,-1 324.5,-35 469.5,-35 469.5,-1 324.5,-1"/>
<text text-anchor="start" x="332.5" y="-21.4" font-family="Helvetica,sans-Serif" font-size="12.00">Documentation/Operator</text>
<text text-anchor="middle" x="397" y="-8.4" font-family="Helvetica,sans-Serif" font-size="12.00">&#45;Console/ImageTest.cpp</text>
</a>
</g>
</g>
<!-- Node4&#45;&gt;Node9 -->
<g id="edge20" class="edge"><title>Node4&#45;&gt;Node9</title>
<path fill="none" stroke="midnightblue" d="M950.81,-214.175C916.422,-204.512 874.337,-192.222 837,-180 688.573,-131.415 515.286,-65.1449 437.92,-35.0465"/>
<polygon fill="midnightblue" stroke="midnightblue" points="950.184,-217.634 960.757,-216.958 952.07,-210.893 950.184,-217.634"/>
</g>
<!-- Node17 -->
<g id="node17" class="node"><title>Node17</title>
<g id="a_node17"><a xlink:href="../../d5/d79/_documentation_2_operator-_console_2_s_f_rplus_test_8h.html" target="_top" xlink:title="Documentation/Operator\l&#45;Console/SFRplusTest.h">
<polygon fill="white" stroke="black" points="1048.5,-145 1048.5,-179 1193.5,-179 1193.5,-145 1048.5,-145"/>
<text text-anchor="start" x="1056.5" y="-165.4" font-family="Helvetica,sans-Serif" font-size="12.00">Documentation/Operator</text>
<text text-anchor="middle" x="1121" y="-152.4" font-family="Helvetica,sans-Serif" font-size="12.00">&#45;Console/SFRplusTest.h</text>
</a>
</g>
</g>
<!-- Node4&#45;&gt;Node17 -->
<g id="edge17" class="edge"><title>Node4&#45;&gt;Node17</title>
<path fill="none" stroke="midnightblue" d="M1051.59,-211.107C1066.47,-200.793 1083.91,-188.706 1097.59,-179.227"/>
<polygon fill="midnightblue" stroke="midnightblue" points="1049.4,-208.368 1043.17,-216.941 1053.38,-214.121 1049.4,-208.368"/>
</g>
<!-- Node5&#45;&gt;Node6 -->
<g id="edge5" class="edge"><title>Node5&#45;&gt;Node6</title>
<path fill="none" stroke="midnightblue" d="M955.953,-139.97C974.397,-129.473 996.364,-116.972 1013.49,-107.227"/>
<polygon fill="midnightblue" stroke="midnightblue" points="954.179,-136.952 947.219,-144.941 957.641,-143.036 954.179,-136.952"/>
</g>
<!-- Node16 -->
<g id="node16" class="node"><title>Node16</title>
<g id="a_node16"><a xlink:href="../../dc/d58/_documentation_2_operator-_console_2_blemish_test_8cpp.html" target="_top" xlink:title="Documentation/Operator\l&#45;Console/BlemishTest.cpp">
<polygon fill="white" stroke="black" points="787,-73 787,-107 941,-107 941,-73 787,-73"/>
<text text-anchor="start" x="795" y="-93.4" font-family="Helvetica,sans-Serif" font-size="12.00">Documentation/Operator</text>
<text text-anchor="middle" x="864" y="-80.4" font-family="Helvetica,sans-Serif" font-size="12.00">&#45;Console/BlemishTest.cpp</text>
</a>
</g>
</g>
<!-- Node5&#45;&gt;Node16 -->
<g id="edge15" class="edge"><title>Node5&#45;&gt;Node16</title>
<path fill="none" stroke="midnightblue" d="M900.055,-136.889C892.336,-127.064 883.617,-115.967 876.687,-107.147"/>
<polygon fill="midnightblue" stroke="midnightblue" points="897.313,-139.064 906.244,-144.765 902.818,-134.739 897.313,-139.064"/>
</g>
<!-- Node7 -->
<g id="node7" class="node"><title>Node7</title>
<g id="a_node7"><a xlink:href="../../d7/d4b/_documentation_2_operator-_console_2_app_thread_8cpp.html" target="_top" xlink:title="Documentation/Operator\l&#45;Console/AppThread.cpp">
<polygon fill="white" stroke="black" points="1586,-1 1586,-35 1734,-35 1734,-1 1586,-1"/>
<text text-anchor="start" x="1594" y="-21.4" font-family="Helvetica,sans-Serif" font-size="12.00">Documentation/Operator</text>
<text text-anchor="middle" x="1660" y="-8.4" font-family="Helvetica,sans-Serif" font-size="12.00">&#45;Console/AppThread.cpp</text>
</a>
</g>
</g>
<!-- Node6&#45;&gt;Node7 -->
<g id="edge6" class="edge"><title>Node6&#45;&gt;Node7</title>
<path fill="none" stroke="midnightblue" d="M1135.23,-71.921C1331.13,-46.6297 1384.09,-63.138 1576,-36 1579.24,-35.5417 1582.55,-35.0366 1585.88,-34.4961"/>
<polygon fill="midnightblue" stroke="midnightblue" points="1134.64,-68.4677 1125.18,-73.2381 1135.55,-75.4083 1134.64,-68.4677"/>
</g>
<!-- Node8 -->
<g id="node8" class="node"><title>Node8</title>
<g id="a_node8"><a xlink:href="../../de/d31/_documentation_2_operator-_console_2_critical_buf_8cpp.html" target="_top" xlink:title="Documentation/Operator\l&#45;Console/CriticalBuf.cpp">
<polygon fill="white" stroke="black" points="1752.5,-1 1752.5,-35 1897.5,-35 1897.5,-1 1752.5,-1"/>
<text text-anchor="start" x="1760.5" y="-21.4" font-family="Helvetica,sans-Serif" font-size="12.00">Documentation/Operator</text>
<text text-anchor="middle" x="1825" y="-8.4" font-family="Helvetica,sans-Serif" font-size="12.00">&#45;Console/CriticalBuf.cpp</text>
</a>
</g>
</g>
<!-- Node6&#45;&gt;Node8 -->
<g id="edge7" class="edge"><title>Node6&#45;&gt;Node8</title>
<path fill="none" stroke="midnightblue" d="M1135.26,-71.9442C1404.92,-40.0824 1477.49,-71.18 1743,-36 1746.03,-35.599 1749.11,-35.1493 1752.22,-34.6618"/>
<polygon fill="midnightblue" stroke="midnightblue" points="1134.69,-68.4882 1125.17,-73.1545 1135.52,-75.4383 1134.69,-68.4882"/>
</g>
<!-- Node6&#45;&gt;Node9 -->
<g id="edge8" class="edge"><title>Node6&#45;&gt;Node9</title>
<path fill="none" stroke="midnightblue" d="M948.763,-71.9267C740.06,-45.5154 683.631,-64.9107 479,-36 475.977,-35.5729 472.898,-35.1015 469.793,-34.5958"/>
<polygon fill="midnightblue" stroke="midnightblue" points="948.453,-75.4155 958.818,-73.2193 949.346,-68.4727 948.453,-75.4155"/>
</g>
<!-- Node10 -->
<g id="node10" class="node"><title>Node10</title>
<g id="a_node10"><a xlink:href="../../d4/d9c/_msg_dialog_8cpp.html" target="_top" xlink:title="Documentation/Operator\l&#45;Console/MsgDialog.cpp">
<polygon fill="white" stroke="black" points="488,-1 488,-35 634,-35 634,-1 488,-1"/>
<text text-anchor="start" x="496" y="-21.4" font-family="Helvetica,sans-Serif" font-size="12.00">Documentation/Operator</text>
<text text-anchor="middle" x="561" y="-8.4" font-family="Helvetica,sans-Serif" font-size="12.00">&#45;Console/MsgDialog.cpp</text>
</a>
</g>
</g>
<!-- Node6&#45;&gt;Node10 -->
<g id="edge9" class="edge"><title>Node6&#45;&gt;Node10</title>
<path fill="none" stroke="midnightblue" d="M948.804,-71.8798C812.436,-51.7946 775.434,-57.4503 643,-36 640.13,-35.5351 637.207,-35.0391 634.259,-34.5196"/>
<polygon fill="midnightblue" stroke="midnightblue" points="948.39,-75.3567 958.797,-73.3711 949.423,-68.4333 948.39,-75.3567"/>
</g>
<!-- Node11 -->
<g id="node11" class="node"><title>Node11</title>
<g id="a_node11"><a xlink:href="../../db/db5/_documentation_2_operator-_console_2_operator_console_8cpp.html" target="_top" xlink:title="Documentation/Operator\l&#45;Console/OperatorConsole.cpp">
<polygon fill="white" stroke="black" points="652.5,-1 652.5,-35 831.5,-35 831.5,-1 652.5,-1"/>
<text text-anchor="start" x="660.5" y="-21.4" font-family="Helvetica,sans-Serif" font-size="12.00">Documentation/Operator</text>
<text text-anchor="middle" x="742" y="-8.4" font-family="Helvetica,sans-Serif" font-size="12.00">&#45;Console/OperatorConsole.cpp</text>
</a>
</g>
</g>
<!-- Node6&#45;&gt;Node11 -->
<g id="edge10" class="edge"><title>Node6&#45;&gt;Node11</title>
<path fill="none" stroke="midnightblue" d="M963.266,-70.6288C915.913,-59.5797 856.215,-45.6501 810.765,-35.0452"/>
<polygon fill="midnightblue" stroke="midnightblue" points="962.64,-74.0767 973.174,-72.9406 964.231,-67.2598 962.64,-74.0767"/>
</g>
<!-- Node12 -->
<g id="node12" class="node"><title>Node12</title>
<g id="a_node12"><a xlink:href="../../dd/dcb/_documentation_2_operator-_console_2_operator_console_dlg_8cpp.html" target="_top" xlink:title="Documentation/Operator\l&#45;Console/OperatorConsoleDlg.cpp">
<polygon fill="white" stroke="black" points="849.5,-1 849.5,-35 1046.5,-35 1046.5,-1 849.5,-1"/>
<text text-anchor="start" x="857.5" y="-21.4" font-family="Helvetica,sans-Serif" font-size="12.00">Documentation/Operator</text>
<text text-anchor="middle" x="948" y="-8.4" font-family="Helvetica,sans-Serif" font-size="12.00">&#45;Console/OperatorConsoleDlg.cpp</text>
</a>
</g>
</g>
<!-- Node6&#45;&gt;Node12 -->
<g id="edge11" class="edge"><title>Node6&#45;&gt;Node12</title>
<path fill="none" stroke="midnightblue" d="M1011.98,-66.6425C998.227,-56.4033 982.238,-44.4963 969.684,-35.1473"/>
<polygon fill="midnightblue" stroke="midnightblue" points="1010.09,-69.5991 1020.2,-72.7646 1014.27,-63.9848 1010.09,-69.5991"/>
</g>
<!-- Node13 -->
<g id="node13" class="node"><title>Node13</title>
<g id="a_node13"><a xlink:href="../../dd/d14/_documentation_2_operator-_console_2_pass_fail_8cpp.html" target="_top" xlink:title="Documentation/Operator\l&#45;Console/PassFail.cpp">
<polygon fill="white" stroke="black" points="1064.5,-1 1064.5,-35 1209.5,-35 1209.5,-1 1064.5,-1"/>
<text text-anchor="start" x="1072.5" y="-21.4" font-family="Helvetica,sans-Serif" font-size="12.00">Documentation/Operator</text>
<text text-anchor="middle" x="1137" y="-8.4" font-family="Helvetica,sans-Serif" font-size="12.00">&#45;Console/PassFail.cpp</text>
</a>
</g>
</g>
<!-- Node6&#45;&gt;Node13 -->
<g id="edge12" class="edge"><title>Node6&#45;&gt;Node13</title>
<path fill="none" stroke="midnightblue" d="M1072.34,-66.6425C1086.24,-56.4033 1102.4,-44.4963 1115.09,-35.1473"/>
<polygon fill="midnightblue" stroke="midnightblue" points="1070.01,-64.0149 1064.03,-72.7646 1074.16,-69.6503 1070.01,-64.0149"/>
</g>
<!-- Node14 -->
<g id="node14" class="node"><title>Node14</title>
<g id="a_node14"><a xlink:href="../../dd/d4b/_documentation_2_operator-_console_2_password_dialog_8cpp.html" target="_top" xlink:title="Documentation/Operator\l&#45;Console/PasswordDialog.cpp">
<polygon fill="white" stroke="black" points="1228,-1 1228,-35 1404,-35 1404,-1 1228,-1"/>
<text text-anchor="start" x="1236" y="-21.4" font-family="Helvetica,sans-Serif" font-size="12.00">Documentation/Operator</text>
<text text-anchor="middle" x="1316" y="-8.4" font-family="Helvetica,sans-Serif" font-size="12.00">&#45;Console/PasswordDialog.cpp</text>
</a>
</g>
</g>
<!-- Node6&#45;&gt;Node14 -->
<g id="edge13" class="edge"><title>Node6&#45;&gt;Node14</title>
<path fill="none" stroke="midnightblue" d="M1114.71,-70.425C1157.75,-59.4299 1211.73,-45.638 1252.96,-35.1057"/>
<polygon fill="midnightblue" stroke="midnightblue" points="1113.68,-67.0742 1104.86,-72.9406 1115.42,-73.8564 1113.68,-67.0742"/>
</g>
<!-- Node15 -->
<g id="node15" class="node"><title>Node15</title>
<g id="a_node15"><a xlink:href="../../d3/d68/_documentation_2_operator-_console_2_setup_8cpp.html" target="_top" xlink:title="Documentation/Operator\l&#45;Console/Setup.cpp">
<polygon fill="white" stroke="black" points="1422.5,-1 1422.5,-35 1567.5,-35 1567.5,-1 1422.5,-1"/>
<text text-anchor="start" x="1430.5" y="-21.4" font-family="Helvetica,sans-Serif" font-size="12.00">Documentation/Operator</text>
<text text-anchor="middle" x="1495" y="-8.4" font-family="Helvetica,sans-Serif" font-size="12.00">&#45;Console/Setup.cpp</text>
</a>
</g>
</g>
<!-- Node6&#45;&gt;Node15 -->
<g id="edge14" class="edge"><title>Node6&#45;&gt;Node15</title>
<path fill="none" stroke="midnightblue" d="M1135.1,-71.8789C1259.21,-52.8244 1292.83,-56.1796 1413,-36 1416.01,-35.4944 1419.08,-34.9573 1422.18,-34.3974"/>
<polygon fill="midnightblue" stroke="midnightblue" points="1134.55,-68.4212 1125.21,-73.4146 1135.63,-75.3383 1134.55,-68.4212"/>
</g>
<!-- Node17&#45;&gt;Node6 -->
<g id="edge18" class="edge"><title>Node17&#45;&gt;Node6</title>
<path fill="none" stroke="midnightblue" d="M1095.11,-138.061C1083.71,-127.955 1070.58,-116.32 1060.22,-107.147"/>
<polygon fill="midnightblue" stroke="midnightblue" points="1092.87,-140.752 1102.68,-144.765 1097.51,-135.513 1092.87,-140.752"/>
</g>
<!-- Node17&#45;&gt;Node18 -->
<g id="edge19" class="edge"><title>Node17&#45;&gt;Node18</title>
<path fill="none" stroke="midnightblue" d="M1152.59,-139.107C1167.47,-128.793 1184.91,-116.706 1198.59,-107.227"/>
<polygon fill="midnightblue" stroke="midnightblue" points="1150.4,-136.368 1144.17,-144.941 1154.38,-142.121 1150.4,-136.368"/>
</g>
<!-- Node21&#45;&gt;Node3 -->
<g id="edge25" class="edge"><title>Node21&#45;&gt;Node3</title>
<path fill="none" stroke="midnightblue" d="M1101.45,-363.854C1139.94,-351.243 1189.77,-334.921 1226.15,-323.003"/>
<polygon fill="midnightblue" stroke="midnightblue" points="1100.33,-360.536 1091.92,-366.975 1102.51,-367.188 1100.33,-360.536"/>
</g>
<!-- Node21&#45;&gt;Node22 -->
<g id="edge26" class="edge"><title>Node21&#45;&gt;Node22</title>
<path fill="none" stroke="midnightblue" d="M970.442,-364.86C961.247,-362.991 951.932,-361.303 943,-360 806.865,-340.148 414.425,-320.588 220.772,-311.808"/>
<polygon fill="midnightblue" stroke="midnightblue" points="969.841,-368.311 980.348,-366.951 971.287,-361.462 969.841,-368.311"/>
</g>
<!-- Node23 -->
<g id="node23" class="node"><title>Node23</title>
<g id="a_node23"><a xlink:href="../../d5/de0/_documentation_2_operator-_console_2_j_s_o_n_2_j_s_o_n_stream_8cpp.html" target="_top" xlink:title="Documentation/Operator\l&#45;Console/JSON/JSONStream.cpp">
<polygon fill="white" stroke="black" points="785,-289 785,-323 979,-323 979,-289 785,-289"/>
<text text-anchor="start" x="793" y="-309.4" font-family="Helvetica,sans-Serif" font-size="12.00">Documentation/Operator</text>
<text text-anchor="middle" x="882" y="-296.4" font-family="Helvetica,sans-Serif" font-size="12.00">&#45;Console/JSON/JSONStream.cpp</text>
</a>
</g>
</g>
<!-- Node21&#45;&gt;Node23 -->
<g id="edge27" class="edge"><title>Node21&#45;&gt;Node23</title>
<path fill="none" stroke="midnightblue" d="M999.531,-362.481C973.322,-350.109 940.417,-334.576 916.095,-323.094"/>
<polygon fill="midnightblue" stroke="midnightblue" points="998.319,-365.779 1008.86,-366.882 1001.31,-359.448 998.319,-365.779"/>
</g>
<!-- Node24 -->
<g id="node24" class="node"><title>Node24</title>
<g id="a_node24"><a xlink:href="../../db/d60/_documentation_2_operator-_console_2_j_s_o_n_2_j_s_o_n_worker_8cpp.html" target="_top" xlink:title="Documentation/Operator\l&#45;Console/JSON/JSONWorker.cpp">
<polygon fill="white" stroke="black" points="573,-289 573,-323 767,-323 767,-289 573,-289"/>
<text text-anchor="start" x="581" y="-309.4" font-family="Helvetica,sans-Serif" font-size="12.00">Documentation/Operator</text>
<text text-anchor="middle" x="670" y="-296.4" font-family="Helvetica,sans-Serif" font-size="12.00">&#45;Console/JSON/JSONWorker.cpp</text>
</a>
</g>
</g>
<!-- Node21&#45;&gt;Node24 -->
<g id="edge28" class="edge"><title>Node21&#45;&gt;Node24</title>
<path fill="none" stroke="midnightblue" d="M964.755,-364.733C957.408,-363.1 950.069,-361.499 943,-360 880.773,-346.808 810.289,-333.156 756.528,-323.013"/>
<polygon fill="midnightblue" stroke="midnightblue" points="964.229,-368.202 974.753,-366.974 965.76,-361.372 964.229,-368.202"/>
</g>
<!-- Node21&#45;&gt;Node25 -->
<g id="edge29" class="edge"><title>Node21&#45;&gt;Node25</title>
<path fill="none" stroke="midnightblue" d="M1058.7,-358.136C1065.98,-346.619 1074.41,-333.266 1080.84,-323.094"/>
<polygon fill="midnightblue" stroke="midnightblue" points="1055.56,-356.558 1053.18,-366.882 1061.48,-360.296 1055.56,-356.558"/>
</g>
<!-- Node26&#45;&gt;Node3 -->
<g id="edge31" class="edge"><title>Node26&#45;&gt;Node3</title>
<path fill="none" stroke="midnightblue" d="M1307.3,-358.136C1300.02,-346.619 1291.59,-333.266 1285.16,-323.094"/>
<polygon fill="midnightblue" stroke="midnightblue" points="1304.52,-360.296 1312.82,-366.882 1310.44,-356.558 1304.52,-360.296"/>
</g>
<!-- Node27 -->
<g id="node27" class="node"><title>Node27</title>
<g id="a_node27"><a xlink:href="../../d1/d1c/_documentation_2_operator-_console_2_j_s_o_n_2_j_s_o_n_preparse_8cpp.html" target="_top" xlink:title="Documentation/Operator\l&#45;Console/JSON/JSONPreparse.cpp">
<polygon fill="white" stroke="black" points="1366,-289 1366,-323 1570,-323 1570,-289 1366,-289"/>
<text text-anchor="start" x="1374" y="-309.4" font-family="Helvetica,sans-Serif" font-size="12.00">Documentation/Operator</text>
<text text-anchor="middle" x="1468" y="-296.4" font-family="Helvetica,sans-Serif" font-size="12.00">&#45;Console/JSON/JSONPreparse.cpp</text>
</a>
</g>
</g>
<!-- Node26&#45;&gt;Node27 -->
<g id="edge32" class="edge"><title>Node26&#45;&gt;Node27</title>
<path fill="none" stroke="midnightblue" d="M1362.77,-362.154C1386.27,-349.836 1415.58,-334.475 1437.29,-323.094"/>
<polygon fill="midnightblue" stroke="midnightblue" points="1360.98,-359.14 1353.75,-366.882 1364.23,-365.34 1360.98,-359.14"/>
</g>
</g>
</svg>
