<?xml version="1.0" encoding="UTF-8" standalone="no"?>
<!DOCTYPE svg PUBLIC "-//W3C//DTD SVG 1.1//EN"
 "http://www.w3.org/Graphics/SVG/1.1/DTD/svg11.dtd">
<!-- Generated by graphviz version 2.34.0 (20130907.0111)
 -->
<!-- Title: JSON/JSON_Base64.cpp Pages: 1 -->
<svg width="641pt" height="320pt"
 viewBox="0.00 0.00 640.65 320.00" xmlns="http://www.w3.org/2000/svg" xmlns:xlink="http://www.w3.org/1999/xlink">
<g id="graph0" class="graph" transform="scale(1 1) rotate(0) translate(4 316)">
<title>JSON/JSON_Base64.cpp</title>
<polygon fill="white" stroke="white" points="-4,4 -4,-316 636.654,-316 636.654,4 -4,4"/>
<!-- Node1 -->
<g id="node1" class="node"><title>Node1</title>
<polygon fill="#bfbfbf" stroke="black" points="170.154,-290.5 170.154,-311.5 323.154,-311.5 323.154,-290.5 170.154,-290.5"/>
<text text-anchor="middle" x="246.654" y="-297.9" font-family="Helvetica,sans-Serif" font-size="12.00">JSON/JSON_Base64.cpp</text>
</g>
<!-- Node2 -->
<g id="node2" class="node"><title>Node2</title>
<g id="a_node2"><a xlink:href="../../d5/d4b/_j_s_o_n___base64_8h.html" target="_top" xlink:title="JSON_Base64.h">
<polygon fill="white" stroke="black" points="135.154,-232.5 135.154,-253.5 240.154,-253.5 240.154,-232.5 135.154,-232.5"/>
<text text-anchor="middle" x="187.654" y="-239.9" font-family="Helvetica,sans-Serif" font-size="12.00">JSON_Base64.h</text>
</a>
</g>
</g>
<!-- Node1&#45;&gt;Node2 -->
<g id="edge1" class="edge"><title>Node1&#45;&gt;Node2</title>
<path fill="none" stroke="midnightblue" d="M236.377,-290.246C227.833,-282.135 215.477,-270.408 205.346,-260.792"/>
<polygon fill="midnightblue" stroke="midnightblue" points="207.476,-257.988 197.814,-253.643 202.657,-263.066 207.476,-257.988"/>
</g>
<!-- Node12 -->
<g id="node12" class="node"><title>Node12</title>
<g id="a_node12"><a xlink:href="../../d8/dc8/_j_s_o_n_globals_8h.html" target="_top" xlink:title="JSONGlobals.h">
<polygon fill="white" stroke="black" points="258.154,-232.5 258.154,-253.5 355.154,-253.5 355.154,-232.5 258.154,-232.5"/>
<text text-anchor="middle" x="306.654" y="-239.9" font-family="Helvetica,sans-Serif" font-size="12.00">JSONGlobals.h</text>
</a>
</g>
</g>
<!-- Node1&#45;&gt;Node12 -->
<g id="edge12" class="edge"><title>Node1&#45;&gt;Node12</title>
<path fill="none" stroke="midnightblue" d="M257.106,-290.246C265.881,-282.055 278.61,-270.175 288.968,-260.507"/>
<polygon fill="midnightblue" stroke="midnightblue" points="291.4,-263.025 296.323,-253.643 286.624,-257.907 291.4,-263.025"/>
</g>
<!-- Node3 -->
<g id="node3" class="node"><title>Node3</title>
<g id="a_node3"><a xlink:href="../../d6/d82/_j_s_o_n_debug_8h.html" target="_top" xlink:title="JSONDebug.h">
<polygon fill="white" stroke="black" points="132.654,-174.5 132.654,-195.5 224.654,-195.5 224.654,-174.5 132.654,-174.5"/>
<text text-anchor="middle" x="178.654" y="-181.9" font-family="Helvetica,sans-Serif" font-size="12.00">JSONDebug.h</text>
</a>
</g>
</g>
<!-- Node2&#45;&gt;Node3 -->
<g id="edge2" class="edge"><title>Node2&#45;&gt;Node3</title>
<path fill="none" stroke="midnightblue" d="M186.087,-232.246C184.912,-224.938 183.266,-214.694 181.821,-205.705"/>
<polygon fill="midnightblue" stroke="midnightblue" points="185.247,-204.961 180.204,-195.643 178.335,-206.071 185.247,-204.961"/>
</g>
<!-- Node11 -->
<g id="node11" class="node"><title>Node11</title>
<polygon fill="white" stroke="#bfbfbf" points="243.154,-174.5 243.154,-195.5 288.154,-195.5 288.154,-174.5 243.154,-174.5"/>
<text text-anchor="middle" x="265.654" y="-181.9" font-family="Helvetica,sans-Serif" font-size="12.00">string</text>
</g>
<!-- Node2&#45;&gt;Node11 -->
<g id="edge11" class="edge"><title>Node2&#45;&gt;Node11</title>
<path fill="none" stroke="midnightblue" d="M201.241,-232.246C212.985,-223.814 230.174,-211.473 243.843,-201.66"/>
<polygon fill="midnightblue" stroke="midnightblue" points="246.141,-204.318 252.223,-195.643 242.059,-198.632 246.141,-204.318"/>
</g>
<!-- Node4 -->
<g id="node4" class="node"><title>Node4</title>
<g id="a_node4"><a xlink:href="../../dd/d47/_j_s_o_n_defs_8h.html" target="_top" xlink:title="JSONDefs.h">
<polygon fill="white" stroke="black" points="206.654,-116.5 206.654,-137.5 288.654,-137.5 288.654,-116.5 206.654,-116.5"/>
<text text-anchor="middle" x="247.654" y="-123.9" font-family="Helvetica,sans-Serif" font-size="12.00">JSONDefs.h</text>
</a>
</g>
</g>
<!-- Node3&#45;&gt;Node4 -->
<g id="edge3" class="edge"><title>Node3&#45;&gt;Node4</title>
<path fill="none" stroke="midnightblue" d="M190.673,-174.246C200.864,-165.975 215.691,-153.942 227.665,-144.223"/>
<polygon fill="midnightblue" stroke="midnightblue" points="230.214,-146.662 235.773,-137.643 225.803,-141.227 230.214,-146.662"/>
</g>
<!-- Node5 -->
<g id="node5" class="node"><title>Node5</title>
<g id="a_node5"><a xlink:href="../../dc/d13/_j_s_o_n_options_8h.html" target="_top" xlink:title="..\\JSONOptions.h">
<polygon fill="white" stroke="black" points="171.154,-0.5 171.154,-21.5 278.154,-21.5 278.154,-0.5 171.154,-0.5"/>
<text text-anchor="middle" x="224.654" y="-7.9" font-family="Helvetica,sans-Serif" font-size="12.00">..\JSONOptions.h</text>
</a>
</g>
</g>
<!-- Node4&#45;&gt;Node5 -->
<g id="edge4" class="edge"><title>Node4&#45;&gt;Node5</title>
<path fill="none" stroke="midnightblue" d="M206.612,-124.157C145.251,-120.444 34.1636,-109.7 9.65436,-80 -33.9858,-27.1175 82.7116,-14.7657 160.789,-12.2389"/>
<polygon fill="midnightblue" stroke="midnightblue" points="161.154,-15.7302 171.054,-11.9552 160.961,-8.73287 161.154,-15.7302"/>
</g>
<!-- Node6 -->
<g id="node6" class="node"><title>Node6</title>
<g id="a_node6"><a xlink:href="../../d1/d44/_unknown___c_8h.html" target="_top" xlink:title="JSONDefs\\Unknown_C.h">
<polygon fill="white" stroke="black" points="18.6544,-58.5 18.6544,-79.5 166.654,-79.5 166.654,-58.5 18.6544,-58.5"/>
<text text-anchor="middle" x="92.6544" y="-65.9" font-family="Helvetica,sans-Serif" font-size="12.00">JSONDefs\Unknown_C.h</text>
</a>
</g>
</g>
<!-- Node4&#45;&gt;Node6 -->
<g id="edge5" class="edge"><title>Node4&#45;&gt;Node6</title>
<path fill="none" stroke="midnightblue" d="M221.009,-116.373C195.458,-107.142 156.703,-93.1402 128.463,-82.9375"/>
<polygon fill="midnightblue" stroke="midnightblue" points="129.546,-79.6074 118.952,-79.5011 127.168,-86.1909 129.546,-79.6074"/>
</g>
<!-- Node7 -->
<g id="node7" class="node"><title>Node7</title>
<g id="a_node7"><a xlink:href="../../d7/d3c/_g_n_u___c_8h.html" target="_top" xlink:title="JSONDefs\\GNU_C.h">
<polygon fill="white" stroke="black" points="184.654,-58.5 184.654,-79.5 310.654,-79.5 310.654,-58.5 184.654,-58.5"/>
<text text-anchor="middle" x="247.654" y="-65.9" font-family="Helvetica,sans-Serif" font-size="12.00">JSONDefs\GNU_C.h</text>
</a>
</g>
</g>
<!-- Node4&#45;&gt;Node7 -->
<g id="edge6" class="edge"><title>Node4&#45;&gt;Node7</title>
<path fill="none" stroke="midnightblue" d="M247.654,-116.246C247.654,-108.938 247.654,-98.6944 247.654,-89.7046"/>
<polygon fill="midnightblue" stroke="midnightblue" points="251.154,-89.6426 247.654,-79.6427 244.154,-89.6427 251.154,-89.6426"/>
</g>
<!-- Node8 -->
<g id="node8" class="node"><title>Node8</title>
<g id="a_node8"><a xlink:href="../../d0/d22/_visual___c_8h.html" target="_top" xlink:title="JSONDefs\\Visual_C.h">
<polygon fill="white" stroke="black" points="329.154,-58.5 329.154,-79.5 462.154,-79.5 462.154,-58.5 329.154,-58.5"/>
<text text-anchor="middle" x="395.654" y="-65.9" font-family="Helvetica,sans-Serif" font-size="12.00">JSONDefs\Visual_C.h</text>
</a>
</g>
</g>
<!-- Node4&#45;&gt;Node8 -->
<g id="edge7" class="edge"><title>Node4&#45;&gt;Node8</title>
<path fill="none" stroke="midnightblue" d="M273.096,-116.373C297.387,-107.182 334.175,-93.2624 361.109,-83.0713"/>
<polygon fill="midnightblue" stroke="midnightblue" points="362.43,-86.3136 370.544,-79.5011 359.953,-79.7666 362.43,-86.3136"/>
</g>
<!-- Node9 -->
<g id="node9" class="node"><title>Node9</title>
<g id="a_node9"><a xlink:href="../../d8/d1d/_strings___defs_8h.html" target="_top" xlink:title="JSONDefs\\Strings_Defs.h">
<polygon fill="white" stroke="black" points="480.154,-58.5 480.154,-79.5 633.154,-79.5 633.154,-58.5 480.154,-58.5"/>
<text text-anchor="middle" x="556.654" y="-65.9" font-family="Helvetica,sans-Serif" font-size="12.00">JSONDefs\Strings_Defs.h</text>
</a>
</g>
</g>
<!-- Node4&#45;&gt;Node9 -->
<g id="edge8" class="edge"><title>Node4&#45;&gt;Node9</title>
<path fill="none" stroke="midnightblue" d="M288.687,-118.564C341.25,-109.038 432.863,-92.4347 494.131,-81.331"/>
<polygon fill="midnightblue" stroke="midnightblue" points="494.854,-84.7571 504.07,-79.5299 493.606,-77.8693 494.854,-84.7571"/>
</g>
<!-- Node9&#45;&gt;Node5 -->
<g id="edge9" class="edge"><title>Node9&#45;&gt;Node5</title>
<path fill="none" stroke="midnightblue" d="M499.959,-58.4369C441.188,-48.5238 349.512,-33.0604 288.297,-22.7348"/>
<polygon fill="midnightblue" stroke="midnightblue" points="288.81,-19.2721 278.367,-21.06 287.646,-26.1746 288.81,-19.2721"/>
</g>
<!-- Node10 -->
<g id="node10" class="node"><title>Node10</title>
<polygon fill="white" stroke="#bfbfbf" points="529.654,-0.5 529.654,-21.5 583.654,-21.5 583.654,-0.5 529.654,-0.5"/>
<text text-anchor="middle" x="556.654" y="-7.9" font-family="Helvetica,sans-Serif" font-size="12.00">string.h</text>
</g>
<!-- Node9&#45;&gt;Node10 -->
<g id="edge10" class="edge"><title>Node9&#45;&gt;Node10</title>
<path fill="none" stroke="midnightblue" d="M556.654,-58.2455C556.654,-50.9382 556.654,-40.6944 556.654,-31.7046"/>
<polygon fill="midnightblue" stroke="midnightblue" points="560.154,-31.6426 556.654,-21.6427 553.154,-31.6427 560.154,-31.6426"/>
</g>
<!-- Node12&#45;&gt;Node4 -->
<g id="edge13" class="edge"><title>Node12&#45;&gt;Node4</title>
<path fill="none" stroke="midnightblue" d="M307.174,-232.151C307.483,-218.347 306.491,-192.825 296.654,-174 290.553,-162.322 280.3,-151.996 270.745,-144.102"/>
<polygon fill="midnightblue" stroke="midnightblue" points="272.696,-141.185 262.651,-137.817 268.403,-146.714 272.696,-141.185"/>
</g>
<!-- Node12&#45;&gt;Node11 -->
<g id="edge14" class="edge"><title>Node12&#45;&gt;Node11</title>
<path fill="none" stroke="midnightblue" d="M299.513,-232.246C293.81,-224.456 285.664,-213.331 278.792,-203.944"/>
<polygon fill="midnightblue" stroke="midnightblue" points="281.446,-201.644 272.714,-195.643 275.798,-205.779 281.446,-201.644"/>
</g>
</g>
</svg>
