<?xml version="1.0" encoding="UTF-8" standalone="no"?>
<!DOCTYPE svg PUBLIC "-//W3C//DTD SVG 1.1//EN"
 "http://www.w3.org/Graphics/SVG/1.1/DTD/svg11.dtd">
<!-- Generated by graphviz version 2.34.0 (20130907.0111)
 -->
<!-- Title: ModelessDialogThread::SetTitle Pages: 1 -->
<svg width="496pt" height="42pt"
 viewBox="0.00 0.00 496.00 42.00" xmlns="http://www.w3.org/2000/svg" xmlns:xlink="http://www.w3.org/1999/xlink">
<g id="graph0" class="graph" transform="scale(1 1) rotate(0) translate(4 38)">
<title>ModelessDialogThread::SetTitle</title>
<polygon fill="white" stroke="white" points="-4,4 -4,-38 492,-38 492,4 -4,4"/>
<!-- Node1 -->
<g id="node1" class="node"><title>Node1</title>
<polygon fill="#bfbfbf" stroke="black" points="0.5,-0 0.5,-34 139.5,-34 139.5,-0 0.5,-0"/>
<text text-anchor="start" x="8.5" y="-20.4" font-family="Helvetica,sans-Serif" font-size="12.00">ModelessDialogThread</text>
<text text-anchor="middle" x="70" y="-7.4" font-family="Helvetica,sans-Serif" font-size="12.00">::SetTitle</text>
</g>
<!-- Node2 -->
<g id="node2" class="node"><title>Node2</title>
<g id="a_node2"><a xlink:href="../../d3/d9f/class_c_operator_console_app.html#a571a9da96d69ae7ec8e3bb59a393ba6c" target="_top" xlink:title="Called after MSG_JSON is received. ">
<polygon fill="white" stroke="black" points="176.5,-0 176.5,-34 313.5,-34 313.5,-0 176.5,-0"/>
<text text-anchor="start" x="184.5" y="-20.4" font-family="Helvetica,sans-Serif" font-size="12.00">COperatorConsoleApp</text>
<text text-anchor="middle" x="245" y="-7.4" font-family="Helvetica,sans-Serif" font-size="12.00">::OnShowJSON</text>
</a>
</g>
</g>
<!-- Node1&#45;&gt;Node2 -->
<g id="edge1" class="edge"><title>Node1&#45;&gt;Node2</title>
<path fill="none" stroke="midnightblue" d="M150.139,-17C158.945,-17 167.852,-17 176.494,-17"/>
<polygon fill="midnightblue" stroke="midnightblue" points="149.871,-13.5001 139.871,-17 149.871,-20.5001 149.871,-13.5001"/>
</g>
<!-- Node3 -->
<g id="node3" class="node"><title>Node3</title>
<g id="a_node3"><a xlink:href="../../d3/d9f/class_c_operator_console_app.html#a7041d197c4e6549f2cb7219981b4eec1" target="_top" xlink:title="Intercepts messages of interest before Windows or MFC. ">
<polygon fill="white" stroke="black" points="350,-0 350,-34 488,-34 488,-0 350,-0"/>
<text text-anchor="start" x="358" y="-20.4" font-family="Helvetica,sans-Serif" font-size="12.00">COperatorConsoleApp</text>
<text text-anchor="middle" x="419" y="-7.4" font-family="Helvetica,sans-Serif" font-size="12.00">::PreTranslateMessage</text>
</a>
</g>
</g>
<!-- Node2&#45;&gt;Node3 -->
<g id="edge2" class="edge"><title>Node2&#45;&gt;Node3</title>
<path fill="none" stroke="midnightblue" d="M324.054,-17C332.696,-17 341.446,-17 349.952,-17"/>
<polygon fill="midnightblue" stroke="midnightblue" points="323.979,-13.5001 313.979,-17 323.979,-20.5001 323.979,-13.5001"/>
</g>
</g>
</svg>
