<?xml version="1.0" encoding="UTF-8" standalone="no"?>
<!DOCTYPE svg PUBLIC "-//W3C//DTD SVG 1.1//EN"
 "http://www.w3.org/Graphics/SVG/1.1/DTD/svg11.dtd">
<!-- Generated by graphviz version 2.34.0 (20130907.0111)
 -->
<!-- Title: qso.h Pages: 1 -->
<svg width="1063pt" height="204pt"
 viewBox="0.00 0.00 1063.00 204.00" xmlns="http://www.w3.org/2000/svg" xmlns:xlink="http://www.w3.org/1999/xlink">
<g id="graph0" class="graph" transform="scale(1 1) rotate(0) translate(4 200)">
<title>qso.h</title>
<polygon fill="white" stroke="white" points="-4,4 -4,-200 1059,-200 1059,4 -4,4"/>
<!-- Node1 -->
<g id="node1" class="node"><title>Node1</title>
<polygon fill="#bfbfbf" stroke="black" points="811.5,-174.5 811.5,-195.5 856.5,-195.5 856.5,-174.5 811.5,-174.5"/>
<text text-anchor="middle" x="834" y="-181.9" font-family="Helvetica,sans-Serif" font-size="12.00">qso.h</text>
</g>
<!-- Node2 -->
<g id="node2" class="node"><title>Node2</title>
<g id="a_node2"><a xlink:href="../../d2/d9d/_s_f_rplus_test_8h.html" target="_top" xlink:title="SFRplusTest.h">
<polygon fill="white" stroke="black" points="746.5,-116.5 746.5,-137.5 839.5,-137.5 839.5,-116.5 746.5,-116.5"/>
<text text-anchor="middle" x="793" y="-123.9" font-family="Helvetica,sans-Serif" font-size="12.00">SFRplusTest.h</text>
</a>
</g>
</g>
<!-- Node1&#45;&gt;Node2 -->
<g id="edge1" class="edge"><title>Node1&#45;&gt;Node2</title>
<path fill="none" stroke="midnightblue" d="M820.764,-165.921C813.879,-156.518 805.739,-145.4 800.06,-137.643"/>
<polygon fill="midnightblue" stroke="midnightblue" points="818.127,-168.244 826.858,-174.246 823.775,-164.109 818.127,-168.244"/>
</g>
<!-- Node9 -->
<g id="node9" class="node"><title>Node9</title>
<g id="a_node9"><a xlink:href="../../d8/d29/_operator_console_dlg_8cpp.html" target="_top" xlink:title="OperatorConsoleDlg.cpp">
<polygon fill="white" stroke="black" points="907.5,-0.5 907.5,-21.5 1054.5,-21.5 1054.5,-0.5 907.5,-0.5"/>
<text text-anchor="middle" x="981" y="-7.9" font-family="Helvetica,sans-Serif" font-size="12.00">OperatorConsoleDlg.cpp</text>
</a>
</g>
</g>
<!-- Node1&#45;&gt;Node9 -->
<g id="edge13" class="edge"><title>Node1&#45;&gt;Node9</title>
<path fill="none" stroke="midnightblue" d="M848.917,-166.546C879.606,-130.638 948.929,-49.525 972.767,-21.6335"/>
<polygon fill="midnightblue" stroke="midnightblue" points="846.161,-164.384 842.325,-174.26 851.482,-168.932 846.161,-164.384"/>
</g>
<!-- Node3 -->
<g id="node3" class="node"><title>Node3</title>
<g id="a_node3"><a xlink:href="../../da/de6/_operator_console_8h.html" target="_top" xlink:title="OperatorConsole.h">
<polygon fill="white" stroke="black" points="465,-58.5 465,-79.5 581,-79.5 581,-58.5 465,-58.5"/>
<text text-anchor="middle" x="523" y="-65.9" font-family="Helvetica,sans-Serif" font-size="12.00">OperatorConsole.h</text>
</a>
</g>
</g>
<!-- Node2&#45;&gt;Node3 -->
<g id="edge2" class="edge"><title>Node2&#45;&gt;Node3</title>
<path fill="none" stroke="midnightblue" d="M736.936,-114.372C687.172,-104.05 615.348,-89.1537 568.918,-79.5237"/>
<polygon fill="midnightblue" stroke="midnightblue" points="736.39,-117.833 746.892,-116.437 737.811,-110.979 736.39,-117.833"/>
</g>
<!-- Node13 -->
<g id="node13" class="node"><title>Node13</title>
<g id="a_node13"><a xlink:href="../../dc/d7a/_s_f_rplus_test_8cpp.html" target="_top" xlink:title="SFRplusTest.cpp">
<polygon fill="white" stroke="black" points="739.5,-58.5 739.5,-79.5 846.5,-79.5 846.5,-58.5 739.5,-58.5"/>
<text text-anchor="middle" x="793" y="-65.9" font-family="Helvetica,sans-Serif" font-size="12.00">SFRplusTest.cpp</text>
</a>
</g>
</g>
<!-- Node2&#45;&gt;Node13 -->
<g id="edge12" class="edge"><title>Node2&#45;&gt;Node13</title>
<path fill="none" stroke="midnightblue" d="M793,-106.158C793,-97.155 793,-86.9199 793,-79.6427"/>
<polygon fill="midnightblue" stroke="midnightblue" points="789.5,-106.246 793,-116.246 796.5,-106.246 789.5,-106.246"/>
</g>
<!-- Node4 -->
<g id="node4" class="node"><title>Node4</title>
<g id="a_node4"><a xlink:href="../../d3/d22/_app_thread_8cpp.html" target="_top" xlink:title="AppThread.cpp">
<polygon fill="white" stroke="black" points="0,-0.5 0,-21.5 98,-21.5 98,-0.5 0,-0.5"/>
<text text-anchor="middle" x="49" y="-7.9" font-family="Helvetica,sans-Serif" font-size="12.00">AppThread.cpp</text>
</a>
</g>
</g>
<!-- Node3&#45;&gt;Node4 -->
<g id="edge3" class="edge"><title>Node3&#45;&gt;Node4</title>
<path fill="none" stroke="midnightblue" d="M454.984,-61.7557C372.478,-53.8869 229.248,-39.2813 107,-22 104.066,-21.5852 101.052,-21.1361 98.0149,-20.6657"/>
<polygon fill="midnightblue" stroke="midnightblue" points="454.699,-65.2443 464.985,-62.7049 455.36,-58.2756 454.699,-65.2443"/>
</g>
<!-- Node5 -->
<g id="node5" class="node"><title>Node5</title>
<g id="a_node5"><a xlink:href="../../d6/df7/_critical_buf_8cpp.html" target="_top" xlink:title="CriticalBuf.cpp">
<polygon fill="white" stroke="black" points="116.5,-0.5 116.5,-21.5 209.5,-21.5 209.5,-0.5 116.5,-0.5"/>
<text text-anchor="middle" x="163" y="-7.9" font-family="Helvetica,sans-Serif" font-size="12.00">CriticalBuf.cpp</text>
</a>
</g>
</g>
<!-- Node3&#45;&gt;Node5 -->
<g id="edge4" class="edge"><title>Node3&#45;&gt;Node5</title>
<path fill="none" stroke="midnightblue" d="M454.935,-58.2281C393.271,-49.2498 299.946,-35.3492 219,-22 215.979,-21.5018 212.869,-20.9777 209.735,-20.4411"/>
<polygon fill="midnightblue" stroke="midnightblue" points="454.533,-61.7063 464.932,-59.6809 455.539,-54.779 454.533,-61.7063"/>
</g>
<!-- Node6 -->
<g id="node6" class="node"><title>Node6</title>
<g id="a_node6"><a xlink:href="../../d8/d53/_image_test_8cpp.html" target="_top" xlink:title="ImageTest.cpp">
<polygon fill="white" stroke="black" points="228,-0.5 228,-21.5 322,-21.5 322,-0.5 228,-0.5"/>
<text text-anchor="middle" x="275" y="-7.9" font-family="Helvetica,sans-Serif" font-size="12.00">ImageTest.cpp</text>
</a>
</g>
</g>
<!-- Node3&#45;&gt;Node6 -->
<g id="edge5" class="edge"><title>Node3&#45;&gt;Node6</title>
<path fill="none" stroke="midnightblue" d="M470.643,-56.1775C424.97,-45.8641 359.556,-31.0934 317.176,-21.5237"/>
<polygon fill="midnightblue" stroke="midnightblue" points="470.124,-59.6482 480.649,-58.4369 471.666,-52.8202 470.124,-59.6482"/>
</g>
<!-- Node7 -->
<g id="node7" class="node"><title>Node7</title>
<g id="a_node7"><a xlink:href="../../df/d0a/main_8cpp.html" target="_top" xlink:title="main.cpp">
<polygon fill="white" stroke="black" points="340.5,-0.5 340.5,-21.5 405.5,-21.5 405.5,-0.5 340.5,-0.5"/>
<text text-anchor="middle" x="373" y="-7.9" font-family="Helvetica,sans-Serif" font-size="12.00">main.cpp</text>
</a>
</g>
</g>
<!-- Node3&#45;&gt;Node7 -->
<g id="edge6" class="edge"><title>Node3&#45;&gt;Node7</title>
<path fill="none" stroke="midnightblue" d="M487.613,-54.7888C460.225,-44.5639 422.952,-30.6488 398.449,-21.5011"/>
<polygon fill="midnightblue" stroke="midnightblue" points="486.621,-58.1546 497.214,-58.3733 489.07,-51.5967 486.621,-58.1546"/>
</g>
<!-- Node8 -->
<g id="node8" class="node"><title>Node8</title>
<g id="a_node8"><a xlink:href="../../de/da2/_operator_console_8cpp.html" target="_top" xlink:title="OperatorConsole.cpp">
<polygon fill="white" stroke="black" points="423.5,-0.5 423.5,-21.5 552.5,-21.5 552.5,-0.5 423.5,-0.5"/>
<text text-anchor="middle" x="488" y="-7.9" font-family="Helvetica,sans-Serif" font-size="12.00">OperatorConsole.cpp</text>
</a>
</g>
</g>
<!-- Node3&#45;&gt;Node8 -->
<g id="edge7" class="edge"><title>Node3&#45;&gt;Node8</title>
<path fill="none" stroke="midnightblue" d="M511.518,-49.6296C505.68,-40.2887 498.825,-29.3197 494.027,-21.6427"/>
<polygon fill="midnightblue" stroke="midnightblue" points="508.635,-51.6206 516.903,-58.2455 514.571,-47.9105 508.635,-51.6206"/>
</g>
<!-- Node3&#45;&gt;Node9 -->
<g id="edge8" class="edge"><title>Node3&#45;&gt;Node9</title>
<path fill="none" stroke="midnightblue" d="M591.034,-59.6814C675.743,-49.324 819.9,-31.6978 907.206,-21.0229"/>
<polygon fill="midnightblue" stroke="midnightblue" points="590.507,-56.2197 581.006,-60.9076 591.357,-63.1679 590.507,-56.2197"/>
</g>
<!-- Node10 -->
<g id="node10" class="node"><title>Node10</title>
<g id="a_node10"><a xlink:href="../../d0/d57/_pass_fail_8cpp.html" target="_top" xlink:title="PassFail.cpp">
<polygon fill="white" stroke="black" points="571,-0.5 571,-21.5 657,-21.5 657,-0.5 571,-0.5"/>
<text text-anchor="middle" x="614" y="-7.9" font-family="Helvetica,sans-Serif" font-size="12.00">PassFail.cpp</text>
</a>
</g>
</g>
<!-- Node3&#45;&gt;Node10 -->
<g id="edge9" class="edge"><title>Node3&#45;&gt;Node10</title>
<path fill="none" stroke="midnightblue" d="M547.75,-52.769C563.876,-42.8456 584.426,-30.1994 598.331,-21.6427"/>
<polygon fill="midnightblue" stroke="midnightblue" points="545.533,-50.0237 538.851,-58.2455 549.202,-55.9853 545.533,-50.0237"/>
</g>
<!-- Node11 -->
<g id="node11" class="node"><title>Node11</title>
<g id="a_node11"><a xlink:href="../../da/d46/_password_dialog_8cpp.html" target="_top" xlink:title="PasswordDialog.cpp">
<polygon fill="white" stroke="black" points="675,-0.5 675,-21.5 801,-21.5 801,-0.5 675,-0.5"/>
<text text-anchor="middle" x="738" y="-7.9" font-family="Helvetica,sans-Serif" font-size="12.00">PasswordDialog.cpp</text>
</a>
</g>
</g>
<!-- Node3&#45;&gt;Node11 -->
<g id="edge10" class="edge"><title>Node3&#45;&gt;Node11</title>
<path fill="none" stroke="midnightblue" d="M569.643,-55.8511C609.206,-45.5462 665.17,-30.9697 701.522,-21.5011"/>
<polygon fill="midnightblue" stroke="midnightblue" points="568.755,-52.4656 559.96,-58.3733 570.519,-59.2396 568.755,-52.4656"/>
</g>
<!-- Node12 -->
<g id="node12" class="node"><title>Node12</title>
<g id="a_node12"><a xlink:href="../../d5/d27/_setup_8cpp.html" target="_top" xlink:title="Setup.cpp">
<polygon fill="white" stroke="black" points="819,-0.5 819,-21.5 889,-21.5 889,-0.5 819,-0.5"/>
<text text-anchor="middle" x="854" y="-7.9" font-family="Helvetica,sans-Serif" font-size="12.00">Setup.cpp</text>
</a>
</g>
</g>
<!-- Node3&#45;&gt;Node12 -->
<g id="edge11" class="edge"><title>Node3&#45;&gt;Node12</title>
<path fill="none" stroke="midnightblue" d="M591.377,-58.3093C649.662,-49.746 735.572,-36.4068 810,-22 812.923,-21.4343 815.947,-20.8162 818.979,-20.1737"/>
<polygon fill="midnightblue" stroke="midnightblue" points="590.575,-54.8894 581.186,-59.7993 591.587,-61.8158 590.575,-54.8894"/>
</g>
</g>
</svg>
