<?xml version="1.0" encoding="UTF-8" standalone="no"?>
<!DOCTYPE svg PUBLIC "-//W3C//DTD SVG 1.1//EN"
 "http://www.w3.org/Graphics/SVG/1.1/DTD/svg11.dtd">
<!-- Generated by graphviz version 2.34.0 (20130907.0111)
 -->
<!-- Title: JSONValidator::isValidRoot Pages: 1 -->
<svg width="370pt" height="70pt"
 viewBox="0.00 0.00 370.00 70.00" xmlns="http://www.w3.org/2000/svg" xmlns:xlink="http://www.w3.org/1999/xlink">
<g id="graph0" class="graph" transform="scale(1 1) rotate(0) translate(4 66)">
<title>JSONValidator::isValidRoot</title>
<polygon fill="white" stroke="white" points="-4,4 -4,-66 366,-66 366,4 -4,4"/>
<!-- Node1 -->
<g id="node1" class="node"><title>Node1</title>
<polygon fill="#bfbfbf" stroke="black" points="0,-20.5 0,-41.5 162,-41.5 162,-20.5 0,-20.5"/>
<text text-anchor="middle" x="81" y="-27.9" font-family="Helvetica,sans-Serif" font-size="12.00">JSONValidator::isValidRoot</text>
</g>
<!-- Node2 -->
<g id="node2" class="node"><title>Node2</title>
<g id="a_node2"><a xlink:href="../../d0/d9e/namespacelibjson.html#a7588cf35ceb40558478dbd21e0caf3cf" target="_top" xlink:title="libjson::is_valid">
<polygon fill="white" stroke="black" points="232.5,-40.5 232.5,-61.5 327.5,-61.5 327.5,-40.5 232.5,-40.5"/>
<text text-anchor="middle" x="280" y="-47.9" font-family="Helvetica,sans-Serif" font-size="12.00">libjson::is_valid</text>
</a>
</g>
</g>
<!-- Node1&#45;&gt;Node2 -->
<g id="edge1" class="edge"><title>Node1&#45;&gt;Node2</title>
<path fill="none" stroke="midnightblue" d="M172.266,-40.1641C193.033,-42.2724 214.291,-44.4306 232.314,-46.2603"/>
<polygon fill="midnightblue" stroke="midnightblue" points="172.43,-36.6628 162.127,-39.1348 171.723,-43.627 172.43,-36.6628"/>
</g>
<!-- Node3 -->
<g id="node3" class="node"><title>Node3</title>
<g id="a_node3"><a xlink:href="../../d0/d9e/namespacelibjson.html#ae44fff882473e0459937f66867457c03" target="_top" xlink:title="libjson::is_valid_unformatted">
<polygon fill="white" stroke="black" points="198,-0.5 198,-21.5 362,-21.5 362,-0.5 198,-0.5"/>
<text text-anchor="middle" x="280" y="-7.9" font-family="Helvetica,sans-Serif" font-size="12.00">libjson::is_valid_unformatted</text>
</a>
</g>
</g>
<!-- Node1&#45;&gt;Node3 -->
<g id="edge2" class="edge"><title>Node1&#45;&gt;Node3</title>
<path fill="none" stroke="midnightblue" d="M172.175,-21.8452C180.781,-20.9715 189.473,-20.0891 197.984,-19.225"/>
<polygon fill="midnightblue" stroke="midnightblue" points="171.723,-18.373 162.127,-22.8652 172.43,-25.3372 171.723,-18.373"/>
</g>
</g>
</svg>
