<?xml version="1.0" encoding="UTF-8" standalone="no"?>
<!DOCTYPE svg PUBLIC "-//W3C//DTD SVG 1.1//EN"
 "http://www.w3.org/Graphics/SVG/1.1/DTD/svg11.dtd">
<!-- Generated by graphviz version 2.34.0 (20130907.0111)
 -->
<!-- Title: isHex Pages: 1 -->
<svg width="270pt" height="70pt"
 viewBox="0.00 0.00 270.00 70.00" xmlns="http://www.w3.org/2000/svg" xmlns:xlink="http://www.w3.org/1999/xlink">
<g id="graph0" class="graph" transform="scale(1 1) rotate(0) translate(4 66)">
<title>isHex</title>
<polygon fill="white" stroke="white" points="-4,4 -4,-66 266,-66 266,4 -4,4"/>
<!-- Node1 -->
<g id="node1" class="node"><title>Node1</title>
<polygon fill="#bfbfbf" stroke="black" points="0,-20.5 0,-41.5 46,-41.5 46,-20.5 0,-20.5"/>
<text text-anchor="middle" x="23" y="-27.9" font-family="Helvetica,sans-Serif" font-size="12.00">isHex</text>
</g>
<!-- Node2 -->
<g id="node2" class="node"><title>Node2</title>
<g id="a_node2"><a xlink:href="../../d2/d52/class_j_s_o_n_validator.html#a146d6e20484437ac8e19e53f8cbcdfa1" target="_top" xlink:title="JSONValidator::isValidNumber">
<polygon fill="white" stroke="black" points="82.5,-40.5 82.5,-61.5 261.5,-61.5 261.5,-40.5 82.5,-40.5"/>
<text text-anchor="middle" x="172" y="-47.9" font-family="Helvetica,sans-Serif" font-size="12.00">JSONValidator::isValidNumber</text>
</a>
</g>
</g>
<!-- Node1&#45;&gt;Node2 -->
<g id="edge1" class="edge"><title>Node1&#45;&gt;Node2</title>
<path fill="none" stroke="midnightblue" d="M56.1346,-35.3721C67.368,-36.9004 80.5128,-38.6888 93.8189,-40.4992"/>
<polygon fill="midnightblue" stroke="midnightblue" points="56.388,-31.8744 46.0074,-33.9942 55.4442,-38.8105 56.388,-31.8744"/>
</g>
<!-- Node3 -->
<g id="node3" class="node"><title>Node3</title>
<g id="a_node3"><a xlink:href="../../d2/d52/class_j_s_o_n_validator.html#a99dbccd01ff531041302a8bff198e2fa" target="_top" xlink:title="JSONValidator::isValidString">
<polygon fill="white" stroke="black" points="88,-0.5 88,-21.5 256,-21.5 256,-0.5 88,-0.5"/>
<text text-anchor="middle" x="172" y="-7.9" font-family="Helvetica,sans-Serif" font-size="12.00">JSONValidator::isValidString</text>
</a>
</g>
</g>
<!-- Node1&#45;&gt;Node3 -->
<g id="edge2" class="edge"><title>Node1&#45;&gt;Node3</title>
<path fill="none" stroke="midnightblue" d="M56.1346,-26.6279C67.368,-25.0996 80.5128,-23.3112 93.8189,-21.5008"/>
<polygon fill="midnightblue" stroke="midnightblue" points="55.4442,-23.1895 46.0074,-28.0058 56.388,-30.1256 55.4442,-23.1895"/>
</g>
</g>
</svg>
