<?xml version="1.0" encoding="UTF-8" standalone="no"?>
<!DOCTYPE svg PUBLIC "-//W3C//DTD SVG 1.1//EN"
 "http://www.w3.org/Graphics/SVG/1.1/DTD/svg11.dtd">
<!-- Generated by graphviz version 2.34.0 (20130907.0111)
 -->
<!-- Title: JSONNode::iterator Pages: 1 -->
<svg width="469pt" height="192pt"
 viewBox="0.00 0.00 469.00 192.00" xmlns="http://www.w3.org/2000/svg" xmlns:xlink="http://www.w3.org/1999/xlink">
<g id="graph0" class="graph" transform="scale(1 1) rotate(0) translate(4 188)">
<title>JSONNode::iterator</title>
<polygon fill="white" stroke="white" points="-4,4 -4,-188 465,-188 465,4 -4,4"/>
<!-- Node1 -->
<g id="node1" class="node"><title>Node1</title>
<polygon fill="#bfbfbf" stroke="black" points="-0.5,-79.5 -0.5,-100.5 118.5,-100.5 118.5,-79.5 -0.5,-79.5"/>
<text text-anchor="middle" x="59" y="-86.9" font-family="Helvetica,sans-Serif" font-size="12.00">JSONNode::iterator</text>
</g>
<!-- Node2 -->
<g id="node2" class="node"><title>Node2</title>
<g id="a_node2"><a xlink:href="../../d6/dc7/class_j_s_o_n_node.html" target="_top" xlink:title="JSONNode">
<polygon fill="white" stroke="black" points="138.5,-160.5 138.5,-181.5 215.5,-181.5 215.5,-160.5 138.5,-160.5"/>
<text text-anchor="middle" x="177" y="-167.9" font-family="Helvetica,sans-Serif" font-size="12.00">JSONNode</text>
</a>
</g>
</g>
<!-- Node2&#45;&gt;Node1 -->
<g id="edge1" class="edge"><title>Node2&#45;&gt;Node1</title>
<path fill="none" stroke="#9a32cd" stroke-dasharray="5,2" d="M154.04,-154.628C130.082,-138.589 93.2715,-113.944 73.2189,-100.519"/>
<polygon fill="#9a32cd" stroke="#9a32cd" points="152.274,-157.658 162.531,-160.313 156.168,-151.841 152.274,-157.658"/>
<text text-anchor="middle" x="138" y="-129.9" font-family="Helvetica,sans-Serif" font-size="12.00"> it</text>
</g>
<!-- Node2&#45;&gt;Node2 -->
<g id="edge2" class="edge"><title>Node2&#45;&gt;Node2</title>
<path fill="none" stroke="#9a32cd" stroke-dasharray="5,2" d="M225.872,-176.635C230.251,-175.456 233,-173.578 233,-171 233,-166.77 225.597,-164.423 215.735,-163.96"/>
<polygon fill="#9a32cd" stroke="#9a32cd" points="225.16,-173.2 215.735,-178.04 226.121,-180.134 225.16,-173.2"/>
<text text-anchor="middle" x="260" y="-174.4" font-family="Helvetica,sans-Serif" font-size="12.00"> operator[]</text>
<text text-anchor="middle" x="260" y="-161.4" font-family="Helvetica,sans-Serif" font-size="12.00">operator=</text>
</g>
<!-- Node5 -->
<g id="node5" class="node"><title>Node5</title>
<g id="a_node5"><a xlink:href="../../db/d49/classjson_children.html" target="_top" xlink:title="jsonChildren">
<polygon fill="white" stroke="black" points="136.5,-79.5 136.5,-100.5 217.5,-100.5 217.5,-79.5 136.5,-79.5"/>
<text text-anchor="middle" x="177" y="-86.9" font-family="Helvetica,sans-Serif" font-size="12.00">jsonChildren</text>
</a>
</g>
</g>
<!-- Node2&#45;&gt;Node5 -->
<g id="edge6" class="edge"><title>Node2&#45;&gt;Node5</title>
<path fill="none" stroke="#9a32cd" stroke-dasharray="5,2" d="M177,-150.034C177,-134.287 177,-113.006 177,-100.766"/>
<polygon fill="#9a32cd" stroke="#9a32cd" points="173.5,-150.313 177,-160.313 180.5,-150.313 173.5,-150.313"/>
<text text-anchor="middle" x="192" y="-129.9" font-family="Helvetica,sans-Serif" font-size="12.00"> array</text>
</g>
<!-- Node3 -->
<g id="node3" class="node"><title>Node3</title>
<g id="a_node3"><a xlink:href="../../d1/d0b/classinternal_j_s_o_n_node.html" target="_top" xlink:title="internalJSONNode">
<polygon fill="white" stroke="black" points="198,-0.5 198,-21.5 312,-21.5 312,-0.5 198,-0.5"/>
<text text-anchor="middle" x="255" y="-7.9" font-family="Helvetica,sans-Serif" font-size="12.00">internalJSONNode</text>
</a>
</g>
</g>
<!-- Node3&#45;&gt;Node2 -->
<g id="edge3" class="edge"><title>Node3&#45;&gt;Node2</title>
<path fill="none" stroke="#9a32cd" stroke-dasharray="5,2" d="M252.121,-31.6495C247.395,-58.4046 235.906,-106.763 211,-140 205.241,-147.686 197.249,-154.859 190.461,-160.263"/>
<polygon fill="#9a32cd" stroke="#9a32cd" points="255.603,-32.0447 253.752,-21.6128 248.693,-30.9219 255.603,-32.0447"/>
<text text-anchor="middle" x="262.5" y="-86.9" font-family="Helvetica,sans-Serif" font-size="12.00"> internal</text>
</g>
<!-- Node4 -->
<g id="node4" class="node"><title>Node4</title>
<g id="a_node4"><a xlink:href="../../d9/df1/unioninternal_j_s_o_n_node_1_1value__union__t.html" target="_top" xlink:title="internalJSONNode::value\l_union_t">
<polygon fill="white" stroke="black" points="314.5,-73 314.5,-107 461.5,-107 461.5,-73 314.5,-73"/>
<text text-anchor="start" x="322.5" y="-93.4" font-family="Helvetica,sans-Serif" font-size="12.00">internalJSONNode::value</text>
<text text-anchor="middle" x="388" y="-80.4" font-family="Helvetica,sans-Serif" font-size="12.00">_union_t</text>
</a>
</g>
</g>
<!-- Node4&#45;&gt;Node3 -->
<g id="edge4" class="edge"><title>Node4&#45;&gt;Node3</title>
<path fill="none" stroke="#9a32cd" stroke-dasharray="5,2" d="M351.243,-67.7196C325.141,-52.6081 291.34,-33.0388 271.525,-21.5673"/>
<polygon fill="#9a32cd" stroke="#9a32cd" points="349.711,-70.8769 360.119,-72.8583 353.218,-64.8189 349.711,-70.8769"/>
<text text-anchor="middle" x="343.5" y="-43.9" font-family="Helvetica,sans-Serif" font-size="12.00"> _value</text>
</g>
<!-- Node5&#45;&gt;Node3 -->
<g id="edge5" class="edge"><title>Node5&#45;&gt;Node3</title>
<path fill="none" stroke="#9a32cd" stroke-dasharray="5,2" d="M172.046,-69.4219C170.756,-59.7524 171.096,-48.3916 177,-40 182.878,-31.6451 191.495,-25.7708 200.88,-21.6438"/>
<polygon fill="#9a32cd" stroke="#9a32cd" points="168.637,-70.2273 173.987,-79.3722 175.508,-68.887 168.637,-70.2273"/>
<text text-anchor="middle" x="209" y="-43.9" font-family="Helvetica,sans-Serif" font-size="12.00"> CHILDREN</text>
</g>
</g>
</svg>
