<?xml version="1.0" encoding="UTF-8" standalone="no"?>
<!DOCTYPE svg PUBLIC "-//W3C//DTD SVG 1.1//EN"
 "http://www.w3.org/Graphics/SVG/1.1/DTD/svg11.dtd">
<!-- Generated by graphviz version 2.34.0 (20130907.0111)
 -->
<!-- Title: Documentation/Operator&#45;Console/JSON/JSONAllocator.cpp Pages: 1 -->
<svg width="208pt" height="160pt"
 viewBox="0.00 0.00 208.00 160.00" xmlns="http://www.w3.org/2000/svg" xmlns:xlink="http://www.w3.org/1999/xlink">
<g id="graph0" class="graph" transform="scale(1 1) rotate(0) translate(4 156)">
<title>Documentation/Operator&#45;Console/JSON/JSONAllocator.cpp</title>
<polygon fill="white" stroke="white" points="-4,4 -4,-156 204,-156 204,4 -4,4"/>
<!-- Node1 -->
<g id="node1" class="node"><title>Node1</title>
<polygon fill="#bfbfbf" stroke="black" points="-0.5,-117 -0.5,-151 200.5,-151 200.5,-117 -0.5,-117"/>
<text text-anchor="start" x="7.5" y="-137.4" font-family="Helvetica,sans-Serif" font-size="12.00">Documentation/Operator</text>
<text text-anchor="middle" x="100" y="-124.4" font-family="Helvetica,sans-Serif" font-size="12.00">&#45;Console/JSON/JSONAllocator.cpp</text>
</g>
<!-- Node2 -->
<g id="node2" class="node"><title>Node2</title>
<g id="a_node2"><a xlink:href="../../db/d1b/_documentation_2_operator-_console_2_j_s_o_n_2_j_s_o_n_allocator_8h.html" target="_top" xlink:title="JSONAllocator.h">
<polygon fill="white" stroke="black" points="48.5,-58.5 48.5,-79.5 151.5,-79.5 151.5,-58.5 48.5,-58.5"/>
<text text-anchor="middle" x="100" y="-65.9" font-family="Helvetica,sans-Serif" font-size="12.00">JSONAllocator.h</text>
</a>
</g>
</g>
<!-- Node1&#45;&gt;Node2 -->
<g id="edge1" class="edge"><title>Node1&#45;&gt;Node2</title>
<path fill="none" stroke="midnightblue" d="M100,-116.776C100,-108.47 100,-98.2953 100,-89.5587"/>
<polygon fill="midnightblue" stroke="midnightblue" points="103.5,-89.5106 100,-79.5106 96.5001,-89.5107 103.5,-89.5106"/>
</g>
<!-- Node3 -->
<g id="node3" class="node"><title>Node3</title>
<g id="a_node3"><a xlink:href="../../de/d2a/_documentation_2_operator-_console_2_j_s_o_n_options_8h.html" target="_top" xlink:title="../JSONOptions.h">
<polygon fill="white" stroke="black" points="46.5,-0.5 46.5,-21.5 153.5,-21.5 153.5,-0.5 46.5,-0.5"/>
<text text-anchor="middle" x="100" y="-7.9" font-family="Helvetica,sans-Serif" font-size="12.00">../JSONOptions.h</text>
</a>
</g>
</g>
<!-- Node2&#45;&gt;Node3 -->
<g id="edge2" class="edge"><title>Node2&#45;&gt;Node3</title>
<path fill="none" stroke="midnightblue" d="M100,-58.2455C100,-50.9382 100,-40.6944 100,-31.7046"/>
<polygon fill="midnightblue" stroke="midnightblue" points="103.5,-31.6426 100,-21.6427 96.5001,-31.6427 103.5,-31.6426"/>
</g>
</g>
</svg>
