<?xml version="1.0" encoding="UTF-8" standalone="no"?>
<!DOCTYPE svg PUBLIC "-//W3C//DTD SVG 1.1//EN"
 "http://www.w3.org/Graphics/SVG/1.1/DTD/svg11.dtd">
<!-- Generated by graphviz version 2.34.0 (20130907.0111)
 -->
<!-- Title: Documentation/Operator&#45;Console/escapi21/escapi.h Pages: 1 -->
<svg width="410pt" height="116pt"
 viewBox="0.00 0.00 410.00 116.00" xmlns="http://www.w3.org/2000/svg" xmlns:xlink="http://www.w3.org/1999/xlink">
<g id="graph0" class="graph" transform="scale(1 1) rotate(0) translate(4 112)">
<title>Documentation/Operator&#45;Console/escapi21/escapi.h</title>
<polygon fill="white" stroke="white" points="-4,4 -4,-112 406,-112 406,4 -4,4"/>
<!-- Node1 -->
<g id="node1" class="node"><title>Node1</title>
<polygon fill="#bfbfbf" stroke="black" points="111.5,-73 111.5,-107 274.5,-107 274.5,-73 111.5,-73"/>
<text text-anchor="start" x="119.5" y="-93.4" font-family="Helvetica,sans-Serif" font-size="12.00">Documentation/Operator</text>
<text text-anchor="middle" x="193" y="-80.4" font-family="Helvetica,sans-Serif" font-size="12.00">&#45;Console/escapi21/escapi.h</text>
</g>
<!-- Node2 -->
<g id="node2" class="node"><title>Node2</title>
<g id="a_node2"><a xlink:href="../../d8/d12/escapi_8cpp.html" target="_top" xlink:title="Documentation/Operator\l&#45;Console/escapi21/escapi.cpp">
<polygon fill="white" stroke="black" points="0,-1 0,-35 176,-35 176,-1 0,-1"/>
<text text-anchor="start" x="8" y="-21.4" font-family="Helvetica,sans-Serif" font-size="12.00">Documentation/Operator</text>
<text text-anchor="middle" x="88" y="-8.4" font-family="Helvetica,sans-Serif" font-size="12.00">&#45;Console/escapi21/escapi.cpp</text>
</a>
</g>
</g>
<!-- Node1&#45;&gt;Node2 -->
<g id="edge1" class="edge"><title>Node1&#45;&gt;Node2</title>
<path fill="none" stroke="midnightblue" d="M160.16,-67.1066C144.69,-56.7935 126.559,-44.7058 112.341,-35.2271"/>
<polygon fill="midnightblue" stroke="midnightblue" points="158.649,-70.3057 168.911,-72.9406 162.532,-64.4814 158.649,-70.3057"/>
</g>
<!-- Node3 -->
<g id="node3" class="node"><title>Node3</title>
<g id="a_node3"><a xlink:href="../../d2/d07/_documentation_2_operator-_console_2_simple_direct_show_acq_8cpp.html" target="_top" xlink:title="Documentation/Operator\l&#45;Console/SimpleDirectShowAcq.cpp">
<polygon fill="white" stroke="black" points="194,-1 194,-35 402,-35 402,-1 194,-1"/>
<text text-anchor="start" x="202" y="-21.4" font-family="Helvetica,sans-Serif" font-size="12.00">Documentation/Operator</text>
<text text-anchor="middle" x="298" y="-8.4" font-family="Helvetica,sans-Serif" font-size="12.00">&#45;Console/SimpleDirectShowAcq.cpp</text>
</a>
</g>
</g>
<!-- Node1&#45;&gt;Node3 -->
<g id="edge2" class="edge"><title>Node1&#45;&gt;Node3</title>
<path fill="none" stroke="midnightblue" d="M225.84,-67.1066C241.31,-56.7935 259.441,-44.7058 273.659,-35.2271"/>
<polygon fill="midnightblue" stroke="midnightblue" points="223.468,-64.4814 217.089,-72.9406 227.351,-70.3057 223.468,-64.4814"/>
</g>
</g>
</svg>
