<?xml version="1.0" encoding="UTF-8" standalone="no"?>
<!DOCTYPE svg PUBLIC "-//W3C//DTD SVG 1.1//EN"
 "http://www.w3.org/Graphics/SVG/1.1/DTD/svg11.dtd">
<!-- Generated by graphviz version 2.34.0 (20130907.0111)
 -->
<!-- Title: ImageAcquisition Pages: 1 -->
<svg width="440pt" height="88pt"
 viewBox="0.00 0.00 440.00 88.00" xmlns="http://www.w3.org/2000/svg" xmlns:xlink="http://www.w3.org/1999/xlink">
<g id="graph0" class="graph" transform="scale(1 1) rotate(0) translate(4 84)">
<title>ImageAcquisition</title>
<polygon fill="white" stroke="white" points="-4,4 -4,-84 436,-84 436,4 -4,4"/>
<!-- Node1 -->
<g id="node1" class="node"><title>Node1</title>
<polygon fill="#bfbfbf" stroke="black" points="179.5,-58.5 179.5,-79.5 286.5,-79.5 286.5,-58.5 179.5,-58.5"/>
<text text-anchor="middle" x="233" y="-65.9" font-family="Helvetica,sans-Serif" font-size="12.00">ImageAcquisition</text>
</g>
<!-- Node2 -->
<g id="node2" class="node"><title>Node2</title>
<g id="a_node2"><a xlink:href="../../dc/d78/class_file_acq.html" target="_top" xlink:title="A class for acquiring from a file with the data in RGB format. ">
<polygon fill="white" stroke="black" points="-0.5,-0.5 -0.5,-21.5 56.5,-21.5 56.5,-0.5 -0.5,-0.5"/>
<text text-anchor="middle" x="28" y="-7.9" font-family="Helvetica,sans-Serif" font-size="12.00">FileAcq</text>
</a>
</g>
</g>
<!-- Node1&#45;&gt;Node2 -->
<g id="edge1" class="edge"><title>Node1&#45;&gt;Node2</title>
<path fill="none" stroke="midnightblue" d="M182.757,-55.8273C143.086,-45.4221 89.2735,-30.6746 56.5997,-21.2225"/>
<polygon fill="midnightblue" stroke="midnightblue" points="181.958,-59.2357 192.517,-58.3733 183.725,-52.4623 181.958,-59.2357"/>
</g>
<!-- Node1&#45;&gt;Node2 -->
<g id="edge2" class="edge"><title>Node1&#45;&gt;Node2</title>
<path fill="none" stroke="midnightblue" d="M193.282,-55.5882C153.191,-44.174 92.4473,-27.6872 56.7509,-18.6121"/>
<polygon fill="midnightblue" stroke="midnightblue" points="192.424,-58.9833 203.001,-58.3733 194.352,-52.2541 192.424,-58.9833"/>
</g>
<!-- Node3 -->
<g id="node3" class="node"><title>Node3</title>
<g id="a_node3"><a xlink:href="../../db/def/class_file_acquisition.html" target="_top" xlink:title="Another class for loading an image file that loads into the critical buffer m_frame inherited from cl...">
<polygon fill="white" stroke="black" points="75,-0.5 75,-21.5 169,-21.5 169,-0.5 75,-0.5"/>
<text text-anchor="middle" x="122" y="-7.9" font-family="Helvetica,sans-Serif" font-size="12.00">FileAcquisition</text>
</a>
</g>
</g>
<!-- Node1&#45;&gt;Node3 -->
<g id="edge3" class="edge"><title>Node1&#45;&gt;Node3</title>
<path fill="none" stroke="midnightblue" d="M199.548,-54.1109C178.116,-43.9559 151.577,-30.4482 135.615,-21.5011"/>
<polygon fill="midnightblue" stroke="midnightblue" points="198.135,-57.3136 208.676,-58.3733 201.096,-50.971 198.135,-57.3136"/>
</g>
<!-- Node1&#45;&gt;Node3 -->
<g id="edge4" class="edge"><title>Node1&#45;&gt;Node3</title>
<path fill="none" stroke="midnightblue" d="M209.926,-53.3225C191.286,-43.3198 165.338,-30.3593 146.358,-21.6427"/>
<polygon fill="midnightblue" stroke="midnightblue" points="208.479,-56.5201 218.932,-58.2455 211.836,-50.3779 208.479,-56.5201"/>
</g>
<!-- Node4 -->
<g id="node4" class="node"><title>Node4</title>
<g id="a_node4"><a xlink:href="../../df/d22/class_imatest_lib_acq.html" target="_top" xlink:title="A class for acquiring live images through the Imatest library. ">
<polygon fill="white" stroke="black" points="187,-0.5 187,-21.5 279,-21.5 279,-0.5 187,-0.5"/>
<text text-anchor="middle" x="233" y="-7.9" font-family="Helvetica,sans-Serif" font-size="12.00">ImatestLibAcq</text>
</a>
</g>
</g>
<!-- Node1&#45;&gt;Node4 -->
<g id="edge5" class="edge"><title>Node1&#45;&gt;Node4</title>
<path fill="none" stroke="midnightblue" d="M213.656,-48.7493C211.704,-39.6064 212.907,-29.0798 217.265,-21.6427"/>
<polygon fill="midnightblue" stroke="midnightblue" points="210.424,-50.1004 217.199,-58.2455 216.982,-47.6529 210.424,-50.1004"/>
</g>
<!-- Node1&#45;&gt;Node4 -->
<g id="edge6" class="edge"><title>Node1&#45;&gt;Node4</title>
<path fill="none" stroke="midnightblue" d="M226.511,-48.1575C225.919,-39.155 226.334,-28.9199 227.755,-21.6427"/>
<polygon fill="midnightblue" stroke="midnightblue" points="223.056,-48.739 227.733,-58.2455 230.005,-47.8972 223.056,-48.739"/>
</g>
<!-- Node1&#45;&gt;Node4 -->
<g id="edge7" class="edge"><title>Node1&#45;&gt;Node4</title>
<path fill="none" stroke="midnightblue" d="M239.489,-48.1575C240.081,-39.155 239.666,-28.9199 238.245,-21.6427"/>
<polygon fill="midnightblue" stroke="midnightblue" points="235.995,-47.8972 238.267,-58.2455 242.944,-48.739 235.995,-47.8972"/>
</g>
<!-- Node1&#45;&gt;Node4 -->
<g id="edge8" class="edge"><title>Node1&#45;&gt;Node4</title>
<path fill="none" stroke="midnightblue" d="M252.344,-48.7493C254.296,-39.6064 253.093,-29.0798 248.735,-21.6427"/>
<polygon fill="midnightblue" stroke="midnightblue" points="249.018,-47.6529 248.801,-58.2455 255.576,-50.1004 249.018,-47.6529"/>
</g>
<!-- Node5 -->
<g id="node5" class="node"><title>Node5</title>
<g id="a_node5"><a xlink:href="../../d0/d1f/class_simple_direct_show_acq.html" target="_top" xlink:title="A class for acquiring directly from a camera with a DirectShow driver. ">
<polygon fill="white" stroke="black" points="297.5,-0.5 297.5,-21.5 432.5,-21.5 432.5,-0.5 297.5,-0.5"/>
<text text-anchor="middle" x="365" y="-7.9" font-family="Helvetica,sans-Serif" font-size="12.00">SimpleDirectShowAcq</text>
</a>
</g>
</g>
<!-- Node1&#45;&gt;Node5 -->
<g id="edge9" class="edge"><title>Node1&#45;&gt;Node5</title>
<path fill="none" stroke="midnightblue" d="M259.817,-54.1109C282.45,-43.9559 314.525,-30.4482 337.387,-21.5011"/>
<polygon fill="midnightblue" stroke="midnightblue" points="258.102,-51.0458 250.45,-58.3733 261.001,-57.4173 258.102,-51.0458"/>
</g>
<!-- Node1&#45;&gt;Node5 -->
<g id="edge10" class="edge"><title>Node1&#45;&gt;Node5</title>
<path fill="none" stroke="midnightblue" d="M270.308,-54.6541C295.763,-44.4419 328.159,-30.6086 347.822,-21.5011"/>
<polygon fill="midnightblue" stroke="midnightblue" points="268.938,-51.4322 260.934,-58.3733 271.52,-57.9389 268.938,-51.4322"/>
</g>
</g>
</svg>
