<?xml version="1.0" encoding="UTF-8" standalone="no"?>
<!DOCTYPE svg PUBLIC "-//W3C//DTD SVG 1.1//EN"
 "http://www.w3.org/Graphics/SVG/1.1/DTD/svg11.dtd">
<!-- Generated by graphviz version 2.34.0 (20130907.0111)
 -->
<!-- Title: vecEntry&lt; T &gt; Pages: 1 -->
<svg width="253pt" height="272pt"
 viewBox="0.00 0.00 253.00 272.00" xmlns="http://www.w3.org/2000/svg" xmlns:xlink="http://www.w3.org/1999/xlink">
<g id="graph0" class="graph" transform="scale(1 1) rotate(0) translate(4 268)">
<title>vecEntry&lt; T &gt;</title>
<polygon fill="white" stroke="white" points="-4,4 -4,-268 249,-268 249,4 -4,4"/>
<!-- Node1 -->
<g id="node1" class="node"><title>Node1</title>
<polygon fill="#bfbfbf" stroke="black" points="74.5,-0.5 74.5,-21.5 161.5,-21.5 161.5,-0.5 74.5,-0.5"/>
<text text-anchor="middle" x="118" y="-7.9" font-family="Helvetica,sans-Serif" font-size="12.00">vecEntry&lt; T &gt;</text>
</g>
<!-- Node2 -->
<g id="node2" class="node"><title>Node2</title>
<g id="a_node2"><a xlink:title="STL class. ">
<polygon fill="white" stroke="#bfbfbf" points="21.5,-84.5 21.5,-105.5 88.5,-105.5 88.5,-84.5 21.5,-84.5"/>
<text text-anchor="middle" x="55" y="-91.9" font-family="Helvetica,sans-Serif" font-size="12.00">std::string</text>
</a>
</g>
</g>
<!-- Node2&#45;&gt;Node1 -->
<g id="edge1" class="edge"><title>Node2&#45;&gt;Node1</title>
<path fill="none" stroke="#9a32cd" stroke-dasharray="5,2" d="M60.382,-74.4695C64.0797,-63.5254 69.8168,-50.0912 78,-40 83.9798,-32.6259 92.3835,-26.3447 99.9457,-21.6117"/>
<polygon fill="#9a32cd" stroke="#9a32cd" points="56.9324,-73.7808 57.349,-84.3675 63.6252,-75.8317 56.9324,-73.7808"/>
<text text-anchor="middle" x="105.5" y="-49.9" font-family="Helvetica,sans-Serif" font-size="12.00"> data_type</text>
</g>
<!-- Node3 -->
<g id="node3" class="node"><title>Node3</title>
<g id="a_node3"><a xlink:title="STL class. ">
<polygon fill="white" stroke="#bfbfbf" points="-0.5,-157 -0.5,-191 108.5,-191 108.5,-157 -0.5,-157"/>
<text text-anchor="start" x="7.5" y="-177.4" font-family="Helvetica,sans-Serif" font-size="12.00">std::basic_string&lt;</text>
<text text-anchor="middle" x="54" y="-164.4" font-family="Helvetica,sans-Serif" font-size="12.00"> char &gt;</text>
</a>
</g>
</g>
<!-- Node3&#45;&gt;Node2 -->
<g id="edge2" class="edge"><title>Node3&#45;&gt;Node2</title>
<path fill="none" stroke="midnightblue" d="M54.3449,-146.442C54.529,-132.265 54.7443,-115.69 54.8764,-105.519"/>
<polygon fill="midnightblue" stroke="midnightblue" points="50.8423,-146.626 54.2121,-156.67 57.8417,-146.717 50.8423,-146.626"/>
</g>
<!-- Node4 -->
<g id="node4" class="node"><title>Node4</title>
<polygon fill="white" stroke="#bfbfbf" points="107.5,-84.5 107.5,-105.5 236.5,-105.5 236.5,-84.5 107.5,-84.5"/>
<text text-anchor="middle" x="172" y="-91.9" font-family="Helvetica,sans-Serif" font-size="12.00">std::vector&lt; CString &gt;</text>
</g>
<!-- Node4&#45;&gt;Node1 -->
<g id="edge3" class="edge"><title>Node4&#45;&gt;Node1</title>
<path fill="none" stroke="#9a32cd" stroke-dasharray="5,2" d="M160.064,-75.8754C149.066,-59.174 133.163,-35.0247 124.398,-21.7158"/>
<polygon fill="#9a32cd" stroke="#9a32cd" points="157.17,-77.8448 165.593,-84.2715 163.017,-73.9948 157.17,-77.8448"/>
<text text-anchor="middle" x="198.5" y="-56.4" font-family="Helvetica,sans-Serif" font-size="12.00"> sub_descriptions</text>
<text text-anchor="middle" x="198.5" y="-43.4" font-family="Helvetica,sans-Serif" font-size="12.00">sub_names</text>
</g>
<!-- Node5 -->
<g id="node5" class="node"><title>Node5</title>
<g id="a_node5"><a xlink:title="STL class. ">
<polygon fill="white" stroke="#bfbfbf" points="127,-163.5 127,-184.5 223,-184.5 223,-163.5 127,-163.5"/>
<text text-anchor="middle" x="175" y="-170.9" font-family="Helvetica,sans-Serif" font-size="12.00">std::vector&lt; T &gt;</text>
</a>
</g>
</g>
<!-- Node5&#45;&gt;Node4 -->
<g id="edge4" class="edge"><title>Node5&#45;&gt;Node4</title>
<path fill="none" stroke="orange" stroke-dasharray="5,2" d="M174.216,-152.875C173.627,-137.768 172.847,-117.731 172.386,-105.916"/>
<polygon fill="orange" stroke="orange" points="170.733,-153.392 174.62,-163.248 177.728,-153.119 170.733,-153.392"/>
<text text-anchor="middle" x="204.5" y="-127.9" font-family="Helvetica,sans-Serif" font-size="12.00"> &lt; CString &gt;</text>
</g>
<!-- Node6 -->
<g id="node6" class="node"><title>Node6</title>
<polygon fill="white" stroke="#bfbfbf" points="160.5,-242.5 160.5,-263.5 189.5,-263.5 189.5,-242.5 160.5,-242.5"/>
<text text-anchor="middle" x="175" y="-249.9" font-family="Helvetica,sans-Serif" font-size="12.00">T</text>
</g>
<!-- Node6&#45;&gt;Node5 -->
<g id="edge5" class="edge"><title>Node6&#45;&gt;Node5</title>
<path fill="none" stroke="#9a32cd" stroke-dasharray="5,2" d="M175,-231.875C175,-216.768 175,-196.731 175,-184.916"/>
<polygon fill="#9a32cd" stroke="#9a32cd" points="171.5,-232.248 175,-242.248 178.5,-232.248 171.5,-232.248"/>
<text text-anchor="middle" x="200.5" y="-213.9" font-family="Helvetica,sans-Serif" font-size="12.00"> elements</text>
</g>
</g>
</svg>
