<?xml version="1.0" encoding="UTF-8" standalone="no"?>
<!DOCTYPE svg PUBLIC "-//W3C//DTD SVG 1.1//EN"
 "http://www.w3.org/Graphics/SVG/1.1/DTD/svg11.dtd">
<!-- Generated by graphviz version 2.34.0 (20130907.0111)
 -->
<!-- Title: CStaticBmp Pages: 1 -->
<svg width="88pt" height="88pt"
 viewBox="0.00 0.00 88.00 88.00" xmlns="http://www.w3.org/2000/svg" xmlns:xlink="http://www.w3.org/1999/xlink">
<g id="graph0" class="graph" transform="scale(1 1) rotate(0) translate(4 84)">
<title>CStaticBmp</title>
<polygon fill="white" stroke="white" points="-4,4 -4,-84 84,-84 84,4 -4,4"/>
<!-- Node1 -->
<g id="node1" class="node"><title>Node1</title>
<polygon fill="#bfbfbf" stroke="black" points="0,-0.5 0,-21.5 80,-21.5 80,-0.5 0,-0.5"/>
<text text-anchor="middle" x="40" y="-7.9" font-family="Helvetica,sans-Serif" font-size="12.00">CStaticBmp</text>
</g>
<!-- Node2 -->
<g id="node2" class="node"><title>Node2</title>
<polygon fill="white" stroke="#bfbfbf" points="12,-58.5 12,-79.5 68,-79.5 68,-58.5 12,-58.5"/>
<text text-anchor="middle" x="40" y="-65.9" font-family="Helvetica,sans-Serif" font-size="12.00">CStatic</text>
</g>
<!-- Node2&#45;&gt;Node1 -->
<g id="edge1" class="edge"><title>Node2&#45;&gt;Node1</title>
<path fill="none" stroke="midnightblue" d="M33.5113,-48.1575C32.919,-39.155 33.3335,-28.9199 34.7549,-21.6427"/>
<polygon fill="midnightblue" stroke="midnightblue" points="30.0561,-48.739 34.7332,-58.2455 37.0053,-47.8972 30.0561,-48.739"/>
</g>
<!-- Node2&#45;&gt;Node1 -->
<g id="edge2" class="edge"><title>Node2&#45;&gt;Node1</title>
<path fill="none" stroke="midnightblue" d="M46.4887,-48.1575C47.081,-39.155 46.6665,-28.9199 45.2451,-21.6427"/>
<polygon fill="midnightblue" stroke="midnightblue" points="42.9947,-47.8972 45.2668,-58.2455 49.9439,-48.739 42.9947,-47.8972"/>
</g>
</g>
</svg>
