<?xml version="1.0" encoding="UTF-8" standalone="no"?>
<!DOCTYPE svg PUBLIC "-//W3C//DTD SVG 1.1//EN"
 "http://www.w3.org/Graphics/SVG/1.1/DTD/svg11.dtd">
<!-- Generated by graphviz version 2.34.0 (20130907.0111)
 -->
<!-- Title: Documentation/Operator&#45;Console/TextDlg.h Pages: 1 -->
<svg width="157pt" height="102pt"
 viewBox="0.00 0.00 157.00 102.00" xmlns="http://www.w3.org/2000/svg" xmlns:xlink="http://www.w3.org/1999/xlink">
<g id="graph0" class="graph" transform="scale(1 1) rotate(0) translate(4 98)">
<title>Documentation/Operator&#45;Console/TextDlg.h</title>
<polygon fill="white" stroke="white" points="-4,4 -4,-98 153,-98 153,4 -4,4"/>
<!-- Node1 -->
<g id="node1" class="node"><title>Node1</title>
<polygon fill="#bfbfbf" stroke="black" points="-0.5,-59 -0.5,-93 144.5,-93 144.5,-59 -0.5,-59"/>
<text text-anchor="start" x="7.5" y="-79.4" font-family="Helvetica,sans-Serif" font-size="12.00">Documentation/Operator</text>
<text text-anchor="middle" x="72" y="-66.4" font-family="Helvetica,sans-Serif" font-size="12.00">&#45;Console/TextDlg.h</text>
</g>
<!-- Node2 -->
<g id="node2" class="node"><title>Node2</title>
<polygon fill="white" stroke="#bfbfbf" points="2,-0.5 2,-21.5 60,-21.5 60,-0.5 2,-0.5"/>
<text text-anchor="middle" x="31" y="-7.9" font-family="Helvetica,sans-Serif" font-size="12.00">afxwin.h</text>
</g>
<!-- Node1&#45;&gt;Node2 -->
<g id="edge1" class="edge"><title>Node1&#45;&gt;Node2</title>
<path fill="none" stroke="midnightblue" d="M61.4415,-58.7759C55.736,-50.0089 48.6749,-39.159 42.7901,-30.1165"/>
<polygon fill="midnightblue" stroke="midnightblue" points="45.5776,-27.9829 37.1895,-21.5106 39.7106,-31.8011 45.5776,-27.9829"/>
</g>
<!-- Node3 -->
<g id="node3" class="node"><title>Node3</title>
<g id="a_node3"><a xlink:href="../../d9/de8/_documentation_2_operator-_console_2resource_8h.html" target="_top" xlink:title="resource.h">
<polygon fill="white" stroke="black" points="78.5,-0.5 78.5,-21.5 149.5,-21.5 149.5,-0.5 78.5,-0.5"/>
<text text-anchor="middle" x="114" y="-7.9" font-family="Helvetica,sans-Serif" font-size="12.00">resource.h</text>
</a>
</g>
</g>
<!-- Node1&#45;&gt;Node3 -->
<g id="edge2" class="edge"><title>Node1&#45;&gt;Node3</title>
<path fill="none" stroke="midnightblue" d="M82.816,-58.7759C88.7222,-49.9167 96.0465,-38.9303 102.112,-29.8315"/>
<polygon fill="midnightblue" stroke="midnightblue" points="105.025,-31.7726 107.66,-21.5106 99.2004,-27.8897 105.025,-31.7726"/>
</g>
</g>
</svg>
