<?xml version="1.0" encoding="UTF-8" standalone="no"?>
<!DOCTYPE svg PUBLIC "-//W3C//DTD SVG 1.1//EN"
 "http://www.w3.org/Graphics/SVG/1.1/DTD/svg11.dtd">
<!-- Generated by graphviz version 2.34.0 (20130907.0111)
 -->
<!-- Title: libjson::is_valid Pages: 1 -->
<svg width="500pt" height="97pt"
 viewBox="0.00 0.00 500.00 97.00" xmlns="http://www.w3.org/2000/svg" xmlns:xlink="http://www.w3.org/1999/xlink">
<g id="graph0" class="graph" transform="scale(1 1) rotate(0) translate(4 93)">
<title>libjson::is_valid</title>
<polygon fill="white" stroke="white" points="-4,4 -4,-93 496,-93 496,4 -4,4"/>
<!-- Node1 -->
<g id="node1" class="node"><title>Node1</title>
<polygon fill="#bfbfbf" stroke="black" points="0.5,-43.5 0.5,-64.5 95.5,-64.5 95.5,-43.5 0.5,-43.5"/>
<text text-anchor="middle" x="48" y="-50.9" font-family="Helvetica,sans-Serif" font-size="12.00">libjson::is_valid</text>
</g>
<!-- Node2 -->
<g id="node2" class="node"><title>Node2</title>
<g id="a_node2"><a xlink:href="../../d2/d52/class_j_s_o_n_validator.html#afe6e83a30e5e35906b7772300a249af0" target="_top" target="_top" xlink:title="JSONValidator::isValidRoot">
<polygon fill="white" stroke="black" points="151,-67.5 151,-88.5 313,-88.5 313,-67.5 151,-67.5"/>
<text text-anchor="middle" x="232" y="-74.9" font-family="Helvetica,sans-Serif" font-size="12.00">JSONValidator::isValidRoot</text>
</a>
</g>
</g>
<!-- Node1&#45;&gt;Node2 -->
<g id="edge1" class="edge"><title>Node1&#45;&gt;Node2</title>
<path fill="none" stroke="midnightblue" d="M95.8695,-60.1806C109.693,-62.0035 125.309,-64.0628 140.891,-66.1175"/>
<polygon fill="midnightblue" stroke="midnightblue" points="140.734,-69.627 151.106,-67.4645 141.649,-62.6871 140.734,-69.627"/>
</g>
<!-- Node3 -->
<g id="node3" class="node"><title>Node3</title>
<g id="a_node3"><a xlink:href="../../d7/d6f/class_j_s_o_n_worker.html#abfded5cd0ed971450c9bc190fb02a0e1" target="_top" target="_top" xlink:title="JSONWorker::RemoveWhiteSpace\lAndComments">
<polygon fill="white" stroke="black" points="132,-14 132,-48 332,-48 332,-14 132,-14"/>
<text text-anchor="start" x="140" y="-34.4" font-family="Helvetica,sans-Serif" font-size="12.00">JSONWorker::RemoveWhiteSpace</text>
<text text-anchor="middle" x="232" y="-21.4" font-family="Helvetica,sans-Serif" font-size="12.00">AndComments</text>
</a>
</g>
</g>
<!-- Node1&#45;&gt;Node3 -->
<g id="edge2" class="edge"><title>Node1&#45;&gt;Node3</title>
<path fill="none" stroke="midnightblue" d="M95.8695,-48.0769C104.068,-47.0408 112.898,-45.925 121.976,-44.7777"/>
<polygon fill="midnightblue" stroke="midnightblue" points="122.425,-48.2489 131.907,-43.5227 121.547,-41.3042 122.425,-48.2489"/>
</g>
<!-- Node4 -->
<g id="node4" class="node"><title>Node4</title>
<g id="a_node4"><a xlink:href="../../d1/d6f/_j_s_o_n_worker_8cpp.html#ae0e632ff0e483722772135d750984c68" target="_top" target="_top" xlink:title="ascii_one">
<polygon fill="white" stroke="black" points="396,-40.5 396,-61.5 464,-61.5 464,-40.5 396,-40.5"/>
<text text-anchor="middle" x="430" y="-47.9" font-family="Helvetica,sans-Serif" font-size="12.00">ascii_one</text>
</a>
</g>
</g>
<!-- Node3&#45;&gt;Node4 -->
<g id="edge3" class="edge"><title>Node3&#45;&gt;Node4</title>
<path fill="none" stroke="midnightblue" d="M332.148,-41.1172C350.997,-43.0406 369.79,-44.9581 385.736,-46.5853"/>
<polygon fill="midnightblue" stroke="midnightblue" points="385.472,-50.0764 395.776,-47.6097 386.183,-43.1126 385.472,-50.0764"/>
</g>
<!-- Node5 -->
<g id="node5" class="node"><title>Node5</title>
<g id="a_node5"><a xlink:href="../../d1/d6f/_j_s_o_n_worker_8cpp.html#aeac1b0f8a5dd2e0045682288c9a5a986" target="_top" target="_top" xlink:title="SingleLineComment">
<polygon fill="white" stroke="black" points="368.5,-0.5 368.5,-21.5 491.5,-21.5 491.5,-0.5 368.5,-0.5"/>
<text text-anchor="middle" x="430" y="-7.9" font-family="Helvetica,sans-Serif" font-size="12.00">SingleLineComment</text>
</a>
</g>
</g>
<!-- Node3&#45;&gt;Node5 -->
<g id="edge4" class="edge"><title>Node3&#45;&gt;Node5</title>
<path fill="none" stroke="midnightblue" d="M332.148,-20.8828C340.924,-19.9874 349.687,-19.0932 358.156,-18.2289"/>
<polygon fill="midnightblue" stroke="midnightblue" points="358.729,-21.6887 368.322,-17.1916 358.019,-14.7249 358.729,-21.6887"/>
</g>
</g>
</svg>
