<?xml version="1.0" encoding="UTF-8" standalone="no"?>
<!DOCTYPE svg PUBLIC "-//W3C//DTD SVG 1.1//EN"
 "http://www.w3.org/Graphics/SVG/1.1/DTD/svg11.dtd">
<!-- Generated by graphviz version 2.34.0 (20130907.0111)
 -->
<!-- Title: libjson::parse Pages: 1 -->
<svg width="280pt" height="110pt"
 viewBox="0.00 0.00 280.00 110.00" xmlns="http://www.w3.org/2000/svg" xmlns:xlink="http://www.w3.org/1999/xlink">
<g id="graph0" class="graph" transform="scale(1 1) rotate(0) translate(4 106)">
<title>libjson::parse</title>
<polygon fill="white" stroke="white" points="-4,4 -4,-106 276,-106 276,4 -4,4"/>
<!-- Node1 -->
<g id="node1" class="node"><title>Node1</title>
<polygon fill="#bfbfbf" stroke="black" points="0,-40.5 0,-61.5 86,-61.5 86,-40.5 0,-40.5"/>
<text text-anchor="middle" x="43" y="-47.9" font-family="Helvetica,sans-Serif" font-size="12.00">libjson::parse</text>
</g>
<!-- Node1&#45;&gt;Node1 -->
<g id="edge4" class="edge"><title>Node1&#45;&gt;Node1</title>
<path fill="none" stroke="midnightblue" d="M14.4689,-71.0551C16.3404,-76.164 25.8508,-80 43,-80 69.7695,-80 77.9259,-70.6531 67.469,-61.7079"/>
<polygon fill="midnightblue" stroke="midnightblue" points="17.7552,-72.2743 18.531,-61.7079 11.3353,-69.4843 17.7552,-72.2743"/>
</g>
<!-- Node2 -->
<g id="node2" class="node"><title>Node2</title>
<g id="a_node2"><a xlink:href="../../da/d92/class_image_test.html#aca5fb71bfeae5b95079e97e3cb22d40a" target="_top" xlink:title="ImageTest::GetDataNode">
<polygon fill="white" stroke="black" points="122,-80.5 122,-101.5 272,-101.5 272,-80.5 122,-80.5"/>
<text text-anchor="middle" x="197" y="-87.9" font-family="Helvetica,sans-Serif" font-size="12.00">ImageTest::GetDataNode</text>
</a>
</g>
</g>
<!-- Node1&#45;&gt;Node2 -->
<g id="edge1" class="edge"><title>Node1&#45;&gt;Node2</title>
<path fill="none" stroke="midnightblue" d="M93.6132,-64.0561C113.853,-69.3823 136.943,-75.4587 156.067,-80.4913"/>
<polygon fill="midnightblue" stroke="midnightblue" points="94.4977,-60.6698 83.9362,-61.5095 92.7162,-67.4393 94.4977,-60.6698"/>
</g>
<!-- Node3 -->
<g id="node3" class="node"><title>Node3</title>
<g id="a_node3"><a xlink:href="../../d7/dfd/class_j_s_o_n_stream.html#a1f0f162c5719fcd3e7dd20234784cf5c" target="_top" xlink:title="JSONStream::operator\&lt;\&lt;">
<polygon fill="white" stroke="black" points="122,-40.5 122,-61.5 272,-61.5 272,-40.5 122,-40.5"/>
<text text-anchor="middle" x="197" y="-47.9" font-family="Helvetica,sans-Serif" font-size="12.00">JSONStream::operator&lt;&lt;</text>
</a>
</g>
</g>
<!-- Node1&#45;&gt;Node3 -->
<g id="edge2" class="edge"><title>Node1&#45;&gt;Node3</title>
<path fill="none" stroke="midnightblue" d="M96.4808,-51C104.683,-51 113.292,-51 121.868,-51"/>
<polygon fill="midnightblue" stroke="midnightblue" points="96.3405,-47.5001 86.3405,-51 96.3404,-54.5001 96.3405,-47.5001"/>
</g>
<!-- Node4 -->
<g id="node4" class="node"><title>Node4</title>
<g id="a_node4"><a xlink:href="../../d7/dfd/class_j_s_o_n_stream.html#a596729ca511b4dbbbb76907e4f37b395" target="_top" xlink:title="JSONStream::parse">
<polygon fill="white" stroke="black" points="136,-0.5 136,-21.5 258,-21.5 258,-0.5 136,-0.5"/>
<text text-anchor="middle" x="197" y="-7.9" font-family="Helvetica,sans-Serif" font-size="12.00">JSONStream::parse</text>
</a>
</g>
</g>
<!-- Node1&#45;&gt;Node4 -->
<g id="edge3" class="edge"><title>Node1&#45;&gt;Node4</title>
<path fill="none" stroke="midnightblue" d="M93.6132,-37.9439C113.853,-32.6177 136.943,-26.5413 156.067,-21.5087"/>
<polygon fill="midnightblue" stroke="midnightblue" points="92.7162,-34.5607 83.9362,-40.4905 94.4977,-41.3302 92.7162,-34.5607"/>
</g>
</g>
</svg>
