<?xml version="1.0" encoding="UTF-8" standalone="no"?>
<!DOCTYPE svg PUBLIC "-//W3C//DTD SVG 1.1//EN"
 "http://www.w3.org/Graphics/SVG/1.1/DTD/svg11.dtd">
<!-- Generated by graphviz version 2.34.0 (20130907.0111)
 -->
<!-- Title: libjson::decode64 Pages: 1 -->
<svg width="426pt" height="70pt"
 viewBox="0.00 0.00 426.00 70.00" xmlns="http://www.w3.org/2000/svg" xmlns:xlink="http://www.w3.org/1999/xlink">
<g id="graph0" class="graph" transform="scale(1 1) rotate(0) translate(4 66)">
<title>libjson::decode64</title>
<polygon fill="white" stroke="white" points="-4,4 -4,-66 422,-66 422,4 -4,4"/>
<!-- Node1 -->
<g id="node1" class="node"><title>Node1</title>
<polygon fill="#bfbfbf" stroke="black" points="0.5,-20.5 0.5,-41.5 109.5,-41.5 109.5,-20.5 0.5,-20.5"/>
<text text-anchor="middle" x="55" y="-27.9" font-family="Helvetica,sans-Serif" font-size="12.00">libjson::decode64</text>
</g>
<!-- Node2 -->
<g id="node2" class="node"><title>Node2</title>
<g id="a_node2"><a xlink:href="../../dc/d0a/class_j_s_o_n_base64.html#a566563ff3817aafca958b61fa6808c98" target="_top" target="_top" xlink:title="JSONBase64::json_decode64">
<polygon fill="white" stroke="black" points="146,-20.5 146,-41.5 322,-41.5 322,-20.5 146,-20.5"/>
<text text-anchor="middle" x="234" y="-27.9" font-family="Helvetica,sans-Serif" font-size="12.00">JSONBase64::json_decode64</text>
</a>
</g>
</g>
<!-- Node1&#45;&gt;Node2 -->
<g id="edge1" class="edge"><title>Node1&#45;&gt;Node2</title>
<path fill="none" stroke="midnightblue" d="M109.586,-31C117.94,-31 126.788,-31 135.757,-31"/>
<polygon fill="midnightblue" stroke="midnightblue" points="135.915,-34.5001 145.915,-31 135.915,-27.5001 135.915,-34.5001"/>
</g>
<!-- Node3 -->
<g id="node3" class="node"><title>Node3</title>
<g id="a_node3"><a xlink:href="../../de/d85/_j_s_o_n___base64_8cpp.html#a020e9fb20635ef0dfa3f79151f7f975a" target="_top" target="_top" xlink:title="chars64">
<polygon fill="white" stroke="black" points="358.5,-40.5 358.5,-61.5 417.5,-61.5 417.5,-40.5 358.5,-40.5"/>
<text text-anchor="middle" x="388" y="-47.9" font-family="Helvetica,sans-Serif" font-size="12.00">chars64</text>
</a>
</g>
</g>
<!-- Node2&#45;&gt;Node3 -->
<g id="edge2" class="edge"><title>Node2&#45;&gt;Node3</title>
<path fill="none" stroke="midnightblue" d="M315.006,-41.5271C326.578,-43.0497 338.026,-44.556 348.272,-45.9042"/>
<polygon fill="midnightblue" stroke="midnightblue" points="348.099,-49.4115 358.47,-47.246 349.012,-42.4713 348.099,-49.4115"/>
</g>
<!-- Node4 -->
<g id="node4" class="node"><title>Node4</title>
<g id="a_node4"><a xlink:href="../../de/d85/_j_s_o_n___base64_8cpp.html#a012abc0ac749c52f392dba045de16b77" target="_top" target="_top" xlink:title="toBinary">
<polygon fill="white" stroke="black" points="358.5,-0.5 358.5,-21.5 417.5,-21.5 417.5,-0.5 358.5,-0.5"/>
<text text-anchor="middle" x="388" y="-7.9" font-family="Helvetica,sans-Serif" font-size="12.00">toBinary</text>
</a>
</g>
</g>
<!-- Node2&#45;&gt;Node4 -->
<g id="edge3" class="edge"><title>Node2&#45;&gt;Node4</title>
<path fill="none" stroke="midnightblue" d="M315.006,-20.4729C326.578,-18.9503 338.026,-17.444 348.272,-16.0958"/>
<polygon fill="midnightblue" stroke="midnightblue" points="349.012,-19.5287 358.47,-14.754 348.099,-12.5885 349.012,-19.5287"/>
</g>
</g>
</svg>
