<?xml version="1.0" encoding="UTF-8" standalone="no"?>
<!DOCTYPE svg PUBLIC "-//W3C//DTD SVG 1.1//EN"
 "http://www.w3.org/Graphics/SVG/1.1/DTD/svg11.dtd">
<!-- Generated by graphviz version 2.34.0 (20130907.0111)
 -->
<!-- Title: libjson::strip_white_space Pages: 1 -->
<svg width="516pt" height="70pt"
 viewBox="0.00 0.00 516.00 70.00" xmlns="http://www.w3.org/2000/svg" xmlns:xlink="http://www.w3.org/1999/xlink">
<g id="graph0" class="graph" transform="scale(1 1) rotate(0) translate(4 66)">
<title>libjson::strip_white_space</title>
<polygon fill="white" stroke="white" points="-4,4 -4,-66 512,-66 512,4 -4,4"/>
<!-- Node1 -->
<g id="node1" class="node"><title>Node1</title>
<polygon fill="#bfbfbf" stroke="black" points="0,-14 0,-48 112,-48 112,-14 0,-14"/>
<text text-anchor="start" x="8" y="-34.4" font-family="Helvetica,sans-Serif" font-size="12.00">libjson::strip_white</text>
<text text-anchor="middle" x="56" y="-21.4" font-family="Helvetica,sans-Serif" font-size="12.00">_space</text>
</g>
<!-- Node2 -->
<g id="node2" class="node"><title>Node2</title>
<g id="a_node2"><a xlink:href="../../d7/d6f/class_j_s_o_n_worker.html#abfded5cd0ed971450c9bc190fb02a0e1" target="_top" xlink:title="JSONWorker::RemoveWhiteSpace\lAndComments">
<polygon fill="white" stroke="black" points="148,-14 148,-48 348,-48 348,-14 148,-14"/>
<text text-anchor="start" x="156" y="-34.4" font-family="Helvetica,sans-Serif" font-size="12.00">JSONWorker::RemoveWhiteSpace</text>
<text text-anchor="middle" x="248" y="-21.4" font-family="Helvetica,sans-Serif" font-size="12.00">AndComments</text>
</a>
</g>
</g>
<!-- Node1&#45;&gt;Node2 -->
<g id="edge1" class="edge"><title>Node1&#45;&gt;Node2</title>
<path fill="none" stroke="midnightblue" d="M112.211,-31C120.411,-31 129.093,-31 137.941,-31"/>
<polygon fill="midnightblue" stroke="midnightblue" points="137.986,-34.5001 147.986,-31 137.985,-27.5001 137.986,-34.5001"/>
</g>
<!-- Node3 -->
<g id="node3" class="node"><title>Node3</title>
<g id="a_node3"><a xlink:href="../../db/d60/_documentation_2_operator-_console_2_j_s_o_n_2_j_s_o_n_worker_8cpp.html#ae0e632ff0e483722772135d750984c68" target="_top" xlink:title="ascii_one">
<polygon fill="white" stroke="black" points="412,-40.5 412,-61.5 480,-61.5 480,-40.5 412,-40.5"/>
<text text-anchor="middle" x="446" y="-47.9" font-family="Helvetica,sans-Serif" font-size="12.00">ascii_one</text>
</a>
</g>
</g>
<!-- Node2&#45;&gt;Node3 -->
<g id="edge2" class="edge"><title>Node2&#45;&gt;Node3</title>
<path fill="none" stroke="midnightblue" d="M348.148,-41.1172C366.997,-43.0406 385.79,-44.9581 401.736,-46.5853"/>
<polygon fill="midnightblue" stroke="midnightblue" points="401.472,-50.0764 411.776,-47.6097 402.183,-43.1126 401.472,-50.0764"/>
</g>
<!-- Node4 -->
<g id="node4" class="node"><title>Node4</title>
<g id="a_node4"><a xlink:href="../../db/d60/_documentation_2_operator-_console_2_j_s_o_n_2_j_s_o_n_worker_8cpp.html#aeac1b0f8a5dd2e0045682288c9a5a986" target="_top" xlink:title="SingleLineComment">
<polygon fill="white" stroke="black" points="384.5,-0.5 384.5,-21.5 507.5,-21.5 507.5,-0.5 384.5,-0.5"/>
<text text-anchor="middle" x="446" y="-7.9" font-family="Helvetica,sans-Serif" font-size="12.00">SingleLineComment</text>
</a>
</g>
</g>
<!-- Node2&#45;&gt;Node4 -->
<g id="edge3" class="edge"><title>Node2&#45;&gt;Node4</title>
<path fill="none" stroke="midnightblue" d="M348.148,-20.8828C356.924,-19.9874 365.687,-19.0932 374.156,-18.2289"/>
<polygon fill="midnightblue" stroke="midnightblue" points="374.729,-21.6887 384.322,-17.1916 374.019,-14.7249 374.729,-21.6887"/>
</g>
</g>
</svg>
