<?xml version="1.0" encoding="UTF-8" standalone="no"?>
<!DOCTYPE svg PUBLIC "-//W3C//DTD SVG 1.1//EN"
 "http://www.w3.org/Graphics/SVG/1.1/DTD/svg11.dtd">
<!-- Generated by graphviz version 2.34.0 (20130907.0111)
 -->
<!-- Title: main.cpp Pages: 1 -->
<svg width="1967pt" height="436pt"
 viewBox="0.00 0.00 1967.00 436.00" xmlns="http://www.w3.org/2000/svg" xmlns:xlink="http://www.w3.org/1999/xlink">
<g id="graph0" class="graph" transform="scale(1 1) rotate(0) translate(4 432)">
<title>main.cpp</title>
<polygon fill="white" stroke="white" points="-4,4 -4,-432 1963,-432 1963,4 -4,4"/>
<!-- Node1 -->
<g id="node1" class="node"><title>Node1</title>
<polygon fill="#bfbfbf" stroke="black" points="1166.5,-406.5 1166.5,-427.5 1231.5,-427.5 1231.5,-406.5 1166.5,-406.5"/>
<text text-anchor="middle" x="1199" y="-413.9" font-family="Helvetica,sans-Serif" font-size="12.00">main.cpp</text>
</g>
<!-- Node2 -->
<g id="node2" class="node"><title>Node2</title>
<g id="a_node2"><a xlink:href="../../da/de6/_operator_console_8h.html" target="_top" xlink:title="OperatorConsole.h">
<polygon fill="white" stroke="black" points="1141,-348.5 1141,-369.5 1257,-369.5 1257,-348.5 1141,-348.5"/>
<text text-anchor="middle" x="1199" y="-355.9" font-family="Helvetica,sans-Serif" font-size="12.00">OperatorConsole.h</text>
</a>
</g>
</g>
<!-- Node1&#45;&gt;Node2 -->
<g id="edge1" class="edge"><title>Node1&#45;&gt;Node2</title>
<path fill="none" stroke="midnightblue" d="M1199,-406.246C1199,-398.938 1199,-388.694 1199,-379.705"/>
<polygon fill="midnightblue" stroke="midnightblue" points="1202.5,-379.643 1199,-369.643 1195.5,-379.643 1202.5,-379.643"/>
</g>
<!-- Node3 -->
<g id="node3" class="node"><title>Node3</title>
<g id="a_node3"><a xlink:href="../../db/d06/stdafx_8h.html" target="_top" xlink:title="stdafx.h">
<polygon fill="white" stroke="black" points="1279,-116.5 1279,-137.5 1335,-137.5 1335,-116.5 1279,-116.5"/>
<text text-anchor="middle" x="1307" y="-123.9" font-family="Helvetica,sans-Serif" font-size="12.00">stdafx.h</text>
</a>
</g>
</g>
<!-- Node2&#45;&gt;Node3 -->
<g id="edge2" class="edge"><title>Node2&#45;&gt;Node3</title>
<path fill="none" stroke="midnightblue" d="M1247.2,-348.465C1267.62,-341.815 1289.54,-330.646 1302,-312 1335.94,-261.189 1321.97,-183.625 1312.72,-147.623"/>
<polygon fill="midnightblue" stroke="midnightblue" points="1316.07,-146.589 1310.06,-137.86 1309.31,-148.429 1316.07,-146.589"/>
</g>
<!-- Node12 -->
<g id="node12" class="node"><title>Node12</title>
<g id="a_node12"><a xlink:href="../../d8/d01/resource_8h.html" target="_top" xlink:title="resource.h">
<polygon fill="white" stroke="black" points="1625.5,-174.5 1625.5,-195.5 1696.5,-195.5 1696.5,-174.5 1625.5,-174.5"/>
<text text-anchor="middle" x="1661" y="-181.9" font-family="Helvetica,sans-Serif" font-size="12.00">resource.h</text>
</a>
</g>
</g>
<!-- Node2&#45;&gt;Node12 -->
<g id="edge11" class="edge"><title>Node2&#45;&gt;Node12</title>
<path fill="none" stroke="midnightblue" d="M1257.23,-353.339C1335.11,-346.449 1468.52,-332.15 1513,-312 1570.11,-286.13 1622.27,-231.45 1646.59,-203.4"/>
<polygon fill="midnightblue" stroke="midnightblue" points="1649.41,-205.495 1653.22,-195.611 1644.07,-200.958 1649.41,-205.495"/>
</g>
<!-- Node13 -->
<g id="node13" class="node"><title>Node13</title>
<polygon fill="white" stroke="#bfbfbf" points="646.5,-116.5 646.5,-137.5 691.5,-137.5 691.5,-116.5 646.5,-116.5"/>
<text text-anchor="middle" x="669" y="-123.9" font-family="Helvetica,sans-Serif" font-size="12.00">string</text>
</g>
<!-- Node2&#45;&gt;Node13 -->
<g id="edge12" class="edge"><title>Node2&#45;&gt;Node13</title>
<path fill="none" stroke="midnightblue" d="M1140.8,-358.61C1036.27,-358.627 822.049,-353.422 762,-312 704.613,-272.415 680.715,-186.553 672.567,-147.747"/>
<polygon fill="midnightblue" stroke="midnightblue" points="675.959,-146.859 670.597,-137.721 669.09,-148.208 675.959,-146.859"/>
</g>
<!-- Node14 -->
<g id="node14" class="node"><title>Node14</title>
<polygon fill="white" stroke="#bfbfbf" points="441,-290.5 441,-311.5 503,-311.5 503,-290.5 441,-290.5"/>
<text text-anchor="middle" x="472" y="-297.9" font-family="Helvetica,sans-Serif" font-size="12.00">iostream</text>
</g>
<!-- Node2&#45;&gt;Node14 -->
<g id="edge13" class="edge"><title>Node2&#45;&gt;Node14</title>
<path fill="none" stroke="midnightblue" d="M1140.71,-357.587C1023.46,-356.002 750.728,-348.507 513.533,-311.986"/>
<polygon fill="midnightblue" stroke="midnightblue" points="513.755,-308.478 503.334,-310.394 512.675,-315.395 513.755,-308.478"/>
</g>
<!-- Node15 -->
<g id="node15" class="node"><title>Node15</title>
<polygon fill="white" stroke="#bfbfbf" points="521.5,-290.5 521.5,-311.5 580.5,-311.5 580.5,-290.5 521.5,-290.5"/>
<text text-anchor="middle" x="551" y="-297.9" font-family="Helvetica,sans-Serif" font-size="12.00">sstream</text>
</g>
<!-- Node2&#45;&gt;Node15 -->
<g id="edge14" class="edge"><title>Node2&#45;&gt;Node15</title>
<path fill="none" stroke="midnightblue" d="M1140.97,-357.132C1033.8,-354.767 797.607,-345.998 590.891,-312.067"/>
<polygon fill="midnightblue" stroke="midnightblue" points="591.198,-308.57 580.759,-310.379 590.048,-315.475 591.198,-308.57"/>
</g>
<!-- Node16 -->
<g id="node16" class="node"><title>Node16</title>
<g id="a_node16"><a xlink:href="../../dc/d69/_blemish_test_8h.html" target="_top" xlink:title="BlemishTest.h">
<polygon fill="white" stroke="black" points="333,-290.5 333,-311.5 423,-311.5 423,-290.5 333,-290.5"/>
<text text-anchor="middle" x="378" y="-297.9" font-family="Helvetica,sans-Serif" font-size="12.00">BlemishTest.h</text>
</a>
</g>
</g>
<!-- Node2&#45;&gt;Node16 -->
<g id="edge15" class="edge"><title>Node2&#45;&gt;Node16</title>
<path fill="none" stroke="midnightblue" d="M1140.57,-356.949C1013.58,-354.134 702.883,-344.378 433.004,-311.977"/>
<polygon fill="midnightblue" stroke="midnightblue" points="433.366,-308.495 423.017,-310.765 432.523,-315.444 433.366,-308.495"/>
</g>
<!-- Node17 -->
<g id="node17" class="node"><title>Node17</title>
<g id="a_node17"><a xlink:href="../../d9/da7/_image_test_8h.html" target="_top" xlink:title="ImageTest.h">
<polygon fill="white" stroke="black" points="367,-232.5 367,-253.5 447,-253.5 447,-232.5 367,-232.5"/>
<text text-anchor="middle" x="407" y="-239.9" font-family="Helvetica,sans-Serif" font-size="12.00">ImageTest.h</text>
</a>
</g>
</g>
<!-- Node2&#45;&gt;Node17 -->
<g id="edge50" class="edge"><title>Node2&#45;&gt;Node17</title>
<path fill="none" stroke="midnightblue" d="M1140.69,-357.115C949.488,-353.931 352.123,-341.64 324,-312 303.956,-290.875 339.343,-270.193 369.937,-257.29"/>
<polygon fill="midnightblue" stroke="midnightblue" points="371.249,-260.535 379.211,-253.544 368.628,-254.044 371.249,-260.535"/>
</g>
<!-- Node19 -->
<g id="node19" class="node"><title>Node19</title>
<g id="a_node19"><a xlink:href="../../d4/d71/_config_8h.html" target="_top" xlink:title="Config.h">
<polygon fill="white" stroke="black" points="0,-174.5 0,-195.5 60,-195.5 60,-174.5 0,-174.5"/>
<text text-anchor="middle" x="30" y="-181.9" font-family="Helvetica,sans-Serif" font-size="12.00">Config.h</text>
</a>
</g>
</g>
<!-- Node2&#45;&gt;Node19 -->
<g id="edge40" class="edge"><title>Node2&#45;&gt;Node19</title>
<path fill="none" stroke="midnightblue" d="M1140.97,-357.72C970.388,-356.465 472.615,-349.592 315,-312 213.372,-287.761 102.882,-228.386 54.7393,-200.682"/>
<polygon fill="midnightblue" stroke="midnightblue" points="56.368,-197.58 45.963,-195.583 52.8515,-203.633 56.368,-197.58"/>
</g>
<!-- Node25 -->
<g id="node25" class="node"><title>Node25</title>
<g id="a_node25"><a xlink:href="../../da/d22/_thread_control_8h.html" target="_top" xlink:title="ThreadControl.h">
<polygon fill="white" stroke="black" points="938,-174.5 938,-195.5 1038,-195.5 1038,-174.5 938,-174.5"/>
<text text-anchor="middle" x="988" y="-181.9" font-family="Helvetica,sans-Serif" font-size="12.00">ThreadControl.h</text>
</a>
</g>
</g>
<!-- Node2&#45;&gt;Node25 -->
<g id="edge77" class="edge"><title>Node2&#45;&gt;Node25</title>
<path fill="none" stroke="midnightblue" d="M1140.93,-355.895C1030.91,-351.305 800.866,-338.609 777,-312 725.844,-254.965 850.271,-215.948 929.128,-197.735"/>
<polygon fill="midnightblue" stroke="midnightblue" points="929.994,-201.128 938.979,-195.513 928.454,-194.3 929.994,-201.128"/>
</g>
<!-- Node31 -->
<g id="node31" class="node"><title>Node31</title>
<g id="a_node31"><a xlink:href="../../d1/d59/_file_acq_8h.html" target="_top" xlink:title="FileAcq.h">
<polygon fill="white" stroke="black" points="1227,-290.5 1227,-311.5 1293,-311.5 1293,-290.5 1227,-290.5"/>
<text text-anchor="middle" x="1260" y="-297.9" font-family="Helvetica,sans-Serif" font-size="12.00">FileAcq.h</text>
</a>
</g>
</g>
<!-- Node2&#45;&gt;Node31 -->
<g id="edge41" class="edge"><title>Node2&#45;&gt;Node31</title>
<path fill="none" stroke="midnightblue" d="M1209.63,-348.246C1218.55,-340.055 1231.49,-328.175 1242.02,-318.507"/>
<polygon fill="midnightblue" stroke="midnightblue" points="1244.5,-320.984 1249.5,-311.643 1239.76,-315.827 1244.5,-320.984"/>
</g>
<!-- Node32 -->
<g id="node32" class="node"><title>Node32</title>
<g id="a_node32"><a xlink:href="../../d3/d62/_image_acquisition_8h.html" target="_top" xlink:title="imageacquisition.h">
<polygon fill="white" stroke="black" points="1094.5,-232.5 1094.5,-253.5 1209.5,-253.5 1209.5,-232.5 1094.5,-232.5"/>
<text text-anchor="middle" x="1152" y="-239.9" font-family="Helvetica,sans-Serif" font-size="12.00">imageacquisition.h</text>
</a>
</g>
</g>
<!-- Node2&#45;&gt;Node32 -->
<g id="edge49" class="edge"><title>Node2&#45;&gt;Node32</title>
<path fill="none" stroke="midnightblue" d="M1197.2,-348.482C1194.48,-335.071 1188.69,-310.014 1180,-290 1175.83,-280.405 1169.96,-270.409 1164.67,-262.197"/>
<polygon fill="midnightblue" stroke="midnightblue" points="1167.53,-260.173 1159.06,-253.799 1161.7,-264.059 1167.53,-260.173"/>
</g>
<!-- Node34 -->
<g id="node34" class="node"><title>Node34</title>
<g id="a_node34"><a xlink:href="../../d6/d06/_file_acquisition_8h.html" target="_top" xlink:title="FileAcquisition.h">
<polygon fill="white" stroke="black" points="905.5,-290.5 905.5,-311.5 1008.5,-311.5 1008.5,-290.5 905.5,-290.5"/>
<text text-anchor="middle" x="957" y="-297.9" font-family="Helvetica,sans-Serif" font-size="12.00">FileAcquisition.h</text>
</a>
</g>
</g>
<!-- Node2&#45;&gt;Node34 -->
<g id="edge47" class="edge"><title>Node2&#45;&gt;Node34</title>
<path fill="none" stroke="midnightblue" d="M1157.67,-348.437C1116.26,-338.853 1052.42,-324.081 1007.91,-313.78"/>
<polygon fill="midnightblue" stroke="midnightblue" points="1008.69,-310.368 998.156,-311.524 1007.11,-317.188 1008.69,-310.368"/>
</g>
<!-- Node35 -->
<g id="node35" class="node"><title>Node35</title>
<g id="a_node35"><a xlink:href="../../db/d0a/_imatest_lib_acq_8h.html" target="_top" xlink:title="ImatestLibAcq.h">
<polygon fill="white" stroke="black" points="786.5,-290.5 786.5,-311.5 887.5,-311.5 887.5,-290.5 786.5,-290.5"/>
<text text-anchor="middle" x="837" y="-297.9" font-family="Helvetica,sans-Serif" font-size="12.00">ImatestLibAcq.h</text>
</a>
</g>
</g>
<!-- Node2&#45;&gt;Node35 -->
<g id="edge51" class="edge"><title>Node2&#45;&gt;Node35</title>
<path fill="none" stroke="midnightblue" d="M1140.87,-349.478C1081.98,-340.778 988,-326.704 897.408,-312.208"/>
<polygon fill="midnightblue" stroke="midnightblue" points="897.949,-308.75 887.521,-310.622 896.84,-315.662 897.949,-308.75"/>
</g>
<!-- Node36 -->
<g id="node36" class="node"><title>Node36</title>
<g id="a_node36"><a xlink:href="../../dc/d44/_modeless_dialog_thread_8h.html" target="_top" xlink:title="ModelessDialogThread.h">
<polygon fill="white" stroke="black" points="1615,-290.5 1615,-311.5 1763,-311.5 1763,-290.5 1615,-290.5"/>
<text text-anchor="middle" x="1689" y="-297.9" font-family="Helvetica,sans-Serif" font-size="12.00">ModelessDialogThread.h</text>
</a>
</g>
</g>
<!-- Node2&#45;&gt;Node36 -->
<g id="edge54" class="edge"><title>Node2&#45;&gt;Node36</title>
<path fill="none" stroke="midnightblue" d="M1257.13,-351.356C1343.41,-341.497 1505.79,-322.939 1604.99,-311.601"/>
<polygon fill="midnightblue" stroke="midnightblue" points="1605.44,-315.073 1614.98,-310.46 1604.65,-308.118 1605.44,-315.073"/>
</g>
<!-- Node37 -->
<g id="node37" class="node"><title>Node37</title>
<g id="a_node37"><a xlink:href="../../dc/d1b/_text_dlg_8h.html" target="_top" xlink:title="TextDlg.h">
<polygon fill="white" stroke="black" points="1691.5,-232.5 1691.5,-253.5 1756.5,-253.5 1756.5,-232.5 1691.5,-232.5"/>
<text text-anchor="middle" x="1724" y="-239.9" font-family="Helvetica,sans-Serif" font-size="12.00">TextDlg.h</text>
</a>
</g>
</g>
<!-- Node2&#45;&gt;Node37 -->
<g id="edge76" class="edge"><title>Node2&#45;&gt;Node37</title>
<path fill="none" stroke="midnightblue" d="M1257.07,-357.697C1395.8,-356.371 1737.56,-349.311 1772,-312 1787.21,-295.517 1766.33,-274.021 1747.53,-259.653"/>
<polygon fill="midnightblue" stroke="midnightblue" points="1749.33,-256.632 1739.18,-253.596 1745.22,-262.3 1749.33,-256.632"/>
</g>
<!-- Node38 -->
<g id="node38" class="node"><title>Node38</title>
<g id="a_node38"><a xlink:href="../../d2/d9d/_s_f_rplus_test_8h.html" target="_top" xlink:title="SFRplusTest.h">
<polygon fill="white" stroke="black" points="598.5,-290.5 598.5,-311.5 691.5,-311.5 691.5,-290.5 598.5,-290.5"/>
<text text-anchor="middle" x="645" y="-297.9" font-family="Helvetica,sans-Serif" font-size="12.00">SFRplusTest.h</text>
</a>
</g>
</g>
<!-- Node2&#45;&gt;Node38 -->
<g id="edge59" class="edge"><title>Node2&#45;&gt;Node38</title>
<path fill="none" stroke="midnightblue" d="M1140.8,-353.885C1048.42,-347.059 862.668,-332.126 706,-312 704.536,-311.812 703.054,-311.615 701.559,-311.411"/>
<polygon fill="midnightblue" stroke="midnightblue" points="701.974,-307.935 691.578,-309.978 700.978,-314.864 701.974,-307.935"/>
</g>
<!-- Node40 -->
<g id="node40" class="node"><title>Node40</title>
<g id="a_node40"><a xlink:href="../../d8/d4d/_simple_direct_show_acq_8h.html" target="_top" xlink:title="SimpleDirectShowAcq.h">
<polygon fill="white" stroke="black" points="1027,-290.5 1027,-311.5 1171,-311.5 1171,-290.5 1027,-290.5"/>
<text text-anchor="middle" x="1099" y="-297.9" font-family="Helvetica,sans-Serif" font-size="12.00">SimpleDirectShowAcq.h</text>
</a>
</g>
</g>
<!-- Node2&#45;&gt;Node40 -->
<g id="edge64" class="edge"><title>Node2&#45;&gt;Node40</title>
<path fill="none" stroke="midnightblue" d="M1181.58,-348.246C1165.95,-339.493 1142.8,-326.527 1124.98,-316.55"/>
<polygon fill="midnightblue" stroke="midnightblue" points="1126.65,-313.475 1116.22,-311.643 1123.23,-319.583 1126.65,-313.475"/>
</g>
<!-- Node41 -->
<g id="node41" class="node"><title>Node41</title>
<g id="a_node41"><a xlink:href="../../de/d38/_stderr_redirect_8h.html" target="_top" xlink:title="StderrRedirect.h">
<polygon fill="white" stroke="black" points="1857,-232.5 1857,-253.5 1959,-253.5 1959,-232.5 1857,-232.5"/>
<text text-anchor="middle" x="1908" y="-239.9" font-family="Helvetica,sans-Serif" font-size="12.00">StderrRedirect.h</text>
</a>
</g>
</g>
<!-- Node2&#45;&gt;Node41 -->
<g id="edge66" class="edge"><title>Node2&#45;&gt;Node41</title>
<path fill="none" stroke="midnightblue" d="M1257.13,-356.233C1405.59,-351.383 1790.76,-336.569 1843,-312 1865.98,-301.193 1885.02,-278.429 1896.43,-262.219"/>
<polygon fill="midnightblue" stroke="midnightblue" points="1899.57,-263.825 1902.24,-253.572 1893.76,-259.921 1899.57,-263.825"/>
</g>
<!-- Node42 -->
<g id="node42" class="node"><title>Node42</title>
<g id="a_node42"><a xlink:href="../../dc/dff/_stdout_redirect_8h.html" target="_top" xlink:title="StdoutRedirect.h">
<polygon fill="white" stroke="black" points="1777,-174.5 1777,-195.5 1881,-195.5 1881,-174.5 1777,-174.5"/>
<text text-anchor="middle" x="1829" y="-181.9" font-family="Helvetica,sans-Serif" font-size="12.00">StdoutRedirect.h</text>
</a>
</g>
</g>
<!-- Node2&#45;&gt;Node42 -->
<g id="edge74" class="edge"><title>Node2&#45;&gt;Node42</title>
<path fill="none" stroke="midnightblue" d="M1257.2,-357.078C1397.71,-354.346 1746.93,-344.344 1788,-312 1820.56,-286.357 1827.6,-234.395 1828.91,-205.864"/>
<polygon fill="midnightblue" stroke="midnightblue" points="1832.42,-205.623 1829.18,-195.536 1825.42,-205.442 1832.42,-205.623"/>
</g>
<!-- Node44 -->
<g id="node44" class="node"><title>Node44</title>
<g id="a_node44"><a xlink:href="../../d5/dd3/_stderr_thread_8h.html" target="_top" xlink:title="StderrThread.h">
<polygon fill="white" stroke="black" points="1349.5,-290.5 1349.5,-311.5 1444.5,-311.5 1444.5,-290.5 1349.5,-290.5"/>
<text text-anchor="middle" x="1397" y="-297.9" font-family="Helvetica,sans-Serif" font-size="12.00">StderrThread.h</text>
</a>
</g>
</g>
<!-- Node2&#45;&gt;Node44 -->
<g id="edge69" class="edge"><title>Node2&#45;&gt;Node44</title>
<path fill="none" stroke="midnightblue" d="M1233.04,-348.373C1266.39,-338.94 1317.35,-324.526 1353.6,-314.275"/>
<polygon fill="midnightblue" stroke="midnightblue" points="1354.74,-317.591 1363.41,-311.501 1352.83,-310.855 1354.74,-317.591"/>
</g>
<!-- Node45 -->
<g id="node45" class="node"><title>Node45</title>
<g id="a_node45"><a xlink:href="../../d2/d5d/_stdout_thread_8h.html" target="_top" xlink:title="StdoutThread.h">
<polygon fill="white" stroke="black" points="1349,-232.5 1349,-253.5 1445,-253.5 1445,-232.5 1349,-232.5"/>
<text text-anchor="middle" x="1397" y="-239.9" font-family="Helvetica,sans-Serif" font-size="12.00">StdoutThread.h</text>
</a>
</g>
</g>
<!-- Node2&#45;&gt;Node45 -->
<g id="edge75" class="edge"><title>Node2&#45;&gt;Node45</title>
<path fill="none" stroke="midnightblue" d="M1257.17,-355.83C1324.28,-351.96 1428.55,-341.28 1453,-312 1468.1,-293.923 1444.77,-272.987 1423.78,-259.174"/>
<polygon fill="midnightblue" stroke="midnightblue" points="1425.38,-256.048 1415.04,-253.719 1421.67,-261.985 1425.38,-256.048"/>
</g>
<!-- Node46 -->
<g id="node46" class="node"><title>Node46</title>
<g id="a_node46"><a xlink:href="../../d0/d9f/setup__settings_8h.html" target="_top" xlink:title="setup_settings.h">
<polygon fill="white" stroke="black" points="1506.5,-174.5 1506.5,-195.5 1607.5,-195.5 1607.5,-174.5 1506.5,-174.5"/>
<text text-anchor="middle" x="1557" y="-181.9" font-family="Helvetica,sans-Serif" font-size="12.00">setup_settings.h</text>
</a>
</g>
</g>
<!-- Node2&#45;&gt;Node46 -->
<g id="edge78" class="edge"><title>Node2&#45;&gt;Node46</title>
<path fill="none" stroke="midnightblue" d="M1257.2,-354.745C1330.65,-349.63 1451.76,-337.532 1488,-312 1524.9,-286.002 1544.11,-233.792 1552.2,-205.423"/>
<polygon fill="midnightblue" stroke="midnightblue" points="1555.65,-206.068 1554.85,-195.503 1548.89,-204.261 1555.65,-206.068"/>
</g>
<!-- Node49 -->
<g id="node49" class="node"><title>Node49</title>
<g id="a_node49"><a xlink:href="../../da/ded/_pass_fail_settings_8h.html" target="_top" xlink:title="PassFailSettings.h">
<polygon fill="white" stroke="black" points="1373.5,-174.5 1373.5,-195.5 1488.5,-195.5 1488.5,-174.5 1373.5,-174.5"/>
<text text-anchor="middle" x="1431" y="-181.9" font-family="Helvetica,sans-Serif" font-size="12.00">PassFailSettings.h</text>
</a>
</g>
</g>
<!-- Node2&#45;&gt;Node49 -->
<g id="edge82" class="edge"><title>Node2&#45;&gt;Node49</title>
<path fill="none" stroke="midnightblue" d="M1257.28,-356.588C1328.64,-353.485 1443.33,-343.582 1470,-312 1496.81,-280.25 1466.01,-230.193 1445.8,-203.742"/>
<polygon fill="midnightblue" stroke="midnightblue" points="1448.41,-201.398 1439.46,-195.737 1442.93,-205.747 1448.41,-201.398"/>
</g>
<!-- Node4 -->
<g id="node4" class="node"><title>Node4</title>
<g id="a_node4"><a xlink:href="../../d9/da6/targetver_8h.html" target="_top" xlink:title="targetver.h">
<polygon fill="white" stroke="black" points="1230.5,-58.5 1230.5,-79.5 1301.5,-79.5 1301.5,-58.5 1230.5,-58.5"/>
<text text-anchor="middle" x="1266" y="-65.9" font-family="Helvetica,sans-Serif" font-size="12.00">targetver.h</text>
</a>
</g>
</g>
<!-- Node3&#45;&gt;Node4 -->
<g id="edge3" class="edge"><title>Node3&#45;&gt;Node4</title>
<path fill="none" stroke="midnightblue" d="M1299.86,-116.246C1294.16,-108.456 1286.01,-97.3308 1279.14,-87.9439"/>
<polygon fill="midnightblue" stroke="midnightblue" points="1281.79,-85.6437 1273.06,-79.6427 1276.14,-89.7789 1281.79,-85.6437"/>
</g>
<!-- Node6 -->
<g id="node6" class="node"><title>Node6</title>
<polygon fill="white" stroke="#bfbfbf" points="1626,-58.5 1626,-79.5 1684,-79.5 1684,-58.5 1626,-58.5"/>
<text text-anchor="middle" x="1655" y="-65.9" font-family="Helvetica,sans-Serif" font-size="12.00">afxwin.h</text>
</g>
<!-- Node3&#45;&gt;Node6 -->
<g id="edge5" class="edge"><title>Node3&#45;&gt;Node6</title>
<path fill="none" stroke="midnightblue" d="M1335.18,-121.465C1397.03,-111.513 1544.76,-87.7403 1615.68,-76.3268"/>
<polygon fill="midnightblue" stroke="midnightblue" points="1616.25,-79.78 1625.57,-74.7356 1615.14,-72.8689 1616.25,-79.78"/>
</g>
<!-- Node7 -->
<g id="node7" class="node"><title>Node7</title>
<polygon fill="white" stroke="#bfbfbf" points="1320,-58.5 1320,-79.5 1376,-79.5 1376,-58.5 1320,-58.5"/>
<text text-anchor="middle" x="1348" y="-65.9" font-family="Helvetica,sans-Serif" font-size="12.00">afxext.h</text>
</g>
<!-- Node3&#45;&gt;Node7 -->
<g id="edge6" class="edge"><title>Node3&#45;&gt;Node7</title>
<path fill="none" stroke="midnightblue" d="M1314.14,-116.246C1319.84,-108.456 1327.99,-97.3308 1334.86,-87.9439"/>
<polygon fill="midnightblue" stroke="midnightblue" points="1337.86,-89.7789 1340.94,-79.6427 1332.21,-85.6437 1337.86,-89.7789"/>
</g>
<!-- Node8 -->
<g id="node8" class="node"><title>Node8</title>
<polygon fill="white" stroke="#bfbfbf" points="1394.5,-58.5 1394.5,-79.5 1457.5,-79.5 1457.5,-58.5 1394.5,-58.5"/>
<text text-anchor="middle" x="1426" y="-65.9" font-family="Helvetica,sans-Serif" font-size="12.00">afxdisp.h</text>
</g>
<!-- Node3&#45;&gt;Node8 -->
<g id="edge7" class="edge"><title>Node3&#45;&gt;Node8</title>
<path fill="none" stroke="midnightblue" d="M1327.46,-116.373C1346.47,-107.424 1375.02,-93.9917 1396.5,-83.8835"/>
<polygon fill="midnightblue" stroke="midnightblue" points="1398.25,-86.926 1405.81,-79.5011 1395.27,-80.5923 1398.25,-86.926"/>
</g>
<!-- Node9 -->
<g id="node9" class="node"><title>Node9</title>
<polygon fill="white" stroke="#bfbfbf" points="1476,-58.5 1476,-79.5 1538,-79.5 1538,-58.5 1476,-58.5"/>
<text text-anchor="middle" x="1507" y="-65.9" font-family="Helvetica,sans-Serif" font-size="12.00">afxdtctl.h</text>
</g>
<!-- Node3&#45;&gt;Node9 -->
<g id="edge8" class="edge"><title>Node3&#45;&gt;Node9</title>
<path fill="none" stroke="midnightblue" d="M1335.23,-118.095C1369.33,-108.547 1426.97,-92.4094 1465.97,-81.4873"/>
<polygon fill="midnightblue" stroke="midnightblue" points="1467.27,-84.7594 1475.95,-78.6926 1465.38,-78.0186 1467.27,-84.7594"/>
</g>
<!-- Node10 -->
<g id="node10" class="node"><title>Node10</title>
<polygon fill="white" stroke="#bfbfbf" points="1034,-58.5 1034,-79.5 1096,-79.5 1096,-58.5 1034,-58.5"/>
<text text-anchor="middle" x="1065" y="-65.9" font-family="Helvetica,sans-Serif" font-size="12.00">afxcmn.h</text>
</g>
<!-- Node3&#45;&gt;Node10 -->
<g id="edge9" class="edge"><title>Node3&#45;&gt;Node10</title>
<path fill="none" stroke="midnightblue" d="M1278.85,-119.787C1241.61,-111.524 1173.68,-96.3027 1106.35,-80.2907"/>
<polygon fill="midnightblue" stroke="midnightblue" points="1106.97,-76.8391 1096.43,-77.9233 1105.34,-83.6481 1106.97,-76.8391"/>
</g>
<!-- Node11 -->
<g id="node11" class="node"><title>Node11</title>
<polygon fill="white" stroke="#bfbfbf" points="1114,-58.5 1114,-79.5 1212,-79.5 1212,-58.5 1114,-58.5"/>
<text text-anchor="middle" x="1163" y="-65.9" font-family="Helvetica,sans-Serif" font-size="12.00">afxcontrolbars.h</text>
</g>
<!-- Node3&#45;&gt;Node11 -->
<g id="edge10" class="edge"><title>Node3&#45;&gt;Node11</title>
<path fill="none" stroke="midnightblue" d="M1282.25,-116.373C1258.72,-107.223 1223.13,-93.3844 1196.96,-83.2057"/>
<polygon fill="midnightblue" stroke="midnightblue" points="1198.02,-79.8636 1187.43,-79.5011 1195.48,-86.3877 1198.02,-79.8636"/>
</g>
<!-- Node5 -->
<g id="node5" class="node"><title>Node5</title>
<polygon fill="white" stroke="#bfbfbf" points="1218,-0.5 1218,-21.5 1314,-21.5 1314,-0.5 1218,-0.5"/>
<text text-anchor="middle" x="1266" y="-7.9" font-family="Helvetica,sans-Serif" font-size="12.00">SDKDDKVer.h</text>
</g>
<!-- Node4&#45;&gt;Node5 -->
<g id="edge4" class="edge"><title>Node4&#45;&gt;Node5</title>
<path fill="none" stroke="midnightblue" d="M1266,-58.2455C1266,-50.9382 1266,-40.6944 1266,-31.7046"/>
<polygon fill="midnightblue" stroke="midnightblue" points="1269.5,-31.6426 1266,-21.6427 1262.5,-31.6427 1269.5,-31.6426"/>
</g>
<!-- Node16&#45;&gt;Node13 -->
<g id="edge16" class="edge"><title>Node16&#45;&gt;Node13</title>
<path fill="none" stroke="midnightblue" d="M398.263,-290.479C448.025,-267.044 573.467,-207.628 591,-196 613.738,-180.92 636.95,-159.799 652.07,-145.113"/>
<polygon fill="midnightblue" stroke="midnightblue" points="654.926,-147.212 659.584,-137.695 650.008,-142.23 654.926,-147.212"/>
</g>
<!-- Node16&#45;&gt;Node17 -->
<g id="edge17" class="edge"><title>Node16&#45;&gt;Node17</title>
<path fill="none" stroke="midnightblue" d="M383.051,-290.246C387.002,-282.617 392.61,-271.788 397.406,-262.527"/>
<polygon fill="midnightblue" stroke="midnightblue" points="400.516,-264.132 402.006,-253.643 394.3,-260.913 400.516,-264.132"/>
</g>
<!-- Node16&#45;&gt;Node25 -->
<g id="edge39" class="edge"><title>Node16&#45;&gt;Node25</title>
<path fill="none" stroke="midnightblue" d="M413.994,-290.481C443.914,-282.139 487.362,-269.02 524,-254 543.863,-245.857 546.405,-238.057 567,-232 718.933,-187.32 766.798,-216.277 927.575,-196.08"/>
<polygon fill="midnightblue" stroke="midnightblue" points="928.359,-199.508 937.824,-194.746 927.456,-192.566 928.359,-199.508"/>
</g>
<!-- Node17&#45;&gt;Node13 -->
<g id="edge18" class="edge"><title>Node17&#45;&gt;Node13</title>
<path fill="none" stroke="midnightblue" d="M446.563,-232.437C476.915,-224.454 519.492,-211.839 555,-196 588.481,-181.065 624.372,-158.433 646.75,-143.437"/>
<polygon fill="midnightblue" stroke="midnightblue" points="648.877,-146.224 655.188,-137.714 644.947,-140.431 648.877,-146.224"/>
</g>
<!-- Node18 -->
<g id="node18" class="node"><title>Node18</title>
<polygon fill="white" stroke="#bfbfbf" points="418,-174.5 418,-195.5 472,-195.5 472,-174.5 418,-174.5"/>
<text text-anchor="middle" x="445" y="-181.9" font-family="Helvetica,sans-Serif" font-size="12.00">string.h</text>
</g>
<!-- Node17&#45;&gt;Node18 -->
<g id="edge19" class="edge"><title>Node17&#45;&gt;Node18</title>
<path fill="none" stroke="midnightblue" d="M413.619,-232.246C418.905,-224.456 426.454,-213.331 432.824,-203.944"/>
<polygon fill="midnightblue" stroke="midnightblue" points="435.738,-205.883 438.457,-195.643 429.946,-201.952 435.738,-205.883"/>
</g>
<!-- Node17&#45;&gt;Node19 -->
<g id="edge20" class="edge"><title>Node17&#45;&gt;Node19</title>
<path fill="none" stroke="midnightblue" d="M366.949,-238.067C305.218,-231.675 182.973,-217.707 70.0073,-196.016"/>
<polygon fill="midnightblue" stroke="midnightblue" points="70.6395,-192.573 60.1552,-194.1 69.303,-199.445 70.6395,-192.573"/>
</g>
<!-- Node20 -->
<g id="node20" class="node"><title>Node20</title>
<g id="a_node20"><a xlink:href="../../d8/d50/_critical_c_string_8h.html" target="_top" xlink:title="CriticalCString.h">
<polygon fill="white" stroke="black" points="716,-174.5 716,-195.5 818,-195.5 818,-174.5 716,-174.5"/>
<text text-anchor="middle" x="767" y="-181.9" font-family="Helvetica,sans-Serif" font-size="12.00">CriticalCString.h</text>
</a>
</g>
</g>
<!-- Node17&#45;&gt;Node20 -->
<g id="edge21" class="edge"><title>Node17&#45;&gt;Node20</title>
<path fill="none" stroke="midnightblue" d="M447.249,-235.739C510.071,-225.967 631.867,-207.021 705.665,-195.541"/>
<polygon fill="midnightblue" stroke="midnightblue" points="706.406,-198.968 715.749,-193.972 705.33,-192.051 706.406,-198.968"/>
</g>
<!-- Node22 -->
<g id="node22" class="node"><title>Node22</title>
<g id="a_node22"><a xlink:href="../../da/d69/imatest__library_8h.html" target="_top" xlink:title="imatest_library.h">
<polygon fill="white" stroke="black" points="78,-174.5 78,-195.5 180,-195.5 180,-174.5 78,-174.5"/>
<text text-anchor="middle" x="129" y="-181.9" font-family="Helvetica,sans-Serif" font-size="12.00">imatest_library.h</text>
</a>
</g>
</g>
<!-- Node17&#45;&gt;Node22 -->
<g id="edge24" class="edge"><title>Node17&#45;&gt;Node22</title>
<path fill="none" stroke="midnightblue" d="M366.873,-233.917C319.551,-224.384 240.529,-208.466 186.657,-197.614"/>
<polygon fill="midnightblue" stroke="midnightblue" points="187.064,-194.126 176.57,-195.582 185.681,-200.988 187.064,-194.126"/>
</g>
<!-- Node17&#45;&gt;Node25 -->
<g id="edge27" class="edge"><title>Node17&#45;&gt;Node25</title>
<path fill="none" stroke="midnightblue" d="M447.169,-238.879C549.342,-230.877 818.202,-209.395 927.737,-196.05"/>
<polygon fill="midnightblue" stroke="midnightblue" points="928.342,-199.501 937.829,-194.784 927.471,-192.556 928.342,-199.501"/>
</g>
<!-- Node26 -->
<g id="node26" class="node"><title>Node26</title>
<g id="a_node26"><a xlink:href="../../d5/d29/_timer_8h.html" target="_top" xlink:title="Timer.h">
<polygon fill="white" stroke="red" points="490,-174.5 490,-195.5 546,-195.5 546,-174.5 490,-174.5"/>
<text text-anchor="middle" x="518" y="-181.9" font-family="Helvetica,sans-Serif" font-size="12.00">Timer.h</text>
</a>
</g>
</g>
<!-- Node17&#45;&gt;Node26 -->
<g id="edge30" class="edge"><title>Node17&#45;&gt;Node26</title>
<path fill="none" stroke="midnightblue" d="M426.082,-232.373C443.74,-223.464 470.205,-210.113 490.21,-200.02"/>
<polygon fill="midnightblue" stroke="midnightblue" points="491.816,-203.13 499.167,-195.501 488.663,-196.881 491.816,-203.13"/>
</g>
<!-- Node27 -->
<g id="node27" class="node"><title>Node27</title>
<g id="a_node27"><a xlink:href="../../df/d96/_timestamp_8h.html" target="_top" xlink:title="Timestamp.h">
<polygon fill="white" stroke="black" points="836,-174.5 836,-195.5 920,-195.5 920,-174.5 836,-174.5"/>
<text text-anchor="middle" x="878" y="-181.9" font-family="Helvetica,sans-Serif" font-size="12.00">Timestamp.h</text>
</a>
</g>
</g>
<!-- Node17&#45;&gt;Node27 -->
<g id="edge31" class="edge"><title>Node17&#45;&gt;Node27</title>
<path fill="none" stroke="midnightblue" d="M447.105,-238.745C520.322,-232.555 680.719,-217.86 825.774,-196.083"/>
<polygon fill="midnightblue" stroke="midnightblue" points="826.385,-199.53 835.747,-194.57 825.336,-192.609 826.385,-199.53"/>
</g>
<!-- Node28 -->
<g id="node28" class="node"><title>Node28</title>
<g id="a_node28"><a xlink:href="../../d1/d7d/libjson_8h.html" target="_top" xlink:title="libjson.h">
<polygon fill="white" stroke="red" points="340.5,-174.5 340.5,-195.5 399.5,-195.5 399.5,-174.5 340.5,-174.5"/>
<text text-anchor="middle" x="370" y="-181.9" font-family="Helvetica,sans-Serif" font-size="12.00">libjson.h</text>
</a>
</g>
</g>
<!-- Node17&#45;&gt;Node28 -->
<g id="edge33" class="edge"><title>Node17&#45;&gt;Node28</title>
<path fill="none" stroke="midnightblue" d="M400.555,-232.246C395.462,-224.537 388.209,-213.56 382.048,-204.235"/>
<polygon fill="midnightblue" stroke="midnightblue" points="384.804,-202.057 376.371,-195.643 378.963,-205.915 384.804,-202.057"/>
</g>
<!-- Node29 -->
<g id="node29" class="node"><title>Node29</title>
<g id="a_node29"><a xlink:href="../../db/d7e/_j_s_o_n_2_j_s_o_n_defs_8h.html" target="_top" xlink:title="JSON\\JSONDefs.h">
<polygon fill="white" stroke="red" points="254,-116.5 254,-137.5 370,-137.5 370,-116.5 254,-116.5"/>
<text text-anchor="middle" x="312" y="-123.9" font-family="Helvetica,sans-Serif" font-size="12.00">JSON\JSONDefs.h</text>
</a>
</g>
</g>
<!-- Node17&#45;&gt;Node29 -->
<g id="edge38" class="edge"><title>Node17&#45;&gt;Node29</title>
<path fill="none" stroke="midnightblue" d="M381.649,-232.494C364.951,-224.993 343.872,-212.95 331,-196 320.367,-181.998 315.684,-162.339 313.622,-147.758"/>
<polygon fill="midnightblue" stroke="midnightblue" points="317.096,-147.322 312.501,-137.775 310.139,-148.103 317.096,-147.322"/>
</g>
<!-- Node30 -->
<g id="node30" class="node"><title>Node30</title>
<g id="a_node30"><a xlink:href="../../d3/d71/jsonhelpers_8h.html" target="_top" xlink:title="jsonhelpers.h">
<polygon fill="white" stroke="black" points="198.5,-174.5 198.5,-195.5 283.5,-195.5 283.5,-174.5 198.5,-174.5"/>
<text text-anchor="middle" x="241" y="-181.9" font-family="Helvetica,sans-Serif" font-size="12.00">jsonhelpers.h</text>
</a>
</g>
</g>
<!-- Node17&#45;&gt;Node30 -->
<g id="edge36" class="edge"><title>Node17&#45;&gt;Node30</title>
<path fill="none" stroke="midnightblue" d="M378.464,-232.373C350.98,-223.102 309.231,-209.018 278.955,-198.804"/>
<polygon fill="midnightblue" stroke="midnightblue" points="279.758,-195.381 269.164,-195.501 277.521,-202.014 279.758,-195.381"/>
</g>
<!-- Node20&#45;&gt;Node13 -->
<g id="edge23" class="edge"><title>Node20&#45;&gt;Node13</title>
<path fill="none" stroke="midnightblue" d="M749.93,-174.246C734.753,-165.573 712.338,-152.765 694.944,-142.825"/>
<polygon fill="midnightblue" stroke="midnightblue" points="696.294,-139.565 685.875,-137.643 692.821,-145.643 696.294,-139.565"/>
</g>
<!-- Node21 -->
<g id="node21" class="node"><title>Node21</title>
<polygon fill="white" stroke="#bfbfbf" points="961.5,-116.5 961.5,-137.5 1014.5,-137.5 1014.5,-116.5 961.5,-116.5"/>
<text text-anchor="middle" x="988" y="-123.9" font-family="Helvetica,sans-Serif" font-size="12.00">afxmt.h</text>
</g>
<!-- Node20&#45;&gt;Node21 -->
<g id="edge22" class="edge"><title>Node20&#45;&gt;Node21</title>
<path fill="none" stroke="midnightblue" d="M804.74,-174.437C845.768,-164.041 910.886,-147.54 951.443,-137.263"/>
<polygon fill="midnightblue" stroke="midnightblue" points="952.362,-140.641 961.196,-134.792 950.642,-133.856 952.362,-140.641"/>
</g>
<!-- Node23 -->
<g id="node23" class="node"><title>Node23</title>
<polygon fill="white" stroke="#bfbfbf" points="130,-116.5 130,-137.5 200,-137.5 200,-116.5 130,-116.5"/>
<text text-anchor="middle" x="165" y="-123.9" font-family="Helvetica,sans-Serif" font-size="12.00">mclmcrrt.h</text>
</g>
<!-- Node22&#45;&gt;Node23 -->
<g id="edge25" class="edge"><title>Node22&#45;&gt;Node23</title>
<path fill="none" stroke="midnightblue" d="M135.271,-174.246C140.226,-166.537 147.283,-155.56 153.278,-146.235"/>
<polygon fill="midnightblue" stroke="midnightblue" points="156.338,-147.947 158.801,-137.643 150.449,-144.162 156.338,-147.947"/>
</g>
<!-- Node24 -->
<g id="node24" class="node"><title>Node24</title>
<polygon fill="white" stroke="#bfbfbf" points="22,-116.5 22,-137.5 112,-137.5 112,-116.5 22,-116.5"/>
<text text-anchor="middle" x="67" y="-123.9" font-family="Helvetica,sans-Serif" font-size="12.00">mclcppclass.h</text>
</g>
<!-- Node22&#45;&gt;Node24 -->
<g id="edge26" class="edge"><title>Node22&#45;&gt;Node24</title>
<path fill="none" stroke="midnightblue" d="M118.2,-174.246C109.132,-166.055 95.9794,-154.175 85.2755,-144.507"/>
<polygon fill="midnightblue" stroke="midnightblue" points="87.4429,-141.748 77.6758,-137.643 82.7509,-146.943 87.4429,-141.748"/>
</g>
<!-- Node25&#45;&gt;Node3 -->
<g id="edge28" class="edge"><title>Node25&#45;&gt;Node3</title>
<path fill="none" stroke="midnightblue" d="M1038.19,-175.188C1102.12,-163.967 1211.17,-144.822 1268.77,-134.712"/>
<polygon fill="midnightblue" stroke="midnightblue" points="1269.65,-138.109 1278.9,-132.933 1268.44,-131.215 1269.65,-138.109"/>
</g>
<!-- Node25&#45;&gt;Node21 -->
<g id="edge29" class="edge"><title>Node25&#45;&gt;Node21</title>
<path fill="none" stroke="midnightblue" d="M988,-174.246C988,-166.938 988,-156.694 988,-147.705"/>
<polygon fill="midnightblue" stroke="midnightblue" points="991.5,-147.643 988,-137.643 984.5,-147.643 991.5,-147.643"/>
</g>
<!-- Node27&#45;&gt;Node3 -->
<g id="edge32" class="edge"><title>Node27&#45;&gt;Node3</title>
<path fill="none" stroke="midnightblue" d="M920.259,-175.469C923.213,-174.948 926.148,-174.452 929,-174 1052.64,-154.381 1200.2,-138.617 1268.64,-131.739"/>
<polygon fill="midnightblue" stroke="midnightblue" points="1269.32,-135.188 1278.92,-130.713 1268.63,-128.223 1269.32,-135.188"/>
</g>
<!-- Node28&#45;&gt;Node13 -->
<g id="edge35" class="edge"><title>Node28&#45;&gt;Node13</title>
<path fill="none" stroke="midnightblue" d="M399.755,-176.123C402.869,-175.373 405.994,-174.65 409,-174 490.186,-156.436 586.706,-140.69 636.176,-132.988"/>
<polygon fill="midnightblue" stroke="midnightblue" points="636.934,-136.412 646.281,-131.425 635.864,-129.495 636.934,-136.412"/>
</g>
<!-- Node28&#45;&gt;Node29 -->
<g id="edge34" class="edge"><title>Node28&#45;&gt;Node29</title>
<path fill="none" stroke="midnightblue" d="M359.897,-174.246C351.497,-166.135 339.351,-154.408 329.392,-144.792"/>
<polygon fill="midnightblue" stroke="midnightblue" points="331.612,-142.071 321.987,-137.643 326.75,-147.107 331.612,-142.071"/>
</g>
<!-- Node30&#45;&gt;Node29 -->
<g id="edge37" class="edge"><title>Node30&#45;&gt;Node29</title>
<path fill="none" stroke="midnightblue" d="M253.367,-174.246C263.955,-165.894 279.406,-153.708 291.789,-143.941"/>
<polygon fill="midnightblue" stroke="midnightblue" points="294.09,-146.584 299.774,-137.643 289.755,-141.087 294.09,-146.584"/>
</g>
<!-- Node31&#45;&gt;Node3 -->
<g id="edge42" class="edge"><title>Node31&#45;&gt;Node3</title>
<path fill="none" stroke="midnightblue" d="M1262.36,-290.482C1267.6,-269.419 1280.75,-217.299 1293,-174 1295.47,-165.287 1298.36,-155.7 1300.87,-147.543"/>
<polygon fill="midnightblue" stroke="midnightblue" points="1304.26,-148.426 1303.88,-137.838 1297.57,-146.348 1304.26,-148.426"/>
</g>
<!-- Node31&#45;&gt;Node32 -->
<g id="edge43" class="edge"><title>Node31&#45;&gt;Node32</title>
<path fill="none" stroke="midnightblue" d="M1241.19,-290.246C1224.15,-281.413 1198.84,-268.289 1179.53,-258.276"/>
<polygon fill="midnightblue" stroke="midnightblue" points="1181.09,-255.139 1170.6,-253.643 1177.86,-261.353 1181.09,-255.139"/>
</g>
<!-- Node32&#45;&gt;Node3 -->
<g id="edge44" class="edge"><title>Node32&#45;&gt;Node3</title>
<path fill="none" stroke="midnightblue" d="M1164.95,-232.477C1191.55,-212.911 1252.6,-168.011 1285.33,-143.937"/>
<polygon fill="midnightblue" stroke="midnightblue" points="1287.78,-146.483 1293.76,-137.738 1283.63,-140.843 1287.78,-146.483"/>
</g>
<!-- Node33 -->
<g id="node33" class="node"><title>Node33</title>
<g id="a_node33"><a xlink:href="../../d8/d07/_critical_buf_8h.html" target="_top" xlink:title="CriticalBuf.h">
<polygon fill="white" stroke="black" points="1103,-174.5 1103,-195.5 1183,-195.5 1183,-174.5 1103,-174.5"/>
<text text-anchor="middle" x="1143" y="-181.9" font-family="Helvetica,sans-Serif" font-size="12.00">CriticalBuf.h</text>
</a>
</g>
</g>
<!-- Node32&#45;&gt;Node33 -->
<g id="edge45" class="edge"><title>Node32&#45;&gt;Node33</title>
<path fill="none" stroke="midnightblue" d="M1150.43,-232.246C1149.26,-224.938 1147.61,-214.694 1146.17,-205.705"/>
<polygon fill="midnightblue" stroke="midnightblue" points="1149.59,-204.961 1144.55,-195.643 1142.68,-206.071 1149.59,-204.961"/>
</g>
<!-- Node33&#45;&gt;Node21 -->
<g id="edge46" class="edge"><title>Node33&#45;&gt;Node21</title>
<path fill="none" stroke="midnightblue" d="M1116.35,-174.373C1090.8,-165.142 1052.05,-151.14 1023.81,-140.937"/>
<polygon fill="midnightblue" stroke="midnightblue" points="1024.89,-137.607 1014.3,-137.501 1022.51,-144.191 1024.89,-137.607"/>
</g>
<!-- Node34&#45;&gt;Node32 -->
<g id="edge48" class="edge"><title>Node34&#45;&gt;Node32</title>
<path fill="none" stroke="midnightblue" d="M990.522,-290.373C1023.37,-280.94 1073.56,-266.526 1109.26,-256.275"/>
<polygon fill="midnightblue" stroke="midnightblue" points="1110.27,-259.625 1118.92,-253.501 1108.34,-252.897 1110.27,-259.625"/>
</g>
<!-- Node35&#45;&gt;Node13 -->
<g id="edge53" class="edge"><title>Node35&#45;&gt;Node13</title>
<path fill="none" stroke="midnightblue" d="M886.033,-290.445C963.364,-273.316 1099.72,-233.519 1047,-174 1024.23,-148.286 789.295,-134.006 701.693,-129.542"/>
<polygon fill="midnightblue" stroke="midnightblue" points="701.688,-126.037 691.526,-129.034 701.339,-133.029 701.688,-126.037"/>
</g>
<!-- Node35&#45;&gt;Node32 -->
<g id="edge52" class="edge"><title>Node35&#45;&gt;Node32</title>
<path fill="none" stroke="midnightblue" d="M887.61,-291.003C942.192,-281.299 1029.2,-265.831 1088.37,-255.311"/>
<polygon fill="midnightblue" stroke="midnightblue" points="1089.12,-258.734 1098.35,-253.537 1087.89,-251.842 1089.12,-258.734"/>
</g>
<!-- Node36&#45;&gt;Node12 -->
<g id="edge55" class="edge"><title>Node36&#45;&gt;Node12</title>
<path fill="none" stroke="midnightblue" d="M1686.61,-290.28C1682.03,-271.603 1671.9,-230.369 1665.84,-205.715"/>
<polygon fill="midnightblue" stroke="midnightblue" points="1669.17,-204.571 1663.38,-195.695 1662.37,-206.241 1669.17,-204.571"/>
</g>
<!-- Node36&#45;&gt;Node37 -->
<g id="edge56" class="edge"><title>Node36&#45;&gt;Node37</title>
<path fill="none" stroke="midnightblue" d="M1695.1,-290.246C1699.91,-282.537 1706.78,-271.56 1712.6,-262.235"/>
<polygon fill="midnightblue" stroke="midnightblue" points="1715.64,-263.978 1717.97,-253.643 1709.71,-260.268 1715.64,-263.978"/>
</g>
<!-- Node37&#45;&gt;Node6 -->
<g id="edge57" class="edge"><title>Node37&#45;&gt;Node6</title>
<path fill="none" stroke="midnightblue" d="M1721.82,-232.143C1718.73,-218.758 1712.61,-194.188 1705,-174 1693.35,-143.067 1675.94,-108.805 1665.04,-88.3551"/>
<polygon fill="midnightblue" stroke="midnightblue" points="1668.1,-86.6416 1660.27,-79.5009 1661.94,-89.964 1668.1,-86.6416"/>
</g>
<!-- Node37&#45;&gt;Node12 -->
<g id="edge58" class="edge"><title>Node37&#45;&gt;Node12</title>
<path fill="none" stroke="midnightblue" d="M1713.03,-232.246C1703.81,-224.055 1690.45,-212.175 1679.57,-202.507"/>
<polygon fill="midnightblue" stroke="midnightblue" points="1681.65,-199.67 1671.85,-195.643 1677,-204.902 1681.65,-199.67"/>
</g>
<!-- Node38&#45;&gt;Node13 -->
<g id="edge60" class="edge"><title>Node38&#45;&gt;Node13</title>
<path fill="none" stroke="midnightblue" d="M646.359,-290.26C650.187,-262.824 661.115,-184.509 666.259,-147.642"/>
<polygon fill="midnightblue" stroke="midnightblue" points="669.74,-148.021 667.656,-137.633 662.807,-147.054 669.74,-148.021"/>
</g>
<!-- Node38&#45;&gt;Node17 -->
<g id="edge61" class="edge"><title>Node38&#45;&gt;Node17</title>
<path fill="none" stroke="midnightblue" d="M604.357,-290.437C563.587,-280.844 500.729,-266.054 456.944,-255.752"/>
<polygon fill="midnightblue" stroke="midnightblue" points="457.614,-252.314 447.079,-253.43 456.011,-259.128 457.614,-252.314"/>
</g>
<!-- Node38&#45;&gt;Node25 -->
<g id="edge62" class="edge"><title>Node38&#45;&gt;Node25</title>
<path fill="none" stroke="midnightblue" d="M656.448,-290.431C674.906,-275.525 712.931,-246.927 750,-232 766.304,-225.435 862.686,-207.848 927.686,-196.421"/>
<polygon fill="midnightblue" stroke="midnightblue" points="928.587,-199.817 937.832,-194.643 927.378,-192.922 928.587,-199.817"/>
</g>
<!-- Node39 -->
<g id="node39" class="node"><title>Node39</title>
<g id="a_node39"><a xlink:href="../../d6/d2b/qso_8h.html" target="_top" xlink:title="qso.h">
<polygon fill="white" stroke="black" points="576.5,-232.5 576.5,-253.5 621.5,-253.5 621.5,-232.5 576.5,-232.5"/>
<text text-anchor="middle" x="599" y="-239.9" font-family="Helvetica,sans-Serif" font-size="12.00">qso.h</text>
</a>
</g>
</g>
<!-- Node38&#45;&gt;Node39 -->
<g id="edge63" class="edge"><title>Node38&#45;&gt;Node39</title>
<path fill="none" stroke="midnightblue" d="M636.987,-290.246C630.523,-282.376 621.262,-271.101 613.502,-261.654"/>
<polygon fill="midnightblue" stroke="midnightblue" points="615.973,-259.148 606.921,-253.643 610.564,-263.592 615.973,-259.148"/>
</g>
<!-- Node40&#45;&gt;Node32 -->
<g id="edge65" class="edge"><title>Node40&#45;&gt;Node32</title>
<path fill="none" stroke="midnightblue" d="M1108.23,-290.246C1115.83,-282.216 1126.79,-270.639 1135.84,-261.078"/>
<polygon fill="midnightblue" stroke="midnightblue" points="1138.54,-263.311 1142.87,-253.643 1133.46,-258.5 1138.54,-263.311"/>
</g>
<!-- Node41&#45;&gt;Node42 -->
<g id="edge67" class="edge"><title>Node41&#45;&gt;Node42</title>
<path fill="none" stroke="midnightblue" d="M1894.24,-232.246C1882.34,-223.814 1864.93,-211.473 1851.09,-201.66"/>
<polygon fill="midnightblue" stroke="midnightblue" points="1852.79,-198.57 1842.6,-195.643 1848.74,-204.281 1852.79,-198.57"/>
</g>
<!-- Node43 -->
<g id="node43" class="node"><title>Node43</title>
<polygon fill="white" stroke="#bfbfbf" points="1803.5,-116.5 1803.5,-137.5 1854.5,-137.5 1854.5,-116.5 1803.5,-116.5"/>
<text text-anchor="middle" x="1829" y="-123.9" font-family="Helvetica,sans-Serif" font-size="12.00">stdio.h</text>
</g>
<!-- Node42&#45;&gt;Node43 -->
<g id="edge68" class="edge"><title>Node42&#45;&gt;Node43</title>
<path fill="none" stroke="midnightblue" d="M1829,-174.246C1829,-166.938 1829,-156.694 1829,-147.705"/>
<polygon fill="midnightblue" stroke="midnightblue" points="1832.5,-147.643 1829,-137.643 1825.5,-147.643 1832.5,-147.643"/>
</g>
<!-- Node44&#45;&gt;Node45 -->
<g id="edge70" class="edge"><title>Node44&#45;&gt;Node45</title>
<path fill="none" stroke="midnightblue" d="M1397,-290.246C1397,-282.938 1397,-272.694 1397,-263.705"/>
<polygon fill="midnightblue" stroke="midnightblue" points="1400.5,-263.643 1397,-253.643 1393.5,-263.643 1400.5,-263.643"/>
</g>
<!-- Node45&#45;&gt;Node3 -->
<g id="edge71" class="edge"><title>Node45&#45;&gt;Node3</title>
<path fill="none" stroke="midnightblue" d="M1389.33,-232.28C1374.18,-213.098 1340.26,-170.124 1321.02,-145.753"/>
<polygon fill="midnightblue" stroke="midnightblue" points="1323.6,-143.375 1314.65,-137.695 1318.1,-147.713 1323.6,-143.375"/>
</g>
<!-- Node45&#45;&gt;Node20 -->
<g id="edge72" class="edge"><title>Node45&#45;&gt;Node20</title>
<path fill="none" stroke="midnightblue" d="M1348.82,-239.492C1252.1,-234.158 1027.26,-220.254 828.085,-196.04"/>
<polygon fill="midnightblue" stroke="midnightblue" points="828.372,-192.549 818.02,-194.805 827.52,-199.497 828.372,-192.549"/>
</g>
<!-- Node45&#45;&gt;Node42 -->
<g id="edge73" class="edge"><title>Node45&#45;&gt;Node42</title>
<path fill="none" stroke="midnightblue" d="M1445.3,-235.739C1524.08,-225.526 1680.16,-205.294 1767.01,-194.035"/>
<polygon fill="midnightblue" stroke="midnightblue" points="1767.53,-197.498 1776.99,-192.741 1766.63,-190.556 1767.53,-197.498"/>
</g>
<!-- Node46&#45;&gt;Node3 -->
<g id="edge79" class="edge"><title>Node46&#45;&gt;Node3</title>
<path fill="none" stroke="midnightblue" d="M1514.31,-174.437C1466.72,-163.778 1390.5,-146.704 1344.93,-136.497"/>
<polygon fill="midnightblue" stroke="midnightblue" points="1345.67,-133.076 1335.15,-134.305 1344.14,-139.906 1345.67,-133.076"/>
</g>
<!-- Node47 -->
<g id="node47" class="node"><title>Node47</title>
<polygon fill="white" stroke="#bfbfbf" points="1532.5,-116.5 1532.5,-137.5 1585.5,-137.5 1585.5,-116.5 1532.5,-116.5"/>
<text text-anchor="middle" x="1559" y="-123.9" font-family="Helvetica,sans-Serif" font-size="12.00">afxstr.h</text>
</g>
<!-- Node46&#45;&gt;Node47 -->
<g id="edge80" class="edge"><title>Node46&#45;&gt;Node47</title>
<path fill="none" stroke="midnightblue" d="M1557.35,-174.246C1557.61,-166.938 1557.98,-156.694 1558.3,-147.705"/>
<polygon fill="midnightblue" stroke="midnightblue" points="1561.8,-147.761 1558.66,-137.643 1554.8,-147.511 1561.8,-147.761"/>
</g>
<!-- Node48 -->
<g id="node48" class="node"><title>Node48</title>
<polygon fill="white" stroke="#bfbfbf" points="1466,-116.5 1466,-137.5 1514,-137.5 1514,-116.5 1466,-116.5"/>
<text text-anchor="middle" x="1490" y="-123.9" font-family="Helvetica,sans-Serif" font-size="12.00">vector</text>
</g>
<!-- Node46&#45;&gt;Node48 -->
<g id="edge81" class="edge"><title>Node46&#45;&gt;Node48</title>
<path fill="none" stroke="midnightblue" d="M1545.33,-174.246C1535.43,-165.975 1521.04,-153.942 1509.41,-144.223"/>
<polygon fill="midnightblue" stroke="midnightblue" points="1511.45,-141.37 1501.54,-137.643 1506.97,-146.741 1511.45,-141.37"/>
</g>
<!-- Node49&#45;&gt;Node3 -->
<g id="edge83" class="edge"><title>Node49&#45;&gt;Node3</title>
<path fill="none" stroke="midnightblue" d="M1409.68,-174.373C1389.78,-165.384 1359.86,-151.871 1337.44,-141.747"/>
<polygon fill="midnightblue" stroke="midnightblue" points="1338.59,-138.427 1328.04,-137.501 1335.71,-144.807 1338.59,-138.427"/>
</g>
<!-- Node49&#45;&gt;Node13 -->
<g id="edge86" class="edge"><title>Node49&#45;&gt;Node13</title>
<path fill="none" stroke="midnightblue" d="M1373.41,-179.768C1222.62,-168.686 819.722,-139.077 701.833,-130.413"/>
<polygon fill="midnightblue" stroke="midnightblue" points="701.872,-126.906 691.642,-129.664 701.359,-133.888 701.872,-126.906"/>
</g>
<!-- Node49&#45;&gt;Node48 -->
<g id="edge85" class="edge"><title>Node49&#45;&gt;Node48</title>
<path fill="none" stroke="midnightblue" d="M1441.28,-174.246C1449.82,-166.135 1462.18,-154.408 1472.31,-144.792"/>
<polygon fill="midnightblue" stroke="midnightblue" points="1475,-147.066 1479.84,-137.643 1470.18,-141.988 1475,-147.066"/>
</g>
<!-- Node50 -->
<g id="node50" class="node"><title>Node50</title>
<polygon fill="white" stroke="#bfbfbf" points="1408,-116.5 1408,-137.5 1448,-137.5 1448,-116.5 1408,-116.5"/>
<text text-anchor="middle" x="1428" y="-123.9" font-family="Helvetica,sans-Serif" font-size="12.00">map</text>
</g>
<!-- Node49&#45;&gt;Node50 -->
<g id="edge84" class="edge"><title>Node49&#45;&gt;Node50</title>
<path fill="none" stroke="midnightblue" d="M1430.48,-174.246C1430.09,-166.938 1429.54,-156.694 1429.06,-147.705"/>
<polygon fill="midnightblue" stroke="midnightblue" points="1432.55,-147.441 1428.52,-137.643 1425.56,-147.816 1432.55,-147.441"/>
</g>
</g>
</svg>
