<?xml version="1.0" encoding="UTF-8" standalone="no"?>
<!DOCTYPE svg PUBLIC "-//W3C//DTD SVG 1.1//EN"
 "http://www.w3.org/Graphics/SVG/1.1/DTD/svg11.dtd">
<!-- Generated by graphviz version 2.34.0 (20130907.0111)
 -->
<!-- Title: SFRplusPassFail Pages: 1 -->
<svg width="669pt" height="630pt"
 viewBox="0.00 0.00 669.00 630.00" xmlns="http://www.w3.org/2000/svg" xmlns:xlink="http://www.w3.org/1999/xlink">
<g id="graph0" class="graph" transform="scale(1 1) rotate(0) translate(4 626)">
<title>SFRplusPassFail</title>
<polygon fill="white" stroke="white" points="-4,4 -4,-626 665,-626 665,4 -4,4"/>
<!-- Node1 -->
<g id="node1" class="node"><title>Node1</title>
<polygon fill="#bfbfbf" stroke="black" points="209,-0.5 209,-21.5 317,-21.5 317,-0.5 209,-0.5"/>
<text text-anchor="middle" x="263" y="-7.9" font-family="Helvetica,sans-Serif" font-size="12.00">SFRplusPassFail</text>
</g>
<!-- Node2 -->
<g id="node2" class="node"><title>Node2</title>
<g id="a_node2"><a xlink:href="../../de/ddc/structmin_max_entry.html" target="_top" xlink:title="minMaxEntry\&lt; double \&gt;">
<polygon fill="white" stroke="black" points="433,-370.5 433,-391.5 571,-391.5 571,-370.5 433,-370.5"/>
<text text-anchor="middle" x="502" y="-377.9" font-family="Helvetica,sans-Serif" font-size="12.00">minMaxEntry&lt; double &gt;</text>
</a>
</g>
</g>
<!-- Node2&#45;&gt;Node1 -->
<g id="edge1" class="edge"><title>Node2&#45;&gt;Node1</title>
<path fill="none" stroke="#9a32cd" stroke-dasharray="5,2" d="M508.067,-360.53C524.726,-302.793 564.483,-130.897 479,-40 457.596,-17.2401 373.822,-12.1965 317.117,-11.4808"/>
<polygon fill="#9a32cd" stroke="#9a32cd" points="504.682,-359.635 505.174,-370.218 511.389,-361.638 504.682,-359.635"/>
<text text-anchor="start" x="532" y="-199.4" font-family="Helvetica,sans-Serif" font-size="12.00"> Chart_mean_pixel_level</text>
<text text-anchor="middle" x="596.5" y="-186.4" font-family="Helvetica,sans-Serif" font-size="12.00">_bounds</text>
</g>
<!-- Node3 -->
<g id="node3" class="node"><title>Node3</title>
<g id="a_node3"><a xlink:title="STL class. ">
<polygon fill="white" stroke="#bfbfbf" points="269.5,-526.5 269.5,-547.5 336.5,-547.5 336.5,-526.5 269.5,-526.5"/>
<text text-anchor="middle" x="303" y="-533.9" font-family="Helvetica,sans-Serif" font-size="12.00">std::string</text>
</a>
</g>
</g>
<!-- Node3&#45;&gt;Node2 -->
<g id="edge2" class="edge"><title>Node3&#45;&gt;Node2</title>
<path fill="none" stroke="#9a32cd" stroke-dasharray="5,2" d="M325.117,-520.38C330.664,-516.391 336.579,-512.077 342,-508 398.231,-465.707 463.722,-413.029 490.099,-391.668"/>
<polygon fill="#9a32cd" stroke="#9a32cd" points="322.931,-517.64 316.826,-526.299 326.998,-523.337 322.931,-517.64"/>
<text text-anchor="middle" x="452.5" y="-449.9" font-family="Helvetica,sans-Serif" font-size="12.00"> data_type</text>
</g>
<!-- Node5 -->
<g id="node5" class="node"><title>Node5</title>
<g id="a_node5"><a xlink:href="../../de/ddc/structmin_max_entry.html" target="_top" xlink:title="A templated struct that contains all information for a single min&#45;max variable pair. ">
<polygon fill="white" stroke="black" points="502,-442.5 502,-463.5 612,-463.5 612,-442.5 502,-442.5"/>
<text text-anchor="middle" x="557" y="-449.9" font-family="Helvetica,sans-Serif" font-size="12.00">minMaxEntry&lt; T &gt;</text>
</a>
</g>
</g>
<!-- Node3&#45;&gt;Node5 -->
<g id="edge5" class="edge"><title>Node3&#45;&gt;Node5</title>
<path fill="none" stroke="#9a32cd" stroke-dasharray="5,2" d="M346.91,-533.484C395.44,-530.026 469.936,-522.511 494,-508 506.256,-500.609 502.559,-491.789 513,-482 520.662,-474.816 530.414,-468.393 538.79,-463.517"/>
<polygon fill="#9a32cd" stroke="#9a32cd" points="346.416,-530.009 336.677,-534.18 346.891,-536.993 346.416,-530.009"/>
<text text-anchor="middle" x="540.5" y="-491.9" font-family="Helvetica,sans-Serif" font-size="12.00"> data_type</text>
</g>
<!-- Node7 -->
<g id="node7" class="node"><title>Node7</title>
<g id="a_node7"><a xlink:href="../../d3/d96/structentry.html" target="_top" xlink:title="entry\&lt; CString \&gt;">
<polygon fill="white" stroke="black" points="-0.5,-370.5 -0.5,-391.5 100.5,-391.5 100.5,-370.5 -0.5,-370.5"/>
<text text-anchor="middle" x="50" y="-377.9" font-family="Helvetica,sans-Serif" font-size="12.00">entry&lt; CString &gt;</text>
</a>
</g>
</g>
<!-- Node3&#45;&gt;Node7 -->
<g id="edge8" class="edge"><title>Node3&#45;&gt;Node7</title>
<path fill="none" stroke="#9a32cd" stroke-dasharray="5,2" d="M259.192,-530.035C215.496,-521.995 148.867,-503.792 106,-464 82.2467,-441.951 63.1799,-408.063 54.7266,-391.616"/>
<polygon fill="#9a32cd" stroke="#9a32cd" points="258.784,-533.516 269.235,-531.779 259.981,-526.619 258.784,-533.516"/>
<text text-anchor="middle" x="133.5" y="-449.9" font-family="Helvetica,sans-Serif" font-size="12.00"> data_type</text>
</g>
<!-- Node8 -->
<g id="node8" class="node"><title>Node8</title>
<g id="a_node8"><a xlink:href="../../d3/d96/structentry.html" target="_top" xlink:title="A templated struct that contains all information for a single, scalar pass/fail variable. ">
<polygon fill="white" stroke="black" points="234,-442.5 234,-463.5 302,-463.5 302,-442.5 234,-442.5"/>
<text text-anchor="middle" x="268" y="-449.9" font-family="Helvetica,sans-Serif" font-size="12.00">entry&lt; T &gt;</text>
</a>
</g>
</g>
<!-- Node3&#45;&gt;Node8 -->
<g id="edge10" class="edge"><title>Node3&#45;&gt;Node8</title>
<path fill="none" stroke="#9a32cd" stroke-dasharray="5,2" d="M278.127,-520.022C274.451,-516.521 271.173,-512.497 269,-508 262.145,-493.817 263.857,-474.993 265.843,-463.728"/>
<polygon fill="#9a32cd" stroke="#9a32cd" points="276.049,-522.844 286.009,-526.456 280.476,-517.421 276.049,-522.844"/>
<text text-anchor="middle" x="296.5" y="-491.9" font-family="Helvetica,sans-Serif" font-size="12.00"> data_type</text>
</g>
<!-- Node9 -->
<g id="node9" class="node"><title>Node9</title>
<g id="a_node9"><a xlink:href="../../d3/d96/structentry.html" target="_top" xlink:title="entry\&lt; double \&gt;">
<polygon fill="white" stroke="black" points="136,-370.5 136,-391.5 232,-391.5 232,-370.5 136,-370.5"/>
<text text-anchor="middle" x="184" y="-377.9" font-family="Helvetica,sans-Serif" font-size="12.00">entry&lt; double &gt;</text>
</a>
</g>
</g>
<!-- Node3&#45;&gt;Node9 -->
<g id="edge13" class="edge"><title>Node3&#45;&gt;Node9</title>
<path fill="none" stroke="#9a32cd" stroke-dasharray="5,2" d="M259.675,-525.254C228.725,-515.066 189.281,-496.363 170,-464 156.177,-440.799 170.019,-407.739 178.485,-391.603"/>
<polygon fill="#9a32cd" stroke="#9a32cd" points="258.801,-528.648 269.389,-528.27 260.876,-521.963 258.801,-528.648"/>
<text text-anchor="middle" x="197.5" y="-449.9" font-family="Helvetica,sans-Serif" font-size="12.00"> data_type</text>
</g>
<!-- Node10 -->
<g id="node10" class="node"><title>Node10</title>
<g id="a_node10"><a xlink:href="../../d3/d96/structentry.html" target="_top" xlink:title="entry\&lt; long \&gt;">
<polygon fill="white" stroke="black" points="296.5,-370.5 296.5,-391.5 379.5,-391.5 379.5,-370.5 296.5,-370.5"/>
<text text-anchor="middle" x="338" y="-377.9" font-family="Helvetica,sans-Serif" font-size="12.00">entry&lt; long &gt;</text>
</a>
</g>
</g>
<!-- Node3&#45;&gt;Node10 -->
<g id="edge16" class="edge"><title>Node3&#45;&gt;Node10</title>
<path fill="none" stroke="#9a32cd" stroke-dasharray="5,2" d="M318.329,-518.438C320.555,-515.146 322.574,-511.602 324,-508 340.208,-467.073 339.636,-413.19 338.61,-391.575"/>
<polygon fill="#9a32cd" stroke="#9a32cd" points="315.51,-516.361 312.21,-526.429 321.068,-520.617 315.51,-516.361"/>
<text text-anchor="middle" x="365.5" y="-449.9" font-family="Helvetica,sans-Serif" font-size="12.00"> data_type</text>
</g>
<!-- Node4 -->
<g id="node4" class="node"><title>Node4</title>
<g id="a_node4"><a xlink:title="STL class. ">
<polygon fill="white" stroke="#bfbfbf" points="248.5,-587 248.5,-621 357.5,-621 357.5,-587 248.5,-587"/>
<text text-anchor="start" x="256.5" y="-607.4" font-family="Helvetica,sans-Serif" font-size="12.00">std::basic_string&lt;</text>
<text text-anchor="middle" x="303" y="-594.4" font-family="Helvetica,sans-Serif" font-size="12.00"> char &gt;</text>
</a>
</g>
</g>
<!-- Node4&#45;&gt;Node3 -->
<g id="edge3" class="edge"><title>Node4&#45;&gt;Node3</title>
<path fill="none" stroke="midnightblue" d="M303,-576.722C303,-566.452 303,-555.32 303,-547.639"/>
<polygon fill="midnightblue" stroke="midnightblue" points="299.5,-576.933 303,-586.933 306.5,-576.933 299.5,-576.933"/>
</g>
<!-- Node5&#45;&gt;Node2 -->
<g id="edge4" class="edge"><title>Node5&#45;&gt;Node2</title>
<path fill="none" stroke="orange" stroke-dasharray="5,2" d="M542.982,-434.159C532.361,-420.641 518.174,-402.585 509.583,-391.651"/>
<polygon fill="orange" stroke="orange" points="540.422,-436.566 549.352,-442.267 545.926,-432.241 540.422,-436.566"/>
<text text-anchor="middle" x="564" y="-413.9" font-family="Helvetica,sans-Serif" font-size="12.00"> &lt; double &gt;</text>
</g>
<!-- Node6 -->
<g id="node6" class="node"><title>Node6</title>
<polygon fill="white" stroke="#bfbfbf" points="513.5,-526.5 513.5,-547.5 542.5,-547.5 542.5,-526.5 513.5,-526.5"/>
<text text-anchor="middle" x="528" y="-533.9" font-family="Helvetica,sans-Serif" font-size="12.00">T</text>
</g>
<!-- Node6&#45;&gt;Node5 -->
<g id="edge6" class="edge"><title>Node6&#45;&gt;Node5</title>
<path fill="none" stroke="#9a32cd" stroke-dasharray="5,2" d="M551.772,-526.59C559.658,-522.193 567.553,-516.101 572,-508 579.866,-493.671 570.948,-474.893 563.887,-463.676"/>
<polygon fill="#9a32cd" stroke="#9a32cd" points="550.185,-523.47 542.724,-530.993 553.248,-529.764 550.185,-523.47"/>
<text text-anchor="middle" x="597.5" y="-498.4" font-family="Helvetica,sans-Serif" font-size="12.00"> min_val</text>
<text text-anchor="middle" x="597.5" y="-485.4" font-family="Helvetica,sans-Serif" font-size="12.00">max_val</text>
</g>
<!-- Node6&#45;&gt;Node8 -->
<g id="edge11" class="edge"><title>Node6&#45;&gt;Node8</title>
<path fill="none" stroke="#9a32cd" stroke-dasharray="5,2" d="M503.466,-528.262C455.652,-513.183 350.139,-479.906 298.153,-463.51"/>
<polygon fill="#9a32cd" stroke="#9a32cd" points="502.687,-531.686 513.276,-531.356 504.792,-525.011 502.687,-531.686"/>
<text text-anchor="middle" x="452.5" y="-491.9" font-family="Helvetica,sans-Serif" font-size="12.00"> value</text>
</g>
<!-- Node7&#45;&gt;Node1 -->
<g id="edge7" class="edge"><title>Node7&#45;&gt;Node1</title>
<path fill="none" stroke="#9a32cd" stroke-dasharray="5,2" d="M41.8492,-360.768C19.0891,-303.696 -38.272,-133.46 44,-40 65.0528,-16.0841 151.122,-11.4222 208.884,-11.0929"/>
<polygon fill="#9a32cd" stroke="#9a32cd" points="38.7418,-362.416 45.7721,-370.342 45.2191,-359.762 38.7418,-362.416"/>
<text text-anchor="middle" x="101.5" y="-192.9" font-family="Helvetica,sans-Serif" font-size="12.00"> passfail_ini_file_date</text>
</g>
<!-- Node8&#45;&gt;Node7 -->
<g id="edge9" class="edge"><title>Node8&#45;&gt;Node7</title>
<path fill="none" stroke="orange" stroke-dasharray="5,2" d="M223.848,-442.795C222.551,-442.527 221.266,-442.261 220,-442 180.903,-433.929 169.668,-437.221 132,-424 107.702,-415.471 81.5331,-401.058 65.4574,-391.535"/>
<polygon fill="orange" stroke="orange" points="223.412,-446.279 233.915,-444.883 224.834,-439.425 223.412,-446.279"/>
<text text-anchor="middle" x="163.5" y="-413.9" font-family="Helvetica,sans-Serif" font-size="12.00"> &lt; CString &gt;</text>
</g>
<!-- Node8&#45;&gt;Node9 -->
<g id="edge14" class="edge"><title>Node8&#45;&gt;Node9</title>
<path fill="none" stroke="orange" stroke-dasharray="5,2" d="M231.008,-438.035C223.554,-434.191 216.134,-429.524 210,-424 199.931,-414.933 192.387,-401.059 188.087,-391.766"/>
<polygon fill="orange" stroke="orange" points="229.837,-441.353 240.374,-442.468 232.832,-435.026 229.837,-441.353"/>
<text text-anchor="middle" x="239" y="-413.9" font-family="Helvetica,sans-Serif" font-size="12.00"> &lt; double &gt;</text>
</g>
<!-- Node8&#45;&gt;Node10 -->
<g id="edge17" class="edge"><title>Node8&#45;&gt;Node10</title>
<path fill="none" stroke="orange" stroke-dasharray="5,2" d="M269.596,-432.273C271.068,-424.628 273.835,-416.233 279,-410 285.8,-401.793 295.561,-395.838 305.192,-391.588"/>
<polygon fill="orange" stroke="orange" points="266.114,-431.904 268.261,-442.279 273.053,-432.83 266.114,-431.904"/>
<text text-anchor="middle" x="301.5" y="-413.9" font-family="Helvetica,sans-Serif" font-size="12.00"> &lt; long &gt;</text>
</g>
<!-- Node9&#45;&gt;Node1 -->
<g id="edge12" class="edge"><title>Node9&#45;&gt;Node1</title>
<path fill="none" stroke="#9a32cd" stroke-dasharray="5,2" d="M180.901,-360.255C171.194,-295.613 144.15,-91.5217 181,-40 187.739,-30.5785 197.842,-24.2915 208.676,-20.1057"/>
<polygon fill="#9a32cd" stroke="#9a32cd" points="177.47,-360.973 182.444,-370.327 184.389,-359.912 177.47,-360.973"/>
<text text-anchor="middle" x="249" y="-342.4" font-family="Helvetica,sans-Serif" font-size="12.00"> Rotation_degrees_max</text>
<text text-anchor="start" x="181" y="-329.4" font-family="Helvetica,sans-Serif" font-size="12.00">Secondary_readout_1</text>
<text text-anchor="middle" x="249" y="-316.4" font-family="Helvetica,sans-Serif" font-size="12.00">_outer_min_min</text>
<text text-anchor="start" x="181" y="-303.4" font-family="Helvetica,sans-Serif" font-size="12.00">Secondary_readout_2</text>
<text text-anchor="middle" x="249" y="-290.4" font-family="Helvetica,sans-Serif" font-size="12.00">_outer_min_min</text>
<text text-anchor="start" x="181" y="-277.4" font-family="Helvetica,sans-Serif" font-size="12.00">Secondary_readout_2</text>
<text text-anchor="middle" x="249" y="-264.4" font-family="Helvetica,sans-Serif" font-size="12.00">_outer_mean_min</text>
<text text-anchor="start" x="181" y="-251.4" font-family="Helvetica,sans-Serif" font-size="12.00">Secondary_readout_1</text>
<text text-anchor="middle" x="249" y="-238.4" font-family="Helvetica,sans-Serif" font-size="12.00">_outer_mean_min</text>
<text text-anchor="start" x="181" y="-225.4" font-family="Helvetica,sans-Serif" font-size="12.00">Secondary_readout_2</text>
<text text-anchor="start" x="181" y="-212.4" font-family="Helvetica,sans-Serif" font-size="12.00">_outer_quadrant_delta</text>
<text text-anchor="middle" x="249" y="-199.4" font-family="Helvetica,sans-Serif" font-size="12.00">_max</text>
<text text-anchor="start" x="181" y="-186.4" font-family="Helvetica,sans-Serif" font-size="12.00">Secondary_readout</text>
<text text-anchor="start" x="181" y="-173.4" font-family="Helvetica,sans-Serif" font-size="12.00">_1_outer_quadrant_delta</text>
<text text-anchor="middle" x="249" y="-160.4" font-family="Helvetica,sans-Serif" font-size="12.00">_max</text>
<text text-anchor="start" x="181" y="-147.4" font-family="Helvetica,sans-Serif" font-size="12.00">Secondary_readout</text>
<text text-anchor="start" x="181" y="-134.4" font-family="Helvetica,sans-Serif" font-size="12.00">_2_outer_quadrant_mean</text>
<text text-anchor="middle" x="249" y="-121.4" font-family="Helvetica,sans-Serif" font-size="12.00">_min_min</text>
<text text-anchor="start" x="181" y="-108.4" font-family="Helvetica,sans-Serif" font-size="12.00">High_pixel_saturation</text>
<text text-anchor="middle" x="249" y="-95.4" font-family="Helvetica,sans-Serif" font-size="12.00">_fraction_max</text>
<text text-anchor="start" x="181" y="-82.4" font-family="Helvetica,sans-Serif" font-size="12.00">Secondary_readout_1</text>
<text text-anchor="start" x="181" y="-69.4" font-family="Helvetica,sans-Serif" font-size="12.00">_outer_quadrant_mean</text>
<text text-anchor="middle" x="249" y="-56.4" font-family="Helvetica,sans-Serif" font-size="12.00">_min_min</text>
<text text-anchor="middle" x="249" y="-43.4" font-family="Helvetica,sans-Serif" font-size="12.00">...</text>
</g>
<!-- Node10&#45;&gt;Node1 -->
<g id="edge15" class="edge"><title>Node10&#45;&gt;Node1</title>
<path fill="none" stroke="#9a32cd" stroke-dasharray="5,2" d="M338.173,-360.096C338.614,-291.351 338.675,-66.6577 321,-40 315.501,-31.7061 306.815,-25.7948 297.823,-21.6119"/>
<polygon fill="#9a32cd" stroke="#9a32cd" points="334.671,-360.367 338.097,-370.393 341.671,-360.419 334.671,-360.367"/>
<text text-anchor="middle" x="407" y="-238.4" font-family="Helvetica,sans-Serif" font-size="12.00"> upside_down</text>
<text text-anchor="start" x="339" y="-225.4" font-family="Helvetica,sans-Serif" font-size="12.00">Stepchart_expected</text>
<text text-anchor="middle" x="407" y="-212.4" font-family="Helvetica,sans-Serif" font-size="12.00">_detected</text>
<text text-anchor="middle" x="407" y="-199.4" font-family="Helvetica,sans-Serif" font-size="12.00">Bayer_decode</text>
<text text-anchor="middle" x="407" y="-186.4" font-family="Helvetica,sans-Serif" font-size="12.00">Mirrored_chart</text>
<text text-anchor="middle" x="407" y="-173.4" font-family="Helvetica,sans-Serif" font-size="12.00">Color_expected_detected</text>
<text text-anchor="middle" x="407" y="-160.4" font-family="Helvetica,sans-Serif" font-size="12.00">All_Edge_IDs_detected</text>
<text text-anchor="middle" x="407" y="-147.4" font-family="Helvetica,sans-Serif" font-size="12.00">Horizontal_bars_OK_min</text>
</g>
</g>
</svg>
