<?xml version="1.0" encoding="UTF-8" standalone="no"?>
<!DOCTYPE svg PUBLIC "-//W3C//DTD SVG 1.1//EN"
 "http://www.w3.org/Graphics/SVG/1.1/DTD/svg11.dtd">
<!-- Generated by graphviz version 2.34.0 (20130907.0111)
 -->
<!-- Title: Documentation/Operator&#45;Console/Timer.h Pages: 1 -->
<svg width="175pt" height="102pt"
 viewBox="0.00 0.00 175.00 102.00" xmlns="http://www.w3.org/2000/svg" xmlns:xlink="http://www.w3.org/1999/xlink">
<g id="graph0" class="graph" transform="scale(1 1) rotate(0) translate(4 98)">
<title>Documentation/Operator&#45;Console/Timer.h</title>
<polygon fill="white" stroke="white" points="-4,4 -4,-98 171,-98 171,4 -4,4"/>
<!-- Node1 -->
<g id="node1" class="node"><title>Node1</title>
<polygon fill="#bfbfbf" stroke="black" points="10.5,-59 10.5,-93 155.5,-93 155.5,-59 10.5,-59"/>
<text text-anchor="start" x="18.5" y="-79.4" font-family="Helvetica,sans-Serif" font-size="12.00">Documentation/Operator</text>
<text text-anchor="middle" x="83" y="-66.4" font-family="Helvetica,sans-Serif" font-size="12.00">&#45;Console/Timer.h</text>
</g>
<!-- Node2 -->
<g id="node2" class="node"><title>Node2</title>
<polygon fill="white" stroke="#bfbfbf" points="0,-0.5 0,-21.5 74,-21.5 74,-0.5 0,-0.5"/>
<text text-anchor="middle" x="37" y="-7.9" font-family="Helvetica,sans-Serif" font-size="12.00">sys/types.h</text>
</g>
<!-- Node1&#45;&gt;Node2 -->
<g id="edge1" class="edge"><title>Node1&#45;&gt;Node2</title>
<path fill="none" stroke="midnightblue" d="M71.1539,-58.7759C64.6852,-49.9167 56.6634,-38.9303 50.0198,-29.8315"/>
<polygon fill="midnightblue" stroke="midnightblue" points="52.668,-27.523 43.9443,-21.5106 47.0146,-31.6508 52.668,-27.523"/>
</g>
<!-- Node3 -->
<g id="node3" class="node"><title>Node3</title>
<polygon fill="white" stroke="#bfbfbf" points="92.5,-0.5 92.5,-21.5 167.5,-21.5 167.5,-0.5 92.5,-0.5"/>
<text text-anchor="middle" x="130" y="-7.9" font-family="Helvetica,sans-Serif" font-size="12.00">sys/timeb.h</text>
</g>
<!-- Node1&#45;&gt;Node3 -->
<g id="edge2" class="edge"><title>Node1&#45;&gt;Node3</title>
<path fill="none" stroke="midnightblue" d="M95.1037,-58.7759C101.782,-49.8244 110.08,-38.7012 116.909,-29.5478"/>
<polygon fill="midnightblue" stroke="midnightblue" points="119.73,-31.6188 122.905,-21.5106 114.12,-27.433 119.73,-31.6188"/>
</g>
</g>
</svg>
