<?xml version="1.0" encoding="UTF-8" standalone="no"?>
<!DOCTYPE svg PUBLIC "-//W3C//DTD SVG 1.1//EN"
 "http://www.w3.org/Graphics/SVG/1.1/DTD/svg11.dtd">
<!-- Generated by graphviz version 2.34.0 (20130907.0111)
 -->
<!-- Title: CStaticBmp::Update Pages: 1 -->
<svg width="1006pt" height="122pt"
 viewBox="0.00 0.00 1006.00 122.00" xmlns="http://www.w3.org/2000/svg" xmlns:xlink="http://www.w3.org/1999/xlink">
<g id="graph0" class="graph" transform="scale(1 1) rotate(0) translate(4 118)">
<title>CStaticBmp::Update</title>
<polygon fill="white" stroke="white" points="-4,4 -4,-118 1002,-118 1002,4 -4,4"/>
<!-- Node1 -->
<g id="node1" class="node"><title>Node1</title>
<polygon fill="#bfbfbf" stroke="black" points="0.5,-59.5 0.5,-80.5 125.5,-80.5 125.5,-59.5 0.5,-59.5"/>
<text text-anchor="middle" x="63" y="-66.9" font-family="Helvetica,sans-Serif" font-size="12.00">CStaticBmp::Update</text>
</g>
<!-- Node2 -->
<g id="node2" class="node"><title>Node2</title>
<g id="a_node2"><a xlink:href="../../dd/dd1/class_c_operator_console_dlg.html#add79ed364a2fd29eb4dd69f831bd0119" target="_top" xlink:title="Allows the display to be resized after the user changes the image size. ">
<polygon fill="white" stroke="black" points="162,-80 162,-114 296,-114 296,-80 162,-80"/>
<text text-anchor="start" x="170" y="-100.4" font-family="Helvetica,sans-Serif" font-size="12.00">COperatorConsoleDlg</text>
<text text-anchor="middle" x="229" y="-87.4" font-family="Helvetica,sans-Serif" font-size="12.00">::ReInitDialog</text>
</a>
</g>
</g>
<!-- Node1&#45;&gt;Node2 -->
<g id="edge1" class="edge"><title>Node1&#45;&gt;Node2</title>
<path fill="none" stroke="midnightblue" d="M135.624,-81.7917C144.3,-83.2202 153.134,-84.6745 161.729,-86.0895"/>
<polygon fill="midnightblue" stroke="midnightblue" points="135.97,-78.3017 125.534,-80.1306 134.833,-85.2087 135.97,-78.3017"/>
</g>
<!-- Node3 -->
<g id="node3" class="node"><title>Node3</title>
<g id="a_node3"><a xlink:href="../../dd/dd1/class_c_operator_console_dlg.html#a652b4785d94be4b8b18809662edb28bd" target="_top" xlink:title="COperatorConsoleDlg\l::UpdateImage">
<polygon fill="white" stroke="black" points="162,-27 162,-61 296,-61 296,-27 162,-27"/>
<text text-anchor="start" x="170" y="-47.4" font-family="Helvetica,sans-Serif" font-size="12.00">COperatorConsoleDlg</text>
<text text-anchor="middle" x="229" y="-34.4" font-family="Helvetica,sans-Serif" font-size="12.00">::UpdateImage</text>
</a>
</g>
</g>
<!-- Node1&#45;&gt;Node3 -->
<g id="edge2" class="edge"><title>Node1&#45;&gt;Node3</title>
<path fill="none" stroke="midnightblue" d="M135.624,-58.645C144.3,-57.2695 153.134,-55.869 161.729,-54.5064"/>
<polygon fill="midnightblue" stroke="midnightblue" points="134.863,-55.2219 125.534,-60.2446 135.959,-62.1355 134.863,-55.2219"/>
</g>
<!-- Node4 -->
<g id="node4" class="node"><title>Node4</title>
<g id="a_node4"><a xlink:href="../../d3/d9f/class_c_operator_console_app.html#a61fec0ac8bc8938749e977686e37e0dc" target="_top" xlink:title="COperatorConsoleApp\l::UpdateResults">
<polygon fill="white" stroke="black" points="332.5,-27 332.5,-61 469.5,-61 469.5,-27 332.5,-27"/>
<text text-anchor="start" x="340.5" y="-47.4" font-family="Helvetica,sans-Serif" font-size="12.00">COperatorConsoleApp</text>
<text text-anchor="middle" x="401" y="-34.4" font-family="Helvetica,sans-Serif" font-size="12.00">::UpdateResults</text>
</a>
</g>
</g>
<!-- Node3&#45;&gt;Node4 -->
<g id="edge3" class="edge"><title>Node3&#45;&gt;Node4</title>
<path fill="none" stroke="midnightblue" d="M306.303,-44C314.964,-44 323.747,-44 332.287,-44"/>
<polygon fill="midnightblue" stroke="midnightblue" points="306.213,-40.5001 296.213,-44 306.213,-47.5001 306.213,-40.5001"/>
</g>
<!-- Node5 -->
<g id="node5" class="node"><title>Node5</title>
<g id="a_node5"><a xlink:href="../../d3/d9f/class_c_operator_console_app.html#aeed50eef07f7d6350dffd5730793908c" target="_top" xlink:title="Called after MSG_BLEMISH_DONE is received. ">
<polygon fill="white" stroke="black" points="686.5,-53 686.5,-87 823.5,-87 823.5,-53 686.5,-53"/>
<text text-anchor="start" x="694.5" y="-73.4" font-family="Helvetica,sans-Serif" font-size="12.00">COperatorConsoleApp</text>
<text text-anchor="middle" x="755" y="-60.4" font-family="Helvetica,sans-Serif" font-size="12.00">::OnBlemishDone</text>
</a>
</g>
</g>
<!-- Node4&#45;&gt;Node5 -->
<g id="edge4" class="edge"><title>Node4&#45;&gt;Node5</title>
<path fill="none" stroke="midnightblue" d="M479.968,-49.759C541.808,-54.3267 627.357,-60.6457 686.339,-65.0023"/>
<polygon fill="midnightblue" stroke="midnightblue" points="480.1,-46.2593 469.869,-49.0131 479.584,-53.2403 480.1,-46.2593"/>
</g>
<!-- Node7 -->
<g id="node7" class="node"><title>Node7</title>
<g id="a_node7"><a xlink:href="../../d3/d9f/class_c_operator_console_app.html#afcaa58d4a5fb9c7cff5e35ae64e1420c" target="_top" xlink:title="COperatorConsoleApp\l::UpdateResultsSFRplus">
<polygon fill="white" stroke="black" points="506,-3 506,-37 650,-37 650,-3 506,-3"/>
<text text-anchor="start" x="514" y="-23.4" font-family="Helvetica,sans-Serif" font-size="12.00">COperatorConsoleApp</text>
<text text-anchor="middle" x="578" y="-10.4" font-family="Helvetica,sans-Serif" font-size="12.00">::UpdateResultsSFRplus</text>
</a>
</g>
</g>
<!-- Node4&#45;&gt;Node7 -->
<g id="edge6" class="edge"><title>Node4&#45;&gt;Node7</title>
<path fill="none" stroke="midnightblue" d="M479.742,-33.3382C488.399,-32.151 497.185,-30.9461 505.755,-29.7708"/>
<polygon fill="midnightblue" stroke="midnightblue" points="479.091,-29.8946 469.66,-34.721 480.042,-36.8297 479.091,-29.8946"/>
</g>
<!-- Node6 -->
<g id="node6" class="node"><title>Node6</title>
<g id="a_node6"><a xlink:href="../../d3/d9f/class_c_operator_console_app.html#a7041d197c4e6549f2cb7219981b4eec1" target="_top" xlink:title="Intercepts messages of interest before Windows or MFC. ">
<polygon fill="white" stroke="black" points="860,-26 860,-60 998,-60 998,-26 860,-26"/>
<text text-anchor="start" x="868" y="-46.4" font-family="Helvetica,sans-Serif" font-size="12.00">COperatorConsoleApp</text>
<text text-anchor="middle" x="929" y="-33.4" font-family="Helvetica,sans-Serif" font-size="12.00">::PreTranslateMessage</text>
</a>
</g>
</g>
<!-- Node5&#45;&gt;Node6 -->
<g id="edge5" class="edge"><title>Node5&#45;&gt;Node6</title>
<path fill="none" stroke="midnightblue" d="M834.054,-57.7474C842.696,-56.3907 851.446,-55.0171 859.952,-53.682"/>
<polygon fill="midnightblue" stroke="midnightblue" points="833.315,-54.3204 823.979,-59.3289 834.401,-61.2357 833.315,-54.3204"/>
</g>
<!-- Node8 -->
<g id="node8" class="node"><title>Node8</title>
<g id="a_node8"><a xlink:href="../../d3/d9f/class_c_operator_console_app.html#a58fa1716c660b80c55845b79505ff4d6" target="_top" xlink:title="Called after MSG_SFRPLUS_DONE is received. ">
<polygon fill="white" stroke="black" points="686.5,-0 686.5,-34 823.5,-34 823.5,-0 686.5,-0"/>
<text text-anchor="start" x="694.5" y="-20.4" font-family="Helvetica,sans-Serif" font-size="12.00">COperatorConsoleApp</text>
<text text-anchor="middle" x="755" y="-7.4" font-family="Helvetica,sans-Serif" font-size="12.00">::OnSFRplusDone</text>
</a>
</g>
</g>
<!-- Node7&#45;&gt;Node8 -->
<g id="edge7" class="edge"><title>Node7&#45;&gt;Node8</title>
<path fill="none" stroke="midnightblue" d="M660.318,-18.606C669.005,-18.4571 677.773,-18.3068 686.278,-18.161"/>
<polygon fill="midnightblue" stroke="midnightblue" points="660.118,-15.1088 650.179,-18.7798 660.238,-22.1078 660.118,-15.1088"/>
</g>
<!-- Node8&#45;&gt;Node6 -->
<g id="edge8" class="edge"><title>Node8&#45;&gt;Node6</title>
<path fill="none" stroke="midnightblue" d="M834.054,-28.7988C842.696,-30.1052 851.446,-31.4279 859.952,-32.7136"/>
<polygon fill="midnightblue" stroke="midnightblue" points="834.39,-25.3099 823.979,-27.2759 833.343,-32.2313 834.39,-25.3099"/>
</g>
</g>
</svg>
