<?xml version="1.0" encoding="UTF-8" standalone="no"?>
<!DOCTYPE svg PUBLIC "-//W3C//DTD SVG 1.1//EN"
 "http://www.w3.org/Graphics/SVG/1.1/DTD/svg11.dtd">
<!-- Generated by graphviz version 2.34.0 (20130907.0111)
 -->
<!-- Title: CStaticBmp::Draw Pages: 1 -->
<svg width="462pt" height="42pt"
 viewBox="0.00 0.00 462.00 42.00" xmlns="http://www.w3.org/2000/svg" xmlns:xlink="http://www.w3.org/1999/xlink">
<g id="graph0" class="graph" transform="scale(1 1) rotate(0) translate(4 38)">
<title>CStaticBmp::Draw</title>
<polygon fill="white" stroke="white" points="-4,4 -4,-38 458,-38 458,4 -4,4"/>
<!-- Node1 -->
<g id="node1" class="node"><title>Node1</title>
<polygon fill="#bfbfbf" stroke="black" points="0,-6.5 0,-27.5 114,-27.5 114,-6.5 0,-6.5"/>
<text text-anchor="middle" x="57" y="-13.9" font-family="Helvetica,sans-Serif" font-size="12.00">CStaticBmp::Draw</text>
</g>
<!-- Node2 -->
<g id="node2" class="node"><title>Node2</title>
<g id="a_node2"><a xlink:href="../../dd/dd1/class_c_operator_console_dlg.html#a17ff7053c275c487f63649575d08f8f2" target="_top" xlink:title="COperatorConsoleDlg\l::DrawImage">
<polygon fill="white" stroke="black" points="150,-0 150,-34 284,-34 284,-0 150,-0"/>
<text text-anchor="start" x="158" y="-20.4" font-family="Helvetica,sans-Serif" font-size="12.00">COperatorConsoleDlg</text>
<text text-anchor="middle" x="217" y="-7.4" font-family="Helvetica,sans-Serif" font-size="12.00">::DrawImage</text>
</a>
</g>
</g>
<!-- Node1&#45;&gt;Node2 -->
<g id="edge1" class="edge"><title>Node1&#45;&gt;Node2</title>
<path fill="none" stroke="midnightblue" d="M124.301,-17C132.725,-17 141.347,-17 149.77,-17"/>
<polygon fill="midnightblue" stroke="midnightblue" points="124.15,-13.5001 114.15,-17 124.15,-20.5001 124.15,-13.5001"/>
</g>
<!-- Node3 -->
<g id="node3" class="node"><title>Node3</title>
<g id="a_node3"><a xlink:href="../../dd/dd1/class_c_operator_console_dlg.html#a178c3166b8fb2245ba86bbafbb906787" target="_top" xlink:title="COperatorConsoleDlg\l::OnDrawItem">
<polygon fill="white" stroke="black" points="320,-0 320,-34 454,-34 454,-0 320,-0"/>
<text text-anchor="start" x="328" y="-20.4" font-family="Helvetica,sans-Serif" font-size="12.00">COperatorConsoleDlg</text>
<text text-anchor="middle" x="387" y="-7.4" font-family="Helvetica,sans-Serif" font-size="12.00">::OnDrawItem</text>
</a>
</g>
</g>
<!-- Node2&#45;&gt;Node3 -->
<g id="edge2" class="edge"><title>Node2&#45;&gt;Node3</title>
<path fill="none" stroke="midnightblue" d="M294.595,-17C303.013,-17 311.532,-17 319.809,-17"/>
<polygon fill="midnightblue" stroke="midnightblue" points="294.398,-13.5001 284.398,-17 294.398,-20.5001 294.398,-13.5001"/>
</g>
</g>
</svg>
