<?xml version="1.0" encoding="UTF-8" standalone="no"?>
<!DOCTYPE svg PUBLIC "-//W3C//DTD SVG 1.1//EN"
 "http://www.w3.org/Graphics/SVG/1.1/DTD/svg11.dtd">
<!-- Generated by graphviz version 2.34.0 (20130907.0111)
 -->
<!-- Title: JSON/JSONAllocator.cpp Pages: 1 -->
<svg width="158pt" height="146pt"
 viewBox="0.00 0.00 158.00 146.00" xmlns="http://www.w3.org/2000/svg" xmlns:xlink="http://www.w3.org/1999/xlink">
<g id="graph0" class="graph" transform="scale(1 1) rotate(0) translate(4 142)">
<title>JSON/JSONAllocator.cpp</title>
<polygon fill="white" stroke="white" points="-4,4 -4,-142 154,-142 154,4 -4,4"/>
<!-- Node1 -->
<g id="node1" class="node"><title>Node1</title>
<polygon fill="#bfbfbf" stroke="black" points="-0.5,-116.5 -0.5,-137.5 150.5,-137.5 150.5,-116.5 -0.5,-116.5"/>
<text text-anchor="middle" x="75" y="-123.9" font-family="Helvetica,sans-Serif" font-size="12.00">JSON/JSONAllocator.cpp</text>
</g>
<!-- Node2 -->
<g id="node2" class="node"><title>Node2</title>
<g id="a_node2"><a xlink:href="../../d9/dcf/_j_s_o_n_2_j_s_o_n_allocator_8h.html" target="_top" xlink:title="JSONAllocator.h">
<polygon fill="white" stroke="black" points="23.5,-58.5 23.5,-79.5 126.5,-79.5 126.5,-58.5 23.5,-58.5"/>
<text text-anchor="middle" x="75" y="-65.9" font-family="Helvetica,sans-Serif" font-size="12.00">JSONAllocator.h</text>
</a>
</g>
</g>
<!-- Node1&#45;&gt;Node2 -->
<g id="edge1" class="edge"><title>Node1&#45;&gt;Node2</title>
<path fill="none" stroke="midnightblue" d="M75,-116.246C75,-108.938 75,-98.6944 75,-89.7046"/>
<polygon fill="midnightblue" stroke="midnightblue" points="78.5001,-89.6426 75,-79.6427 71.5001,-89.6427 78.5001,-89.6426"/>
</g>
<!-- Node3 -->
<g id="node3" class="node"><title>Node3</title>
<g id="a_node3"><a xlink:href="../../dc/d13/_j_s_o_n_options_8h.html" target="_top" xlink:title="../JSONOptions.h">
<polygon fill="white" stroke="black" points="21.5,-0.5 21.5,-21.5 128.5,-21.5 128.5,-0.5 21.5,-0.5"/>
<text text-anchor="middle" x="75" y="-7.9" font-family="Helvetica,sans-Serif" font-size="12.00">../JSONOptions.h</text>
</a>
</g>
</g>
<!-- Node2&#45;&gt;Node3 -->
<g id="edge2" class="edge"><title>Node2&#45;&gt;Node3</title>
<path fill="none" stroke="midnightblue" d="M75,-58.2455C75,-50.9382 75,-40.6944 75,-31.7046"/>
<polygon fill="midnightblue" stroke="midnightblue" points="78.5001,-31.6426 75,-21.6427 71.5001,-31.6427 78.5001,-31.6426"/>
</g>
</g>
</svg>
