<?xml version="1.0" encoding="UTF-8" standalone="no"?>
<!DOCTYPE svg PUBLIC "-//W3C//DTD SVG 1.1//EN"
 "http://www.w3.org/Graphics/SVG/1.1/DTD/svg11.dtd">
<!-- Generated by graphviz version 2.34.0 (20130907.0111)
 -->
<!-- Title: CriticalCString Pages: 1 -->
<svg width="110pt" height="88pt"
 viewBox="0.00 0.00 110.00 88.00" xmlns="http://www.w3.org/2000/svg" xmlns:xlink="http://www.w3.org/1999/xlink">
<g id="graph0" class="graph" transform="scale(1 1) rotate(0) translate(4 84)">
<title>CriticalCString</title>
<polygon fill="white" stroke="white" points="-4,4 -4,-84 106,-84 106,4 -4,4"/>
<!-- Node1 -->
<g id="node1" class="node"><title>Node1</title>
<polygon fill="#bfbfbf" stroke="black" points="4.5,-0.5 4.5,-21.5 97.5,-21.5 97.5,-0.5 4.5,-0.5"/>
<text text-anchor="middle" x="51" y="-7.9" font-family="Helvetica,sans-Serif" font-size="12.00">CriticalCString</text>
</g>
<!-- Node2 -->
<g id="node2" class="node"><title>Node2</title>
<polygon fill="white" stroke="#bfbfbf" points="0,-58.5 0,-79.5 102,-79.5 102,-58.5 0,-58.5"/>
<text text-anchor="middle" x="51" y="-65.9" font-family="Helvetica,sans-Serif" font-size="12.00">CCriticalSection</text>
</g>
<!-- Node2&#45;&gt;Node1 -->
<g id="edge1" class="edge"><title>Node2&#45;&gt;Node1</title>
<path fill="none" stroke="midnightblue" d="M44.5113,-48.1575C43.919,-39.155 44.3335,-28.9199 45.7549,-21.6427"/>
<polygon fill="midnightblue" stroke="midnightblue" points="41.0561,-48.739 45.7332,-58.2455 48.0053,-47.8972 41.0561,-48.739"/>
</g>
<!-- Node2&#45;&gt;Node1 -->
<g id="edge2" class="edge"><title>Node2&#45;&gt;Node1</title>
<path fill="none" stroke="midnightblue" d="M57.4887,-48.1575C58.081,-39.155 57.6665,-28.9199 56.2451,-21.6427"/>
<polygon fill="midnightblue" stroke="midnightblue" points="53.9947,-47.8972 56.2668,-58.2455 60.9439,-48.739 53.9947,-47.8972"/>
</g>
</g>
</svg>
