<?xml version="1.0" encoding="UTF-8" standalone="no"?>
<!DOCTYPE svg PUBLIC "-//W3C//DTD SVG 1.1//EN"
 "http://www.w3.org/Graphics/SVG/1.1/DTD/svg11.dtd">
<!-- Generated by graphviz version 2.34.0 (20130907.0111)
 -->
<!-- Title: resource.h Pages: 1 -->
<svg width="1061pt" height="262pt"
 viewBox="0.00 0.00 1061.00 262.00" xmlns="http://www.w3.org/2000/svg" xmlns:xlink="http://www.w3.org/1999/xlink">
<g id="graph0" class="graph" transform="scale(1 1) rotate(0) translate(4 258)">
<title>resource.h</title>
<polygon fill="white" stroke="white" points="-4,4 -4,-258 1057,-258 1057,4 -4,4"/>
<!-- Node1 -->
<g id="node1" class="node"><title>Node1</title>
<polygon fill="#bfbfbf" stroke="black" points="226.5,-232.5 226.5,-253.5 297.5,-253.5 297.5,-232.5 226.5,-232.5"/>
<text text-anchor="middle" x="262" y="-239.9" font-family="Helvetica,sans-Serif" font-size="12.00">resource.h</text>
</g>
<!-- Node2 -->
<g id="node2" class="node"><title>Node2</title>
<g id="a_node2"><a xlink:href="../../de/d21/_app_thread_8h.html" target="_top" xlink:title="AppThread.h">
<polygon fill="white" stroke="black" points="95,-174.5 95,-195.5 179,-195.5 179,-174.5 95,-174.5"/>
<text text-anchor="middle" x="137" y="-181.9" font-family="Helvetica,sans-Serif" font-size="12.00">AppThread.h</text>
</a>
</g>
</g>
<!-- Node1&#45;&gt;Node2 -->
<g id="edge1" class="edge"><title>Node1&#45;&gt;Node2</title>
<path fill="none" stroke="midnightblue" d="M231.302,-228.247C208.601,-218.077 178.268,-204.488 158.208,-195.501"/>
<polygon fill="midnightblue" stroke="midnightblue" points="229.955,-231.479 240.512,-232.373 232.817,-225.091 229.955,-231.479"/>
</g>
<!-- Node4 -->
<g id="node4" class="node"><title>Node4</title>
<g id="a_node4"><a xlink:href="../../da/de6/_operator_console_8h.html" target="_top" xlink:title="OperatorConsole.h">
<polygon fill="white" stroke="black" points="343,-58.5 343,-79.5 459,-79.5 459,-58.5 343,-58.5"/>
<text text-anchor="middle" x="401" y="-65.9" font-family="Helvetica,sans-Serif" font-size="12.00">OperatorConsole.h</text>
</a>
</g>
</g>
<!-- Node1&#45;&gt;Node4 -->
<g id="edge3" class="edge"><title>Node1&#45;&gt;Node4</title>
<path fill="none" stroke="midnightblue" d="M306.216,-229.171C347.594,-214.54 406.968,-186.176 434,-138 445.301,-117.859 425.466,-93.2712 411.965,-79.8708"/>
<polygon fill="midnightblue" stroke="midnightblue" points="304.978,-225.895 296.637,-232.428 307.231,-232.522 304.978,-225.895"/>
</g>
<!-- Node13 -->
<g id="node13" class="node"><title>Node13</title>
<g id="a_node13"><a xlink:href="../../dc/d44/_modeless_dialog_thread_8h.html" target="_top" xlink:title="ModelessDialogThread.h">
<polygon fill="white" stroke="black" points="142,-116.5 142,-137.5 290,-137.5 290,-116.5 142,-116.5"/>
<text text-anchor="middle" x="216" y="-123.9" font-family="Helvetica,sans-Serif" font-size="12.00">ModelessDialogThread.h</text>
</a>
</g>
</g>
<!-- Node1&#45;&gt;Node13 -->
<g id="edge13" class="edge"><title>Node1&#45;&gt;Node13</title>
<path fill="none" stroke="midnightblue" d="M254.299,-222.915C244.378,-198.328 227.508,-156.521 219.912,-137.695"/>
<polygon fill="midnightblue" stroke="midnightblue" points="251.09,-224.317 258.078,-232.28 257.582,-221.697 251.09,-224.317"/>
</g>
<!-- Node15 -->
<g id="node15" class="node"><title>Node15</title>
<g id="a_node15"><a xlink:href="../../dc/d1b/_text_dlg_8h.html" target="_top" xlink:title="TextDlg.h">
<polygon fill="white" stroke="black" points="265.5,-174.5 265.5,-195.5 330.5,-195.5 330.5,-174.5 265.5,-174.5"/>
<text text-anchor="middle" x="298" y="-181.9" font-family="Helvetica,sans-Serif" font-size="12.00">TextDlg.h</text>
</a>
</g>
</g>
<!-- Node1&#45;&gt;Node15 -->
<g id="edge16" class="edge"><title>Node1&#45;&gt;Node15</title>
<path fill="none" stroke="midnightblue" d="M273.81,-223.63C279.814,-214.289 286.866,-203.32 291.801,-195.643"/>
<polygon fill="midnightblue" stroke="midnightblue" points="270.734,-221.941 268.271,-232.246 276.622,-225.726 270.734,-221.941"/>
</g>
<!-- Node3 -->
<g id="node3" class="node"><title>Node3</title>
<g id="a_node3"><a xlink:href="../../d3/d22/_app_thread_8cpp.html" target="_top" xlink:title="AppThread.cpp">
<polygon fill="white" stroke="black" points="0,-0.5 0,-21.5 98,-21.5 98,-0.5 0,-0.5"/>
<text text-anchor="middle" x="49" y="-7.9" font-family="Helvetica,sans-Serif" font-size="12.00">AppThread.cpp</text>
</a>
</g>
</g>
<!-- Node2&#45;&gt;Node3 -->
<g id="edge2" class="edge"><title>Node2&#45;&gt;Node3</title>
<path fill="none" stroke="midnightblue" d="M127.361,-165.161C108.652,-128.593 68.0182,-49.172 53.9287,-21.6335"/>
<polygon fill="midnightblue" stroke="midnightblue" points="124.346,-166.951 132.017,-174.26 130.578,-163.763 124.346,-166.951"/>
</g>
<!-- Node4&#45;&gt;Node3 -->
<g id="edge4" class="edge"><title>Node4&#45;&gt;Node3</title>
<path fill="none" stroke="midnightblue" d="M332.898,-57.6512C273.279,-48.5184 184.345,-34.7177 107,-22 104.076,-21.5192 101.07,-21.019 98.0387,-20.51"/>
<polygon fill="midnightblue" stroke="midnightblue" points="332.528,-61.1353 342.942,-59.1882 333.587,-54.2158 332.528,-61.1353"/>
</g>
<!-- Node5 -->
<g id="node5" class="node"><title>Node5</title>
<g id="a_node5"><a xlink:href="../../d6/df7/_critical_buf_8cpp.html" target="_top" xlink:title="CriticalBuf.cpp">
<polygon fill="white" stroke="black" points="960.5,-0.5 960.5,-21.5 1053.5,-21.5 1053.5,-0.5 960.5,-0.5"/>
<text text-anchor="middle" x="1007" y="-7.9" font-family="Helvetica,sans-Serif" font-size="12.00">CriticalBuf.cpp</text>
</a>
</g>
</g>
<!-- Node4&#45;&gt;Node5 -->
<g id="edge5" class="edge"><title>Node4&#45;&gt;Node5</title>
<path fill="none" stroke="midnightblue" d="M469.472,-64.3315C573.721,-58.2819 778.367,-44.5828 951,-22 954.036,-21.6029 957.157,-21.1553 960.3,-20.6753"/>
<polygon fill="midnightblue" stroke="midnightblue" points="469.179,-60.8424 459.396,-64.9104 469.58,-67.8309 469.179,-60.8424"/>
</g>
<!-- Node6 -->
<g id="node6" class="node"><title>Node6</title>
<g id="a_node6"><a xlink:href="../../d8/d53/_image_test_8cpp.html" target="_top" xlink:title="ImageTest.cpp">
<polygon fill="white" stroke="black" points="116,-0.5 116,-21.5 210,-21.5 210,-0.5 116,-0.5"/>
<text text-anchor="middle" x="163" y="-7.9" font-family="Helvetica,sans-Serif" font-size="12.00">ImageTest.cpp</text>
</a>
</g>
</g>
<!-- Node4&#45;&gt;Node6 -->
<g id="edge6" class="edge"><title>Node4&#45;&gt;Node6</title>
<path fill="none" stroke="midnightblue" d="M350.478,-56.1125C306.659,-45.8021 244.061,-31.0733 203.476,-21.5237"/>
<polygon fill="midnightblue" stroke="midnightblue" points="349.821,-59.5534 360.357,-58.4369 351.424,-52.7395 349.821,-59.5534"/>
</g>
<!-- Node7 -->
<g id="node7" class="node"><title>Node7</title>
<g id="a_node7"><a xlink:href="../../df/d0a/main_8cpp.html" target="_top" xlink:title="main.cpp">
<polygon fill="white" stroke="black" points="228.5,-0.5 228.5,-21.5 293.5,-21.5 293.5,-0.5 228.5,-0.5"/>
<text text-anchor="middle" x="261" y="-7.9" font-family="Helvetica,sans-Serif" font-size="12.00">main.cpp</text>
</a>
</g>
</g>
<!-- Node4&#45;&gt;Node7 -->
<g id="edge7" class="edge"><title>Node4&#45;&gt;Node7</title>
<path fill="none" stroke="midnightblue" d="M367.635,-54.6541C342.105,-44.4419 307.522,-30.6086 284.753,-21.5011"/>
<polygon fill="midnightblue" stroke="midnightblue" points="366.348,-57.909 376.933,-58.3733 368.948,-51.4096 366.348,-57.909"/>
</g>
<!-- Node8 -->
<g id="node8" class="node"><title>Node8</title>
<g id="a_node8"><a xlink:href="../../de/da2/_operator_console_8cpp.html" target="_top" xlink:title="OperatorConsole.cpp">
<polygon fill="white" stroke="black" points="311.5,-0.5 311.5,-21.5 440.5,-21.5 440.5,-0.5 311.5,-0.5"/>
<text text-anchor="middle" x="376" y="-7.9" font-family="Helvetica,sans-Serif" font-size="12.00">OperatorConsole.cpp</text>
</a>
</g>
</g>
<!-- Node4&#45;&gt;Node8 -->
<g id="edge8" class="edge"><title>Node4&#45;&gt;Node8</title>
<path fill="none" stroke="midnightblue" d="M392.537,-49.0437C388.425,-39.8331 383.661,-29.1598 380.305,-21.6427"/>
<polygon fill="midnightblue" stroke="midnightblue" points="389.373,-50.541 396.645,-58.2455 395.765,-47.6874 389.373,-50.541"/>
</g>
<!-- Node9 -->
<g id="node9" class="node"><title>Node9</title>
<g id="a_node9"><a xlink:href="../../d8/d29/_operator_console_dlg_8cpp.html" target="_top" xlink:title="OperatorConsoleDlg.cpp">
<polygon fill="white" stroke="black" points="458.5,-0.5 458.5,-21.5 605.5,-21.5 605.5,-0.5 458.5,-0.5"/>
<text text-anchor="middle" x="532" y="-7.9" font-family="Helvetica,sans-Serif" font-size="12.00">OperatorConsoleDlg.cpp</text>
</a>
</g>
</g>
<!-- Node4&#45;&gt;Node9 -->
<g id="edge9" class="edge"><title>Node4&#45;&gt;Node9</title>
<path fill="none" stroke="midnightblue" d="M432.853,-54.3833C456.678,-44.1985 488.657,-30.5284 509.774,-21.5011"/>
<polygon fill="midnightblue" stroke="midnightblue" points="431.339,-51.2242 423.52,-58.3733 434.091,-57.6608 431.339,-51.2242"/>
</g>
<!-- Node10 -->
<g id="node10" class="node"><title>Node10</title>
<g id="a_node10"><a xlink:href="../../d0/d57/_pass_fail_8cpp.html" target="_top" xlink:title="PassFail.cpp">
<polygon fill="white" stroke="black" points="624,-0.5 624,-21.5 710,-21.5 710,-0.5 624,-0.5"/>
<text text-anchor="middle" x="667" y="-7.9" font-family="Helvetica,sans-Serif" font-size="12.00">PassFail.cpp</text>
</a>
</g>
</g>
<!-- Node4&#45;&gt;Node10 -->
<g id="edge10" class="edge"><title>Node4&#45;&gt;Node10</title>
<path fill="none" stroke="midnightblue" d="M456.387,-56.3397C506.203,-45.8521 578.365,-30.6601 623.965,-21.06"/>
<polygon fill="midnightblue" stroke="midnightblue" points="455.489,-52.9518 446.425,-58.4369 456.931,-59.8016 455.489,-52.9518"/>
</g>
<!-- Node11 -->
<g id="node11" class="node"><title>Node11</title>
<g id="a_node11"><a xlink:href="../../da/d46/_password_dialog_8cpp.html" target="_top" xlink:title="PasswordDialog.cpp">
<polygon fill="white" stroke="black" points="728,-0.5 728,-21.5 854,-21.5 854,-0.5 728,-0.5"/>
<text text-anchor="middle" x="791" y="-7.9" font-family="Helvetica,sans-Serif" font-size="12.00">PasswordDialog.cpp</text>
</a>
</g>
</g>
<!-- Node4&#45;&gt;Node11 -->
<g id="edge11" class="edge"><title>Node4&#45;&gt;Node11</title>
<path fill="none" stroke="midnightblue" d="M469.389,-58.1801C542.289,-47.7124 656.777,-31.273 727.677,-21.0925"/>
<polygon fill="midnightblue" stroke="midnightblue" points="468.788,-54.7304 459.387,-59.6162 469.783,-61.6593 468.788,-54.7304"/>
</g>
<!-- Node12 -->
<g id="node12" class="node"><title>Node12</title>
<g id="a_node12"><a xlink:href="../../d5/d27/_setup_8cpp.html" target="_top" xlink:title="Setup.cpp">
<polygon fill="white" stroke="black" points="872,-0.5 872,-21.5 942,-21.5 942,-0.5 872,-0.5"/>
<text text-anchor="middle" x="907" y="-7.9" font-family="Helvetica,sans-Serif" font-size="12.00">Setup.cpp</text>
</a>
</g>
</g>
<!-- Node4&#45;&gt;Node12 -->
<g id="edge12" class="edge"><title>Node4&#45;&gt;Node12</title>
<path fill="none" stroke="midnightblue" d="M469.411,-63.8553C559.899,-57.7651 724.152,-44.6007 863,-22 865.783,-21.5469 868.654,-21.0235 871.533,-20.4585"/>
<polygon fill="midnightblue" stroke="midnightblue" points="469.03,-60.3729 459.284,-64.5281 469.494,-67.3575 469.03,-60.3729"/>
</g>
<!-- Node13&#45;&gt;Node4 -->
<g id="edge14" class="edge"><title>Node13&#45;&gt;Node4</title>
<path fill="none" stroke="midnightblue" d="M257.44,-113.456C291.399,-103.176 338.73,-88.8494 369.612,-79.5011"/>
<polygon fill="midnightblue" stroke="midnightblue" points="256.36,-110.126 247.803,-116.373 258.388,-116.826 256.36,-110.126"/>
</g>
<!-- Node14 -->
<g id="node14" class="node"><title>Node14</title>
<g id="a_node14"><a xlink:href="../../d4/d90/_modeless_dialog_thread_8cpp.html" target="_top" xlink:title="ModelessDialogThread.cpp">
<polygon fill="white" stroke="black" points="135.5,-58.5 135.5,-79.5 296.5,-79.5 296.5,-58.5 135.5,-58.5"/>
<text text-anchor="middle" x="216" y="-65.9" font-family="Helvetica,sans-Serif" font-size="12.00">ModelessDialogThread.cpp</text>
</a>
</g>
</g>
<!-- Node13&#45;&gt;Node14 -->
<g id="edge15" class="edge"><title>Node13&#45;&gt;Node14</title>
<path fill="none" stroke="midnightblue" d="M216,-106.158C216,-97.155 216,-86.9199 216,-79.6427"/>
<polygon fill="midnightblue" stroke="midnightblue" points="212.5,-106.246 216,-116.246 219.5,-106.246 212.5,-106.246"/>
</g>
<!-- Node15&#45;&gt;Node4 -->
<g id="edge18" class="edge"><title>Node15&#45;&gt;Node4</title>
<path fill="none" stroke="midnightblue" d="M306.204,-164.95C313.046,-150.477 323.793,-130.634 337,-116 350.568,-100.966 369.838,-87.9402 383.683,-79.6258"/>
<polygon fill="midnightblue" stroke="midnightblue" points="302.867,-163.834 301.931,-174.387 309.244,-166.721 302.867,-163.834"/>
</g>
<!-- Node15&#45;&gt;Node13 -->
<g id="edge17" class="edge"><title>Node15&#45;&gt;Node13</title>
<path fill="none" stroke="midnightblue" d="M275.289,-168.49C260.821,-158.61 242.532,-146.119 230.12,-137.643"/>
<polygon fill="midnightblue" stroke="midnightblue" points="273.485,-171.496 283.717,-174.246 277.433,-165.716 273.485,-171.496"/>
</g>
<!-- Node16 -->
<g id="node16" class="node"><title>Node16</title>
<g id="a_node16"><a xlink:href="../../d6/d58/_text_dlg_8cpp.html" target="_top" xlink:title="TextDlg.cpp">
<polygon fill="white" stroke="black" points="346.5,-116.5 346.5,-137.5 425.5,-137.5 425.5,-116.5 346.5,-116.5"/>
<text text-anchor="middle" x="386" y="-123.9" font-family="Helvetica,sans-Serif" font-size="12.00">TextDlg.cpp</text>
</a>
</g>
</g>
<!-- Node15&#45;&gt;Node16 -->
<g id="edge19" class="edge"><title>Node15&#45;&gt;Node16</title>
<path fill="none" stroke="midnightblue" d="M321.934,-168.769C337.528,-158.846 357.401,-146.199 370.847,-137.643"/>
<polygon fill="midnightblue" stroke="midnightblue" points="319.886,-165.924 313.328,-174.246 323.644,-171.83 319.886,-165.924"/>
</g>
</g>
</svg>
