<?xml version="1.0" encoding="UTF-8" standalone="no"?>
<!DOCTYPE svg PUBLIC "-//W3C//DTD SVG 1.1//EN"
 "http://www.w3.org/Graphics/SVG/1.1/DTD/svg11.dtd">
<!-- Generated by graphviz version 2.34.0 (20130907.0111)
 -->
<!-- Title: Documentation/Operator&#45;Console/ResizeDlg.h Pages: 1 -->
<svg width="367pt" height="116pt"
 viewBox="0.00 0.00 367.00 116.00" xmlns="http://www.w3.org/2000/svg" xmlns:xlink="http://www.w3.org/1999/xlink">
<g id="graph0" class="graph" transform="scale(1 1) rotate(0) translate(4 112)">
<title>Documentation/Operator&#45;Console/ResizeDlg.h</title>
<polygon fill="white" stroke="white" points="-4,4 -4,-112 363,-112 363,4 -4,4"/>
<!-- Node1 -->
<g id="node1" class="node"><title>Node1</title>
<polygon fill="#bfbfbf" stroke="black" points="119.5,-73 119.5,-107 264.5,-107 264.5,-73 119.5,-73"/>
<text text-anchor="start" x="127.5" y="-93.4" font-family="Helvetica,sans-Serif" font-size="12.00">Documentation/Operator</text>
<text text-anchor="middle" x="192" y="-80.4" font-family="Helvetica,sans-Serif" font-size="12.00">&#45;Console/ResizeDlg.h</text>
</g>
<!-- Node2 -->
<g id="node2" class="node"><title>Node2</title>
<g id="a_node2"><a xlink:href="../../dd/dcb/_documentation_2_operator-_console_2_operator_console_dlg_8cpp.html" target="_top" xlink:title="Documentation/Operator\l&#45;Console/OperatorConsoleDlg.cpp">
<polygon fill="white" stroke="black" points="-0.5,-1 -0.5,-35 196.5,-35 196.5,-1 -0.5,-1"/>
<text text-anchor="start" x="7.5" y="-21.4" font-family="Helvetica,sans-Serif" font-size="12.00">Documentation/Operator</text>
<text text-anchor="middle" x="98" y="-8.4" font-family="Helvetica,sans-Serif" font-size="12.00">&#45;Console/OperatorConsoleDlg.cpp</text>
</a>
</g>
</g>
<!-- Node1&#45;&gt;Node2 -->
<g id="edge1" class="edge"><title>Node1&#45;&gt;Node2</title>
<path fill="none" stroke="midnightblue" d="M161.977,-66.6425C148.227,-56.4033 132.238,-44.4963 119.684,-35.1473"/>
<polygon fill="midnightblue" stroke="midnightblue" points="160.087,-69.5991 170.198,-72.7646 164.268,-63.9848 160.087,-69.5991"/>
</g>
<!-- Node3 -->
<g id="node3" class="node"><title>Node3</title>
<g id="a_node3"><a xlink:href="../../db/d94/_documentation_2_operator-_console_2_resize_dlg_8cpp.html" target="_top" xlink:title="Documentation/Operator\l&#45;Console/ResizeDlg.cpp">
<polygon fill="white" stroke="black" points="214.5,-1 214.5,-35 359.5,-35 359.5,-1 214.5,-1"/>
<text text-anchor="start" x="222.5" y="-21.4" font-family="Helvetica,sans-Serif" font-size="12.00">Documentation/Operator</text>
<text text-anchor="middle" x="287" y="-8.4" font-family="Helvetica,sans-Serif" font-size="12.00">&#45;Console/ResizeDlg.cpp</text>
</a>
</g>
</g>
<!-- Node1&#45;&gt;Node3 -->
<g id="edge2" class="edge"><title>Node1&#45;&gt;Node3</title>
<path fill="none" stroke="midnightblue" d="M222.342,-66.6425C236.238,-56.4033 252.398,-44.4963 265.086,-35.1473"/>
<polygon fill="midnightblue" stroke="midnightblue" points="220.008,-64.0149 214.034,-72.7646 224.16,-69.6503 220.008,-64.0149"/>
</g>
</g>
</svg>
