<?xml version="1.0" encoding="UTF-8" standalone="no"?>
<!DOCTYPE svg PUBLIC "-//W3C//DTD SVG 1.1//EN"
 "http://www.w3.org/Graphics/SVG/1.1/DTD/svg11.dtd">
<!-- Generated by graphviz version 2.34.0 (20130907.0111)
 -->
<!-- Title: PasswordDialog.h Pages: 1 -->
<svg width="281pt" height="88pt"
 viewBox="0.00 0.00 281.00 88.00" xmlns="http://www.w3.org/2000/svg" xmlns:xlink="http://www.w3.org/1999/xlink">
<g id="graph0" class="graph" transform="scale(1 1) rotate(0) translate(4 84)">
<title>PasswordDialog.h</title>
<polygon fill="white" stroke="white" points="-4,4 -4,-84 277,-84 277,4 -4,4"/>
<!-- Node1 -->
<g id="node1" class="node"><title>Node1</title>
<polygon fill="#bfbfbf" stroke="black" points="80.5,-58.5 80.5,-79.5 193.5,-79.5 193.5,-58.5 80.5,-58.5"/>
<text text-anchor="middle" x="137" y="-65.9" font-family="Helvetica,sans-Serif" font-size="12.00">PasswordDialog.h</text>
</g>
<!-- Node2 -->
<g id="node2" class="node"><title>Node2</title>
<g id="a_node2"><a xlink:href="../../de/da2/_operator_console_8cpp.html" target="_top" xlink:title="OperatorConsole.cpp">
<polygon fill="white" stroke="black" points="-0.5,-0.5 -0.5,-21.5 128.5,-21.5 128.5,-0.5 -0.5,-0.5"/>
<text text-anchor="middle" x="64" y="-7.9" font-family="Helvetica,sans-Serif" font-size="12.00">OperatorConsole.cpp</text>
</a>
</g>
</g>
<!-- Node1&#45;&gt;Node2 -->
<g id="edge1" class="edge"><title>Node1&#45;&gt;Node2</title>
<path fill="none" stroke="midnightblue" d="M116.049,-51.928C103.289,-42.1397 87.4115,-29.9595 76.5699,-21.6427"/>
<polygon fill="midnightblue" stroke="midnightblue" points="114.22,-54.9359 124.284,-58.2455 118.48,-49.3819 114.22,-54.9359"/>
</g>
<!-- Node3 -->
<g id="node3" class="node"><title>Node3</title>
<g id="a_node3"><a xlink:href="../../da/d46/_password_dialog_8cpp.html" target="_top" xlink:title="PasswordDialog.cpp">
<polygon fill="white" stroke="black" points="147,-0.5 147,-21.5 273,-21.5 273,-0.5 147,-0.5"/>
<text text-anchor="middle" x="210" y="-7.9" font-family="Helvetica,sans-Serif" font-size="12.00">PasswordDialog.cpp</text>
</a>
</g>
</g>
<!-- Node1&#45;&gt;Node3 -->
<g id="edge2" class="edge"><title>Node1&#45;&gt;Node3</title>
<path fill="none" stroke="midnightblue" d="M157.951,-51.928C170.711,-42.1397 186.589,-29.9595 197.43,-21.6427"/>
<polygon fill="midnightblue" stroke="midnightblue" points="155.52,-49.3819 149.716,-58.2455 159.78,-54.9359 155.52,-49.3819"/>
</g>
</g>
</svg>
