<?xml version="1.0" encoding="UTF-8" standalone="no"?>
<!DOCTYPE svg PUBLIC "-//W3C//DTD SVG 1.1//EN"
 "http://www.w3.org/Graphics/SVG/1.1/DTD/svg11.dtd">
<!-- Generated by graphviz version 2.34.0 (20130907.0111)
 -->
<!-- Title: Documentation/Operator&#45;Console/ImatestLibAcq.cpp Pages: 1 -->
<svg width="895pt" height="334pt"
 viewBox="0.00 0.00 895.00 334.00" xmlns="http://www.w3.org/2000/svg" xmlns:xlink="http://www.w3.org/1999/xlink">
<g id="graph0" class="graph" transform="scale(1 1) rotate(0) translate(4 330)">
<title>Documentation/Operator&#45;Console/ImatestLibAcq.cpp</title>
<polygon fill="white" stroke="white" points="-4,4 -4,-330 891,-330 891,4 -4,4"/>
<!-- Node1 -->
<g id="node1" class="node"><title>Node1</title>
<polygon fill="#bfbfbf" stroke="black" points="474,-291 474,-325 638,-325 638,-291 474,-291"/>
<text text-anchor="start" x="482" y="-311.4" font-family="Helvetica,sans-Serif" font-size="12.00">Documentation/Operator</text>
<text text-anchor="middle" x="556" y="-298.4" font-family="Helvetica,sans-Serif" font-size="12.00">&#45;Console/ImatestLibAcq.cpp</text>
</g>
<!-- Node2 -->
<g id="node2" class="node"><title>Node2</title>
<g id="a_node2"><a xlink:href="../../d9/d2e/_documentation_2_operator-_console_2stdafx_8h.html" target="_top" xlink:title="stdafx.h">
<polygon fill="white" stroke="black" points="337,-116.5 337,-137.5 393,-137.5 393,-116.5 337,-116.5"/>
<text text-anchor="middle" x="365" y="-123.9" font-family="Helvetica,sans-Serif" font-size="12.00">stdafx.h</text>
</a>
</g>
</g>
<!-- Node1&#45;&gt;Node2 -->
<g id="edge1" class="edge"><title>Node1&#45;&gt;Node2</title>
<path fill="none" stroke="midnightblue" d="M515.07,-290.861C475.754,-273.292 417.523,-241.49 384,-196 373.57,-181.846 368.863,-162.205 366.74,-147.67"/>
<polygon fill="midnightblue" stroke="midnightblue" points="370.214,-147.247 365.569,-137.725 363.263,-148.066 370.214,-147.247"/>
</g>
<!-- Node11 -->
<g id="node11" class="node"><title>Node11</title>
<g id="a_node11"><a xlink:href="../../da/d69/imatest__library_8h.html" target="_top" xlink:title="imatest_library.h">
<polygon fill="white" stroke="black" points="670,-232.5 670,-253.5 772,-253.5 772,-232.5 670,-232.5"/>
<text text-anchor="middle" x="721" y="-239.9" font-family="Helvetica,sans-Serif" font-size="12.00">imatest_library.h</text>
</a>
</g>
</g>
<!-- Node1&#45;&gt;Node11 -->
<g id="edge10" class="edge"><title>Node1&#45;&gt;Node11</title>
<path fill="none" stroke="midnightblue" d="M598.063,-290.939C625.494,-280.466 660.849,-266.967 686.598,-257.135"/>
<polygon fill="midnightblue" stroke="midnightblue" points="687.866,-260.398 695.96,-253.561 685.369,-253.858 687.866,-260.398"/>
</g>
<!-- Node14 -->
<g id="node14" class="node"><title>Node14</title>
<g id="a_node14"><a xlink:href="../../d6/d5e/_documentation_2_operator-_console_2_imatest_lib_acq_8h.html" target="_top" xlink:title="ImatestLibAcq.h">
<polygon fill="white" stroke="black" points="505.5,-232.5 505.5,-253.5 606.5,-253.5 606.5,-232.5 505.5,-232.5"/>
<text text-anchor="middle" x="556" y="-239.9" font-family="Helvetica,sans-Serif" font-size="12.00">ImatestLibAcq.h</text>
</a>
</g>
</g>
<!-- Node1&#45;&gt;Node14 -->
<g id="edge13" class="edge"><title>Node1&#45;&gt;Node14</title>
<path fill="none" stroke="midnightblue" d="M556,-290.776C556,-282.47 556,-272.295 556,-263.559"/>
<polygon fill="midnightblue" stroke="midnightblue" points="559.5,-263.511 556,-253.511 552.5,-263.511 559.5,-263.511"/>
</g>
<!-- Node19 -->
<g id="node19" class="node"><title>Node19</title>
<g id="a_node19"><a xlink:href="../../de/dd5/_documentation_2_operator-_console_2_thread_control_8h.html" target="_top" xlink:title="ThreadControl.h">
<polygon fill="white" stroke="black" points="393,-174.5 393,-195.5 493,-195.5 493,-174.5 393,-174.5"/>
<text text-anchor="middle" x="443" y="-181.9" font-family="Helvetica,sans-Serif" font-size="12.00">ThreadControl.h</text>
</a>
</g>
</g>
<!-- Node1&#45;&gt;Node19 -->
<g id="edge19" class="edge"><title>Node1&#45;&gt;Node19</title>
<path fill="none" stroke="midnightblue" d="M535.976,-290.919C523.892,-280.832 508.473,-267.264 496,-254 481.028,-238.078 465.893,-218.197 455.652,-204.053"/>
<polygon fill="midnightblue" stroke="midnightblue" points="458.338,-201.792 449.679,-195.686 452.64,-205.858 458.338,-201.792"/>
</g>
<!-- Node20 -->
<g id="node20" class="node"><title>Node20</title>
<polygon fill="white" stroke="#bfbfbf" points="790,-232.5 790,-253.5 852,-253.5 852,-232.5 790,-232.5"/>
<text text-anchor="middle" x="821" y="-239.9" font-family="Helvetica,sans-Serif" font-size="12.00">iostream</text>
</g>
<!-- Node1&#45;&gt;Node20 -->
<g id="edge22" class="edge"><title>Node1&#45;&gt;Node20</title>
<path fill="none" stroke="midnightblue" d="M625.24,-290.948C667.33,-281.129 722.421,-268.173 779.621,-254.315"/>
<polygon fill="midnightblue" stroke="midnightblue" points="780.675,-257.661 789.567,-251.901 779.024,-250.858 780.675,-257.661"/>
</g>
<!-- Node3 -->
<g id="node3" class="node"><title>Node3</title>
<g id="a_node3"><a xlink:href="../../da/d3f/_documentation_2_operator-_console_2targetver_8h.html" target="_top" xlink:title="targetver.h">
<polygon fill="white" stroke="black" points="12.5,-58.5 12.5,-79.5 83.5,-79.5 83.5,-58.5 12.5,-58.5"/>
<text text-anchor="middle" x="48" y="-65.9" font-family="Helvetica,sans-Serif" font-size="12.00">targetver.h</text>
</a>
</g>
</g>
<!-- Node2&#45;&gt;Node3 -->
<g id="edge2" class="edge"><title>Node2&#45;&gt;Node3</title>
<path fill="none" stroke="midnightblue" d="M336.721,-121.706C288.888,-114.337 188.753,-98.4591 93.8772,-80.0937"/>
<polygon fill="midnightblue" stroke="midnightblue" points="94.3117,-76.6126 83.8268,-78.1348 92.9725,-83.4833 94.3117,-76.6126"/>
</g>
<!-- Node5 -->
<g id="node5" class="node"><title>Node5</title>
<polygon fill="white" stroke="#bfbfbf" points="102,-58.5 102,-79.5 160,-79.5 160,-58.5 102,-58.5"/>
<text text-anchor="middle" x="131" y="-65.9" font-family="Helvetica,sans-Serif" font-size="12.00">afxwin.h</text>
</g>
<!-- Node2&#45;&gt;Node5 -->
<g id="edge4" class="edge"><title>Node2&#45;&gt;Node5</title>
<path fill="none" stroke="midnightblue" d="M336.705,-119.61C300.414,-111.359 235.288,-96.3712 170.067,-80.2197"/>
<polygon fill="midnightblue" stroke="midnightblue" points="170.575,-76.7395 160.026,-77.7239 168.886,-83.5328 170.575,-76.7395"/>
</g>
<!-- Node6 -->
<g id="node6" class="node"><title>Node6</title>
<polygon fill="white" stroke="#bfbfbf" points="178,-58.5 178,-79.5 234,-79.5 234,-58.5 178,-58.5"/>
<text text-anchor="middle" x="206" y="-65.9" font-family="Helvetica,sans-Serif" font-size="12.00">afxext.h</text>
</g>
<!-- Node2&#45;&gt;Node6 -->
<g id="edge5" class="edge"><title>Node2&#45;&gt;Node6</title>
<path fill="none" stroke="midnightblue" d="M337.667,-116.373C311.457,-107.142 271.702,-93.1402 242.733,-82.9375"/>
<polygon fill="midnightblue" stroke="midnightblue" points="243.571,-79.5219 232.976,-79.5011 241.246,-86.1244 243.571,-79.5219"/>
</g>
<!-- Node7 -->
<g id="node7" class="node"><title>Node7</title>
<polygon fill="white" stroke="#bfbfbf" points="252.5,-58.5 252.5,-79.5 315.5,-79.5 315.5,-58.5 252.5,-58.5"/>
<text text-anchor="middle" x="284" y="-65.9" font-family="Helvetica,sans-Serif" font-size="12.00">afxdisp.h</text>
</g>
<!-- Node2&#45;&gt;Node7 -->
<g id="edge6" class="edge"><title>Node2&#45;&gt;Node7</title>
<path fill="none" stroke="midnightblue" d="M350.891,-116.246C338.579,-107.734 320.504,-95.2375 306.246,-85.3801"/>
<polygon fill="midnightblue" stroke="midnightblue" points="308.163,-82.4506 297.947,-79.6427 304.183,-88.2085 308.163,-82.4506"/>
</g>
<!-- Node8 -->
<g id="node8" class="node"><title>Node8</title>
<polygon fill="white" stroke="#bfbfbf" points="334,-58.5 334,-79.5 396,-79.5 396,-58.5 334,-58.5"/>
<text text-anchor="middle" x="365" y="-65.9" font-family="Helvetica,sans-Serif" font-size="12.00">afxdtctl.h</text>
</g>
<!-- Node2&#45;&gt;Node8 -->
<g id="edge7" class="edge"><title>Node2&#45;&gt;Node8</title>
<path fill="none" stroke="midnightblue" d="M365,-116.246C365,-108.938 365,-98.6944 365,-89.7046"/>
<polygon fill="midnightblue" stroke="midnightblue" points="368.5,-89.6426 365,-79.6427 361.5,-89.6427 368.5,-89.6426"/>
</g>
<!-- Node9 -->
<g id="node9" class="node"><title>Node9</title>
<polygon fill="white" stroke="#bfbfbf" points="414,-58.5 414,-79.5 476,-79.5 476,-58.5 414,-58.5"/>
<text text-anchor="middle" x="445" y="-65.9" font-family="Helvetica,sans-Serif" font-size="12.00">afxcmn.h</text>
</g>
<!-- Node2&#45;&gt;Node9 -->
<g id="edge8" class="edge"><title>Node2&#45;&gt;Node9</title>
<path fill="none" stroke="midnightblue" d="M378.935,-116.246C391.095,-107.734 408.946,-95.2375 423.028,-85.3801"/>
<polygon fill="midnightblue" stroke="midnightblue" points="425.04,-88.2447 431.225,-79.6427 421.025,-82.51 425.04,-88.2447"/>
</g>
<!-- Node10 -->
<g id="node10" class="node"><title>Node10</title>
<polygon fill="white" stroke="#bfbfbf" points="494,-58.5 494,-79.5 592,-79.5 592,-58.5 494,-58.5"/>
<text text-anchor="middle" x="543" y="-65.9" font-family="Helvetica,sans-Serif" font-size="12.00">afxcontrolbars.h</text>
</g>
<!-- Node2&#45;&gt;Node10 -->
<g id="edge9" class="edge"><title>Node2&#45;&gt;Node10</title>
<path fill="none" stroke="midnightblue" d="M393.205,-117.127C422.699,-107.847 469.258,-93.1998 502.64,-82.6977"/>
<polygon fill="midnightblue" stroke="midnightblue" points="504.054,-85.9218 512.543,-79.582 501.954,-79.2444 504.054,-85.9218"/>
</g>
<!-- Node4 -->
<g id="node4" class="node"><title>Node4</title>
<polygon fill="white" stroke="#bfbfbf" points="0,-0.5 0,-21.5 96,-21.5 96,-0.5 0,-0.5"/>
<text text-anchor="middle" x="48" y="-7.9" font-family="Helvetica,sans-Serif" font-size="12.00">SDKDDKVer.h</text>
</g>
<!-- Node3&#45;&gt;Node4 -->
<g id="edge3" class="edge"><title>Node3&#45;&gt;Node4</title>
<path fill="none" stroke="midnightblue" d="M48,-58.2455C48,-50.9382 48,-40.6944 48,-31.7046"/>
<polygon fill="midnightblue" stroke="midnightblue" points="51.5001,-31.6426 48,-21.6427 44.5001,-31.6427 51.5001,-31.6426"/>
</g>
<!-- Node12 -->
<g id="node12" class="node"><title>Node12</title>
<polygon fill="white" stroke="#bfbfbf" points="709,-174.5 709,-195.5 779,-195.5 779,-174.5 709,-174.5"/>
<text text-anchor="middle" x="744" y="-181.9" font-family="Helvetica,sans-Serif" font-size="12.00">mclmcrrt.h</text>
</g>
<!-- Node11&#45;&gt;Node12 -->
<g id="edge11" class="edge"><title>Node11&#45;&gt;Node12</title>
<path fill="none" stroke="midnightblue" d="M725.006,-232.246C728.073,-224.778 732.4,-214.243 736.15,-205.114"/>
<polygon fill="midnightblue" stroke="midnightblue" points="739.478,-206.223 740.04,-195.643 733.003,-203.563 739.478,-206.223"/>
</g>
<!-- Node13 -->
<g id="node13" class="node"><title>Node13</title>
<polygon fill="white" stroke="#bfbfbf" points="797,-174.5 797,-195.5 887,-195.5 887,-174.5 797,-174.5"/>
<text text-anchor="middle" x="842" y="-181.9" font-family="Helvetica,sans-Serif" font-size="12.00">mclcppclass.h</text>
</g>
<!-- Node11&#45;&gt;Node13 -->
<g id="edge12" class="edge"><title>Node11&#45;&gt;Node13</title>
<path fill="none" stroke="midnightblue" d="M741.801,-232.373C761.224,-223.384 790.422,-209.871 812.296,-199.747"/>
<polygon fill="midnightblue" stroke="midnightblue" points="813.866,-202.878 821.471,-195.501 810.926,-196.525 813.866,-202.878"/>
</g>
<!-- Node15 -->
<g id="node15" class="node"><title>Node15</title>
<g id="a_node15"><a xlink:href="../../d3/db6/_documentation_2_operator-_console_2_image_acquisition_8h.html" target="_top" xlink:title="ImageAcquisition.h">
<polygon fill="white" stroke="black" points="575,-174.5 575,-195.5 691,-195.5 691,-174.5 575,-174.5"/>
<text text-anchor="middle" x="633" y="-181.9" font-family="Helvetica,sans-Serif" font-size="12.00">ImageAcquisition.h</text>
</a>
</g>
</g>
<!-- Node14&#45;&gt;Node15 -->
<g id="edge14" class="edge"><title>Node14&#45;&gt;Node15</title>
<path fill="none" stroke="midnightblue" d="M569.412,-232.246C581.006,-223.814 597.975,-211.473 611.468,-201.66"/>
<polygon fill="midnightblue" stroke="midnightblue" points="613.713,-204.355 619.741,-195.643 609.595,-198.694 613.713,-204.355"/>
</g>
<!-- Node18 -->
<g id="node18" class="node"><title>Node18</title>
<polygon fill="white" stroke="#bfbfbf" points="511.5,-174.5 511.5,-195.5 556.5,-195.5 556.5,-174.5 511.5,-174.5"/>
<text text-anchor="middle" x="534" y="-181.9" font-family="Helvetica,sans-Serif" font-size="12.00">string</text>
</g>
<!-- Node14&#45;&gt;Node18 -->
<g id="edge18" class="edge"><title>Node14&#45;&gt;Node18</title>
<path fill="none" stroke="midnightblue" d="M552.168,-232.246C549.234,-224.778 545.095,-214.243 541.509,-205.114"/>
<polygon fill="midnightblue" stroke="midnightblue" points="544.702,-203.67 537.788,-195.643 538.187,-206.23 544.702,-203.67"/>
</g>
<!-- Node15&#45;&gt;Node2 -->
<g id="edge15" class="edge"><title>Node15&#45;&gt;Node2</title>
<path fill="none" stroke="midnightblue" d="M587.234,-174.437C535.313,-163.588 451.577,-146.091 403.077,-135.956"/>
<polygon fill="midnightblue" stroke="midnightblue" points="403.791,-132.53 393.287,-133.911 402.359,-139.382 403.791,-132.53"/>
</g>
<!-- Node16 -->
<g id="node16" class="node"><title>Node16</title>
<g id="a_node16"><a xlink:href="../../dd/df3/_documentation_2_operator-_console_2_critical_buf_8h.html" target="_top" xlink:title="CriticalBuf.h">
<polygon fill="white" stroke="black" points="595,-116.5 595,-137.5 675,-137.5 675,-116.5 595,-116.5"/>
<text text-anchor="middle" x="635" y="-123.9" font-family="Helvetica,sans-Serif" font-size="12.00">CriticalBuf.h</text>
</a>
</g>
</g>
<!-- Node15&#45;&gt;Node16 -->
<g id="edge16" class="edge"><title>Node15&#45;&gt;Node16</title>
<path fill="none" stroke="midnightblue" d="M633.348,-174.246C633.609,-166.938 633.975,-156.694 634.296,-147.705"/>
<polygon fill="midnightblue" stroke="midnightblue" points="637.796,-147.761 634.656,-137.643 630.801,-147.511 637.796,-147.761"/>
</g>
<!-- Node17 -->
<g id="node17" class="node"><title>Node17</title>
<polygon fill="white" stroke="#bfbfbf" points="610.5,-58.5 610.5,-79.5 663.5,-79.5 663.5,-58.5 610.5,-58.5"/>
<text text-anchor="middle" x="637" y="-65.9" font-family="Helvetica,sans-Serif" font-size="12.00">afxmt.h</text>
</g>
<!-- Node16&#45;&gt;Node17 -->
<g id="edge17" class="edge"><title>Node16&#45;&gt;Node17</title>
<path fill="none" stroke="midnightblue" d="M635.348,-116.246C635.609,-108.938 635.975,-98.6944 636.296,-89.7046"/>
<polygon fill="midnightblue" stroke="midnightblue" points="639.796,-89.7613 636.656,-79.6427 632.801,-89.5113 639.796,-89.7613"/>
</g>
<!-- Node19&#45;&gt;Node2 -->
<g id="edge20" class="edge"><title>Node19&#45;&gt;Node2</title>
<path fill="none" stroke="midnightblue" d="M429.413,-174.246C417.67,-165.814 400.48,-153.473 386.812,-143.66"/>
<polygon fill="midnightblue" stroke="midnightblue" points="388.595,-140.632 378.431,-137.643 384.513,-146.318 388.595,-140.632"/>
</g>
<!-- Node19&#45;&gt;Node17 -->
<g id="edge21" class="edge"><title>Node19&#45;&gt;Node17</title>
<path fill="none" stroke="midnightblue" d="M459.207,-174.477C493.085,-154.568 571.598,-108.432 611.996,-84.6933"/>
<polygon fill="midnightblue" stroke="midnightblue" points="613.855,-87.6605 620.703,-79.5766 610.308,-81.6254 613.855,-87.6605"/>
</g>
</g>
</svg>
