<?xml version="1.0" encoding="UTF-8" standalone="no"?>
<!DOCTYPE svg PUBLIC "-//W3C//DTD SVG 1.1//EN"
 "http://www.w3.org/Graphics/SVG/1.1/DTD/svg11.dtd">
<!-- Generated by graphviz version 2.34.0 (20130907.0111)
 -->
<!-- Title: PassFail.h Pages: 1 -->
<svg width="612pt" height="262pt"
 viewBox="0.00 0.00 612.00 262.00" xmlns="http://www.w3.org/2000/svg" xmlns:xlink="http://www.w3.org/1999/xlink">
<g id="graph0" class="graph" transform="scale(1 1) rotate(0) translate(4 258)">
<title>PassFail.h</title>
<polygon fill="white" stroke="white" points="-4,4 -4,-258 608,-258 608,4 -4,4"/>
<!-- Node1 -->
<g id="node1" class="node"><title>Node1</title>
<polygon fill="#bfbfbf" stroke="black" points="111,-232.5 111,-253.5 183,-253.5 183,-232.5 111,-232.5"/>
<text text-anchor="middle" x="147" y="-239.9" font-family="Helvetica,sans-Serif" font-size="12.00">PassFail.h</text>
</g>
<!-- Node2 -->
<g id="node2" class="node"><title>Node2</title>
<polygon fill="white" stroke="#bfbfbf" points="-0.5,-174.5 -0.5,-195.5 118.5,-195.5 118.5,-174.5 -0.5,-174.5"/>
<text text-anchor="middle" x="59" y="-181.9" font-family="Helvetica,sans-Serif" font-size="12.00">afxpropertygridctrl.h</text>
</g>
<!-- Node1&#45;&gt;Node2 -->
<g id="edge1" class="edge"><title>Node1&#45;&gt;Node2</title>
<path fill="none" stroke="midnightblue" d="M131.672,-232.246C118.17,-223.653 98.2878,-211.001 82.7314,-201.102"/>
<polygon fill="midnightblue" stroke="midnightblue" points="84.4685,-198.059 74.1528,-195.643 80.7103,-203.964 84.4685,-198.059"/>
</g>
<!-- Node3 -->
<g id="node3" class="node"><title>Node3</title>
<polygon fill="white" stroke="#bfbfbf" points="24,-58.5 24,-79.5 82,-79.5 82,-58.5 24,-58.5"/>
<text text-anchor="middle" x="53" y="-65.9" font-family="Helvetica,sans-Serif" font-size="12.00">afxwin.h</text>
</g>
<!-- Node1&#45;&gt;Node3 -->
<g id="edge2" class="edge"><title>Node1&#45;&gt;Node3</title>
<path fill="none" stroke="midnightblue" d="M145.227,-232.396C142.502,-218.881 136.572,-193.702 127,-174 110.973,-141.011 84.7389,-107.208 68.1946,-87.4317"/>
<polygon fill="midnightblue" stroke="midnightblue" points="70.6964,-84.9709 61.5509,-79.622 65.3646,-89.5066 70.6964,-84.9709"/>
</g>
<!-- Node4 -->
<g id="node4" class="node"><title>Node4</title>
<g id="a_node4"><a xlink:href="../../da/ded/_pass_fail_settings_8h.html" target="_top" xlink:title="PassFailSettings.h">
<polygon fill="white" stroke="black" points="265.5,-174.5 265.5,-195.5 380.5,-195.5 380.5,-174.5 265.5,-174.5"/>
<text text-anchor="middle" x="323" y="-181.9" font-family="Helvetica,sans-Serif" font-size="12.00">PassFailSettings.h</text>
</a>
</g>
</g>
<!-- Node1&#45;&gt;Node4 -->
<g id="edge3" class="edge"><title>Node1&#45;&gt;Node4</title>
<path fill="none" stroke="midnightblue" d="M177.255,-232.373C206.648,-223.021 251.429,-208.773 283.593,-198.538"/>
<polygon fill="midnightblue" stroke="midnightblue" points="284.671,-201.868 293.139,-195.501 282.549,-195.198 284.671,-201.868"/>
</g>
<!-- Node5 -->
<g id="node5" class="node"><title>Node5</title>
<g id="a_node5"><a xlink:href="../../db/d06/stdafx_8h.html" target="_top" xlink:title="stdafx.h">
<polygon fill="white" stroke="black" points="229,-116.5 229,-137.5 285,-137.5 285,-116.5 229,-116.5"/>
<text text-anchor="middle" x="257" y="-123.9" font-family="Helvetica,sans-Serif" font-size="12.00">stdafx.h</text>
</a>
</g>
</g>
<!-- Node4&#45;&gt;Node5 -->
<g id="edge4" class="edge"><title>Node4&#45;&gt;Node5</title>
<path fill="none" stroke="midnightblue" d="M311.504,-174.246C301.756,-165.975 287.574,-153.942 276.12,-144.223"/>
<polygon fill="midnightblue" stroke="midnightblue" points="278.254,-141.444 268.365,-137.643 273.725,-146.781 278.254,-141.444"/>
</g>
<!-- Node13 -->
<g id="node13" class="node"><title>Node13</title>
<polygon fill="white" stroke="#bfbfbf" points="303,-116.5 303,-137.5 343,-137.5 343,-116.5 303,-116.5"/>
<text text-anchor="middle" x="323" y="-123.9" font-family="Helvetica,sans-Serif" font-size="12.00">map</text>
</g>
<!-- Node4&#45;&gt;Node13 -->
<g id="edge13" class="edge"><title>Node4&#45;&gt;Node13</title>
<path fill="none" stroke="midnightblue" d="M323,-174.246C323,-166.938 323,-156.694 323,-147.705"/>
<polygon fill="midnightblue" stroke="midnightblue" points="326.5,-147.643 323,-137.643 319.5,-147.643 326.5,-147.643"/>
</g>
<!-- Node14 -->
<g id="node14" class="node"><title>Node14</title>
<polygon fill="white" stroke="#bfbfbf" points="361,-116.5 361,-137.5 409,-137.5 409,-116.5 361,-116.5"/>
<text text-anchor="middle" x="385" y="-123.9" font-family="Helvetica,sans-Serif" font-size="12.00">vector</text>
</g>
<!-- Node4&#45;&gt;Node14 -->
<g id="edge14" class="edge"><title>Node4&#45;&gt;Node14</title>
<path fill="none" stroke="midnightblue" d="M333.8,-174.246C342.868,-166.055 356.021,-154.175 366.724,-144.507"/>
<polygon fill="midnightblue" stroke="midnightblue" points="369.249,-146.943 374.324,-137.643 364.557,-141.748 369.249,-146.943"/>
</g>
<!-- Node15 -->
<g id="node15" class="node"><title>Node15</title>
<polygon fill="white" stroke="#bfbfbf" points="427.5,-116.5 427.5,-137.5 472.5,-137.5 472.5,-116.5 427.5,-116.5"/>
<text text-anchor="middle" x="450" y="-123.9" font-family="Helvetica,sans-Serif" font-size="12.00">string</text>
</g>
<!-- Node4&#45;&gt;Node15 -->
<g id="edge15" class="edge"><title>Node4&#45;&gt;Node15</title>
<path fill="none" stroke="midnightblue" d="M344.832,-174.373C365.31,-165.343 396.14,-151.749 419.132,-141.611"/>
<polygon fill="midnightblue" stroke="midnightblue" points="420.715,-144.738 428.453,-137.501 417.891,-138.333 420.715,-144.738"/>
</g>
<!-- Node5&#45;&gt;Node3 -->
<g id="edge7" class="edge"><title>Node5&#45;&gt;Node3</title>
<path fill="none" stroke="midnightblue" d="M228.635,-118.213C193.008,-108.433 131.717,-91.6086 91.7783,-80.645"/>
<polygon fill="midnightblue" stroke="midnightblue" points="92.6829,-77.2639 82.1131,-77.9918 90.8298,-84.0142 92.6829,-77.2639"/>
</g>
<!-- Node6 -->
<g id="node6" class="node"><title>Node6</title>
<g id="a_node6"><a xlink:href="../../d9/da6/targetver_8h.html" target="_top" xlink:title="targetver.h">
<polygon fill="white" stroke="black" points="100.5,-58.5 100.5,-79.5 171.5,-79.5 171.5,-58.5 100.5,-58.5"/>
<text text-anchor="middle" x="136" y="-65.9" font-family="Helvetica,sans-Serif" font-size="12.00">targetver.h</text>
</a>
</g>
</g>
<!-- Node5&#45;&gt;Node6 -->
<g id="edge5" class="edge"><title>Node5&#45;&gt;Node6</title>
<path fill="none" stroke="midnightblue" d="M236.199,-116.373C216.776,-107.384 187.578,-93.8706 165.704,-83.7471"/>
<polygon fill="midnightblue" stroke="midnightblue" points="167.074,-80.5249 156.529,-79.5011 164.134,-86.8776 167.074,-80.5249"/>
</g>
<!-- Node8 -->
<g id="node8" class="node"><title>Node8</title>
<polygon fill="white" stroke="#bfbfbf" points="190,-58.5 190,-79.5 246,-79.5 246,-58.5 190,-58.5"/>
<text text-anchor="middle" x="218" y="-65.9" font-family="Helvetica,sans-Serif" font-size="12.00">afxext.h</text>
</g>
<!-- Node5&#45;&gt;Node8 -->
<g id="edge8" class="edge"><title>Node5&#45;&gt;Node8</title>
<path fill="none" stroke="midnightblue" d="M250.207,-116.246C244.782,-108.456 237.034,-97.3308 230.497,-87.9439"/>
<polygon fill="midnightblue" stroke="midnightblue" points="233.303,-85.8485 224.715,-79.6427 227.558,-89.849 233.303,-85.8485"/>
</g>
<!-- Node9 -->
<g id="node9" class="node"><title>Node9</title>
<polygon fill="white" stroke="#bfbfbf" points="264.5,-58.5 264.5,-79.5 327.5,-79.5 327.5,-58.5 264.5,-58.5"/>
<text text-anchor="middle" x="296" y="-65.9" font-family="Helvetica,sans-Serif" font-size="12.00">afxdisp.h</text>
</g>
<!-- Node5&#45;&gt;Node9 -->
<g id="edge9" class="edge"><title>Node5&#45;&gt;Node9</title>
<path fill="none" stroke="midnightblue" d="M263.793,-116.246C269.218,-108.456 276.966,-97.3308 283.503,-87.9439"/>
<polygon fill="midnightblue" stroke="midnightblue" points="286.442,-89.849 289.285,-79.6427 280.697,-85.8485 286.442,-89.849"/>
</g>
<!-- Node10 -->
<g id="node10" class="node"><title>Node10</title>
<polygon fill="white" stroke="#bfbfbf" points="346,-58.5 346,-79.5 408,-79.5 408,-58.5 346,-58.5"/>
<text text-anchor="middle" x="377" y="-65.9" font-family="Helvetica,sans-Serif" font-size="12.00">afxdtctl.h</text>
</g>
<!-- Node5&#45;&gt;Node10 -->
<g id="edge10" class="edge"><title>Node5&#45;&gt;Node10</title>
<path fill="none" stroke="midnightblue" d="M277.629,-116.373C296.892,-107.384 325.849,-93.8706 347.542,-83.7471"/>
<polygon fill="midnightblue" stroke="midnightblue" points="349.059,-86.9017 356.64,-79.5011 346.098,-80.5584 349.059,-86.9017"/>
</g>
<!-- Node11 -->
<g id="node11" class="node"><title>Node11</title>
<polygon fill="white" stroke="#bfbfbf" points="426,-58.5 426,-79.5 488,-79.5 488,-58.5 426,-58.5"/>
<text text-anchor="middle" x="457" y="-65.9" font-family="Helvetica,sans-Serif" font-size="12.00">afxcmn.h</text>
</g>
<!-- Node5&#45;&gt;Node11 -->
<g id="edge11" class="edge"><title>Node5&#45;&gt;Node11</title>
<path fill="none" stroke="midnightblue" d="M285.231,-118.095C319.332,-108.547 376.967,-92.4094 415.974,-81.4873"/>
<polygon fill="midnightblue" stroke="midnightblue" points="417.269,-84.7594 425.955,-78.6926 415.382,-78.0186 417.269,-84.7594"/>
</g>
<!-- Node12 -->
<g id="node12" class="node"><title>Node12</title>
<polygon fill="white" stroke="#bfbfbf" points="506,-58.5 506,-79.5 604,-79.5 604,-58.5 506,-58.5"/>
<text text-anchor="middle" x="555" y="-65.9" font-family="Helvetica,sans-Serif" font-size="12.00">afxcontrolbars.h</text>
</g>
<!-- Node5&#45;&gt;Node12 -->
<g id="edge12" class="edge"><title>Node5&#45;&gt;Node12</title>
<path fill="none" stroke="midnightblue" d="M285.217,-118.095C288.174,-117.35 291.142,-116.637 294,-116 303.812,-113.814 421.884,-93.1713 495.817,-80.2928"/>
<polygon fill="midnightblue" stroke="midnightblue" points="496.69,-83.6936 505.941,-78.5298 495.489,-76.7974 496.69,-83.6936"/>
</g>
<!-- Node7 -->
<g id="node7" class="node"><title>Node7</title>
<polygon fill="white" stroke="#bfbfbf" points="88,-0.5 88,-21.5 184,-21.5 184,-0.5 88,-0.5"/>
<text text-anchor="middle" x="136" y="-7.9" font-family="Helvetica,sans-Serif" font-size="12.00">SDKDDKVer.h</text>
</g>
<!-- Node6&#45;&gt;Node7 -->
<g id="edge6" class="edge"><title>Node6&#45;&gt;Node7</title>
<path fill="none" stroke="midnightblue" d="M136,-58.2455C136,-50.9382 136,-40.6944 136,-31.7046"/>
<polygon fill="midnightblue" stroke="midnightblue" points="139.5,-31.6426 136,-21.6427 132.5,-31.6427 139.5,-31.6426"/>
</g>
</g>
</svg>
