<?xml version="1.0" encoding="UTF-8" standalone="no"?>
<!DOCTYPE svg PUBLIC "-//W3C//DTD SVG 1.1//EN"
 "http://www.w3.org/Graphics/SVG/1.1/DTD/svg11.dtd">
<!-- Generated by graphviz version 2.34.0 (20130907.0111)
 -->
<!-- Title: ResizeDlg::CenterWindow Pages: 1 -->
<svg width="510pt" height="95pt"
 viewBox="0.00 0.00 510.00 95.00" xmlns="http://www.w3.org/2000/svg" xmlns:xlink="http://www.w3.org/1999/xlink">
<g id="graph0" class="graph" transform="scale(1 1) rotate(0) translate(4 91)">
<title>ResizeDlg::CenterWindow</title>
<polygon fill="white" stroke="white" points="-4,4 -4,-91 506,-91 506,4 -4,4"/>
<!-- Node1 -->
<g id="node1" class="node"><title>Node1</title>
<polygon fill="#bfbfbf" stroke="black" points="0,-33.5 0,-54.5 154,-54.5 154,-33.5 0,-33.5"/>
<text text-anchor="middle" x="77" y="-40.9" font-family="Helvetica,sans-Serif" font-size="12.00">ResizeDlg::CenterWindow</text>
</g>
<!-- Node2 -->
<g id="node2" class="node"><title>Node2</title>
<g id="a_node2"><a xlink:href="../../df/d14/class_resize_dlg.html#abbc1b69a8e4b0ef7b28bda23385a6697" target="_top" xlink:title="Resizes an object within a parent window that allows the object to shrink vertically, but not below a minimum size. ">
<polygon fill="white" stroke="black" points="190,-51 190,-85 332,-85 332,-51 190,-51"/>
<text text-anchor="start" x="198" y="-71.4" font-family="Helvetica,sans-Serif" font-size="12.00">ResizeDlg::Bidirectional</text>
<text text-anchor="middle" x="261" y="-58.4" font-family="Helvetica,sans-Serif" font-size="12.00">Resize</text>
</a>
</g>
</g>
<!-- Node1&#45;&gt;Node2 -->
<g id="edge1" class="edge"><title>Node1&#45;&gt;Node2</title>
<path fill="none" stroke="midnightblue" d="M164.221,-55.3697C172.855,-56.5083 181.547,-57.6545 189.984,-58.7671"/>
<polygon fill="midnightblue" stroke="midnightblue" points="164.502,-51.8766 154.13,-54.0391 163.586,-58.8165 164.502,-51.8766"/>
</g>
<!-- Node4 -->
<g id="node4" class="node"><title>Node4</title>
<g id="a_node4"><a xlink:href="../../df/d14/class_resize_dlg.html#af2c9f4bac99e8845c6b5167bd25068eb" target="_top" xlink:title="Resizes an object within a parent window but does not allow the object to shrink vertically. ">
<polygon fill="white" stroke="black" points="204.5,-9.5 204.5,-30.5 317.5,-30.5 317.5,-9.5 204.5,-9.5"/>
<text text-anchor="middle" x="261" y="-16.9" font-family="Helvetica,sans-Serif" font-size="12.00">ResizeDlg::Resize</text>
</a>
</g>
</g>
<!-- Node1&#45;&gt;Node4 -->
<g id="edge3" class="edge"><title>Node1&#45;&gt;Node4</title>
<path fill="none" stroke="midnightblue" d="M164.066,-32.6506C177.772,-30.8432 191.629,-29.016 204.386,-27.3338"/>
<polygon fill="midnightblue" stroke="midnightblue" points="163.586,-29.1835 154.13,-33.9609 164.502,-36.1234 163.586,-29.1835"/>
</g>
<!-- Node3 -->
<g id="node3" class="node"><title>Node3</title>
<g id="a_node3"><a xlink:href="../../dd/dd1/class_c_operator_console_dlg.html#add79ed364a2fd29eb4dd69f831bd0119" target="_top" xlink:title="Allows the display to be resized after the user changes the image size. ">
<polygon fill="white" stroke="black" points="368,-53 368,-87 502,-87 502,-53 368,-53"/>
<text text-anchor="start" x="376" y="-73.4" font-family="Helvetica,sans-Serif" font-size="12.00">COperatorConsoleDlg</text>
<text text-anchor="middle" x="435" y="-60.4" font-family="Helvetica,sans-Serif" font-size="12.00">::ReInitDialog</text>
</a>
</g>
</g>
<!-- Node2&#45;&gt;Node3 -->
<g id="edge2" class="edge"><title>Node2&#45;&gt;Node3</title>
<path fill="none" stroke="midnightblue" d="M342.67,-68.938C351.09,-69.0359 359.578,-69.1346 367.81,-69.2303"/>
<polygon fill="midnightblue" stroke="midnightblue" points="342.495,-65.4359 332.455,-68.8192 342.414,-72.4354 342.495,-65.4359"/>
</g>
<!-- Node5 -->
<g id="node5" class="node"><title>Node5</title>
<g id="a_node5"><a xlink:href="../../dd/dd1/class_c_operator_console_dlg.html#ad5b6ec38f5046264163133739861dd0e" target="_top" xlink:title="COperatorConsoleDlg\l::OnInitDialog">
<polygon fill="white" stroke="black" points="368,-0 368,-34 502,-34 502,-0 368,-0"/>
<text text-anchor="start" x="376" y="-20.4" font-family="Helvetica,sans-Serif" font-size="12.00">COperatorConsoleDlg</text>
<text text-anchor="middle" x="435" y="-7.4" font-family="Helvetica,sans-Serif" font-size="12.00">::OnInitDialog</text>
</a>
</g>
</g>
<!-- Node4&#45;&gt;Node5 -->
<g id="edge4" class="edge"><title>Node4&#45;&gt;Node5</title>
<path fill="none" stroke="midnightblue" d="M328.149,-18.8462C341.203,-18.6186 354.902,-18.3796 367.953,-18.152"/>
<polygon fill="midnightblue" stroke="midnightblue" points="327.781,-15.352 317.843,-19.026 327.903,-22.351 327.781,-15.352"/>
</g>
</g>
</svg>
