<?xml version="1.0" encoding="UTF-8" standalone="no"?>
<!DOCTYPE svg PUBLIC "-//W3C//DTD SVG 1.1//EN"
 "http://www.w3.org/Graphics/SVG/1.1/DTD/svg11.dtd">
<!-- Generated by graphviz version 2.34.0 (20130907.0111)
 -->
<!-- Title: ResizeDlg::GetWindowSize Pages: 1 -->
<svg width="728pt" height="160pt"
 viewBox="0.00 0.00 728.00 160.00" xmlns="http://www.w3.org/2000/svg" xmlns:xlink="http://www.w3.org/1999/xlink">
<g id="graph0" class="graph" transform="scale(1 1) rotate(0) translate(4 156)">
<title>ResizeDlg::GetWindowSize</title>
<polygon fill="white" stroke="white" points="-4,4 -4,-156 724,-156 724,4 -4,4"/>
<!-- Node1 -->
<g id="node1" class="node"><title>Node1</title>
<polygon fill="#bfbfbf" stroke="black" points="0.5,-72.5 0.5,-93.5 161.5,-93.5 161.5,-72.5 0.5,-72.5"/>
<text text-anchor="middle" x="81" y="-79.9" font-family="Helvetica,sans-Serif" font-size="12.00">ResizeDlg::GetWindowSize</text>
</g>
<!-- Node2 -->
<g id="node2" class="node"><title>Node2</title>
<g id="a_node2"><a xlink:href="../../df/d14/class_resize_dlg.html#abbc1b69a8e4b0ef7b28bda23385a6697" target="_top" xlink:title="Resizes an object within a parent window that allows the object to shrink vertically, but not below a minimum size. ">
<polygon fill="white" stroke="black" points="408,-53 408,-87 550,-87 550,-53 408,-53"/>
<text text-anchor="start" x="416" y="-73.4" font-family="Helvetica,sans-Serif" font-size="12.00">ResizeDlg::Bidirectional</text>
<text text-anchor="middle" x="479" y="-60.4" font-family="Helvetica,sans-Serif" font-size="12.00">Resize</text>
</a>
</g>
</g>
<!-- Node1&#45;&gt;Node2 -->
<g id="edge1" class="edge"><title>Node1&#45;&gt;Node2</title>
<path fill="none" stroke="midnightblue" d="M171.911,-86.5053C229.234,-87.9502 305.057,-88.4017 372,-84 383.669,-83.2327 396.015,-81.9952 407.997,-80.5654"/>
<polygon fill="midnightblue" stroke="midnightblue" points="171.882,-83.0033 161.792,-86.2351 171.695,-90.0009 171.882,-83.0033"/>
</g>
<!-- Node4 -->
<g id="node4" class="node"><title>Node4</title>
<g id="a_node4"><a xlink:href="../../df/d14/class_resize_dlg.html#abe2cd6505a36ea159640b6b35cf81bbc" target="_top" xlink:title="Calculates the differences in window height and width between the current and new sizes...">
<polygon fill="white" stroke="black" points="200,-0 200,-34 370,-34 370,-0 200,-0"/>
<text text-anchor="start" x="208" y="-20.4" font-family="Helvetica,sans-Serif" font-size="12.00">ResizeDlg::GetImageWindow</text>
<text text-anchor="middle" x="285" y="-7.4" font-family="Helvetica,sans-Serif" font-size="12.00">Delta</text>
</a>
</g>
</g>
<!-- Node1&#45;&gt;Node4 -->
<g id="edge3" class="edge"><title>Node1&#45;&gt;Node4</title>
<path fill="none" stroke="midnightblue" d="M122.729,-69.0835C144.942,-61.55 172.943,-52.1446 198,-44 207.971,-40.7589 218.614,-37.3649 228.894,-34.12"/>
<polygon fill="midnightblue" stroke="midnightblue" points="121.304,-65.871 112.962,-72.4018 123.556,-72.4989 121.304,-65.871"/>
</g>
<!-- Node7 -->
<g id="node7" class="node"><title>Node7</title>
<g id="a_node7"><a xlink:href="../../df/d14/class_resize_dlg.html#ad862978f7d388156953bcad1ee8fb7d0" target="_top" xlink:title="Changes the window size. ">
<polygon fill="white" stroke="black" points="198.5,-53.5 198.5,-74.5 371.5,-74.5 371.5,-53.5 198.5,-53.5"/>
<text text-anchor="middle" x="285" y="-60.9" font-family="Helvetica,sans-Serif" font-size="12.00">ResizeDlg::OffsetWindowSize</text>
</a>
</g>
</g>
<!-- Node1&#45;&gt;Node7 -->
<g id="edge7" class="edge"><title>Node1&#45;&gt;Node7</title>
<path fill="none" stroke="midnightblue" d="M171.784,-74.5549C180.565,-73.729 189.46,-72.8924 198.199,-72.0704"/>
<polygon fill="midnightblue" stroke="midnightblue" points="171.174,-71.0968 161.546,-75.518 171.83,-78.066 171.174,-71.0968"/>
</g>
<!-- Node8 -->
<g id="node8" class="node"><title>Node8</title>
<g id="a_node8"><a xlink:href="../../dd/dd1/class_c_operator_console_dlg.html#a2eeb3b1e858acfd13c7a15bf9b3806ee" target="_top" xlink:title="COperatorConsoleDlg\l::QsoMove">
<polygon fill="white" stroke="black" points="412,-118 412,-152 546,-152 546,-118 412,-118"/>
<text text-anchor="start" x="420" y="-138.4" font-family="Helvetica,sans-Serif" font-size="12.00">COperatorConsoleDlg</text>
<text text-anchor="middle" x="479" y="-125.4" font-family="Helvetica,sans-Serif" font-size="12.00">::QsoMove</text>
</a>
</g>
</g>
<!-- Node1&#45;&gt;Node8 -->
<g id="edge10" class="edge"><title>Node1&#45;&gt;Node8</title>
<path fill="none" stroke="midnightblue" d="M162.204,-94.9796C174.196,-96.7054 186.419,-98.4277 198,-100 271.059,-109.919 354.989,-120.272 411.758,-127.12"/>
<polygon fill="midnightblue" stroke="midnightblue" points="162.601,-91.5007 152.203,-93.5323 161.598,-98.4286 162.601,-91.5007"/>
</g>
<!-- Node3 -->
<g id="node3" class="node"><title>Node3</title>
<g id="a_node3"><a xlink:href="../../dd/dd1/class_c_operator_console_dlg.html#add79ed364a2fd29eb4dd69f831bd0119" target="_top" xlink:title="Allows the display to be resized after the user changes the image size. ">
<polygon fill="white" stroke="black" points="586,-88 586,-122 720,-122 720,-88 586,-88"/>
<text text-anchor="start" x="594" y="-108.4" font-family="Helvetica,sans-Serif" font-size="12.00">COperatorConsoleDlg</text>
<text text-anchor="middle" x="653" y="-95.4" font-family="Helvetica,sans-Serif" font-size="12.00">::ReInitDialog</text>
</a>
</g>
</g>
<!-- Node2&#45;&gt;Node3 -->
<g id="edge2" class="edge"><title>Node2&#45;&gt;Node3</title>
<path fill="none" stroke="midnightblue" d="M560.392,-86.3589C568.903,-88.0907 577.487,-89.8375 585.81,-91.5311"/>
<polygon fill="midnightblue" stroke="midnightblue" points="560.952,-82.9012 550.455,-84.3368 559.557,-89.7606 560.952,-82.9012"/>
</g>
<!-- Node4&#45;&gt;Node2 -->
<g id="edge4" class="edge"><title>Node4&#45;&gt;Node2</title>
<path fill="none" stroke="midnightblue" d="M357.468,-36.7282C376.803,-42.0655 397.561,-47.7955 416.309,-52.9707"/>
<polygon fill="midnightblue" stroke="midnightblue" points="358.378,-33.3484 347.807,-34.0613 356.515,-40.0961 358.378,-33.3484"/>
</g>
<!-- Node5 -->
<g id="node5" class="node"><title>Node5</title>
<g id="a_node5"><a xlink:href="../../df/d14/class_resize_dlg.html#af2c9f4bac99e8845c6b5167bd25068eb" target="_top" xlink:title="Resizes an object within a parent window but does not allow the object to shrink vertically. ">
<polygon fill="white" stroke="black" points="422.5,-12.5 422.5,-33.5 535.5,-33.5 535.5,-12.5 422.5,-12.5"/>
<text text-anchor="middle" x="479" y="-19.9" font-family="Helvetica,sans-Serif" font-size="12.00">ResizeDlg::Resize</text>
</a>
</g>
</g>
<!-- Node4&#45;&gt;Node5 -->
<g id="edge5" class="edge"><title>Node4&#45;&gt;Node5</title>
<path fill="none" stroke="midnightblue" d="M380.589,-19.9559C394.873,-20.4023 409.198,-20.8499 422.299,-21.2594"/>
<polygon fill="midnightblue" stroke="midnightblue" points="380.318,-16.4458 370.214,-19.6317 380.1,-23.4424 380.318,-16.4458"/>
</g>
<!-- Node6 -->
<g id="node6" class="node"><title>Node6</title>
<g id="a_node6"><a xlink:href="../../dd/dd1/class_c_operator_console_dlg.html#ad5b6ec38f5046264163133739861dd0e" target="_top" xlink:title="COperatorConsoleDlg\l::OnInitDialog">
<polygon fill="white" stroke="black" points="586,-6 586,-40 720,-40 720,-6 586,-6"/>
<text text-anchor="start" x="594" y="-26.4" font-family="Helvetica,sans-Serif" font-size="12.00">COperatorConsoleDlg</text>
<text text-anchor="middle" x="653" y="-13.4" font-family="Helvetica,sans-Serif" font-size="12.00">::OnInitDialog</text>
</a>
</g>
</g>
<!-- Node5&#45;&gt;Node6 -->
<g id="edge6" class="edge"><title>Node5&#45;&gt;Node6</title>
<path fill="none" stroke="midnightblue" d="M546.149,-23C559.203,-23 572.902,-23 585.953,-23"/>
<polygon fill="midnightblue" stroke="midnightblue" points="545.844,-19.5001 535.843,-23 545.843,-26.5001 545.844,-19.5001"/>
</g>
<!-- Node7&#45;&gt;Node2 -->
<g id="edge9" class="edge"><title>Node7&#45;&gt;Node2</title>
<path fill="none" stroke="midnightblue" d="M381.857,-66.9955C390.599,-67.2687 399.343,-67.542 407.799,-67.8062"/>
<polygon fill="midnightblue" stroke="midnightblue" points="381.716,-63.4895 371.612,-66.6754 381.498,-70.4861 381.716,-63.4895"/>
</g>
<!-- Node7&#45;&gt;Node5 -->
<g id="edge8" class="edge"><title>Node7&#45;&gt;Node5</title>
<path fill="none" stroke="midnightblue" d="M345.447,-51.3056C372.167,-45.5997 403.329,-38.9453 428.723,-33.5227"/>
<polygon fill="midnightblue" stroke="midnightblue" points="344.493,-47.9302 335.445,-53.4415 345.955,-54.7759 344.493,-47.9302"/>
</g>
<!-- Node8&#45;&gt;Node3 -->
<g id="edge11" class="edge"><title>Node8&#45;&gt;Node3</title>
<path fill="none" stroke="midnightblue" d="M555.915,-121.759C565.904,-120.017 576.077,-118.242 585.885,-116.532"/>
<polygon fill="midnightblue" stroke="midnightblue" points="555.258,-118.321 546.008,-123.487 556.46,-125.217 555.258,-118.321"/>
</g>
</g>
</svg>
