<?xml version="1.0" encoding="UTF-8" standalone="no"?>
<!DOCTYPE svg PUBLIC "-//W3C//DTD SVG 1.1//EN"
 "http://www.w3.org/Graphics/SVG/1.1/DTD/svg11.dtd">
<!-- Generated by graphviz version 2.34.0 (20130907.0111)
 -->
<!-- Title: ResizeDlg::OffsetChildPos Pages: 1 -->
<svg width="512pt" height="95pt"
 viewBox="0.00 0.00 512.00 95.00" xmlns="http://www.w3.org/2000/svg" xmlns:xlink="http://www.w3.org/1999/xlink">
<g id="graph0" class="graph" transform="scale(1 1) rotate(0) translate(4 91)">
<title>ResizeDlg::OffsetChildPos</title>
<polygon fill="white" stroke="white" points="-4,4 -4,-91 508,-91 508,4 -4,4"/>
<!-- Node1 -->
<g id="node1" class="node"><title>Node1</title>
<polygon fill="#bfbfbf" stroke="black" points="0.5,-33.5 0.5,-54.5 155.5,-54.5 155.5,-33.5 0.5,-33.5"/>
<text text-anchor="middle" x="78" y="-40.9" font-family="Helvetica,sans-Serif" font-size="12.00">ResizeDlg::OffsetChildPos</text>
</g>
<!-- Node2 -->
<g id="node2" class="node"><title>Node2</title>
<g id="a_node2"><a xlink:href="../../df/d14/class_resize_dlg.html#abbc1b69a8e4b0ef7b28bda23385a6697" target="_top" xlink:title="Resizes an object within a parent window that allows the object to shrink vertically, but not below a minimum size. ">
<polygon fill="white" stroke="black" points="192,-51 192,-85 334,-85 334,-51 192,-51"/>
<text text-anchor="start" x="200" y="-71.4" font-family="Helvetica,sans-Serif" font-size="12.00">ResizeDlg::Bidirectional</text>
<text text-anchor="middle" x="263" y="-58.4" font-family="Helvetica,sans-Serif" font-size="12.00">Resize</text>
</a>
</g>
</g>
<!-- Node1&#45;&gt;Node2 -->
<g id="edge1" class="edge"><title>Node1&#45;&gt;Node2</title>
<path fill="none" stroke="midnightblue" d="M165.492,-55.3433C174.339,-56.5035 183.249,-57.672 191.889,-58.8052"/>
<polygon fill="midnightblue" stroke="midnightblue" points="165.918,-51.8692 155.548,-54.0391 165.008,-58.8098 165.918,-51.8692"/>
</g>
<!-- Node4 -->
<g id="node4" class="node"><title>Node4</title>
<g id="a_node4"><a xlink:href="../../df/d14/class_resize_dlg.html#af2c9f4bac99e8845c6b5167bd25068eb" target="_top" xlink:title="Resizes an object within a parent window but does not allow the object to shrink vertically. ">
<polygon fill="white" stroke="black" points="206.5,-9.5 206.5,-30.5 319.5,-30.5 319.5,-9.5 206.5,-9.5"/>
<text text-anchor="middle" x="263" y="-16.9" font-family="Helvetica,sans-Serif" font-size="12.00">ResizeDlg::Resize</text>
</a>
</g>
</g>
<!-- Node1&#45;&gt;Node4 -->
<g id="edge3" class="edge"><title>Node1&#45;&gt;Node4</title>
<path fill="none" stroke="midnightblue" d="M165.597,-32.643C179.459,-30.8251 193.471,-28.9874 206.356,-27.2975"/>
<polygon fill="midnightblue" stroke="midnightblue" points="165.008,-29.1902 155.548,-33.9609 165.918,-36.1308 165.008,-29.1902"/>
</g>
<!-- Node3 -->
<g id="node3" class="node"><title>Node3</title>
<g id="a_node3"><a xlink:href="../../dd/dd1/class_c_operator_console_dlg.html#add79ed364a2fd29eb4dd69f831bd0119" target="_top" xlink:title="Allows the display to be resized after the user changes the image size. ">
<polygon fill="white" stroke="black" points="370,-53 370,-87 504,-87 504,-53 370,-53"/>
<text text-anchor="start" x="378" y="-73.4" font-family="Helvetica,sans-Serif" font-size="12.00">COperatorConsoleDlg</text>
<text text-anchor="middle" x="437" y="-60.4" font-family="Helvetica,sans-Serif" font-size="12.00">::ReInitDialog</text>
</a>
</g>
</g>
<!-- Node2&#45;&gt;Node3 -->
<g id="edge2" class="edge"><title>Node2&#45;&gt;Node3</title>
<path fill="none" stroke="midnightblue" d="M344.67,-68.938C353.09,-69.0359 361.578,-69.1346 369.81,-69.2303"/>
<polygon fill="midnightblue" stroke="midnightblue" points="344.495,-65.4359 334.455,-68.8192 344.414,-72.4354 344.495,-65.4359"/>
</g>
<!-- Node5 -->
<g id="node5" class="node"><title>Node5</title>
<g id="a_node5"><a xlink:href="../../dd/dd1/class_c_operator_console_dlg.html#ad5b6ec38f5046264163133739861dd0e" target="_top" xlink:title="COperatorConsoleDlg\l::OnInitDialog">
<polygon fill="white" stroke="black" points="370,-0 370,-34 504,-34 504,-0 370,-0"/>
<text text-anchor="start" x="378" y="-20.4" font-family="Helvetica,sans-Serif" font-size="12.00">COperatorConsoleDlg</text>
<text text-anchor="middle" x="437" y="-7.4" font-family="Helvetica,sans-Serif" font-size="12.00">::OnInitDialog</text>
</a>
</g>
</g>
<!-- Node4&#45;&gt;Node5 -->
<g id="edge4" class="edge"><title>Node4&#45;&gt;Node5</title>
<path fill="none" stroke="midnightblue" d="M330.149,-18.8462C343.203,-18.6186 356.902,-18.3796 369.953,-18.152"/>
<polygon fill="midnightblue" stroke="midnightblue" points="329.781,-15.352 319.843,-19.026 329.903,-22.351 329.781,-15.352"/>
</g>
</g>
</svg>
