<?xml version="1.0" encoding="UTF-8" standalone="no"?>
<!DOCTYPE svg PUBLIC "-//W3C//DTD SVG 1.1//EN"
 "http://www.w3.org/Graphics/SVG/1.1/DTD/svg11.dtd">
<!-- Generated by graphviz version 2.34.0 (20130907.0111)
 -->
<!-- Title: ResizeDlg::BidirectionalResize Pages: 1 -->
<svg width="320pt" height="42pt"
 viewBox="0.00 0.00 320.00 42.00" xmlns="http://www.w3.org/2000/svg" xmlns:xlink="http://www.w3.org/1999/xlink">
<g id="graph0" class="graph" transform="scale(1 1) rotate(0) translate(4 38)">
<title>ResizeDlg::BidirectionalResize</title>
<polygon fill="white" stroke="white" points="-4,4 -4,-38 316,-38 316,4 -4,4"/>
<!-- Node1 -->
<g id="node1" class="node"><title>Node1</title>
<polygon fill="#bfbfbf" stroke="black" points="0,-0 0,-34 142,-34 142,-0 0,-0"/>
<text text-anchor="start" x="8" y="-20.4" font-family="Helvetica,sans-Serif" font-size="12.00">ResizeDlg::Bidirectional</text>
<text text-anchor="middle" x="71" y="-7.4" font-family="Helvetica,sans-Serif" font-size="12.00">Resize</text>
</g>
<!-- Node2 -->
<g id="node2" class="node"><title>Node2</title>
<g id="a_node2"><a xlink:href="../../dd/dd1/class_c_operator_console_dlg.html#add79ed364a2fd29eb4dd69f831bd0119" target="_top" xlink:title="Allows the display to be resized after the user changes the image size. ">
<polygon fill="white" stroke="black" points="178,-0 178,-34 312,-34 312,-0 178,-0"/>
<text text-anchor="start" x="186" y="-20.4" font-family="Helvetica,sans-Serif" font-size="12.00">COperatorConsoleDlg</text>
<text text-anchor="middle" x="245" y="-7.4" font-family="Helvetica,sans-Serif" font-size="12.00">::ReInitDialog</text>
</a>
</g>
</g>
<!-- Node1&#45;&gt;Node2 -->
<g id="edge1" class="edge"><title>Node1&#45;&gt;Node2</title>
<path fill="none" stroke="midnightblue" d="M152.67,-17C161.09,-17 169.578,-17 177.81,-17"/>
<polygon fill="midnightblue" stroke="midnightblue" points="152.455,-13.5001 142.455,-17 152.455,-20.5001 152.455,-13.5001"/>
</g>
</g>
</svg>
