<?xml version="1.0" encoding="UTF-8" standalone="no"?>
<!DOCTYPE svg PUBLIC "-//W3C//DTD SVG 1.1//EN"
 "http://www.w3.org/Graphics/SVG/1.1/DTD/svg11.dtd">
<!-- Generated by graphviz version 2.34.0 (20130907.0111)
 -->
<!-- Title: ResizeDlg::GetImageWindowDelta Pages: 1 -->
<svg width="526pt" height="95pt"
 viewBox="0.00 0.00 526.00 95.00" xmlns="http://www.w3.org/2000/svg" xmlns:xlink="http://www.w3.org/1999/xlink">
<g id="graph0" class="graph" transform="scale(1 1) rotate(0) translate(4 91)">
<title>ResizeDlg::GetImageWindowDelta</title>
<polygon fill="white" stroke="white" points="-4,4 -4,-91 522,-91 522,4 -4,4"/>
<!-- Node1 -->
<g id="node1" class="node"><title>Node1</title>
<polygon fill="#bfbfbf" stroke="black" points="0,-27 0,-61 170,-61 170,-27 0,-27"/>
<text text-anchor="start" x="8" y="-47.4" font-family="Helvetica,sans-Serif" font-size="12.00">ResizeDlg::GetImageWindow</text>
<text text-anchor="middle" x="85" y="-34.4" font-family="Helvetica,sans-Serif" font-size="12.00">Delta</text>
</g>
<!-- Node2 -->
<g id="node2" class="node"><title>Node2</title>
<g id="a_node2"><a xlink:href="../../df/d14/class_resize_dlg.html#abbc1b69a8e4b0ef7b28bda23385a6697" target="_top" xlink:title="Resizes an object within a parent window that allows the object to shrink vertically, but not below a minimum size. ">
<polygon fill="white" stroke="black" points="206,-51 206,-85 348,-85 348,-51 206,-51"/>
<text text-anchor="start" x="214" y="-71.4" font-family="Helvetica,sans-Serif" font-size="12.00">ResizeDlg::Bidirectional</text>
<text text-anchor="middle" x="277" y="-58.4" font-family="Helvetica,sans-Serif" font-size="12.00">Resize</text>
</a>
</g>
</g>
<!-- Node1&#45;&gt;Node2 -->
<g id="edge1" class="edge"><title>Node1&#45;&gt;Node2</title>
<path fill="none" stroke="midnightblue" d="M180.254,-55.9058C188.865,-56.9935 197.484,-58.0822 205.829,-59.1363"/>
<polygon fill="midnightblue" stroke="midnightblue" points="180.526,-52.4124 170.167,-54.6316 179.649,-59.3573 180.526,-52.4124"/>
</g>
<!-- Node4 -->
<g id="node4" class="node"><title>Node4</title>
<g id="a_node4"><a xlink:href="../../df/d14/class_resize_dlg.html#af2c9f4bac99e8845c6b5167bd25068eb" target="_top" xlink:title="Resizes an object within a parent window but does not allow the object to shrink vertically. ">
<polygon fill="white" stroke="black" points="220.5,-9.5 220.5,-30.5 333.5,-30.5 333.5,-9.5 220.5,-9.5"/>
<text text-anchor="middle" x="277" y="-16.9" font-family="Helvetica,sans-Serif" font-size="12.00">ResizeDlg::Resize</text>
</a>
</g>
</g>
<!-- Node1&#45;&gt;Node4 -->
<g id="edge3" class="edge"><title>Node1&#45;&gt;Node4</title>
<path fill="none" stroke="midnightblue" d="M180.149,-32.1075C193.887,-30.3722 207.648,-28.6339 220.284,-27.0378"/>
<polygon fill="midnightblue" stroke="midnightblue" points="179.649,-28.6427 170.167,-33.3684 180.526,-35.5876 179.649,-28.6427"/>
</g>
<!-- Node3 -->
<g id="node3" class="node"><title>Node3</title>
<g id="a_node3"><a xlink:href="../../dd/dd1/class_c_operator_console_dlg.html#add79ed364a2fd29eb4dd69f831bd0119" target="_top" xlink:title="Allows the display to be resized after the user changes the image size. ">
<polygon fill="white" stroke="black" points="384,-53 384,-87 518,-87 518,-53 384,-53"/>
<text text-anchor="start" x="392" y="-73.4" font-family="Helvetica,sans-Serif" font-size="12.00">COperatorConsoleDlg</text>
<text text-anchor="middle" x="451" y="-60.4" font-family="Helvetica,sans-Serif" font-size="12.00">::ReInitDialog</text>
</a>
</g>
</g>
<!-- Node2&#45;&gt;Node3 -->
<g id="edge2" class="edge"><title>Node2&#45;&gt;Node3</title>
<path fill="none" stroke="midnightblue" d="M358.67,-68.938C367.09,-69.0359 375.578,-69.1346 383.81,-69.2303"/>
<polygon fill="midnightblue" stroke="midnightblue" points="358.495,-65.4359 348.455,-68.8192 358.414,-72.4354 358.495,-65.4359"/>
</g>
<!-- Node5 -->
<g id="node5" class="node"><title>Node5</title>
<g id="a_node5"><a xlink:href="../../dd/dd1/class_c_operator_console_dlg.html#ad5b6ec38f5046264163133739861dd0e" target="_top" xlink:title="COperatorConsoleDlg\l::OnInitDialog">
<polygon fill="white" stroke="black" points="384,-0 384,-34 518,-34 518,-0 384,-0"/>
<text text-anchor="start" x="392" y="-20.4" font-family="Helvetica,sans-Serif" font-size="12.00">COperatorConsoleDlg</text>
<text text-anchor="middle" x="451" y="-7.4" font-family="Helvetica,sans-Serif" font-size="12.00">::OnInitDialog</text>
</a>
</g>
</g>
<!-- Node4&#45;&gt;Node5 -->
<g id="edge4" class="edge"><title>Node4&#45;&gt;Node5</title>
<path fill="none" stroke="midnightblue" d="M344.149,-18.8462C357.203,-18.6186 370.902,-18.3796 383.953,-18.152"/>
<polygon fill="midnightblue" stroke="midnightblue" points="343.781,-15.352 333.843,-19.026 343.903,-22.351 343.781,-15.352"/>
</g>
</g>
</svg>
