<?xml version="1.0" encoding="UTF-8" standalone="no"?>
<!DOCTYPE svg PUBLIC "-//W3C//DTD SVG 1.1//EN"
 "http://www.w3.org/Graphics/SVG/1.1/DTD/svg11.dtd">
<!-- Generated by graphviz version 2.34.0 (20130907.0111)
 -->
<!-- Title: ResizeDlg::BidirectionalResize Pages: 1 -->
<svg width="558pt" height="202pt"
 viewBox="0.00 0.00 558.00 202.00" xmlns="http://www.w3.org/2000/svg" xmlns:xlink="http://www.w3.org/1999/xlink">
<g id="graph0" class="graph" transform="scale(1 1) rotate(0) translate(4 198)">
<title>ResizeDlg::BidirectionalResize</title>
<polygon fill="white" stroke="white" points="-4,4 -4,-198 554,-198 554,4 -4,4"/>
<!-- Node1 -->
<g id="node1" class="node"><title>Node1</title>
<polygon fill="#bfbfbf" stroke="black" points="0,-73 0,-107 142,-107 142,-73 0,-73"/>
<text text-anchor="start" x="8" y="-93.4" font-family="Helvetica,sans-Serif" font-size="12.00">ResizeDlg::Bidirectional</text>
<text text-anchor="middle" x="71" y="-80.4" font-family="Helvetica,sans-Serif" font-size="12.00">Resize</text>
</g>
<!-- Node2 -->
<g id="node2" class="node"><title>Node2</title>
<g id="a_node2"><a xlink:href="../../df/d14/class_resize_dlg.html#ac488d477589ed7bf19d53c0a2f14b02a" target="_top" xlink:title="A function that centers an object with respect to the parent with the option to select only vertical ...">
<polygon fill="white" stroke="black" points="188,-172.5 188,-193.5 342,-193.5 342,-172.5 188,-172.5"/>
<text text-anchor="middle" x="265" y="-179.9" font-family="Helvetica,sans-Serif" font-size="12.00">ResizeDlg::CenterWindow</text>
</a>
</g>
</g>
<!-- Node1&#45;&gt;Node2 -->
<g id="edge1" class="edge"><title>Node1&#45;&gt;Node2</title>
<path fill="none" stroke="midnightblue" d="M92.5863,-107.301C113.029,-123.648 145.878,-147.729 178,-162 184.323,-164.809 191.081,-167.279 197.926,-169.444"/>
<polygon fill="midnightblue" stroke="midnightblue" points="197.395,-172.936 207.977,-172.399 199.37,-166.22 197.395,-172.936"/>
</g>
<!-- Node3 -->
<g id="node3" class="node"><title>Node3</title>
<g id="a_node3"><a xlink:href="../../df/d14/class_resize_dlg.html#abe2cd6505a36ea159640b6b35cf81bbc" target="_top" xlink:title="Calculates the differences in window height and width between the current and new sizes...">
<polygon fill="white" stroke="black" points="180,-119 180,-153 350,-153 350,-119 180,-119"/>
<text text-anchor="start" x="188" y="-139.4" font-family="Helvetica,sans-Serif" font-size="12.00">ResizeDlg::GetImageWindow</text>
<text text-anchor="middle" x="265" y="-126.4" font-family="Helvetica,sans-Serif" font-size="12.00">Delta</text>
</a>
</g>
</g>
<!-- Node1&#45;&gt;Node3 -->
<g id="edge2" class="edge"><title>Node1&#45;&gt;Node3</title>
<path fill="none" stroke="midnightblue" d="M142.131,-106.802C155.406,-109.983 169.395,-113.334 182.973,-116.587"/>
<polygon fill="midnightblue" stroke="midnightblue" points="182.231,-120.009 192.772,-118.935 183.862,-113.201 182.231,-120.009"/>
</g>
<!-- Node4 -->
<g id="node4" class="node"><title>Node4</title>
<g id="a_node4"><a xlink:href="../../df/d14/class_resize_dlg.html#a39f24d6991e0289185f55fe79220b7ae" target="_top" xlink:title="A function that acquires either the window or client size. ">
<polygon fill="white" stroke="black" points="388.5,-79.5 388.5,-100.5 549.5,-100.5 549.5,-79.5 388.5,-79.5"/>
<text text-anchor="middle" x="469" y="-86.9" font-family="Helvetica,sans-Serif" font-size="12.00">ResizeDlg::GetWindowSize</text>
</a>
</g>
</g>
<!-- Node1&#45;&gt;Node4 -->
<g id="edge4" class="edge"><title>Node1&#45;&gt;Node4</title>
<path fill="none" stroke="midnightblue" d="M142.341,-90C208.116,-90 306.657,-90 378.11,-90"/>
<polygon fill="midnightblue" stroke="midnightblue" points="378.448,-93.5001 388.448,-90 378.448,-86.5001 378.448,-93.5001"/>
</g>
<!-- Node5 -->
<g id="node5" class="node"><title>Node5</title>
<g id="a_node5"><a xlink:href="../../df/d14/class_resize_dlg.html#ac1be0074b5ee381220d10b01f54e3c58" target="_top" xlink:title="ResizeDlg::OffsetChildPos">
<polygon fill="white" stroke="black" points="187.5,-40.5 187.5,-61.5 342.5,-61.5 342.5,-40.5 187.5,-40.5"/>
<text text-anchor="middle" x="265" y="-47.9" font-family="Helvetica,sans-Serif" font-size="12.00">ResizeDlg::OffsetChildPos</text>
</a>
</g>
</g>
<!-- Node1&#45;&gt;Node5 -->
<g id="edge5" class="edge"><title>Node1&#45;&gt;Node5</title>
<path fill="none" stroke="midnightblue" d="M142.131,-75.7546C161.836,-71.7522 183.111,-67.4306 202.285,-63.5358"/>
<polygon fill="midnightblue" stroke="midnightblue" points="202.998,-66.9625 212.101,-61.5419 201.605,-60.1026 202.998,-66.9625"/>
</g>
<!-- Node6 -->
<g id="node6" class="node"><title>Node6</title>
<g id="a_node6"><a xlink:href="../../df/d14/class_resize_dlg.html#ad862978f7d388156953bcad1ee8fb7d0" target="_top" xlink:title="Changes the window size. ">
<polygon fill="white" stroke="black" points="178.5,-0.5 178.5,-21.5 351.5,-21.5 351.5,-0.5 178.5,-0.5"/>
<text text-anchor="middle" x="265" y="-7.9" font-family="Helvetica,sans-Serif" font-size="12.00">ResizeDlg::OffsetWindowSize</text>
</a>
</g>
</g>
<!-- Node1&#45;&gt;Node6 -->
<g id="edge6" class="edge"><title>Node1&#45;&gt;Node6</title>
<path fill="none" stroke="midnightblue" d="M98.0035,-72.8121C118.868,-59.7016 149.311,-42.0679 178,-31 184.438,-28.5163 191.271,-26.2877 198.161,-24.3012"/>
<polygon fill="midnightblue" stroke="midnightblue" points="199.522,-27.5585 208.257,-21.5625 197.69,-20.8026 199.522,-27.5585"/>
</g>
<!-- Node3&#45;&gt;Node4 -->
<g id="edge3" class="edge"><title>Node3&#45;&gt;Node4</title>
<path fill="none" stroke="midnightblue" d="M340.93,-118.937C364.396,-113.593 389.877,-107.79 411.818,-102.794"/>
<polygon fill="midnightblue" stroke="midnightblue" points="412.657,-106.193 421.63,-100.56 411.102,-99.3674 412.657,-106.193"/>
</g>
<!-- Node6&#45;&gt;Node4 -->
<g id="edge7" class="edge"><title>Node6&#45;&gt;Node4</title>
<path fill="none" stroke="midnightblue" d="M320.26,-21.5126C330.92,-24.1652 341.918,-27.3256 352,-31 384.091,-42.6962 418.732,-61.1526 441.72,-74.3067"/>
<polygon fill="midnightblue" stroke="midnightblue" points="440.115,-77.4217 450.522,-79.4102 443.627,-71.3661 440.115,-77.4217"/>
</g>
</g>
</svg>
