<?xml version="1.0" encoding="UTF-8" standalone="no"?>
<!DOCTYPE svg PUBLIC "-//W3C//DTD SVG 1.1//EN"
 "http://www.w3.org/Graphics/SVG/1.1/DTD/svg11.dtd">
<!-- Generated by graphviz version 2.34.0 (20130907.0111)
 -->
<!-- Title: ResizeDlg::OffsetWindowSize Pages: 1 -->
<svg width="530pt" height="95pt"
 viewBox="0.00 0.00 530.00 95.00" xmlns="http://www.w3.org/2000/svg" xmlns:xlink="http://www.w3.org/1999/xlink">
<g id="graph0" class="graph" transform="scale(1 1) rotate(0) translate(4 91)">
<title>ResizeDlg::OffsetWindowSize</title>
<polygon fill="white" stroke="white" points="-4,4 -4,-91 526,-91 526,4 -4,4"/>
<!-- Node1 -->
<g id="node1" class="node"><title>Node1</title>
<polygon fill="#bfbfbf" stroke="black" points="0.5,-33.5 0.5,-54.5 173.5,-54.5 173.5,-33.5 0.5,-33.5"/>
<text text-anchor="middle" x="87" y="-40.9" font-family="Helvetica,sans-Serif" font-size="12.00">ResizeDlg::OffsetWindowSize</text>
</g>
<!-- Node2 -->
<g id="node2" class="node"><title>Node2</title>
<g id="a_node2"><a xlink:href="../../df/d14/class_resize_dlg.html#abbc1b69a8e4b0ef7b28bda23385a6697" target="_top" xlink:title="Resizes an object within a parent window that allows the object to shrink vertically, but not below a minimum size. ">
<polygon fill="white" stroke="black" points="210,-51 210,-85 352,-85 352,-51 210,-51"/>
<text text-anchor="start" x="218" y="-71.4" font-family="Helvetica,sans-Serif" font-size="12.00">ResizeDlg::Bidirectional</text>
<text text-anchor="middle" x="281" y="-58.4" font-family="Helvetica,sans-Serif" font-size="12.00">Resize</text>
</a>
</g>
</g>
<!-- Node1&#45;&gt;Node2 -->
<g id="edge1" class="edge"><title>Node1&#45;&gt;Node2</title>
<path fill="none" stroke="midnightblue" d="M182.292,-55.7865C191.603,-56.9503 200.935,-58.1168 209.938,-59.2422"/>
<polygon fill="midnightblue" stroke="midnightblue" points="182.571,-52.2942 172.214,-54.5267 181.703,-59.2402 182.571,-52.2942"/>
</g>
<!-- Node4 -->
<g id="node4" class="node"><title>Node4</title>
<g id="a_node4"><a xlink:href="../../df/d14/class_resize_dlg.html#af2c9f4bac99e8845c6b5167bd25068eb" target="_top" xlink:title="Resizes an object within a parent window but does not allow the object to shrink vertically. ">
<polygon fill="white" stroke="black" points="224.5,-9.5 224.5,-30.5 337.5,-30.5 337.5,-9.5 224.5,-9.5"/>
<text text-anchor="middle" x="281" y="-16.9" font-family="Helvetica,sans-Serif" font-size="12.00">ResizeDlg::Resize</text>
</a>
</g>
</g>
<!-- Node1&#45;&gt;Node4 -->
<g id="edge3" class="edge"><title>Node1&#45;&gt;Node4</title>
<path fill="none" stroke="midnightblue" d="M182.173,-32.2284C196.594,-30.4257 211.071,-28.6162 224.299,-26.9626"/>
<polygon fill="midnightblue" stroke="midnightblue" points="181.703,-28.7598 172.214,-33.4733 182.571,-35.7058 181.703,-28.7598"/>
</g>
<!-- Node3 -->
<g id="node3" class="node"><title>Node3</title>
<g id="a_node3"><a xlink:href="../../dd/dd1/class_c_operator_console_dlg.html#add79ed364a2fd29eb4dd69f831bd0119" target="_top" xlink:title="Allows the display to be resized after the user changes the image size. ">
<polygon fill="white" stroke="black" points="388,-53 388,-87 522,-87 522,-53 388,-53"/>
<text text-anchor="start" x="396" y="-73.4" font-family="Helvetica,sans-Serif" font-size="12.00">COperatorConsoleDlg</text>
<text text-anchor="middle" x="455" y="-60.4" font-family="Helvetica,sans-Serif" font-size="12.00">::ReInitDialog</text>
</a>
</g>
</g>
<!-- Node2&#45;&gt;Node3 -->
<g id="edge2" class="edge"><title>Node2&#45;&gt;Node3</title>
<path fill="none" stroke="midnightblue" d="M362.67,-68.938C371.09,-69.0359 379.578,-69.1346 387.81,-69.2303"/>
<polygon fill="midnightblue" stroke="midnightblue" points="362.495,-65.4359 352.455,-68.8192 362.414,-72.4354 362.495,-65.4359"/>
</g>
<!-- Node5 -->
<g id="node5" class="node"><title>Node5</title>
<g id="a_node5"><a xlink:href="../../dd/dd1/class_c_operator_console_dlg.html#ad5b6ec38f5046264163133739861dd0e" target="_top" xlink:title="COperatorConsoleDlg\l::OnInitDialog">
<polygon fill="white" stroke="black" points="388,-0 388,-34 522,-34 522,-0 388,-0"/>
<text text-anchor="start" x="396" y="-20.4" font-family="Helvetica,sans-Serif" font-size="12.00">COperatorConsoleDlg</text>
<text text-anchor="middle" x="455" y="-7.4" font-family="Helvetica,sans-Serif" font-size="12.00">::OnInitDialog</text>
</a>
</g>
</g>
<!-- Node4&#45;&gt;Node5 -->
<g id="edge4" class="edge"><title>Node4&#45;&gt;Node5</title>
<path fill="none" stroke="midnightblue" d="M348.149,-18.8462C361.203,-18.6186 374.902,-18.3796 387.953,-18.152"/>
<polygon fill="midnightblue" stroke="midnightblue" points="347.781,-15.352 337.843,-19.026 347.903,-22.351 347.781,-15.352"/>
</g>
</g>
</svg>
