<?xml version="1.0" encoding="UTF-8" standalone="no"?>
<!DOCTYPE svg PUBLIC "-//W3C//DTD SVG 1.1//EN"
 "http://www.w3.org/Graphics/SVG/1.1/DTD/svg11.dtd">
<!-- Generated by graphviz version 2.34.0 (20130907.0111)
 -->
<!-- Title: ResizeDlg::Resize Pages: 1 -->
<svg width="530pt" height="164pt"
 viewBox="0.00 0.00 530.00 164.00" xmlns="http://www.w3.org/2000/svg" xmlns:xlink="http://www.w3.org/1999/xlink">
<g id="graph0" class="graph" transform="scale(1 1) rotate(0) translate(4 160)">
<title>ResizeDlg::Resize</title>
<polygon fill="white" stroke="white" points="-4,4 -4,-160 526,-160 526,4 -4,4"/>
<!-- Node1 -->
<g id="node1" class="node"><title>Node1</title>
<polygon fill="#bfbfbf" stroke="black" points="0.5,-63.5 0.5,-84.5 113.5,-84.5 113.5,-63.5 0.5,-63.5"/>
<text text-anchor="middle" x="57" y="-70.9" font-family="Helvetica,sans-Serif" font-size="12.00">ResizeDlg::Resize</text>
</g>
<!-- Node2 -->
<g id="node2" class="node"><title>Node2</title>
<g id="a_node2"><a xlink:href="../../df/d14/class_resize_dlg.html#ac488d477589ed7bf19d53c0a2f14b02a" target="_top" xlink:title="A function that centers an object with respect to the parent with the option to select only vertical ...">
<polygon fill="white" stroke="black" points="160,-134.5 160,-155.5 314,-155.5 314,-134.5 160,-134.5"/>
<text text-anchor="middle" x="237" y="-141.9" font-family="Helvetica,sans-Serif" font-size="12.00">ResizeDlg::CenterWindow</text>
</a>
</g>
</g>
<!-- Node1&#45;&gt;Node2 -->
<g id="edge1" class="edge"><title>Node1&#45;&gt;Node2</title>
<path fill="none" stroke="midnightblue" d="M74.3305,-84.5686C92.2548,-95.758 122.19,-113.256 150,-124 157.542,-126.914 165.617,-129.517 173.686,-131.814"/>
<polygon fill="midnightblue" stroke="midnightblue" points="172.923,-135.233 183.49,-134.464 174.75,-128.476 172.923,-135.233"/>
</g>
<!-- Node3 -->
<g id="node3" class="node"><title>Node3</title>
<g id="a_node3"><a xlink:href="../../df/d14/class_resize_dlg.html#abe2cd6505a36ea159640b6b35cf81bbc" target="_top" xlink:title="Calculates the differences in window height and width between the current and new sizes...">
<polygon fill="white" stroke="black" points="152,-81 152,-115 322,-115 322,-81 152,-81"/>
<text text-anchor="start" x="160" y="-101.4" font-family="Helvetica,sans-Serif" font-size="12.00">ResizeDlg::GetImageWindow</text>
<text text-anchor="middle" x="237" y="-88.4" font-family="Helvetica,sans-Serif" font-size="12.00">Delta</text>
</a>
</g>
</g>
<!-- Node1&#45;&gt;Node3 -->
<g id="edge2" class="edge"><title>Node1&#45;&gt;Node3</title>
<path fill="none" stroke="midnightblue" d="M113.832,-81.5279C122.761,-82.7318 132.21,-84.0058 141.74,-85.2907"/>
<polygon fill="midnightblue" stroke="midnightblue" points="141.303,-88.7635 151.681,-86.6312 142.239,-81.8263 141.303,-88.7635"/>
</g>
<!-- Node5 -->
<g id="node5" class="node"><title>Node5</title>
<g id="a_node5"><a xlink:href="../../df/d14/class_resize_dlg.html#ac1be0074b5ee381220d10b01f54e3c58" target="_top" xlink:title="ResizeDlg::OffsetChildPos">
<polygon fill="white" stroke="black" points="159.5,-40.5 159.5,-61.5 314.5,-61.5 314.5,-40.5 159.5,-40.5"/>
<text text-anchor="middle" x="237" y="-47.9" font-family="Helvetica,sans-Serif" font-size="12.00">ResizeDlg::OffsetChildPos</text>
</a>
</g>
</g>
<!-- Node1&#45;&gt;Node5 -->
<g id="edge4" class="edge"><title>Node1&#45;&gt;Node5</title>
<path fill="none" stroke="midnightblue" d="M113.832,-66.7858C125.143,-65.3243 137.287,-63.755 149.374,-62.1933"/>
<polygon fill="midnightblue" stroke="midnightblue" points="150.024,-65.6384 159.493,-60.8857 149.127,-58.6961 150.024,-65.6384"/>
</g>
<!-- Node6 -->
<g id="node6" class="node"><title>Node6</title>
<g id="a_node6"><a xlink:href="../../df/d14/class_resize_dlg.html#ad862978f7d388156953bcad1ee8fb7d0" target="_top" xlink:title="Changes the window size. ">
<polygon fill="white" stroke="black" points="150.5,-0.5 150.5,-21.5 323.5,-21.5 323.5,-0.5 150.5,-0.5"/>
<text text-anchor="middle" x="237" y="-7.9" font-family="Helvetica,sans-Serif" font-size="12.00">ResizeDlg::OffsetWindowSize</text>
</a>
</g>
</g>
<!-- Node1&#45;&gt;Node6 -->
<g id="edge5" class="edge"><title>Node1&#45;&gt;Node6</title>
<path fill="none" stroke="midnightblue" d="M77.6006,-63.3715C95.8939,-53.8092 124.172,-39.9292 150,-31 157.334,-28.4643 165.131,-26.1494 172.92,-24.0671"/>
<polygon fill="midnightblue" stroke="midnightblue" points="173.926,-27.4226 182.748,-21.5548 172.192,-20.6407 173.926,-27.4226"/>
</g>
<!-- Node4 -->
<g id="node4" class="node"><title>Node4</title>
<g id="a_node4"><a xlink:href="../../df/d14/class_resize_dlg.html#a39f24d6991e0289185f55fe79220b7ae" target="_top" xlink:title="A function that acquires either the window or client size. ">
<polygon fill="white" stroke="black" points="360.5,-43.5 360.5,-64.5 521.5,-64.5 521.5,-43.5 360.5,-43.5"/>
<text text-anchor="middle" x="441" y="-50.9" font-family="Helvetica,sans-Serif" font-size="12.00">ResizeDlg::GetWindowSize</text>
</a>
</g>
</g>
<!-- Node3&#45;&gt;Node4 -->
<g id="edge3" class="edge"><title>Node3&#45;&gt;Node4</title>
<path fill="none" stroke="midnightblue" d="M316.098,-80.9885C337.947,-76.2294 361.305,-71.1415 381.784,-66.6807"/>
<polygon fill="midnightblue" stroke="midnightblue" points="382.561,-70.0936 391.587,-64.5454 381.071,-63.254 382.561,-70.0936"/>
</g>
<!-- Node6&#45;&gt;Node4 -->
<g id="edge6" class="edge"><title>Node6&#45;&gt;Node4</title>
<path fill="none" stroke="midnightblue" d="M287.415,-21.519C315.538,-27.5056 350.956,-35.045 380.587,-41.3527"/>
<polygon fill="midnightblue" stroke="midnightblue" points="379.886,-44.7817 390.395,-43.4406 381.343,-37.9351 379.886,-44.7817"/>
</g>
</g>
</svg>
