<?xml version="1.0" encoding="UTF-8" standalone="no"?>
<!DOCTYPE svg PUBLIC "-//W3C//DTD SVG 1.1//EN"
 "http://www.w3.org/Graphics/SVG/1.1/DTD/svg11.dtd">
<!-- Generated by graphviz version 2.34.0 (20130907.0111)
 -->
<!-- Title: ImatestLibAcq Pages: 1 -->
<svg width="114pt" height="88pt"
 viewBox="0.00 0.00 114.00 88.00" xmlns="http://www.w3.org/2000/svg" xmlns:xlink="http://www.w3.org/1999/xlink">
<g id="graph0" class="graph" transform="scale(1 1) rotate(0) translate(4 84)">
<title>ImatestLibAcq</title>
<polygon fill="white" stroke="white" points="-4,4 -4,-84 110,-84 110,4 -4,4"/>
<!-- Node1 -->
<g id="node1" class="node"><title>Node1</title>
<polygon fill="#bfbfbf" stroke="black" points="7,-0.5 7,-21.5 99,-21.5 99,-0.5 7,-0.5"/>
<text text-anchor="middle" x="53" y="-7.9" font-family="Helvetica,sans-Serif" font-size="12.00">ImatestLibAcq</text>
</g>
<!-- Node2 -->
<g id="node2" class="node"><title>Node2</title>
<g id="a_node2"><a xlink:href="../../d8/d29/class_image_acquisition.html" target="_top" xlink:title="the base class for image acquisition ">
<polygon fill="white" stroke="black" points="-0.5,-58.5 -0.5,-79.5 106.5,-79.5 106.5,-58.5 -0.5,-58.5"/>
<text text-anchor="middle" x="53" y="-65.9" font-family="Helvetica,sans-Serif" font-size="12.00">ImageAcquisition</text>
</a>
</g>
</g>
<!-- Node2&#45;&gt;Node1 -->
<g id="edge1" class="edge"><title>Node2&#45;&gt;Node1</title>
<path fill="none" stroke="midnightblue" d="M33.6556,-48.7493C31.7039,-39.6064 32.9069,-29.0798 37.2646,-21.6427"/>
<polygon fill="midnightblue" stroke="midnightblue" points="30.4239,-50.1004 37.1995,-58.2455 36.9821,-47.6529 30.4239,-50.1004"/>
</g>
<!-- Node2&#45;&gt;Node1 -->
<g id="edge2" class="edge"><title>Node2&#45;&gt;Node1</title>
<path fill="none" stroke="midnightblue" d="M46.5113,-48.1575C45.919,-39.155 46.3335,-28.9199 47.7549,-21.6427"/>
<polygon fill="midnightblue" stroke="midnightblue" points="43.0561,-48.739 47.7332,-58.2455 50.0053,-47.8972 43.0561,-48.739"/>
</g>
<!-- Node2&#45;&gt;Node1 -->
<g id="edge3" class="edge"><title>Node2&#45;&gt;Node1</title>
<path fill="none" stroke="midnightblue" d="M59.4887,-48.1575C60.081,-39.155 59.6665,-28.9199 58.2451,-21.6427"/>
<polygon fill="midnightblue" stroke="midnightblue" points="55.9947,-47.8972 58.2668,-58.2455 62.9439,-48.739 55.9947,-47.8972"/>
</g>
<!-- Node2&#45;&gt;Node1 -->
<g id="edge4" class="edge"><title>Node2&#45;&gt;Node1</title>
<path fill="none" stroke="midnightblue" d="M72.3444,-48.7493C74.2961,-39.6064 73.0931,-29.0798 68.7354,-21.6427"/>
<polygon fill="midnightblue" stroke="midnightblue" points="69.0179,-47.6529 68.8005,-58.2455 75.5761,-50.1004 69.0179,-47.6529"/>
</g>
</g>
</svg>
